<?xml version="1.0" encoding="UTF-8" standalone="no"?>
<!-- Created with Inkscape (http://www.inkscape.org/) -->

<svg
   version="1.1"
   id="svg1"
   width="513"
   height="450"
   viewBox="0 0 513 450"
   sodipodi:docname="BUSINESS_39.svg"
   inkscape:version="1.3.2 (091e20e, 2023-11-25, custom)"
   xmlns:inkscape="http://www.inkscape.org/namespaces/inkscape"
   xmlns:sodipodi="http://sodipodi.sourceforge.net/DTD/sodipodi-0.dtd"
   xmlns="http://www.w3.org/2000/svg"
   xmlns:svg="http://www.w3.org/2000/svg">
  <defs
     id="defs1" />
  <sodipodi:namedview
     id="namedview1"
     pagecolor="#ffffff"
     bordercolor="#000000"
     borderopacity="0.25"
     inkscape:showpageshadow="2"
     inkscape:pageopacity="0.0"
     inkscape:pagecheckerboard="0"
     inkscape:deskcolor="#d1d1d1"
     showgrid="false"
     inkscape:zoom="1.5653021"
     inkscape:cx="256.5"
     inkscape:cy="225.19614"
     inkscape:window-width="1920"
     inkscape:window-height="1001"
     inkscape:window-x="-9"
     inkscape:window-y="-9"
     inkscape:window-maximized="1"
     inkscape:current-layer="g1" />
  <g
     inkscape:groupmode="layer"
     inkscape:label="Image"
     id="g1">
    <g
       id="g5">
      <path
         style="fill:#fefefe"
         d="M 0,225 V 0 H 256.5 513 V 225 450 H 256.5 0 Z"
         id="path9" />
      <path
         style="fill:#facb41"
         d="m 141,448.92073 c -15.75518,-1.2505 -31.28118,-3.45794 -41.967581,-5.9668 C 78.80947,438.20614 78.45596,431.12995 98.195337,426.19807 113.8067,422.29758 145.16492,419 166.64522,419 175.61248,419 178,418.71091 178,417.62511 c 0,-0.75619 -4.75061,-24.04369 -10.55692,-51.75 -9.7055,-46.3124 -10.55852,-51.26903 -10.57692,-61.45911 -0.0538,-29.79417 14.61758,-57.02164 39.46675,-73.24335 7.85473,-5.12762 20.02824,-10.41041 26.97706,-11.70688 3.01096,-0.56178 3.6642,-1.05215 3.11494,-2.33831 -4.10086,-9.6025 -4.01315,-10.27877 3.58321,-27.62746 5.28279,-12.06491 5.87864,-12.98703 8.28373,-12.81972 2.33381,0.16235 2.7948,-0.43424 4.63614,-6 2.95611,-8.93531 4.35332,-20.83502 3.54051,-30.15375 -0.38505,-4.41459 -2.74264,-15.90153 -5.23908,-25.52653 -4.25865,-16.419179 -4.53861,-18.302895 -4.53291,-30.5 0.005,-10.138841 0.47585,-14.728621 2.14052,-20.854184 2.54738,-9.373705 9.35859,-24.098487 14.96829,-32.359143 6.17715,-9.096253 17.21431,-18.755737 26.63509,-23.3104648 12.37518,-5.9831056 19.54251,-7.40465224 37.05959,-7.35028637 22.45631,0.0696952 34.623,3.28665217 49.30264,13.03595517 21.85156,14.512453 37.70634,36.369779 41.28393,56.91385 4.23135,24.298175 -6.95144,56.253973 -26.27228,75.075333 -7.4482,7.25565 -15.34701,12.53275 -31.7512,21.21258 -13.21641,6.9931 -23.07113,14.65173 -30.13391,23.41864 -4.12162,5.1161 -10.58795,16.49236 -9.75466,17.16143 0.17902,0.14373 1.08594,0.66795 2.01539,1.16494 1.50941,0.80709 1.08217,2.29671 -4,13.9464 -3.12945,7.17354 -6.51536,14.30038 -7.52425,15.83742 -2.18063,3.32218 -9.89047,6.98887 -13.3177,6.33371 -1.90355,-0.36388 -2.75213,0.15471 -3.90678,2.38756 -1.53762,2.97343 -6.04608,5.88044 -9.14152,5.89435 -0.98981,0.004 -5.21758,-1.39882 -9.39504,-3.11836 l -7.59537,-3.12645 -9.86122,5.31604 c -9.53241,5.13878 -9.76264,5.34299 -6.90463,6.12435 1.62613,0.44457 15.1066,4.33894 29.9566,8.65415 l 27,7.84584 7.34819,-14.60183 c 4.04151,-8.03101 8.76651,-16.11928 10.5,-17.97394 6.44164,-6.8919 16.86744,-9.02923 25.32113,-5.19094 4.13721,1.87845 5.99433,4.15864 7.26907,8.92508 0.66024,2.46871 0.67145,2.46442 2.74636,-1.05229 C 359.7869,229.38273 387,231.03731 387,247.01773 c 0,2.48965 0.35224,3.01787 1.75,2.62431 8.90366,-2.50691 16.04503,-1.22127 22.12524,3.98317 4.73831,4.05582 6.20544,8.94694 4.00595,13.35507 -0.75965,1.52248 -14.65021,16.99974 -30.8679,34.39393 L 354.52658,333 h -55.76329 c -43.9711,0 -55.75253,0.26434 -55.71242,1.25 0.028,0.6875 4.8811,21.21453 10.78471,45.61562 l 10.73384,44.36562 8.51282,2.13671 c 21.65957,5.43653 19.41309,12.26899 -5.78234,17.58645 -19.49619,4.11465 -34.81254,5.23959 -75.7999,5.56729 -21.45,0.17149 -44.175,-0.0989 -50.5,-0.60096 z M 252.5837,434.84088 261.66739,432.5 254.83963,404 c -3.75527,-15.675 -9.12336,-38.04672 -11.9291,-49.71494 l -5.10133,-21.21494 -9.6546,-0.28506 C 219.26169,332.52249 218.5,332.34221 218.5,330.5 c 0,-1.96157 0.83333,-2.00961 43.37064,-2.5 l 43.37064,-0.5 7.98281,-17 c 4.39054,-9.35 12.88625,-27.06972 18.87936,-39.37716 C 338.09655,258.8154 343,247.74765 343,246.52783 343,242.33016 339.52879,240.5 331.56717,240.5 c -10.55456,0 -12.1512,1.51431 -22.2622,21.11418 C 304.7977,270.35138 298.20654,282.9 294.65795,289.5 l -6.45199,12 -19.85298,0.28346 c -10.91914,0.1559 -20.80232,0.0507 -21.96262,-0.23383 -1.76848,-0.43363 -2.19699,-1.48045 -2.6497,-6.47309 -1.00223,-11.05276 -6.75932,-18.90666 -17.44503,-23.79873 -5.15129,-2.35834 -6.75106,-4.78208 -3.88284,-5.88272 2.60459,-0.99947 12.62458,4.86538 17.5848,10.29266 4.81627,5.26975 7.33313,10.4799 8.48378,17.56225 l 0.60926,3.75 h 18.24897 18.24898 l 4.39858,-8.9738 c 2.41922,-4.93559 4.19929,-9.13487 3.95571,-9.33173 -0.24358,-0.19686 -14.39287,-4.33399 -31.44287,-9.19361 -17.05,-4.85962 -31.65571,-9.43213 -32.45714,-10.16113 -2.02511,-1.84208 -1.03354,-2.64929 11.50286,-9.36422 l 10.59777,-5.67653 -8.82175,-3.75623 C 231.86227,235.66339 229,233.01934 229,227.31291 229,224.94081 228.5974,223 228.10534,223 c -2.9632,0 -15.89221,4.85952 -23.41188,8.79962 -21.85497,11.45143 -37.84785,33.88274 -42.28213,59.30413 -2.7301,15.65143 -2.86192,14.82407 18.51166,116.19371 2.7597,13.08861 5.25199,24.17665 5.53842,24.6401 0.51243,0.82913 9.22422,3.11793 19.03859,5.00191 2.75,0.52789 12.425,0.79836 21.5,0.60104 13.20284,-0.28707 18.31518,-0.82653 25.5837,-2.69963 z M 356.71547,295 c 10.03106,-17.875 18.24869,-32.89114 18.26141,-33.36919 0.0127,-0.47805 1.59812,-3.46192 3.52312,-6.63081 4.57487,-7.53105 4.64271,-11.33268 0.25,-14.01096 -3.89448,-2.37451 -12.53361,-2.6764 -16.54966,-0.57832 -1.48519,0.7759 -3.86197,2.6884 -5.28174,4.25 -2.90118,3.191 -28.29247,43.60375 -29.77842,47.39529 -0.96217,2.45508 -14.38844,30.67084 -16.24684,34.14329 -0.94926,1.77371 -0.35823,1.84388 13.29521,1.57846 L 338.47719,327.5 Z m 24.9323,2.01205 c 18.85251,-20.24801 28.96024,-31.84144 29.16388,-33.45054 0.4716,-3.72653 -1.52303,-6.52723 -6.14233,-8.62456 -7.83706,-3.55832 -15.50662,-2.04772 -21.29271,4.19381 C 380.94239,261.75658 344,326.012 344,327.62011 344,327.82905 345.979,328 348.39777,328 h 4.39777 z m 63.68556,-48.98296 c -4.88682,-3.77677 -5.16666,-4.24072 -5.16666,-8.56581 0,-3.6022 0.79474,-5.78159 3.74439,-10.26803 5.02038,-7.63604 5.18042,-8.16071 6.06906,-19.89627 0.8714,-11.50805 3.01452,-16.45305 9.65893,-22.28692 5.01553,-4.4037 9.24007,-6.01206 15.79132,-6.01206 13.86547,0 25.04987,9.10747 28.62619,23.31035 1.58201,6.28273 -0.095,12.88319 -4.88295,19.21807 -4.62377,6.1177 -8.94651,9.08393 -16.11078,11.05505 -8.30955,2.28623 -12.92983,4.48325 -15.44992,7.34667 -5.34719,6.07571 -9.23521,8.88652 -13.11291,9.47989 -3.58465,0.54854 -4.53649,0.19747 -9.16667,-3.38094 z m 23.17419,-12.93173 c 2.51734,-1.59644 7.7933,-3.69083 11.72435,-4.65418 14.22271,-3.48546 22.58905,-15.86847 18.60952,-27.54396 -1.92162,-5.63784 -6.71431,-11.79374 -10.80801,-13.88219 -10.05426,-5.1293 -18.19839,-4.57307 -25.16247,1.71856 -6.11659,5.52597 -7.93464,9.99062 -8.81688,21.65187 -0.42079,5.5619 -1.35907,11.36485 -2.08506,12.89546 -1.17582,2.47894 -1.10968,2.93189 0.60552,4.14687 1.05903,0.75017 3.95051,2.98099 6.42551,4.95737 2.475,1.97639 4.59687,3.5978 4.71527,3.60313 0.1184,0.005 2.27491,-1.29648 4.79225,-2.89293 z m -11.11556,-3.51832 c -0.30325,-0.79025 1.47526,-3.99533 4.00687,-7.22087 l 4.55215,-5.7999 -2.67589,-2.79302 c -2.34774,-2.45051 -2.49658,-2.97233 -1.21378,-4.25513 1.28279,-1.2828 2.31908,-0.78075 8.45039,4.09393 3.84357,3.05582 7.11579,5.90248 7.2716,6.32591 0.15582,0.42343 -0.41987,1.35346 -1.27931,2.06673 -1.3109,1.08795 -1.9481,0.93471 -3.95564,-0.95127 l -2.39302,-2.24812 -4.73813,6.10135 c -4.71263,6.06852 -6.9842,7.39332 -8.02524,4.68039 z m -281.2891,-15.29332 c -1.82446,-4.24285 -2.93148,-7.86864 -2.46003,-8.05732 0.47144,-0.18868 9.18217,-4.07964 19.35717,-8.64658 10.175,-4.56694 18.70362,-8.12502 18.9525,-7.90684 C 212.44145,192.10362 180.88477,224 179.97175,224 c -0.30342,0 -2.04443,-3.47142 -3.86889,-7.71428 z m -64.96475,-25.87465 c -4.04905,-5.78634 -7.19905,-10.67569 -7,-10.86523 0.19904,-0.18954 21.96189,-1.73379 48.36189,-3.43167 26.4,-1.69787 50.25,-3.3459 53,-3.66228 3.1506,-0.36246 4.63012,-0.22634 4,0.36802 -0.55,0.51878 -20.70566,6.86763 -44.79035,14.10854 -24.08469,7.24091 -44.33469,13.35383 -45,13.58426 -0.66531,0.23044 -4.5225,-4.3153 -8.57154,-10.10164 z m 324.36483,-1.40632 C 434.78599,187.84471 436.64672,185 438.12244,185 c 1.38193,0 1.02413,2.63347 -0.53341,3.92611 -1.00807,0.83662 -1.60376,0.85908 -2.08609,0.0786 z m -5.39283,-5.37207 c -1.71627,-2.06798 1.28388,-4.38051 3.40222,-2.62245 1.15031,0.95467 1.24069,1.58244 0.37756,2.62245 C 433.26576,184.38471 432.41531,185 432,185 c -0.41531,0 -1.26576,-0.61529 -1.88989,-1.36732 z M 56,178 c -0.588702,-1.1 -1.904682,-2 -2.9244,-2 -3.310956,0 -5.669016,-3.31599 -9.595364,-13.49336 C 38.923134,150.69432 34.396355,145.24567 24.016413,139.07906 15.686768,134.13051 8.7094274,127.3335 5.5412431,121.08139 -1.2579583,107.66381 -1.8088944,94.049981 4.0058174,83.140464 8.0907026,75.476434 16.04275,68.10397 24.978973,63.695932 31.178365,60.637911 31.976675,60.5 43.478973,60.5 54.61387,60.5 55.959562,60.712264 61.734312,63.379523 75.244157,69.619492 84,84.43652 84,101.05851 c 0,4.60702 -0.935774,9.73552 -3,16.44149 -4.174526,13.56161 -4.054619,19.88568 0.628865,33.16703 3.597653,10.20217 3.613065,10.31451 1.791861,13.06183 -1.010352,1.52412 -1.722722,3.69524 -1.583044,4.82468 0.370795,2.99828 -2.334639,4.94258 -11.663797,8.38235 C 60.428832,180.529 57.472273,180.75097 56,178 Z m 15.151097,-32.16294 c 2.621226,-0.9529 2.645321,-1.05037 2.13844,-8.65041 -0.371247,-5.56637 -0.0381,-9.34168 1.207756,-13.68665 5.718006,-19.94174 5.845562,-20.68587 4.704236,-27.44312 C 77.721977,87.297158 71.9845,75.947797 67.066678,72.05281 59.25958,65.869474 49.179751,63.536866 36.919416,65.076328 28.512599,66.131926 23.03234,68.977508 15.2548,76.325514 4.8196568,86.184351 2.0558794,97.870821 6.8180061,112 c 3.2306609,9.58534 8.1978189,15.50616 18.9134119,22.54467 10.935174,7.18274 13.458162,9.43952 17.476152,15.6322 l 3.034488,4.67687 11.128971,-4.02646 c 6.120934,-2.21456 12.321965,-4.46016 13.780068,-4.99022 z m -24.332506,-8.58779 c -3.164304,-8.61761 -5.108726,-12.62396 -6,-12.36258 -4.57773,1.34246 -5.556607,1.22314 -6.069947,-0.73988 -0.435305,-1.6646 0.218494,-2.29494 3.609887,-3.48034 2.277808,-0.79616 8.524418,-3.05074 13.881355,-5.01017 9.563874,-3.49823 9.759367,-3.52621 10.817946,-1.54824 0.937958,1.75259 0.679355,2.16487 -1.989886,3.17239 -1.68737,0.63692 -3.042162,1.62187 -3.010647,2.18879 0.03151,0.56692 2.005638,6.20576 4.386941,12.53076 3.873686,10.28893 4.163455,11.63164 2.751571,12.75 -2.653516,2.10187 -1.794047,3.80746 -11.30388,-22.43221 -0.715047,-1.97297 -1.083374,-2.0718 -3.841405,-1.03076 -1.677789,0.6333 -3.024742,1.61529 -2.993227,2.18221 0.03151,0.56692 2.005638,6.20576 4.386941,12.53076 3.873686,10.28893 4.163455,11.63164 2.751571,12.75 -0.867939,0.6875 -1.829562,1.24967 -2.136941,1.24927 -0.307378,-4e-4 -2.665504,-5.7379 -5.240279,-12.75 z m 376.545599,41.25742 c -0.34636,-0.90262 -0.15025,-2.12063 0.43581,-2.70669 1.52361,-1.52361 4.41041,-0.13109 4.01242,1.93549 -0.4433,2.30188 -3.64766,2.85743 -4.44823,0.7712 z m -60.31672,-3.41799 c -0.75005,-1.40148 -0.73232,-2.16544 0.0616,-2.65613 1.02136,-0.63123 2.83911,1.11244 2.87559,2.75841 0.0385,1.73662 -1.99089,1.66594 -2.93722,-0.10228 z m 53.31672,-0.58201 c -0.34636,-0.90262 -0.15025,-2.12063 0.43581,-2.70669 1.52361,-1.52361 4.41041,-0.13109 4.01242,1.93549 -0.4433,2.30188 -3.64766,2.85743 -4.44823,0.7712 z m -47.79107,-2.17674 c -0.63478,-1.6542 0.87091,-3.28506 3.06025,-3.31464 1.23006,-0.0166 2.50042,3.51757 1.5912,4.42679 -1.17145,1.17145 -4.03817,0.48602 -4.65145,-1.11215 z m 40.64301,-0.17521 C 407.90564,171.32321 408.55278,168 410.0252,168 c 2.32746,0 3.70832,1.30302 3.24766,3.06458 -0.53646,2.05142 -1.94517,2.42998 -4.05673,1.09016 z m -32.59355,-1.69589 C 375.77835,168.25881 376.69038,167 379.12857,167 c 1.51073,0 1.93109,0.5568 1.69098,2.23978 -0.3827,2.68245 -3.30922,3.5325 -4.19697,1.21907 z m 7.98441,-1.04064 C 383.55457,166.67566 383.92875,166 386.5,166 c 2.87644,0 3.58107,3.37118 0.91821,4.39301 -2.1351,0.81932 -2.12086,0.82426 -2.81122,-0.9748 z m 16.16844,1.02389 C 399.6192,169.28586 401.30735,166 403.05761,166 c 2.24773,0 3.14505,1.3083 2.33865,3.40976 -0.58869,1.53408 -3.47439,2.17877 -4.62083,1.03234 z m -8.4396,-2.00932 c -0.33077,-0.86197 -0.12189,-2.04672 0.46417,-2.63278 1.55545,-1.55545 4.2,-0.18998 4.2,2.16862 0,2.46621 -3.7526,2.83966 -4.66417,0.46416 z M 171,150.61801 c -14.85864,-1.77374 -26.44106,-3.59275 -26.36582,-4.14072 0.32515,-2.36823 5.65592,-20.04716 6.23738,-20.68562 0.50054,-0.5496 51.26081,26.05331 53.04511,27.80036 0.84499,0.82736 -7.04176,0.11479 -32.91667,-2.97402 z m 235.11485,2.94667 c 0.33816,-0.34524 20.58816,-6.02633 45,-12.62465 24.41183,-6.59832 45.14758,-12.23151 46.07944,-12.51819 1.27474,-0.39218 3.46133,2.11249 8.8303,10.11482 3.92481,5.84983 6.9748,10.79728 6.77775,10.99433 -0.19705,0.19705 -19.02069,1.04538 -41.83031,1.88517 -22.80961,0.8398 -46.87203,1.808 -53.47203,2.15157 -6.6,0.34357 -11.72332,0.3422 -11.38515,-0.003 z m -191.71399,-3.72509 c -0.73319,-1.18633 -0.50898,-1.40421 2.34914,-2.28275 1.61721,-0.4971 2.25,-0.2836 2.25,0.75914 0,1.70597 -3.72398,2.93965 -4.59914,1.52361 z m -2.79387,-6.42138 c -0.8457,-2.20385 -0.83749,-2.22448 1.35102,-3.39574 1.59469,-0.85345 2.17052,-0.65082 3.10325,1.09199 0.89588,1.67397 0.85059,2.3266 -0.20801,2.9974 -2.05928,1.3049 -3.57432,1.05741 -4.24626,-0.69365 z m -3.58452,-7.37622 c -0.83567,-1.56146 -0.67129,-2.15957 0.81162,-2.9532 1.28536,-0.6879 2.21559,-0.63911 3.01271,0.15801 1.62067,1.62067 1.43347,3.43167 -0.42859,4.14621 -2.20385,0.8457 -2.22448,0.83749 -3.39574,-1.35102 z m 197.97792,-1.91565 c 4.2e-4,-0.65811 26.77428,-26.37199 30.56806,-29.35787 2.19202,-1.72521 2.21142,-1.70361 5.31527,5.9172 1.71337,4.2068 2.98233,7.78161 2.81992,7.94403 -0.87712,0.87711 -38.70358,16.0227 -38.70325,15.49664 z m -202.44783,-4.84996 c -0.4121,-1.07392 -0.0161,-2.19551 1.05067,-2.97552 1.41469,-1.03445 1.93088,-0.95267 2.97174,0.47078 0.88312,1.20774 0.94885,2.09719 0.2199,2.97553 -1.47221,1.7739 -3.46584,1.55266 -4.24231,-0.47079 z m -4.59421,-5.82657 c -1.06278,-1.28057 -0.99712,-1.83961 0.37755,-3.21428 1.55213,-1.55213 1.77607,-1.55213 3.3282,0 1.37467,1.37467 1.44033,1.93371 0.37755,3.21428 C 202.33405,124.30242 201.41531,125 201,125 c -0.41531,0 -1.33405,-0.69758 -2.04165,-1.55019 z m -5.75322,-5.70264 c -0.7341,-0.88453 -0.62023,-1.82659 0.38733,-3.20451 1.3277,-1.81573 1.54233,-1.83644 3.08142,-0.29735 1.36622,1.36622 1.43027,1.92427 0.36777,3.2045 -1.55836,1.87771 -2.46653,1.9481 -3.83652,0.29736 z m -5.75062,-5.17627 c -1.86208,-1.38016 -1.87175,-1.53262 -0.20451,-3.22407 1.65278,-1.67677 1.84524,-1.68016 3.46429,-0.0611 1.52874,1.52875 1.55087,1.8777 0.2045,3.22407 -1.32243,1.32243 -1.75232,1.33001 -3.46428,0.0611 z M 181.25,108.33772 c -1.44301,-0.58227 -1.59034,-2.25242 -0.36871,-4.17989 1.41958,-2.23978 5.2758,0.68013 4.01341,3.03893 -0.99237,1.85426 -1.4905,2.0102 -3.6447,1.14096 z m -7,-4 c -1.44575,-0.58337 -1.58991,-2.25298 -0.36186,-4.19097 0.6708,-1.058597 1.32343,-1.103888 2.9974,-0.208008 1.74281,0.932728 1.94544,1.508558 1.09199,3.103248 -1.07365,2.00612 -1.55356,2.17295 -3.72753,1.29573 z m -7.88581,-4.831031 C 166.01783,98.604071 166.16894,97.431061 166.7,96.9 c 1.39942,-1.399424 4.45283,0.06792 4.08761,1.964344 -0.4239,2.201106 -3.64573,2.668956 -4.42342,0.642345 z m -6.77129,-1.815103 c -2.04704,-1.496833 -1.0991,-5.099809 1.11793,-4.249057 C 161.50984,93.749138 162.53464,94 162.98817,94 c 0.95077,0 0.13449,3.806155 -0.96155,4.483551 -0.40259,0.248811 -1.49776,-0.107574 -2.43372,-0.791965 z M 97.345077,96.456872 C 97.019392,95.608151 97.003576,94.663091 97.30993,94.356736 98.185641,93.481025 100,94.966387 100,96.559017 c 0,1.918855 -1.907556,1.845464 -2.654923,-0.102145 z M 102.9742,94.95179 c -0.7923,-1.480419 -0.56441,-2.100734 1.09873,-2.990823 2.37816,-1.272751 2.43887,-1.242404 3.33089,1.665068 0.88908,2.897907 -2.97008,4.052928 -4.42962,1.325755 z m 47.80123,0.490305 c -0.90922,-0.909215 0.36114,-4.443401 1.5912,-4.426782 2.18934,0.02958 3.69503,1.660434 3.06025,3.314637 -0.61328,1.598172 -3.48,2.283596 -4.65145,1.112145 z m -40.05004,-2.38419 C 110.12613,90.766331 110.7087,90 113.05004,90 c 2.2034,0 3.24485,3.672863 1.25766,4.435417 -2.39745,0.919991 -3.04679,0.6703 -3.58231,-1.377512 z M 144.25,94.337719 C 143.5625,94.060307 143,92.970833 143,91.916667 143,90.517913 143.70445,90 145.60699,90 c 1.96639,0 2.45784,0.388682 2,1.581787 -0.33385,0.869984 -0.60699,1.994984 -0.60699,2.5 0,0.986359 -0.76368,1.057431 -2.75,0.255932 z M 119,91.5 c 0,-1.781728 0.54111,-2.5 1.88337,-2.5 2.32563,0 3.49483,3.640895 1.42433,4.435417 C 119.68185,94.443051 119,94.044082 119,91.5 Z m 17.25,1.837719 C 135.5625,93.060307 135,91.970833 135,90.916667 135,89.538889 135.7029,89 137.5,89 c 2.57125,0 2.94543,0.67566 1.89301,3.418213 -0.63057,1.643235 -1.04729,1.765149 -3.14301,0.919506 z M 127,91.059017 c 0,-2.269509 1.52104,-3.456791 3.47026,-2.708801 C 132.48025,89.121519 131.15659,93 128.88337,93 127.68576,93 127,92.293267 127,91.059017 Z"
         id="path8" />
      <path
         style="fill:#f9cb3d"
         d="m 141,448.92073 c -15.75518,-1.2505 -31.28118,-3.45794 -41.967581,-5.9668 C 78.80947,438.20614 78.45596,431.12995 98.195337,426.19807 113.8067,422.29758 145.16492,419 166.64522,419 175.61248,419 178,418.71091 178,417.62511 c 0,-0.75619 -4.75061,-24.04369 -10.55692,-51.75 -9.7055,-46.3124 -10.55852,-51.26903 -10.57692,-61.45911 -0.0538,-29.79417 14.61758,-57.02164 39.46675,-73.24335 7.85473,-5.12762 20.02824,-10.41041 26.97706,-11.70688 3.01074,-0.56174 3.66424,-1.05225 3.1153,-2.33831 -2.64364,-6.19355 -3.23006,-9.05244 -2.50275,-12.20136 1.17264,-5.07696 11.35791,-28.09648 12.65122,-28.59277 0.96759,-0.3713 12.46759,4.19015 27.42626,10.87856 11.35825,5.07858 15.46064,6.86486 29.5,12.84503 8.25,3.51414 16.20326,7.09572 17.67391,7.95905 l 2.67391,1.5697 -5.67391,13.00609 c -3.12065,7.15335 -6.49936,14.26367 -7.50825,15.80071 -2.18063,3.32218 -9.89047,6.98887 -13.3177,6.33371 -1.90355,-0.36388 -2.75213,0.15471 -3.90678,2.38756 -1.53762,2.97343 -6.04608,5.88044 -9.14152,5.89435 -0.98981,0.004 -5.21758,-1.39882 -9.39504,-3.11836 l -7.59537,-3.12645 -9.86122,5.31604 c -9.53241,5.13878 -9.76264,5.34299 -6.90463,6.12435 1.62613,0.44457 15.1066,4.33894 29.9566,8.65415 l 27,7.84584 7.34819,-14.60183 c 4.04151,-8.03101 8.76651,-16.11928 10.5,-17.97394 6.44164,-6.8919 16.86744,-9.02923 25.32113,-5.19094 4.13721,1.87845 5.99433,4.15864 7.26907,8.92508 0.66024,2.46871 0.67145,2.46442 2.74636,-1.05229 C 359.7869,229.38273 387,231.03731 387,247.01773 c 0,2.48965 0.35224,3.01787 1.75,2.62431 8.90366,-2.50691 16.04503,-1.22127 22.12524,3.98317 4.73831,4.05582 6.20544,8.94694 4.00595,13.35507 -0.75965,1.52248 -14.65021,16.99974 -30.8679,34.39393 L 354.52658,333 h -55.76329 c -43.9711,0 -55.75253,0.26434 -55.71242,1.25 0.028,0.6875 4.8811,21.21453 10.78471,45.61562 l 10.73384,44.36562 8.51282,2.13671 c 21.65957,5.43653 19.41309,12.26899 -5.78234,17.58645 -19.49619,4.11465 -34.81254,5.23959 -75.7999,5.56729 -21.45,0.17149 -44.175,-0.0989 -50.5,-0.60096 z M 252.5837,434.84088 261.66739,432.5 254.83963,404 c -3.75527,-15.675 -9.12336,-38.04672 -11.9291,-49.71494 l -5.10133,-21.21494 -9.6546,-0.28506 C 219.26169,332.52249 218.5,332.34221 218.5,330.5 c 0,-1.96157 0.83333,-2.00961 43.37064,-2.5 l 43.37064,-0.5 7.98281,-17 c 4.39054,-9.35 12.88625,-27.06972 18.87936,-39.37716 C 338.09655,258.8154 343,247.74765 343,246.52783 343,242.33016 339.52879,240.5 331.56717,240.5 c -10.55456,0 -12.1512,1.51431 -22.2622,21.11418 C 304.7977,270.35138 298.20654,282.9 294.65795,289.5 l -6.45199,12 -19.85298,0.28346 c -10.91914,0.1559 -20.80232,0.0507 -21.96262,-0.23383 -1.76848,-0.43363 -2.19699,-1.48045 -2.6497,-6.47309 -1.00223,-11.05276 -6.75932,-18.90666 -17.44503,-23.79873 -5.15129,-2.35834 -6.75106,-4.78208 -3.88284,-5.88272 2.60459,-0.99947 12.62458,4.86538 17.5848,10.29266 4.81627,5.26975 7.33313,10.4799 8.48378,17.56225 l 0.60926,3.75 h 18.24897 18.24898 l 4.39858,-8.9738 c 2.41922,-4.93559 4.19929,-9.13487 3.95571,-9.33173 -0.24358,-0.19686 -14.39287,-4.33399 -31.44287,-9.19361 -17.05,-4.85962 -31.65571,-9.43213 -32.45714,-10.16113 -2.02511,-1.84208 -1.03354,-2.64929 11.50286,-9.36422 l 10.59777,-5.67653 -8.82175,-3.75623 C 231.86227,235.66339 229,233.01934 229,227.31291 229,224.94081 228.5974,223 228.10534,223 c -2.9632,0 -15.89221,4.85952 -23.41188,8.79962 -21.85497,11.45143 -37.84785,33.88274 -42.28213,59.30413 -2.7301,15.65143 -2.86192,14.82407 18.51166,116.19371 2.7597,13.08861 5.25199,24.17665 5.53842,24.6401 0.51243,0.82913 9.22422,3.11793 19.03859,5.00191 2.75,0.52789 12.425,0.79836 21.5,0.60104 13.20284,-0.28707 18.31518,-0.82653 25.5837,-2.69963 z M 356.71547,295 c 10.03106,-17.875 18.24869,-32.89114 18.26141,-33.36919 0.0127,-0.47805 1.59812,-3.46192 3.52312,-6.63081 4.57487,-7.53105 4.64271,-11.33268 0.25,-14.01096 -3.89448,-2.37451 -12.53361,-2.6764 -16.54966,-0.57832 -1.48519,0.7759 -3.86197,2.6884 -5.28174,4.25 -2.90118,3.191 -28.29247,43.60375 -29.77842,47.39529 -0.96217,2.45508 -14.38844,30.67084 -16.24684,34.14329 -0.94926,1.77371 -0.35823,1.84388 13.29521,1.57846 L 338.47719,327.5 Z m 24.9323,2.01205 c 18.85251,-20.24801 28.96024,-31.84144 29.16388,-33.45054 0.4716,-3.72653 -1.52303,-6.52723 -6.14233,-8.62456 -7.83706,-3.55832 -15.50662,-2.04772 -21.29271,4.19381 C 380.94239,261.75658 344,326.012 344,327.62011 344,327.82905 345.979,328 348.39777,328 h 4.39777 z m 63.68556,-48.98296 c -4.88682,-3.77677 -5.16666,-4.24072 -5.16666,-8.56581 0,-3.6022 0.79474,-5.78159 3.74439,-10.26803 5.02038,-7.63604 5.18042,-8.16071 6.06906,-19.89627 0.8714,-11.50805 3.01452,-16.45305 9.65893,-22.28692 5.01553,-4.4037 9.24007,-6.01206 15.79132,-6.01206 13.86547,0 25.04987,9.10747 28.62619,23.31035 1.58201,6.28273 -0.095,12.88319 -4.88295,19.21807 -4.62377,6.1177 -8.94651,9.08393 -16.11078,11.05505 -8.30955,2.28623 -12.92983,4.48325 -15.44992,7.34667 -5.34719,6.07571 -9.23521,8.88652 -13.11291,9.47989 -3.58465,0.54854 -4.53649,0.19747 -9.16667,-3.38094 z m 23.17419,-12.93173 c 2.51734,-1.59644 7.7933,-3.69083 11.72435,-4.65418 14.22271,-3.48546 22.58905,-15.86847 18.60952,-27.54396 -1.92162,-5.63784 -6.71431,-11.79374 -10.80801,-13.88219 -10.05426,-5.1293 -18.19839,-4.57307 -25.16247,1.71856 -6.11659,5.52597 -7.93464,9.99062 -8.81688,21.65187 -0.42079,5.5619 -1.35907,11.36485 -2.08506,12.89546 -1.17582,2.47894 -1.10968,2.93189 0.60552,4.14687 1.05903,0.75017 3.95051,2.98099 6.42551,4.95737 2.475,1.97639 4.59687,3.5978 4.71527,3.60313 0.1184,0.005 2.27491,-1.29648 4.79225,-2.89293 z m -11.11556,-3.51832 c -0.30325,-0.79025 1.47526,-3.99533 4.00687,-7.22087 l 4.55215,-5.7999 -2.67589,-2.79302 c -2.34774,-2.45051 -2.49658,-2.97233 -1.21378,-4.25513 1.28279,-1.2828 2.31908,-0.78075 8.45039,4.09393 3.84357,3.05582 7.11579,5.90248 7.2716,6.32591 0.15582,0.42343 -0.41987,1.35346 -1.27931,2.06673 -1.3109,1.08795 -1.9481,0.93471 -3.95564,-0.95127 l -2.39302,-2.24812 -4.73813,6.10135 c -4.71263,6.06852 -6.9842,7.39332 -8.02524,4.68039 z m -281.2891,-15.29332 c -1.82446,-4.24285 -2.93148,-7.86864 -2.46003,-8.05732 0.47144,-0.18868 9.18217,-4.07964 19.35717,-8.64658 10.175,-4.56694 18.70362,-8.12502 18.9525,-7.90684 C 212.44145,192.10362 180.88477,224 179.97175,224 c -0.30342,0 -2.04443,-3.47142 -3.86889,-7.71428 z M 306.5,203.18317 c -2.2,-0.17425 -4.45,-0.80277 -5,-1.3967 -0.68733,-0.74224 -0.60917,-0.85922 0.25,-0.37416 0.6875,0.38815 1.25,0.22917 1.25,-0.35329 0,-0.58847 1.99948,-1.05902 4.5,-1.05902 2.475,0 4.49311,0.3375 4.48469,0.75 -0.0395,1.93502 -1.81722,2.72366 -5.48469,2.43317 z m -195.36189,-12.7721 c -4.04905,-5.78634 -7.19905,-10.67569 -7,-10.86523 0.19904,-0.18954 21.96189,-1.73379 48.36189,-3.43167 26.4,-1.69787 50.25,-3.3459 53,-3.66228 3.1506,-0.36246 4.63012,-0.22634 4,0.36802 -0.55,0.51878 -20.70566,6.86763 -44.79035,14.10854 -24.08469,7.24091 -44.33469,13.35383 -45,13.58426 -0.66531,0.23044 -4.5225,-4.3153 -8.57154,-10.10164 z M 290,197 l -2.5,-0.80064 2.69098,-0.0997 c 1.48004,-0.0548 2.9691,0.35032 3.30902,0.90032 0.70255,1.13674 0.0495,1.13674 -3.5,0 z m -7.75,-4.64087 c -1.2375,-1.33632 -2.25,-2.75556 -2.25,-3.15386 0,-0.3983 1.0125,-1.3415 2.25,-2.096 1.2375,-0.75451 1.93034,-1.0306 1.53965,-0.61353 -0.39069,0.41706 -0.0532,2.33109 0.75,4.2534 0.80319,1.92231 1.46035,3.66515 1.46035,3.87298 0,0.97282 -1.70796,-0.0579 -3.75,-2.26299 z m 5.75,1.05116 c 0,-0.64841 4.19963,-4.32419 5,-4.37631 0.275,-0.0179 0.5649,1.09211 0.64421,2.46673 0.12252,2.12324 -0.29125,2.49929 -2.75,2.49929 C 289.3024,194 288,193.73463 288,193.41029 Z m -14.49292,-3.39884 c -0.35034,-0.56686 0.0511,-0.7345 0.94098,-0.39301 1.73242,0.66479 2.04939,1.38156 0.61096,1.38156 -0.51754,0 -1.21592,-0.44485 -1.55194,-0.98855 z M 286.17989,189 c 0.17606,-1.375 0.93075,-2.74777 1.67708,-3.05061 C 289.02498,185.47546 313,132.20971 313,130.08866 c 0,-0.82939 -15.79319,-8.11033 -17.56287,-8.09679 -1.366,0.0104 -24.74616,53.76043 -24.10804,55.42333 0.26412,0.68831 -0.13207,1.25147 -0.88044,1.25147 -0.74837,0 -1.14893,-0.3426 -0.89014,-0.76134 0.25879,-0.41874 -0.46855,-1.05939 -1.61631,-1.42368 -1.14776,-0.36428 -1.87693,-1.18418 -1.62036,-1.82199 0.25657,-0.63781 3.66398,-8.4357 7.57203,-17.32864 4.33986,-9.87556 6.87433,-16.88166 6.5115,-18 -0.39236,-1.20938 -0.29406,-1.41751 0.28952,-0.61305 0.59429,0.81922 2.26467,-1.9636 5.10209,-8.5 2.32019,-5.34488 4.21504,-9.97415 4.21078,-10.28725 -0.004,-0.31311 -3.38276,-2.05249 -7.50776,-3.86529 -7.82383,-3.43832 -8.05041,-3.64685 -6.54619,-6.02493 0.79077,-1.25016 1.71584,-1.13097 6.44925,0.83092 3.03933,1.25973 6.06154,1.95948 6.71601,1.55499 0.67528,-0.41734 0.92746,-0.31072 0.58306,0.24653 -0.5946,0.96209 7.00889,4.56596 32.52401,15.4156 6.99938,2.9763 12.72999,5.86146 12.73469,6.41146 0.005,0.55 -0.3696,1.59644 -0.83177,2.32542 -0.66675,1.05166 -2.24125,0.6902 -7.623,-1.75 -7.83561,-3.55284 -9.07984,-3.72119 -9.79571,-1.32542 -0.2876,0.9625 -3.99211,9.625 -8.23225,19.25 -4.24014,9.625 -9.35034,21.40276 -11.35599,26.17279 -3.22012,7.65839 -3.85868,8.55414 -5.45938,7.65834 -0.99701,-0.55795 -1.9282,-0.86071 -2.06933,-0.67279 -0.14112,0.18791 -1.03892,1.46666 -1.99511,2.84166 l -1.73852,2.5 z m 149.32305,0.005 c -0.71695,-1.16029 1.14378,-4.005 2.6195,-4.005 1.38193,0 1.02413,2.63347 -0.53341,3.92611 -1.00807,0.83662 -1.60376,0.85908 -2.08609,0.0786 z M 304.5,185 c -0.74624,-1.20744 0.22799,-3 1.63045,-3 2.14081,0 3.86955,-3.0175 3.86955,-6.75426 0,-5.88442 3.41842,-8.71 9.44422,-7.80638 4.52096,0.67796 4.55578,0.71329 4.55578,4.62191 0,3.27206 -0.33852,3.93873 -2,3.93873 -1.33333,0 -2,0.66667 -2,2 0,1.45377 -0.66667,2 -2.44098,2 -1.34254,0 -2.7191,0.45 -3.05902,1 -0.33992,0.55 -0.14148,1 0.44098,1 0.58246,0 1.05902,0.45 1.05902,1 0,0.55 -1.8,1 -4,1 -2.2,0 -4,0.45 -4,1 0,0.55 -0.64844,1 -1.44098,1 -0.79254,0 -1.7191,-0.45 -2.05902,-1 z M 261,183.94098 c 0,-0.58246 0.45,-0.7809 1,-0.44098 0.55,0.33992 1,0.81648 1,1.05902 0,0.24254 -0.45,0.44098 -1,0.44098 -0.55,0 -1,-0.47656 -1,-1.05902 z m 169.11011,-0.3083 c -1.71627,-2.06798 1.28388,-4.38051 3.40222,-2.62245 1.15031,0.95467 1.24069,1.58244 0.37756,2.62245 C 433.26576,184.38471 432.41531,185 432,185 c -0.41531,0 -1.26576,-0.61529 -1.88989,-1.36732 z M 257.17668,181.33287 C 257.66323,178.8241 260,178.47962 260,180.91667 260,182.145 259.35431,183 258.42668,183 c -0.93124,0 -1.44138,-0.68037 -1.25,-1.66713 z m 70.48124,-1.8838 C 327.96375,178.65208 327.71583,178 327.10699,178 326.49814,178 326,177.55 326,177 c 0,-0.55 0.62252,-1 1.38337,-1 1.86063,0 2.76012,3.73096 1.05705,4.38449 -0.85792,0.32921 -1.1389,-0.007 -0.7825,-0.93542 z M 56,178 c -0.588702,-1.1 -1.904682,-2 -2.9244,-2 -3.310956,0 -5.669016,-3.31599 -9.595364,-13.49336 C 38.923134,150.69432 34.396355,145.24567 24.016413,139.07906 15.686768,134.13051 8.7094274,127.3335 5.5412431,121.08139 -1.2579583,107.66381 -1.8088944,94.049981 4.0058174,83.140464 8.0907026,75.476434 16.04275,68.10397 24.978973,63.695932 31.178365,60.637911 31.976675,60.5 43.478973,60.5 54.61387,60.5 55.959562,60.712264 61.734312,63.379523 75.244157,69.619492 84,84.43652 84,101.05851 c 0,4.60702 -0.935774,9.73552 -3,16.44149 -4.174526,13.56161 -4.054619,19.88568 0.628865,33.16703 3.597653,10.20217 3.613065,10.31451 1.791861,13.06183 -1.010352,1.52412 -1.722722,3.69524 -1.583044,4.82468 0.370795,2.99828 -2.334639,4.94258 -11.663797,8.38235 C 60.428832,180.529 57.472273,180.75097 56,178 Z m 15.151097,-32.16294 c 2.621226,-0.9529 2.645321,-1.05037 2.13844,-8.65041 -0.371247,-5.56637 -0.0381,-9.34168 1.207756,-13.68665 5.718006,-19.94174 5.845562,-20.68587 4.704236,-27.44312 C 77.721977,87.297158 71.9845,75.947797 67.066678,72.05281 59.25958,65.869474 49.179751,63.536866 36.919416,65.076328 28.512599,66.131926 23.03234,68.977508 15.2548,76.325514 4.8196568,86.184351 2.0558794,97.870821 6.8180061,112 c 3.2306609,9.58534 8.1978189,15.50616 18.9134119,22.54467 10.935174,7.18274 13.458162,9.43952 17.476152,15.6322 l 3.034488,4.67687 11.128971,-4.02646 c 6.120934,-2.21456 12.321965,-4.46016 13.780068,-4.99022 z m -24.332506,-8.58779 c -3.164304,-8.61761 -5.108726,-12.62396 -6,-12.36258 -4.57773,1.34246 -5.556607,1.22314 -6.069947,-0.73988 -0.435305,-1.6646 0.218494,-2.29494 3.609887,-3.48034 2.277808,-0.79616 8.524418,-3.05074 13.881355,-5.01017 9.563874,-3.49823 9.759367,-3.52621 10.817946,-1.54824 0.937958,1.75259 0.679355,2.16487 -1.989886,3.17239 -1.68737,0.63692 -3.042162,1.62187 -3.010647,2.18879 0.03151,0.56692 2.005638,6.20576 4.386941,12.53076 3.873686,10.28893 4.163455,11.63164 2.751571,12.75 -2.653516,2.10187 -1.794047,3.80746 -11.30388,-22.43221 -0.715047,-1.97297 -1.083374,-2.0718 -3.841405,-1.03076 -1.677789,0.6333 -3.024742,1.61529 -2.993227,2.18221 0.03151,0.56692 2.005638,6.20576 4.386941,12.53076 3.873686,10.28893 4.163455,11.63164 2.751571,12.75 -0.867939,0.6875 -1.829562,1.24967 -2.136941,1.24927 -0.307378,-4e-4 -2.665504,-5.7379 -5.240279,-12.75 z M 288,179.19032 c 0,-0.53699 0.7126,-1.24979 1.58356,-1.58401 0.97391,-0.37373 1.43108,-0.15024 1.1875,0.58051 -0.49828,1.49484 -2.77106,2.31789 -2.77106,1.0035 z m 14.65499,-1.01906 C 300.45558,175.74095 300.48287,172 302.7,172 c 1.32222,0 1.43333,0.26667 0.5,1.2 -1.94521,1.94521 -1.39571,2.8 1.8,2.8 2.33333,0 3,0.44444 3,2 0,2.55614 -3.09692,2.65537 -5.34501,0.17126 z m 120.7092,0.33543 c -0.34636,-0.90262 -0.15025,-2.12063 0.43581,-2.70669 1.52361,-1.52361 4.41041,-0.13109 4.01242,1.93549 -0.4433,2.30188 -3.64766,2.85743 -4.44823,0.7712 z m -60.31672,-3.41799 c -0.75005,-1.40148 -0.73232,-2.16544 0.0616,-2.65613 1.02136,-0.63123 2.83911,1.11244 2.87559,2.75841 0.0385,1.73662 -1.99089,1.66594 -2.93722,-0.10228 z m -98.70476,-1.32765 c 0.0868,-1.46781 0.5397,-2.27705 1.01091,-1.8064 0.47146,0.47089 0.40104,1.66133 -0.15728,2.659 -0.86954,1.55378 -0.98892,1.43454 -0.85363,-0.8526 z M 277.5,175 c 0.33992,-0.55 1.04148,-1 1.55902,-1 0.51754,0 0.94098,0.45 0.94098,1 0,0.55 -0.70156,1 -1.55902,1 -0.85746,0 -1.2809,-0.45 -0.94098,-1 z m 138.86419,-0.49331 c -0.34636,-0.90262 -0.15025,-2.12063 0.43581,-2.70669 1.52361,-1.52361 4.41041,-0.13109 4.01242,1.93549 -0.4433,2.30188 -3.64766,2.85743 -4.44823,0.7712 z m -47.79107,-2.17674 c -0.63478,-1.6542 0.87091,-3.28506 3.06025,-3.31464 1.23006,-0.0166 2.50042,3.51757 1.5912,4.42679 -1.17145,1.17145 -4.03817,0.48602 -4.65145,-1.11215 z m -32.0137,-2.44485 c 1.07587,-2.08051 1.94348,-2.7822 2.61266,-2.11302 0.66918,0.66918 0.40108,1.70357 -0.80734,3.1149 -2.6671,3.11495 -3.65166,2.56855 -1.80532,-1.00188 z m 72.65671,2.26964 C 407.90564,171.32321 408.55278,168 410.0252,168 c 2.32746,0 3.70832,1.30302 3.24766,3.06458 -0.53646,2.05142 -1.94517,2.42998 -4.05673,1.09016 z m -32.59355,-1.69589 C 375.77835,168.25881 376.69038,167 379.12857,167 c 1.51073,0 1.93109,0.5568 1.69098,2.23978 -0.3827,2.68245 -3.30922,3.5325 -4.19697,1.21907 z M 277.6875,170.35417 C 276.3834,169.05007 277.00601,168 279.08333,168 c 1.16375,0 1.90861,0.52417 1.6875,1.1875 -0.48711,1.46134 -2.15686,2.09314 -3.08333,1.16667 z m 106.91949,-0.93596 C 383.55457,166.67566 383.92875,166 386.5,166 c 2.87644,0 3.58107,3.37118 0.91821,4.39301 -2.1351,0.81932 -2.12086,0.82426 -2.81122,-0.9748 z m 16.16844,1.02389 C 399.6192,169.28586 401.30735,166 403.05761,166 c 2.24773,0 3.14505,1.3083 2.33865,3.40976 -0.58869,1.53408 -3.47439,2.17877 -4.62083,1.03234 z M 292,168.76595 c 0,-0.4954 -0.9,-0.61508 -2,-0.26595 -1.63195,0.51796 -2,0.1797 -2,-1.83811 0,-1.36009 0.99784,-4.34231 2.21743,-6.62716 1.75338,-3.2849 2.64279,-4.03999 4.25,-3.60816 1.11791,0.30037 2.59507,0.55227 3.28257,0.55978 0.6875,0.008 1.25,0.68865 1.25,1.51365 0,0.83333 -0.88889,1.5 -2,1.5 -2.17092,0 -2.65297,1.94703 -0.91287,3.68713 0.78285,0.78285 0.78285,1.2752 0,1.75902 -0.59792,0.36954 -1.08713,1.47033 -1.08713,2.4462 0,0.97587 -0.675,1.77432 -1.5,1.77432 -0.825,0 -1.5,-0.40533 -1.5,-0.90072 z m 100.33583,-0.33317 c -0.33077,-0.86197 -0.12189,-2.04672 0.46417,-2.63278 1.55545,-1.55545 4.2,-0.18998 4.2,2.16862 0,2.46621 -3.7526,2.83966 -4.66417,0.46416 z M 245,165.10699 c 0,-0.49116 0.73865,-1.17646 1.64144,-1.52289 1.37248,-0.52667 1.43434,-0.38034 0.37756,0.89301 -1.44013,1.73524 -2.019,1.91584 -2.019,0.62988 z m 33.36786,-1.22179 c 0.81469,-1.16314 1.27917,-2.64144 1.03217,-3.28511 -0.47084,-1.22701 3.06325,-5.60009 4.52569,-5.60009 0.4663,0 1.44057,-3.0375 2.16504,-6.75 l 1.31723,-6.75 1.11343,6.5 c 0.61239,3.575 0.94404,6.8375 0.73699,7.25 -0.20704,0.4125 -1.47489,0.75 -2.81743,0.75 -1.75057,0 -2.44098,0.54964 -2.44098,1.9433 0,1.06881 -0.81713,2.53131 -1.81585,3.25 -0.99872,0.71868 -2.1096,2.0942 -2.46862,3.0567 -0.35902,0.9625 -1.1424,1.75 -1.74085,1.75 -0.66017,0 -0.50555,-0.83169 0.39318,-2.1148 z m 31.84697,-0.12634 c -1.7288,-2.08308 -0.88636,-10.19844 1.09836,-10.58066 C 312.55407,152.93923 313,151.81527 313,148.92668 313,146.25743 313.44128,145 314.37803,145 c 0.75791,0 2.0266,-0.97681 2.81931,-2.17069 1.94644,-2.93149 3.89877,-1.55988 3.14491,2.20946 -0.57857,2.89285 -0.49844,2.96123 3.46988,2.96123 h 4.06213 l -0.56797,-3.5 c -0.61495,-3.78947 0.84877,-4.76501 2.62572,-1.75 0.86994,1.47605 1.17828,1.52621 1.96973,0.32037 0.51608,-0.78629 1.64931,-1.53397 2.51829,-1.66151 1.17652,-0.17268 1.57997,0.63924 1.57997,3.17962 0,2.74485 -0.39083,3.41152 -2,3.41152 -1.33333,0 -2,0.66667 -2,2 0,1.66667 -0.66667,2 -4,2 h -4 v 4 c 0,3.33333 -0.33333,4 -2,4 -1.33333,0 -2,-0.66667 -2,-2 0,-1.55271 -0.66667,-2 -2.98095,-2 -2.32719,0 -3.11543,0.53581 -3.59414,2.44316 -0.33726,1.34375 -0.35079,2.86776 -0.0301,3.3867 0.99617,1.61184 -1.95667,3.40304 -3.18002,1.929 z M 354,163.62244 c 0,-0.20765 0.7875,-0.99515 1.75,-1.75 1.58606,-1.24387 1.62143,-1.2085 0.37756,0.37756 C 354.82119,163.91575 354,164.44548 354,163.62244 Z m -106.39301,-3.20423 c -0.70055,-1.82561 -0.82552,-5.97007 -0.15994,-5.3045 0.61181,0.61181 1.68169,6.88629 1.1742,6.88629 -0.224,0 -0.68042,-0.7118 -1.01426,-1.58179 z m 21.08686,0.94231 C 267.89492,160.56159 268.79804,159 270.05902,159 c 0.51754,0 0.94098,0.675 0.94098,1.5 0,1.54641 -1.17996,1.9867 -2.30615,0.86052 z M 264,159 c 0,-0.55 0.45,-1 1,-1 0.55,0 1,0.45 1,1 0,0.55 -0.45,1 -1,1 -0.55,0 -1,-0.45 -1,-1 z m 103.25,-3.66228 c -1.99591,-0.80537 -1.44368,-3.22801 0.69902,-3.06661 1.33138,0.10029 1.65103,0.50588 1.00868,1.27986 -0.51719,0.62318 -0.64425,1.42914 -0.28236,1.79104 0.73647,0.73646 0.40799,0.73548 -1.42534,-0.004 z M 171,150.61801 c -14.85864,-1.77374 -26.44106,-3.59275 -26.36582,-4.14072 0.32515,-2.36823 5.65592,-20.04716 6.23738,-20.68562 0.50054,-0.5496 51.26081,26.05331 53.04511,27.80036 0.84499,0.82736 -7.04176,0.11479 -32.91667,-2.97402 z m 235.11485,2.94667 c 0.33816,-0.34524 20.58816,-6.02633 45,-12.62465 24.41183,-6.59832 45.14758,-12.23151 46.07944,-12.51819 1.27474,-0.39218 3.46133,2.11249 8.8303,10.11482 3.92481,5.84983 6.9748,10.79728 6.77775,10.99433 -0.19705,0.19705 -19.02069,1.04538 -41.83031,1.88517 -22.80961,0.8398 -46.87203,1.808 -53.47203,2.15157 -6.6,0.34357 -11.72332,0.3422 -11.38515,-0.003 z m -191.71399,-3.72509 c -0.73319,-1.18633 -0.50898,-1.40421 2.34914,-2.28275 1.61721,-0.4971 2.25,-0.2836 2.25,0.75914 0,1.70597 -3.72398,2.93965 -4.59914,1.52361 z m 33.52548,-1.97722 c -0.89788,-1.6777 -0.916,-2.36582 -0.0697,-2.6479 1.45312,-0.48438 1.49372,-5.46415 0.0563,-6.9016 -0.78285,-0.78285 -0.78285,-1.2752 0,-1.75902 C 248.51079,136.18431 249,135.00852 249,133.94098 249,132.87344 249.675,132 250.5,132 c 2.11509,0 2.17763,15.19273 0.0697,16.94212 -1.14879,0.95342 -1.669,0.74092 -2.6434,-1.07975 z m 127.61637,-2.79327 c -0.31644,-0.512 -0.11397,-1.21604 0.44993,-1.56455 1.42561,-0.88108 5.16454,0.43211 4.46286,1.56745 -0.74349,1.203 -4.16876,1.20098 -4.91279,-0.003 z m -163.93572,-1.65089 c -0.8457,-2.20385 -0.83749,-2.22448 1.35102,-3.39574 1.59469,-0.85345 2.17052,-0.65082 3.10325,1.09199 0.89588,1.67397 0.85059,2.3266 -0.20801,2.9974 -2.05928,1.3049 -3.57432,1.05741 -4.24626,-0.69365 z M 289,141 c 0,-0.55 0.675,-1 1.5,-1 0.825,0 1.5,0.45 1.5,1 0,0.55 -0.675,1 -1.5,1 -0.825,0 -1.5,-0.45 -1.5,-1 z m 29.56895,-2.25 c -1.255,-2.80518 -0.0136,-4.68289 2.61988,-3.96282 1.76518,0.48265 1.91228,0.71508 0.62266,0.98386 -0.92867,0.19356 -1.862,1.33676 -2.07405,2.54044 -0.34112,1.93626 -0.4758,1.9868 -1.16849,0.43852 z m -110.54648,-2.70801 c -0.83567,-1.56146 -0.67129,-2.15957 0.81162,-2.9532 1.28536,-0.6879 2.21559,-0.63911 3.01271,0.15801 1.62067,1.62067 1.43347,3.43167 -0.42859,4.14621 -2.20385,0.8457 -2.22448,0.83749 -3.39574,-1.35102 z m 85.00228,-0.60709 C 293.56114,134.0241 294,131.82224 294,130.54189 c 0,-1.28035 0.73534,-2.61009 1.6341,-2.95498 1.3945,-0.53511 1.54274,-0.0743 1.01101,3.14302 -0.34271,2.07354 -0.62805,4.55757 -0.6341,5.52007 -0.007,1.07231 -0.77593,1.75 -1.98626,1.75 -1.7071,0 -1.84285,-0.34822 -1,-2.5651 z M 303,137 c 0,-0.55 0.675,-1 1.5,-1 0.825,0 1.5,0.45 1.5,1 0,0.55 -0.675,1 -1.5,1 -0.825,0 -1.5,-0.45 -1.5,-1 z m 81,0 c 0,-0.55 0.45,-1 1,-1 0.55,0 1,-0.9 1,-2 0,-1.1 -0.45,-2 -1,-2 -0.55,0 -1,-0.9 -1,-2 0,-2.9758 4.52032,-2.66172 6.56314,0.45602 1.56947,2.39531 1.17629,5.11901 -0.58207,4.03228 -0.4844,-0.29937 -1.36913,0.36829 -1.96608,1.48369 C 386.90226,138.05115 384,138.79425 384,137 Z m -102.26879,-3.08016 c 0.35361,-1.3522 0.8069,-1.8055 1.05655,-1.05655 0.24048,0.72144 -0.0382,1.78716 -0.61931,2.36826 -0.74207,0.74207 -0.87221,0.35164 -0.43724,-1.31171 z m 27.18656,0.83016 c -0.0452,-0.1375 -0.28446,-1.47884 -0.53163,-2.98075 -0.3313,-2.01312 -0.0907,-2.59311 0.91556,-2.20697 1.50344,0.57692 1.89674,3.43772 0.47262,3.43772 -0.4908,0 -0.61424,0.45 -0.27432,1 0.33992,0.55 0.36648,1 0.059,1 -0.30746,0 -0.59602,-0.1125 -0.64125,-0.25 z m 97.08262,-0.62366 c 4.2e-4,-0.65811 26.77428,-26.37199 30.56806,-29.35787 2.19202,-1.72521 2.21142,-1.70361 5.31527,5.9172 1.71337,4.2068 2.98233,7.78161 2.81992,7.94403 -0.87712,0.87711 -38.70358,16.0227 -38.70325,15.49664 z m -202.44783,-4.84996 c -0.4121,-1.07392 -0.0161,-2.19551 1.05067,-2.97552 1.41469,-1.03445 1.93088,-0.95267 2.97174,0.47078 0.88312,1.20774 0.94885,2.09719 0.2199,2.97553 -1.47221,1.7739 -3.46584,1.55266 -4.24231,-0.47079 z m 127.01747,0.83693 c -0.30141,-0.48768 0.0537,-1.3861 0.78919,-1.99647 1.0143,-0.84179 1.77349,-0.62768 3.14398,0.88669 1.76162,1.94658 1.7419,1.99647 -0.7892,1.99647 -1.42778,0 -2.84257,-0.39901 -3.14397,-0.88669 z M 280,129 c 0,-0.55 0.45,-1 1,-1 0.55,0 1,0.45 1,1 0,0.55 -0.45,1 -1,1 -0.55,0 -1,-0.45 -1,-1 z m 4.03063,-0.5 c 0,-0.55 0.43621,-1.675 0.96937,-2.5 0.53316,-0.825 0.96937,-1.05 0.96937,-0.5 0,0.55 -0.43621,1.675 -0.96937,2.5 -0.53316,0.825 -0.96937,1.05 -0.96937,0.5 z m 18.40126,-0.61021 c -0.8925,-1.44408 -0.24076,-1.75088 1.995,-0.93913 1.69388,0.61501 1.72798,0.77593 0.28202,1.3308 -0.90467,0.34716 -1.92933,0.17091 -2.27702,-0.39167 z M 326.5,128 c 0.33992,-0.55 0.81648,-1 1.05902,-1 0.24254,0 0.44098,0.45 0.44098,1 0,0.55 -0.47656,1 -1.05902,1 -0.58246,0 -0.7809,-0.45 -0.44098,-1 z M 393,126.01536 C 387.95524,124.80997 389.6676,118 395.01546,118 c 3.02689,0 4.7189,2.4812 2.53921,3.72355 -0.74924,0.42705 -1.51805,1.70181 -1.70846,2.8328 -0.2758,1.63815 -0.85464,1.93487 -2.84621,1.45901 z m -98,-0.95634 c 0,-0.51754 0.44485,-1.21592 0.98855,-1.55194 0.56686,-0.35034 0.7345,0.0511 0.39301,0.94098 C 295.71677,126.18048 295,126.49745 295,125.05902 Z m -96.04165,-1.60921 c -1.06278,-1.28057 -0.99712,-1.83961 0.37755,-3.21428 1.55213,-1.55213 1.77607,-1.55213 3.3282,0 1.37467,1.37467 1.44033,1.93371 0.37755,3.21428 C 202.33405,124.30242 201.41531,125 201,125 c -0.41531,0 -1.33405,-0.69758 -2.04165,-1.55019 z M 244.21331,122 c 0.24217,-1.65 0.11037,-3 -0.29288,-3 -0.40326,0 -0.47943,-0.97037 -0.16929,-2.15637 0.35789,-1.36856 0.1793,-1.91867 -0.48883,-1.50575 -0.57901,0.35785 -1.32489,-0.0586 -1.65753,-0.92541 -0.78716,-2.05133 -0.76273,-2.43741 0.14522,-2.29405 2.51389,0.39693 4.10864,-0.39651 4.76032,-2.36842 l 0.74358,-2.25 0.4426,2.25 c 0.24343,1.2375 0.8613,2.25 1.37305,2.25 0.53516,0 0.93045,-6.79733 0.93045,-16 0,-10 0.375,-16 1,-16 0.55,0 1,0.9 1,2 0,1.333333 0.66667,2 2,2 1.91635,0 2,0.666667 2,15.939635 v 15.939635 l -3.75,0.31036 c -3.50895,0.29042 -3.75,0.52144 -3.75,3.59393 0,2.99129 -1.61185,5.1612 -3.8635,5.20113 -0.47492,0.008 -0.66536,-1.33469 -0.42319,-2.98469 z M 319,123 c -1.21296,-0.78387 -1.06944,-0.9723 0.75,-0.98469 1.2375,-0.008 2.25,0.43469 2.25,0.98469 0,1.25292 -1.06124,1.25292 -3,0 z m -47.8,-2.2 c -1.58507,-1.58507 -1.51906,-3.6238 0.17208,-5.31493 1.16277,-1.16277 1.69669,-1.06966 3.5,0.61038 2.54465,2.3707 2.54172,2.34789 0.55649,4.33312 -1.88603,1.88603 -2.64711,1.95289 -4.22857,0.37143 z m 40.34271,0.2691 c -0.31644,-0.512 -0.11799,-1.21356 0.44098,-1.55902 1.19337,-0.73755 3.01631,0.19857 3.01631,1.54894 0,1.2168 -2.70662,1.22469 -3.45729,0.0101 z M 283,119 c -0.90129,-0.58246 -1.02463,-0.97549 -0.30902,-0.98469 0.65504,-0.008 1.4691,0.43469 1.80902,0.98469 0.7673,1.24153 0.42112,1.24153 -1.5,0 z m -89.79487,-1.25283 c -0.7341,-0.88453 -0.62023,-1.82659 0.38733,-3.20451 1.3277,-1.81573 1.54233,-1.83644 3.08142,-0.29735 1.36622,1.36622 1.43027,1.92427 0.36777,3.2045 -1.55836,1.87771 -2.46653,1.9481 -3.83652,0.29736 z m 107.0639,-1.44016 c 0.97297,-0.25354 2.32297,-0.23687 3,0.037 0.67703,0.27393 -0.11903,0.48137 -1.76903,0.46099 -1.65,-0.0204 -2.20394,-0.2445 -1.23097,-0.49804 z M 294,113.5 c -0.71755,-0.86459 -0.81474,-1.5 -0.22943,-1.5 0.5585,0 1.27447,0.675 1.59106,1.5 0.31658,0.825 0.41982,1.5 0.22943,1.5 -0.19039,0 -0.90637,-0.675 -1.59106,-1.5 z m -106.54549,-0.9291 c -1.86208,-1.38016 -1.87175,-1.53262 -0.20451,-3.22407 1.65278,-1.67677 1.84524,-1.68016 3.46429,-0.0611 1.52874,1.52875 1.55087,1.8777 0.2045,3.22407 -1.32243,1.32243 -1.75232,1.33001 -3.46428,0.0611 z M 181.25,108.33772 c -1.44301,-0.58227 -1.59034,-2.25242 -0.36871,-4.17989 1.41958,-2.23978 5.2758,0.68013 4.01341,3.03893 -0.99237,1.85426 -1.4905,2.0102 -3.6447,1.14096 z m 91.88042,-0.12371 c 0.3157,-2.11809 -0.29767,-3.08706 -1.63042,-2.57564 -0.825,0.31659 -1.5,0.13256 -1.5,-0.40894 0,-1.03963 2.8879,-3.79326 3.27417,-3.12193 3.20046,5.56242 3.1883,5.50105 1.23783,6.24952 -0.81841,0.31405 -1.44012,0.2497 -1.38158,-0.14301 z m 129.45253,-0.0798 c -0.43077,-0.697 -0.51316,-1.53733 -0.18309,-1.86741 0.89497,-0.89496 1.87077,0.4213 1.38739,1.87145 -0.33872,1.01617 -0.57427,1.01538 -1.2043,-0.004 z M 278,106.32072 c 0.825,-0.33769 1.85986,-1.223 2.29969,-1.96735 0.91139,-1.5424 4.2942,-1.81949 5.1576,-0.42247 0.76298,1.23452 -0.17423,1.68922 -4.95729,2.40511 -2.2,0.32928 -3.325,0.3224 -2.5,-0.0153 z m -103.75,-1.983 c -1.44575,-0.58337 -1.58991,-2.25298 -0.36186,-4.19097 0.6708,-1.058597 1.32343,-1.103888 2.9974,-0.208008 1.74281,0.932728 1.94544,1.508558 1.09199,3.103248 -1.07365,2.00612 -1.55356,2.17295 -3.72753,1.29573 z m 64.45767,-3.3476 c -0.70155,-2.682709 -0.12859,-3.844221 1.19546,-2.423453 0.47838,0.513333 0.54648,1.809233 0.15133,2.879783 -0.66511,1.80193 -0.7651,1.76805 -1.34679,-0.45633 z M 166.36419,99.506689 C 166.01783,98.604071 166.16894,97.431061 166.7,96.9 c 1.39942,-1.399424 4.45283,0.06792 4.08761,1.964344 -0.4239,2.201106 -3.64573,2.668956 -4.42342,0.642345 z m -6.77129,-1.815103 c -2.04704,-1.496833 -1.0991,-5.099809 1.11793,-4.249057 C 161.50984,93.749138 162.53464,94 162.98817,94 c 0.95077,0 0.13449,3.806155 -0.96155,4.483551 -0.40259,0.248811 -1.49776,-0.107574 -2.43372,-0.791965 z M 97.345077,96.456872 C 97.019392,95.608151 97.003576,94.663091 97.30993,94.356736 98.185641,93.481025 100,94.966387 100,96.559017 c 0,1.918855 -1.907556,1.845464 -2.654923,-0.102145 z M 102.9742,94.95179 c -0.7923,-1.480419 -0.56441,-2.100734 1.09873,-2.990823 2.37816,-1.272751 2.43887,-1.242404 3.33089,1.665068 0.88908,2.897907 -2.97008,4.052928 -4.42962,1.325755 z m 47.80123,0.490305 c -0.90922,-0.909215 0.36114,-4.443401 1.5912,-4.426782 2.18934,0.02958 3.69503,1.660434 3.06025,3.314637 -0.61328,1.598172 -3.48,2.283596 -4.65145,1.112145 z m 86.30352,-1.025428 c 0.048,-1.164943 0.28494,-1.4019 0.60416,-0.604167 0.28887,0.721875 0.25335,1.584375 -0.0789,1.916667 -0.3323,0.332291 -0.56864,-0.258334 -0.52522,-1.3125 z M 110.72539,93.057905 C 110.12613,90.766331 110.7087,90 113.05004,90 c 2.2034,0 3.24485,3.672863 1.25766,4.435417 -2.39745,0.919991 -3.04679,0.6703 -3.58231,-1.377512 z M 144.25,94.337719 C 143.5625,94.060307 143,92.970833 143,91.916667 143,90.517913 143.70445,90 145.60699,90 c 1.96639,0 2.45784,0.388682 2,1.581787 -0.33385,0.869984 -0.60699,1.994984 -0.60699,2.5 0,0.986359 -0.76368,1.057431 -2.75,0.255932 z M 119,91.5 c 0,-1.781728 0.54111,-2.5 1.88337,-2.5 2.32563,0 3.49483,3.640895 1.42433,4.435417 C 119.68185,94.443051 119,94.044082 119,91.5 Z m 17.25,1.837719 C 135.5625,93.060307 135,91.970833 135,90.916667 135,89.538889 135.7029,89 137.5,89 c 2.57125,0 2.94543,0.67566 1.89301,3.418213 -0.63057,1.643235 -1.04729,1.765149 -3.14301,0.919506 z M 127,91.059017 c 0,-2.269509 1.52104,-3.456791 3.47026,-2.708801 C 132.48025,89.121519 131.15659,93 128.88337,93 127.68576,93 127,92.293267 127,91.059017 Z M 237.63837,90.5 c 0.31659,-0.825 0.75246,-1.5 0.96862,-1.5 0.21615,0 0.39301,0.675 0.39301,1.5 0,0.825 -0.43588,1.5 -0.96862,1.5 -0.53273,0 -0.70959,-0.675 -0.39301,-1.5 z m 0.44058,-12.168213 c -0.0434,-0.642516 -0.33793,-1.992516 -0.65446,-3 -0.54705,-1.741219 -0.51883,-1.7434 0.57078,-0.04411 0.63045,0.983222 0.92496,2.333222 0.65445,3 -0.35498,0.874997 -0.51379,0.887271 -0.57077,0.04411 z M 244,70 c 0,-1.1 0.45,-2 1,-2 0.55,0 1,-0.9 1,-2 0,-1.333333 0.66667,-2 2,-2 1.33333,0 2,-0.666667 2,-2 0,-1.1 -0.45,-2 -1,-2 -1.68684,0 -1.11148,-2.589137 1,-4.5 1.13419,-1.026428 2,-1.309975 2,-0.654988 C 252,55.480256 252.9,56 254,56 c 1.1,0 2,0.45 2,1 0,0.55 0.9,1 2,1 1.55556,0 2,0.666667 2,3 0,2.333333 -0.44444,3 -2,3 -1.33333,0 -2,0.666667 -2,2 0,1.333333 -0.66667,2 -2,2 -1.33333,0 -2,0.666667 -2,2 0,1.666667 -0.66667,2 -4,2 -3.33333,0 -4,-0.333333 -4,-2 z m 12,-8 c 0,-1.333333 -0.66667,-2 -2,-2 -1.33333,0 -2,0.666667 -2,2 0,1.333333 0.66667,2 2,2 1.33333,0 2,-0.666667 2,-2 z m -16.5,7 c -0.33992,-0.55 -0.14148,-1 0.44098,-1 0.58246,0 1.05902,0.45 1.05902,1 0,0.55 -0.19844,1 -0.44098,1 -0.24254,0 -0.7191,-0.45 -1.05902,-1 z m 162.72917,-8.1875 c 0.2177,-0.653125 0.94146,-1.294375 1.60833,-1.425 0.66687,-0.130625 0.74845,-0.0078 0.18127,0.27291 -0.56718,0.280726 -0.77687,0.921976 -0.46598,1.425 0.31088,0.503025 0.0512,0.91459 -0.57711,0.91459 -0.62829,0 -0.96422,-0.534375 -0.74651,-1.1875 z m -0.5625,-5.479167 C 401.3,54.966667 401,54.201667 401,53.633333 c 0,-0.626604 0.46577,-0.567562 1.18333,0.15 0.65084,0.650834 0.95084,1.415834 0.66667,1.7 -0.28417,0.284167 -0.81667,0.216667 -1.18333,-0.15 z M 247.75,51.283746 c -3.3321,-0.504771 -3.55297,-2.60503 -0.5,-4.754378 2.00092,-1.408681 2.28579,-1.414959 2.57332,-0.0567 C 250.00115,47.312699 250.56365,48 251.07332,48 251.583,48 252,48.9 252,50 c 0,1.1 -0.3375,1.932576 -0.75,1.850168 -0.4125,-0.08241 -1.9875,-0.337298 -3.5,-0.566422 z m 146.63943,-2.856188 c 0.33187,-0.864843 0.11332,-2.488155 -0.48566,-3.607359 -0.79644,-1.488176 -0.77956,-2.341922 0.0628,-3.177558 0.86645,-0.859493 0.99642,-0.734054 0.52447,0.506208 -0.34508,0.906868 -0.14674,1.945925 0.44076,2.309017 C 396.34428,45.330812 396.31158,50 394.89301,50 c -0.60884,0 -0.83546,-0.707599 -0.50358,-1.572442 z M 266,44 c 0,-2.2 0.45,-4 1,-4 0.55,0 1,0.45 1,1 0,0.55 0.9,1 2,1 1.55556,0 2,0.666667 2,3 0,2.666667 -0.33333,3 -3,3 -2.83333,0 -3,-0.222222 -3,-4 z m -11,-3.940983 c 0,-0.517541 0.45,-1.219098 1,-1.559017 1.54662,-0.955866 1.18162,-3.493077 -0.60092,-4.177102 -0.88051,-0.337883 -1.99862,0.01374 -2.48469,0.781385 -0.48607,0.767644 -0.89066,0.916017 -0.89908,0.329716 -0.008,-0.586301 1.44719,-2.447885 3.23469,-4.136853 1.7875,-1.688969 3.86616,-3.83522 4.61925,-4.769447 0.86626,-1.074624 2.15197,-1.488549 3.5,-1.126801 1.17191,0.314486 3.59325,0.577937 5.38075,0.585447 C 270.5375,25.993855 272,26.45 272,27 c 0,0.55 -0.9,1 -2,1 -1.33333,0 -2,0.666667 -2,2 0,1.666667 -0.66667,2 -4,2 -3.65377,0 -4,0.227883 -4,2.632705 0,1.450207 -0.96704,3.471412 -2.15301,4.5 C 255.40179,41.25342 255,41.384147 255,40.059017 Z M 249.5,39 c 0.33992,-0.55 0.81648,-1 1.05902,-1 0.24254,0 0.44098,0.45 0.44098,1 0,0.55 -0.47656,1 -1.05902,1 -0.58246,0 -0.7809,-0.45 -0.44098,-1 z M 376.56429,23.293128 c -0.54268,-1.425198 -0.42782,-1.540062 0.5598,-0.559795 0.68342,0.678334 0.99067,1.485241 0.68278,1.793128 -0.30789,0.307888 -0.86705,-0.247112 -1.24258,-1.233333 z M 278,16.059017 c 0,-1.989833 1.30362,-3.422068 2.25176,-2.473926 C 281.03608,14.369412 279.91079,18 278.88337,18 278.39752,18 278,17.126558 278,16.059017 Z m 82,0.881966 c 0,-0.582459 0.45,-0.780902 1,-0.440983 0.55,0.339919 1,0.816476 1,1.059017 C 362,17.801558 361.55,18 361,18 c -0.55,0 -1,-0.476558 -1,-1.059017 z M 271.5,16 c -0.33992,-0.55 -0.11492,-1 0.5,-1 0.61492,0 0.85914,-0.418906 0.54271,-0.930902 -0.31644,-0.511996 -0.11799,-1.213553 0.44098,-1.559017 C 273.57097,12.14712 274,12.962234 274,14.440983 274,17.015688 272.64858,17.858442 271.5,16 Z M 304,14 c 0,-1.333333 -0.66667,-2 -2,-2 -1.1,0 -2,-0.45 -2,-1 0,-0.55 0.87344,-1 1.94098,-1 1.06754,0 2.2191,-0.45 2.55902,-1 0.33992,-0.55 3.96648,-1 8.05902,-1 H 320 v 4 4 h -8 c -7.33333,0 -8,-0.166667 -8,-2 z m 44,-6.4166667 c 0,-0.7791666 -1.2375,-1.8988707 -2.75,-2.4882312 -2.59739,-1.012099 -2.55577,-1.0379446 0.75,-0.4657363 1.925,0.3332056 3.8375,0.8044673 4.25,1.0472483 C 351.6039,6.4734671 351.03373,9 349.5,9 348.675,9 348,8.3625 348,7.5833333 Z M 292.36637,6.4876341 c 0.45992,-1.1985167 0.0152,-1.3892536 -2.14301,-0.9191165 C 288.1223,6.0262058 287.84276,5.9182774 289,5.0961963 290.65049,3.923718 294.31241,3.6457419 295.28571,4.6190476 295.93095,5.2642853 293.6481,8 292.46444,8 292.09131,8 292.04718,7.3194353 292.36637,6.4876341 Z M 336.29167,4.75 c 0.25208,-0.6875 1.07708,-1.0802632 1.83333,-0.872807 0.75625,0.2074561 1.9375,0.3949561 2.625,0.4166666 C 343.51998,4.3813326 341.78064,6 338.91667,6 c -2.04445,0 -2.92891,-0.4211712 -2.625,-1.25 z"
         id="path7" />
      <path
         style="fill:#a1a1a4"
         d="m 141,448.92073 c -15.75518,-1.2505 -31.28118,-3.45794 -41.967581,-5.9668 C 78.80947,438.20614 78.45596,431.12995 98.195337,426.19807 113.8067,422.29758 145.16492,419 166.64522,419 175.61248,419 178,418.71091 178,417.62511 c 0,-0.75619 -4.75061,-24.04369 -10.55692,-51.75 -9.7055,-46.3124 -10.55852,-51.26903 -10.57692,-61.45911 -0.0538,-29.79417 14.61758,-57.02164 39.46675,-73.24335 7.85473,-5.12762 20.02824,-10.41041 26.97706,-11.70688 3.01074,-0.56174 3.66424,-1.05225 3.1153,-2.33831 -2.64364,-6.19355 -3.23006,-9.05244 -2.50275,-12.20136 1.17264,-5.07696 11.35791,-28.09648 12.65122,-28.59277 0.96759,-0.3713 12.46759,4.19015 27.42626,10.87856 11.35825,5.07858 15.46064,6.86486 29.5,12.84503 8.25,3.51414 16.20326,7.09572 17.67391,7.95905 l 2.67391,1.5697 -5.67391,13.00609 c -3.12065,7.15335 -6.49936,14.26367 -7.50825,15.80071 -2.18063,3.32218 -9.89047,6.98887 -13.3177,6.33371 -1.90355,-0.36388 -2.75213,0.15471 -3.90678,2.38756 -1.53762,2.97343 -6.04608,5.88044 -9.14152,5.89435 -0.98981,0.004 -5.21758,-1.39882 -9.39504,-3.11836 l -7.59537,-3.12645 -9.86122,5.31604 c -9.53241,5.13878 -9.76264,5.34299 -6.90463,6.12435 1.62613,0.44457 15.1066,4.33894 29.9566,8.65415 l 27,7.84584 7.34819,-14.60183 c 4.04151,-8.03101 8.76651,-16.11928 10.5,-17.97394 6.44164,-6.8919 16.86744,-9.02923 25.32113,-5.19094 4.13721,1.87845 5.99433,4.15864 7.26907,8.92508 0.66024,2.46871 0.67145,2.46442 2.74636,-1.05229 C 359.7869,229.38273 387,231.03731 387,247.01773 c 0,2.48965 0.35224,3.01787 1.75,2.62431 8.90366,-2.50691 16.04503,-1.22127 22.12524,3.98317 4.73831,4.05582 6.20544,8.94694 4.00595,13.35507 -0.75965,1.52248 -14.65021,16.99974 -30.8679,34.39393 L 354.52658,333 h -55.76329 c -43.9711,0 -55.75253,0.26434 -55.71242,1.25 0.028,0.6875 4.8811,21.21453 10.78471,45.61562 l 10.73384,44.36562 8.51282,2.13671 c 21.65957,5.43653 19.41309,12.26899 -5.78234,17.58645 -19.49619,4.11465 -34.81254,5.23959 -75.7999,5.56729 -21.45,0.17149 -44.175,-0.0989 -50.5,-0.60096 z M 252.5837,434.84088 261.66739,432.5 254.83963,404 c -3.75527,-15.675 -9.12336,-38.04672 -11.9291,-49.71494 l -5.10133,-21.21494 -9.6546,-0.28506 C 219.26169,332.52249 218.5,332.34221 218.5,330.5 c 0,-1.96157 0.83333,-2.00961 43.37064,-2.5 l 43.37064,-0.5 7.98281,-17 c 4.39054,-9.35 12.88625,-27.06972 18.87936,-39.37716 C 338.09655,258.8154 343,247.74765 343,246.52783 343,242.33016 339.52879,240.5 331.56717,240.5 c -10.55456,0 -12.1512,1.51431 -22.2622,21.11418 C 304.7977,270.35138 298.20654,282.9 294.65795,289.5 l -6.45199,12 -19.85298,0.28346 c -10.91914,0.1559 -20.80232,0.0507 -21.96262,-0.23383 -1.76848,-0.43363 -2.19699,-1.48045 -2.6497,-6.47309 -1.00223,-11.05276 -6.75932,-18.90666 -17.44503,-23.79873 -5.15129,-2.35834 -6.75106,-4.78208 -3.88284,-5.88272 2.60459,-0.99947 12.62458,4.86538 17.5848,10.29266 4.81627,5.26975 7.33313,10.4799 8.48378,17.56225 l 0.60926,3.75 h 18.24897 18.24898 l 4.39858,-8.9738 c 2.41922,-4.93559 4.19929,-9.13487 3.95571,-9.33173 -0.24358,-0.19686 -14.39287,-4.33399 -31.44287,-9.19361 -17.05,-4.85962 -31.65571,-9.43213 -32.45714,-10.16113 -2.02511,-1.84208 -1.03354,-2.64929 11.50286,-9.36422 l 10.59777,-5.67653 -8.82175,-3.75623 C 231.86227,235.66339 229,233.01934 229,227.31291 229,224.94081 228.5974,223 228.10534,223 c -2.9632,0 -15.89221,4.85952 -23.41188,8.79962 -21.85497,11.45143 -37.84785,33.88274 -42.28213,59.30413 -2.7301,15.65143 -2.86192,14.82407 18.51166,116.19371 2.7597,13.08861 5.25199,24.17665 5.53842,24.6401 0.51243,0.82913 9.22422,3.11793 19.03859,5.00191 2.75,0.52789 12.425,0.79836 21.5,0.60104 13.20284,-0.28707 18.31518,-0.82653 25.5837,-2.69963 z M 356.71547,295 c 10.03106,-17.875 18.24869,-32.89114 18.26141,-33.36919 0.0127,-0.47805 1.59812,-3.46192 3.52312,-6.63081 4.57487,-7.53105 4.64271,-11.33268 0.25,-14.01096 -3.89448,-2.37451 -12.53361,-2.6764 -16.54966,-0.57832 -1.48519,0.7759 -3.86197,2.6884 -5.28174,4.25 -2.90118,3.191 -28.29247,43.60375 -29.77842,47.39529 -0.96217,2.45508 -14.38844,30.67084 -16.24684,34.14329 -0.94926,1.77371 -0.35823,1.84388 13.29521,1.57846 L 338.47719,327.5 Z m 24.9323,2.01205 c 18.85251,-20.24801 28.96024,-31.84144 29.16388,-33.45054 0.4716,-3.72653 -1.52303,-6.52723 -6.14233,-8.62456 -7.83706,-3.55832 -15.50662,-2.04772 -21.29271,4.19381 C 380.94239,261.75658 344,326.012 344,327.62011 344,327.82905 345.979,328 348.39777,328 h 4.39777 z m 63.68556,-48.98296 c -4.88682,-3.77677 -5.16666,-4.24072 -5.16666,-8.56581 0,-3.6022 0.79474,-5.78159 3.74439,-10.26803 5.02038,-7.63604 5.18042,-8.16071 6.06906,-19.89627 0.8714,-11.50805 3.01452,-16.45305 9.65893,-22.28692 5.01553,-4.4037 9.24007,-6.01206 15.79132,-6.01206 13.86547,0 25.04987,9.10747 28.62619,23.31035 1.58201,6.28273 -0.095,12.88319 -4.88295,19.21807 -4.62377,6.1177 -8.94651,9.08393 -16.11078,11.05505 -8.30955,2.28623 -12.92983,4.48325 -15.44992,7.34667 -5.34719,6.07571 -9.23521,8.88652 -13.11291,9.47989 -3.58465,0.54854 -4.53649,0.19747 -9.16667,-3.38094 z m 23.17419,-12.93173 c 2.51734,-1.59644 7.7933,-3.69083 11.72435,-4.65418 14.22271,-3.48546 22.58905,-15.86847 18.60952,-27.54396 -1.92162,-5.63784 -6.71431,-11.79374 -10.80801,-13.88219 -10.05426,-5.1293 -18.19839,-4.57307 -25.16247,1.71856 -6.11659,5.52597 -7.93464,9.99062 -8.81688,21.65187 -0.42079,5.5619 -1.35907,11.36485 -2.08506,12.89546 -1.17582,2.47894 -1.10968,2.93189 0.60552,4.14687 1.05903,0.75017 3.95051,2.98099 6.42551,4.95737 2.475,1.97639 4.59687,3.5978 4.71527,3.60313 0.1184,0.005 2.27491,-1.29648 4.79225,-2.89293 z m -11.11556,-3.51832 c -0.30325,-0.79025 1.47526,-3.99533 4.00687,-7.22087 l 4.55215,-5.7999 -2.67589,-2.79302 c -2.34774,-2.45051 -2.49658,-2.97233 -1.21378,-4.25513 1.28279,-1.2828 2.31908,-0.78075 8.45039,4.09393 3.84357,3.05582 7.11579,5.90248 7.2716,6.32591 0.15582,0.42343 -0.41987,1.35346 -1.27931,2.06673 -1.3109,1.08795 -1.9481,0.93471 -3.95564,-0.95127 l -2.39302,-2.24812 -4.73813,6.10135 c -4.71263,6.06852 -6.9842,7.39332 -8.02524,4.68039 z m -281.2891,-15.29332 c -1.82446,-4.24285 -2.93148,-7.86864 -2.46003,-8.05732 0.47144,-0.18868 9.18217,-4.07964 19.35717,-8.64658 10.175,-4.56694 18.70362,-8.12502 18.9525,-7.90684 C 212.44145,192.10362 180.88477,224 179.97175,224 c -0.30342,0 -2.04443,-3.47142 -3.86889,-7.71428 z m -64.96475,-25.87465 c -4.04905,-5.78634 -7.19905,-10.67569 -7,-10.86523 0.19904,-0.18954 21.96189,-1.73379 48.36189,-3.43167 26.4,-1.69787 50.25,-3.3459 53,-3.66228 3.1506,-0.36246 4.63012,-0.22634 4,0.36802 -0.55,0.51878 -20.70566,6.86763 -44.79035,14.10854 -24.08469,7.24091 -44.33469,13.35383 -45,13.58426 -0.66531,0.23044 -4.5225,-4.3153 -8.57154,-10.10164 z m 324.36483,-1.40632 C 434.78599,187.84471 436.64672,185 438.12244,185 c 1.38193,0 1.02413,2.63347 -0.53341,3.92611 -1.00807,0.83662 -1.60376,0.85908 -2.08609,0.0786 z M 291.25,186.33772 c -1.62167,-0.65436 -1.58039,-2.34279 0.14509,-5.93408 0.7673,-1.597 3.6923,-8.19114 6.5,-14.65364 2.8077,-6.4625 7.35491,-16.87883 10.10491,-23.14741 2.75,-6.26857 5,-11.90471 5,-12.52475 0,-0.62004 -1.15157,-1.56517 -2.55904,-2.10029 -1.40747,-0.53512 -5.02081,-2.09898 -8.02964,-3.47525 C 299.4025,123.12604 296.36734,122 295.66654,122 c -0.70081,0 -3.69142,5.5125 -6.64582,12.25 -2.9544,6.7375 -6.56352,14.95 -8.02027,18.25 -1.45675,3.3 -4.17026,9.6 -6.03003,14 -1.85977,4.4 -3.77183,8.53575 -4.24902,9.19056 -0.97328,1.33553 -3.7214,0.65167 -3.7214,-0.92607 0,-0.89287 5.62198,-14.6025 9.54019,-23.26449 C 282.61747,138.06497 290,120.75713 290,119.9444 c 0,-0.54665 -1.12645,-1.42218 -2.50322,-1.94562 C 280.52097,115.34658 276,112.80439 276,111.53402 c 0,-2.46999 1.81105,-2.66943 6.21831,-0.68476 2.35493,1.06046 12.83169,5.62744 23.28169,10.14885 31.20862,13.50304 29.71948,12.72328 28.53279,14.94062 -1.00309,1.8743 -1.23747,1.84303 -7.51214,-1.00204 C 322.95845,133.32151 319.47007,132 318.7687,132 c -0.70137,0 -3.48968,5.0625 -6.19624,11.25 -2.70656,6.1875 -6.12321,13.95 -7.59256,17.25 -1.46935,3.3 -4.61911,10.6125 -6.99947,16.25 -2.38036,5.6375 -4.58724,10.21447 -4.90418,10.17105 -0.31694,-0.0434 -1.13875,-0.30592 -1.82625,-0.58333 z m 138.86011,-2.70504 c -1.71627,-2.06798 1.28388,-4.38051 3.40222,-2.62245 1.15031,0.95467 1.24069,1.58244 0.37756,2.62245 C 433.26576,184.38471 432.41531,185 432,185 c -0.41531,0 -1.26576,-0.61529 -1.88989,-1.36732 z M 56,178 c -0.588702,-1.1 -1.904682,-2 -2.9244,-2 -3.310956,0 -5.669016,-3.31599 -9.595364,-13.49336 C 38.923134,150.69432 34.396355,145.24567 24.016413,139.07906 15.686768,134.13051 8.7094274,127.3335 5.5412431,121.08139 -1.2579583,107.66381 -1.8088944,94.049981 4.0058174,83.140464 8.0907026,75.476434 16.04275,68.10397 24.978973,63.695932 31.178365,60.637911 31.976675,60.5 43.478973,60.5 54.61387,60.5 55.959562,60.712264 61.734312,63.379523 75.244157,69.619492 84,84.43652 84,101.05851 c 0,4.60702 -0.935774,9.73552 -3,16.44149 -4.174526,13.56161 -4.054619,19.88568 0.628865,33.16703 3.597653,10.20217 3.613065,10.31451 1.791861,13.06183 -1.010352,1.52412 -1.722722,3.69524 -1.583044,4.82468 0.370795,2.99828 -2.334639,4.94258 -11.663797,8.38235 C 60.428832,180.529 57.472273,180.75097 56,178 Z m 15.151097,-32.16294 c 2.621226,-0.9529 2.645321,-1.05037 2.13844,-8.65041 -0.371247,-5.56637 -0.0381,-9.34168 1.207756,-13.68665 5.718006,-19.94174 5.845562,-20.68587 4.704236,-27.44312 C 77.721977,87.297158 71.9845,75.947797 67.066678,72.05281 59.25958,65.869474 49.179751,63.536866 36.919416,65.076328 28.512599,66.131926 23.03234,68.977508 15.2548,76.325514 4.8196568,86.184351 2.0558794,97.870821 6.8180061,112 c 3.2306609,9.58534 8.1978189,15.50616 18.9134119,22.54467 10.935174,7.18274 13.458162,9.43952 17.476152,15.6322 l 3.034488,4.67687 11.128971,-4.02646 c 6.120934,-2.21456 12.321965,-4.46016 13.780068,-4.99022 z m -24.332506,-8.58779 c -3.164304,-8.61761 -5.108726,-12.62396 -6,-12.36258 -4.57773,1.34246 -5.556607,1.22314 -6.069947,-0.73988 -0.435305,-1.6646 0.218494,-2.29494 3.609887,-3.48034 2.277808,-0.79616 8.524418,-3.05074 13.881355,-5.01017 9.563874,-3.49823 9.759367,-3.52621 10.817946,-1.54824 0.937958,1.75259 0.679355,2.16487 -1.989886,3.17239 -1.68737,0.63692 -3.042162,1.62187 -3.010647,2.18879 0.03151,0.56692 2.005638,6.20576 4.386941,12.53076 3.873686,10.28893 4.163455,11.63164 2.751571,12.75 -2.653516,2.10187 -1.794047,3.80746 -11.30388,-22.43221 -0.715047,-1.97297 -1.083374,-2.0718 -3.841405,-1.03076 -1.677789,0.6333 -3.024742,1.61529 -2.993227,2.18221 0.03151,0.56692 2.005638,6.20576 4.386941,12.53076 3.873686,10.28893 4.163455,11.63164 2.751571,12.75 -0.867939,0.6875 -1.829562,1.24967 -2.136941,1.24927 -0.307378,-4e-4 -2.665504,-5.7379 -5.240279,-12.75 z m 376.545599,41.25742 c -0.34636,-0.90262 -0.15025,-2.12063 0.43581,-2.70669 1.52361,-1.52361 4.41041,-0.13109 4.01242,1.93549 -0.4433,2.30188 -3.64766,2.85743 -4.44823,0.7712 z m -60.31672,-3.41799 c -0.75005,-1.40148 -0.73232,-2.16544 0.0616,-2.65613 1.02136,-0.63123 2.83911,1.11244 2.87559,2.75841 0.0385,1.73662 -1.99089,1.66594 -2.93722,-0.10228 z m 53.31672,-0.58201 c -0.34636,-0.90262 -0.15025,-2.12063 0.43581,-2.70669 1.52361,-1.52361 4.41041,-0.13109 4.01242,1.93549 -0.4433,2.30188 -3.64766,2.85743 -4.44823,0.7712 z m -47.79107,-2.17674 c -0.63478,-1.6542 0.87091,-3.28506 3.06025,-3.31464 1.23006,-0.0166 2.50042,3.51757 1.5912,4.42679 -1.17145,1.17145 -4.03817,0.48602 -4.65145,-1.11215 z m 40.64301,-0.17521 C 407.90564,171.32321 408.55278,168 410.0252,168 c 2.32746,0 3.70832,1.30302 3.24766,3.06458 -0.53646,2.05142 -1.94517,2.42998 -4.05673,1.09016 z m -32.59355,-1.69589 C 375.77835,168.25881 376.69038,167 379.12857,167 c 1.51073,0 1.93109,0.5568 1.69098,2.23978 -0.3827,2.68245 -3.30922,3.5325 -4.19697,1.21907 z m 7.98441,-1.04064 C 383.55457,166.67566 383.92875,166 386.5,166 c 2.87644,0 3.58107,3.37118 0.91821,4.39301 -2.1351,0.81932 -2.12086,0.82426 -2.81122,-0.9748 z m 16.16844,1.02389 C 399.6192,169.28586 401.30735,166 403.05761,166 c 2.24773,0 3.14505,1.3083 2.33865,3.40976 -0.58869,1.53408 -3.47439,2.17877 -4.62083,1.03234 z m -8.4396,-2.00932 c -0.33077,-0.86197 -0.12189,-2.04672 0.46417,-2.63278 1.55545,-1.55545 4.2,-0.18998 4.2,2.16862 0,2.46621 -3.7526,2.83966 -4.66417,0.46416 z M 171,150.61801 c -14.85864,-1.77374 -26.44106,-3.59275 -26.36582,-4.14072 0.32515,-2.36823 5.65592,-20.04716 6.23738,-20.68562 0.50054,-0.5496 51.26081,26.05331 53.04511,27.80036 0.84499,0.82736 -7.04176,0.11479 -32.91667,-2.97402 z m 235.11485,2.94667 c 0.33816,-0.34524 20.58816,-6.02633 45,-12.62465 24.41183,-6.59832 45.14758,-12.23151 46.07944,-12.51819 1.27474,-0.39218 3.46133,2.11249 8.8303,10.11482 3.92481,5.84983 6.9748,10.79728 6.77775,10.99433 -0.19705,0.19705 -19.02069,1.04538 -41.83031,1.88517 -22.80961,0.8398 -46.87203,1.808 -53.47203,2.15157 -6.6,0.34357 -11.72332,0.3422 -11.38515,-0.003 z m -191.71399,-3.72509 c -0.73319,-1.18633 -0.50898,-1.40421 2.34914,-2.28275 1.61721,-0.4971 2.25,-0.2836 2.25,0.75914 0,1.70597 -3.72398,2.93965 -4.59914,1.52361 z m -2.79387,-6.42138 c -0.8457,-2.20385 -0.83749,-2.22448 1.35102,-3.39574 1.59469,-0.85345 2.17052,-0.65082 3.10325,1.09199 0.89588,1.67397 0.85059,2.3266 -0.20801,2.9974 -2.05928,1.3049 -3.57432,1.05741 -4.24626,-0.69365 z m -3.58452,-7.37622 c -0.83567,-1.56146 -0.67129,-2.15957 0.81162,-2.9532 1.28536,-0.6879 2.21559,-0.63911 3.01271,0.15801 1.62067,1.62067 1.43347,3.43167 -0.42859,4.14621 -2.20385,0.8457 -2.22448,0.83749 -3.39574,-1.35102 z m 197.97792,-1.91565 c 4.2e-4,-0.65811 26.77428,-26.37199 30.56806,-29.35787 2.19202,-1.72521 2.21142,-1.70361 5.31527,5.9172 1.71337,4.2068 2.98233,7.78161 2.81992,7.94403 -0.87712,0.87711 -38.70358,16.0227 -38.70325,15.49664 z m -202.44783,-4.84996 c -0.4121,-1.07392 -0.0161,-2.19551 1.05067,-2.97552 1.41469,-1.03445 1.93088,-0.95267 2.97174,0.47078 0.88312,1.20774 0.94885,2.09719 0.2199,2.97553 -1.47221,1.7739 -3.46584,1.55266 -4.24231,-0.47079 z m -4.59421,-5.82657 c -1.06278,-1.28057 -0.99712,-1.83961 0.37755,-3.21428 1.55213,-1.55213 1.77607,-1.55213 3.3282,0 1.37467,1.37467 1.44033,1.93371 0.37755,3.21428 C 202.33405,124.30242 201.41531,125 201,125 c -0.41531,0 -1.33405,-0.69758 -2.04165,-1.55019 z m -5.75322,-5.70264 c -0.7341,-0.88453 -0.62023,-1.82659 0.38733,-3.20451 1.3277,-1.81573 1.54233,-1.83644 3.08142,-0.29735 1.36622,1.36622 1.43027,1.92427 0.36777,3.2045 -1.55836,1.87771 -2.46653,1.9481 -3.83652,0.29736 z m -5.75062,-5.17627 c -1.86208,-1.38016 -1.87175,-1.53262 -0.20451,-3.22407 1.65278,-1.67677 1.84524,-1.68016 3.46429,-0.0611 1.52874,1.52875 1.55087,1.8777 0.2045,3.22407 -1.32243,1.32243 -1.75232,1.33001 -3.46428,0.0611 z M 181.25,108.33772 c -1.44301,-0.58227 -1.59034,-2.25242 -0.36871,-4.17989 1.41958,-2.23978 5.2758,0.68013 4.01341,3.03893 -0.99237,1.85426 -1.4905,2.0102 -3.6447,1.14096 z m -7,-4 c -1.44575,-0.58337 -1.58991,-2.25298 -0.36186,-4.19097 0.6708,-1.058597 1.32343,-1.103888 2.9974,-0.208008 1.74281,0.932728 1.94544,1.508558 1.09199,3.103248 -1.07365,2.00612 -1.55356,2.17295 -3.72753,1.29573 z m -7.88581,-4.831031 C 166.01783,98.604071 166.16894,97.431061 166.7,96.9 c 1.39942,-1.399424 4.45283,0.06792 4.08761,1.964344 -0.4239,2.201106 -3.64573,2.668956 -4.42342,0.642345 z m -6.77129,-1.815103 c -2.04704,-1.496833 -1.0991,-5.099809 1.11793,-4.249057 C 161.50984,93.749138 162.53464,94 162.98817,94 c 0.95077,0 0.13449,3.806155 -0.96155,4.483551 -0.40259,0.248811 -1.49776,-0.107574 -2.43372,-0.791965 z M 97.345077,96.456872 C 97.019392,95.608151 97.003576,94.663091 97.30993,94.356736 98.185641,93.481025 100,94.966387 100,96.559017 c 0,1.918855 -1.907556,1.845464 -2.654923,-0.102145 z M 102.9742,94.95179 c -0.7923,-1.480419 -0.56441,-2.100734 1.09873,-2.990823 2.37816,-1.272751 2.43887,-1.242404 3.33089,1.665068 0.88908,2.897907 -2.97008,4.052928 -4.42962,1.325755 z m 47.80123,0.490305 c -0.90922,-0.909215 0.36114,-4.443401 1.5912,-4.426782 2.18934,0.02958 3.69503,1.660434 3.06025,3.314637 -0.61328,1.598172 -3.48,2.283596 -4.65145,1.112145 z m -40.05004,-2.38419 C 110.12613,90.766331 110.7087,90 113.05004,90 c 2.2034,0 3.24485,3.672863 1.25766,4.435417 -2.39745,0.919991 -3.04679,0.6703 -3.58231,-1.377512 z M 144.25,94.337719 C 143.5625,94.060307 143,92.970833 143,91.916667 143,90.517913 143.70445,90 145.60699,90 c 1.96639,0 2.45784,0.388682 2,1.581787 -0.33385,0.869984 -0.60699,1.994984 -0.60699,2.5 0,0.986359 -0.76368,1.057431 -2.75,0.255932 z M 119,91.5 c 0,-1.781728 0.54111,-2.5 1.88337,-2.5 2.32563,0 3.49483,3.640895 1.42433,4.435417 C 119.68185,94.443051 119,94.044082 119,91.5 Z m 17.25,1.837719 C 135.5625,93.060307 135,91.970833 135,90.916667 135,89.538889 135.7029,89 137.5,89 c 2.57125,0 2.94543,0.67566 1.89301,3.418213 -0.63057,1.643235 -1.04729,1.765149 -3.14301,0.919506 z M 127,91.059017 c 0,-2.269509 1.52104,-3.456791 3.47026,-2.708801 C 132.48025,89.121519 131.15659,93 128.88337,93 127.68576,93 127,92.293267 127,91.059017 Z"
         id="path6" />
      <path
         style="fill:#0c0c13"
         d="M 158.5,449.41383 C 108.73754,446.41732 81.623631,440.6351 84.324975,433.59551 86.783508,427.18868 113.73988,422.0612 156.5,419.86682 c 12.1,-0.62096 22.09885,-1.20637 22.21967,-1.30092 0.12082,-0.0946 -4.57249,-22.87306 -10.42959,-50.61891 -10.64737,-50.438 -10.64927,-50.44948 -10.62977,-64.44699 0.0172,-12.32666 0.34448,-15.07572 2.73849,-23 9.10793,-30.14761 33.15719,-53.43649 62.43389,-60.45986 2.84202,-0.68179 5.16731,-1.40886 5.16731,-1.61571 0,-0.20685 -0.89832,-1.84947 -1.99626,-3.65026 -3.15049,-5.16727 -2.49823,-9.08475 4.03218,-24.21736 3.30942,-7.66875 6.15507,-14.08114 6.32368,-14.24974 0.31875,-0.31876 75.55413,32.27332 76.36014,33.07933 0.77728,0.77729 -10.88565,26.97128 -13.11652,29.45861 -3.05518,3.40642 -6.95129,5.15499 -11.48617,5.15499 -3.08647,0 -4.1232,0.44403 -4.60877,1.97391 -1.01919,3.2112 -5.43159,6.02877 -9.39314,5.99809 C 272.12681,251.9566 267.575,250.63293 264,249.03051 l -6.5,-2.91347 -8,4.31486 c -4.4,2.37317 -9.05104,4.8583 -10.33565,5.5225 -1.2846,0.6642 -2.18367,1.35961 -1.99793,1.54535 0.37842,0.37843 59.26033,17.50025 60.1833,17.50025 0.32368,0 4.22869,-7.19715 8.6778,-15.99366 8.81051,-17.41959 11.07273,-20.02096 19.67739,-22.62744 7.48894,-2.26851 16.26356,-0.11741 19.73439,4.83789 0.85838,1.22552 1.5607,4.0162 1.5607,6.2015 v 3.97327 l 2.85711,-4.50519 c 4.06408,-6.4084 9.59599,-10.62055 15.75978,-11.99994 4.51953,-1.01143 6.01163,-0.91338 10.98053,0.72154 6.92377,2.27814 9.85713,5.68691 9.85713,11.4547 0,3.18315 0.30391,3.8454 1.52272,3.31809 0.8375,-0.36234 4.02749,-0.86934 7.08887,-1.12667 4.3014,-0.36156 6.75237,0.0424 10.78671,1.77795 6.71332,2.888 9.14715,5.9724 9.14715,11.59223 0,5.06381 2.49778,2.04737 -35.29651,42.62573 L 354.7888,332 H 298.3944 C 267.37748,332 242,332.13819 242,332.3071 c 0,0.70438 22.08768,92.10589 22.28467,92.21668 0.11843,0.0666 4.03819,1.12156 8.71058,2.34434 27.84605,7.28744 13.24975,15.93175 -34.97327,20.71209 -13.85602,1.37355 -66.8644,2.59582 -79.52198,1.83362 z m 91.10109,-13.51436 c 5.5556,-1.15356 10.66279,-2.44452 11.3493,-2.86881 0.95031,-0.58733 -1.41044,-11.84014 -9.89193,-47.15105 -6.12708,-25.50878 -11.58476,-48.05097 -12.12819,-50.09375 l -0.98804,-3.71413 -9.64006,-0.28587 c -6.56495,-0.19467 -9.77111,-0.68123 -10.05092,-1.52529 -0.32177,-0.97066 9.07633,-1.29594 43.33872,-1.5 l 43.74958,-0.26057 10.35846,-22 c 5.69715,-12.1 14.44984,-30.37588 19.45042,-40.61306 8.71388,-17.83902 9.03457,-18.73311 7.7115,-21.5 -1.82256,-3.81146 -7.766,-5.92803 -14.01489,-4.99095 -7.7553,1.16298 -11.44802,5.32298 -20.70209,23.32179 C 303.68002,271.398 297.36503,283.45 294.10964,289.5 l -5.91889,11 -21.45683,0.26912 -21.45683,0.26911 -0.63713,-4.64838 c -1.66309,-12.13357 -7.30271,-20.17162 -17.90928,-25.5258 -4.17512,-2.1076 -5.66074,-3.33399 -4.92724,-4.06749 2.55301,-2.55301 14.74795,4.25221 19.67349,10.97851 C 245.28198,282.97123 248,289.80603 248,294.17814 V 297 h 18.98996 18.98997 l 4.51003,-8.98002 C 292.97048,283.08097 295,278.87601 295,278.67563 c 0,-0.20039 -14.625,-4.58203 -32.5,-9.73698 -24.53196,-7.07475 -32.49539,-9.74849 -32.48119,-10.90565 0.0113,-0.9249 4.38584,-3.83373 11.02804,-7.33312 6.05508,-3.19006 10.78722,-6.15935 10.51585,-6.59842 -0.27136,-0.43907 -4.61819,-2.52802 -9.65964,-4.64211 -10.60425,-4.44681 -13.3188,-7.41194 -12.55074,-13.70935 0.25155,-2.0625 0.37864,-3.75 0.28242,-3.75 -2.31413,0 -16.81734,5.01405 -21.94104,7.58546 -10.13989,5.08885 -15.3635,8.90119 -23.1937,16.9274 -8.64876,8.86526 -15.41033,20.03947 -19.65813,32.48714 -3.05493,8.95211 -3.24478,10.33626 -3.29189,24 l -0.05,14.5 11.89603,57 c 6.54281,31.35 12.22111,57.3683 12.61845,57.81845 1.13359,1.28428 14.67467,4.49981 23.48552,5.57698 11.04904,1.3508 28.06084,0.50407 40.10109,-1.99596 z M 352.8418,303 c 7.89782,-14.025 16.95038,-30.45 20.11679,-36.5 3.16642,-6.05 6.7194,-12.575 7.89553,-14.5 2.82924,-4.63072 2.70305,-7.57913 -0.44945,-10.50077 -5.26295,-4.87754 -16.39781,-4.23027 -22.43332,1.30405 -5.51015,5.05259 -29.16032,44.72846 -38.79499,65.08305 -5.047,10.66248 -9.17636,19.78734 -9.17636,20.27746 0,0.49277 6.36606,0.76709 14.24106,0.61367 L 338.48212,328.5 Z m 28.67665,-5.13013 c 15.93985,-17.12157 29.36136,-32.21099 29.82556,-33.53204 1.56554,-4.45524 -3.91531,-9.9794 -11.22786,-11.31659 -9.17996,-1.67867 -17.48607,3.34491 -23.02625,13.9264 -1.59889,3.0538 -9.86896,17.92736 -18.37794,33.05236 -8.50898,15.125 -15.27356,27.8375 -15.0324,28.25 0.24116,0.4125 2.33272,0.75 4.64791,0.75 h 4.20944 z m 64.30926,-50.14728 c -4.63004,-3.77431 -5.26543,-4.74467 -5.40208,-8.25 -0.10267,-2.63354 0.55791,-4.97681 1.95975,-6.95185 C 448.56072,223.8204 450,219.98204 450,212.21362 c 0,-10.70782 2.17993,-16.45006 8.82149,-23.23703 6.52978,-6.67275 11.48696,-8.57365 19.65314,-7.53626 13.63374,1.73195 23.88431,11.94824 25.24828,25.16385 0.71412,6.91916 -1.62479,13.24919 -7.08375,19.17146 -4.53818,4.92334 -8.82309,7.36208 -16.04022,9.1292 -7.41449,1.81545 -10.55837,3.73332 -16.83249,10.26837 -4.33809,4.51851 -6.20385,5.82274 -7.66585,5.35872 -1.06276,-0.33731 -2.22171,-0.14498 -2.57546,0.42739 -1.06266,1.71942 -2.20882,1.23747 -7.69743,-3.23673 z m 22.39305,-11.68707 c 2.35358,-1.63046 7.59269,-3.86591 11.64246,-4.96767 8.56648,-2.33053 13.20657,-5.5316 17.24195,-11.89474 8.72582,-13.75918 -2.25061,-32.28783 -20.08545,-33.90504 -13.05042,-1.18337 -22.95016,9.7811 -22.99776,25.4712 -0.014,4.63355 -0.70324,9.03227 -1.91471,12.2206 l -1.89276,4.98132 6.64276,5.47221 c 3.65351,3.00972 6.74209,5.49795 6.86351,5.52941 0.12142,0.0314 2.14642,-1.27683 4.5,-2.90729 z m -9.93386,-4.14298 c -0.95184,-0.95626 -0.14924,-2.57249 3.7265,-7.50428 l 4.93961,-6.28553 -3.06189,-2.18026 c -2.70582,-1.92671 -2.88947,-2.35269 -1.57918,-3.66298 1.31028,-1.31028 2.25394,-0.86468 8.11455,3.83171 4.1111,3.29443 6.4307,5.83857 6.10267,6.6934 -0.29104,0.75844 -0.52916,1.59781 -0.52916,1.86528 0,0.26747 -1.42614,-0.52919 -3.16921,-1.77037 l -3.1692,-2.25667 -2.5808,3.4042 c -5.72274,7.54858 -7.51433,9.15103 -8.79389,7.8655 z M 176.75,216.53872 c -1.5125,-3.54151 -2.75,-6.817 -2.75,-7.27888 0,-0.46188 3.2625,-2.24949 7.25,-3.97247 3.9875,-1.72298 12.425,-5.437 18.75,-8.25338 l 11.5,-5.12068 -15.4879,15.54334 c -8.51835,8.54884 -15.71835,15.53836 -16,15.53226 -0.28166,-0.006 -1.7496,-2.90869 -3.2621,-6.45019 z M 111.65107,190.25 l -6.7225,-9.75 2.78572,-0.70273 c 2.99833,-0.75636 98.41568,-7.00064 98.94142,-6.4749 C 206.94086,173.60752 120.11137,200 118.8881,200 c -0.28299,0 -3.53965,-4.3875 -7.23703,-9.75 z M 436,188.18146 c 0,-1.20855 1.8972,-2.61759 2.5907,-1.9241 0.2517,0.2517 -0.22824,1.02686 -1.06653,1.72258 C 436.57378,188.76869 436,188.84456 436,188.18146 Z m -144.91191,-2.10585 c -1.14218,-0.72303 0.82991,-6.0214 10.32305,-27.73469 6.45423,-14.76251 11.94284,-27.31901 12.19692,-27.90335 0.3955,-0.90957 -18.44899,-9.98645 -19.13186,-9.21531 -0.13527,0.15276 -2.28502,5.00274 -4.77721,10.77774 -14.37176,33.30274 -18.90839,43.57401 -19.52602,44.20836 -0.37933,0.3896 -1.3347,0.30972 -2.12304,-0.1775 -1.35684,-0.83857 4.0915,-14.55539 20.3106,-51.13419 l 2.48452,-5.60333 -7.42252,-3.26196 c -6.77382,-2.97687 -8.85646,-5.02713 -6.55277,-6.45089 0.47836,-0.29564 12.74086,4.67466 27.25,11.04512 14.50913,6.37046 27.38414,11.97139 28.61114,12.44651 1.44436,0.55929 2.02363,1.40399 1.64301,2.39587 -0.82758,2.15663 -2.1836,1.94629 -9.84342,-1.52683 -3.71037,-1.68237 -6.84083,-2.91987 -6.95657,-2.75 -0.11575,0.16986 -5.57973,12.78608 -12.14218,28.03605 -6.56246,15.24996 -12.15674,27.73057 -12.43174,27.73468 -0.275,0.004 -1.13536,-0.39471 -1.91191,-0.88628 z m 139.24774,-2.64283 c -0.83346,-2.17196 1.28244,-4.21451 2.79695,-2.7 C 434.41282,182.01282 433.61983,185 432,185 c -0.58452,0 -1.3334,-0.70525 -1.66417,-1.56722 z M 56.761986,178.07057 c -0.743283,-1.06118 -2.579297,-2.2376 -4.080033,-2.61426 -3.540638,-0.88864 -4.956039,-3.02788 -8.369898,-12.65024 C 40.372918,151.70315 36.242599,146.64798 25.136463,139.33672 19.987196,135.94692 14.28234,131.72751 12.459006,129.96027 5.0645448,122.79327 -0.62502728,107.19059 0.31022523,96.644305 1.8815186,78.925764 19.987497,61.952066 39,60.374044 c 18.451931,-1.531495 32.837727,5.981694 39.784901,20.778237 6.101495,12.995363 6.535695,21.814179 1.789603,36.347719 -4.400174,13.47427 -4.431709,18.3157 -0.199968,30.70051 4.041612,11.82837 4.270546,13.56436 2.157267,16.35836 -0.807508,1.06762 -1.482508,3.1628 -1.5,4.65595 -0.03694,3.15325 -0.743206,3.60601 -12.078249,7.74278 -9.815472,3.58221 -10.423191,3.63769 -12.191568,1.11297 z m 4.066754,-27.99442 c 7.330806,-2.69516 13.472925,-5.05236 13.649151,-5.23822 0.176227,-0.18586 -0.05883,-2.71142 -0.522339,-5.61235 -1.00905,-6.31522 -0.03755,-12.96245 3.599227,-24.62688 2.223883,-7.13277 2.620647,-9.96352 2.236185,-15.954249 C 78.894595,84.677111 70.702988,71.972536 59.17567,66.671655 55.297212,64.888132 52.624475,64.519696 43.5,64.510766 33.26104,64.500745 32.086667,64.707556 26.525723,67.5 c -3.285853,1.65 -8.728952,5.7 -12.095777,9 -10.0082929,9.809648 -12.7342587,20.91804 -8.4842191,34.57344 3.1758174,10.20393 7.9917841,16.1323 19.0036261,23.39317 9.636605,6.35407 17.09973,13.35225 19.233425,18.0352 0.626039,1.374 1.62852,2.49289 2.227737,2.48641 0.599217,-0.006 7.087418,-2.21691 14.418225,-4.91207 z m -13.788203,-13.6429 c -4.017495,-11.31247 -4.661696,-12.49493 -6.5,-11.93108 -3.706833,1.13696 -4.960192,1.01562 -5.279122,-0.51111 -0.231618,-1.10875 3.144335,-2.77898 12.729657,-6.29791 7.174679,-2.63393 13.486783,-4.51585 14.026899,-4.18204 1.815362,1.12195 1.003796,2.58534 -2.017971,3.63873 -1.65,0.5752 -3,1.14902 -3,1.27516 0,0.12614 2.028325,5.74471 4.50739,12.48571 2.479064,6.741 4.252506,12.66877 3.940983,13.17282 -1.582177,2.56002 -3.341572,-0.2005 -7.385792,-11.58842 C 55.622,125.6228 53.32665,120 52.961804,120 52.100688,120 46,122.12505 46,122.425 c 0,0.12614 2.028325,5.74471 4.50739,12.48571 2.479064,6.741 4.252506,12.66877 3.940983,13.17282 -1.583363,2.56194 -3.343754,-0.20662 -7.407836,-11.65028 z m 377.079813,42.21176 c -0.87143,-1.05001 -0.81537,-1.65323 0.23464,-2.52466 1.05001,-0.87143 1.65323,-0.81537 2.52466,0.23464 0.87143,1.05001 0.81537,1.65323 -0.23464,2.52466 -1.05001,0.87143 -1.65323,0.81537 -2.52466,-0.23464 z m -60.45368,-3.31168 C 362.71097,174.37764 362.84461,173 363.89301,173 c 0.49116,0 1.15203,0.675 1.46862,1.5 0.58492,1.52428 -0.4803,2.04799 -1.69496,0.83333 z m 53.54946,-0.17859 c -1.22696,-0.77853 -0.70168,-4.1714 0.64086,-4.13943 1.75487,0.0418 3.14016,1.82854 2.56989,3.31464 -0.71431,1.86147 -1.32834,2.01921 -3.21075,0.82479 z m -47.8997,-2.77252 c -0.62635,-1.63225 1.46814,-3.6334 2.88582,-2.75722 1.34146,0.82906 0.88821,3.12631 -0.7401,3.75115 -0.89873,0.34487 -1.79049,-0.0682 -2.14572,-0.99393 z m 40.74011,-0.34728 c -1.82096,-1.12541 -0.56716,-4.16811 1.40561,-3.41109 1.62831,0.62484 2.08156,2.92209 0.7401,3.75115 -0.43876,0.27117 -1.40433,0.11814 -2.14571,-0.34006 z M 377,170.01337 c 0,-0.98967 0.675,-2.05841 1.5,-2.375 0.825,-0.31658 1.5,-0.40153 1.5,-0.18877 0,0.21275 0.25045,1.03949 0.55656,1.83719 0.34774,0.9062 -0.21505,1.65215 -1.5,1.98817 -1.51272,0.39558 -2.05656,0.062 -2.05656,-1.26159 z m 25.25,0.26835 C 400.23265,169.55808 400.81727,167 403,167 c 1.1,0 2,0.64844 2,1.44098 0,1.73923 -1.05826,2.44758 -2.75,1.84074 z M 385,167.92668 c 0,-2.56265 3.30983,-2.27193 3.81184,0.3348 0.2311,1.2 -0.30742,1.73852 -1.73852,1.73852 C 385.64223,170 385,169.35777 385,167.92668 Z M 393,168 c 0,-1.33333 0.66667,-2 2,-2 1.33333,0 2,0.66667 2,2 0,1.33333 -0.66667,2 -2,2 -1.33333,0 -2,-0.66667 -2,-2 z M 173.64851,150.44019 c -15.31832,-1.82041 -28.06328,-3.52162 -28.32212,-3.78047 C 144.72467,146.058 150.88804,126 151.67466,126 c 0.61372,0 43.57994,23.05131 48.82534,26.19472 1.65,0.98879 2.55,1.74324 2,1.67656 -0.55,-0.0667 -13.53317,-1.61068 -28.85149,-3.43109 z M 410.5,152.47214 c 2.84524,-1.05263 86.8205,-23.46768 87.82289,-23.44207 0.64741,0.0165 3.96661,4.40403 7.37599,9.75 5.28502,8.28698 5.94843,9.81814 4.5,10.38612 -0.93438,0.3664 -22.84888,1.38854 -48.69888,2.27142 -47.05458,1.60711 -52.86633,1.725 -51,1.03453 z M 215,149 c 0,-0.55 0.92656,-1 2.05902,-1 1.13246,0 1.7809,0.45 1.44098,1 -0.33992,0.55 -1.26648,1 -2.05902,1 C 215.64844,150 215,149.55 215,149 Z m -2.67064,-5.58408 c -0.71657,-1.86736 1.06102,-3.91072 2.58351,-2.96977 1.58774,0.98128 1.32783,3.24751 -0.45072,3.93 -0.89117,0.34197 -1.78803,-0.0618 -2.13279,-0.96023 z m -3.88321,-7.50305 c -0.36954,-0.59793 -0.19017,-1.56885 0.3986,-2.15762 1.2479,-1.2479 4.49423,0.88726 3.58522,2.35806 -0.76113,1.23154 -3.17383,1.11015 -3.98382,-0.20044 z M 422,119.02833 c 8.525,-8.2304 15.76641,-14.97875 16.09201,-14.99635 0.70532,-0.0381 6.28983,13.92674 5.76842,14.42472 -0.19824,0.18933 -6.43543,2.8304 -13.86043,5.86904 -7.425,3.03864 -15.75,6.45678 -18.5,7.59588 -4.84135,2.00536 -4.50819,1.59626 10.5,-12.89329 z M 204.42322,129.66051 C 203.7759,127.97363 204.60019,126 205.95203,126 c 1.57491,0 1.92847,2.85429 0.50036,4.03951 -1.12678,0.93515 -1.55562,0.85505 -2.02917,-0.379 z m -4.97707,-6.74764 c -1.03052,-1.66742 1.28721,-3.57951 2.66672,-2.2 C 203.26679,121.86679 202.54459,124 201,124 c -0.48508,0 -1.18431,-0.48921 -1.55385,-1.08713 z m -5.47109,-5.44292 c -1.93795,-2.33509 0.43603,-4.48743 2.58227,-2.34119 1.3262,1.3262 1.34384,1.70837 0.12554,2.71947 -1.10642,0.91824 -1.70069,0.83522 -2.70781,-0.37828 z m -6.52891,-5.55708 c -0.9709,-1.57095 0.92864,-3.09002 2.91216,-2.32887 1.31476,0.50452 1.4364,0.95843 0.54477,2.03278 -1.38083,1.6638 -2.54976,1.76392 -3.45693,0.29609 z m -6.78693,-4.65525 c -0.28999,-0.46921 -0.18347,-1.40937 0.23671,-2.08924 0.91956,-1.48786 4.34918,-0.40431 3.81347,1.20483 -0.46819,1.4063 -3.34006,2.03342 -4.05018,0.88441 z m -7,-4 c -0.28999,-0.46921 -0.15236,-1.4597 0.30584,-2.20108 1.01419,-1.641006 4.37608,-0.58055 3.78523,1.19399 -0.50041,1.50292 -3.35095,2.20464 -4.09107,1.00709 z m -6.44309,-3.10288 c -0.70613,-0.448053 -0.99865,-1.557921 -0.65004,-2.466376 0.48605,-1.26663 1.06815,-1.419298 2.49663,-0.654796 1.07761,0.57672 1.62265,1.622776 1.29305,2.481686 -0.64404,1.678346 -1.29382,1.810686 -3.13964,0.639486 z M 97.606989,96.418213 C 96.801444,94.318997 96.837903,94 97.883369,94 c 0.485852,0 1.118724,0.9 1.40638,2 0.617564,2.361569 -0.801673,2.714289 -1.68276,0.418213 z M 159.6875,97.354167 C 158.27198,95.938651 159.07297,94 161.07332,94 c 1.39797,0 1.96801,0.54305 1.75,1.667134 -0.35694,1.840479 -2.064,2.758855 -3.13582,1.687033 z M 103.66667,95.333333 C 102.2901,93.956769 103.07281,92 105,92 c 1.33333,0 2,0.666667 2,2 0,1.92719 -1.95677,2.709897 -3.33333,1.333333 z M 152.25,95.281721 C 150.23265,94.558078 150.81727,92 153,92 c 1.1,0 2,0.648442 2,1.440983 0,1.739223 -1.05826,2.447581 -2.75,1.840738 z M 111.18816,92.261484 C 111.69017,89.654747 115,89.364033 115,91.926676 115,93.357775 114.35777,94 112.92668,94 c -1.4311,0 -1.96962,-0.538516 -1.73852,-1.738516 z M 143,92 c 0,-1.333333 0.66667,-2 2,-2 1.33333,0 2,0.666667 2,2 0,1.333333 -0.66667,2 -2,2 -1.33333,0 -2,-0.666667 -2,-2 z m -24,-1 c 0,-1.333333 0.66667,-2 2,-2 1.33333,0 2,0.666667 2,2 0,1.333333 -0.66667,2 -2,2 -1.33333,0 -2,-0.666667 -2,-2 z m 8,0 c 0,-1.333333 0.66667,-2 2,-2 1.33333,0 2,0.666667 2,2 0,1.333333 -0.66667,2 -2,2 -1.33333,0 -2,-0.666667 -2,-2 z m 8,0 c 0,-1.333333 0.66667,-2 2,-2 1.33333,0 2,0.666667 2,2 0,1.333333 -0.66667,2 -2,2 -1.33333,0 -2,-0.666667 -2,-2 z"
         id="path5" />
    </g>
  </g>
</svg>
