<?xml version="1.0" encoding="UTF-8" standalone="no"?>
<!-- Created with Inkscape (http://www.inkscape.org/) -->

<svg
   version="1.1"
   id="svg1"
   width="575"
   height="450"
   viewBox="0 0 575 450"
   sodipodi:docname="BUSINESS_35.svg"
   inkscape:version="1.3.2 (091e20e, 2023-11-25, custom)"
   xmlns:inkscape="http://www.inkscape.org/namespaces/inkscape"
   xmlns:sodipodi="http://sodipodi.sourceforge.net/DTD/sodipodi-0.dtd"
   xmlns="http://www.w3.org/2000/svg"
   xmlns:svg="http://www.w3.org/2000/svg">
  <defs
     id="defs1" />
  <sodipodi:namedview
     id="namedview1"
     pagecolor="#ffffff"
     bordercolor="#000000"
     borderopacity="0.25"
     inkscape:showpageshadow="2"
     inkscape:pageopacity="0.0"
     inkscape:pagecheckerboard="0"
     inkscape:deskcolor="#d1d1d1"
     showgrid="false"
     inkscape:zoom="1.3965217"
     inkscape:cx="287.5"
     inkscape:cy="225.20237"
     inkscape:window-width="1920"
     inkscape:window-height="1001"
     inkscape:window-x="-9"
     inkscape:window-y="-9"
     inkscape:window-maximized="1"
     inkscape:current-layer="g1" />
  <g
     inkscape:groupmode="layer"
     inkscape:label="Image"
     id="g1">
    <g
       id="g2">
      <path
         style="fill:#fefefe"
         d="M 0,225 V 0 H 287.5 575 V 225 450 H 287.5 0 Z"
         id="path8" />
      <path
         style="fill:#fdcd4a"
         d="M 98,448.98333 C 29.674612,441.99826 9.5089211,418.75766 59.5,404.61275 c 7.756093,-2.19457 13.025455,-3.20705 32.189574,-6.18506 2.803086,-0.43559 8.197497,-6.58043 44.518556,-50.71167 22.73095,-27.61881 45.68373,-55.89368 51.0062,-62.83304 11.5963,-15.1191 19.40567,-22.42579 29.64688,-27.73854 9.66986,-5.01636 15.34834,-6.63306 32.13879,-9.15017 7.425,-1.1131 14.69359,-2.26828 16.15243,-2.56707 2.42113,-0.49588 2.84675,-1.34482 4.88081,-9.73522 1.22561,-5.05559 2.51356,-9.51352 2.86211,-9.90652 0.34854,-0.39299 3.32347,-0.0893 6.61094,0.67492 3.28747,0.7642 6.12786,1.2388 6.31199,1.05467 0.37891,-0.3789 4.13818,-14.60967 4.16458,-15.76505 0.009,-0.4125 -0.78306,-0.75 -1.76107,-0.75 -0.97802,0 -5.1148,-1.59901 -9.19284,-3.55337 -11.14514,-5.34116 -20.39855,-15.17017 -26.94505,-28.62113 -5.38349,-11.06135 -8.71542,-22.89224 -9.74245,-34.59315 l -0.63791,-7.26765 -8.10177,-6.88604 C 223.61394,121.58959 204.51139,102.05679 196.36185,92 181.40998,73.548894 170.7064,54.328673 166.87605,39.052906 c -3.70164,-14.762444 -1.46561,-23.741155 8.04098,-32.2884017 8.15013,-7.32766643 17.04079,-8.4975653 33.20475,-4.3693242 11.65899,2.9776843 24.64373,8.5908179 36.37822,15.7258369 4.95,3.009788 10.11368,6.126336 11.47485,6.925663 1.36116,0.799326 5.67195,3.762301 9.57951,6.584389 l 7.10467,5.131069 6.21506,-6.856923 C 298.54315,8.2048379 321.76455,-0.72030743 344.01084,4.8699137 364.70193,10.069332 378.20099,21.302161 388.03109,41.5 c 18.3062,37.613644 12.73971,89.82161 -13.86079,130 -5.81553,8.78399 -18.80149,22.41999 -26.6703,28.00534 C 334.48405,208.74417 319.78464,214 306.96161,214 h -6.71846 l -1.66508,6.75 c -0.91579,3.7125 -1.88063,7.47386 -2.14408,8.35858 -0.37944,1.27424 0.82474,1.87677 5.79351,2.89887 9.83954,2.02405 9.84719,2.03174 8.19692,8.23093 -0.77037,2.89389 -1.40602,5.71239 -1.41255,6.26334 -0.007,0.55094 2.03642,2.08833 4.53988,3.41641 2.50347,1.32809 6.70879,4.77485 9.34517,7.65947 7.77669,8.50893 8.84112,16.31309 3.60384,26.4224 -1.28221,2.475 -2.56958,6.83172 -2.86081,9.68161 -0.63076,6.1723 -3.44339,12.11958 -8.74811,18.4978 -2.5344,3.04726 -3.89184,5.68192 -3.89184,7.55365 0,4.56578 -4.73858,12.9529 -9.04882,16.01607 -2.23712,1.58987 -4.12714,3.88796 -4.47818,5.44508 -0.88666,3.93291 -6.6098,10.92802 -11.2954,13.80579 -3.8942,2.39172 -4.16764,2.89925 -6.31319,11.71811 -2.06507,8.48804 -2.47713,9.29983 -5.20277,10.25 -4.17741,1.45625 -13.70454,1.28101 -18.28591,-0.33636 -2.13165,-0.75253 -7.43252,-3.47152 -11.7797,-6.04218 -7.40908,-4.38128 -8.28877,-4.65564 -14.04951,-4.38175 l -6.14553,0.29218 -16.11747,17.95703 -16.11747,17.95703 8.16697,2.35732 C 218.66484,410.06267 228,416.52213 228,423.91554 c 0,6.0017 -13.8051,14.53876 -30.72498,19.0003 -17.52381,4.6208 -33.01039,6.24992 -62.77502,6.60368 -15.4,0.18303 -31.825,-0.0583 -36.5,-0.53619 z m 49.63904,-9.28001 6.13903,-1.20332 27.7684,-31 c 15.27262,-17.05 30.73623,-34.30416 34.36358,-38.34258 l 6.59517,-7.34258 14.99739,-0.3014 c 24.2221,-0.48678 40.937,-5.07528 49.87657,-13.69188 2.73777,-2.63887 4.78496,-4.98315 4.5493,-5.20951 -0.23567,-0.22637 -3.88488,0.7284 -8.10938,2.12169 -7.74888,2.55569 -10.8191,2.52591 -10.8191,-0.10495 0,-0.91032 2.63473,-2.23426 7.21476,-3.6254 10.00382,-3.03857 17.88858,-7.21812 21.60744,-11.45366 2.95805,-3.36904 4.99538,-8.06548 3.95161,-9.10925 -0.25651,-0.25651 -3.01886,0.66244 -6.13855,2.04212 -8.52631,3.77074 -22.48378,7.06888 -23.90413,5.64853 -1.89908,-1.89908 1.02188,-3.61524 10.21829,-6.0036 4.64718,-1.2069 11.05262,-3.36261 14.23431,-4.79047 9.16512,-4.11306 16.8898,-13.58176 19.20229,-23.53763 l 0.62727,-2.70057 -6.2605,2.92964 c -7.45928,3.49062 -21.05439,7.67731 -27.86262,8.58046 C 281.4306,303.20054 281,303.07905 281,301.22921 c 0,-1.71603 1.19362,-2.29237 7.75,-3.74204 9.58686,-2.11974 22.04717,-6.59222 27.86553,-10.002 10.32221,-6.04922 11.15399,-19.84742 1.72605,-28.63321 -2.94671,-2.74602 -9.28116,-6.84169 -10.59158,-6.84822 -1.26059,-0.006 -0.83621,2.05291 0.75,3.63912 1.91642,1.91642 1.93553,8.61423 0.0351,12.28934 -3.38274,6.54151 -16.43421,11.8179 -34.76302,14.05384 C 260.0918,283.6549 246,280.50056 246,275.76948 c 0,-2.24109 1.22464,-2.14623 8.87762,0.68761 2.40769,0.89155 4.57861,1.42002 4.82425,1.17437 0.80069,-0.80068 7.01606,-27.63176 6.39842,-27.62122 -0.33016,0.006 -7.57529,1.11147 -16.10029,2.45742 -30.8278,4.86716 -40.38444,10.54012 -59.20546,35.14524 -5.84241,7.6379 -34.73338,43.1371 -64.20216,78.8871 l -53.579581,65 4.023467,1.80086 c 5.002548,2.23909 18.959104,5.32861 29.496344,6.52952 11.65838,1.32868 34.03244,1.25952 41.10643,-0.12706 z M 305.9144,262 c -0.0362,-0.98906 -0.34772,-0.81874 -0.9144,0.5 -1.18132,2.74909 -1.18132,4.32797 0,2.5 0.53316,-0.825 0.94464,-2.175 0.9144,-3 z m 10.38927,-62.98757 c 28.65307,-10.84323 53.56577,-47.88866 60.86875,-90.51243 2.6418,-15.418787 2.15021,-37.344282 -1.13225,-50.5 -4.70592,-18.860799 -15.0808,-33.940887 -27.58642,-40.097383 -6.13405,-3.019785 -6.73497,-3.117489 -16.65868,-2.708551 -11.26889,0.464371 -17.7628,2.511937 -28.38599,8.950264 -6.05369,3.668919 -18.821,14.888322 -20.48891,18.004829 -0.90925,1.698962 -0.0803,2.835505 6.26597,8.590689 24.5912,22.300895 44.09479,47.024805 54.82616,69.500892 7.36192,15.419 9.49476,26.94961 6.66085,36.00994 -1.63522,5.22796 -8.3457,13.4137 -13.49798,16.46544 -14.00641,8.29611 -43.68831,-0.0811 -75.33149,-21.26113 l -8.00286,-5.35662 0.70642,4.20082 c 3.88275,23.08931 18.81558,43.81316 36.29694,50.3731 5.19458,1.94928 18.15526,1.1043 25.45949,-1.65986 z m 29.14099,79.70395 c -0.27091,-0.70599 -0.36929,-9.36849 -0.21862,-19.25 L 345.5,241.5 h 9 9 v 18.9863 c 0,17.28715 -0.15661,19.01647 -1.75,19.32333 -1.61149,0.31034 -1.75,-1.01428 -1.75,-16.73631 V 246 h -5 -5 v 15.41821 c 0,8.48002 -0.27314,16.13002 -0.60699,17 -0.72972,1.90162 -3.25973,2.09268 -3.94835,0.29817 z m 35.04114,0.10722 c -0.27948,-0.72832 -0.39062,-20.22407 -0.24697,-43.32391 L 380.5,193.5 l 9.26065,-0.28767 9.26065,-0.28766 -0.26065,43.28766 C 398.53367,273.90775 398.30622,279.5 397,279.5 c -1.30081,0 -1.5664,-5.44444 -2,-41 l -0.5,-41 -4.5,-0.0766 -4.5,-0.0766 -0.5,41.06325 c -0.46405,38.1108 -0.62604,41.0875 -2.25302,41.40049 -0.96417,0.18548 -1.98169,-0.25865 -2.26118,-0.98697 z m 35.21544,0.5443 C 415.31556,278.98222 415,253.40667 415,222.53333 c 0,-42.32592 0.29517,-56.4285 1.2,-57.33333 1.60327,-1.60327 15.99673,-1.60327 17.6,0 1.4475,1.4475 1.72377,111.42445 0.28561,113.69572 -0.48607,0.76764 -1.60418,1.11926 -2.48469,0.78138 C 430.15986,279.12411 430,273.56758 430,224.03138 V 169 h -4.99153 -4.99154 l -0.25846,55.23642 c -0.22902,48.94347 -0.43492,55.27038 -1.80723,55.53457 -0.85182,0.16398 -1.86432,-0.0174 -2.25,-0.40309 z m 34.92459,-0.9006 C 449.3943,275.25799 449.91915,227.48085 451.2,226.2 c 1.60327,-1.60327 15.99673,-1.60327 17.6,0 1.4395,1.4395 1.70516,50.45384 0.28561,52.69572 -0.48607,0.76764 -1.60418,1.11926 -2.48469,0.78138 C 465.19323,279.13692 465,276.1019 465,254.53138 V 230 h -4.98253 -4.98253 l -0.26747,24.73679 c -0.23681,21.90111 -0.45366,24.77259 -1.89164,25.04909 -0.8933,0.17177 -1.9058,-0.42159 -2.25,-1.31858 z m 36.06167,0.88687 C 486.30937,278.97604 486,255.54978 486,227.29581 v -51.37086 l 9.25,0.28752 9.25,0.28753 V 228 c 0,50.83333 -0.0259,51.5 -2,51.5 -1.96972,0 -2.00393,-0.75311 -2.25934,-49.75 L 499.98133,180 H 495 490.01867 l -0.25933,49.66681 c -0.24894,47.6751 -0.53046,52.22874 -3.07184,49.68736 z m 35,0 C 521.30938,278.97604 521,264.32478 521,246.79581 v -31.87086 l 9.25,0.28752 9.25,0.28753 0.26408,31.77598 c 0.23671,28.48182 0.0967,31.84023 -1.35092,32.39572 -0.89493,0.34341 -2.00905,-0.003 -2.49877,-0.77598 -0.48607,-0.76765 -0.89066,-14.55822 -0.89908,-30.64572 L 535,219 h -4.98534 -4.98533 l -0.26467,30.16703 c -0.25175,28.69582 -0.65108,32.61322 -3.07716,30.18714 z m 34.75716,-0.63779 c -0.27091,-0.70599 -0.36929,-9.36849 -0.21862,-19.25 L 556.5,241.5 h 9 9 v 18.9863 c 0,17.28715 -0.15661,19.01647 -1.75,19.32333 -1.61149,0.31034 -1.75,-1.01428 -1.75,-16.73631 V 246 h -5 -5 v 15.41821 c 0,8.48002 -0.27314,16.13002 -0.60699,17 -0.72972,1.90162 -3.25973,2.09268 -3.94835,0.29817 z M 133.53573,237.93391 C 98.900178,232.61737 73.961325,203.77228 74.014781,169.09004 74.033067,157.22637 75.936342,148.8584 80.972417,138.5 89.983703,119.96522 107.705,105.8718 127.55173,101.45632 c 11.95677,-2.660129 28.45877,-1.677312 39.22142,2.33593 46.68195,17.40704 60.95636,74.64646 27.88082,111.8002 -14.8942,16.73065 -39.37414,25.67917 -61.11824,22.34146 z m 18.30918,-4.81689 c 1.11075,-0.70397 0.98017,-2.64067 -0.75,-11.12393 C 149.94271,216.34372 149,211.59831 149,211.44772 c 0,-0.15058 -2.97887,-0.29665 -6.61971,-0.3246 -8.19954,-0.0629 -15.38936,-2.09538 -21.78294,-6.15768 l -4.90265,-3.11501 -7.8745,7.82479 -7.874498,7.82478 3.277148,2.76249 c 5.03597,4.2451 18.54356,10.62888 25.77715,12.18248 7.31448,1.57096 20.80055,1.96769 22.84491,0.67205 z M 171.5,227.44289 c 17.6722,-8.49665 30.53349,-24.68855 35.11851,-44.21291 1.11912,-4.76557 1.45079,-9.79481 1.13628,-17.22998 -0.72059,-17.03521 -6.45382,-30.35768 -18.25479,-42.41919 -7.30843,-7.46978 -15.42065,-12.52804 -26.0096,-16.21792 -7.07734,-2.4662 -9.438,-2.78867 -20.65869,-2.822 -6.96756,-0.0207 -12.94455,0.23862 -13.2822,0.57626 -0.33765,0.33765 0.62752,5.35216 2.14481,11.14335 l 2.75872,10.52943 10.08138,0.37319 c 8.97919,0.33238 10.81625,0.73496 16.80311,3.68228 12.60161,6.20375 21.31187,17.91973 23.79256,32.00284 3.1038,17.62059 -7.74268,37.40815 -24.5089,44.7123 -4.36806,1.90294 -6.62119,3.45297 -6.62119,4.55502 0,1.7286 2.78389,16.36564 3.55932,18.71408 0.62032,1.87869 5.40848,0.71546 13.94068,-3.38675 z m -61.13093,-31.65777 c -6.56747,-7.33668 -9.78461,-17.64644 -9.16864,-29.3822 0.36866,-7.02401 0.9945,-9.41274 4.12625,-15.74942 4.19167,-8.48125 11.6097,-16.02228 19.38714,-19.70858 2.6324,-1.24769 4.95112,-2.39815 5.15271,-2.55658 C 130.61471,127.80033 124.5229,107 123.6025,107 c -0.52604,0 -4.75579,1.83899 -9.39944,4.08665 -6.51441,3.15315 -10.20761,5.83714 -16.168118,11.75 C 84.6151,136.14919 78.604606,150.42915 78.604606,169 c 0,15.59369 4.300354,28.37469 13.435564,39.9316 l 4.199857,5.31322 8.087293,-8.08729 8.08729,-8.08729 z m 48.32633,7.76472 c 7.65157,-3.48895 15.42568,-11.24749 18.9833,-18.94526 2.47007,-5.34461 2.8213,-7.28986 2.8213,-15.62561 0,-8.73519 -0.27023,-10.06995 -3.27411,-16.17169 -6.75097,-13.71316 -18.67574,-21.10016 -34.27775,-21.23395 -7.95065,-0.0682 -9.08927,0.19227 -16.19599,3.7046 -11.52651,5.69671 -18.24838,14.59011 -20.7893,27.5054 -2.71084,13.77892 3.7758,29.12465 15.8112,37.40522 10.6831,7.35017 25.26251,8.67746 36.92135,3.36129 z M 0,82.5 C 0,80.5 0.5,80 2.5,80 H 5 V 66.5 53 H 18.5 32 V 66.5 80 H 36.5 41 V 48 16 H 54.5 68 v 32 32 h 5 5 V 56.470975 32.94195 L 91.25,33.220975 104.5,33.5 104.76843,56.75 105.03686,80 H 109.51843 114 V 40.5 1 H 127.5 141 V 40.5 80 h 5 c 4.66667,0 5,0.166667 5,2.5 V 85 H 75.5 0 Z m 27,-14 V 57 H 18.5 10 V 68.5 80 H 18.5 27 Z M 63,50 V 20 H 54.5 46 v 30 30 h 8.5 8.5 z m 37,9 V 38 h -9 -9 v 21 21 h 9 9 z M 136,42.5 V 5 H 127.5 119 V 42.5 80 h 8.5 8.5 z"
         id="path7" />
      <path
         style="fill:#a3a2a2"
         d="M 98,448.98333 C 29.674612,441.99826 9.5089211,418.75766 59.5,404.61275 c 7.756093,-2.19457 13.025455,-3.20705 32.189574,-6.18506 2.803086,-0.43559 8.197497,-6.58043 44.518556,-50.71167 22.73095,-27.61881 45.68373,-55.89368 51.0062,-62.83304 11.5963,-15.1191 19.40567,-22.42579 29.64688,-27.73854 9.66986,-5.01636 15.34834,-6.63306 32.13879,-9.15017 7.425,-1.1131 14.69359,-2.26828 16.15243,-2.56707 2.42113,-0.49588 2.84675,-1.34482 4.88081,-9.73522 1.22561,-5.05559 2.51356,-9.51352 2.86211,-9.90652 0.34854,-0.39299 3.32347,-0.0893 6.61094,0.67492 3.28747,0.7642 6.12786,1.2388 6.31199,1.05467 0.37891,-0.3789 4.13818,-14.60967 4.16458,-15.76505 0.009,-0.4125 -0.78306,-0.75 -1.76107,-0.75 -0.97802,0 -5.1148,-1.59901 -9.19284,-3.55337 -5.50643,-2.63888 -9.28112,-5.45037 -14.66717,-10.9245 -11.91258,-12.10739 -20.12227,-31.69451 -22.16491,-52.8822 L 241.5,136.41151 233,129.03929 c -32.43333,-28.13006 -59.20701,-64.421679 -65.42523,-88.683635 -3.04228,-11.87021 -1.3783,-24.970716 3.70604,-29.177714 1.44275,-1.1937909 1.49473,-0.951237 0.53578,2.5 -2.6211,9.433207 1.29581,27.090128 9.32755,42.047404 4.4554,8.297171 17.48075,26.28456 27.34768,37.765858 7.40489,8.616437 24.57568,26.041627 26.21059,26.598927 0.66133,0.22543 3.36133,2.45658 6,4.95811 5.26628,4.99258 13.28111,11.19857 23.29759,18.03967 31.36859,21.42422 59.26433,30.65522 75.874,25.10751 l 3.37399,-1.12693 -1.87399,2.11093 c -11.01843,12.41155 -42.99828,5.52356 -76.874,-16.55752 -5.5,-3.58504 -10.14582,-6.10411 -10.32405,-5.59793 -0.74029,2.10248 4.20533,18.05952 7.96806,25.70894 5.17717,10.52488 14.37815,20.64627 23.03618,25.34056 5.97761,3.24099 6.83421,3.42275 15.81981,3.35668 11.33654,-0.0833 17.32881,-2.08677 28.41036,-9.49857 23.24066,-15.5443 41.63618,-47.6779 47.76206,-83.43158 2.6418,-15.418787 2.15021,-37.344282 -1.13225,-50.5 -4.70592,-18.860799 -15.0808,-33.940887 -27.58642,-40.097383 -6.13405,-3.019785 -6.73497,-3.117489 -16.65868,-2.708551 -11.26889,0.464371 -17.7628,2.511937 -28.38599,8.950264 -6.05369,3.668919 -18.821,14.888322 -20.48891,18.004829 -0.90925,1.698962 -0.0803,2.835505 6.26597,8.590689 24.55852,22.27126 43.98348,46.883329 54.83042,69.471952 4.52293,9.41897 8.96462,24.14035 7.67319,25.43179 -0.29433,0.29432 -14.63243,-9.00612 -31.86245,-20.66767 C 302.59729,113.31438 282.425,99.714254 275,94.753424 L 261.5,85.733734 253,72.699239 C 248.325,65.530267 244.03454,59.177676 243.46565,58.582372 242.89676,57.987067 240.11236,53.9 237.27811,49.5 234.44385,45.1 231.72775,41.043142 231.24233,40.484761 229.0305,37.940479 216,17.96336 216,17.116669 c 0,-0.522501 -0.36871,-1.100002 -0.81936,-1.283336 -1.29404,-0.526443 -9.41794,-12.9293686 -8.84439,-13.502917 1.7917,-1.79170377 25.1256,7.862908 38.16375,15.790601 4.95,3.009788 10.11368,6.126336 11.47485,6.925663 1.36116,0.799326 5.67195,3.762301 9.57951,6.584389 l 7.10467,5.131069 6.21506,-6.856923 C 298.54315,8.2048379 321.76455,-0.72030743 344.01084,4.8699137 364.70193,10.069332 378.20099,21.302161 388.03109,41.5 c 18.3062,37.613644 12.73971,89.82161 -13.86079,130 -5.81553,8.78399 -18.80149,22.41999 -26.6703,28.00534 C 334.48405,208.74417 319.78464,214 306.96161,214 h -6.71846 l -1.66508,6.75 c -0.91579,3.7125 -1.88063,7.47386 -2.14408,8.35858 -0.37944,1.27424 0.82474,1.87677 5.79351,2.89887 9.83954,2.02405 9.84719,2.03174 8.19692,8.23093 -0.77037,2.89389 -1.40602,5.71239 -1.41255,6.26334 -0.007,0.55094 2.03642,2.08833 4.53988,3.41641 2.50347,1.32809 6.70879,4.77485 9.34517,7.65947 7.77669,8.50893 8.84112,16.31309 3.60384,26.4224 -1.28221,2.475 -2.56958,6.83172 -2.86081,9.68161 -0.63076,6.1723 -3.44339,12.11958 -8.74811,18.4978 -2.5344,3.04726 -3.89184,5.68192 -3.89184,7.55365 0,4.56578 -4.73858,12.9529 -9.04882,16.01607 -2.23712,1.58987 -4.12714,3.88796 -4.47818,5.44508 -0.88666,3.93291 -6.6098,10.92802 -11.2954,13.80579 -3.8942,2.39172 -4.16764,2.89925 -6.31319,11.71811 -2.06507,8.48804 -2.47713,9.29983 -5.20277,10.25 -4.17741,1.45625 -13.70454,1.28101 -18.28591,-0.33636 -2.13165,-0.75253 -7.43252,-3.47152 -11.7797,-6.04218 -7.40908,-4.38128 -8.28877,-4.65564 -14.04951,-4.38175 l -6.14553,0.29218 -16.11747,17.95703 -16.11747,17.95703 8.16697,2.35732 C 218.66484,410.06267 228,416.52213 228,423.91554 c 0,6.0017 -13.8051,14.53876 -30.72498,19.0003 -17.52381,4.6208 -33.01039,6.24992 -62.77502,6.60368 -15.4,0.18303 -31.825,-0.0583 -36.5,-0.53619 z m 49.63904,-9.28001 6.13903,-1.20332 27.7684,-31 c 15.27262,-17.05 30.73623,-34.30416 34.36358,-38.34258 l 6.59517,-7.34258 14.99739,-0.3014 c 24.2221,-0.48678 40.937,-5.07528 49.87657,-13.69188 2.73777,-2.63887 4.78496,-4.98315 4.5493,-5.20951 -0.23567,-0.22637 -3.88488,0.7284 -8.10938,2.12169 -7.74888,2.55569 -10.8191,2.52591 -10.8191,-0.10495 0,-0.91032 2.63473,-2.23426 7.21476,-3.6254 10.00382,-3.03857 17.88858,-7.21812 21.60744,-11.45366 2.95805,-3.36904 4.99538,-8.06548 3.95161,-9.10925 -0.25651,-0.25651 -3.01886,0.66244 -6.13855,2.04212 -8.52631,3.77074 -22.48378,7.06888 -23.90413,5.64853 -1.89908,-1.89908 1.02188,-3.61524 10.21829,-6.0036 4.64718,-1.2069 11.05262,-3.36261 14.23431,-4.79047 9.16512,-4.11306 16.8898,-13.58176 19.20229,-23.53763 l 0.62727,-2.70057 -6.2605,2.92964 c -7.45928,3.49062 -21.05439,7.67731 -27.86262,8.58046 C 281.4306,303.20054 281,303.07905 281,301.22921 c 0,-1.71603 1.19362,-2.29237 7.75,-3.74204 9.58686,-2.11974 22.04717,-6.59222 27.86553,-10.002 10.32221,-6.04922 11.15399,-19.84742 1.72605,-28.63321 -2.94671,-2.74602 -9.28116,-6.84169 -10.59158,-6.84822 -1.26059,-0.006 -0.83621,2.05291 0.75,3.63912 1.91642,1.91642 1.93553,8.61423 0.0351,12.28934 -3.38274,6.54151 -16.43421,11.8179 -34.76302,14.05384 C 260.0918,283.6549 246,280.50056 246,275.76948 c 0,-2.24109 1.22464,-2.14623 8.87762,0.68761 2.40769,0.89155 4.57861,1.42002 4.82425,1.17437 0.80069,-0.80068 7.01606,-27.63176 6.39842,-27.62122 -0.33016,0.006 -7.57529,1.11147 -16.10029,2.45742 -30.8278,4.86716 -40.38444,10.54012 -59.20546,35.14524 -5.84241,7.6379 -34.73338,43.1371 -64.20216,78.8871 l -53.579581,65 4.023467,1.80086 c 5.002548,2.23909 18.959104,5.32861 29.496344,6.52952 11.65838,1.32868 34.03244,1.25952 41.10643,-0.12706 z M 305.9144,262 c -0.0362,-0.98906 -0.34772,-0.81874 -0.9144,0.5 -1.18132,2.74909 -1.18132,4.32797 0,2.5 0.53316,-0.825 0.94464,-2.175 0.9144,-3 z m 39.53026,16.71638 c -0.27091,-0.70599 -0.36929,-9.36849 -0.21862,-19.25 L 345.5,241.5 h 9 9 v 18.9863 c 0,17.28715 -0.15661,19.01647 -1.75,19.32333 -1.61149,0.31034 -1.75,-1.01428 -1.75,-16.73631 V 246 h -5 -5 v 15.41821 c 0,8.48002 -0.27314,16.13002 -0.60699,17 -0.72972,1.90162 -3.25973,2.09268 -3.94835,0.29817 z m 35.04114,0.10722 c -0.27948,-0.72832 -0.39062,-20.22407 -0.24697,-43.32391 L 380.5,193.5 l 9.26065,-0.28767 9.26065,-0.28766 -0.26065,43.28766 C 398.53367,273.90775 398.30622,279.5 397,279.5 c -1.30081,0 -1.5664,-5.44444 -2,-41 l -0.5,-41 -4.5,-0.0766 -4.5,-0.0766 -0.5,41.06325 c -0.46405,38.1108 -0.62604,41.0875 -2.25302,41.40049 -0.96417,0.18548 -1.98169,-0.25865 -2.26118,-0.98697 z m 35.21544,0.5443 C 415.31556,278.98222 415,253.40667 415,222.53333 c 0,-42.32592 0.29517,-56.4285 1.2,-57.33333 1.60327,-1.60327 15.99673,-1.60327 17.6,0 1.4475,1.4475 1.72377,111.42445 0.28561,113.69572 -0.48607,0.76764 -1.60418,1.11926 -2.48469,0.78138 C 430.15986,279.12411 430,273.56758 430,224.03138 V 169 h -4.99153 -4.99154 l -0.25846,55.23642 c -0.22902,48.94347 -0.43492,55.27038 -1.80723,55.53457 -0.85182,0.16398 -1.86432,-0.0174 -2.25,-0.40309 z m 34.92459,-0.9006 C 449.3943,275.25799 449.91915,227.48085 451.2,226.2 c 1.60327,-1.60327 15.99673,-1.60327 17.6,0 1.4395,1.4395 1.70516,50.45384 0.28561,52.69572 -0.48607,0.76764 -1.60418,1.11926 -2.48469,0.78138 C 465.19323,279.13692 465,276.1019 465,254.53138 V 230 h -4.98253 -4.98253 l -0.26747,24.73679 c -0.23681,21.90111 -0.45366,24.77259 -1.89164,25.04909 -0.8933,0.17177 -1.9058,-0.42159 -2.25,-1.31858 z m 36.06167,0.88687 C 486.30937,278.97604 486,255.54978 486,227.29581 v -51.37086 l 9.25,0.28752 9.25,0.28753 V 228 c 0,50.83333 -0.0259,51.5 -2,51.5 -1.96972,0 -2.00393,-0.75311 -2.25934,-49.75 L 499.98133,180 H 495 490.01867 l -0.25933,49.66681 c -0.24894,47.6751 -0.53046,52.22874 -3.07184,49.68736 z m 35,0 C 521.30938,278.97604 521,264.32478 521,246.79581 v -31.87086 l 9.25,0.28752 9.25,0.28753 0.26408,31.77598 c 0.23671,28.48182 0.0967,31.84023 -1.35092,32.39572 -0.89493,0.34341 -2.00905,-0.003 -2.49877,-0.77598 -0.48607,-0.76765 -0.89066,-14.55822 -0.89908,-30.64572 L 535,219 h -4.98534 -4.98533 l -0.26467,30.16703 c -0.25175,28.69582 -0.65108,32.61322 -3.07716,30.18714 z m 34.75716,-0.63779 c -0.27091,-0.70599 -0.36929,-9.36849 -0.21862,-19.25 L 556.5,241.5 h 9 9 v 18.9863 c 0,17.28715 -0.15661,19.01647 -1.75,19.32333 -1.61149,0.31034 -1.75,-1.01428 -1.75,-16.73631 V 246 h -5 -5 v 15.41821 c 0,8.48002 -0.27314,16.13002 -0.60699,17 -0.72972,1.90162 -3.25973,2.09268 -3.94835,0.29817 z M 133.53573,237.93391 C 98.900178,232.61737 73.961325,203.77228 74.014781,169.09004 74.033067,157.22637 75.936342,148.8584 80.972417,138.5 89.983703,119.96522 107.705,105.8718 127.55173,101.45632 c 11.95677,-2.660129 28.45877,-1.677312 39.22142,2.33593 46.68195,17.40704 60.95636,74.64646 27.88082,111.8002 -14.8942,16.73065 -39.37414,25.67917 -61.11824,22.34146 z m 18.30918,-4.81689 c 1.11075,-0.70397 0.98017,-2.64067 -0.75,-11.12393 C 149.94271,216.34372 149,211.59831 149,211.44772 c 0,-0.15058 -2.97887,-0.29665 -6.61971,-0.3246 -8.19954,-0.0629 -15.38936,-2.09538 -21.78294,-6.15768 l -4.90265,-3.11501 -7.8745,7.82479 -7.874498,7.82478 3.277148,2.76249 c 5.03597,4.2451 18.54356,10.62888 25.77715,12.18248 7.31448,1.57096 20.80055,1.96769 22.84491,0.67205 z M 171.5,227.44289 c 17.6722,-8.49665 30.53349,-24.68855 35.11851,-44.21291 1.11912,-4.76557 1.45079,-9.79481 1.13628,-17.22998 -0.72059,-17.03521 -6.45382,-30.35768 -18.25479,-42.41919 -7.30843,-7.46978 -15.42065,-12.52804 -26.0096,-16.21792 -7.07734,-2.4662 -9.438,-2.78867 -20.65869,-2.822 -6.96756,-0.0207 -12.94455,0.23862 -13.2822,0.57626 -0.33765,0.33765 0.62752,5.35216 2.14481,11.14335 l 2.75872,10.52943 10.08138,0.37319 c 8.97919,0.33238 10.81625,0.73496 16.80311,3.68228 12.60161,6.20375 21.31187,17.91973 23.79256,32.00284 3.1038,17.62059 -7.74268,37.40815 -24.5089,44.7123 -4.36806,1.90294 -6.62119,3.45297 -6.62119,4.55502 0,1.7286 2.78389,16.36564 3.55932,18.71408 0.62032,1.87869 5.40848,0.71546 13.94068,-3.38675 z m -61.13093,-31.65777 c -6.56747,-7.33668 -9.78461,-17.64644 -9.16864,-29.3822 0.36866,-7.02401 0.9945,-9.41274 4.12625,-15.74942 4.19167,-8.48125 11.6097,-16.02228 19.38714,-19.70858 2.6324,-1.24769 4.95112,-2.39815 5.15271,-2.55658 C 130.61471,127.80033 124.5229,107 123.6025,107 c -0.52604,0 -4.75579,1.83899 -9.39944,4.08665 -6.51441,3.15315 -10.20761,5.83714 -16.168118,11.75 C 84.6151,136.14919 78.604606,150.42915 78.604606,169 c 0,15.59369 4.300354,28.37469 13.435564,39.9316 l 4.199857,5.31322 8.087293,-8.08729 8.08729,-8.08729 z m 48.32633,7.76472 c 7.65157,-3.48895 15.42568,-11.24749 18.9833,-18.94526 2.47007,-5.34461 2.8213,-7.28986 2.8213,-15.62561 0,-8.73519 -0.27023,-10.06995 -3.27411,-16.17169 -6.75097,-13.71316 -18.67574,-21.10016 -34.27775,-21.23395 -7.95065,-0.0682 -9.08927,0.19227 -16.19599,3.7046 -11.52651,5.69671 -18.24838,14.59011 -20.7893,27.5054 -2.71084,13.77892 3.7758,29.12465 15.8112,37.40522 10.6831,7.35017 25.26251,8.67746 36.92135,3.36129 z M 0,82.5 C 0,80.5 0.5,80 2.5,80 H 5 V 66.5 53 H 18.5 32 V 66.5 80 H 36.5 41 V 48 16 H 54.5 68 v 32 32 h 5 5 V 56.470975 32.94195 L 91.25,33.220975 104.5,33.5 104.76843,56.75 105.03686,80 H 109.51843 114 V 40.5 1 H 127.5 141 V 40.5 80 h 5 c 4.66667,0 5,0.166667 5,2.5 V 85 H 75.5 0 Z m 27,-14 V 57 H 18.5 10 V 68.5 80 H 18.5 27 Z M 63,50 V 20 H 54.5 46 v 30 30 h 8.5 8.5 z m 37,9 V 38 h -9 -9 v 21 21 h 9 9 z M 136,42.5 V 5 H 127.5 119 V 42.5 80 h 8.5 8.5 z"
         id="path6" />
      <path
         style="fill:#fa9a08"
         d="m 102.05945,448.93673 c -60.341569,-5.36475 -88.037427,-23.80961 -57.677619,-38.41209 9.012545,-4.33486 23.212036,-8.14914 38.563585,-10.359 l 11.86097,-1.70738 40.515044,-49.14331 c 22.28328,-27.02882 45.61434,-55.78773 51.84681,-63.90869 12.55578,-16.3603 20.11202,-23.33466 31.20675,-28.80364 8.91568,-4.39485 14.63517,-5.88105 33.28605,-8.6493 8.16143,-1.21136 15.34619,-2.70891 15.96614,-3.3279 0.61995,-0.61898 1.89883,-4.50042 2.84195,-8.62542 0.94312,-4.125 1.91445,-8.24253 2.15849,-9.15008 0.4017,-1.49379 0.9376,-1.51859 5.65805,-0.26187 8.21114,2.18605 8.03173,2.30525 10.0507,-6.67743 1.00001,-4.44916 1.67092,-8.19432 1.49092,-8.32257 -0.18001,-0.12826 -2.57729,-1.05293 -5.32729,-2.05482 -7.52573,-2.74182 -13.19062,-6.3185 -19.01711,-12.00697 -12.22415,-11.93459 -19.51558,-28.746 -22.8033,-52.57618 L 241.5,136.40015 233,129.03361 c -32.39901,-28.07865 -59.20641,-64.413644 -65.42523,-88.677955 -3.04228,-11.87021 -1.3783,-24.970716 3.70604,-29.177714 1.44275,-1.1937909 1.49473,-0.951237 0.53578,2.5 -2.6211,9.433207 1.29581,27.090128 9.32755,42.047404 4.4554,8.297171 17.48075,26.28456 27.34768,37.765858 7.40489,8.616437 24.57568,26.041627 26.21059,26.598927 0.66133,0.22543 3.36133,2.45658 6,4.95811 5.26628,4.99258 13.28111,11.19857 23.29759,18.03967 31.36859,21.42422 59.26433,30.65522 75.874,25.10751 l 3.37399,-1.12693 -1.87399,2.11093 c -11.05692,12.4549 -42.84574,5.56227 -77.17028,-16.73248 -5.66295,-3.67825 -10.45762,-6.52104 -10.65482,-6.31733 -0.1972,0.20371 0.69081,4.51037 1.97335,9.57035 4.95224,19.53787 16.77925,36.29695 30.42833,43.11748 5.51028,2.75352 7.41161,3.18256 14.10381,3.18256 10.13215,0 18.70292,-2.6983 28.06891,-8.83683 38.26633,-25.08 60.34054,-87.93004 47.92818,-136.461896 C 371.18851,37.687236 360.42108,22.846688 347,16.660151 c -3.39933,-1.566943 -6.57905,-2.084805 -13,-2.117228 -15.84882,-0.08003 -29.0525,5.98604 -44.12489,20.27197 l -8.77264,8.314893 17.26212,17.185107 C 326.12974,87.956171 343.16304,112.83398 349.49988,135 c 1.67911,5.87349 2.5822,11 1.93775,11 -0.2818,0 -4.65805,-2.84775 -9.725,-6.32834 -8.27163,-5.68194 -33.04259,-22.4159 -67.438,-45.557559 -6.72395,-4.52396 -12.44601,-8.582378 -12.71567,-9.018708 -0.5216,-0.843958 -4.70432,-58.283364 -4.27542,-58.712269 0.13914,-0.139137 3.61068,2.192741 7.71453,5.18195 4.10386,2.989209 7.69564,5.413635 7.98175,5.387612 0.2861,-0.02602 2.49344,-2.51338 4.90521,-5.527461 2.41177,-3.014081 7.75184,-8.18861 11.86684,-11.498954 C 308.84271,4.5684781 328.03656,0.07584674 348,6.2923531 c 24.14392,7.5182849 39.20451,25.2296689 47.18663,55.4918869 2.02974,7.695241 2.29976,11.057538 2.30614,28.71576 0.008,21.89524 -1.00444,28.84406 -6.70163,46 -6.84792,20.62117 -17.23247,37.89589 -31.29114,52.0529 -15.85475,15.96564 -33.23235,24.48617 -50.56305,24.79191 l -8.79699,0.15519 -2.06998,8.21381 c -1.13849,4.5176 -2.06998,8.41672 -2.06998,8.66472 0,0.24799 3.375,1.24656 7.5,2.21903 4.125,0.97247 7.49466,2.24835 7.48813,2.83528 -0.007,0.58694 -0.66495,3.52123 -1.46317,6.52066 -0.79821,2.99942 -1.35537,5.49231 -1.23813,5.53975 7.73275,3.12901 15.84632,10.08464 18.74274,16.06783 2.8932,5.97655 2.48766,15.24793 -0.90723,20.74098 -1.37343,2.22225 -2.41592,5.65718 -2.57012,8.46835 -0.3222,5.87399 -5.06143,15.47254 -9.96168,20.17576 -2.9187,2.80133 -3.59054,4.17642 -3.59054,7.34887 0,5.3308 -2.44301,10.0447 -7.52329,14.51654 -2.34875,2.06745 -5.01466,5.54312 -5.92426,7.72371 -1.90444,4.56553 -6.48237,9.67569 -11.62041,12.97137 -2.96551,1.90216 -3.77324,3.20587 -4.78369,7.72104 -2.72951,12.19674 -2.94403,12.62143 -6.93518,13.72989 -8.58124,2.38326 -16.85333,0.48896 -28.05794,-6.42524 C 238.35235,366.33439 237.31477,366 231.09173,366 h -6.71874 l -16.28954,18.18288 -16.28953,18.18287 9.85304,3.1432 c 20.89425,6.66544 28.60808,13.46448 24.53395,21.62442 -4.46489,8.94256 -27.9844,17.23036 -59.18091,20.85416 -12.99606,1.50962 -52.19293,2.08254 -64.94055,0.9492 z m 46.60322,-9.03723 c 5.12788,-0.99826 5.29639,-1.15431 25,-23.15039 C 184.5732,404.56916 197.775,389.85152 203,384.04323 c 5.225,-5.80829 11.75,-13.08692 14.5,-16.17473 l 5,-5.6142 16.5,-0.58613 c 21.57661,-0.76648 35.4298,-3.98181 45.34858,-10.52543 3.32679,-2.19475 9.11704,-9.01045 8.32645,-9.80105 -0.1496,-0.1496 -2.98963,0.8257 -6.31118,2.16734 -7.25868,2.93191 -12.86385,3.62679 -12.86385,1.59476 0,-0.85526 3.09955,-2.4346 8,-4.07631 14.53181,-4.86832 22.49204,-10.52408 24.32626,-17.28388 1.21182,-4.466 0.73747,-4.83231 -3.57852,-2.76343 -4.91409,2.35558 -12.31042,4.82438 -19.42779,6.48475 -4.73488,1.10457 -5.92859,1.1091 -6.82759,0.0259 -1.38398,-1.66759 -1.07583,-1.83043 8.29562,-4.38368 17.36373,-4.73074 24.60709,-8.91697 30.18377,-17.44443 3.29915,-5.04483 6.35576,-13.1685 5.3378,-14.18647 -0.28099,-0.28099 -3.39059,0.82589 -6.91022,2.45972 -6.64274,3.0836 -21.30962,7.62632 -28.15899,8.72158 -3.43685,0.54958 -3.89742,0.39952 -3.59139,-1.1701 0.26743,-1.37163 2.85819,-2.45416 10.87629,-4.54456 24.94712,-6.50399 33.20553,-12.45871 33.20553,-23.94285 0,-7.62079 -5.0725,-14.73261 -14.14484,-19.83155 C 307.63205,251.22726 307,251.11941 307,252.4712 c 0,0.87954 0.73298,2.71783 1.62884,4.08509 4.06304,6.20099 -1.01183,15.21124 -10.9836,19.50098 -16.89281,7.26709 -46.73445,7.70028 -51.02516,0.74069 -1.65282,-2.68088 0.0267,-3.26043 4.11972,-1.42159 2.06811,0.92912 5.08665,1.78703 6.70787,1.90647 l 2.94766,0.21716 3.22344,-13.49557 c 1.77288,-7.42256 3.03205,-13.68695 2.79813,-13.92086 -0.81755,-0.81755 -30.9698,4.18867 -36.9169,6.12936 -15.22922,4.9697 -24.49532,12.441 -39.20539,31.6115 -8.57988,11.1815 -99.718269,122.4543 -112.536875,137.39867 -2.69996,3.14771 -4.630967,6.173 -4.291127,6.72287 0.90639,1.46657 12.712606,4.91254 22.787681,6.65121 18.935071,3.26766 39.666511,3.78282 52.408381,1.30232 z M 305.9144,262 c -0.0503,-2.28958 -0.12731,-2.33166 -0.9144,-0.5 -0.47269,1.1 -0.88417,2.9 -0.9144,4 -0.0454,1.65073 0.11431,1.73805 0.9144,0.5 0.53316,-0.825 0.94464,-2.625 0.9144,-4 z m 40.24568,16.76008 c -1.82191,-1.82191 -1.59919,-35.15076 0.24512,-36.68141 0.88185,-0.73186 4.32694,-1.0568 9.25,-0.87244 L 363.5,241.5 v 19 c 0,16.22222 -0.2193,19 -1.5,19 -1.26479,0 -1.5429,-2.70494 -1.77361,-17.25 L 359.95277,245 H 354.47639 349 v 16.94098 c 0,9.31754 -0.37796,17.17458 -0.83992,17.46008 -0.46195,0.28551 -1.36195,-0.003 -2,-0.64098 z m 35.36153,0.15683 c -0.29917,-0.77964 -0.42643,-20.31738 -0.28278,-43.41722 L 381.5,193.5 h 8.5 8.5 v 43 c 0,37.55556 -0.18992,43 -1.5,43 -1.30491,0 -1.53396,-5.37182 -1.76114,-41.30187 l -0.26113,-41.30188 -5.23887,0.30188 L 384.5,197.5 l -0.26153,40.46153 c -0.23779,36.78936 -0.83881,45.8495 -2.71686,40.95538 z m 35.13638,0.40775 C 416.2961,278.96276 416,253.09167 416,221.83333 V 165 h 9.00819 9.00819 l -0.25819,57.25 c -0.22598,50.10747 -0.44533,57.25 -1.75819,57.25 -1.31231,0 -1.53233,-6.97595 -1.7584,-55.75 L 429.98321,168 H 424.9916 420 v 54.87756 c 0,44.68873 -0.24916,55.08434 -1.34201,55.99132 -0.7381,0.61257 -1.6381,0.81767 -2,0.45578 z m 34.93978,-0.0602 C 451.26899,278.93566 451,266.81667 451,252.33333 V 226 h 9 9 v 26.33333 c 0,14.48334 -0.2961,26.62943 -0.65799,26.99133 -0.3619,0.36189 -1.2619,0.15679 -2,-0.45578 C 465.2879,277.99404 465,272.63275 465,253.87756 V 230 h -5 -5 v 24.39301 c 0,20.00431 -0.25228,24.48982 -1.40223,24.9311 -0.77123,0.29595 -1.67123,0.26909 -2,-0.0597 z m 34.89259,-0.43127 C 486.20948,278.09992 486.09674,254.775 486.23984,227 l 0.26016,-50.5 8.75902,-0.28906 8.75902,-0.28907 -0.25902,51.78907 c -0.16953,33.89708 -0.6045,51.70279 -1.25902,51.53933 -0.64544,-0.16118 -1.09195,-17.8004 -1.25934,-49.75 L 500.98133,180 H 495.5 490.01867 l -0.25933,49.66681 c -0.2018,38.64715 -0.53656,49.75919 -1.50881,50.08316 -0.68721,0.22899 -1.47929,-0.18358 -1.76017,-0.91681 z m 34.99537,-0.01 c -0.28343,-0.7386 -0.39617,-15.28852 -0.25053,-32.33316 L 521.5,215.5 h 9 9 l 0.26464,30.8799 c 0.25876,30.19366 -0.13746,34.74379 -2.87795,33.05007 C 536.39901,279.12857 536,265.40852 536,248.94098 V 219 h -5.48534 -5.48533 l -0.26467,30.16703 c -0.20219,23.04676 -0.55957,30.26525 -1.51413,30.58316 -0.68721,0.22887 -1.48137,-0.18819 -1.7648,-0.92679 z m 35.67435,-0.0633 C 555.5107,277.1107 555.54701,243.85299 557.2,242.2 c 1.35466,-1.35466 14.55463,-1.64243 16.57324,-0.36131 0.9724,0.61714 1.20868,5.16193 1,19.23469 C 574.54205,276.66449 574.26918,279.5 573,279.5 c -1.26479,0 -1.5429,-2.70494 -1.77361,-17.25 L 570.95277,245 H 565.47639 560 v 16.94098 c 0,9.31754 -0.37796,17.17458 -0.83992,17.46008 -0.46195,0.28551 -1.36195,-0.003 -2,-0.64098 z M 126.5,236.0919 c -9.60978,-2.64557 -13.89107,-4.56747 -21.70337,-9.74279 -19.905878,-13.18681 -32.0755,-37.65579 -30.494431,-61.31395 1.165544,-17.44051 7.849375,-32.21098 20.194908,-44.62832 14.187793,-14.27033 32.369523,-21.245673 52.504673,-20.14321 18.12175,0.99222 31.66029,7.21291 45.14211,20.74189 13.73987,13.78794 19.81115,28.50138 19.84133,48.08452 0.047,30.49984 -18.50357,55.98281 -47.98522,65.91739 -9.47262,3.19204 -27.90789,3.72517 -37.5,1.08447 z m 26.68452,-2.60976 c 0.28482,-0.28482 -0.44566,-5.34732 -1.6233,-11.25 L 149.42007,211.5 l -7.46004,-0.59904 c -4.10301,-0.32947 -8.81003,-0.95634 -10.46003,-1.39305 -3.23447,-0.85608 -10.73478,-4.59102 -14.04049,-6.99175 -1.92208,-1.39589 -2.5024,-1.01444 -10,6.57315 l -7.95951,8.05504 3.70344,3.24355 c 9.74997,8.53925 24.09219,13.47728 39.37989,13.55852 5.54584,0.0295 10.31637,-0.17945 10.60119,-0.46428 z m 16.0286,-4.32042 c 10.02578,-4.00634 24.32536,-16.57937 30.13948,-26.50041 22.36055,-38.15539 1.85424,-86.46552 -41.28442,-97.2606 -6.49622,-1.62563 -27.06081,-1.74141 -28.64096,-0.16127 -0.39185,0.39186 0.54173,5.60855 2.07463,11.59266 l 2.7871,10.88019 6.68048,-0.47799 c 18.51139,-1.32448 35.87621,10.49675 41.96366,28.56708 6.85902,20.36068 -2.82998,42.26806 -22.75348,51.44691 -3.67379,1.69253 -6.79646,3.15841 -6.93927,3.25751 -0.2861,0.19853 3.51167,19.26408 4.22489,21.20979 0.44792,1.22193 4.50746,0.33943 11.74789,-2.55387 z m -64.08116,-22.79291 7.67621,-7.63119 -3.5027,-4.87551 c -12.192515,-16.97109 -10.431426,-39.69268 4.21139,-54.3355 4.36203,-4.36202 7.45018,-6.33611 17.1678,-10.97446 0.36028,-0.17196 -5.59393,-20.79475 -6.17026,-21.37108 -0.32227,-0.32227 -2.70735,0.19716 -5.30017,1.15431 C 102.1247,114.64398 86.981732,130.87846 80.817274,149.5 78.891163,155.31838 78.5,158.61004 78.5,169 c 0,12.94809 1.625725,20.46763 6.470712,29.92926 C 87.581521,204.02783 95.141426,214 96.395844,214 c 0.58295,0 4.514206,-3.43404 8.736116,-7.63119 z M 159,203.84243 c 24.14101,-11.24785 29.95319,-42.98448 11.29002,-61.64765 -2.6585,-2.6585 -7.52382,-6.1523 -10.81183,-7.764 -5.39912,-2.64653 -6.94683,-2.93039 -15.97819,-2.93058 -8.75703,-1.7e-4 -10.71074,0.33292 -15.71807,2.67986 -7.98459,3.74237 -15.13706,10.76459 -19.04065,18.69391 -2.96707,6.02698 -3.24128,7.38944 -3.24128,16.105 0,8.2373 0.36135,10.292 2.68006,15.2391 4.65286,9.92718 14.31043,18.44886 24.81994,21.90071 1.375,0.45162 6.55,0.70077 11.5,0.55368 7.18437,-0.2135 10.10955,-0.78442 14.5,-2.83003 z M 0,82.5 C 0,81.566667 0.94444444,81 2.5,81 H 5 V 67 53 H 17.97178 30.943561 L 31.22178,66.75 31.5,80.5 h 5 5 L 41.763853,48.25 42.027706,16 H 55.013853 68 V 48.5 81 h 4.981901 4.981902 L 78.231901,57.25 78.5,33.5 91.231831,33.220259 103.96366,32.940517 104.23183,56.720259 104.5,80.5 h 5 5 L 114.76147,40.75 115.02295,1 H 128.01147 141 v 40 40 h 4.83333 c 3.62963,0 4.83334,0.373563 4.83334,1.5 0,1.320059 -9.03704,1.5 -75.333337,1.5 C 9.037037,84 0,83.820059 0,82.5 Z M 27.000807,68.75 27,57 H 18 9 v 11.333333 c 0,6.233334 0.1895816,11.520834 0.4212925,11.75 C 9.6530033,80.3125 13.703367,80.5 18.4221,80.5 h 8.579514 z M 63.764663,50.085064 64.029326,20 H 55.014663 46 L 45.999648,50.25 45.999297,80.5 54.749648,80.335064 63.5,80.170129 Z M 100.00014,58.75 100,37 h -9 -9 v 21.333333 c 0,11.733334 0.187654,21.520834 0.417008,21.75 C 82.646363,80.3125 86.696426,80.5 91.417149,80.5 h 8.583131 z M 136.76203,42.584956 137.02405,5 H 127.51203 118 v 37.333333 c 0,20.533334 0.18718,37.520834 0.41596,37.75 0.22878,0.229167 4.39128,0.342397 9.25,0.251623 L 136.5,80.169913 Z"
         id="path5" />
      <path
         style="fill:#5c5d63"
         d="m 102.05945,448.93673 c -60.341569,-5.36475 -88.037427,-23.80961 -57.677619,-38.41209 9.012545,-4.33486 23.212036,-8.14914 38.563585,-10.359 l 11.86097,-1.70738 40.515044,-49.14331 c 22.28328,-27.02882 45.61434,-55.78773 51.84681,-63.90869 12.55578,-16.3603 20.11202,-23.33466 31.20675,-28.80364 8.91568,-4.39485 14.63517,-5.88105 33.28605,-8.6493 8.16143,-1.21136 15.34619,-2.70891 15.96614,-3.3279 0.61995,-0.61898 1.89883,-4.50042 2.84195,-8.62542 0.94312,-4.125 1.91445,-8.24253 2.15849,-9.15008 0.4017,-1.49379 0.9376,-1.51859 5.65805,-0.26187 8.21114,2.18605 8.03173,2.30525 10.0507,-6.67743 1.00001,-4.44916 1.67092,-8.19432 1.49092,-8.32257 -0.18001,-0.12826 -2.57729,-1.05293 -5.32729,-2.05482 -22.26322,-8.11106 -36.85363,-29.94341 -41.45635,-62.03323 -1.60448,-11.18627 -1.72079,-10.98315 3.95448,-6.90588 2.74896,1.97494 5.2303,3.96647 5.51408,4.42564 0.28378,0.45916 1.60413,5.12454 2.93412,10.3675 5.04466,19.88664 16.75549,36.55984 30.50425,43.43018 5.51028,2.75352 7.41161,3.18256 14.10381,3.18256 10.13215,0 18.70292,-2.6983 28.06891,-8.83683 38.26633,-25.08 60.34054,-87.93004 47.92818,-136.461896 C 371.18851,37.687236 360.42108,22.846688 347,16.660151 c -3.39933,-1.566943 -6.57905,-2.084805 -13,-2.117228 -15.84882,-0.08003 -29.0525,5.98604 -44.12489,20.27197 l -8.77264,8.314893 17.26212,17.185107 C 326.12974,87.956171 343.16304,112.83398 349.49988,135 c 1.67911,5.87349 2.5822,11 1.93775,11 -0.2818,0 -4.65805,-2.84775 -9.725,-6.32834 -8.27163,-5.68194 -33.04259,-22.4159 -67.438,-45.557559 -6.72395,-4.52396 -12.44601,-8.582378 -12.71567,-9.018708 -0.5216,-0.843958 -4.70432,-58.283364 -4.27542,-58.712269 0.13914,-0.139137 3.61068,2.192741 7.71453,5.18195 4.10386,2.989209 7.69564,5.413635 7.98175,5.387612 0.2861,-0.02602 2.49344,-2.51338 4.90521,-5.527461 2.41177,-3.014081 7.75184,-8.18861 11.86684,-11.498954 C 308.84271,4.5684781 328.03656,0.07584674 348,6.2923531 c 24.14392,7.5182849 39.20451,25.2296689 47.18663,55.4918869 2.02974,7.695241 2.29976,11.057538 2.30614,28.71576 0.008,21.89524 -1.00444,28.84406 -6.70163,46 -6.84792,20.62117 -17.23247,37.89589 -31.29114,52.0529 -15.85475,15.96564 -33.23235,24.48617 -50.56305,24.79191 l -8.79699,0.15519 -2.06998,8.21381 c -1.13849,4.5176 -2.06998,8.41672 -2.06998,8.66472 0,0.24799 3.375,1.24656 7.5,2.21903 4.125,0.97247 7.49466,2.24835 7.48813,2.83528 -0.007,0.58694 -0.66495,3.52123 -1.46317,6.52066 -0.79821,2.99942 -1.35537,5.49231 -1.23813,5.53975 7.73275,3.12901 15.84632,10.08464 18.74274,16.06783 2.8932,5.97655 2.48766,15.24793 -0.90723,20.74098 -1.37343,2.22225 -2.41592,5.65718 -2.57012,8.46835 -0.3222,5.87399 -5.06143,15.47254 -9.96168,20.17576 -2.9187,2.80133 -3.59054,4.17642 -3.59054,7.34887 0,5.3308 -2.44301,10.0447 -7.52329,14.51654 -2.34875,2.06745 -5.01466,5.54312 -5.92426,7.72371 -1.90444,4.56553 -6.48237,9.67569 -11.62041,12.97137 -2.96551,1.90216 -3.77324,3.20587 -4.78369,7.72104 -2.72951,12.19674 -2.94403,12.62143 -6.93518,13.72989 -8.58124,2.38326 -16.85333,0.48896 -28.05794,-6.42524 C 238.35235,366.33439 237.31477,366 231.09173,366 h -6.71874 l -16.28954,18.18288 -16.28953,18.18287 9.85304,3.1432 c 20.89425,6.66544 28.60808,13.46448 24.53395,21.62442 -4.46489,8.94256 -27.9844,17.23036 -59.18091,20.85416 -12.99606,1.50962 -52.19293,2.08254 -64.94055,0.9492 z m 46.60322,-9.03723 c 5.12788,-0.99826 5.29639,-1.15431 25,-23.15039 C 184.5732,404.56916 197.775,389.85152 203,384.04323 c 5.225,-5.80829 11.75,-13.08692 14.5,-16.17473 l 5,-5.6142 16.5,-0.58613 c 21.57661,-0.76648 35.4298,-3.98181 45.34858,-10.52543 3.32679,-2.19475 9.11704,-9.01045 8.32645,-9.80105 -0.1496,-0.1496 -2.98963,0.8257 -6.31118,2.16734 -7.25868,2.93191 -12.86385,3.62679 -12.86385,1.59476 0,-0.85526 3.09955,-2.4346 8,-4.07631 14.53181,-4.86832 22.49204,-10.52408 24.32626,-17.28388 1.21182,-4.466 0.73747,-4.83231 -3.57852,-2.76343 -4.91409,2.35558 -12.31042,4.82438 -19.42779,6.48475 -4.73488,1.10457 -5.92859,1.1091 -6.82759,0.0259 -1.38398,-1.66759 -1.07583,-1.83043 8.29562,-4.38368 17.36373,-4.73074 24.60709,-8.91697 30.18377,-17.44443 3.29915,-5.04483 6.35576,-13.1685 5.3378,-14.18647 -0.28099,-0.28099 -3.39059,0.82589 -6.91022,2.45972 -6.64274,3.0836 -21.30962,7.62632 -28.15899,8.72158 -3.43685,0.54958 -3.89742,0.39952 -3.59139,-1.1701 0.26743,-1.37163 2.85819,-2.45416 10.87629,-4.54456 24.94712,-6.50399 33.20553,-12.45871 33.20553,-23.94285 0,-7.62079 -5.0725,-14.73261 -14.14484,-19.83155 C 307.63205,251.22726 307,251.11941 307,252.4712 c 0,0.87954 0.73298,2.71783 1.62884,4.08509 4.06304,6.20099 -1.01183,15.21124 -10.9836,19.50098 -16.89281,7.26709 -46.73445,7.70028 -51.02516,0.74069 -1.65282,-2.68088 0.0267,-3.26043 4.11972,-1.42159 2.06811,0.92912 5.08665,1.78703 6.70787,1.90647 l 2.94766,0.21716 3.22344,-13.49557 c 1.77288,-7.42256 3.03205,-13.68695 2.79813,-13.92086 -0.81755,-0.81755 -30.9698,4.18867 -36.9169,6.12936 -15.22922,4.9697 -24.49532,12.441 -39.20539,31.6115 -8.57988,11.1815 -99.718269,122.4543 -112.536875,137.39867 -2.69996,3.14771 -4.630967,6.173 -4.291127,6.72287 0.90639,1.46657 12.712606,4.91254 22.787681,6.65121 18.935071,3.26766 39.666511,3.78282 52.408381,1.30232 z M 305.9144,262 c -0.0503,-2.28958 -0.12731,-2.33166 -0.9144,-0.5 -0.47269,1.1 -0.88417,2.9 -0.9144,4 -0.0454,1.65073 0.11431,1.73805 0.9144,0.5 0.53316,-0.825 0.94464,-2.625 0.9144,-4 z m 40.24568,16.76008 c -1.82191,-1.82191 -1.59919,-35.15076 0.24512,-36.68141 0.88185,-0.73186 4.32694,-1.0568 9.25,-0.87244 L 363.5,241.5 v 19 c 0,16.22222 -0.2193,19 -1.5,19 -1.26479,0 -1.5429,-2.70494 -1.77361,-17.25 L 359.95277,245 H 354.47639 349 v 16.94098 c 0,9.31754 -0.37796,17.17458 -0.83992,17.46008 -0.46195,0.28551 -1.36195,-0.003 -2,-0.64098 z m 35.36153,0.15683 c -0.29917,-0.77964 -0.42643,-20.31738 -0.28278,-43.41722 L 381.5,193.5 h 8.5 8.5 v 43 c 0,37.55556 -0.18992,43 -1.5,43 -1.30491,0 -1.53396,-5.37182 -1.76114,-41.30187 l -0.26113,-41.30188 -5.23887,0.30188 L 384.5,197.5 l -0.26153,40.46153 c -0.23779,36.78936 -0.83881,45.8495 -2.71686,40.95538 z m 35.13638,0.40775 C 416.2961,278.96276 416,253.09167 416,221.83333 V 165 h 9.00819 9.00819 l -0.25819,57.25 c -0.22598,50.10747 -0.44533,57.25 -1.75819,57.25 -1.31231,0 -1.53233,-6.97595 -1.7584,-55.75 L 429.98321,168 H 424.9916 420 v 54.87756 c 0,44.68873 -0.24916,55.08434 -1.34201,55.99132 -0.7381,0.61257 -1.6381,0.81767 -2,0.45578 z m 34.93978,-0.0602 C 451.26899,278.93566 451,266.81667 451,252.33333 V 226 h 9 9 v 26.33333 c 0,14.48334 -0.2961,26.62943 -0.65799,26.99133 -0.3619,0.36189 -1.2619,0.15679 -2,-0.45578 C 465.2879,277.99404 465,272.63275 465,253.87756 V 230 h -5 -5 v 24.39301 c 0,20.00431 -0.25228,24.48982 -1.40223,24.9311 -0.77123,0.29595 -1.67123,0.26909 -2,-0.0597 z m 34.89259,-0.43127 C 486.20948,278.09992 486.09674,254.775 486.23984,227 l 0.26016,-50.5 8.75902,-0.28906 8.75902,-0.28907 -0.25902,51.78907 c -0.16953,33.89708 -0.6045,51.70279 -1.25902,51.53933 -0.64544,-0.16118 -1.09195,-17.8004 -1.25934,-49.75 L 500.98133,180 H 495.5 490.01867 l -0.25933,49.66681 c -0.2018,38.64715 -0.53656,49.75919 -1.50881,50.08316 -0.68721,0.22899 -1.47929,-0.18358 -1.76017,-0.91681 z m 34.99537,-0.01 c -0.28343,-0.7386 -0.39617,-15.28852 -0.25053,-32.33316 L 521.5,215.5 h 9 9 l 0.26464,30.8799 c 0.25876,30.19366 -0.13746,34.74379 -2.87795,33.05007 C 536.39901,279.12857 536,265.40852 536,248.94098 V 219 h -5.48534 -5.48533 l -0.26467,30.16703 c -0.20219,23.04676 -0.55957,30.26525 -1.51413,30.58316 -0.68721,0.22887 -1.48137,-0.18819 -1.7648,-0.92679 z m 35.67435,-0.0633 C 555.5107,277.1107 555.54701,243.85299 557.2,242.2 c 1.35466,-1.35466 14.55463,-1.64243 16.57324,-0.36131 0.9724,0.61714 1.20868,5.16193 1,19.23469 C 574.54205,276.66449 574.26918,279.5 573,279.5 c -1.26479,0 -1.5429,-2.70494 -1.77361,-17.25 L 570.95277,245 H 565.47639 560 v 16.94098 c 0,9.31754 -0.37796,17.17458 -0.83992,17.46008 -0.46195,0.28551 -1.36195,-0.003 -2,-0.64098 z M 126.5,236.0919 c -9.60978,-2.64557 -13.89107,-4.56747 -21.70337,-9.74279 -19.905878,-13.18681 -32.0755,-37.65579 -30.494431,-61.31395 1.165544,-17.44051 7.849375,-32.21098 20.194908,-44.62832 14.187793,-14.27033 32.369523,-21.245673 52.504673,-20.14321 18.12175,0.99222 31.66029,7.21291 45.14211,20.74189 13.73987,13.78794 19.81115,28.50138 19.84133,48.08452 0.047,30.49984 -18.50357,55.98281 -47.98522,65.91739 -9.47262,3.19204 -27.90789,3.72517 -37.5,1.08447 z m 26.68452,-2.60976 c 0.28482,-0.28482 -0.44566,-5.34732 -1.6233,-11.25 L 149.42007,211.5 l -7.46004,-0.59904 c -4.10301,-0.32947 -8.81003,-0.95634 -10.46003,-1.39305 -3.23447,-0.85608 -10.73478,-4.59102 -14.04049,-6.99175 -1.92208,-1.39589 -2.5024,-1.01444 -10,6.57315 l -7.95951,8.05504 3.70344,3.24355 c 9.74997,8.53925 24.09219,13.47728 39.37989,13.55852 5.54584,0.0295 10.31637,-0.17945 10.60119,-0.46428 z m 16.0286,-4.32042 c 10.02578,-4.00634 24.32536,-16.57937 30.13948,-26.50041 22.36055,-38.15539 1.85424,-86.46552 -41.28442,-97.2606 -6.49622,-1.62563 -27.06081,-1.74141 -28.64096,-0.16127 -0.39185,0.39186 0.54173,5.60855 2.07463,11.59266 l 2.7871,10.88019 6.68048,-0.47799 c 18.51139,-1.32448 35.87621,10.49675 41.96366,28.56708 6.85902,20.36068 -2.82998,42.26806 -22.75348,51.44691 -3.67379,1.69253 -6.79646,3.15841 -6.93927,3.25751 -0.2861,0.19853 3.51167,19.26408 4.22489,21.20979 0.44792,1.22193 4.50746,0.33943 11.74789,-2.55387 z m -64.08116,-22.79291 7.67621,-7.63119 -3.5027,-4.87551 c -12.192515,-16.97109 -10.431426,-39.69268 4.21139,-54.3355 4.36203,-4.36202 7.45018,-6.33611 17.1678,-10.97446 0.36028,-0.17196 -5.59393,-20.79475 -6.17026,-21.37108 -0.32227,-0.32227 -2.70735,0.19716 -5.30017,1.15431 C 102.1247,114.64398 86.981732,130.87846 80.817274,149.5 78.891163,155.31838 78.5,158.61004 78.5,169 c 0,12.94809 1.625725,20.46763 6.470712,29.92926 C 87.581521,204.02783 95.141426,214 96.395844,214 c 0.58295,0 4.514206,-3.43404 8.736116,-7.63119 z M 159,203.84243 c 24.14101,-11.24785 29.95319,-42.98448 11.29002,-61.64765 -2.6585,-2.6585 -7.52382,-6.1523 -10.81183,-7.764 -5.39912,-2.64653 -6.94683,-2.93039 -15.97819,-2.93058 -8.75703,-1.7e-4 -10.71074,0.33292 -15.71807,2.67986 -7.98459,3.74237 -15.13706,10.76459 -19.04065,18.69391 -2.96707,6.02698 -3.24128,7.38944 -3.24128,16.105 0,8.2373 0.36135,10.292 2.68006,15.2391 4.65286,9.92718 14.31043,18.44886 24.81994,21.90071 1.375,0.45162 6.55,0.70077 11.5,0.55368 7.18437,-0.2135 10.10955,-0.78442 14.5,-2.83003 z M 0,82.5 C 0,81.566667 0.94444444,81 2.5,81 H 5 V 67 53 H 17.97178 30.943561 L 31.22178,66.75 31.5,80.5 h 5 5 L 41.763853,48.25 42.027706,16 H 55.013853 68 V 48.5 81 h 4.981901 4.981902 L 78.231901,57.25 78.5,33.5 91.231831,33.220259 103.96366,32.940517 104.23183,56.720259 104.5,80.5 h 5 5 L 114.76147,40.75 115.02295,1 H 128.01147 141 v 40 40 h 4.83333 c 3.62963,0 4.83334,0.373563 4.83334,1.5 0,1.320059 -9.03704,1.5 -75.333337,1.5 C 9.037037,84 0,83.820059 0,82.5 Z M 27.000807,68.75 27,57 H 18 9 v 11.333333 c 0,6.233334 0.1895816,11.520834 0.4212925,11.75 C 9.6530033,80.3125 13.703367,80.5 18.4221,80.5 h 8.579514 z M 63.764663,50.085064 64.029326,20 H 55.014663 46 L 45.999648,50.25 45.999297,80.5 54.749648,80.335064 63.5,80.170129 Z M 100.00014,58.75 100,37 h -9 -9 v 21.333333 c 0,11.733334 0.187654,21.520834 0.417008,21.75 C 82.646363,80.3125 86.696426,80.5 91.417149,80.5 h 8.583131 z M 136.76203,42.584956 137.02405,5 H 127.51203 118 v 37.333333 c 0,20.533334 0.18718,37.520834 0.41596,37.75 0.22878,0.229167 4.39128,0.342397 9.25,0.251623 L 136.5,80.169913 Z"
         id="path4" />
      <path
         style="fill:#2a2e33"
         d="m 107.18893,448.92306 c -45.11581,-2.87203 -77.957907,-14.75444 -74.86295,-27.08573 2.232894,-8.89656 24.809462,-18.21964 52.867409,-21.8318 l 9.693389,-1.24792 27.280882,-33.1288 c 15.00448,-18.22085 33.68437,-40.88241 41.51086,-50.35902 7.8265,-9.47662 18.27004,-22.58032 23.20787,-29.11934 10.55719,-13.98057 17.79047,-21.24569 26.2742,-26.38989 11.20391,-6.79361 13.58203,-7.42711 50.81535,-13.53657 l 4.47594,-0.73444 2.15679,-9.29417 c 1.18623,-5.1118 2.41889,-9.55627 2.73923,-9.87662 0.32035,-0.32034 3.32858,0.10931 6.68496,0.95479 4.48144,1.12887 6.20672,1.23031 6.49478,0.38184 0.21575,-0.63547 1.25065,-4.58953 2.29979,-8.78681 l 1.90752,-7.63142 -4.11748,-1.21506 c -17.19272,-5.07355 -31.84193,-21.33085 -39.01134,-43.29372 -2.34206,-7.1747 -6.04765,-27.6202 -5.16578,-28.50206 0.21505,-0.21506 2.63529,1.28451 5.37831,3.33236 4.88521,3.64715 5.03058,3.90986 7.10089,12.83235 4.59679,19.81097 16.75103,37.39891 30.69922,44.42366 7.92189,3.98972 14.00244,4.7426 22.99824,2.84759 46.90308,-9.88033 82.20712,-85.0967 67.82035,-144.493378 -0.88842,-3.667896 -3.60913,-10.828993 -6.04602,-15.913548 -10.47217,-21.850061 -27.84693,-31.126137 -48.30476,-25.789053 -12.77262,3.332151 -29.76544,14.292885 -37.9093,24.452326 l -3.32273,4.145084 5.32273,4.624433 c 23.58352,20.489596 46.84367,49.511776 57.33531,71.538476 4.18284,8.78169 8.48646,23.10767 7.29854,24.29558 -0.30161,0.30161 -20.55202,-12.93948 -45.00091,-29.42464 L 261.35769,85.12453 259.53392,57.247043 c -1.00308,-15.332617 -1.63691,-28.438075 -1.40852,-29.123238 0.26393,-0.791807 2.85137,0.598441 7.10064,3.815221 C 268.90301,34.722562 272.09051,37 272.30938,37 c 0.21886,0 4.85129,-4.429324 10.29428,-9.842943 11.21486,-11.154349 20.3098,-17.057959 32.11829,-20.8482786 6.84756,-2.1979487 9.03417,-2.4402122 18.27805,-2.0251053 34.54931,1.5514752 58.07591,27.1039529 64.0843,69.6025979 1.47273,10.41698 0.6925,32.552709 -1.54843,43.929829 -6.59999,33.50791 -26.40576,66.50043 -49.18993,81.94073 -13.14873,8.91059 -22.29261,12.21168 -36.25621,13.08906 l -10.41027,0.65411 -1.94694,8.37472 c -2.23546,9.61578 -2.42909,9.27974 6.43065,11.15991 3.24246,0.68809 6.0866,1.56049 6.32032,1.93866 0.23372,0.37817 -0.22411,3.12638 -1.0174,6.10714 -1.6768,6.3005 -1.82319,8.25831 -0.55909,7.47705 0.49885,-0.30831 3.75239,1.35264 7.23009,3.69098 12.42675,8.35552 16.31837,21.14848 9.65882,31.75154 -1.31252,2.08974 -2.28601,5.40707 -2.41601,8.23301 -0.28229,6.13645 -4.14268,14.46945 -9.29031,20.05397 -3.07528,3.33628 -4.08959,5.26072 -4.08959,7.75913 0,4.81735 -3.62018,11.55441 -8.17622,15.21575 -2.29604,1.84514 -4.82079,5.18499 -6.01088,7.95144 -2.04827,4.76131 -7.89625,10.9563 -12.18894,12.91218 -1.83136,0.83442 -2.70393,2.83913 -4.52665,10.39987 l -2.25797,9.36621 -5.57988,1.15838 c -7.48103,1.55305 -15.2976,-0.39342 -25.27483,-6.2939 -6.30887,-3.73104 -8.60296,-4.53185 -14.29008,-4.98836 l -6.7747,-0.54381 -16.20993,18.00658 c -8.91545,9.90362 -16.20992,18.46442 -16.20992,19.024 0,0.55958 2.25,1.60472 5,2.32254 19.56038,5.10573 29.5,11.49138 29.5,18.95211 0,12.11911 -30.75501,22.34183 -76.5,25.42799 -16.69118,1.12606 -25.1925,1.11938 -43.31107,-0.034 z m 43.0329,-8.92878 c 3.95899,-1.14109 2.62735,0.25848 51.13575,-53.74428 L 223.14034,362 h 12.35747 c 27.23533,0 46.9808,-5.89453 55.01053,-16.42205 1.52381,-1.99781 2.59531,-3.80193 2.38111,-4.00916 -0.2142,-0.20723 -4.19899,0.90459 -8.85509,2.4707 -6.31613,2.12447 -8.80251,2.56789 -9.79238,1.74637 -1.76361,-1.46367 -0.85118,-2.07894 6.25802,-4.21997 12.4065,-3.73637 21.37389,-9.43821 24.50923,-15.58398 1.79492,-3.51834 2.59619,-6.98191 1.6152,-6.98191 -0.20656,0 -2.79621,1.07052 -5.75476,2.37893 C 294.65611,324.12687 281.38693,328 278.18621,328 276.9838,328 276,327.43376 276,326.74168 c 0,-0.74275 3.58032,-2.18387 8.7383,-3.51726 17.54838,-4.53643 26.86675,-10.74409 32.22542,-21.46773 2.57037,-5.14376 3.96599,-10.75669 2.6746,-10.75669 -0.19893,0 -3.36612,1.36227 -7.03819,3.02727 -7.42895,3.36845 -29.23401,9.31704 -30.74019,8.38617 -2.31036,-1.42788 0.40745,-2.79459 10.73255,-5.39707 12.80491,-3.22753 24.75779,-8.50551 28.59828,-12.62801 3.81069,-4.09051 5.38391,-10.68712 3.86999,-16.22712 -1.37226,-5.02164 -7.73827,-11.93575 -13.86955,-15.06369 -3.64612,-1.86011 -4.05542,-1.89378 -4.6358,-0.38136 -0.37681,0.98196 -0.0243,2.00151 0.8638,2.49853 2.30265,1.28863 2.95587,6.95182 1.26786,10.9918 -2.85501,6.83299 -12.04234,11.4411 -28.56806,14.32892 -4.60954,0.80551 -11.16537,1.46456 -14.5685,1.46456 -9.87852,0 -21.60743,-4.28285 -18.99655,-6.93664 0.74779,-0.76007 2.25891,-0.48913 5.2017,0.93268 8.27688,3.99895 8.45636,3.82239 12.21354,-12.01521 1.82918,-7.71054 3.14692,-14.18026 2.9283,-14.37714 -0.72496,-0.65288 -31.30815,4.42192 -36.3975,6.03959 -15.90057,5.05405 -25.21742,12.38065 -39.75131,31.2597 -6.18057,8.02836 -20.69953,26.07202 -32.26435,40.09702 -11.56482,14.025 -29.54205,35.85 -39.94939,48.5 -10.40734,12.65 -24.797757,30.09761 -31.978696,38.77246 -7.18094,8.67486 -13.208786,16.21995 -13.395214,16.76688 -0.88872,2.60727 18.544911,7.80891 36.94608,9.88907 10.09082,1.14071 34.92224,0.56248 40.11471,-0.93413 z M 305.93661,261.55887 c -0.0527,-2.54302 -0.19625,-2.72159 -0.85129,-1.05887 -0.43334,1.1 -1.08672,3.35 -1.45195,5 -0.62576,2.82705 -0.57669,2.88809 0.85129,1.05887 0.83344,-1.06762 1.48682,-3.31762 1.45195,-5 z M 346,260.46107 v -18.53894 l 8.75,0.28894 8.75,0.28893 v 17.9863 c 0,16.33476 -0.16069,18.01726 -1.75,18.32333 -1.61149,0.31034 -1.75,-1.01428 -1.75,-16.73631 V 245 h -5.5 -5.5 v 17 c 0,14.44444 -0.22549,17 -1.5,17 -1.27939,0 -1.5,-2.72655 -1.5,-18.53893 z m 35.23926,-24.06124 0.26074,-42.60018 7.75,0.0502 c 4.2625,0.0276 8.2,0.0727 8.75,0.10017 0.65022,0.0325 1,14.94111 1,42.62332 0,40.00767 -0.10546,42.55303 -1.75,42.23651 -1.62737,-0.31322 -1.7683,-3.19143 -2.01122,-41.07333 L 394.97757,197 H 389.48878 384 v 41 c 0,35.90728 -0.18765,41 -1.51074,41 -1.32808,0 -1.47921,-5.1504 -1.25,-42.60017 z M 416,222 v -57 h 9 9 v 57 c 0,49.85619 -0.18693,57 -1.49153,57 -1.30093,0 -1.52457,-7.06047 -1.75,-55.25 L 430.5,168.5 h -5.5 -5.5 l -0.25847,55.25 C 419.0161,271.93953 418.79246,279 417.49153,279 416.18693,279 416,271.85619 416,222 Z m 35,30.5 V 226 h 9 9 v 26.5 c 0,22.7501 -0.20979,26.5 -1.48253,26.5 -1.2629,0 -1.52215,-3.66656 -1.75,-24.75 L 465.5,229.5 h -5.5 -5.5 l -0.26747,24.75 c -0.22785,21.08344 -0.4871,24.75 -1.75,24.75 C 451.20979,279 451,275.2501 451,252.5 Z M 486.24088,227.82508 486.5,176.5 h 8.5 8.5 l 0.25908,51.25 c 0.2282,45.14041 0.0792,51.25 -1.25,51.25 C 501.18396,279 501,272.96572 501,229.5 V 180 h -5.49058 -5.49057 l -0.25943,49.23644 c -0.24277,46.07595 -0.37234,49.25819 -2.01854,49.57509 -1.66308,0.32014 -1.74498,-2.46351 -1.5,-50.98645 z m 35.21271,49.91459 c -0.26599,-0.69319 -0.36437,-14.98069 -0.21861,-31.75 L 521.5,215.5 l 8.75,-0.28893 8.75,-0.28894 v 32.03894 C 539,274.77345 538.80212,279 537.5,279 c -1.3,0 -1.5,-4 -1.5,-30 v -30 h -5.5 -5.5 v 30 c 0,26.27326 -0.19024,30 -1.53138,30 -0.84227,0 -1.74903,-0.56715 -2.01503,-1.26033 z M 557,260.46107 v -18.53894 l 8.75,0.28894 8.75,0.28893 v 17.9863 c 0,16.33476 -0.16069,18.01726 -1.75,18.32333 -1.61149,0.31034 -1.75,-1.01428 -1.75,-16.73631 V 245 h -5.5 -5.5 v 17 c 0,14.44444 -0.22549,17 -1.5,17 -1.27939,0 -1.5,-2.72655 -1.5,-18.53893 z M 131.23256,236.95708 C 105.24086,232.29086 83.299991,211.83744 76.432841,185.87241 74.171439,177.32194 74.107592,161.46281 76.300501,153 c 2.932352,-11.31645 10.100733,-24.18688 17.805059,-31.96799 27.4133,-27.686539 70.57574,-27.700043 98.02468,-0.0307 20.87033,21.03793 25.63961,51.82343 12.23509,78.97693 -8.45646,17.13024 -24.83359,30.56372 -43.36533,35.57079 -6.98122,1.88624 -22.90748,2.63957 -29.76744,1.40802 z m 22.50362,-3.35993 c 0.24356,-0.24356 -0.60994,-5.53264 -1.89667,-11.75352 L 149.5,210.53295 l -4.23009,0.30855 c -8.18221,0.59685 -21.9824,-3.73237 -27.5583,-8.64523 -1.66663,-1.46844 -2.36203,-1.00507 -10.21346,6.80557 -9.454579,9.40547 -9.423205,8.86214 -0.84071,14.55888 11.56019,7.67321 25.73678,11.67318 38.73924,10.93038 4.34317,-0.24812 8.09595,-0.65039 8.3395,-0.89395 z M 171.5,227.96676 c 17.45372,-8.41149 29.28496,-22.38599 35.15443,-41.52276 2.49337,-8.12934 2.47729,-26.56454 -0.0304,-34.88428 -4.54624,-15.08289 -16.45842,-30.84932 -29.04064,-38.4369 -12.37674,-7.46368 -28.49925,-11.06995 -41.46035,-9.27382 -4.02583,0.5579 -7.48996,1.18462 -7.69806,1.39272 -0.2081,0.20809 0.4844,3.50134 1.53888,7.31832 1.05447,3.81698 2.38537,8.75603 2.95754,10.97567 l 1.04032,4.03572 8.76915,0.0668 c 10.14351,0.0772 16.13745,1.85681 24.16319,7.17389 6.36558,4.21722 13.21356,13.08942 15.77611,20.43942 2.64887,7.5976 2.40376,21.43047 -0.50941,28.74847 -4.33035,10.87803 -13.17357,19.90642 -23.16073,23.64572 -2.475,0.92667 -4.86567,1.99864 -5.3126,2.38217 -0.44693,0.38352 0.11557,5.50699 1.25,11.38548 1.13443,5.87849 2.0626,10.92607 2.0626,11.21685 0,1.20102 7.0083,-1.05297 14.5,-4.66346 z m -61.32007,-33.60824 c -16.095008,-20.10626 -8.29621,-52.17526 15.31743,-62.98594 3.02645,-1.38556 5.48957,-2.82371 5.47361,-3.19589 -0.0536,-1.24851 -5.86539,-21.40444 -6.29597,-21.83502 -0.23395,-0.23395 -2.39403,0.35594 -4.80018,1.31087 -14.81004,5.87767 -28.124812,17.93201 -34.747353,31.45803 -5.409205,11.04788 -7.130624,18.27209 -7.112686,29.84953 0.02478,15.9951 4.25077,28.50353 13.695511,40.53711 l 4.519678,5.75853 8.51935,-8.51935 8.51935,-8.51934 z m 39.93358,12.6264 c 8.04905,-1.51684 15.40638,-5.69903 21.38387,-12.15543 20.70565,-22.36458 8.27979,-58.26998 -22.06038,-63.74503 -16.2737,-2.93667 -33.48318,6.12667 -41.10475,21.64775 C 105.76862,157.95297 105.5,159.49584 105.5,169 c 0,9.30686 0.30546,11.15177 2.68817,16.23579 4.98553,10.6377 16.27628,19.38941 27.98812,21.69421 6.08869,1.1982 7.83393,1.20508 13.93722,0.0549 z M 0,82.566422 c 0,-0.820527 1.1759999,-1.568891 2.75,-1.75 L 5.5,80.5 5.7782196,66.75 6.0564391,53 H 18.52822 31 V 67 81 H 36.5 42 V 48.5 16 H 54.486147 66.972294 L 67.236147,48.25 67.5,80.5 72.75,80.80226 78,81.104519 V 57.55226 34 h 13 13 V 57.5 81 h 5.5 5.5 V 41 1 h 12.48853 12.48852 l 0.26148,39.75 0.26147,39.75 4.75,0.304791 c 3.33492,0.213991 4.75,0.735336 4.75,1.75 C 150,83.802223 139.73626,84 75,84 10.544442,84 0,83.79845 0,82.566422 Z M 27.781735,68.75 28.063471,57 H 18.531735 9 V 69.037526 81.075052 L 18.25,80.787526 27.5,80.5 Z M 64,50.5 V 20 H 54.5 45 v 29.833333 c 0,16.408334 0.3,30.133334 0.666667,30.5 C 46.033333,80.7 50.308333,81 55.166667,81 H 64 Z M 100.5,59 V 37.5 L 91.25,37.212474 82,36.924948 V 59 81.075052 L 91.25,80.787526 100.5,80.5 Z M 137,43 V 5 h -9.5 -9.5 v 38 38 h 9.5 9.5 z"
         id="path3" />
      <path
         style="fill:#070615"
         d="m 112.40646,448.88825 c -46.51671,-2.1114 -82.994695,-14.37868 -79.880494,-26.86322 2.056614,-8.24477 17.834507,-15.57826 43.10974,-20.03719 6.525362,-1.15117 13.645352,-2.40687 15.8222,-2.79044 3.675649,-0.64766 5.137604,-2.13148 20.500004,-20.80647 9.09815,-11.05998 27.81279,-33.78498 41.58809,-50.5 C 167.3213,311.17592 182.15104,292.775 186.50098,287 207.0935,259.66126 216.92944,253.77995 250.83881,248.52975 259.82515,247.13839 267.51646,246 267.93061,246 c 0.41415,0 1.77329,-4.5 3.02032,-10 1.24703,-5.5 2.55572,-9.99466 2.9082,-9.98813 0.35248,0.007 3.11587,0.67619 6.14087,1.48813 3.025,0.81194 5.75522,1.4816 6.06716,1.48813 0.31193,0.007 1.38569,-3.47563 2.38612,-7.73813 1.00043,-4.2625 2.0131,-8.26624 2.25038,-8.8972 0.24942,-0.66323 -1.81191,-1.87095 -4.88612,-2.86276 C 265.2342,202.84937 249.922,182.26889 244.56886,154.04942 243.0367,145.97253 242.52794,139 243.47076,139 c 0.25892,0 2.43768,1.38641 4.84169,3.08091 4.06977,2.86864 4.48049,3.58585 5.96133,10.4097 4.69075,21.61553 17.07167,39.62172 32.42863,47.16256 5.05019,2.47983 6.89337,2.83743 14.29759,2.77389 14.85815,-0.12749 26.05426,-5.62138 40.60976,-19.92706 14.05736,-13.81609 23.35512,-29.21669 30.44986,-50.43643 C 386.49217,88.897051 380.5594,43.972747 357.71363,23.432438 350.18756,16.665852 345.80745,14.746707 336.64121,14.199547 323.0285,13.386966 310.12295,17.807904 297,27.779085 c -6.78186,5.153042 -16,14.431962 -16,16.105494 0,0.533643 1.2375,1.924992 2.75,3.091885 6.06208,4.676893 27.89702,27.103329 35.29008,36.246068 17.70737,21.898068 28.7395,42.239298 31.5498,58.172028 0.79225,4.4916 1.47061,4.6966 -9.58988,-2.89808 -4.125,-2.83243 -23.38993,-15.84572 -42.81096,-28.91842 C 276.62587,95.063442 262.56906,84.97059 262.08437,83.654756 261.64783,82.46964 260.76141,72.725 260.11456,62 259.4677,51.275 258.65677,38.94263 258.3125,34.594734 l -0.62595,-7.905266 7.516,5.558345 7.516,5.558346 6.6014,-7.288756 C 294.68588,13.55154 313.19508,4 330.70601,4 c 8.38315,0 20.37459,3.0022985 28.62403,7.166605 6.55859,3.310763 17.11879,12.763744 21.75456,19.473618 18.2413,26.402721 21.87801,66.884683 9.42402,104.903327 -7.35158,22.44238 -18.32478,40.34442 -33.69509,54.97127 -15.51186,14.76155 -29.68314,21.42623 -47.32218,22.25539 l -10.00865,0.47048 -2.08254,8.88388 -2.08254,8.88387 3.59119,0.92846 c 1.97515,0.51066 5.46139,1.41471 7.74719,2.00901 l 4.15599,1.08055 -1.39412,5.23677 c -1.79647,6.74807 -1.77325,8.73677 0.102,8.73677 2.45013,0 8.65448,4.36515 13.15422,9.25481 7.45633,8.10246 8.26729,18.14147 2.17296,26.89956 -1.10502,1.58801 -1.84737,4.40017 -1.84784,7 -9.8e-4,5.384 -4.44341,15.11778 -9.40724,20.61215 -2.55951,2.83307 -3.59197,4.90363 -3.59197,7.20355 0,4.80523 -2.6615,9.54025 -8.12203,14.44974 -2.68288,2.41214 -4.87797,5.02732 -4.87797,5.81151 0,2.92571 -6.56291,11.20122 -11.13923,14.04601 -4.68182,2.91038 -4.74668,3.02431 -6.96842,12.24022 C 276.33761,377.11473 276.49562,377 264.45618,377 c -5.45141,0 -7.38368,-0.56656 -14.43644,-4.23291 -4.47844,-2.32811 -8.90248,-4.91561 -9.83118,-5.75 -1.09213,-0.98123 -4.16109,-1.61132 -8.68856,-1.78388 l -7,-0.26678 -16.3589,18.41949 c -8.9974,10.13073 -16.33074,18.76853 -16.29632,19.19511 0.0344,0.42659 3.34593,1.62048 7.3589,2.65309 10.85768,2.79389 23.46054,9.16724 25.83804,13.06646 3.02067,4.95406 2.51052,7.51312 -2.44415,12.26052 -13.29522,12.73907 -60.46414,20.58427 -110.19111,18.32715 z m 38.73323,-9.01816 c 2.75112,-1.03561 9.20873,-7.59546 26.45131,-26.87009 12.54639,-14.025 27.99911,-31.27888 34.33938,-38.34197 l 11.52776,-12.84196 6.02093,0.63152 c 7.50403,0.78708 26.41546,-0.83554 35.31733,-3.03026 10.30699,-2.54115 20.16491,-7.47993 24.4536,-12.25116 3.47633,-3.86746 4.63981,-6.16617 3.12099,-6.16617 -0.34596,0 -3.74778,1.125 -7.5596,2.5 -3.81182,1.375 -7.84127,2.5 -8.95432,2.5 -4.10135,0 -1.11448,-2.14072 6.8206,-4.88839 10.0048,-3.46434 16.0961,-6.95098 20.08941,-11.49911 2.80899,-3.19926 5.07737,-9.10138 3.93645,-10.2423 -0.26773,-0.26774 -3.18488,0.64882 -6.48255,2.03679 C 293.69041,324.15567 280.59948,328 277.7701,328 c -0.97356,0 -1.76455,-0.5625 -1.75776,-1.25 0.007,-0.74174 3.62624,-2.12474 8.90024,-3.40131 17.00393,-4.11578 27.48393,-11.13313 32.4921,-21.75651 2.09076,-4.43494 3.0822,-8.39223 2.70601,-10.80091 -0.0609,-0.38981 -2.24819,0.36394 -4.86069,1.67498 -9.83716,4.93664 -32.68347,11.25944 -33.85202,9.36868 -0.90129,-1.45832 -0.15846,-1.83609 6.75031,-3.43297 11.17544,-2.58305 22.87261,-6.66066 28.18717,-9.82598 10.96053,-6.52805 12.72495,-19.63804 3.88508,-28.86702 -3.70683,-3.87 -11.93229,-9.00514 -13.18464,-8.23115 -1.30045,0.80372 -1.36443,3.52219 -0.0829,3.52219 0.52414,0 1.4099,1.6548 1.96835,3.67733 2.49864,9.04932 -5.54476,16.47025 -21.91304,20.2172 -17.55003,4.01747 -32.60117,3.57337 -38.59159,-1.1387 -3.70393,-2.91351 -1.56523,-4.12577 3.09086,-1.75197 2.15342,1.09788 5.12922,1.99614 6.61289,1.99614 2.64424,0 2.7651,-0.28184 6.11074,-14.25 1.87723,-7.8375 3.3417,-14.36397 3.25437,-14.50326 -0.29953,-0.47778 -27.98375,3.84891 -33.98558,5.3115 -8.22255,2.00377 -18.81728,7.37273 -25.98887,13.17006 -3.59528,2.90633 -10.78941,11.05136 -18,20.37916 -6.60612,8.54585 -29.78613,37.08615 -51.51113,63.42289 -72.571759,87.97716 -66.118684,79.81331 -64.223605,81.24999 3.429722,2.60012 20.2122,6.5544 34.723605,8.18157 11.43494,1.2822 38.15029,0.59814 42.63969,-1.09182 z M 306.03038,264.40794 c 0.81173,-2.45955 0.86143,-3.91613 0.15766,-4.6199 -0.70377,-0.70377 -1.36661,0.19229 -2.10236,2.84207 -1.31625,4.74044 -1.33538,5.36989 -0.16323,5.36989 0.50734,0 1.45592,-1.61643 2.10793,-3.59206 z M 346,260.58333 V 242 h 8.5 8.5 v 18.58333 c 0,14.42169 -0.27993,18.49025 -1.25,18.16767 -0.91832,-0.30537 -1.32275,-4.83837 -1.52418,-17.08333 L 359.95164,245 H 354.5 349.04836 l -0.27418,16.66767 c -0.20143,12.24496 -0.60586,16.77796 -1.52418,17.08333 -0.97007,0.32258 -1.25,-3.74598 -1.25,-18.16767 z m 35,-24.12226 v -42.53894 l 8.75,0.28894 8.75,0.28893 v 41.91667 c 0,32.64444 -0.27651,42.00883 -1.25,42.33333 -0.98648,0.32883 -1.25,-8.24444 -1.25,-40.66667 V 197 h -6 -6 v 41 c 0,35.77778 -0.19106,41 -1.5,41 -1.30983,0 -1.5,-5.39321 -1.5,-42.53893 z m 35,-14.5 v -57.03894 l 8.75,0.28894 8.75,0.28893 v 56.41667 c 0,44.24444 -0.26969,56.50656 -1.25,56.83333 -0.99,0.33 -1.25,-11.14444 -1.25,-55.16667 V 168 h -6 -6 v 55.5 c 0,48.66667 -0.18468,55.5 -1.5,55.5 -1.3158,0 -1.5,-7.00433 -1.5,-57.03893 z m 35.45064,55.77089 c -0.26763,-0.69742 -0.366,-12.50992 -0.21862,-26.25 L 451.5,226.5 h 8.5 8.5 l 0.2666,26.25 c 0.2327,22.91158 0.0737,26.25 -1.25,26.25 C 466.20157,279 466,275.6772 466,254 v -25 h -6 -6 v 25 c 0,16.50716 -0.35038,25 -1.03138,25 -0.56727,0 -1.25036,-0.57062 -1.51798,-1.26804 z m 35.00771,0.018 c -0.26338,-0.6875 -0.36175,-23.525 -0.21861,-50.75 l 0.26026,-49.5 8.75,-0.28893 8.75,-0.28894 v 51.03894 C 504,272.52028 503.81075,279 502.50934,279 c -1.29744,0 -1.52429,-6.4489 -1.75,-49.75 L 500.5,179.5 h -5.5 -5.5 l -0.25934,49.75 c -0.17226,33.04637 -0.60249,49.75 -1.28138,49.75 -0.56213,0 -1.23754,-0.5625 -1.50093,-1.25 z M 522,247.5 V 216 h 8.5 8.5 v 31.5 c 0,27.33333 -0.19841,31.5 -1.5,31.5 -1.3006,0 -1.5,-4.0611 -1.5,-30.5499 v -30.54991 l -5.75,0.29991 -5.75,0.2999 -0.26466,30.25 C 524.06892,267.77083 523.6049,279 522.98534,279 522.35907,279 522,267.52083 522,247.5 Z m 35,13.08333 V 242 h 8.5 8.5 v 18.58333 c 0,14.42169 -0.27993,18.49025 -1.25,18.16767 -0.91832,-0.30537 -1.32275,-4.83837 -1.52418,-17.08333 L 570.95164,245 H 565.5 560.04836 l -0.27418,16.66767 c -0.20143,12.24496 -0.60586,16.77796 -1.52418,17.08333 -0.97007,0.32258 -1.25,-3.74598 -1.25,-18.16767 z M 1,82.5 C 1,81.566667 1.9444444,81 3.5,81 H 6 V 67 53 H 18.5 31 V 67 81 H 36.5 42 V 48.5 16 H 54.5 67 V 48.5 81 h 6 6 V 57.5 34 H 91.5 104 V 57.5 81 h 5.5 5.5 V 41 1 h 12.5 12.5 v 40 40 h 5 c 3.77778,0 5,0.366667 5,1.5 0,1.319911 -8.94444,1.5 -74.5,1.5 C 9.9444444,84 1,83.819911 1,82.5 Z M 27.780779,68.75 27.5,56.5 18.25,56.212474 9,55.924948 V 68.462474 81 h 9.530779 9.530779 z M 64,50 V 19 H 54.5 45 v 31 31 h 9.5 9.5 z m 37,9 V 37 H 91.5 82 v 22 22 h 9.5 9.5 z M 137,42.5 V 4 H 127.5 118 V 42.5 81 h 9.5 9.5 z"
         id="path2" />
    </g>
  </g>
</svg>
