<?xml version="1.0" encoding="UTF-8" standalone="no"?>
<!-- Created with Inkscape (http://www.inkscape.org/) -->

<svg
   version="1.1"
   id="svg1"
   width="574"
   height="450"
   viewBox="0 0 574 450"
   sodipodi:docname="BUSINESS_06.svg"
   inkscape:version="1.3.2 (091e20e, 2023-11-25, custom)"
   xmlns:inkscape="http://www.inkscape.org/namespaces/inkscape"
   xmlns:sodipodi="http://sodipodi.sourceforge.net/DTD/sodipodi-0.dtd"
   xmlns="http://www.w3.org/2000/svg"
   xmlns:svg="http://www.w3.org/2000/svg">
  <defs
     id="defs1" />
  <sodipodi:namedview
     id="namedview1"
     pagecolor="#ffffff"
     bordercolor="#000000"
     borderopacity="0.25"
     inkscape:showpageshadow="2"
     inkscape:pageopacity="0.0"
     inkscape:pagecheckerboard="0"
     inkscape:deskcolor="#d1d1d1"
     showgrid="false"
     inkscape:zoom="1.7439024"
     inkscape:cx="287"
     inkscape:cy="225.06993"
     inkscape:window-width="1920"
     inkscape:window-height="1001"
     inkscape:window-x="-9"
     inkscape:window-y="-9"
     inkscape:window-maximized="1"
     inkscape:current-layer="g1" />
  <g
     inkscape:groupmode="layer"
     inkscape:label="Image"
     id="g1">
    <g
       id="g2">
      <path
         style="fill:#fefefe"
         d="M 0,225 V 0 H 287 574 V 225 450 H 287 0 Z"
         id="path5" />
      <path
         style="fill:#cdc9c7"
         d="m 426.59708,448.39337 c -48.03104,-8.67373 -86.92689,-47.36564 -96.07049,-95.56676 -2.24196,-11.81867 -3.09795,-27.89051 -1.63139,-30.63079 L 330.07037,320 h -49.3987 c -29.00055,0 -51.59272,-0.41609 -54.71202,-1.00765 -17.70671,-3.35801 -32.1526,-18.23334 -35.1246,-36.16876 -1.89959,-11.46364 1.87984,-24.8882 9.69022,-34.41973 4.85618,-5.92633 14.11456,-11.81358 21.88671,-13.91741 L 229,232.70316 v -10.85158 c 0,-5.96837 0.3375,-10.83009 0.75,-10.80383 0.4125,0.0263 5.925,4.96823 12.25,10.98215 l 11.5,10.93441 46.0685,0.0178 c 50.45704,0.0196 51.42662,0.11482 62.18365,6.11014 l 5.25214,2.92723 5.45919,-4.44657 c 3.00256,-2.44562 9.36007,-6.83033 14.1278,-9.74381 l 8.66862,-5.29723 -8.37995,-7.7429 -8.37995,-7.7429 -46.16091,-0.0231 c -42.45713,-0.0212 -46.64932,-0.17507 -52.24813,-1.91762 -19.021,-5.92 -32.17042,-23.92385 -32.06651,-43.90466 0.0553,-10.62443 4.39309,-21.21398 12.18018,-29.7343 5.87468,-6.42784 11.44,-9.94313 19.92027,-12.58248 5.64752,-1.75771 10.10143,-1.884 66.4432,-1.884 58.28363,0 60.60862,0.0719 66.6609,2.06034 13.04816,4.28697 24.36464,15.35772 28.64018,28.01829 4.15352,12.29924 2.30846,28.34331 -4.49971,39.12815 -5.58382,8.84534 -17.73684,17.6593 -26.98721,19.57243 l -3.88226,0.80292 -0.30202,6.37455 c -0.24331,5.1356 -0.0489,6.16894 1,5.31669 2.98726,-2.42708 22.42543,-6.45319 33.11649,-6.85922 9.61035,-0.36499 11.17515,-0.68582 14.05383,-2.88149 4.30808,-3.28594 9.05841,-5.18831 15.1317,-6.05982 2.75,-0.39462 5.675,-1.28502 6.5,-1.97866 4.75933,-4.00151 10.62781,-5.94822 18,-5.971 6.5635,-0.0203 8.18677,0.36419 13,3.0791 3.025,1.70625 6.86629,4.85625 8.53619,7 2.61453,3.35641 3.65611,3.93854 7.5,4.19165 12.83699,0.84529 30.70484,15.43894 38.59171,31.51995 2.09963,4.28106 2.99863,5.31796 3.63101,4.18796 1.06531,-1.9036 4.62924,-1.95688 5.34948,-0.08 0.30009,0.78202 0.07,2.31051 -0.51126,3.39664 -0.90222,1.68583 -0.6845,2.06825 1.48792,2.61349 1.9156,0.48079 2.46693,1.18626 2.22987,2.85336 -0.25323,1.78081 -0.92561,2.18859 -3.43234,2.08162 l -3.11742,-0.13303 0.95778,4.13303 c 1.70256,7.34695 0.39965,24.21482 -2.52064,32.63303 -2.5318,7.29831 -2.56096,7.66135 -1.08436,13.5 2.41693,9.55675 2.92574,33.16927 0.95807,44.4609 -4.18522,24.0172 -15.03604,46.0427 -30.92156,62.76602 -17.82812,18.76838 -41.41275,31.34509 -67.03544,35.74726 -10.92193,1.87647 -30.39587,1.83811 -41.02193,-0.0808 z M 467,379.5824 c 10.175,-1.92408 21.5375,-4.04503 25.25,-4.71322 l 6.75,-1.21488 0.11374,-8.57715 c 0.0625,-4.71743 0.40005,-16.50936 0.75,-26.20428 l 0.63626,-17.62713 -2.83395,-1.0677 c -1.93189,-0.72784 -2.72393,-1.64228 -2.4883,-2.87286 0.27398,-1.43092 1.42378,-1.8476 5.54582,-2.00979 8.21971,-0.32341 13.4276,-3.84889 15.29279,-10.35245 1.70602,-5.94852 -0.24717,-10.05504 -8.08938,-17.00768 -8.78623,-7.78957 -11.33549,-12.38352 -11.33988,-20.43526 -0.004,-6.66555 1.80678,-11.07062 6.64719,-16.17383 l 3.01038,-3.17382 -2.14264,-3.00906 c -3.1816,-4.46815 -10.93181,-10.99817 -16.60203,-13.98824 -4.32842,-2.28249 -6.20885,-2.63691 -14,-2.63867 -7.56555,-0.002 -9.71722,0.37843 -13.5,2.38508 -6.56007,3.47992 -10.00255,6.35403 -14.5,12.10598 -3.88815,4.9727 -4.11398,5.09905 -8.07638,4.51891 -5.12723,-0.75068 -7.32343,0.0799 -8.51786,3.22151 -0.67794,1.78312 -0.51434,3.33039 0.58517,5.53442 1.75376,3.51549 2.21809,2.61157 -7.37144,14.35031 -9.28925,11.37117 -10.55101,14.63921 -10.56635,27.36741 -0.0112,9.29283 0.29418,11.15954 2.6562,16.23671 10.81763,23.25257 40.2396,28.65147 59.88474,10.9888 4.60166,-4.1373 5.17058,-4.38943 6.62427,-2.93573 1.45369,1.45369 1.44896,1.80593 -0.0551,4.10141 -0.90495,1.38113 -4.17212,4.22062 -7.26038,6.30998 -3.08826,2.08935 -7.47978,5.43138 -9.75894,7.42673 -8.64623,7.56954 -16.11841,11.13415 -30.58682,14.59149 -3.12661,0.74713 -3.56553,1.30675 -4.7778,6.09159 -1.60801,6.34689 -0.52789,11.55172 3.35485,16.16609 3.84152,4.56539 10.02215,7.24127 14.86584,6.43611 1.1,-0.18285 10.325,-1.9067 20.5,-3.83078 z m 29.97171,-73.11649 c -1.94125,-2.33906 0.51707,-6.04002 5.66845,-8.53376 5.33991,-2.58501 7.85984,-2.2514 7.85984,1.04055 0,1.98489 -0.64961,2.57817 -3.45009,3.15093 -1.9869,0.40636 -4.24881,1.80208 -5.33341,3.29099 -2.17769,2.9895 -2.98734,3.16889 -4.74479,1.05129 z m -62.19657,-31.96823 c -3.02797,-1.70598 -4.73984,-4.34243 -4.05668,-6.24768 0.63193,-1.76239 3.78461,-1.5537 5.36903,0.35542 1.0713,1.29083 2.46692,1.47705 7.12244,0.95034 5.27711,-0.59704 5.79007,-0.48434 5.79007,1.27214 0,1.05997 -0.67525,2.48762 -1.50055,3.17255 -2.36112,1.95956 -9.625,2.24341 -12.72431,0.49723 z M 453.25,260.34923 c -1.94785,-0.80391 -1.46943,-6.1298 0.75,-8.34923 2.69711,-2.69711 4.80734,-2.51695 6.19512,0.52889 1.86003,4.08234 -2.93093,9.47706 -6.94512,7.82034 z m 8.86804,-8.86757 c -3.53123,-4.02185 -4.89351,-8.10619 -3.25142,-9.74828 2.37655,-2.37655 10.18756,8.0771 8.77865,11.74866 -0.88591,2.30863 -2.14348,1.8535 -5.52723,-2.00038 z M 345,284.5 c 0,-1.31609 -7.11111,-1.5 -58,-1.5 -50.88889,0 -58,0.18391 -58,1.5 0,1.31609 7.11111,1.5 58,1.5 50.88889,0 58,-0.18391 58,-1.5 z m 0,-18 c 0,-1.31609 -7.11111,-1.5 -58,-1.5 -50.88889,0 -58,0.18391 -58,1.5 0,1.31609 7.11111,1.5 58,1.5 50.88889,0 58,-0.18391 58,-1.5 z m 58.7874,-64.0358 c 16.1976,-3.31483 26.12507,-10.64175 32.30113,-23.83968 11.04901,-23.6112 -3.57294,-51.5475 -29.62186,-56.59472 -4.21513,-0.81672 -22.99281,-1.06417 -63.96667,-0.84295 l -58,0.31315 -5.75209,2.32263 c -11.47766,4.63456 -20.28064,14.08583 -24.19715,25.97915 -2.80774,8.52631 -1.90096,20.87982 2.16343,29.47348 5.68678,12.02402 16.39171,20.17585 29.71947,22.63147 3.71951,0.68532 22.47012,1.09327 50.24936,1.09327 h 44.3157 l 9.75064,9.25 9.75064,9.25 0.2874,-9.24033 c 0.28476,-9.15561 0.31227,-9.24543 3,-9.79547 z M 287.5,173 c -0.33992,-0.55 -0.33992,-1.45 0,-2 0.40062,-0.64821 21.17705,-1 59.05902,-1 57.77431,0 58.44098,0.0228 58.44098,2 0,1.97718 -0.66667,2 -58.44098,2 -37.88197,0 -58.6584,-0.35179 -59.05902,-1 z m 0,-18 c -0.33992,-0.55 -0.33992,-1.45 0,-2 0.40062,-0.64821 21.17705,-1 59.05902,-1 57.77431,0 58.44098,0.0228 58.44098,2 0,1.97718 -0.66667,2 -58.44098,2 -37.88197,0 -58.6584,-0.35179 -59.05902,-1 z M 108.43126,254.95978 C 85.12354,252.65267 62.824722,243.59235 44.787743,229.10052 30.930049,217.96655 21.062399,205.65995 13.035342,189.5 3.4115793,170.12559 0.48416744,157.24268 0.53756977,134.5 0.57097648,120.27294 0.88846235,117.2811 3.402732,107.5 9.9669287,81.96373 21.950983,62.50245 42.16088,44.559433 47.159382,40.121598 49.947591,36.644201 52.373625,31.822311 57.258817,22.112693 62.209065,16.65672 72.192035,9.9792199 84.447973,1.7813574 91.877952,-0.40101434 105.47342,0.20364019 c 9.24514,0.41117487 11.04895,0.82238081 17.91883,4.08487501 4.3922,2.0858453 9.87048,5.7382518 12.8895,8.5935158 4.39482,4.156436 6.3191,5.213631 11.80581,6.486085 3.60534,0.836135 8.90221,2.445364 11.77083,3.576065 C 162.727,24.074881 166.08784,25 167.32692,25 c 3.61493,0 13.64671,2.876013 20.04075,5.745486 C 198.69114,35.82716 212,48.639423 212,54.458711 c 0,1.976833 0.42626,2.082581 6.91643,1.715853 15.8105,-0.893373 28.77646,8.499666 32.066,23.229853 2.1356,9.56299 -2.33258,20.718683 -10.77036,26.890293 l -3.82091,2.79471 1.26473,7.20529 c 1.73038,9.85815 1.65111,29.41378 -0.16121,39.774 -4.34421,24.83384 -17.82109,49.76578 -36.1568,66.88931 -25.18102,23.51629 -59.43461,35.31497 -92.90662,32.00176 z m 15.99306,-68.33187 c -5.43088,-11.51718 -6.61997,-17.42281 -6.85987,-34.06972 -0.11843,-8.218 -0.63138,-15.07058 -1.13989,-15.22797 -0.50851,-0.15738 -4.77815,5.15231 -9.48809,11.79931 l -8.56352,12.08546 10.42944,19.84539 10.42944,19.84538 4.27681,-3.57497 4.27682,-3.57498 z m 55.03087,-7.00831 c 5.58131,-2.75844 9.03771,-5.42973 14.25732,-11.01884 7.44387,-7.97082 14.5336,-19.68539 12.35353,-20.41208 C 204.19805,147.56602 198,141.93842 198,140.86502 c 0,-2.16086 3.19385,-1.8797 6.06196,0.53366 1.70032,1.43073 3.64021,2.60132 4.31088,2.60132 1.33936,0 5.87122,-12.79609 5.01977,-14.17377 -0.29116,-0.47109 -2.0736,-1.50175 -3.96099,-2.29035 -3.29711,-1.37763 -4.47965,-3.77013 -2.47564,-5.00868 0.52579,-0.32495 2.51689,0.0614 4.42467,0.85849 4.24883,1.77527 4.31935,1.65047 5.22879,-9.25453 l 0.6518,-7.81566 -8.38062,-0.61244 c -11.32973,-0.82796 -22.22705,-3.79252 -33.40541,-9.087759 l -9.31642,-4.41323 -2.29979,2.448019 c -3.50587,3.731824 -11.78995,8.85924 -17.28714,10.69984 -7.66279,2.5657 -10.83385,2.18808 -14.78226,-1.76033 -10.0245,-10.0245 -26.76854,-4.755363 -29.41608,9.25686 -1.17862,6.23792 3.24205,15.26613 8.98434,18.34848 1.17818,0.63243 4.84128,1.40978 8.14023,1.72746 l 5.9981,0.5776 0.74231,5.96108 c 1.71369,13.76167 7.66667,27.06581 15.6127,34.89236 10.59038,10.43113 23.49638,12.23852 37.60399,5.26616 z M 165.5,164.58836 c -1.65,-0.73335 -3.98252,-2.40324 -5.18339,-3.71086 -4.13515,-4.50278 -5.75043,-12.39006 -2.77153,-13.53317 C 159.23923,146.69422 182,161.29282 182,163.02954 c 0,2.84901 -11.21356,3.90839 -16.5,1.55882 z m 4.97251,-4.9089 c -1.08488,-0.7263 -3.71302,-2.37076 -5.84031,-3.65436 -3.76513,-2.27188 -3.83792,-2.278 -2.74226,-0.23075 1.56734,2.92861 5.09077,5.20565 8.05507,5.20565 2.40037,0 2.42139,-0.0526 0.5275,-1.32054 z m 10.70325,-12.73809 c -1.45639,-0.5839 -2.19514,-1.58707 -1.9785,-2.68661 0.27672,-1.40444 1.17788,-1.68886 4.51391,-1.42467 4.12553,0.32671 4.17504,0.29091 4.84167,-3.5 2.84405,-16.1733 4.24019,-19.93706 6.54177,-17.63548 1.35059,1.35059 -1.66556,20.62306 -3.76468,24.05539 -1.48641,2.43047 -5.80097,2.9367 -10.15417,1.19137 z M 169.5,134.36366 c -3.97753,-2.13043 -7.5,-5.40819 -7.5,-6.97896 0,-2.31777 2.12071,-2.61912 4.32403,-0.61443 3.43301,3.12352 6.22612,4.22973 10.67978,4.22973 3.71647,0 4.10293,0.22788 3.81574,2.25 -0.26364,1.85631 -1.01944,2.29116 -4.31955,2.48526 -2.2037,0.1296 -5.34723,-0.48635 -7,-1.3716 z m 8.07799,-19.02576 c -2.16304,-1.1711 -4.68142,-1.45614 -9.69573,-1.09736 -4.96923,0.35554 -6.90555,0.14114 -7.26856,-0.80483 -1.14364,-2.98029 6.76252,-5.34286 13.57296,-4.05597 4.87846,0.92182 9.89332,4.24826 9.18548,6.09287 -0.73257,1.90903 -2.07708,1.87778 -5.79415,-0.13471 z"
         id="path4" />
      <path
         style="fill:#f9ca42"
         d="m 433.60817,448.86245 c -21.32397,-2.73689 -41.27743,-10.82452 -58.24971,-23.61003 -3.46976,-2.61383 -6.31986,-5.32772 -6.33355,-6.03087 -0.0431,-2.20997 6.65768,-15.47929 11.74444,-23.25725 10.13379,-15.49519 23.30592,-28.35324 36.87017,-35.99103 3.22327,-1.81497 6.01904,-3.4225 6.21284,-3.57229 1.03332,-0.79872 4.8604,-19.95011 4.04528,-20.24332 -2.23498,-0.80397 -10.62159,-8.10431 -13.20962,-11.49866 -1.54659,-2.02844 -4.02159,-6.26903 -5.5,-9.42354 C 406.75898,310.05258 406.5,308.39203 406.5,298 c 0,-10.83093 0.18201,-11.87817 3.12847,-18 1.72066,-3.575 5.85812,-9.70685 9.19436,-13.62634 5.90912,-6.94217 6.038,-7.21716 4.98715,-10.64113 -0.89303,-2.90977 -0.75435,-4.17769 0.80565,-7.36577 2.2261,-4.54934 5.33634,-6.33184 11.08348,-6.35202 3.59748,-0.0126 4.57312,-0.5051 6.80958,-3.43725 2.13518,-2.79936 2.65635,-4.66561 2.86244,-10.25 0.29511,-7.99686 2.72126,-13.44541 8.08345,-18.15347 5.17752,-4.54592 9.03656,-6.27079 15.40794,-6.88686 3.39363,-0.32814 6.43353,-1.26511 7.63748,-2.35406 6.83073,-6.17827 19.99643,-7.77775 29.10601,-3.53605 2.98229,1.38865 6.66479,4.24232 8.85377,6.86104 3.39909,4.0664 4.25262,4.53563 9.17428,5.04359 12.12685,1.2516 29.3608,15.2333 36.8989,29.93564 3.87613,7.56001 4.004,7.68848 5.57983,5.60618 0.88741,-1.17264 2.12426,-1.81503 2.75,-1.4283 1.43765,0.88852 1.47224,3.84977 0.0615,5.26056 -0.76769,0.76769 -0.1691,1.39183 2.09019,2.17943 3.9435,1.37471 3.44968,3.53492 -0.90592,3.96298 -2.92315,0.28727 -3.18659,0.57855 -2.71333,3 3.41331,17.46426 0.0129,33.62278 -10.96499,52.10521 -10.59849,17.84365 -24.55989,26.91118 -44.18019,28.69378 l -7.25,0.6587 v 6.71 6.70999 l 7.46125,3.68755 c 4.10369,2.02815 10.96619,6.29278 15.25,9.47696 8.08677,6.01093 23.28875,21.37989 23.28875,23.54455 0,2.57585 -10.48297,16.43104 -18.82566,24.88158 -10.46814,10.60349 -19.78097,17.21542 -33.43159,23.7358 -20.40225,9.74538 -43.59312,13.60497 -65.13458,10.84016 z m 39.02775,-69.73306 c 13.82475,-2.67869 25.5779,-5.1435 26.1181,-5.47737 0.5402,-0.33386 1.04086,-4.77964 1.11257,-9.87952 0.0717,-5.09987 0.41945,-17.035 0.77275,-26.5225 0.62739,-16.84794 0.59532,-17.25 -1.37604,-17.25 -1.11013,0 -2.54536,-0.63494 -3.18941,-1.41097 -1.67957,-2.02375 0.20869,-2.91792 6.36009,-3.01175 C 510.89765,315.44817 517,309.33376 517,300.98246 c 0,-4.7409 -2.41744,-8.39207 -8.95927,-13.53163 -13.01399,-10.22437 -14.8026,-24.91111 -4.34127,-35.64725 l 3.6018,-3.69643 -3.21174,-3.65798 c -12.58072,-14.32864 -24.68308,-19.46225 -37.8996,-16.07634 -8.11002,2.07769 -12.6088,5.05168 -19.95583,13.19211 -6.06536,6.72034 -6.0925,6.73635 -9.22236,5.43992 -2.78714,-1.15447 -3.4403,-1.0764 -5.82542,0.69634 -2.85813,2.1243 -4.0861,6.79901 -2.26449,8.62062 2.02244,2.02244 1.01266,4.17702 -5.47321,11.67818 -7.78249,9.00076 -11.21452,15.58593 -12.72804,24.42179 -2.72923,15.93318 6.25351,32.99747 21.2461,40.36067 4.97899,2.44529 6.58524,2.71327 16.03333,2.67495 12.24838,-0.0497 16.21867,-1.44086 25.35892,-8.8857 5.39301,-4.39267 7.64108,-5.04253 7.64108,-2.20886 0,1.45709 -5.0082,6.30978 -10,9.68949 -1.925,1.30333 -6.2,4.60014 -9.5,7.32624 -7.34287,6.06589 -15.74315,10.06554 -24.99091,11.89898 -6.88219,1.36445 -7.00929,1.44693 -8.17314,5.30422 -3.18364,10.5513 0.0522,18.93857 9.16405,23.75302 4.51728,2.38682 7.83772,2.0839 35.13592,-3.20541 z M 497,305.22251 c 0,-4.29012 6.1875,-8.7578 11.15506,-8.0545 3.35558,0.47507 2.89588,3.06209 -0.71016,3.99651 -1.68031,0.43541 -4.12125,1.92652 -5.42432,3.31357 -2.7637,2.94182 -5.02058,3.27646 -5.02058,0.74442 z m -63.36514,-32.29509 c -4.82676,-3.79673 -2.6536,-7.47981 2.2669,-3.84193 2.18227,1.61342 3.67643,1.99936 5.77142,1.49072 5.0611,-1.22876 6.7575,-1.11011 7.0846,0.49551 0.79681,3.91119 -10.71412,5.32367 -15.12292,1.8557 z m 18.66659,-14.58424 c -1.01012,-2.63234 1.90465,-6.84318 4.73689,-6.84318 2.83754,0 3.78926,3.0851 1.98927,6.44842 -1.33715,2.49849 -5.81797,2.76147 -6.72616,0.39476 z m 9.2346,-8.07531 C 459.10027,246.6833 458.12192,242 459.80887,242 c 2.50049,0 7.19113,6.34181 7.19113,9.72251 0,3.45501 -2.59769,2.76343 -5.46395,-1.45464 z m -238.25462,67.7625 c -14.33455,-3.40669 -26.82159,-15.76346 -30.80658,-30.48521 -4.11846,-15.21481 0.63855,-31.96445 12.03667,-42.38169 6.05407,-5.53308 14.01384,-9.74412 20.32653,-10.75356 l 4.10061,-0.65572 0.28067,-11.36073 0.28067,-11.36072 11.66193,10.98363 11.66193,10.98363 43.33807,0.008 c 24.5027,0.004 46.16307,0.45088 49.83807,1.02759 18.75849,2.94374 33.03495,17.2523 36.18582,36.26719 2.06244,12.44646 -2.12009,25.51848 -11.25552,35.17785 -6.00042,6.34456 -11.23843,9.65222 -18.8618,11.9107 -4.74614,1.40608 -13.01111,1.5962 -65.5,1.50676 -33.03768,-0.0563 -61.51686,-0.44657 -63.28707,-0.86727 z M 345,283.99194 c 0,-1.99071 -0.5031,-2.00583 -58.23641,-1.75 -54.55021,0.24173 -58.25773,0.36883 -58.57332,2.00806 -0.31778,1.65058 2.9906,1.75 58.23641,1.75 C 344.41168,286 345,285.9798 345,283.99194 Z m 0,-18 c 0,-1.99071 -0.5031,-2.00583 -58.23641,-1.75 -54.55021,0.24173 -58.25773,0.36883 -58.57332,2.00806 -0.31778,1.65058 2.9906,1.75 58.23641,1.75 C 344.41168,268 345,267.97983 345,265.99194 Z M 100.43716,253.44103 C 84.019773,250.68119 65.651804,243.27076 51.63504,233.75216 43.127207,227.9746 30.679931,215.838 23.685269,206.5 20.389434,202.1 15.304947,193.55 12.386409,187.5 -6.4174229,148.52049 -3.1250369,104.26287 21.268436,68.104081 26.844463,59.838658 38.651082,47.068998 44.94155,42.5 47.901338,40.350197 50.122889,37.37708 52.7805,32.009079 59.082127,19.280678 72.342468,7.8915046 86.760552,2.8239562 103.57948,-3.0874209 122.65395,1.1034997 137.14229,13.89351 c 4.23607,3.739515 6.61381,5.003523 11.35771,6.037764 3.3,0.71945 8.7,2.336157 12,3.592683 3.3,1.256526 9.06909,2.742711 12.8202,3.302633 15.93988,2.379319 35.42009,16.32181 38.18252,27.328229 0.59518,2.371369 0.9189,2.459749 8.80758,2.404569 7.01766,-0.04909 9.0075,0.344157 13.90414,2.747813 17.55211,8.615965 22.20917,30.005984 9.39897,43.169719 -2.26238,2.32481 -4.87003,4.63167 -5.7948,5.12636 -1.56085,0.83495 -1.57171,1.61617 -0.15142,10.89807 6.48528,42.3826 -11.96922,86.94752 -46.66719,112.69447 -25.71007,19.07766 -59.71621,27.43068 -90.56284,22.24521 z m 23.66777,-56.19783 4.02748,-3.75679 -3.51882,-7.49321 c -4.99933,-10.6459 -6.85187,-21.1332 -6.446,-36.49114 0.31215,-11.8117 0.21868,-12.56088 -1.53339,-12.29025 -1.05666,0.16321 -5.53849,5.36804 -10.33476,12.00198 l -8.468969,11.71378 10.334769,20.02275 c 5.68412,11.01251 10.68969,20.02881 11.12348,20.03621 0.4338,0.007 2.60109,-1.67709 4.81621,-3.74333 z M 158,188.55902 c 0,-0.24254 -0.45,-0.7191 -1,-1.05902 -0.55,-0.33992 -1,-0.14148 -1,0.44098 0,0.58246 0.45,1.05902 1,1.05902 0.55,0 1,-0.19844 1,-0.44098 z m 21.98439,-8.61034 c 3.56642,-1.89677 9.21871,-6.14868 12.56065,-9.44868 7.05361,-6.96509 16.62616,-21.6096 14.57277,-22.29406 -2.303,-0.76767 -8.11781,-6.36165 -8.11781,-7.80953 0,-2.20089 1.94964,-1.64782 5.65278,1.60359 1.87925,1.65 3.81049,3 4.29165,3 0.48116,0 2.00854,-3.37188 3.39416,-7.49306 l 2.51932,-7.49305 -2.15146,-1.50695 C 211.52315,127.67812 210.03522,127 209.39994,127 c -0.63528,0 -1.71083,-0.66968 -2.39012,-1.48817 -1.89163,-2.27928 1.24322,-3.03095 4.94304,-1.18523 1.66613,0.83117 3.24643,1.15997 3.51176,0.73065 0.7968,-1.28926 2.5197,-18.2736 1.94758,-19.19931 C 217.12057,105.38607 214.00567,105 210.4902,105 c -11.04501,0 -21.90836,-2.81133 -35.71266,-9.242104 l -8.72247,-4.063382 -4.59792,4.238222 c -5.33548,4.918074 -14.96941,9.656084 -21.53469,10.590864 -4.16434,0.59293 -4.72982,0.41935 -6.26462,-1.92306 C 131.24653,100.92043 124.92824,98 119.3777,98 109.69261,98 102,105.81393 102,115.65176 c 0,9.80578 7.16643,17.25661 17.07486,17.75247 l 5.42514,0.27149 0.81914,4.41214 c 4.36226,23.49645 11.78673,36.27076 24.94733,42.92365 5.81795,2.94106 6.80021,3.12563 14.73353,2.76849 7.35971,-0.33131 9.36989,-0.84529 14.98439,-3.83132 z M 163.6413,163.12492 c -1.57229,-1.04913 -3.70682,-3.19393 -4.74341,-4.76622 -1.90574,-2.8906 -2.59445,-9.81017 -1.07018,-10.75222 1.27477,-0.78785 23.35466,14.34505 22.9069,15.6997 -0.24311,0.73553 -3.05109,1.29602 -7.3146,1.46004 -5.45302,0.20978 -7.52604,-0.13816 -9.77871,-1.6413 z M 173,161.53726 c 0,-0.25451 -2.7,-2.29627 -6,-4.53726 -3.38821,-2.30089 -5.98616,-3.51418 -5.9682,-2.78726 C 161.106,157.21673 167.05847,162 170.72251,162 171.97513,162 173,161.79177 173,161.53726 Z m 8.25,-15.19954 c -0.6875,-0.27741 -1.25,-1.15005 -1.25,-1.9392 0,-1.06023 1.0906,-1.3648 4.1775,-1.16666 l 4.17751,0.26814 1.80662,-9.93413 c 0.99364,-5.46376 2.22456,-10.35206 2.73536,-10.86286 0.99917,-0.99917 3.40589,-0.0137 2.72568,1.11609 -0.22548,0.37449 -1.17219,5.1809 -2.10382,10.6809 -0.93162,5.5 -2.15958,10.5625 -2.7288,11.25 -1.01066,1.22067 -7.04946,1.59269 -9.54005,0.58772 z M 168,132.93497 C 162.2998,129.50011 160.28098,126 164,126 c 1.1,0 2,0.40986 2,0.91079 0,1.50141 8.38862,5.08921 11.89906,5.08921 5.01206,0 3.26484,2.44954 -1.97723,2.77201 -3.09675,0.1905 -5.47067,-0.36 -7.92183,-1.83704 z m 9.56445,-18.15191 c -3.2552,-1.67181 -5.02717,-1.90939 -10.25,-1.37429 C 162.22104,113.9306 161,113.78094 161,112.63484 c 0,-2.00379 2.24015,-2.6354 9.33179,-2.6311 6.07705,0.004 12.66821,2.56484 12.66821,4.92254 0,1.88629 -1.56411,1.84508 -5.43555,-0.14322 z M 52.87926,50.75 52.75852,43.5 51.816351,49.36487 C 50.942961,54.801598 51.184556,58 52.468615,58 c 0.292262,0 0.477052,-3.2625 0.410645,-7.25 z M 392,218.97256 l -12.5,-11.93239 -43,-0.0276 c -24.68103,-0.0159 -45.76915,-0.46923 -49.5,-1.06419 -14.7611,-2.35395 -27.19196,-11.4877 -33.78204,-24.82184 -3.6419,-7.36888 -3.71796,-7.75909 -3.71796,-19.07464 0,-10.93299 0.17224,-11.9155 3.21506,-18.33946 6.29078,-13.28106 18.82837,-23.10313 32.7186,-25.63208 7.82078,-1.4239 114.2068,-1.47603 121.67552,-0.0596 23.37607,4.43318 40.08396,27.70938 36.19345,50.42204 -3.01055,17.57546 -14.29557,30.66435 -31.16425,36.14574 l -6.63838,2.1571 0.0217,12.12721 c 0.012,6.66996 -0.21304,12.10581 -0.5,12.07967 -0.28696,-0.0261 -6.14674,-5.4171 -13.02174,-11.97991 z m 14.51682,-16.42281 c 7.08739,-1.06282 17.77947,-6.9732 22.88252,-12.64902 18.95881,-21.08676 12.56806,-52.95345 -13.15168,-65.57922 L 410.5,121.5 h -64 -64 l -5,2.29671 c -7.95069,3.65209 -12.54277,7.27606 -17.16822,13.54878 -15.87674,21.53099 -8.08271,50.77463 16.66822,62.54007 l 5.5,2.61444 48.88452,0.28641 48.88452,0.2864 10.61548,10.06335 10.61548,10.06335 0.28379,-9.99128 0.28378,-9.99128 z M 288,172 c 0,-1.97701 0.66667,-2 58,-2 57.33333,0 58,0.023 58,2 0,1.97701 -0.66667,2 -58,2 -57.33333,0 -58,-0.023 -58,-2 z m 0,-18 c 0,-1.97701 0.66667,-2 58,-2 57.33333,0 58,0.023 58,2 0,1.97701 -0.66667,2 -58,2 -57.33333,0 -58,-0.023 -58,-2 z"
         id="path3" />
      <path
         style="fill:#090913"
         d="m 433.60817,448.86245 c -21.32397,-2.73689 -41.27743,-10.82452 -58.24971,-23.61003 -3.46976,-2.61383 -6.31986,-5.32772 -6.33355,-6.03087 -0.0431,-2.20997 6.65768,-15.47929 11.74444,-23.25725 10.13379,-15.49519 23.30592,-28.35324 36.87017,-35.99103 3.22327,-1.81497 6.01904,-3.4225 6.21284,-3.57229 1.03332,-0.79872 4.8604,-19.95011 4.04528,-20.24332 -2.23498,-0.80397 -10.62159,-8.10431 -13.20962,-11.49866 -1.54659,-2.02844 -4.02159,-6.26903 -5.5,-9.42354 C 406.75898,310.05258 406.5,308.39203 406.5,298 c 0,-10.83093 0.18201,-11.87817 3.12847,-18 1.72066,-3.575 5.85812,-9.70685 9.19436,-13.62634 5.90912,-6.94217 6.038,-7.21716 4.98715,-10.64113 -0.89303,-2.90977 -0.75435,-4.17769 0.80565,-7.36577 2.2261,-4.54934 5.33634,-6.33184 11.08348,-6.35202 3.59748,-0.0126 4.57312,-0.5051 6.80958,-3.43725 2.13518,-2.79936 2.65635,-4.66561 2.86244,-10.25 0.29511,-7.99686 2.72126,-13.44541 8.08345,-18.15347 5.17752,-4.54592 9.03656,-6.27079 15.40794,-6.88686 3.39363,-0.32814 6.43353,-1.26511 7.63748,-2.35406 6.83073,-6.17827 19.99643,-7.77775 29.10601,-3.53605 2.98229,1.38865 6.66479,4.24232 8.85377,6.86104 3.39909,4.0664 4.25262,4.53563 9.17428,5.04359 12.12685,1.2516 29.3608,15.2333 36.8989,29.93564 3.87613,7.56001 4.004,7.68848 5.57983,5.60618 0.88741,-1.17264 2.12426,-1.81503 2.75,-1.4283 1.43765,0.88852 1.47224,3.84977 0.0615,5.26056 -0.76769,0.76769 -0.1691,1.39183 2.09019,2.17943 3.9435,1.37471 3.44968,3.53492 -0.90592,3.96298 -2.92315,0.28727 -3.18659,0.57855 -2.71333,3 3.41331,17.46426 0.0129,33.62278 -10.96499,52.10521 -10.59849,17.84365 -24.55989,26.91118 -44.18019,28.69378 l -7.25,0.6587 v 6.71 6.70999 l 7.46125,3.68755 c 4.10369,2.02815 10.96619,6.29278 15.25,9.47696 8.08677,6.01093 23.28875,21.37989 23.28875,23.54455 0,2.57585 -10.48297,16.43104 -18.82566,24.88158 -10.46814,10.60349 -19.78097,17.21542 -33.43159,23.7358 -20.40225,9.74538 -43.59312,13.60497 -65.13458,10.84016 z m 39.02775,-69.73306 c 13.82475,-2.67869 25.5779,-5.1435 26.1181,-5.47737 0.5402,-0.33386 1.04086,-4.77964 1.11257,-9.87952 0.0717,-5.09987 0.41945,-17.035 0.77275,-26.5225 0.62739,-16.84794 0.59532,-17.25 -1.37604,-17.25 -1.11013,0 -2.54536,-0.63494 -3.18941,-1.41097 -1.67957,-2.02375 0.20869,-2.91792 6.36009,-3.01175 C 510.89765,315.44817 517,309.33376 517,300.98246 c 0,-4.7409 -2.41744,-8.39207 -8.95927,-13.53163 -13.01399,-10.22437 -14.8026,-24.91111 -4.34127,-35.64725 l 3.6018,-3.69643 -3.21174,-3.65798 c -12.58072,-14.32864 -24.68308,-19.46225 -37.8996,-16.07634 -8.11002,2.07769 -12.6088,5.05168 -19.95583,13.19211 -6.06536,6.72034 -6.0925,6.73635 -9.22236,5.43992 -2.78714,-1.15447 -3.4403,-1.0764 -5.82542,0.69634 -2.85813,2.1243 -4.0861,6.79901 -2.26449,8.62062 2.02244,2.02244 1.01266,4.17702 -5.47321,11.67818 -7.78249,9.00076 -11.21452,15.58593 -12.72804,24.42179 -2.72923,15.93318 6.25351,32.99747 21.2461,40.36067 4.97899,2.44529 6.58524,2.71327 16.03333,2.67495 12.24838,-0.0497 16.21867,-1.44086 25.35892,-8.8857 5.39301,-4.39267 7.64108,-5.04253 7.64108,-2.20886 0,1.45709 -5.0082,6.30978 -10,9.68949 -1.925,1.30333 -6.2,4.60014 -9.5,7.32624 -7.34287,6.06589 -15.74315,10.06554 -24.99091,11.89898 -6.88219,1.36445 -7.00929,1.44693 -8.17314,5.30422 -3.18364,10.5513 0.0522,18.93857 9.16405,23.75302 4.51728,2.38682 7.83772,2.0839 35.13592,-3.20541 z M 497,305.22251 c 0,-4.29012 6.1875,-8.7578 11.15506,-8.0545 3.35558,0.47507 2.89588,3.06209 -0.71016,3.99651 -1.68031,0.43541 -4.12125,1.92652 -5.42432,3.31357 -2.7637,2.94182 -5.02058,3.27646 -5.02058,0.74442 z m -63.36514,-32.29509 c -4.82676,-3.79673 -2.6536,-7.47981 2.2669,-3.84193 2.18227,1.61342 3.67643,1.99936 5.77142,1.49072 5.0611,-1.22876 6.7575,-1.11011 7.0846,0.49551 0.79681,3.91119 -10.71412,5.32367 -15.12292,1.8557 z m 18.66659,-14.58424 c -1.01012,-2.63234 1.90465,-6.84318 4.73689,-6.84318 2.83754,0 3.78926,3.0851 1.98927,6.44842 -1.33715,2.49849 -5.81797,2.76147 -6.72616,0.39476 z m 9.2346,-8.07531 C 459.10027,246.6833 458.12192,242 459.80887,242 c 2.50049,0 7.19113,6.34181 7.19113,9.72251 0,3.45501 -2.59769,2.76343 -5.46395,-1.45464 z m -238.25462,67.7625 c -14.33455,-3.40669 -26.82159,-15.76346 -30.80658,-30.48521 -4.11846,-15.21481 0.63855,-31.96445 12.03667,-42.38169 6.05407,-5.53308 14.01384,-9.74412 20.32653,-10.75356 l 4.10061,-0.65572 0.28067,-11.36073 0.28067,-11.36072 11.66193,10.98363 11.66193,10.98363 43.33807,0.008 c 24.5027,0.004 46.16307,0.45088 49.83807,1.02759 18.75849,2.94374 33.03495,17.2523 36.18582,36.26719 2.06244,12.44646 -2.12009,25.51848 -11.25552,35.17785 -6.00042,6.34456 -11.23843,9.65222 -18.8618,11.9107 -4.74614,1.40608 -13.01111,1.5962 -65.5,1.50676 -33.03768,-0.0563 -61.51686,-0.44657 -63.28707,-0.86727 z M 345,283.99194 c 0,-1.99071 -0.5031,-2.00583 -58.23641,-1.75 -54.55021,0.24173 -58.25773,0.36883 -58.57332,2.00806 -0.31778,1.65058 2.9906,1.75 58.23641,1.75 C 344.41168,286 345,285.9798 345,283.99194 Z m 0,-18 c 0,-1.99071 -0.5031,-2.00583 -58.23641,-1.75 -54.55021,0.24173 -58.25773,0.36883 -58.57332,2.00806 -0.31778,1.65058 2.9906,1.75 58.23641,1.75 C 344.41168,268 345,267.97983 345,265.99194 Z M 100.43716,253.44103 C 83.990944,250.67635 65.670335,243.27843 51.55779,233.7034 44.825997,229.13604 27,212.34605 27,210.57286 c 0,-0.62326 4.219482,-9.21963 9.376626,-19.10303 11.198907,-21.46214 15.592852,-26.86281 26.067018,-32.03943 8.677108,-4.28846 19.538758,-5.52252 28.117708,-3.19463 l 5.061352,1.37339 4.247418,-5.76965 4.247418,-5.76964 -4.01424,-5.31682 C 92.460866,130.63071 88.053884,117.33897 88.017364,104.30108 L 88,98.102164 81.46321,94.982442 C 64.513921,86.893292 53.195132,69.304525 52.881784,50.568499 L 52.763567,43.5 l -1.02838,4.960281 c -1.507554,7.27152 0.437323,18.346543 4.776749,27.201007 2.676602,5.461524 5.330907,8.862162 11.18287,14.32725 5.753838,5.373451 7.329681,7.378294 6.299783,8.014806 C 70.715848,100.02972 58.628992,88.106623 53.269641,77.559193 47.35686,65.922589 46.179414,49.776871 50.376519,37.887276 59.415651,12.281144 88.30493,-4.488859 113.25893,1.3845225 125.54181,4.2755222 136.67941,11.525425 143.01229,20.752149 l 3.48771,5.081444 12,-0.101162 c 13.48138,-0.113651 20.81026,1.376204 30.27658,6.154789 11.09558,5.601027 20.97188,15.278057 22.72614,22.267599 0.59518,2.371369 0.9189,2.459749 8.80758,2.404569 7.01766,-0.04909 9.0075,0.344157 13.90414,2.747813 17.11358,8.400702 21.99607,28.740671 10.20553,42.515259 -3.98436,4.65483 -11.83667,8.77158 -18.52721,9.71332 l -4.60725,0.64849 -1.1397,8.05908 c -0.81892,5.79076 -0.83487,8.42638 -0.0567,9.36406 1.25101,1.50737 0.40111,3.39259 -1.52944,3.39259 -0.72725,0 -1.81758,1.96706 -2.42296,4.37125 -0.60538,2.40418 -1.38195,5.10418 -1.72571,6 -0.47902,1.24832 -0.0161,1.62875 1.98198,1.62875 1.56167,0 2.60699,0.55855 2.60699,1.39301 0,1.50402 -2.09292,2.60699 -4.94682,2.60699 -1.16805,0 -3.34548,2.67363 -6.31168,7.75 -11.74593,20.10208 -29.28756,32.07521 -45.4915,31.05047 -3.4375,-0.21739 -6.25,-0.26819 -6.25,-0.11289 0,0.15531 1.34914,2.475 2.99808,5.15488 4.72085,7.67235 10.48603,20.62245 14.922,33.5187 2.24395,6.52363 4.07992,12.29041 4.07992,12.81507 0,1.33505 -12.88324,7.10694 -22.82838,10.22745 -17.28248,5.42278 -37.58466,6.92032 -54.73446,4.03735 z m 23.66777,-56.19783 4.02748,-3.75679 -3.51882,-7.49321 c -4.99933,-10.6459 -6.85187,-21.1332 -6.446,-36.49114 0.31215,-11.8117 0.21868,-12.56088 -1.53339,-12.29025 -1.05666,0.16321 -5.53849,5.36804 -10.33476,12.00198 l -8.468969,11.71378 10.334769,20.02275 c 5.68412,11.01251 10.68969,20.02881 11.12348,20.03621 0.4338,0.007 2.60109,-1.67709 4.81621,-3.74333 z m 55.87946,-17.29452 c 3.56642,-1.89677 9.21871,-6.14868 12.56065,-9.44868 7.05361,-6.96509 16.62616,-21.6096 14.57277,-22.29406 -2.303,-0.76767 -8.11781,-6.36165 -8.11781,-7.80953 0,-2.20089 1.94964,-1.64782 5.65278,1.60359 1.87925,1.65 3.81049,3 4.29165,3 0.48116,0 2.00854,-3.37188 3.39416,-7.49306 l 2.51932,-7.49305 -2.15146,-1.50695 C 211.52315,127.67812 210.03522,127 209.39994,127 c -0.63528,0 -1.71083,-0.66968 -2.39012,-1.48817 -1.89163,-2.27928 1.24322,-3.03095 4.94304,-1.18523 1.66613,0.83117 3.24643,1.15997 3.51176,0.73065 0.7968,-1.28926 2.5197,-18.2736 1.94758,-19.19931 C 217.12057,105.38607 214.00567,105 210.4902,105 c -11.04501,0 -21.90836,-2.81133 -35.71266,-9.242104 l -8.72247,-4.063382 -4.59792,4.238222 c -5.33548,4.918074 -14.96941,9.656084 -21.53469,10.590864 -4.16434,0.59293 -4.72982,0.41935 -6.26462,-1.92306 C 131.24653,100.92043 124.92824,98 119.3777,98 109.69261,98 102,105.81393 102,115.65176 c 0,9.80578 7.16643,17.25661 17.07486,17.75247 l 5.42514,0.27149 0.81914,4.41214 c 4.36226,23.49645 11.78673,36.27076 24.94733,42.92365 5.81795,2.94106 6.80021,3.12563 14.73353,2.76849 7.35971,-0.33131 9.36989,-0.84529 14.98439,-3.83132 z M 163.6413,163.12492 c -1.57229,-1.04913 -3.70682,-3.19393 -4.74341,-4.76622 -1.90574,-2.8906 -2.59445,-9.81017 -1.07018,-10.75222 1.27477,-0.78785 23.35466,14.34505 22.9069,15.6997 -0.24311,0.73553 -3.05109,1.29602 -7.3146,1.46004 -5.45302,0.20978 -7.52604,-0.13816 -9.77871,-1.6413 z M 173,161.53726 c 0,-0.25451 -2.7,-2.29627 -6,-4.53726 -3.38821,-2.30089 -5.98616,-3.51418 -5.9682,-2.78726 C 161.106,157.21673 167.05847,162 170.72251,162 171.97513,162 173,161.79177 173,161.53726 Z m 8.25,-15.19954 c -0.6875,-0.27741 -1.25,-1.15005 -1.25,-1.9392 0,-1.06023 1.0906,-1.3648 4.1775,-1.16666 l 4.17751,0.26814 1.80662,-9.93413 c 0.99364,-5.46376 2.22456,-10.35206 2.73536,-10.86286 0.99917,-0.99917 3.40589,-0.0137 2.72568,1.11609 -0.22548,0.37449 -1.17219,5.1809 -2.10382,10.6809 -0.93162,5.5 -2.15958,10.5625 -2.7288,11.25 -1.01066,1.22067 -7.04946,1.59269 -9.54005,0.58772 z M 168,132.93497 C 162.2998,129.50011 160.28098,126 164,126 c 1.1,0 2,0.40986 2,0.91079 0,1.50141 8.38862,5.08921 11.89906,5.08921 5.01206,0 3.26484,2.44954 -1.97723,2.77201 -3.09675,0.1905 -5.47067,-0.36 -7.92183,-1.83704 z m 9.56445,-18.15191 c -3.2552,-1.67181 -5.02717,-1.90939 -10.25,-1.37429 C 162.22104,113.9306 161,113.78094 161,112.63484 c 0,-2.00379 2.24015,-2.6354 9.33179,-2.6311 6.07705,0.004 12.66821,2.56484 12.66821,4.92254 0,1.88629 -1.56411,1.84508 -5.43555,-0.14322 z M 392,218.97256 l -12.5,-11.93239 -43,-0.0276 c -24.68103,-0.0159 -45.76915,-0.46923 -49.5,-1.06419 -14.7611,-2.35395 -27.19196,-11.4877 -33.78204,-24.82184 -3.6419,-7.36888 -3.71796,-7.75909 -3.71796,-19.07464 0,-10.93299 0.17224,-11.9155 3.21506,-18.33946 6.29078,-13.28106 18.82837,-23.10313 32.7186,-25.63208 7.82078,-1.4239 114.2068,-1.47603 121.67552,-0.0596 23.37607,4.43318 40.08396,27.70938 36.19345,50.42204 -3.01055,17.57546 -14.29557,30.66435 -31.16425,36.14574 l -6.63838,2.1571 0.0217,12.12721 c 0.012,6.66996 -0.21304,12.10581 -0.5,12.07967 -0.28696,-0.0261 -6.14674,-5.4171 -13.02174,-11.97991 z m 14.51682,-16.42281 c 7.08739,-1.06282 17.77947,-6.9732 22.88252,-12.64902 18.95881,-21.08676 12.56806,-52.95345 -13.15168,-65.57922 L 410.5,121.5 h -64 -64 l -5,2.29671 c -7.95069,3.65209 -12.54277,7.27606 -17.16822,13.54878 -15.87674,21.53099 -8.08271,50.77463 16.66822,62.54007 l 5.5,2.61444 48.88452,0.28641 48.88452,0.2864 10.61548,10.06335 10.61548,10.06335 0.28379,-9.99128 0.28378,-9.99128 z M 288,172 c 0,-1.97701 0.66667,-2 58,-2 57.33333,0 58,0.023 58,2 0,1.97701 -0.66667,2 -58,2 -57.33333,0 -58,-0.023 -58,-2 z m 0,-18 c 0,-1.97701 0.66667,-2 58,-2 57.33333,0 58,0.023 58,2 0,1.97701 -0.66667,2 -58,2 -57.33333,0 -58,-0.023 -58,-2 z"
         id="path2" />
    </g>
  </g>
</svg>
