<?xml version="1.0" encoding="UTF-8" standalone="no"?>
<!-- Created with Inkscape (http://www.inkscape.org/) -->

<svg
   version="1.1"
   id="svg1"
   width="549"
   height="450"
   viewBox="0 0 549 450"
   sodipodi:docname="BUSINESS_16.svg"
   inkscape:version="1.3.2 (091e20e, 2023-11-25, custom)"
   xmlns:inkscape="http://www.inkscape.org/namespaces/inkscape"
   xmlns:sodipodi="http://sodipodi.sourceforge.net/DTD/sodipodi-0.dtd"
   xmlns="http://www.w3.org/2000/svg"
   xmlns:svg="http://www.w3.org/2000/svg">
  <defs
     id="defs1" />
  <sodipodi:namedview
     id="namedview1"
     pagecolor="#ffffff"
     bordercolor="#000000"
     borderopacity="0.25"
     inkscape:showpageshadow="2"
     inkscape:pageopacity="0.0"
     inkscape:pagecheckerboard="0"
     inkscape:deskcolor="#d1d1d1"
     showgrid="false"
     inkscape:zoom="1.7488889"
     inkscape:cx="274.74587"
     inkscape:cy="225"
     inkscape:window-width="1920"
     inkscape:window-height="1001"
     inkscape:window-x="-9"
     inkscape:window-y="-9"
     inkscape:window-maximized="1"
     inkscape:current-layer="g1" />
  <g
     inkscape:groupmode="layer"
     inkscape:label="Image"
     id="g1">
    <g
       id="g2"
       transform="translate(0.06956173)">
      <path
         style="fill:#fefefe"
         d="M 0,225 V 0 H 274.5 549 V 225 450 H 274.5 0 Z"
         id="path8" />
      <path
         style="fill:#ccccce"
         d="m 42.5,448.47628 c -20.434076,-3.293 -37.0119865,-10.76431 -41.0010515,-18.47831 -2.06511908,-3.9935 -1.87060902,-9.87617 0.4525336,-13.68621 2.6020301,-4.26743 10.8218959,-9.66148 19.6037519,-12.8644 l 7.180032,-2.6187 20.654894,-66.16433 c 11.360192,-36.39038 20.644757,-66.67402 20.632367,-67.29697 -0.01239,-0.62296 -7.568001,-10.97296 -16.790247,-23 C 44.010034,232.34031 32.918658,217.8638 28.584779,212.19733 L 20.705,201.89466 17.879742,166.19733 c -1.553892,-19.63353 -2.837517,-36.20105 -2.8525,-36.8167 -0.01498,-0.61566 1.860478,-3.49025 4.167691,-6.38799 l 4.194933,-5.26861 1.63927,-32.504198 C 26.480719,56.437178 26.870977,52.567512 28.43768,51.421911 30.450023,49.95045 32.995339,50.65234 39.5,54.472432 48.0131,59.47205 51.86448,66.861383 52.023364,78.5 l 0.05461,4 5.269369,-5.860232 c 6.543812,-7.277581 8.122255,-7.200525 12.015916,0.586583 3.739286,7.478364 4.627863,16.889924 2.195867,23.258009 -1.679336,4.39729 -1.669203,4.5523 0.496405,7.59362 4.370679,6.13805 3.855395,15.69417 -1.262928,23.42142 l -3.17071,4.7869 3.831444,7.44289 c 3.897296,7.57081 14.86514,22.47424 20.305917,27.59228 l 2.999388,2.82147 0.170248,-10.65783 c 0.321942,-20.15413 1.620663,-30.20604 4.456283,-34.49095 l 2.550637,-3.85428 -3.886523,-8.31994 C 91.907525,103.67221 90.549492,97.428998 90.58396,82.5 90.620148,66.82628 92.079442,60.593717 99.018102,46.478251 104.25525,35.824213 111.8219,25.80008 119.07631,19.905577 c 6.03108,-4.900493 12.57428,-8.921658 13.31383,-8.182103 0.33542,0.335422 0.60986,0.06122 0.60986,-0.609347 0,-1.5336284 10.58277,-6.5073441 18.5,-8.6946706 3.3644,-0.9294981 11.49083,-1.87058113 18.5,-2.14239752 10.40246,-0.40340866 13.97689,-0.1328202 21.30135,1.61253812 21.12443,5.0337777 38.50199,16.988254 50.15656,34.503999 9.75238,14.656913 13.67724,27.689808 13.71139,45.530005 0.0389,20.329729 -5.57254,36.607779 -18.14165,52.626519 l -4.74724,6.05013 7.84667,-2.07639 7.84666,-2.0764 11.99653,-19.97373 c 6.59809,-10.98555 13.21503,-20.959238 14.70432,-22.163748 4.01668,-3.248613 151.89961,-39.800046 157.08823,-38.826655 8.44031,1.583413 14.14699,12.010097 10.8682,19.857334 -2.58972,6.198079 -69.67869,116.027659 -72.50915,118.702809 -1.80038,1.7016 -8.47202,4.48236 -20.1565,8.40129 -9.60595,3.2218 -17.62249,5.98436 -17.81453,6.13902 -0.75165,0.60536 5.33042,10.55814 11.36805,18.60281 12.24967,16.32175 31.49778,32.29973 50.23111,41.69718 4.5375,2.2762 8.22801,4.47103 8.20114,4.87739 -0.0549,0.83073 -77.70388,54.57196 -79.52041,55.03647 -1.66931,0.42687 -15.35284,-13.41554 -21.74901,-22.00153 C 286.70908,288.0397 275.82815,261.37163 273.428,240 l -0.61768,-5.5 6.59484,-4.82976 C 283.03232,227.01386 286,224.7334 286,224.60253 c 0,-0.13087 -24.1875,8.07824 -53.75,18.24246 -32.82256,11.2851 -55.33341,18.51439 -57.81684,18.5677 -3.67093,0.0788 -5.47187,-0.96549 -18.5,-10.72755 L 141.5,239.87028 l -1.30924,7.81486 c -4.97854,29.71691 -15.99001,82.17727 -27.13707,129.28515 C 110.27416,388.7167 108,398.66471 108,399.07698 c 0,0.41227 3.0375,1.72669 6.75,2.92093 9.36861,3.01371 15.64229,6.61914 20.2884,11.65958 3.29003,3.56925 3.9616,5.00207 3.9616,8.45213 0,2.4337 -0.84342,5.519 -2.03639,7.44926 -4.2792,6.92389 -18.73273,13.94651 -36.96361,17.95974 -10.634661,2.34104 -45.329968,2.91889 -57.5,0.95766 z M 87,428.97241 c 4.125,-1.15062 8.00631,-2.62762 8.625133,-3.28222 2.010095,-2.12632 24.641177,-99.93133 33.362417,-144.18276 5.05154,-25.6314 8.06375,-44.79172 7.17505,-45.63957 -0.36443,-0.34768 -12.15822,-9.1599 -26.20842,-19.5827 -14.050204,-10.42281 -26.537704,-20.21153 -27.750002,-21.75272 -4.084259,-5.19229 -2.110772,-13.97802 3.82985,-17.05004 l 3.000174,-1.55145 -6.029232,-7.00525 c -3.316078,-3.85288 -7.199576,-8.77375 -8.629997,-10.93526 l -2.600764,-3.93002 -2.382377,4.71979 c -1.310307,2.59588 -5.462234,8.19339 -9.226505,12.43891 l -6.844129,7.71912 1.504649,7.00786 c 1.438552,6.70002 1.662123,7.05814 5.089401,8.15225 10.928676,3.48884 26.906928,15.05472 31.324154,22.67404 1.483718,2.55928 1.532776,3.1718 0.333735,4.16691 -1.13495,0.94193 -2.914366,-0.36004 -9.239402,-6.76028 -8.005171,-8.10035 -14.516042,-12.15922 -25.025506,-15.60087 l -5.191771,-1.7002 -1.134668,-5.68898 c -0.624068,-3.12893 -1.568616,-7.38019 -2.098997,-9.44723 -0.952615,-3.71261 -0.872459,-3.86444 6.599091,-12.5 4.15988,-4.80796 8.471224,-10.60849 9.580763,-12.89008 1.7748,-3.6496 1.877518,-4.70364 0.854353,-8.767 -0.639645,-2.54026 -1.549275,-4.85739 -2.021401,-5.14918 -0.472126,-0.29179 -7.205494,5.22836 -14.96304,12.26699 -13.248412,12.02066 -17.612647,14.75727 -18.636396,11.68602 -0.203777,-0.61133 6.562887,-7.32343 15.03703,-14.91578 C 69.24173,130.05203 74.870959,119.6248 67.502267,110.40813 L 65.177232,107.5 62.478776,110 c -2.283522,2.11558 -21.305532,24.4913 -36.186963,42.56696 l -4.171557,5.06697 1.742476,21.43303 1.742475,21.43304 22.947397,29.79185 c 12.621068,16.38551 23.952978,31.24584 25.182024,33.02296 l 2.234627,3.23111 -7.865769,24.97704 C 63.777314,305.26033 58.567719,321.9 56.52661,328.5 c -2.04111,6.6 -7.455944,23.925 -12.032964,38.5 -4.57702,14.575 -10.219445,32.575 -12.538722,40 -2.319277,7.425 -4.401824,13.98627 -4.627882,14.58061 -0.516936,1.35908 19.075219,8.12206 27.172958,9.37978 8.718013,1.35405 23.833374,0.42947 32.5,-1.98798 z M 357.29195,299.37937 c 18.81443,-12.99135 34.5774,-23.9582 35.02882,-24.37078 0.45143,-0.41257 -2.57198,-2.61218 -6.71868,-4.88803 -24.15727,-13.25827 -46.97904,-36.79582 -58.99027,-60.84041 l -3.6066,-7.21985 -20.75261,16.08594 c -11.41393,8.84727 -21.60124,16.68138 -22.63846,17.40915 -1.83826,1.28982 -1.8405,1.55815 -0.0888,10.63391 5.11739,26.51461 17.50822,51.14592 34.91727,69.41089 3.88159,4.07242 7.41381,7.40337 7.84938,7.40211 0.43557,-10e-4 16.18557,-10.63159 35,-23.62293 z m -36.21789,6.75902 c -0.87109,-1.62765 0.80983,-3.13578 13.37482,-12 C 342.353,288.56228 349.26236,284 349.80301,284 350.60597,284 352,286.2047 352,287.47459 352,287.91539 323.22279,308 322.59121,308 c -0.28646,0 -0.96918,-0.83772 -1.51715,-1.86161 z m -17.55762,-22.12023 c -1.53186,-1.69268 -0.53215,-2.58269 17.87929,-15.91729 10.72604,-7.76839 20.14185,-14.36993 20.92403,-14.67008 1.9185,-0.7362 3.0895,2.59756 1.46698,4.17639 -0.70771,0.68865 -9.69296,7.31626 -19.96723,14.72801 -17.71164,12.77699 -18.76464,13.38292 -20.30307,11.68297 z m -7.43517,-12.8663 c -0.85874,-1.60457 0.83174,-3.18323 12.82704,-11.97852 7.59888,-5.5717 14.48104,-10.38552 15.2937,-10.69736 1.32043,-0.5067 4.65889,2.10711 3.69049,2.88944 C 324.91174,253.77345 297.99543,273 297.60506,273 c -0.29408,0 -0.97979,-0.83166 -1.52379,-1.84814 z M 171.96187,246.25 c -0.021,-0.96273 -2.38278,-3.34966 -5.25,-5.30584 -2.86653,-1.95571 -21.09915,-14.95843 -40.51695,-28.89492 -24.2765,-17.42369 -35.62759,-25.01657 -36.337525,-24.30664 -0.709935,0.70994 0.01012,1.85299 2.305077,3.65919 6.647463,5.23176 78.356908,56.5089 79.087528,56.55297 0.4125,0.0249 0.73284,-0.74226 0.71187,-1.70476 z m 36.27784,-25.8282 c 9.20684,-14.80699 22.31798,-35.9218 29.13587,-46.9218 6.81788,-11 19.19751,-30.96146 27.51029,-44.3588 C 273.19864,115.74386 280,104.34837 280,103.81788 c 0,-0.53049 -0.66308,-0.81903 -1.47351,-0.6412 C 276.92219,103.5287 189,244.58647 189,246.8083 c 0,3.6507 3.82283,-1.59215 19.23971,-26.3865 z m 123.86107,-47.58185 c 4.6242,-1.57809 7.83253,-4.20768 11.03409,-9.04367 C 349.959,153.48834 346.10112,142 335.81548,142 c -4.74179,0 -8.26732,1.73664 -12.5148,6.16468 -8.22886,8.57867 -8.22183,20.78964 0.014,24.37166 3.95485,1.72008 4.57289,1.74144 8.78607,0.30361 z m -7.7796,-3.02868 c -5.24049,-2.53357 -5.38671,-10.65981 -0.31773,-17.65733 6.01441,-8.30265 15.55673,-9.80789 18.45649,-2.91138 2.75407,6.55 -2.09509,16.32547 -9.84385,19.84432 -4.68296,2.12662 -5.28563,2.17925 -8.29491,0.72439 z M 112,170.31497 c 6.325,-1.49696 11.59535,-2.76307 11.71188,-2.81358 0.11654,-0.0505 -1.13393,-5.19163 -2.77882,-11.42474 -2.87813,-10.90636 -3.21545,-11.57819 -8.96188,-17.84941 C 108.68703,134.64317 106,131.32583 106,130.85538 106,130.38492 105.52704,130 104.94897,130 c -2.46139,0 -3.90755,7.16885 -4.46868,22.15197 -0.31614,8.44142 -0.767279,16.58553 -1.002541,18.09803 -0.235262,1.5125 -0.101499,2.75826 0.297251,2.76836 0.39875,0.0101 5.9,-1.20643 12.225,-2.70339 z m 28.95156,-7.11631 7.45156,-1.72453 -6.97148,-2.73516 c -3.83431,-1.50435 -9.28118,-4.25629 -12.10414,-6.11543 l -5.13267,-3.38026 1.93478,7.12836 c 2.73111,10.06232 2.55366,9.74509 5.09843,9.11451 1.24958,-0.30963 5.62516,-1.33901 9.72352,-2.28749 z M 58.354738,107.25 C 61.147056,104.3625 63.93732,102 64.555325,102 66.357594,102 68,97.294545 68,92.131086 68,87.478431 65.568012,78.469085 64.060585,77.537443 63.646872,77.281755 53.56137,88.981256 41.64836,103.53633 l -21.66002,26.46378 0.58951,8.74995 c 0.324231,4.81247 0.765924,9.32076 0.981541,10.01843 0.215617,0.69767 7.440465,-7.17733 16.055218,-17.5 C 46.229362,120.94582 55.56242,110.1375 58.354738,107.25 Z M 40.968924,96.941554 48.092719,88.5 47.477543,81.5 C 46.5751,71.231236 45.157098,65.797975 42.689828,63.155239 40.415393,60.719052 32.14286,55.477605 31.59959,56.128506 31.25839,56.537303 28.95828,102.39117 28.997626,108 l 0.02455,3.5 2.411474,-3.05845 c 1.326312,-1.68214 5.617183,-6.85714 9.535271,-11.499996 z M 454.5,448.44427 c -21.33387,-3.22858 -38.82893,-11.56822 -43.33915,-20.65912 -2.06644,-4.16516 -2.20059,-5.1347 -1.15067,-8.316 0.65367,-1.98063 2.8011,-5.21376 4.77207,-7.18473 3.72508,-3.72508 14.54947,-9.24599 22.06023,-11.25169 4.04853,-1.08113 4.2958,-1.34149 3.65273,-3.84618 C 438.06189,387.70896 425.28793,331.58906 421.10512,312 411.62037,267.58078 406,234.50362 406,223.10303 c 0,-4.6184 1.54316,-10.84308 15.14801,-61.10303 11.5443,-42.64772 10.64482,-39.9099 13.33369,-40.58476 3.09581,-0.777 10.25802,2.51412 13.88336,6.37957 3.65765,3.8999 4.32422,7.62733 5.22144,29.1981 l 0.72397,17.40538 4.69706,-5.10826 c 7.34828,-7.99158 14.62895,-18.14038 18.5604,-25.87203 l 3.6011,-7.082 -3.10915,-4.90263 c -5.76037,-9.08316 -6.17799,-16.03307 -1.3876,-23.0921 2.3663,-3.48695 2.38891,-3.69254 0.77907,-7.08503 -2.61991,-5.52106 -1.69081,-16.260565 2.05581,-23.763112 4.02845,-8.066913 5.81999,-8.227575 11.72756,-1.051703 4.68572,5.691694 5.76528,5.696564 5.76528,0.02601 0,-5.970589 2.33297,-12.830235 5.58951,-16.434826 4.64704,-5.143722 14.72727,-10.468623 17.25579,-9.115403 2.30221,1.232109 2.64537,4.476789 4.292,40.582795 l 1.18574,25.999999 4.26691,5.5 4.26691,5.5 -2.88969,36.73862 -2.88968,36.73863 -24.70541,32.20974 c -13.58798,17.71536 -24.70254,32.68298 -24.69902,33.26138 0.004,0.5784 8.38429,27.82663 18.62393,60.55163 10.23965,32.725 19.52784,62.45005 20.64043,66.05567 l 2.0229,6.55567 7.26984,2.82497 c 14.50629,5.63697 21.7765,12.37885 21.76325,20.18172 -0.0193,11.36227 -16.48113,20.68353 -43.99341,24.91058 -11.80815,1.81423 -38.24634,1.77007 -50.5,-0.0843 z M 493.92144,430.943 c 3.5318,-0.57304 11.23739,-2.59878 17.12354,-4.50165 l 10.70208,-3.45975 -3.29248,-10.7408 C 516.64371,406.33336 506.8558,374.95 496.70367,342.5 486.55154,310.05 477.02892,279.57475 475.54229,274.77722 l -2.70296,-8.72279 24.75498,-32.27721 c 18.77586,-24.48124 24.95898,-33.24335 25.5996,-36.27722 1.3463,-6.3759 3.52134,-38.84834 2.71273,-40.5 -0.97503,-1.99161 -38.07108,-46.08552 -40.35489,-47.9675 -1.60381,-1.32163 -2.01351,-1.19699 -4.12171,1.25394 -7.66714,8.91358 -1.9205,19.73931 21.64994,40.78497 14.14883,12.63326 17.53067,16.97266 13.17002,16.89905 -0.9625,-0.0163 -6.7,-4.54487 -12.75,-10.0636 -6.05,-5.51874 -12.66217,-11.3732 -14.69371,-13.00991 l -3.6937,-2.97584 -1.23274,2.28945 c -0.67801,1.25919 -1.26585,4.34878 -1.3063,6.86574 -0.0806,5.01669 2.8163,9.62686 13.15964,20.94228 l 5.04449,5.51859 -1.94462,8.98141 c -1.06954,4.93978 -2.32256,9.36196 -2.78449,9.82708 -0.46194,0.46511 -3.70971,1.84845 -7.21727,3.07409 -8.93591,3.12245 -16.33816,8.14411 -23.4572,15.91329 -3.35998,3.66683 -6.59213,6.66696 -7.18256,6.66696 -2.18498,0 -2.27377,-2.13088 -0.22679,-5.44296 5.02567,-8.13171 19.93043,-18.88634 31.12979,-22.46192 3.48063,-1.11124 3.63419,-1.36953 4.84612,-8.15104 l 1.25158,-7.00343 -4.84612,-5.55734 c -6.13142,-7.03127 -11.99953,-15.37243 -12.47769,-17.73625 -0.27355,-1.35237 -1.59811,-0.14425 -5.1436,4.69142 C 465.86828,169.69007 454.10556,182 452.02622,182 c -2.33416,0 -3.01296,-3.61222 -3.07713,-16.375 -0.077,-15.31091 -1.50991,-30.94853 -3.06427,-33.44083 -0.76165,-1.22125 -3.18482,-3.11342 -5.38482,-4.20483 -4.89547,-2.42862 -3.80659,-4.59774 -11.05424,22.02066 -13.98526,51.36357 -18.44554,69.33826 -18.44034,74.31362 0.0173,16.52708 12.13091,78.0592 31.05678,157.75515 4.49712,18.93718 8.63357,36.57422 9.19212,39.19343 l 1.01553,4.7622 6.93007,2.10494 c 12.26797,3.72628 23.49139,4.63577 34.72152,2.81366 z m 34.28525,-292.80459 0.47548,-8.36158 -10.44303,-12.63842 C 507.38032,103.99681 488.3737,80.718783 486.31585,78.04092 485.31694,76.74104 484.7838,77.282132 482.90763,81.5 c -3.53244,7.941373 -2.58085,20.5 1.55332,20.5 1.74261,0 13.42494,13.06308 32.82826,36.70826 10.36806,12.63468 10.16599,12.64523 10.91748,-0.56985 z m -9.18414,-51.79874 c -0.6223,-13.111818 -1.35251,-25.303092 -1.6227,-27.091719 l -0.49124,-3.252049 -3.20431,1.65698 c -8.52301,4.407344 -9.98747,6.58386 -11.67193,17.347118 -1.93809,12.383815 -1.95485,12.332665 8.1202,24.775458 5.02142,6.201502 9.32595,11.079352 9.56564,10.839672 0.23968,-0.23968 -0.0734,-11.163641 -0.69566,-24.27546 z M 310.5,412.21129 c -4.25241,-3.21365 -5.04714,-4.34653 -5.31525,-7.57686 -0.34365,-4.14049 -0.0882,-4.61456 16.60213,-30.80929 C 326.5791,366.30397 334.325,354.10143 339,346.7084 l 8.5,-13.44187 10.61309,-5.63326 c 5.8372,-3.0983 10.8997,-5.63327 11.25,-5.63327 0.8228,0 0.71386,9.56069 -0.21079,18.5 -0.71795,6.94086 -0.8768,7.24077 -18.80391,35.5 -9.94392,15.675 -18.64427,29.625 -19.33411,31 -0.68985,1.375 -2.63855,3.9625 -4.33044,5.75 -4.45597,4.70776 -9.46205,4.54113 -16.18384,-0.53871 z m 12.5,-3.18994 c 0,-0.49955 -1.35,-1.70574 -3,-2.68042 -3.40637,-2.01219 -3.60752,-2.59184 -1.50501,-4.33678 1.20411,-0.99931 1.97557,-0.92585 3.96482,0.37756 3.19111,2.09089 4.2443,2.03968 5.47847,-0.26638 1.04647,-1.95536 1.1631,-1.84651 -9.13613,-8.52706 l -2.69785,-1.74995 -3.03315,4.83084 c -4.60997,7.3422 -3.98633,9.82289 3.42173,13.61088 C 319.46343,411.79899 323,411.1149 323,409.02135 Z M 347.79155,370.75 363.7894,345.5 l 0.69062,-7.75 c 0.37984,-4.2625 0.31272,-7.75 -0.14916,-7.75 -0.46187,0 -3.71953,1.6875 -7.23923,3.75 -6.36231,3.72823 -6.49138,3.89463 -22.23326,28.66233 -12.25552,19.28239 -15.58292,25.21464 -14.72364,26.25 0.61059,0.73572 1.64833,1.33767 2.3061,1.33767 0.65777,0 8.31515,-11.26205 17.01639,-25.02679 8.70125,-13.76473 16.14168,-25.22531 16.53429,-25.46796 0.39262,-0.24265 1.49048,0.1267 2.4397,0.82079 1.56493,1.1443 0.22665,3.61418 -14.35268,26.48885 C 335.23534,380.68966 328,392.46 328,392.97119 c 0,0.7043 2.50186,2.7613 3.64685,2.9984 0.0808,0.0167 7.34588,-11.33209 16.1447,-25.21959 z"
         id="path7" />
      <path
         style="fill:#facb41"
         d="m 50,449.3051 c -7.978244,-0.85441 -20.103319,-3.45939 -26.965215,-5.79327 -9.386608,-3.19259 -14.785961,-6.38713 -19.3684285,-11.45937 -5.9089549,-6.54051 -4.913427,-13.6802 2.8250301,-20.26045 3.083642,-2.62211 12.5134354,-7.45282 17.3176014,-8.87149 2.369943,-0.69984 4.678422,-1.98076 5.129954,-2.84648 0.645463,-1.23755 18.19698,-57.01531 39.909751,-126.83101 l 1.945926,-6.25698 -24.91099,-32.55859 -24.91099,-32.5586 -2.449885,-31.68443 c -1.347437,-17.42644 -2.683482,-33.94713 -2.968989,-36.71265 -0.492262,-4.76821 -0.29716,-5.29878 3.773073,-10.26068 l 4.292178,-5.23247 1.65378,-32.652603 c 0.909579,-17.958932 2.086688,-33.085511 2.615796,-33.614619 2.72874,-2.72874 16.82507,4.838747 20.34623,10.922689 0.997645,1.723754 2.381435,7.065405 3.075091,11.870336 l 1.261191,8.736238 4.269947,-5.534643 c 6.699122,-8.683307 8.565003,-8.594195 12.770796,0.609912 3.47452,7.603763 3.974518,18.070767 1.127755,23.60854 -1.69425,3.29581 -1.689552,3.50247 0.125037,5.5 3.063364,3.37221 4.136705,6.17984 4.113399,10.75978 -0.02293,4.50598 -2.581945,11.22544 -5.864151,15.39809 -1.907402,2.42486 -1.903297,2.47987 0.567117,7.6008 3.49977,7.25467 11.054724,18.17931 17.853694,25.81685 3.182479,3.575 6.101028,6.62898 6.485663,6.78662 0.384636,0.15764 1.022513,-7.49236 1.417503,-17 0.832025,-20.02729 1.812227,-25.73349 4.922366,-28.65531 l 2.24632,-2.11031 -3.731252,-7.64957 C 88.744103,97.601089 87.690507,72.537575 96.124435,52.932381 97.291454,50.219571 98.598348,48 99.028643,48 c 0.430296,0 2.512377,0.872913 4.626857,1.939807 2.11447,1.066893 7.6695,3.721655 12.3445,5.899469 4.675,2.177815 12.49309,5.835524 17.37353,8.128243 C 147.88529,70.784802 155.01502,74 155.62067,74 c 0.31382,0 1.76506,0.81832 3.22496,1.818488 1.4599,1.000168 5.02007,2.776559 7.91147,3.947534 l 5.25711,2.129045 -1.1537,-2.197533 C 170.22597,78.48889 166.45925,71.65 162.49002,64.5 132.45119,10.389407 132.63038,10.74344 134.56567,9.328322 140.08985,5.2889417 155.94958,1.0313601 168.21204,0.29587265 206.36751,-1.992645 240.74796,22.049708 252.15866,59 c 1.98161,6.416873 2.31792,9.666254 2.32872,22.5 0.009,11.164828 -0.43424,16.661908 -1.73514,21.5 -2.67002,9.92992 -10.87921,25.67769 -16.87912,32.37937 -3.40048,3.79822 -4.57512,5.67199 -3.31841,5.29351 1.06991,-0.32223 4.99088,-1.33719 8.71327,-2.25547 l 6.76798,-1.66959 12.39851,-20.62391 c 8.71926,-14.50379 13.28589,-21.14367 15.38888,-22.375427 1.6447,-0.963334 36.66978,-10.097524 77.83351,-20.2982 69.39309,-17.196119 75.12838,-18.463783 78.76028,-17.408264 7.56227,2.19778 12.68067,10.643336 10.67939,17.621384 -0.48159,1.679207 -16.94969,29.457927 -36.59578,61.730497 -31.65211,51.99481 -36.13475,58.88385 -39.36046,60.49027 -2.00216,0.99708 -10.72779,4.1931 -19.39029,7.10225 -8.6625,2.90916 -15.75,5.82329 -15.75,6.47585 0,1.95955 11.38976,18.55178 17.78509,25.90874 11.2711,12.96586 26.25522,24.56093 43.5461,33.697 l 8.8312,4.66618 -39.22297,27.2187 c -21.57264,14.97028 -39.76008,27.42479 -40.41654,27.6767 -1.84628,0.70849 -19.56555,-18.37557 -25.76242,-27.74672 -7.21953,-10.91767 -11.78681,-20.16873 -16.15956,-32.7313 -3.76702,-10.82238 -8.17612,-31.41183 -7.09963,-33.15362 0.35347,-0.57193 3.60239,-3.28044 7.21983,-6.01891 3.61744,-2.73847 6.37587,-4.97904 6.12985,-4.97904 -0.24602,0 -24.82,8.325 -54.60883,18.5 -34.69835,11.85194 -55.59447,18.5 -58.14908,18.5 -3.50592,0 -5.69672,-1.27653 -18.13826,-10.56871 -7.78288,-5.81279 -14.31865,-10.40075 -14.52392,-10.19548 -0.20527,0.20527 -1.71701,8.22369 -3.35942,17.81871 -4.78308,27.9429 -18.15468,90.43009 -27.50987,128.5571 l -3.271,13.33093 5.55243,1.61414 c 11.28909,3.28183 21.77441,9.86899 24.69292,15.51277 8.94061,17.28923 -25.80056,33.31476 -71.03592,32.76769 -7.15,-0.0865 -14.575,-0.32589 -16.5,-0.53205 z M 88.478035,428.84134 96.45607,426.5 100.21214,411 c 4.60676,-19.01047 18.86087,-80.82873 21.7899,-94.5 C 128.54297,285.97015 137,241.06781 137,236.86881 c 0,-0.38525 -12.15876,-9.74143 -27.01946,-20.79151 -29.076732,-21.62079 -30.879017,-23.47447 -29.576135,-30.41943 0.453157,-2.41553 1.924164,-4.63923 4.563257,-6.89819 l 3.89453,-3.33358 -5.525894,-6.46305 c -3.039241,-3.55468 -7.003225,-8.62536 -8.808851,-11.26818 l -3.282958,-4.80513 -0.698717,2.80513 c -0.783086,3.14385 -6.763905,11.44589 -13.286346,18.44294 l -4.323232,4.63781 1.781903,7.22818 1.781903,7.22817 6.192989,2.31682 c 8.302292,3.10591 16.588981,8.53831 22.926605,15.0297 5.662355,5.79974 7.250748,8.96334 5.408533,10.77217 -0.886696,0.87063 -1.937297,0.17936 -4.332479,-2.85066 -7.283357,-9.2138 -15.611766,-15.21307 -26.907883,-19.38275 -7.872706,-2.90602 -7.121478,-1.80578 -10.160926,-14.88153 l -1.456127,-6.26428 7.815672,-9.01727 C 67.228647,155.98351 68.680581,152.1914 65.223776,144.82831 L 63.5,141.15661 48.673799,154.57831 C 40.519388,161.96024 33.206888,168 32.423799,168 c -3.832717,0 -0.182709,-4.57621 13.160489,-16.5 24.202224,-21.62767 29.663557,-32.10984 21.675626,-41.60296 l -2.660504,-3.16183 -3.361354,3.8824 c -7.473891,8.63241 -37.865765,44.96631 -38.576915,46.11924 -0.419603,0.68026 0.0047,10.75508 0.942937,22.38849 l 1.705852,21.15164 24.845035,32.46529 C 63.819734,250.59817 75,265.95093 75,266.85951 c 0,0.90858 -4.011203,14.47438 -8.913785,30.14623 C 61.183634,312.67758 55.079299,332.25 52.521027,340.5 c -2.558272,8.25 -9.368171,30.0354 -15.133109,48.412 -8.135474,25.93304 -10.191408,33.59608 -9.184812,34.23438 2.102794,1.3334 15.979294,5.80051 22.897207,7.37105 9.365643,2.12623 27.136869,1.32934 37.377722,-1.67609 z M 358.84354,298.53543 c 18.87403,-13.0765 33.94293,-24.13892 33.48644,-24.58315 C 391.87349,273.50805 388.575,271.49923 385,269.48823 368.50094,260.2072 350.66136,244.62688 339.7857,230 333.64354,221.73929 324,205.37236 324,203.20863 c 0,-0.75641 -0.40098,-1.2253 -0.89107,-1.04196 -0.49009,0.18333 -10.83896,7.98333 -22.99749,17.33333 -17.26458,13.27659 -22.10697,17.49512 -22.10893,19.26059 -0.009,7.78664 7.5038,32.28202 13.72104,44.73941 7.93489,15.89901 27.30829,40.24795 31.21144,39.22725 0.87567,-0.22899 17.03452,-11.11531 35.90855,-24.19182 z m -37.2733,7.78703 c -0.8409,-2.19137 -0.33647,-2.64077 14.89568,-13.27074 11.42582,-7.97366 13.14108,-8.87329 14.44048,-7.57389 0.811,0.811 1.27634,1.65483 1.03408,1.87517 -0.24227,0.22034 -6.06548,4.33331 -12.94048,9.13992 -6.875,4.80662 -13.21043,9.36205 -14.07874,10.12319 -2.04228,1.79022 -2.56907,1.74406 -3.35102,-0.29365 z m -18.19327,-22.78248 c -0.39962,-1.04139 0.0666,-2.16871 1.24157,-3.00228 1.0348,-0.73412 9.98146,-7.18623 19.88146,-14.33801 13.19727,-9.53375 18.33352,-12.72997 19.25,-11.97903 0.6875,0.56333 1.25,1.36787 1.25,1.78787 0,0.85194 -36.90948,27.63577 -39.40106,28.59188 -0.96559,0.37053 -1.83143,-0.0427 -2.22197,-1.06043 z m -6.7103,-12.20665 c -1.43424,-1.43423 -0.28829,-2.5819 10.58333,-10.59919 18.74458,-13.82322 17.70482,-13.20789 19.41995,-11.49276 1.33223,1.33222 -0.12231,2.68286 -13.06195,12.12889 -14.4347,10.53745 -15.65141,11.25299 -16.94133,9.96306 z M 172.5,246.20299 c 0,-1.2732 0.41444,-0.96476 -45.94674,-34.19441 -18.63106,-13.35393 -34.747737,-24.50818 -35.814827,-24.78723 -6.169352,-1.61332 2.821987,5.66713 39.241187,31.77432 22.26379,15.95986 40.93879,28.86486 41.5,28.67779 0.56121,-0.18707 1.02038,-0.84878 1.02038,-1.47047 z m 63.34175,-69.76429 c 29.73823,-47.96431 44.13477,-72.05752 43.71326,-73.15595 -0.54394,-1.41747 -0.81674,-1.44576 -2.02754,-0.21029 -2.64095,2.69473 -89.38917,143.3423 -88.89923,144.13504 0.26939,0.43588 1.02574,0.78278 1.68078,0.7709 0.65504,-0.0119 21.14477,-32.20474 45.53273,-71.5397 z M 123.8207,167.44502 c 0.17638,-0.1392 -1.09734,-5.53088 -2.8305,-11.98151 -2.67433,-9.95356 -3.68975,-12.27587 -6.70991,-15.34597 -1.95729,-1.98965 -4.78789,-5.29225 -6.29023,-7.33912 -2.66493,-3.63087 -2.77379,-3.67488 -4.46559,-1.80546 -1.94339,2.14742 -2.98047,10.08658 -3.939951,30.16166 l -0.603869,12.63462 12.25967,-3.03556 c 6.74283,-1.66956 12.40399,-3.14946 12.58038,-3.28866 z m 213.54219,2.9089 c 4.68203,-3.24383 9.63804,-11.87623 9.63556,-16.78323 -0.007,-14.62164 -17.87031,-16.09892 -26.76158,-2.21322 -2.13536,3.33484 -2.66076,5.37668 -2.69471,10.47229 -0.0397,5.95639 0.158,6.50874 3.3511,9.36391 2.98474,2.66886 3.93136,2.97349 7.86289,2.53035 2.6326,-0.29673 6.17,-1.68185 8.60674,-3.3701 z M 322.7329,168.25 c -3.05925,-3.39469 -3.13367,-6.91057 -0.27014,-12.76341 4.40467,-9.00283 13.69737,-13.1384 18.36293,-8.17214 6.506,6.92532 -2.55234,22.68555 -13.03874,22.68555 -2.04395,0 -4.12696,-0.72126 -5.05405,-1.75 z m -183.52277,-4.40756 9.07816,-2.15757 -9.14568,-4.27543 c -5.03012,-2.35149 -10.57741,-5.29492 -12.32731,-6.54096 -2.08769,-1.48656 -3.00126,-1.76748 -2.65704,-0.817 0.28853,0.79669 1.3577,4.71102 2.37594,8.69852 1.01823,3.9875 2.24428,7.25 2.72455,7.25 0.48027,0 4.95839,-0.9709 9.95138,-2.15756 z M 31.53997,139 c 19.152902,-23.10782 29.767595,-35.03873 32.227359,-36.22354 3.649015,-1.75763 5.479257,-8.203236 4.217908,-14.854306 -1.06987,-5.6414 -3.680657,-11.228429 -4.895989,-10.477312 -0.454066,0.280628 -3.472402,3.780109 -6.707412,7.776624 -3.23501,3.996515 -11.072403,13.569123 -17.416429,21.272464 -6.344026,7.70334 -13.238445,16.11637 -15.320931,18.69562 l -3.786339,4.68956 0.712285,10.63338 c 0.55853,8.33802 0.969509,10.3478 1.903883,9.31044 C 23.129684,149.09532 27.209233,144.225 31.53997,139 Z m 7.967069,-40 8.652031,-10.5 -0.61629,-8 C 46.711424,69.708235 45.350705,65.130027 42.061292,62.057255 38.982037,59.1808 32.320419,55.336946 31.639729,56.043856 31.398155,56.294735 30.695402,67.3 30.078056,80.5 c -0.617346,13.2 -1.358314,25.8 -1.646595,28 -0.634152,4.83948 -0.995819,5.1497 11.075578,-9.5 z M 465,449.47132 c -0.825,-0.16317 -5.55,-0.83945 -10.5,-1.50285 -10.55148,-1.41412 -22.76426,-5.04209 -30.5,-9.06045 -9.76876,-5.07442 -14,-10.07333 -14,-16.54 0,-7.67962 8.2958,-14.78276 23.07887,-19.76091 4.0593,-1.36695 7.51161,-2.87855 7.6718,-3.35911 0.16018,-0.48056 -1.32062,-7.59545 -3.29068,-15.81087 -17.48557,-72.91734 -30.46085,-139.4599 -30.7965,-157.93713 -0.15652,-8.61606 0.34218,-10.85517 11.68998,-52.48704 6.51941,-23.91788 12.36941,-45.02397 13,-46.90243 1.83618,-5.4698 3.56671,-5.89659 10.28893,-2.53754 10.0043,4.99909 10.50778,6.54502 11.967,36.74469 l 0.66766,13.81767 3.93072,-3.81767 c 6.08719,-5.91212 14.32774,-17.10937 19.08365,-25.93081 l 4.31906,-8.01117 -3.55524,-5.34915 C 474.80992,126.14369 474.5,125.05268 474.5,118.51086 c 0,-6.10363 0.37592,-7.67411 2.53461,-10.5887 2.53305,-3.42004 2.53347,-3.42433 0.68771,-6.92216 -2.67534,-5.069955 -1.92397,-15.634277 1.64675,-23.153329 4.1344,-8.706026 5.80298,-8.689883 12.79262,0.123761 l 4.33831,5.470432 0.23868,-2.970432 c 1.26851,-15.787136 3.87536,-20.814261 13.71172,-26.442056 5.70146,-3.262043 8.68994,-3.769129 10.35923,-1.757759 0.60731,0.731771 1.75025,14.832525 2.69508,33.25 1.05064,20.480133 2.06392,32.555833 2.81792,33.582473 0.64756,0.88171 2.5372,3.39499 4.19921,5.58508 l 3.02184,3.98198 -2.71868,34.41492 c -1.49527,18.92821 -2.7426,35.36017 -2.77184,36.51546 -0.0292,1.15529 -11.32112,16.79409 -25.09307,34.75289 l -25.03991,32.65236 20.69129,66.24711 c 11.38022,36.43591 21.06783,66.73678 21.52804,67.33526 0.46021,0.59849 2.75458,1.66167 5.09861,2.36263 9.72723,2.90883 19.36861,9.45425 22.31296,15.148 8.68775,16.80026 -23.81122,32.08338 -67.55108,31.7669 -7.425,-0.0537 -14.175,-0.23119 -15,-0.39436 z m 32.68091,-19.04044 c 10.19436,-2.1057 24.55595,-7.36723 24.01434,-8.79792 -0.23589,-0.62313 -11.07698,-35.21793 -24.0913,-76.87733 -13.01432,-41.6594 -23.89168,-76.34186 -24.17191,-77.07213 -0.28098,-0.73224 10.81699,-16.09658 24.74354,-34.25563 L 523.42863,200.5 l 1.72672,-21.45503 1.72673,-21.45502 -6.5493,-8.04498 c -3.60211,-4.42473 -13.13572,-15.78614 -21.18579,-25.24758 l -14.63648,-17.20261 -2.7428,2.62777 c -1.50854,1.44528 -3.03163,4.16736 -3.38464,6.04907 -1.59806,8.51836 4.99529,17.99803 24.94278,35.86177 C 516.80845,163.70758 520.26033,168 516.48754,168 c -0.90835,0 -8.37112,-6.11447 -16.58393,-13.58771 l -14.93237,-13.5877 -1.48562,3.55558 c -3.32986,7.96949 -1.24839,13.04154 10.70583,26.08745 l 6.20269,6.76915 -1.95815,9.58532 -1.95815,9.58531 -6.28791,2.25094 c -12.11016,4.33518 -22.63349,11.9119 -28.94706,20.84166 -1.94297,2.7481 -2.25675,2.86644 -3.73693,1.40933 -1.48507,-1.46193 -1.29447,-1.99727 2.35489,-6.61405 6.71937,-8.50064 16.66405,-15.51679 27.30152,-19.26171 l 5.33765,-1.87912 1.62919,-7.16551 1.62919,-7.16552 -5.93401,-6.66171 C 482.58725,164.0371 478,157.29218 478,154.7756 c 0,-1.20312 -1.85159,0.57135 -5.13534,4.92144 C 465.5014,169.45142 454.01698,182 452.45307,182 c -0.73427,0 -1.56516,-0.37235 -1.84643,-0.82745 -0.28126,-0.4551 -0.99608,-10.4676 -1.58847,-22.25 -0.59239,-11.7824 -1.54622,-22.87748 -2.11962,-24.65572 -1.14031,-3.53635 -5.39339,-7.10596 -8.94792,-7.50997 -2.55139,-0.28999 -1.998,-2.06967 -18.46879,59.39527 C 412.78651,211.13743 411,219.23202 411,224.58285 c 0,17.96035 13.99692,88.10549 35.1029,175.91715 3.30488,13.75 6.32123,25.28219 6.70299,25.62708 1.07441,0.97065 10.13881,3.70023 15.69411,4.726 7.95088,1.46811 20.93912,1.28019 29.18091,-0.4222 z m 30.64767,-291.02514 0.6349,-9.66556 -13.28029,-16.12009 C 508.37903,104.75404 498.66463,92.8875 494.09564,87.25 489.52664,81.6125 485.44713,77 485.03005,77 c -1.12816,0 -3.91332,7.851776 -4.62169,13.029229 -0.77111,5.635932 1.48516,11.599591 4.87633,12.888911 2.08807,0.79388 16.65655,17.29663 35.12971,39.79391 3.25293,3.96152 6.2215,7.01297 6.59684,6.781 0.37534,-0.23197 0.96814,-4.77126 1.31734,-10.08731 z M 518.96535,83.044251 C 518.06966,64.112275 517.34176,56 516.53871,56 c -1.95737,0 -10.33061,5.752145 -11.91804,8.187304 -1.71692,2.633816 -3.6019,13.054825 -3.61312,19.9749 -0.007,4.396766 0.51104,5.296778 9.10109,15.808027 5.00975,6.130199 9.33984,10.914629 9.62242,10.632049 0.28257,-0.28258 -0.062,-12.683691 -0.76571,-27.558029 z M 311.36718,412.56133 C 301.50684,405.921 301.41798,406.19123 326.34989,367 l 21.31138,-33.5 9.91937,-5.31892 c 5.45565,-2.92541 10.48062,-5.56058 11.16661,-5.85594 0.977,-0.42065 1.11045,2.14036 0.61588,11.81892 L 368.73174,346.5 352.61587,371.7566 c -8.86373,13.89113 -17.88519,28.29113 -20.04768,32 -7.69399,13.19586 -12.01555,14.99059 -21.20101,8.80473 z m 10.69856,-1.59651 c 2.64273,-1.41435 2.43958,-2.23511 -1.06574,-4.30575 -2.97108,-1.75506 -3.87431,-4.00068 -2.06012,-5.12191 0.51694,-0.31949 2.40168,0.30809 4.18833,1.39461 l 3.24844,1.9755 1.47782,-2.10989 c 1.35203,-1.93029 1.27534,-2.27384 -0.90089,-4.03605 -3.06841,-2.48465 -10.96443,-7.11568 -11.30912,-6.63282 -4.03883,5.65775 -6.69439,11.13881 -6.18077,12.75707 0.55984,1.76392 7.82043,6.97821 9.85205,7.0754 0.44866,0.0215 1.68616,-0.42681 2.75,-0.99616 z m 26.27222,-40.53817 15.89788,-24.92665 0.51975,-8.19735 0.51975,-8.19734 -7.11786,3.74547 -7.11786,3.74546 -14.5733,22.95188 c -8.01531,12.62354 -15.43252,24.14857 -16.48269,25.61119 l -1.9094,2.65931 2.54965,1.67059 c 1.40231,0.91883 2.66175,1.52214 2.79875,1.34069 0.13701,-0.18144 7.56447,-11.91102 16.50545,-26.06573 14.70186,-23.27489 16.44146,-25.63677 18.19214,-24.69983 1.13058,0.60507 1.63577,1.53509 1.21452,2.23583 -0.3967,0.65991 -7.84545,12.39207 -16.55277,26.07148 -14.61206,22.95586 -15.69481,24.9752 -14.05674,26.21614 0.97612,0.73948 2.21129,1.21423 2.74481,1.05501 0.53353,-0.15922 8.12409,-11.50649 16.86792,-25.21615 z"
         id="path6" />
      <path
         style="fill:#9e9ea2"
         d="m 50,449.3051 c -7.978244,-0.85441 -20.103319,-3.45939 -26.965215,-5.79327 -9.386608,-3.19259 -14.785961,-6.38713 -19.3684285,-11.45937 -5.9089549,-6.54051 -4.913427,-13.6802 2.8250301,-20.26045 3.083642,-2.62211 12.5134354,-7.45282 17.3176014,-8.87149 2.369943,-0.69984 4.678422,-1.98076 5.129954,-2.84648 0.645463,-1.23755 18.19698,-57.01531 39.909751,-126.83101 l 1.945926,-6.25698 -24.91099,-32.55859 -24.91099,-32.5586 -2.449885,-31.68443 c -1.347437,-17.42644 -2.683482,-33.94713 -2.968989,-36.71265 -0.492262,-4.76821 -0.29716,-5.29878 3.773073,-10.26068 l 4.292178,-5.23247 1.65378,-32.652603 c 0.909579,-17.958932 2.086688,-33.085511 2.615796,-33.614619 2.72874,-2.72874 16.82507,4.838747 20.34623,10.922689 0.997645,1.723754 2.381435,7.065405 3.075091,11.870336 l 1.261191,8.736238 4.269947,-5.534643 c 6.699122,-8.683307 8.565003,-8.594195 12.770796,0.609912 3.47452,7.603763 3.974518,18.070767 1.127755,23.60854 -1.69425,3.29581 -1.689552,3.50247 0.125037,5.5 3.063364,3.37221 4.136705,6.17984 4.113399,10.75978 -0.02293,4.50598 -2.581945,11.22544 -5.864151,15.39809 -1.907402,2.42486 -1.903297,2.47987 0.567117,7.6008 3.49977,7.25467 11.054724,18.17931 17.853694,25.81685 3.182479,3.575 6.101028,6.62898 6.485663,6.78662 0.384636,0.15764 1.019805,-7.49236 1.411486,-17 0.391682,-9.50764 1.156827,-19.31144 1.700322,-21.78622 0.897553,-4.08695 4.137641,-9.0004 5.935161,-9.0004 1.63429,0 1.87025,3.4115 0.35198,5.08916 -1.82577,2.01746 -2.89595,10.40223 -3.834791,30.04546 l -0.603869,12.63462 12.25967,-3.03556 c 6.74283,-1.66956 12.40831,-3.15378 12.58998,-3.29825 0.26893,-0.21388 -3.21487,-14.04856 -5.48699,-21.78964 -0.49102,-1.67292 -0.25127,-1.63762 2.45204,0.36103 2.47612,1.83067 3.39413,3.75839 5.28796,11.10421 1.26043,4.88893 2.77501,8.88897 3.36574,8.88897 0.59074,0 5.30171,-1.06868 10.46883,-2.37484 8.91282,-2.25302 9.70738,-2.29883 15.48845,-0.893 9.18067,2.23254 28.1405,1.88489 38.09367,-0.69849 10.39935,-2.69919 22.88807,-9.02506 30.95655,-15.68031 5.53679,-4.56701 7.63205,-5.60824 15.00816,-7.45822 l 8.57296,-2.15016 12.39765,-20.62249 c 8.7186,-14.50268 13.28506,-21.14226 15.38803,-22.374007 1.6447,-0.963334 36.66978,-10.097524 77.83351,-20.2982 69.39309,-17.196119 75.12838,-18.463783 78.76028,-17.408264 7.56227,2.19778 12.68067,10.643336 10.67939,17.621384 -0.48159,1.679207 -16.94969,29.457927 -36.59578,61.730497 -31.65211,51.99481 -36.13475,58.88385 -39.36046,60.49027 -2.00216,0.99708 -10.72779,4.1931 -19.39029,7.10225 -8.6625,2.90916 -15.75,5.82329 -15.75,6.47585 0,1.95955 11.38976,18.55178 17.78509,25.90874 11.2711,12.96586 26.25522,24.56093 43.5461,33.697 l 8.8312,4.66618 -39.22297,27.2187 c -21.57264,14.97028 -39.76008,27.42479 -40.41654,27.6767 -1.84628,0.70849 -19.56555,-18.37557 -25.76242,-27.74672 -7.21953,-10.91767 -11.78681,-20.16873 -16.15956,-32.7313 -3.76702,-10.82238 -8.17612,-31.41183 -7.09963,-33.15362 0.35347,-0.57193 3.60239,-3.28044 7.21983,-6.01891 3.61744,-2.73847 6.37587,-4.97904 6.12985,-4.97904 -0.24602,0 -24.82,8.325 -54.60883,18.5 -34.69835,11.85194 -55.59447,18.5 -58.14908,18.5 -3.50592,0 -5.69672,-1.27653 -18.13826,-10.56871 -7.78288,-5.81279 -14.31865,-10.40075 -14.52392,-10.19548 -0.20527,0.20527 -1.71701,8.22369 -3.35942,17.81871 -4.78308,27.9429 -18.15468,90.43009 -27.50987,128.5571 l -3.271,13.33093 5.55243,1.61414 c 11.28909,3.28183 21.77441,9.86899 24.69292,15.51277 8.94061,17.28923 -25.80056,33.31476 -71.03592,32.76769 -7.15,-0.0865 -14.575,-0.32589 -16.5,-0.53205 z M 88.478035,428.84134 96.45607,426.5 100.21214,411 c 4.60676,-19.01047 18.86087,-80.82873 21.7899,-94.5 C 128.54297,285.97015 137,241.06781 137,236.86881 c 0,-0.38525 -12.15876,-9.74143 -27.01946,-20.79151 -29.076732,-21.62079 -30.879017,-23.47447 -29.576135,-30.41943 0.453157,-2.41553 1.924164,-4.63923 4.563257,-6.89819 l 3.89453,-3.33358 -5.525894,-6.46305 c -3.039241,-3.55468 -7.003225,-8.62536 -8.808851,-11.26818 l -3.282958,-4.80513 -0.698717,2.80513 c -0.783086,3.14385 -6.763905,11.44589 -13.286346,18.44294 l -4.323232,4.63781 1.781903,7.22818 1.781903,7.22817 6.192989,2.31682 c 8.302292,3.10591 16.588981,8.53831 22.926605,15.0297 5.662355,5.79974 7.250748,8.96334 5.408533,10.77217 -0.886696,0.87063 -1.937297,0.17936 -4.332479,-2.85066 -7.283357,-9.2138 -15.611766,-15.21307 -26.907883,-19.38275 -7.872706,-2.90602 -7.121478,-1.80578 -10.160926,-14.88153 l -1.456127,-6.26428 7.815672,-9.01727 C 67.228647,155.98351 68.680581,152.1914 65.223776,144.82831 L 63.5,141.15661 48.673799,154.57831 C 40.519388,161.96024 33.206888,168 32.423799,168 c -3.832717,0 -0.182709,-4.57621 13.160489,-16.5 24.202224,-21.62767 29.663557,-32.10984 21.675626,-41.60296 l -2.660504,-3.16183 -3.361354,3.8824 c -7.473891,8.63241 -37.865765,44.96631 -38.576915,46.11924 -0.419603,0.68026 0.0047,10.75508 0.942937,22.38849 l 1.705852,21.15164 24.845035,32.46529 C 63.819734,250.59817 75,265.95093 75,266.85951 c 0,0.90858 -4.011203,14.47438 -8.913785,30.14623 C 61.183634,312.67758 55.079299,332.25 52.521027,340.5 c -2.558272,8.25 -9.368171,30.0354 -15.133109,48.412 -8.135474,25.93304 -10.191408,33.59608 -9.184812,34.23438 2.102794,1.3334 15.979294,5.80051 22.897207,7.37105 9.365643,2.12623 27.136869,1.32934 37.377722,-1.67609 z M 358.84354,298.53543 c 18.87403,-13.0765 33.94293,-24.13892 33.48644,-24.58315 C 391.87349,273.50805 388.575,271.49923 385,269.48823 368.50094,260.2072 350.66136,244.62688 339.7857,230 333.64354,221.73929 324,205.37236 324,203.20863 c 0,-0.75641 -0.40098,-1.2253 -0.89107,-1.04196 -0.49009,0.18333 -10.83896,7.98333 -22.99749,17.33333 -17.26458,13.27659 -22.10697,17.49512 -22.10893,19.26059 -0.009,7.78664 7.5038,32.28202 13.72104,44.73941 7.93489,15.89901 27.30829,40.24795 31.21144,39.22725 0.87567,-0.22899 17.03452,-11.11531 35.90855,-24.19182 z m -37.2733,7.78703 c -0.8409,-2.19137 -0.33647,-2.64077 14.89568,-13.27074 11.42582,-7.97366 13.14108,-8.87329 14.44048,-7.57389 0.811,0.811 1.27634,1.65483 1.03408,1.87517 -0.24227,0.22034 -6.06548,4.33331 -12.94048,9.13992 -6.875,4.80662 -13.21043,9.36205 -14.07874,10.12319 -2.04228,1.79022 -2.56907,1.74406 -3.35102,-0.29365 z m -18.19327,-22.78248 c -0.39962,-1.04139 0.0666,-2.16871 1.24157,-3.00228 1.0348,-0.73412 9.98146,-7.18623 19.88146,-14.33801 13.19727,-9.53375 18.33352,-12.72997 19.25,-11.97903 0.6875,0.56333 1.25,1.36787 1.25,1.78787 0,0.85194 -36.90948,27.63577 -39.40106,28.59188 -0.96559,0.37053 -1.83143,-0.0427 -2.22197,-1.06043 z m -6.7103,-12.20665 c -1.43424,-1.43423 -0.28829,-2.5819 10.58333,-10.59919 18.74458,-13.82322 17.70482,-13.20789 19.41995,-11.49276 1.33223,1.33222 -0.12231,2.68286 -13.06195,12.12889 -14.4347,10.53745 -15.65141,11.25299 -16.94133,9.96306 z M 172.5,246.20299 c 0,-1.2732 0.41444,-0.96476 -45.94674,-34.19441 -18.63106,-13.35393 -34.747737,-24.50818 -35.814827,-24.78723 -6.169352,-1.61332 2.821987,5.66713 39.241187,31.77432 22.26379,15.95986 40.93879,28.86486 41.5,28.67779 0.56121,-0.18707 1.02038,-0.84878 1.02038,-1.47047 z m 63.34175,-69.76429 c 29.73823,-47.96431 44.13477,-72.05752 43.71326,-73.15595 -0.54394,-1.41747 -0.81674,-1.44576 -2.02754,-0.21029 -2.64095,2.69473 -89.38917,143.3423 -88.89923,144.13504 0.26939,0.43588 1.02574,0.78278 1.68078,0.7709 0.65504,-0.0119 21.14477,-32.20474 45.53273,-71.5397 z m 101.52114,-6.08478 c 4.68203,-3.24383 9.63804,-11.87623 9.63556,-16.78323 -0.007,-14.62164 -17.87031,-16.09892 -26.76158,-2.21322 -2.13536,3.33484 -2.66076,5.37668 -2.69471,10.47229 -0.0397,5.95639 0.158,6.50874 3.3511,9.36391 2.98474,2.66886 3.93136,2.97349 7.86289,2.53035 2.6326,-0.29673 6.17,-1.68185 8.60674,-3.3701 z M 322.7329,168.25 c -3.05925,-3.39469 -3.13367,-6.91057 -0.27014,-12.76341 4.40467,-9.00283 13.69737,-13.1384 18.36293,-8.17214 6.506,6.92532 -2.55234,22.68555 -13.03874,22.68555 -2.04395,0 -4.12696,-0.72126 -5.05405,-1.75 z M 31.53997,139 c 19.152902,-23.10782 29.767595,-35.03873 32.227359,-36.22354 3.649015,-1.75763 5.479257,-8.203236 4.217908,-14.854306 -1.06987,-5.6414 -3.680657,-11.228429 -4.895989,-10.477312 -0.454066,0.280628 -3.472402,3.780109 -6.707412,7.776624 -3.23501,3.996515 -11.072403,13.569123 -17.416429,21.272464 -6.344026,7.70334 -13.238445,16.11637 -15.320931,18.69562 l -3.786339,4.68956 0.712285,10.63338 c 0.55853,8.33802 0.969509,10.3478 1.903883,9.31044 C 23.129684,149.09532 27.209233,144.225 31.53997,139 Z m 7.967069,-40 8.652031,-10.5 -0.61629,-8 C 46.711424,69.708235 45.350705,65.130027 42.061292,62.057255 38.982037,59.1808 32.320419,55.336946 31.639729,56.043856 31.398155,56.294735 30.695402,67.3 30.078056,80.5 c -0.617346,13.2 -1.358314,25.8 -1.646595,28 -0.634152,4.83948 -0.995819,5.1497 11.075578,-9.5 z M 465,449.47132 c -0.825,-0.16317 -5.55,-0.83945 -10.5,-1.50285 -10.55148,-1.41412 -22.76426,-5.04209 -30.5,-9.06045 -9.76876,-5.07442 -14,-10.07333 -14,-16.54 0,-7.67962 8.2958,-14.78276 23.07887,-19.76091 4.0593,-1.36695 7.51161,-2.87855 7.6718,-3.35911 0.16018,-0.48056 -1.32062,-7.59545 -3.29068,-15.81087 -17.48557,-72.91734 -30.46085,-139.4599 -30.7965,-157.93713 -0.15652,-8.61606 0.34218,-10.85517 11.68998,-52.48704 6.51941,-23.91788 12.36941,-45.02397 13,-46.90243 1.83618,-5.4698 3.56671,-5.89659 10.28893,-2.53754 10.0043,4.99909 10.50778,6.54502 11.967,36.74469 l 0.66766,13.81767 3.93072,-3.81767 c 6.08719,-5.91212 14.32774,-17.10937 19.08365,-25.93081 l 4.31906,-8.01117 -3.55524,-5.34915 C 474.80992,126.14369 474.5,125.05268 474.5,118.51086 c 0,-6.10363 0.37592,-7.67411 2.53461,-10.5887 2.53305,-3.42004 2.53347,-3.42433 0.68771,-6.92216 -2.67534,-5.069955 -1.92397,-15.634277 1.64675,-23.153329 4.1344,-8.706026 5.80298,-8.689883 12.79262,0.123761 l 4.33831,5.470432 0.23868,-2.970432 c 1.26851,-15.787136 3.87536,-20.814261 13.71172,-26.442056 5.70146,-3.262043 8.68994,-3.769129 10.35923,-1.757759 0.60731,0.731771 1.75025,14.832525 2.69508,33.25 1.05064,20.480133 2.06392,32.555833 2.81792,33.582473 0.64756,0.88171 2.5372,3.39499 4.19921,5.58508 l 3.02184,3.98198 -2.71868,34.41492 c -1.49527,18.92821 -2.7426,35.36017 -2.77184,36.51546 -0.0292,1.15529 -11.32112,16.79409 -25.09307,34.75289 l -25.03991,32.65236 20.69129,66.24711 c 11.38022,36.43591 21.06783,66.73678 21.52804,67.33526 0.46021,0.59849 2.75458,1.66167 5.09861,2.36263 9.72723,2.90883 19.36861,9.45425 22.31296,15.148 8.68775,16.80026 -23.81122,32.08338 -67.55108,31.7669 -7.425,-0.0537 -14.175,-0.23119 -15,-0.39436 z m 32.68091,-19.04044 c 10.19436,-2.1057 24.55595,-7.36723 24.01434,-8.79792 -0.23589,-0.62313 -11.07698,-35.21793 -24.0913,-76.87733 -13.01432,-41.6594 -23.89168,-76.34186 -24.17191,-77.07213 -0.28098,-0.73224 10.81699,-16.09658 24.74354,-34.25563 L 523.42863,200.5 l 1.72672,-21.45503 1.72673,-21.45502 -6.5493,-8.04498 c -3.60211,-4.42473 -13.13572,-15.78614 -21.18579,-25.24758 l -14.63648,-17.20261 -2.7428,2.62777 c -1.50854,1.44528 -3.03163,4.16736 -3.38464,6.04907 -1.59806,8.51836 4.99529,17.99803 24.94278,35.86177 C 516.80845,163.70758 520.26033,168 516.48754,168 c -0.90835,0 -8.37112,-6.11447 -16.58393,-13.58771 l -14.93237,-13.5877 -1.48562,3.55558 c -3.32986,7.96949 -1.24839,13.04154 10.70583,26.08745 l 6.20269,6.76915 -1.95815,9.58532 -1.95815,9.58531 -6.28791,2.25094 c -12.11016,4.33518 -22.63349,11.9119 -28.94706,20.84166 -1.94297,2.7481 -2.25675,2.86644 -3.73693,1.40933 -1.48507,-1.46193 -1.29447,-1.99727 2.35489,-6.61405 6.71937,-8.50064 16.66405,-15.51679 27.30152,-19.26171 l 5.33765,-1.87912 1.62919,-7.16551 1.62919,-7.16552 -5.93401,-6.66171 C 482.58725,164.0371 478,157.29218 478,154.7756 c 0,-1.20312 -1.85159,0.57135 -5.13534,4.92144 C 465.5014,169.45142 454.01698,182 452.45307,182 c -0.73427,0 -1.56516,-0.37235 -1.84643,-0.82745 -0.28126,-0.4551 -0.99608,-10.4676 -1.58847,-22.25 -0.59239,-11.7824 -1.54622,-22.87748 -2.11962,-24.65572 -1.14031,-3.53635 -5.39339,-7.10596 -8.94792,-7.50997 -2.55139,-0.28999 -1.998,-2.06967 -18.46879,59.39527 C 412.78651,211.13743 411,219.23202 411,224.58285 c 0,17.96035 13.99692,88.10549 35.1029,175.91715 3.30488,13.75 6.32123,25.28219 6.70299,25.62708 1.07441,0.97065 10.13881,3.70023 15.69411,4.726 7.95088,1.46811 20.93912,1.28019 29.18091,-0.4222 z m 30.64767,-291.02514 0.6349,-9.66556 -13.28029,-16.12009 C 508.37903,104.75404 498.66463,92.8875 494.09564,87.25 489.52664,81.6125 485.44713,77 485.03005,77 c -1.12816,0 -3.91332,7.851776 -4.62169,13.029229 -0.77111,5.635932 1.48516,11.599591 4.87633,12.888911 2.08807,0.79388 16.65655,17.29663 35.12971,39.79391 3.25293,3.96152 6.2215,7.01297 6.59684,6.781 0.37534,-0.23197 0.96814,-4.77126 1.31734,-10.08731 z M 518.96535,83.044251 C 518.06966,64.112275 517.34176,56 516.53871,56 c -1.95737,0 -10.33061,5.752145 -11.91804,8.187304 -1.71692,2.633816 -3.6019,13.054825 -3.61312,19.9749 -0.007,4.396766 0.51104,5.296778 9.10109,15.808027 5.00975,6.130199 9.33984,10.914629 9.62242,10.632049 0.28257,-0.28258 -0.062,-12.683691 -0.76571,-27.558029 z M 311.36718,412.56133 C 301.50684,405.921 301.41798,406.19123 326.34989,367 l 21.31138,-33.5 9.91937,-5.31892 c 5.45565,-2.92541 10.48062,-5.56058 11.16661,-5.85594 0.977,-0.42065 1.11045,2.14036 0.61588,11.81892 L 368.73174,346.5 352.61587,371.7566 c -8.86373,13.89113 -17.88519,28.29113 -20.04768,32 -7.69399,13.19586 -12.01555,14.99059 -21.20101,8.80473 z m 10.69856,-1.59651 c 2.64273,-1.41435 2.43958,-2.23511 -1.06574,-4.30575 -2.97108,-1.75506 -3.87431,-4.00068 -2.06012,-5.12191 0.51694,-0.31949 2.40168,0.30809 4.18833,1.39461 l 3.24844,1.9755 1.47782,-2.10989 c 1.35203,-1.93029 1.27534,-2.27384 -0.90089,-4.03605 -3.06841,-2.48465 -10.96443,-7.11568 -11.30912,-6.63282 -4.03883,5.65775 -6.69439,11.13881 -6.18077,12.75707 0.55984,1.76392 7.82043,6.97821 9.85205,7.0754 0.44866,0.0215 1.68616,-0.42681 2.75,-0.99616 z m 26.27222,-40.53817 15.89788,-24.92665 0.51975,-8.19735 0.51975,-8.19734 -7.11786,3.74547 -7.11786,3.74546 -14.5733,22.95188 c -8.01531,12.62354 -15.43252,24.14857 -16.48269,25.61119 l -1.9094,2.65931 2.54965,1.67059 c 1.40231,0.91883 2.66175,1.52214 2.79875,1.34069 0.13701,-0.18144 7.56447,-11.91102 16.50545,-26.06573 14.70186,-23.27489 16.44146,-25.63677 18.19214,-24.69983 1.13058,0.60507 1.63577,1.53509 1.21452,2.23583 -0.3967,0.65991 -7.84545,12.39207 -16.55277,26.07148 -14.61206,22.95586 -15.69481,24.9752 -14.05674,26.21614 0.97612,0.73948 2.21129,1.21423 2.74481,1.05501 0.53353,-0.15922 8.12409,-11.50649 16.86792,-25.21615 z M 172.13867,81.600865 C 171.66639,80.995389 165.08423,69.25 157.51163,55.5 149.93904,41.75 141.26091,26.041589 138.2269,20.592421 131.91295,9.2523779 131.79586,9.7166695 141.92543,5.9267095 151.56636,2.3195753 158.2143,0.89552486 168.21204,0.29587265 200.7446,-1.6553902 230.33052,15.04337 245.90809,44.148746 c 4.4127,8.244773 8.79578,21.611181 7.46321,22.759436 -0.47921,0.412935 -3.7963,1.288239 -7.3713,1.945118 -6.31802,1.16089 -15.92979,3.015136 -48,9.259875 -23.06545,4.491324 -24.88689,4.736966 -25.86133,3.48769 z"
         id="path5" />
      <path
         style="fill:#7b7b82"
         d="M 45.79816,448.54291 C 26.436498,445.75861 11.025859,439.85697 4,432.53595 c -3.14195065,-3.27394 -3.5,-4.2151 -3.5,-9.19997 0,-5.41123 0.13249067,-5.67476 5.1920087,-10.327 C 10.529026,408.56133 23.438895,402 27.35293,402 c 0.820581,0 1.955531,-1.4625 2.522111,-3.25 0.566579,-1.7875 10.05835,-32.16832 21.092823,-67.51294 L 71.030543,266.97413 46.015271,234.34112 C 32.256872,216.39297 20.980157,200.98629 20.955905,200.10406 c -0.02425,-0.88223 -1.285318,-17.29681 -2.80237,-36.47684 l -2.758275,-34.87278 3.05237,-4.02413 c 1.678804,-2.21327 3.576504,-4.74551 4.217112,-5.62722 0.737516,-1.01508 1.761081,-13.32098 2.790534,-33.549467 0.966468,-18.990836 2.06455,-32.475049 2.707703,-33.25 1.506881,-1.815681 3.258975,-1.636857 8.126859,0.82945 6.24508,3.164062 11.296569,7.454213 12.663907,10.755258 0.666189,1.608322 1.739214,6.638857 2.384501,11.178967 l 1.173247,8.254744 4.494254,-5.613707 c 7.038009,-8.791077 10.123551,-7.563916 14.153554,5.629057 2.285702,7.482674 2.067325,13.389895 -0.692274,18.726368 -1.496958,2.8948 -1.45507,3.16174 0.943441,6.01221 4.960061,5.89469 4.682069,14.03338 -0.77987,22.83202 l -3.434138,5.53206 3.305025,6.5629 c 3.483174,6.91666 12.275329,19.15762 19.697288,27.42374 l 4.423563,4.92669 1.098147,-20.55098 c 1.101681,-20.61713 1.902946,-24.58513 5.580897,-27.63756 1.12242,-0.93153 1.69486,-0.87429 2.63946,0.26388 0.96404,1.16159 0.78868,2.01811 -0.87346,4.26627 -1.82258,2.46518 -2.21935,5.19579 -3.209665,22.08948 -0.621502,10.60211 -0.946104,19.46047 -0.721336,19.68524 C 100.03044,174.36378 124,167.6929 124,166.55001 c 0,-0.66084 -1.2853,-5.77993 -2.85622,-11.37577 -1.57091,-5.59583 -2.58341,-10.16423 -2.25,-10.152 2.53703,0.093 5.04919,4.42197 7.09604,12.22776 1.69029,6.44605 2.71781,8.74472 3.90231,8.72996 0.88433,-0.011 5.65787,-1.04701 10.60787,-2.30218 8.0453,-2.04005 9.57528,-2.15133 14.42316,-1.04905 24.61714,5.59729 52.70268,-1.2671 71.07684,-17.37191 3.52622,-3.0907 6.12296,-4.33232 12,-5.73771 4.125,-0.98642 8.21086,-2.15658 9.07969,-2.60034 0.86883,-0.44376 6.78922,-9.49452 13.15642,-20.11281 6.3672,-10.61828 12.73672,-20.390212 14.15449,-21.715409 2.15907,-2.018106 14.5588,-5.383787 76.34358,-20.722075 40.5712,-10.071945 75.7377,-18.325193 78.14779,-18.340552 8.84822,-0.05639 14.8208,6.634781 13.89273,15.564227 -0.4463,4.294128 -4.85001,12.035629 -35.21595,61.907849 -19.08823,31.35 -35.91026,58.2218 -37.38231,59.71512 -1.92841,1.95627 -7.77377,4.48312 -20.91465,9.04104 l -18.23821,6.32594 4.40748,7.45895 c 12.54556,21.23132 32.6551,39.84288 56.59045,52.37499 l 10.05622,5.26525 -33.78887,23.37917 c -18.58387,12.85854 -36.62584,25.35716 -40.09327,27.7747 l -6.30441,4.39554 -9.2335,-9.36535 C 293.94481,300.88529 280.71967,275.70928 275.69423,249.5 c -3.06278,-15.97337 -3.52612,-13.84885 4.29715,-19.70335 3.8186,-2.85763 6.78051,-5.3581 6.58201,-5.55659 -0.19849,-0.1985 -24.78587,7.99129 -54.63861,18.19952 C 200.19869,253.29183 176.13257,261 173.98624,261 c -3.11793,0 -5.87214,-1.65444 -18.28615,-10.98436 l -14.61533,-10.98435 -0.52224,3.23435 C 135.55914,273.25318 127.59274,312.18318 115.65157,364 c -4.11929,17.875 -7.63856,33.3224 -7.8206,34.32755 -0.26609,1.46929 1.04125,2.26938 6.66903,4.08143 38.61119,12.43213 30.65614,35.37883 -15.5,44.71045 -12.811358,2.59014 -40.025603,3.31829 -53.20184,1.42348 z m 43.144473,-19.70134 7.442633,-2.3919 1.782445,-6.97483 C 105.93536,389.07947 120.4935,325.26672 127.54051,290.72497 131.65105,270.57666 137,240.3984 137,237.35546 c 0,-0.6676 -12.32665,-10.42992 -27.39255,-21.69405 -23.545995,-17.60432 -27.558951,-20.98443 -28.577552,-24.07082 -1.945303,-5.89432 1.485076,-12.87775 7.348312,-14.95939 1.648791,-0.58538 1.273922,-1.30593 -3.068991,-5.89901 -2.720961,-2.87771 -6.965011,-7.97378 -9.431222,-11.32461 l -4.484022,-6.09242 -1.714032,4.14414 c -0.942718,2.27927 -5.107868,8.08413 -9.255889,12.89968 l -7.541857,8.75554 1.221636,5.69274 C 55.569647,191.63784 56.651331,194 58.313396,194 c 2.588816,0 16.093117,7.1867 21.5257,11.45552 6.367244,5.00326 12.364946,12.25244 11.941542,14.43326 -0.550817,2.8371 -2.50976,2.1096 -5.348112,-1.98615 C 80.972575,210.02392 69.313828,202.01245 57.5,198.02125 l -5,-1.68921 -1.940157,-9.55518 -1.940156,-9.55518 6.195781,-6.7616 c 3.40768,-3.71888 7.581882,-8.83126 9.276005,-11.36084 2.674122,-3.99287 3.009644,-5.22171 2.544881,-9.32061 -0.294438,-2.59675 -1.035629,-5.65617 -1.64709,-6.79869 -1.227701,-2.29398 0.412835,-3.53593 -22.989264,17.4037 -4.675,4.18308 -9.093798,7.60802 -9.819551,7.61098 -3.408679,0.0139 0.461955,-4.68084 13.586951,-16.47978 20.034634,-18.01047 26.446123,-27.23267 24.849534,-35.74322 -0.353011,-1.88171 -1.926486,-4.65207 -3.49661,-6.15634 l -2.854771,-2.73505 -10.957149,12.80989 C 29.313105,147.74276 22,157.10927 22,159.78945 c 0,1.43909 0.712417,11.15401 1.583149,21.58871 l 1.583148,18.97218 23.763554,31.07483 c 13.069955,17.09116 24.361798,32.04092 25.092984,33.22169 1.186375,1.91584 -1.283177,10.50778 -22.950039,79.84666 -13.353708,42.73489 -23.895467,78.03532 -23.426132,78.44539 1.335745,1.16707 16.102108,6.11985 22.801454,7.64783 9.44468,2.15412 29.139805,1.26123 38.494515,-1.74517 z M 370.77379,290.5 c 14.9289,-10.29784 22.7554,-16.27157 21.9608,-16.76201 -0.67902,-0.41911 -5.17434,-3.11911 -9.98959,-6 -12.94698,-7.74598 -19.98243,-13.19055 -29.78776,-23.05204 -10.3676,-10.42697 -19.5719,-22.96025 -25.2951,-34.44371 -2.26356,-4.54177 -4.4709,-8.13932 -4.90522,-7.99455 -0.43432,0.14478 -10.6823,7.86297 -22.77329,17.15154 -25.45747,19.55699 -23.74063,16.43611 -19.11312,34.74409 3.52319,13.93894 8.68125,26.65008 15.36187,37.85668 6.40002,10.73588 9.3929,14.62808 18.61792,24.21236 l 7.42328,7.71237 12.65241,-8.71237 C 341.88482,310.42056 358.01633,299.3 370.77379,290.5 Z m -49.32764,15.41287 c -0.90454,-1.46357 -0.70503,-1.63234 14.64048,-12.38445 11.59334,-8.12309 13.60882,-9.20685 14.85385,-7.98718 0.79226,0.77613 1.24226,1.57748 1,1.78079 C 349.05178,289.74623 323.6993,307 323.0259,307 c -0.49933,0 -1.21021,-0.48921 -1.57975,-1.08713 z M 303.6055,283.41434 c -0.35892,-0.93533 -0.52948,-1.78024 -0.37904,-1.87757 0.15045,-0.0973 9.12728,-6.53222 19.94853,-14.29973 16.79734,-12.05717 19.85526,-13.90551 20.90761,-12.63751 0.72901,0.8784 0.8618,1.82601 0.32502,2.31929 -1.7473,1.60567 -37.91852,27.33784 -39.02858,27.76488 -0.61652,0.23718 -1.41462,-0.33403 -1.77354,-1.26936 z m -6.93883,-12.08101 C 296.3,270.96667 296,270.32386 296,269.90488 c 0,-1.43481 28.95477,-22.05087 30.03354,-21.38415 2.24676,1.38857 0.0681,3.57561 -13.33039,13.38167 -13.79259,10.09449 -14.78771,10.67971 -16.03648,9.43093 z M 172.72131,246.33748 c 0.21287,-0.63939 -3.34984,-3.81991 -7.91714,-7.06782 -4.56729,-3.24792 -22.82696,-16.33728 -40.57703,-29.08748 C 106.47707,197.43198 91.289569,187 90.477141,187 c -4.409551,0 1.661198,5.06758 32.772859,27.35725 18.8375,13.49596 36.95,26.56283 40.25,29.03749 5.90046,4.42473 8.45635,5.24038 9.22131,2.94274 z M 195.2258,242.25 c 1.90276,-3.1625 20.92738,-33.875 42.27694,-68.25 47.04841,-75.752807 42.83639,-68.67387 42.06207,-70.69171 -0.58529,-1.52523 -0.80648,-1.50214 -2.47606,0.25843 -3.19438,3.36848 -89.06527,142.66225 -88.50566,143.56772 1.27184,2.05788 3.41309,0.48339 6.64271,-4.88444 z m 139.68825,-70.20615 c 9.96521,-5.08387 14.98493,-17.77732 10.15961,-25.69076 C 337.8247,134.46494 317,146.00593 317,161.91143 c 0,10.26414 8.37289,14.99995 17.91405,10.13242 z M 323.22251,168.4433 C 321.48459,167.22601 321,165.90345 321,162.37755 c 0,-2.47997 0.50498,-5.49195 1.12219,-6.69329 C 324.87004,150.33575 331.70851,145 335.81548,145 c 1.05314,0 3.1508,0.97224 4.66147,2.16053 2.46949,1.9425 2.70003,2.64581 2.28457,6.96963 -1.06008,11.03241 -12.38194,19.32614 -19.53901,14.31314 z M 37.186173,132.5 c 18.954147,-22.77516 23.512533,-27.85756 26.524743,-29.57393 4.145668,-2.36222 5.912614,-7.921739 4.562878,-14.356646 -0.598844,-2.85501 -1.805143,-6.905358 -2.680663,-9.000773 l -1.591855,-3.809844 -6.459835,7.870596 C 53.988531,87.958231 44.088244,100.01328 35.540803,110.4184 18.252759,131.46378 19.233273,129.23015 20.658343,144.32099 21.4195,152.38129 19.4947,153.75794 37.186173,132.5 Z M 38.570759,100.28617 48.26913,88.572349 47.643789,80.036174 C 46.569133,65.366671 44.670508,61.933525 34.86647,56.931878 c -3.623261,-1.84845 -3.866609,-1.861169 -3.868682,-0.202202 -0.0037,2.930068 -1.909676,39.198914 -2.497306,47.520324 -0.301004,4.2625 -0.340462,7.75 -0.08769,7.75 0.252776,0 4.82386,-5.27122 10.157963,-11.71383 z M 460.5,448.83704 c -40.99282,-4.61872 -62.45318,-23.56718 -43.2661,-38.20187 3.989,-3.04256 14.83288,-8.08668 19.58367,-9.1095 1.82466,-0.39285 3.53549,-1.28216 3.80184,-1.97625 0.26635,-0.6941 -1.81344,-11.11416 -4.62175,-23.15571 -16.69913,-71.60299 -26.46882,-120.50267 -28.88325,-144.5678 -1.07377,-10.70255 -0.65598,-13.64109 4.8984,-34.45288 7.93533,-29.73306 20.07155,-73.7005 20.56272,-74.49524 1.00138,-1.62027 6.88854,-0.86544 10.83045,1.38866 7.92522,4.53186 8.23478,5.6985 10.3476,38.99743 l 0.74642,11.76388 6.81476,-7.87339 c 7.80027,-9.01199 12.47588,-15.70865 17.24695,-24.70201 3.28008,-6.18286 3.30918,-6.34711 1.52846,-8.62761 -7.40227,-9.47981 -8.122,-19.61726 -1.88,-26.4799 1.91067,-2.10064 1.91383,-2.22597 0.12503,-4.95602 -3.04297,-4.644156 -2.52713,-16.314686 1.06695,-24.13883 3.72317,-8.105177 5.40542,-8.19197 12.19042,-0.62894 l 5.09257,5.676534 0.67872,-7.302704 c 1.1559,-12.437104 4.51109,-17.43954 15.3463,-22.880669 4.83865,-2.429827 6.6351,-2.622625 8.05265,-0.864221 0.55424,0.6875 1.74889,15.811532 2.6548,33.60896 l 1.64709,32.35896 4.15657,4.92945 4.15658,4.92945 -2.78338,36.71159 c -2.73068,36.01655 -2.83291,36.77785 -5.40005,40.21159 -1.43917,1.925 -12.15359,15.92463 -23.80982,31.11029 -11.65623,15.18565 -21.70985,28.46065 -22.34138,29.5 -0.94686,1.55829 1.67611,10.92192 14.95566,53.38971 24.87717,79.5568 26.00842,83 27.2693,83 2.6965,0 14.56937,5.36723 19.01871,8.59756 8.36504,6.07325 10.70372,12.62566 6.79451,19.03661 -8.90603,14.60555 -48.8183,23.45768 -86.5814,19.20287 z m 48.5,-21.3075 c 6.325,-2.05358 11.85065,-4.06098 12.27923,-4.46089 0.42857,-0.39991 -6.17378,-22.96645 -14.67189,-50.14788 C 498.10922,345.73935 487.72773,312.475 483.53736,299 c -4.19038,-13.475 -8.22847,-26.35455 -8.97354,-28.62122 l -1.35466,-4.12122 25.23834,-33.01285 25.23835,-33.01286 1.18209,-15.36592 C 525.51809,176.41467 526.3017,166.8 526.60929,163.5 l 0.55925,-6 -16.33427,-19.56023 C 489.68883,112.61819 484.78805,107 483.84533,107 c -0.42528,0 -1.91445,1.67946 -3.30928,3.73213 -6.61983,9.74197 -1.54855,18.91771 22.60033,40.89197 13.84808,12.60106 15.96086,15.17682 13.2029,16.09614 -0.56965,0.18988 -7.86251,-5.77915 -16.20635,-13.26453 l -15.17061,-13.60977 -1.48116,3.54491 c -3.39542,8.12639 -1.72251,12.3057 10.41038,26.0075 3.35965,3.79409 6.10846,7.47866 6.10846,8.18794 0,1.2332 -2.57799,13.17107 -3.56558,16.5111 -0.25978,0.87856 -2.37629,2.15992 -4.70337,2.84745 -9.28645,2.74367 -18.08436,8.28257 -25.9714,16.35082 -6.02742,6.16589 -7.87911,7.55661 -8.36733,6.28432 -0.37425,-0.97528 0.49666,-3.25528 2.1606,-5.65635 5.14427,-7.42318 16.60191,-15.61429 27.49421,-19.6557 l 5.45287,-2.0232 1.77151,-7.19132 1.7715,-7.19131 -5.62222,-6.18105 c -6.70129,-7.36737 -11.40372,-13.97191 -12.28172,-17.24961 -0.5838,-2.17944 -1.13327,-1.71752 -6.35385,5.3414 -7.24421,9.79514 -19.43534,21.99445 -20.67493,20.68879 -0.50214,-0.52889 -1.39852,-11.00688 -1.99195,-23.2844 -0.66805,-13.82136 -1.56251,-23.32816 -2.34865,-24.96267 -1.48816,-3.09413 -7.49111,-7.41486 -9.70847,-6.98783 -1.71349,0.32998 -2.08308,1.56646 -16.67121,55.77327 l -9.55376,35.5 0.51843,11.5 c 0.98132,21.76775 14.65075,89.30728 35.17039,173.77399 l 5.65399,23.27399 3.50523,1.46457 c 7.66937,3.20447 16.61649,4.45596 29.31571,4.10058 11.17938,-0.31285 13.71497,-0.74428 24,-4.08359 z M 528.40544,140 529.07058,129.5 513.28529,110.3926 C 504.60338,99.883525 494.68473,87.795092 491.24384,83.529411 l -6.25617,-7.755783 -2.04107,4.614176 c -3.06851,6.936878 -3.6004,13.835924 -1.43663,18.634296 1.00539,2.22957 2.49617,3.97788 3.3919,3.97786 1.80915,-5e-5 1.91339,0.1148 25.23123,27.80121 9.40384,11.16564 17.21249,20.16564 17.35255,20 0.14005,-0.16564 0.55396,-5.02617 0.91979,-10.80117 z m -7.94215,-31.25 C 520.23726,106.9625 519.54215,94.25 518.91861,80.5 518.29506,66.75 517.68987,55.394081 517.57373,55.264624 516.97618,54.598521 506.40946,61.847887 504.84099,64 502.63064,67.032855 501,75.185102 501,83.202724 v 5.929745 l 9.25,11.380781 c 5.0875,6.25944 9.55921,11.40463 9.93713,11.43377 0.37792,0.0291 0.50219,-1.40952 0.27616,-3.19702 z M 311.25155,412.48347 c -5.72017,-3.85219 -7.2342,-7.04179 -5.51038,-11.60871 0.57558,-1.52488 10.32437,-17.34943 21.66398,-35.16566 l 20.61747,-32.39314 10.22922,-5.40798 c 5.62608,-2.97439 10.51239,-5.53845 10.85847,-5.6979 0.34608,-0.15946 0.41414,5.01554 0.15125,11.5 -0.56289,13.88421 1.43235,9.69688 -22.33887,46.88171 C 337.61521,395.15129 330,407.49111 330,408.01361 c 0,0.52251 -1.53748,2.53319 -3.41663,4.4682 -4.56731,4.70307 -8.35001,4.70348 -15.33182,0.002 z m 10.81419,-1.51865 c 2.64273,-1.41435 2.43958,-2.23511 -1.06574,-4.30575 -3.01194,-1.7792 -3.87043,-4.00308 -1.99318,-5.16329 0.55376,-0.34224 2.38038,0.35581 4.05917,1.55121 2.95819,2.10642 3.09579,2.11608 4.46137,0.31323 0.77497,-1.02312 1.41839,-2.31022 1.42983,-2.86022 0.02,-0.96257 -11.34401,-8.5 -12.81526,-8.5 -0.39565,0 -2.20322,2.44836 -4.01682,5.44079 -3.97754,6.56291 -3.61615,8.55176 2.18582,12.0294 4.75716,2.8514 5.0972,2.91693 7.75481,1.49463 z M 348.745,370.20631 364.99001,344.5 l 0.005,-7.80861 0.005,-7.80861 -7.02575,3.80861 -7.02574,3.80861 -16.38184,25.69554 -16.38183,25.69555 2.53337,1.65993 c 1.53449,1.00544 2.7795,1.27385 3.15758,0.68075 0.34332,-0.53854 7.78506,-12.28023 16.53722,-26.09263 12.95476,-20.44483 16.17002,-24.90016 17.29551,-23.96608 0.76037,0.63105 1.11867,1.8349 0.79621,2.67521 -0.32246,0.84032 -7.57902,12.50473 -16.12569,25.92092 -14.53933,22.82321 -15.42161,24.48234 -13.70922,25.78014 1.0066,0.76288 2.28018,1.38172 2.83018,1.37518 0.55,-0.007 8.31025,-11.57973 17.245,-25.7182 z M 170.56945,78.618052 C 169.27133,76.353123 162.25395,63.7 154.97525,50.5 147.69656,37.3 139.77448,22.963968 137.37063,18.642151 134.96678,14.320334 133,10.674451 133,10.540189 c 0,-1.1985055 15.9299,-7.0945356 23.24834,-8.6047574 22.13211,-4.5671467 44.42813,-0.060664 63.37355,12.8090934 7.91407,5.376083 19.24302,17.488965 24.21257,25.888014 4.03858,6.825598 10.8211,25.045235 9.72973,26.136602 -0.43398,0.433982 -60.73035,12.415959 -77.84936,15.470074 -2.42601,0.432812 -3.08954,-0.03415 -5.14538,-3.621163 z"
         id="path4" />
      <path
         style="fill:#5c5b61"
         d="M 49.741526,448.83062 C 33.102441,447.12088 15.208375,441.44726 7.2070536,435.34436 -6.0618276,425.22369 -0.02860005,411.87091 21.248156,404.2685 L 28.996312,401.5 31.441128,394 c 1.344649,-4.125 10.827539,-34.38683 21.07309,-67.24852 L 71.142492,267.00297 46.919656,235.25148 C 33.597097,217.78817 22.355205,203.05 21.937675,202.5 c -0.41753,-0.55 -2.024782,-17.50189 -3.571672,-37.67087 l -2.812527,-36.67087 4.162916,-4.93697 4.162916,-4.93697 1.647079,-32.39216 c 1.206264,-23.722915 2.002666,-32.761401 2.97571,-33.77181 1.851497,-1.922594 5.117787,-0.889767 12.251722,3.874092 7.180129,4.794706 8.847626,7.841677 10.435237,19.068014 l 1.159267,8.197421 5.099151,-5.746919 C 63.575946,70.605961 65.531498,70.516796 68.697584,77 c 4.493961,9.202297 5.087816,18.445968 1.624485,25.28597 -1.272284,2.51274 -1.215721,3.03377 0.576717,5.31249 5.237291,6.65813 5.077152,15.26433 -0.436483,23.45756 l -3.418794,5.0803 3.386778,6.68184 c 4.278303,8.44075 11.72659,18.95224 18.90635,26.68184 l 5.573194,6 0.05921,-3.5 c 0.231052,-13.65907 2.225368,-37.52929 3.362866,-40.25054 1.907663,-4.56373 4.042453,-6.20823 5.608933,-4.32074 0.96539,1.16322 0.7721,2.04054 -0.96814,4.39433 -1.94384,2.62919 -2.28825,4.96667 -3.248947,22.05019 -0.591037,10.51007 -0.851183,19.33266 -0.578101,19.60574 0.587492,0.58749 23.628288,-4.91959 24.584828,-5.87613 0.36126,-0.36126 -0.39377,-4.58219 -1.67785,-9.37984 C 120.76855,153.42535 119.49478,148.375 119.22201,147 l -0.49593,-2.5 2.49675,2.29259 c 1.7408,1.59846 3.1851,4.92895 4.77027,11 1.25044,4.78908 2.35011,8.80648 2.44371,8.92757 0.0936,0.12109 4.91651,-1.02173 10.71757,-2.53961 9.89043,-2.58788 10.85253,-2.6724 15.4465,-1.35701 7.38685,2.11508 29.30659,2.04621 37.27812,-0.11711 13.42992,-3.64463 24.87398,-9.44373 34.0584,-17.25856 3.8782,-3.29987 6.27835,-4.39839 12.92887,-5.91733 4.49162,-1.02586 8.72169,-2.52262 9.40016,-3.32615 0.67846,-0.80352 6.44108,-10.06572 12.80581,-20.58267 7.40708,-12.23931 12.67006,-19.864727 14.62237,-21.186051 3.76092,-2.545393 147.72295,-38.464748 154.09411,-38.447368 3.57927,0.0098 4.96537,0.642864 8.37906,3.827122 3.50214,3.26676 4.15996,4.540003 4.5745,8.85419 0.29126,3.031247 -0.0151,5.993294 -0.76891,7.434577 -4.05955,7.761704 -69.65352,114.85717 -71.6853,117.04081 -1.80276,1.9375 -7.3195,4.30972 -20.62456,8.86865 -9.98993,3.42301 -18.29648,6.34073 -18.45901,6.48383 -0.4639,0.40846 5.54905,10.34898 10.58714,17.50252 10.99814,15.61614 34.67339,35.3927 52.62826,43.96177 3.61906,1.72722 6.56335,3.45491 6.54288,3.83931 -0.0205,0.38441 -13.85797,10.22666 -30.75,21.87168 -16.89203,11.64502 -34.65805,23.91407 -39.48004,27.26455 l -8.76727,6.09179 -7.83556,-7.76455 c -20.87295,-20.68376 -34.66096,-48.02254 -39.59804,-78.51472 l -1.25486,-7.75017 7.3615,-5.63845 C 284.68733,226.26006 288,223.58992 288,223.42755 c 0,-0.32238 0.82614,-0.60064 -65.19385,21.95867 C 197.67453,253.9738 175.78752,261 174.16836,261 c -3.18226,0 -7.72188,-2.85049 -23.39464,-14.68984 -9.09497,-6.87042 -9.7574,-7.20007 -10.20557,-5.07874 -0.2636,1.24772 -1.22398,6.99358 -2.13417,12.76858 -3.55898,22.58103 -18.99822,95.07514 -28.85775,135.5 -1.34143,5.5 -2.13236,10.23934 -1.7576,10.53186 0.37475,0.29252 4.05637,1.63586 8.18137,2.98519 9.58709,3.13604 18.76423,9.27734 21.29679,14.25171 4.06856,7.99133 -0.50339,15.27421 -13.65488,21.75147 -18.2222,8.97465 -46.064114,12.67071 -73.900384,9.81039 z M 89.5,428.89109 l 7,-2.39109 4.73386,-19 C 116.31055,346.98771 137,248.92553 137,237.97858 c 0,-1.40869 -7.45723,-7.54101 -26.25,-21.58618 -14.4375,-10.79017 -27.027494,-20.58012 -27.977764,-21.75545 -2.197694,-2.71817 -2.318956,-10.41139 -0.211532,-13.42016 0.858388,-1.22551 2.906878,-2.92435 4.552201,-3.77518 l 2.991497,-1.54696 -5.150175,-5.63511 c -2.832596,-3.09931 -6.968565,-8.21359 -9.191041,-11.36506 l -4.040865,-5.72994 -2.340895,4.66773 c -1.287492,2.56725 -5.538228,8.4115 -9.44608,12.98723 l -7.105185,8.31949 1.61458,7.25723 1.614581,7.25724 5.220339,1.65196 c 8.241646,2.60804 17.405049,8.6193 24.334081,15.96332 5.937802,6.29343 7.829217,9.73126 5.353918,9.73126 -0.567787,0 -4.280287,-3.2671 -8.25,-7.26022 -7.367908,-7.41135 -15.209147,-12.32908 -24.923525,-15.6311 l -5.182506,-1.76159 -1.748498,-7.92354 c -0.961673,-4.35795 -1.77429,-8.70208 -1.805814,-9.65362 -0.03152,-0.95154 2.715055,-4.77654 6.103509,-8.5 11.559318,-12.70216 13.66351,-17.96792 10.349447,-25.89959 l -1.489727,-3.56542 -2.859523,2.40613 c -1.572738,1.32338 -8.341855,7.32977 -15.042484,13.34754 C 39.417911,162.57637 33.425074,167.5 32.801123,167.5 29.398855,167.5 32.327432,163.92557 45.50182,151.99835 64.676059,134.63927 71,126.18239 71,117.90015 c 0,-3.44209 -3.170512,-9.36787 -5.487966,-10.25716 -1.536266,-0.58952 -9.106657,7.76315 -31.483463,34.73677 l -12.343969,14.87976 1.206628,17.12024 c 0.663645,9.41613 1.456609,19.17501 1.762142,21.6864 0.498702,4.09918 3.098797,7.88309 25.424327,37 13.677848,17.83861 24.880849,32.89707 24.895558,33.46323 0.01471,0.56617 -10.787437,35.64218 -24.004768,77.94669 -13.217331,42.30452 -23.824852,77.45585 -23.572268,78.11407 0.483753,1.26064 16.117496,6.79715 23.667134,8.38145 2.440155,0.51206 10.511645,0.79143 17.936645,0.6208 11.064594,-0.25426 14.762803,-0.74158 20.5,-2.70131 z m 269,-129.73189 c 18.7,-12.90326 34.36031,-23.7755 34.80069,-24.16053 0.44039,-0.38503 -2.95769,-2.80945 -7.55128,-5.3876 -24.44664,-13.72067 -47.37475,-37.42903 -58.87812,-60.88178 -1.87713,-3.82704 -3.82804,-6.57613 -4.48726,-6.32316 -1.06265,0.40777 -31.18198,23.33277 -40.99498,31.20287 l -4.11094,3.29701 1.4161,8.297 c 3.23994,18.98289 12.55155,41.0809 24.02577,57.01719 7.11184,9.87749 19.00086,22.06227 20.5957,21.10806 C 323.96706,322.93854 339.8,312.06246 358.5,299.1592 Z m -36.99898,6.84244 c -0.38571,-0.62409 -0.39494,-1.44226 -0.0205,-1.81817 2.43452,-2.44417 28.15565,-19.90834 28.76565,-19.53134 2.18697,1.35162 -0.42647,3.98437 -12.15823,12.24807 -14.23488,10.02686 -15.56417,10.75626 -16.5869,9.10144 z m -17.43714,-22.42467 c -0.96365,-1.16112 2.2347,-3.88076 17.92848,-15.2451 10.50575,-7.60753 19.69865,-13.96646 20.42867,-14.13096 0.73002,-0.1645 1.55498,0.2942 1.83324,1.01933 0.31847,0.82991 -4.87731,5.20178 -14.02272,11.79909 -26.8844,19.39384 -24.87109,18.11992 -26.16767,16.55764 z m -7.59056,-12.62014 c -0.89866,-1.45406 -0.64288,-1.67661 15.31564,-13.32602 12.31605,-8.99048 15.26283,-10.41194 15.17856,-7.32179 -0.0292,1.07162 -26.19144,20.59895 -28.73297,21.44613 -0.5782,0.19273 -1.37075,-0.16651 -1.76123,-0.79832 z M 230.26358,186 c 20.60983,-33.275 40.25303,-64.94866 43.65156,-70.38592 C 279.75997,106.26304 281.0079,102.5 278.26414,102.5 277.12585,102.5 188,245.15958 188,246.9816 c 0,1.42104 2.42515,1.85245 3.64559,0.6485 0.63007,-0.62155 18.00817,-28.3551 38.61799,-61.6301 z M 172.5,246.07642 c 0,-1.70259 -79.287192,-58.94721 -81.75,-59.02275 -4.504241,-0.13815 -0.317582,3.88439 17,16.33356 10.3125,7.4134 28.425,20.45833 40.25,28.98873 11.825,8.5304 22.175,15.41685 23,15.30323 0.825,-0.11362 1.5,-0.83486 1.5,-1.60277 z m 161.78212,-73.42355 c 4.2212,-1.76716 10.15838,-8.42755 11.71388,-13.14074 1.70284,-5.15965 0.76644,-12.07164 -2.04011,-15.05909 C 335.381,135.3255 317,146.96734 317,161.5259 c 0,5.16217 1.22047,8.15304 4.36704,10.70186 2.56522,2.07791 8.50039,2.27327 12.91508,0.42511 z M 323,168 c -4.03788,-4.03788 -1.93557,-13.21535 4.27676,-18.66985 11.32972,-9.94762 21.40169,1.22517 12.09911,13.42148 C 334.16085,169.58887 326.91207,171.91207 323,168 Z M 29.088094,142.25 C 50.174122,116.98758 62.664566,103 64.137038,103 66.040695,103 69,96.4042 69,92.161265 69,88.621961 66.476529,80.033952 64.737887,77.656217 63.523214,75.995053 63.010508,76.362155 58.465358,82.147405 55.743005,85.612525 45.974609,97.603516 36.757813,108.79405 L 20,129.14048 l 0.0087,5.67976 C 20.017133,140.33573 21.020908,151 21.531614,151 c 0.139168,0 3.539584,-3.9375 7.55648,-8.75 z m 9.730491,-41.89875 C 47.821668,89.419037 48,89.100147 48,83.93316 48,75.304631 46.007718,66.162622 43.470123,63.146862 41.053158,60.274462 31.019631,54.285684 30.972945,55.687588 30.958065,56.134415 30.295239,68.425 29.5,83 c -1.732535,31.75357 -1.706768,30.63996 -0.681415,29.45 0.450222,-0.5225 4.950222,-5.96694 10,-12.09875 z M 467,449.33758 C 432.78249,445.99063 410,435.26385 410,422.5 c 0,-8.92972 8.99976,-15.39362 30.63231,-22.00106 0.77997,-0.23823 0.21914,-4.18152 -1.80232,-12.67239 C 420.29578,309.97614 408.37055,249.8813 407.31166,228.99617 l -0.58326,-11.50383 12.68145,-46.91552 c 6.97479,-25.80354 12.94424,-47.34074 13.26544,-47.86045 0.97939,-1.58468 8.24235,-0.0366 12.23993,2.60883 6.09064,4.03059 6.85486,6.80894 8.00615,29.10671 0.56363,10.91616 1.18429,20.00708 1.37924,20.20204 0.47106,0.47105 10.26473,-10.72409 15.42641,-17.63395 2.25969,-3.025 5.91706,-8.875 8.12751,-13 l 4.01898,-7.5 -3.46912,-5.56203 c -5.47406,-8.77653 -5.78644,-16.95362 -0.87083,-22.79549 l 2.45399,-2.91639 -2.11795,-4.78797 C 475.1265,94.236889 475.83005,85.861537 479.75445,78 c 3.79038,-7.593044 5.8053,-7.701388 11.40187,-0.613088 2.38902,3.025804 4.62306,5.526578 4.96451,5.557275 0.34146,0.0307 0.92829,-2.756687 1.30406,-6.194187 1.50136,-13.733988 4.74854,-18.679106 15.60429,-23.763667 6.45239,-3.02214 8.3569,-2.125614 8.74267,4.115512 0.14952,2.418985 0.92136,17.142002 1.71521,32.717815 l 1.44335,28.31966 4.16536,4.97507 4.16537,4.97507 -2.67393,35.70527 c -1.47065,19.6379 -3.04926,36.60527 -3.50801,37.70527 -0.45875,1.1 -11.68827,16.175 -24.9545,33.5 -13.26622,17.325 -24.10978,31.95 -24.09679,32.5 0.013,0.55 9.37277,30.88996 20.7995,67.42213 l 20.77587,66.42212 4.94836,1.6831 c 34.77466,11.82802 31.50637,32.72209 -6.63058,42.38914 -14.5507,3.68835 -36.232,5.35788 -50.92106,3.92109 z m 31.71656,-18.77796 c 6.79296,-1.42894 21.03184,-6.2031 22.60048,-7.57772 0.44937,-0.39379 -10.04825,-35.4922 -23.32805,-77.99646 -13.27981,-42.50426 -23.95553,-78.00541 -23.72382,-78.89143 0.2317,-0.88603 11.47838,-16.0586 24.99262,-33.71683 l 24.57135,-32.10586 1.58816,-19.88566 c 0.87349,-10.93711 1.58694,-20.64159 1.58543,-21.5655 -0.002,-0.92391 -7.84532,-11.04891 -17.43072,-22.5 -26.14368,-31.23227 -25.00488,-30.03572 -27.00571,-28.37519 -3.1959,2.65237 -4.81104,7.15617 -4.33669,12.09283 0.71206,7.41053 7.77733,16.42027 25.05673,31.95274 13.64954,12.26958 15.7777,14.82145 13.10385,15.71273 -0.54165,0.18055 -7.71352,-5.73914 -15.9375,-13.15486 -8.22398,-7.41573 -15.19979,-13.49782 -15.5018,-13.51577 -1.08694,-0.0646 -2.95089,6.69444 -2.95089,10.7005 0,4.33526 2.47757,8.16705 13.35474,20.65432 l 4.85474,5.57336 -1.67397,7.76959 c -2.42325,11.24735 -2.33599,11.07089 -5.83084,11.78987 -7.7599,1.59639 -18.14426,7.86405 -26.01528,15.70196 -4.29583,4.27777 -8.23333,7.77776 -8.75,7.77776 -3.63006,0 3.62002,-9.71127 12.13757,-16.25792 4.72232,-3.6296 14.9886,-9.01269 21.0774,-11.05186 1.09471,-0.36662 2.19853,-2.94656 3.26294,-7.62644 l 1.60858,-7.07239 -7.15451,-8.2457 c -3.93498,-4.53513 -8.13679,-10.34617 -9.33736,-12.91341 l -2.18285,-4.66773 -6.22432,8.24493 c -7.79664,10.32766 -18.7893,21.3588 -19.98116,20.05112 -0.48155,-0.52833 -1.37512,-11.25999 -1.98572,-23.84814 -1.20902,-24.92525 -1.4817,-26.00864 -7.46429,-29.65646 -4.19723,-2.55921 -6.35345,-2.4679 -6.94193,0.294 -0.26368,1.2375 -5.4693,20.7 -11.56806,43.25 -14.20323,52.51605 -13.40363,48.55041 -12.14836,60.25047 2.87295,26.77802 14.69606,84.6149 32.96288,161.24953 8.57457,35.97282 7.53242,32.90677 11.78965,34.68555 10.1206,4.22866 30.12133,5.56777 42.92671,2.87407 z m 29.80689,-290.06295 c 0.42484,-6.23302 0.33275,-11.01019 -0.22652,-11.75 -0.87771,-1.16106 -27.67736,-33.941809 -38.50449,-47.097848 l -4.81539,-5.851178 -2.16278,4.851178 c -2.86724,6.431313 -3.45537,13.881035 -1.47084,18.63069 0.85498,2.046268 2.21034,3.720488 3.01191,3.720488 1.93023,0 11.05564,9.99012 28.14466,30.81158 7.7,9.38178 14.2942,17.08717 14.65377,17.1231 0.35957,0.0359 0.97593,-4.66118 1.36968,-10.43801 z m -9.04733,-53.534402 c -0.78797,-14.004247 -1.44245,-26.932349 -1.4544,-28.729114 L 518,54.966308 l -4.75,2.417861 c -8.84641,4.50303 -10.78566,7.969855 -12.22154,21.848668 l -0.93061,8.994973 10.13754,12.3663 c 5.57564,6.80146 10.25811,12.24572 10.40547,12.09836 0.14737,-0.14736 -0.37677,-11.72595 -1.16474,-25.730202 z M 312.58226,413.07091 c -5.09182,-2.99746 -7.48573,-6.06063 -7.54682,-9.65669 -0.0195,-1.14717 9.61065,-17.30998 21.40032,-35.91735 l 21.43575,-33.83158 9.81425,-5.31413 c 5.39783,-2.92278 10.26424,-5.32326 10.81424,-5.33441 0.63885,-0.0129 0.81943,4.22385 0.5,11.73149 L 368.5,346.5 349.25,376.70672 c -10.5875,16.61369 -19.26422,30.56369 -19.2816,31 -0.0501,1.25762 -4.474,5.95832 -6.7577,7.18051 -3.17259,1.69793 -5.26665,1.34007 -10.62844,-1.81632 z m 10.53839,-2.71628 c 1.17321,-1.41363 1.10783,-1.80095 -0.46418,-2.75 -4.19222,-2.53091 -4.74927,-3.19921 -4.09275,-4.91008 0.6306,-1.64333 0.88715,-1.62608 4.11158,0.27638 4.21329,2.4859 3.77626,2.51503 5.67191,-0.37809 1.55695,-2.3762 1.49644,-2.45979 -4.70471,-6.5 -3.45506,-2.25106 -6.70056,-4.08475 -7.21222,-4.07487 -1.40931,0.0272 -7.43028,9.68278 -7.43028,11.91563 0,2.31049 7.47913,7.95583 10.62756,8.02181 1.17015,0.0245 2.74204,-0.69583 3.49309,-1.60078 z m 10.28526,-13.73924 c -0.29223,-0.76153 6.69689,-12.77778 15.53138,-26.70278 L 365,344.59443 v -7.88038 -7.88037 l -7.13759,3.83914 -7.13758,3.83914 -16.24794,25.49402 c -8.93637,14.02171 -16.07589,25.78622 -15.86561,26.14336 0.21028,0.35714 2.04206,1.6286 4.07061,2.82548 2.04603,1.20718 3.1503,1.5279 2.48004,0.72029 -0.98982,-1.19266 1.65705,-5.95172 14.64161,-26.32548 14.18302,-22.25422 18.92846,-28.20178 18.58684,-23.29527 -0.0603,0.8659 -7.14778,12.62258 -15.75,26.12596 C 334.03817,381.70369 327,392.98854 327,393.27775 c 0,0.43616 6.01885,4.65148 6.71862,4.7054 0.12023,0.009 -0.0205,-0.60622 -0.31271,-1.36776 z M 169.53427,76.583545 C 167.67668,73.237595 158.70782,57.002277 149.60348,40.50506 L 133.05013,10.51012 137.45736,8.2703005 C 139.88134,7.0383998 145.83256,4.8333501 150.6823,3.37019 158.35078,1.0566164 161.25946,0.70989892 173,0.70989892 c 11.73686,0 14.65028,0.34705428 22.30747,2.65732448 15.94715,4.8114608 26.83775,11.6458786 38.56104,24.1990546 7.8043,8.356767 15.8729,22.921521 18.52166,33.433722 1.25035,4.962301 1.2257,5.569156 -0.25217,6.207381 -0.9009,0.389059 -9.063,2.094757 -18.138,3.790439 -9.075,1.695682 -26.53237,5.014956 -38.79415,7.376164 l -22.29414,4.293106 z"
         id="path3" />
      <path
         style="fill:#080715"
         d="M 54.312804,449.00005 C 35.00656,447.33265 18.888528,442.84061 9.5739382,436.53149 -6.7493132,425.47514 -1.2528024,412.41933 23.452199,403.56659 l 5.9522,-2.1329 20.814246,-66.46684 C 61.66648,298.41008 70.871345,267.82235 70.673899,266.9941 70.476454,266.16586 59.815267,251.77755 46.982373,235.02008 34.14948,218.26261 23.069389,203.41527 22.359951,202.02598 c -1.521086,-2.97873 -6.886904,-72.33481 -5.745697,-74.26622 0.409391,-0.69287 2.270079,-3.14445 4.134863,-5.44795 l 3.390515,-4.1882 1.623583,-32.135162 c 1.105241,-21.875778 2.02296,-32.670445 2.874542,-33.811806 1.147145,-1.5375 1.793817,-1.398488 7.792316,1.675073 10.90351,5.586831 12.88201,8.934382 15.082424,25.518922 0.355427,2.67885 0.976631,4.47885 1.380454,4 0.403823,-0.478851 2.660013,-3.233137 5.013755,-6.120637 5.664845,-6.949462 7.456962,-6.866954 10.860254,0.5 3.44852,7.464856 4.224226,17.725536 1.754157,23.20317 -1.685826,3.7385 -1.67315,3.8614 0.791368,7.67309 4.807169,7.4349 4.434347,13.65087 -1.36746,22.79937 l -3.104241,4.89489 1.819906,4.08974 c 3.000984,6.74389 12.827023,20.81112 19.682551,28.17808 L 94.775076,175.5 95.350482,169 c 0.316473,-3.575 0.838714,-12.55901 1.160535,-19.96446 C 97.129835,134.79583 99.228751,127 102.44377,127 c 1.99357,0 1.97318,1.43402 -0.0646,4.54405 -2.42348,3.6987 -4.827613,42.49984 -2.62918,42.43322 1.49949,-0.0454 24.31213,-5.70607 24.74657,-6.14051 0.24575,-0.24575 -0.86104,-5.13896 -2.45953,-10.8738 -1.5985,-5.73483 -2.70005,-10.63329 -2.44789,-10.88544 1.27224,-1.27224 3.76194,3.51112 5.93102,11.39503 1.33205,4.84157 2.60637,8.98732 2.83182,9.21277 0.22544,0.22545 4.986,-0.75007 10.57901,-2.16783 9.9154,-2.51342 10.35391,-2.53956 17.57689,-1.04761 4.07429,0.84157 11.58926,1.52231 16.69995,1.51276 19.96516,-0.0373 36.28878,-6.05278 53.63745,-19.76611 3.72873,-2.9474 6.69125,-4.24031 13.03691,-5.68962 l 8.21168,-1.87551 12.52549,-20.8501 C 267.50838,105.33374 274.1864,95.268746 275.4594,94.434642 278.13904,92.67888 420.01566,57.128459 427.5,56.337407 c 4.14735,-0.438352 5.59686,-0.125089 8.5,1.836994 4.6645,3.15249 7.2197,8.23069 6.70506,13.325599 -0.31476,3.116014 -8.18461,16.817793 -35.61074,62 -19.36368,31.9 -36.23098,58.92604 -37.48289,60.05786 -1.25192,1.13183 -10.45164,4.89227 -20.44382,8.35655 C 339.17542,205.37868 331,208.52912 331,208.91537 c 0,1.23947 6.88624,12.18655 12.03399,19.13048 6.54369,8.82695 22.54445,24.08074 32.3174,30.80871 4.27788,2.945 11.83787,7.49901 16.8,10.12001 l 9.02204,4.76546 -7.83672,5.48547 C 363.43572,300.15534 322.74786,328 322.06523,328 c -1.79801,0 -20.12603,-20.2644 -24.99984,-27.64111 -10.05425,-15.21749 -18.0154,-34.94185 -21.48043,-53.21936 -2.34688,-12.37946 -2.49165,-11.93796 5.92635,-18.07287 4.10043,-2.98834 7.26871,-5.61997 7.04061,-5.84807 -0.2281,-0.2281 -25.66166,8.22647 -56.51904,18.78793 -45.07122,15.4264 -56.73641,19.07565 -59.31859,18.55679 -1.81159,-0.36401 -9.32385,-5.2011 -17.21429,-11.08414 -7.7,-5.74105 -14.3375,-10.44747 -14.75,-10.45872 -0.4125,-0.0113 -0.75,1.03359 -0.75,2.32186 0,8.08288 -11.77407,66.40535 -24.62925,122.00019 -4.68549,20.26338 -8.3732,36.93666 -8.19491,37.05175 0.17829,0.11508 3.02416,1.02811 6.32416,2.02895 25.68509,7.78989 32.36175,22.60013 15.19146,33.69782 -14.82034,9.57885 -47.357221,15.21277 -74.378656,12.87903 z m 21.523847,-17.01439 c 4.035159,-0.52392 10.412253,-1.86854 14.17132,-2.98803 l 6.834668,-2.03546 4.661261,-19.23108 C 117.62557,341.21743 131.446,276.97677 135.89693,247.86404 L 137.6759,236.22807 111.29794,216.4709 C 96.790057,205.60445 84.037979,195.59245 82.959987,194.222 79.048814,189.24975 81.8448,178.83001 87.468981,177.41843 88.861041,177.06904 90,176.58249 90,176.3372 c 0,-0.24529 -2.631863,-3.5039 -5.848585,-7.24134 -3.216722,-3.73745 -7.28834,-8.88797 -9.048041,-11.44561 C 73.343674,155.09261 71.753345,153 71.56931,153 c -0.184035,0 -1.496259,2.37433 -2.916054,5.27628 -1.419794,2.90196 -5.573916,8.59883 -9.231382,12.65973 -6.404908,7.11138 -6.628115,7.53415 -6.057705,11.47371 C 54.357442,189.26981 56.023043,194 57.445354,194 c 0.74324,0 5.559588,2.09466 10.702996,4.65479 7.341926,3.65445 10.909717,6.22903 16.60165,11.98002 C 91.474994,217.42959 93.589058,221 90.887293,221 c -0.611989,0 -3.936043,-3.0375 -7.386787,-6.75 -6.898137,-7.42139 -14.292725,-12.34027 -23.638413,-15.72426 -3.358585,-1.21612 -6.444472,-2.84441 -6.857526,-3.61843 -0.413054,-0.77402 -1.517967,-4.91375 -2.455363,-9.1994 l -1.704355,-7.7921 6.665719,-7.61254 C 64.605684,159.91625 67.2,155.76924 67.2,151.61771 67.2,147.46954 65.214717,141 63.941784,141 c -0.496712,0 -7.655312,6.10558 -15.908,13.56795 C 34.753724,166.57624 31,169.09892 31,166.01546 c 0,-0.47658 6.8625,-6.99907 15.25,-14.49443 18.098499,-16.17344 23.875235,-23.6741 24.473939,-31.77758 0.298452,-4.03957 -0.08589,-5.99735 -1.673994,-8.52703 -2.480632,-3.95139 -4.722504,-4.99757 -6.347989,-2.96232 -0.661076,0.82773 -7.279537,8.64667 -14.707691,17.37543 C 40.566112,134.35829 31.520555,145.1 27.893029,149.5 l -6.595501,8 1.64933,21.0188 c 0.907132,11.56034 2.05027,21.68534 2.540307,22.5 0.490037,0.81466 11.85772,15.81308 25.261518,33.32983 l 24.370542,31.84863 -24.198738,77.65137 c -13.309306,42.70825 -24.248631,78.05831 -24.309612,78.55568 -0.178772,1.45809 21.26948,8.47023 28.895835,9.447 9.530461,1.22065 11.845613,1.23595 20.329941,0.13435 z M 355.80769,301.25 c 37.42208,-25.96843 39.09145,-27.20491 37.59428,-27.84552 -3.81614,-1.63287 -18.52927,-10.6952 -24.14666,-14.87277 -18.2965,-13.60687 -35.4278,-34.49935 -43.68961,-53.28171 -1.0282,-2.3375 -2.01372,-4.25 -2.19005,-4.25 -0.22693,0 -42.18699,32.30382 -46.23918,35.59819 -0.72074,0.58595 3.85985,21.16536 6.44271,28.94546 3.38113,10.18464 11.28909,25.96439 17.58114,35.08189 5.21814,7.56134 19.38304,23.37446 20.9381,23.37446 0.50883,0 15.678,-10.2375 33.70927,-22.75 z m -34.10976,4.40521 c -0.76022,-1.9811 27.11311,-21.24417 28.59527,-19.76201 0.69238,0.69238 0.75109,1.42196 0.1568,1.94851 C 348.71407,289.37977 323.18965,307 322.69757,307 c -0.26597,0 -0.71581,-0.60516 -0.99964,-1.34479 z m -17.62511,-22.06747 c -1.40966,-1.69854 37.74325,-30.17167 39.32016,-28.59476 1.37834,1.37834 1.09727,1.61379 -20.07591,16.81726 -14.11059,10.13216 -18.42063,12.76991 -19.24425,11.7775 z m -7.36248,-12.90021 C 296.23135,269.43932 322.86241,249 324.96773,249 c 3.37744,0 0.26804,3.11992 -12.36747,12.40928 C 304.67716,267.23418 297.97398,272 297.7043,272 c -0.26968,0 -0.71696,-0.59061 -0.99396,-1.31247 z M 192.20056,247.25 c 0.83079,-0.9625 7.33993,-11.2 14.46475,-22.75 7.12483,-11.55 26.60114,-43.00534 43.2807,-69.90075 16.67955,-26.89541 30.37766,-49.60317 30.44023,-50.46168 0.0626,-0.85852 -0.62735,-1.71474 -1.53316,-1.90273 -1.60108,-0.33227 -4.72508,4.48915 -44.87977,69.26516 -4.77323,7.7 -15.09866,24.35 -22.94538,37 -7.84673,12.65 -16.28558,26.26406 -18.75301,30.25346 -2.50077,4.04329 -4.23208,7.91578 -3.91197,8.75 0.75682,1.97223 1.98658,1.89101 3.83761,-0.25346 z m -19.25135,-1 c -0.029,-1.00114 -3.13147,-3.92848 -7.25,-6.84086 -3.95957,-2.79998 -22.38061,-15.9928 -40.93566,-29.31739 -18.55505,-13.32459 -34.192553,-23.94465 -34.750004,-23.60012 -0.55745,0.34452 -0.990876,1.38735 -0.963169,2.31739 0.05881,1.97392 79.461813,59.12699 82.199623,59.16603 1.02831,0.0147 1.72905,-0.69674 1.69921,-1.72505 z m 164.61554,-75.40626 c 6.87498,-4.65416 11.08774,-14.45396 9.2471,-21.51083 C 345.67026,144.9561 340.72296,141 336.39116,141 c -5.15087,0 -9.41377,2.18516 -13.99908,7.1759 -13.98278,15.21913 -1.46019,33.92777 15.17267,22.66784 z m -13.83053,-2.83816 c -7.67167,-6.03454 1.99383,-22.59399 12.72575,-21.80245 3.2927,0.24285 4.27124,0.81273 5.3779,3.13193 4.72935,9.91129 -9.96864,25.06951 -18.10365,18.67052 z M 35.521492,135 c 17.563294,-21.20312 27.389643,-32 29.123524,-32 2.511513,0 4.649463,-6.873575 4.042495,-12.996741 C 68.132487,84.40411 65.296315,76 63.961769,76 c -0.404168,0 -3.373407,3.2625 -6.59831,7.25 -9.320527,11.524566 -24.140832,29.55478 -31.455095,38.2679 l -6.730656,8.01791 0.867557,10.48209 c 0.477156,5.76516 0.887172,10.9096 0.911146,11.4321 0.05323,1.16017 -1.114485,2.47901 14.565081,-16.45 z m 4.741892,-36.202491 8.763385,-10.63627 -1.080822,-9.692893 C 47.351495,73.137255 46.488796,67.785631 46.028838,66.575849 44.502918,62.562377 32.834162,53.832505 31.191348,55.475318 30.583432,56.083235 28.173015,97.067146 28.102176,108 c -0.03446,5.31873 0.02094,5.43299 1.681093,3.46689 0.944202,-1.11821 5.660254,-6.81943 10.480115,-12.669381 z M 470.5,449.37183 c -37.146,-2.67262 -62.66967,-14.99294 -60.04497,-28.9838 1.2328,-6.5714 11.30859,-13.7988 25.04497,-17.96483 3.3,-1.00084 6.11752,-1.88551 6.26115,-1.96594 0.14363,-0.0804 -1.78247,-8.82342 -4.28021,-19.4289 -18.54789,-78.75474 -30.46117,-140.07617 -30.47552,-156.86713 -0.004,-4.80906 2.04062,-13.97951 8.47284,-38 11.93444,-44.56798 17.10342,-63.07624 17.81448,-63.7873 1.08895,-1.08895 7.38902,0.61028 10.75356,2.90042 6.1194,4.16528 7.08741,6.44385 8.01043,18.85555 0.46505,6.25356 0.923,15.7576 1.01767,21.1201 0.0947,5.3625 0.52495,9.75 0.95619,9.75 2.66555,0 19.48009,-21.85784 24.42903,-31.7562 l 3.62793,-7.2562 -2.93561,-4.26677 c -5.85777,-8.51396 -6.43028,-16.08442 -1.73915,-22.99718 l 2.3599,-3.4775 -1.96328,-5.815439 c -1.72234,-5.10174 -1.82282,-6.559859 -0.81874,-11.881266 1.46894,-7.785068 5.04105,-14.958144 7.64108,-15.343857 1.40919,-0.209054 3.41735,1.492466 6.92641,5.868771 l 4.94184,6.163183 0.71321,-5.368771 c 1.614,-12.149484 2.73481,-15.412964 6.57044,-19.131231 C 507.265,56.362718 516.50359,51 518.83621,51 c 0.57517,0 1.38557,0.549826 1.80089,1.221835 0.41533,0.67201 1.46718,15.688714 2.33746,33.370454 l 1.58233,32.148621 4.22057,5.47064 4.22057,5.47063 -2.85617,36.55452 -2.85616,36.55451 -14.85273,19.3544 c -8.169,10.64491 -19.25828,25.1071 -24.64285,32.13819 C 482.40555,260.31489 478,266.74354 478,267.56968 c 0,1.49033 39.21765,127.96151 40.95559,132.07581 0.61983,1.46732 2.98784,2.83818 7.49158,4.33693 14.9104,4.96186 24.16,14.61778 21.55724,22.5042 -4.09466,12.40695 -28.63196,21.50669 -61.50441,22.80913 -6.05,0.2397 -13.25,0.27394 -16,0.0761 z M 502,429.91922 c 9.60325,-2.44526 20.54571,-6.53052 20.34299,-7.59487 -0.0864,-0.45339 -11.03293,-35.62353 -24.32571,-78.15586 -13.29279,-42.53233 -23.94958,-77.85733 -23.68177,-78.5 0.26782,-0.64267 11.49806,-15.50953 24.9561,-33.03747 20.71758,-26.98288 24.55332,-32.50235 25.01808,-36 0.30191,-2.27206 1.10944,-12.06966 1.79451,-21.77245 l 1.24558,-17.64142 -9.41337,-11.35858 c -14.85312,-17.92241 -31.83181,-37.67589 -33.00872,-38.40326 -1.66758,-1.03062 -5.84146,3.51075 -6.925,7.53471 -2.32866,8.64798 4.40709,18.63127 24.93471,36.95661 8.28443,7.39564 15.0626,13.78158 15.0626,14.19098 0,2.94364 -3.93627,0.29844 -17.21515,-11.56869 C 492.43413,147.10601 485.25391,141 484.8288,141 c -0.42511,0 -1.51405,2.54935 -2.41986,5.66523 -1.58073,5.43751 -1.5668,5.82941 0.34638,9.75 1.09631,2.24662 5.43227,8.01191 9.63546,12.81174 l 7.64215,8.72697 -2.26646,9.19279 -2.26647,9.19279 -5,1.68547 c -9.75461,3.28821 -15.97669,7.22741 -23.87121,15.11285 -4.32917,4.32419 -8.26667,7.86216 -8.75,7.86216 -4.09322,0 7.00466,-12.80704 16.44039,-18.97235 3.37748,-2.20685 8.96699,-5.026 12.42114,-6.2648 3.45414,-1.23879 6.46964,-2.92971 6.7011,-3.7576 0.23147,-0.82789 0.93389,-4.0935 1.56096,-7.25693 l 1.14011,-5.75167 -7.09076,-8.24833 c -3.89992,-4.53657 -8.13068,-10.41475 -9.4017,-13.06261 l -2.31093,-4.81429 -5.71745,7.59633 c -3.1446,4.17798 -8.68063,10.73744 -12.30228,14.57658 -8.42748,8.93357 -9.30798,8.47048 -9.34854,-4.91677 -0.0479,-15.82748 -1.74686,-34.79377 -3.40365,-37.99764 -1.30982,-2.53292 -10.04403,-8.09571 -10.98197,-6.99439 -0.17072,0.20046 -2.44664,8.23947 -5.0576,17.86447 C 415.36719,198.88724 410,219.86558 410,223.23476 c 0,12.0289 8.28838,57.60147 20.14262,110.75156 6.33966,28.42472 18.37589,79.76632 20.92211,89.24508 0.94604,3.52179 1.38304,3.84704 7.77938,5.78987 14.04219,4.26518 28.73144,4.57082 43.15589,0.89795 z M 528.40885,144.25 c 1.42845,-15.7591 3.49208,-11.65743 -20.75532,-41.25326 C 495.71393,88.423533 485.54873,76.363741 485.06419,76.197201 483.55286,75.677748 480,86.82561 480,92.087173 c 0,5.72163 2.03628,10.427547 4.82796,11.157587 1.80277,0.47143 15.86195,16.34193 33.67204,38.01017 4.4,5.35316 8.29183,9.73573 8.64851,9.73904 0.35668,0.003 0.92383,-3.03147 1.26034,-6.74397 z M 520.04657,90.86266 C 518.66366,63.029944 517.99711,55 517.06972,55 c -0.41781,0 -3.51042,1.777911 -6.87248,3.950914 -5.562,3.594896 -6.24665,4.428415 -7.59787,9.25 C 501.7826,71.115411 500.84574,76.875 500.51745,81 l -0.59689,7.5 10.13037,12.32602 c 5.5717,6.77931 10.33888,12.1175 10.59373,11.86266 0.25484,-0.25485 -0.0143,-10.07656 -0.59809,-21.82602 z M 314.5,413.937 c -10.22353,-5.41899 -11.19287,-9.71486 -4.5551,-20.187 2.35317,-3.7125 4.68315,-6.75 5.17773,-6.75 0.82682,0 15.89092,9.07847 18.51912,11.16066 0.81801,0.64807 0.15012,2.57528 -2.3555,6.79675 -6.20549,10.45504 -10.08618,12.53096 -16.78625,8.97959 z m 8.58981,-3.54521 c 1.35247,-1.62964 0.55175,-2.71767 -3.88039,-5.27272 -0.73102,-0.42142 -1.00773,-1.48108 -0.63822,-2.44401 0.59951,-1.5623 0.92534,-1.5313 4.02234,0.38275 3.57577,2.20995 4.76681,2.0059 6.42989,-1.10159 0.90953,-1.69948 0.17425,-2.48361 -6.10018,-6.50542 -3.9239,-2.51516 -7.22653,-4.43301 -7.33918,-4.26191 C 311.32638,397.65646 309,402.12345 309,403.83127 309,406.41213 316.20148,412 319.52759,412 c 1.22514,0 2.82813,-0.7237 3.56222,-1.60821 z m 11.00311,-13.33436 c -0.81648,-0.50461 -1.03134,-1.37149 -0.54419,-2.19563 0.44272,-0.74899 7.63635,-12.16708 15.98583,-25.37354 l 15.18088,-24.01174 0.47691,-8.23826 C 365.45465,332.70722 365.36193,329 364.9863,329 c -0.37562,0 -3.78871,1.69488 -7.58463,3.7664 l -6.90167,3.7664 -16,25.19918 c -14.47198,22.79263 -18.24566,27.64946 -17.87752,23.00884 0.12342,-1.55578 28.25208,-46.63873 31.26054,-50.10254 1.25123,-1.44062 14.63787,-8.95038 20.52651,-11.51516 0.53613,-0.23351 0.6626,4.515 0.30805,11.5665 l -0.60147,11.96265 -16.1782,25.42386 c -8.89801,13.98313 -16.24967,25.5119 -16.33702,25.6195 -0.0874,0.10759 -0.76593,-0.1796 -1.50797,-0.6382 z m -9.46177,-5.84522 c -0.26778,-0.43328 6.65902,-12.02078 15.39289,-25.75 C 354.08129,343.3649 358.5,337.6702 358.5,341.65092 c 0,1.94063 -30.92013,50.26114 -32.19098,50.30654 -0.65504,0.0234 -1.41008,-0.31196 -1.67787,-0.74525 z M 170.6309,77.75 C 163.12405,64.745979 134,11.529668 134,10.81695 134,9.3960406 145.03417,4.9776496 154,2.8083912 165.55172,0.01348361 181.49191,0.0693059 192.5,2.9432176 215.40763,8.923774 233.38539,22.707439 244.86262,43.089971 249.31634,50.999378 254.56292,67 252.70268,67 c -0.16353,0 -17.78978,3.375 -39.16944,7.5 -21.37966,4.125 -39.2269,7.5 -39.66052,7.5 -0.43363,0 -1.89244,-1.9125 -3.24182,-4.25 z"
         id="path2" />
    </g>
  </g>
</svg>
