<?xml version="1.0" encoding="UTF-8" standalone="no"?>
<!-- Created with Inkscape (http://www.inkscape.org/) -->

<svg
   version="1.1"
   id="svg1"
   width="669"
   height="450"
   viewBox="0 0 669 450"
   sodipodi:docname="BUSINESS_12.svg"
   inkscape:version="1.3.2 (091e20e, 2023-11-25, custom)"
   xmlns:inkscape="http://www.inkscape.org/namespaces/inkscape"
   xmlns:sodipodi="http://sodipodi.sourceforge.net/DTD/sodipodi-0.dtd"
   xmlns="http://www.w3.org/2000/svg"
   xmlns:svg="http://www.w3.org/2000/svg">
  <defs
     id="defs1" />
  <sodipodi:namedview
     id="namedview1"
     pagecolor="#ffffff"
     bordercolor="#000000"
     borderopacity="0.25"
     inkscape:showpageshadow="2"
     inkscape:pageopacity="0.0"
     inkscape:pagecheckerboard="0"
     inkscape:deskcolor="#d1d1d1"
     showgrid="false"
     inkscape:zoom="1.7488889"
     inkscape:cx="334.78399"
     inkscape:cy="225"
     inkscape:window-width="1920"
     inkscape:window-height="1001"
     inkscape:window-x="-9"
     inkscape:window-y="-9"
     inkscape:window-maximized="1"
     inkscape:current-layer="g1" />
  <g
     inkscape:groupmode="layer"
     inkscape:label="Image"
     id="g1">
    <g
       id="g2"
       transform="translate(-3.31685e-4)">
      <path
         style="fill:#fdfdfe"
         d="M 0,225 V 0 H 334.5 669 V 225 450 H 334.5 0 Z"
         id="path6" />
      <path
         style="fill:#9faec0"
         d="M 18.398284,448.11393 C 12.811153,446.51144 6.1676182,443.13699 1.75,439.65777 0.28900952,438.50713 0,436.60495 0,428.13976 V 418 h 41.48821 41.488211 l -0.238211,2.25 -0.23821,2.25 103.35032,0.26311 c 101.74051,0.25901 103.37602,0.29406 105,2.25012 1.59601,1.92236 2.98562,1.98835 42.71024,2.0282 22.58331,0.0226 41.78602,-0.23719 42.67268,-0.57744 0.88667,-0.34024 1.85779,-1.25883 2.15806,-2.04131 0.46713,-1.21733 15.38117,-1.42489 103.32732,-1.43799 56.52976,-0.008 103.35912,-0.3819 104.06525,-0.82995 0.70776,-0.44909 0.9963,-1.56404 0.64301,-2.48469 C 585.83455,418.12647 588.93694,418 627.39301,418 H 669 v 10.28622 10.28622 l -5.64658,3.71857 c -3.10562,2.04521 -7.94312,4.50391 -10.75,5.46378 -4.80765,1.64407 -23.15638,1.75576 -316.60342,1.92722 -293.997792,0.17177 -311.842836,0.0837 -317.601716,-1.56808 z M 85,259.21189 V 99.42378 l 2.25,-4.403348 C 91.600693,86.505938 91.355798,86.56718 123.32096,86 L 151.5,85.5 152,44.660859 152.5,3.821717 154.86078,1.9108585 C 157.16502,0.04577263 161.46941,0 334.55502,0 H 511.88847 L 514.69424,2.4126329 517.5,4.8252658 517.78253,45.412633 518.06506,86 h 27.31959 c 26.68769,0 27.39692,0.05212 30.6634,2.253398 1.8391,1.239369 4.26815,3.826869 5.39788,5.75 2.04606,3.482974 2.05509,4.123125 2.31603,164.246602 L 584.02391,419 H 334.51196 85 Z M 231.84815,377.25 c 2.30427,-8.6625 5.97651,-22.5 8.16054,-30.75 2.18404,-8.25 5.12355,-18.825 6.53225,-23.5 6.69283,-22.21114 7.18974,-50.32712 1.30268,-73.70676 L 246.76257,245 h -13.41573 -13.41573 l 0.59488,5.25 c 0.32718,2.8875 0.80125,6.2625 1.05349,7.5 0.70835,3.47515 -1.12847,2.74228 -8.90809,-3.55424 -3.94427,-3.19233 -8.70172,-6.87127 -10.57212,-8.17542 l -3.40073,-2.37119 -2.09927,2.50649 c -7.84059,9.36153 -37.1553,43.62488 -42.38153,49.53599 -6.02818,6.81814 -9.21774,8.43643 -9.21774,4.67681 0,-0.77968 11.24661,-14.56903 24.99247,-30.64302 18.24339,-21.33324 24.99082,-29.90053 24.98635,-31.72542 -0.008,-3.3762 -1.03715,-7 -1.98744,-7 -0.6887,0 -14.59491,10.65892 -47.99138,36.78476 -5.775,4.51774 -11.01436,8.21434 -11.64301,8.21466 -1.44315,7.3e-4 -2.68483,-3.08536 -1.63977,-4.07553 5.39483,-5.11155 59.26741,-45.92026 60.62249,-45.9218 1.01184,-0.001 2.72452,-1.01459 3.80596,-2.25209 2.65454,-3.03762 6.83249,-11.76639 6.84456,-14.3 0.0109,-2.29109 -1.74744,-4.45 -3.62437,-4.45 -0.67877,0 -16.62106,10.83914 -35.4273,24.08698 -31.7139,22.3405 -34.31082,23.96697 -35.81586,22.43179 -2.07446,-2.116 -4.02264,-0.56942 36.48674,-28.96523 29.92368,-20.97556 32.75262,-22.73008 36.03204,-22.34723 3.54761,0.41416 3.55709,0.40476 3.00706,-2.98465 -0.65021,-4.00683 -2.26065,-6.2224 -4.52098,-6.21977 -2.20077,0.003 -38.392,21.4435 -55.18666,32.69449 -7.45751,4.9959 -14.43251,9.24548 -15.5,9.44353 -1.13985,0.21147 -2.92911,2.35331 -4.33527,5.18952 -2.32886,4.69728 -2.3669,5.16244 -1.39027,17.00064 0.85116,10.31733 1.46035,13.08502 3.99948,18.17057 2.14979,4.30575 2.87394,6.9874 2.56519,9.49936 -0.30446,2.47709 0.57383,5.84163 3.00515,11.51214 6.40775,14.94458 14.28629,25.25518 25.20087,32.98019 8.22274,5.81981 12.10031,7.66005 16.91432,8.02732 21.28739,1.62404 23.67153,1.6656 28.72466,0.50083 12.69284,-2.92577 24.10903,-10.54447 33.39602,-22.28713 2.16267,-2.73453 3.35856,-3.51749 4.3643,-2.85734 2.53219,1.66209 0.27138,5.89969 -7.16886,13.43714 -12.53305,12.6968 -27.31514,18.3734 -45.21015,17.36153 -5.50349,-0.31119 -10.84764,-0.7028 -11.8759,-0.87024 -1.55936,-0.25393 -3.75787,3.98825 -13.25,25.56674 C 157.1212,380.60033 152,392.41283 152,392.62118 152,392.82953 169.02318,393 189.82929,393 h 37.82929 z m 271.02716,-2.5 c -4.39741,-10.0375 -9.32322,-21.4 -10.94623,-25.25 -4.25385,-10.09066 -3.89236,-9.74712 -9.01412,-8.56655 -6.38514,1.47179 -18.44237,1.2663 -25.66853,-0.43746 -13.02448,-3.07086 -27.05949,-12.55013 -34.4188,-23.24652 -2.73692,-3.97798 -2.89912,-4.60655 -1.53956,-5.96612 1.35957,-1.35956 1.76523,-1.21749 3.85038,1.34849 5.75022,7.07623 14.85635,15.14512 20.36155,18.04225 9.71209,5.11102 17.33278,6.65289 29,5.86746 16.91096,-1.13843 17.6007,-1.26268 23.28008,-4.19394 6.96704,-3.59584 19.946,-15.68772 25.06213,-23.34918 5.59121,-8.3729 10.45958,-20.53234 10.38977,-25.94991 -0.0392,-3.0435 0.88976,-6.3277 2.93707,-10.38341 3.03885,-6.01992 4.21156,-13.15712 4.21949,-25.68019 C 540.39235,240.98242 536.85943,233 534.199,233 c -0.788,0 -7.34263,-3.98 -14.56586,-8.84444 C 504.33638,213.85404 465.70672,191 463.59106,191 461.14563,191 459,193.97732 459,197.37063 c 0,3.07291 0.16082,3.20899 3.35209,2.83643 2.97638,-0.34747 5.86257,1.37204 25.75,15.34117 12.31885,8.65287 27.91547,19.60683 34.65915,24.34213 9.21288,6.46913 12.19629,9.0874 12,10.53131 -0.14368,1.05692 -0.71124,2.05763 -1.26124,2.22381 -0.55,0.16617 -16.3,-10.48295 -35,-23.66471 -18.7,-13.18176 -34.80162,-23.96997 -35.78138,-23.9738 -4.06754,-0.0159 -3.36214,6.8498 1.54116,15.00027 2.34415,3.89654 4.06986,5.60616 6.24022,6.18203 1.65,0.43779 15.825,10.83732 31.5,23.11005 27.15752,21.26296 31.17859,25.14115 27.38018,26.40729 -0.6159,0.2053 -12.5409,-8.54119 -26.5,-19.43665 -35.82939,-27.96581 -32.63969,-25.71444 -34.38254,-24.268 -1.79155,1.48685 -1.94247,5.29796 -0.32922,8.31378 0.64264,1.20134 10.21432,12.75926 21.2704,25.68426 30.7337,35.9289 29.02657,33.73431 27.58876,35.46676 -0.69961,0.84299 -1.80941,1.18258 -2.51762,0.77038 -0.88083,-0.51267 -45.32596,-52.0499 -50.07733,-58.06816 -0.56191,-0.71173 -5.21948,2.41976 -12.90174,8.6744 -4.41699,3.59617 -8.63191,6.98964 -9.36649,7.54104 -1.10066,0.8262 -1.20988,-0.43876 -0.62088,-7.19093 L 442.25825,245 h -13.06174 c -11.5747,0 -13.12102,0.19923 -13.58249,1.75 -3.97991,13.37443 -5.86644,32.96036 -4.61549,47.91799 1.11908,13.38093 2.21942,19.19918 5.92544,31.33201 3.27243,10.71332 5.91816,20.50772 12.5609,46.5 2.53011,9.9 4.79193,18.5625 5.02628,19.25 0.33083,0.97057 8.91333,1.25 38.39277,1.25 h 37.96669 z M 145.88257,216.5 c 5.31646,-3.48594 9.33956,-6.83802 9.60143,-8 1.29372,-5.74046 3.28845,-55.56848 2.38616,-59.60578 -1.69978,-7.60565 -5.00422,-10.84747 -7.72067,-7.57434 -0.92067,1.10934 -6.93568,25.81078 -10.14946,41.68012 -0.50123,2.475 -2.53902,11.475 -4.52843,20 -1.98942,8.525 -3.8806,17.27679 -4.20264,19.44842 l -0.58553,3.94842 3.02422,-1.94842 C 135.37097,223.37679 140.84968,219.8 145.88257,216.5 Z M 532,225.17048 c 0,-0.45624 -2.28131,-10.91874 -5.06957,-23.25 -2.78826,-12.33127 -5.95876,-26.43412 -7.04555,-31.33967 C 518.79809,165.67525 517.7249,161.36389 517.5,161 c -0.2249,-0.36389 -1.32801,-4.87284 -2.45137,-10.01989 -1.12336,-5.14705 -2.58211,-9.69179 -3.24167,-10.09942 -2.22275,-1.37373 -4.73042,1.12249 -6.24241,6.21391 -1.33323,4.48947 -1.33774,8.01236 -0.04,31.23282 0.80452,14.39492 1.46561,27.35976 1.4691,28.81077 0.005,2.24171 1.77215,3.84881 11.75633,10.69384 11.76076,8.06302 13.25,8.88783 13.25,7.33845 z"
         id="path5" />
      <path
         style="fill:#9eaab7"
         d="M 20.293699,448.4707 C 13.032747,446.50795 9.1803459,444.73896 4.2141767,441.08711 L -0.07164663,437.93555 0.21417668,428.21778 0.5,418.5 41.740174,418.23891 82.980349,417.97783 82.740174,420.23891 82.5,422.5 l 103.3435,0.25468 103.3435,0.25469 1.81815,2.24531 1.81814,2.24532 H 334.5 376.17671 l 1.81814,-2.24532 1.81815,-2.24531 103.3435,-0.25469 L 586.5,422.5 l -0.24017,-2.26109 -0.24018,-2.26108 41.24018,0.26108 L 668.5,418.5 l 0.28615,9.74512 0.28616,9.74513 -4.60108,3.25487 c -2.53059,1.79019 -7.38435,4.37988 -10.78615,5.75488 l -6.18508,2.5 -311,0.18902 C 71.861653,449.84987 24.723882,449.66825 20.293699,448.4707 Z M 85.456496,417.74722 C 85.192091,417.0582 85.093714,344.7207 85.23788,256.99722 85.496648,99.539891 85.525579,97.456574 87.5,94.10453 c 1.1,-1.867508 3.269338,-4.342508 4.82075,-5.5 2.66946,-1.991654 4.332138,-2.131347 31,-2.60453 L 151.5,85.5 152,44.660859 152.5,3.821717 154.86078,1.9108585 C 157.16502,0.04577263 161.46941,0 334.55502,0 H 511.88847 L 514.69424,2.4126329 517.5,4.8252658 517.78253,45.412633 518.06506,86 h 26.73307 c 29.8222,0 31.38128,0.303539 35.95187,6.999494 L 583,96.295766 V 257.64788 419 H 334.46862 C 136.27238,419 85.839867,418.74628 85.456496,417.74722 Z M 557.884,251.25 c -0.0638,-78.5125 -0.2994,-142.075 -0.52356,-141.25 -0.34654,1.27543 -2.61234,1.42737 -15.134,1.01485 L 527.5,110.5297 542,109.9729 556.5,109.4161 537.25,109.20805 518,109 v 25.05902 c 0,15.68843 0.35761,24.838 0.95633,24.46797 0.52598,-0.32507 0.6745,-1.32545 0.33006,-2.22306 -0.41863,-1.09093 -0.23838,-1.39229 0.54367,-0.90896 1.24826,0.77147 1.63079,7.81085 0.48662,8.95502 -0.98771,0.98771 -3.14541,-4.64458 -4.89904,-12.78811 -2.57864,-11.97467 -4.45593,-14.19147 -7.88573,-9.31188 -3.85701,5.48738 -4.00673,15.05907 -0.92429,59.08908 l 0.61881,8.83909 13.54437,8.96494 c 10.38717,6.87521 13.76274,8.66098 14.48112,7.66092 0.68002,-0.94664 0.78007,-0.8182 0.36509,0.46865 -0.34941,1.08354 0.29424,2.63857 1.65567,4 1.22503,1.22503 2.09605,2.62114 1.9356,3.10248 -0.16045,0.48134 0.3221,1.60634 1.07231,2.5 0.75022,0.89366 1.94471,3.47275 2.65441,5.7313 1.09109,3.47227 1.05018,4.93942 -0.26489,9.5 -0.85539,2.96645 -1.47295,6.06854 -1.37236,6.89354 0.34965,2.86748 -1.37213,12 -2.26239,12 -0.52059,0 -0.50616,-1.35841 0.0344,-3.2434 C 539.58141,265.97273 540,262.48226 540,260 c 0,-2.48226 0.38878,-5.86881 0.86396,-7.52566 1.33594,-4.65816 -0.33556,-14.28298 -2.96689,-17.0839 C 536.66194,234.0757 535.04405,233 534.30176,233 c -0.74228,0 -7.97634,-4.41935 -16.07568,-9.82077 C 499.07111,210.40484 465.87671,191 463.17949,191 c -2.29602,0 -3.58562,1.83323 -4.59174,6.52739 -0.64349,3.00225 -0.61334,3.02715 3.63169,3 3.98798,-0.0255 6.61887,1.61301 38.49139,23.97261 32.39093,22.72328 36.39029,26.0834 33.31082,27.98662 -0.5381,0.33256 -16.34314,-10.21588 -35.12231,-23.44098 C 480.12016,215.82054 463.89629,205 462.8463,205 c -2.71327,0 -3.36413,2.59626 -1.9815,7.9042 1.62591,6.24194 5.94114,12.19141 9.8007,13.51238 5.11005,1.74896 60.50898,45.46227 60.102,47.42434 -0.18927,0.91249 -1.03223,1.61027 -1.87324,1.55062 -0.84101,-0.0597 -14.01296,-9.87152 -29.271,-21.80415 -15.25804,-11.93262 -28.43562,-21.96189 -29.2835,-22.28725 -1.99145,-0.7642 -3.30515,1.36841 -3.32445,5.39676 -0.0131,2.73831 3.60678,7.44628 25.23469,32.81981 13.8875,16.2926 25.25,30.15399 25.25,30.8031 0,0.6491 -0.9,1.27495 -2,1.39077 -1.49839,0.15776 -8.14468,-7.04574 -26.5,-28.72172 -13.475,-15.91276 -24.89626,-28.94502 -25.38057,-28.96058 -0.48431,-0.0155 -3.07286,1.54672 -5.75231,3.47172 -5.51356,3.9611 -5.86712,4.08162 -5.86712,2 0,-0.825 0.47656,-1.5 1.05902,-1.5 0.58246,0 0.73793,0.51953 0.34549,1.15451 -0.45995,0.74421 -0.27227,0.88179 0.52811,0.38713 2.06663,-1.27724 -0.14983,-2.38866 -5.43262,-2.72413 -2.75,-0.17463 -5.225,-0.55618 -5.5,-0.84789 -0.275,-0.2917 -44.06695,-0.35549 -97.31545,-0.14174 -81.09158,0.32551 -96.73071,0.60946 -96.29367,1.74835 0.28697,0.74784 0.1236,1.60581 -0.36306,1.90658 -0.48666,0.30077 -1.0295,-0.47232 -1.20633,-1.71798 L 247.5,245.5 h -23 c -12.65,0 -23.71821,-0.35906 -24.59603,-0.7979 -1.24925,-0.62454 -6.9855,5.5231 -26.40087,28.29426 -23.26126,27.2818 -27.02647,30.93941 -28.2051,27.39904 -0.20225,-0.60753 10.89796,-14.30294 24.66713,-30.43424 C 191.47131,244.76555 195,240.17568 195,237.39754 195,233.52815 194.14088,231 192.82598,231 c -0.52803,0 -14.01651,10.1848 -29.9744,22.6329 -24.6967,19.26486 -29.22008,22.4271 -30.39681,21.25 -0.76034,-0.7606 -1.06122,-1.86791 -0.66861,-2.46071 1.78387,-2.69342 58.0156,-45.58615 60.42245,-46.08935 2.97714,-0.62243 9.20294,-8.79305 10.34977,-13.58284 0.99825,-4.16924 -0.23174,-7.75 -2.66211,-7.75 -1.13609,0 -17.39292,10.80082 -36.12629,24.00182 -26.72037,18.82927 -34.35261,23.75953 -35.41532,22.87755 C 127.6096,251.26103 127,250.40377 127,249.97435 c 0,-0.42943 15.80459,-11.89935 35.12131,-25.48872 32.548,-22.8976 35.36887,-24.66777 38.5,-24.15966 C 203.76446,200.83604 204,200.68501 204,198.15964 204,194.71686 201.43649,191 199.06201,191 c -2.32708,0 -33.88177,18.59981 -54.05801,31.86433 -8.52279,5.60316 -16.17279,10.05723 -17,9.89792 -3.75031,-0.72224 -0.45729,-3.95294 13.246,-12.9953 l 14.75,-9.73306 0.016,-4.26694 c 0.009,-2.34682 0.65723,-15.08485 1.44093,-28.30673 1.46988,-24.79822 1.1401,-30.33986 -2.10127,-35.3099 -1.07931,-1.65493 -2.21383,-2.21943 -3.83696,-1.90915 l -2.30454,0.44054 -0.3982,-14.59085 c -0.219,-8.02497 -0.0422,-14.74086 0.39292,-14.92419 0.4351,-0.18334 0.7911,-0.74584 0.7911,-1.25 0,-0.52906 -8.35123,-0.86101 -19.75,-0.78503 -11.31814,0.0754 -18.25575,0.44617 -16.25,0.86836 l 3.5,0.73672 -3.25,0.13164 L 111,111 V 252.5 394 H 334.5 558 Z M 121.75,392.25412 c 5.6375,-0.17825 14.8625,-0.17825 20.5,0 5.6375,0.17825 1.025,0.32409 -10.25,0.32409 -11.275,0 -15.8875,-0.14584 -10.25,-0.32409 z M 229.23198,389.5 c 0.5211,-1.65 1.44953,-5.025 2.0632,-7.5 0.85831,-3.46169 1.20263,-3.95894 1.49228,-2.15506 0.20709,1.28972 -0.15371,3.62506 -0.80179,5.18965 -1.36685,3.29988 -0.6714,4.96541 2.07335,4.96541 1.07232,0 1.94098,0.68211 1.94098,1.52416 0,1.14952 -0.94821,1.45677 -3.85773,1.25 -3.79949,-0.27002 -3.84343,-0.31945 -2.91029,-3.27416 z m 200.52111,2.77637 c 2.92581,-0.36295 3.20093,-0.67382 2.73463,-3.08996 -0.43514,-2.2547 -0.36658,-2.365 0.42663,-0.68641 1.75557,3.71517 1.26895,4.50782 -2.66435,4.33996 -3.6965,-0.15775 -3.70359,-0.16579 -0.49691,-0.56359 z M 511.01531,391.25 c 0.0107,-1.22558 0.24952,-1.38131 0.79686,-0.51967 0.5713,0.89935 6.82174,1.30828 23.23469,1.52013 l 22.45314,0.2898 -23.25,0.22987 c -21.56878,0.21325 -23.24889,0.10333 -23.23469,-1.52013 z M 508.5,385 c -0.33992,-0.55 -0.14148,-1 0.44098,-1 0.58246,0 1.05902,0.45 1.05902,1 0,0.55 -0.19844,1 -0.44098,1 -0.24254,0 -0.7191,-0.45 -1.05902,-1 z m -354.57643,-1.89119 c 0.59204,-1.15985 1.51913,-2.99102 2.06022,-4.06928 0.54108,-1.07825 0.71793,-2.65325 0.39301,-3.5 C 155.99596,374.54709 156.35708,374 157.39301,374 158.27686,374 159,373.475 159,372.83333 c 0,-0.64166 0.25618,-0.91048 0.56929,-0.59738 0.31311,0.31311 0.0797,1.40061 -0.51873,2.41667 -0.5984,1.01606 -1.6786,3.62205 -2.40043,5.79109 -0.72183,2.16905 -1.87279,4.13051 -2.5577,4.35881 -0.95083,0.31695 -0.99075,-0.0836 -0.16886,-1.69371 z M 428.74537,380.75 c -0.25773,-0.6875 -0.12674,-2.15 0.29109,-3.25 0.59393,-1.56361 0.74873,-1.29086 0.70944,1.25 -0.0543,3.51244 -0.27109,3.94576 -1.00053,2 z m 76.95595,-3.41404 c 0.46365,-1.20826 0.27578,-1.43984 -0.68589,-0.8455 -0.88782,0.54871 -1.0859,0.43258 -0.60084,-0.35226 0.39798,-0.64395 1.14251,-0.91193 1.65451,-0.59549 1.22935,0.75978 1.19993,3.45729 -0.0377,3.45729 -0.53273,0 -0.68126,-0.74882 -0.33006,-1.66404 z M 233.01518,375.95 c 0.008,-0.7975 0.68792,-3.475 1.51016,-5.95 l 1.49498,-4.5 -0.59243,5 c -0.54556,4.60444 -2.44887,8.90377 -2.41271,5.45 z m 195.06377,-3.53333 c 0.048,-1.16495 0.28494,-1.4019 0.60416,-0.60417 0.28887,0.72187 0.25335,1.58438 -0.0789,1.91667 -0.33229,0.33229 -0.56864,-0.25834 -0.52522,-1.3125 z M 160,369.5 c 0,-0.825 0.43588,-1.5 0.96862,-1.5 0.53273,0 0.70959,0.675 0.39301,1.5 -0.31659,0.825 -0.75246,1.5 -0.96862,1.5 C 160.17686,371 160,370.325 160,369.5 Z m 343.07895,0.69098 c -0.0434,-0.71996 -0.44923,-1.08017 -0.9018,-0.80046 -0.45257,0.2797 -1.73217,-1.64374 -2.84356,-4.27432 -1.53458,-3.63225 -1.70086,-4.78287 -0.69119,-4.78287 0.73123,0 1.6121,1.50633 1.95748,3.34741 0.34539,1.84107 1.3099,3.72902 2.14335,4.19544 0.83345,0.46642 1.26771,1.47259 0.96501,2.23593 -0.42075,1.06106 -0.56894,1.07963 -0.62929,0.0789 z m -77.93609,-7.83384 c -0.62855,-3.12978 -0.95714,-5.87619 -0.7302,-6.10313 0.22694,-0.22694 0.94124,2.13375 1.58734,5.24599 0.6461,3.11224 0.97469,5.85865 0.7302,6.10313 -0.24449,0.24449 -0.95879,-2.1162 -1.58734,-5.24599 z M 161,365.5 c 0,-0.825 0.17686,-1.5 0.39301,-1.5 0.21616,0 0.65203,0.675 0.96862,1.5 0.31658,0.825 0.13972,1.5 -0.39301,1.5 C 161.43588,367 161,366.325 161,365.5 Z m 2.116,-2.05887 c -0.0638,-1.13238 0.54469,-2.93238 1.3522,-4 0.8075,-1.06762 1.4825,-1.46863 1.5,-0.89113 0.0175,0.5775 -0.37452,1.4775 -0.87114,2 -0.49661,0.5225 -1.11941,1.85 -1.38399,2.95 -0.46934,1.95123 -0.4839,1.9498 -0.59707,-0.0589 z m 73.21838,-0.87012 c 0.30159,-0.78594 0.86748,-3.13008 1.25752,-5.2092 0.66817,-3.56161 0.76062,-3.64114 1.59885,-1.3752 0.5715,1.54491 0.47427,3.40788 -0.27186,5.2092 -1.15455,2.78734 -3.63232,4.10575 -2.58451,1.3752 z m -69.16674,-8.62206 c 0.58498,-1.67807 1.24916,-2.86548 1.47596,-2.63868 0.49521,0.49521 -1.39173,5.68973 -2.06683,5.68973 -0.26,0 0.006,-1.37297 0.59087,-3.05105 z m 327.41531,0.18526 c -0.43077,-0.697 -0.51316,-1.53733 -0.18309,-1.86741 0.89497,-0.89496 1.87077,0.4213 1.38739,1.87145 -0.33872,1.01617 -0.57427,1.01538 -1.2043,-0.004 z m -254.92425,-4.3345 c 0.84223,-4.42127 1.3413,-4.80279 1.3413,-1.02539 0,1.7092 -0.44322,3.38157 -0.98494,3.71637 -0.61542,0.38035 -0.74912,-0.62923 -0.35636,-2.69098 z M 420.51721,344.75 c -1.08053,-4.5375 -2.13774,-8.925 -2.34935,-9.75 -0.21162,-0.825 -0.0732,-1.19972 0.30764,-0.83272 1.01304,0.9763 5.43186,18.83272 4.66041,18.83272 -0.35975,0 -1.53816,-3.7125 -2.6187,-8.25 z m 70.99637,2.63737 c -1.09049,-2.29803 -1.35943,-3.94152 -0.74548,-4.55547 1.3766,-1.3766 4.2319,1.78138 4.2319,4.68051 0,3.81329 -1.64557,3.75427 -3.48642,-0.12504 z m -322.32552,-0.50239 c -0.14135,-1.85509 0.1651,-2.78475 0.79055,-2.3982 0.62797,0.38811 1.02139,-0.85915 1.02139,-3.23808 0,-3.54419 -0.35713,-4.05218 -4.25,-6.04515 -2.3375,-1.19669 -3.575,-2.18037 -2.75,-2.18594 0.825,-0.006 2.91065,0.85004 4.63477,1.90136 2.2664,1.38198 3.43735,1.60891 4.22705,0.81921 0.7897,-0.7897 2.50484,-0.76621 6.19152,0.0848 7.27744,1.67984 20.61403,1.4649 27.01516,-0.43539 12.00038,-3.56252 23.07968,-11.22188 29.37707,-20.30901 2.87581,-4.1498 6.55443,-5.50852 6.55443,-2.42092 0,2.76258 -7.89006,12.08837 -14.38383,17.00121 -11.95,9.04074 -24.54698,12.89749 -39.11617,11.97599 -4.95,-0.31309 -10.13819,-0.84248 -11.52931,-1.17643 -2.18109,-0.52359 -2.79155,-0.0807 -4.43402,3.21721 -1.04759,2.10341 -1.9344,4.12439 -1.97069,4.49106 -0.21485,2.17086 -1.1835,1.26986 -1.37792,-1.28169 z M 241,343.86667 c 0,-0.84334 0.31302,-1.84636 0.69561,-2.22895 0.38259,-0.38258 0.80749,-1.47008 0.94423,-2.41666 0.52969,-3.66671 2.67599,-10.29822 3.49733,-10.80584 1.15777,-0.71554 1.10774,-0.36083 -0.65292,4.62943 -0.83367,2.36286 -1.75863,5.68194 -2.05548,7.37573 -0.59313,3.3843 -2.42877,5.98898 -2.42877,3.44629 z m 215.36204,-3.84811 C 443.59337,336.67107 432.79171,329.73804 425.01299,319.89721 420.57175,314.27863 419.82996,311 423,311 c 1.1,0 2,0.42435 2,0.943 0,1.89676 11.65633,13.50165 17.11989,17.04434 3.09094,2.00424 9.09736,4.67641 13.34761,5.93817 7.77345,2.30768 10.76429,2.38663 31.40595,0.82905 2.72754,-0.20582 3.53871,0.18595 4.23653,2.04613 0.47469,1.26538 0.51874,2.08788 0.0979,1.82777 -0.42086,-0.2601 -3.6773,0.15128 -7.23653,0.91418 -8.87106,1.90147 -19.09772,1.70735 -27.60929,-0.52408 z m 36.20473,-4.1266 c 0.3032,-0.49058 1.135,-0.89196 1.84844,-0.89196 0.71345,0 3.34099,-1.56056 5.83898,-3.46792 3.60076,-2.74938 4.43867,-3.07359 4.04411,-1.56476 -0.27373,1.04673 -1.24698,2.58124 -2.16277,3.41003 -1.85237,1.67637 -10.44652,3.93486 -9.56876,2.51461 z m -334.64725,-5.01765 c 1.38674,-0.53605 2.79385,-0.56094 3.29649,-0.0583 0.50265,0.50265 -0.53012,0.90187 -2.41951,0.93528 -3.08517,0.0546 -3.14139,-0.002 -0.87698,-0.87698 z M 152.92349,327.75 c -0.0421,-0.1375 -0.23095,-1.06261 -0.41971,-2.05581 -0.27582,-1.45132 -0.0667,-1.57631 1.0655,-0.63669 0.77479,0.64301 1.1621,1.56813 0.86069,2.05581 -0.51766,0.8376 -1.33879,1.18463 -1.50648,0.63669 z m 357.24887,-3.43347 c 1.1651,-1.24019 2.50295,-2.0172 2.973,-1.72669 1.26381,0.78108 1.03701,1.44663 -0.39536,1.16016 -0.6875,-0.1375 -1.20357,0.44107 -1.14683,1.28571 0.0577,0.85799 -0.70273,1.53572 -1.723,1.53572 -1.68185,0 -1.65876,-0.17821 0.29219,-2.2549 z m -96.09341,-1.89986 c 0.048,-1.16495 0.28494,-1.4019 0.60416,-0.60417 0.28887,0.72187 0.25335,1.58438 -0.0789,1.91667 -0.33229,0.33229 -0.56864,-0.25834 -0.52522,-1.3125 z m 100.46376,-1.34757 c -0.66498,-1.07595 1.29228,-2.56745 2.19049,-1.66924 0.33007,0.33008 0.0486,0.60014 -0.62555,0.60014 -0.67413,0 -0.94757,0.45 -0.60765,1 0.33992,0.55 0.39303,1 0.11803,1 -0.275,0 -0.75889,-0.41891 -1.07532,-0.9309 z M 144,318.12244 c 0,-2.0866 -2.31486,-4.47425 -3.34201,-3.4471 C 140.2961,315.03724 140,314.80833 140,314.16667 140,313.525 140.36581,313 140.81291,313 c 1.36406,0 6.26162,5.59214 5.53442,6.31933 C 145.09258,320.57409 144,320.01699 144,318.12244 Z m 269.07895,0.29423 c 0.048,-1.16495 0.28494,-1.4019 0.60416,-0.60417 0.28887,0.72187 0.25335,1.58438 -0.0789,1.91667 -0.33229,0.33229 -0.56864,-0.25834 -0.52522,-1.3125 z m -1,-4 c 0.048,-1.16495 0.28494,-1.4019 0.60416,-0.60417 0.28887,0.72187 0.25335,1.58438 -0.0789,1.91667 -0.33229,0.33229 -0.56864,-0.25834 -0.52522,-1.3125 z M 250.15789,312 c 0,-1.375 0.22698,-1.9375 0.50439,-1.25 0.27741,0.6875 0.27741,1.8125 0,2.5 -0.27741,0.6875 -0.50439,0.125 -0.50439,-1.25 z m -112.09074,-2.42852 c -1.25481,-1.33568 -2.12075,-2.84941 -1.92431,-3.36384 0.19644,-0.51443 1.34894,0.57841 2.56112,2.42852 2.61443,3.99033 2.45425,4.2256 -0.63681,0.93532 z m 388.11673,-5.07571 c 0.62755,-1.37732 1.33399,-2.31123 1.56987,-2.07536 0.70628,0.70629 -0.81585,4.57959 -1.7997,4.57959 -0.50114,0 -0.39772,-1.1269 0.22983,-2.50423 z m -116.58034,-3.31315 c -0.44116,-2.37457 -0.55433,-4.56517 -0.25149,-4.868 0.82616,-0.82616 1.86856,4.14257 1.43365,6.83367 -0.28062,1.73642 -0.58992,1.22213 -1.18216,-1.96567 z M 132,300.55902 C 132,299.70156 132.45,299 133,299 c 0.55,0 1,0.42344 1,0.94098 0,0.51754 -0.45,1.2191 -1,1.55902 -0.55,0.33992 -1,-0.0835 -1,-0.94098 z M 252.25218,297.5 c 0.0111,-2.2 0.21589,-2.98225 0.45508,-1.73834 0.23919,1.24391 0.23011,3.04391 -0.0202,4 -0.25029,0.95609 -0.446,-0.0617 -0.4349,-2.26166 z m 278.8669,-3.75 c 1.14945,-2.8875 2.41878,-6.11444 2.82073,-7.17097 0.52558,-1.38149 0.945,-1.57442 1.49347,-0.68699 0.43036,0.69634 0.0559,2.01492 -0.85943,3.02636 -0.89214,0.9858 -1.36574,2.46035 -1.05245,3.27677 0.31329,0.81642 -0.12586,2.0616 -0.97589,2.76706 C 531.69548,295.66769 531,296.86479 531,297.62244 531,298.3801 530.55657,299 530.01459,299 c -0.54197,0 -0.0449,-2.3625 1.10449,-5.25 z m -400.97609,3.34851 c -0.89333,-0.55878 -1.10891,-1.63052 -0.63091,-3.13656 0.64522,-2.03291 0.83171,-2.09901 1.67428,-0.59342 1.33554,2.38648 0.66144,4.79636 -1.04337,3.72998 z M 409.17148,280 c -0.1477,-12.80599 0.34674,-17 2.00417,-17 0.51831,0 0.61942,0.52257 0.22468,1.16126 -0.39473,0.6387 -1.02527,7.2762 -1.40118,14.75 L 409.31566,292.5 Z m -155.40663,1 c -1.2366,-3.15981 -1.53948,-6 -0.63985,-6 1.33031,0 2.10277,2.4535 1.63002,5.17727 -0.28997,1.67069 -0.56793,1.90165 -0.99017,0.82273 z m 280.10082,-0.0506 c -0.27575,-0.79719 0.27842,-3.02444 1.2315,-4.94944 1.4492,-2.92708 1.84847,-3.20744 2.43912,-1.71275 0.42096,1.06526 0.10404,2.47913 -0.78452,3.5 -0.81994,0.94201 -1.69193,2.365 -1.93776,3.16219 -0.39038,1.26592 -0.51045,1.26592 -0.94834,0 z m -406.1365,-0.55361 c -0.40104,-0.40104 -0.71549,-1.66666 -0.69876,-2.8125 0.0281,-1.92359 0.11018,-1.94626 1.07077,-0.29565 1.11861,1.92211 0.83248,4.31265 -0.37201,3.10815 z M 251.5,265 c -0.38421,-2.27412 -0.48881,-4.34452 -0.23245,-4.60089 0.25637,-0.25636 0.76597,1.40904 1.13245,3.70089 0.36648,2.29185 0.47108,4.36225 0.23245,4.60089 C 252.39381,268.93952 251.88421,267.27412 251.5,265 Z m -129.34211,1 c 0,-1.375 0.22698,-1.9375 0.50439,-1.25 0.27741,0.6875 0.27741,1.8125 0,2.5 -0.27741,0.6875 -0.50439,0.125 -0.50439,-1.25 z m -1.7617,-7.69697 c 0.19279,-4.92149 1.13237,-6.36377 2.11952,-3.25354 0.38407,1.21011 0.25222,2.48152 -0.29302,2.82536 -0.54523,0.34383 -1.21623,1.52515 -1.49112,2.62515 -0.27488,1.1 -0.42581,0.11136 -0.33538,-2.19697 z M 220,259.31948 c 0,-0.55762 -1.0125,-1.50216 -2.25,-2.09899 l -2.25,-1.08513 2.225,-0.0677 c 1.95024,-0.0593 2.15566,-0.46902 1.66347,-3.31768 -0.30885,-1.7875 -0.73347,-3.8125 -0.94362,-4.5 -0.21014,-0.6875 -0.004,-1.25 0.45737,-1.25 0.96228,0 2.51097,11.92015 1.65933,12.77178 C 220.2527,260.08064 220,259.8771 220,259.31948 Z m 221.90433,-4.06701 c 0.3368,-3.81885 0.54924,-4.26135 1.08142,-2.25247 0.91513,3.4545 0.70693,6.27021 -0.49315,6.66964 -0.61982,0.20629 -0.84615,-1.49316 -0.58827,-4.41717 z m -191.27222,0.34838 c 0.46708,-2.05303 0.32516,-2.69247 -0.48627,-2.19099 -1.34284,0.82993 -1.47875,-0.33625 -0.26278,-2.25488 1.29922,-2.05001 2.41823,3.51942 1.13174,5.63282 -0.81335,1.33614 -0.89741,1.07544 -0.38269,-1.18695 z m -39.98331,-3.88924 -3.8512,-3.25864 2.8512,-0.2166 c 2.01496,-0.15307 2.43717,0.0471 1.43955,0.68244 -1.13326,0.72174 -0.83745,1.40378 1.5,3.45851 4.25124,3.73704 2.5899,3.16682 -1.93955,-0.66571 z M 448,254.62244 c 0,-0.20765 0.7875,-0.99515 1.75,-1.75 1.58606,-1.24387 1.62143,-1.2085 0.37756,0.37756 C 448.82119,254.91575 448,255.44548 448,254.62244 Z M 120.27236,248 c 0,-2.475 0.19502,-3.4875 0.43337,-2.25 0.23836,1.2375 0.23836,3.2625 0,4.5 -0.23835,1.2375 -0.43337,0.225 -0.43337,-2.25 z m 292.51475,1.66667 c -0.25975,-1.3588 0.038,-2.33334 0.71289,-2.33334 0.6749,0 0.97264,0.97454 0.71289,2.33334 C 413.96757,250.95 413.64677,252 413.5,252 c -0.14677,0 -0.46757,-1.05 -0.71289,-2.33333 z M 253.8125,247.31689 c 0.72187,-0.28887 1.58437,-0.25335 1.91667,0.0789 0.33229,0.33229 -0.25834,0.56864 -1.3125,0.52522 -1.16495,-0.048 -1.4019,-0.28494 -0.60417,-0.60416 z m 19.9375,-0.0226 c 1.2375,-0.23836 3.2625,-0.23836 4.5,0 1.2375,0.23835 0.225,0.43337 -2.25,0.43337 -2.475,0 -3.4875,-0.19502 -2.25,-0.43337 z m 32,0 c 1.2375,-0.23836 3.2625,-0.23836 4.5,0 1.2375,0.23835 0.225,0.43337 -2.25,0.43337 -2.475,0 -3.4875,-0.19502 -2.25,-0.43337 z m 32,0 c 1.2375,-0.23836 3.2625,-0.23836 4.5,0 1.2375,0.23835 0.225,0.43337 -2.25,0.43337 -2.475,0 -3.4875,-0.19502 -2.25,-0.43337 z m 32,0 c 1.2375,-0.23836 3.2625,-0.23836 4.5,0 1.2375,0.23835 0.225,0.43337 -2.25,0.43337 -2.475,0 -3.4875,-0.19502 -2.25,-0.43337 z M 120.66667,242.33333 C 120.3,241.96667 120,241.20167 120,240.63333 c 0,-0.6266 0.46577,-0.56756 1.18333,0.15 0.65084,0.65084 0.95084,1.41584 0.66667,1.7 -0.28417,0.28417 -0.81667,0.21667 -1.18333,-0.15 z M 122,238.15499 c 0,-0.46476 0.96966,-1.70226 2.1548,-2.75 l 2.1548,-1.90499 -1.76981,2.75 C 122.71492,239.08556 122,239.62179 122,238.15499 Z m 4,-11.09597 C 126,225.92656 126.45,225 127,225 c 0.55,0 1,0.64844 1,1.44098 0,0.79254 -0.45,1.7191 -1,2.05902 -0.55,0.33992 -1,-0.30852 -1,-1.44098 z m 2.62354,-4.59768 c -0.34295,-0.8937 -0.58486,-2.37561 -0.53759,-3.29313 0.0473,-0.91751 0.4824,-0.34083 0.96694,1.28152 0.94266,3.15626 0.60928,4.71823 -0.42935,2.01161 z M 530.53499,215.75 c -0.34315,-1.7875 -1.3326,-6.30881 -2.19877,-10.04734 -0.86618,-3.73854 -1.31109,-7.06112 -0.98871,-7.38351 0.32239,-0.32238 0.8836,1.27392 1.24713,3.54735 0.36354,2.27342 1.00586,4.1335 1.42738,4.1335 0.42152,0 0.78365,1.0125 0.80472,2.25 0.0211,1.2375 0.281,4.1625 0.57761,6.5 0.63417,4.99757 0.0312,5.69112 -0.86936,1 z M 133.3249,204.762 c 0.06,-2.6059 0.42575,-4.17204 0.81287,-3.48031 0.38711,0.69173 0.33805,2.82383 -0.10902,4.738 -0.77766,3.32956 -0.80814,3.27508 -0.70385,-1.25769 z M 135.15789,198 c 0,-1.375 0.22698,-1.9375 0.50439,-1.25 0.27741,0.6875 0.27741,1.8125 0,2.5 -0.27741,0.6875 -0.50439,0.125 -0.50439,-1.25 z m 390.40008,-4.75 c -0.36553,-2.0625 -0.92542,-4.65 -1.24419,-5.75 -0.57744,-1.9926 -0.57141,-1.9927 1.63005,-0.0256 1.25029,1.11721 1.73002,2.1343 1.10496,2.34265 -0.69194,0.23065 -0.86583,1.64127 -0.46543,3.77557 0.35157,1.87405 0.41422,3.40736 0.13922,3.40736 -0.275,0 -0.79907,-1.6875 -1.16461,-3.75 z m -389.25895,-2.92943 c 0.0662,-2.29868 0.47598,-3.95963 0.91066,-3.69098 0.43468,0.26864 0.79032,-0.17561 0.79032,-0.98724 0,-0.81163 -0.5625,-1.70266 -1.25,-1.98007 -0.97906,-0.39506 -0.97226,-0.5215 0.0314,-0.58333 2.04624,-0.12607 2.30101,2.08617 0.79707,6.92105 l -1.39977,4.5 z m 385.87699,-12.25476 c -0.62753,-3.53881 -0.96393,-6.61122 -0.74756,-6.82759 0.66326,-0.66327 2.86014,10.39764 2.35871,11.87573 -0.25861,0.76233 -0.98363,-1.50934 -1.61115,-5.04814 z m -383.09706,2.35086 c 0.048,-1.16495 0.28494,-1.4019 0.60416,-0.60417 0.28887,0.72187 0.25335,1.58437 -0.0789,1.91667 -0.3323,0.33229 -0.56864,-0.25834 -0.52522,-1.3125 z m 1.35708,-6.89799 c 0.34464,-2.18972 1.12853,-4.43972 1.74199,-5 0.765,-0.69867 0.92589,-0.6781 0.51216,0.0655 -0.33177,0.59628 -0.87162,2.60761 -1.19965,4.46962 -0.85062,4.82824 -1.80763,5.25017 -1.0545,0.4649 z m 3.64292,-16.44768 c -0.0839,-3.6429 1.8482,-10.071 3.02701,-10.071 0.3873,0 0.0498,2.5875 -0.75007,5.75 -1.99402,7.88418 -2.1865,8.24945 -2.27694,4.321 z m 375.116,-6.571 c 0.0204,-1.65 0.2445,-2.20394 0.49804,-1.23097 0.25354,0.97297 0.23687,2.32297 -0.0371,3 -0.27393,0.67703 -0.48137,-0.11903 -0.46099,-1.76903 z m -372.46578,-7.10417 c -0.40105,-0.40104 -0.71549,-1.66666 -0.69876,-2.8125 0.0281,-1.92359 0.11018,-1.94626 1.07077,-0.29565 1.11861,1.92211 0.83248,4.31265 -0.37201,3.10815 z M 519.45861,126.5 l 0.0414,-16 3.5,-0.20177 3.5,-0.20178 -3.22407,0.97365 -3.22407,0.97365 -0.31732,15.22812 -0.31732,15.22813 z"
         id="path4" />
      <path
         style="fill:#f0be2b"
         d="M 22.48094,448.53523 C 14.559613,446.8041 9.5633673,444.65202 4.3429358,440.72248 L 0.06184167,437.5 0.03092084,428.25 0,419 h 40.883369 c 40.042364,0 40.894127,0.0411 41.40638,2 0.518738,1.98366 1.364016,2 103.442321,2 h 102.9193 L 291,425.5 293.34863,428 H 334.5 375.65137 L 378,425.5 380.34863,423 h 102.9193 c 102.07831,0 102.92358,-0.0163 103.44232,-2 0.51225,-1.95886 1.36402,-2 41.40638,-2 H 669 l -0.0152,9.25 -0.0152,9.25 -5.10879,3.74812 c -2.80984,2.06146 -8.0905,4.76146 -11.73481,6 L 645.5,449.5 337,449.67532 C 85.232215,449.8184 27.393113,449.60874 22.48094,448.53523 Z M 86,257.64788 V 97.295766 l 2.25,-3.305935 c 1.2375,-1.818265 3.519526,-4.247312 5.071169,-5.397883 2.679471,-1.986877 4.223938,-2.106743 30.750001,-2.386504 L 152,85.910887 V 45.409989 4.9090909 L 154.45455,2.4545455 156.90909,0 h 177.48969 177.48969 l 2.80577,2.4191993 2.80576,2.4191993 -0.12172,40.5368794 -0.12171,40.536879 27.80054,0.293922 c 26.39632,0.279075 27.94305,0.399587 30.62172,2.385869 1.55164,1.150571 3.83367,3.579618 5.07117,5.397883 L 583,97.295766 V 257.64788 418 H 334.5 86 Z M 559,251.5 V 108 h -20.48283 -20.48283 l -0.26717,25.25 -0.26717,25.25 -1.85896,-8 c -1.02243,-4.4 -2.33305,-8.58422 -2.9125,-9.29826 -2.09665,-2.58368 -5.0956,-0.88191 -7.1345,4.04851 -1.89859,4.59114 -1.92295,5.6797 -0.72743,32.5 0.68033,15.26236 1.45649,28.87475 1.7248,30.24975 0.3693,1.89247 3.75607,4.65881 13.93658,11.38351 14.88551,9.83258 16.36451,11.12399 14.67491,12.81359 -0.81644,0.81644 -5.57999,-1.82213 -17.90762,-9.91919 -9.2374,-6.06734 -24.97851,-15.84345 -34.98024,-21.72471 -15.85854,-9.32519 -18.45527,-10.54852 -20.29787,-9.56239 -2.33232,1.24822 -4.01717,4.83538 -4.01717,8.55285 0,2.21145 0.20926,2.31812 2.5,1.27439 1.86658,-0.85048 3.1313,-0.85144 4.99163,-0.004 C 470.67512,203.17599 535,249.23615 535,250.58606 535,251.36373 534.31344,252 533.47431,252 c -0.83913,0 -15.12663,-9.59707 -31.75,-21.32682 -38.59176,-27.23105 -38.03973,-26.87311 -40.1786,-26.05235 -1.46896,0.56369 -1.69364,1.58178 -1.3264,6.01019 0.56415,6.80288 5.75548,14.97275 10.32265,16.2453 3.5224,0.98144 59.95804,44.70858 59.95804,46.45633 0,3.18974 -5.7357,-0.57405 -31.4834,-20.6595 -17.39162,-13.56697 -28.64919,-21.69975 -29.74831,-21.491 -1.32832,0.25228 -1.83359,1.45325 -2.03075,4.82684 l -0.26246,4.49101 25.01246,29.27126 C 505.74439,285.87045 517,299.70795 517,300.52126 517,301.33457 516.39029,302 515.6451,302 c -1.09128,0 -48.1667,-53.98986 -50.82308,-58.28798 -0.56933,-0.92119 -1.02347,-0.91057 -1.98038,0.0463 C 461.86553,244.73447 433.82722,245 331.73426,245 c -75.32302,0 -130.57408,-0.37909 -131.55228,-0.90261 -1.38865,-0.74318 -6.10176,4.28619 -26.68426,28.47489 -13.74875,16.15763 -25.53366,29.3888 -26.1887,29.40261 -2.23529,0.0471 -2.24481,-1.67338 -0.0258,-4.65706 C 148.50245,295.67847 159.625,282.49656 172,268.0247 l 22.5,-26.31248 v -5.10611 c 0,-4.45737 -0.2541,-5.09928 -2,-5.05234 -1.1,0.0296 -14.48304,9.81707 -29.74008,21.75 C 147.50288,265.2367 134.34038,275 133.50992,275 c -3.32503,0 -1.10898,-3.01118 6.74008,-9.15846 C 181.159,233.80217 190.20156,227 191.88458,227 c 2.23635,0 6.31902,-4.51861 9.21939,-10.20381 2.32047,-4.54848 2.20913,-10.58462 -0.22331,-12.10738 -1.65473,-1.0359 -6.88407,2.43299 -54.31092,36.02719 C 137.8081,246.9222 130.0126,252 129.24642,252 c -4.3652,0 2.59365,-5.77327 32.2594,-26.76336 18.1468,-12.83982 34.10642,-23.7975 35.46584,-24.35041 1.69936,-0.69117 3.22392,-0.66252 4.87922,0.0917 3.11397,1.41882 3.42279,0.9978 2.57661,-3.51273 -0.83989,-4.47701 -3.88809,-7.88223 -6.25481,-6.9874 -3.86241,1.46033 -40.68143,23.59663 -54.4084,32.71136 -8.17415,5.42764 -15.29008,9.60392 -15.81318,9.28063 -2.34734,-1.45074 -0.0372,-3.57942 13.53863,-12.47517 13.49755,-8.84447 14.49044,-9.7076 14.5,-12.60504 0.006,-1.71073 0.29644,-5.19823 0.64619,-7.75 0.51972,-3.79173 1.02226,-4.66446 2.75,-4.77575 1.98329,-0.12776 1.97354,-0.16317 -0.15767,-0.5724 -2.26296,-0.43454 -2.26962,-0.48909 -1.72335,-14.11382 0.30161,-7.52268 0.76835,-16.43557 1.03718,-19.80641 0.63533,-7.96629 -1.12636,-16.04638 -4.15998,-19.08 C 152.07815,138.98724 152,138.40209 152,123.45455 V 108 H 131 110 V 251.5 395 H 334.5 559 Z M 182.38956,340.97288 C 175.97612,339.823 172,338.33463 172,337.08377 c 0,-1.91282 1.84725,-2.00761 9.11351,-0.46763 12.68071,2.68749 27.0495,0.16668 39.01279,-6.84427 4.92285,-2.88498 14.15041,-11.73885 16.65736,-15.98278 1.70182,-2.88095 3.61176,-3.57634 4.75263,-1.73037 1.6775,2.71425 -11.4954,16.56543 -20.94213,22.02046 -10.52806,6.07946 -26.58555,8.97689 -38.2046,6.8937 z M 463.5,341.36477 c -10.2314,-1.56959 -22.21698,-6.77998 -29.39898,-12.78037 -6.26197,-5.23173 -13.4335,-14.27558 -12.74432,-16.07157 0.96653,-2.51873 2.21576,-1.76084 6.54161,3.96871 11.36362,15.051 32.2007,23.56089 50.34915,20.56266 10.46518,-1.7289 11.15347,-1.72443 11.51946,0.075 0.24098,1.18477 -0.88822,1.92575 -4.20896,2.76192 -5.24196,1.31994 -17.67431,2.15618 -22.05796,1.48368 z m 21.75,-239.02705 c -0.6875,-0.27741 -1.8125,-0.27741 -2.5,0 -0.6875,0.27741 -0.125,0.50439 1.25,0.50439 1.375,0 1.9375,-0.22698 1.25,-0.50439 z"
         id="path3" />
      <path
         style="fill:#080816"
         d="M 22.48094,448.53523 C 14.559613,446.8041 9.5633673,444.65202 4.3429358,440.72248 L 0.06184167,437.5 0.03092084,428.25 0,419 h 40.883369 c 40.042364,0 40.894127,0.0411 41.40638,2 0.518738,1.98366 1.364016,2 103.442321,2 h 102.9193 L 291,425.5 293.34863,428 H 334.5 375.65137 L 378,425.5 380.34863,423 h 102.9193 c 102.07831,0 102.92358,-0.0163 103.44232,-2 0.51225,-1.95886 1.36402,-2 41.40638,-2 H 669 l -0.0152,9.25 -0.0152,9.25 -5.10879,3.74812 c -2.80984,2.06146 -8.0905,4.76146 -11.73481,6 L 645.5,449.5 337,449.67532 C 85.232215,449.8184 27.393113,449.60874 22.48094,448.53523 Z M 86,257.64788 V 97.295766 l 2.25,-3.305935 c 1.2375,-1.818265 3.5198,-4.247312 5.071777,-5.397883 C 96.025252,86.587704 97.303956,86.5 123.82178,86.5 H 151.5 l 0.28383,10.75 0.28383,10.75 H 131.03383 110 V 251.5 395 H 334.5 559 V 251.5 108 h -20.48283 -20.48283 l -0.26717,25.25 -0.26717,25.25 -1.85896,-8 c -1.02243,-4.4 -2.33305,-8.58422 -2.9125,-9.29826 -2.09665,-2.58368 -5.0956,-0.88191 -7.1345,4.04851 -1.89859,4.59114 -1.92295,5.6797 -0.72743,32.5 0.68033,15.26236 1.45649,28.87475 1.7248,30.24975 0.3693,1.89247 3.75607,4.65881 13.93658,11.38351 14.88551,9.83258 16.36451,11.12399 14.67491,12.81359 -0.81644,0.81644 -5.57999,-1.82213 -17.90762,-9.91919 -9.2374,-6.06734 -24.97851,-15.84345 -34.98024,-21.72471 -15.85854,-9.32519 -18.45527,-10.54852 -20.29787,-9.56239 -2.33232,1.24822 -4.01717,4.83538 -4.01717,8.55285 0,2.21145 0.20926,2.31812 2.5,1.27439 1.86658,-0.85048 3.1313,-0.85144 4.99163,-0.004 C 470.67512,203.17599 535,249.23615 535,250.58606 535,251.36373 534.31344,252 533.47431,252 c -0.83913,0 -15.12663,-9.59707 -31.75,-21.32682 -38.59176,-27.23105 -38.03973,-26.87311 -40.1786,-26.05235 -1.46896,0.56369 -1.69364,1.58178 -1.3264,6.01019 0.56415,6.80288 5.75548,14.97275 10.32265,16.2453 3.5224,0.98144 59.95804,44.70858 59.95804,46.45633 0,3.18974 -5.7357,-0.57405 -31.4834,-20.6595 -17.39162,-13.56697 -28.64919,-21.69975 -29.74831,-21.491 -1.32832,0.25228 -1.83359,1.45325 -2.03075,4.82684 l -0.26246,4.49101 25.01246,29.27126 C 505.74439,285.87045 517,299.70795 517,300.52126 517,301.33457 516.39029,302 515.6451,302 c -1.09128,0 -48.1667,-53.98986 -50.82308,-58.28798 -0.56933,-0.92119 -1.02347,-0.91057 -1.98038,0.0463 C 461.86553,244.73447 433.82722,245 331.73426,245 c -75.32302,0 -130.57408,-0.37909 -131.55228,-0.90261 -1.38865,-0.74318 -6.10176,4.28619 -26.68426,28.47489 -13.74875,16.15763 -25.53366,29.3888 -26.1887,29.40261 -2.23529,0.0471 -2.24481,-1.67338 -0.0258,-4.65706 C 148.50245,295.67847 159.625,282.49656 172,268.0247 l 22.5,-26.31248 v -5.10611 c 0,-4.45737 -0.2541,-5.09928 -2,-5.05234 -1.1,0.0296 -14.48304,9.81707 -29.74008,21.75 C 147.50288,265.2367 134.34038,275 133.50992,275 c -3.32503,0 -1.10898,-3.01118 6.74008,-9.15846 C 181.159,233.80217 190.20156,227 191.88458,227 c 2.23635,0 6.31902,-4.51861 9.21939,-10.20381 2.32047,-4.54848 2.20913,-10.58462 -0.22331,-12.10738 -1.65473,-1.0359 -6.88407,2.43299 -54.31092,36.02719 C 137.8081,246.9222 130.0126,252 129.24642,252 c -4.3652,0 2.59365,-5.77327 32.2594,-26.76336 18.1468,-12.83982 34.10642,-23.7975 35.46584,-24.35041 1.69936,-0.69117 3.22392,-0.66252 4.87922,0.0917 3.11397,1.41882 3.42279,0.9978 2.57661,-3.51273 -0.83989,-4.47701 -3.88809,-7.88223 -6.25481,-6.9874 -3.86241,1.46033 -40.68143,23.59663 -54.4084,32.71136 -8.17415,5.42764 -15.29008,9.60392 -15.81318,9.28063 -2.34734,-1.45074 -0.0372,-3.57942 13.53863,-12.47517 13.49755,-8.84447 14.49044,-9.7076 14.5,-12.60504 0.0238,-7.21875 1.25519,-12.38957 2.95041,-12.38957 0.91757,0 3.6689,-1.26971 6.11408,-2.82158 11.30587,-7.17544 20.78677,-23.05474 25.97093,-43.49799 3.12325,-12.31625 5.85044,-17.64017 10.66095,-20.81193 8.65118,-5.70407 19.80604,3.11563 23.73795,18.76865 2.53777,10.10292 7.06538,17.97936 11.99589,20.86863 8.52454,4.99535 17.91997,4.10976 24.66265,-2.32462 3.74337,-3.57223 4.14086,-4.65771 13.43189,-36.68116 5.2659,-18.15 10.02976,-35.025 10.58636,-37.5 4.18394,-18.604692 20.69939,-22.959504 30.25516,-7.977713 1.5708,2.462742 7.34475,12.802713 12.83099,22.977713 10.45665,19.3933 12.4113,22.18964 17.31301,24.76816 4.75243,2.5 14.19289,2.0988 19.54592,-0.83066 4.38683,-2.4007 4.72133,-2.97351 22.15427,-37.9375 13.06604,-26.205599 18.54304,-36.210636 20.91944,-38.214277 6.14572,-5.181717 17.50955,-5.695703 24.51035,-1.108603 1.27093,0.832745 9.96032,11.280448 19.30975,23.217117 17.4703,22.30478 20.51752,25.184513 28.14861,26.601423 7.94208,1.47465 13.40153,-3.197004 26.70768,-22.853798 L 516.5,66.783724 l 0.28568,9.563758 0.28567,9.563758 27.89316,0.29438 c 26.48998,0.279571 28.03507,0.399616 30.71432,2.386328 1.55164,1.150571 3.83367,3.579618 5.07117,5.397883 L 583,97.295766 V 257.64788 418 H 334.5 86 Z m 96.38956,83.325 C 175.97612,339.823 172,338.33463 172,337.08377 c 0,-1.91282 1.84725,-2.00761 9.11351,-0.46763 12.68071,2.68749 27.0495,0.16668 39.01279,-6.84427 4.92285,-2.88498 14.15041,-11.73885 16.65736,-15.98278 1.70182,-2.88095 3.61176,-3.57634 4.75263,-1.73037 1.6775,2.71425 -11.4954,16.56543 -20.94213,22.02046 -10.52806,6.07946 -26.58555,8.97689 -38.2046,6.8937 z M 463.5,341.36477 c -10.2314,-1.56959 -22.21698,-6.77998 -29.39898,-12.78037 -6.26197,-5.23173 -13.4335,-14.27558 -12.74432,-16.07157 0.96653,-2.51873 2.21576,-1.76084 6.54161,3.96871 11.36362,15.051 32.2007,23.56089 50.34915,20.56266 10.46518,-1.7289 11.15347,-1.72443 11.51946,0.075 0.24098,1.18477 -0.88822,1.92575 -4.20896,2.76192 -5.24196,1.31994 -17.67431,2.15618 -22.05796,1.48368 z m -8.00941,-317.374407 -3.92651,-4.02111 3.65736,-3.657363 c 3.09371,-3.093704 3.89603,-3.459289 5.20596,-2.372142 1.38799,1.151927 1.34788,1.567106 -0.38675,4.003165 -1.92572,2.704421 -1.92457,2.72872 0.23026,4.883548 1.93116,1.931167 2.00217,2.329034 0.65589,3.675307 -1.34627,1.346273 -1.93476,1.074403 -5.43621,-2.511405 z m 17.53626,2.541991 c -1.11853,-1.347743 -0.97844,-1.954979 0.91625,-3.971791 l 2.23666,-2.380807 -2.19702,-2.197021 c -2.02338,-2.023373 -2.06925,-2.324798 -0.58036,-3.813687 1.48889,-1.488889 1.91107,-1.322268 5.34146,2.108123 l 3.72479,3.72479 -4.06069,4.060688 c -3.61653,3.616528 -4.20512,3.886666 -5.38109,2.469705 z M 168.65499,25.171259 c -2.60823,-2.882055 -2.11277,-7.666007 1.05173,-10.155204 6.70854,-5.2769379 15.18273,3.981365 8.97883,9.809631 -2.83868,2.666798 -7.77595,2.836897 -10.03056,0.345573 z m 7.16456,-4.931475 C 176.05966,18.556796 175.6393,18 174.12857,18 c -2.39351,0 -3.52958,1.512605 -2.72021,3.621794 0.8554,2.22914 4.03825,1.231964 4.41119,-1.38201 z m 11.25303,4.125357 C 185.93266,22.915969 185,21.362143 185,20.912194 c 0,-2.401832 2.6168,-5.925039 5.19341,-6.992306 2.53938,-1.051848 3.29524,-0.946776 5.62028,0.781282 3.32714,2.47286 4.11898,7.610756 1.60166,10.39237 -2.60227,2.87547 -7.79567,2.50972 -10.34277,-0.728399 z M 194.5,20.486305 c 0,-1.298523 -0.77909,-2.096953 -2.25,-2.305856 -1.65701,-0.235333 -2.25,0.181957 -2.25,1.583333 0,1.046587 0.31556,2.218441 0.70124,2.604121 1.32654,1.32654 3.79876,0.102002 3.79876,-1.881598 z M 206,25 c -2.46599,-2.465994 -2.56886,-6.106151 -0.25,-8.846575 5.98237,-7.0699425 16.01722,1.023096 10.6933,8.624069 C 214.40824,27.682938 208.80238,27.802377 206,25 Z m 7.39626,-3.590242 C 214.20374,19.305493 213.30465,18 211.04797,18 c -2.23735,0 -3.30609,2.341883 -1.76983,3.878145 1.59433,1.594328 3.40563,1.388313 4.11812,-0.468387 z M 490,24 c 0,-1.466667 0.66667,-2 2.5,-2 1.83333,0 2.5,0.533333 2.5,2 0,1.466667 -0.66667,2 -2.5,2 -1.83333,0 -2.5,-0.533333 -2.5,-2 z m 8,-0.06955 c 0,-1.552482 0.53954,-1.989712 2.15948,-1.75 C 503.28838,22.64345 503.50986,26 500.41152,26 498.63965,26 498,25.451054 498,23.930449 Z M 490.18045,16.75 c 0.20536,-1.445957 1.12359,-2.364192 2.56955,-2.569551 1.83248,-0.260254 2.25,0.157265 2.25,2.25 C 495,18.523184 494.52318,19 492.43045,19 c -2.09274,0 -2.51025,-0.417519 -2.25,-2.25 z M 498,16.5 c 0,-3.068837 3.49857,-3.525457 4.27461,-0.557905 C 502.8812,18.261727 502.2918,19 499.83333,19 498.54444,19 498,18.257576 498,16.5 Z"
         id="path2" />
    </g>
  </g>
</svg>
