<?xml version="1.0" encoding="UTF-8" standalone="no"?>
<!-- Created with Inkscape (http://www.inkscape.org/) -->

<svg
   version="1.1"
   id="svg1"
   width="542"
   height="450"
   viewBox="0 0 542 450"
   sodipodi:docname="BUSINESS_27.svg"
   inkscape:version="1.3.2 (091e20e, 2023-11-25, custom)"
   xmlns:inkscape="http://www.inkscape.org/namespaces/inkscape"
   xmlns:sodipodi="http://sodipodi.sourceforge.net/DTD/sodipodi-0.dtd"
   xmlns="http://www.w3.org/2000/svg"
   xmlns:svg="http://www.w3.org/2000/svg">
  <defs
     id="defs1" />
  <sodipodi:namedview
     id="namedview1"
     pagecolor="#ffffff"
     bordercolor="#000000"
     borderopacity="0.25"
     inkscape:showpageshadow="2"
     inkscape:pageopacity="0.0"
     inkscape:pagecheckerboard="0"
     inkscape:deskcolor="#d1d1d1"
     showgrid="false"
     inkscape:zoom="1.7488889"
     inkscape:cx="270.74333"
     inkscape:cy="225"
     inkscape:window-width="1920"
     inkscape:window-height="1001"
     inkscape:window-x="-9"
     inkscape:window-y="-9"
     inkscape:window-maximized="1"
     inkscape:current-layer="g1" />
  <g
     inkscape:groupmode="layer"
     inkscape:label="Image"
     id="g1">
    <g
       id="g2"
       transform="translate(-0.01254921)">
      <path
         style="fill:#fefefe"
         d="M 0,225 V 0 H 271 542 V 225 450 H 271 0 Z"
         id="path5" />
      <path
         style="fill:#9faec0"
         d="m 214.5,446.46158 c -6.6,-1.8334 -18.69783,-5.14052 -26.88406,-7.34915 -15.35115,-4.14171 -18.29745,-5.71311 -21.21095,-11.31277 -2.12678,-4.0876 -1.82058,-6.37827 3.67985,-27.52899 5.44268,-20.92866 5.57166,-23.10333 1.80782,-30.48108 -1.90043,-3.72515 -12.75202,-13.15943 -21.70371,-18.86902 -5.44541,-3.4732 -12.431,-4.52389 -17.73408,-2.66734 -2.17518,0.76151 -11.35489,5.74106 -20.39937,11.06566 C 97.613863,367.82089 95.043734,369 90.953387,369 83.543562,369 80.701668,366.34633 71.675203,350.99864 67.308763,343.57439 60.533072,332.1 56.618111,325.5 50.256049,314.77458 49.5,312.95016 49.5,308.32333 c 0,-3.666 0.605702,-6.00058 2.075586,-8 1.141572,-1.55283 10.1696,-7.68562 20.062285,-13.62843 C 96.472053,271.77634 97.610264,269.85947 94.606187,248.01371 91.629578,226.3677 89.298754,224.08256 63.5,217.51721 53.6,214.99783 43.938933,212.1633 42.030962,211.21826 37.471382,208.95984 34,203.68891 34,199.02409 34,197 36.441223,185.78947 39.424939,174.11178 c 3.763837,-14.73092 5.065176,-21.34513 4.25,-21.6011 -0.646216,-0.20292 -7.197153,-1.72055 -14.557637,-3.37251 C 21.756818,147.48621 15.400516,145.76682 14.992186,145.3173 13.812149,144.01824 -0.0031464,101.71494 0.02912965,99.499483 0.05038777,98.040309 5.4417788,93.784418 19.980681,83.75 30.938013,76.1875 40.558633,70 41.359837,70 c 1.777948,0 36.683375,7.908672 37.71244,8.544669 0.403634,0.24946 3.935652,10.338415 7.84893,22.419901 3.913277,12.08149 7.366274,22.62102 7.673326,23.42118 0.376061,0.98 -1.775428,3.09374 -6.591818,6.47616 l -7.150094,5.02132 4.323689,1.12932 c 2.37803,0.62113 6.542866,1.7724 9.255191,2.55839 12.006779,3.47935 19.906959,0.8085 28.310109,-9.57094 10.78849,-13.32579 12.42983,-16.26665 12.99278,-23.27977 0.30761,-3.83227 0.0732,-7.212766 -0.57801,-8.333927 -0.60256,-1.037467 -1.10925,-1.323803 -1.12597,-0.636303 -0.0167,0.6875 -0.96171,1.25 -2.09996,1.25 -1.58125,0 -1.98855,-0.530877 -1.72626,-2.25 0.19117,-1.252935 0.94106,-2.121093 1.69223,-1.959106 1.93276,0.416792 1.27433,-0.924188 -8.60951,-17.534245 -8.0061,-13.454457 -8.78123,-15.213461 -8.78394,-19.933319 -0.002,-3.682966 0.5991,-5.991328 2.08359,-8 C 117.81498,47.661159 129.31112,40.228088 144.53914,31.25 167.8971,17.478696 170.856,16 175.0547,16 c 6.49309,0 10.40585,2.979929 15.75648,12 15.55882,26.228999 16.82798,28.132015 20.30447,30.444993 6.57714,4.375909 10.26501,4.775621 24.61746,2.668185 14.31853,-2.102455 17.49681,-3.333135 22.07552,-8.548001 3.38873,-3.859547 4.1156,-5.9442 9.75014,-27.963236 2.08743,-8.15739 4.73713,-16.2424413 5.88821,-17.9667799 2.94736,-4.4151758 8.09233,-6.86849305 13.05302,-6.22418559 7.37847,0.95833389 56.22513,14.17890149 58.92601,15.94859049 4.40195,2.884265 6.70855,7.513384 6.29849,12.640434 -0.19794,2.475 -2.5163,12.728615 -5.1519,22.785811 -4.46872,17.052207 -4.71206,18.603841 -3.6071,23 1.58836,6.31942 4.42287,9.791199 14.25379,17.458427 10.21634,7.967812 13.5137,9.699932 19.90671,10.457092 4.54274,0.53802 5.81809,0.18327 13.45369,-3.742302 6.586,-3.385952 8.31594,-4.712512 7.89109,-6.05109 -0.29928,-0.942935 -0.97503,-4.345467 -1.50167,-7.561182 -7.08077,-43.235832 27.47181,-83.6198722 71.52599,-83.5974622 12.29447,0.00625 21.38827,2.0578795 32.0049,7.2205314 43.83321,21.3151998 54.59645,78.8837368 21.39527,114.4352348 -7.64143,8.18237 -16.34945,14.29425 -25.88848,18.17031 -6.87276,2.79265 -18.92705,5.42461 -24.84476,5.42466 -2.95585,2e-5 -4.17785,0.6465 -6.33692,3.35243 -1.6095,2.01717 -8.77682,6.89623 -17.99516,12.24997 -8.42615,4.89367 -17.05797,10.45582 -19.18183,12.36034 -3.69775,3.3159 -3.77219,3.50265 -1.75483,4.40282 2.35754,1.05196 2.49055,1.48285 1.12191,3.63441 -0.78115,1.22799 -1.31477,1.27655 -2.9427,0.26775 -1.82095,-1.12841 -2.04783,-0.91773 -2.69212,2.5 -1.07575,5.70636 2.27186,27.88477 4.92504,32.62915 4.18436,7.48241 7.54653,9.2013 28.76799,14.70746 10.68463,2.77225 20.46057,5.70733 21.72433,6.52238 3.47502,2.24121 6.19434,7.41137 6.19852,11.78504 0.003,3.5198 -11.62093,50.81521 -14.10724,57.39768 -1.56668,4.14779 -5.89867,8.11605 -10.09284,9.24542 -3.30215,0.88918 -6.38136,0.35046 -23.54067,-4.11856 -28.21851,-7.34929 -31.13761,-6.62795 -44.41333,10.97496 -12.93641,17.15301 -12.9344,20.52025 0.0253,42.54884 C 402.62638,387.44747 403,388.23651 403,393.08231 c 0,7.80746 -1.88448,9.45842 -28.77117,25.20588 -30.87005,18.0805 -28.71368,17.02998 -33.78392,16.45849 -7.08272,-0.79832 -9.54759,-3.48007 -20.5174,-22.32266 -14.99208,-25.75155 -16.38037,-26.44275 -44.69309,-22.25175 -8.64337,1.27944 -14.79324,4.89426 -17.92061,10.53355 -1.15727,2.0868 -3.98795,11.21918 -6.29039,20.29418 -5.0915,20.06797 -6.85768,24.31888 -11.20539,26.96959 -4.66958,2.84695 -10.99762,2.47003 -25.31803,-1.50801 z m 17.77793,-165.75881 1.47901,-4.79723 -4.74277,-12.17491 -4.74277,-12.17491 -4.11579,0.29717 c -8.22996,0.59423 -20.53352,-3.43643 -28.89019,-9.46446 l -2.23458,-1.6119 1.85275,5.36174 c 6.09937,17.65119 16.98506,31.22124 32.18605,40.12297 6.40123,3.74857 6.42507,3.75363 7.07607,1.5 0.35926,-1.24368 1.31876,-4.41999 2.13222,-7.05847 z m 6.24467,-14.42498 c 2.82087,-5.30992 13.68182,-16.55524 20.11092,-20.82263 8.81456,-5.85077 20.26047,-9.55507 31.4811,-10.18839 l 9.61462,-0.54268 -12.48827,-19.33105 c -10.87808,-16.83859 -12.72172,-19.20612 -14.29888,-18.36205 -5.61502,3.00507 -6.60505,-0.57274 -1.03801,-3.75121 4.02606,-2.29866 8.09592,-8.87167 8.09592,-13.07527 0,-3.93409 -3.17919,-10.19591 -6.30751,-12.42348 -2.53153,-1.80261 -4.61663,-2.22576 -11.70859,-2.37614 -6.43912,-0.13653 -9.64248,-0.70022 -12.62444,-2.22151 -5.11084,-2.60735 -10.77001,-8.8673 -12.35331,-13.66474 -1.08416,-3.28504 -1.02938,-11.30733 0.10537,-15.43007 0.65794,-2.39043 -7.64073,-4.32903 -19.11152,-4.46453 -9.11054,-0.10763 -11.11349,0.18119 -15.13612,2.18256 -11.84009,5.89077 -17.93999,15.20292 -20.10564,30.6934 -1.13163,8.09435 -1.48265,9.03189 -3.48831,9.31694 -2.81203,0.39965 -6.26993,4.71128 -6.26993,7.81792 0,2.34896 2.03773,4.92119 5.46221,6.89494 1.64238,0.94661 1.70462,1.87558 0.77044,11.5 -1.19281,12.2891 -0.27588,19.88885 3.31563,27.48068 3.92036,8.28695 9.58259,13.95056 18.21273,18.21718 7.21855,3.56874 8.14686,3.77234 17.19986,3.77234 8.78874,0 10.11256,-0.26712 16.226,-3.27411 7.24801,-3.56505 15.1577,-11.27121 18.35653,-17.8842 1.02206,-2.11293 2.36586,-6.31669 2.98621,-9.34169 0.76937,-3.75169 1.65915,-5.60278 2.79915,-5.82332 2.32083,-0.449 2.18393,3.36451 -0.39567,11.02194 -2.4761,7.3502 -6.13995,12.8938 -12.23466,18.51171 C 241.09974,244.94926 232.31081,250 229.53324,250 228.68996,250 228,250.22982 228,250.51071 228,251.8816 235.3487,270 235.90473,270 c 0.35225,0 1.53029,-1.67499 2.61787,-3.72221 z M 187.66667,195.33333 C 185.79887,193.46554 187.22533,192 190.91111,192 c 3.14597,0 4.42134,-0.60638 6.51925,-3.0996 1.62793,-1.93469 3.18085,-2.87983 4.13201,-2.51484 3.7011,1.42024 -4.79821,9.61444 -9.97243,9.61444 -1.79113,0 -3.55661,-0.3 -3.92327,-0.66667 z M 262,183.07673 C 262,178.90412 265.86054,173 268.58889,173 c 2.0499,0 1.72832,2.40296 -0.60405,4.51372 -1.10834,1.00303 -2.29085,3.54778 -2.62781,5.65499 C 264.5191,188.40882 262,188.3398 262,183.07673 Z m -70.75,-7.5676 c -3.79862,-1.65104 -4.68852,-5.21435 -1,-4.00419 5.06308,1.66114 10.59946,1.66033 14.10267,-0.002 3.36418,-1.59641 5.64733,-1.40764 5.64733,0.46692 0,1.50711 -8.52001,5.03146 -12.06572,4.99105 -1.88886,-0.0215 -4.89678,-0.67481 -6.68428,-1.45173 z m 7.73145,-14.80012 c -4.63021,-2.44809 -6.17891,-5.03552 -3.60514,-6.02317 3.64336,-1.39809 13.28837,3.79822 12.34904,6.65312 -0.67519,2.05213 -4.14375,1.80224 -8.7439,-0.62995 z m 129.56482,74.76694 c 1.17114,-9.37347 0.13862,-23.93391 -1.83733,-25.90987 -1.12461,-1.12461 -1.50367,-2.53575 -1.10637,-4.11872 0.40105,-1.59793 -0.45364,-4.68534 -2.54069,-9.17768 -3.2382,-6.97018 -9.06768,-16.26432 -10.20347,-16.26775 -0.35288,-10e-4 -0.94616,1.23557 -1.31841,2.74807 -1.69443,6.88468 -12.71079,20.7203 -20.1677,25.32892 l -3.26509,2.01794 8.25956,12.70157 8.25955,12.70157 9.93684,2.61144 c 13.97072,3.67156 13.17639,3.82128 13.98311,-2.63549 z m -6.57546,-23.01113 c -1.73654,-2.09239 -0.28835,-3.21094 1.64896,-1.27362 0.93519,0.93519 1.17403,1.81821 0.5895,2.17947 -0.54046,0.33402 -1.54777,-0.0736 -2.23846,-0.90585 z M 47.616791,142.96939 c 1.640463,-5.64856 5.911353,-9.85628 10.811336,-10.65144 2.057178,-0.33383 6.755504,-0.038 10.440724,0.6573 l 6.7004,1.26428 5.747527,-4.02616 5.747526,-4.02615 -13.646405,-3.20651 c -7.505522,-1.76358 -14.607491,-3.26331 -15.782152,-3.33273 -1.90606,-0.11265 -35.888832,22.32946 -35.107456,23.18485 0.655452,0.71753 20.083984,5.02874 21.87221,4.85346 1.332451,-0.13061 2.293783,-1.54047 3.21629,-4.7169 z M 485,140.45144 C 505.73149,135.60667 524.31302,119.31695 532.2833,99 544.81471,67.0563 531.22884,30.184206 501,14.097034 489.77824,8.125044 482.78015,6.4966121 468.5,6.5344039 456.60533,6.5658827 454.76727,6.8282111 446.88225,9.6196892 424.61165,17.50399 407.62813,36.181649 402.43556,58.5 c -1.65639,7.119381 -1.75053,29.563316 -0.13497,32.177349 0.50337,0.814465 3.56156,-0.487121 9.96286,-4.24026 7.5364,-4.418655 10.08365,-5.417454 13.83867,-5.426277 8.03101,-0.01887 9.72393,1.899188 26.02776,29.489188 8.12533,13.75 15.07018,26.4625 15.43301,28.25 0.64184,3.16205 0.79876,3.2496 5.7984,3.23522 2.82629,-0.008 8.06371,-0.69833 11.63871,-1.53378 z M 454.70124,89.367903 C 454.31556,88.982223 454,86.741323 454,84.388125 v -4.278543 l -4.75,-0.304791 C 445.82991,79.585336 444.5,79.080029 444.5,78 c 0,-1.080029 1.32991,-1.585336 4.75,-1.804791 L 454,75.890418 V 66.945209 58 h -4.53138 c -3.1617,0 -4.71038,-0.466438 -5.12354,-1.543128 -0.86135,-2.24464 0.0703,-2.742586 5.13111,-2.742586 H 454 v -4.750154 c 0,-3.113199 0.47492,-4.9324 1.37814,-5.278998 C 457.6096,42.828846 459,45.103009 459,49.609091 v 4.209091 h 8.5 8.5 v -4.286646 c 0,-4.330912 1.94131,-7.303877 3.9562,-6.058609 0.57409,0.354809 1.0438,2.804264 1.0438,5.443233 v 4.798126 h 4.52381 c 5.06085,0 5.99246,0.497946 5.13111,2.742586 C 490.24176,57.533562 488.69308,58 485.53138,58 H 481 v 8.945209 8.945209 l 4.74101,0.304791 c 3.5723,0.229657 4.82292,0.736181 5.07332,2.054791 0.28073,1.478341 -0.44673,1.75 -4.68621,1.75 h -5.01854 l -0.30479,4.75 c -0.25549,3.981736 -0.62827,4.75 -2.30479,4.75 -1.67652,0 -2.0493,-0.768264 -2.30479,-4.75 L 475.89042,80 H 467.5 459.10958 l -0.30479,4.741006 c -0.21342,3.319765 -0.76907,4.829009 -1.85355,5.034569 -0.85182,0.16146 -1.86432,-0.02199 -2.25,-0.407672 z M 476,67 v -9 h -8.5 -8.5 v 9 9 h 8.5 8.5 z M 35.654619,127.89289 c 11.002412,-7.6218 17.292197,-12.5891 16.977903,-13.40814 -0.274588,-0.71556 -3.074997,-9.32986 -6.22313,-19.142888 C 43.261258,85.528838 40.346684,77.112912 39.93256,76.639804 39.518436,76.166696 31.31179,81.255691 21.695569,87.948682 L 4.2115307,100.11776 10.84034,120.05888 C 14.486185,131.0265 17.62852,140 17.823307,140 c 0.194787,0 8.218877,-5.4482 17.831312,-12.10711 z M 88.993335,121.75 C 88.973848,121.01909 76.137811,82.804477 75.79747,82.464137 c -0.595751,-0.595751 -30.227241,-7.3677 -30.601342,-6.993598 -0.175639,0.175638 2.517635,9.086884 5.985054,19.802769 l 6.304396,19.483422 15.007211,3.51508 c 16.099322,3.77088 16.510661,3.85759 16.500546,3.47819 z M 506.34375,237.96928 c -9.69227,-1.94249 -17.86959,-8.53535 -22.18056,-17.8828 -6.74873,-14.63323 -0.48101,-32.15417 14.27335,-39.90013 4.31809,-2.26698 6.31471,-2.66036 13.56346,-2.67232 7.56708,-0.0125 9.08778,0.31154 13.85541,2.95227 6.66618,3.69232 12.50675,10.2135 14.56949,16.26731 2.41939,7.10053 2.05433,17.71544 -0.81737,23.76639 -5.93633,12.50846 -20.32142,20.06313 -33.26378,17.46928 z M 510,227 v -7 h -5 c -2.79437,0 -5,0.4587 -5,1.03984 C 500,224.28334 507.22357,234 509.63486,234 509.83569,234 510,230.85 510,227 Z m 9.1406,3.34262 C 521.06121,228.15568 524,222.53563 524,221.04966 524,220.45673 521.82437,220 519,220 h -5 v 7.03518 c 0,6.40733 0.15718,6.95107 1.76119,6.09263 0.96865,-0.51841 2.48939,-1.77174 3.37941,-2.78519 z m 9.90897,-3.00637 c 2.23044,-2.01506 4.49756,-4.49006 5.03807,-5.5 0.84464,-1.57824 0.59138,-1.83456 -1.80246,-1.8242 -2.39338,0.0104 -3.14538,0.78405 -5.34576,5.5 C 525.5311,228.53042 524.5173,231 524.68654,231 c 0.16923,0 2.1326,-1.64869 4.36303,-3.66375 z M 496.7155,225 c -1.81986,-4.30749 -2.50046,-5 -4.91397,-5 -1.54084,0 -2.80153,0.23505 -2.80153,0.52234 0,0.87954 8.20229,9.47766 9.04133,9.47766 0.43264,0 -0.16399,-2.25 -1.32583,-5 z m -3.18811,-16.99946 -0.0274,-7.99947 -3.14301,-5.3e-4 c -3.60955,-6.2e-4 -4.36319,1.27147 -4.34334,7.33125 0.0233,7.10008 0.8157,8.66821 4.38037,8.66821 h 3.16075 z M 510,208 v -8 h -6 -6 v 7.33333 c 0,4.03334 0.3,7.63334 0.66667,8 0.36666,0.36667 3.06666,0.66667 6,0.66667 H 510 Z m 15.79206,-0.25 0.29207,-7.75 H 520.04206 514 v 8.0499 8.04991 l 5.75,-0.29991 5.75,-0.2999 z m 11.57765,6 c 0.33164,-1.2375 0.60298,-3.825 0.60298,-5.75 0,-6.40908 -0.87617,-8 -4.40584,-8 h -3.19989 l -0.0515,8 -0.0515,8 h 3.2514 c 2.52649,0 3.38583,-0.50164 3.85437,-2.25 z m -40.62213,-23.82592 c 1.93138,-4.57145 1.94721,-4.83111 0.23884,-3.91681 -1.84981,0.98999 -7.98642,7.94182 -7.98642,9.04738 0,0.32943 1.27779,0.41142 2.83953,0.18221 2.30233,-0.33791 3.23088,-1.34303 4.90805,-5.31278 z M 510,188.5 c 0,-3.575 -0.25458,-6.5 -0.56574,-6.5 -1.87663,0 -4.70316,2.6027 -6.90288,6.35625 C 498.981,194.4145 499.19856,195 505,195 h 5 z m 14,5.96788 C 524,191.31583 517.17343,182 514.86364,182 514.38864,182 514,184.925 514,188.5 v 6.5 h 5 c 2.75,0 5,-0.23945 5,-0.53212 z m 8.48899,-2.89343 C 530.05778,188.38697 525,184.27811 525,185.49052 c 0,0.29514 0.44981,1.31801 0.99957,2.27305 0.54976,0.95504 1.43862,2.97393 1.97525,4.48643 0.77786,2.19243 1.59927,2.75 4.05132,2.75 h 3.07564 z m -60.95676,9.47771 c -1.02775,-1.66294 1.50086,-4.41907 2.83253,-3.0874 0.7327,0.7327 0.5699,1.52915 -0.53929,2.63834 -1.1271,1.1271 -1.79353,1.2576 -2.29324,0.44906 z m -5.42795,-2.96655 c -1.38077,-0.8743 -0.89393,-4.09985 0.61434,-4.0703 1.87564,0.0368 3.29806,1.77765 2.70826,3.31464 -0.7236,1.88568 -1.32277,2.02194 -3.3226,0.75566 z m -6.96129,-2.97608 C 457.73782,194.21918 458.40004,190 459.94494,190 c 1.5371,0 3.08787,2.75092 2.46532,4.37325 -0.70395,1.83447 -1.31631,1.97247 -3.26727,0.73628 z m -6.37281,-3.21827 C 450.64892,190.70414 451.5779,188 454.10699,188 c 1.20716,0 1.89301,0.70323 1.89301,1.94098 0,2.48117 -1.09725,3.14373 -3.22982,1.95028 z m -7.55405,-2.73747 c -1.74337,-1.10491 -0.38343,-4.33266 1.6597,-3.93919 1.75802,0.33857 2.2615,3.91665 0.62417,4.43581 -0.55,0.17439 -1.57774,-0.0491 -2.28387,-0.49662 z M 438.75,187.25074 c -1.85209,-0.42057 -2.10184,-1.17028 -1.18542,-3.55844 0.78328,-2.0412 4.43542,-0.917 4.43542,1.36531 0,2.1549 -0.86068,2.73569 -3.25,2.19313 z m -7.05709,-2.03999 c -1.04907,-0.22025 -1.67399,-1.07808 -1.48978,-2.04507 0.38236,-2.00721 4.80399,-2.91828 4.78156,-0.98523 -0.0254,2.18686 -1.37804,3.43207 -3.29178,3.0303 z M 95.073886,104.58903 c -0.887275,-1.0691 -0.889854,-1.58473 -0.01064,-2.12812 1.07572,-0.66483 2.886214,1.06364 2.921442,2.78909 0.02516,1.23246 -1.656271,0.85064 -2.910802,-0.66097 z M 100.38,102.54789 C 99.683386,100.73253 100.69521,99 102.45203,99 c 1.86989,0 2.88568,3.1688 1.33184,4.15474 -1.87478,1.18958 -2.77618,1.02887 -3.40387,-0.60685 z m 6.97126,-3.074908 c -0.36863,-0.960619 -0.0475,-2.0513 0.75302,-2.557651 1.98156,-1.253375 3.39572,-0.564432 3.39572,1.654307 0,2.415532 -3.29329,3.132612 -4.14874,0.903344 z m 7.37413,-1.415077 C 114.1188,95.738273 114.7082,95 117.16667,95 c 2.28488,0 2.4873,3.535071 0.25154,4.393011 -2.16288,0.829979 -2.12124,0.850629 -2.69282,-1.335106 z m 7.97585,0.309998 C 122.31556,97.982223 122,96.841667 122,95.833333 122,94.531212 122.74453,94 124.56955,94 c 2.08969,0 2.50988,0.418274 2.25,2.239784 -0.31628,2.216853 -2.76448,3.481951 -4.11831,2.128119 z"
         id="path4" />
      <path
         style="fill:#9eabb9"
         d="m 218.5,447.3919 c -4.95,-1.35385 -10.73557,-2.92616 -12.85681,-3.49403 l -3.85682,-1.03248 0.68094,-5.6827 c 0.37451,-3.12548 0.87527,-6.80769 1.11279,-8.18269 0.23753,-1.375 0.13185,-1.83304 -0.23483,-1.01786 -0.87067,1.93559 -3.32386,4.3726 -3.86096,3.8355 -0.96262,-0.96262 3.02245,-7.83715 4.26638,-7.35982 1.00255,0.38472 1.21752,-0.61502 0.90894,-4.22696 -0.22229,-2.60197 -0.17416,-3.60586 0.10695,-2.23086 0.32934,1.61086 1.33582,-1.76785 2.82992,-9.5 2.45796,-12.72022 2.85211,-16.37111 1.4035,-13 -1.01469,2.3613 -1.34839,-8.59825 -0.37266,-12.23875 0.82661,-3.08411 2.34915,-1.82806 2.48223,2.04777 0.0955,2.78169 0.2238,2.61379 1.00023,-1.30902 0.48987,-2.475 0.64178,-5.16128 0.33758,-5.96952 -0.3042,-0.80823 -0.21211,-1.12854 0.20464,-0.71179 0.41675,0.41675 1.77995,-4.77197 3.02932,-11.53048 C 217.96397,353.44028 218.4887,348.35153 217,353 c -0.65256,2.03762 -0.81908,1.62148 -0.90032,-2.25 -0.10903,-5.19556 0.47285,-5.97382 1.86916,-2.5 l 0.90439,2.25 0.0634,-2.19098 c 0.0349,-1.20504 -0.39395,-2.47364 -0.95292,-2.8191 -0.55897,-0.34546 -0.72772,-1.09507 -0.375,-1.66578 0.42929,-0.69461 0.87904,-0.65301 1.36039,0.12583 0.96866,1.56732 3.19602,-12.2813 2.52883,-15.72299 -0.4573,-2.35893 -0.38993,-2.45705 0.49917,-0.72698 0.80612,1.5686 0.94477,0.98423 0.64281,-2.70915 -0.21175,-2.59003 0.0472,-4.85321 0.57543,-5.02929 0.52824,-0.17608 2.47451,-7.95696 4.32505,-17.29085 1.85054,-9.33389 4.03016,-19.1521 4.84361,-21.81824 l 1.47899,-4.84753 -4.73719,-12.09291 -4.73719,-12.0929 -6.4443,-0.15685 c -11.54627,-0.28102 -21.2818,-4.35177 -30.65082,-12.81612 -2.70763,-2.44617 -4.31599,-3.25028 -5.29318,-2.64634 -1.05189,0.65011 -1.71784,-0.0461 -2.65695,-2.77785 -1.55506,-4.52335 -0.75732,-5.77898 0.89329,-1.40603 0.66101,1.75123 1.55319,3.18406 1.98261,3.18406 1.23554,0 0.93124,-0.97993 -1.2598,-4.05695 -2.76743,-3.88651 -5.92409,-13.35192 -6.11948,-18.3496 -0.15799,-4.04121 -0.16528,-4.04879 -0.57129,-0.59345 -0.2262,1.925 -0.8904,3.95 -1.47601,4.5 -0.74363,0.69841 -0.87704,0.24603 -0.44236,-1.5 0.34232,-1.375 0.62854,-3.98906 0.63605,-5.80902 0.008,-1.81996 0.40267,-3.06859 0.87814,-2.77473 0.47547,0.29385 1.17946,-3.34761 1.56443,-8.09215 0.52758,-6.50216 0.38802,-8.8192 -0.56674,-9.40928 -0.69668,-0.43057 -1.59458,-0.58021 -1.99534,-0.33253 -0.40075,0.24769 -1.05427,-0.0765 -1.45225,-0.72049 -0.49487,-0.80071 -0.27963,-0.90324 0.6809,-0.32435 1.19733,0.7216 1.19626,0.5899 -0.007,-0.89283 -0.99351,-1.22403 -1.62303,-1.39739 -2.125,-0.58519 -0.51594,0.8348 -0.90251,0.8479 -1.39729,0.0473 -0.37621,-0.60872 -0.1717,-1.10676 0.45446,-1.10676 0.75495,0 0.91317,-1.09483 0.46967,-3.25 -1.62589,-7.9009 -1.66341,-8.26634 -0.71016,-6.91615 0.76572,1.08456 1.05445,1.04008 1.5449,-0.23801 0.33174,-0.86452 0.28187,-1.52396 -0.11084,-1.46542 C 168.33593,173.41035 167,172.89601 167,171.89301 c 0,-0.60884 0.68295,-0.84491 1.51767,-0.5246 0.83472,0.32031 2.97222,-0.11089 4.75,-0.95822 3.09767,-1.47642 3.22705,-1.7716 3.10554,-7.08506 -0.0699,-3.05653 0.22647,-4.97286 0.66048,-4.27061 0.43301,0.70061 0.5653,2.88746 0.29398,4.85966 -0.37444,2.72181 -0.23609,3.22439 0.5742,2.08582 1.80153,-2.53141 1.27721,-7.52796 -1.00686,-9.59501 -1.15774,-1.04775 -2.28274,-1.79249 -2.5,-1.65499 -0.21725,0.1375 -0.95751,0.24311 -1.64501,0.23469 -0.83588,-0.0102 -0.75305,-0.34154 0.25,-1 1.22878,-0.80665 1.25854,-1.14051 0.16459,-1.84649 -0.73448,-0.474 -1.29698,-1.149 -1.25,-1.5 0.31986,-2.39007 -0.12647,-2.80184 -2.41459,-2.22756 -1.44165,0.36183 -2.5,0.19606 -2.5,-0.39159 0,-0.56048 0.40733,-1.01905 0.90517,-1.01905 0.49785,0 0.77449,-2.5875 0.61477,-5.75 -0.24857,-4.92175 -0.18453,-5.17383 0.44463,-1.75 0.69511,3.78269 0.7432,3.67131 0.88524,-2.05 0.0901,-3.62936 -0.34994,-6.61086 -1.09981,-7.45177 -1.01552,-1.13882 -0.89733,-1.13312 0.63006,0.0304 1.77078,1.34891 1.83888,1.24469 1.17165,-1.79319 -0.6261,-2.85061 -0.40884,-3.33924 1.86994,-4.20563 1.41809,-0.53916 2.57835,-1.24298 2.57835,-1.56406 0,-0.32107 -0.44485,-0.30883 -0.98855,0.0272 -0.56607,0.34985 -0.73497,-0.0498 -0.39521,-0.93524 0.32633,-0.85041 0.95997,-1.3196 1.40808,-1.04265 1.14094,0.70514 7.01749,-6.63836 6.27442,-7.84067 -0.34756,-0.56236 -0.0927,-0.66505 0.59531,-0.23984 0.93315,0.57672 0.92402,1.11618 -0.0407,2.40451 -1.13737,1.51885 -1.08679,1.51761 0.59119,-0.0145 1.00924,-0.92151 1.88459,-3.01965 1.94523,-4.66254 0.0606,-1.6429 0.29613,-2.80305 0.52333,-2.57813 0.84491,0.83647 4.01541,-5.60665 3.46486,-7.04135 C 187.75251,98.912668 190.12728,96 192.08158,96 c 0.67344,0 0.25559,0.840283 -0.92857,1.867295 C 189.96885,98.894308 189,100.04472 189,100.42376 c 0,0.37904 1.76606,-0.793527 3.92458,-2.605712 2.91753,-2.449419 3.65591,-3.618601 2.87755,-4.556464 C 195.08206,92.393946 195.07959,92 195.79422,92 c 0.57151,0 1.1977,0.475753 1.39152,1.057229 0.19383,0.581476 1.10291,0.769234 2.02019,0.417241 0.91728,-0.351993 1.46616,-1.165246 1.21973,-1.807229 -0.52981,-1.380217 15.35668,-1.115829 19.80805,0.329652 2.25111,0.730997 2.99733,0.511339 4.227,-1.244259 0.82131,-1.172583 1.80829,-1.816969 2.19329,-1.431969 0.385,0.385 -0.16715,1.356039 -1.227,2.157864 -1.05985,0.801825 -1.477,1.457864 -0.927,1.457864 1.70324,0 4.50956,-2.589244 3.73446,-3.445595 -0.40395,-0.446297 -0.2547,-0.538883 0.33166,-0.205748 0.58637,0.333136 2.83637,-0.02497 5,-0.795782 5.66122,-2.016865 21.3648,-1.782726 29.9207,0.446116 6.82029,1.776709 9.51318,1.764715 9.51318,-0.04237 0,-2.023626 2.8023,-0.707531 3.2273,1.515694 0.35436,1.853721 0.0932,2.297139 -1.13342,1.924494 -1.4037,-0.426433 -1.41127,-0.364613 -0.0635,0.518102 0.84173,0.551271 2.18101,1.147749 2.97619,1.325505 0.79517,0.177757 2.05526,0.88983 2.8002,1.582385 0.74494,0.692555 1.72972,1.027252 2.1884,0.74377 0.45868,-0.283482 1.06188,0.04988 1.34043,0.740808 0.27856,0.690927 0.54199,0.243731 0.58541,-0.993769 0.0434,-1.2375 -0.48355,-2.256891 -1.17105,-2.265313 -0.845,-0.01035 -0.77255,-0.31725 0.22361,-0.947213 0.81048,-0.512546 1.71048,-0.585331 2,-0.161746 0.28951,0.423585 1.25827,1.039364 2.15278,1.368397 1.13039,0.415794 1.47522,1.389105 1.13067,3.191465 -0.40083,2.096842 -0.18087,2.472405 1.14913,1.962034 1.27514,-0.489315 1.38682,-0.9421 0.49689,-2.014407 C 290.00596,96.302259 290.10964,96 291.37756,96 292.2699,96 293,96.498145 293,97.106989 c 0,0.608844 0.675,0.847967 1.5,0.531385 1.08175,-0.415108 1.5,0.107412 1.5,1.873959 0,1.737727 -0.68344,2.621097 -2.35185,3.039837 l -2.35185,0.59028 2.92877,2.92878 c 3.6194,3.6194 4.5475,3.75681 2.31004,0.34201 -0.9322,-1.42272 -1.45821,-2.82347 -1.1689,-3.11278 0.28931,-0.28931 1.33777,0.76354 2.3299,2.33967 1.27657,2.02798 2.46163,2.77143 4.05389,2.54323 1.72963,-0.24788 2.25,0.16982 2.25,1.80611 0,1.17071 -0.45,1.85045 -1,1.51053 -0.55,-0.33992 -1.01431,-0.029 -1.0318,0.69098 -0.0196,0.80736 -0.59447,0.56511 -1.5,-0.63211 -0.80751,-1.06762 -1.45389,-1.51762 -1.4364,-1 0.0523,1.54802 2.96387,4.93945 4.26125,4.96357 0.66382,0.0123 1.06435,0.845 0.89007,1.85035 -0.21293,1.22829 0.0838,1.58029 0.90451,1.07305 0.7806,-0.48244 0.96388,-0.33821 0.50786,0.39965 -1.09601,1.77338 0.43713,3.6723 1.62384,2.01127 0.74175,-1.03821 0.83906,-0.95083 0.41447,0.37218 -0.30518,0.95092 0.21487,3.42592 1.15566,5.5 1.41961,3.12967 2.15159,3.71982 4.3037,3.46977 l 2.59315,-0.30129 0.0127,8.30129 0.0127,8.30129 -1.22947,-6.32359 c -0.6762,-3.47797 -1.80258,-6.85297 -2.50305,-7.5 -1.00106,-0.92467 -1.14696,-0.81531 -0.6818,0.51104 3.35066,9.55418 5.17778,27.74249 3.72651,37.09611 -1.67857,10.81869 -7.50369,22.30034 -15.19454,29.94932 -3.48117,3.46224 -7.57293,7.1887 -9.09279,8.28105 l -2.76338,1.98607 8.26338,12.63305 8.26338,12.63306 9.5,2.24397 c 8.67553,2.04923 19.60075,5.40432 24.41404,7.49745 1.3609,0.5918 1.70509,0.49424 1.19099,-0.33759 C 339.17572,244.4753 339.49136,244 340.38197,244 c 1.84766,0 3.24949,1.98991 1.42705,2.02572 -0.71996,0.0142 0.94098,1.17189 3.69098,2.57275 2.75,1.40086 6.97252,3.69343 9.38338,5.09459 2.47116,1.43622 4.07472,1.94978 3.67584,1.17726 -0.38914,-0.75368 -0.0904,-0.62156 0.66391,0.29358 0.75429,0.91515 5.01151,4.36285 9.46048,7.66156 4.44897,3.29871 8.39175,6.48745 8.76173,7.0861 C 378.42507,271.4968 380,271.24307 380,269.5 c 0,-0.825 0.675,-1.5 1.5,-1.5 0.825,0 1.5,0.675 1.5,1.5 0,2.30279 -0.40622,3.02964 -1.5,2.68393 -0.55,-0.17383 1.45963,2.18867 4.46584,5.25 5.88101,5.98885 6.16358,6.20086 5.78416,4.33981 -0.1375,-0.67444 0.82532,-1.38897 2.1396,-1.58784 1.99928,-0.30253 2.30042,-0.0206 1.84362,1.72625 -0.41264,1.57794 -0.0804,2.08785 1.3604,2.08785 1.36681,0 1.90638,0.70759 1.90638,2.5 0,3.16931 -0.49026,3.13628 -3.71131,-0.25 -2.95127,-3.10266 -2.07796,-0.95796 1.00544,2.46918 1.09812,1.22055 2.43956,1.94541 2.98096,1.6108 0.54141,-0.3346 0.77331,0.0168 0.51533,0.78082 -0.25797,0.76406 1.93365,4.82324 4.87027,9.0204 2.93662,4.19716 5.33931,7.87668 5.33931,8.1767 0,0.30002 -2.42097,1.65384 -5.37993,3.0085 -4.59167,2.10214 -6.50651,3.95062 -13.06886,12.61598 C 382.76448,335.53495 381,339.1284 381,345.42037 c 0,4.98638 2.70024,10.61381 14.87786,31.00624 7.60715,12.73879 8.63567,16.76374 5.71715,22.37305 -2.29557,4.41203 -4.96972,6.27729 -30.34142,21.16361 -26.93185,15.80171 -29.07163,16.56157 -36.18336,12.84914 -4.0044,-2.09036 -5.39675,-3.96088 -14.5,-19.47968 C 315.03161,403.89073 309.6,395.16468 308.5,393.9415 c -2.98888,-3.32358 -9.39858,-5.8948 -14.75658,-5.91954 -9.186,-0.0424 -24.96582,2.91833 -29.39836,5.51597 -7.23741,4.24141 -8.42438,6.97122 -15.85442,36.46207 -3.06966,12.18389 -5.21502,16.1668 -9.90753,18.39354 -4.56368,2.16561 -9.38147,1.92532 -20.08311,-1.00164 z M 210.98469,390.75 c -0.012,-1.75671 -0.21673,-1.9316 -0.93402,-0.79775 -0.50529,0.79874 -0.69684,1.81124 -0.42567,2.25 0.86737,1.40343 1.37543,0.86078 1.35969,-1.45225 z m 29.41964,-126.99792 c 7.95573,-11.91987 22.02475,-22.24215 35.69618,-26.18989 3.08028,-0.88946 9.69247,-1.94232 14.69375,-2.33969 L 299.8875,234.5 287.32522,215.27825 c -11.36409,-17.38838 -12.74918,-19.12172 -14.52189,-18.173 -2.27318,1.21657 -5.24016,0.41057 -4.26957,-1.15987 0.36328,-0.58781 1.69759,-1.46304 2.96511,-1.94495 6.75265,-2.56735 10.46447,-14.16441 6.71122,-20.96825 -3.35694,-6.0854 -6.07461,-7.36051 -17.10575,-8.02589 -8.45534,-0.51 -10.46953,-0.98219 -13.91449,-3.26195 -8.49928,-5.62456 -12.44705,-14.53517 -10.54766,-23.8074 1.02119,-4.98508 0.98479,-5.1283 -1.54821,-6.09288 C 230.68997,130.16698 223.0198,129 216.40102,129 c -8.30942,0 -16.00555,2.93983 -22.14383,8.45868 -6.57669,5.91301 -10.01131,13.27201 -11.53426,24.71333 -1.17735,8.84491 -1.32897,9.21563 -4.06805,9.94661 -6.98091,1.86302 -7.68291,11.39943 -1.02547,13.93058 2.4955,0.94879 2.50379,0.99395 1.6892,9.20213 -0.45024,4.53677 -0.76031,11.17367 -0.68906,14.74867 0.32041,16.07666 11.20554,30.56548 27.2026,36.20846 8.38684,2.95846 20.54007,2.2061 28.5811,-1.76937 10.80118,-5.34006 18.26503,-14.76169 21.23791,-26.80864 1.85809,-7.52951 4.01371,-8.45069 3.56325,-1.52271 -0.69979,10.76269 -11.27095,25.26589 -22.50921,30.88171 C 233.39164,248.64525 230.07743,250 229.34028,250 228.60312,250 228,250.29301 228,250.65113 c 0,1.76243 7.55286,20.17364 8.02376,19.55909 0.29931,-0.39062 2.27057,-3.29678 4.38057,-6.45814 z M 188.25,195.38357 c -0.6875,-0.30263 -1.25,-1.18774 -1.25,-1.9669 0,-0.9789 1.1994,-1.41667 3.88134,-1.41667 3.04678,0 4.55299,-0.68698 7.00503,-3.19498 2.26769,-2.31945 3.42446,-2.89419 4.22132,-2.09733 1.81533,1.81533 -4.87027,8.27057 -9.10769,8.79387 -1.925,0.23773 -4.0625,0.18463 -4.75,-0.11799 z m 74.41667,-9.05024 C 262.3,185.96667 262,184.20119 262,182.41006 262,178.89541 266.12795,173 268.58889,173 c 2.10342,0 1.71457,1.85065 -1.08889,5.18237 -1.41896,1.68634 -2.5,4.23515 -2.5,5.89436 0,2.79953 -0.91017,3.67977 -2.33333,2.2566 z M 191.25,175.50913 c -3.79859,-1.65102 -4.69144,-5.21985 -1,-3.99712 4.97999,1.64955 11.50637,1.66534 14.65819,0.0355 3.17383,-1.64124 5.67053,-1.29288 4.48475,0.62576 -1.06663,1.72584 -8.6983,4.78396 -11.89294,4.76567 -1.65,-0.009 -4.4625,-0.65285 -6.25,-1.42977 z m 10.25,-13.70385 c -3.15682,-1.11524 -7.5,-4.57797 -7.5,-5.97959 0,-1.72209 6.84653,-0.72979 10.10212,1.46414 5.66019,3.81441 3.92698,6.82205 -2.60212,4.51545 z m -1.40032,275.50374 C 200.04486,435.55398 200.45,433.83992 201,433.5 c 1.14998,-0.71073 1.14998,0.90919 0,4.5 -0.76461,2.38749 -0.80513,2.35639 -0.90032,-0.69098 z M 169.07895,425.19098 C 169.03553,424.47102 168.55,424.16008 168,424.5 c -1.43403,0.88628 -1.23686,-2.33085 0.23972,-3.91154 0.91909,-0.98388 1.82433,-1.06077 3.5,-0.29728 2.75604,1.25573 2.98331,3.70882 0.34361,3.70882 -1.05416,0 -2.14364,0.5625 -2.42105,1.25 -0.38791,0.96135 -0.52262,0.94772 -0.58333,-0.059 z m 36,-13.77431 c 0.048,-1.16495 0.28494,-1.4019 0.60416,-0.60417 0.28887,0.72187 0.25335,1.58438 -0.0789,1.91667 -0.3323,0.33229 -0.56864,-0.25834 -0.52522,-1.3125 z m 7.116,-38.91667 c 0.0204,-1.65 0.2445,-2.20394 0.49804,-1.23097 0.25354,0.97297 0.23687,2.32297 -0.0371,3 -0.27393,0.67703 -0.48137,-0.11903 -0.46099,-1.76903 z M 213,364.5 c 0,-0.825 0.45,-1.5 1,-1.5 0.55,0 1,0.675 1,1.5 0,0.825 -0.45,1.5 -1,1.5 -0.55,0 -1,-0.675 -1,-1.5 z M 83.25,364.31067 c 0.9625,-0.25152 2.5375,-0.25152 3.5,0 0.9625,0.25153 0.175,0.45733 -1.75,0.45733 -1.925,0 -2.7125,-0.2058 -1.75,-0.45733 z M 104.5,360 c 0.33992,-0.55 1.37898,-0.99311 2.30902,-0.98469 1.45727,0.0132 1.48367,0.14929 0.19098,0.98469 -1.95837,1.2656 -3.28218,1.2656 -2.5,0 z m 53,-5 c -0.33992,-0.55 0.30852,-1 1.44098,-1 1.13246,0 2.05902,0.45 2.05902,1 0,0.55 -0.64844,1 -1.44098,1 -0.79254,0 -1.7191,-0.45 -2.05902,-1 z m -7,-6 c -0.33992,-0.55 -0.14148,-1 0.44098,-1 0.58246,0 1.05902,0.45 1.05902,1 0,0.55 -0.19844,1 -0.44098,1 -0.24254,0 -0.7191,-0.45 -1.05902,-1 z m -21,-4 c -0.6746,-1.09152 0.18181,-3 1.34621,-3 0.4005,0 0.79598,0.9 0.87884,2 0.15842,2.10306 -1.1734,2.70161 -2.22505,1 z m 5.25,0.33772 c 0.6875,-0.27741 1.8125,-0.27741 2.5,0 0.6875,0.27741 0.125,0.50439 -1.25,0.50439 -1.375,0 -1.9375,-0.22698 -1.25,-0.50439 z M 451,316.97709 c 0,-0.57192 0.69441,-1.30633 1.54313,-1.63201 2.34537,-0.90001 2.62076,0.0715 0.41139,1.45125 C 451.71745,317.56889 451,317.63525 451,316.97709 Z M 222.0318,314.75 c 0.0175,-0.6875 0.6925,-2.12351 1.5,-3.19113 1.5669,-2.07162 1.80996,-1.43604 0.83791,2.19113 -0.63673,2.37595 -2.39202,3.12674 -2.33791,1 z m 185.76202,-11.73975 c -1.54745,-2.23803 -2.09898,-3.68084 -1.28807,-3.36967 0.77997,0.2993 1.67738,1.36104 1.99425,2.35942 0.31687,0.99838 1.234,2.06769 2.03807,2.37623 0.80406,0.30855 1.46193,1.02512 1.46193,1.59239 0,1.99143 -1.52564,0.91839 -4.20618,-2.95837 z M 225.16997,304.5 c -0.0162,-1.1 0.35734,-2.9 0.83003,-4 1.09501,-2.54822 1.09501,0.0808 0,3.5 -0.64363,2.00973 -0.8064,2.10779 -0.83003,0.5 z M 468,303.5 c 0,-0.825 0.43588,-1.5 0.96862,-1.5 0.53273,0 0.70959,0.675 0.39301,1.5 -0.31659,0.825 -0.75246,1.5 -0.96862,1.5 C 468.17686,305 468,304.325 468,303.5 Z M 53.564761,300.10478 c -0.304301,-0.49236 0.119142,-1.15324 0.940983,-1.46861 0.907659,-0.3483 1.494256,0.003 1.494256,0.89521 0,1.61739 -1.562623,1.98533 -2.435239,0.5734 z m 348.960919,-5.05512 c -1.90014,-3.67447 -1.90435,-4.1322 -0.0314,-3.41349 0.82184,0.31537 1.25103,0.96695 0.95375,1.44795 -0.29727,0.481 -0.0539,1.78385 0.54093,2.89521 0.59478,1.11137 0.85215,2.02067 0.57192,2.02067 -0.28022,0 -1.19606,-1.32765 -2.03518,-2.95034 z M 80,286 c 0,-0.55 0.9,-1 2,-1 1.1,0 2,0.45 2,1 0,0.55 -0.9,1 -2,1 -1.1,0 -2,-0.45 -2,-1 z m 392,-4.5 c 0,-0.91667 0.5625,-1.47717 1.25,-1.24556 0.6875,0.2316 1.86177,-0.2934 2.60949,-1.16667 0.98269,-1.1477 0.95897,-0.91006 -0.0856,0.85742 C 474.00755,282.93403 472,283.76112 472,281.5 Z m -268.30784,-5.5692 c -0.58855,-2.25061 0.5612,-2.53537 2.21092,-0.54758 0.88077,1.06126 0.81583,1.51067 -0.27902,1.9308 -0.8624,0.33093 -1.62676,-0.21634 -1.9319,-1.38322 z M 386.5,277 c -0.33992,-0.55 -0.14148,-1 0.44098,-1 0.58246,0 1.05902,0.45 1.05902,1 0,0.55 -0.19844,1 -0.44098,1 -0.24254,0 -0.7191,-0.45 -1.05902,-1 z m -9,-8 c -0.33992,-0.55 -0.14148,-1 0.44098,-1 0.58246,0 1.05902,0.45 1.05902,1 0,0.55 -0.19844,1 -0.44098,1 -0.24254,0 -0.7191,-0.45 -1.05902,-1 z m 98.57029,-2.75 c 0.0623,-2.43684 0.16815,-2.52225 0.92971,-0.75 1.17371,2.73138 1.17371,3.5 0,3.5 -0.55,0 -0.96837,-1.2375 -0.92971,-2.75 z M 374.5,265 c 0.33992,-0.55 0.81648,-1 1.05902,-1 0.24254,0 0.44098,0.45 0.44098,1 0,0.55 -0.47656,1 -1.05902,1 -0.58246,0 -0.7809,-0.45 -0.44098,-1 z m -4.74356,-2.31839 -2.74355,-2.24646 2.59961,-0.21515 c 1.84844,-0.15298 2.44707,0.18237 2.0717,1.16057 -0.29035,0.75665 -0.0231,1.88055 0.59394,2.49757 1.89703,1.89703 0.37356,1.17415 -2.5217,-1.19653 z M 97,260.94098 c 0,-0.58246 0.45,-0.7809 1,-0.44098 0.55,0.33992 1,0.81648 1,1.05902 C 99,261.80156 98.55,262 98,262 c -0.55,0 -1,-0.47656 -1,-1.05902 z m 95,-3.56342 c 0,-2.21768 0.23152,-2.43031 1.5,-1.37756 0.825,0.68469 1.5,1.86479 1.5,2.62244 0,0.75766 -0.675,1.37756 -1.5,1.37756 -0.95201,0 -1.5,-0.95805 -1.5,-2.62244 z M 98.252183,255.5 c 0.0111,-2.2 0.215885,-2.98225 0.455078,-1.73834 0.239193,1.24391 0.230112,3.04391 -0.02018,4 C 98.436788,258.71775 98.241084,257.7 98.252183,255.5 Z M 363,257 c 0,-0.55 0.47656,-1 1.05902,-1 0.58246,0 0.7809,0.45 0.44098,1 -0.33992,0.55 -0.81648,1 -1.05902,1 C 363.19844,258 363,257.55 363,257 Z m -7,-4 c 0,-0.55 0.45,-1 1,-1 0.55,0 1,0.45 1,1 0,0.55 -0.45,1 -1,1 -0.55,0 -1,-0.45 -1,-1 z m -8.21066,-4.15135 c -0.8961,-0.56854 -0.62111,-0.82269 0.90164,-0.83334 1.20504,-0.008 2.42275,0.35969 2.70601,0.81802 0.66257,1.07206 -1.92472,1.08304 -3.60765,0.0153 z m -160.12291,-2.27554 c -0.30115,-0.78478 0.2132,-2.02228 1.14301,-2.75 1.47785,-1.15663 1.53627,-1.12509 0.46435,0.25068 -0.93993,1.20638 -0.9516,1.8484 -0.05,2.75 0.80012,0.80012 0.82673,1.17621 0.0832,1.17621 -0.60116,0 -1.33941,-0.6421 -1.64056,-1.42689 z M 476,242.94098 c 0,-0.58246 0.45,-0.7809 1,-0.44098 0.55,0.33992 1,0.81648 1,1.05902 0,0.24254 -0.45,0.44098 -1,0.44098 -0.55,0 -1,-0.47656 -1,-1.05902 z m -145.39699,-1.77431 c -0.28327,-0.45834 0.0277,-0.85474 0.69098,-0.88089 0.6633,-0.0262 2.10601,-0.41041 3.20601,-0.8539 1.77979,-0.71756 1.84889,-0.62057 0.62756,0.88089 -1.46657,1.80294 -3.67986,2.22064 -4.52455,0.8539 z m -146.03872,-2.87354 c -0.54268,-1.4252 -0.42782,-1.54006 0.5598,-0.5598 0.68342,0.67834 0.99067,1.48524 0.68278,1.79313 -0.30789,0.30789 -0.86705,-0.24711 -1.24258,-1.23333 z M 466,238.94098 c 0,-0.58246 0.45,-0.7809 1,-0.44098 0.55,0.33992 1,0.81648 1,1.05902 0,0.24254 -0.45,0.44098 -1,0.44098 -0.55,0 -1,-0.47656 -1,-1.05902 z m 35.27458,-2.59507 c -2.32398,-0.8229 -6.46382,-3.5087 -9.19964,-5.96844 -18.04851,-16.22716 -11.53696,-45.24525 11.66652,-51.99069 14.11181,-4.10241 28.47689,2.35785 35.21171,15.83542 2.48074,4.96441 3.04683,7.33504 3.04683,12.75938 0,3.66418 -0.75415,8.8798 -1.6759,11.59028 -2.2792,6.70223 -11.05001,15.47304 -17.75224,17.75224 -5.98965,2.03689 -15.57875,2.0467 -21.29728,0.0218 z M 510,227 v -7 h -5.41314 -5.41313 l 1.16313,3.19175 C 501.43537,226.20614 507.93128,234 509.34516,234 509.70532,234 510,230.85 510,227 Z m 9.1406,3.34262 C 521.06121,228.15568 524,222.53563 524,221.04966 524,220.45673 521.82437,220 519,220 h -5 v 7.03518 c 0,6.40733 0.15718,6.95107 1.76119,6.09263 0.96865,-0.51841 2.48939,-1.77174 3.37941,-2.78519 z m -22.08002,-4.83057 c -2.22558,-4.76996 -2.93541,-5.48952 -5.42559,-5.5 l -2.86501,-0.012 1.72244,2.75 c 1.65707,2.64563 7.41071,8.16756 8.56816,8.2231 0.30832,0.0148 -0.59168,-2.44268 -2,-5.46105 z m 31.98899,1.8242 c 2.23044,-2.01506 4.49756,-4.49006 5.03807,-5.5 0.85399,-1.59571 0.58189,-1.83625 -2.07721,-1.83625 -2.43986,0 -3.25352,0.55727 -4.01522,2.75 -0.52541,1.5125 -1.61834,3.9875 -2.42874,5.5 -1.94071,3.62208 -1.37254,3.47303 3.4831,-0.91375 z m -35.31273,-19.38877 v -8.05252 l -3.61842,0.30252 L 486.5,200.5 l -0.30908,5.44655 C 485.71598,214.31606 486.41889,216 490.38747,216 h 3.34937 z M 510,208 v -8 h -6 -6 v 8 8 h 6 6 z m 15.79206,-0.25 0.29207,-7.75 H 520.04206 514 v 8.0499 8.04991 l 5.75,-0.29991 5.75,-0.2999 z m 11.57765,6 c 0.78469,-2.92806 0.79852,-10.14803 0.0233,-12.16821 -0.38847,-1.01233 -1.82851,-1.58179 -4,-1.58179 H 530 v 8 8 h 3.38337 c 2.66335,0 3.51169,-0.47882 3.98634,-2.25 z m -41.29564,-21.5 c 0.67605,-2.0625 1.94845,-4.86763 2.82755,-6.23362 l 1.59838,-2.48362 -3.17117,2.24559 c -3.51437,2.4886 -8.32883,7.86351 -8.32883,9.29838 0,0.5078 1.3151,0.92327 2.92245,0.92327 2.49186,0 3.10355,-0.55251 4.15162,-3.75 z M 510,189 c 0,-3.85 -0.34987,-7 -0.77749,-7 -1.86538,0 -5.40467,3.43674 -7.2359,7.02624 C 498.8613,195.15236 499.22757,196 505,196 h 5 z m 14,5.33786 C 524,190.52862 517.47851,182 514.56574,182 514.25458,182 514,185.15 514,189 v 7 h 5 c 3.99456,0 5,-0.33424 5,-1.66214 z m 11,1.00653 c 0,-1.31241 -5.06971,-7.25784 -7.91861,-9.28644 l -2.92319,-2.08149 2.65704,6.01177 C 529.13915,195.24627 529.8188,196 532.23614,196 533.75626,196 535,195.70498 535,195.34439 Z M 92.699509,234.65932 c -0.769133,-2.00433 0.87515,-4.03652 2.699566,-3.33642 2.056937,0.78932 2.068665,3.28363 0.01914,4.07011 -2.111989,0.81045 -2.127799,0.80618 -2.718704,-0.73369 z M 330.54271,231.0691 c -0.31644,-0.512 -0.19299,-1.1672 0.27431,-1.45601 0.46731,-0.28881 0.84965,0.13009 0.84965,0.9309 0,1.68617 -0.31534,1.83349 -1.12396,0.52511 z M 432,231.05902 c 0,-0.51754 0.45,-1.2191 1,-1.55902 0.55,-0.33992 1,0.0835 1,0.94098 0,0.85746 -0.45,1.55902 -1,1.55902 -0.55,0 -1,-0.42344 -1,-0.94098 z m 4,-1.0904 C 436,229.43588 436.675,229 437.5,229 c 0.825,0 1.5,0.17686 1.5,0.39301 0,0.21616 -0.675,0.65203 -1.5,0.96862 -0.825,0.31658 -1.5,0.13972 -1.5,-0.39301 z m -259.92105,-2.55195 c 0.048,-1.16495 0.28494,-1.4019 0.60416,-0.60417 0.28887,0.72187 0.25335,1.58437 -0.0789,1.91667 -0.3323,0.33229 -0.56864,-0.25834 -0.52522,-1.3125 z m -91.568869,-4.43298 c 0.345464,-0.55897 1.047021,-0.75742 1.559017,-0.44098 1.387044,0.85723 1.128411,1.45729 -0.628115,1.45729 -0.857459,0 -1.276365,-0.45734 -0.930902,-1.01631 z M 426,223 c 0,-0.55 0.47656,-1 1.05902,-1 0.58246,0 0.7809,0.45 0.44098,1 -0.33992,0.55 -0.81648,1 -1.05902,1 C 426.19844,224 426,223.55 426,223 Z M 322.07095,212.58549 c -0.74577,-0.8986 -1.05933,-1.93045 -0.69678,-2.29299 0.93392,-0.93393 2.93161,1.29016 2.45178,2.72965 -0.27581,0.82743 -0.81782,0.69257 -1.755,-0.43666 z m 8.66462,-1.18326 c -0.32877,-0.32877 -0.31952,-1.34127 0.0206,-2.25 0.54418,-1.45408 0.40997,-1.48264 -1.11909,-0.23813 -1.50688,1.22646 -1.94874,1.20277 -3.33009,-0.17857 -1.44788,-1.44788 -1.44981,-1.73553 -0.0212,-3.1641 1.66049,-1.66049 4.21674,-2.19343 3.28432,-0.68474 -0.30141,0.48768 0.20842,1.50018 1.13294,2.25 1.42818,1.15831 1.55366,1.15211 0.83448,-0.0412 -0.62896,-1.04361 -0.48557,-1.18304 0.55804,-0.54263 1.02698,0.63021 0.96222,0.20135 -0.24092,-1.59549 -0.91514,-1.36671 -2.46855,-2.35933 -3.5,-2.23647 -1.02001,0.1215 -1.29207,-0.0285 -0.60457,-0.33333 0.6875,-0.30483 1.25,-1.21829 1.25,-2.02992 0,-0.81163 0.45734,-1.19303 1.01631,-0.84757 0.55897,0.34546 0.72967,1.09192 0.37932,1.65879 -0.37029,0.59915 0.28521,0.53712 1.56565,-0.14815 1.83761,-0.98346 2.43237,-0.8757 3.58887,0.65023 1.44542,1.90713 1.89731,1.07698 1.523,-2.79784 -0.19743,-2.04387 2.75401,-3.26145 4.46457,-1.8418 1.53765,1.27613 2.73094,-0.16762 1.90897,-2.30965 -0.36238,-0.94433 0.25365,-1.6725 1.74675,-2.06472 1.26861,-0.33325 2.45749,-0.16458 2.64197,0.37481 0.18448,0.53939 0.79187,0.6986 1.34977,0.3538 0.5579,-0.3448 0.42291,0.4399 -0.29998,1.74377 -0.72288,1.30388 -1.33028,2.67068 -1.34976,3.03735 -0.0195,0.36666 -0.44509,1.04166 -0.94577,1.5 -0.52889,0.48416 -0.60891,0.30957 -0.19098,-0.41667 0.44965,-0.78136 0.11272,-1.25 -0.89869,-1.25 -0.88992,0 -1.39617,0.35899 -1.125,0.79775 0.27117,0.43876 0.0303,1.45126 -0.53532,2.25 -0.83439,1.17834 -0.92049,1.11782 -0.45652,-0.32089 0.47923,-1.48601 0.26063,-1.60659 -1.34997,-0.74462 -1.05699,0.56568 -2.25825,1.5886 -2.66945,2.27314 -0.48933,0.81458 -0.15515,0.76385 0.96719,-0.14682 1.50558,-1.22164 1.63529,-1.18411 1.06292,0.30747 -0.36865,0.96068 -1.27914,1.45823 -2.09533,1.14503 -2.08801,-0.80124 -5.55468,1.32903 -4.90746,3.01563 0.31961,0.83291 -0.063,1.42331 -0.92244,1.42331 -1.32555,0 -1.91092,1.19876 -1.58704,3.25 0.14263,0.90332 -0.33189,0.96636 -1.14601,0.15223 z M 35.726875,204.06357 c -0.350416,-1.33999 -0.08463,-1.75435 0.88631,-1.38176 1.574525,0.6042 1.816807,1.93441 0.500505,2.74793 -0.48747,0.30127 -1.111537,-0.31351 -1.386815,-1.36617 z M 172.01531,203.30902 C 172.02373,202.86406 172.46684,201.825 173,201 c 0.8354,-1.29269 0.97149,-1.26629 0.98469,0.19098 0.008,0.93004 -0.43469,1.9691 -0.98469,2.30902 -0.55,0.33992 -0.99311,0.25398 -0.98469,-0.19098 z m 299.66937,-2.01021 c -0.34134,-0.55229 -0.0287,-1.81363 0.69471,-2.80298 0.77131,-1.05483 1.572,-1.38349 1.93593,-0.79464 0.34134,0.55229 0.0287,1.81363 -0.69471,2.80298 -0.77131,1.05483 -1.572,1.38349 -1.93593,0.79464 z M 34.765371,197.55295 C 34.496956,196.14883 34.717426,195 35.255303,195 c 0.537878,0 0.742604,-0.9 0.454948,-2 -0.339922,-1.29986 -0.03068,-2 0.883369,-2 0.773509,0 1.40638,0.9 1.40638,2 0,1.1 0.481298,2 1.069551,2 2.068764,0 0.485455,4.49215 -1.692852,4.80295 -1.595306,0.22761 -2.244658,-0.33189 -2.611328,-2.25 z m 431.338909,0.51181 c -0.76869,-0.47525 -1.11973,-1.58212 -0.78138,-2.46384 0.70142,-1.82788 1.54435,-1.97042 3.6771,-0.62177 1.33333,0.84313 1.33333,1.11519 0,2.44852 -0.95724,0.95724 -2.00502,1.18777 -2.89572,0.63709 z m -142.36871,-1.66253 c -0.32877,-0.32877 -0.3731,-1.18325 -0.0985,-1.89885 0.2746,-0.71559 0.0186,-1.59815 -0.5689,-1.96125 C 321.76709,191.73802 321.63865,188 322.9121,188 c 0.50166,0 1.22134,1.83032 1.59928,4.06738 0.67551,3.99827 0.4041,5.51476 -0.77581,4.33485 z M 341.2,194.8 c -1.37702,-1.37702 -1.64462,-4.19282 -0.32071,-3.3746 0.75503,0.46663 2.30594,4.5746 1.72709,4.5746 -0.11351,0 -0.74638,-0.54 -1.40638,-1.2 z m 12.32477,0.15992 C 353.85107,194.43196 353.47107,194 352.68034,194 c -1.55617,0 -4.35595,-5.65772 -3.31494,-6.69873 0.34903,-0.34903 0.6346,0.0386 0.6346,0.86146 0,0.90834 0.88391,1.46488 2.25,1.41667 1.73215,-0.0611 2.23006,0.45396 2.16336,2.23801 -0.0727,1.94331 0.29055,2.22274 2.25,1.73095 3.36253,-0.84395 2.87882,0.067 -0.69761,1.31373 -1.79824,0.62688 -2.79258,0.66673 -2.44098,0.0978 z m 105.13445,-0.7023 c -0.28999,-0.46921 -0.15236,-1.4597 0.30584,-2.20108 1.01419,-1.64101 4.37608,-0.58055 3.78523,1.19399 -0.50041,1.50292 -3.35095,2.20464 -4.09107,1.00709 z m -40.87864,-2.41588 c -0.24443,-0.73329 -1.19003,-1.33517 -2.10132,-1.3375 -2.85689,-0.007 -2.32047,-1.98805 0.63003,-2.32638 1.63049,-0.18697 2.63325,-0.81638 2.38976,-1.5 -0.23073,-0.64782 -1.43188,-1.0619 -2.66922,-0.92017 -1.64856,0.18883 -2.09511,-0.14518 -1.67115,-1.25 0.31949,-0.83259 0.0329,-1.51455 -0.64006,-1.523 -0.82672,-0.0104 -0.87357,-0.25159 -0.14568,-0.75 1.82953,-1.25276 2.39171,-4.03428 0.92884,-4.59563 -1.01479,-0.38942 -1.54899,0.89064 -2.05208,4.91724 L 411.76955,188 h -5.88477 c -5.96228,0 -6.94917,-0.77092 -4.97583,-3.88691 0.53532,-0.84531 1.88431,-1.1946 3.45442,-0.89446 1.41686,0.27085 2.33817,0.10746 2.04735,-0.36309 -0.76186,-1.23271 0.99037,-1.05445 2.27641,0.23159 0.78285,0.78285 1.2752,0.78285 1.75902,0 C 410.82023,182.48186 410.42702,182 409.55902,182 408.68926,182 408,181.15262 408,180.08333 c 0,-1.05416 -0.5625,-2.14364 -1.25,-2.42105 -0.6875,-0.27741 0.325,-0.57741 2.25,-0.66667 1.925,-0.0892 4.49163,-0.27304 5.70362,-0.40841 1.21199,-0.13537 2.00474,0.0757 1.76165,0.46899 -0.24308,0.39331 0.67779,0.92917 2.04638,1.19079 1.66549,0.31838 2.48835,0.0255 2.48835,-0.88565 0,-0.74873 0.45,-1.36133 1,-1.36133 0.55,0 1,0.66643 1,1.48095 0,0.81452 1.07349,1.75038 2.38554,2.07968 1.77041,0.44434 2.25279,1.10639 1.87071,2.56748 -0.69356,2.65218 -3.6692,1.96285 -4.08335,-0.94596 -0.646,-4.53719 -2.67344,-1.50087 -2.86876,4.29629 -0.18989,5.63624 -1.58951,9.16546 -2.52356,6.3633 z m 1.46942,-8.50402 c -0.6875,-0.27741 -1.8125,-0.27741 -2.5,0 -0.6875,0.27741 -0.125,0.50439 1.25,0.50439 1.375,0 1.9375,-0.22698 1.25,-0.50439 z m 33.54124,8.56533 C 450.8963,190.84259 451.44743,188 453.54797,188 c 1.84702,0 2.71936,1.69989 1.75586,3.42157 -0.57458,1.02671 -1.29249,1.16428 -2.51259,0.48148 z m -95.44597,-2.66353 c -0.46857,-1.86691 -0.82837,-2.11808 -1.55366,-1.08454 -0.75704,1.07878 -0.86282,1.04811 -0.53441,-0.15498 0.22521,-0.825 0.93447,-1.55625 1.57613,-1.625 0.64167,-0.0687 1.95417,-0.18814 2.91667,-0.26531 1.50145,-0.12039 1.53696,-0.278 0.25,-1.10969 -0.90129,-0.58246 -1.02463,-0.97549 -0.30902,-0.98469 1.54671,-0.0199 2.03109,0.8467 2.45844,4.39825 0.2923,2.42921 -0.0272,2.94198 -1.9219,3.08454 -1.64547,0.1238 -2.44072,-0.49937 -2.88225,-2.25858 z m 12.4737,1.71738 c -0.19124,-0.5737 -1.64593,-1.18151 -3.23265,-1.35068 -2.27398,-0.24244 -2.94378,-0.85929 -3.1627,-2.91266 -0.20694,-1.94094 0.27728,-2.77399 1.89932,-3.2676 1.19738,-0.36439 3.07706,-1.39679 4.17706,-2.29424 1.98324,-1.61804 1.98403,-1.61286 0.095,0.61828 -1.04774,1.2375 -1.39936,2.25 -0.78138,2.25 1.29745,0 0.38238,3.1233 -1.24069,4.23469 -0.64667,0.4428 -0.37768,0.74077 0.67706,0.75 1.13219,0.01 1.77481,-0.77902 1.82029,-2.23469 0.0675,-2.15966 0.10751,-2.1697 0.99745,-0.25 0.72,1.55311 0.80449,1.30214 0.37811,-1.12321 -0.42095,-2.39449 -0.13486,-3.28215 1.22616,-3.80442 1.09932,-0.42185 2.20799,-0.0894 2.91185,0.8732 1.61466,2.20818 3.32616,1.92636 2.70589,-0.44557 -0.43434,-1.66091 -0.0307,-2 2.38081,-2 2.18695,0 2.94102,0.49375 3.05449,2 0.10273,1.36378 -0.4658,2 -1.7872,2 -1.27118,0 -1.93785,0.68805 -1.93785,2 0,2.07031 -2.41251,2.7596 -3.5,1 -0.33992,-0.55 -1.37898,-0.96837 -2.30902,-0.92971 -1.38976,0.0578 -1.34306,0.20639 0.26221,0.83436 1.67234,0.65421 1.49552,0.85561 -1.22976,1.40066 -2.31575,0.46315 -3.02309,1.05319 -2.5962,2.16564 0.32271,0.84098 0.3511,1.52905 0.0631,1.52905 -0.28801,0 -0.68012,-0.46939 -0.87135,-1.0431 z m 75.86853,-1.60273 c -1.47104,-1.47104 -0.69742,-4.50273 1.0625,-4.1638 0.9625,0.18536 1.75,1.19336 1.75,2.23999 0,1.98954 -1.63108,3.10523 -2.8125,1.92381 z m -7.91736,-2.91737 C 436.6027,185.26936 438.19417,183 440.18031,183 c 1.32948,0 1.8579,0.56307 1.63153,1.73852 -0.34109,1.77113 -2.89551,2.84448 -4.0417,1.69828 z m -7.4109,-2.93059 C 430.71166,182.58783 431,181.64823 431,181.41821 431,181.1882 431.933,181 433.07332,181 c 2.94533,0 2.08116,3.40417 -0.97429,3.838 -1.87705,0.26651 -2.24502,-0.0152 -1.73979,-1.33179 z m -44.58562,-1.35867 c 0.31249,-0.81433 0.13158,-1.20699 -0.40368,-0.87617 -0.53347,0.3297 -0.96994,-0.48288 -0.96994,-1.80572 0,-1.32284 0.6351,-2.64888 1.41134,-2.94675 0.9344,-0.35856 1.22196,-0.0481 0.85093,0.91883 -0.38815,1.01149 -0.0839,1.27758 0.98958,0.86563 1.5431,-0.59215 3.30367,1.1686 3.33284,3.33314 0.008,0.62508 -1.28803,1.32779 -2.88101,1.56159 -2.2433,0.32925 -2.76864,0.0924 -2.33006,-1.05055 z M 393,181 c 0,-2.18464 0.47563,-3.00416 1.75,-3.01531 1.51273,-0.0132 1.54662,-0.16161 0.25,-1.09434 -1.24751,-0.89739 -1.19167,-0.97897 0.33179,-0.48468 1.00748,0.32688 2.01998,0.59433 2.25,0.59433 0.23001,0 0.41821,1.125 0.41821,2.5 0,1.375 -0.47656,2.5 -1.05902,2.5 -0.58246,0 -0.7809,0.45 -0.44098,1 0.33992,0.55 -0.30852,1 -1.44098,1 C 393.43789,184 393,183.362 393,181 Z m 6.27554,1.00778 c -0.0815,-1.08262 0.32113,-2.25851 0.89485,-2.61309 0.67715,-0.4185 0.56711,-0.94631 -0.31363,-1.50438 -0.94394,-0.59811 -0.49829,-0.86434 1.46467,-0.875 3.59485,-0.0195 6.69882,2.72568 4.59075,4.06013 -0.7767,0.49166 -2.10968,0.90083 -2.96218,0.90925 -0.8525,0.008 -1.99464,0.45995 -2.53809,1.0034 -0.65079,0.65079 -1.03871,0.31615 -1.13637,-0.98031 z M 314.63837,178.5 c 0.31659,-0.825 0.75246,-1.5 0.96862,-1.5 0.21615,0 0.39301,0.675 0.39301,1.5 0,0.825 -0.43588,1.5 -0.96862,1.5 -0.53273,0 -0.70959,-0.675 -0.39301,-1.5 z M 391,178.5 c 0,-0.825 0.43588,-1.5 0.96862,-1.5 0.53273,0 0.70959,0.675 0.39301,1.5 -0.31659,0.825 -0.75246,1.5 -0.96862,1.5 C 391.17686,180 391,179.325 391,178.5 Z M 316,171 c 0,-0.55 0.9,-1 2,-1 1.1,0 2,0.45 2,1 0,0.55 -0.9,1 -2,1 -1.1,0 -2,-0.45 -2,-1 z m 110,-1.55902 c 0,-0.85746 0.45734,-1.27636 1.01631,-0.9309 0.55897,0.34546 0.75742,1.04702 0.44098,1.55902 C 426.60006,171.45614 426,171.19751 426,169.44098 Z m 14.40787,-4.66598 c 0.14182,-0.70125 1.06137,-1.43076 2.04343,-1.62113 1.1114,-0.21545 1.52598,0.0739 1.09803,0.76631 -0.37814,0.61184 -1.068,0.8773 -1.53302,0.5899 -0.46502,-0.2874 -1.07517,-0.0585 -1.3559,0.50869 -0.28073,0.56718 -0.39437,0.45748 -0.25254,-0.24377 z M 64,158 c 0,-1.30435 -0.666667,-2 -1.916667,-2 -1.054166,0 -2.144907,-0.5625 -2.423869,-1.25 -0.38381,-0.9459 -0.755774,-0.89213 -1.52896,0.22104 -0.561967,0.80907 -1.335351,1.15745 -1.718632,0.77417 -0.38328,-0.38328 -0.07025,-1.46134 0.695627,-2.39569 1.308478,-1.59631 1.236879,-1.59758 -1.186607,-0.0211 -2.711262,1.76365 -3.796941,1.56714 -36.391385,-6.58692 L 14.559015,145.49802 7.1760935,122.73969 C 3.1154868,110.22261 0.03023671,99.363588 0.31998209,98.608523 0.60972748,97.853459 9.7687637,91.046241 20.673396,83.481373 L 40.5,69.727066 l 19,4.237095 c 10.45,2.330402 19.281302,4.529312 19.625116,4.886467 C 79.46893,79.207783 83.022677,89.4 87.022332,101.5 c 3.999655,12.1 7.457467,22.50639 7.684026,23.12531 0.22656,0.61893 -3.200495,3.65661 -7.615676,6.75041 -5.596382,3.92149 -7.853324,6.07925 -7.452154,7.12468 0.369534,0.96299 -0.0207,1.4996 -1.090556,1.4996 -1.035731,0 -1.387062,-0.45134 -0.928673,-1.19303 0.405534,-0.65617 -1.101524,0.12876 -3.349018,1.74429 -2.247493,1.61553 -3.888968,3.2567 -3.647722,3.64704 0.241247,0.39035 0.151079,1.85542 -0.200373,3.25571 C 69.889161,149.57775 69.20039,150 66.269147,150 c -3.202871,0 -3.392507,-0.15496 -2.141592,-1.75 1.23396,-1.57342 1.201517,-1.61621 -0.321517,-0.42406 -1.378909,1.07933 -1.488545,1.77678 -0.589485,3.75 C 64.325889,154.01066 66,154.86717 66,153 c 0,-0.55 0.45,-1 1,-1 0.55,0 1,1.8 1,4 0,3.33333 -0.333333,4 -2,4 -1.333333,0 -2,-0.66667 -2,-2 z M 51,147.8881 c -3.768095,-0.67268 -2.321467,-1.22329 2.378331,-0.90524 1.996721,0.13513 4.983066,-1.24331 9.75,-4.50041 C 66.907749,139.90009 70,137.58356 70,137.33461 c 0,-0.24896 -0.519529,-0.13156 -1.154508,0.26088 -0.699101,0.43207 -0.883698,0.27535 -0.467975,-0.39731 0.377593,-0.61096 1.347122,-0.85734 2.154508,-0.54752 C 71.339411,136.96049 72,136.76462 72,136.2154 c 0,-0.54922 1.0125,-1.27588 2.25,-1.6148 1.2375,-0.33892 4.672329,-2.37924 7.632953,-4.53406 l 5.382953,-3.91785 -3.882953,-0.99218 c -2.135624,-0.54569 -9.12123,-2.18669 -15.523569,-3.64667 l -11.640616,-2.65449 -17.046977,11.8175 c -9.807252,6.79869 -16.542615,12.08824 -15.859384,12.455 1.561147,0.83802 19.506096,4.87642 24.324314,5.47403 2.071043,0.25687 3.962791,0.6643 4.203886,0.90539 0.241094,0.2411 0.938087,0.116 1.548873,-0.27799 C 54.007354,148.83071 52.947338,148.23574 51,147.8881 Z m 10.333333,-6.34411 c 0,-0.80081 0.382341,-1.21971 0.849646,-0.9309 0.467304,0.28881 0.590747,0.94401 0.274316,1.45601 -0.808625,1.30838 -1.123962,1.16106 -1.123962,-0.52511 z M 60,135 c -2.217118,-0.71005 -2.068999,-0.81192 1.309017,-0.90032 2.306315,-0.0604 3.565195,0.29483 3.190983,0.90032 -0.694892,1.12436 -0.989189,1.12436 -4.5,0 z m -24.984607,-6.46966 c 8.516534,-5.89187 16.09927,-11.30224 16.850524,-12.02304 1.14913,-1.10256 0.306897,-4.48782 -5.306669,-21.329545 L 39.886662,75.158774 22.193331,87.498202 C 12.461999,94.284888 4.5682899,100.21166 4.6517553,100.66882 c 0.083465,0.45715 2.9332657,9.52751 6.3328897,20.15636 4.027901,12.59315 6.593066,19.16711 7.363638,18.87141 0.650377,-0.24957 8.150576,-5.27438 16.66711,-11.16625 z M 89,121.39649 C 89,120.08246 76.732868,83.448757 76.04313,82.702999 75.406317,82.014465 47.080725,75 44.937121,75 c -0.557003,0 11.424001,38.1522 12.458804,39.6737 0.17524,0.25766 28.895933,7.08383 30.354075,7.21438 0.6875,0.0616 1.25,-0.15966 1.25,-0.49159 z M 317,155 c 0,-0.55 0.675,-1 1.5,-1 0.825,0 1.5,0.45 1.5,1 0,0.55 -0.675,1 -1.5,1 -0.825,0 -1.5,-0.45 -1.5,-1 z m 138.19167,-0.075 c 0.19708,-0.59125 0.78583,-1.075 1.30833,-1.075 0.5225,0 1.11125,0.48375 1.30833,1.075 0.19709,0.59125 -0.39166,1.075 -1.30833,1.075 -0.91667,0 -1.50542,-0.48375 -1.30833,-1.075 z M 460,152.77366 c 0,-0.85783 0.73865,-1.84313 1.64144,-2.18956 1.42904,-0.54838 1.46566,-0.40047 0.28297,1.14301 -0.74716,0.97509 -1.48581,1.96039 -1.64144,2.18956 C 460.12734,154.14583 460,153.63148 460,152.77366 Z m -65.65623,-10.0295 c 0.30986,-2.61571 1.04046,-5.54071 1.62354,-6.5 0.83762,-1.37804 0.9228,-1.11442 0.40575,1.25584 -1.29077,5.91724 0.443,1.84226 2.55281,-6 3.50884,-13.04254 3.33209,-12.18132 2.15495,-10.5 -0.86751,1.23907 -1.05286,1.10861 -1.06551,-0.75 -0.008,-1.2375 0.59575,-2.25 1.34261,-2.25 0.78388,0 1.75409,-1.79663 2.29509,-4.25 0.75598,-3.42836 0.56435,-5.1683 -0.99125,-9 -1.06063,-2.6125 -2.34497,-4.75 -2.8541,-4.75 -0.50913,0 -0.69583,-0.371925 -0.41489,-0.826499 0.28094,-0.454574 -0.12424,-3.548708 -0.90041,-6.875853 -2.34818,-10.065724 -2.82607,-18.588949 -1.53669,-27.407038 3.77814,-25.838871 19.12018,-46.342264 42.66463,-57.0178267 9.19516,-4.169285 17.46306,-5.8411459 28.96974,-5.8580022 40.85542,-0.05985 72.45503,31.5397619 72.39518,72.3951819 -0.0169,11.506679 -1.68872,19.774578 -5.858,28.969737 -10.62688,23.43707 -31.6256,39.17723 -56.72237,42.51778 -9.63953,1.28309 -22.70249,1.90451 -21.25713,1.01122 0.57967,-0.35825 -1.01238,-0.96124 -3.5379,-1.33996 -2.52552,-0.37873 -4.75173,-0.54912 -4.94714,-0.37867 -0.19541,0.17046 -1.04242,-0.26033 -1.88224,-0.95732 -0.84033,-0.69742 -2.3322,-0.95825 -3.31774,-0.58006 -1.11683,0.42856 -1.5514,0.29984 -1.15469,-0.34204 0.35422,-0.57314 -1.16068,-1.73502 -3.41857,-2.62194 -3.75202,-1.47384 -3.9552,-1.47037 -2.72205,0.0465 1.15904,1.42574 1.09403,1.54973 -0.49918,0.95201 -1.00748,-0.37798 -3.25748,-0.71886 -5,-0.75752 -2.67679,-0.0594 -2.85799,-0.20359 -1.16821,-0.92971 2.94744,-1.26656 0.81116,-1.17351 -3.63398,0.15829 -2.20034,0.65923 -3.86602,1.78912 -3.86602,2.62244 0,1.05601 -0.34845,1.17598 -1.25,0.43037 -0.6875,-0.56858 -2.52888,-0.78831 -4.09195,-0.48829 -1.92144,0.36881 -2.42812,0.80126 -1.5643,1.33513 1.03051,0.63689 1.01875,1.10159 -0.0608,2.40241 -1.33106,1.60383 -8.14808,1.75781 -9.68708,0.21881 -0.92703,-0.92703 -3.57816,-0.86445 -3.00123,0.0708 0.25445,0.4125 -1.56841,0.75 -4.05079,0.75 h -4.51342 z m 17.58956,1.86081 c -0.23833,-0.2356 -1.78333,-0.16009 -3.43333,0.16779 -2.98915,0.594 -2.99096,0.59855 -0.5,1.2603 2.26844,0.60264 4.98856,-0.38497 3.93333,-1.42809 z M 485.5,140.41686 C 507.27506,135.23774 526.63905,117.1049 534.0005,95 537.10422,85.68016 537.80404,69.711607 535.5523,59.590494 529.83694,33.901026 509.09897,13.163061 483.40951,7.4476964 473.28839,5.1959626 457.31984,5.895777 448,8.9995015 427.6291,15.783488 410.96308,32.261444 403.99843,52.504561 c -4.21053,12.238107 -4.62131,31.64473 -0.84526,39.93226 1.15783,2.541167 1.3397,2.60963 2.54685,0.95875 C 406.92665,91.718049 407,91.730083 407,93.60887 c 0,1.095122 -0.46672,2.457852 -1.03716,3.028291 -1.03391,1.033904 0.28218,6.362839 1.57143,6.362839 0.32107,0 0.30565,-0.45 -0.0343,-1 -0.33992,-0.55 -0.25398,-0.99715 0.19098,-0.99368 1.17888,0.009 4.30902,5.83872 4.30902,8.02503 0,1.0281 -0.61605,2.22913 -1.36901,2.66896 -0.75295,0.43983 -1.68243,1.92469 -2.0655,3.29969 -0.56048,2.01176 -0.47147,2.20706 0.45575,1 0.93611,-1.21862 1.04475,-1.03104 0.57916,1 -0.3152,1.375 -0.62409,3.4 -0.68643,4.5 -0.0927,1.63643 -0.2448,1.54554 -0.83655,-0.5 -0.70024,-2.42059 -0.73922,-2.39677 -1.22712,0.75 -0.27715,1.7875 -0.13185,3.25 0.32289,3.25 0.45475,0 0.82681,0.43588 0.82681,0.96862 0,0.53273 -0.61986,0.73075 -1.37746,0.44003 -0.94394,-0.36223 -1.57972,0.54957 -2.02013,2.89714 -0.71662,3.81993 -0.0518,6.24487 2.37858,8.6752 1.5117,1.5117 2.52613,1.39232 13.57639,-1.5977 6.56844,-1.77731 11.30512,-3.26563 10.52595,-3.30738 -0.77916,-0.0417 -1.1653,-0.32727 -0.85808,-0.63449 0.30722,-0.30722 2.19889,0.12678 4.20371,0.96445 2.00483,0.83767 3.40605,1.13619 3.11383,0.66337 -0.6136,-0.99282 1.74759,-2.06924 4.539,-2.06924 2.50164,0 2.66571,3.96998 0.16821,4.07029 -1.49644,0.0601 -1.46022,0.19481 0.25,0.92971 2.56997,1.10436 3.73969,1.19704 3.15498,0.25 -0.25469,-0.4125 0.72479,-0.8215 2.17661,-0.90888 2.3922,-0.14399 2.47397,-0.0377 0.87213,1.13358 -1.62932,1.19139 -1.56032,1.34448 0.88236,1.95755 1.45746,0.3658 2.89682,0.41819 3.19859,0.11642 C 453.0864,139.2469 452.4933,139 451.46664,139 c -1.34996,0 -1.56422,-0.30245 -0.77403,-1.09264 0.79019,-0.79019 1.71337,-0.76043 3.3351,0.10749 1.67433,0.89607 1.91429,1.40294 0.94716,2.00066 -0.78751,0.48671 1.02167,1.05674 4.6149,1.45406 3.25061,0.35943 6.5852,0.80746 7.4102,0.99563 2.42726,0.5536 12.03117,-0.50975 18.5,-2.04834 z m -22.23097,-0.10985 c 0.97297,-0.25354 2.32297,-0.23687 3,0.0371 0.67703,0.27393 -0.11903,0.48137 -1.76903,0.46099 -1.65,-0.0204 -2.20394,-0.2445 -1.23097,-0.49804 z m -52.21836,-3.27569 c -0.65109,-0.4024 0.18748,-0.76216 1.88931,-0.81055 1.68301,-0.0478 3.06002,0.0554 3.06002,0.22948 0,0.77572 -3.89456,1.23295 -4.94933,0.58107 z M 461,135 c 0,-0.55 1.15156,-1 2.55902,-1 1.45136,0 2.2915,0.43284 1.94098,1 -0.33992,0.55 -1.49148,1 -2.55902,1 C 461.87344,136 461,135.55 461,135 Z m -38,-2.90638 c 0,-0.49851 0.9,-0.67103 2,-0.38337 1.1,0.28766 2,0.69553 2,0.90638 0,0.21085 -0.9,0.38337 -2,0.38337 -1.1,0 -2,-0.40787 -2,-0.90638 z m 18.75,-31.78295 C 439.67065,99.767283 439.39761,98 441.39301,98 c 0.76616,0 1.65203,0.675 1.96862,1.5 0.31658,0.825 0.47722,1.4478 0.35699,1.384 -0.12024,-0.0638 -1.00612,-0.3218 -1.96862,-0.57333 z M 406,97.940983 c 0,-0.582459 0.45,-0.780902 1,-0.440983 0.55,0.339919 1,0.816476 1,1.059017 C 408,98.801558 407.55,99 407,99 c -0.55,0 -1,-0.476558 -1,-1.059017 z m 48.66667,-8.60765 C 454.3,88.966667 454,86.741323 454,84.388125 v -4.278543 l -4.75,-0.304791 C 445.82991,79.585336 444.5,79.080029 444.5,78 c 0,-1.080029 1.32991,-1.585336 4.75,-1.804791 L 454,75.890418 V 67 58.109582 l -4.75,-0.304791 C 445.82991,57.585336 444.5,57.080029 444.5,56 c 0,-1.080029 1.32991,-1.585336 4.75,-1.804791 L 454,53.890418 v -4.322764 c 0,-2.60723 0.59059,-4.812915 1.48817,-5.557833 1.79736,-1.491682 2.30175,-0.476156 2.72684,5.490179 l 0.28499,4 h 9 9 l 0.28499,-4 c 0.42509,-5.966335 0.92948,-6.981861 2.72684,-5.490179 C 480.41466,44.759102 481,46.966706 481,49.622445 V 54 h 5.07332 c 4.29167,0 5.02213,0.269626 4.74101,1.75 -0.2504,1.31861 -1.50102,1.825134 -5.07332,2.054791 L 481,58.109582 V 67 75.890418 l 4.75,0.304791 c 3.42009,0.219455 4.75,0.724762 4.75,1.804791 0,1.077496 -1.3231,1.585245 -4.69736,1.802641 l -4.69736,0.302642 -0.30264,4.688364 c -0.22742,3.523112 -0.73759,4.770959 -2.05264,5.020683 -1.48174,0.281377 -1.75,-0.451125 -1.75,-4.778532 v -5.11085 l -9.25,0.287526 -9.25,0.287526 -0.30479,4.75 c -0.28456,4.434697 -1.62546,5.986421 -3.52854,4.083333 z M 477,67 v -9 h -9.5 -9.5 v 9 9 h 9.5 9.5 z m -42.45729,21.069098 c -0.31644,-0.511996 -0.11799,-1.213553 0.44098,-1.559017 0.55897,-0.345463 1.01631,0.07344 1.01631,0.930902 0,1.756526 -0.60006,2.015159 -1.45729,0.628115 z M 434,139 c 0,-0.55 -0.45,-1 -1,-1 -0.55,0 -1,0.45 -1,1 0,0.55 0.45,1 1,1 0.55,0 1,-0.45 1,-1 z m -24.5533,-33.23139 c -1.45091,-1.94445 -1.58755,-1.98283 -0.95629,-0.26861 0.40507,1.1 1.00475,2.9 1.3326,4 0.51704,1.73472 0.64388,1.77035 0.95629,0.26861 0.1981,-0.95226 -0.40157,-2.75226 -1.3326,-4 z M 450.5,147 c -0.33992,-0.55 -0.14148,-1 0.44098,-1 0.58246,0 1.05902,0.45 1.05902,1 0,0.55 -0.19844,1 -0.44098,1 -0.24254,0 -0.7191,-0.45 -1.05902,-1 z M 72.603006,142.83333 C 72.886271,142.375 73.541476,142 74.059017,142 74.576558,142 75,142.375 75,142.83333 c 0,0.45834 -0.655205,0.83334 -1.456011,0.83334 -0.800807,0 -1.224249,-0.375 -0.940983,-0.83334 z M 91.244995,142.75 C 91.878353,140.82682 96,140.54983 96,142.43045 96,143.45147 95.097174,144 93.416667,144 c -1.619553,0 -2.429753,-0.46635 -2.171672,-1.25 z M 108,141.61663 c 0,-0.21085 0.9,-0.61872 2,-0.90638 1.1,-0.28766 2,-0.11514 2,0.38337 0,0.49851 -0.9,0.90638 -2,0.90638 -1.1,0 -2,-0.17252 -2,-0.38337 z m 8.3001,-1.05883 c -0.96862,-1.1028 -0.70492,-1.49036 1.368,-2.01063 3.04276,-0.76369 3.59613,-0.39933 2.74845,1.8097 -0.75932,1.97877 -2.48112,2.06281 -4.11645,0.20093 z m -35.4876,-3.24091 c 0.721875,-0.28887 1.584375,-0.25335 1.916667,0.0789 0.332291,0.33229 -0.258334,0.56864 -1.3125,0.52522 -1.164943,-0.048 -1.4019,-0.28494 -0.604167,-0.60416 z M 397,128.44098 c 0,-0.85746 0.45734,-1.27636 1.01631,-0.9309 0.55897,0.34546 0.75742,1.04702 0.44098,1.55902 C 397.60006,130.45614 397,130.19751 397,128.44098 Z M 160.60699,115.41821 C 159.77245,113.24345 159.8288,113 161.16667,113 c 0.64166,0 0.87057,0.2961 0.50867,0.65799 -0.36189,0.3619 -0.15679,1.2619 0.45578,2 0.70025,0.84375 0.73675,1.34201 0.0983,1.34201 -0.5585,0 -1.2886,-0.7118 -1.62244,-1.58179 z m 3.49031,-0.35808 c -0.91916,-0.56807 -1.11507,-1.48414 -0.57938,-2.70921 0.44514,-1.018 0.84821,-2.15092 0.89571,-2.51759 0.0475,-0.36666 0.42387,-0.92916 0.83637,-1.25 0.4125,-0.32083 0.5289,-0.28723 0.25868,0.0747 -0.27023,0.3619 -0.0383,1.20389 0.51546,1.87109 1.47087,1.7723 -0.16527,5.61976 -1.92684,4.53105 z M 401,112.44098 c 0,-0.85746 0.45,-1.2809 1,-0.94098 0.55,0.33992 1,1.04148 1,1.55902 0,0.51754 -0.45,0.94098 -1,0.94098 -0.55,0 -1,-0.70156 -1,-1.55902 z m -241.75,-1.66147 c -1.2375,-0.59683 -2.25,-1.61637 -2.25,-2.26566 0,-1.20599 -1.08631,-1.4748 -6.67757,-1.6524 -2.52723,-0.0803 -2.93656,-0.36326 -2,-1.38267 0.64766,-0.70496 1.32757,-0.87607 1.5109,-0.38026 0.77475,2.09527 1.7327,0.65554 1.56263,-2.34852 -0.25736,-4.545842 -0.2987,-4.576937 -1.97534,-1.48587 -1.25939,2.32183 -1.81303,2.59622 -3.45996,1.71482 -2.16358,-1.15792 -2.34807,-1.8192 -1.07019,-3.835962 0.53837,-0.849672 1.65189,-1.105624 2.97839,-0.68461 1.65562,0.525474 1.9873,0.330344 1.51786,-0.892987 C 149.03538,96.649817 149.31474,96 150.05968,96 c 0.70051,0 0.97267,0.300982 0.6048,0.668848 -0.9763,0.976303 2.41805,4.398182 3.62368,3.653062 0.58479,-0.361426 0.71607,-0.13778 0.30733,0.52358 -0.39244,0.63498 -0.18451,1.15451 0.46207,1.15451 0.7039,0 0.99025,0.96957 0.71366,2.41645 -0.41445,2.16806 -0.22448,2.32618 1.84802,1.53821 1.36469,-0.51885 2.54216,-0.50253 2.87738,0.0399 0.31209,0.50496 1.28037,0.64453 2.15174,0.31016 1.39025,-0.53349 1.42155,-0.31379 0.25552,1.79367 -0.73083,1.3209 -1.23318,2.73913 -1.11633,3.15163 0.25259,0.89171 0.30841,0.90206 -2.53755,-0.47049 z M 401,107.44098 c 0,-0.85746 0.45734,-1.27636 1.01631,-0.9309 0.55897,0.34546 0.75742,1.04702 0.44098,1.55902 C 401.60006,109.45614 401,109.19751 401,107.44098 Z M 95.345077,104.45687 c -0.809814,-2.11034 0.541849,-3.2497 1.693983,-1.42791 1.224208,1.93575 1.19966,2.97104 -0.07045,2.97104 -0.567261,0 -1.297854,-0.69441 -1.623538,-1.54313 z m 304.733873,-1.0402 c 0.048,-1.16495 0.28494,-1.4019 0.60416,-0.60417 0.28887,0.72187 0.25335,1.58437 -0.0789,1.91667 -0.33229,0.33229 -0.56864,-0.25834 -0.52522,-1.3125 z M 100.59672,102.39144 C 99.859125,100.46931 100.66292,99 102.45203,99 c 2.1995,0 2.64275,2.87891 0.61069,3.96643 -1.41376,0.75663 -2.0082,0.61802 -2.466,-0.57499 z M 139.25,100.64009 C 136.11305,99.086467 136.27934,96 139.5,96 c 1.85722,0 2.5,0.529399 2.5,2.059017 0,1.132459 0.44485,1.784087 0.98855,1.448062 0.56686,-0.350339 0.7345,0.05106 0.39301,0.940981 -0.66975,1.74533 -0.96733,1.75916 -4.13156,0.19203 z m 248.5625,0.6768 c 0.72187,-0.28887 1.58438,-0.25335 1.91667,0.0789 0.33229,0.3323 -0.25834,0.56864 -1.3125,0.52522 -1.16495,-0.048 -1.4019,-0.28494 -0.60417,-0.60416 z m -280.14583,-0.98356 c -1.28707,-1.28706 -0.64743,-3.105097 1.26875,-3.60619 1.97515,-0.516515 3.57833,1.632576 2.50881,3.3631 -0.65726,1.06346 -2.81814,1.20252 -3.77756,0.24309 z m 287.9281,-1.179987 c -0.32081,-0.519075 0.15354,-1.226519 1.0541,-1.572097 2.21014,-0.84811 2.72698,-0.138063 0.96432,1.324812 -0.85565,0.710133 -1.67065,0.809982 -2.01842,0.247285 z M 115,97 c 0,-1.333333 0.66667,-2 2,-2 1.33333,0 2,0.666667 2,2 0,1.333333 -0.66667,2 -2,2 -1.33333,0 -2,-0.666667 -2,-2 z m 7.36419,0.506689 C 122.01783,96.604071 122.21394,95.386061 122.8,94.8 c 1.52361,-1.523609 4.41041,-0.131088 4.01242,1.935492 -0.4433,2.301882 -3.64766,2.857428 -4.44823,0.771197 z M 130,97 c 0,-1.428571 0.66667,-2 2.33333,-2 3.09955,0 3.87835,0.931175 2.19048,2.619048 C 132.4841,99.65876 130,99.318831 130,97 Z m 158.5,-3.666336 c -1.75761,-1.408485 -1.778,-1.525827 -0.16821,-0.968197 C 289.33927,92.71446 291.05333,93 292.1408,93 c 1.08748,0 1.69912,0.45 1.3592,1 -0.88174,1.426686 -2.68867,1.185881 -5,-0.666336 z M 134,89 c 0,-0.55 0.45,-1 1,-1 0.55,0 1,0.45 1,1 0,0.55 -0.45,1 -1,1 -0.55,0 -1,-0.45 -1,-1 z m 68,0.165969 c 0,-1.075721 10.19413,-1.285321 13.5,-0.277571 2.37362,0.723565 1.27744,0.918747 -5.25,0.934801 -4.5375,0.01116 -8.25,-0.284593 -8.25,-0.65723 z M 268,89 c -1.2819,-0.828426 -1.24555,-0.971601 0.25,-0.984687 C 269.2125,88.006891 270,88.45 270,89 c 0,1.21961 -0.11279,1.21961 -2,0 z m -29.1875,-3.683114 c 0.72187,-0.288871 1.58437,-0.253344 1.91667,0.07895 0.33229,0.332292 -0.25834,0.568641 -1.3125,0.52522 -1.16495,-0.04798 -1.4019,-0.284941 -0.60417,-0.604167 z M 250.5,85 c -0.33992,-0.55 0.30852,-1 1.44098,-1 1.13246,0 2.05902,0.45 2.05902,1 0,0.55 -0.64844,1 -1.44098,1 -0.79254,0 -1.7191,-0.45 -2.05902,-1 z M 126.21057,79.461963 c -0.70918,-0.80408 -0.93418,-1.468854 -0.5,-1.477276 C 126.14476,77.976265 125.825,77.533156 125,77 c -1.21296,-0.783874 -1.06944,-0.972305 0.75,-0.984687 1.73742,-0.01183 2.25,0.554224 2.25,2.484687 0,2.884892 -0.0634,2.918966 -1.78943,0.961963 z M 339.29966,73 c 0,-3.025 0.18747,-4.2625 0.41659,-2.75 0.22913,1.5125 0.22913,3.9875 0,5.5 -0.22912,1.5125 -0.41659,0.275 -0.41659,-2.75 z m -216.67612,0.461341 c -0.96498,-2.514694 -0.68031,-3.163555 0.49853,-1.136338 0.58369,1.003751 0.8506,2.035659 0.59313,2.293128 -0.25747,0.257469 -0.74872,-0.263087 -1.09166,-1.15679 z M 241.75,62.337719 c 0.6875,-0.277412 1.8125,-0.277412 2.5,0 0.6875,0.277413 0.125,0.504386 -1.25,0.504386 -1.375,0 -1.9375,-0.226973 -1.25,-0.504386 z M 253,58.606989 c 0,-0.216156 0.69837,-0.661002 1.55194,-0.988546 0.88992,-0.341496 1.29132,-0.173849 0.94098,0.393011 C 254.90566,58.961658 253,59.416902 253,58.606989 Z m 5.01531,-2.317562 c 0.029,-1.497528 1.73599,-3.500818 2.25473,-2.64619 0.28602,0.47122 -0.10773,1.437005 -0.875,2.14619 -0.76727,0.709184 -1.38815,0.934184 -1.37973,0.5 z M 118,51.634259 c 0,-1.750458 2.19415,-4.660218 4.27292,-5.666507 2.17881,-1.054718 2.18373,-1.043445 0.22708,0.520129 -1.1,0.879017 -2,2.006342 -2,2.505166 0,0.498824 -0.5625,1.469453 -1.25,2.156953 -0.6875,0.6875 -1.25,0.905416 -1.25,0.484259 z m 144.8245,-2.960082 c -0.37205,-1.824821 -0.23268,-2.482356 0.39346,-1.856219 0.53328,0.533281 0.79255,1.804901 0.57615,2.825822 -0.29142,1.374818 -0.54288,1.123356 -0.96961,-0.969603 z M 133.18045,41.75 C 133.3562,40.5125 133.95,39.5 134.5,39.5 c 0.55,0 1.1438,1.0125 1.31955,2.25 0.21988,1.548168 -0.19173,2.25 -1.31955,2.25 -1.12782,0 -1.53943,-0.701832 -1.31955,-2.25 z M 196,42.5 c 0,-0.825 0.17686,-1.5 0.39301,-1.5 0.21616,0 0.65203,0.675 0.96862,1.5 0.31658,0.825 0.13972,1.5 -0.39301,1.5 C 196.43588,44 196,43.325 196,42.5 Z m -4,-2.926676 C 192,38.645689 192.855,38 194.08333,38 c 2.43705,0 2.09257,2.336773 -0.4162,2.823324 C 192.68037,41.014697 192,40.504563 192,39.573324 Z m 155,-2.632341 c 0,-0.582459 0.45,-0.780902 1,-0.440983 0.55,0.339919 1,0.816476 1,1.059017 C 349,37.801558 348.55,38 348,38 c -0.55,0 -1,-0.476558 -1,-1.059017 z M 266,32.65301 C 266,31.743854 266.50248,31 267.11663,31 c 0.61415,0 0.88888,-0.870938 0.61051,-1.935417 -0.30168,-1.153616 0.0882,-2.163478 0.96516,-2.5 C 271.2206,25.594381 272,25.93261 272,28 c 0,1.1 -0.50972,2 -1.1327,2 -0.62299,0 -1.97299,0.968854 -3,2.15301 -1.53499,1.769853 -1.8673,1.858835 -1.8673,0.5 z M 147,31.616631 c 0,-0.210852 0.90062,-0.618886 2.00138,-0.906741 1.10076,-0.287855 1.7492,-0.115339 1.44098,0.383369 C 149.90411,31.964167 147,32.405705 147,31.616631 Z m 200.3694,-8.096377 c -0.84418,-2.199891 0.0836,-2.884244 1.53666,-1.133448 0.81795,0.985576 0.86038,1.639508 0.13544,2.087548 -0.5806,0.358826 -1.33304,-0.07052 -1.6721,-0.9541 z M 164,22 c 0,-2.041462 1.07116,-2.595509 2.41667,-1.25 0.4125,0.4125 1.2375,0.75 1.83333,0.75 0.59583,0 1.27083,0.5625 1.5,1.25 0.27327,0.81982 -0.64444,1.25 -2.66667,1.25 C 164.66667,24 164,23.567568 164,22 Z m 7.5,0 c -0.34913,-1.1 -1.08101,-2 -1.6264,-2 -0.5454,0 -0.71754,-0.443497 -0.38253,-0.985549 C 170.42744,17.49937 180.85559,18.211283 180.26544,19.75 180.00176,20.4375 179.38417,21 178.89301,21 178.40186,21 178,21.675 178,22.5 c 0,2.405465 -5.71743,1.965663 -6.5,-0.5 z m 100.06429,-6.293128 c 0.37553,-0.986221 0.93469,-1.541221 1.24258,-1.233333 0.30789,0.307887 6.4e-4,1.114794 -0.68278,1.793128 -0.98762,0.980267 -1.10248,0.865403 -0.5598,-0.559795 z m 62.24821,-2.389986 c 0.72187,-0.288871 1.58438,-0.253344 1.91667,0.07895 0.33229,0.332292 -0.25834,0.568641 -1.3125,0.52522 -1.16495,-0.04798 -1.4019,-0.284941 -0.60417,-0.604167 z M 302,8.5288251 c 0,-1.0145501 2.92013,-2.467068 3.39972,-1.6910735 0.31778,0.5141775 -0.31715,1.1688999 -1.41097,1.4549387 C 302.89494,8.578729 302,8.6849897 302,8.5288251 Z m 5,-0.9218363 c 0,-0.2161562 0.69837,-0.6610017 1.55194,-0.9885456 0.88992,-0.3414963 1.29132,-0.1738489 0.94098,0.3930112 C 308.90566,7.9616577 307,8.4169019 307,7.6069888 Z M 287.8125,2.316886 c 0.72187,-0.2888706 1.58438,-0.2533443 1.91667,0.078947 0.33229,0.3322917 -0.25834,0.5686404 -1.3125,0.5252193 -1.16495,-0.047984 -1.4019,-0.2849403 -0.60417,-0.6041663 z"
         id="path3" />
      <path
         style="fill:#090917"
         d="m 215.5,446.28083 c -7.15,-1.90122 -13.1062,-3.56088 -13.23599,-3.68813 -0.22007,-0.21574 1.51281,-9.83484 8.75396,-48.5927 1.59273,-8.525 4.73102,-25.4 6.97397,-37.5 9.95692,-53.71443 13.18213,-70.35121 14.61772,-75.40339 l 1.53539,-5.4034 -4.71914,-12.23129 -4.71914,-12.2313 -8.62068,-0.41216 c -10.80742,-0.51671 -19.52585,-4.28386 -27.61099,-11.93045 -10.42577,-9.86026 -14.343,-21.80133 -12.72311,-38.78444 l 0.97105,-10.18053 -3.36152,-3.36152 c -4.57228,-4.57228 -4.74479,-10.33209 -0.43844,-14.63844 1.60769,-1.6077 3.57001,-2.92308 4.36071,-2.92308 0.98516,0 1.62964,-1.62126 2.04772,-5.15124 0.56259,-4.7502 0.36906,-5.42577 -2.48581,-8.67728 -4.4881,-5.11167 -6.17479,-9.79111 -6.18937,-17.17148 -0.016,-8.08172 3.06045,-14.62036 9.73533,-20.69157 2.53459,-2.30536 4.60834,-4.91078 4.60834,-5.78983 0,-6.04827 10.16514,-16.599255 18.32755,-19.023233 6.31065,-1.874059 10.06105,-1.884663 16.17138,-0.04573 4.61051,1.38756 4.99204,1.347124 8.90893,-0.944179 11.58684,-6.778072 34.90319,-4.72885 51.2658,4.505636 6.32081,3.567244 6.54025,3.596978 6.1392,0.831855 -0.54479,-3.7561 2.02576,-3.220111 2.73692,0.57068 0.57149,3.046331 0.92021,3.405211 2.49161,2.564214 2.38212,-1.274872 4.95861,-1.2505 4.95861,0.0469 0,0.56361 -1.1593,1.46552 -2.57622,2.00423 l -2.57622,0.97947 5.15374,5.74578 c 11.58816,12.91933 16.52941,25.3194 18.2625,45.82967 0.95883,11.34731 0.88556,13.9754 -0.55199,19.80075 -3.17318,12.85865 -10.93297,24.90661 -20.17454,31.32334 -3.00376,2.0856 -5.47846,4.10627 -5.49933,4.49037 -0.0209,0.3841 3.73145,6.48357 8.33849,13.55438 l 8.37643,12.85602 6.59096,1.21443 c 16.48838,3.0381 36.4616,11.48594 52.78811,22.32717 12.10367,8.03715 31.25441,27.12301 39.65593,39.5216 l 6.2151,9.17196 -3.58725,1.1839 c -4.98253,1.64438 -9.21219,5.62586 -16.79373,15.80836 C 381.90888,336.19535 381,338.30671 381,345.86526 c 0,5.43104 0.48333,6.5541 9.11738,21.1849 5.01455,8.49741 9.99899,17.3926 11.07653,19.76708 2.45639,5.41294 1.74874,10.68918 -2.00916,14.98036 -1.47661,1.68616 -13.93475,9.65563 -27.68475,17.70995 l -25,14.6442 -5.7363,-0.3887 c -4.29503,-0.29103 -6.36568,-0.97995 -8.2412,-2.74191 -1.37769,-1.29427 -6.88661,-9.816 -12.24204,-18.93718 -5.35544,-9.12118 -11.0969,-17.83826 -12.75881,-19.37129 -1.66191,-1.53303 -5.34667,-3.46656 -8.18835,-4.29674 -4.63969,-1.35545 -6.32273,-1.34528 -16.5,0.0997 -14.1952,2.01548 -17.14639,2.94235 -21.47798,6.74554 -4.9628,4.35739 -6.49699,8.07679 -11.40461,27.64868 -4.68622,18.68897 -6.53828,22.60927 -11.97064,25.33859 -4.62839,2.32538 -7.17278,2.10268 -22.48007,-1.96762 z m 25.52906,-182.61487 c 7.94141,-11.89995 19.94152,-20.89282 33.97094,-25.45782 2.475,-0.80533 9.31576,-1.74412 15.20169,-2.08619 L 300.90338,235.5 288.20169,215.76896 C 279.56081,202.34605 275.02044,196.15544 274,196.4055 c -0.825,0.20218 -2.2875,0.69179 -3.25,1.08804 -3.0731,1.26514 -1.90251,-1.84891 1.50121,-3.99354 9.36234,-5.89908 10.46188,-17.84021 2.34129,-25.42667 -2.24907,-2.10115 -3.92959,-2.51906 -12.5273,-3.1153 -8.20849,-0.56925 -10.72545,-1.15492 -14.51988,-3.3786 -8.10022,-4.74705 -12.6249,-14.9442 -10.5744,-23.83122 0.5391,-2.33651 0.99119,-4.56837 1.00463,-4.95967 0.0314,-0.91359 -5.64481,-2.41147 -14.31693,-3.77804 -21.8524,-3.44354 -39.39483,10.73707 -41.30999,33.39339 -0.64324,7.60959 -0.75072,7.86617 -3.83482,9.15478 -6.99083,2.92096 -7.99974,8.89403 -2.34157,13.86285 l 3.50558,3.07848 -1.00901,10.89513 c -1.60899,17.37367 0.95319,26.09503 10.69162,36.39299 17.49018,18.49509 46.38272,16.4335 60.6676,-4.32886 2.4352,-3.53944 4.24809,-8.1538 7.61265,-19.37648 0.26251,-0.87561 0.78097,-1.06113 1.35664,-0.48546 1.3311,1.3311 -1.09559,10.79811 -4.44906,17.35667 -3.91879,7.66419 -11.88611,15.10353 -19.92707,18.60655 -3.64165,1.58648 -6.62617,3.34687 -6.63227,3.91198 -0.0113,1.05098 7.3637,20.5213 7.6526,20.20313 0.0877,-0.0966 2.51212,-3.70097 5.38754,-8.00969 z M 187.5,194 c -0.70285,-1.13724 -0.14252,-1.28814 3.80537,-1.02479 2.06319,0.13763 3.69889,-0.76028 6.18284,-3.39404 1.85762,-1.96964 3.6327,-3.58117 3.94464,-3.58117 1.57929,0 0.22329,3.49771 -2.35593,6.07692 -2.26075,2.26076 -3.83347,2.92308 -6.94098,2.92308 -2.20985,0 -4.29602,-0.45 -4.63594,-1 z M 262,183.90113 c 0,-2.97509 2.94051,-8.79892 4.99887,-9.90052 2.86891,-1.5354 3.10735,0.0844 0.47325,3.2149 -1.3957,1.65869 -2.47212,4.2108 -2.47212,5.86122 0,1.9318 -0.50875,2.92327 -1.5,2.92327 -0.85689,0 -1.5,-0.89987 -1.5,-2.09887 z m -71.79422,-9.46955 c -3.16316,-2.21556 -1.72711,-3.75253 1.80131,-1.92791 3.93667,2.03573 7.81904,1.8792 12.49291,-0.50367 4.70253,-2.39748 4.5,-2.37728 4.5,-0.44897 0,3.82149 -14.31781,6.01595 -18.79422,2.88055 z m 9.29383,-13.81749 c -1.65021,-0.7192 -3.61339,-2.04626 -4.36262,-2.94903 -3.0709,-3.7002 4.71544,-3.33046 10.06377,0.4779 4.85381,3.45621 0.69514,5.25876 -5.70115,2.47113 z m 301.92471,75.32895 C 494.69457,233.35391 489.09979,228.4155 485.46815,221.8588 482.83038,217.09648 482.5,215.55388 482.5,208 c 0,-6.82794 0.44847,-9.41024 2.2798,-13.12728 9.60085,-19.48674 34.5596,-23.22337 49.07024,-7.34643 8.70146,9.52079 10.44779,22.21291 4.67871,34.00446 -6.5607,13.40959 -23.05642,19.81694 -37.10443,14.41229 z M 510,227 v -7 h -5.5 c -3.025,0 -5.5,0.23996 -5.5,0.53324 0,0.29329 1.11671,2.73696 2.48157,5.43039 2.24751,4.43526 5.71624,8.03637 7.74094,8.03637 0.42762,0 0.77749,-3.15 0.77749,-7 z m 8.401,4.50417 c 2.58308,-2.39392 6.82515,-10.32877 6.12662,-11.45991 -0.18486,-0.29934 -2.6292,-0.38833 -5.43186,-0.19775 L 514,220.19303 v 6.90348 c 0,3.79692 0.38429,6.90349 0.85398,6.90349 0.46968,0 2.06585,-1.12313 3.54702,-2.49583 z M 497.47693,225.75 c -1.96242,-4.23794 -3.0138,-5.37023 -5.454,-5.8737 C 489.72161,219.40148 489,219.61193 489,220.75788 489,222.47533 497.17535,231 498.82242,231 c 0.60991,0 0.0204,-2.30038 -1.34549,-5.25 z m 33.04939,0.77632 c 5.31073,-5.31074 5.66042,-7.06142 1.38523,-6.93496 -2.7899,0.0825 -3.31102,0.63861 -5.38844,5.75 -1.26491,3.11225 -1.88824,5.65864 -1.38516,5.65864 0.50307,0 2.92784,-2.01316 5.38837,-4.47368 z M 494,207.5 V 199 h -3.53138 c -4.14241,0 -4.85032,1.22249 -4.92041,8.49706 -0.0687,7.13254 0.72428,8.50294 4.92041,8.50294 H 494 Z m 16,0 V 199 h -5.875 c -5.78,0 -5.88511,0.0505 -6.5,3.125 -0.78258,3.91289 -0.7804,8.6932 0.005,11.625 0.53867,2.01005 1.2304,2.25 6.48634,2.25 H 510 Z m 16.39905,3.75 c 0.3227,-2.6125 0.23579,-6.325 -0.19313,-8.25 -0.76903,-3.45136 -0.85926,-3.50417 -6.4929,-3.7999 L 514,198.90019 V 207.4501 216 h 5.90616 5.90616 z m 11.40707,-1.70833 c 0.4735,-9.21628 -0.17039,-10.71928 -4.43403,-10.35003 l -3.56051,0.30836 -0.15579,8.29567 -0.15579,8.29568 4,-0.29568 4,-0.29567 z M 495.67902,194.25 c 0.55981,-1.5897 3.08595,-7.45899 4.14548,-9.63169 0.96341,-1.97561 -6.12459,3.10021 -8.21335,5.88169 -4.01851,5.35121 -4.02226,5.5 -0.13878,5.5 2.518,0 3.77447,-0.5227 4.20665,-1.75 z M 510,188.46482 c 0,-6.86908 -0.1547,-7.45179 -1.75,-6.59183 -2.87198,1.54818 -6.05467,5.41526 -7.70227,9.35854 C 499.69648,193.26886 499,195.17522 499,195.46788 499,195.76055 501.475,196 504.5,196 h 5.5 z m 14.48873,5.28518 c -0.93306,-3.24963 -5.61636,-9.79676 -8.23873,-11.51752 L 514,180.75606 V 188.37803 196 h 5.56739 c 5.29834,0 5.53617,-0.10873 4.92134,-2.25 z M 535,194.85714 c 0,-1.40611 -9.82781,-11.36266 -10.5263,-10.66418 -0.27636,0.27637 0.66198,3.04601 2.08522,6.15476 2.28574,4.99274 2.9292,5.65228 5.51439,5.65228 1.60968,0 2.92669,-0.51429 2.92669,-1.14286 z m -213.54112,17.07633 c -0.36253,-0.58659 -0.41903,-1.30665 -0.12555,-1.60014 0.71632,-0.71631 2.66667,0.54583 2.66667,1.72569 0,1.27797 -1.72641,1.19267 -2.54112,-0.12555 z m 4.66147,-3.28846 c -0.87143,-1.05001 -0.81537,-1.65323 0.23464,-2.52466 1.05001,-0.87143 1.65323,-0.81537 2.52466,0.23464 0.87143,1.05001 0.81537,1.65323 -0.23464,2.52466 -1.05001,0.87143 -1.65323,0.81537 -2.52466,-0.23464 z M 331.5,204 c -0.81604,-1.32037 0.27686,-3 1.95203,-3 1.95545,0 2.67845,2.73595 0.90304,3.41724 C 332.3499,205.1867 332.22186,205.16799 331.5,204 Z m 6.50982,-4.48817 c -1.00286,-1.20837 -0.91924,-1.60936 0.44477,-2.13278 1.97026,-0.75606 4.07104,0.96145 3.09926,2.53382 -0.92279,1.49311 -2.08078,1.36207 -3.54403,-0.40104 z M 472,200.11803 c 0,-0.55 0.45,-1.27811 1,-1.61803 0.55,-0.33992 1,-0.16803 1,0.38197 0,0.55 -0.45,1.27811 -1,1.61803 -0.55,0.33992 -1,0.16803 -1,-0.38197 z m -6.26443,-2.7158 c -0.32877,-0.32877 -0.36653,-1.20035 -0.0839,-1.93685 0.64137,-1.67138 3.34834,-0.74844 3.34834,1.14161 0,1.39588 -2.14199,1.91769 -3.26443,0.79524 z m -121.28942,-1.48936 c -1.03052,-1.66742 1.28721,-3.57951 2.66672,-2.2 C 348.26679,194.86679 347.54459,197 346,197 c -0.48508,0 -1.18431,-0.48921 -1.55385,-1.08713 z m 114.89893,-2.456 c -0.75835,-1.97621 -0.051,-2.665 1.94865,-1.89765 0.86899,0.33346 1.33525,1.24406 1.03614,2.02354 -0.71733,1.86932 -2.24387,1.80494 -2.98479,-0.12589 z m -108.01572,-1.04095 c -0.86904,-2.26469 1.4682,-4.35114 2.69697,-2.40756 1.31101,2.07367 1.20815,2.68768 -0.56418,3.36779 -0.89117,0.34197 -1.78803,-0.0618 -2.13279,-0.96023 z m 101.11679,-1.50305 c -1.03052,-1.66742 1.28721,-3.57951 2.66672,-2.2 C 456.26679,189.86679 455.54459,192 454,192 c -0.48508,0 -1.18431,-0.48921 -1.55385,-1.08713 z m -94.83916,-1.49466 c -0.82983,-2.16248 -0.85012,-2.12137 1.32843,-2.69107 2.2844,-0.59738 3.79048,2.19535 1.84845,3.4276 -1.86569,1.18381 -2.49606,1.03766 -3.17688,-0.73653 z M 445,187.55902 c 0,-0.79254 0.35899,-1.66285 0.79775,-1.93402 1.27929,-0.79065 3.52519,1.04345 2.77135,2.2632 -0.9922,1.60541 -3.5691,1.36774 -3.5691,-0.32918 z m -80.37615,-1.09687 c -0.75702,-1.97277 2.28568,-3.22657 3.41109,-1.40561 0.4582,0.74138 0.61123,1.70695 0.34006,2.14571 -0.82906,1.34146 -3.12631,0.88821 -3.75115,-0.7401 z m 73.72123,-1.00528 c -0.75454,-1.96628 0.13832,-2.86909 2.09493,-2.11826 0.87889,0.33726 1.27596,1.23798 0.93614,2.12354 -0.75808,1.97552 -2.27198,1.97289 -3.03107,-0.005 z M 372,184 c 0,-1.1 0.64844,-2 1.44098,-2 2.08773,0 3.05057,2.07456 1.43714,3.09649 C 372.73777,186.45216 372,186.17109 372,184 Z m 59,-1 c 0,-2.19211 0.13075,-2.27079 2.35507,-1.41724 C 435.1598,182.2753 434.39271,185 432.39301,185 431.62686,185 431,184.1 431,183 Z m -52,-1.07332 c 0,-2.56265 3.30983,-2.27193 3.81184,0.3348 0.2311,1.2 -0.30742,1.73852 -1.73852,1.73852 C 379.64223,184 379,183.35777 379,181.92668 Z m 7.66667,0.40665 C 385.2901,180.95677 386.07281,179 388,179 c 1.33333,0 2,0.66667 2,2 0,1.92719 -1.95677,2.7099 -3.33333,1.33333 z M 423.63837,181.5 c 0.31659,-0.825 1.20246,-1.5 1.96862,-1.5 0.76615,0 1.39301,0.675 1.39301,1.5 0,0.82536 -0.8854,1.5 -1.96862,1.5 -1.33903,0 -1.78453,-0.47971 -1.39301,-1.5 z M 394,180 c 0,-2.27384 2.50788,-2.72483 3.32411,-0.59777 C 397.95169,181.03767 397.21421,182 395.33333,182 394.6,182 394,181.1 394,180 Z m 7,0.0733 c 0,-1.43107 0.64223,-2.0733 2.07332,-2.0733 2.56265,0 2.27193,3.30983 -0.3348,3.81184 -1.2,0.2311 -1.73852,-0.30742 -1.73852,-1.73852 z m 7.73557,1.32891 C 407.76242,180.42909 409.09856,178 410.60699,178 c 0.76615,0 1.39301,0.9 1.39301,2 0,1.88258 -1.94753,2.71914 -3.26443,1.40223 z M 416,180.5 c 0,-0.83333 0.88889,-1.5 2,-1.5 1.11111,0 2,0.66667 2,1.5 0,0.83333 -0.88889,1.5 -2,1.5 -1.11111,0 -2,-0.66667 -2,-1.5 z M 32.785247,149.63866 C 23.592133,147.3624 15.648381,145.05 15.132464,144.5 14.328779,143.64322 0,100.277 0,98.701417 0,98.391162 9.1827837,91.804638 20.406186,84.064696 l 20.406186,-14.07262 18.343814,4.167919 c 10.089098,2.292355 18.858338,4.656638 19.4872,5.253962 1.243236,1.180885 15.394408,43.470203 15.297092,45.713783 -0.09134,2.1058 -39.296043,28.89353 -42.092532,28.76092 -1.29137,-0.0612 -9.869585,-1.97373 -19.062699,-4.25 z M 70.084651,138.3837 C 79.388093,131.99474 87,126.47492 87,126.11742 87,125.15911 57.216659,118.70288 55.620824,119.31526 53.20853,120.24095 22,142.14125 22,142.90838 c 0,0.71938 25.650634,6.85023 29.334651,7.01137 1.009059,0.0441 9.446559,-5.14708 18.75,-11.53605 z M 38.227819,126.66018 53.785525,115.82037 47.265774,96.160184 C 43.679911,85.347083 40.456369,76.175701 40.102347,75.779335 39.748325,75.382969 32.042969,80.245265 22.979335,86.584437 13.915701,92.923609 5.8862937,98.469454 5.1362082,98.908535 4.0440239,99.547874 5.0998806,103.8318 10.437861,120.41893 l 6.665445,20.71206 2.783403,-1.81549 c 1.530872,-0.99853 9.784372,-6.69342 18.34111,-12.65532 z M 83.283848,102.25 C 79.674947,91.3875 76.563069,82.315856 76.368563,82.090792 75.881007,81.526635 44.585624,74.245671 44.145987,74.594114 c -0.194707,0.154318 2.655498,9.309663 6.333789,20.34521 6.172044,18.517266 6.893418,20.117646 9.354013,20.752076 9.095976,2.34528 26.005585,6.11261 27.838954,6.2023 2.07236,0.10139 1.869589,-0.80617 -4.388895,-19.6437 z m 313.297802,43.88211 c -0.35424,-0.57318 1.39497,-8.63204 3.88714,-17.9086 C 402.96095,118.94695 405,110.68623 405,109.86635 c 0,-0.81988 -0.9273,-3.40999 -2.06068,-5.7558 -6.04687,-12.515591 -7.71903,-32.726461 -3.94653,-47.700587 11.59405,-46.020041 63.74076,-68.167187 105.67386,-44.880568 8.98726,4.990877 21.81308,17.816693 26.80396,26.803954 20.11149,36.215537 6.47379,81.849941 -29.92701,100.141611 -19.18934,9.64278 -41.47186,10.28761 -62.14357,1.79837 l -6.34597,-2.6061 -15.77703,4.19597 c -8.67737,2.30778 -16.73874,4.44686 -17.91417,4.7535 -1.17543,0.30664 -2.42697,0.0886 -2.78121,-0.48459 z M 489.5,139.61205 C 520.87874,129.56743 540.98887,98.599819 536.99653,66.472087 534.93116,49.851325 529.17233,38.162478 517.01796,25.921013 503.39973,12.205218 487.99917,5.7273183 469,5.7233497 438.44189,5.7169667 412.96696,24.236883 403.28119,53.5 c -2.28678,6.908916 -2.65146,9.704818 -2.67396,20.5 -0.0267,12.790107 1.02333,17.403918 7.42749,32.6379 1.19587,2.84469 0.92406,4.60756 -2.9088,18.86567 -2.32536,8.65027 -4.03738,15.91831 -3.80448,16.1512 0.40428,0.40429 7.43109,-1.32231 23.56491,-5.79028 8.17585,-2.26415 8.87074,-2.20124 17.96998,1.6268 14.49901,6.09972 31.7617,6.88461 46.64367,2.12076 z M 455,85 v -5 h -5 c -4.33333,0 -5,-0.266667 -5,-2 0,-1.73532 0.66667,-2 5.03753,-2 h 5.03752 L 454.78753,66.75 454.5,57.5 449.72546,57 c -6.26952,-0.656557 -6.10516,-2.418395 0.26142,-2.80226 L 455,53.895481 V 48.94774 C 455,45.216416 455.36878,44 456.5,44 c 1.13333,0 1.5,1.222222 1.5,5 v 5 h 9.5 9.5 v -5 c 0,-3.777778 0.36667,-5 1.5,-5 1.13122,0 1.5,1.216416 1.5,4.94774 v 4.947741 l 5.01312,0.302259 c 6.36658,0.383865 6.53094,2.145703 0.26142,2.80226 l -4.77454,0.5 -0.28682,9.196464 -0.28681,9.196463 5.28681,0.303537 C 489.111,76.420252 490.5,76.894092 490.5,78 c 0,1.104475 -1.38434,1.579701 -5.25,1.80226 L 480,80.104519 v 5.031074 c 0,6.56586 -2.37176,6.173697 -2.80479,-0.463762 L 476.89042,80 H 467.44521 458 v 5 c 0,3.777778 -0.36667,5 -1.5,5 -1.13333,0 -1.5,-1.222222 -1.5,-5 z M 476.78753,66.75 476.5,57.5 h -9 -9 l -0.28753,9.25 -0.28752,9.25 h 9.57505 9.57505 z m -312.79667,45.76101 c 0.67967,-0.81894 1.64211,-1.23785 2.13876,-0.9309 1.27647,0.7889 0.0558,2.41989 -1.81108,2.41989 -1.27119,0 -1.33244,-0.27832 -0.32768,-1.48899 z m -5.37646,-2.8037 c -1.65317,-1.20883 -1.66599,-1.4196 -0.16232,-2.66754 2.09416,-1.738 4.18491,-4.2e-4 2.85624,2.37377 -0.75791,1.35432 -1.18051,1.4004 -2.69392,0.29377 z M 95.6,104.4 c -0.355892,-0.92744 -0.422077,-1.91126 -0.147077,-2.18626 0.275,-0.275 0.791185,0.25882 1.147077,1.18626 0.355892,0.92744 0.422077,1.91126 0.147077,2.18626 -0.275,0.275 -0.791185,-0.25882 -1.147077,-1.18626 z m 56.70279,0.80735 c -1.77213,-1.12516 0.14432,-3.63349 2.17944,-2.85254 0.92625,0.35543 1.50604,1.18038 1.28843,1.83322 -0.51526,1.54578 -1.96675,1.97242 -3.46787,1.01932 z M 100.4309,101.8882 c -0.753844,-1.21975 1.49206,-3.053846 2.77135,-2.2632 0.43876,0.271169 0.79775,1.14148 0.79775,1.93402 0,1.69692 -2.5769,1.93459 -3.5691,0.32918 z m 44.90493,-0.45542 c -0.78813,-2.053844 0.79372,-3.588779 2.56825,-2.492064 C 149.41535,99.874736 148.7193,103 147,103 c -0.58452,0 -1.3334,-0.70525 -1.66417,-1.56722 z M 108,99.083333 C 108,97.854996 108.64569,97 109.57332,97 c 0.93124,0 1.44138,0.68037 1.25,1.667134 C 110.33677,101.1759 108,101.52038 108,99.083333 Z M 138,98 c 0,-1.506149 0.52215,-2.046091 1.75,-1.809629 0.9625,0.18536 1.75,0.999694 1.75,1.809629 0,0.809935 -0.7875,1.624269 -1.75,1.809629 C 138.52215,100.04609 138,99.506149 138,98 Z M 115.18816,97.261484 C 115.69017,94.654747 119,94.364033 119,96.926676 119,98.357775 118.35777,99 116.92668,99 c -1.4311,0 -1.96962,-0.538516 -1.73852,-1.738516 z M 123,96.5 c 0,-0.825 0.675,-1.5 1.5,-1.5 0.825,0 1.5,0.675 1.5,1.5 0,0.825 -0.675,1.5 -1.5,1.5 -0.825,0 -1.5,-0.675 -1.5,-1.5 z m 7,0 c 0,-0.833333 0.88889,-1.5 2,-1.5 1.11111,0 2,0.666667 2,1.5 0,0.833333 -0.88889,1.5 -2,1.5 -1.11111,0 -2,-0.666667 -2,-1.5 z"
         id="path2" />
    </g>
  </g>
</svg>
