<?xml version="1.0" encoding="UTF-8" standalone="no"?>
<!-- Created with Inkscape (http://www.inkscape.org/) -->

<svg
   version="1.1"
   id="svg1"
   width="481"
   height="450"
   viewBox="0 0 481 450"
   sodipodi:docname="BUSINESS_21.svg"
   inkscape:version="1.3.2 (091e20e, 2023-11-25, custom)"
   xmlns:inkscape="http://www.inkscape.org/namespaces/inkscape"
   xmlns:sodipodi="http://sodipodi.sourceforge.net/DTD/sodipodi-0.dtd"
   xmlns="http://www.w3.org/2000/svg"
   xmlns:svg="http://www.w3.org/2000/svg">
  <defs
     id="defs1" />
  <sodipodi:namedview
     id="namedview1"
     pagecolor="#ffffff"
     bordercolor="#000000"
     borderopacity="0.25"
     inkscape:showpageshadow="2"
     inkscape:pageopacity="0.0"
     inkscape:pagecheckerboard="0"
     inkscape:deskcolor="#d1d1d1"
     showgrid="false"
     inkscape:zoom="1.7488889"
     inkscape:cx="240.43837"
     inkscape:cy="225"
     inkscape:window-width="1920"
     inkscape:window-height="1001"
     inkscape:window-x="-9"
     inkscape:window-y="-9"
     inkscape:window-maximized="1"
     inkscape:current-layer="g1" />
  <g
     inkscape:groupmode="layer"
     inkscape:label="Image"
     id="g1">
    <g
       id="g2"
       transform="translate(0,-0.0278418)">
      <path
         style="fill:#fefefe"
         d="M 0,225 V 0 H 240.5 481 V 225 450 H 240.5 0 Z"
         id="path6" />
      <path
         style="fill:#a0aec0"
         d="M 106.51368,447.8321 C 101.28553,443.71964 101,441.6917 101,408.67169 c 0,-16.7159 -0.28134,-32.44515 -0.6252,-34.95389 l -0.625202,-4.56134 -5.466121,5.90407 c -10.635324,11.48742 -22.805093,14.87939 -29.470443,8.21404 -5.579806,-5.5798 -5.746093,-4.88212 15.189439,-63.72932 L 99.189242,265.61361 98.844621,221.55681 98.5,177.5 l 2.94896,-5.32355 c 3.18762,-5.75439 8.20382,-10.29777 14.08031,-12.75313 4.25991,-1.7799 15.40631,-2.06335 18.38801,-0.46759 1.72367,0.92248 1.86599,1.48073 0.97194,3.8125 C 131.53779,171.50912 110,232.38758 110,233.11981 c 0,0.4841 0.56563,0.88019 1.25696,0.88019 1.45533,0 27.64208,-73.12529 27.57431,-77 -0.0742,-4.24337 9.30134,-28.70519 12.47986,-32.56129 1.62213,-1.96792 4.60456,-4.62294 6.62762,-5.90005 3.52751,-2.22681 4.08069,-3.42306 13.49381,-29.180332 5.39853,-14.772081 10.69442,-29.22723 11.76865,-32.122555 3.04194,-8.198849 4.30537,-8.568638 26.69744,-7.813943 10.23074,0.344814 22.87635,0.831431 28.10135,1.081372 5.225,0.249941 17.80256,0.744411 27.95013,1.098823 l 18.45013,0.644385 2.92454,2.924542 c 2.54773,2.547736 2.85937,3.465974 2.41873,7.126796 -0.2782,2.311238 -7.0843,20.70561 -15.12467,40.876382 C 266.57849,123.3449 260,140.39143 260,141.05532 c 0,0.66388 6.4125,13.51888 14.25,28.56667 13.46925,25.8606 14.44176,27.42233 17.75,28.50414 5.44014,1.77896 10.63659,4.61589 14.22319,7.76497 l 3.2788,2.87882 21.999,-15.42493 c 12.09946,-8.48372 24.38556,-16.55652 27.30246,-17.93955 9.20304,-4.36357 18.91923,-6.27817 33.14893,-6.53206 13.06472,-0.23311 16.69833,-1.12038 8.8818,-2.1688 -9.52163,-1.27711 -17.22319,-11.04057 -18.48157,-23.42954 -0.57241,-5.63541 -1.13484,-6.83423 -5.93856,-12.65801 -10.81587,-13.11258 -16.93079,-15.068 -32.11756,-10.2705 -11.83028,3.73718 -16.80671,4.17496 -24.12302,2.12211 -7.89396,-2.21493 -14.0497,-7.46533 -17.21247,-14.68096 -3.44915,-7.868981 -3.85227,-20.746713 -1.00521,-32.111224 l 2.17814,-8.694365 -3.475,-5.741046 c -5.39066,-8.905931 -6.97926,-14.922988 -6.4732,-24.518174 0.77418,-14.67876 8.55983,-26.518496 21.68824,-32.9815914 C 321.97345,0.73851388 323.1969,0.5 332.5,0.5 c 9.29821,0 10.5286,0.23952459 16.61049,3.2336282 6.08848,2.9973506 14.58361,10.6439508 17.41036,15.6713338 0.89579,1.593171 1.50831,1.680258 5,0.71089 9.58883,-2.662066 20.34017,-0.09799 24.67266,5.884148 0.99583,1.375 2.95814,8.058344 4.36069,14.851875 4.76797,23.094518 9.02414,30.062322 19.9458,32.653419 7.88991,1.871831 7.49829,1.96334 7.51187,-1.755294 0.0162,-4.429823 2.46666,-13.305193 4.55248,-16.488555 2.81279,-4.292859 6.62152,-7.397613 12.30385,-10.029705 12.15194,-5.628853 27.0297,-3.15e-4 33.75,12.76826 2.71262,5.154003 2.55051,17.16293 -0.30375,22.5 -3.8169,7.13709 -13.69508,14.407358 -19.67144,14.478038 -1.38877,0.01642 -1.66527,0.463202 -1.09663,1.771962 4.04256,9.30419 4.86294,13.19101 4.90731,23.25 0.0434,9.83695 -0.16056,10.93683 -3.22961,17.41766 -2.39001,5.04692 -5.16407,8.72878 -10.25803,13.61491 l -6.98212,6.69725 -1.58288,11.88509 c -0.87059,6.5368 -2.13577,14.81296 -2.8115,18.39147 -1.08766,5.7599 -1.02542,6.96456 0.54246,10.5 0.97409,2.19649 2.06224,6.29614 2.4181,9.11033 1.29725,10.25869 -0.1725,13.64264 -22.15581,51.01131 -11.283,19.17959 -21.69778,36.11062 -23.14395,37.62452 C 391.47008,300.20985 385.08151,303 379.80077,303 h -4.56778 l -0.69725,6.75 c -2.03073,19.65916 -12.8128,35.17295 -31.24477,44.95654 -11.4021,6.05217 -18.45887,7.60764 -31.79097,7.00743 -16.93577,-0.76244 -31.82602,-5.64491 -51.83669,-16.99708 -9.86591,-5.59699 -14.43461,-9.40776 -51,-42.53929 -22.08982,-20.01536 -41.10253,-37.25303 -42.25048,-38.30593 l -2.08716,-1.91435 -10.75957,35.62514 c -5.91776,19.59382 -10.54078,36.59092 -10.27336,37.77133 0.26741,1.18042 2.78181,7.32121 5.58756,13.64621 7.39995,16.68175 7.08702,20.7893 -2.51828,33.05455 -4.14115,5.28794 -4.46605,6.19991 -6.7689,19 -1.33043,7.395 -2.72716,15.69545 -3.10384,18.44545 -1.52617,11.14201 -7.5387,22.35007 -14.81859,27.62359 -5.01326,3.63159 -11.08038,3.91519 -15.15701,0.70851 z m 12.53437,-43.0855 c 5.33311,-3.59398 7.13864,-7.73711 8.10109,-18.58957 1.57455,-17.75447 6.61897,-37.70478 11.18018,-44.21681 1.12861,-1.61132 1.25724,-2.82777 0.52202,-4.93681 -0.7917,-2.27109 -0.14521,-5.52804 3.42959,-17.278 l 4.4052,-14.47937 -4.36981,-2.12302 c -2.4034,-1.16766 -4.47028,-2.12384 -4.59307,-2.12484 -0.12279,-10e-4 -0.068,2.75452 0.12179,6.12338 0.78322,13.90383 -2.14532,19.35511 -14.17997,26.39509 -5.76033,3.36965 -6.64905,4.39861 -12.4344,14.39651 L 105,358.68064 V 382.84032 407 h 5.35212 c 3.8968,0 6.26134,-0.61273 8.69593,-2.2534 z M 95.824492,343.31574 c 1.512164,-1.10977 5.548828,-7.43273 9.283678,-14.54182 8.39457,-15.97858 14.47704,-25.11628 21.40307,-32.15385 C 130.08967,292.984 132,290.20743 132,288.64242 c 0,-1.47098 3.3348,-6.78831 8.61228,-13.73226 4.73675,-6.23247 8.81607,-11.86286 9.06516,-12.51196 1.56069,-4.06711 -31.80238,-29.86742 -34.62365,-26.77513 -0.67214,0.73671 -37.85534,104.15983 -38.378058,106.74656 -0.324888,1.60774 6.780723,3.5888 11.64876,3.24769 2.753503,-0.19294 5.972995,-1.18093 7.5,-2.30158 z M 258,330.07018 C 258,328.52115 183.36788,225.5 182.24572,225.5 c -1.51249,0 -31.3174,39.575 -30.63566,40.67807 0.31527,0.51013 0.94379,0.79125 1.3967,0.62472 0.45291,-0.16654 6.96944,-8.40279 14.48117,-18.30279 7.51174,-9.9 14.02477,-18.13328 14.4734,-18.29617 0.84727,-0.30763 7.88344,9.24717 49.03867,66.59221 21.64933,30.16584 27,36.75987 27,33.27414 z M 324.01096,241.75 c 1.08986,-1.7875 1.98325,-3.96035 1.9853,-4.82856 0.004,-1.80866 -4.40917,-8.61283 -9.28605,-14.31618 l -3.33035,-3.89473 -6.77882,2.25585 c -4.53385,1.50876 -6.44657,2.58809 -5.77557,3.25909 0.671,0.671 2.68158,0.57311 6.07107,-0.29559 2.78731,-0.71437 5.35644,-1.01024 5.70918,-0.65749 1.42214,1.42213 -0.73037,3.68467 -4.61184,4.84759 -3.82193,1.14508 -7.41418,4.88085 -5.38728,5.60251 0.49137,0.17494 4.7184,2.74261 9.3934,5.70592 4.675,2.96331 8.84411,5.42918 9.2647,5.47971 0.42058,0.0505 1.6564,-1.37062 2.74626,-3.15812 z m -21.39473,-24.0166 c 10.53412,-3.84664 7.68562,-6.32802 -3.13185,-2.7282 -6.3217,2.10373 -7.77559,3.30712 -5.23438,4.33252 1.90135,0.76721 1.839,0.77917 8.36623,-1.60432 z M 302.5,208.7472 c 1.34718,-1.35588 -6.35519,-0.31562 -13.46852,1.81902 -4.89841,1.46996 -5.28184,1.77754 -3.67795,2.95034 1.51431,1.10729 2.89798,0.91802 8.96852,-1.2268 3.94787,-1.39485 7.62795,-2.989 8.17795,-3.54256 z m -6.72627,-4.2479 c 0.15055,-0.11738 -2.09945,-1.12159 -5,-2.23157 -5.7056,-2.1834 -7.67607,-1.22657 -3.8516,1.8703 1.56594,1.26802 3.13046,1.61055 5.39195,1.18051 1.75226,-0.3332 3.3091,-0.70186 3.45965,-0.81924 z M 438.05843,154.5 c 1.22146,-9.35 2.58296,-17.40246 3.02556,-17.89437 0.46863,-0.52081 2.00418,-0.39754 3.6765,0.29516 C 450.55913,139.30267 456,134.32041 456,126.60868 c 0,-3.53535 -1.3398,-5.48592 -2.48992,-3.62499 -0.34546,0.55897 -1.74173,1.01631 -3.10282,1.01631 -1.77384,0 -3.0666,1.00318 -4.56461,3.54212 -1.14945,1.94817 -2.59678,3.37542 -3.21628,3.17168 -2.18776,-0.71954 -1.69572,-4.47934 1.02416,-7.82589 l 2.75349,-3.38791 -2.66215,2.38686 -2.66214,2.38687 -11.65994,-4.82837 c -6.41297,-2.6556 -12.24465,-5.41307 -12.95929,-6.12772 -0.71464,-0.71464 -1.61304,-4.22847 -1.99642,-7.8085 C 414.08069,101.92912 413.57208,99 413.33384,99 c -1.12578,0 -7.2143,3.57299 -10.53504,6.18239 -2.2694,1.78327 -3.48733,3.46571 -3.14835,4.34909 0.3447,0.89827 -0.33257,1.77758 -1.79879,2.33539 -1.29342,0.49206 -3.39075,2.74439 -4.66075,5.00518 -1.54849,2.75655 -1.84831,3.93371 -0.91021,3.57373 1.97797,-0.75902 4.00802,2.06917 3.23453,4.50623 -0.78185,2.4634 -4.31681,2.72864 -5.21376,0.39121 -1.12366,-2.92821 -3.32595,6.61566 -3.37078,14.60769 -0.12275,21.88118 17.48763,29.83892 35.21321,15.91208 4.27027,-3.35512 5.8561,-3.60372 5.8561,-0.91803 0,2.29888 -9.70128,9.61088 -14.00567,10.55628 -2.64615,0.5812 -5.78869,3.08913 -4.88683,3.89998 0.21587,0.19409 6.0175,1.45231 12.8925,2.79604 11.16307,2.18183 12.57153,2.2752 13.1688,0.87294 0.36784,-0.86361 1.66817,-9.2202 2.88963,-18.5702 z m -45.39176,-2.16667 C 392.3,151.96667 392,150.78918 392,149.7167 c 0,-1.50538 0.49214,-1.82126 2.15857,-1.38548 1.32935,0.34763 3.10319,-0.17856 4.61754,-1.36975 2.56444,-2.01719 4.22389,-1.81094 4.22389,0.52497 0,3.18541 -8.16499,7.01523 -10.33333,4.84689 z m 1.43625,-12.24856 C 391.29428,138.30639 395.19312,127 398.61501,127 c 1.8167,0 1.75663,2.38064 -0.15326,6.07397 -0.84604,1.63606 -1.46773,3.52622 -1.38152,4.20034 0.46678,3.65028 -0.38344,4.45285 -2.97731,2.81046 z M 405.36163,130.5 c -1.27154,-3.31357 2.56252,-6.97585 4.87846,-4.65991 0.80754,0.80754 0.7952,1.78704 -0.0458,3.63278 -1.27331,2.79462 -3.93717,3.36079 -4.83268,1.02713 z m 11.41351,-10.0588 C 414.37726,119.13992 412,116.21487 412,114.56574 412,114.25458 412.8929,114 413.98422,114 c 2.61825,0 8.55066,5.32552 7.61638,6.83722 -0.90854,1.47006 -1.47204,1.42381 -4.82546,-0.39602 z M 400.60165,58.897531 c -0.78353,-1.875252 -2.59725,-8.963537 -4.0305,-15.751744 -1.43324,-6.788208 -3.06142,-13.193346 -3.61817,-14.233641 -1.21973,-2.279083 -5.19736,-4.42276 -9.95298,-5.363985 l -3.5,-0.692715 3.20145,2.028055 c 3.6908,2.338044 5.18636,4.948426 9.37478,16.362948 3.48041,9.485008 9.06135,21.949308 9.59081,21.419842 0.19757,-0.197566 -0.28186,-1.893508 -1.06539,-3.76876 z m 73.52244,-0.164198 c -0.98762,-0.980267 -1.10248,-0.865403 -0.5598,0.559795 0.37553,0.986221 0.93469,1.541221 1.24258,1.233333 0.30789,-0.307887 6.4e-4,-1.114794 -0.68278,-1.793128 z M 473,56.687091 c 0,-0.1721 -1.4625,-1.6346 -3.25,-3.25 L 466.5,50.5 l 2.93709,3.25 C 472.17487,56.779455 473,57.459652 473,56.687091 Z M 465.5,50 c -0.33992,-0.55 -1.15398,-0.993109 -1.80902,-0.984687 C 462.97537,49.024514 463.09871,49.41754 464,50 c 1.92112,1.241525 2.2673,1.241525 1.5,0 z M 319.52399,9.0769074 c 11.4793,-4.2949554 23.93537,-3.3270352 32.84071,2.5519426 2.12558,1.403232 3.55025,2.042557 3.16594,1.420721 -1.44132,-2.332094 -8.78618,-6.1564207 -14.76605,-7.688393 -13.2664,-3.3986931 -28.2823,2.0154507 -35.96523,12.967647 -1.73111,2.467751 -0.95666,2.02229 3.49138,-2.008226 3.42451,-3.103062 7.92774,-6.006942 11.23325,-7.2436916 z M 60.885714,154.73912 c -0.762143,-0.7642 -4.234386,-5.85563 -7.716096,-11.31429 L 46.839236,133.5 29.83647,133.79629 C 13.189725,134.08638 12.743229,134.03957 8.5129002,131.56043 3.6987725,128.73916 0,122.50424 0,117.21046 0,115.4735 1.7908516,103.84428 3.9796701,91.36773 8.3697196,66.343884 9.3560589,63.85426 16.462269,59.860347 c 3.397752,-1.909644 6.17244,-2.35682 18.517176,-2.984278 7.986305,-0.405928 15.678543,-0.769105 17.093863,-0.80706 2.508608,-0.06727 2.655696,-0.464837 5.850177,-15.812391 3.727656,-17.909133 4.675568,-20.227666 9.485197,-23.20018 3.370523,-2.083098 4.260491,-2.129378 35.508858,-1.846544 L 134.96923,15.5 l 3.62419,3.625467 c 5.73097,5.733 5.61561,8.531655 -1.43213,34.743187 -6.47348,24.075787 -7.94886,27.013033 -14.57624,29.018807 -1.69678,0.513531 -12.05874,1.210124 -23.026587,1.547986 -10.967845,0.337861 -20.110105,0.782861 -20.316133,0.98889 -0.206028,0.206028 -3.661075,15.751073 -7.677883,34.544553 -4.016808,18.79347 -7.750976,34.61764 -8.298153,35.16482 -0.659821,0.65982 -1.461538,0.52693 -2.38058,-0.39459 z M 67.889364,116.5 C 71.254487,100.55 74.006022,86.9375 74.003885,86.25 74.001213,85.390313 72.139749,85 68.04244,85 h -5.95756 l -8.204703,8.504404 c -4.512586,4.677422 -8.328992,8.380116 -8.480902,8.228206 -0.15191,-0.15191 1.640341,-9.384661 3.98278,-20.517222 2.342439,-11.132561 4.152369,-20.347753 4.022066,-20.478204 -0.130303,-0.130451 -7.587036,0.09702 -16.570518,0.50549 C 12.94266,62.328973 13.581888,61.600428 7.9080774,94.209865 l -4.1253479,23.709865 2.1528374,4.44717 c 3.5466915,7.32649 6.1933851,8.05537 26.2883621,7.23963 l 16.812602,-0.68249 5.731735,8.98614 c 3.152454,4.94237 6.0177,8.67196 6.367213,8.28798 C 61.484993,145.81417 64.524241,132.45 67.889364,116.5 Z"
         id="path5" />
      <path
         style="fill:#f9cb42"
         d="m 108.0964,448.73526 c -1.32198,-0.67939 -3.34698,-2.50492 -4.5,-4.05672 -2.01881,-2.71704 -2.11491,-4.21607 -2.5964,-40.5 L 100.5,366.5 98.186325,370.22106 C 93.30784,378.06708 80.010627,387 73.209809,387 c -4.434502,0 -9.486278,-3.92377 -11.132038,-8.64636 l -1.42223,-4.08117 19.296038,-54.11081 19.296037,-54.1108 -0.373808,-43.77543 c -0.364565,-42.69297 -0.322173,-43.88698 1.714342,-48.28665 4.37546,-9.45273 14.34448,-15.97247 24.41185,-15.96536 6.78094,0.005 10,0.81024 10,2.50211 0,0.71074 -5.625,17.03522 -12.5,36.27662 -6.875,19.24139 -12.5,35.48239 -12.5,36.0911 0,0.60871 0.6013,1.10675 1.33623,1.10675 1.63591,0 27.55741,-72.0646 27.51691,-76.5 -0.0354,-3.87697 8.4018,-26.77575 11.70464,-31.76668 2.56,-3.86842 10.02313,-9.3276 14.19222,-10.38141 2.47096,-0.62458 2.95447,-1.91393 1,-2.66666 -0.6875,-0.26477 -0.26868,-0.43386 0.93072,-0.37574 1.1994,0.0581 1.96034,0.46225 1.69098,0.89808 -0.26935,0.43582 1.67432,0.81216 4.31928,0.8363 2.64496,0.0241 6.60902,0.7108 8.80902,1.52591 2.2,0.8151 4.42164,1.58285 4.93698,1.7061 0.51534,0.12326 1.96974,1.3491 3.232,2.7241 1.5675,1.7075 2.53847,2.13883 3.06302,1.36066 0.54914,-0.81466 1.18612,-0.68917 2.23524,0.44036 1.30832,1.40858 1.25416,1.49855 -0.5,0.83066 -1.23426,-0.46995 -0.48134,0.77658 2.02079,3.34557 2.19341,2.25203 4.13902,3.64161 4.32356,3.08797 0.20676,-0.62027 0.84055,-0.53811 1.65131,0.21408 0.84932,0.78795 0.95373,1.44777 0.29455,1.86123 -0.58238,0.36527 0.002,1.28914 1.36066,2.14986 2.69205,1.70588 41.75545,4.52382 43.94574,3.17015 0.80382,-0.49679 0.99226,-0.36035 0.53164,0.38495 C 248.11442,137.62388 248.89776,138 251,138 c 1.71492,0 2.88627,-0.375 2.60301,-0.83333 -0.28327,-0.45834 0.15517,-0.83334 0.97431,-0.83334 1.02493,0 1.16712,0.32223 0.45601,1.03334 -1.44769,1.44769 -1.29169,2.90243 0.21667,2.02045 0.6875,-0.402 0.46152,0.17046 -0.50218,1.27214 -0.9637,1.10167 -1.42317,2.33206 -1.02103,2.73419 0.40213,0.40214 -0.52618,0.25312 -2.06292,-0.33115 C 248.04,141.68451 235.87862,141.62906 238,143 c 1.18736,0.76733 0.97894,0.96937 -1,0.96937 -1.375,0 -3.175,-0.47258 -4,-1.05019 -1.17423,-0.82211 -1.01135,-0.91274 0.75,-0.4173 1.32332,0.37223 2.25,0.19329 2.25,-0.43449 0,-0.6256 -2.37994,-1.09298 -5.75,-1.12921 -3.1625,-0.034 -8.98673,-0.38656 -12.94273,-0.78346 -5.7683,-0.57872 -6.98359,-0.46964 -6.13669,0.55082 0.58082,0.69984 1.56755,0.98025 2.19273,0.62312 0.62518,-0.35712 0.79289,-0.27086 0.37269,0.19168 -0.896,0.98629 4.2014,6.63639 5.34793,5.92779 0.42783,-0.26441 1.1035,0.0461 1.50148,0.69007 0.48853,0.79045 0.26732,0.91126 -0.6809,0.37185 -0.77248,-0.43942 0.58253,1.27153 3.01114,3.80213 2.42861,2.53061 4.86064,4.32608 5.40451,3.98995 0.54387,-0.33613 0.71398,-0.16639 0.37802,0.37721 -0.33596,0.54359 2.01847,3.50934 5.23207,6.59055 4.63241,4.44157 6.31314,5.47922 8.1127,5.00863 1.58714,-0.41505 2.0516,-0.24053 1.54432,0.58027 -0.39901,0.64561 -1.25687,0.86893 -1.90637,0.49627 -0.64949,-0.37266 -0.0854,0.52482 1.25347,1.99439 1.84267,2.02251 2.65554,2.36553 3.34433,1.41125 0.66086,-0.91558 0.77081,-0.82061 0.40164,0.34694 -0.55957,1.76973 15.73231,18.76618 16.53613,17.25127 0.25066,-0.4724 0.337,-0.34431 0.19187,0.28464 -0.32771,1.42022 4.07844,5.66385 6.2048,5.97593 0.86357,0.12675 1.86639,0.56091 2.22849,0.96481 0.3621,0.4039 -0.24087,0.40891 -1.33994,0.0111 -1.58331,-0.57303 -1.39576,-0.0943 0.90302,2.30511 1.59574,1.66559 3.35201,2.74982 3.90282,2.40939 0.55082,-0.34042 0.71191,-0.15041 0.35799,0.42225 -0.88122,1.42585 1.73729,3.43421 3.56374,2.73334 1.03822,-0.3984 1.39816,-1.75671 1.20058,-4.53064 -0.1552,-2.17891 0.1035,-3.72329 0.57489,-3.43196 0.47139,0.29134 1.13973,0.0724 1.48519,-0.48661 0.34546,-0.55897 1.38906,-1.01477 2.3191,-1.01288 3.24421,0.007 16.60182,6.0923 20.6463,9.40645 l 4.07568,3.33971 21.9845,-15.41477 c 12.09148,-8.47813 24.37105,-16.54635 27.28795,-17.92938 9.20304,-4.36357 18.91923,-6.27817 33.14893,-6.53206 7.17619,-0.128 13.04762,-0.60189 13.04762,-1.05305 0,-0.45116 -1.0125,-0.83017 -2.25,-0.84225 -5.99071,-0.0585 -15.3923,-7.32706 -17.9003,-13.83913 -0.55898,-1.4514 -1.5829,-5.86674 -2.27538,-9.81186 -1.05229,-5.99494 -1.93896,-7.98501 -5.39901,-12.11767 -11.23158,-13.41488 -16.00541,-15.45275 -28.48781,-12.16096 -18.67678,4.92534 -19.58909,5.07114 -25.21937,4.03032 C 303.95441,119.47143 296.08491,102.38017 301.957,76.360096 L 304.18218,66.5 l -3.62656,-6 C 293.9965,49.648183 292.36531,38.953301 295.58826,27.931501 298.85907,16.74603 305.73139,8.9201082 316.95263,3.6026372 322.80322,0.83018928 324.4578,0.50461357 332.5,0.54335163 c 12.0881,0.0582265 18.79569,2.67793567 26.48971,10.34578837 3.09651,3.085973 6.30215,6.689456 7.12365,8.00774 1.45064,2.327862 1.64575,2.36039 6.77611,1.129637 9.69897,-2.326749 19.80029,0.570577 23.3865,6.707873 0.97679,1.671627 2.91434,8.543744 4.30568,15.271372 2.8632,13.844661 4.55319,18.708994 8.55493,24.623917 3.11284,4.601046 3.65529,4.907058 12.86342,7.256561 l 6.5,1.658511 0.17102,-5.699615 c 0.71555,-23.84735 27.85395,-35.415401 44.36028,-18.909074 7.17514,7.175138 9.43633,15.869522 6.58836,25.332584 -2.61602,8.692393 -9.86945,15.758243 -18.3752,17.900015 -3.42709,0.862952 -4.21123,1.441989 -3.67555,2.71416 4.96577,11.793019 6.41558,23.736579 4.01705,33.092529 -2.54376,9.92249 -7.11099,16.69541 -16.35648,24.25568 -3.14149,2.56887 -3.33113,3.13986 -4.80649,14.47168 -0.84477,6.48851 -2.10004,14.95987 -2.78949,18.82525 -1.11736,6.26456 -1.06218,7.45941 0.50803,11 0.96886,2.18462 2.05272,6.27456 2.40858,9.08875 1.29725,10.25869 -0.1725,13.64264 -22.15581,51.01131 -11.283,19.17959 -21.69778,36.11062 -23.14395,37.62452 C 391.45557,300.22503 385.08345,303 379.75623,303 h -4.61232 l -0.64842,5.75 c -2.21243,19.61922 -11.76982,34.53469 -28.28612,44.14396 -12.709,7.39415 -16.82816,8.47414 -32.20937,8.44485 -11.747,-0.0224 -14.66867,-0.37727 -22.5,-2.73309 -10.57136,-3.18008 -28.54339,-11.58557 -38.18572,-17.85941 -3.74785,-2.43856 -25.2328,-21.14805 -47.74433,-41.57665 -22.51152,-20.42859 -41.10013,-36.97282 -41.308,-36.76494 -0.20788,0.20788 -5.2388,16.49352 -11.17984,36.19031 l -10.80187,35.81235 5.0088,11.04631 c 8.60026,18.96685 8.67338,23.52649 0.54944,34.25971 -2.7871,3.68226 -5.43928,7.61563 -5.89373,8.74081 -0.87733,2.17217 -3.27136,15.21634 -5.50253,29.98125 -1.94922,12.89904 -6.53518,21.54375 -15.28592,28.81454 -3.65339,3.03553 -8.88552,3.63056 -13.0599,1.48526 z M 114.5,406.90125 c 7.30247,-1.98552 12.5,-8.84243 12.5,-16.49079 0,-5.2777 2.82939,-23.90118 4.69609,-30.91046 0.87886,-3.3 3.09839,-9.30774 4.93229,-13.35053 2.6061,-5.74505 3.10936,-7.77099 2.30415,-9.27554 -0.78994,-1.47602 -0.0757,-5.12606 3.06238,-15.64947 2.25093,-7.54845 4.28317,-14.28534 4.51608,-14.97085 0.3957,-1.16466 -6.18759,-5.25361 -8.4584,-5.25361 -0.66755,0 -0.80585,2.61722 -0.39507,7.47668 1.05241,12.45001 -2.14085,17.91528 -14.94088,25.57131 -4.80007,2.87105 -6.21157,4.54123 -11.59114,13.71541 L 105,358.20966 v 24.2285 c 0,13.32568 0.3,24.52851 0.66667,24.89517 0.9702,0.97021 4.26947,0.80883 8.83333,-0.43208 z M 92.6849,344.93339 c 4.661758,-1.76629 7.308018,-4.98721 11.85829,-14.43339 6.44851,-13.38686 13.90308,-24.87553 21.07138,-32.47431 4.10359,-4.35001 6.39442,-7.61881 6.41058,-9.14729 0.0151,-1.43141 3.79695,-7.35544 9.49813,-14.8784 l 9.47298,-12.5 -7.50162,-7.27247 c -9.30343,-9.01923 -27.44283,-21.04155 -28.8366,-19.11213 -0.1528,0.21153 -7.62643,21.0846 -16.608063,46.3846 -8.98163,25.3 -17.606925,49.49039 -19.167324,53.75643 l -2.837087,7.75643 3.227217,1.41199 c 3.940409,1.72404 9.634255,1.93993 13.412117,0.50854 z M 257.948,329.75 c -0.0669,-1.60778 -74.09684,-104.0085 -75.51713,-104.45784 -1.38768,-0.43903 -31.6726,39.50769 -30.89992,40.75792 0.3229,0.52246 0.94272,0.94992 1.37738,0.94992 0.43466,0 7.0456,-8.30427 14.69098,-18.45393 7.64538,-10.14965 14.17807,-18.47465 14.51709,-18.5 0.33902,-0.0253 16.97667,22.67893 36.97256,50.45393 19.99589,27.775 36.93101,50.5 37.6336,50.5 0.70259,0 1.25404,-0.5625 1.22544,-1.25 z m 65.97942,-87.38486 C 325.06734,240.91597 326,238.87304 326,237.8253 c 0,-2.94233 -3.40495,-8.8199 -8.29083,-14.3115 l -4.43623,-4.98619 -6.2093,1.98619 c -8.9073,2.84923 -7.65031,4.57818 2.43636,3.35115 4.65078,-0.56577 3.74738,2.21926 -1.26146,3.88887 -4.69873,1.56624 -7.4301,4.96591 -5.1022,6.35059 0.75001,0.44612 4.96366,3.04351 9.36366,5.77197 4.4,2.72846 8.30484,4.99746 8.67742,5.04223 0.37258,0.0448 1.61008,-1.1043 2.75,-2.55347 z m -20.74837,-24.56197 c 7.11893,-2.29281 7.71979,-2.81231 5.4406,-4.70387 -1.06105,-0.88059 -3.02725,-0.53514 -8.5,1.49342 -6.85878,2.5423 -7.89214,3.30146 -6.45298,4.74061 1.0222,1.02221 2.1516,0.84054 9.51238,-1.53016 z M 295.75,212.04158 c 3.9875,-1.33938 7.25,-2.79667 7.25,-3.23841 0,-1.27136 -4.69992,-0.93973 -10.84609,0.76529 -8.96989,2.48837 -8.54799,2.25177 -7.10849,3.98626 0.69886,0.84208 1.76204,1.39404 2.36262,1.22659 0.60058,-0.16746 4.35446,-1.40034 8.34196,-2.73973 z m -13.59565,-5.28723 c -1.14518,-1.14518 -3.44675,-0.0365 -2.63864,1.27107 0.30159,0.48798 1.23918,0.62213 2.08353,0.29812 1.00267,-0.38476 1.19522,-0.92908 0.55511,-1.56919 z M 294,205.03797 c 2.74136,-0.8363 2.62352,-0.92256 -4.75,-3.47694 -4.02842,-1.39555 -4.25,-1.37294 -4.25,0.43364 0,3.3435 3.80187,4.62908 9,3.0433 z m 144.06244,-49.80214 c 1.28537,-9.4953 2.68343,-17.8203 3.10679,-18.5 0.61029,-0.97983 1.18755,-0.9769 2.78669,0.0142 3.20043,1.98347 5.97304,1.47488 9.121,-1.67308 2.33791,-2.3379 2.92001,-3.78928 2.90777,-7.25 -0.0177,-5.00364 -1.32053,-8.00009 -2.33214,-5.36386 -0.34418,0.89692 -1.19431,1.55633 -1.88917,1.46537 -3.58398,-0.46919 -4.97155,0.32553 -6.35675,3.64079 -1.71998,4.11649 -4.00744,4.04564 -3.69291,-0.11438 0.27139,-3.58936 3.10297,-6.43562 7.41569,-7.45412 l 3.37059,-0.796 -2.94528,-0.10236 c -1.89982,-0.066 -3.89646,0.80893 -5.62496,2.46493 l -2.67967,2.5673 -12.54149,-5.16632 c -13.61465,-5.60842 -13.01239,-4.98775 -14.28152,-14.7183 -0.37661,-2.8875 -1.10635,-5.25 -1.62165,-5.25 -3.29697,0 -13.93414,8.501 -13.16035,10.51747 0.35484,0.9247 -0.33833,1.7956 -1.9025,2.3903 -4.19355,1.59439 -9.58499,12.9763 -11.24387,23.73704 -0.88439,5.73681 1.02125,15.03141 4.0068,19.54289 3.0824,4.65781 9.03327,7.81545 14.70465,7.80253 4.84492,-0.011 12.6868,-3.32637 17.51937,-7.40673 3.11905,-2.63356 5.2705,-2.7456 5.27044,-0.27448 -6e-5,2.40594 -10.09994,8.90021 -17.24997,11.09181 -0.9625,0.29502 -1.75,1.15006 -1.75,1.90009 0,1.7793 25.18697,6.8465 26.1127,5.25345 0.33698,-0.5799 1.66437,-8.82325 2.94974,-18.31854 z m -44.95816,-3.15022 c -1.8996,-1.20282 -0.57945,-4.48193 1.4854,-3.68957 0.86505,0.33195 2.53639,-0.0714 3.71408,-0.89625 4.7691,-3.34041 6.6627,-0.19177 2.06138,3.42763 -2.82439,2.22167 -5.02656,2.57294 -7.26086,1.15819 z m 1.0558,-12.32553 C 393.52204,139.12204 393,137.77207 393,136.76016 393,133.866 396.88339,127 398.52032,127 c 1.8567,0 1.84744,2.73269 -0.0203,6 -0.78602,1.375 -1.44508,3.48594 -1.46456,4.69098 -0.0436,2.69409 -1.3269,3.61756 -2.87536,2.0691 z m 11.50659,-8.42675 c -1.18202,-1.18201 -0.71021,-4.05231 0.88352,-5.37498 1.27622,-1.05917 1.82367,-1.01306 3.09762,0.26089 1.22644,1.22644 1.31245,1.98649 0.41463,3.6641 -1.11916,2.09115 -3.10091,2.74486 -4.39577,1.44999 z m -14.99071,-5.73537 c -0.31663,-0.82512 0.20831,-2.46842 1.16652,-3.65176 1.61882,-1.99915 1.84135,-2.03209 3.14188,-0.46505 1.02375,1.23354 1.11787,2.13399 0.35047,3.35267 -1.39525,2.21573 -3.94157,2.63337 -4.65887,0.76414 z m 25.90101,-5.53804 c -5.71194,-3.7654 -5.40975,-7.57617 0.36402,-4.59044 3.10566,1.60601 5.46116,4.79504 4.35716,5.89904 -0.95215,0.95215 -1.53808,0.78974 -4.72118,-1.3086 z M 403.44121,64.886313 c -2.80502,-5.424305 -4.49627,-11.049603 -7.01576,-23.335157 -1.74201,-8.494415 -3.07583,-12.614551 -4.61368,-14.251521 -2.16121,-2.300496 -7.5356,-4.320753 -11.31177,-4.252143 -1.54408,0.02806 -1.25959,0.431331 1.24801,1.769074 4.51063,2.406315 5.55986,4.199499 11.19682,19.135879 2.72502,7.220559 6.36024,15.585124 8.07827,18.587922 3.33265,5.824867 5.1076,7.546847 2.41811,2.345946 z m 72.04762,-3.921497 C 474.06051,56.464574 463.07039,46.596275 461.375,48.291662 c -0.24152,0.241524 0.94337,1.011785 2.6331,1.711692 3.55325,1.471805 9.79659,8.370281 10.64896,11.766398 0.32072,1.277864 0.79518,2.111344 1.05434,1.852179 0.25917,-0.259166 0.15901,-1.454867 -0.22257,-2.657115 z M 307.96863,16.967998 C 321.09401,3.9585702 339.20843,3.0919037 357,14.62214 c 1.375,0.8911 0.925,0.216843 -1,-1.498349 -1.925,-1.715192 -5.975,-4.3572149 -9,-5.8711613 -4.80364,-2.4041178 -6.63949,-2.7483811 -14.5,-2.7190736 -7.72127,0.028788 -9.7994,0.4215209 -14.62639,2.7641429 -6.07004,2.945902 -13.66713,10.312563 -16.28916,15.795096 -1.56639,3.275235 -1.56286,3.310373 0.0911,0.907205 0.94636,-1.375 3.77822,-4.539401 6.29304,-7.032002 z M 258,184.94098 c 0,-0.58246 0.45,-0.7809 1,-0.44098 0.55,0.33992 1,0.81648 1,1.05902 0,0.24254 -0.45,0.44098 -1,0.44098 -0.55,0 -1,-0.47656 -1,-1.05902 z m -4,-4 c 0,-0.58246 0.45,-0.7809 1,-0.44098 0.55,0.33992 1,0.81648 1,1.05902 0,0.24254 -0.45,0.44098 -1,0.44098 -0.55,0 -1,-0.47656 -1,-1.05902 z M 250.5,178 c -0.33992,-0.55 -0.14148,-1 0.44098,-1 0.58246,0 1.05902,0.45 1.05902,1 0,0.55 -0.19844,1 -0.44098,1 -0.24254,0 -0.7191,-0.45 -1.05902,-1 z m -17,-17 c -0.33992,-0.55 0.11008,-1 1,-1 0.88992,0 1.33992,0.45 1,1 -0.33992,0.55 -0.78992,1 -1,1 -0.21008,0 -0.66008,-0.45 -1,-1 z M 53.932652,144.17137 46.95583,133.34274 31.129252,133.79887 C 12.777547,134.32777 9.7347308,133.66254 4.622474,128.00388 -0.67162682,122.14395 -0.76076561,119.66303 3.4415333,95.135885 7.7265106,70.126176 8.290619,67.996502 11.705052,63.938679 c 4.47685,-5.320434 7.093269,-6.03124 25.46702,-6.918657 9.328217,-0.450536 17.099961,-0.976851 17.270542,-1.169589 C 54.613195,55.657695 56.207069,48.525 57.984557,40 61.670353,22.322566 62.617023,20.017846 67.408682,17.056438 70.779205,14.97334 71.669173,14.92706 102.91754,15.209894 L 134.96923,15.5 l 3.62419,3.625467 c 5.73097,5.733 5.61561,8.531655 -1.43213,34.743187 -6.47348,24.075787 -7.94886,27.013033 -14.57624,29.018807 -1.69678,0.513531 -12.05874,1.210124 -23.026587,1.547986 -10.967845,0.337861 -20.15603,0.828787 -20.418189,1.090946 -0.262159,0.262159 -3.097902,12.738467 -6.301652,27.725127 -3.20375,14.98667 -6.533759,30.51098 -7.400021,34.49848 -1.089879,5.01683 -2.029989,7.25 -3.052074,7.25 -0.812379,0 -4.616623,-4.87288 -8.453875,-10.82863 z M 65.325955,129.25 c 2.071035,-9.7625 5.043006,-23.7125 6.604381,-31 L 74.7692,85 h -6.34216 -6.34216 l -8.204703,8.504404 c -4.512586,4.677422 -8.328992,8.380116 -8.480902,8.228206 -0.15191,-0.15191 1.669937,-9.491394 4.048549,-20.754406 2.378612,-11.263012 4.26342,-20.538637 4.188463,-20.6125 -0.07496,-0.07386 -7.364701,0.208598 -16.19943,0.627692 C 18.639811,61.885073 15.817763,62.847408 13.016168,69.320999 12.02146,71.619449 9.5038134,83.625 7.4213968,96 c -3.7799349,22.4627 -3.783141,22.50641 -1.9338397,26.36806 3.4780899,7.26283 5.5183879,7.84477 25.7183859,7.33549 l 17.705942,-0.4464 5.794058,8.85574 c 3.186731,4.87065 6.032655,8.86279 6.324276,8.87142 0.29162,0.009 2.224701,-7.97181 4.295736,-17.73431 z M 224.5,152.81103 l -2,-2.0701 2.11852,1.09435 c 1.16518,0.60189 2.40268,0.81019 2.75,0.46287 0.34731,-0.34732 0.63148,0.11852 0.63148,1.03518 0,2.17936 -1.03974,2.0242 -3.5,-0.5223 z M 222.5,149 c -0.33992,-0.55 -0.14148,-1 0.44098,-1 0.58246,0 1.05902,0.45 1.05902,1 0,0.55 -0.19844,1 -0.44098,1 -0.24254,0 -0.7191,-0.45 -1.05902,-1 z m 32.5,-5 c 0,-0.55 0.47656,-1 1.05902,-1 0.58246,0 0.7809,0.45 0.44098,1 -0.33992,0.55 -0.81648,1 -1.05902,1 C 255.19844,145 255,144.55 255,144 Z m -37,-2 c 0.825,-0.53316 2.175,-0.96937 3,-0.96937 1.33333,0 1.33333,0.1077 0,0.96937 -0.825,0.53316 -2.175,0.96937 -3,0.96937 -1.33333,0 -1.33333,-0.1077 0,-0.96937 z m -6.1875,-8.68311 c 0.72187,-0.28887 1.58437,-0.25335 1.91667,0.0789 0.33229,0.33229 -0.25834,0.56864 -1.3125,0.52522 -1.16495,-0.048 -1.4019,-0.28494 -0.60417,-0.60416 z m -14.14583,-6.98356 C 196.51603,125.1827 196.93843,124 198.5,124 c 0.825,0 1.5,0.675 1.5,1.5 0,1.56157 -1.1827,1.98397 -2.33333,0.83333 z M 190,119 c -0.90129,-0.58246 -1.02463,-0.97549 -0.30902,-0.98469 0.65504,-0.008 1.4691,0.43469 1.80902,0.98469 0.7673,1.24153 0.42112,1.24153 -1.5,0 z m 14.07895,-16.58333 c 0.048,-1.16495 0.28494,-1.4019 0.60416,-0.60417 0.28887,0.72187 0.25335,1.58437 -0.0789,1.91667 -0.3323,0.33229 -0.56864,-0.25834 -0.52522,-1.3125 z m 13.62943,0.95838 c -0.31382,-0.31382 -0.33341,-1.18864 -0.0435,-1.94403 0.42316,-1.10276 -0.0817,-1.06977 -2.56173,0.16743 -1.96432,0.97993 -3.91049,1.26137 -5.34595,0.77309 -1.24144,-0.42229 -2.59467,-0.67863 -3.00717,-0.56967 -0.4125,0.10897 -0.6375,-0.36437 -0.5,-1.05187 0.1375,-0.6875 -0.20082,-1.174728 -0.75182,-1.082728 -0.551,0.092 -1.13503,-2.026195 -1.29786,-4.707099 -0.30233,-4.977794 1.28932,-9.461793 4.22273,-11.896313 0.85521,-0.70976 1.26274,-1.801986 0.90561,-2.427167 -0.35712,-0.625181 -0.31391,-0.835938 0.096,-0.468348 0.40993,0.36759 2.0944,0.198058 3.74326,-0.376738 2.51355,-0.876229 3.46064,-0.702985 5.86178,1.072254 1.69232,1.251184 3.1143,1.712107 3.47608,1.126739 0.33672,-0.54483 0.0607,-0.9906 -0.61346,-0.9906 -0.67413,0 -0.95562,-0.270061 -0.62555,-0.600136 0.33008,-0.330074 1.10193,-0.290012 1.71523,0.08903 0.81771,0.505374 0.81249,1.053767 -0.0196,2.056331 -0.62406,0.751942 -0.78278,1.936502 -0.35272,2.632354 1.19931,1.940529 0.54499,6.593241 -1.49857,10.655859 -1.01438,2.01661 -1.71945,4.452272 -1.56682,5.412592 0.28824,1.81358 -0.84143,3.12356 -1.83598,2.12902 z m -2.10599,-7.886532 c 2.03408,-2.03408 2.45314,-3.315533 2.20455,-6.741373 -0.37613,-5.183427 -2.61876,-6.026229 -6.28357,-2.361423 -3.94515,3.945152 -3.46527,11.114781 0.77208,11.535331 0.4375,0.04342 1.92563,-1.05122 3.30694,-2.432535 z m -5.14351,0.444951 c -0.36253,-0.586592 -0.44468,-1.281 -0.18255,-1.543128 0.26212,-0.262129 0.74306,0.21781 1.06875,1.066531 0.67618,1.762107 0.0999,2.072058 -0.8862,0.476597 z m 5.12407,-6.799254 c -0.43077,-0.697003 -0.51316,-1.537338 -0.18309,-1.867413 0.89497,-0.894961 1.87077,0.421303 1.38739,1.871444 -0.33872,1.016175 -0.57427,1.015386 -1.2043,-0.004 z M 213,87.059017 c 0,-0.517541 0.44485,-1.215913 0.98855,-1.551938 0.56686,-0.350339 0.7345,0.05106 0.39301,0.940983 C 213.71677,88.180479 213,88.497449 213,87.059017 Z m -33,-16.5 c 0,-0.792541 0.45,-1.719098 1,-2.059017 0.55,-0.339919 1,0.308524 1,1.440983 C 182,71.073442 181.55,72 181,72 c -0.55,0 -1,-0.648442 -1,-1.440983 z m 2,-4.5 c 0,-0.517541 0.45,-1.219098 1,-1.559017 0.55,-0.339919 1,0.08352 1,0.940983 C 184,66.298442 183.55,67 183,67 c -0.55,0 -1,-0.423442 -1,-0.940983 z m 77,-11.223574 c 0,-1.379338 1.57662,-1.669116 5.02471,-0.923522 l 3.47529,0.751476 -4.25,0.444728 c -2.3375,0.2446 -4.25,0.121893 -4.25,-0.272682 z M 225,53.5 C 223.98043,52.271492 224.04876,52 225.37756,52 226.2699,52 227,52.675 227,53.5 227,54.325 226.8301,55 226.62244,55 226.41479,55 225.68469,54.325 225,53.5 Z M 276,53 c 0,-0.55 0.45,-1 1,-1 0.55,0 1,0.45 1,1 0,0.55 -0.45,1 -1,1 -0.55,0 -1,-0.45 -1,-1 z m -79.1875,-1.683114 c 0.72187,-0.288871 1.58437,-0.253344 1.91667,0.07895 0.33229,0.332292 -0.25834,0.568641 -1.3125,0.52522 -1.16495,-0.04798 -1.4019,-0.284941 -0.60417,-0.604167 z"
         id="path4" />
      <path
         style="fill:#9ea7b4"
         d="m 108.0964,448.73526 c -1.32198,-0.67939 -3.34698,-2.50492 -4.5,-4.05672 -2.01881,-2.71704 -2.11491,-4.21607 -2.5964,-40.5 L 100.5,366.5 98.186325,370.22106 C 93.30784,378.06708 80.010627,387 73.209809,387 c -4.434502,0 -9.486278,-3.92377 -11.132038,-8.64636 l -1.42223,-4.08117 19.296038,-54.11081 19.296037,-54.1108 -0.373808,-43.77543 c -0.364565,-42.69297 -0.322173,-43.88698 1.714342,-48.28665 4.37546,-9.45273 14.34448,-15.97247 24.41185,-15.96536 6.78094,0.005 10,0.81024 10,2.50211 0,0.71074 -5.625,17.03522 -12.5,36.27662 -6.875,19.24139 -12.5,35.48239 -12.5,36.0911 0,0.60871 0.6013,1.10675 1.33623,1.10675 1.63591,0 27.55741,-72.0646 27.51691,-76.5 -0.0354,-3.87697 8.4018,-26.77575 11.70464,-31.76668 2.56,-3.86842 10.02313,-9.3276 14.19222,-10.38141 2.47096,-0.62458 2.95447,-1.91393 1,-2.66666 -0.6875,-0.26477 -0.26868,-0.43386 0.93072,-0.37574 1.1994,0.0581 1.96034,0.46225 1.69098,0.89808 -0.26935,0.43582 1.67432,0.81216 4.31928,0.8363 2.64496,0.0241 6.60902,0.7108 8.80902,1.52591 2.2,0.8151 4.42164,1.58285 4.93698,1.7061 0.51534,0.12326 1.96974,1.3491 3.232,2.7241 1.5675,1.7075 2.53847,2.13883 3.06302,1.36066 0.54914,-0.81466 1.18612,-0.68917 2.23524,0.44036 1.30832,1.40858 1.25416,1.49855 -0.5,0.83066 -1.23426,-0.46995 -0.48134,0.77658 2.02079,3.34557 2.19341,2.25203 4.13902,3.64161 4.32356,3.08797 0.20676,-0.62027 0.84055,-0.53811 1.65131,0.21408 0.84932,0.78795 0.95373,1.44777 0.29455,1.86123 -0.58238,0.36527 0.002,1.28914 1.36066,2.14986 2.69205,1.70588 41.75545,4.52382 43.94574,3.17015 0.80382,-0.49679 0.99226,-0.36035 0.53164,0.38495 C 248.11442,137.62388 248.89776,138 251,138 c 1.71492,0 2.88627,-0.375 2.60301,-0.83333 -0.28327,-0.45834 0.15517,-0.83334 0.97431,-0.83334 1.02493,0 1.16712,0.32223 0.45601,1.03334 -1.44769,1.44769 -1.29169,2.90243 0.21667,2.02045 0.6875,-0.402 0.46152,0.17046 -0.50218,1.27214 -0.9637,1.10167 -1.42317,2.33206 -1.02103,2.73419 0.40213,0.40214 -0.52618,0.25312 -2.06292,-0.33115 C 248.04,141.68451 235.87862,141.62906 238,143 c 1.18736,0.76733 0.97894,0.96937 -1,0.96937 -1.375,0 -3.175,-0.47258 -4,-1.05019 -1.17423,-0.82211 -1.01135,-0.91274 0.75,-0.4173 1.32332,0.37223 2.25,0.19329 2.25,-0.43449 0,-0.6256 -2.37994,-1.09298 -5.75,-1.12921 -3.1625,-0.034 -8.98673,-0.38656 -12.94273,-0.78346 -5.7683,-0.57872 -6.98359,-0.46964 -6.13669,0.55082 0.58082,0.69984 1.56755,0.98025 2.19273,0.62312 0.62518,-0.35712 0.79289,-0.27086 0.37269,0.19168 -0.896,0.98629 4.2014,6.63639 5.34793,5.92779 0.42783,-0.26441 1.1035,0.0461 1.50148,0.69007 0.48853,0.79045 0.26732,0.91126 -0.6809,0.37185 -0.77248,-0.43942 0.58253,1.27153 3.01114,3.80213 2.42861,2.53061 4.86064,4.32608 5.40451,3.98995 0.54387,-0.33613 0.71398,-0.16639 0.37802,0.37721 -0.33596,0.54359 2.01847,3.50934 5.23207,6.59055 4.63241,4.44157 6.31314,5.47922 8.1127,5.00863 1.58714,-0.41505 2.0516,-0.24053 1.54432,0.58027 -0.39901,0.64561 -1.25687,0.86893 -1.90637,0.49627 -0.64949,-0.37266 -0.0854,0.52482 1.25347,1.99439 1.84267,2.02251 2.65554,2.36553 3.34433,1.41125 0.66086,-0.91558 0.77081,-0.82061 0.40164,0.34694 -0.55957,1.76973 15.73231,18.76618 16.53613,17.25127 0.25066,-0.4724 0.337,-0.34431 0.19187,0.28464 -0.32771,1.42022 4.07844,5.66385 6.2048,5.97593 0.86357,0.12675 1.86639,0.56091 2.22849,0.96481 0.3621,0.4039 -0.24087,0.40891 -1.33994,0.0111 -1.58331,-0.57303 -1.39576,-0.0943 0.90302,2.30511 1.59574,1.66559 3.35201,2.74982 3.90282,2.40939 0.55082,-0.34042 0.71191,-0.15041 0.35799,0.42225 -0.88122,1.42585 1.73729,3.43421 3.56374,2.73334 1.03822,-0.3984 1.39816,-1.75671 1.20058,-4.53064 -0.1552,-2.17891 0.1035,-3.72329 0.57489,-3.43196 0.47139,0.29134 1.13973,0.0724 1.48519,-0.48661 1.01252,-1.63829 3.55126,-1.19642 11.32394,1.97094 9.21344,3.75447 17.01503,9.89383 24.68614,19.42642 3.3,4.10079 6.59392,7.4853 7.31982,7.52115 0.72591,0.0359 3.31341,-1.30644 5.75,-2.98286 4.01818,-2.76457 4.43726,-3.43882 4.50626,-7.25 0.0889,-4.90919 1.61873,-9.3417 4.42392,-12.8177 C 343.14613,199.60536 359.93224,187 361.6525,187 c 3.31891,0 0.63433,3.25642 -8.28358,10.04801 -11.52777,8.7792 -13.36011,11.40663 -13.36518,19.16473 L 340,221.92548 334,226 c -3.3,2.24099 -6,4.47711 -6,4.96917 0,1.01296 3.71095,3.78665 9.25,6.91375 2.0625,1.16439 5.4375,3.09074 7.5,4.28077 17.7227,10.22571 26.61783,14.85193 27.22158,14.15752 0.39271,-0.45166 5.14141,-6.67121 10.55267,-13.82121 14.89489,-19.68089 19.57482,-25.5 20.50801,-25.5 2.78386,0 1.23585,3.28679 -6.02763,12.79804 -4.49503,5.88608 -11.62245,15.29058 -15.83871,20.89889 -4.21625,5.60832 -8.17368,10.41069 -8.79428,10.67194 -0.6206,0.26126 -4.85221,-1.73986 -9.40358,-4.44693 C 358.4167,254.21487 354.59047,252 354.46532,252 c -0.12515,0 -5.34354,-2.92259 -11.59643,-6.49465 -6.25289,-3.57206 -11.69724,-6.49706 -12.09857,-6.5 -0.40132,-0.003 -1.59093,1.68215 -2.64359,3.74465 -2.43734,4.77558 -5.61606,7.65994 -7.60185,6.89792 -3.65025,-1.40073 2.24212,10.67462 6.74937,13.83162 1.04412,0.73133 7.14706,6.4401 13.56208,12.68616 20.45771,19.91888 26.11398,24.74383 30.34158,25.88221 l 3.952,1.06416 -0.64142,5.69396 c -2.20302,19.55655 -11.78137,34.48946 -28.27912,44.08793 -12.709,7.39415 -16.82816,8.47414 -32.20937,8.44485 -11.747,-0.0224 -14.66867,-0.37727 -22.5,-2.73309 -10.57136,-3.18008 -28.54339,-11.58557 -38.18572,-17.85941 -3.74785,-2.43856 -25.2328,-21.14805 -47.74433,-41.57665 -22.51152,-20.42859 -41.10013,-36.97282 -41.308,-36.76494 -0.20788,0.20788 -5.2388,16.49352 -11.17984,36.19031 l -10.80187,35.81235 5.0088,11.04631 c 8.60026,18.96685 8.67338,23.52649 0.54944,34.25971 -2.7871,3.68226 -5.43928,7.61563 -5.89373,8.74081 -0.87733,2.17217 -3.27136,15.21634 -5.50253,29.98125 -1.94922,12.89904 -6.53518,21.54375 -15.28592,28.81454 -3.65339,3.03553 -8.88552,3.63056 -13.0599,1.48526 z M 114.5,406.90125 c 7.30247,-1.98552 12.5,-8.84243 12.5,-16.49079 0,-5.2777 2.82939,-23.90118 4.69609,-30.91046 0.87886,-3.3 3.09839,-9.30774 4.93229,-13.35053 2.6061,-5.74505 3.10936,-7.77099 2.30415,-9.27554 -0.78994,-1.47602 -0.0757,-5.12606 3.06238,-15.64947 2.25093,-7.54845 4.28317,-14.28534 4.51608,-14.97085 0.3957,-1.16466 -6.18759,-5.25361 -8.4584,-5.25361 -0.66755,0 -0.80585,2.61722 -0.39507,7.47668 1.05241,12.45001 -2.14085,17.91528 -14.94088,25.57131 -4.80007,2.87105 -6.21157,4.54123 -11.59114,13.71541 L 105,358.20966 v 24.2285 c 0,13.32568 0.3,24.52851 0.66667,24.89517 0.9702,0.97021 4.26947,0.80883 8.83333,-0.43208 z M 92.6849,344.93339 c 4.661758,-1.76629 7.308018,-4.98721 11.85829,-14.43339 6.44851,-13.38686 13.90308,-24.87553 21.07138,-32.47431 4.10359,-4.35001 6.39442,-7.61881 6.41058,-9.14729 0.0151,-1.43141 3.79695,-7.35544 9.49813,-14.8784 l 9.47298,-12.5 -7.50162,-7.27247 c -9.30343,-9.01923 -27.44283,-21.04155 -28.8366,-19.11213 -0.1528,0.21153 -7.62643,21.0846 -16.608063,46.3846 -8.98163,25.3 -17.606925,49.49039 -19.167324,53.75643 l -2.837087,7.75643 3.227217,1.41199 c 3.940409,1.72404 9.634255,1.93993 13.412117,0.50854 z M 257.948,329.75 c -0.0669,-1.60778 -74.09684,-104.0085 -75.51713,-104.45784 -1.38768,-0.43903 -31.6726,39.50769 -30.89992,40.75792 0.3229,0.52246 0.94272,0.94992 1.37738,0.94992 0.43466,0 7.0456,-8.30427 14.69098,-18.45393 7.64538,-10.14965 14.17807,-18.47465 14.51709,-18.5 0.33902,-0.0253 16.97667,22.67893 36.97256,50.45393 19.99589,27.775 36.93101,50.5 37.6336,50.5 0.70259,0 1.25404,-0.5625 1.22544,-1.25 z m 65.97942,-87.38486 C 325.06734,240.91597 326,238.87304 326,237.8253 c 0,-2.94233 -3.40495,-8.8199 -8.29083,-14.3115 l -4.43623,-4.98619 -6.2093,1.98619 c -8.9073,2.84923 -7.65031,4.57818 2.43636,3.35115 4.65078,-0.56577 3.74738,2.21926 -1.26146,3.88887 -4.69873,1.56624 -7.4301,4.96591 -5.1022,6.35059 0.75001,0.44612 4.96366,3.04351 9.36366,5.77197 4.4,2.72846 8.30484,4.99746 8.67742,5.04223 0.37258,0.0448 1.61008,-1.1043 2.75,-2.55347 z m -20.74837,-24.56197 c 7.11893,-2.29281 7.71979,-2.81231 5.4406,-4.70387 -1.06105,-0.88059 -3.02725,-0.53514 -8.5,1.49342 -6.85878,2.5423 -7.89214,3.30146 -6.45298,4.74061 1.0222,1.02221 2.1516,0.84054 9.51238,-1.53016 z M 295.75,212.04158 c 3.9875,-1.33938 7.25,-2.79667 7.25,-3.23841 0,-1.27136 -4.69992,-0.93973 -10.84609,0.76529 -8.96989,2.48837 -8.54799,2.25177 -7.10849,3.98626 0.69886,0.84208 1.76204,1.39404 2.36262,1.22659 0.60058,-0.16746 4.35446,-1.40034 8.34196,-2.73973 z m -13.59565,-5.28723 c -1.14518,-1.14518 -3.44675,-0.0365 -2.63864,1.27107 0.30159,0.48798 1.23918,0.62213 2.08353,0.29812 1.00267,-0.38476 1.19522,-0.92908 0.55511,-1.56919 z M 294,205.03797 c 2.74136,-0.8363 2.62352,-0.92256 -4.75,-3.47694 -4.02842,-1.39555 -4.25,-1.37294 -4.25,0.43364 0,3.3435 3.80187,4.62908 9,3.0433 z m -36,-20.09699 c 0,-0.58246 0.45,-0.7809 1,-0.44098 0.55,0.33992 1,0.81648 1,1.05902 0,0.24254 -0.45,0.44098 -1,0.44098 -0.55,0 -1,-0.47656 -1,-1.05902 z m -4,-4 c 0,-0.58246 0.45,-0.7809 1,-0.44098 0.55,0.33992 1,0.81648 1,1.05902 0,0.24254 -0.45,0.44098 -1,0.44098 -0.55,0 -1,-0.47656 -1,-1.05902 z M 250.5,178 c -0.33992,-0.55 -0.14148,-1 0.44098,-1 0.58246,0 1.05902,0.45 1.05902,1 0,0.55 -0.19844,1 -0.44098,1 -0.24254,0 -0.7191,-0.45 -1.05902,-1 z m 186.27607,-1.74387 c -1.39819,-1.58925 -1.2878,-3.5368 1.16173,-20.49506 1.4887,-10.30642 3.03218,-19.06438 3.42995,-19.46215 0.39776,-0.39777 1.59664,-0.17774 2.66416,0.48893 3.11801,1.94724 5.91614,1.41795 9.04501,-1.71093 2.33791,-2.3379 2.92001,-3.78928 2.90777,-7.25 -0.0177,-5.00364 -1.32053,-8.00009 -2.33214,-5.36386 -0.34418,0.89692 -1.19431,1.55633 -1.88917,1.46537 -3.58398,-0.46919 -4.97155,0.32553 -6.35675,3.64079 -1.71998,4.11649 -4.00744,4.04564 -3.69291,-0.11438 0.27139,-3.58936 3.10297,-6.43562 7.41569,-7.45412 l 3.37059,-0.796 -2.94528,-0.10236 c -1.89982,-0.066 -3.89646,0.80893 -5.62496,2.46493 l -2.67967,2.5673 -12.54149,-5.16632 C 415.09395,113.35988 415.69621,113.98055 414.42708,104.25 414.05047,101.3625 413.32073,99 412.80543,99 c -3.29697,0 -13.93414,8.501 -13.16035,10.51747 0.35484,0.9247 -0.33833,1.7956 -1.9025,2.3903 -4.19355,1.59439 -9.58499,12.9763 -11.24387,23.73704 -0.88439,5.73681 1.02125,15.03141 4.0068,19.54289 3.0824,4.65781 9.03327,7.81545 14.70465,7.80253 4.84492,-0.011 12.6868,-3.32637 17.51937,-7.40673 3.11905,-2.63356 5.2705,-2.7456 5.27044,-0.27448 -6e-5,2.46437 -12.73802,10.69098 -16.55375,10.69098 -0.8984,0 -1.86881,0.9 -2.15647,2 -0.62429,2.38727 -1.62274,2.52416 -3.64689,0.5 -0.825,-0.825 -2.31965,-1.50988 -3.32143,-1.52196 -3.43059,-0.0414 -9.83824,-3.66369 -13.14699,-7.43215 -4.00657,-4.56323 -4.96964,-6.92983 -6.60012,-16.21884 -1.05229,-5.99494 -1.93896,-7.98501 -5.39901,-12.11767 -11.23158,-13.41488 -16.00541,-15.45275 -28.48781,-12.16096 -18.67678,4.92534 -19.58909,5.07114 -25.21937,4.03032 C 303.95441,119.47143 296.08491,102.38017 301.957,76.360096 L 304.18218,66.5 l -3.62656,-6 C 293.9965,49.648183 292.36531,38.953301 295.58826,27.931501 298.85907,16.74603 305.73139,8.9201082 316.95263,3.6026372 322.80322,0.83018928 324.4578,0.50461357 332.5,0.54335163 c 12.0881,0.0582265 18.79569,2.67793567 26.48971,10.34578837 3.09651,3.085973 6.30215,6.689456 7.12365,8.00774 1.45064,2.327862 1.64575,2.36039 6.77611,1.129637 9.69897,-2.326749 19.80029,0.570577 23.3865,6.707873 0.97679,1.671627 2.91434,8.543744 4.30568,15.271372 2.8632,13.844661 4.55319,18.708994 8.55493,24.623917 3.11284,4.601046 3.65529,4.907058 12.86342,7.256561 l 6.5,1.658511 0.17102,-5.699615 c 0.71555,-23.84735 27.85395,-35.415401 44.36028,-18.909074 7.17514,7.175138 9.43633,15.869522 6.58836,25.332584 -2.61602,8.692393 -9.86945,15.758243 -18.3752,17.900015 -3.42709,0.862952 -4.21123,1.441989 -3.67555,2.71416 4.96577,11.793019 6.41558,23.736579 4.01705,33.092529 -2.54075,9.91073 -7.11525,16.70033 -16.32373,24.22812 -3.00753,2.45861 -3.34748,3.37729 -4.78062,12.91897 -0.84857,5.64967 -1.68183,10.41111 -1.85169,10.58098 -0.16987,0.16986 -1.0041,-0.48142 -1.85385,-1.44729 z M 403.44121,64.886313 c -2.80502,-5.424305 -4.49627,-11.049603 -7.01576,-23.335157 -1.74201,-8.494415 -3.07583,-12.614551 -4.61368,-14.251521 -2.16121,-2.300496 -7.5356,-4.320753 -11.31177,-4.252143 -1.54408,0.02806 -1.25959,0.431331 1.24801,1.769074 4.51063,2.406315 5.55986,4.199499 11.19682,19.135879 2.72502,7.220559 6.36024,15.585124 8.07827,18.587922 3.33265,5.824867 5.1076,7.546847 2.41811,2.345946 z m 72.04762,-3.921497 C 474.06051,56.464574 463.07039,46.596275 461.375,48.291662 c -0.24152,0.241524 0.94337,1.011785 2.6331,1.711692 3.55325,1.471805 9.79659,8.370281 10.64896,11.766398 0.32072,1.277864 0.79518,2.111344 1.05434,1.852179 0.25917,-0.259166 0.15901,-1.454867 -0.22257,-2.657115 z M 307.96863,16.967998 C 321.09401,3.9585702 339.20843,3.0919037 357,14.62214 c 1.375,0.8911 0.925,0.216843 -1,-1.498349 -1.925,-1.715192 -5.975,-4.3572149 -9,-5.8711613 -4.80364,-2.4041178 -6.63949,-2.7483811 -14.5,-2.7190736 -7.72127,0.028788 -9.7994,0.4215209 -14.62639,2.7641429 -6.07004,2.945902 -13.66713,10.312563 -16.28916,15.795096 -1.56639,3.275235 -1.56286,3.310373 0.0911,0.907205 0.94636,-1.375 3.77822,-4.539401 6.29304,-7.032002 z M 233.5,161 c -0.33992,-0.55 0.11008,-1 1,-1 0.88992,0 1.33992,0.45 1,1 -0.33992,0.55 -0.78992,1 -1,1 -0.21008,0 -0.66008,-0.45 -1,-1 z M 53.932652,144.17137 46.95583,133.34274 31.129252,133.79887 C 12.777547,134.32777 9.7347308,133.66254 4.622474,128.00388 -0.67162682,122.14395 -0.76076561,119.66303 3.4415333,95.135885 7.7265106,70.126176 8.290619,67.996502 11.705052,63.938679 c 4.701559,-5.587486 6.727013,-6.055241 31.036938,-7.167618 25.382734,-1.161468 28.333013,-0.727542 33.267944,4.893035 4.021403,4.580125 5.282082,9.866858 4.065062,17.04708 -0.815933,4.813877 -5.940135,28.982934 -14.637262,69.038824 -1.089364,5.01722 -2.029042,7.25 -3.051207,7.25 -0.812379,0 -4.616623,-4.87288 -8.453875,-10.82863 z M 66.935606,121.75 c 2.965505,-13.8875 6.444851,-30.2 7.73188,-36.25 1.409683,-6.626565 2.109412,-12.463735 1.759948,-14.681564 C 75.760822,66.587868 71.262051,61.354859 67.474432,60.404227 66.071608,60.052141 55.13563,60.206652 43.172257,60.747586 18.140081,61.879437 15.969627,62.4965 13.016168,69.320999 12.02146,71.619449 9.5038134,83.625 7.4213968,96 c -3.7799349,22.4627 -3.783141,22.50641 -1.9338397,26.36806 3.4780899,7.26283 5.5183879,7.84477 25.7183859,7.33549 l 17.705942,-0.4464 5.794058,8.85574 c 3.186731,4.87065 6.028907,8.86279 6.315946,8.87142 0.28704,0.009 2.948212,-11.34681 5.913717,-25.23431 z M 224.5,152.81103 l -2,-2.0701 2.11852,1.09435 c 1.16518,0.60189 2.40268,0.81019 2.75,0.46287 0.34731,-0.34732 0.63148,0.11852 0.63148,1.03518 0,2.17936 -1.03974,2.0242 -3.5,-0.5223 z m 168.60428,-0.72542 c -1.8996,-1.20282 -0.57945,-4.48193 1.4854,-3.68957 0.86505,0.33195 2.53639,-0.0714 3.71408,-0.89625 4.7691,-3.34041 6.6627,-0.19177 2.06138,3.42763 -2.82439,2.22167 -5.02656,2.57294 -7.26086,1.15819 z M 222.5,149 c -0.33992,-0.55 -0.14148,-1 0.44098,-1 0.58246,0 1.05902,0.45 1.05902,1 0,0.55 -0.19844,1 -0.44098,1 -0.24254,0 -0.7191,-0.45 -1.05902,-1 z m 32.5,-5 c 0,-0.55 0.47656,-1 1.05902,-1 0.58246,0 0.7809,0.45 0.44098,1 -0.33992,0.55 -0.81648,1 -1.05902,1 C 255.19844,145 255,144.55 255,144 Z m -37,-2 c 0.825,-0.53316 2.175,-0.96937 3,-0.96937 1.33333,0 1.33333,0.1077 0,0.96937 -0.825,0.53316 -2.175,0.96937 -3,0.96937 -1.33333,0 -1.33333,-0.1077 0,-0.96937 z m 176.16008,-2.23992 C 393.52204,139.12204 393,137.77207 393,136.76016 393,133.866 396.88339,127 398.52032,127 c 1.8567,0 1.84744,2.73269 -0.0203,6 -0.78602,1.375 -1.44508,3.48594 -1.46456,4.69098 -0.0436,2.69409 -1.3269,3.61756 -2.87536,2.0691 z M 211.8125,133.31689 c 0.72187,-0.28887 1.58437,-0.25335 1.91667,0.0789 0.33229,0.33229 -0.25834,0.56864 -1.3125,0.52522 -1.16495,-0.048 -1.4019,-0.28494 -0.60417,-0.60416 z m 193.85417,-1.98356 c -1.18202,-1.18201 -0.71021,-4.05231 0.88352,-5.37498 1.27622,-1.05917 1.82367,-1.01306 3.09762,0.26089 1.22644,1.22644 1.31245,1.98649 0.41463,3.6641 -1.11916,2.09115 -3.10091,2.74486 -4.39577,1.44999 z m -208,-5 C 196.51603,125.1827 196.93843,124 198.5,124 c 0.825,0 1.5,0.675 1.5,1.5 0,1.56157 -1.1827,1.98397 -2.33333,0.83333 z m 193.00929,-0.73537 c -0.31663,-0.82512 0.20831,-2.46842 1.16652,-3.65176 1.61882,-1.99915 1.84135,-2.03209 3.14188,-0.46505 1.02375,1.23354 1.11787,2.13399 0.35047,3.35267 -1.39525,2.21573 -3.94157,2.63337 -4.65887,0.76414 z m 25.90101,-5.53804 c -5.71194,-3.7654 -5.40975,-7.57617 0.36402,-4.59044 3.10566,1.60601 5.46116,4.79504 4.35716,5.89904 -0.95215,0.95215 -1.53808,0.78974 -4.72118,-1.3086 z M 190,119 c -0.90129,-0.58246 -1.02463,-0.97549 -0.30902,-0.98469 0.65504,-0.008 1.4691,0.43469 1.80902,0.98469 0.7673,1.24153 0.42112,1.24153 -1.5,0 z m 14.07895,-16.58333 c 0.048,-1.16495 0.28494,-1.4019 0.60416,-0.60417 0.28887,0.72187 0.25335,1.58437 -0.0789,1.91667 -0.3323,0.33229 -0.56864,-0.25834 -0.52522,-1.3125 z m 13.62943,0.95838 c -0.31382,-0.31382 -0.33341,-1.18864 -0.0435,-1.94403 0.42316,-1.10276 -0.0817,-1.06977 -2.56173,0.16743 -1.96432,0.97993 -3.91049,1.26137 -5.34595,0.77309 -1.24144,-0.42229 -2.59467,-0.67863 -3.00717,-0.56967 -0.4125,0.10897 -0.6375,-0.36437 -0.5,-1.05187 0.1375,-0.6875 -0.20082,-1.174728 -0.75182,-1.082728 -0.551,0.092 -1.13503,-2.026195 -1.29786,-4.707099 -0.30233,-4.977794 1.28932,-9.461793 4.22273,-11.896313 0.85521,-0.70976 1.26274,-1.801986 0.90561,-2.427167 -0.35712,-0.625181 -0.31391,-0.835938 0.096,-0.468348 0.40993,0.36759 2.0944,0.198058 3.74326,-0.376738 2.51355,-0.876229 3.46064,-0.702985 5.86178,1.072254 1.69232,1.251184 3.1143,1.712107 3.47608,1.126739 0.33672,-0.54483 0.0607,-0.9906 -0.61346,-0.9906 -0.67413,0 -0.95562,-0.270061 -0.62555,-0.600136 0.33008,-0.330074 1.10193,-0.290012 1.71523,0.08903 0.81771,0.505374 0.81249,1.053767 -0.0196,2.056331 -0.62406,0.751942 -0.78278,1.936502 -0.35272,2.632354 1.19931,1.940529 0.54499,6.593241 -1.49857,10.655859 -1.01438,2.01661 -1.71945,4.452272 -1.56682,5.412592 0.28824,1.81358 -0.84143,3.12356 -1.83598,2.12902 z m -2.10599,-7.886532 c 2.03408,-2.03408 2.45314,-3.315533 2.20455,-6.741373 -0.37613,-5.183427 -2.61876,-6.026229 -6.28357,-2.361423 -3.94515,3.945152 -3.46527,11.114781 0.77208,11.535331 0.4375,0.04342 1.92563,-1.05122 3.30694,-2.432535 z m -5.14351,0.444951 c -0.36253,-0.586592 -0.44468,-1.281 -0.18255,-1.543128 0.26212,-0.262129 0.74306,0.21781 1.06875,1.066531 0.67618,1.762107 0.0999,2.072058 -0.8862,0.476597 z m 5.12407,-6.799254 c -0.43077,-0.697003 -0.51316,-1.537338 -0.18309,-1.867413 0.89497,-0.894961 1.87077,0.421303 1.38739,1.871444 -0.33872,1.016175 -0.57427,1.015386 -1.2043,-0.004 z M 213,87.059017 c 0,-0.517541 0.44485,-1.215913 0.98855,-1.551938 0.56686,-0.350339 0.7345,0.05106 0.39301,0.940983 C 213.71677,88.180479 213,88.497449 213,87.059017 Z m -33,-16.5 c 0,-0.792541 0.45,-1.719098 1,-2.059017 0.55,-0.339919 1,0.308524 1,1.440983 C 182,71.073442 181.55,72 181,72 c -0.55,0 -1,-0.648442 -1,-1.440983 z m 2,-4.5 c 0,-0.517541 0.45,-1.219098 1,-1.559017 0.55,-0.339919 1,0.08352 1,0.940983 C 184,66.298442 183.55,67 183,67 c -0.55,0 -1,-0.423442 -1,-0.940983 z m 77,-11.223574 c 0,-1.379338 1.57662,-1.669116 5.02471,-0.923522 l 3.47529,0.751476 -4.25,0.444728 c -2.3375,0.2446 -4.25,0.121893 -4.25,-0.272682 z M 225,53.5 C 223.98043,52.271492 224.04876,52 225.37756,52 226.2699,52 227,52.675 227,53.5 227,54.325 226.8301,55 226.62244,55 226.41479,55 225.68469,54.325 225,53.5 Z M 276,53 c 0,-0.55 0.45,-1 1,-1 0.55,0 1,0.45 1,1 0,0.55 -0.45,1 -1,1 -0.55,0 -1,-0.45 -1,-1 z M 77.934796,49.878165 c -0.929716,-1.73719 -0.788039,-2.469366 0.781539,-4.038945 2.212561,-2.21256 4.903693,-1.611765 5.828216,1.301149 1.35896,4.281702 -4.487469,6.703325 -6.609755,2.737796 z m 14.731871,1.455168 c -1.358408,-1.358408 -0.606733,-5.295041 1.195193,-6.259403 2.880389,-1.541537 5.611209,0.905078 4.766547,4.270479 C 98.147236,51.261544 97.31835,52 95.647615,52 94.37476,52 93.033333,51.7 92.666667,51.333333 Z m 14.571653,-0.495012 c -1.89042,-1.890417 -1.47905,-4.639119 0.88351,-5.903525 1.75803,-0.940866 2.48435,-0.773056 4.23612,0.978713 1.66801,1.668003 1.88458,2.480741 1.02604,3.850388 -1.35652,2.164085 -4.50549,2.714607 -6.14567,1.074424 z m 89.57418,0.478565 c 0.72187,-0.288871 1.58437,-0.253344 1.91667,0.07895 0.33229,0.332292 -0.25834,0.568641 -1.3125,0.52522 -1.16495,-0.04798 -1.4019,-0.284941 -0.60417,-0.604167 z"
         id="path3" />
      <path
         style="fill:#090817"
         d="m 108.31471,448.53634 c -6.08014,-2.64443 -6.2239,-3.57131 -6.96435,-44.90332 l -0.67198,-37.50947 -3.775719,5.27273 C 92.723962,377.23177 84.856489,383.12242 78.083266,385.48701 69.475897,388.49193 62,383.55412 62,374.86407 c 0,-1.77939 8.386631,-26.66423 18.636958,-55.29966 L 99.273917,267.5 99.053658,223.37902 c -0.21776,-43.62041 -0.195041,-44.1796 2.002392,-49.28768 4.43646,-10.31282 16.13134,-17.05834 27.28439,-15.73743 2.75352,0.32612 5.3825,0.96903 5.84216,1.42869 0.45966,0.45966 -4.95146,17.00911 -12.02471,36.77657 -9.23881,25.8195 -12.57452,36.30698 -11.84508,37.24102 0.83321,1.06692 1.22894,1.06692 2.20567,0 1.85972,-2.03144 26.86839,-72.99552 26.71297,-75.80019 -0.14561,-2.62783 6.74593,-23.00943 9.80565,-29 4.39577,-8.60641 13.58127,-13.95608 23.9629,-13.95608 8.89301,0 13.22732,2.20919 23.2924,11.87207 l 8.39535,8.05987 23.90612,1.67429 c 13.14837,0.92086 24.33363,2.05129 24.85613,2.51207 0.59604,0.52563 0.55902,1.22876 -0.0993,1.88713 -0.73247,0.73247 -7.2766,0.58148 -21.67078,-0.5 C 220.33809,139.69721 210.52399,139 209.87077,139 c -1.04967,0 56.13019,56.80173 66.76445,66.32293 2.60232,2.32995 4.71986,3.47804 5.7124,3.09717 1.42444,-0.54661 1.42808,-0.83279 0.0377,-2.95485 -1.94331,-2.96586 -1.47277,-6.35576 1.11472,-8.0307 1.72174,-1.11452 3.16344,-0.82956 10.36238,2.04816 4.59931,1.83854 9.77431,4.67281 11.5,6.29837 1.72569,1.62556 3.87326,3.35232 4.77237,3.83724 0.89911,0.48492 4.6916,4.48168 8.42775,8.88168 3.73615,4.4 7.14826,7.89242 7.58247,7.76093 0.43421,-0.13149 3.03733,-1.6222 5.78471,-3.31268 4.44565,-2.73543 4.93467,-3.37652 4.44463,-5.82669 -0.81608,-4.0804 1.31149,-10.69411 4.67111,-14.52051 C 344.31471,198.87753 360.20616,187 361.91872,187 c 3.07859,0 0.10128,3.49293 -8.46686,9.93315 -11.45327,8.60882 -13.44302,11.46638 -13.44812,19.31345 l -0.004,5.74661 -6,3.75055 c -5.9135,3.69648 -6.68398,4.7031 -5.23469,6.83898 0.40408,0.5955 10.14114,6.40081 21.63792,12.90069 17.44337,9.86187 21.08476,11.57806 22,10.3686 C 390.36948,232.11027 402.25915,217 402.97435,217 c 2.97379,0 0.56187,4.03477 -13.3172,22.27758 -8.49516,11.16615 -16.05581,20.79306 -16.80145,21.39315 -1.04028,0.83722 -6.12246,-1.64324 -21.84372,-10.66129 l -20.48802,-11.75236 -2.66749,4.67059 c -3.3939,5.94249 -5.52024,7.80856 -7.09885,6.22995 -2.29593,-2.29593 -2.60493,-1.06759 -0.94672,3.76352 1.48212,4.31812 4.38493,7.50391 23.6891,25.99849 15.92418,15.25635 23.17374,21.52955 26.25,22.71472 4.15667,1.60141 4.25,1.73957 4.25,6.29141 0,16.72408 -11.41182,34.95042 -28,44.72007 -11.1914,6.59121 -19.3019,8.80891 -32,8.74993 -16.77057,-0.0779 -33.02834,-5.24662 -54.42539,-17.30314 -10.4701,-5.89954 -12.27488,-7.44236 -68.98539,-58.97219 -14.17044,-12.87593 -26.09811,-22.9844 -26.54926,-22.5 -0.45054,0.48376 -5.62295,16.84277 -11.49424,36.35336 l -10.67508,35.47379 4.59461,10.2353 c 9.76277,21.74833 9.70997,24.49051 -0.72026,37.40243 -4.30652,5.33117 -4.41495,5.65377 -7.02968,20.91469 -1.46063,8.525 -2.92564,17.365 -3.25557,19.64444 -1.31496,9.08496 -9.86273,22.44411 -16.58493,25.9203 -3.43423,1.77591 -6.43012,1.76785 -10.5601,-0.0284 z m 9.28422,-42.44177 c 6.01603,-2.73216 8.43064,-6.76334 9.51679,-15.88827 2.77599,-23.32163 5.31302,-34.8146 9.83392,-44.54854 2.01219,-4.33245 2.70705,-7.11613 2.34414,-9.39086 -0.34451,-2.15935 0.88356,-7.79729 3.69773,-16.97595 l 4.21354,-13.74284 -2.27859,-1.52406 c -1.25322,-0.83823 -3.54908,-2.06471 -5.10189,-2.72551 l -2.82331,-1.20146 0.13047,9.38775 c 0.1765,12.69914 -1.20026,15.26591 -12.12506,22.60553 -7.90513,5.31091 -8.63815,6.12719 -14.66388,16.32956 L 104,359.15911 v 9.26145 c 0,5.0938 0.29526,16.083 0.65613,24.42045 L 105.31226,408 l 4.09387,-0.022 c 2.25163,-0.0121 5.93839,-0.85964 8.1928,-1.88347 z M 96.673505,343.23164 c 1.77673,-1.26567 4.935005,-6.23602 8.503655,-13.38267 7.49928,-15.01822 14.6838,-25.86993 21.91511,-33.10124 4.0808,-4.0808 5.90773,-6.6861 5.90773,-8.42473 0,-1.62573 3.21013,-6.7472 9.06557,-14.46331 l 9.06557,-11.9463 -3.04503,-3.4681 c -4.46536,-5.08576 -12.20993,-11.77691 -18.79968,-16.24254 -5.94534,-4.02893 -14.30655,-8.59094 -14.70359,-8.02251 -0.12284,0.17587 -8.92257,24.77596 -19.554961,54.66688 C 74.098254,347.68673 74.864461,344.35086 82,345.56718 c 1.925,0.32813 3.95,0.7109 4.5,0.8506 1.958107,0.49735 7.391336,-1.20423 10.173505,-3.18614 z M 258,329.59981 c 0,-0.70519 -11.8125,-17.66697 -26.25,-37.69285 -14.4375,-20.02588 -31.18276,-43.287 -37.21168,-51.69138 -6.71534,-9.36126 -11.52608,-15.17124 -12.41864,-14.99814 -1.72446,0.33444 -31.10535,38.67868 -31.11385,40.60588 -0.0167,3.78463 4.77506,-1.09751 17.32045,-17.64719 7.63232,-10.06843 13.99565,-18.16447 14.14074,-17.99119 0.14508,0.17329 14.34882,19.89006 31.56387,43.81506 17.21504,23.925 33.7163,46.77936 36.66946,50.78747 4.88979,6.63658 7.29965,8.22529 7.29965,4.81234 z m 67.62109,-90.22626 c 0.9254,-3.68709 -0.17271,-6.44206 -5.14246,-12.90153 -6.67584,-8.67699 -6.51217,-8.60507 -14.02518,-6.16241 -6.23889,2.02841 -8.048,3.86453 -4.97106,5.04526 0.81531,0.31286 3.33822,-0.0859 5.60647,-0.88622 2.26826,-0.80029 4.54803,-1.19306 5.06618,-0.87283 1.47302,0.91038 -0.9479,3.19977 -4.12045,3.89658 -3.17211,0.69672 -6.44033,3.79038 -5.85604,5.54326 0.21109,0.63327 4.64477,3.76522 9.85263,6.9599 9.40695,5.77056 9.48034,5.79525 11.2315,3.78002 0.96948,-1.11566 2.03076,-3.09658 2.35841,-4.40203 z M 304.17905,217.80317 C 307.93057,216.59491 311,215.30001 311,214.92561 c 0,-0.3744 -0.71763,-1.2763 -1.59474,-2.00424 -1.33288,-1.10619 -2.44124,-1.03475 -6.75,0.43509 -10.26128,3.50041 -10.78087,3.78726 -9.54901,5.27157 1.54117,1.85699 3.10842,1.74024 11.0728,-0.82486 z M 295.75,212.29379 c 8.37755,-2.8099 9.5011,-3.59972 6.66757,-4.68705 -1.40605,-0.53955 -16.57901,2.75697 -18.68754,4.06011 -1.02049,0.6307 1.09358,3.32177 2.64241,3.36361 0.62016,0.0168 4.84006,-1.21475 9.37756,-2.73667 z m -0.31638,-7.19157 c 1.0635,-0.41647 1.5135,-0.99992 1,-1.29657 -2.25476,-1.30258 -11.61682,-3.95579 -12.13386,-3.43874 -0.31387,0.31387 0.17565,1.70972 1.08783,3.10188 1.7182,2.6223 5.81842,3.28897 10.04603,1.63343 z m 141.66364,-29.02095 c -1.19158,-0.75441 -1.05169,-3.49937 0.92925,-18.23469 2.80064,-20.83275 3.2206,-22.31988 5.8983,-20.88682 3.52382,1.88589 6.77281,1.18831 9.48659,-2.03683 4.67688,-5.55816 4.44294,-11.44932 -0.60428,-15.21761 -3.028,-2.26073 -6.02664,-1.65052 -9.31257,1.89506 l -2.19321,2.36651 -12.36056,-5.25455 c -13.53629,-5.75435 -13.64704,-5.87274 -13.8411,-14.79567 -0.0548,-2.52084 -0.37949,-4.863144 -0.72147,-5.205131 -1.95048,-1.950472 -16.38751,8.846371 -14.94655,11.177881 0.36205,0.58582 -0.43405,1.32406 -1.79662,1.66604 -4.73697,1.18891 -11.64218,18.05469 -11.62946,28.40464 0.007,5.8502 1.44162,10.92384 4.27867,15.13373 6.95393,10.31894 20.06449,10.73058 32.13808,1.00904 2.65208,-2.13542 4.25085,-2.82969 4.93675,-2.14379 0.68591,0.68591 0.27808,1.79824 -1.2593,3.43471 C 423.48708,160.17488 413.00283,166 410.61002,166 409.72451,166 409,166.675 409,167.5 c 0,0.84766 -0.89545,1.5 -2.05902,1.5 -1.13246,0 -1.823,-0.38187 -1.53455,-0.8486 0.28846,-0.46673 -1.99182,-1.41172 -5.06728,-2.09998 C 390.28678,163.80179 383,153.64545 383,141.88401 c 0,-3.06967 -1.05985,-5.08494 -5.82103,-11.0685 -3.20156,-4.02353 -7.77726,-8.66551 -10.1682,-10.31551 -5.75197,-3.96945 -12.96622,-3.98201 -25.30384,-0.044 -7.23228,2.30842 -10.00124,2.72016 -15.59958,2.3196 -12.16722,-0.87056 -20.98332,-7.83521 -24.32479,-19.2164 -1.81395,-6.178412 -1.26471,-21.890595 1.04667,-29.942063 l 1.97591,-6.882894 -3.24636,-5.117106 C 296.21133,53.188125 294.48943,47.479116 294.58638,38.5 294.71189,26.876494 297.5083,20.308799 305.90855,11.908548 314.3574,3.4597 320.88199,0.71261591 332.5,0.71261591 c 13.42854,0 24.86593,5.89966189 31.60768,16.30395509 2.32116,3.582157 3.72671,4.871808 4.83272,4.434198 5.8538,-2.316154 17.14259,-2.093794 21.8239,0.429876 5.01458,2.703339 6.58548,5.994271 9.32458,19.53432 4.58394,22.659565 9.4032,30.2998 20.57527,32.619112 3.18148,0.660474 6.35856,1.421145 7.06018,1.690381 C 428.65215,76.080495 429,74.870896 429,71.28849 c 0,-11.667842 5.72672,-21.193775 15.2065,-25.294764 22.25435,-9.62732 43.95019,12.814313 33.34478,34.490997 -3.61001,7.378583 -9.82021,11.996845 -18.74308,13.938439 l -2.69181,0.585729 2.0452,4.62351 c 1.12486,2.542929 2.67396,8.225149 3.44245,12.627149 2.69985,15.46514 -1.65561,28.01681 -13.51478,38.94721 l -6.82799,6.29324 -1.25932,9.75 c -0.69263,5.3625 -1.31391,9.74311 -1.38064,9.73469 -0.0667,-0.008 -0.75254,-0.41496 -1.52405,-0.90342 z M 405.06854,67.09625 c -2.96614,-4.165556 -5.73758,-12.636141 -8.20367,-25.073566 -1.14754,-5.787476 -2.69176,-11.699504 -3.4316,-13.137839 -1.69345,-3.292252 -7.07728,-5.896624 -12.0844,-5.845703 l -3.84887,0.03914 3,1.324231 c 4.81716,2.126345 6.38402,4.662185 12.00492,19.429066 2.92362,7.680733 6.1031,15.248245 7.06552,16.816694 4.11926,6.713131 6.75745,10.357167 7.1872,9.927414 0.2533,-0.253296 -0.5068,-1.819044 -1.6891,-3.479439 z m 70.63879,-6.244833 c -3.15972,-7.541045 -11.7145,-13.977849 -18.27305,-13.749056 l -2.93428,0.102362 3.16802,0.754572 c 9.01272,2.14669 16.52533,9.901853 18.12949,18.714834 L 476.4939,70.5 l 0.30885,-3.148583 c 0.16986,-1.731721 -0.32308,-4.656721 -1.09542,-6.5 z M 313.05947,13.119121 c 7.01719,-4.6858978 14.17348,-6.5336926 23.04222,-5.9496319 7.79726,0.5134973 16.79742,4.4063469 22.2707,9.6327729 2.56189,2.446345 3.49662,2.966146 2.76203,1.535959 C 359.55287,15.259075 352.43903,9.3977896 347.07557,6.7547658 343.25172,4.8704337 340.85711,4.5 332.5,4.5 c -8.61028,0 -10.62537,0.3311805 -14.5,2.3830731 -6.9015,3.6548399 -11.50189,7.6578259 -14.7906,12.8699069 -4.69625,7.442782 -4.93675,10.463613 -0.28237,3.546632 2.78655,-4.141147 6.15168,-7.522241 10.13244,-10.180491 z M 54.089352,143.86278 46.913707,132.72556 31.020281,133.43763 c -14.501594,0.64971 -16.279235,0.54141 -20.298999,-1.23672 -2.4230647,-1.07184 -5.4164468,-3.36844 -6.6519599,-5.10356 -4.39602912,-6.17365 -4.40019384,-8.08637 -0.071223,-32.710393 4.559984,-25.938068 4.540982,-25.860498 7.2909519,-29.763014 3.750028,-5.321713 8.076219,-6.343414 32.249722,-7.616301 24.686316,-1.29989 27.941242,-0.791186 32.93865,5.147897 4.076169,4.84425 4.937391,9.975531 3.06065,18.235761 -0.888311,3.909785 -4.765029,21.91708 -8.614929,40.01622 -3.8499,18.09914 -7.234124,33.28664 -7.520498,33.75 -1.133072,1.83335 -2.405318,0.42703 -9.313294,-10.29474 z M 62,147.23194 c 0,-0.42243 2.869846,-14.25993 6.377436,-30.75 C 77.981774,71.329516 77.630083,73.548879 75.946522,68.716875 75.020119,66.057998 73.241521,63.70279 71,62.166726 L 67.5,59.768253 45,60.424474 C 11.940373,61.38867 13.161915,60.335735 7.667109,92.604398 3.3970097,117.68088 3.3052427,119.3483 5.9559971,123.69567 c 3.893632,6.38574 5.3483039,6.75793 25.1920639,6.44576 l 17.854586,-0.28088 5.748676,9.039 C 59.944589,147.06525 62,149.42795 62,147.23194 Z m 330.66667,4.10139 C 391.28,149.94667 392.09329,149 394.67126,149 c 1.46919,0 3.50482,-0.75437 4.52363,-1.67637 1.47776,-1.33735 2.10038,-1.42412 3.07874,-0.42902 0.97148,0.98811 0.73571,1.64828 -1.13441,3.17637 -2.30057,1.87982 -7.13482,2.60009 -8.47255,1.26235 z m 0.86509,-13.23325 C 392.92515,136.18881 396.74012,127 398.14025,127 c 1.67664,0 1.84921,2.1197 0.40062,4.92097 -0.84748,1.63884 -1.54087,4.12706 -1.54087,5.52937 0,3.01104 -2.5662,3.49179 -3.46824,0.64974 z m 12.69125,-7.27707 C 404.80057,129.40057 406.43082,126 408.53518,126 c 1.82613,0 1.92415,3.3739 0.14103,4.85376 -0.96381,0.79989 -1.63092,0.79153 -2.4532,-0.0307 z M 442,127.45455 c 0,-3.85301 4.31714,-7.64792 8.26666,-7.26667 3.98181,0.38437 4.20081,1.90949 0.41941,2.92079 C 446.95236,124.10721 445,125.82874 445,128.12244 445,129.1551 444.325,130 443.5,130 c -0.94048,0 -1.5,-0.94949 -1.5,-2.54545 z m -50.60646,-1.87139 C 390.53962,123.3579 391.64136,121 393.53504,121 c 1.14414,0 1.50796,0.75891 1.28138,2.67288 -0.36239,3.06117 -2.51932,4.26493 -3.42288,1.91028 z m 24.24132,-6.65574 c -3.01995,-2.37549 -3.61029,-5.20891 -0.88486,-4.24702 2.14623,0.75747 6.25,4.36479 6.25,5.49391 0,1.48862 -2.67906,0.86599 -5.36514,-1.24689 z M 207.73616,100.75 c -8.73277,-6.631395 1.66237,-24.888548 11.2495,-19.757677 5.80836,3.108543 3.85178,15.971898 -2.96564,19.497327 -3.55381,1.83774 -6.10119,1.91781 -8.28386,0.26035 z m 8.2384,-4.724564 C 220.17563,91.824375 219.85445,84 215.48095,84 c -4.68772,0 -8.42922,6.08564 -7.07031,11.5 0.78456,3.125931 4.69199,3.397365 7.56392,0.525436 z M 77.96579,49.936078 c -0.819897,-1.531991 -0.797407,-2.43404 0.08726,-3.5 1.797012,-2.165268 5.697976,-1.795882 6.46218,0.61191 1.368808,4.312732 -4.420684,6.865709 -6.54944,2.88809 z m 14.418252,0.622335 c -0.304254,-0.792872 -0.396468,-2.255372 -0.20492,-3.25 0.486115,-2.524195 6.153935,-2.533051 6.639759,-0.01037 0.717417,3.725251 -5.121242,6.683555 -6.434839,3.260374 z m 14.655788,-0.01043 c -0.66279,-0.798607 -0.91256,-2.373607 -0.55506,-3.5 0.81759,-2.575995 5.06553,-2.756776 6.39525,-0.272165 2.05816,3.845699 -3.04411,7.141239 -5.84019,3.772165 z"
         id="path2" />
    </g>
  </g>
</svg>
