<?xml version="1.0" encoding="UTF-8" standalone="no"?>
<!-- Created with Inkscape (http://www.inkscape.org/) -->

<svg
   version="1.1"
   id="svg1"
   width="556"
   height="450"
   viewBox="0 0 556 450"
   sodipodi:docname="BUSINESS_02.svg"
   inkscape:version="1.3.2 (091e20e, 2023-11-25, custom)"
   xmlns:inkscape="http://www.inkscape.org/namespaces/inkscape"
   xmlns:sodipodi="http://sodipodi.sourceforge.net/DTD/sodipodi-0.dtd"
   xmlns="http://www.w3.org/2000/svg"
   xmlns:svg="http://www.w3.org/2000/svg">
  <defs
     id="defs1" />
  <sodipodi:namedview
     id="namedview1"
     pagecolor="#ffffff"
     bordercolor="#000000"
     borderopacity="0.25"
     inkscape:showpageshadow="2"
     inkscape:pageopacity="0.0"
     inkscape:pagecheckerboard="0"
     inkscape:deskcolor="#d1d1d1"
     showgrid="false"
     inkscape:zoom="1.4442446"
     inkscape:cx="278"
     inkscape:cy="224.68493"
     inkscape:window-width="1920"
     inkscape:window-height="1001"
     inkscape:window-x="-9"
     inkscape:window-y="-9"
     inkscape:window-maximized="1"
     inkscape:current-layer="g1" />
  <g
     inkscape:groupmode="layer"
     inkscape:label="Image"
     id="g1">
    <g
       id="g2"
       transform="translate(0,0.08641728)">
      <path
         style="fill:#fefefe"
         d="M 0,225 V 0 H 278 556 V 225 450 H 278 0 Z"
         id="path5" />
      <path
         style="fill:#cdc9c6"
         d="m 405.5,448.37243 c -22.14781,-2.82571 -42.39516,-9.36931 -48.23461,-15.58861 -1.22904,-1.30898 -2.52669,-3.84034 -2.88367,-5.62524 -0.58108,-2.90539 -0.18262,-3.69219 3.80471,-7.51271 2.70195,-2.58893 6.80001,-5.1449 10.41883,-6.49825 l 5.96507,-2.23079 L 402.95051,308.20842 431.33068,205.5 431.12162,191 c -0.11498,-7.975 0.26772,-19 0.85045,-24.5 1.24371,-11.73856 14.70315,-86.024618 16.03828,-88.519336 1.72411,-3.221525 7.94936,-7.882479 11.39009,-8.527965 1.89377,-0.355272 4.87896,-0.330605 6.63378,0.05482 4.38014,0.962042 10.71667,6.93074 11.89732,11.2067 0.69155,2.504618 0.26947,12.625257 -1.46601,35.151541 -3.1121,40.39454 -3.11261,40.66415 -0.0813,42.65038 2.22533,1.45809 3.58935,1.25962 20.45967,-2.97695 20.3934,-5.1213 23.74979,-5.39836 29.81699,-2.46128 5.81848,2.81668 8.4286,6.20742 12.36493,16.06295 1.96734,4.92571 4.96423,10.20747 7.29632,12.85914 5.68931,6.46894 9.02489,14.20653 9.48395,22 0.43673,7.4144 -4.35185,63.43916 -5.94034,69.5 -4.77589,18.22231 -24.33353,31.07036 -42.1158,27.66725 -3.38253,-0.64734 -4.74897,-0.58635 -4.74642,0.21186 0.002,0.61649 -3.62631,24.23011 -8.06285,52.47471 -4.43654,28.2446 -7.92565,51.47699 -7.75358,51.62755 0.17207,0.15055 5.03785,1.44764 10.81285,2.88241 11.89983,2.95645 23.91408,8.44023 26.95156,12.30176 2.26901,2.88459 2.6468,7.99725 0.76664,10.37515 -6.43781,8.14208 -27.45972,15.00253 -54.92879,17.92588 -13.58085,1.44532 -52.04794,1.09526 -65.28941,-0.59414 z m 60.60827,-19.8246 c 5.83454,-0.96503 11.11321,-2.06668 11.73036,-2.4481 0.61716,-0.38142 4.06078,-19.5724 7.6525,-42.64661 3.59172,-23.07422 7.84565,-50.27812 9.45317,-60.45312 1.60753,-10.175 3.06519,-19.81074 3.23924,-21.41275 l 0.31646,-2.91275 -21,-8.14063 c -11.55,-4.47735 -22.09712,-8.74023 -23.43805,-9.47307 -4.88988,-2.67243 -12.34525,-10.67381 -15.41555,-16.54455 -3.1311,-5.987 -3.14757,-6.09889 -3.38623,-23.01625 -0.1319,-9.35 -0.3569,-18.33764 -0.5,-19.97254 -0.18626,-2.12808 0.22124,-3.06916 1.43442,-3.31265 3.31418,-0.66518 4.5085,7.92879 3.79188,27.28519 -0.43884,11.85355 1.96736,18.41035 9.53241,25.9754 4.19264,4.19264 7.07525,5.99594 13.64819,8.53802 10.36041,4.00689 11.86612,4.48083 9.59904,3.02141 -1.99028,-1.28123 -5.05951,-10.88812 -4.59966,-14.39724 0.17006,-1.29775 -0.25498,-3.03934 -0.94454,-3.8702 C 465.21156,262.34507 461,248.98149 461,245.02485 c 0,-1.99367 0.52937,-4.15422 1.17637,-4.80122 0.90183,-0.90183 0.77991,-1.61446 -0.52239,-3.05349 -1.98803,-2.19674 -6.59012,-15.52656 -6.62794,-19.19763 -0.0143,-1.39013 0.69377,-3.55517 1.57354,-4.81122 1.4683,-2.09629 1.4657,-2.43167 -0.0316,-4.08616 C 454.84103,207.16686 451,194.96557 451,191.38804 c 0,-4.62603 4.17194,-7.50369 28.28174,-19.5078 13.20236,-6.57336 24.50243,-11.78573 25.11127,-11.58304 0.60885,0.20269 1.24469,1.07827 1.41299,1.94573 0.22458,1.15748 -5.89608,4.68859 -23,13.26906 -12.8183,6.43052 -24.0935,12.39073 -25.056,13.24492 -2.15686,1.91414 -2.19005,3.92155 -0.17923,10.83852 1.74312,5.99615 3.60596,8.40457 6.50066,8.40457 2.28273,0 2.24851,0.83794 0.4487,-10.98807 -1.44533,-9.49689 -1.06061,-11.81705 1.77878,-10.72747 1.29905,0.49849 3.70109,12.02256 3.70109,17.75639 0,1.07753 0.31037,1.95915 0.6897,1.95915 0.37934,0 10.29575,-2.54859 22.03647,-5.66353 16.30596,-4.32615 21.62321,-5.38709 22.51744,-4.49286 2.25926,2.25926 -1.61475,3.8878 -22.07217,9.27861 -11.1807,2.94627 -20.6721,5.58656 -21.09198,5.86731 -0.62486,0.41781 1.66945,22.83819 2.43548,23.79986 0.12678,0.15917 10.90945,-1.14189 23.96148,-2.89123 19.96736,-2.6762 23.86738,-2.95999 24.59111,-1.7894 0.52763,0.85342 0.3909,1.81869 -0.35369,2.49697 -0.66761,0.60815 -11.26656,2.40645 -23.55323,3.99623 -12.28666,1.58977 -22.67982,3.11719 -23.0959,3.39427 -0.41608,0.27707 -0.059,5.61812 0.79347,11.869 l 1.54998,11.36522 21.30952,-0.72638 c 21.89272,-0.74626 24.92857,-0.35174 23.61589,3.06904 C 522.88231,266.74908 518.92063,267 500.80511,267 H 478.8242 l 0.64143,4.25 c 1.39951,9.27296 1.54872,9.60077 4.85167,10.65943 1.75049,0.56106 9.39076,2.82211 16.9784,5.02457 7.58763,2.20245 14.22513,4.26986 14.75,4.59424 1.22663,0.75811 1.23314,3.18139 0.0106,3.93698 -0.51905,0.32079 -9.26291,-1.90265 -19.4308,-4.94098 -10.16789,-3.03833 -18.85571,-5.50185 -19.30627,-5.47449 -0.45056,0.0274 5.7058,2.59832 13.6808,5.71325 13.35067,5.21458 15.13411,5.66252 22.5,5.65121 8.66217,-0.0133 14.31801,-1.88541 20.92833,-6.92734 3.89491,-2.97079 8.78904,-10.22746 10.44485,-15.48687 1.96078,-6.22812 7.07824,-66.93257 6.08724,-72.20825 -1.13557,-6.04533 -4.95675,-13.51608 -8.75956,-17.12575 -1.75351,-1.66444 -4.53278,-6.61667 -6.7346,-12 -3.95808,-9.67728 -6.25731,-12.96686 -10.6666,-15.26101 -4.21152,-2.19126 -9.11509,-1.71204 -26.55338,2.59501 -17.92857,4.42814 -20.07912,4.65492 -24.15509,2.54716 -5.90391,-3.05303 -5.91985,-4.1491 -0.95421,-65.621082 1.23825,-15.3289 0.4767,-18.52313 -5.10425,-21.409151 -5.94005,-3.07172 -13.5854,-0.598017 -15.80806,5.114803 -1.14251,2.936571 -12.01479,61.87095 -14.73417,79.86827 -0.95177,6.29894 -1.47795,16.52577 -1.4217,27.63218 l 0.0893,17.63219 -5.65395,20.36781 c -3.10967,11.2023 -7.84721,28.24282 -10.52786,37.86782 -2.68064,9.625 -8.74349,31.675 -13.47298,49 -4.72949,17.325 -9.67827,35.325 -10.99728,40 -2.41134,8.54657 -8.99014,32.23071 -16.33899,58.82149 -2.69706,9.75896 -3.59307,14.44269 -2.81252,14.70192 0.95719,0.3179 10.05025,1.71258 25.14549,3.85677 1.65,0.23437 14.475,0.31276 28.5,0.1742 18.59821,-0.18375 28.37122,-0.72684 36.10827,-2.00655 z M 475.35124,274.25 c -0.62286,-4.84616 -2.35601,-8.31888 -2.34566,-4.7 0.007,2.33246 1.90641,9.45 2.52229,9.45 0.23863,0 0.15915,-2.1375 -0.17663,-4.75 z m -1.65198,-12.59134 c -0.2831,-0.73774 -1.06181,-5.68774 -1.73047,-11 C 470.92729,242.38424 470.48916,241 468.91171,241 c -3.61735,0 -4.226,3.53248 -1.86144,10.8034 1.19779,3.68313 2.81185,7.7091 3.58681,8.9466 1.5136,2.41699 3.91435,3.12938 3.06218,0.90866 z M 469.69212,233.75 c -0.28859,-1.2375 -1.07628,-6.4125 -1.75043,-11.5 -0.67415,-5.0875 -1.58252,-9.25 -2.01861,-9.25 -2.96572,0 -5.92308,2.18187 -5.92308,4.36991 0,3.91373 4.02055,16.02206 5.77103,17.38009 2.62611,2.03735 4.51694,1.55513 3.92109,-1 z M 284.1891,348.76472 C 244.0873,290.8483 207.93247,230.17846 194.94016,199 c -1.26054,-3.025 -2.41712,-5.66688 -2.57019,-5.87084 -0.15307,-0.20395 -2.88643,1.96821 -6.07414,4.82703 -14.54903,13.04796 -29.23789,21.1041 -99.755357,54.711 -13.177739,6.28019 -24.089773,11.54878 -24.248963,11.70797 -0.159191,0.15919 0.376852,4.9774 1.191206,10.70714 1.846636,12.99279 1.914106,31.59879 0.141893,39.12921 -1.533766,6.51722 -3.568825,10.05061 -7.134124,12.38668 C 44.229288,334.63204 21.267564,300.43386 8.5623878,255.2162 3.172795,236.03467 0.88479378,222.12072 0.30486566,205 c -0.6166972,-18.20622 0.35605975,-25.71476 4.04055754,-31.18832 3.4031131,-5.05555 6.9447118,-6.3939 11.8357238,-4.47266 l 3.958411,1.55491 29.071246,-10.29933 29.071246,-10.29933 2.705761,-7.39763 c 3.15698,-8.63128 6.702535,-15.81149 11.547983,-23.38614 4.664936,-7.29247 11.675046,-22.795658 34.070216,-75.347917 L 145.5,-0.17283456 l 4.71682,0.43643665 c 7.93555,0.73425788 7.86449,0.53556782 7.55519,21.12711291 -0.3068,20.425543 0.0932,21.764583 5.64421,18.894047 5.60456,-2.898228 69.27513,0.470304 78.02974,4.128212 C 244.20115,45.564168 245,46.471344 245,48.448973 245,49.852038 245.28306,51 245.62901,51 c 0.34596,0 3.83346,-1.157339 7.75,-2.571864 13.41847,-4.846307 22.39662,-6.520991 38.20566,-7.126456 11.78738,-0.451441 17.35088,-0.198786 25.45226,1.155861 45.38936,7.589642 81.92259,38.487338 92.88956,78.560609 2.81444,10.28397 4.11421,24.18223 3.04766,32.5881 -4.03959,31.83722 -34.70307,92.01903 -86.30851,169.39375 -14.27785,21.40753 -28.47366,41.76332 -29.61854,42.47089 -0.49707,0.30721 -6.28317,-7.21057 -12.858,-16.70617 z m 25.27594,-161.29763 c 13.17179,-3.43081 24.24689,-12.41424 29.82635,-24.19326 C 342.20235,157.12838 342.5,155.61872 342.5,147 c 0,-8.61872 -0.29765,-10.12838 -3.20861,-16.27383 -13.42758,-28.34751 -54.03572,-34.764446 -76.68269,-12.11747 -6.42912,6.42911 -10.1935,13.50599 -11.81115,22.20447 -3.73171,20.06624 10.73119,40.59339 32.89377,46.68605 6.62603,1.82155 18.71483,1.80648 25.77372,-0.0321 z M 176.23839,139.45496 c 3.01379,-1.46265 3.85234,-2.50635 4.32626,-5.38464 1.65742,-10.06621 4.90058,-20.36719 9.33521,-29.65069 l 4.93093,-10.322459 -4.41722,-0.662402 c -5.34391,-0.80137 -7.08342,0.182586 -16.72949,9.463041 -9.36465,9.00973 -13.78579,16.50011 -14.42275,24.43535 -0.58316,7.26488 1.43482,13.24896 4.90016,14.53088 2.63083,0.9732 6.83625,0.13431 12.0769,-2.40908 z M 221.5,66 c 0.33992,-0.55 -0.0835,-1 -0.94098,-1 C 219.70156,65 219,65.45 219,66 c 0,0.55 0.42344,1 0.94098,1 0.51754,0 1.2191,-0.45 1.55902,-1 z m -61.32389,254.12906 c -1.08913,-0.68975 -1.10278,-2.28275 -0.077,-8.98374 C 161.24768,303.64238 161.52953,303 163.673,303 c 2.68337,0 2.72873,0.46985 1.00594,10.41986 -1.20621,6.96647 -2.06832,8.25101 -4.50285,6.7092 z m 24.04712,-16.28127 c -5.03047,-4.07002 -6.04858,-5.3533 -5.12755,-6.46308 0.63206,-0.76159 1.46545,-1.38471 1.85197,-1.38471 1.24885,0 12.55567,9.17151 12.45235,10.1007 -0.28023,2.52012 -0.49715,2.89643 -1.65,2.86238 -0.6875,-0.0203 -4.07454,-2.32218 -7.52677,-5.11529 z m -49.54556,-3.50346 c -0.37272,-0.37271 -0.67279,-1.39016 -0.66683,-2.261 0.0123,-1.80206 14.29527,-7.63021 16.04661,-6.54782 2.27274,1.40462 0.17997,3.76122 -5.32673,5.99825 -7.91043,3.21352 -9.27,3.59362 -10.05305,2.81057 z m 46.92932,-19.92612 C 181.27314,279.54823 181,278.68762 181,278.50575 c 0,-0.45879 16.22706,-6.61479 16.54915,-6.2782 0.14339,0.14985 0.41599,1.12729 0.60578,2.17211 0.27555,1.51694 -1.04543,2.47389 -6.55692,4.75 -7.95474,3.2851 -9.15855,3.43794 -9.99102,1.26855 z m -36.91285,-8.08673 c -5.61619,-4.56079 -6.58002,-5.76406 -5.58112,-6.96766 1.53918,-1.8546 2.74878,-1.35505 9.36841,3.86909 5.61444,4.43084 6.38636,5.802 4.2599,7.5668 -0.9297,0.77158 -3.03291,-0.39624 -8.04719,-4.46823 z M 167,267.33191 c 0,-1.46744 0.49878,-5.53229 1.1084,-9.03298 1.01691,-5.83952 1.28517,-6.31065 3.25,-5.70769 1.17788,0.36147 2.20042,0.71381 2.2723,0.78299 0.0953,0.0917 -2.15138,14.36431 -2.57771,16.37577 C 171.02384,269.8875 170.1,270 169,270 c -1.50027,0 -2,-0.66667 -2,-2.66809 z"
         id="path4" />
      <path
         style="fill:#fdcd4a"
         d="m 415.83196,448.92045 c -12.88339,-1.06565 -27.47206,-3.60213 -37.65431,-6.54682 -25.97337,-7.51145 -30.71253,-18.93758 -11.5039,-27.73596 3.20444,-1.46777 6.44397,-3.01211 7.19897,-3.43187 0.80656,-0.44843 12.92952,-42.40739 29.39357,-101.7345 L 431.28714,208.5 l 0.77944,-24.5 0.77944,-24.5 7.4387,-40.15141 c 8.02638,-43.323567 8.41594,-44.555067 15.09672,-47.725303 8.0604,-3.824914 17.45336,-0.686958 21.14987,7.065648 1.77106,3.714404 1.74945,4.732405 -0.85177,40.136745 -1.88033,25.59267 -2.36648,36.89075 -1.64536,38.23819 1.86739,3.48924 5.36906,3.28079 24.69686,-1.47016 18.25257,-4.48666 18.91533,-4.57558 24.08895,-3.23199 7.5064,1.94943 11.4054,6.09517 15.41311,16.38852 2.01037,5.16341 4.92195,10.342 7.56992,13.46399 5.18057,6.10796 7.52404,10.57936 9.13602,17.4318 1.02029,4.33721 0.80445,9.83828 -1.37323,35 -1.42109,16.41968 -3.07157,32.53897 -3.66775,35.82064 -2.18356,12.01943 -9.60313,21.78712 -20.68129,27.22643 -5.14028,2.52385 -6.75483,2.8069 -16.01065,2.8069 -9.48035,0 -10.32871,0.15806 -10.7345,2 -0.60548,2.7484 -15.27363,97.28652 -15.66046,100.93377 -0.30361,2.86262 -0.15353,2.96596 6.18884,4.26114 16.55292,3.38029 30.06104,9.83064 32.86107,15.69173 7.9715,16.68612 -51.14328,30.40454 -110.02911,25.53381 z M 453,430.57384 c 21.11871,-2.37573 25.93872,-3.45363 26.5069,-5.92772 C 480.24829,421.41778 499,301.11185 499,299.58363 c 0,-0.79916 -7.62519,-4.21522 -19.25,-8.62392 -10.5875,-4.0153 -21.42688,-8.37639 -24.0875,-9.69132 -6.7786,-3.35008 -13.28724,-10.24192 -16.83764,-17.82897 -3.17303,-6.78059 -3.85955,-13.1269 -2.91422,-26.93942 0.22585,-3.3 0.0514,-8.5875 -0.38768,-11.75 -0.67217,-4.84138 -0.55667,-5.75 0.73095,-5.75 2.48005,0 3.15928,4.55799 3.20393,21.5 0.0401,15.21802 0.17178,16.2688 2.69421,21.5 5.47167,11.34753 10.21815,14.55356 36.34795,24.55137 26.31711,10.06949 27.62066,10.44876 35.90893,10.44784 9.07526,-0.001 17.16402,-3.59925 23.43018,-10.42279 7.52638,-8.19586 8.1076,-10.47636 11.35166,-44.54012 1.59947,-16.79496 2.72849,-33.46855 2.50894,-37.05241 -0.48184,-7.8651 -3.05351,-13.94429 -8.47917,-20.04399 -2.46353,-2.76957 -5.36458,-7.83445 -7.38837,-12.89919 -3.9377,-9.85448 -7.75046,-14.33673 -13.7156,-16.12393 -4.09788,-1.22776 -5.50923,-1.01964 -23.75461,3.50284 -17.30747,4.28999 -19.72759,4.67157 -22.45738,3.54085 -6.93593,-2.87295 -7.007,-3.67019 -3.9,-43.75147 2.36893,-30.560114 2.45394,-36.421641 0.58073,-40.044022 -3.81923,-7.385591 -15.60261,-7.484298 -19.9251,-0.166908 -2.13932,3.621579 -15.29579,75.29793 -16.79553,91.50193 -0.61086,6.6 -0.82346,16.81881 -0.47244,22.70846 l 0.63822,10.70847 -30.63873,111.08471 c -16.85129,61.09659 -30.44875,111.27468 -30.21656,111.50686 0.66635,0.66635 17.47506,3.3944 26.82483,4.35367 13.44461,1.37938 37.37795,1.24408 51,-0.28833 z m 40.30571,-141.49151 c -10.55686,-3.15973 -19.83721,-6.27855 -20.62301,-6.9307 -1.85902,-1.54285 -4.90305,-12.41384 -4.07805,-14.56375 0.35085,-0.9143 -0.0333,-2.43311 -0.85368,-3.37513 -0.82037,-0.94201 -2.73752,-5.50219 -4.26034,-10.13373 -2.40851,-7.32532 -2.61406,-8.84878 -1.57979,-11.70901 0.96895,-2.67957 0.91889,-3.712 -0.27049,-5.57902 -0.80271,-1.26005 -2.63902,-6.07055 -4.08068,-10.69002 -2.58698,-8.28934 -2.5976,-8.44674 -0.81331,-12.05312 1.6652,-3.36566 1.6805,-3.78828 0.19383,-5.35419 C 454.97998,206.62898 452,196.32029 452,191.60399 c 0,-2.58475 0.74213,-4.05066 3.02179,-5.96887 4.90614,-4.12824 47.44068,-25.05537 49.39834,-24.30414 0.93865,0.36019 1.49364,0.99952 1.23332,1.42073 -0.26032,0.42121 -11.14239,6.16189 -24.18237,12.75706 -13.31644,6.73501 -24.33838,12.93714 -25.14476,14.14918 -1.25654,1.88864 -1.22887,2.88703 0.22171,8 2.24077,7.89827 3.9226,10.34205 7.11748,10.34205 2.88461,0 2.85937,0.59768 0.70722,-16.75 -0.55097,-4.44115 -0.40169,-5.25 0.96893,-5.25 1.82475,0 2.18488,1.22626 3.65101,12.4319 0.57079,4.36255 1.14345,8.02891 1.27257,8.14747 0.12912,0.11856 9.90976,-2.37926 21.73476,-5.55071 11.825,-3.17145 21.8375,-5.57375 22.25,-5.33845 0.4125,0.2353 0.75,1.01325 0.75,1.72877 0,1.1705 -6.42079,3.09113 -39.35985,11.77358 l -4.85985,1.28101 0.6286,5.34848 c 0.34574,2.94166 1.11213,8.59941 1.7031,12.57279 l 1.07448,7.22432 17.65676,-2.29713 c 9.71122,-1.26341 20.35676,-2.70842 23.65676,-3.21112 6.04525,-0.92089 8.92012,-0.13103 6.89476,1.89433 -0.55289,0.55289 -11.33039,2.39221 -23.95,4.08739 -12.61962,1.69517 -23.1225,3.25805 -23.33974,3.47307 -0.40349,0.39935 1.6376,17.11272 2.5871,21.1843 l 0.5247,2.25 h 22.39159 C 518.82665,263 523,263.25361 523,264.36071 c 0,1.9175 -7.31673,2.62027 -27.38809,2.6306 l -16.8881,0.009 0.6904,6.75 c 0.37971,3.7125 1.00436,7.03192 1.38809,7.37649 0.54907,0.49303 15.80155,5.14443 34.4477,10.50516 2.5781,0.7412 2.17538,3.38468 -0.5,3.28199 -1.2375,-0.0475 -10.88743,-2.67159 -21.44429,-5.83131 z m -17.79859,-16.02097 c -0.66295,-5.71206 -1.6103,-7.32146 -2.99286,-5.08443 -0.52073,0.84255 0.53457,6.43835 2.05865,10.9162 1.06595,3.13181 1.59282,-0.15717 0.93421,-5.83177 z M 473.98206,261.75 c -0.01,-0.6875 -0.67679,-5.525 -1.48206,-10.75 -0.80527,-5.225 -1.4722,-9.8375 -1.48206,-10.25 -0.0353,-1.47526 -2.74091,-0.71359 -4.54448,1.27933 -1.67612,1.85209 -1.72023,2.4853 -0.50504,7.25 2.01112,7.88545 4.7738,13.72067 6.49604,13.72067 0.84455,0 1.52747,-0.5625 1.5176,-1.25 z m -4,-28 c -0.0243,-3.04684 -2.76154,-20.86282 -3.28594,-21.38722 -0.72351,-0.72351 -5.21692,1.35489 -6.64229,3.07236 -1.16716,1.40635 -0.97602,2.89488 1.32464,10.31589 1.47875,4.76982 3.23603,9.02024 3.90508,9.44537 2.45475,1.55983 4.71693,0.86343 4.69851,-1.4464 z M 285.85554,350.74353 C 259.8663,313.52534 231.8235,269.00348 214.31612,237.16475 c -9.51183,-17.29812 -21.29421,-41.77231 -21.30756,-44.25976 -0.005,-0.87726 0.95157,-2.45226 2.12506,-3.5 2.75834,-2.46276 15.48566,-18.45026 19.82636,-24.90499 6.60335,-9.81936 11.9706,-15.16252 23.46891,-23.36362 6.41453,-4.57513 12.59879,-9.28995 13.7428,-10.47739 1.18561,-1.23063 1.83656,-1.51399 1.51384,-0.65899 -6.71324,17.78589 -3.77828,33.03768 8.7728,45.58877 5.82716,5.82715 16.3865,11.49125 24.04167,12.89609 22.09744,4.05524 44.56736,-6.59262 53.31994,-25.26679 C 342.19347,158.154 342.5,156.29907 342.5,147 c 0,-9.29907 -0.30653,-11.154 -2.68006,-16.21807 -7.29313,-15.56035 -23.96681,-25.80672 -42.15662,-25.90625 -14.96029,-0.0819 -25.95961,4.26061 -35.85394,14.15494 -5.65106,5.65106 -5.80938,5.73294 -5.80938,3.00439 0,-8.13628 -21.26776,-10.48678 -35.7391,-3.94987 -2.33151,1.05317 -4.46529,1.91486 -4.74173,1.91486 -0.4293,0 -12.83916,6.10428 -29.51917,14.52018 -2.475,1.24876 -4.65859,1.8418 -4.85242,1.31787 -0.62327,-1.68468 2.05189,-14.12553 4.58833,-21.33805 5.61173,-15.957301 15.32974,-30.370313 28.46938,-42.223637 C 230.7303,57.369072 248.97513,48.231421 272,43.330741 c 11.81175,-2.514047 37.1906,-2.513761 49,5.53e-4 36.98227,7.873817 65.46041,28.529907 80.9866,58.742126 7.22399,14.05709 10.07519,24.71393 10.6822,39.92658 0.44108,11.0542 0.2133,13.59881 -1.96932,22 -6.84859,26.36113 -26.20297,66.14192 -55.70721,114.5 -12.50179,20.4907 -57.16567,87.52978 -58.29138,87.49353 -0.11049,-0.004 -4.9909,-6.86606 -10.84535,-15.25 z M 42.606295,321.92315 C 29.185218,309.65704 15.598489,281.05504 6.9826178,246.93024 2.0915545,227.55824 0.66462657,216.91106 0.62604884,199.5 c -0.031774,-14.34038 0.20035108,-16.59553 2.23786466,-21.74136 1.2503238,-3.15774 3.2425671,-6.42024 4.4272075,-7.25 2.2228088,-1.55691 6.355572,-1.96518 9.127092,-0.90165 2.65781,1.0199 1.78229,2.25265 -2.514063,3.53987 -2.738651,0.82052 -4.3954487,2.01515 -5,3.60524 -0.4972825,1.30796 -0.9035348,8.3113 -0.9027829,15.563 0.00203,19.5781 3.3773419,36.25305 10.8439349,53.57197 4.142205,9.60793 11.799741,22.57282 16.285995,27.57365 l 2.726541,3.03928 11.528541,-5.72334 c 6.340698,-3.14784 11.718508,-5.39784 11.950688,-5 1.299717,2.22704 3.070236,20.49898 3.073937,31.72334 0.0068,20.61473 -3.693379,29.5 -12.284962,29.5 -3.369736,0 -4.798661,-0.76204 -9.519747,-5.07685 z M 160.34487,313.9746 c 0.93537,-8.94919 1.58811,-10.93755 3.36654,-10.2551 1.23163,0.47262 1.40137,1.66386 0.87509,6.14164 C 163.63341,317.97045 162.96535,320 161.24914,320 c -1.27868,0 -1.42922,-1.00303 -0.90427,-6.0254 z m 24.9279,-9.98987 c -4.10879,-3.32457 -6.00622,-5.51578 -5.62854,-6.5 0.31336,-0.8166 0.75626,-1.48473 0.98423,-1.48473 0.22796,0 3.34253,2.30107 6.92126,5.11349 5.2254,4.10648 6.28018,5.38654 5.35609,6.5 -0.63288,0.76258 -1.21461,1.38651 -1.29273,1.38651 -0.0781,0 -2.93125,-2.25687 -6.34031,-5.01527 z m -50.60915,-5.41894 c -0.3969,-1.03429 1.45225,-2.21939 6.63138,-4.25 3.94996,-1.54869 7.46718,-2.94669 7.81604,-3.10668 0.34887,-0.15999 0.86376,0.58651 1.14419,1.65889 0.43058,1.64653 -0.59943,2.35351 -6.62268,4.5457 -8.31856,3.02759 -8.25249,3.0191 -8.96893,1.15209 z m 47.94546,-17.29004 c -1.68325,-1.68325 0.0174,-3.20557 6.36187,-5.69474 6.58054,-2.58178 9.02905,-2.71662 9.02905,-0.49724 0,0.53115 -1.0125,1.35871 -2.25,1.83902 -1.2375,0.48031 -4.56341,1.79326 -7.39092,2.91766 -2.82751,1.12441 -5.41501,1.77029 -5.75,1.4353 z m -37.26741,-8.95476 c -3.21292,-2.57345 -6.0183,-4.81258 -6.23417,-4.97583 -0.21588,-0.16326 0.16129,-0.96411 0.83816,-1.77968 1.0554,-1.27169 2.14146,-0.75298 7.62659,3.64253 5.00001,4.00676 6.15444,5.41638 5.2894,6.45869 -0.6086,0.73331 -1.23519,1.3333 -1.39243,1.3333 -0.15723,0 -2.91463,-2.10555 -6.12755,-4.67901 z m 22.92839,-3.15408 c -0.83959,-0.5189 -0.85241,-2.71097 -0.0493,-8.43402 0.93204,-6.64205 1.36137,-7.73289 3.04349,-7.73289 1.65782,0 1.8723,0.49878 1.39756,3.25 -0.30845,1.7875 -0.86046,5.39303 -1.22668,8.0123 -0.7068,5.05506 -1.33827,6.03361 -3.16503,4.90461 z M 129.02935,81.53537 c -0.99889,-1.203596 2.56817,-3.946071 21.5297,-16.552727 C 177.06623,47.359236 172.7398,48.21374 196,56.007689 c 18.67146,6.256369 22,7.694562 22,9.505731 0,2.204859 -1.25416,1.937428 -16,-3.411767 -7.425,-2.69349 -16.70143,-5.664244 -20.6143,-6.601676 l -7.11429,-1.704423 -20.88571,13.917133 c -11.48713,7.654423 -21.39721,14.220469 -22.02239,14.591213 -0.62518,0.370743 -1.67546,0.02491 -2.33396,-0.76853 z M 120.38743,66.817859 C 119.4268,65.263521 125.05604,60.425325 137,52.539764 c 13.44864,-8.878969 19.38675,-11.989066 21.40907,-11.213033 2.46734,0.946808 1.40364,2.046647 -5.96454,6.167167 -9.29101,5.195825 -23.5145,14.857619 -26.36884,17.911942 -2.62205,2.805741 -4.53362,3.28026 -5.68826,1.412019 z"
         id="path3" />
      <path
         style="fill:#100f1c"
         d="m 415.83196,448.92045 c -12.88339,-1.06565 -27.47206,-3.60213 -37.65431,-6.54682 -25.97337,-7.51145 -30.71253,-18.93758 -11.5039,-27.73596 3.20444,-1.46777 6.44397,-3.01211 7.19897,-3.43187 0.80656,-0.44843 12.92952,-42.40739 29.39357,-101.7345 L 431.28714,208.5 l 0.77944,-24.5 0.77944,-24.5 7.4387,-40.15141 c 8.02638,-43.323567 8.41594,-44.555067 15.09672,-47.725303 8.0604,-3.824914 17.45336,-0.686958 21.14987,7.065648 1.77106,3.714404 1.74945,4.732405 -0.85177,40.136745 -1.88033,25.59267 -2.36648,36.89075 -1.64536,38.23819 1.86739,3.48924 5.36906,3.28079 24.69686,-1.47016 18.25257,-4.48666 18.91533,-4.57558 24.08895,-3.23199 7.5064,1.94943 11.4054,6.09517 15.41311,16.38852 2.01037,5.16341 4.92195,10.342 7.56992,13.46399 5.18057,6.10796 7.52404,10.57936 9.13602,17.4318 1.02029,4.33721 0.80445,9.83828 -1.37323,35 -1.42109,16.41968 -3.07157,32.53897 -3.66775,35.82064 -2.18356,12.01943 -9.60313,21.78712 -20.68129,27.22643 -5.14028,2.52385 -6.75483,2.8069 -16.01065,2.8069 -9.48035,0 -10.32871,0.15806 -10.7345,2 -0.60548,2.7484 -15.27363,97.28652 -15.66046,100.93377 -0.30361,2.86262 -0.15353,2.96596 6.18884,4.26114 16.55292,3.38029 30.06104,9.83064 32.86107,15.69173 7.9715,16.68612 -51.14328,30.40454 -110.02911,25.53381 z M 453,430.57384 c 21.11871,-2.37573 25.93872,-3.45363 26.5069,-5.92772 C 480.24829,421.41778 499,301.11185 499,299.58363 c 0,-0.79916 -7.62519,-4.21522 -19.25,-8.62392 -10.5875,-4.0153 -21.42688,-8.37639 -24.0875,-9.69132 -6.7786,-3.35008 -13.28724,-10.24192 -16.83764,-17.82897 -3.17303,-6.78059 -3.85955,-13.1269 -2.91422,-26.93942 0.22585,-3.3 0.0514,-8.5875 -0.38768,-11.75 -0.67217,-4.84138 -0.55667,-5.75 0.73095,-5.75 2.48005,0 3.15928,4.55799 3.20393,21.5 0.0401,15.21802 0.17178,16.2688 2.69421,21.5 5.47167,11.34753 10.21815,14.55356 36.34795,24.55137 26.31711,10.06949 27.62066,10.44876 35.90893,10.44784 9.07526,-0.001 17.16402,-3.59925 23.43018,-10.42279 7.52638,-8.19586 8.1076,-10.47636 11.35166,-44.54012 1.59947,-16.79496 2.72849,-33.46855 2.50894,-37.05241 -0.48184,-7.8651 -3.05351,-13.94429 -8.47917,-20.04399 -2.46353,-2.76957 -5.36458,-7.83445 -7.38837,-12.89919 -3.9377,-9.85448 -7.75046,-14.33673 -13.7156,-16.12393 -4.09788,-1.22776 -5.50923,-1.01964 -23.75461,3.50284 -17.30747,4.28999 -19.72759,4.67157 -22.45738,3.54085 -6.93593,-2.87295 -7.007,-3.67019 -3.9,-43.75147 2.36893,-30.560114 2.45394,-36.421641 0.58073,-40.044022 -3.81923,-7.385591 -15.60261,-7.484298 -19.9251,-0.166908 -2.13932,3.621579 -15.29579,75.29793 -16.79553,91.50193 -0.61086,6.6 -0.82346,16.81881 -0.47244,22.70846 l 0.63822,10.70847 -30.63873,111.08471 c -16.85129,61.09659 -30.44875,111.27468 -30.21656,111.50686 0.66635,0.66635 17.47506,3.3944 26.82483,4.35367 13.44461,1.37938 37.37795,1.24408 51,-0.28833 z m 40.30571,-141.49151 c -10.55686,-3.15973 -19.83721,-6.27855 -20.62301,-6.9307 -1.85902,-1.54285 -4.90305,-12.41384 -4.07805,-14.56375 0.35085,-0.9143 -0.0333,-2.43311 -0.85368,-3.37513 -0.82037,-0.94201 -2.73752,-5.50219 -4.26034,-10.13373 -2.40851,-7.32532 -2.61406,-8.84878 -1.57979,-11.70901 0.96895,-2.67957 0.91889,-3.712 -0.27049,-5.57902 -0.80271,-1.26005 -2.63902,-6.07055 -4.08068,-10.69002 -2.58698,-8.28934 -2.5976,-8.44674 -0.81331,-12.05312 1.6652,-3.36566 1.6805,-3.78828 0.19383,-5.35419 C 454.97998,206.62898 452,196.32029 452,191.60399 c 0,-2.58475 0.74213,-4.05066 3.02179,-5.96887 4.90614,-4.12824 47.44068,-25.05537 49.39834,-24.30414 0.93865,0.36019 1.49364,0.99952 1.23332,1.42073 -0.26032,0.42121 -11.14239,6.16189 -24.18237,12.75706 -13.31644,6.73501 -24.33838,12.93714 -25.14476,14.14918 -1.25654,1.88864 -1.22887,2.88703 0.22171,8 2.24077,7.89827 3.9226,10.34205 7.11748,10.34205 2.88461,0 2.85937,0.59768 0.70722,-16.75 -0.55097,-4.44115 -0.40169,-5.25 0.96893,-5.25 1.82475,0 2.18488,1.22626 3.65101,12.4319 0.57079,4.36255 1.14345,8.02891 1.27257,8.14747 0.12912,0.11856 9.90976,-2.37926 21.73476,-5.55071 11.825,-3.17145 21.8375,-5.57375 22.25,-5.33845 0.4125,0.2353 0.75,1.01325 0.75,1.72877 0,1.1705 -6.42079,3.09113 -39.35985,11.77358 l -4.85985,1.28101 0.6286,5.34848 c 0.34574,2.94166 1.11213,8.59941 1.7031,12.57279 l 1.07448,7.22432 17.65676,-2.29713 c 9.71122,-1.26341 20.35676,-2.70842 23.65676,-3.21112 6.04525,-0.92089 8.92012,-0.13103 6.89476,1.89433 -0.55289,0.55289 -11.33039,2.39221 -23.95,4.08739 -12.61962,1.69517 -23.1225,3.25805 -23.33974,3.47307 -0.40349,0.39935 1.6376,17.11272 2.5871,21.1843 l 0.5247,2.25 h 22.39159 C 518.82665,263 523,263.25361 523,264.36071 c 0,1.9175 -7.31673,2.62027 -27.38809,2.6306 l -16.8881,0.009 0.6904,6.75 c 0.37971,3.7125 1.00436,7.03192 1.38809,7.37649 0.54907,0.49303 15.80155,5.14443 34.4477,10.50516 2.5781,0.7412 2.17538,3.38468 -0.5,3.28199 -1.2375,-0.0475 -10.88743,-2.67159 -21.44429,-5.83131 z m -17.79859,-16.02097 c -0.66295,-5.71206 -1.6103,-7.32146 -2.99286,-5.08443 -0.52073,0.84255 0.53457,6.43835 2.05865,10.9162 1.06595,3.13181 1.59282,-0.15717 0.93421,-5.83177 z M 473.98206,261.75 c -0.01,-0.6875 -0.67679,-5.525 -1.48206,-10.75 -0.80527,-5.225 -1.4722,-9.8375 -1.48206,-10.25 -0.0353,-1.47526 -2.74091,-0.71359 -4.54448,1.27933 -1.67612,1.85209 -1.72023,2.4853 -0.50504,7.25 2.01112,7.88545 4.7738,13.72067 6.49604,13.72067 0.84455,0 1.52747,-0.5625 1.5176,-1.25 z m -4,-28 c -0.0243,-3.04684 -2.76154,-20.86282 -3.28594,-21.38722 -0.72351,-0.72351 -5.21692,1.35489 -6.64229,3.07236 -1.16716,1.40635 -0.97602,2.89488 1.32464,10.31589 1.47875,4.76982 3.23603,9.02024 3.90508,9.44537 2.45475,1.55983 4.71693,0.86343 4.69851,-1.4464 z M 42.606295,321.92315 C 29.185218,309.65704 15.598489,281.05504 6.9826178,246.93024 2.0915545,227.55824 0.66462657,216.91106 0.62604884,199.5 c -0.031774,-14.34038 0.20035108,-16.59553 2.23786466,-21.74136 1.2503238,-3.15774 3.2425671,-6.42024 4.4272075,-7.25 2.2228088,-1.55691 6.355572,-1.96518 9.127092,-0.90165 2.65781,1.0199 1.78229,2.25265 -2.514063,3.53987 -2.738651,0.82052 -4.3954487,2.01515 -5,3.60524 -0.4972825,1.30796 -0.9035348,8.3113 -0.9027829,15.563 0.00203,19.5781 3.3773419,36.25305 10.8439349,53.57197 4.142205,9.60793 11.799741,22.57282 16.285995,27.57365 l 2.726541,3.03928 11.528541,-5.72334 c 6.340698,-3.14784 11.718508,-5.39784 11.950688,-5 1.299717,2.22704 3.070236,20.49898 3.073937,31.72334 0.0068,20.61473 -3.693379,29.5 -12.284962,29.5 -3.369736,0 -4.798661,-0.76204 -9.519747,-5.07685 z M 160.34487,313.9746 c 0.93537,-8.94919 1.58811,-10.93755 3.36654,-10.2551 1.23163,0.47262 1.40137,1.66386 0.87509,6.14164 C 163.63341,317.97045 162.96535,320 161.24914,320 c -1.27868,0 -1.42922,-1.00303 -0.90427,-6.0254 z m 24.9279,-9.98987 c -4.10879,-3.32457 -6.00622,-5.51578 -5.62854,-6.5 0.31336,-0.8166 0.75626,-1.48473 0.98423,-1.48473 0.22796,0 3.34253,2.30107 6.92126,5.11349 5.2254,4.10648 6.28018,5.38654 5.35609,6.5 -0.63288,0.76258 -1.21461,1.38651 -1.29273,1.38651 -0.0781,0 -2.93125,-2.25687 -6.34031,-5.01527 z m -50.60915,-5.41894 c -0.3969,-1.03429 1.45225,-2.21939 6.63138,-4.25 3.94996,-1.54869 7.46718,-2.94669 7.81604,-3.10668 0.34887,-0.15999 0.86376,0.58651 1.14419,1.65889 0.43058,1.64653 -0.59943,2.35351 -6.62268,4.5457 -8.31856,3.02759 -8.25249,3.0191 -8.96893,1.15209 z m 47.94546,-17.29004 c -1.68325,-1.68325 0.0174,-3.20557 6.36187,-5.69474 6.58054,-2.58178 9.02905,-2.71662 9.02905,-0.49724 0,0.53115 -1.0125,1.35871 -2.25,1.83902 -1.2375,0.48031 -4.56341,1.79326 -7.39092,2.91766 -2.82751,1.12441 -5.41501,1.77029 -5.75,1.4353 z m -37.26741,-8.95476 c -3.21292,-2.57345 -6.0183,-4.81258 -6.23417,-4.97583 -0.21588,-0.16326 0.16129,-0.96411 0.83816,-1.77968 1.0554,-1.27169 2.14146,-0.75298 7.62659,3.64253 5.00001,4.00676 6.15444,5.41638 5.2894,6.45869 -0.6086,0.73331 -1.23519,1.3333 -1.39243,1.3333 -0.15723,0 -2.91463,-2.10555 -6.12755,-4.67901 z m 22.92839,-3.15408 c -0.83959,-0.5189 -0.85241,-2.71097 -0.0493,-8.43402 0.93204,-6.64205 1.36137,-7.73289 3.04349,-7.73289 1.65782,0 1.8723,0.49878 1.39756,3.25 -0.30845,1.7875 -0.86046,5.39303 -1.22668,8.0123 -0.7068,5.05506 -1.33827,6.03361 -3.16503,4.90461 z M 129.02935,81.53537 c -0.99889,-1.203596 2.56817,-3.946071 21.5297,-16.552727 C 177.06623,47.359236 172.7398,48.21374 196,56.007689 c 18.67146,6.256369 22,7.694562 22,9.505731 0,2.204859 -1.25416,1.937428 -16,-3.411767 -7.425,-2.69349 -16.70143,-5.664244 -20.6143,-6.601676 l -7.11429,-1.704423 -20.88571,13.917133 c -11.48713,7.654423 -21.39721,14.220469 -22.02239,14.591213 -0.62518,0.370743 -1.67546,0.02491 -2.33396,-0.76853 z M 120.38743,66.817859 C 119.4268,65.263521 125.05604,60.425325 137,52.539764 c 13.44864,-8.878969 19.38675,-11.989066 21.40907,-11.213033 2.46734,0.946808 1.40364,2.046647 -5.96454,6.167167 -9.29101,5.195825 -23.5145,14.857619 -26.36884,17.911942 -2.62205,2.805741 -4.53362,3.28026 -5.68826,1.412019 z"
         id="path2" />
    </g>
  </g>
</svg>
