<?xml version="1.0" encoding="UTF-8" standalone="no"?>
<!-- Created with Inkscape (http://www.inkscape.org/) -->

<svg
   version="1.1"
   id="svg1"
   width="476"
   height="450"
   viewBox="0 0 476 450"
   sodipodi:docname="BUSINESS_34.svg"
   inkscape:version="1.3.2 (091e20e, 2023-11-25, custom)"
   xmlns:inkscape="http://www.inkscape.org/namespaces/inkscape"
   xmlns:sodipodi="http://sodipodi.sourceforge.net/DTD/sodipodi-0.dtd"
   xmlns="http://www.w3.org/2000/svg"
   xmlns:svg="http://www.w3.org/2000/svg">
  <defs
     id="defs1" />
  <sodipodi:namedview
     id="namedview1"
     pagecolor="#ffffff"
     bordercolor="#000000"
     borderopacity="0.25"
     inkscape:showpageshadow="2"
     inkscape:pageopacity="0.0"
     inkscape:pagecheckerboard="0"
     inkscape:deskcolor="#d1d1d1"
     showgrid="false"
     inkscape:zoom="1.6869748"
     inkscape:cx="238"
     inkscape:cy="224.9589"
     inkscape:window-width="1920"
     inkscape:window-height="1001"
     inkscape:window-x="-9"
     inkscape:window-y="-9"
     inkscape:window-maximized="1"
     inkscape:current-layer="g1" />
  <g
     inkscape:groupmode="layer"
     inkscape:label="Image"
     id="g1">
    <g
       id="g2"
       transform="translate(0.03893289,0.15469697)">
      <path
         style="fill:#fdfdfe"
         d="M 0,225 V 0 H 238 476 V 225 450 H 238 0 Z"
         id="path7" />
      <path
         style="fill:#9faec0"
         d="M 226,448.8973 C 200.21892,445.99873 172.56793,437.64732 148.72378,425.5576 137.9537,420.09684 116,406.37968 116,405.11106 c 0,-0.36944 -4.09263,-4.02957 -9.09474,-8.13362 C 63.728754,361.55265 34.790852,307.85998 27.960593,250.5 c -1.663143,-13.96695 -1.407498,-42.57272 0.509399,-57 2.555724,-19.23533 9.80382,-46.39367 15.131009,-56.69531 l 1.406782,-2.72042 -7.753891,-0.29214 C 30.264045,133.52879 29.5,133.30293 29.5,131.5 c 0,-1.81057 0.833333,-2.04736 8.798363,-2.5 l 8.798363,-0.5 4.881241,-9.25 4.881241,-9.25 H 42.929604 C 29.666667,110 29,109.90428 29,108 c 0,-1.90891 0.671771,-2.0007 14.75,-2.01531 8.1125,-0.008 15.2,-0.34592 15.75,-0.75 0.55,-0.40408 2.8,-3.42518 5,-6.713546 8.856863,-13.238479 24.999534,-31.055327 39,-43.044741 C 137.9708,25.957048 174.77745,8.8783565 218,2.3471365 c 16.60707,-2.50944093 53.51737,-2.51777585 68.37763,-0.015441 31.36018,5.2807763 61.59656,17.0791875 88.01223,34.3428805 14.47738,9.461547 22.66318,16.193225 36.15851,29.73531 36.62261,36.749504 58.54427,82.806924 64.52817,135.573704 1.50461,13.26787 0.65697,45.08579 -1.54558,58.01641 -5.47285,32.12967 -17.76797,62.98266 -35.8656,90 -8.38617,12.51944 -15.40099,20.89302 -28.83457,34.41981 C 401.77385,391.52571 396,397.62499 396,397.97377 c 0,0.94239 -12.24742,10.00597 -22.46473,16.62479 -28.24671,18.29835 -63.20498,30.58118 -97.74586,34.34368 -11.175,1.21728 -38.78437,1.19236 -49.78941,-0.0449 z m -31.8146,-36.48044 c 2.02697,-14.80427 3.71447,-28.64186 3.75,-30.75019 0.0947,-5.61851 -2.27827,-4.14706 -3.08995,1.91604 -0.36205,2.70451 -1.64992,12.34229 -2.86193,21.41729 -1.21201,9.075 -2.76021,20.325 -3.44044,25 -1.28345,8.82067 -1.15609,10.37087 0.79856,9.71965 0.71023,-0.23663 2.58411,-10.79913 4.84376,-27.30279 z M 322.52705,373.3149 c -2.60872,-33.99819 -5.12976,-62.22765 -5.60231,-62.73212 -0.50675,-0.54098 -1.13638,-0.19484 -1.53496,0.84385 -0.69496,1.81105 8.3662,123.36952 9.31,124.89662 0.28927,0.46806 0.98596,0.39101 1.54818,-0.17121 0.69631,-0.69631 -0.49005,-20.73107 -3.72091,-62.83714 z m -72.66816,-47.34954 c 15.78386,-6.79004 18.32166,-25.78481 5.19832,-38.90815 -3.55237,-3.55237 -4.16648,-3.79922 -8.29416,-3.33397 l -4.45774,0.50245 -0.64396,-5.36284 c -0.35418,-2.94957 -0.64788,-6.99117 -0.65266,-8.98134 l -0.009,-3.6185 -7.25,-0.47342 c -8.78615,-0.57373 -13.76585,-2.91338 -19.54495,-9.18296 -4.53095,-4.9155 -5.05852,-6.34189 -2.68281,-7.25354 0.98878,-0.37943 2.91049,0.993 5.48365,3.91627 9.44042,10.72487 26.48057,10.91318 35.71593,0.39469 7.88529,-8.98085 8.23416,-19.04844 1.08609,-31.34166 -4.11607,-7.07879 -4.40903,-8.00153 -3.15031,-9.92257 2.02032,-3.08341 0.72633,-5.39982 -3.01645,-5.39982 -2.58453,0 -3.76815,-0.8377 -6.64301,-4.70156 -4.93395,-6.63131 -11.48397,-9.81453 -20.05063,-9.74433 -5.2684,0.0432 -7.51331,0.58743 -11.10511,2.69236 -6.35835,3.72624 -7.53629,5.3293 -5.5383,7.53706 0.86907,0.96031 1.99542,3.59438 2.50301,5.85349 1.64924,7.34021 -2.2225,14.46297 -10.04111,18.47246 -3.77579,1.93628 -5.48751,5.23047 -4.87947,9.39052 0.35157,2.40528 3.96044,6.5 5.72877,6.5 0.69666,0 1.56257,0.47879 1.92424,1.06398 0.61293,0.99173 5.37201,47.41568 5.42666,52.93602 0.0212,2.13673 -1.20176,3.12642 -8.41595,6.81095 -5.48936,2.8036 -8.26478,4.76939 -7.93759,5.62205 1.69735,4.42321 21.57309,14.51921 35.88734,18.22917 7.13912,1.85032 18.95052,1.06 25.35889,-1.69681 z M 200.0069,238.0129 c -0.62068,-1.15975 -2.26272,-2.53986 -3.64898,-3.06692 -3.05235,-1.1605 -2.62573,-3.33488 0.73373,-3.73968 3.10272,-0.37387 7.12969,3.25857 6.71578,6.05784 -0.42612,2.88191 -2.44593,3.27984 -3.80053,0.74876 z m 40.02133,-14.10457 c -3.11814,-1.27154 -4.20633,-2.98881 -2.89509,-4.56875 0.76774,-0.92508 1.61596,-0.95539 3.4428,-0.12303 1.80414,0.82203 3.10415,0.79461 5.08342,-0.1072 2.54573,-1.15992 4.26738,-0.35659 4.32533,2.01821 0.059,2.41636 -6.41566,4.22468 -9.95646,2.78077 z m -4.63824,-13.33442 c -0.9098,-2.37089 0.3775,-4.76534 2.35699,-4.38412 2.37799,0.45796 2.37799,5.16246 0,5.62042 -0.96417,0.18568 -2.02481,-0.37065 -2.35699,-1.2363 z M 227,206.45455 C 227,204.71452 231.34931,200 232.95455,200 c 1.6886,0 1.20465,2.52789 -1.02713,5.36514 C 229.63768,208.27608 227,208.85924 227,206.45455 Z M 339.5,306 c 9.35,-1.0846 17.59282,-1.9783 18.31739,-1.986 0.77454,-0.008 1.11303,-0.73511 0.82144,-1.764 -0.27277,-0.9625 -0.77221,-6.25 -1.10988,-11.75 l -0.61394,-10 6.29249,-5.07078 c 27.49366,-22.15565 61.34574,-50.92445 61.58828,-52.34007 0.36293,-2.11833 -4.02547,-4.33567 -6.55439,-3.31176 -0.9816,0.39744 -5.03387,2.74761 -9.00504,5.22261 -6.92142,4.31371 -7.30667,4.75828 -9.30625,10.73914 -2.2358,6.68741 -3.44119,8.14977 -5.23722,6.35374 -0.84381,-0.84381 0.19903,-5.15482 4.08713,-16.89599 5.74778,-17.35694 6.14218,-19.46116 3.46999,-18.51351 -3.33573,1.18298 -5.29224,3.68909 -10.32835,13.22963 -4.69626,8.89675 -5.16745,10.44605 -6.54441,21.51869 -0.81609,6.56243 -1.71138,12.29993 -1.98953,12.75 -0.73742,1.19316 -3.16021,1.0008 -3.58879,-0.28494 -0.20226,-0.60678 0.64172,-9.49428 1.87552,-19.75 1.23379,-10.25572 2.26178,-19.20926 2.28441,-19.89676 0.0644,-1.95751 -2.5941,-1.46929 -5.4454,1 -2.53805,2.19801 -3.26785,4.39431 -10.44179,31.42402 -0.96905,3.65115 -2.53197,5.31096 -12.47649,13.25 C 349.34241,264.91581 343.50055,269 342.61326,269 c -3.87398,0 -0.89501,-3.99045 8.50469,-11.39237 9.07446,-7.14582 13.81894,-12.00408 12.75851,-13.0645 -0.21695,-0.21695 -5.9006,-0.71652 -12.63033,-1.11016 -7.4293,-0.43455 -12.62502,-1.18457 -13.22648,-1.90929 -0.67955,-0.81881 0.41782,-5.39277 3.49488,-14.567 C 343.98154,219.60131 346,212.58419 346,211.36307 c 0,-4.839 -6.9936,-7.31332 -10.21227,-3.61307 -3.67113,4.22041 -23.28757,39.15619 -25.08058,44.66713 -1.3331,4.09734 -1.98309,8.85738 -1.99132,14.58287 -0.0116,8.09476 0.81874,12.28816 7.37614,37.25 1.18807,4.52258 0.16555,4.44613 23.40803,1.75 z m 85.86163,-128.5 c 0.46405,-1.2093 -0.38731,-1.5 -4.39301,-1.5 H 416 V 136.5 97 h -12.48839 -12.4884 l -0.2616,39.25 -0.26161,39.25 -6.25,0.29772 -6.25,0.29771 V 153.54772 131 h -10.48087 -10.48087 l -0.26913,22.25 -0.26913,22.25 -6.25,0.29772 -6.25,0.29771 V 144.04772 112 H 331.51405 319.02809 L 318.76405,143.75 318.5,175.5 h -6 -6 L 306.22012,162.75 305.94025,150 H 295.5 285.05975 l -0.27987,12.75 -0.27988,12.75 -3.25,-0.0551 c -2.48676,-0.0422 -3.25,0.36878 -3.25,1.75 0,1.72379 3.30746,1.80514 73.39301,1.80514 64.31574,0 73.4642,-0.18552 73.96862,-1.5 z M 322.70264,175.36931 C 322.31619,174.98286 322,161.24167 322,144.83333 V 115 h 9.51466 9.51467 l -0.26467,30.25 -0.26466,30.25 -8.54736,0.28598 c -4.70104,0.15728 -8.86354,-0.0302 -9.25,-0.41667 z M 394,138 v -38 h 8.9761 8.97609 l 0.27391,37.00397 c 0.15064,20.35218 0.1239,37.45218 -0.0594,38 -0.18808,0.56198 -4.21903,0.99603 -9.25,0.99603 H 394 Z M 0.21106712,131.25 0.5,122.5 7.8424999,122.20432 C 12.394941,122.021 15.719832,122.35252 16.5925,123.07677 17.529764,123.85463 18,126.34826 18,130.54066 18,140.09851 18.100449,140 8.3540783,140 H -0.07786577 Z M 13,131.5 V 127 H 8.5 4 v 4.5 4.5 H 8.5 13 Z M 0.66666667,116.33333 C 0.3,115.96667 0,111.91667 0,107.33333 V 99 h 8.3930112 c 6.7308378,0 8.5132208,0.313261 8.9999998,1.58179 1.083785,2.8243 0.649236,13.97596 -0.593011,15.21821 -1.265771,1.26577 -14.9485715,1.7181 -16.13333333,0.53333 z M 13,107.4425 v -4.5575 l -4.25,0.3075 c -4.2293392,0.30601 -4.2514949,0.32816 -4.5574978,4.5575 L 3.8850043,112 H 8.4425022 13 Z"
         id="path6" />
      <path
         style="fill:#facb41"
         d="m 224.70755,448.47727 c -25.2862,-3.0595 -49.79317,-10.38848 -73.20755,-21.89322 -14.17051,-6.96273 -32.67797,-18.37703 -36.33692,-22.41045 -0.91469,-1.00831 -5.54395,-5.06047 -10.28723,-9.00479 C 68.79393,365.16451 41.485663,319.26703 31.550137,271.92901 28.004871,255.03751 26.772932,242.49398 26.793774,223.5 c 0.03075,-28.02571 4.807308,-55.59804 13.599129,-78.5 2.005823,-5.225 3.750483,-9.95 3.877024,-10.5 0.134007,-0.58245 -3.033042,-1.12244 -7.584925,-1.29323 -6.739521,-0.25288 -7.77026,-0.52812 -7.489909,-2 0.268098,-1.40755 1.865774,-1.79443 9.113361,-2.20677 l 8.788272,-0.5 4.866628,-9.22233 4.866627,-9.22234 -13.65257,-0.27766 C 31.09921,109.53202 29.486124,109.2982 29.189096,107.75 28.881115,106.14471 30.123603,106 44.214585,106 h 15.361233 l 4.385635,-6.670552 c 5.709291,-8.683833 17.243364,-22.502007 26.554676,-31.813319 8.970912,-8.970912 25.097291,-22.522985 26.771831,-22.498162 0.66662,0.0099 2.678,2.259882 4.46973,5 C 123.54941,52.758085 125.46191,55 126.00769,55 126.55346,55 127,55.482143 127,56.071429 c 0,1.599692 2.64526,3.938451 3.54128,3.130952 0.42865,-0.38631 0.47809,-0.17616 0.10985,0.466999 -0.36823,0.643159 -0.10288,1.780304 0.58968,2.526988 1.49583,1.612745 4.9531,6.425191 9.55735,13.303632 5.45448,8.148628 10.36027,13.376434 11.97208,12.757924 1.08002,-0.414441 1.29876,-0.05067 0.83953,1.396206 -0.38439,1.211118 0.0691,2.697627 1.1901,3.901271 0.99612,1.06953 3.40061,4.305137 5.34332,7.190239 1.94271,2.8851 3.83023,4.9476 4.1945,4.58333 0.36427,-0.36427 0.66231,0.0825 0.66231,0.99293 0,0.91038 0.65413,2.44788 1.45363,3.41667 0.7995,0.96879 3.6657,4.55773 6.36934,7.97543 2.70363,3.4177 5.1995,5.9302 5.54636,5.58333 0.34687,-0.34686 0.63067,0.34434 0.63067,1.536 0,1.19167 0.41968,2.16667 0.93261,2.16667 0.51294,0 1.19269,0.81944 1.51057,1.82097 0.31787,1.00153 1.83752,3.13903 3.37699,4.75 1.53947,1.61097 3.75663,4.51171 4.92702,6.44609 1.1704,1.93438 3.28108,4.60032 4.6904,5.92431 1.40933,1.32399 2.56241,2.82656 2.56241,3.33904 0,0.87185 4.95812,7.63626 7.70058,10.50598 0.67613,0.70751 1.97416,2.54727 2.88451,4.08836 1.23644,2.09313 2.23828,2.69051 3.96016,2.36135 2.50878,-0.47958 9.11961,1.35242 11.34599,3.14422 0.76519,0.61583 3.01519,1.67452 5,2.35267 1.98482,0.67814 2.59626,1.05777 1.35876,0.84362 -1.2375,-0.21416 -2.25,-0.039 -2.25,0.3892 0,0.42822 1.6875,1.04896 3.75,1.37943 2.24611,0.35989 5.15363,1.90324 7.25,3.84837 1.925,1.78614 3.7625,3.17326 4.08333,3.08251 0.81669,-0.23102 1.0185,1.19543 1.34175,9.48394 0.28743,7.36992 2.08814,11.23994 5.22991,11.23994 1.6484,0 1.65342,-0.91505 0.39499,-72 -0.52092,-29.425 -1.22894,-70.782114 -1.57338,-91.904697 l -0.62626,-38.40469694 14.82483,0.61573225 C 292.16704,1.5727833 320.04985,8.6648087 348.5,22.390336 394.81591,44.735049 429.61701,79.118727 452.41913,125.06302 488.455,197.67217 482.89224,282.48231 437.66536,350 c -8.91711,13.31205 -15.64375,21.1736 -32.56809,38.06292 -12.86623,12.83961 -19.07006,18.19846 -27.59727,23.83848 -22.35836,14.78812 -52.39844,27.53507 -77.80507,33.01513 -22.85034,4.92868 -52.17364,6.32108 -74.98738,3.56074 z M 190.5087,438.75 c 0.24526,-0.6875 2.21294,-14.3 4.37261,-30.25 3.66385,-27.05891 3.89458,-32.76063 1.21196,-29.95 -1.01475,1.06316 -9.12733,59.52253 -8.42353,60.7 0.70002,1.17113 2.34622,0.8812 2.83896,-0.5 z m 135.18193,-25.99677 c -6.62145,-86.52767 -7.89484,-101.35744 -8.77921,-102.24181 -0.6596,-0.6596 -1.24526,-0.58929 -1.73844,0.20869 -0.75675,1.22445 8.26515,122.37329 9.31726,125.11506 0.43759,1.14032 0.854,1.22059 1.73931,0.33528 0.88532,-0.88532 0.75629,-6.49166 -0.53892,-23.41722 z m -75.3393,-86.68126 c 12.75252,-6.17339 16.90916,-19.47339 10.03391,-32.10548 C 256.18581,286.25074 252.71616,283.5 247.18333,283.5 H 242.5 l -0.90178,-8.75 -0.90178,-8.75 h -4.66672 c -8.34338,0 -14.64356,-2.58483 -20.7749,-8.5235 -4.81701,-4.66564 -5.39023,-5.60842 -4.24732,-6.98554 1.17593,-1.41691 1.82554,-1.10337 5.90687,2.85098 6.8144,6.60241 10.35222,8.13255 18.59083,8.0407 8.00758,-0.0893 11.67316,-1.60609 16.90844,-6.99669 4.95103,-5.09791 6.91746,-10.84524 6.41429,-18.74727 -0.40764,-6.40196 -0.60089,-6.85248 -7.8878,-18.38868 -1.14954,-1.81988 -1.18407,-2.62974 -0.18068,-4.23643 1.62294,-2.59873 1.56519,-3.54607 -0.33178,-5.44304 -0.98577,-0.98577 -2.45098,-1.3518 -3.92765,-0.98118 -1.87712,0.47113 -2.65642,0.0145 -3.83839,-2.2491 -1.87469,-3.59024 -6.15167,-7.58162 -10.66163,-9.9497 -7.64532,-4.01439 -21.75416,-1.74543 -27.3035,4.3909 -1.74108,1.92525 -1.73256,2.11062 0.24626,5.35641 4.64736,7.62287 1.73165,16.80184 -6.94276,21.85657 -5.81527,3.38867 -7.5569,6.78813 -5.95869,11.63075 0.85113,2.57895 2.11777,3.96117 4.56818,4.98501 1.86478,0.77916 3.39153,1.52311 3.39278,1.65323 10e-4,0.13012 1.12249,12.32314 2.49164,27.0956 1.36915,14.77246 2.2341,27.27205 1.92211,27.77686 -0.31199,0.50481 -4.13323,2.71077 -8.49164,4.90214 -4.35841,2.19137 -7.92438,4.39147 -7.92438,4.88911 0,2.90712 18.01938,13.03889 30,16.86811 9.72217,3.10738 9.83186,3.12331 19.1649,2.78223 6.38354,-0.23329 9.85537,-0.89296 13.18643,-2.5055 z m -50.07469,-88.12072 c -0.97715,-1.17361 -2.82572,-2.54553 -4.10792,-3.0487 -2.70139,-1.06009 -2.42185,-3.26726 0.46821,-3.69702 2.56747,-0.38178 7.36307,3.40102 7.36307,5.80803 0,2.86617 -1.75063,3.30704 -3.72336,0.93769 z M 241.5,224.21147 c -2.69874,-0.57576 -4.5,-2.14558 -4.5,-3.92181 0,-1.15776 0.84713,-1.32233 4.03459,-0.78382 2.479,0.41883 4.54843,0.25518 5.36732,-0.42443 1.62037,-1.34479 3.89416,0.82151 2.77054,2.63957 -0.99518,1.61023 -5.27965,3.00098 -7.67245,2.49049 z m -5.48943,-13.69874 C 234.52506,208.72281 235.36413,206 237.40123,206 c 1.63085,0 3.07378,3.42239 2.1043,4.99105 -0.87592,1.41727 -2.05577,1.2558 -3.49496,-0.47832 z M 227,206.52787 c 0,-2.56919 4.92305,-7.00482 6.27455,-5.65332 0.82668,0.82668 0.58226,1.84095 -0.93325,3.87273 -2.38251,3.19414 -5.3413,4.18049 -5.3413,1.78059 z m 113.45721,99.43023 c 9.87646,-1.12155 18.05845,-2.14043 18.1822,-2.26418 0.12375,-0.12374 -0.23443,-5.29683 -0.79595,-11.49573 -1.01339,-11.18727 -1.00363,-11.28443 1.3178,-13.11931 1.28631,-1.01671 16.51374,-13.61223 33.83874,-27.99004 33.1023,-27.4712 34.83799,-29.36677 28.8259,-31.48111 -2.32107,-0.81627 -3.80573,-0.2277 -11.24578,4.45822 -8.42477,5.30613 -8.60741,5.50606 -10.65742,11.66635 C 398.32954,240.51975 397.38385,242 395.91847,242 394.86331,242 394,241.38618 394,240.63595 c 0,-0.75022 2.45621,-8.50901 5.45825,-17.24175 3.08573,-8.97622 5.08093,-16.25502 4.59018,-16.74577 -0.49074,-0.49074 -2.22249,-0.068 -3.9841,0.97264 -2.22971,1.31713 -4.57118,4.67354 -8.23182,11.80006 -4.71413,9.17744 -5.22443,10.86694 -6.49963,21.51912 C 383.72123,254.40291 383.55979,255 381.53138,255 c -2.02716,0 -1.9687,-2.80711 0.46862,-22.5 2.44023,-19.71638 2.43871,-19.5 0.13636,-19.5 -4.28202,0 -6.50552,4.30045 -10.96,21.19768 l -4.32365,16.4009 -11.37083,9.20071 C 349.22792,264.85968 343.41106,269 342.55552,269 c -3.65037,0 -0.8857,-3.47457 9.19448,-11.55539 9.66522,-7.74817 13.3604,-11.66755 12.14552,-12.88243 -0.23027,-0.23026 -5.97145,-0.85645 -12.7582,-1.39152 -6.78674,-0.53508 -12.74309,-1.37643 -13.23633,-1.86967 -0.52906,-0.52906 0.95995,-6.4129 3.63123,-14.34889 5.09186,-15.12721 5.32177,-18.79255 1.29908,-20.71075 -4.92174,-2.3469 -6.68436,-0.42746 -18.8767,20.55623 -14.02358,24.13534 -15.35239,27.62314 -15.31665,40.20242 0.0264,9.27523 0.43777,11.38893 7.41157,38.07795 0.82136,3.14337 1.26987,3.53795 3.6927,3.24864 1.51678,-0.18112 10.83852,-1.24694 20.71499,-2.36849 z M 425.81433,177.25 c -0.2504,-1.31861 -1.50102,-1.82513 -5.07332,-2.05479 L 416,174.89042 V 135.94521 97 H 403.5 391 v 39 39 h -6.5 -6.5 v -22 -22 l -10.75,-9e-4 -10.75,-9e-4 0.28719,22.0009 L 357.07437,175 H 350.53719 344 v -31.44285 -31.44284 l -12.50182,-0.30716 -12.50182,-0.30715 0.002,31.75 L 319,175 H 312.5 306 V 162.5 150 H 295.5 285 v 12.5 12.5 h -3.5 c -2.83333,0 -3.5,0.38095 -3.5,2 0,1.982 0.66667,2 74.07332,2 70.00596,0 74.05508,-0.0961 73.74101,-1.75 z M 322,145 v -30 h 9 9 v 30 30 h -9 -9 z m 72,-7.5 V 100 h 9 9 v 37.5 37.5 h -9 -9 z M 247.15789,189 c 0,-1.375 0.22698,-1.9375 0.50439,-1.25 0.27741,0.6875 0.27741,1.8125 0,2.5 -0.27741,0.6875 -0.50439,0.125 -0.50439,-1.25 z M 212.8125,164.31689 c 0.72187,-0.28887 1.58437,-0.25335 1.91667,0.0789 0.33229,0.33229 -0.25834,0.56864 -1.3125,0.52522 -1.16495,-0.048 -1.4019,-0.28494 -0.60417,-0.60416 z M 0.66666667,139.33333 C 0.3,138.96667 0,135.14167 0,130.83333 V 123 H 8.5 17 v 8.5 8.5 H 9.1666667 c -4.3083334,0 -8.1333334,-0.3 -8.50000003,-0.66667 z M 13,131.5 V 127 H 8.5 4 v 4.5 4.5 H 8.5 13 Z M 0.4378947,115.69875 C 0.1453893,114.9365 0.03970169,110.97994 0.20303335,106.90642 L 0.5,99.5 h 8 8 v 8.5 8.5 l -7.7651387,0.29234 c -5.9007305,0.22214 -7.89283039,-0.0404 -8.2969666,-1.09359 z M 13,107.5 V 103 H 8.5 4 v 4.5 4.5 H 8.5 13 Z M 246.33621,64 c 0,-4.125 0.17651,-5.8125 0.39226,-3.75 0.21574,2.0625 0.21574,5.4375 0,7.5 -0.21575,2.0625 -0.39226,0.375 -0.39226,-3.75 z m -1.25726,-41.583333 c 0.048,-1.164943 0.28494,-1.4019 0.60416,-0.604167 0.28887,0.721875 0.25335,1.584375 -0.0789,1.916667 -0.3323,0.332291 -0.56864,-0.258334 -0.52522,-1.3125 z M 216.5,7 C 216.16008,6.45 216.35852,6 216.94098,6 217.52344,6 218,6.45 218,7 c 0,0.55 -0.19844,1 -0.44098,1 -0.24254,0 -0.7191,-0.45 -1.05902,-1 z"
         id="path5" />
      <path
         style="fill:#f9cb3c"
         d="m 224.70755,448.47727 c -25.2862,-3.0595 -49.79317,-10.38848 -73.20755,-21.89322 -11.54827,-5.67428 -32.0551,-17.93054 -35.38454,-21.14817 -0.47676,-0.46075 22.23016,-60.96953 25.58982,-68.19105 5.67978,-12.20859 14.01697,-19.69288 29.29472,-26.29785 15.56411,-6.72878 28.14559,-13.1628 28.73308,-14.69377 0.3029,-0.78936 0.0236,-7.35675 -0.62075,-14.5942 C 197.2104,260.29516 196.97401,259 194.9765,259 c -0.9712,0 -4.71334,-0.91039 -8.31585,-2.02309 -8.07717,-2.49479 -16.04631,-9.3552 -20.27631,-17.45532 -2.59057,-4.96076 -2.95935,-5.29405 -3.62081,-3.27244 -0.52013,1.58967 -0.60089,1.29605 -0.27491,-0.99958 0.25385,-1.78774 -0.0226,-4.48774 -0.61438,-6 -2.76629,-7.06929 -2.87862,-17.86616 -0.28092,-26.99957 0.4784,-1.68202 0.22393,-2.25 -1.00807,-2.25 -2.26518,0 -3.25527,-3.03052 -1.43576,-4.39461 0.81095,-0.60796 1.78826,-1.94062 2.1718,-2.96146 0.5237,-1.39388 1.31756,-1.7004 3.18803,-1.23095 1.37396,0.34485 2.49068,0.18957 2.49068,-0.34631 0,-0.53429 2.28019,-3.25162 5.06709,-6.03852 6.33436,-6.33437 15.80705,-11.26607 21.92961,-11.41708 3.16256,-0.078 5.24761,-0.78423 7.0033,-2.37211 1.375,-1.24357 3.2875,-2.51139 4.25,-2.81738 0.9625,-0.306 1.75,-0.91452 1.75,-1.35229 0,-0.68015 -7.55142,-11.42909 -11.29037,-16.07107 C 184.51224,137.09643 116.32162,45.004999 117.2348,45.017967 c 0.69586,0.0099 2.73116,2.259882 4.52289,5 C 123.54941,52.758085 125.46191,55 126.00769,55 126.55346,55 127,55.482143 127,56.071429 c 0,1.599692 2.64526,3.938451 3.54128,3.130952 0.42865,-0.38631 0.47809,-0.17616 0.10985,0.466999 -0.36823,0.643159 -0.10288,1.780304 0.58968,2.526988 1.49583,1.612745 4.9531,6.425191 9.55735,13.303632 5.45448,8.148628 10.36027,13.376434 11.97208,12.757924 1.08002,-0.414441 1.29876,-0.05067 0.83953,1.396206 -0.38439,1.211118 0.0691,2.697627 1.1901,3.901271 0.99612,1.06953 3.40061,4.305137 5.34332,7.190239 1.94271,2.8851 3.83023,4.9476 4.1945,4.58333 0.36427,-0.36427 0.66231,0.0825 0.66231,0.99293 0,0.91038 0.65413,2.44788 1.45363,3.41667 0.7995,0.96879 3.6657,4.55773 6.36934,7.97543 2.70363,3.4177 5.1995,5.9302 5.54636,5.58333 0.34687,-0.34686 0.63067,0.34434 0.63067,1.536 0,1.19167 0.41968,2.16667 0.93261,2.16667 0.51294,0 1.19269,0.81944 1.51057,1.82097 0.31787,1.00153 1.83752,3.13903 3.37699,4.75 1.53947,1.61097 3.75663,4.51171 4.92702,6.44609 1.1704,1.93438 3.28108,4.60032 4.6904,5.92431 1.40933,1.32399 2.56241,2.82656 2.56241,3.33904 0,0.87185 4.95812,7.63626 7.70058,10.50598 0.67613,0.70751 1.97416,2.54727 2.88451,4.08836 1.23644,2.09313 2.23828,2.69051 3.96016,2.36135 2.50878,-0.47958 9.11961,1.35242 11.34599,3.14422 0.76519,0.61583 3.01519,1.67452 5,2.35267 1.98482,0.67814 2.59626,1.05777 1.35876,0.84362 -1.2375,-0.21416 -2.25,-0.039 -2.25,0.3892 0,0.42822 1.6875,1.04896 3.75,1.37943 2.24611,0.35989 5.15363,1.90324 7.25,3.84837 1.925,1.78614 3.7625,3.17326 4.08333,3.08251 0.81669,-0.23102 1.0185,1.19543 1.34175,9.48394 0.28743,7.36992 2.08814,11.23994 5.22991,11.23994 1.6484,0 1.65342,-0.91505 0.39499,-72 -0.52092,-29.425 -1.22894,-70.782114 -1.57338,-91.904697 l -0.62626,-38.40469694 14.82483,0.61573225 C 314.85131,2.5149482 366.32098,24.437678 406.10726,61.825011 444.15533,97.578939 469.27023,149.16579 475.0813,203.5 c 1.60104,14.96986 0.62739,42.66365 -2.03914,58 -2.14677,12.34701 -5.80206,27.43097 -6.96445,28.73963 -0.36133,0.4068 -18.86414,-4.88434 -41.11734,-11.75807 -22.2532,-6.87374 -41.22812,-12.38157 -42.16649,-12.23963 -0.93836,0.14194 -6.05616,3.84469 -11.37287,8.22835 l -9.66676,7.97027 0.69886,12.52973 0.69885,12.52972 9.50764,26.5 c 19.66739,54.81758 22.50084,63.13953 21.96931,64.52467 -0.73365,1.91184 -14.60837,12.12063 -25.022,18.41075 -20.39335,12.31817 -47.42926,23.13979 -69.91198,27.98356 -22.8697,4.92714 -52.17939,6.31794 -74.98738,3.55829 z M 190.5087,438.75 c 0.24526,-0.6875 2.21294,-14.3 4.37261,-30.25 3.66385,-27.05891 3.89458,-32.76063 1.21196,-29.95 -1.01475,1.06316 -9.12733,59.52253 -8.42353,60.7 0.70002,1.17113 2.34622,0.8812 2.83896,-0.5 z m 135.18193,-25.99677 c -6.62145,-86.52767 -7.89484,-101.35744 -8.77921,-102.24181 -0.6596,-0.6596 -1.24526,-0.58929 -1.73844,0.20869 -0.75675,1.22445 8.26515,122.37329 9.31726,125.11506 0.43759,1.14032 0.854,1.22059 1.73931,0.33528 0.88532,-0.88532 0.75629,-6.49166 -0.53892,-23.41722 z m -75.3393,-86.68126 c 12.75252,-6.17339 16.90916,-19.47339 10.03391,-32.10548 C 256.18581,286.25074 252.71616,283.5 247.18333,283.5 H 242.5 l -0.90178,-8.75 -0.90178,-8.75 h -4.66672 c -8.34338,0 -14.64356,-2.58483 -20.7749,-8.5235 -4.81701,-4.66564 -5.39023,-5.60842 -4.24732,-6.98554 1.17593,-1.41691 1.82554,-1.10337 5.90687,2.85098 6.8144,6.60241 10.35222,8.13255 18.59083,8.0407 8.00758,-0.0893 11.67316,-1.60609 16.90844,-6.99669 4.95103,-5.09791 6.91746,-10.84524 6.41429,-18.74727 -0.40764,-6.40196 -0.60089,-6.85248 -7.8878,-18.38868 -1.14954,-1.81988 -1.18407,-2.62974 -0.18068,-4.23643 1.62294,-2.59873 1.56519,-3.54607 -0.33178,-5.44304 -0.98577,-0.98577 -2.45098,-1.3518 -3.92765,-0.98118 -1.87712,0.47113 -2.65642,0.0145 -3.83839,-2.2491 -1.87469,-3.59024 -6.15167,-7.58162 -10.66163,-9.9497 -7.64532,-4.01439 -21.75416,-1.74543 -27.3035,4.3909 -1.74108,1.92525 -1.73256,2.11062 0.24626,5.35641 4.64736,7.62287 1.73165,16.80184 -6.94276,21.85657 -5.81527,3.38867 -7.5569,6.78813 -5.95869,11.63075 0.85113,2.57895 2.11777,3.96117 4.56818,4.98501 1.86478,0.77916 3.39153,1.52311 3.39278,1.65323 10e-4,0.13012 1.12249,12.32314 2.49164,27.0956 1.36915,14.77246 2.2341,27.27205 1.92211,27.77686 -0.31199,0.50481 -4.13323,2.71077 -8.49164,4.90214 -4.35841,2.19137 -7.92438,4.39147 -7.92438,4.88911 0,2.90712 18.01938,13.03889 30,16.86811 9.72217,3.10738 9.83186,3.12331 19.1649,2.78223 6.38354,-0.23329 9.85537,-0.89296 13.18643,-2.5055 z m -50.07469,-88.12072 c -0.97715,-1.17361 -2.82572,-2.54553 -4.10792,-3.0487 -2.70139,-1.06009 -2.42185,-3.26726 0.46821,-3.69702 2.56747,-0.38178 7.36307,3.40102 7.36307,5.80803 0,2.86617 -1.75063,3.30704 -3.72336,0.93769 z M 241.5,224.21147 c -2.69874,-0.57576 -4.5,-2.14558 -4.5,-3.92181 0,-1.15776 0.84713,-1.32233 4.03459,-0.78382 2.479,0.41883 4.54843,0.25518 5.36732,-0.42443 1.62037,-1.34479 3.89416,0.82151 2.77054,2.63957 -0.99518,1.61023 -5.27965,3.00098 -7.67245,2.49049 z m -5.48943,-13.69874 C 234.52506,208.72281 235.36413,206 237.40123,206 c 1.63085,0 3.07378,3.42239 2.1043,4.99105 -0.87592,1.41727 -2.05577,1.2558 -3.49496,-0.47832 z M 227,206.52787 c 0,-2.56919 4.92305,-7.00482 6.27455,-5.65332 0.82668,0.82668 0.58226,1.84095 -0.93325,3.87273 -2.38251,3.19414 -5.3413,4.18049 -5.3413,1.78059 z m 113.45721,99.43023 c 9.87646,-1.12155 18.05845,-2.14043 18.1822,-2.26418 0.12375,-0.12374 -0.23443,-5.29683 -0.79595,-11.49573 -1.01339,-11.18727 -1.00363,-11.28443 1.3178,-13.11931 1.28631,-1.01671 16.51374,-13.61223 33.83874,-27.99004 33.1023,-27.4712 34.83799,-29.36677 28.8259,-31.48111 -2.32107,-0.81627 -3.80573,-0.2277 -11.24578,4.45822 -8.42477,5.30613 -8.60741,5.50606 -10.65742,11.66635 C 398.32954,240.51975 397.38385,242 395.91847,242 394.86331,242 394,241.38618 394,240.63595 c 0,-0.75022 2.45621,-8.50901 5.45825,-17.24175 3.08573,-8.97622 5.08093,-16.25502 4.59018,-16.74577 -0.49074,-0.49074 -2.22249,-0.068 -3.9841,0.97264 -2.22971,1.31713 -4.57118,4.67354 -8.23182,11.80006 -4.71413,9.17744 -5.22443,10.86694 -6.49963,21.51912 C 383.72123,254.40291 383.55979,255 381.53138,255 c -2.02716,0 -1.9687,-2.80711 0.46862,-22.5 2.44023,-19.71638 2.43871,-19.5 0.13636,-19.5 -4.28202,0 -6.50552,4.30045 -10.96,21.19768 l -4.32365,16.4009 -11.37083,9.20071 C 349.22792,264.85968 343.41106,269 342.55552,269 c -3.65037,0 -0.8857,-3.47457 9.19448,-11.55539 9.66522,-7.74817 13.3604,-11.66755 12.14552,-12.88243 -0.23027,-0.23026 -5.97145,-0.85645 -12.7582,-1.39152 -6.78674,-0.53508 -12.74309,-1.37643 -13.23633,-1.86967 -0.52906,-0.52906 0.95995,-6.4129 3.63123,-14.34889 5.09186,-15.12721 5.32177,-18.79255 1.29908,-20.71075 -4.92174,-2.3469 -6.68436,-0.42746 -18.8767,20.55623 -14.02358,24.13534 -15.35239,27.62314 -15.31665,40.20242 0.0264,9.27523 0.43777,11.38893 7.41157,38.07795 0.82136,3.14337 1.26987,3.53795 3.6927,3.24864 1.51678,-0.18112 10.83852,-1.24694 20.71499,-2.36849 z M 310,299.19795 c 0,-0.44112 -1.39894,-6.40362 -3.10876,-13.25 -2.69506,-10.79145 -3.04046,-13.64561 -2.59556,-21.44795 0.30438,-5.3381 1.36034,-11.38729 2.59526,-14.86733 2.11615,-5.96336 2.04262,-7.63267 -0.33619,-7.63267 -0.72997,0 -4.64091,-1.0877 -8.69098,-2.41712 -4.05007,-1.32941 -11.41377,-3.6161 -16.36377,-5.08153 -4.95,-1.46543 -10.69661,-3.30273 -12.77024,-4.08289 -5.82527,-2.19162 -6.88065,-1.9419 -5.62746,1.33154 2.93149,7.65729 -2.90427,22.73209 -11.14058,28.7781 -2.60132,1.90954 -5.27756,3.4719 -5.94719,3.4719 -0.91034,0 -1.03749,1.82911 -0.50394,7.25 0.39246,3.9875 0.9025,7.45187 1.13341,7.69859 0.23092,0.24673 4.11798,-0.31786 8.63792,-1.25464 19.19377,-3.97798 32.28952,-0.36112 44.90749,12.40281 3.67917,3.72173 6.86792,6.45999 7.0861,6.08501 0.21819,-0.37497 0.24399,-0.0787 0.0573,0.65847 -0.18664,0.73714 -0.0863,1.74964 0.22291,2.25 0.69456,1.12382 2.44423,1.20092 2.44423,0.10771 z m -3.92105,-6.78128 c 0.048,-1.16495 0.28494,-1.4019 0.60416,-0.60417 0.28887,0.72187 0.25335,1.58438 -0.0789,1.91667 -0.33229,0.33229 -0.56864,-0.25834 -0.52522,-1.3125 z m -4.96295,-4.1262 c -0.0638,-0.66524 -1.3489,-2.35274 -2.85578,-3.75 -1.50688,-1.39726 -2.18188,-2.54047 -1.5,-2.54047 2.02397,0 5.39835,3.98802 4.91726,5.81148 -0.24501,0.92869 -0.49768,1.14423 -0.56148,0.47899 z m 2.96295,-2.8738 c 0.048,-1.16495 0.28494,-1.4019 0.60416,-0.60417 0.28887,0.72187 0.25335,1.58438 -0.0789,1.91667 -0.33229,0.33229 -0.56864,-0.25834 -0.52522,-1.3125 z M 284,276.60699 c 0,-0.21616 0.69837,-0.661 1.55194,-0.98855 0.88992,-0.34149 1.29132,-0.17385 0.94098,0.39301 C 285.90566,276.96166 284,277.4169 284,276.60699 Z M 247.06768,272.75 c -0.0585,-2.37652 0.3058,-2.73425 2.68232,-2.634 1.5125,0.0638 2.02162,0.31041 1.13139,0.54802 -0.89024,0.23761 -2.09728,1.42291 -2.68232,2.634 -1.03089,2.13403 -1.0658,2.11712 -1.13139,-0.54802 z m 24.68232,1.58772 c 0.6875,-0.27741 1.8125,-0.27741 2.5,0 0.6875,0.27741 0.125,0.50439 -1.25,0.50439 -1.375,0 -1.9375,-0.22698 -1.25,-0.50439 z M 260,273 c 0,-0.55 1.35,-1 3,-1 1.65,0 3,0.45 3,1 0,0.55 -1.35,1 -3,1 -1.65,0 -3,-0.45 -3,-1 z m 24,-0.5 c 0,-0.94444 0.95238,-1.5 2.57143,-1.5 2.28571,0 2.40476,0.16667 1.07143,1.5 -0.825,0.825 -1.98215,1.5 -2.57143,1.5 C 284.48214,274 284,273.325 284,272.5 Z M 301.15789,262 c 0,-1.375 0.22698,-1.9375 0.50439,-1.25 0.27741,0.6875 0.27741,1.8125 0,2.5 -0.27741,0.6875 -0.50439,0.125 -0.50439,-1.25 z M 258,259.5 c 0,-0.825 0.45,-1.5 1,-1.5 0.55,0 1,0.675 1,1.5 0,0.825 -0.45,1.5 -1,1.5 -0.55,0 -1,-0.675 -1,-1.5 z m 46.07895,-8.08333 c 0.048,-1.16495 0.28494,-1.4019 0.60416,-0.60417 0.28887,0.72187 0.25335,1.58437 -0.0789,1.91667 -0.33229,0.33229 -0.56864,-0.25834 -0.52522,-1.3125 z M 305,246 c 0,-0.55 0.47656,-1 1.05902,-1 0.58246,0 0.7809,0.45 0.44098,1 -0.33992,0.55 -0.81648,1 -1.05902,1 C 305.19844,247 305,246.55 305,246 Z m -6,-1 c 0,-0.55 -0.675,-1 -1.5,-1 -0.825,0 -1.5,-0.675 -1.5,-1.5 0,-0.825 0.40186,-1.5 0.89301,-1.5 0.49116,0 1.15203,0.675 1.46862,1.5 0.31658,0.825 1.74128,1.5 3.166,1.5 1.47229,0 2.32364,0.43164 1.97237,1 -0.33992,0.55 -1.49148,1 -2.55902,1 C 299.87344,246 299,245.55 299,245 Z m -21.12762,-4.25 c -0.7922,-1.55183 -0.28546,-4.76125 0.81866,-5.18494 0.77706,-0.29818 1.15575,-0.12618 0.84154,0.38222 -0.31421,0.5084 1.46242,1.22934 3.94807,1.60209 C 289.97036,238.52256 289.62528,241 283,241 c -2.75,0 -5.05743,-0.1125 -5.12762,-0.25 z m -6.23401,-6.25 c 0.31659,-0.825 0.75246,-1.5 0.96862,-1.5 0.21615,0 0.39301,0.675 0.39301,1.5 0,0.825 -0.43588,1.5 -0.96862,1.5 -0.53273,0 -0.70959,-0.675 -0.39301,-1.5 z m 154.17596,-57.25 c -0.2504,-1.31861 -1.50102,-1.82513 -5.07332,-2.05479 L 416,174.89042 V 135.94521 97 H 403.5 391 v 39 39 h -6.5 -6.5 v -22 -22 l -10.75,-9e-4 -10.75,-9e-4 0.28719,22.0009 L 357.07437,175 H 350.53719 344 v -31.44285 -31.44284 l -12.50182,-0.30716 -12.50182,-0.30715 0.002,31.75 L 319,175 H 312.5 306 V 162.5 150 H 295.5 285 v 12.5 12.5 h -3.5 c -2.83333,0 -3.5,0.38095 -3.5,2 0,1.982 0.66667,2 74.07332,2 70.00596,0 74.05508,-0.0961 73.74101,-1.75 z M 322,145 v -30 h 9 9 v 30 30 h -9 -9 z m 72,-7.5 V 100 h 9 9 v 37.5 37.5 h -9 -9 z M 333.20349,90.993677 C 334.89613,88.019066 334.96391,88 343.8465,88 c 6.2358,0 9.08082,-0.378058 9.40669,-1.25 0.25694,-0.6875 0.19259,-5.525 -0.14301,-10.75 L 352.5,66.5 h -22 -22 V 77 87.5 l 9.21536,0.287067 c 9.02864,0.281251 9.25082,0.347102 10.96561,3.25 0.96263,1.629613 1.99072,2.960088 2.28464,2.95661 0.29391,-0.0035 1.30096,-1.353477 2.23788,-3 z M 310.33196,85.75 c -9.7e-4,-0.886087 1.47894,-1.139284 5.08333,-0.869702 3.78389,0.283007 4.57305,0.584814 3.08471,1.179715 -3.18998,1.275063 -8.16651,1.086182 -8.16804,-0.310013 z m 35.4297,-0.457261 c 1.24391,-0.239193 3.04391,-0.230112 4,0.02018 0.95609,0.250292 -0.0617,0.445996 -2.26166,0.434897 -2.2,-0.0111 -2.98225,-0.215885 -1.73834,-0.455077 z m -28.68271,-6.876072 c 0.048,-1.164943 0.28494,-1.4019 0.60416,-0.604167 0.28887,0.721875 0.25335,1.584375 -0.0789,1.916667 -0.33229,0.332291 -0.56864,-0.258334 -0.52522,-1.3125 z m 2.40896,-0.248454 C 319.76956,77.435729 320,76.423229 320,75.918213 320,75.413196 324.9813,75 331.06955,75 c 10.60495,0 11.05614,0.08624 10.75,2.054791 -0.29839,1.918736 -1.06526,2.067717 -11.58164,2.25 -9.02601,0.15645 -11.16041,-0.06922 -10.75,-1.136578 z M 310,71.7 c 0,-3.307906 2.29332,-3.7 21.64098,-3.7 11.74864,0 19.48165,0.389395 19.85902,1 0.40418,0.653972 -6.32295,1 -19.44098,1 C 314.89545,70 312,70.21652 312,71.5 c 0,0.825 -0.45,1.5 -1,1.5 -0.55,0 -1,-0.585 -1,-1.3 z M 110.5,399 c -0.33992,-0.55 -0.14148,-1 0.44098,-1 0.58246,0 1.05902,0.45 1.05902,1 0,0.55 -0.19844,1 -0.44098,1 -0.24254,0 -0.7191,-0.45 -1.05902,-1 z m -6.62756,-5.75 c -1.24387,-1.58606 -1.2085,-1.62143 0.37756,-0.37756 0.9625,0.75485 1.75,1.54235 1.75,1.75 0,0.82304 -0.82119,0.29331 -2.12756,-1.37244 z m 13.67027,-0.1809 c -0.31644,-0.512 -0.11799,-1.21356 0.44098,-1.55902 0.55897,-0.34546 1.01631,0.0734 1.01631,0.9309 0,1.75653 -0.60006,2.01516 -1.45729,0.62812 z m 278.21465,0.19721 c -0.20946,-0.42147 -0.30316,-1.75469 -0.20821,-2.9627 0.0949,-1.20802 -0.43977,-2.43139 -1.18826,-2.71862 C 393.6124,387.29777 393,386.14865 393,385.03138 393,383.91412 392.56412,383 392.03138,383 c -0.53273,0 -0.73185,-0.61698 -0.44248,-1.37106 0.28936,-0.75408 -0.17476,-2.07194 -1.03139,-2.92857 -2.09111,-2.09111 -2.02214,-4.93713 0.10962,-4.52369 0.91693,0.17782 1.87833,0.95753 2.13645,1.73267 0.32138,0.96508 -0.0419,1.21316 -1.1525,0.787 -1.38678,-0.53216 -1.44415,-0.33787 -0.3959,1.34065 0.67425,1.07965 2.01767,1.963 2.98537,1.963 0.9677,0 1.75945,0.675 1.75945,1.5 0,0.825 0.3375,1.44671 0.75,1.38158 2.10272,-0.33201 3.25,0.28048 3.25,1.73505 0,1.1243 -0.60908,1.45735 -2,1.09362 -2.09443,-0.5477 -2.8753,1.63075 -1,2.78975 1.26019,0.77884 1.30776,4.19176 0.0691,4.95729 -0.512,0.31644 -1.10228,0.23049 -1.31174,-0.19098 z m 9.90931,-7.93298 c -0.36667,-0.36666 -0.65236,-1.60416 -0.63487,-2.75 0.0296,-1.93535 0.12536,-1.96013 1.34888,-0.34887 0.72439,0.95395 1.70774,1.40395 2.18523,1 0.47748,-0.40395 0.26539,0.053 -0.47132,1.01554 -1.52049,1.98649 -1.52345,1.98781 -2.42792,1.08333 z M 94.5,384 c 0.339919,-0.55 1.041476,-1 1.559017,-1 C 96.576558,383 97,383.45 97,384 c 0,0.55 -0.701558,1 -1.559017,1 -0.857459,0 -1.280902,-0.45 -0.940983,-1 z m 315.56361,-3 c 0,-0.825 0.66069,-2.37351 1.46819,-3.44113 1.10901,-1.46624 1.4682,-1.57416 1.4682,-0.44113 0,0.825 -0.66069,2.37351 -1.4682,3.44113 -1.109,1.46624 -1.46819,1.57416 -1.46819,0.44113 z M 119.6875,376.35417 c -1.37384,-1.37385 -0.66124,-3.49576 1.0625,-3.1638 0.9625,0.18536 1.75,0.96836 1.75,1.73999 0,1.57886 -1.76429,2.47201 -2.8125,1.42381 z m 1.5625,-5.38533 C 118.46667,369.85008 118.37561,368.40453 121,367 c 2.60042,-1.3917 6,0.32802 6,3.03518 0,2.13235 -1.97143,2.45246 -5.75,0.93366 z m 298.52543,0.47326 c -1.1638,-1.1638 0.49913,-4.29712 2.2121,-4.16809 1.63559,0.12321 1.66041,0.33367 0.28655,2.43044 -1.64873,2.51629 -1.69077,2.54552 -2.49865,1.73765 z m -342.0731,-4.77543 c -0.281407,-0.73334 0.120448,-1.33334 0.893011,-1.33334 0.772562,0 1.404659,0.6 1.404659,1.33334 C 80,367.4 79.598145,368 79.106989,368 c -0.491156,0 -1.123253,-0.6 -1.404659,-1.33333 z M 385.5,365 c -0.33992,-0.55 -0.14148,-1 0.44098,-1 0.58246,0 1.05902,0.45 1.05902,1 0,0.55 -0.19844,1 -0.44098,1 -0.24254,0 -0.7191,-0.45 -1.05902,-1 z m 37.79698,-0.33153 c 0.33862,-0.88243 0.18533,-1.87039 -0.34065,-2.19546 C 422.43035,362.14793 422,361.00852 422,359.94098 c 0,-2.10779 3.37773,-2.75685 4.54213,-0.87281 0.3631,0.5875 1.28965,0.82662 2.05902,0.53139 0.76937,-0.29524 1.39885,-0.31478 1.39885,-0.0434 0,0.27135 -1.14549,0.92888 -2.54554,1.46118 -1.55512,0.59125 -2.43056,1.61123 -2.25,2.6215 0.16255,0.90953 -0.33867,1.87428 -1.11381,2.14389 -0.96426,0.33538 -1.21491,-0.0165 -0.79367,-1.11424 z M 75.572002,362.32704 c -0.350662,-0.91381 -0.233076,-2.06597 0.261302,-2.56034 0.531826,-0.53183 1.119386,-0.0556 1.438903,1.16622 0.658082,2.51651 -0.808149,3.71878 -1.700205,1.39412 z M 130,360.94098 c 0,-0.58246 -0.45,-0.7809 -1,-0.44098 -0.55,0.33992 -1,0.18962 -1,-0.33399 0,-0.52362 0.675,-1.21105 1.5,-1.52764 1.02029,-0.39152 1.5,0.054 1.5,1.39301 0,1.08274 -0.225,1.96862 -0.5,1.96862 -0.275,0 -0.5,-0.47656 -0.5,-1.05902 z M 383,358.5 c 0,-0.825 0.45,-1.5 1,-1.5 0.55,0 1,0.675 1,1.5 0,0.825 -0.45,1.5 -1,1.5 -0.55,0 -1,-0.675 -1,-1.5 z M 70.596556,358.15623 c -0.346049,-0.55992 -0.1419,-1.31919 0.453663,-1.68727 1.537485,-0.95021 2.529468,0.35135 1.245982,1.63484 -0.71818,0.71818 -1.277526,0.73543 -1.699645,0.0524 z M 433.51128,353.62312 C 434.45659,352.18041 435.4191,351 435.65019,351 c 0.72338,0 -1.6049,3.85397 -2.75929,4.56743 -0.6041,0.37335 -0.32492,-0.50159 0.62038,-1.94431 z M 127.38,353.54789 C 126.68817,351.745 127.6917,350 129.42035,350 c 0.8499,0 1.13629,0.86846 0.8244,2.5 -0.5282,2.76309 -1.99998,3.30145 -2.86475,1.04789 z m 252.28667,-4.21456 c -1.3578,-1.35779 -0.69815,-4.28264 0.83333,-3.69496 0.825,0.31659 1.5,1.42746 1.5,2.46862 0,1.89962 -1.08815,2.47152 -2.33333,1.22634 z m 2.80229,-4.38355 c -0.95021,-1.53748 0.35135,-2.52947 1.63484,-1.24598 0.71818,0.71818 0.73543,1.27752 0.0524,1.69964 -0.55992,0.34605 -1.31919,0.1419 -1.68727,-0.45366 z m 58.56284,-2.61799 C 440.98008,340.432 442.14516,338 443.10699,338 c 1.31057,0 1.09152,1.35528 -0.57519,3.55887 -0.8075,1.06762 -1.4825,1.41543 -1.5,0.77292 z M 59.22894,339.81318 C 59.727219,338.31834 62,337.49529 62,338.80968 c 0,0.53699 -0.712602,1.24979 -1.58356,1.58401 -0.973914,0.37373 -1.431083,0.15024 -1.1875,-0.58051 z m 82.31377,-7.74408 c -0.31644,-0.512 -0.11799,-1.21356 0.44098,-1.55902 0.55897,-0.34546 1.01631,0.0734 1.01631,0.9309 0,1.75653 -0.60006,2.01516 -1.45729,0.62812 z M 138,329 c 0,-1.65 0.45,-3 1,-3 0.55,0 1,1.35 1,3 0,1.65 -0.45,3 -1,3 -0.55,0 -1,-1.35 -1,-3 z m -85,1.0038 c 0,-1.21231 2.804513,-2.53262 3.628774,-1.70836 0.298385,0.29839 -0.396022,1.04481 -1.543128,1.65872 C 53.639458,330.72814 53,330.74336 53,330.0038 Z M 374,329 c 0,-0.55 0.45,-1 1,-1 0.55,0 1,0.45 1,1 0,0.55 -0.45,1 -1,1 -0.55,0 -1,-0.45 -1,-1 z M 143.81304,327.93913 C 143.0473,325.64189 144.15323,322 145.61658,322 c 1.72213,0 1.71554,1.77279 -0.0182,4.90139 -0.91257,1.64675 -1.47361,1.97286 -1.78532,1.03774 z m 303.57997,-1.52092 C 447.72686,325.54823 448,324.17167 448,323.3592 c 0,-0.81248 0.44311,-1.20337 0.9847,-0.86866 1.47025,0.90867 0.79402,5.50946 -0.8098,5.50946 -0.85563,0 -1.15583,-0.60731 -0.78189,-1.58179 z M 373.7392,322.1107 c -0.57778,-2.20941 0.79842,-4.90642 1.92747,-3.77737 0.42647,0.42648 0.18821,1.13832 -0.52948,1.58188 -1.02035,0.63061 -0.9457,0.94429 0.34235,1.43856 0.90597,0.34766 1.36714,1.08528 1.02483,1.63917 -0.97737,1.5814 -2.22501,1.18334 -2.76517,-0.88224 z m -222.21355,-6.0692 c -0.35883,-0.5806 0.0705,-1.33304 0.9541,-1.6721 2.19989,-0.84418 2.88424,0.0836 1.13344,1.53666 -0.98557,0.81795 -1.6395,0.86038 -2.08754,0.13544 z M 157.5,314 c -0.91403,-1.47893 0.35353,-3 2.5,-3 2.73304,0 3.37425,1.72934 1.09375,2.94983 -2.42815,1.2995 -2.81825,1.30495 -3.59375,0.0502 z m 209.57895,-4.58333 c 0.048,-1.16495 0.28494,-1.4019 0.60416,-0.60417 0.28887,0.72187 0.25335,1.58438 -0.0789,1.91667 -0.33229,0.33229 -0.56864,-0.25834 -0.52522,-1.3125 z m 91.10188,-3.3973 c -0.0446,-3.22774 0.19145,-3.75046 1.24774,-2.76374 0.95084,0.88822 1.04246,1.96332 0.33923,3.98062 -0.5299,1.52006 -1.09138,2.76375 -1.24774,2.76375 -0.15636,0 -0.30901,-1.79128 -0.33923,-3.98063 z m -288.36833,2.29752 c 0.72187,-0.28887 1.58437,-0.25335 1.91667,0.0789 0.33229,0.33229 -0.25834,0.56864 -1.3125,0.52522 -1.16495,-0.048 -1.4019,-0.28494 -0.60417,-0.60416 z M 365.03141,307 c -0.14754,-1.375 -0.14141,-2.95 0.0136,-3.5 0.15503,-0.55 0.38146,-3.925 0.50319,-7.5 0.16303,-4.78791 -0.20188,-6.98043 -1.38538,-8.32398 -1.32892,-1.50863 -1.35285,-1.76797 -0.13838,-1.5 0.80757,0.17819 1.96256,0.95302 2.56664,1.72184 0.89977,1.14517 1.20508,0.98961 1.6889,-0.86054 0.44097,-1.68628 0.10031,-2.38661 -1.3447,-2.76449 -2.67681,-0.7 -2.40773,-2.54647 0.57251,-3.92874 1.37071,-0.63576 2.4922,-0.78808 2.4922,-0.33849 0,1.25561 3.05671,0.52067 3.96816,-0.95409 1.48796,-2.40757 2.56365,-0.27029 2.19525,4.36172 -0.29514,3.711 -0.72744,4.58677 -2.2641,4.58677 -1.23264,0 -1.89931,0.70201 -1.89931,2 0,1.11111 -0.66667,2 -1.5,2 -1.12831,0 -1.5,1.20862 -1.5,4.87756 0,3.02633 -0.54678,5.33134 -1.44064,6.07317 -0.79235,0.6576 -1.62493,2.4002 -1.85017,3.87245 L 365.29966,309.5 Z M 44.666667,307.33333 C 44.3,306.96667 44,306.109 44,305.42742 c 0,-0.96337 0.554801,-0.98193 2.492198,-0.0833 1.370709,0.63575 2.495709,1.49341 2.5,1.90591 0.0097,0.92875 -3.414151,0.99471 -4.325531,0.0833 z M 175.5,306 c 0.33992,-0.55 1.04148,-1 1.55902,-1 0.51754,0 0.94098,0.45 0.94098,1 0,0.55 -0.70156,1 -1.55902,1 -0.85746,0 -1.2809,-0.45 -0.94098,-1 z m 12.3125,-5.68311 c 0.72187,-0.28887 1.58437,-0.25335 1.91667,0.0789 0.33229,0.33229 -0.25834,0.56864 -1.3125,0.52522 -1.16495,-0.048 -1.4019,-0.28494 -0.60417,-0.60416 z M 38.680377,296.60946 C 38.340693,295.72426 38.525204,295 39.090402,295 c 0.565197,0 0.710057,-0.5625 0.321911,-1.25 -0.53821,-0.9533 -0.408941,-0.97617 0.544607,-0.0964 0.85391,0.78787 0.947661,1.69447 0.295696,2.85946 -0.862823,1.54178 -1.014029,1.55105 -1.572239,0.0964 z M 195,296.53518 C 195,295.69083 194.325,295 193.5,295 c -2.23315,0 -1.81478,-3.76532 0.5,-4.5 1.2976,-0.41184 2.04074,-1.5769 2.116,-3.31739 0.0897,-2.07365 0.22521,-2.2286 0.59707,-0.68261 0.26458,1.1 0.88738,2.4275 1.38399,2.95 1.67613,1.76349 0.99825,6.42862 -1.09706,7.55 -1.5963,0.85431 -2,0.76049 -2,-0.46482 z m 259.81107,-2.27175 c -1.03985,-1.26003 -1.0512,-1.67613 -0.0548,-2.01146 0.69093,-0.23254 0.95461,-0.91083 0.58596,-1.50732 -0.43269,-0.7001 -0.0514,-0.84706 1.07555,-0.41459 0.96021,0.36847 2.87153,0.66994 4.24738,0.66994 3.30021,0 2.56738,1.86241 -1.38708,3.52514 -2.73471,1.14986 -3.33088,1.11493 -4.46697,-0.26171 z M 37.5,289 c 0.339919,-0.55 1.293034,-1 2.118034,-1 0.825,0 1.221885,0.45 0.881966,1 -0.339919,0.55 -1.293034,1 -2.118034,1 -0.825,0 -1.221885,-0.45 -0.881966,-1 z M 430,288 c 0,-2.08305 2.40307,-2.66547 4.77838,-1.15813 0.9253,0.58718 0.56707,1.13533 -1.29706,1.98469 C 430.10421,290.36527 430,290.34053 430,288 Z m -237.45633,-5.34441 c -1.98722,-1.45309 -1.58513,-5.76001 0.7557,-8.09464 0.93374,-0.93126 1.22952,-0.0152 1.33059,4.1208 0.0715,2.92504 0.045,5.31825 -0.0589,5.31825 -0.10386,0 -1.0162,-0.60498 -2.02742,-1.34441 z M 433.75,283.33772 c 0.6875,-0.27741 1.8125,-0.27741 2.5,0 0.6875,0.27741 0.125,0.50439 -1.25,0.50439 -1.375,0 -1.9375,-0.22698 -1.25,-0.50439 z m -33.58375,-2.42451 c -3.53254,-1.37854 -2.08221,-3.30248 3.28217,-4.35396 4.21232,-0.82567 4.97037,-0.707 6.19669,0.97009 1.22634,1.67712 1.1806,1.98805 -0.37393,2.54204 -4.0293,1.43593 -6.90194,1.70153 -9.10493,0.84183 z m 14.25714,-1.0499 c -0.22076,-0.35018 0.22576,-1.15717 0.99225,-1.7933 1.07987,-0.89621 2.14679,-0.69799 4.73899,0.88045 l 3.34537,2.03705 -4.33763,-0.24375 c -2.38569,-0.13407 -4.51823,-0.53027 -4.73898,-0.88045 z M 196.232,277 c 0,-1.925 0.2058,-2.7125 0.45733,-1.75 0.25152,0.9625 0.25152,2.5375 0,3.5 -0.25153,0.9625 -0.45733,0.175 -0.45733,-1.75 z M 380,274.5 c 0,-1.08333 1.11111,-1.5 4,-1.5 2.88889,0 4,0.41667 4,1.5 0,1.08333 -1.11111,1.5 -4,1.5 -2.88889,0 -4,-0.41667 -4,-1.5 z m 18.24499,0.25 C 398.73432,273.26417 403,272.43297 403,273.82346 403,274.79328 400.69077,276 398.83488,276 c -0.55085,0 -0.8163,-0.5625 -0.58989,-1.25 z m -18.67739,-3.64062 c -0.30273,-0.48983 0.54724,-1.60983 1.88884,-2.48888 2.75315,-1.80393 4.49292,-0.46934 2.50721,1.9233 -1.35469,1.6323 -3.56132,1.9162 -4.39605,0.56558 z M 188.66667,264.33333 C 187.39888,263.06554 188.00776,262 190,262 c 1.11111,0 2,0.66667 2,1.5 0,1.52241 -2.1154,2.05126 -3.33333,0.83333 z M 30,258.58333 C 30,257.7125 30.7125,257 31.583333,257 c 1.765927,0 1.45839,2.15276 -0.395833,2.77083 C 30.534375,259.98854 30,259.45417 30,258.58333 Z m 157.75,0.75439 c 0.6875,-0.27741 1.8125,-0.27741 2.5,0 0.6875,0.27741 0.125,0.50439 -1.25,0.50439 -1.375,0 -1.9375,-0.22698 -1.25,-0.50439 z M 174,255 c 0,-0.55 0.45,-1 1,-1 0.55,0 1,0.45 1,1 0,0.55 -0.45,1 -1,1 -0.55,0 -1,-0.45 -1,-1 z m -13.5,-5.71307 c -3.48516,-0.83829 -3.92501,-2.13616 -1.15213,-3.39957 3.08914,-1.4075 3.34242,-2.6585 0.90213,-4.4557 -1.66554,-1.22662 -1.66492,-1.3218 0.0127,-1.97212 1.80041,-0.69789 5.06948,1.19392 4.27749,2.47539 -0.24077,0.38957 0.43918,1.45918 1.51101,2.3769 2.62288,2.24579 2.45284,3.54602 -0.61633,4.71292 -1.4108,0.53639 -2.6483,0.92305 -2.75,0.85925 -0.10169,-0.0638 -1.0849,-0.33248 -2.1849,-0.59707 z M 29.438215,242.42142 c -2.25858,-5.11403 -2.394672,-5.88528 -1.330036,-7.5374 0.698813,-1.08443 1.021429,-0.91195 1.490388,0.79681 0.329184,1.19945 1.229173,2.42283 1.999975,2.71861 1.572199,0.60331 1.84319,4.35425 0.471187,6.52198 -0.685686,1.08336 -1.311528,0.4888 -2.631514,-2.5 z m -0.0049,-13.01735 c -0.379061,-2.52776 -0.42932,-6.79023 -0.111687,-9.47214 0.317633,-2.68192 0.20452,-5.10674 -0.251364,-5.38849 -0.455883,-0.28175 -1.057264,-1.38562 -1.3364,-2.45304 -0.357003,-1.36518 -0.09623,-1.78294 0.879293,-1.40859 C 29.375933,210.9745 30,211.6562 30,212.1967 c 0,0.54049 1.0125,1.87126 2.25,2.95726 1.558779,1.36795 1.865989,2.13401 1,2.49363 C 32.45218,217.97889 32,220.27684 32,224 c 0,3.77562 0.440939,5.98174 1.25,6.25405 0.97451,0.32799 0.947524,0.78714 -0.122445,2.08333 -2.166047,2.62401 -2.954752,1.99776 -3.694212,-2.93331 z m 127.645605,-10.9874 c 0.048,-1.16495 0.28494,-1.4019 0.60416,-0.60417 0.28887,0.72187 0.25335,1.58437 -0.0789,1.91667 -0.3323,0.33229 -0.56864,-0.25834 -0.52522,-1.3125 z M 30,206.94098 c 0,-1.13246 -0.45,-1.7809 -1,-1.44098 -0.560226,0.34624 -1,-0.43406 -1,-1.77432 0,-1.35282 0.592166,-2.39235 1.362796,-2.39235 0.825863,0 1.175157,0.71754 0.886546,1.82119 -0.283693,1.08484 0.176099,2.07151 1.137204,2.44032 C 33.420488,206.37533 33.507937,209 31.5,209 30.652335,209 30,208.10455 30,206.94098 Z M 150.70488,195.25 c -0.29055,-1.5125 -0.45551,-2.79475 -0.36658,-2.84944 0.0889,-0.0547 1.67126,0.30787 3.51629,0.80569 3.24794,0.87636 3.29865,0.96694 1.59501,2.84944 -2.45189,2.7093 -4.12404,2.42536 -4.74472,-0.80569 z M 31.41733,191.36543 c 0.138895,-1.30275 0.551817,-2.66791 0.917603,-3.0337 1.307852,-1.30785 0.633514,-4.19333 -1.084933,-4.6424 -1.598805,-0.41782 -1.60272,-0.46735 -0.04531,-0.57333 1.119662,-0.0762 1.930024,-1.31715 2.361291,-3.616 0.361132,-1.925 1.086847,-3.5 1.612701,-3.5 0.525853,0 0.736478,-0.7875 0.468056,-1.75 -0.268423,-0.9625 -0.779072,-2.7625 -1.134776,-4 C 33.989877,168.43367 34.263696,168 35.932612,168 37.069676,168 38,167.55 38,167 c 0,-0.55 0.675,-1 1.5,-1 1.849807,0 1.849977,0.10034 0.0062,3.63569 C 37.787282,172.93149 37.54324,176 39,176 c 0.55,0 1,0.9 1,2 0,1.1 0.45,2 1,2 0.55,0 1,-0.9 1,-2 0,-1.55556 0.666667,-2 3,-2 2.333333,0 3,0.44444 3,2 0,1.33333 -0.666667,2 -2,2 -1.333333,0 -2,0.66667 -2,2 0,1.66667 -0.666667,2 -4,2 -3.954169,0 -4.000089,0.043 -4.007802,3.75 -0.0062,2.98278 -0.500831,3.97854 -2.417604,4.86703 -2.203739,1.02151 -2.388207,0.91449 -2.157264,-1.2516 z M 247.15789,189 c 0,-1.375 0.22698,-1.9375 0.50439,-1.25 0.27741,0.6875 0.27741,1.8125 0,2.5 -0.27741,0.6875 -0.50439,0.125 -0.50439,-1.25 z m -88.42456,-0.12409 c 0.67834,-0.68342 1.48524,-0.99067 1.79313,-0.68278 0.30789,0.30789 -0.24711,0.86705 -1.23333,1.24258 -1.4252,0.54268 -1.54006,0.42782 -0.5598,-0.5598 z M 164.5,189 c 0.33992,-0.55 0.81648,-1 1.05902,-1 0.24254,0 0.44098,0.45 0.44098,1 0,0.55 -0.47656,1 -1.05902,1 -0.58246,0 -0.7809,-0.45 -0.44098,-1 z m -4.42521,-2.95378 c -2.28974,-1.41514 -0.0368,-3.19367 3.77695,-2.98164 5.69127,0.3164 10.14826,-2.1499 10.14826,-5.6156 0,-1.3704 0.27836,-1.46285 1.45764,-0.48414 1.26785,1.05223 1.2353,1.43564 -0.25,2.94484 -4.78332,4.86027 -12.27946,7.90004 -15.13285,6.13654 z M 31.015313,179.25 c 0.0084,-0.4125 0.451531,-1.425 0.984687,-2.25 0.783874,-1.21296 0.972305,-1.06944 0.984687,0.75 C 32.993109,178.9875 32.55,180 32,180 c -0.55,0 -0.993109,-0.3375 -0.984687,-0.75 z M 169.5,178 c 0.99549,-1.1 1.96523,-2 2.15499,-2 0.18975,0 0.34501,0.9 0.34501,2 0,1.38128 -0.66667,2 -2.15499,2 -2.09164,0 -2.10178,-0.0588 -0.34501,-2 z M 190,169.06127 C 190,168.45652 192.11926,168 194.92668,168 c 3.85118,0 5.0265,-0.38202 5.38399,-1.75 0.4123,-1.57771 0.46875,-1.58352 0.57333,-0.059 0.14699,2.1428 -0.34669,2.40379 -6.134,3.24288 -3.11545,0.4517 -4.75,0.32348 -4.75,-0.37259 z m 22.8125,-4.74438 c 0.72187,-0.28887 1.58437,-0.25335 1.91667,0.0789 0.33229,0.33229 -0.25834,0.56864 -1.3125,0.52522 -1.16495,-0.048 -1.4019,-0.28494 -0.60417,-0.60416 z m -19.78329,-5.25997 -2.47078,-1.8986 2.7924,-1.27231 c 2.33321,-1.06308 2.94254,-1.03499 3.70547,0.17085 1.32455,2.09349 1.14695,4.94676 -0.3063,4.9209 -0.6875,-0.0122 -2.36185,-0.8766 -3.72079,-1.92084 z M 196,157 c 0,-0.55 -0.45,-1 -1,-1 -0.55,0 -1,0.45 -1,1 0,0.55 0.45,1 1,1 0.55,0 1,-0.45 1,-1 z m -12.33333,-4.66667 C 182.51603,151.1827 182.93843,150 184.5,150 c 0.825,0 1.5,0.675 1.5,1.5 0,1.56157 -1.1827,1.98397 -2.33333,0.83333 z m 6.94032,-0.91512 C 189.75581,149.20009 189.82085,149 191.39301,149 c 1.50843,0 2.84457,2.42909 1.87142,3.40223 -1.02841,1.02842 -2.0271,0.65862 -2.65744,-0.98402 z M 184,145.42857 c 0,-0.31428 0.675,-1.24643 1.5,-2.07143 1.33333,-1.33333 1.5,-1.26984 1.5,0.57143 0,1.1746 -0.64943,2.07143 -1.5,2.07143 -0.825,0 -1.5,-0.25714 -1.5,-0.57143 z M 41.5,143 c 0.339919,-0.55 0.816476,-1 1.059017,-1 C 42.801558,142 43,142.45 43,143 c 0,0.55 -0.476558,1 -1.059017,1 -0.582459,0 -0.780902,-0.45 -0.440983,-1 z m 4,0 c 0.339919,-0.55 1.041476,-1 1.559017,-1 C 47.576558,142 48,142.45 48,143 c 0,0.55 -0.701558,1 -1.559017,1 -0.857459,0 -1.280902,-0.45 -0.940983,-1 z m 27.256994,-0.15699 c 0.844686,-0.84469 2.045878,-0.87225 4.45,-0.10209 l 3.293006,1.0549 -4.45,0.10209 c -3.369218,0.0773 -4.168998,-0.17891 -3.293006,-1.0549 z M 97.75,143.29427 c 1.2375,-0.23836 3.2625,-0.23836 4.5,0 1.2375,0.23835 0.225,0.43337 -2.25,0.43337 -2.475,0 -3.4875,-0.19502 -2.25,-0.43337 z m 16,0 c 1.2375,-0.23836 3.2625,-0.23836 4.5,0 1.2375,0.23835 0.225,0.43337 -2.25,0.43337 -2.475,0 -3.4875,-0.19502 -2.25,-0.43337 z m 16,0 c 1.2375,-0.23836 3.2625,-0.23836 4.5,0 1.2375,0.23835 0.225,0.43337 -2.25,0.43337 -2.475,0 -3.4875,-0.19502 -2.25,-0.43337 z M 176,140.5 c 0,-3.33333 0.16667,-3.5 3.5,-3.5 3.33333,0 3.5,0.16667 3.5,3.5 0,3.33333 -0.16667,3.5 -3.5,3.5 -3.33333,0 -3.5,-0.16667 -3.5,-3.5 z M 64.25,140.21502 c -5.722074,-0.1591 -10.25,-0.71128 -10.25,-1.25 0,-1.09314 2.047498,-1.29341 10.184338,-0.9962 3.126385,0.1142 6.726385,-0.16957 8,-0.63059 1.535131,-0.55569 -2.40326,-1.02131 -11.684338,-1.3814 -7.7,-0.29874 6.7,-0.5334 32,-0.52146 43.32809,0.0204 44.17032,0.0532 14.5,0.56463 -38.299879,0.66012 -36.98403,1.37421 2.6658,1.44669 26.02955,0.0476 31.7894,0.43145 30.20763,2.01321 -0.55335,0.55335 -61.12622,1.15819 -75.62343,0.75512 z M 0.66666667,139.33333 C 0.3,138.96667 0,135.14167 0,130.83333 V 123 H 8.5 17 v 8.5 8.5 H 9.1666667 c -4.3083334,0 -8.1333334,-0.3 -8.50000003,-0.66667 z M 13,131.5 V 127 H 8.5 4 v 4.5 4.5 H 8.5 13 Z m 30.5,7.5 c -0.365056,-0.59067 0.736436,-0.99373 2.690983,-0.98469 2.504372,0.0116 2.944266,0.25104 1.809017,0.98469 -1.943926,1.25626 -3.723588,1.25626 -4.5,0 z m 99.3125,-3.68311 c 0.72187,-0.28887 1.58437,-0.25335 1.91667,0.0789 0.33229,0.33229 -0.25834,0.56864 -1.3125,0.52522 -1.16495,-0.048 -1.4019,-0.28494 -0.60417,-0.60416 z M 36.685002,133.25552 c -6.726654,-0.29436 -7.769238,-0.57968 -7.486412,-2.04875 0.304465,-1.58148 4.495557,-1.72573 57.093209,-1.96504 51.396291,-0.23384 56.823021,-0.10609 57.382131,1.35093 0.34097,0.88855 -0.008,2.00496 -0.77821,2.49295 -1.286,0.81429 -88.304576,0.9535 -106.210718,0.16991 z M 169.77939,127.25 c -0.63046,-2.43086 0.12825,-4.25 1.77256,-4.25 0.82052,0 1.15061,0.61153 0.80968,1.5 -0.31659,0.825 -0.0775,1.5 0.53138,1.5 0.60885,0 1.10699,0.675 1.10699,1.5 0,2.09971 -3.66754,1.88248 -4.22061,-0.25 z M 64,125.5 c 0,-1.00643 -1.006557,-1.5 -3.059017,-1.5 -1.784701,0 -2.801558,-0.41658 -2.440983,-1 0.339919,-0.55 1.716476,-1 3.059017,-1 C 62.901558,122 64,121.55 64,121 c 0,-0.55 0.9,-1 2,-1 1.619048,0 2,0.66667 2,3.5 0,2.83333 -0.380952,3.5 -2,3.5 -1.111111,0 -2,-0.66667 -2,-1.5 z m 96.75,-4.18933 c -0.9625,-0.25152 -1.75,-0.83752 -1.75,-1.30221 0,-0.46469 -0.27314,-1.55669 -0.60699,-2.42667 C 158.00192,116.56262 158.3322,116 159.32158,116 c 1.93175,0 4.67842,2.68386 4.67842,4.57143 0,1.46728 -0.24812,1.52372 -3.25,0.73924 z m 4.91667,-0.97734 C 164.68959,119.35626 164.85293,116 165.87756,116 c 0.48265,0 1.42139,0.65529 2.08609,1.4562 1.7763,2.14031 -0.35908,4.81503 -2.29698,2.87713 z M 52.5,119 c 0.339919,-0.55 0.816476,-1 1.059017,-1 C 53.801558,118 54,118.45 54,119 c 0,0.55 -0.476558,1 -1.059017,1 -0.582459,0 -0.780902,-0.45 -0.440983,-1 z M 0.4378947,115.69875 C 0.1453893,114.9365 0.03970169,110.97994 0.20303335,106.90642 L 0.5,99.5 h 8 8 v 8.5 8.5 l -7.7651387,0.29234 c -5.9007305,0.22214 -7.89283039,-0.0404 -8.2969666,-1.09359 z M 13,107.5 V 103 H 8.5 4 v 4.5 4.5 H 8.5 13 Z m 146.66667,6.83333 C 158.30706,112.97373 159.07213,112 161.5,112 c 1.55556,0 2.5,0.56667 2.5,1.5 0,1.4999 -3.07536,2.09131 -4.33333,0.83333 z M 68.75,111.25493 c 5.0875,-0.18149 13.4125,-0.18149 18.5,0 5.0875,0.18149 0.925,0.32999 -9.25,0.32999 -10.175,0 -14.3375,-0.1485 -9.25,-0.32999 z M 29.679583,109.34625 C 29.305812,108.97248 29,108.06084 29,107.32038 c 0,-1.10761 6.160887,-1.29968 34.75,-1.08334 30.105352,0.22781 34.75,0.46345 34.75,1.76296 0,1.29884 -4.56912,1.53526 -34.070417,1.76292 -18.738729,0.1446 -34.376229,-0.0429 -34.75,-0.41667 z M 102,108.5 c 0,-0.825 0.45,-1.5 1,-1.5 0.55,0 1,0.675 1,1.5 0,0.825 -0.45,1.5 -1,1.5 -0.55,0 -1,-0.675 -1,-1.5 z m 50,-6 c 0,-0.825 0.45,-1.5 1,-1.5 0.55,0 1,0.675 1,1.5 0,0.825 -0.45,1.5 -1,1.5 -0.55,0 -1,-0.675 -1,-1.5 z m -87.427447,-1.38261 c -0.308586,-0.4993 0.11135,-1.16585 0.933191,-1.48122 C 66.327585,99.3208 67,98.122089 67,96.972368 c 0,-1.149721 0.430347,-1.824433 0.956326,-1.49936 0.525979,0.325073 0.72002,1.206846 0.431201,1.959496 -0.369533,0.962987 0.68044,1.572132 3.543674,2.055873 C 74.169041,99.866457 76,100.48961 76,100.87315 c 0,1.05604 -10.78329,1.28651 -11.427447,0.24424 z m 21.996668,-0.005 c -0.730163,-1.181427 3.948219,-1.80854 9.472707,-1.269764 3.453844,0.336834 4.007552,0.613004 2.458072,1.225984 -2.767553,1.09486 -11.261913,1.12603 -11.930779,0.0438 z M 96,96.59362 c 0,-0.914051 0.700137,-1.223291 2,-0.883369 1.1,0.287656 2,0.920528 2,1.40638 C 100,97.602484 99.1,98 98,98 96.9,98 96,97.367129 96,96.59362 Z M 70.810207,93.5 C 71.03494,91.575 71.394579,90 71.609406,90 71.824233,90 72,91.575 72,93.5 72,95.425 71.64036,97 71.200801,97 70.761241,97 70.585474,95.425 70.810207,93.5 Z M 90.155728,92.544131 C 90.06114,90.043439 90.437167,88 90.991924,88 91.546366,88 92,88.45 92,89 c 0,0.55 0.9,1 2,1 1.1,0 2,0.45 2,1 0,0.55 -0.9,1 -2,1 -1.1,0 -2,0.45 -2,1 0,0.55 0.675,1 1.5,1 0.825,0 1.5,0.45 1.5,1 0,0.55 -0.413196,1 -0.918213,1 -0.505016,0 -1.556305,0.244859 -2.336196,0.544131 -1.082292,0.415315 -1.458674,-0.531639 -1.589863,-4 z m 56.510942,3.789202 C 145.32315,94.989817 145.99071,91 147.55902,91 c 0.85746,0 1.30012,0.418906 0.98369,0.930902 -0.31644,0.511996 -0.11799,1.213553 0.44098,1.559017 C 150.46306,94.40422 150.22862,97 148.66667,97 c -0.73334,0 -1.63334,-0.3 -2,-0.666667 z M 138,88.5 c 0,-0.825 0.45,-1.5 1,-1.5 0.55,0 1,0.675 1,1.5 0,0.825 -0.45,1.5 -1,1.5 -0.55,0 -1,-0.675 -1,-1.5 z M 75.531642,87 c 0.856457,-2.987028 1.269609,-3.532083 2.070357,-2.731334 0.331099,0.331099 -0.160564,1.643599 -1.092585,2.916666 L 74.814829,89.5 Z M 134.5,85 c 0.33992,-0.55 1.04148,-1 1.55902,-1 0.51754,0 0.94098,0.45 0.94098,1 0,0.55 -0.70156,1 -1.55902,1 -0.85746,0 -1.2809,-0.45 -0.94098,-1 z M 79,82 c 0,-0.55 0.476558,-1 1.059017,-1 0.582459,0 0.780902,0.45 0.440983,1 -0.339919,0.55 -0.816476,1 -1.059017,1 C 79.198442,83 79,82.55 79,82 Z m 59,-1 c 0,-0.55 0.45,-1 1,-1 0.55,0 1,0.45 1,1 0,0.55 -0.45,1 -1,1 -0.55,0 -1,-0.45 -1,-1 z M 84,79.559017 C 84,78.701558 84.45,78 85,78 c 0.55,0 1,0.423442 1,0.940983 0,0.517541 -0.45,1.219098 -1,1.559017 -0.55,0.339919 -1,-0.08352 -1,-0.940983 z M 128,76.5 c 0,-3.333333 0.16667,-3.5 3.5,-3.5 2.78359,0 3.5,0.392636 3.5,1.918213 C 135,78.558014 133.83462,80 130.89301,80 128.25338,80 128,79.693459 128,76.5 Z M 83,75.622445 C 83,75.414789 83.675,74.684689 84.5,74 85.728508,72.980429 86,73.048765 86,74.377555 86,75.2699 85.325,76 84.5,76 83.675,76 83,75.8301 83,75.622445 Z M 90.206163,70.25 C 90.56324,68.123364 91.91675,66.608948 94.25,65.725431 c 2.24905,-0.851633 2.287364,0.874465 0.04724,2.128102 -1.435806,0.803518 -1.494998,1.203254 -0.377555,2.54969 C 95.076987,71.79769 94.907074,72 92.578608,72 90.594021,72 89.987452,71.552573 90.206163,70.25 Z M 246.33621,64 c 0,-4.125 0.17651,-5.8125 0.39226,-3.75 0.21574,2.0625 0.21574,5.4375 0,7.5 -0.21575,2.0625 -0.39226,0.375 -0.39226,-3.75 z M 98.638374,63.5 C 98.954956,62.675 99.390833,62 99.606989,62 99.823145,62 100,62.675 100,63.5 c 0,0.825 -0.435877,1.5 -0.968615,1.5 -0.532739,0 -0.709594,-0.675 -0.393011,-1.5 z m 24.028296,0.833333 C 121.61981,63.286476 121.88771,59 123,59 c 0.55,0 1,0.6375 1,1.416667 0,0.779166 0.52967,1.593224 1.17705,1.809017 0.64738,0.215792 0.84582,0.928292 0.44098,1.583333 -0.82135,1.328979 -1.94677,1.528912 -2.95136,0.524316 z M 112,59.059017 c 0,-0.517541 0.45,-1.219098 1,-1.559017 1.49162,-0.921871 1.20736,-2.5 -0.45031,-2.5 -0.79767,0 -1.89719,0.7875 -2.44338,1.75 -0.92237,1.625404 -1.11184,1.632722 -2.6612,0.102779 -1.55599,-1.53649 -1.52132,-1.693816 0.5157,-2.340342 1.37577,-0.43665 1.9763,-1.233943 1.62297,-2.154716 -0.30848,-0.803878 -0.15663,-1.211765 0.33743,-0.906414 C 111.30814,52.308478 114,50.950076 114,49.393011 114,48.626855 114.45,48 115,48 c 0.55,0 1,0.529728 1,1.177174 0,0.647446 1.25543,2.334946 2.78984,3.75 1.53442,1.415054 2.34442,2.235326 1.8,1.822826 C 118.74639,53.353222 117,53.990033 117,56.059017 c 0,1.132459 0.45,1.780902 1,1.440983 0.55,-0.339919 1,0.08352 1,0.940983 C 119,59.55605 118.00333,60 115.5,60 113.575,60 112,59.576558 112,59.059017 Z M 102.69385,58.36052 C 101.89492,57.561589 102.79804,56 104.05902,56 104.57656,56 105,56.675 105,57.5 c 0,1.54641 -1.17996,1.986704 -2.30615,0.86052 z m 142.3851,-35.943853 c 0.048,-1.164943 0.28494,-1.4019 0.60416,-0.604167 0.28887,0.721875 0.25335,1.584375 -0.0789,1.916667 -0.3323,0.332291 -0.56864,-0.258334 -0.52522,-1.3125 z M 216.5,7 C 216.16008,6.45 216.35852,6 216.94098,6 217.52344,6 218,6.45 218,7 c 0,0.55 -0.19844,1 -0.44098,1 -0.24254,0 -0.7191,-0.45 -1.05902,-1 z"
         id="path4" />
      <path
         style="fill:#9ea8b1"
         d="m 224.70755,448.47727 c -25.2862,-3.0595 -49.79317,-10.38848 -73.20755,-21.89322 -11.54161,-5.67101 -32.05192,-17.92845 -35.38073,-21.14436 -0.32293,-0.31198 1.64268,-5.92179 4.8843,-13.93969 2.40255,-5.9425 9.19255,-23.92568 11.32725,-30 4.90665,-13.96191 10.07049,-26.0949 12.98092,-30.5 6.20749,-9.39542 15.51789,-16.1645 30.18826,-21.94826 1.1,-0.43367 7.11916,-3.21022 13.37591,-6.17012 l 11.37591,-5.38162 -0.67799,-10 c -1.35856,-20.03784 -2.08882,-27.34833 -2.80327,-28.06277 -0.40118,-0.40118 -3.00171,-1.08862 -5.77896,-1.52764 -12.81979,-2.02654 -22.1773,-10.84089 -28.037,-26.40959 -0.41402,-1.1 -1.29246,-3.43761 -1.95209,-5.1947 -1.25419,-3.34082 -0.92347,-19.82699 0.48256,-24.0553 0.56216,-1.69055 0.3609,-2.25 -0.80942,-2.25 -2.30746,0 -3.20871,-2.13705 -1.44509,-3.42664 0.84486,-0.61777 1.7171,-2.01201 1.93831,-3.09829 0.29495,-1.44833 1.09234,-1.9036 2.98989,-1.7071 1.89474,0.19622 3.07163,-0.47323 4.39499,-2.5 C 173.56846,181.58778 185.97005,174 193.50796,174 c 3.82739,0 5.37887,-0.57146 8.14482,-3 1.87925,-1.65 3.85115,-3 4.38202,-3 0.53086,0 0.9652,-0.38849 0.9652,-0.86332 0,-0.73243 -7.39199,-11.29854 -11.29037,-16.13846 C 184.51224,137.09643 116.32162,45.004999 117.2348,45.017967 c 0.69586,0.0099 2.73116,2.259882 4.52289,5 C 123.54941,52.758085 125.46191,55 126.00769,55 126.55346,55 127,55.482143 127,56.071429 c 0,1.599692 2.64526,3.938451 3.54128,3.130952 0.42865,-0.38631 0.47809,-0.17616 0.10985,0.466999 -0.36823,0.643159 -0.10288,1.780304 0.58968,2.526988 1.49583,1.612745 4.9531,6.425191 9.55735,13.303632 5.45448,8.148628 10.36027,13.376434 11.97208,12.757924 1.08002,-0.414441 1.29876,-0.05067 0.83953,1.396206 -0.38439,1.211118 0.0691,2.697627 1.1901,3.901271 0.99612,1.06953 3.40061,4.305137 5.34332,7.190239 1.94271,2.8851 3.83023,4.9476 4.1945,4.58333 0.36427,-0.36427 0.66231,0.0825 0.66231,0.99293 0,0.91038 0.65413,2.44788 1.45363,3.41667 0.7995,0.96879 3.6657,4.55773 6.36934,7.97543 2.70363,3.4177 5.1995,5.9302 5.54636,5.58333 0.34687,-0.34686 0.63067,0.34434 0.63067,1.536 0,1.19167 0.41968,2.16667 0.93261,2.16667 0.51294,0 1.19269,0.81944 1.51057,1.82097 0.31787,1.00153 1.83752,3.13903 3.37699,4.75 1.53947,1.61097 3.75663,4.51171 4.92702,6.44609 1.1704,1.93438 3.28108,4.60032 4.6904,5.92431 1.40933,1.32399 2.56241,2.82656 2.56241,3.33904 0,0.87185 4.95812,7.63626 7.70058,10.50598 0.67613,0.70751 1.97416,2.54727 2.88451,4.08836 1.23644,2.09313 2.23828,2.69051 3.96016,2.36135 2.50878,-0.47958 9.11961,1.35242 11.34599,3.14422 0.76519,0.61583 3.01519,1.67452 5,2.35267 1.98482,0.67814 2.59626,1.05777 1.35876,0.84362 -1.2375,-0.21416 -2.25,-0.039 -2.25,0.3892 0,0.42822 1.6875,1.04896 3.75,1.37943 2.24611,0.35989 5.15363,1.90324 7.25,3.84837 1.925,1.78614 3.7625,3.17326 4.08333,3.08251 0.81669,-0.23102 1.0185,1.19543 1.34175,9.48394 0.28743,7.36992 2.08814,11.23994 5.22991,11.23994 1.6484,0 1.65342,-0.91505 0.39499,-72 -0.52092,-29.425 -1.22894,-70.782114 -1.57338,-91.904697 l -0.62626,-38.40469694 14.82483,0.61573225 C 314.85131,2.5149482 366.32098,24.437678 406.10726,61.825011 444.15533,97.578939 469.27023,149.16579 475.0813,203.5 c 2.44267,22.83925 -0.29237,56.14447 -6.45431,78.59556 -2.6847,9.78171 -0.83655,9.39237 -18.62699,3.924 -6.875,-2.11321 -17.225,-5.26117 -23,-6.99546 -5.775,-1.73429 -11.625,-3.54513 -13,-4.0241 -1.375,-0.47897 -7.225,-2.27333 -13,-3.98747 -5.775,-1.71414 -11.53367,-3.5432 -12.79705,-4.06458 -4.59635,-1.89683 -6.72064,-0.96167 -16.56096,7.29049 l -9.82397,8.23843 0.46601,12.51157 c 0.2563,6.88136 1.01759,13.86156 1.69176,15.51156 1.23758,3.02897 10.51752,28.87298 12.02901,33.5 0.44917,1.375 2.24701,6.325 3.9952,11 1.74819,4.675 3.55424,9.625 4.01345,11 0.4592,1.375 2.7051,7.675 4.99089,14 6.98078,19.31654 6.83149,17.9335 2.35727,21.83708 -7.37826,6.43724 -24.94575,17.38166 -39.53036,24.62713 -15.60086,7.75033 -36.01245,14.97449 -52.13632,18.45232 -22.85034,4.92868 -52.17364,6.32108 -74.98738,3.56074 z M 190.5087,438.75 c 0.24526,-0.6875 2.21294,-14.3 4.37261,-30.25 3.66385,-27.05891 3.89458,-32.76063 1.21196,-29.95 -1.01475,1.06316 -9.12733,59.52253 -8.42353,60.7 0.70002,1.17113 2.34622,0.8812 2.83896,-0.5 z m 135.18193,-25.99677 c -6.62145,-86.52767 -7.89484,-101.35744 -8.77921,-102.24181 -0.6596,-0.6596 -1.24526,-0.58929 -1.73844,0.20869 -0.75675,1.22445 8.26515,122.37329 9.31726,125.11506 0.43759,1.14032 0.854,1.22059 1.73931,0.33528 0.88532,-0.88532 0.75629,-6.49166 -0.53892,-23.41722 z m -75.3393,-86.68126 c 12.75252,-6.17339 16.90916,-19.47339 10.03391,-32.10548 C 256.18581,286.25074 252.71616,283.5 247.18333,283.5 H 242.5 l -0.90178,-8.75 -0.90178,-8.75 h -4.66672 c -8.34338,0 -14.64356,-2.58483 -20.7749,-8.5235 -4.81701,-4.66564 -5.39023,-5.60842 -4.24732,-6.98554 1.17593,-1.41691 1.82554,-1.10337 5.90687,2.85098 6.8144,6.60241 10.35222,8.13255 18.59083,8.0407 8.00758,-0.0893 11.67316,-1.60609 16.90844,-6.99669 4.95103,-5.09791 6.91746,-10.84524 6.41429,-18.74727 -0.40764,-6.40196 -0.60089,-6.85248 -7.8878,-18.38868 -1.14954,-1.81988 -1.18407,-2.62974 -0.18068,-4.23643 1.62294,-2.59873 1.56519,-3.54607 -0.33178,-5.44304 -0.98577,-0.98577 -2.45098,-1.3518 -3.92765,-0.98118 -1.87712,0.47113 -2.65642,0.0145 -3.83839,-2.2491 -1.87469,-3.59024 -6.15167,-7.58162 -10.66163,-9.9497 -7.64532,-4.01439 -21.75416,-1.74543 -27.3035,4.3909 -1.74108,1.92525 -1.73256,2.11062 0.24626,5.35641 4.64736,7.62287 1.73165,16.80184 -6.94276,21.85657 -5.81527,3.38867 -7.5569,6.78813 -5.95869,11.63075 0.85113,2.57895 2.11777,3.96117 4.56818,4.98501 1.86478,0.77916 3.39153,1.52311 3.39278,1.65323 10e-4,0.13012 1.12249,12.32314 2.49164,27.0956 1.36915,14.77246 2.2341,27.27205 1.92211,27.77686 -0.31199,0.50481 -4.13323,2.71077 -8.49164,4.90214 -4.35841,2.19137 -7.92438,4.39147 -7.92438,4.88911 0,2.90712 18.01938,13.03889 30,16.86811 9.72217,3.10738 9.83186,3.12331 19.1649,2.78223 6.38354,-0.23329 9.85537,-0.89296 13.18643,-2.5055 z m -50.07469,-88.12072 c -0.97715,-1.17361 -2.82572,-2.54553 -4.10792,-3.0487 -2.70139,-1.06009 -2.42185,-3.26726 0.46821,-3.69702 2.56747,-0.38178 7.36307,3.40102 7.36307,5.80803 0,2.86617 -1.75063,3.30704 -3.72336,0.93769 z M 241.5,224.21147 c -2.69874,-0.57576 -4.5,-2.14558 -4.5,-3.92181 0,-1.15776 0.84713,-1.32233 4.03459,-0.78382 2.479,0.41883 4.54843,0.25518 5.36732,-0.42443 1.62037,-1.34479 3.89416,0.82151 2.77054,2.63957 -0.99518,1.61023 -5.27965,3.00098 -7.67245,2.49049 z m -5.48943,-13.69874 C 234.52506,208.72281 235.36413,206 237.40123,206 c 1.63085,0 3.07378,3.42239 2.1043,4.99105 -0.87592,1.41727 -2.05577,1.2558 -3.49496,-0.47832 z M 227,206.52787 c 0,-2.56919 4.92305,-7.00482 6.27455,-5.65332 0.82668,0.82668 0.58226,1.84095 -0.93325,3.87273 -2.38251,3.19414 -5.3413,4.18049 -5.3413,1.78059 z m 113.45721,99.43023 c 9.87646,-1.12155 18.05845,-2.14043 18.1822,-2.26418 0.12375,-0.12374 -0.23443,-5.29683 -0.79595,-11.49573 -1.01339,-11.18727 -1.00363,-11.28443 1.3178,-13.11931 1.28631,-1.01671 16.51374,-13.61223 33.83874,-27.99004 33.1023,-27.4712 34.83799,-29.36677 28.8259,-31.48111 -2.32107,-0.81627 -3.80573,-0.2277 -11.24578,4.45822 -8.42477,5.30613 -8.60741,5.50606 -10.65742,11.66635 C 398.32954,240.51975 397.38385,242 395.91847,242 394.86331,242 394,241.38618 394,240.63595 c 0,-0.75022 2.45621,-8.50901 5.45825,-17.24175 3.08573,-8.97622 5.08093,-16.25502 4.59018,-16.74577 -0.49074,-0.49074 -2.22249,-0.068 -3.9841,0.97264 -2.22971,1.31713 -4.57118,4.67354 -8.23182,11.80006 -4.71413,9.17744 -5.22443,10.86694 -6.49963,21.51912 C 383.72123,254.40291 383.55979,255 381.53138,255 c -2.02716,0 -1.9687,-2.80711 0.46862,-22.5 2.44023,-19.71638 2.43871,-19.5 0.13636,-19.5 -4.28202,0 -6.50552,4.30045 -10.96,21.19768 l -4.32365,16.4009 -11.37083,9.20071 C 349.22792,264.85968 343.41106,269 342.55552,269 c -3.65037,0 -0.8857,-3.47457 9.19448,-11.55539 9.66522,-7.74817 13.3604,-11.66755 12.14552,-12.88243 -0.23027,-0.23026 -5.97145,-0.85645 -12.7582,-1.39152 -6.78674,-0.53508 -12.74309,-1.37643 -13.23633,-1.86967 -0.52906,-0.52906 0.95995,-6.4129 3.63123,-14.34889 5.09186,-15.12721 5.32177,-18.79255 1.29908,-20.71075 -4.92174,-2.3469 -6.68436,-0.42746 -18.8767,20.55623 -14.02358,24.13534 -15.35239,27.62314 -15.31665,40.20242 0.0264,9.27523 0.43777,11.38893 7.41157,38.07795 0.82136,3.14337 1.26987,3.53795 3.6927,3.24864 1.51678,-0.18112 10.83852,-1.24694 20.71499,-2.36849 z M 310,298.94151 c 0,-0.58218 -1.35,-6.40585 -3,-12.94151 -3.74848,-14.84775 -3.87991,-22.7476 -0.56793,-34.1367 1.33764,-4.59982 2.12514,-8.60894 1.75,-8.90916 -0.73939,-0.59173 -1.17347,-0.73318 -21.18207,-6.90228 -7.425,-2.2893 -15.84893,-4.90107 -18.71983,-5.80394 -2.87091,-0.90287 -5.47526,-1.38616 -5.78745,-1.07398 -0.31218,0.31219 -0.0163,1.77764 0.65758,3.25658 1.46045,3.20535 -0.14989,12.6882 -3.15496,18.57861 -2.24198,4.39465 -8.46768,10.59835 -12.30997,12.26648 -2.81307,1.22128 -2.8185,1.24216 -2.14072,8.22439 0.37373,3.85 0.86546,7.19889 1.09274,7.44198 0.22728,0.24309 4.62664,-0.38646 9.77635,-1.39901 14.54065,-2.85899 24.9831,-1.13593 35.92698,5.92817 5.40465,3.48861 9.82433,7.81389 13.5687,13.27886 2.20698,3.22112 4.09058,4.23025 4.09058,2.19151 z M 425.81433,177.25 c -0.2504,-1.31861 -1.50102,-1.82513 -5.07332,-2.05479 L 416,174.89042 V 135.94521 97 H 403.5 391 v 39 39 h -6.5 -6.5 v -22 -22 l -10.75,-9e-4 -10.75,-9e-4 0.28719,22.0009 L 357.07437,175 H 350.53719 344 v -31.44285 -31.44284 l -12.50182,-0.30716 -12.50182,-0.30715 0.002,31.75 L 319,175 H 312.5 306 V 162.5 150 H 295.5 285 v 12.5 12.5 h -3.5 c -2.83333,0 -3.5,0.38095 -3.5,2 0,1.982 0.66667,2 74.07332,2 70.00596,0 74.05508,-0.0961 73.74101,-1.75 z M 322,145 v -30 h 9 9 v 30 30 h -9 -9 z m 72,-7.5 V 100 h 9 9 v 37.5 37.5 h -9 -9 z M 333.20349,90.993677 C 334.89613,88.019066 334.96391,88 343.8465,88 c 7.22918,0 9.05565,-0.302633 9.54651,-1.581787 1.24933,-3.255697 0.6564,-18.132318 -0.76987,-19.316014 -0.96131,-0.797819 -7.82742,-1.061129 -22.75,-0.872445 L 308.5,66.5 V 77 87.5 l 9.21536,0.287067 c 9.02864,0.281251 9.25082,0.347102 10.96561,3.25 0.96263,1.629613 1.99072,2.960088 2.28464,2.95661 0.29391,-0.0035 1.30096,-1.353477 2.23788,-3 z M 320,76.966168 c 0,-1.936462 0.51409,-2.020243 10.73814,-1.75 9.29892,0.24579 10.78307,0.518384 11.07333,2.033832 0.3029,1.581488 -0.7311,1.75 -10.73815,1.75 C 320.60527,79 320,78.888831 320,76.966168 Z M 247.15789,189 c 0,-1.375 0.22698,-1.9375 0.50439,-1.25 0.27741,0.6875 0.27741,1.8125 0,2.5 -0.27741,0.6875 -0.50439,0.125 -0.50439,-1.25 z M 212.8125,164.31689 c 0.72187,-0.28887 1.58437,-0.25335 1.91667,0.0789 0.33229,0.33229 -0.25834,0.56864 -1.3125,0.52522 -1.16495,-0.048 -1.4019,-0.28494 -0.60417,-0.60416 z M 0.66666667,139.33333 C 0.3,138.96667 0,135.14167 0,130.83333 V 123 H 8.5 17 v 8.5 8.5 H 9.1666667 c -4.3083334,0 -8.1333334,-0.3 -8.50000003,-0.66667 z M 13,131.5 V 127 H 8.5 4 v 4.5 4.5 H 8.5 13 Z m 23.685002,1.75552 c -6.726653,-0.29436 -7.769238,-0.57968 -7.486414,-2.04875 0.304442,-1.58137 4.442167,-1.72436 56.314998,-1.94622 32.521574,-0.1391 56.588134,0.1433 57.422114,0.67378 1.18983,0.75684 1.21167,1.18317 0.12755,2.48945 -1.16237,1.40058 -6.72673,1.5538 -49.935695,1.37498 C 66.3824,133.68807 40.983251,133.44362 36.685002,133.25552 Z M 0.4378947,115.69875 C 0.1453893,114.9365 0.03970169,110.97994 0.20303335,106.90642 L 0.5,99.5 h 8 8 v 8.5 8.5 l -7.7651387,0.29234 c -5.9007305,0.22214 -7.89283039,-0.0404 -8.2969666,-1.09359 z M 13,107.5 V 103 H 8.5 4 v 4.5 4.5 H 8.5 13 Z m 16.666667,1.83333 C 29.3,108.96667 29,108.06667 29,107.33333 29,106.24799 35.416667,106 63.5,106 c 33.833333,0 34.5,0.0387 34.5,2 0,1.96059 -0.666667,2 -33.833333,2 -18.608334,0 -34.133334,-0.3 -34.5,-0.66667 z M 246.33621,64 c 0,-4.125 0.17651,-5.8125 0.39226,-3.75 0.21574,2.0625 0.21574,5.4375 0,7.5 -0.21575,2.0625 -0.39226,0.375 -0.39226,-3.75 z m -1.25726,-41.583333 c 0.048,-1.164943 0.28494,-1.4019 0.60416,-0.604167 0.28887,0.721875 0.25335,1.584375 -0.0789,1.916667 -0.3323,0.332291 -0.56864,-0.258334 -0.52522,-1.3125 z M 216.5,7 C 216.16008,6.45 216.35852,6 216.94098,6 217.52344,6 218,6.45 218,7 c 0,0.55 -0.19844,1 -0.44098,1 -0.24254,0 -0.7191,-0.45 -1.05902,-1 z"
         id="path3" />
      <path
         style="fill:#090816"
         d="m 232.97811,449.0016 c -9.89497,-0.89465 -25.55891,-3.36439 -32.47811,-5.12083 -10.81695,-2.7459 -11.78349,-3.08753 -10.67442,-3.77297 1.29968,-0.80325 9.61306,-59.58906 8.64783,-61.15082 -1.25275,-2.02699 -3.27607,-0.81428 -3.82575,2.29302 -0.31621,1.7875 -2.22182,15.625 -4.2347,30.75 -2.01288,15.125 -3.81546,27.67372 -4.00575,27.88605 -0.55851,0.6232 -17.99921,-5.70357 -27.43527,-9.9524 -18.0389,-8.12248 -42.76867,-23.41554 -42.15984,-26.07194 0.94981,-4.14414 24.76438,-66.12789 26.96209,-70.17602 3.18953,-5.87503 11.65662,-14.57604 17.53851,-18.02306 2.39266,-1.40219 7.79585,-3.91816 12.0071,-5.59105 4.21124,-1.67288 12.20448,-5.32374 17.76275,-8.11301 8.88199,-4.45719 10.04455,-5.33707 9.59899,-7.26498 -0.27882,-1.20648 -1.07753,-9.33024 -1.77489,-18.05281 -0.78298,-9.79332 -1.74726,-16.33853 -2.52111,-17.11239 -0.68925,-0.68924 -3.42046,-1.54469 -6.06936,-1.90098 -6.28502,-0.84538 -14.02934,-5.35858 -19.12143,-11.1435 C 165.69628,240.23732 160.9838,227.89753 160.31693,218 c -0.43882,-6.51288 -0.14624,-9.25849 1.80906,-16.97626 0.23159,-0.91412 -0.48276,-1.60698 -1.87599,-1.81955 -2.80175,-0.42747 -2.93729,-2.2117 -0.22196,-2.92177 1.40496,-0.36741 1.85332,-1.08087 1.45933,-2.32223 -0.6829,-2.1516 1.2484,-3.62442 2.76455,-2.10827 0.77021,0.77021 2.75139,-0.74893 6.94436,-5.32482 C 178.34072,178.7302 186.95314,174 194.00473,174 c 3.52544,0 5.15688,-0.52927 6.59028,-2.13802 5.7367,-6.43843 17.34744,-6.39728 24.90499,0.0883 1.1,0.94397 4.1247,2.49866 6.72156,3.45487 7.76677,2.85986 12.70816,10.8255 11.31668,18.24274 -0.44856,2.39104 -0.18067,4.24891 0.83653,5.80135 1.5274,2.33111 5.26055,3.94986 6.07395,2.63376 0.24789,-0.40109 0.0503,-22.29635 -0.43914,-48.65612 -0.48941,-26.35977 -1.20996,-71.729186 -1.60122,-100.820917 l -0.71139,-52.89405741 12.90152,0.70807055 C 317.8271,3.5608197 367.61701,25.106128 407.35027,63.923029 443.76949,99.502317 465.73936,142.48728 473.57785,193.5 c 2.31999,15.09846 2.37298,46.03161 0.10535,61.5 -1.5895,10.84261 -5.55944,28.9584 -7.36481,33.60744 -0.7959,2.04953 -1.9579,1.7563 -42.2902,-10.67183 -39.76929,-12.25464 -41.56249,-12.71063 -43.68063,-11.10744 -1.21485,0.91951 -6.06377,4.82183 -10.77538,8.67183 l -8.56655,7 0.53195,5.5 c 0.29258,3.025 0.69156,8.65891 0.88663,12.51979 0.30678,6.07166 2.53067,13.07182 16.46524,51.8277 8.8608,24.64434 16.11055,45.19484 16.11055,45.66777 0,1.4359 -18.83331,14.74729 -30,21.204 -12.64001,7.30861 -39.01572,19.23323 -37.64858,17.02115 0.63421,-1.02617 -8.91344,-125.13576 -9.68603,-125.90835 -0.31852,-0.31853 -1.3247,-0.29304 -2.23596,0.0566 -1.36199,0.52265 -1.55215,1.56784 -1.06863,5.87354 0.3235,2.88077 2.39674,29.76276 4.60719,59.73776 2.21045,29.975 4.39779,56.14396 4.86075,58.15324 l 0.84174,3.65324 -7.08524,2.0794 c -27.14163,7.96565 -59.16575,11.41598 -84.60713,9.11572 z m 13.17923,-121.11503 c 5.82468,-1.45525 12.95885,-6.87113 15.53566,-11.79385 4.75035,-9.07506 2.06027,-21.2623 -6.50735,-29.4811 -3.70983,-3.55879 -4.38915,-3.83469 -8.01445,-3.25499 -4.43908,0.70984 -5.1712,-0.11114 -5.1712,-5.79885 0,-1.80325 -0.27079,-5.25394 -0.60176,-7.66821 l -0.60177,-4.38957 -6.27259,-0.0712 c -4.69359,-0.0533 -7.67152,-0.75561 -11.82984,-2.79008 C 217.02762,259.86641 211,254.10709 211,251.4652 c 0,-2.47122 2.74662,-1.62977 4.99725,1.53094 5.66701,7.95858 19.01954,11.20317 28.79628,6.99734 9.27351,-3.98936 14.50681,-12.08981 14.53192,-22.49348 0.0149,-6.18411 -1.58458,-10.40114 -7.11475,-18.7578 -2.26508,-3.42276 -2.3809,-4.05567 -1.15972,-6.33746 1.76164,-3.29166 0.22455,-5.88963 -3.51786,-5.94584 -1.96749,-0.0296 -3.51467,-1.08459 -5.50493,-3.75387 -9.1273,-12.24124 -24.54255,-14.41472 -36.66374,-5.16944 l -3.24321,2.47372 2.42734,4.24534 c 4.53554,7.93256 2.08908,16.52923 -6.06361,21.30702 -5.39305,3.16054 -7.48497,5.88208 -7.48497,9.73776 0,2.71808 3.0893,6.66625 7.19913,9.20057 1.31828,0.81292 2.01675,5.49002 3.73346,25 1.16149,13.2 2.31576,25.23853 2.56506,26.75229 0.42641,2.58919 -0.086,3.02314 -8.64759,7.32301 l -9.10086,4.57073 3.30324,3.40807 c 6.05574,6.24795 27.18402,15.67496 38.94123,17.3748 5.73187,0.8287 10.94102,0.51236 17.16367,-1.04233 z m -45.7932,-90.38002 c -0.3503,-0.91287 -1.70054,-2.06415 -3.00052,-2.5584 C 196.06363,234.45389 195,233.31458 195,232.41634 c 0,-1.27279 0.60681,-1.4895 2.75,-0.98211 2.97074,0.70331 6.5306,4.22398 5.97037,5.90465 -0.59786,1.7936 -2.69215,1.89823 -3.35623,0.16767 z M 238.75,222.9199 c -2.68911,-1.56626 -2.28823,-4.32388 0.5,-3.4395 1.2375,0.39251 2.925,0.71366 3.75,0.71366 0.825,0 2.5125,-0.32115 3.75,-0.71366 2.51664,-0.79824 3.15372,1.21588 1.05,3.3196 -1.45401,1.45401 -6.64147,1.52274 -9.05,0.1199 z m -3.4271,-13.52082 c -0.85252,-2.22164 1.81066,-3.69307 3.54542,-1.95888 0.75258,0.75233 1.06353,1.86106 0.69099,2.46384 -1.00603,1.62779 -3.53361,1.32652 -4.23641,-0.50496 z M 227,207.13486 C 227,205.8428 231.00425,201 232.07258,201 c 1.70717,0 0.95163,2.62863 -1.38703,4.82569 C 228.23917,208.12394 227,208.56412 227,207.13486 Z m 112,99.53257 19.5,-2.21985 -0.27963,-9.47379 c -0.15379,-5.21058 -0.48302,-10.41918 -0.73162,-11.57465 -0.37397,-1.73824 5.31776,-6.88744 32.97545,-29.83226 18.3851,-15.25227 33.96393,-28.37782 34.61964,-29.1679 0.94273,-1.13592 0.81702,-1.85105 -0.60082,-3.41774 -2.87611,-3.17807 -6.39604,-2.38638 -14.99192,3.37193 -7.48141,5.01173 -8.11421,5.71668 -9.92132,11.05236 -2.02952,5.99238 -3.14961,7.41464 -4.65432,5.90993 -0.54704,-0.54704 1.34587,-7.39316 4.74363,-17.15637 4.37602,-12.57414 5.38453,-16.51547 4.46206,-17.43794 -2.46677,-2.46677 -6.41325,1.46779 -12.28704,12.24992 -5.50416,10.10363 -5.70211,10.73744 -6.9351,22.2052 -1.35564,12.60855 -2.07937,15.04337 -3.92341,13.19933 -0.81024,-0.81024 -0.4692,-6.37673 1.27006,-20.72994 1.51989,-12.54289 2.03122,-19.96878 1.41728,-20.58272 -1.43287,-1.43287 -6.38712,1.48442 -7.98846,4.70399 -0.74765,1.50319 -3.08959,9.42678 -5.2043,17.60799 l -3.84492,14.87492 -11.52656,9.3871 c -6.33962,5.16291 -11.96467,9.24107 -12.50013,9.06258 -2.58813,-0.86271 -0.7543,-2.99889 9.88517,-11.51504 12.73075,-10.19006 14.12746,-12.62793 7.76626,-13.5555 -2.0625,-0.30075 -7.9125,-0.83807 -13,-1.19406 -8.01824,-0.56105 -9.25,-0.88807 -9.25,-2.45574 0,-0.99467 2.08701,-7.71933 4.63781,-14.94368 5.07743,-14.38028 5.06161,-16.84844 -0.12308,-19.21074 -4.67743,-2.13118 -6.58738,-0.0546 -18.29815,19.89494 -13.81343,23.53139 -15.32045,27.19861 -15.93658,38.7803 -0.43201,8.12085 -0.0751,10.61178 3.65378,25.5 4.96732,19.83288 4.69549,19.01355 6.28484,18.94364 0.70476,-0.031 10.05638,-1.05529 20.78138,-2.27621 z M 307.87834,289.32209 C 303.84933,273.71856 303.45013,260.25123 306.74242,251 c 1.07652,-3.025 2.13737,-6.0977 2.35744,-6.82823 0.39439,-1.30915 -5.66621,-3.43609 -35.59986,-12.49359 l -11,-3.32845 -0.007,9.07513 c -0.006,7.38721 -0.41086,9.83181 -2.17758,13.14335 -2.33774,4.38184 -8.90643,10.83277 -12.86894,12.63821 -2.0179,0.91941 -2.44438,1.83078 -2.4353,5.2041 0.006,2.24921 0.27721,5.69863 0.60258,7.66538 l 0.59159,3.57589 4.14741,-0.73023 c 2.28108,-0.40163 7.01226,-1.28058 10.51374,-1.95323 11.05579,-2.12388 24.59156,1.33089 34.86268,8.8981 2.32595,1.71364 6.57824,6.25494 9.44952,10.09178 2.87128,3.83685 5.39829,6.79831 5.61557,6.58102 0.21728,-0.21728 -1.09481,-6.16499 -2.91576,-13.21714 z M 426,177 c 0,-1.73333 -0.66667,-2 -5,-2 h -5 V 135.47012 95.940246 L 403.25,96.220123 390.5,96.5 390.23839,135.75 389.97679,175 H 383.98839 378 V 152.5 130 h -11 -11 v 22.5 22.5 h -6 -6 v -32 -32 h -13 -13 v 32 32 h -6 -6 V 162.5 150 h -11 -11 v 12.5 12.5 h -3.5 c -2.83333,0 -3.5,0.38095 -3.5,2 0,1.9821 0.66667,2 74.5,2 73.83333,0 74.5,-0.0179 74.5,-2 z m -103.08333,-2.41552 c -0.22917,-0.22853 -0.29107,-13.72853 -0.13756,-30 L 323.05821,115 h 8.4709 H 340 v 30 30 h -8.33333 c -4.58334,0 -8.52084,-0.18698 -8.75,-0.41552 z M 394,138 v -37 h 9 9 v 37 37 h -9 -9 z M 332.97729,91.536747 335.1177,88.073494 344.30885,87.786747 353.5,87.5 353.79505,79 c 0.16228,-4.675 0.0391,-9.521081 -0.27383,-10.769068 l -0.5689,-2.269068 -22.22616,0.269068 L 308.5,66.5 V 77 87.5 l 8.9843,0.5 c 8.8146,0.490556 9.02238,0.560662 11,3.71148 1.10864,1.766314 2.0915,3.228814 2.18414,3.25 0.0926,0.02119 1.13162,-1.519944 2.30885,-3.424733 z M 320,76.966168 c 0,-1.936462 0.51409,-2.020243 10.73814,-1.75 9.29892,0.24579 10.78307,0.518384 11.07333,2.033832 0.3029,1.581488 -0.7311,1.75 -10.73815,1.75 C 320.60527,79 320,78.888831 320,76.966168 Z M 0.43573426,138.69312 c -0.29369364,-0.76535 -0.39938124,-4.4969 -0.23486135,-8.29233 L 0.5,123.5 h 8 8 v 8 8 l -7.7651387,0.29234 c -5.9150667,0.22268 -7.89236325,-0.0392 -8.29912704,-1.09922 z M 13.5,131 v -4.5 L 8.75,126.19521 4,125.89042 V 131 136.10958 L 8.75,135.80479 13.5,135.5 Z m 15.958881,0.93347 c -0.362533,-0.58659 -0.361751,-1.36393 0.0017,-1.72742 1.069753,-1.06976 111.861759,-1.43089 113.417499,-0.36969 C 147.11404,132.72575 142.2268,133 86.5,133 47.645941,133 29.913118,132.66844 29.458881,131.93347 Z M 0.66666667,115.33333 C 0.3,114.96667 0,111.37524 0,107.35239 0,98.867911 0.26127083,98.665706 10.541668,99.19388 L 16.5,99.5 l 0.290442,8.25 0.290443,8.25 H 9.207109 c -4.3305766,0 -8.1737757,-0.3 -8.54044233,-0.66667 z M 13.5,108 v -4.5 L 8.75,103.19521 4,102.89042 V 108 113.10958 L 8.75,112.80479 13.5,112.5 Z m 16.008171,1.01322 C 27.826331,106.29195 31.181026,106 64.132341,106 c 31.856194,0 33.992942,0.11103 33.677567,1.75 -0.311545,1.61906 -2.855941,1.76969 -34.006136,2.01322 -21.944523,0.17156 -33.887463,-0.0896 -34.295601,-0.75 z"
         id="path2" />
    </g>
  </g>
</svg>
