<?xml version="1.0" encoding="UTF-8" standalone="no"?>
<!-- Created with Inkscape (http://www.inkscape.org/) -->

<svg
   version="1.1"
   id="svg1"
   width="467"
   height="450"
   viewBox="0 0 467 450"
   sodipodi:docname="BUSINESS_08.svg"
   inkscape:version="1.3.2 (091e20e, 2023-11-25, custom)"
   xmlns:inkscape="http://www.inkscape.org/namespaces/inkscape"
   xmlns:sodipodi="http://sodipodi.sourceforge.net/DTD/sodipodi-0.dtd"
   xmlns="http://www.w3.org/2000/svg"
   xmlns:svg="http://www.w3.org/2000/svg">
  <defs
     id="defs1" />
  <sodipodi:namedview
     id="namedview1"
     pagecolor="#ffffff"
     bordercolor="#000000"
     borderopacity="0.25"
     inkscape:showpageshadow="2"
     inkscape:pageopacity="0.0"
     inkscape:pagecheckerboard="0"
     inkscape:deskcolor="#d1d1d1"
     showgrid="false"
     inkscape:zoom="1.7488889"
     inkscape:cx="233.57687"
     inkscape:cy="225"
     inkscape:window-width="1920"
     inkscape:window-height="1001"
     inkscape:window-x="-9"
     inkscape:window-y="-9"
     inkscape:window-maximized="1"
     inkscape:current-layer="g1" />
  <g
     inkscape:groupmode="layer"
     inkscape:label="Image"
     id="g1">
    <g
       id="g2"
       transform="translate(0,-0.03391945)">
      <path
         style="fill:#fefefe"
         d="M 0,225 V 0 H 233.5 467 V 225 450 H 233.5 0 Z"
         id="path6" />
      <path
         style="fill:#9faec0"
         d="M 89.5,447.70319 C 83.298214,444.74447 74.630249,435.54438 70.188784,427.20645 46.486057,382.70954 60.047358,308.18192 93.622988,298.42122 c 5.471009,-1.59046 11.783882,-1.28863 15.662032,0.74884 1.36177,0.71543 6.22255,-1.10543 20.5,-7.67936 L 148.5,282.87355 179,246.42566 l 30.5,-36.44789 39.5,0.26112 39.5,0.26111 1.65843,7 c 0.91214,3.85 2.48714,10.66627 3.5,15.14727 L 295.5,240.79454 354,199.28198 C 424.33507,149.37106 420.37037,152 425.30582,152 c 4.04873,0 31.4319,8.95579 35.49192,11.60779 6.21106,4.05706 8.17119,14.1857 3.95226,20.4227 -1.2375,1.82944 -10.78221,9.47904 -21.21047,16.9991 -18.18539,13.11391 -19.00658,13.85266 -20.08829,18.07163 -2.51017,9.79033 -3.58259,10.92411 -22.3772,23.6576 L 389.64808,250.5 379.00281,276 l -10.64527,25.5 -7.67877,0.29206 C 356.45545,301.9527 353,302.45921 353,302.91763 c 0,0.45843 1.14866,3.43084 2.55258,6.60536 1.40393,3.17451 2.19143,6.12677 1.75,6.56057 -0.44142,0.43381 -12.50258,6.96063 -26.80258,14.50406 -14.3,7.54342 -40.40667,22.13225 -58.01482,32.41961 l -32.01482,18.7043 -36.79399,-5.85868 -36.79398,-5.85868 -12.79976,10.75292 -12.79976,10.75291 -1.19468,6.40425 c -1.91013,10.23959 -6.73162,24.07131 -10.8139,31.02255 -4.61979,7.8665 -12.41243,16.0066 -17.77429,18.56681 -6.3229,3.01909 -15.919331,3.11051 -22,0.20958 z m 21.88804,-36.41904 c 8.31158,-6.99372 23.75848,-20.04372 34.32646,-29 10.56797,-8.95628 20.01797,-16.2905 21,-16.29825 0.98202,-0.008 17.8112,2.51292 37.39816,5.60151 l 35.61266,5.61561 27.38734,-15.9564 C 282.1757,352.4706 296.525,344.26961 299,343.02219 c 2.475,-1.24742 4.64055,-2.39077 4.81234,-2.54078 0.17178,-0.15001 -2.86572,-7.98007 -6.75,-17.40014 -3.88429,-9.42006 -7.06123,-17.45451 -7.05987,-17.85433 0.002,-0.68705 -3.75651,-9.9676 -8.29365,-20.47694 -1.12788,-2.6125 -2.37141,-4.75 -2.7634,-4.75 -1.06438,0 -7.16132,6.98384 -9.72846,11.14363 -4.21707,6.83334 -5.22446,12.33507 -4.68728,25.59905 l 0.49581,12.24269 -6.26274,4.61266 c -10.01739,7.37804 -13.40732,8.82415 -20.76275,8.85718 -5.10567,0.0229 -7.45585,-0.50543 -10.9559,-2.46302 C 222.37621,337.38143 206,319.67685 206,317.24108 c 0,-0.78136 -2.81686,0.94555 -6.41801,3.93466 -7.98379,6.62687 -22.09326,15.24435 -23.518,14.36381 -2.31948,-1.43352 -0.61162,-3.26229 7.87136,-8.42862 11.19394,-6.81737 20.70484,-15.19626 21.53389,-18.97087 0.63119,-2.87378 4.16289,-6.66675 10.53076,-11.30978 3.67187,-2.67728 9.39905,-11.67277 14.48907,-22.75752 4.13275,-9.00004 13.4272,-26.32678 14.84821,-27.68007 0.6395,-0.60903 4.97834,-1.90654 9.64188,-2.88337 l 8.47916,-1.77605 2.02084,2.86176 c 6.38324,9.03946 15.35883,12.44902 24.43902,9.28365 3.75215,-1.30801 3.83918,0.34665 -1.22975,-23.37868 l -3.20476,-15 -37.49183,-0.20326 -37.49184,-0.20326 -31.06106,37.20326 c -24.53354,29.38494 -31.57361,37.22935 -33.5,37.3274 -1.34142,0.0683 -12.95098,5.01827 -25.79902,11 L 96.779834,311.5 89.049847,331 C 79.395791,355.35374 78,360.88589 78,374.79555 c 0,12.73083 2.249566,22.99001 7.390485,33.70445 3.294198,6.8656 9.006181,15.5 10.253832,15.5 0.347475,0 7.432153,-5.72213 15.743723,-12.71585 z m 210.50412,-80.91208 c 6.93431,-3.64536 16.7548,-8.84267 21.8233,-11.54958 l 9.21547,-4.92165 -2.46298,-5.56923 c -5.22488,-11.81437 -18.8226,-47.51029 -20.03002,-52.58161 -0.89813,-3.77222 -2.49248,-3.46015 -7.40132,1.44868 -7.37733,7.37734 -11.02652,17.35832 -11.05355,30.23282 l -0.0169,8.0685 -8.32863,5.9663 -8.32863,5.96629 6.00799,14.78371 c 3.30439,8.13103 6.44887,14.7837 6.98773,14.7837 0.53886,0 6.65327,-2.98257 13.58758,-6.62793 z m 54.0989,-58.01785 10.54212,-25.14579 13.58555,-8.9922 c 13.15786,-8.70911 16.80798,-12.10756 18.35721,-17.09146 0.89926,-2.89296 1.60348,-3.28978 -13.97594,7.87523 -15.79942,11.32267 -14.90693,10.88542 -12.94262,6.34074 3.46664,-8.02053 3.65458,-7.73242 -4.593,-7.04097 -8.68882,0.72844 -18.20711,4.93478 -22.67092,10.01878 -1.58271,1.8026 -7.46883,10.4868 -13.08028,19.29821 l -10.20263,16.02075 3.5936,8.93124 c 1.97649,4.91219 4.20951,10.41376 4.96228,12.22571 l 1.36867,3.29447 7.25693,-0.29447 7.25692,-0.29446 z M 245.86326,275.85911 258.36684,267 H 248.1314 237.89596 l -1.12985,3.25 c -0.62142,1.7875 -2.76738,6.51142 -4.7688,10.49761 -4.24486,8.45437 -5.68007,8.96037 13.86595,-4.8885 z M 268.68129,259.75 c 3.22645,-2.19649 4.22798,-3.75 2.41758,-3.75 -0.49563,0 -2.95135,-2.07959 -5.45717,-4.62131 l -4.55603,-4.62132 -6.5901,1.24347 -6.5901,1.24346 -2.95274,5.84933 C 243.32873,258.31077 242,261.1808 242,261.47148 242,261.76217 247.25965,262 253.68812,262 c 10.47507,0 12.03113,-0.23352 14.99317,-2.25 z M 310,204.06955 c 0,-1.23756 -0.80392,-2.04514 -2.23978,-2.25 C 304.43647,201.34535 304.14434,198 307.42668,198 309.50489,198 310,197.519 310,195.5 c 0,-1.83333 0.53333,-2.5 2,-2.5 1.46667,0 2,0.66667 2,2.5 0,2.019 0.49511,2.5 2.57332,2.5 3.28234,0 2.99021,3.34535 -0.33354,3.81955 -1.43586,0.20486 -2.23978,1.01244 -2.23978,2.25 0,1.26378 -0.69069,1.93045 -2,1.93045 -1.30931,0 -2,-0.66667 -2,-1.93045 z M 67.075543,190.72668 62.943525,178.32759 52.721763,178.29491 C 45.119761,178.2706 40.815612,177.71982 35.92787,176.14587 -0.44160984,164.4342 -11.875679,118.7375 14.614332,90.965484 17.581016,87.855226 21.581435,84.463282 23.504151,83.427831 25.426868,82.39238 27,81.255649 27,80.901762 27,80.547876 24.216082,79.943368 20.813515,79.558411 10.064661,78.342317 5,74.10559 5,66.329975 5,62.229214 12.428294,11.54454 13.576395,7.8115877 c 0.285608,-0.9286268 2.088416,-3.0661268 4.006242,-4.75 4.573458,-4.01554951 5.718589,-3.97923973 38.993398,1.2364017 29.165384,4.5715119 31.29883,5.2747242 34.151474,11.2567806 1.572425,3.29741 1.50148,4.41003 -1.537938,24.119301 C 87.437047,51.038406 86.114952,60.417502 86.251582,60.516507 86.388212,60.615512 119.575,49.663303 160,36.178264 231.95127,12.17664 233.70256,11.650723 243.11294,11.219203 c 7.14441,-0.327611 11.1247,-0.0044 15.5,1.2587 27.74521,8.009634 43.96083,35.702756 36.8627,62.954307 -0.8384,3.218823 -1.36603,6.010736 -1.17251,6.20425 0.19351,0.193515 7.69638,-0.06511 16.67304,-0.57472 18.33481,-1.040879 21.91711,-0.354143 26.48776,5.077766 3.22098,3.827915 3.30548,4.475381 5.04508,38.657954 2.03689,40.02426 2.0019,42.15496 -0.75901,46.21767 -4.26202,6.2716 -6.2026,6.68784 -39.25,8.41885 -41.11782,2.15374 -44.40111,2.10725 -48.54805,-0.68738 -6.52785,-4.39912 -6.91862,-5.98572 -8.44454,-34.2869 -0.76122,-14.11832 -1.60865,-25.89428 -1.88318,-26.1688 -0.41451,-0.41451 -72.56328,23.09737 -74.86406,24.39674 -0.4069,0.2298 0.1556,1.37895 1.25,2.55365 1.09441,1.17471 1.98983,2.68165 1.98983,3.34876 0,0.6671 -2.01706,8.79475 -4.48235,18.06143 -4.38917,16.49829 -6.26041,20.35248 -9.87843,20.3467 -3.78436,-0.006 -35.32258,-9.29157 -36.38922,-10.71376 -1.62519,-2.16694 -1.56359,-5.51684 0.22504,-12.23792 0.79821,-2.99942 1.32459,-5.58021 1.16972,-5.73508 -0.15487,-0.15487 -7.4508,2.10151 -16.21317,5.01416 L 90.5,168.62132 81.343854,185.38348 c -5.035881,9.21918 -9.37668,16.98268 -9.64622,17.25222 -0.269541,0.26954 -2.349482,-5.08952 -4.622091,-11.90902 z M 298,175.38929 c 20.61647,-1.04227 33.66407,-2.11631 35.68358,-2.93739 1.79126,-0.72827 3.91248,-2.70388 4.85022,-4.51726 1.55402,-3.00515 1.55594,-5.52743 0.0284,-37.32878 -0.90101,-18.75822 -2.08194,-35.769218 -2.62429,-37.802212 -0.54235,-2.032993 -2.16094,-4.620493 -3.59688,-5.75 -2.93807,-2.311086 -6.85106,-2.504074 -28.44273,-1.402789 l -12.60165,0.642749 -1.89622,3.521076 c -2.93229,5.444927 -12.51713,14.441056 -19.02344,17.855006 -3.23236,1.69607 -9.56492,4.29299 -14.07235,5.77095 l -8.19531,2.68718 0.43399,4.68609 c 0.2387,2.57735 0.9267,14.57345 1.5289,26.658 0.60219,12.08455 1.50444,22.73715 2.005,23.67245 1.72062,3.21502 6.13076,5.85536 9.8076,5.8718 1.98833,0.009 18.24014,-0.7232 36.11514,-1.62687 z m -9.52598,-22.58844 c -0.39542,-2.36547 -1.2236,-4.62024 -1.8404,-5.01061 -0.62322,-0.39444 -2.568,0.69231 -4.37753,2.44617 L 279,153.39233 l -3.50311,-3.39535 -3.50311,-3.39535 2.94254,-3.05081 c 2.30395,-2.38873 2.72745,-3.43138 1.95143,-4.80437 -0.79095,-1.39942 -1.78849,-1.62605 -4.93943,-1.1222 -3.49366,0.55866 -3.94832,0.40074 -3.94832,-1.37144 0,-1.10155 -0.26824,-3.34401 -0.59609,-4.98325 -0.5745,-2.87251 -0.44253,-3.00104 3.64412,-3.54918 5.76648,-0.77344 6.56873,-2.48883 2.92307,-6.2502 l -2.94843,-3.042 3.11902,-3.78391 3.11902,-3.78391 3.11965,2.89977 c 4.35934,4.0521 6.61964,3.2912 6.61964,-2.22842 v -4.32164 l 4.25,-0.44929 c 2.3375,-0.24712 4.5875,-0.26783 5,-0.046 0.4125,0.2218 0.75,2.12857 0.75,4.23727 0,5.28257 2.37546,6.04563 6.469,2.07801 l 3.13263,-3.03626 3.39079,3.4984 3.39079,3.4984 -2.8215,2.94501 C 306.6821,123.98503 307.64796,126 313.46862,126 H 318 v 5 5 h -4.38337 c -5.67844,0 -6.82737,2.72874 -2.49697,5.93035 1.58419,1.17124 2.86823,2.45355 2.85344,2.84959 -0.0148,0.39603 -1.29983,2.25501 -2.85564,4.13106 l -2.82874,3.411 -3.51346,-2.67985 c -4.79148,-3.65464 -6.98149,-2.74406 -6.57848,2.73526 L 298.5,156.5 l -4.65351,0.30085 -4.65351,0.30085 z m 9.21153,-15.97516 c 5.79755,-5.44652 -0.3719,-14.8551 -7.7397,-11.80326 -2.6408,1.09385 -4.94585,4.62195 -4.94585,7.57008 0,2.47757 4.68591,6.40749 7.64009,6.40749 1.50206,0 3.77251,-0.97844 5.04546,-2.17431 z m -148.68277,27.59338 c 3.36046,-1.96952 5.9386,-4.09492 5.7292,-4.72313 -0.51513,-1.54539 -10.79449,-7.60835 -12.98198,-7.65701 -1.51111,-0.0336 -1.75,0.96211 -1.75,7.2944 0,10.19933 0.14144,10.27923 9.00278,5.08574 z m -33.62691,-56.65031 c 0.83869,-1.3318 0.70827,-2.11319 -0.56528,-3.38674 -2.99571,-2.99571 -7.46512,0.91947 -4.76443,4.1736 1.55489,1.87353 3.86955,1.53181 5.32971,-0.78686 z M 48.053516,73.496299 C 53.799082,71.569263 59.175,69.716817 60,69.379752 60.825,69.042687 52.572666,67.279518 41.66148,65.4616 30.750294,63.643681 21.663092,61.996425 21.467698,61.801032 c -0.195394,-0.195394 0.09559,-2.36806 0.64662,-4.828147 1.150831,-5.137865 4.941503,-9.606598 8.883354,-10.472374 3.569674,-0.784032 26.556491,3.16126 29.444678,5.053672 C 63.550277,53.590575 65,57.224405 65,62.978247 v 4.884141 l 8.210956,-2.759009 8.210955,-2.75901 3.232223,-20.922184 C 86.431857,29.914983 87.646455,19.520618 87.353242,18.323596 86.205773,13.639135 84.132996,13.005379 54.98898,8.4281447 39.481873,5.9926651 25.96563,4 24.952884,4 23.940138,4 21.882815,5.0568943 20.381055,6.3486539 17.781395,8.5847871 17.445609,9.986113 13.372163,35.598654 11.019033,50.394394 9.0726518,63.937406 9.0468721,65.694236 8.9650605,71.269523 12.315872,73.886536 21.5,75.420235 c 12.377917,2.067044 15.281425,1.85667 26.553516,-1.923936 z M 41.788504,37.102336 C 37.347998,33.134744 37.21562,27.471929 41.459818,23.04194 47.880666,16.34002 59,20.750977 59,30 59,39.127951 48.77694,43.346503 41.788504,37.102336 Z M 210,172.5 V 165 h -7.57332 c -6.67324,0 -7.53364,-0.20799 -7.2394,-1.75 0.27493,-1.44079 1.61306,-1.80191 7.57332,-2.04381 L 210,160.91238 v -6.95619 C 210,147.66667 210.19168,147 212,147 c 1.80832,0 2,0.66667 2,6.95619 v 6.95619 l 7.2394,0.29381 c 5.96026,0.2419 7.29839,0.60302 7.57332,2.04381 0.29424,1.54201 -0.56616,1.75 -7.2394,1.75 H 214 v 7.5 c 0,6.83333 -0.17778,7.5 -2,7.5 -1.82222,0 -2,-0.66667 -2,-7.5 z M 326.66667,65.333333 C 326.3,64.966667 326,63.166667 326,61.333333 326,58.190476 325.8,58 322.5,58 c -2.83333,0 -3.5,-0.380952 -3.5,-2 0,-1.619048 0.66667,-2 3.5,-2 3.33333,0 3.5,-0.166667 3.5,-3.5 0,-3.066667 0.30952,-3.5 2.5,-3.5 2.19048,0 2.5,0.433333 2.5,3.5 0,3.333333 0.16667,3.5 3.5,3.5 2.83333,0 3.5,0.380952 3.5,2 0,1.619048 -0.66667,2 -3.5,2 -3.41667,0 -3.5,0.09524 -3.5,4 0,3.212121 -0.36111,4 -1.83333,4 -1.00834,0 -2.13334,-0.3 -2.5,-0.666667 z"
         id="path5" />
      <path
         style="fill:#f7ca44"
         d="M 89.242573,447.43359 C 62.261938,433.98857 49.788126,375.61898 64.824323,333.17154 c 5.754723,-16.24567 14.897253,-28.47013 24.759568,-33.10597 5.361667,-2.52028 13.902669,-3.01412 18.888019,-1.0921 2.73611,1.05486 4.44911,0.4617 21.58951,-7.47579 l 18.61759,-8.62155 29.31012,-35.01626 c 16.12056,-19.25894 29.94993,-35.65607 30.73192,-36.43806 1.17998,-1.17998 7.9155,-1.41921 39.60038,-1.4065 20.99821,0.008 38.69521,0.34592 39.32665,0.75 0.63145,0.40408 2.53357,7.21181 4.22695,15.1283 1.69337,7.91648 3.21668,14.53144 3.38514,14.69989 0.16845,0.16846 13.34133,-8.93167 29.27306,-20.2225 94.76012,-67.15662 95.42935,-67.61323 99.78931,-68.08615 3.24005,-0.35145 7.54341,0.71957 19.17746,4.77288 16.23428,5.65604 19.73315,7.55867 22.01509,11.97145 2.07446,4.01157 1.86452,10.83601 -0.45014,14.63204 -1.15272,1.89046 -9.74331,8.72416 -21.37056,17 L 424.2514,214.5 l -1.15517,5.06124 c -1.91724,8.4001 -5.08154,11.84681 -19.45195,21.18793 -7.22936,4.69926 -13.44046,9.00033 -13.80247,9.55793 -0.362,0.5576 -5.27894,12.07911 -10.92653,25.60336 -5.64759,13.52425 -10.7514,24.92015 -11.34181,25.32423 -0.59041,0.40408 -4.31121,0.74158 -8.26844,0.75 l -7.19497,0.0153 2.44497,5.52851 c 1.34473,3.04069 2.44215,6.30319 2.43869,7.25 -0.004,1.23106 -7.31793,5.56745 -25.67144,15.22149 -14.11584,7.425 -40.10052,21.93054 -57.74372,32.23452 -17.64321,10.30399 -33.0891,18.74149 -34.32422,18.75 -1.23511,0.009 -18.03355,-2.49673 -37.32987,-5.56722 -30.49564,-4.85255 -35.30266,-5.3983 -36.75435,-4.17282 -0.91857,0.77543 -6.39512,5.38808 -12.17012,10.25033 -5.775,4.86225 -10.80861,9.10252 -11.18579,9.42282 -0.37718,0.32031 -1.55701,4.86337 -2.62184,10.09571 -7.36301,36.18036 -29.40033,56.66048 -49.949797,46.42025 z M 134,392.43659 c 15.675,-13.17097 29.29354,-24.56743 30.26342,-25.32548 1.5221,-1.18966 6.8134,-0.58322 38.66423,4.43133 l 36.9008,5.80962 25.83577,-15.06216 C 279.8739,354.00571 294.2,345.74744 297.5,343.93819 c 3.3,-1.80924 6.16935,-3.41733 6.37632,-3.57352 0.20698,-0.15619 -2.86239,-8.28964 -6.82081,-18.07433 -3.95843,-9.78469 -8.35244,-20.71534 -9.76448,-24.29034 -4.53455,-11.48061 -7.54478,-18 -8.31123,-18 -1.09535,0 -7.16019,6.92631 -9.77534,11.16385 -4.37588,7.09062 -5.51474,13.24833 -4.8067,25.98943 l 0.64758,11.65328 -6.84753,4.98047 c -10.02924,7.29466 -12.87609,8.54121 -19.69781,8.62514 -9.08604,0.11178 -14.30717,-2.94776 -23.74115,-13.91217 -4.25908,-4.95 -8.00475,-9.79462 -8.32372,-10.76581 -0.52457,-1.5972 -0.88336,-1.51948 -3.75754,0.81401 -7.29448,5.92223 -14.03968,10.72682 -19.79511,14.09998 -4.88643,2.86386 -6.29394,3.31099 -6.98563,2.21915 -1.31879,-2.08171 -1.23124,-2.19346 3.81481,-4.86905 9.27936,-4.92023 25.28458,-17.73201 25.29208,-20.24568 0.008,-2.57994 3.99667,-7.6568 8.39229,-10.68107 6.08969,-4.18981 9.18001,-8.93555 20.83745,-31.99956 5.44084,-10.76458 10.26103,-19.9464 10.71154,-20.40403 0.64794,-0.65819 15.77184,-4.53448 18.11248,-4.64227 0.30662,-0.0141 1.9371,1.93158 3.62327,4.32378 4.32899,6.14158 10.5842,9.01643 18.3898,8.45183 3.27756,-0.23708 6.48619,-0.95804 7.13028,-1.60213 0.89477,-0.89477 0.23348,-5.59832 -2.80275,-19.93511 L 285.42426,214.5 l -36.9908,-0.26195 -36.99081,-0.26195 -31.85967,38.06585 c -21.392,25.5591 -32.32555,37.88708 -33.27761,37.52174 -1.38878,-0.53293 -46.716768,19.70782 -48.929137,21.8488 -1.823527,1.76469 -16.153225,38.5238 -17.976237,46.11336 -2.373877,9.88292 -2.171506,26.74132 0.43947,36.6098 2.182208,8.2479 7.597452,19.81908 12.448593,26.59988 l 3.030194,4.23553 5.090877,-4.29363 C 103.20911,418.31593 118.325,405.60756 134,392.43659 Z m 192.11777,-64.06342 c 10.11023,-5.29476 20.29321,-10.71284 22.62886,-12.04018 l 4.24663,-2.41335 -1.59862,-3.70982 c -3.97556,-9.22579 -15.44514,-38.63102 -18.50991,-47.45494 -1.8616,-5.35981 -3.89429,-9.74731 -4.51708,-9.75 -2.35157,-0.0101 -9.79657,8.74474 -12.7516,14.99512 -2.68931,5.68831 -3.12112,7.81119 -3.45796,17 l -0.38491,10.5 -8.34913,5.87177 -8.34914,5.87176 1.27193,3.12824 c 0.69956,1.72052 3.49521,8.63535 6.21255,15.36627 2.71733,6.73092 4.99361,12.24342 5.05838,12.25 0.0648,0.007 8.38978,-4.32012 18.5,-9.61487 z M 367.24407,293.25 c 1.17238,-2.6125 5.98907,-13.975 10.70376,-25.25 l 8.57215,-20.5 12.25245,-8.08737 c 6.73885,-4.44806 13.41461,-9.17306 14.83502,-10.5 2.9044,-2.71327 5.68162,-7.54542 5.18791,-9.02656 -0.17937,-0.53809 -6.35729,3.31682 -13.72872,8.56647 -7.37144,5.24966 -13.57838,9.36906 -13.79321,9.15423 -0.21482,-0.21483 0.31077,-2.06919 1.16799,-4.12081 2.37032,-5.67297 2.2406,-5.80349 -5.23612,-5.26854 -8.4279,0.60302 -17.62861,4.54461 -22.44052,9.61355 -1.91564,2.01797 -8.0835,10.84407 -13.70636,19.61357 l -10.22337,15.94454 4.83247,12.30289 4.83248,12.3029 7.30623,0.003 7.30623,0.003 z M 241.33319,279.31641 C 260.76621,265.44685 259.90951,267 248.12676,267 h -10.14295 l -1.68123,4.25 c -0.92468,2.3375 -3.13769,7.0625 -4.91781,10.5 -1.78012,3.4375 -3.00749,6.25 -2.72749,6.25 0.28001,0 5.98416,-3.90761 12.67591,-8.68359 z m 26.68825,-18.9493 C 270.20965,258.91903 272,257.59837 272,257.43233 c 0,-0.16604 -2.41664,-2.71854 -5.37032,-5.67222 l -5.37032,-5.37032 -6.66586,1.55511 -6.66585,1.5551 -3.46382,6.26722 c -1.90511,3.44697 -3.46383,6.48447 -3.46383,6.75 0,0.26553 5.18465,0.48278 11.52144,0.48278 10.77054,0 11.78074,-0.1716 15.5,-2.63289 z M 310,204 c 0,-1.33333 -0.66667,-2 -2,-2 -1.33333,0 -2,-0.66667 -2,-2 0,-1.33333 0.66667,-2 2,-2 1.46667,0 2,-0.66667 2,-2.5 0,-1.83333 0.53333,-2.5 2,-2.5 1.46667,0 2,0.66667 2,2.5 0,1.83333 0.53333,2.5 2,2.5 1.33333,0 2,0.66667 2,2 0,1.33333 -0.66667,2 -2,2 -1.33333,0 -2,0.66667 -2,2 0,1.33333 -0.66667,2 -2,2 -1.33333,0 -2,-0.66667 -2,-2 z M 139.66986,182.46747 c -16.13873,-4.38642 -19.6714,-6.15967 -19.66787,-9.87246 10e-4,-1.15225 1.82519,-9.29501 4.05355,-18.09501 2.22837,-8.8 4.10247,-16.5625 4.16468,-17.25 0.0622,-0.6875 0.73967,-1.25 1.50546,-1.25 0.7658,0 1.11742,-0.44485 0.7814,-0.98855 -0.34118,-0.55203 0.0297,-0.74271 0.83983,-0.43182 0.79793,0.30619 1.74217,0.0853 2.0983,-0.49098 0.41374,-0.66944 1.26258,-0.71569 2.35115,-0.12809 3.76696,2.03336 16.34042,5.05289 18.9361,4.54753 1.99127,-0.38769 2.23871,-0.30716 0.88216,0.28712 -1.45916,0.63922 -0.55491,1.11613 4,2.10963 6.5966,1.43881 9.8119,3.15509 11.37202,6.0702 1.52447,2.84849 -7.20233,35.78956 -10.13986,38.27496 -2.67078,2.25971 -2.58258,2.2713 -21.17692,-2.78253 z m 9.33002,-17.82687 c 3.02493,-1.80485 5.61716,-3.92483 5.76052,-4.71107 0.29231,-1.6032 -12.40379,-9.26796 -13.86046,-8.36769 -0.49497,0.30591 -0.89994,4.12964 -0.89994,8.49718 0,9.41001 0.48964,9.65927 8.99988,4.58158 z m 104.95207,14.106 c -6.46886,-4.35936 -6.67925,-5.30323 -8.6384,-38.75383 -2.23275,-38.12201 -2.25858,-50.694866 -0.10141,-49.36166 0.43332,0.267808 0.78786,0.01675 0.78786,-0.557905 0,-2.266953 7.55504,-5.902556 13.5,-6.496414 6.10328,-0.609672 51.47778,-2.533898 63.72107,-2.702261 8.51928,-0.117152 12.4537,1.956109 15.4515,8.142243 1.98541,4.097007 2.32161,7.59702 3.90262,40.628057 1.71708,35.87396 1.7151,36.17362 -0.26431,39.98785 -1.34542,2.59256 -3.42874,4.55431 -6.40262,6.02897 -3.99329,1.98016 -7.37348,2.33494 -35.90826,3.7688 -41.45361,2.08304 -41.95328,2.07562 -46.04805,-0.68385 z M 300.5,175.39392 c 32.85346,-1.72031 34.95493,-2.10621 38.16723,-7.00881 1.58245,-2.41511 1.5755,-4.79538 -0.11301,-38.72919 C 337.56473,109.77017 336.41188,92.6 335.99234,91.5 c -0.97959,-2.568359 -3.82373,-5.116876 -6.99417,-6.26719 -1.4076,-0.510712 -8.17329,-0.592087 -15.49817,-0.186407 -61.17738,3.388241 -60.01321,3.247987 -63.4735,7.647031 -1.79719,2.284769 -2.06824,3.95105 -1.98874,12.225936 0.17116,17.81415 2.94348,64.17706 3.95,66.05776 0.54978,1.02727 2.18813,2.80266 3.64078,3.94532 3.27294,2.57449 4.46907,2.58706 44.87146,0.47147 z M 289,153.04969 c 0,-5.81818 -2.52778,-6.86654 -6.74529,-2.79752 l -3.24529,3.13104 -3.00471,-2.8787 c -3.64428,-3.49144 -3.71671,-4.48699 -0.54338,-7.46819 C 278.96889,139.74115 277.38109,137 271.96482,137 H 268 v -4.5 -4.5 h 3.93261 c 3.17946,0 4.06701,-0.42344 4.63436,-2.21102 0.55177,-1.73845 0.0397,-2.72155 -2.39569,-4.59969 l -3.09745,-2.38867 2.71308,-3.40028 c 1.4922,-1.87016 3.13847,-3.40029 3.65837,-3.40031 0.51991,-2e-5 2.13414,1.13896 3.58718,2.53107 3.77352,3.61526 5.96754,2.46151 5.96754,-3.13809 V 107 h 5 5 v 4.03138 c 0,5.45142 2.16923,6.16617 6.36673,2.09779 l 3.2349,-3.13539 3.16255,3.26291 3.16254,3.26291 -2.559,3.26979 c -3.33308,4.2589 -2.55839,6.01235 2.82781,6.40045 L 317.5,126.5 v 4.5 4.5 l -4.14709,0.30247 c -5.5399,0.40405 -6.39974,3.13889 -2.11929,6.74065 l 3.04204,2.55971 -2.88783,3.19359 c -1.58831,1.75647 -3.00502,3.38803 -3.14826,3.62568 -0.14324,0.23765 -1.5635,-0.81633 -3.15615,-2.34218 C 300.8082,145.484 298,146.66837 298,152.56739 V 157 H 293.5 289 Z M 298,137 c 4.94621,-4.94621 0.33484,-13.88924 -6.48422,-12.57514 -6.06606,1.16898 -8.26586,7.08055 -4.4432,11.94028 2.59699,3.30154 7.94976,3.61252 10.92742,0.63486 z m -45.1875,-24.68311 c 0.72187,-0.28887 1.58437,-0.25335 1.91667,0.0789 0.33229,0.3323 -0.25834,0.56864 -1.3125,0.52522 -1.16495,-0.048 -1.4019,-0.28494 -0.60417,-0.60416 z M 249.27236,105 c 0,-2.475 0.19502,-3.4875 0.43337,-2.25 0.23836,1.2375 0.23836,3.2625 0,4.5 -0.23835,1.2375 -0.43337,0.225 -0.43337,-2.25 z m 1.80659,1.41667 c 0.048,-1.16495 0.28494,-1.4019 0.60416,-0.60417 0.28887,0.72187 0.25335,1.58437 -0.0789,1.91667 -0.3323,0.33229 -0.56864,-0.25834 -0.52522,-1.3125 z m 0.65438,-14.540758 c 0.67834,-0.683418 1.48524,-0.990671 1.79313,-0.682784 0.30789,0.307887 -0.24711,0.867048 -1.23333,1.242579 -1.4252,0.542685 -1.54006,0.427821 -0.5598,-0.559795 z M 268,92 c 0,-0.55 0.47656,-1 1.05902,-1 0.58246,0 0.7809,0.45 0.44098,1 -0.33992,0.55 -0.81648,1 -1.05902,1 C 268.19844,93 268,92.55 268,92 Z m 15.5,0 c -0.33992,-0.55 -0.14148,-1 0.44098,-1 0.58246,0 1.05902,0.45 1.05902,1 0,0.55 -0.19844,1 -0.44098,1 -0.24254,0 -0.7191,-0.45 -1.05902,-1 z m -22.23097,-1.692991 c 0.97297,-0.253543 2.32297,-0.236869 3,0.03705 0.67703,0.273923 -0.11903,0.481368 -1.76903,0.460988 -1.65,-0.02038 -2.20394,-0.244498 -1.23097,-0.498042 z M 210,172.5 V 165 h -7 c -6.33333,0 -7,-0.19048 -7,-2 0,-1.80952 0.66667,-2 7,-2 h 7 v -7 c 0,-6.33333 0.19048,-7 2,-7 1.80952,0 2,0.66667 2,7 v 7 h 7 c 6.33333,0 7,0.19048 7,2 0,1.80952 -0.66667,2 -7,2 h -7 v 7.5 c 0,6.83333 -0.17778,7.5 -2,7.5 -1.82222,0 -2,-0.66667 -2,-7.5 z M 36.75,172.33772 c 0.6875,-0.27741 1.8125,-0.27741 2.5,0 0.6875,0.27741 0.125,0.50439 -1.25,0.50439 -1.375,0 -1.9375,-0.22698 -1.25,-0.50439 z m 69.0625,-12.02083 c 0.72187,-0.28887 1.58437,-0.25335 1.91667,0.0789 0.33229,0.33229 -0.25834,0.56864 -1.3125,0.52522 -1.16495,-0.048 -1.4019,-0.28494 -0.60417,-0.60416 z m 18.85417,-16.98356 c -0.36667,-0.36666 -0.65299,-1.37916 -0.63626,-2.25 0.025,-1.3003 0.22011,-1.2571 1.09166,0.24167 1.07678,1.85169 0.76461,3.22835 -0.4554,2.00833 z M 165.5,141 c -0.33992,-0.55 0.11008,-1 1,-1 0.88992,0 1.33992,0.45 1,1 -0.33992,0.55 -0.78992,1 -1,1 -0.21008,0 -0.66008,-0.45 -1,-1 z M 36.824504,137.67418 c -0.372058,-1.82482 -0.232683,-2.48236 0.393454,-1.85622 0.533281,0.53328 0.792548,1.8049 0.576149,2.82582 -0.291413,1.37482 -0.542875,1.12336 -0.969603,-0.9696 z m 1.732019,-1.22458 c -0.411368,-2.19278 -1.070926,-3.24972 -1.761558,-2.82288 -0.657928,0.40662 -0.82145,0.22515 -0.404716,-0.44914 0.384596,-0.62229 0.202821,-2.97509 -0.403944,-5.22844 -0.824281,-3.06114 -1.413503,-3.83949 -2.330472,-3.07847 -0.895318,0.74305 -1.227262,0.51243 -1.227262,-0.85265 0,-1.02915 0.353572,-1.65266 0.785715,-1.38558 C 33.646429,122.89951 34,122.16115 34,120.99163 c 0,-1.719 0.410817,-1.99602 2.144199,-1.44586 1.179309,0.3743 4.578965,0.75546 7.55479,0.84702 2.975825,0.0916 5.723435,0.66359 6.105801,1.27116 0.382365,0.60758 1.552696,1.26924 2.600734,1.47037 1.048038,0.20112 2.026773,1.19441 2.174965,2.20731 0.148192,1.0129 0.0022,1.57442 -0.324373,1.24782 -1.069781,-1.06978 -4.134258,2.55754 -3.594345,4.25451 0.380259,1.19516 0.272564,1.30343 -0.386975,0.38902 -0.688213,-0.95416 -1.601521,-0.49525 -3.698745,1.85853 -1.531681,1.71905 -2.887539,3.82503 -3.013016,4.67997 -0.125478,0.85493 -1.15532,1.69592 -2.288539,1.86886 -1.65467,0.25252 -2.189886,-0.37579 -2.717973,-3.19074 z m 10.172644,-15.05377 c -0.332292,-0.33229 -1.194792,-0.36781 -1.916667,-0.0789 -0.797733,0.31922 -0.560776,0.55618 0.604167,0.60416 1.054166,0.0434 1.644791,-0.19292 1.3125,-0.52522 z m -14.65022,6.02084 c 0.04798,-1.16495 0.284941,-1.4019 0.604167,-0.60417 0.288871,0.72187 0.253344,1.58437 -0.07895,1.91667 -0.332292,0.33229 -0.568641,-0.25834 -0.52522,-1.3125 z M 212.75,124.33772 c 0.6875,-0.27741 1.8125,-0.27741 2.5,0 0.6875,0.27741 0.125,0.50439 -1.25,0.50439 -1.375,0 -1.9375,-0.22698 -1.25,-0.50439 z M 2.0789474,122.41667 c 0.047984,-1.16495 0.2849403,-1.4019 0.6041666,-0.60417 0.2888706,0.72187 0.2533443,1.58437 -0.078947,1.91667 -0.3322917,0.33229 -0.5686404,-0.25834 -0.5252196,-1.3125 z m 58.7022076,-0.78115 c -0.24205,-1.2662 0.04567,-2.32121 0.639377,-2.34446 C 62.01424,119.26781 69.475,117.11863 78,114.51511 c 8.525,-2.60352 18.0875,-5.45503 21.25,-6.33669 5.55293,-1.54809 6.43857,-2.50572 5.88873,-6.36748 -0.054,-0.37898 0.79929,-0.97388 1.8961,-1.322 1.09682,-0.34811 1.78203,-0.976257 1.52269,-1.395876 -0.8031,-1.299443 8.23477,0.490101 10.05188,1.990326 1.33302,1.10055 1.81017,1.13633 2.13863,0.16038 0.23254,-0.69093 0.76409,-1.0453 1.18123,-0.78749 0.41714,0.2578 2.50038,-0.0122 4.62942,-0.600095 3.39095,-0.936285 3.6629,-1.220994 2.19296,-2.295842 -1.46262,-1.069489 -1.29258,-1.22701 1.32451,-1.22701 1.94051,0 2.54648,0.289344 1.71319,0.818021 -2.34843,1.489956 0.35558,0.88699 12.78285,-2.850438 6.76487,-2.034496 12.0802,-4.054342 11.81185,-4.488546 -0.26835,-0.434203 0.098,-0.576326 0.81402,-0.315828 0.71607,0.260498 4.67694,-0.648226 8.80194,-2.019387 4.125,-1.371161 6.48688,-2.306416 5.24862,-2.078346 -1.34299,0.24736 -2.00015,0.0082 -1.62872,-0.592812 0.34246,-0.554117 1.87649,-0.756719 3.40895,-0.450227 1.75035,0.350069 6.78575,-0.711773 13.54327,-2.855943 5.91634,-1.87726 12.03686,-3.694309 13.60116,-4.037886 1.56429,-0.343576 2.6383,-0.957797 2.38667,-1.364934 -0.61798,-0.999912 3.45769,-4.412702 4.28354,-3.586852 0.35935,0.359352 -0.24593,1.332005 -1.34506,2.161451 -2.49285,1.881192 -2.28663,1.836039 14.22735,-3.115098 7.2342,-2.168921 12.99831,-4.193921 12.80914,-4.5 -0.18916,-0.30608 0.62559,-0.573707 1.81057,-0.594727 1.18498,-0.02102 3.3614,-0.359412 4.83649,-0.751981 2.23036,-0.593569 2.80033,-0.334543 3.38478,1.538219 0.38654,1.23859 1.20465,2.631931 1.81802,3.096313 0.65237,0.493907 0.28516,0.570002 -0.88478,0.183346 -2.76596,-0.91413 -30.97114,7.517475 -29.26494,8.748405 0.86717,0.625613 0.67529,0.72046 -0.61019,0.301619 C 211.3832,78.847308 200,81.865943 200,83.190792 c 0,0.509983 -0.35285,0.709171 -0.7841,0.442641 -0.70593,-0.436287 -5.98779,0.905714 -19.2159,4.882322 -2.475,0.74403 -8.00276,2.358875 -12.2839,3.588544 -5.39813,1.550499 -7.39038,2.519063 -6.5,3.160064 0.90279,0.649937 0.73833,0.747181 -0.55405,0.327603 -1.01088,-0.328184 -4.38588,0.145237 -7.5,1.052046 -4.71081,1.371751 -5.32604,1.794738 -3.66205,2.517735 1.55676,0.676403 1.38306,0.748673 -0.78376,0.326096 -3.38765,-0.660666 -23.86406,5.193827 -25.01593,7.152407 -0.43983,0.74786 -1.33983,1.35286 -2,1.34444 -0.73421,-0.009 -0.61783,-0.39174 0.29969,-0.98469 0.97837,-0.63227 1.06997,-0.9747 0.26342,-0.98469 -0.68012,-0.008 -1.87654,1.51633 -2.65871,3.38833 -1.68834,4.04077 -4.19717,5.03452 -10.37237,4.10849 -3.25208,-0.48768 -4.16091,-0.94434 -3.15123,-1.58342 1.63821,-1.0369 -0.0644,-1.25607 -2.49932,-0.32172 -2.67691,1.02722 -1.75449,2.38928 1.66821,2.4633 1.7875,0.0387 4.15,0.47525 5.25,0.97022 1.28588,0.57861 -0.32088,0.68066 -4.5,0.28581 -3.575,-0.33776 -6.73068,-0.96558 -7.012623,-1.39515 -0.281942,-0.42957 -2.981942,0.0382 -6,1.03957 -3.018057,1.00133 -6.953804,2.12917 -8.746103,2.50631 -1.95122,0.41057 -2.992615,1.11627 -2.595492,1.75883 0.391301,0.63314 0.193194,0.78264 -0.483174,0.36462 -1.286874,-0.79533 -13.337318,2.30196 -12.745414,3.27591 0.208435,0.34298 -1.325384,0.72207 -3.408487,0.84244 -3.242409,0.18736 -3.850794,-0.11245 -4.227552,-2.08333 z M 115.5,106.5 c 0,-2.49687 -0.401,-3 -2.39101,-3 -3.20104,0 -4.95547,2.77513 -3.13851,4.96443 0.74498,0.89765 2.29389,1.49787 3.44201,1.33383 C 114.999,109.57158 115.5,108.78 115.5,106.5 Z m -42,15.5 c 2.752484,-1.18278 3.731,-1.18278 3,0 -0.339919,0.55 -1.603976,0.96837 -2.809017,0.92971 C 71.578617,122.86195 71.571764,122.82859 73.5,122 Z m -21,-1 c -1.630408,-0.70061 -1.687513,-0.87242 -0.309017,-0.92971 C 53.121024,120.03163 54.160081,120.45 54.5,121 c 0.710664,1.14988 0.675913,1.14988 -2,0 z m 33,-2 c -0.339919,-0.55 0.08352,-1 0.940983,-1 C 87.298442,118 88,118.45 88,119 c 0,0.55 -0.423442,1 -0.940983,1 -0.517541,0 -1.219098,-0.45 -1.559017,-1 z m 155.22917,-2.60417 c -0.40105,-0.40104 -0.71549,-1.66666 -0.69876,-2.8125 0.0281,-1.92359 0.11018,-1.94626 1.07077,-0.29565 1.11861,1.92211 0.83248,4.31265 -0.37201,3.10815 z M 114,115.61663 c 0,-0.21085 0.90062,-0.61888 2.00138,-0.90674 1.10076,-0.28785 1.7492,-0.11534 1.44098,0.38337 C 116.90411,115.96417 114,116.4057 114,115.61663 Z m -41.789427,-2.01167 c 0.709185,-0.76727 1.634267,-1.18618 2.055739,-0.9309 C 75.409725,113.3666 74.100194,115 72.401556,115 c -1.215945,0 -1.250062,-0.24921 -0.190983,-1.39504 z M 76,113 c 0,-0.55 0.701558,-1 1.559017,-1 0.857459,0 1.280902,0.45 0.940983,1 -0.339919,0.55 -1.041476,1 -1.559017,1 C 76.423442,114 76,113.55 76,113 Z m 165.07895,-9.58333 c 0.048,-1.16495 0.28494,-1.4019 0.60416,-0.60417 0.28887,0.72187 0.25335,1.58437 -0.0789,1.91667 -0.3323,0.33229 -0.56864,-0.25834 -0.52522,-1.3125 z M 152,99.031385 c 0,-0.532739 0.675,-0.709594 1.5,-0.393011 0.825,0.316582 1.5,0.752459 1.5,0.968615 C 155,99.823145 154.325,100 153.5,100 152.675,100 152,99.564123 152,99.031385 Z M 111.5,97 c 2.75248,-1.182783 3.731,-1.182783 3,0 -0.33992,0.55 -1.60398,0.968372 -2.80902,0.929715 C 109.57862,97.861951 109.57176,97.828591 111.5,97 Z m 54.3,-2.2 c 0.93333,-0.933333 1.46667,-0.933333 2.4,0 0.93333,0.933333 0.66667,1.2 -1.2,1.2 -1.86667,0 -2.13333,-0.266667 -1.2,-1.2 z m 9.7,-3.8 c 0.33992,-0.55 0.81648,-1 1.05902,-1 0.24254,0 0.44098,0.45 0.44098,1 0,0.55 -0.47656,1 -1.05902,1 -0.58246,0 -0.7809,-0.45 -0.44098,-1 z M 153,89.559017 C 153,88.701558 153.45,88 154,88 c 0.55,0 1,0.423442 1,0.940983 0,0.517541 -0.45,1.219098 -1,1.559017 -0.55,0.339919 -1,-0.08352 -1,-0.940983 z M 52,87 C 50.718103,86.171574 50.754453,86.028399 52.25,86.015313 53.2125,86.006891 54,86.45 54,87 c 0,1.21961 -0.112787,1.21961 -2,0 z m 8,-0.981202 C 57.525,85.553017 49.65,84.224765 42.5,83.067128 15.737227,78.73404 12.559319,78.061709 10.054389,76.202808 6.7609177,73.758731 5.033229,70.334661 5.0147418,66.214834 5.0008893,63.127851 12.461637,12.995097 13.624751,8.3595788 14.515751,4.8085524 19.425645,0.88370259 23.63842,0.35489591 29.181526,-0.34090005 83.054411,8.3343204 86.268554,10.440307 c 1.407527,0.922248 3.31906,3.278225 4.24785,5.235506 1.623568,3.421414 1.567564,4.373892 -1.451811,24.691439 C 87.337307,51.990263 85.431115,65.1 84.828612,69.5 c -0.602503,4.4 -1.530315,8.841805 -2.061804,9.870677 -0.56888,1.101254 -0.582553,1.633481 -0.03324,1.293989 0.513206,-0.317179 0.933102,0.09788 0.933102,0.922355 0,0.824475 -0.567099,1.281428 -1.260221,1.015453 -1.299369,-0.498615 -3.772984,1.697655 -2.89777,2.572869 0.6012,0.601203 -0.267866,0.730628 -8.508679,1.267147 -3.575,0.232751 -8.525,0.04209 -11,-0.423692 z M 73.707403,81.952155 C 77.805571,80.523526 79.5,76.864717 79.5,69.444104 c 0,-3.439217 0.277984,-5.803333 0.617743,-5.253591 0.851382,1.377564 1.289161,-0.777996 4.895829,-24.106305 C 88.389826,18.246236 88.308325,16.479705 83.795537,13.683345 80.847604,11.856652 26.213146,3.4787036 22.813342,4.332 21.40098,4.6864804 19.580513,5.9942951 18.76786,7.2382549 17.295605,9.4918936 9,59.585097 9,66.221706 c 0,5.880253 3.086201,7.721193 16.691104,9.956359 6.494893,1.067054 13.458543,1.79273 15.474779,1.612613 2.016235,-0.180118 3.495424,-0.05168 3.287085,0.285421 -0.616813,0.998025 16.328491,3.191009 19.30912,2.498898 1.908014,-0.443046 2.303167,-0.3468 1.303648,0.317525 -1.080055,0.717852 -0.586131,1.056274 2,1.370339 1.888845,0.229386 3.479614,0.489082 3.535041,0.577102 0.05543,0.08802 1.453409,-0.311493 3.106626,-0.887808 z M 48.1149,77.607078 c -2.301031,-1.275453 -1.940291,-2.438127 0.6351,-2.046944 0.6875,0.104426 1.7,0.246116 2.25,0.314866 1.14662,0.143327 1.389378,3.143397 0.25,3.089565 -0.4125,-0.01949 -1.823295,-0.630359 -3.1351,-1.357487 z M 64,73.531385 c 0,-1.891643 -0.388926,-2.319371 -1.664045,-1.830061 -1.118886,0.429357 -1.427162,0.255269 -0.940983,-0.531385 1.035261,-1.675087 3.286185,-1.443213 3.998039,0.411848 C 66.305645,73.960072 66.124188,76 65,76 64.45,76 64,74.889123 64,73.531385 Z m -19,-7.58752 c -9.075,-1.564559 -17.9625,-3.112367 -19.75,-3.439572 -2.867904,-0.524976 -3.249561,-0.971688 -3.246262,-3.799606 0.0049,-4.216221 3.137304,-9.209142 7.04536,-11.230077 2.897148,-1.498173 3.915736,-1.495666 13.294223,0.03272 14.933403,2.433652 17.223969,3.189714 20.131285,6.644863 2.253058,2.677607 2.590917,3.937246 2.408902,8.981113 C 64.715617,67.78579 64.343572,68.978115 63.0859,68.894259 62.213655,68.836102 54.075,67.508425 45,65.943865 Z m 29.8125,0.373021 c 0.721875,-0.288871 1.584375,-0.253344 1.916667,0.07895 0.332291,0.332292 -0.258334,0.568641 -1.3125,0.52522 -1.164943,-0.04798 -1.4019,-0.284941 -0.604167,-0.604167 z M 41.923077,37.076923 C 39.630579,34.784425 39,33.25776 39,30 39,19.317552 52.991619,16.119737 57.88296,25.684259 62.894984,35.484764 49.729122,44.882969 41.923077,37.076923 Z M 190.8125,86.316886 c 0.72187,-0.288871 1.58437,-0.253344 1.91667,0.07895 0.33229,0.332292 -0.25834,0.568641 -1.3125,0.52522 -1.16495,-0.04798 -1.4019,-0.284941 -0.60417,-0.604167 z m -27,-1 c 0.72187,-0.288871 1.58437,-0.253344 1.91667,0.07895 0.33229,0.332292 -0.25834,0.568641 -1.3125,0.52522 -1.16495,-0.04798 -1.4019,-0.284941 -0.60417,-0.604167 z m 43,-4 c 0.72187,-0.288871 1.58437,-0.253344 1.91667,0.07895 0.33229,0.332292 -0.25834,0.568641 -1.3125,0.52522 -1.16495,-0.04798 -1.4019,-0.284941 -0.60417,-0.604167 z m 59.4375,-0.0062 c 0.9625,-0.251527 2.5375,-0.251527 3.5,0 0.9625,0.251528 0.175,0.457323 -1.75,0.457323 -1.925,0 -2.7125,-0.205795 -1.75,-0.457323 z m 8,-1.026928 c 1.5125,-0.229125 3.9875,-0.229125 5.5,0 1.5125,0.229124 0.275,0.41659 -2.75,0.41659 -3.025,0 -4.2625,-0.187466 -2.75,-0.41659 z m 16.5625,0.03314 c 0.72187,-0.288871 1.58438,-0.253344 1.91667,0.07895 0.33229,0.332292 -0.25834,0.568641 -1.3125,0.52522 -1.16495,-0.04798 -1.4019,-0.284941 -0.60417,-0.604167 z M 85.584829,74.5 C 85.92872,71.75 86.387816,69.3125 86.605043,69.083333 87.498974,68.140265 86.889892,76.618642 85.964474,78 85.26061,79.050647 85.146881,78.0022 85.584829,74.5 Z M 193,77.031385 c 0,-0.532739 0.675,-0.709594 1.5,-0.393011 0.825,0.316582 1.5,0.752459 1.5,0.968615 C 196,77.823145 195.325,78 194.5,78 193.675,78 193,77.564123 193,77.031385 Z m 4.8125,-0.714499 c 0.72187,-0.288871 1.58437,-0.253344 1.91667,0.07895 0.33229,0.332292 -0.25834,0.568641 -1.3125,0.52522 -1.16495,-0.04798 -1.4019,-0.284941 -0.60417,-0.604167 z M 230.5,75 c -0.33992,-0.55 -0.16803,-1 0.38197,-1 0.55,0 1.27811,0.45 1.61803,1 0.33992,0.55 0.16803,1 -0.38197,1 -0.55,0 -1.27811,-0.45 -1.61803,-1 z m 20.44522,-9.644075 c -0.5529,-1.454242 -1.2241,-2.998148 -1.49156,-3.430902 -0.26746,-0.432755 0.0406,-1.112449 0.68454,-1.510433 0.73122,-0.451923 0.90292,-0.290138 0.45729,0.430902 -0.87257,1.411851 -1.23324,1.433548 5.36682,-0.322855 4.24642,-1.130052 5.63424,-1.183059 6.23469,-0.238131 1.49344,2.350233 0.77034,3.499039 -2.60045,4.131403 -1.8719,0.35117 -3.65777,1.301251 -3.96861,2.111291 -0.90878,2.368222 -3.59219,1.697026 -4.68272,-1.171275 z m 3.78395,1.039908 c -0.3323,-0.332291 -1.1948,-0.367818 -1.91667,-0.07895 -0.79773,0.319226 -0.56078,0.556183 0.60417,0.604167 1.05416,0.04342 1.64479,-0.192928 1.3125,-0.52522 z M 87.157895,65 c 0,-1.375 0.226973,-1.9375 0.504386,-1.25 0.277412,0.6875 0.277412,1.8125 0,2.5 -0.277413,0.6875 -0.504386,0.125 -0.504386,-1.25 z M 327,62.073324 V 58 h -4 c -3.33333,0 -4,-0.333333 -4,-2 0,-1.666667 0.66667,-2 4,-2 3.90476,0 4,-0.08333 4,-3.5 0,-2.833333 0.38095,-3.5 2,-3.5 1.61905,0 2,0.666667 2,3.5 0,3.333333 0.16667,3.5 3.5,3.5 2.83333,0 3.5,0.380952 3.5,2 0,1.612362 -0.66667,2 -3.43963,2 -3.25137,0 -3.45663,0.204803 -3.75,3.741683 -0.21691,2.614951 -0.83735,3.841551 -2.06037,4.073325 C 327.31547,66.086864 327,65.412353 327,62.073324 Z M 141.66667,48.333333 C 140.51603,47.1827 140.93843,46 142.5,46 c 0.825,0 1.5,0.675 1.5,1.5 0,1.561574 -1.1827,1.983967 -2.33333,0.833333 z M 136,47.059017 c 0,-0.517541 0.45,-1.219098 1,-1.559017 0.55,-0.339919 1,0.08352 1,0.940983 C 138,47.298442 137.55,48 137,48 c -0.55,0 -1,-0.423442 -1,-0.940983 z M 288.60699,38.418213 C 287.81439,36.352741 287.84068,36 288.7872,36 c 0.43295,0 0.85499,0.9 0.93785,2 0.18107,2.403867 -0.28867,2.579575 -1.11806,0.418213 z M 159,38.606989 c 0,-0.216156 0.69837,-0.661002 1.55194,-0.988546 0.88992,-0.341496 1.29132,-0.173849 0.94098,0.393011 C 160.90566,38.961658 159,39.416902 159,38.606989 Z M 184.63837,29.5 c 0.31659,-0.825 0.75246,-1.5 0.96862,-1.5 0.21615,0 0.39301,0.675 0.39301,1.5 0,0.825 -0.43588,1.5 -0.96862,1.5 -0.53273,0 -0.70959,-0.675 -0.39301,-1.5 z m 90.0908,-5.104167 C 274.32812,23.994792 274,22.976667 274,22.133333 c 0,-1.125593 0.29583,-1.2375 1.1125,-0.420833 0.61187,0.611875 0.94,1.63 0.72917,2.2625 -0.21084,0.6325 -0.71146,0.821875 -1.1125,0.420833 z M 216.5,20 c -0.33992,-0.55 -0.14148,-1 0.44098,-1 0.58246,0 1.05902,0.45 1.05902,1 0,0.55 -0.19844,1 -0.44098,1 -0.24254,0 -0.7191,-0.45 -1.05902,-1 z m 38.25,-4.662281 c 0.6875,-0.277412 1.8125,-0.277412 2.5,0 0.6875,0.277413 0.125,0.504386 -1.25,0.504386 -1.375,0 -1.9375,-0.226973 -1.25,-0.504386 z"
         id="path4" />
      <path
         style="fill:#9ea9b7"
         d="M 89.242573,447.43359 C 62.261938,433.98857 49.788126,375.61898 64.824323,333.17154 c 5.754723,-16.24567 14.897253,-28.47013 24.759568,-33.10597 5.361667,-2.52028 13.902669,-3.01412 18.888019,-1.0921 2.73611,1.05486 4.44911,0.4617 21.58951,-7.47579 l 18.61759,-8.62155 29.31012,-35.01626 c 16.12056,-19.25894 29.94993,-35.65607 30.73192,-36.43806 1.17998,-1.17998 7.9155,-1.41921 39.60038,-1.4065 20.99821,0.008 38.69521,0.34592 39.32665,0.75 0.63145,0.40408 2.53357,7.21181 4.22695,15.1283 1.69337,7.91648 3.21668,14.53144 3.38514,14.69989 0.16845,0.16846 13.34133,-8.93167 29.27306,-20.2225 94.76012,-67.15662 95.42935,-67.61323 99.78931,-68.08615 3.24005,-0.35145 7.54341,0.71957 19.17746,4.77288 16.23428,5.65604 19.73315,7.55867 22.01509,11.97145 2.07446,4.01157 1.86452,10.83601 -0.45014,14.63204 -1.15272,1.89046 -9.74331,8.72416 -21.37056,17 L 424.2514,214.5 l -1.15517,5.06124 c -1.91724,8.4001 -5.08154,11.84681 -19.45195,21.18793 -7.22936,4.69926 -13.44046,9.00033 -13.80247,9.55793 -0.362,0.5576 -5.27894,12.07911 -10.92653,25.60336 -5.64759,13.52425 -10.7514,24.92015 -11.34181,25.32423 -0.59041,0.40408 -4.31121,0.74158 -8.26844,0.75 l -7.19497,0.0153 2.44497,5.52851 c 1.34473,3.04069 2.44215,6.30319 2.43869,7.25 -0.004,1.23106 -7.31793,5.56745 -25.67144,15.22149 -14.11584,7.425 -40.10052,21.93054 -57.74372,32.23452 -17.64321,10.30399 -33.0891,18.74149 -34.32422,18.75 -1.23511,0.009 -18.03355,-2.49673 -37.32987,-5.56722 -30.49564,-4.85255 -35.30266,-5.3983 -36.75435,-4.17282 -0.91857,0.77543 -6.39512,5.38808 -12.17012,10.25033 -5.775,4.86225 -10.80861,9.10252 -11.18579,9.42282 -0.37718,0.32031 -1.55701,4.86337 -2.62184,10.09571 -7.36301,36.18036 -29.40033,56.66048 -49.949797,46.42025 z M 134,392.43659 c 15.675,-13.17097 29.29354,-24.56743 30.26342,-25.32548 1.5221,-1.18966 6.8134,-0.58322 38.66423,4.43133 l 36.9008,5.80962 25.83577,-15.06216 C 279.8739,354.00571 294.2,345.74744 297.5,343.93819 c 3.3,-1.80924 6.16935,-3.41733 6.37632,-3.57352 0.20698,-0.15619 -2.77865,-8.06464 -6.63474,-17.57433 -3.85608,-9.50969 -7.7015,-19.09034 -8.54537,-21.29034 -0.84387,-2.2 -2.22765,-5.62976 -3.07507,-7.62169 l -1.54076,-3.62169 14.97048,-10.62831 C 307.28462,273.78274 314.1975,269 314.4128,269 c 0.21531,0 -0.2395,2.09652 -1.01067,4.65893 -0.77117,2.56241 -1.4187,8.52491 -1.43895,13.25 l -0.0368,8.59107 -8.40607,5.85788 -8.40607,5.85789 2.02363,5.14211 c 2.39325,6.08134 10.13571,25.0272 10.38166,25.40401 0.17711,0.27136 33.73707,-17.17234 41.22711,-21.4289 l 4.24663,-2.41335 -1.59862,-3.70982 c -2.95863,-6.86587 -15.05384,-37.63894 -17.91193,-45.57217 -2.36764,-6.57187 -2.5982,-7.99352 -1.4047,-8.66143 1.51614,-0.84847 89.94315,-63.70095 98.42199,-69.95674 2.75,-2.02899 9.15502,-6.57591 14.23338,-10.10427 5.07836,-3.52837 9.24086,-6.68016 9.25,-7.00399 0.0313,-1.10822 -30.96388,-12.13268 -32.4777,-11.55177 -1.89711,0.72799 -12.88912,8.87829 -13.33901,9.89055 -0.18334,0.4125 -0.8033,0.75 -1.37769,0.75 -0.57439,0 -4.02439,2.18034 -7.66667,4.8452 -3.64227,2.66486 -18.99731,13.61429 -34.12231,24.33206 -15.125,10.71778 -36.86499,26.12509 -48.31108,34.23847 l -20.81108,14.75159 0.70474,3.16634 c 0.38761,1.74149 0.7526,3.80051 0.81108,4.5756 0.14692,1.94704 -8.75005,4.98841 -14.89366,5.09131 -4.58551,0.0768 -5.88786,0.72271 -15.71028,7.79159 C 260.89907,271.03147 247.4698,280.575 236.9469,288 c -10.5229,7.425 -20.25812,14.45071 -21.63383,15.6127 l -2.50128,2.11269 8.6703,10.38731 c 4.76867,5.71301 9.2138,10.51407 9.87808,10.66902 0.66428,0.15495 8.13095,-4.68159 16.59261,-10.74786 8.46165,-6.06628 15.47288,-10.91805 15.5805,-10.78173 0.10763,0.13633 0.49718,5.48798 0.86568,11.89256 l 0.67,11.64469 -6.85933,4.98906 c -10.04176,7.30375 -12.88628,8.54978 -19.70963,8.63373 -9.08604,0.11178 -14.30717,-2.94776 -23.74115,-13.91217 -4.25908,-4.95 -8.00475,-9.79462 -8.32372,-10.76581 -0.52457,-1.5972 -0.88336,-1.51948 -3.75754,0.81401 -7.29448,5.92223 -14.03968,10.72682 -19.79511,14.09998 -4.88643,2.86386 -6.29394,3.31099 -6.98563,2.21915 -1.31879,-2.08171 -1.23124,-2.19346 3.81481,-4.86905 9.27936,-4.92023 25.28458,-17.73201 25.29208,-20.24568 0.008,-2.57994 3.99667,-7.6568 8.39229,-10.68107 6.08969,-4.18981 9.18001,-8.93555 20.83745,-31.99956 5.44084,-10.76458 10.26103,-19.9464 10.71154,-20.40403 0.64794,-0.65819 15.77184,-4.53448 18.11248,-4.64227 0.30662,-0.0141 1.9371,1.93158 3.62327,4.32378 4.32899,6.14158 10.5842,9.01643 18.3898,8.45183 3.27756,-0.23708 6.48619,-0.95804 7.13028,-1.60213 0.89477,-0.89477 0.23348,-5.59832 -2.80275,-19.93511 L 285.42426,214.5 l -36.9908,-0.26195 -36.99081,-0.26195 -31.85967,38.06585 c -21.392,25.5591 -32.32555,37.88708 -33.27761,37.52174 -1.38878,-0.53293 -46.716768,19.70782 -48.929137,21.8488 -1.823527,1.76469 -16.153225,38.5238 -17.976237,46.11336 -2.373877,9.88292 -2.171506,26.74132 0.43947,36.6098 2.182208,8.2479 7.597452,19.81908 12.448593,26.59988 l 3.030194,4.23553 5.090877,-4.29363 C 103.20911,418.31593 118.325,405.60756 134,392.43659 Z M 367.24407,293.25 c 1.17238,-2.6125 5.98907,-13.975 10.70376,-25.25 l 8.57215,-20.5 12.25245,-8.08737 c 6.73885,-4.44806 13.41461,-9.17306 14.83502,-10.5 2.9044,-2.71327 5.68162,-7.54542 5.18791,-9.02656 -0.17937,-0.53809 -6.35729,3.31682 -13.72872,8.56647 -7.37144,5.24966 -13.57838,9.36906 -13.79321,9.15423 -0.21482,-0.21483 0.31077,-2.06919 1.16799,-4.12081 2.37032,-5.67297 2.2406,-5.80349 -5.23612,-5.26854 -8.4279,0.60302 -17.62861,4.54461 -22.44052,9.61355 -1.91564,2.01797 -8.0835,10.84407 -13.70636,19.61357 l -10.22337,15.94454 4.83247,12.30289 4.83248,12.3029 7.30623,0.003 7.30623,0.003 z M 241.33319,279.31641 C 260.76621,265.44685 259.90951,267 248.12676,267 h -10.14295 l -1.68123,4.25 c -0.92468,2.3375 -3.13769,7.0625 -4.91781,10.5 -1.78012,3.4375 -3.00749,6.25 -2.72749,6.25 0.28001,0 5.98416,-3.90761 12.67591,-8.68359 z m 26.68825,-18.9493 C 270.20965,258.91903 272,257.59837 272,257.43233 c 0,-0.16604 -2.41664,-2.71854 -5.37032,-5.67222 l -5.37032,-5.37032 -6.66586,1.55511 -6.66585,1.5551 -3.46382,6.26722 c -1.90511,3.44697 -3.46383,6.48447 -3.46383,6.75 0,0.26553 5.18465,0.48278 11.52144,0.48278 10.77054,0 11.78074,-0.1716 15.5,-2.63289 z M 310,204 c 0,-1.33333 -0.66667,-2 -2,-2 -1.33333,0 -2,-0.66667 -2,-2 0,-1.33333 0.66667,-2 2,-2 1.46667,0 2,-0.66667 2,-2.5 0,-1.83333 0.53333,-2.5 2,-2.5 1.46667,0 2,0.66667 2,2.5 0,1.83333 0.53333,2.5 2,2.5 1.33333,0 2,0.66667 2,2 0,1.33333 -0.66667,2 -2,2 -1.33333,0 -2,0.66667 -2,2 0,1.33333 -0.66667,2 -2,2 -1.33333,0 -2,-0.66667 -2,-2 z M 139.66986,182.46747 c -16.13873,-4.38642 -19.6714,-6.15967 -19.66787,-9.87246 10e-4,-1.15225 1.82519,-9.29501 4.05355,-18.09501 2.22837,-8.8 4.10247,-16.5625 4.16468,-17.25 0.0622,-0.6875 0.73967,-1.25 1.50546,-1.25 0.7658,0 1.11742,-0.44485 0.7814,-0.98855 -0.34118,-0.55203 0.0297,-0.74271 0.83983,-0.43182 0.79793,0.30619 1.74217,0.0853 2.0983,-0.49098 0.41374,-0.66944 1.26258,-0.71569 2.35115,-0.12809 3.76696,2.03336 16.34042,5.05289 18.9361,4.54753 1.99127,-0.38769 2.23871,-0.30716 0.88216,0.28712 -1.45916,0.63922 -0.55491,1.11613 4,2.10963 6.5966,1.43881 9.8119,3.15509 11.37202,6.0702 1.52447,2.84849 -7.20233,35.78956 -10.13986,38.27496 -2.67078,2.25971 -2.58258,2.2713 -21.17692,-2.78253 z m 9.33002,-17.82687 c 3.02493,-1.80485 5.61716,-3.92483 5.76052,-4.71107 0.29231,-1.6032 -12.40379,-9.26796 -13.86046,-8.36769 -0.49497,0.30591 -0.89994,4.12964 -0.89994,8.49718 0,9.41001 0.48964,9.65927 8.99988,4.58158 z m 104.95207,14.106 c -6.46886,-4.35936 -6.67925,-5.30323 -8.6384,-38.75383 -2.23275,-38.12201 -2.25858,-50.694866 -0.10141,-49.36166 0.43332,0.267808 0.78786,0.01675 0.78786,-0.557905 0,-2.266953 7.55504,-5.902556 13.5,-6.496414 6.10328,-0.609672 51.47778,-2.533898 63.72107,-2.702261 8.51928,-0.117152 12.4537,1.956109 15.4515,8.142243 1.98541,4.097007 2.32161,7.59702 3.90262,40.628057 1.71708,35.87396 1.7151,36.17362 -0.26431,39.98785 -1.34542,2.59256 -3.42874,4.55431 -6.40262,6.02897 -3.99329,1.98016 -7.37348,2.33494 -35.90826,3.7688 -41.45361,2.08304 -41.95328,2.07562 -46.04805,-0.68385 z M 300.5,175.39392 c 32.85346,-1.72031 34.95493,-2.10621 38.16723,-7.00881 1.58245,-2.41511 1.5755,-4.79538 -0.11301,-38.72919 C 337.56473,109.77017 336.41188,92.6 335.99234,91.5 c -0.97959,-2.568359 -3.82373,-5.116876 -6.99417,-6.26719 -1.4076,-0.510712 -8.17329,-0.592087 -15.49817,-0.186407 -61.17738,3.388241 -60.01321,3.247987 -63.4735,7.647031 -1.79719,2.284769 -2.06824,3.95105 -1.98874,12.225936 0.17116,17.81415 2.94348,64.17706 3.95,66.05776 0.54978,1.02727 2.18813,2.80266 3.64078,3.94532 3.27294,2.57449 4.46907,2.58706 44.87146,0.47147 z M 289,153.04969 c 0,-5.81818 -2.52778,-6.86654 -6.74529,-2.79752 l -3.24529,3.13104 -3.00471,-2.8787 c -3.64428,-3.49144 -3.71671,-4.48699 -0.54338,-7.46819 C 278.96889,139.74115 277.38109,137 271.96482,137 H 268 v -4.5 -4.5 h 3.93261 c 3.17946,0 4.06701,-0.42344 4.63436,-2.21102 0.55177,-1.73845 0.0397,-2.72155 -2.39569,-4.59969 l -3.09745,-2.38867 2.71308,-3.40028 c 1.4922,-1.87016 3.13847,-3.40029 3.65837,-3.40031 0.51991,-2e-5 2.13414,1.13896 3.58718,2.53107 3.77352,3.61526 5.96754,2.46151 5.96754,-3.13809 V 107 h 5 5 v 4.03138 c 0,5.45142 2.16923,6.16617 6.36673,2.09779 l 3.2349,-3.13539 3.16255,3.26291 3.16254,3.26291 -2.559,3.26979 c -3.33308,4.2589 -2.55839,6.01235 2.82781,6.40045 L 317.5,126.5 v 4.5 4.5 l -4.14709,0.30247 c -5.5399,0.40405 -6.39974,3.13889 -2.11929,6.74065 l 3.04204,2.55971 -2.88783,3.19359 c -1.58831,1.75647 -3.00502,3.38803 -3.14826,3.62568 -0.14324,0.23765 -1.5635,-0.81633 -3.15615,-2.34218 C 300.8082,145.484 298,146.66837 298,152.56739 V 157 H 293.5 289 Z M 298,137 c 4.94621,-4.94621 0.33484,-13.88924 -6.48422,-12.57514 -6.06606,1.16898 -8.26586,7.08055 -4.4432,11.94028 2.59699,3.30154 7.94976,3.61252 10.92742,0.63486 z m -45.1875,-24.68311 c 0.72187,-0.28887 1.58437,-0.25335 1.91667,0.0789 0.33229,0.3323 -0.25834,0.56864 -1.3125,0.52522 -1.16495,-0.048 -1.4019,-0.28494 -0.60417,-0.60416 z M 249.27236,105 c 0,-2.475 0.19502,-3.4875 0.43337,-2.25 0.23836,1.2375 0.23836,3.2625 0,4.5 -0.23835,1.2375 -0.43337,0.225 -0.43337,-2.25 z m 1.80659,1.41667 c 0.048,-1.16495 0.28494,-1.4019 0.60416,-0.60417 0.28887,0.72187 0.25335,1.58437 -0.0789,1.91667 -0.3323,0.33229 -0.56864,-0.25834 -0.52522,-1.3125 z m 0.65438,-14.540758 c 0.67834,-0.683418 1.48524,-0.990671 1.79313,-0.682784 0.30789,0.307887 -0.24711,0.867048 -1.23333,1.242579 -1.4252,0.542685 -1.54006,0.427821 -0.5598,-0.559795 z M 268,92 c 0,-0.55 0.47656,-1 1.05902,-1 0.58246,0 0.7809,0.45 0.44098,1 -0.33992,0.55 -0.81648,1 -1.05902,1 C 268.19844,93 268,92.55 268,92 Z m 15.5,0 c -0.33992,-0.55 -0.14148,-1 0.44098,-1 0.58246,0 1.05902,0.45 1.05902,1 0,0.55 -0.19844,1 -0.44098,1 -0.24254,0 -0.7191,-0.45 -1.05902,-1 z m -22.23097,-1.692991 c 0.97297,-0.253543 2.32297,-0.236869 3,0.03705 0.67703,0.273923 -0.11903,0.481368 -1.76903,0.460988 -1.65,-0.02038 -2.20394,-0.244498 -1.23097,-0.498042 z M 210,172.5 V 165 h -7 c -6.33333,0 -7,-0.19048 -7,-2 0,-1.80952 0.66667,-2 7,-2 h 7 v -7 c 0,-6.33333 0.19048,-7 2,-7 1.80952,0 2,0.66667 2,7 v 7 h 7 c 6.33333,0 7,0.19048 7,2 0,1.80952 -0.66667,2 -7,2 h -7 v 7.5 c 0,6.83333 -0.17778,7.5 -2,7.5 -1.82222,0 -2,-0.66667 -2,-7.5 z M 36.75,172.33772 c 0.6875,-0.27741 1.8125,-0.27741 2.5,0 0.6875,0.27741 0.125,0.50439 -1.25,0.50439 -1.375,0 -1.9375,-0.22698 -1.25,-0.50439 z m 69.0625,-12.02083 c 0.72187,-0.28887 1.58437,-0.25335 1.91667,0.0789 0.33229,0.33229 -0.25834,0.56864 -1.3125,0.52522 -1.16495,-0.048 -1.4019,-0.28494 -0.60417,-0.60416 z m 18.85417,-16.98356 c -0.36667,-0.36666 -0.65299,-1.37916 -0.63626,-2.25 0.025,-1.3003 0.22011,-1.2571 1.09166,0.24167 1.07678,1.85169 0.76461,3.22835 -0.4554,2.00833 z M 165.5,141 c -0.33992,-0.55 0.11008,-1 1,-1 0.88992,0 1.33992,0.45 1,1 -0.33992,0.55 -0.78992,1 -1,1 -0.21008,0 -0.66008,-0.45 -1,-1 z M 36.824504,137.67418 c -0.372058,-1.82482 -0.232683,-2.48236 0.393454,-1.85622 0.533281,0.53328 0.792548,1.8049 0.576149,2.82582 -0.291413,1.37482 -0.542875,1.12336 -0.969603,-0.9696 z m 1.732019,-1.22458 c -0.411368,-2.19278 -1.070926,-3.24972 -1.761558,-2.82288 -0.657928,0.40662 -0.82145,0.22515 -0.404716,-0.44914 0.384596,-0.62229 0.202821,-2.97509 -0.403944,-5.22844 -0.824281,-3.06114 -1.413503,-3.83949 -2.330472,-3.07847 -0.895318,0.74305 -1.227262,0.51243 -1.227262,-0.85265 0,-1.02915 0.353572,-1.65266 0.785715,-1.38558 C 33.646429,122.89951 34,122.16115 34,120.99163 c 0,-1.719 0.410817,-1.99602 2.144199,-1.44586 1.179309,0.3743 4.578965,0.75546 7.55479,0.84702 2.975825,0.0916 5.723435,0.66359 6.105801,1.27116 0.382365,0.60758 1.552696,1.26924 2.600734,1.47037 1.048038,0.20112 2.026773,1.19441 2.174965,2.20731 0.148192,1.0129 0.0022,1.57442 -0.324373,1.24782 -1.069781,-1.06978 -4.134258,2.55754 -3.594345,4.25451 0.380259,1.19516 0.272564,1.30343 -0.386975,0.38902 -0.688213,-0.95416 -1.601521,-0.49525 -3.698745,1.85853 -1.531681,1.71905 -2.887539,3.82503 -3.013016,4.67997 -0.125478,0.85493 -1.15532,1.69592 -2.288539,1.86886 -1.65467,0.25252 -2.189886,-0.37579 -2.717973,-3.19074 z m 10.172644,-15.05377 c -0.332292,-0.33229 -1.194792,-0.36781 -1.916667,-0.0789 -0.797733,0.31922 -0.560776,0.55618 0.604167,0.60416 1.054166,0.0434 1.644791,-0.19292 1.3125,-0.52522 z m -14.65022,6.02084 c 0.04798,-1.16495 0.284941,-1.4019 0.604167,-0.60417 0.288871,0.72187 0.253344,1.58437 -0.07895,1.91667 -0.332292,0.33229 -0.568641,-0.25834 -0.52522,-1.3125 z M 212.75,124.33772 c 0.6875,-0.27741 1.8125,-0.27741 2.5,0 0.6875,0.27741 0.125,0.50439 -1.25,0.50439 -1.375,0 -1.9375,-0.22698 -1.25,-0.50439 z M 2.0789474,122.41667 c 0.047984,-1.16495 0.2849403,-1.4019 0.6041666,-0.60417 0.2888706,0.72187 0.2533443,1.58437 -0.078947,1.91667 -0.3322917,0.33229 -0.5686404,-0.25834 -0.5252196,-1.3125 z m 58.7022076,-0.78115 c -0.24205,-1.2662 0.04567,-2.32121 0.639377,-2.34446 C 62.01424,119.26781 69.475,117.11863 78,114.51511 c 8.525,-2.60352 18.0875,-5.45503 21.25,-6.33669 5.55293,-1.54809 6.43857,-2.50572 5.88873,-6.36748 -0.054,-0.37898 0.79929,-0.97388 1.8961,-1.322 1.09682,-0.34811 1.78203,-0.976257 1.52269,-1.395876 -0.8031,-1.299443 8.23477,0.490101 10.05188,1.990326 1.33302,1.10055 1.81017,1.13633 2.13863,0.16038 0.23254,-0.69093 0.76409,-1.0453 1.18123,-0.78749 0.41714,0.2578 2.50038,-0.0122 4.62942,-0.600095 3.39095,-0.936285 3.6629,-1.220994 2.19296,-2.295842 -1.46262,-1.069489 -1.29258,-1.22701 1.32451,-1.22701 1.94051,0 2.54648,0.289344 1.71319,0.818021 -2.34843,1.489956 0.35558,0.88699 12.78285,-2.850438 6.76487,-2.034496 12.0802,-4.054342 11.81185,-4.488546 -0.26835,-0.434203 0.098,-0.576326 0.81402,-0.315828 0.71607,0.260498 4.67694,-0.648226 8.80194,-2.019387 4.125,-1.371161 6.48688,-2.306416 5.24862,-2.078346 -1.34299,0.24736 -2.00015,0.0082 -1.62872,-0.592812 0.34246,-0.554117 1.87649,-0.756719 3.40895,-0.450227 1.75035,0.350069 6.78575,-0.711773 13.54327,-2.855943 5.91634,-1.87726 12.03686,-3.694309 13.60116,-4.037886 1.56429,-0.343576 2.6383,-0.957797 2.38667,-1.364934 -0.61798,-0.999912 3.45769,-4.412702 4.28354,-3.586852 0.35935,0.359352 -0.24593,1.332005 -1.34506,2.161451 -2.49285,1.881192 -2.28663,1.836039 14.22735,-3.115098 7.2342,-2.168921 12.99831,-4.193921 12.80914,-4.5 -0.18916,-0.30608 0.62559,-0.573707 1.81057,-0.594727 1.18498,-0.02102 3.3614,-0.359412 4.83649,-0.751981 2.23036,-0.593569 2.80033,-0.334543 3.38478,1.538219 0.38654,1.23859 1.20465,2.631931 1.81802,3.096313 0.65237,0.493907 0.28516,0.570002 -0.88478,0.183346 -2.76596,-0.91413 -30.97114,7.517475 -29.26494,8.748405 0.86717,0.625613 0.67529,0.72046 -0.61019,0.301619 C 211.3832,78.847308 200,81.865943 200,83.190792 c 0,0.509983 -0.35285,0.709171 -0.7841,0.442641 -0.70593,-0.436287 -5.98779,0.905714 -19.2159,4.882322 -2.475,0.74403 -8.00276,2.358875 -12.2839,3.588544 -5.39813,1.550499 -7.39038,2.519063 -6.5,3.160064 0.90279,0.649937 0.73833,0.747181 -0.55405,0.327603 -1.01088,-0.328184 -4.38588,0.145237 -7.5,1.052046 -4.71081,1.371751 -5.32604,1.794738 -3.66205,2.517735 1.55676,0.676403 1.38306,0.748673 -0.78376,0.326096 -3.38765,-0.660666 -23.86406,5.193827 -25.01593,7.152407 -0.43983,0.74786 -1.33983,1.35286 -2,1.34444 -0.73421,-0.009 -0.61783,-0.39174 0.29969,-0.98469 0.97837,-0.63227 1.06997,-0.9747 0.26342,-0.98469 -0.68012,-0.008 -1.87654,1.51633 -2.65871,3.38833 -1.68834,4.04077 -4.19717,5.03452 -10.37237,4.10849 -3.25208,-0.48768 -4.16091,-0.94434 -3.15123,-1.58342 1.63821,-1.0369 -0.0644,-1.25607 -2.49932,-0.32172 -2.67691,1.02722 -1.75449,2.38928 1.66821,2.4633 1.7875,0.0387 4.15,0.47525 5.25,0.97022 1.28588,0.57861 -0.32088,0.68066 -4.5,0.28581 -3.575,-0.33776 -6.73068,-0.96558 -7.012623,-1.39515 -0.281942,-0.42957 -2.981942,0.0382 -6,1.03957 -3.018057,1.00133 -6.953804,2.12917 -8.746103,2.50631 -1.95122,0.41057 -2.992615,1.11627 -2.595492,1.75883 0.391301,0.63314 0.193194,0.78264 -0.483174,0.36462 -1.286874,-0.79533 -13.337318,2.30196 -12.745414,3.27591 0.208435,0.34298 -1.325384,0.72207 -3.408487,0.84244 -3.242409,0.18736 -3.850794,-0.11245 -4.227552,-2.08333 z M 115.5,106.5 c 0,-2.49687 -0.401,-3 -2.39101,-3 -3.20104,0 -4.95547,2.77513 -3.13851,4.96443 0.74498,0.89765 2.29389,1.49787 3.44201,1.33383 C 114.999,109.57158 115.5,108.78 115.5,106.5 Z m -42,15.5 c 2.752484,-1.18278 3.731,-1.18278 3,0 -0.339919,0.55 -1.603976,0.96837 -2.809017,0.92971 C 71.578617,122.86195 71.571764,122.82859 73.5,122 Z m -21,-1 c -1.630408,-0.70061 -1.687513,-0.87242 -0.309017,-0.92971 C 53.121024,120.03163 54.160081,120.45 54.5,121 c 0.710664,1.14988 0.675913,1.14988 -2,0 z m 33,-2 c -0.339919,-0.55 0.08352,-1 0.940983,-1 C 87.298442,118 88,118.45 88,119 c 0,0.55 -0.423442,1 -0.940983,1 -0.517541,0 -1.219098,-0.45 -1.559017,-1 z m 155.22917,-2.60417 c -0.40105,-0.40104 -0.71549,-1.66666 -0.69876,-2.8125 0.0281,-1.92359 0.11018,-1.94626 1.07077,-0.29565 1.11861,1.92211 0.83248,4.31265 -0.37201,3.10815 z M 114,115.61663 c 0,-0.21085 0.90062,-0.61888 2.00138,-0.90674 1.10076,-0.28785 1.7492,-0.11534 1.44098,0.38337 C 116.90411,115.96417 114,116.4057 114,115.61663 Z m -41.789427,-2.01167 c 0.709185,-0.76727 1.634267,-1.18618 2.055739,-0.9309 C 75.409725,113.3666 74.100194,115 72.401556,115 c -1.215945,0 -1.250062,-0.24921 -0.190983,-1.39504 z M 76,113 c 0,-0.55 0.701558,-1 1.559017,-1 0.857459,0 1.280902,0.45 0.940983,1 -0.339919,0.55 -1.041476,1 -1.559017,1 C 76.423442,114 76,113.55 76,113 Z m 165.07895,-9.58333 c 0.048,-1.16495 0.28494,-1.4019 0.60416,-0.60417 0.28887,0.72187 0.25335,1.58437 -0.0789,1.91667 -0.3323,0.33229 -0.56864,-0.25834 -0.52522,-1.3125 z M 152,99.031385 c 0,-0.532739 0.675,-0.709594 1.5,-0.393011 0.825,0.316582 1.5,0.752459 1.5,0.968615 C 155,99.823145 154.325,100 153.5,100 152.675,100 152,99.564123 152,99.031385 Z M 111.5,97 c 2.75248,-1.182783 3.731,-1.182783 3,0 -0.33992,0.55 -1.60398,0.968372 -2.80902,0.929715 C 109.57862,97.861951 109.57176,97.828591 111.5,97 Z m 54.3,-2.2 c 0.93333,-0.933333 1.46667,-0.933333 2.4,0 0.93333,0.933333 0.66667,1.2 -1.2,1.2 -1.86667,0 -2.13333,-0.266667 -1.2,-1.2 z m 9.7,-3.8 c 0.33992,-0.55 0.81648,-1 1.05902,-1 0.24254,0 0.44098,0.45 0.44098,1 0,0.55 -0.47656,1 -1.05902,1 -0.58246,0 -0.7809,-0.45 -0.44098,-1 z M 153,89.559017 C 153,88.701558 153.45,88 154,88 c 0.55,0 1,0.423442 1,0.940983 0,0.517541 -0.45,1.219098 -1,1.559017 -0.55,0.339919 -1,-0.08352 -1,-0.940983 z M 52,87 C 50.718103,86.171574 50.754453,86.028399 52.25,86.015313 53.2125,86.006891 54,86.45 54,87 c 0,1.21961 -0.112787,1.21961 -2,0 z m 8,-0.981202 C 57.525,85.553017 49.65,84.224765 42.5,83.067128 15.737227,78.73404 12.559319,78.061709 10.054389,76.202808 6.7609177,73.758731 5.033229,70.334661 5.0147418,66.214834 5.0008893,63.127851 12.461637,12.995097 13.624751,8.3595788 14.515751,4.8085524 19.425645,0.88370259 23.63842,0.35489591 29.181526,-0.34090005 83.054411,8.3343204 86.268554,10.440307 c 1.407527,0.922248 3.31906,3.278225 4.24785,5.235506 1.623568,3.421414 1.567564,4.373892 -1.451811,24.691439 C 87.337307,51.990263 85.431115,65.1 84.828612,69.5 c -0.602503,4.4 -1.530315,8.841805 -2.061804,9.870677 -0.56888,1.101254 -0.582553,1.633481 -0.03324,1.293989 0.513206,-0.317179 0.933102,0.09788 0.933102,0.922355 0,0.824475 -0.567099,1.281428 -1.260221,1.015453 -1.299369,-0.498615 -3.772984,1.697655 -2.89777,2.572869 0.6012,0.601203 -0.267866,0.730628 -8.508679,1.267147 -3.575,0.232751 -8.525,0.04209 -11,-0.423692 z M 73.707403,81.952155 C 77.805571,80.523526 79.5,76.864717 79.5,69.444104 c 0,-3.439217 0.277984,-5.803333 0.617743,-5.253591 0.851382,1.377564 1.289161,-0.777996 4.895829,-24.106305 C 88.389826,18.246236 88.308325,16.479705 83.795537,13.683345 80.847604,11.856652 26.213146,3.4787036 22.813342,4.332 21.40098,4.6864804 19.580513,5.9942951 18.76786,7.2382549 17.295605,9.4918936 9,59.585097 9,66.221706 c 0,5.880253 3.086201,7.721193 16.691104,9.956359 6.494893,1.067054 13.458543,1.79273 15.474779,1.612613 2.016235,-0.180118 3.495424,-0.05168 3.287085,0.285421 -0.616813,0.998025 16.328491,3.191009 19.30912,2.498898 1.908014,-0.443046 2.303167,-0.3468 1.303648,0.317525 -1.080055,0.717852 -0.586131,1.056274 2,1.370339 1.888845,0.229386 3.479614,0.489082 3.535041,0.577102 0.05543,0.08802 1.453409,-0.311493 3.106626,-0.887808 z M 48.1149,77.607078 c -2.301031,-1.275453 -1.940291,-2.438127 0.6351,-2.046944 0.6875,0.104426 1.7,0.246116 2.25,0.314866 1.14662,0.143327 1.389378,3.143397 0.25,3.089565 -0.4125,-0.01949 -1.823295,-0.630359 -3.1351,-1.357487 z M 64,73.531385 c 0,-1.891643 -0.388926,-2.319371 -1.664045,-1.830061 -1.118886,0.429357 -1.427162,0.255269 -0.940983,-0.531385 1.035261,-1.675087 3.286185,-1.443213 3.998039,0.411848 C 66.305645,73.960072 66.124188,76 65,76 64.45,76 64,74.889123 64,73.531385 Z m -19,-7.58752 c -9.075,-1.564559 -17.9625,-3.112367 -19.75,-3.439572 -2.867904,-0.524976 -3.249561,-0.971688 -3.246262,-3.799606 0.0049,-4.216221 3.137304,-9.209142 7.04536,-11.230077 2.897148,-1.498173 3.915736,-1.495666 13.294223,0.03272 14.933403,2.433652 17.223969,3.189714 20.131285,6.644863 2.253058,2.677607 2.590917,3.937246 2.408902,8.981113 C 64.715617,67.78579 64.343572,68.978115 63.0859,68.894259 62.213655,68.836102 54.075,67.508425 45,65.943865 Z m 29.8125,0.373021 c 0.721875,-0.288871 1.584375,-0.253344 1.916667,0.07895 0.332291,0.332292 -0.258334,0.568641 -1.3125,0.52522 -1.164943,-0.04798 -1.4019,-0.284941 -0.604167,-0.604167 z M 41.923077,37.076923 C 39.630579,34.784425 39,33.25776 39,30 39,19.317552 52.991619,16.119737 57.88296,25.684259 62.894984,35.484764 49.729122,44.882969 41.923077,37.076923 Z M 190.8125,86.316886 c 0.72187,-0.288871 1.58437,-0.253344 1.91667,0.07895 0.33229,0.332292 -0.25834,0.568641 -1.3125,0.52522 -1.16495,-0.04798 -1.4019,-0.284941 -0.60417,-0.604167 z m -27,-1 c 0.72187,-0.288871 1.58437,-0.253344 1.91667,0.07895 0.33229,0.332292 -0.25834,0.568641 -1.3125,0.52522 -1.16495,-0.04798 -1.4019,-0.284941 -0.60417,-0.604167 z m 43,-4 c 0.72187,-0.288871 1.58437,-0.253344 1.91667,0.07895 0.33229,0.332292 -0.25834,0.568641 -1.3125,0.52522 -1.16495,-0.04798 -1.4019,-0.284941 -0.60417,-0.604167 z m 59.4375,-0.0062 c 0.9625,-0.251527 2.5375,-0.251527 3.5,0 0.9625,0.251528 0.175,0.457323 -1.75,0.457323 -1.925,0 -2.7125,-0.205795 -1.75,-0.457323 z m 8,-1.026928 c 1.5125,-0.229125 3.9875,-0.229125 5.5,0 1.5125,0.229124 0.275,0.41659 -2.75,0.41659 -3.025,0 -4.2625,-0.187466 -2.75,-0.41659 z m 16.5625,0.03314 c 0.72187,-0.288871 1.58438,-0.253344 1.91667,0.07895 0.33229,0.332292 -0.25834,0.568641 -1.3125,0.52522 -1.16495,-0.04798 -1.4019,-0.284941 -0.60417,-0.604167 z M 85.584829,74.5 C 85.92872,71.75 86.387816,69.3125 86.605043,69.083333 87.498974,68.140265 86.889892,76.618642 85.964474,78 85.26061,79.050647 85.146881,78.0022 85.584829,74.5 Z M 193,77.031385 c 0,-0.532739 0.675,-0.709594 1.5,-0.393011 0.825,0.316582 1.5,0.752459 1.5,0.968615 C 196,77.823145 195.325,78 194.5,78 193.675,78 193,77.564123 193,77.031385 Z m 4.8125,-0.714499 c 0.72187,-0.288871 1.58437,-0.253344 1.91667,0.07895 0.33229,0.332292 -0.25834,0.568641 -1.3125,0.52522 -1.16495,-0.04798 -1.4019,-0.284941 -0.60417,-0.604167 z M 230.5,75 c -0.33992,-0.55 -0.16803,-1 0.38197,-1 0.55,0 1.27811,0.45 1.61803,1 0.33992,0.55 0.16803,1 -0.38197,1 -0.55,0 -1.27811,-0.45 -1.61803,-1 z m 20.44522,-9.644075 c -0.5529,-1.454242 -1.2241,-2.998148 -1.49156,-3.430902 -0.26746,-0.432755 0.0406,-1.112449 0.68454,-1.510433 0.73122,-0.451923 0.90292,-0.290138 0.45729,0.430902 -0.87257,1.411851 -1.23324,1.433548 5.36682,-0.322855 4.24642,-1.130052 5.63424,-1.183059 6.23469,-0.238131 1.49344,2.350233 0.77034,3.499039 -2.60045,4.131403 -1.8719,0.35117 -3.65777,1.301251 -3.96861,2.111291 -0.90878,2.368222 -3.59219,1.697026 -4.68272,-1.171275 z m 3.78395,1.039908 c -0.3323,-0.332291 -1.1948,-0.367818 -1.91667,-0.07895 -0.79773,0.319226 -0.56078,0.556183 0.60417,0.604167 1.05416,0.04342 1.64479,-0.192928 1.3125,-0.52522 z M 87.157895,65 c 0,-1.375 0.226973,-1.9375 0.504386,-1.25 0.277412,0.6875 0.277412,1.8125 0,2.5 -0.277413,0.6875 -0.504386,0.125 -0.504386,-1.25 z M 327,62.073324 V 58 h -4 c -3.33333,0 -4,-0.333333 -4,-2 0,-1.666667 0.66667,-2 4,-2 3.90476,0 4,-0.08333 4,-3.5 0,-2.833333 0.38095,-3.5 2,-3.5 1.61905,0 2,0.666667 2,3.5 0,3.333333 0.16667,3.5 3.5,3.5 2.83333,0 3.5,0.380952 3.5,2 0,1.612362 -0.66667,2 -3.43963,2 -3.25137,0 -3.45663,0.204803 -3.75,3.741683 -0.21691,2.614951 -0.83735,3.841551 -2.06037,4.073325 C 327.31547,66.086864 327,65.412353 327,62.073324 Z M 141.66667,48.333333 C 140.51603,47.1827 140.93843,46 142.5,46 c 0.825,0 1.5,0.675 1.5,1.5 0,1.561574 -1.1827,1.983967 -2.33333,0.833333 z M 136,47.059017 c 0,-0.517541 0.45,-1.219098 1,-1.559017 0.55,-0.339919 1,0.08352 1,0.940983 C 138,47.298442 137.55,48 137,48 c -0.55,0 -1,-0.423442 -1,-0.940983 z M 288.60699,38.418213 C 287.81439,36.352741 287.84068,36 288.7872,36 c 0.43295,0 0.85499,0.9 0.93785,2 0.18107,2.403867 -0.28867,2.579575 -1.11806,0.418213 z M 159,38.606989 c 0,-0.216156 0.69837,-0.661002 1.55194,-0.988546 0.88992,-0.341496 1.29132,-0.173849 0.94098,0.393011 C 160.90566,38.961658 159,39.416902 159,38.606989 Z M 184.63837,29.5 c 0.31659,-0.825 0.75246,-1.5 0.96862,-1.5 0.21615,0 0.39301,0.675 0.39301,1.5 0,0.825 -0.43588,1.5 -0.96862,1.5 -0.53273,0 -0.70959,-0.675 -0.39301,-1.5 z m 90.0908,-5.104167 C 274.32812,23.994792 274,22.976667 274,22.133333 c 0,-1.125593 0.29583,-1.2375 1.1125,-0.420833 0.61187,0.611875 0.94,1.63 0.72917,2.2625 -0.21084,0.6325 -0.71146,0.821875 -1.1125,0.420833 z M 216.5,20 c -0.33992,-0.55 -0.14148,-1 0.44098,-1 0.58246,0 1.05902,0.45 1.05902,1 0,0.55 -0.19844,1 -0.44098,1 -0.24254,0 -0.7191,-0.45 -1.05902,-1 z m 38.25,-4.662281 c 0.6875,-0.277412 1.8125,-0.277412 2.5,0 0.6875,0.277413 0.125,0.504386 -1.25,0.504386 -1.375,0 -1.9375,-0.226973 -1.25,-0.504386 z"
         id="path3" />
      <path
         style="fill:#131217"
         d="M 92.702676,448.61736 C 79.147035,443.56888 68.48144,428.36401 62.251252,405.20581 59.822823,396.17911 59.638649,393.99565 59.619056,374 c -0.0198,-20.20571 0.140379,-22.10199 2.660776,-31.5 5.063337,-18.88007 15.013586,-35.07141 25.233483,-41.06067 5.34532,-3.13257 12.998695,-4.10593 19.793685,-2.51737 l 5.193,1.21403 17.5,-8.15529 c 9.625,-4.48542 18.08191,-8.63723 18.79314,-9.22625 0.71123,-0.58902 14.60263,-16.97985 30.86979,-36.42407 l 29.57665,-35.35312 39.62832,0.26137 39.62831,0.26137 3.0019,14.16711 c 1.65104,7.79191 3.29526,14.46028 3.65383,14.81861 0.53333,0.53297 30.24393,-20.21828 119.60805,-83.53977 8.33294,-5.90454 9.90123,-5.87704 28.52746,0.50033 13.49372,4.62008 16.74744,6.12462 19.40211,8.97171 4.12919,4.42847 5.06382,9.3208 2.87536,15.05118 -1.52539,3.99418 -3.48717,5.68443 -22.11938,19.05782 C 426.48213,212.70259 423,215.61597 423,217.63308 c 0,3.51367 -2.68683,9.41828 -5.80305,12.75284 -1.48332,1.58726 -8.32646,6.56999 -15.20698,11.07275 l -12.51002,8.18682 -10.61279,25.42726 -10.61279,25.42725 -7.87718,0.84402 c -4.33246,0.46421 -7.98876,0.95079 -8.12513,1.08128 -0.13637,0.13049 0.95472,3.02458 2.42465,6.43132 1.6344,3.7879 2.31341,6.55122 1.74795,7.11347 -0.50856,0.50567 -12.62466,7.10171 -26.92466,14.65786 -14.3,7.55615 -40.17245,22.01135 -57.49434,32.12266 l -31.49433,18.3842 -35.50567,-5.58664 c -19.52811,-3.07265 -36.26513,-5.57798 -37.19337,-5.5674 -0.92824,0.0106 -7.56574,4.99637 -14.75,11.07955 C 143.26998,389.35183 140,392.69928 140,394.43209 c 0,5.04356 -5.20784,22.4128 -9.03876,30.14615 -4.82454,9.73915 -12.9044,19.04001 -19.32695,22.24759 -5.82984,2.91156 -13.878979,3.67327 -18.931614,1.79153 z M 129.5,396.65467 c 17.6,-14.81638 32.93099,-27.77679 34.06888,-28.80092 2.02542,-1.82295 2.84457,-1.73821 39,4.03442 l 36.93112,5.89649 28,-16.27595 c 15.4,-8.95177 29.9125,-17.23747 32.25,-18.41266 2.3375,-1.17518 4.25378,-2.69005 4.25839,-3.36637 0.007,-1.03905 -6.60072,-17.76497 -16.61071,-42.04559 -1.31872,-3.19876 -2.38135,-6.34876 -2.36139,-7 0.0352,-1.14727 28.10987,-21.72506 28.81337,-21.11922 0.19232,0.16562 -0.22953,2.01878 -0.93744,4.11813 -0.70791,2.09935 -1.25555,7.7607 -1.21697,12.58079 l 0.0702,8.76379 -7.85356,5.53455 c -4.31946,3.044 -8.10924,5.94826 -8.42175,6.4539 C 294.91137,307.95242 306.81888,338 307.76868,338 c 0.53427,0 44.43681,-22.93071 45.09977,-23.55603 0.20265,-0.19115 -1.22349,-4.30674 -3.16919,-9.14575 -7.87772,-19.5921 -12.02427,-30.25245 -15.20676,-39.09502 l -3.34597,-9.2968 3.74926,-2.7032 c 2.06209,-1.48676 29.69246,-21.1532 61.40083,-43.7032 31.70836,-22.55 57.66323,-41.26495 57.67748,-41.58878 0.028,-0.6361 -29.82128,-11.93836 -31.4741,-11.91749 -0.55,0.007 -29.125,19.9857 -63.5,44.39723 -46.04058,32.69589 -62.47041,44.87502 -62.38764,46.24682 0.0618,1.02422 0.28681,3.17265 0.5,4.7743 0.35897,2.69672 0.0179,3.04492 -4.61236,4.70841 -2.75,0.98798 -7.15735,1.81505 -9.79412,1.83792 -4.41099,0.0383 -5.84946,0.78662 -18,9.36434 -37.82803,26.70487 -50.79152,36.0068 -51.27855,36.79483 -0.29556,0.47823 3.61803,5.79563 8.69687,11.81644 l 9.23426,10.94692 3.07077,-2.1563 c 1.68892,-1.18597 8.47077,-6.01914 15.07077,-10.74038 6.6,-4.72124 12.45,-8.85606 13,-9.1885 0.62055,-0.37508 1.05149,1.82852 1.1357,5.80727 0.0746,3.52643 0.43242,8.78661 0.79508,11.68929 l 0.6594,5.27759 -7.53829,5.26323 C 247.99854,340.50329 244.36557,342 237.72846,342 c -8.48139,0 -14.05434,-3.39543 -22.81891,-13.90283 -4.07525,-4.88563 -7.90747,-9.71687 -8.51603,-10.73609 -1.02806,-1.72179 -1.41102,-1.57799 -5.40331,2.0288 C 196.05638,323.8473 179.15791,335 177.3379,335 c -3.35185,0 -1.63726,-2.18831 4.63355,-5.91373 3.8251,-2.27245 10.35879,-6.83681 14.51929,-10.14301 5.95617,-4.73315 8.06021,-7.13203 9.89571,-11.28241 1.78597,-4.0384 3.47503,-6.01131 7.22235,-8.43605 2.69016,-1.7407 5.85512,-4.64089 7.03323,-6.44486 5.42799,-8.31148 7.93423,-12.78772 10.79482,-19.27994 1.69638,-3.85 5.55456,-11.59933 8.57374,-17.22074 l 5.48941,-10.22073 5,-1.08942 c 2.75,-0.59918 7.0891,-1.3443 9.64245,-1.65582 4.09793,-0.49996 4.72057,-0.32023 5.30856,1.53236 1.13135,3.56456 8.37141,8.95054 13.51434,10.0535 6.51071,1.3963 14.61544,-0.53373 14.35797,-3.41914 -0.0972,-1.089 -1.85549,-9.96751 -3.90737,-19.73001 L 285.68525,214 h -37.31724 -37.31724 l -31.59481,37.75 c -26.83016,32.05711 -31.99906,37.7592 -34.27539,37.811 -1.47431,0.0336 -13.03057,4.87836 -25.68057,10.76623 l -23,10.70522 -8.308268,21.00112 c -4.988282,12.60907 -8.932933,24.2909 -9.871492,29.23378 -1.826171,9.61745 -1.309326,23.85438 1.206449,33.23265 3.209167,11.96308 14.178013,31.4055 16.812628,29.80059 C 96.977693,423.91171 111.9,411.47105 129.5,396.65467 Z m 246.99041,-124.10898 10.77212,-25.45431 14.10727,-9.29569 c 12.40789,-8.17591 14.39726,-9.8704 16.51455,-14.06654 1.324,-2.62397 2.16175,-5.01639 1.86166,-5.31648 -0.4277,-0.42769 -21.00024,13.68041 -27.59487,18.92383 -0.97561,0.77571 -0.88131,-0.0218 0.34081,-2.88201 0.92932,-2.17497 1.94504,-4.57716 2.25716,-5.3382 0.46513,-1.13414 -0.94909,-1.30055 -7.84081,-0.92266 -8.75181,0.47989 -13.74227,2.30386 -20.61076,7.53309 -2.95995,2.25351 -24.09342,33.79 -25.02521,37.34395 -0.22649,0.86386 1.6914,6.82636 4.26198,13.25 L 350.20809,298 h 7.7551 7.75511 z M 243.84858,278 c 8.29782,-5.775 15.10145,-10.8375 15.11918,-11.25 0.0177,-0.4125 -4.6964,-0.75 -10.47586,-0.75 h -10.50809 l -1.67596,4.25 c -0.92177,2.3375 -3.36706,7.54131 -5.43396,11.56402 -2.0669,4.02271 -3.3877,7.17271 -2.93512,7 0.45258,-0.17271 7.612,-5.03902 15.90981,-10.81402 z m 24.96814,-17.70955 c 2.0258,-1.49025 3.90453,-2.874 4.17495,-3.075 0.27042,-0.201 -0.40458,-0.84749 -1.5,-1.43665 -1.09542,-0.58916 -3.84651,-3.03097 -6.11353,-5.42624 l -4.12186,-4.35503 -6.94682,1.56879 -6.94682,1.56879 -3.18132,6.45138 C 242.43159,259.13475 241,262.25435 241,262.51893 241,262.78352 246.43002,263 253.06672,263 c 11.54712,0 12.22533,-0.11668 15.75,-2.70955 z M 310.6875,205.35417 C 310.30937,204.97604 310,203.84167 310,202.83333 310,201.66667 309.27273,201 308,201 c -1.11111,0 -2,-0.66667 -2,-1.5 0,-0.83333 0.88889,-1.5 2,-1.5 1.33333,0 2,-0.66667 2,-2 0,-1.33333 0.66667,-2 2,-2 1.33333,0 2,0.66667 2,2 0,1.33333 0.66667,2 2,2 1.11111,0 2,0.66667 2,1.5 0,0.825 -0.8687,1.5 -1.93045,1.5 -1.21655,0 -2.04862,0.8031 -2.25,2.17167 -0.33186,2.2553 -1.9392,3.37534 -3.13205,2.1825 z M 138.11379,181.66301 c -12.12716,-3.28122 -15.70147,-4.64043 -16.87458,-6.41694 -1.35856,-2.05735 -1.11857,-3.7145 2.75165,-19 4.82042,-19.03833 5.21019,-20.00744 8.36542,-20.79936 2.62826,-0.65965 32.97094,6.98082 36.39372,9.16416 1.40062,0.89343 2.25,2.4296 2.25,4.06931 0,4.28875 -8.05212,33.66768 -9.74891,35.56982 -2.23829,2.50919 -5.75567,2.11591 -23.1373,-2.58699 z m 10.03209,-16.24546 c 6.39863,-3.61672 8.11778,-5.18192 7.24417,-6.59545 -0.99584,-1.6113 -13.39,-7.94017 -14.36707,-7.3363 -1.76743,1.09233 -1.25396,17.5142 0.54762,17.5142 0.1305,0 3.08937,-1.6121 6.57528,-3.58245 z m 107.24823,13.6739 c -6.9849,-3.17209 -8.00678,-6.72938 -9.36233,-32.59145 -0.63421,-12.1 -1.40116,-28.75 -1.70432,-37 -0.53575,-14.579462 -0.48499,-15.095687 1.81067,-18.413013 4.53659,-6.555589 5.65571,-6.770127 45.0592,-8.638028 19.63354,-0.930716 36.81136,-1.412611 38.17293,-1.070877 3.36749,0.845185 8.57958,5.376551 9.81517,8.533251 1.61087,4.1155 5.01135,73.962387 3.78216,77.686867 -1.10167,3.33811 -3.95576,6.36569 -7.96759,8.45193 -1.66802,0.86741 -13.6485,1.89146 -36,3.07717 -41.40309,2.19637 -38.68563,2.19861 -43.60589,-0.0358 z m 48.59586,-3.60929 c 31.48674,-1.60251 31.88822,-1.70015 35.14343,-8.54669 1.51569,-3.18789 1.49844,-5.97784 -0.23939,-38.7146 -2.03398,-38.315767 -2.31875,-39.837791 -8.00361,-42.777545 -3.24168,-1.676338 -6.13884,-1.599049 -59.82944,1.596095 -17.78554,1.058423 -19.83693,1.692893 -22.57157,6.981099 -1.40113,2.709476 -1.40436,6.140071 -0.0333,35.240581 0.83543,17.7314 1.75237,34.23467 2.03765,36.67394 1.08031,9.23712 5.7054,12.27356 17.50623,11.49312 4.125,-0.2728 20.32049,-1.1485 35.98997,-1.946 z M 289.44805,156.11471 C 289.20162,155.86829 289,153.97199 289,151.90072 c 0,-3.00551 -0.44568,-3.9074 -2.20717,-4.46647 -1.71598,-0.54463 -2.77476,-0.0206 -4.7577,2.3546 l -2.55054,3.05514 -3.49229,-2.85296 -3.4923,-2.85296 2.84718,-2.97518 C 279.51531,139.80735 278.37301,137 272.43261,137 H 268 v -4.4425 -4.4425 l 4.24137,-0.3075 c 5.35617,-0.38832 6.10098,-2.79695 2.14253,-6.92868 l -2.80082,-2.92343 3.18615,-3.18616 3.18616,-3.18615 2.93177,2.80881 c 2.32182,2.22445 3.30818,2.59817 4.74099,1.79633 1.37548,-0.76975 1.73846,-1.99251 1.51407,-5.10035 L 286.84706,107 h 4.51897 4.51897 l 0.3075,4.25 c 0.25515,3.52649 0.68872,4.30416 2.54684,4.56815 1.46698,0.20842 3.05771,-0.63325 4.61206,-2.44029 l 2.37272,-2.75845 3.08261,2.44029 c 3.79881,3.00727 3.85328,3.64196 0.60364,7.03385 -2.17981,2.27524 -2.41114,3.0365 -1.46176,4.81042 0.95931,1.7925 1.71991,2.01276 5.08963,1.47393 L 317,125.74438 v 4.5 c 0,4.45569 -0.0383,4.50613 -3.89085,5.12218 -5.28807,0.84559 -5.97928,3.14048 -2.13919,7.10244 l 3.03626,3.13263 -3.30865,3.20688 -3.30865,3.20687 -2.84042,-2.96476 C 300.75474,145.09079 298,146.30211 298,151.93015 c 0,3.78108 -0.0826,3.86766 -4.05195,4.24619 -2.22858,0.21253 -4.25358,0.1848 -4.5,-0.0616 z m 8.40053,-18.40401 c 3.57167,-2.96422 3.23908,-9.40187 -0.63789,-12.3474 C 292.65521,121.90228 285,125.67523 285,131.38145 c 0,6.96805 7.57985,10.70191 12.84858,6.32925 z M 210,172 v -7 h -7 c -5.55556,0 -7,-0.30952 -7,-1.5 0,-1.19048 1.44444,-1.5 7,-1.5 h 7 v -7.5 c 0,-6.83333 0.17778,-7.5 2,-7.5 1.82222,0 2,0.66667 2,7.5 v 7.5 h 7 c 5.55556,0 7,0.30952 7,1.5 0,1.19048 -1.44444,1.5 -7,1.5 h -7 v 7 c 0,6.33333 -0.19048,7 -2,7 -1.80952,0 -2,-0.66667 -2,-7 z M 39.546194,137.81338 C 36.432911,128.51361 34.359169,120 35.207218,120 c 0.574866,0 5.04926,0.94004 9.943098,2.08898 l 8.897887,2.08897 -6.136168,6.92127 c -7.028906,7.92823 -7.76235,8.51687 -8.365841,6.71416 z m 21.97588,-15.61645 c -0.313033,-0.81575 -0.446059,-1.59461 -0.295613,-1.7308 0.416445,-0.37699 32.593476,-10.22275 38.178547,-11.68215 4.038862,-1.05538 5.142222,-1.84944 6.248352,-4.49678 2.21219,-5.29452 7.21812,-6.831352 11.35098,-3.48477 2.18313,1.76779 3.38142,1.45093 62.36078,-16.490183 33.07418,-10.060937 60.69738,-18.29703 61.38488,-18.30243 0.6875,-0.0054 1.25,0.640176 1.25,1.434613 0,1.617098 0.43883,1.47377 -69,22.536466 -25.575,7.757598 -47.9625,14.570354 -49.75,15.139464 -1.7875,0.56911 -3.25,1.6953 -3.25,2.50265 0,2.32281 -4.66881,6.37699 -7.34376,6.37699 -1.33907,0 -3.47452,-0.84202 -4.74545,-1.87116 -2.09431,-1.69586 -2.69019,-1.74356 -6.36079,-0.50914 -2.227498,0.74911 -12.016974,3.76916 -21.754387,6.71122 -14.688397,4.43794 -17.801344,5.09653 -18.273539,3.86601 z m 54.403996,-14.05879 c 1.40578,-2.62672 -0.82766,-5.42878 -3.97188,-4.98311 -2.46657,0.34962 -3.59726,2.72676 -2.57015,5.40338 0.79829,2.08031 5.36062,1.78722 6.54203,-0.42027 z M 60,85.374762 C 55.325,84.615155 42.999376,82.623999 32.609725,80.94997 22.220074,79.275942 12.493254,77.272192 10.99457,76.497192 9.495886,75.722192 7.4656779,73.393772 6.4829965,71.322925 4.7152237,67.59762 4.744712,67.242582 9.2675972,37.796372 14.259431,5.2970757 14.964473,3.1569183 21.376129,1.040881 c 2.762833,-0.91181691 8.400809,-0.32086159 32.510985,3.4077013 16.042679,2.4809499 30.021094,4.9671086 31.063145,5.524797 1.04205,0.5576887 2.829535,2.2025097 3.972189,3.6551587 2.633122,3.347472 2.658893,7.736295 0.138803,23.638004 C 87.99494,43.994944 86.163491,56.025 84.991365,64 82.719757,79.455737 81.725908,81.97687 76.695666,85.044003 73.061104,87.260135 71.761931,87.285873 60,85.374762 Z M 76.515627,80.740217 C 78.982073,78.61867 79.413689,76.799845 83.571391,51.007346 86.007126,35.897148 88,22.125414 88,20.403493 88,18.391675 87.100383,16.37311 85.482912,14.755639 83.304973,12.577701 80.980733,11.933269 68.232912,9.9728131 60.12981,8.7266569 47.2,6.6959776 39.5,5.4601924 24.181399,3.001686 20.439511,3.4417324 18.006514,7.9878285 17.371556,9.174258 14.852469,22.94449 12.408542,38.588343 8.2802526,65.013994 8.0734203,67.241299 9.4928699,69.986212 c 0.8403071,1.624975 2.3149971,3.375778 3.2770891,3.890674 0.962093,0.514896 9.844935,2.151001 19.73965,3.635789 C 42.404324,78.997463 54.1,80.787934 58.5,81.491499 70.690041,83.440702 73.512985,83.32298 76.515627,80.740217 Z M 42.75,65.114915 C 30.963524,63.13098 22.002409,61.16384 22.005577,60.561107 22.008644,59.977498 22.495043,57.75728 23.086463,55.627288 24.605934,50.154937 28.330768,47 33.272157,47 c 5.851601,0 22.799831,3.029725 25.960916,4.640863 4.707631,2.399382 6.835834,8.85376 4.917247,14.912945 -0.646502,2.04175 -0.772133,2.033303 -21.40032,-1.438893 z M 44.110071,38.654187 C 39.203356,35.832579 37.475537,28.436882 40.772236,24.36704 c 4.136018,-5.105999 9.731852,-5.675445 14.43926,-1.469376 6.309498,5.637536 3.202815,15.460223 -5.265247,16.647618 -1.97143,0.276434 -4.469017,-0.104909 -5.836178,-0.891095 z M 251.66667,65.333333 c -1.66959,-1.669587 -0.31154,-3.185325 3.77615,-4.214618 C 261.18686,59.672349 262,59.707974 262,61.405998 c 0,0.780477 -2.08128,2.115161 -4.67814,3 -5.46672,1.862698 -4.82505,1.757478 -5.65519,0.927335 z M 327,61.5 c 0,-3.416667 -0.0952,-3.5 -4,-3.5 -2.88889,0 -4,-0.416667 -4,-1.5 0,-1.083333 1.11111,-1.5 4,-1.5 h 4 v -4 c 0,-5.400189 2.74557,-5.615384 3.18963,-0.25 0.29352,3.546357 0.51401,3.766854 4.06037,4.060365 C 339.61538,55.254426 339.40019,58 334,58 c -3.90476,0 -4,0.08333 -4,3.5 0,2.444444 -0.45238,3.5 -1.5,3.5 -1.04762,0 -1.5,-1.055556 -1.5,-3.5 z"
         id="path2" />
    </g>
  </g>
</svg>
