<?xml version="1.0" encoding="UTF-8" standalone="no"?>
<!-- Created with Inkscape (http://www.inkscape.org/) -->

<svg
   version="1.1"
   id="svg1"
   width="569"
   height="450"
   viewBox="0 0 569 450"
   sodipodi:docname="BUSINESS_09.svg"
   inkscape:version="1.3.2 (091e20e, 2023-11-25, custom)"
   xmlns:inkscape="http://www.inkscape.org/namespaces/inkscape"
   xmlns:sodipodi="http://sodipodi.sourceforge.net/DTD/sodipodi-0.dtd"
   xmlns="http://www.w3.org/2000/svg"
   xmlns:svg="http://www.w3.org/2000/svg">
  <defs
     id="defs1" />
  <sodipodi:namedview
     id="namedview1"
     pagecolor="#ffffff"
     bordercolor="#000000"
     borderopacity="0.25"
     inkscape:showpageshadow="2"
     inkscape:pageopacity="0.0"
     inkscape:pagecheckerboard="0"
     inkscape:deskcolor="#d1d1d1"
     showgrid="false"
     inkscape:zoom="1.7488889"
     inkscape:cx="284.46633"
     inkscape:cy="225"
     inkscape:window-width="1920"
     inkscape:window-height="1001"
     inkscape:window-x="-9"
     inkscape:window-y="-9"
     inkscape:window-maximized="1"
     inkscape:current-layer="g1" />
  <g
     inkscape:groupmode="layer"
     inkscape:label="Image"
     id="g1">
    <g
       id="g2">
      <path
         style="fill:#fefefe"
         d="M 0,225 V 0 H 284.5 569 V 225 450 H 284.5 0 Z"
         id="path6" />
      <path
         style="fill:#9faec0"
         d="m 175,449.30561 c -11.56438,-0.68215 -33.8691,-3.49734 -42.41875,-5.35389 -39.946638,-8.67436 -10.57874,-21.24787 55.1483,-23.61108 17.83442,-0.64123 18.21888,-0.7008 17.7375,-2.74804 C 205.19643,416.44167 200.59314,394.8 195.23751,369.5 L 185.5,323.5 185.5895,309 c 0.0802,-13.00429 0.37595,-15.3768 2.86658,-23 3.39314,-10.38553 6.46877,-16.6459 12.03867,-24.50436 5.7767,-8.15023 17.72765,-19.24329 25.31271,-23.49564 3.43369,-1.925 6.88462,-3.95 7.66875,-4.5 1.21071,-0.84921 0.90074,-3.2538 -2.05568,-15.94709 -1.91475,-8.2209 -3.68008,-15.14581 -3.92296,-15.38869 -0.24288,-0.24288 -0.89699,0.75618 -1.45358,2.22013 -1.83117,4.81634 -8.16056,13.88611 -13.90045,19.91878 -10.26937,10.79321 -22.26816,17.98153 -37.14352,22.25221 -8.7925,2.52431 -28.78092,2.59168 -38,0.12809 -12.74111,-3.40477 -26.42254,-11.04298 -34.5539,-19.29112 C 88.233274,212.97539 81.430351,199.14185 78.749686,179.20639 L 77.5,169.91277 l -6.522859,4.50937 -6.522859,4.50937 -17.477141,-4.01983 c -9.612427,-2.21091 -18.702003,-4.18614 -20.199057,-4.38939 -3.686695,-0.50053 -4.795601,-1.31307 -4.136406,-3.0309 0.304881,-0.79451 -2.718846,-11.57602 -6.719394,-23.95892 C 11.921737,131.14957 8.840135,120.85555 9.0742806,120.65688 9.3084263,120.4582 17.825,114.54933 28,107.52606 38.175,100.50278 47.276462,93.875037 48.22547,92.79774 c 1.710331,-1.941536 1.815618,-1.936813 12,0.538342 5.650992,1.373385 14.887421,3.525203 20.5254,4.781816 l 10.25087,2.284752 3.199142,9.76012 3.199142,9.76011 5.549986,-5.24993 c 6.89478,-6.52203 10.21354,-8.86362 18.12764,-12.79022 26.33157,-13.064457 55.10492,-11.089743 79.12632,5.43044 3.68718,2.53577 6.51951,4.06517 6.29406,3.39866 -0.22545,-0.6665 -2.25505,-9.31183 -4.51023,-19.21183 -2.25518,-9.9 -4.75001,-19.928226 -5.54406,-22.284947 -3.96351,-11.763521 1.77605,-23.522347 13.04169,-26.718931 13.86386,-3.933823 182.07053,-42.49308427 185.28459,-42.47416 5.16856,0.03043231 11.47554,3.122112 14.52306,7.1191916 3.05323,4.0045834 3.05762,4.0211144 15.22669,57.3588464 5.2703,23.1 9.8149,42.78812 10.09912,43.75138 0.45779,1.55151 1.03115,1.39746 5.02428,-1.34988 26.53567,-18.257021 64.56969,-18.798631 91.61273,-1.30458 18.06278,11.68475 30.50153,29.15209 35.85258,50.34666 1.82519,7.22926 2.06674,10.46509 1.67956,22.5 -0.39708,12.34272 -0.81744,15.1044 -3.44788,22.65231 -4.24177,12.17154 -9.24192,20.55681 -17.53343,29.40363 -8.52515,9.09611 -16.91206,15.29541 -26.96645,19.93263 -10.44003,4.81509 -17.76511,6.55505 -30.34028,7.20684 -15.34177,0.7952 -27.11297,-1.6997 -41.42977,-8.781 -9.40026,-4.64951 -11.68135,-6.34223 -20.60883,-15.29309 -6.56351,-6.58071 -11.06375,-12.06895 -13,-15.85407 -1.95122,-3.81439 -3.47307,-5.66407 -4.4614,-5.42243 -0.825,0.2017 -25.44392,5.93127 -54.7087,12.73236 -52.03899,12.09379 -53.23337,12.42517 -54.33041,15.07366 -1.76341,4.25725 -4.34629,6.07325 -22.31285,15.6879 -11.78962,6.30912 -16.29563,9.18103 -15,9.56027 23.45277,6.8649 54.35048,15.65469 54.99881,15.64608 0.46923,-0.006 4.20087,-6.56912 8.29253,-14.58418 5.34358,-10.46743 8.52468,-15.50183 11.29186,-17.87043 9.81515,-8.4014 25.89387,-6.52393 28.85807,3.36968 l 1.19824,3.99938 2.7673,-3.82015 c 7.05752,-9.74262 19.38105,-12.75305 28.7879,-7.03241 3.68679,2.24208 6.58242,8.03449 5.58594,11.17412 -0.55065,1.73493 -0.35163,1.95215 1.20591,1.31612 7.38552,-3.01593 17.01889,-1.1226 22.57915,4.43765 3.14428,3.14429 3.78625,4.478 3.78625,7.8661 0,4.75282 1.69237,2.7135 -34.42149,41.47812 L 375.65703,337 H 321.82851 C 288.80729,337 268,337.36424 268,337.94229 c 0,1.87315 19.98406,84.59251 20.75931,85.92834 0.4375,0.75384 4.10955,2.21225 8.16011,3.2409 8.94923,2.27268 13.47572,4.76887 13.89678,7.66355 0.88548,6.08743 -21.06797,11.4857 -57.8162,14.21677 -12.20409,0.90698 -64.38465,1.11688 -78,0.31376 z m 94.5,-12.4233 c 3.3,-0.53653 8.38661,-1.64911 11.30358,-2.47242 4.20294,-1.18626 5.19445,-1.85106 4.77776,-3.2034 C 284.96246,429.19796 263,337.94606 263,337.3832 263,337.17244 258.725,337 253.5,337 c -8.83333,0 -9.5,-0.14035 -9.5,-2 0,-1.96788 0.67041,-2.00018 41.75,-2.01124 l 41.75,-0.0113 5.9382,-12.73875 c 3.26601,-7.00632 11.47851,-24.1725 18.25,-38.14707 C 358.45969,268.11713 364,255.66229 364,254.41427 c 0,-5.92494 -11.03481,-8.47781 -19.02521,-4.40141 -4.51358,2.30266 -4.56771,2.37974 -12.98108,18.48714 -3.44737,6.6 -9.39111,17.9625 -13.20831,25.25 L 311.84505,307 h -21.28363 -21.28364 l -0.52796,-5.82239 c -0.92096,-10.15647 -7.34541,-18.91462 -16.99982,-23.17505 -4.49165,-1.98214 -5.9645,-4.13392 -3.76153,-5.49544 1.48967,-0.92066 9.79425,3.07391 14.63208,7.03815 4.91255,4.02547 10.21699,13.92011 10.56356,19.70473 l 0.22466,3.75 h 17.61842 17.61841 l 4.6339,-8.78869 4.63389,-8.78869 -31.2067,-8.99822 C 259.98682,268.71993 255.5,267.15523 255.5,265.5416 c 0,-1.41805 4.61226,-4.37953 18.63156,-11.96309 20.46091,-11.06807 23.67128,-13.04432 22.74987,-14.00443 -0.34021,-0.35451 -9.31794,1.3963 -19.95051,3.89068 C 266.29835,245.95914 255.64628,248 253.25965,248 c -5.36826,0 -11.25072,-2.9005 -14.64743,-7.22228 l -2.57611,-3.27772 -5.28,2.74796 c -12.78748,6.65519 -25.66276,20.08634 -32.69899,34.11067 -5.86445,11.68883 -8.23148,21.7502 -8.2673,35.14137 -0.0274,10.24741 0.76557,14.79157 11.59038,66.41852 6.39089,30.48019 11.6198,55.75779 11.6198,56.17245 0,1.58337 13.48876,4.66219 26,5.93452 8.29183,0.84324 21.2754,0.35659 30.5,-1.14318 z m 106,-132.55093 c 8.8,-15.74928 17.38928,-31.37923 19.08728,-34.73322 1.69801,-3.35399 4.13272,-7.91731 5.41047,-10.14072 3.14046,-5.4647 2.25693,-9.03525 -2.75383,-11.12888 -4.9228,-2.05688 -12.99312,-1.35539 -16.96787,1.47488 -4.96809,3.53759 -28.90105,43.05008 -38.71082,63.91022 -4.71088,10.01751 -8.56523,18.45501 -8.56523,18.75 0,0.29499 5.9625,0.52879 13.25,0.51956 l 13.25,-0.0168 z m 25.69868,-1.37926 c 15.08772,-16.25134 27.74335,-30.35866 28.1236,-31.3496 1.92664,-5.02074 -5.24031,-10.59825 -13.62194,-10.60097 -7.49965,-0.002 -13.43605,3.92517 -17.37945,11.49845 -1.90134,3.65153 -18.20226,32.81505 -26.95014,48.21575 C 367.86684,326.88441 365,332.19657 365,332.52054 c 0,0.32397 1.97245,0.45189 4.38322,0.28425 4.35691,-0.30296 4.54794,-0.48221 31.81546,-29.85267 z M 181.92145,239.34214 c 17.69947,-6.56435 31.55814,-19.62836 40.14399,-37.84214 l 3.77115,-8 -2.95619,-12.5 c -1.62591,-6.875 -5.53648,-23.51324 -8.69016,-36.97387 l -5.73396,-24.47387 -5.97814,-4.85001 c -7.80733,-6.33402 -21.96987,-13.11271 -31.88092,-15.259339 -5.98496,-1.296276 -10.47449,-1.57093 -18.5,-1.131765 -5.82847,0.31894 -11.56626,0.870526 -12.75064,1.225747 l -2.15341,0.645857 2.43343,9.15862 c 1.33838,5.03725 2.64613,9.85438 2.90609,10.70473 0.39449,1.29043 2.01989,1.47843 9.82895,1.13689 16.23966,-0.71027 26.46033,2.96077 37.71473,13.54629 18.52102,17.42027 21.24682,45.08169 6.47756,65.7343 -6.5439,9.15066 -18.32714,17.46524 -27.07787,19.10689 -1.91183,0.35866 -3.47606,1.2275 -3.47606,1.93074 0,0.70325 0.9,5.6527 2,10.99879 1.1,5.34609 2,9.9042 2,10.12913 0,0.6578 5.00865,-0.72319 11.92145,-3.28699 z m -16.72067,-23.45808 c 28.61256,-6.02538 44.33134,-37.73049 31.92038,-64.38406 -7.91021,-16.98784 -27.39138,-28.0916 -45.59659,-25.98886 -8.87937,1.02558 -9.02941,1.06609 -15.79254,4.26337 -20.50664,9.69455 -30.62367,33.27418 -23.75701,55.37015 6.81807,21.93963 30.38388,35.54956 53.22576,30.7394 z M 71.095059,168.75 c 7.201535,-5.16863 7.333107,-5.34299 8.489206,-11.25 0.645864,-3.3 1.489599,-7.36113 1.874966,-9.02474 l 0.700666,-3.02475 -7.553795,-1.57838 -7.553794,-1.57838 -17.423095,12.10312 c -9.582701,6.65672 -16.906971,12.29766 -16.276153,12.53542 1.550837,0.58451 27.851696,6.84177 29.287016,6.96769 0.627042,0.055 4.431785,-2.26248 8.454983,-5.14998 z M 46.010304,151.38337 c 9.96279,-6.93914 17.925139,-13.12664 17.694109,-13.75 -0.231031,-0.62335 -3.290133,-9.8033 -6.798005,-20.39989 C 52.710306,104.5579 50.11819,98.124405 49.329166,98.427181 48.443349,98.767101 16.392497,120.77491 14.152669,122.58122 13.81359,122.85467 27.251413,164 27.6798,164 c 0.118986,0 8.367713,-5.67748 18.330504,-12.61663 z m 253.846486,0.0605 c 22.35377,-5.25586 43.23071,-10.06028 46.39321,-10.67651 3.1625,-0.61622 5.75,-1.41874 5.75,-1.78338 0,-0.36464 -1.1012,-1.16472 -2.44711,-1.77796 -3.57231,-1.62765 -5.85087,-5.72012 -5.95847,-10.70185 -0.0755,-3.49491 0.46403,-4.95497 2.68934,-7.27805 l 2.78377,-2.90607 -13.78377,3.31931 C 327.70269,121.465 306.875,126.35725 289,130.51105 c -17.875,4.1538 -33.95546,8.02067 -35.73436,8.59305 C 248.5768,140.61277 246,144.38303 246,149.73486 c 0,3.74467 0.54861,5.01375 3.4,7.86514 2.453,2.453 4.29319,3.4 6.60679,3.4 1.76374,0 21.49624,-4.30025 43.85,-9.5561 z M 85.359125,138.70527 c 0.316767,-1.2621 2.406692,-5.12726 4.644277,-8.58924 l 4.068337,-6.29451 -3.193119,-9.74174 -3.193119,-9.74174 -14.092751,-3.18902 c -7.751012,-1.753964 -15.056363,-3.444723 -16.234113,-3.757244 -1.986955,-0.527248 -1.664633,0.907472 4.470026,19.896944 l 6.61139,20.46517 6.029973,1.51105 c 8.753,2.1934 10.217006,2.11816 10.889099,-0.55967 z M 380.80701,123.44778 c 0.16885,-0.12565 -0.0562,-1.53814 -0.5,-3.13886 l -0.80701,-2.9104 -10.75,2.46304 c -10.3688,2.3757 -10.75,2.55776 -10.75,5.13408 0,1.46906 0.22969,2.90072 0.51042,3.18145 0.42366,0.42366 21.33143,-4.01107 22.29659,-4.72931 z M 214.41821,57.393011 c 1.71104,-0.656586 2.05078,-3.105239 0.72162,-5.201001 -1.12753,-1.777838 -6.16205,-0.513447 -5.57326,1.399689 0.23839,0.774566 0.64431,2.083301 0.90205,2.908301 0.50665,1.621776 1.47808,1.841418 3.94959,0.893011 z m 15.24144,-3.724295 c 0.0901,-0.09279 -0.074,-1.406216 -0.36453,-2.918716 -0.53434,-2.781563 -2.53111,-3.521026 -5.10311,-1.88983 -0.86316,0.547425 -1.07484,1.758507 -0.62242,3.561075 0.59093,2.354438 1.04732,2.640737 3.30594,2.073859 1.4412,-0.361719 2.69406,-0.733594 2.78412,-0.826388 z m 13.3267,-4.035293 c -0.008,-0.623383 -0.27206,-2.09643 -0.58787,-3.27344 -0.47501,-1.770289 -1.03415,-2.013504 -3.23635,-1.407753 -2.55242,0.702086 -2.92678,1.95643 -1.69344,5.674165 0.47696,1.437714 5.53597,0.527279 5.51766,-0.992972 z M 21.666667,267.33333 C 21.3,266.96667 21,265.49032 21,264.05257 c 0,-2.02227 -0.724097,-2.88741 -3.198327,-3.82133 -2.845967,-1.07423 -3.452643,-0.96831 -5.506733,0.9614 L 9.9865327,263.36128 7.0319814,260.53064 4.0774301,257.7 6.1404603,254.80274 c 1.7815471,-2.50195 1.8994364,-3.29221 0.8640279,-5.7919 C 6.2047293,247.08005 4.8389318,245.9039 2.902743,245.47864 0.31098116,244.90939 0,244.42786 0,240.9839 c 0,-3.57716 0.2245059,-3.87993 3.0924234,-4.17054 2.3954659,-0.24274 3.3942393,-1.03504 4.4315901,-3.51547 1.206737,-2.88546 1.1363903,-3.4599 -0.711366,-5.80894 l -2.0505326,-2.60683 2.2932566,-2.44106 c 2.7795061,-2.95865 3.6960545,-3.02321 6.4318505,-0.45306 1.846765,1.73494 2.51708,1.83665 5.266083,0.79902 2.454875,-0.92662 3.215797,-1.86179 3.448326,-4.238 0.275619,-2.81654 0.622427,-3.07247 4.548369,-3.35652 4.216967,-0.30511 4.25,-0.28141 4.25,3.04911 0,2.94342 0.441216,3.51616 3.584229,4.65269 3.259282,1.17857 3.786347,1.10619 5.813639,-0.79835 l 2.229411,-2.09442 2.867,2.9925 2.867001,2.9925 -2.24359,2.38819 c -2.132168,2.26959 -2.168504,2.5679 -0.731667,6.00674 C 46.654971,237.41848 47.388265,238 49.948973,238 52.827285,238 53,238.22014 53,241.88871 c 0,3.6282 -0.227019,3.9313 -3.388809,4.52445 -4.658064,0.87386 -6.576822,5.18347 -4.035001,9.06278 1.704035,2.60068 1.684191,2.71822 -0.894195,5.29661 l -2.636904,2.6369 -2.772545,-2.03738 C 36.77969,259.54021 36.172145,259.46941 33.25,260.67021 30.603314,261.75782 30,262.56211 30,265.00287 30,267.81114 29.758444,268 26.166667,268 c -2.108334,0 -4.133334,-0.3 -4.5,-0.66667 z M 31.783205,250.4393 c 5.379362,-3.76786 6.279191,-10.54767 2.104323,-15.85516 -3.801193,-4.83243 -12.886874,-4.28647 -16.33878,0.9818 -1.768065,2.69841 -2.039435,8.64869 -0.523607,11.48104 2.382546,4.45182 10.561337,6.33182 14.758064,3.39232 z"
         id="path5" />
      <path
         style="fill:#facb42"
         d="m 171.5,448.8681 c -24.16686,-1.70668 -46.12457,-5.71909 -52.90578,-9.66767 -6.53799,-3.80695 -4.01067,-7.73504 7.21644,-11.21614 C 137.9956,424.20621 176.4118,420 198.73293,420 202.72982,420 206,419.83997 206,419.64438 c 0,-0.1956 -4.52208,-21.9081 -10.04906,-48.25 -6.20809,-29.58813 -10.2688,-51.33437 -10.62399,-56.89438 -1.00329,-15.7055 2.84904,-32.00613 10.97863,-46.45462 5.81054,-10.32691 19.73206,-24.36089 30.17351,-30.41726 4.3885,-2.54546 8.27352,-4.62812 8.63337,-4.62812 0.35985,0 0.90147,0.94528 1.2036,2.10062 0.36378,1.39111 0.99426,1.8436 1.86663,1.33967 0.75954,-0.43875 0.96986,-0.3809 0.49673,0.13663 -0.45132,0.49366 -1.35132,0.90331 -2,0.91033 -2.88419,0.0312 -14.41965,7.42351 -20.79518,13.32627 -17.53803,16.23752 -26.30936,36.01884 -26.24416,59.18648 0.0292,10.39524 0.72568,14.76626 7.24946,45.5 3.9694,18.7 9.24402,43.675 11.72138,55.5 2.47736,11.825 4.81586,21.79768 5.19668,22.16151 1.37,1.30889 19.8886,4.72274 29.1924,5.38154 10.34863,0.73278 24.83039,-0.62865 35.77678,-3.36339 5.56399,-1.39005 6.70791,-2.0245 6.63442,-3.67966 -0.0736,-1.65629 -20.38416,-87.16722 -22.03005,-92.75 C 262.93701,337.24348 261.55284,337 253.43261,337 244.66667,337 244,336.85865 244,335 c 0,-1.9681 0.66667,-2 41.79466,-2 h 41.79465 l 8.39912,-17.75 c 4.61951,-9.7625 12.81192,-26.82479 18.20534,-37.91619 9.2777,-19.07928 10.76647,-23.34985 9.04092,-25.93411 -2.32235,-3.47803 -11.58891,-4.53202 -17.63499,-2.00581 -4.54746,1.90006 -6.85758,5.30688 -17.36312,25.60611 -4.98126,9.625 -10.78478,20.76619 -12.89671,24.75819 l -3.83987,7.2582 -21,-0.2582 -21,-0.25819 -0.60125,-5.59136 c -1.12762,-10.48649 -7.18583,-18.49401 -17.41541,-23.01904 -4.24827,-1.87921 -5.6614,-4.04348 -3.50879,-5.37387 1.68554,-1.04172 12.16709,4.7838 16.6211,9.23781 C 269.08567,286.24357 273,294.75933 273,300.03751 V 303 h 17.98996 17.98997 l 4.45165,-8.86377 4.45166,-8.86377 -31.19162,-9.01148 C 261.26303,268.91448 255.5,266.92989 255.5,265.51962 c 0,-1.22364 5.70656,-4.78626 19.5,-12.17389 20.71939,-11.0971 23.91086,-13.47623 21.76506,-16.22512 -1.08901,-1.39508 -1.04907,-1.45248 0.28698,-0.41246 0.85362,0.66448 2.53549,0.95097 3.73749,0.63664 2.05978,-0.53865 2.1224,-0.3906 1.08888,2.57416 -1.44361,4.14115 -4.38756,6.20454 -23.10031,16.19085 -11.78486,6.28914 -15.29071,8.58125 -14,9.15312 C 267.4828,266.4613 318.1913,281 319.66631,281 c 0.72619,0 4.51988,-6.4125 8.43044,-14.25 3.91055,-7.8375 8.07606,-15.30629 9.25667,-16.59732 8.23059,-9.00029 25.78044,-8.71239 30.14944,0.49458 0.91157,1.921 1.40571,4.24873 1.09809,5.17273 -0.30763,0.92401 0.21881,0.5736 1.16987,-0.77867 7.81744,-11.1154 16.01137,-14.70009 26.57925,-11.62793 6.75171,1.96278 9.64993,5.21495 9.64993,10.82846 0,3.21716 0.30172,3.85635 1.58742,3.36298 13.82926,-5.30679 30.98402,5.98731 25.27003,16.63691 -0.7466,1.39149 -13.95031,16.08135 -29.34159,32.64412 L 375.53172,337 h -54.08533 -54.08533 l 10.62245,44.16375 10.62244,44.16374 6.94703,1.65016 c 25.97695,6.17043 17.99936,14.53262 -18.55298,19.44744 -25.67408,3.45213 -75.0276,4.59498 -105.5,2.44301 z M 377.01328,301.77774 c 9.61769,-17.17225 17.64134,-31.84463 17.83032,-32.60531 0.18899,-0.76068 1.87533,-3.92316 3.74743,-7.02774 4.64574,-7.7042 4.48518,-11.01968 -0.66255,-13.68168 -3.59233,-1.85766 -12.2082,-1.88945 -15.72814,-0.058 -4.17837,2.174 -6.01974,4.66364 -19.23308,26.00431 C 352.6866,291.01345 333,328.95386 333,332.16282 333,332.62327 338.96847,333 346.26328,333 h 13.26327 z M 401,303.4295 c 15.125,-16.26063 27.90798,-30.43818 28.40662,-31.50568 2.93011,-6.27276 -7.97987,-12.93053 -17.63438,-10.76131 -7.81183,1.7552 -9.33167,3.78551 -28.56688,38.16175 C 373.19241,317.21892 365,332.11651 365,332.43001 c 0,0.31349 1.9125,0.5687 4.25,0.56712 l 4.25,-0.003 z M 21.582443,264.58777 c -0.843491,-4.4962 -5.386049,-6.41778 -9.225053,-3.90237 -2.3864608,1.56367 -2.6051042,1.52143 -5.1145408,-0.98801 C 4.6992574,257.1538 4.6750752,257.01652 6.4291938,255.07824 9.5332118,251.64834 6.8604569,245 2.3775553,245 0.27040745,245 0,244.54507 0,241 c 0,-3.77378 0.16890334,-4 2.98658,-4 2.4937791,0 3.2393286,-0.60491 4.5183426,-3.66602 1.4403692,-3.44729 1.4113827,-3.79417 -0.4858174,-5.81364 l -2.0175799,-2.14762 2.8311983,-2.71246 2.8311984,-2.71246 2.531066,1.99094 c 2.192649,1.72474 2.950497,1.83262 5.668039,0.80686 C 20.68344,222.05847 22,220.84848 22,219.86255 22,216.11641 23.172527,215 27.106989,215 30.872675,215 31,215.11193 31,218.42245 c 0,3.03615 0.402123,3.55516 3.5627,4.59824 2.992373,0.98757 3.845413,0.91995 5.328741,-0.42245 C 42.284568,220.43249 43.252458,220.57538 46,223.5 l 2.348628,2.5 -2.269499,2.41577 c -2.089436,2.2241 -2.166668,2.70015 -0.973426,6 C 46.236123,237.54189 46.823444,238 49.700888,238 52.883185,238 53,238.14163 53,242 c 0,3.85654 -0.118058,4 -3.291655,4 -2.795335,0 -3.531728,0.52966 -4.883857,3.51279 -1.505653,3.32184 -1.482152,3.6527 0.432342,6.08659 l 2.024546,2.57379 -2.547713,2.54771 -2.547714,2.54772 -2.842974,-1.98672 C 36.788523,259.49679 36.17017,259.4327 33.25,260.65045 30.60771,261.75231 30,262.56616 30,265.00287 30,267.81856 29.764585,268 26.111291,268 c -3.633453,0 -3.930728,-0.22398 -4.528848,-3.41223 z m 11.65178,-15.50574 C 36.038039,246.57682 36.5,245.5043 36.5,241.5 c 0,-4.0043 -0.461961,-5.07682 -3.265777,-7.58203 -7.977673,-7.12805 -19.903748,0.25749 -17.087716,10.58203 2.067436,7.57993 11.039799,9.98584 17.087716,4.58203 z m 435.354407,6.96841 c -5.80038,-1.26662 -12.60789,-3.77434 -19.5,-7.18331 -9.43563,-4.66704 -11.67904,-6.33331 -20.60248,-15.30223 -5.99367,-6.02423 -11.17991,-12.27294 -12.91839,-15.5649 -1.59749,-3.025 -3.50377,-5.85987 -4.23617,-6.2997 C 409.52744,210.61683 407,205.56927 407,203.04966 407,201.92235 406.59923,201 406.10941,201 c -0.94408,0 -1.55491,-2.89934 -3.16017,-15 -1.10546,-8.33309 -0.29199,-27.82753 1.23959,-29.7062 0.54084,-0.6634 0.6894,-1.68181 0.33013,-2.26312 -0.55141,-0.8922 2.07887,-7.63193 5.56795,-14.26711 0.5022,-0.95504 0.91309,-2.41754 0.91309,-3.25 0,-0.83246 0.45,-1.51357 1,-1.51357 0.55,0 1,-0.50221 1,-1.11602 0,-0.61382 1.67214,-3.39394 3.71587,-6.17805 2.3781,-3.23963 3.27813,-5.20793 2.5,-5.46731 C 417.25418,121.58473 417.82118,120 420.01682,120 c 1.10926,0 3.95712,-2.025 6.32859,-4.5 2.37146,-2.475 4.83889,-4.5 5.48317,-4.5 0.64428,0 1.17142,-0.4875 1.17142,-1.08333 0,-0.59584 0.5625,-0.88758 1.25,-0.64831 0.6875,0.23926 3.19641,-0.89318 5.57535,-2.51655 5.14092,-3.50811 17.45004,-9.273877 21.67465,-10.152713 2.57829,-0.536354 3.17571,-0.242872 4.25,2.087775 0.6875,1.491518 1.25,3.747148 1.25,5.012488 0,1.26535 0.45,2.30064 1,2.30064 0.55,0 1.03553,1.2375 1.07895,2.75 0.0434,1.5125 0.30592,2.1875 0.58333,1.5 1.24873,-3.09467 2.14244,-0.75807 1.62556,4.25 -0.39033,3.78201 -0.21158,5.5 0.57226,5.5 0.63608,0 1.1399,1.54696 1.1399,3.5 0,1.925 0.45,3.5 1,3.5 0.55,0 1,1.09844 1,2.44098 0,2.64884 1.57902,4.32196 2.23151,2.3645 0.31259,-0.93778 0.56783,-0.93917 1.14442,-0.006 0.40816,0.66041 0.26555,1.20075 -0.31691,1.20075 -0.58246,0 -1.05902,1.575 -1.05902,3.5 0,2.13333 0.4881,3.5 1.25,3.5 0.70955,0 1.32174,1.40516 1.41592,3.25 0.25278,4.95113 1.45746,9.75 2.44758,9.75 0.48757,0 0.8865,1.25485 0.8865,2.78856 0,1.53371 0.9,4.55385 2,6.71144 1.1,2.15759 2.01368,4.84023 2.03041,5.96144 0.0279,1.87056 0.11477,1.89369 1.05412,0.28064 0.56304,-0.96686 0.7478,-2.20436 0.41058,-2.75 C 488.15788,165.44644 488.29692,165 488.80409,165 c 1.31285,0 4.5078,-10.68633 3.62299,-12.11799 -0.45284,-0.7327 -0.31012,-0.92776 0.37087,-0.50688 0.69377,0.42877 1.65746,-1.09995 2.58175,-4.0955 0.81113,-2.62879 3.34398,-9.87259 5.62855,-16.09733 2.28458,-6.22473 3.89747,-11.9856 3.58422,-12.80193 -0.31326,-0.81634 -0.16713,-1.23553 0.32472,-0.93155 1.21045,0.7481 4.14843,-8.11425 3.36596,-10.15333 -0.40075,-1.04434 -0.22644,-1.37848 0.48857,-0.93657 0.70546,0.43599 1.74868,-1.33404 2.85527,-4.84453 2.03136,-6.444221 1.69912,-6.435059 13.46195,-0.37125 20.70093,10.67145 36.48373,31.09915 41.99708,54.35686 1.78781,7.54173 2.0592,11.1064 1.67498,22 -0.39682,11.25069 -0.88943,14.27834 -3.66086,22.5 -4.08805,12.12754 -9.6034,21.41229 -17.96435,30.24187 -11.14244,11.76697 -24.96275,20.20951 -39.63579,24.21267 -9.66033,2.63557 -28.2661,2.9205 -38.91137,0.5959 z M 147,248.34499 C 128.605,245.90525 112.08539,237.5883 99.721455,224.5422 87.353347,211.49169 80.359734,195.7817 78.445818,176.75 78.072471,173.0375 77.562567,170 77.312697,170 c -0.249869,0 -3.242005,1.98926 -6.649189,4.42058 l -6.194881,4.42057 -18.914848,-4.36802 c -10.403166,-2.4024 -19.17607,-4.20657 -19.495342,-4.00925 -0.319271,0.19732 -1.389959,-0.23313 -2.379306,-0.95655 -1.018958,-0.74508 -1.373427,-1.57823 -0.817619,-1.92174 0.580403,-0.35871 -2.050227,-9.68047 -6.440159,-22.82101 C 12.339609,132.54656 9.0194872,122.08874 9.0433049,121.52499 9.0671226,120.96125 17.002161,115.1 26.676723,108.5 36.351286,101.9 45.6069,95.260154 47.244754,93.744787 l 2.977918,-2.755213 14.138664,3.402524 C 72.137601,96.263486 80.975,98.349763 84,99.028269 c 3.025,0.678506 5.971259,1.604091 6.547243,2.056861 0.575983,0.45277 2.345135,4.88445 3.931447,9.84819 l 2.884205,9.02498 5.568555,-5.26765 c 7.05086,-6.66985 10.2546,-8.9026 18.91729,-13.18381 15.39801,-7.609901 35.86032,-10.003655 51.65126,-6.04235 15.64005,3.923454 32.89684,14.35749 35.2147,21.29199 0.6882,2.05894 1.06933,2.7053 0.84696,1.43637 -0.33438,-1.90809 -0.15633,-2.10135 1.02935,-1.11732 1.0814,0.89748 1.15687,1.52333 0.30716,2.54717 -0.91473,1.10218 -2.07742,0.50239 -6.18474,-3.19044 -6.89441,-6.19867 -16.62856,-11.77946 -26.21343,-15.02871 -9.48122,-3.214109 -26.44524,-4.387111 -35.69026,-2.467852 l -5.63712,1.170262 2.4437,9.19702 c 1.34404,5.05836 2.66738,9.92733 2.94075,10.81993 0.42469,1.38669 1.76668,1.55063 9.21998,1.12636 4.99265,-0.28421 11.18727,0.0154 14.48553,0.7006 17.72305,3.68188 32.97844,18.13186 37.90696,35.90565 6.36735,22.96264 -4.66289,47.26002 -26.39173,58.13565 C 173.37264,218.19603 168.92052,220 167.8842,220 166.71825,220 166,220.70453 166,221.84821 c 0,2.4343 3.73067,20.2158 4.37701,20.86214 0.67579,0.67578 12.97861,-3.34738 18.05225,-5.90329 15.44153,-7.77887 28.82272,-22.23831 35.27499,-38.11744 2.18848,-5.38588 2.31324,-6.44827 1.26859,-10.80284 -0.63722,-2.65625 -0.96313,-5.40491 -0.72424,-6.10816 0.23889,-0.70324 0.76966,0.93488 1.17947,3.64027 0.52512,3.46654 1.00876,4.49996 1.638,3.5 0.55836,-0.8873 0.77204,1.20366 0.57035,5.58111 -0.22221,4.82289 -1.03593,8.39957 -2.61631,11.5 -12.75207,25.01716 -37.64695,41.13681 -65.48056,42.39921 -4.97175,0.2255 -10.61455,0.2011 -12.53955,-0.0542 z m 20.46504,-32.8779 c 17.26179,-4.49613 30.70957,-19.59741 33.74064,-37.88929 3.85298,-23.25203 -12.82355,-46.69315 -36.70568,-51.59479 -17.68347,-3.62941 -37.7482,4.74776 -47.30797,19.75142 -9.56364,15.00975 -9.63848,35.54456 -0.18324,50.27928 10.44306,16.27408 31.49734,24.39155 50.45625,19.45338 z M 71.282517,168.93778 c 7.194418,-5.05245 7.210508,-5.07418 8.328752,-11.25 0.616225,-3.40328 1.450165,-7.59095 1.853201,-9.30594 l 0.732793,-3.11816 -6.848631,-1.37206 c -3.766748,-0.75464 -7.361826,-1.32219 -7.989063,-1.26122 -1.47639,0.14351 -35.412067,23.65044 -34.892673,24.16983 0.449078,0.44908 28.356141,7.00478 30.320191,7.12258 0.707898,0.0425 4.530841,-2.20081 8.49543,-4.98503 z M 44.818551,152.39992 c 9.174797,-6.38004 17.223829,-12.11754 17.886739,-12.75 0.934214,-0.8913 -0.266794,-5.70424 -5.340074,-21.39992 C 53.765265,107.1125 50.48281,98 50.070872,98 49.460799,98 15.561109,121.10556 14.255207,122.41146 13.77981,122.88686 27.056239,164 27.685153,164 c 0.248572,0 7.958601,-5.22003 17.133398,-11.60008 z m 40.540574,-13.69465 c 0.316767,-1.2621 2.406692,-5.12726 4.644277,-8.58924 l 4.068337,-6.29451 -3.205144,-9.77842 -3.205144,-9.77843 -15.951909,-3.67782 c -8.773551,-2.022797 -16.111979,-3.517747 -16.307618,-3.322107 -0.195639,0.195639 2.661704,9.432837 6.349652,20.527107 l 6.70536,20.17141 6.021532,1.43011 c 8.745395,2.07702 10.209901,1.9844 10.880657,-0.6881 z M 246.5,246.10996 c -2.2,-1.01537 -5.12336,-3.14299 -6.49637,-4.72804 l -2.49636,-2.88192 3.24636,2.93709 c 2.98944,2.70464 4.78057,2.49711 2.04637,-0.23709 -2.33083,-2.33083 0.97817,-1.25754 4.02371,1.30511 3.53728,2.97643 10.53644,3.93661 16.94068,2.324 2.37172,-0.59721 4.54134,-0.85672 4.82137,-0.57669 0.60528,0.60529 -12.89588,3.75723 -15.95843,3.72562 C 251.4573,247.96596 248.7,247.12532 246.5,246.10996 Z M 290.5,239 c 1.1,-0.47269 2.9,-0.8462 4,-0.83003 1.60779,0.0236 1.50973,0.1864 -0.5,0.83003 -3.41917,1.09501 -6.04822,1.09501 -3.5,0 z M 376,217 c 0,-0.55 0.45,-1 1,-1 0.55,0 1,0.45 1,1 0,0.55 -0.45,1 -1,1 -0.55,0 -1,-0.45 -1,-1 z M 221.55556,173.44444 c -0.37649,-2.00684 -0.48453,-3.84881 -0.24008,-4.09325 0.24444,-0.24445 0.75248,1.19752 1.12896,3.20437 0.37649,2.00684 0.48453,3.84881 0.24008,4.09325 -0.24444,0.24445 -0.75248,-1.19752 -1.12896,-3.20437 z m 35.22675,-9.99546 c -0.30306,-0.30307 -1.84056,-0.70176 -3.41667,-0.88598 -1.5761,-0.18423 -3.18024,-0.38627 -3.56475,-0.44898 -1.12641,-0.18371 -6.13086,-7.11738 -5.55365,-7.69459 0.28937,-0.28937 2.14362,1.18537 4.12054,3.27722 3.48979,3.69264 3.79144,3.80167 10.36332,3.74568 3.72289,-0.0317 5.4189,0.14668 3.7689,0.39644 -2.99439,0.45327 -2.99532,0.45553 -0.5,1.208 2.23926,0.67524 2.12628,0.76427 -1.08333,0.85355 -1.97084,0.0548 -3.8313,-0.14828 -4.13436,-0.45134 z M 488,161.55902 C 488,160.70156 488.45,160 489,160 c 0.55,0 1,0.42344 1,0.94098 0,0.51754 -0.45,1.2191 -1,1.55902 -0.55,0.33992 -1,-0.0835 -1,-0.94098 z M 218.42924,159.25 c -0.33488,-1.5125 -1.0633,-4.24265 -1.61872,-6.067 -0.55542,-1.82435 -0.78485,-3.542 -0.50985,-3.817 0.54455,-0.54455 2.17305,4.22013 3.20731,9.384 0.78751,3.9319 -0.21592,4.397 -1.07874,0.5 z m 48.2338,0.77206 c 0.46033,-0.41353 3.76196,-1.29555 7.33696,-1.96005 3.575,-0.66449 12.78495,-2.75029 20.46656,-4.63509 7.68161,-1.88481 14.65661,-3.39985 15.5,-3.36675 1.66714,0.0654 -9.99865,3.56302 -16.46656,4.93697 -2.2,0.46733 -7.15,1.72275 -11,2.7898 -7.56257,2.09603 -17.19552,3.45555 -15.83696,2.23512 z M 316.5,148.42987 c 6.42518,-1.78786 7.90258,-1.74345 3.63519,0.10927 -1.85065,0.80347 -4.55065,1.42062 -6,1.37144 -1.87121,-0.0635 -1.18561,-0.49277 2.36481,-1.48071 z M 326,146 c 1.375,-0.44035 3.625,-0.79225 5,-0.78201 2.2456,0.0167 2.19472,0.0963 -0.5,0.78201 -1.65,0.41985 -3.9,0.77176 -5,0.78201 -1.5672,0.0146 -1.45899,-0.15463 0.5,-0.78201 z m -112.2284,-6.93827 c -0.95062,-4.09104 -1.51312,-7.65354 -1.25,-7.91666 0.26312,-0.26312 0.4784,0.2716 0.4784,1.18826 0,0.91667 0.42961,1.66667 0.95469,1.66667 1.19626,0 2.31748,5.72983 1.87697,9.59207 -0.24774,2.17216 -0.76898,1.02589 -2.06006,-4.53034 z m 31.99719,3.36745 c 0.29526,-1.54455 1.34186,-2.90686 2.45729,-3.19855 1.49139,-0.39001 1.63281,-0.70192 0.60845,-1.34201 -0.90509,-0.56557 -0.53006,-0.78298 1.16547,-0.67564 2.47863,0.15692 6.18432,-0.5916 11,-2.2219 1.375,-0.46549 4.75,-1.08292 7.5,-1.37208 3.23407,-0.34005 0.93836,0.51285 -6.5,2.41487 -9.7445,2.49172 -11.90037,3.40964 -14.12276,6.01318 l -2.62277,3.07258 z m 95.98121,-0.0915 c 0.6875,-0.27741 1.8125,-0.27741 2.5,0 0.6875,0.27741 0.125,0.50439 -1.25,0.50439 -1.375,0 -1.9375,-0.22698 -1.25,-0.50439 z m 11.99939,-3.75078 c -6.04843,-1.62723 -8.27541,-3.67805 -9.58147,-8.82353 -1.14542,-4.5126 0.0993,-9.08328 3.16617,-11.62672 0.90414,-0.74982 1.42869,-1.71151 1.16566,-2.13709 -0.26302,-0.42559 0.0794,-0.71884 0.76101,-0.65167 0.68158,0.0672 3.48924,-0.27659 6.23924,-0.7639 4.45565,-0.78955 4.72782,-0.97609 2.5,-1.71344 -2.04358,-0.67637 -1.86102,-0.74663 1,-0.38485 1.925,0.24341 7.775,-0.61706 13,-1.91217 5.225,-1.2951 8.68594,-2.40397 7.69098,-2.46415 C 376.67816,107.92719 378.89555,106 382.11803,106 c 1.65,0 2.79076,0.3375 2.53503,0.75 -0.25574,0.4125 1.66295,0.59945 4.26376,0.41544 3.94238,-0.27893 5.25395,0.10738 7.88707,2.323 1.8502,1.55683 3.59968,4.29657 4.22389,6.61474 0.68199,2.5327 1.49872,3.73963 2.26889,3.35284 0.66183,-0.33239 0.48131,-0.007 -0.40115,0.72366 -1.58949,1.31558 -3.47531,5.62552 -3.09365,7.07032 0.10897,0.4125 -0.13937,0.65575 -0.55187,0.54055 -0.4125,-0.11519 -2.1,0.58845 -3.75,1.56366 -1.65,0.9752 -2.18913,1.52461 -1.19806,1.2209 1.05255,-0.32256 1.54691,-0.13956 1.18871,0.44001 -0.33727,0.54572 -1.59814,0.74551 -2.80194,0.44398 -1.20379,-0.30154 -4.66371,0.11719 -7.68871,0.93051 -3.64677,0.9805 -4.65762,1.53543 -3,1.64694 2.10083,0.14132 1.94117,0.30605 -1,1.03168 -1.925,0.47493 -4.09826,0.65426 -4.82947,0.39853 -1.96082,-0.6858 -9.21682,0.64932 -8.63604,1.58904 0.27397,0.4433 -0.0287,1.13163 -0.67269,1.52961 -0.73122,0.45192 -0.90292,0.29014 -0.45729,-0.4309 0.80719,-1.30607 -0.65613,-1.45419 -5.26328,-0.53276 -1.70982,0.34197 -2.86451,1.01697 -2.56598,1.5 0.29853,0.48304 0.40373,0.84788 0.23377,0.81076 -0.16996,-0.0371 -2.4468,-0.64263 -5.05963,-1.34557 z m 24.97978,-4.19111 c -0.33229,-0.33229 -1.1948,-0.36781 -1.91667,-0.0789 -0.79773,0.31922 -0.56078,0.55618 0.60417,0.60416 1.05416,0.0434 1.64479,-0.19293 1.3125,-0.52522 z m 2.11599,-10.9461 c 0.90347,-0.80285 -1.16735,-6.54007 -2.21544,-6.13788 -0.64921,0.24912 -5.77192,1.47812 -11.3838,2.73111 -10.07129,2.24865 -10.19544,2.31169 -9.58642,4.86759 0.33936,1.4242 0.77329,2.87345 0.9643,3.22056 0.30323,0.55106 21.31431,-3.87535 22.22136,-4.68138 z m -106.03266,8.86716 c 0.72187,-0.28887 1.58438,-0.25335 1.91667,0.0789 0.33229,0.33229 -0.25834,0.56864 -1.3125,0.52522 -1.16495,-0.048 -1.4019,-0.28494 -0.60417,-0.60416 z m 5.4375,-1.00622 c 0.9625,-0.25152 1.75,-0.92247 1.75,-1.49098 0,-0.56852 0.7076,-0.76214 1.57244,-0.43026 0.86485,0.33187 2.41254,0.15379 3.43931,-0.39572 1.11712,-0.59786 2.09482,-0.6303 2.43445,-0.0808 0.31217,0.5051 -1.70767,1.40632 -4.48853,2.00271 -4.87417,1.04532 -8.29431,1.3323 -4.70767,0.39501 z m -69.17105,-3.894 c 0.048,-1.16495 0.28494,-1.4019 0.60416,-0.60417 0.28887,0.72187 0.25335,1.58437 -0.0789,1.91667 -0.3323,0.33229 -0.56864,-0.25834 -0.52522,-1.3125 z m 88.57863,-0.96671 c 0.27936,-0.72802 1.1457,-1.07894 1.92518,-0.77983 1.87817,0.72072 1.78977,0.99919 -0.50794,1.60005 -1.31432,0.3437 -1.76401,0.0834 -1.41724,-0.82022 z M 305.5,125 c 2.75248,-1.18278 3.731,-1.18278 3,0 -0.33992,0.55 -1.60398,0.96837 -2.80902,0.92971 C 303.57862,125.86195 303.57176,125.82859 305.5,125 Z m -95.42105,-1.58333 c 0.048,-1.16495 0.28494,-1.4019 0.60416,-0.60417 0.28887,0.72187 0.25335,1.58437 -0.0789,1.91667 -0.3323,0.33229 -0.56864,-0.25834 -0.52522,-1.3125 z m 105.25438,-1.04424 c 0,-0.84233 1.19094,-1.41561 3.08334,-1.48421 1.69583,-0.0615 4.62151,-0.28716 6.5015,-0.5015 5.01285,-0.57154 3.35464,0.33957 -3.54927,1.95014 -5.09833,1.18936 -6.03557,1.19488 -6.03557,0.0356 z m 16.06182,-3.08971 c 1.52203,-0.38973 1.62047,-0.6587 0.5,-1.36613 -0.92053,-0.5812 -0.0344,-0.81939 2.60485,-0.70018 2.2,0.0994 5.8,-0.12839 8,-0.50615 2.2,-0.37777 0.85,0.19761 -3,1.27861 -3.85,1.081 -7.675,1.92353 -8.5,1.87229 -0.92359,-0.0574 -0.77174,-0.27964 0.39515,-0.57844 z m 70.6838,-3.86605 c 0.048,-1.16495 0.28494,-1.4019 0.60416,-0.60417 0.28887,0.72187 0.25335,1.58437 -0.0789,1.91667 -0.33229,0.33229 -0.56864,-0.25834 -0.52522,-1.3125 z M 364,110.02301 c 0,-0.43436 0.9,-1.0251 2,-1.31276 1.1,-0.28766 2,-0.16762 2,0.26674 0,0.43436 -0.9,1.0251 -2,1.31276 -1.1,0.28766 -2,0.16762 -2,-0.26674 z m 34.54271,0.0461 c -0.31644,-0.512 -0.11799,-1.21356 0.44098,-1.55902 0.55897,-0.34546 1.01631,0.0734 1.01631,0.9309 0,1.75653 -0.60006,2.01516 -1.45729,0.62812 z M 373.75,108.33772 c 0.6875,-0.27741 1.8125,-0.27741 2.5,0 0.6875,0.27741 0.125,0.50439 -1.25,0.50439 -1.375,0 -1.9375,-0.22698 -1.25,-0.50439 z m -77.25,-1.28287 c -1.1,-0.44252 -2.3056,-0.62906 -2.6791,-0.41452 -0.77399,0.44457 -0.16202,-5.63254 0.64886,-6.44342 0.29163,-0.291634 0.53024,-0.054 0.53024,0.52807 0,0.67916 2.95571,0.3898 8.25,-0.807657 4.5375,-1.026287 8.61406,-1.877529 9.05902,-1.891649 0.44496,-0.01412 0.5011,-0.523884 0.12477,-1.132808 -0.45578,-0.737467 -0.006,-0.89178 1.34788,-0.46216 2.70523,0.858606 11.37757,-1.37158 13.04249,-3.354018 0.72828,-0.867179 1.03923,-1.014188 0.69098,-0.326688 -0.40819,0.80585 0.11941,1.25 1.48486,1.25 1.34635,0 1.85807,-0.420633 1.40451,-1.154508 -0.39992,-0.647081 -0.27818,-0.88545 0.27698,-0.542341 1.10068,0.680259 1.10882,3.609089 0.0149,5.37902 -0.38989,0.630855 -0.36859,1.33669 0.0473,1.568524 0.41593,0.231833 0.17498,0.277197 -0.53543,0.100809 -2.39408,-0.594428 -16.16469,2.910116 -15.52186,3.950226 0.3561,0.57618 0.12197,0.69792 -0.54706,0.28444 -1.42491,-0.88065 -12.25686,1.41479 -11.61061,2.46044 0.25284,0.4091 -0.24952,1.01597 -1.11634,1.34861 -1.89501,0.72718 -2.33449,0.69673 -4.91247,-0.34037 z m 4.22917,-0.65902 c -0.33229,-0.33229 -1.1948,-0.36781 -1.91667,-0.0789 -0.79773,0.31922 -0.56078,0.55618 0.60417,0.60416 1.05416,0.0434 1.64479,-0.19292 1.3125,-0.52522 z m 5.08333,0.92106 c 0.72187,-0.28887 1.58438,-0.25335 1.91667,0.0789 0.33229,0.3323 -0.25834,0.56864 -1.3125,0.52522 -1.16495,-0.048 -1.4019,-0.28494 -0.60417,-0.60416 z M 394,106 c 0,-0.55 0.45,-1 1,-1 0.55,0 1,0.45 1,1 0,0.55 -0.45,1 -1,1 -0.55,0 -1,-0.45 -1,-1 z m 114.63916,-2.49794 c -0.8468,-2.20673 -0.86188,-2.16873 0.86084,-2.16873 1.69794,0 1.84226,0.57844 0.62385,2.50052 -0.67448,1.06402 -0.97482,0.9969 -1.48469,-0.33179 z M 428.15789,98 c 0,-1.375 0.22698,-1.9375 0.50439,-1.25 0.27741,0.6875 0.27741,1.8125 0,2.5 -0.27741,0.6875 -0.50439,0.125 -0.50439,-1.25 z M 204,97.968615 c 0,-1.288937 2.84907,-2.452874 3.76417,-1.537781 0.37285,0.372852 0.0159,1.096553 -0.79313,1.608226 C 205.03529,99.263268 204,99.23872 204,97.968615 Z m 101.8125,-0.651729 c 0.72187,-0.288871 1.58438,-0.253344 1.91667,0.07895 0.33229,0.332292 -0.25834,0.568641 -1.3125,0.52522 -1.16495,-0.04798 -1.4019,-0.284941 -0.60417,-0.604167 z m 202,0 c 0.72187,-0.288871 1.58438,-0.253344 1.91667,0.07895 0.33229,0.332292 -0.25834,0.568641 -1.3125,0.52522 -1.16495,-0.04798 -1.4019,-0.284941 -0.60417,-0.604167 z M 268.1987,93.024645 C 268.03233,90.841245 268.40626,90 269.54313,90 c 0.8662,0 1.29997,-0.444846 0.96395,-0.988546 -0.33864,-0.547937 0.0242,-0.744799 0.81415,-0.441679 0.78382,0.300776 7.44469,-0.852065 14.80194,-2.56187 17.7305,-4.120518 17.45125,-4.030111 15.75896,-5.101916 -0.76017,-0.48145 -0.90963,-0.882254 -0.33213,-0.890676 0.5775,-0.0084 1.59,0.524687 2.25,1.184687 0.89752,0.897525 1.2,0.905436 1.2,0.03139 0,-0.642739 0.5865,-0.943554 1.30334,-0.668479 1.5771,0.605192 29.404,-6.089004 28.10814,-6.761851 -0.50131,-0.260296 -0.28564,-0.311834 0.47928,-0.11453 0.76492,0.197304 4.0537,-0.165167 7.3084,-0.805491 4.30118,-0.846205 6.21791,-0.863963 7.01686,-0.06501 1.72605,1.726046 -0.75147,3.929696 -5.27784,4.694421 -2.29744,0.388151 -3.68363,1.092405 -3.3172,1.685306 0.38275,0.6193 -0.10553,0.786756 -1.24575,0.427227 -1.03138,-0.325211 -3.22523,-0.1871 -4.87523,0.306913 -1.65,0.494012 -2.4375,0.936883 -1.75,0.984157 0.6875,0.04727 1.25,0.524815 1.25,1.061202 0,0.633666 -0.89843,0.633666 -2.5651,0 -3.12671,-1.188775 -3.70316,-1.218327 -3.04673,-0.156193 0.27841,0.450481 -0.88395,0.615024 -2.58303,0.365652 -2.35727,-0.345973 -2.89824,-0.144364 -2.28314,0.850883 0.58554,0.947434 0.33533,1.123641 -0.91451,0.644031 -2.31696,-0.889103 -47.01674,9.443029 -45.37149,10.487395 0.88074,0.559071 0.90978,0.807001 0.0958,0.81767 -0.64252,0.0084 -1.99252,0.282763 -3,0.609645 -1.56053,0.506322 -1.60966,0.419434 -0.33179,-0.586746 1.26899,-0.999186 1.19199,-1.108189 -0.5,-0.707786 -1.1,0.260311 -2.69094,0.760437 -3.53541,1.111391 -1.16007,0.482109 -1.59176,-0.101303 -1.76589,-2.386546 z M 480,95 c 0,-0.55 0.675,-1 1.5,-1 0.825,0 1.5,0.45 1.5,1 0,0.55 -0.675,1 -1.5,1 -0.825,0 -1.5,-0.45 -1.5,-1 z M 280,94.09362 c 0,-0.49851 0.9,-0.671025 2,-0.383369 1.1,0.287656 2,0.695528 2,0.90638 C 284,94.827484 283.1,95 282,95 c -1.1,0 -2,-0.407871 -2,-0.90638 z m 17.8125,-3.776734 c 0.72187,-0.288871 1.58438,-0.253344 1.91667,0.07895 0.33229,0.332292 -0.25834,0.568641 -1.3125,0.52522 -1.16495,-0.04798 -1.4019,-0.284941 -0.60417,-0.604167 z m 17,-5 c 0.72187,-0.288871 1.58438,-0.253344 1.91667,0.07895 0.33229,0.332292 -0.25834,0.568641 -1.3125,0.52522 -1.16495,-0.04798 -1.4019,-0.284941 -0.60417,-0.604167 z M 294,81 c 0,-0.55 1.09844,-1 2.44098,-1 1.34254,0 2.7191,0.45 3.05902,1 0.36058,0.583423 -0.65628,1 -2.44098,1 C 295.37656,82 294,81.55 294,81 Z m 33.5,-7 c -0.33992,-0.55 0.0835,-1 0.94098,-1 0.85746,0 1.55902,0.45 1.55902,1 0,0.55 -0.42344,1 -0.94098,1 -0.51754,0 -1.2191,-0.45 -1.55902,-1 z m 23.57895,-0.583333 c 0.048,-1.164943 0.28494,-1.4019 0.60416,-0.604167 0.28887,0.721875 0.25335,1.584375 -0.0789,1.916667 -0.33229,0.332291 -0.56864,-0.258334 -0.52522,-1.3125 z M 196.11871,67.55718 c -1.37918,-5.47726 -1.38698,-7.050996 -0.0586,-11.834514 1.35691,-4.886215 5.84447,-9.947632 10.64061,-12.001315 C 208.79033,42.826599 251.45,32.580048 301.5,20.951237 370.14578,5.001812 393.54851,-0.07530811 396.7683,0.28319855 c 8.53628,0.95046925 15.29385,7.99963655 16.82041,17.54622245 0.63616,3.978286 0.60831,4.022223 -3.2235,5.086188 -2.12587,0.590281 -4.67927,1.075747 -5.67423,1.078814 -1.11202,0.0034 -1.5341,0.450395 -1.09549,1.160085 0.44427,0.718841 0.27408,0.882917 -0.45099,0.434799 -0.64048,-0.395841 -5.67807,0.288045 -11.19463,1.519747 -7.31207,1.632591 -9.89225,2.598719 -9.52138,3.565202 C 382.7083,31.403415 382.50135,32 381.96862,32 381.43588,32 381,31.55 381,31 c 0,-0.55 -0.70156,-1 -1.55902,-1 -0.93567,0 -1.26991,0.467781 -0.83595,1.169939 0.49187,0.795858 0.16927,0.957431 -1.00891,0.505321 -2.09078,-0.802308 -16.95732,2.109652 -17.43153,3.414373 -0.18448,0.507555 -0.70811,0.692487 -1.16363,0.410959 -0.844,-0.521622 -13.6491,2.16391 -15.36012,3.221382 -0.51719,0.319637 -2.33545,0.711973 -4.04059,0.871857 -5.95565,0.558437 -30.91115,7.137388 -29.51173,7.780098 0.77631,0.356536 0.28648,0.41861 -1.08852,0.137943 -3.00627,-0.613645 -17.11151,2.498685 -16.417,3.622421 0.26881,0.434953 -0.76489,0.713666 -2.29712,0.619362 -4.90379,-0.301812 -16.64287,2.39172 -15.13226,3.472094 0.98236,0.702575 0.82735,0.793106 -0.57333,0.334846 -2.38477,-0.780225 -12.70113,1.434867 -11.99603,2.575745 0.28334,0.458449 -0.96971,0.577434 -2.78455,0.26441 -2.65352,-0.457679 -3.00596,-0.33834 -1.79971,0.60939 1.26247,0.991901 1.19267,1.077788 -0.44076,0.542377 -1.06741,-0.349881 -7.24864,0.581623 -13.73605,2.07001 -9.55146,2.191359 -11.58442,2.960241 -10.6868,4.041815 1.30656,1.574304 -0.25366,1.818387 -1.79175,0.280303 -0.5974,-0.597409 -2.24416,-0.756983 -3.79502,-0.367744 -2.08327,0.522869 -2.41741,0.915355 -1.39464,1.638174 0.90599,0.64029 0.12125,0.780889 -2.40417,0.430746 -2.26245,-0.313684 -7.74025,0.446571 -13.8137,1.917182 C 204.40162,70.903351 199.27968,72 198.55501,72 c -0.72467,0 -1.821,-1.999269 -2.4363,-4.44282 z m 18.71878,-10.435583 c 2.01251,-1.275638 1.03432,-5.574055 -1.33749,-5.877325 -3.07881,-0.393668 -4.37219,0.973468 -3.79205,4.008276 0.5334,2.790309 2.52897,3.517436 5.12954,1.869049 z m 14.95913,-3.584882 c 0.16539,-0.165394 0.005,-1.478817 -0.35636,-2.918716 C 228.96641,48.73004 228.13274,48 226.45061,48 c -2.92083,0 -3.81958,1.393786 -3.00123,4.654321 0.54732,2.180727 1.02078,2.444491 3.34209,1.861881 1.48744,-0.373323 2.83975,-0.814092 3.00515,-0.979487 z M 240.75,51.369714 c 2.21091,-0.592501 2.83194,-2.689639 1.68307,-5.683543 -0.68177,-1.776649 -5.99252,-0.742577 -5.83307,1.135776 0.055,0.647929 0.1675,2.078053 0.25,3.178053 0.16235,2.164697 0.49612,2.281919 3.9,1.369714 z M 207,71.616577 c 0,-0.210882 1.11138,-0.595877 2.46974,-0.855543 1.35835,-0.259666 2.2318,-0.08713 1.94098,0.383423 C 210.89864,71.97302 207,72.390327 207,71.616577 Z m 7.8125,-2.299691 c 0.72187,-0.288871 1.58437,-0.253344 1.91667,0.07895 0.33229,0.332292 -0.25834,0.568641 -1.3125,0.52522 -1.16495,-0.04798 -1.4019,-0.284941 -0.60417,-0.604167 z m 21.73021,-3.247788 c -0.31644,-0.511996 -0.11799,-1.213553 0.44098,-1.559017 0.55897,-0.345463 1.01631,0.07344 1.01631,0.930902 0,1.756526 -0.60006,2.015159 -1.45729,0.628115 z m 27.54062,-6.352066 C 264.3125,59.5614 265.2875,58.8313 266.25,58.094588 267.74798,56.948009 268,56.98876 268,58.377555 268,59.374934 267.16527,60 265.83333,60 c -1.19166,0 -1.97916,-0.127335 -1.75,-0.282968 z M 284.5,56 c -0.33992,-0.55 -0.25398,-1.006891 0.19098,-1.015313 0.44496,-0.0084 0.13402,-0.4879 -0.69098,-1.065506 -1.14484,-0.801536 -0.90807,-0.886884 1,-0.36046 3.14014,0.866346 3.35137,1.063739 2.54112,2.374748 C 286.71236,57.274425 285.30664,57.305178 284.5,56 Z m -5,-1 c -0.33992,-0.55 0.0835,-1 0.94098,-1 0.85746,0 1.55902,0.45 1.55902,1 0,0.55 -0.42344,1 -0.94098,1 -0.51754,0 -1.2191,-0.45 -1.55902,-1 z m 25,-4 c -0.33992,-0.55 -0.14148,-1 0.44098,-1 0.58246,0 1.05902,0.45 1.05902,1 0,0.55 -0.19844,1 -0.44098,1 -0.24254,0 -0.7191,-0.45 -1.05902,-1 z m 10.32259,-4.33404 c 1.49616,-0.667608 2.57576,-0.667608 3.24337,0 0.66761,0.667609 -0.0789,1.000707 -2.24267,1.000707 -2.99116,0 -3.06898,-0.07782 -1.0007,-1.000707 z m 12.98991,-3.349074 c 0.72187,-0.288871 1.58438,-0.253344 1.91667,0.07895 0.33229,0.332292 -0.25834,0.568641 -1.3125,0.52522 -1.16495,-0.04798 -1.4019,-0.284941 -0.60417,-0.604167 z m 3.27083,-0.67621 c 1.17815,-1.016007 6.02326,-1.622161 5.44144,-0.680758 C 336.17123,42.531963 334.70852,43 333.27432,43 c -1.43421,0 -2.42015,-0.161696 -2.19099,-0.359324 z m 65.72917,-15.32379 c 0.72187,-0.288871 1.58438,-0.253344 1.91667,0.07895 0.33229,0.332292 -0.25834,0.568641 -1.3125,0.52522 -1.16495,-0.04798 -1.4019,-0.284941 -0.60417,-0.604167 z"
         id="path4" />
      <path
         style="fill:#9faab6"
         d="m 171.5,448.8681 c -24.16686,-1.70668 -46.12457,-5.71909 -52.90578,-9.66767 -6.53799,-3.80695 -4.01067,-7.73504 7.21644,-11.21614 C 137.9956,424.20621 176.4118,420 198.73293,420 202.72982,420 206,419.83997 206,419.64438 c 0,-0.1956 -4.52208,-21.9081 -10.04906,-48.25 -6.20809,-29.58813 -10.2688,-51.33437 -10.62399,-56.89438 -1.00329,-15.7055 2.84904,-32.00613 10.97863,-46.45462 5.81054,-10.32691 19.73206,-24.36089 30.17351,-30.41726 4.3885,-2.54546 8.27352,-4.62812 8.63337,-4.62812 0.35985,0 0.90147,0.94528 1.2036,2.10062 0.36378,1.39111 0.99426,1.8436 1.86663,1.33967 0.75954,-0.43875 0.96986,-0.3809 0.49673,0.13663 -0.45132,0.49366 -1.35132,0.90331 -2,0.91033 -2.88419,0.0312 -14.41965,7.42351 -20.79518,13.32627 -17.53803,16.23752 -26.30936,36.01884 -26.24416,59.18648 0.0292,10.39524 0.72568,14.76626 7.24946,45.5 3.9694,18.7 9.24402,43.675 11.72138,55.5 2.47736,11.825 4.81586,21.79768 5.19668,22.16151 1.37,1.30889 19.8886,4.72274 29.1924,5.38154 10.34863,0.73278 24.83039,-0.62865 35.77678,-3.36339 5.56399,-1.39005 6.70791,-2.0245 6.63442,-3.67966 -0.0736,-1.65629 -20.38416,-87.16722 -22.03005,-92.75 C 262.93701,337.24348 261.55284,337 253.43261,337 244.66667,337 244,336.85865 244,335 c 0,-1.9681 0.66667,-2 41.79466,-2 h 41.79465 l 8.39912,-17.75 c 4.61951,-9.7625 12.81192,-26.82479 18.20534,-37.91619 9.2777,-19.07928 10.76647,-23.34985 9.04092,-25.93411 -2.32235,-3.47803 -11.58891,-4.53202 -17.63499,-2.00581 -4.54746,1.90006 -6.85758,5.30688 -17.36312,25.60611 -4.98126,9.625 -10.78478,20.76619 -12.89671,24.75819 l -3.83987,7.2582 -21,-0.2582 -21,-0.25819 -0.60125,-5.59136 c -1.12762,-10.48649 -7.18583,-18.49401 -17.41541,-23.01904 -4.24827,-1.87921 -5.6614,-4.04348 -3.50879,-5.37387 1.68554,-1.04172 12.16709,4.7838 16.6211,9.23781 C 269.08567,286.24357 273,294.75933 273,300.03751 V 303 h 17.98996 17.98997 l 4.45165,-8.86377 4.45166,-8.86377 -31.19162,-9.01148 C 261.26303,268.91448 255.5,266.92989 255.5,265.51962 c 0,-1.22364 5.70656,-4.78626 19.5,-12.17389 20.71939,-11.0971 23.91086,-13.47623 21.76506,-16.22512 -1.08901,-1.39508 -1.04907,-1.45248 0.28698,-0.41246 0.85362,0.66448 2.53549,0.95097 3.73749,0.63664 2.05978,-0.53865 2.1224,-0.3906 1.08888,2.57416 -1.44361,4.14115 -4.38756,6.20454 -23.10031,16.19085 -11.78486,6.28914 -15.29071,8.58125 -14,9.15312 C 267.4828,266.4613 318.1913,281 319.66631,281 c 0.72619,0 4.51988,-6.4125 8.43044,-14.25 3.91055,-7.8375 8.07606,-15.30629 9.25667,-16.59732 8.23059,-9.00029 25.78044,-8.71239 30.14944,0.49458 0.91157,1.921 1.40571,4.24873 1.09809,5.17273 -0.30763,0.92401 0.21881,0.5736 1.16987,-0.77867 7.81744,-11.1154 16.01137,-14.70009 26.57925,-11.62793 6.75171,1.96278 9.64993,5.21495 9.64993,10.82846 0,3.21716 0.30172,3.85635 1.58742,3.36298 13.82926,-5.30679 30.98402,5.98731 25.27003,16.63691 -0.7466,1.39149 -13.95031,16.08135 -29.34159,32.64412 L 375.53172,337 h -54.08533 -54.08533 l 10.62245,44.16375 10.62244,44.16374 6.94703,1.65016 c 25.97695,6.17043 17.99936,14.53262 -18.55298,19.44744 -25.67408,3.45213 -75.0276,4.59498 -105.5,2.44301 z M 377.01328,301.77774 c 9.61769,-17.17225 17.64134,-31.84463 17.83032,-32.60531 0.18899,-0.76068 1.87533,-3.92316 3.74743,-7.02774 4.64574,-7.7042 4.48518,-11.01968 -0.66255,-13.68168 -3.59233,-1.85766 -12.2082,-1.88945 -15.72814,-0.058 -4.17837,2.174 -6.01974,4.66364 -19.23308,26.00431 C 352.6866,291.01345 333,328.95386 333,332.16282 333,332.62327 338.96847,333 346.26328,333 h 13.26327 z M 401,303.4295 c 15.125,-16.26063 27.90798,-30.43818 28.40662,-31.50568 2.93011,-6.27276 -7.97987,-12.93053 -17.63438,-10.76131 -7.81183,1.7552 -9.33167,3.78551 -28.56688,38.16175 C 373.19241,317.21892 365,332.11651 365,332.43001 c 0,0.31349 1.9125,0.5687 4.25,0.56712 l 4.25,-0.003 z M 21.582443,264.58777 c -0.843491,-4.4962 -5.386049,-6.41778 -9.225053,-3.90237 -2.3864608,1.56367 -2.6051042,1.52143 -5.1145408,-0.98801 C 4.6992574,257.1538 4.6750752,257.01652 6.4291938,255.07824 9.5332118,251.64834 6.8604569,245 2.3775553,245 0.27040745,245 0,244.54507 0,241 c 0,-3.77378 0.16890334,-4 2.98658,-4 2.4937791,0 3.2393286,-0.60491 4.5183426,-3.66602 1.4403692,-3.44729 1.4113827,-3.79417 -0.4858174,-5.81364 l -2.0175799,-2.14762 2.8311983,-2.71246 2.8311984,-2.71246 2.531066,1.99094 c 2.192649,1.72474 2.950497,1.83262 5.668039,0.80686 C 20.68344,222.05847 22,220.84848 22,219.86255 22,216.11641 23.172527,215 27.106989,215 30.872675,215 31,215.11193 31,218.42245 c 0,3.03615 0.402123,3.55516 3.5627,4.59824 2.992373,0.98757 3.845413,0.91995 5.328741,-0.42245 C 42.284568,220.43249 43.252458,220.57538 46,223.5 l 2.348628,2.5 -2.269499,2.41577 c -2.089436,2.2241 -2.166668,2.70015 -0.973426,6 C 46.236123,237.54189 46.823444,238 49.700888,238 52.883185,238 53,238.14163 53,242 c 0,3.85654 -0.118058,4 -3.291655,4 -2.795335,0 -3.531728,0.52966 -4.883857,3.51279 -1.505653,3.32184 -1.482152,3.6527 0.432342,6.08659 l 2.024546,2.57379 -2.547713,2.54771 -2.547714,2.54772 -2.842974,-1.98672 C 36.788523,259.49679 36.17017,259.4327 33.25,260.65045 30.60771,261.75231 30,262.56616 30,265.00287 30,267.81856 29.764585,268 26.111291,268 c -3.633453,0 -3.930728,-0.22398 -4.528848,-3.41223 z m 11.65178,-15.50574 C 36.038039,246.57682 36.5,245.5043 36.5,241.5 c 0,-4.0043 -0.461961,-5.07682 -3.265777,-7.58203 -7.977673,-7.12805 -19.903748,0.25749 -17.087716,10.58203 2.067436,7.57993 11.039799,9.98584 17.087716,4.58203 z M 147,248.34499 c -13.81365,-1.83211 -27.43522,-7.38363 -38.2031,-15.5698 -3.73829,-2.842 -6.7969,-5.42423 -6.7969,-5.73829 0,-0.31405 4.89221,-5.44805 10.87158,-11.40888 l 10.87158,-10.83786 5.14544,3.53944 c 10.48649,7.21344 24.48525,10.1919 36.33088,7.72998 23.17158,-4.81584 39.77971,-28.74426 35.95807,-51.80715 -4.00806,-24.18782 -25.4821,-40.95111 -49.82866,-38.89777 -6.03432,0.50893 -7.24832,0.3498 -7.77354,-1.0189 -0.34234,-0.89211 -0.38085,-1.86359 -0.0856,-2.15885 1.17797,-1.17797 17.44027,-1.33323 22.81326,-0.2178 17.67918,3.67018 32.9427,18.13957 37.86652,35.89641 6.36735,22.96264 -4.66289,47.26002 -26.39173,58.13565 -4.40516,2.20486 -8.85728,4.00883 -9.8936,4.00883 -1.16595,0 -1.8842,0.70453 -1.8842,1.84821 0,2.4343 3.73067,20.2158 4.37701,20.86214 0.67579,0.67578 12.97861,-3.34738 18.05225,-5.90329 15.44153,-7.77887 28.82272,-22.23831 35.27499,-38.11744 2.18848,-5.38588 2.31324,-6.44827 1.26859,-10.80284 -0.63722,-2.65625 -0.96313,-5.40491 -0.72424,-6.10816 0.23889,-0.70324 0.76966,0.93488 1.17947,3.64027 0.52512,3.46654 1.00876,4.49996 1.638,3.5 0.55836,-0.8873 0.77204,1.20366 0.57035,5.58111 -0.22221,4.82289 -1.03593,8.39957 -2.61631,11.5 -12.75207,25.01716 -37.64695,41.13681 -65.48056,42.39921 -4.97175,0.2255 -10.61455,0.2011 -12.53955,-0.0542 z m 99.5,-2.23503 c -2.2,-1.01537 -5.12336,-3.14299 -6.49637,-4.72804 l -2.49636,-2.88192 3.24636,2.93709 c 2.98944,2.70464 4.78057,2.49711 2.04637,-0.23709 -2.33083,-2.33083 0.97817,-1.25754 4.02371,1.30511 3.53728,2.97643 10.53644,3.93661 16.94068,2.324 2.37172,-0.59721 4.54134,-0.85672 4.82137,-0.57669 0.60528,0.60529 -12.89588,3.75723 -15.95843,3.72562 C 251.4573,247.96596 248.7,247.12532 246.5,246.10996 Z M 290.5,239 c 1.1,-0.47269 2.9,-0.8462 4,-0.83003 1.60779,0.0236 1.50973,0.1864 -0.5,0.83003 -3.41917,1.09501 -6.04822,1.09501 -3.5,0 z M 533.95201,211.88934 C 523.8034,204.09727 511.225,194.53748 506,190.64536 c -5.225,-3.89212 -9.725,-7.31706 -10,-7.61097 -0.275,-0.29391 -2.5524,-2.18229 -5.0609,-4.19638 -3.27159,-2.6268 -4.92982,-4.88829 -5.86597,-8 C 484.35533,168.4521 483.42243,165.375 483,164 c -0.42243,-1.375 -1.33512,-4.525 -2.0282,-7 -0.69308,-2.475 -1.91244,-6.525 -2.70967,-9 -0.79723,-2.475 -2.33318,-7.65 -3.41322,-11.5 -1.08004,-3.85 -2.38787,-8.4625 -2.90631,-10.25 -0.51843,-1.7875 -1.35549,-4.7125 -1.86013,-6.5 -0.50464,-1.7875 -1.89176,-6.4 -3.08247,-10.25 -3.02929,-9.794759 -3.89318,-13.501256 -3.14469,-13.492198 1.03242,0.01249 3.14469,5.178868 3.14469,7.691558 0,1.26535 0.45,2.30064 1,2.30064 0.55,0 1.03553,1.2375 1.07895,2.75 0.0434,1.5125 0.30592,2.1875 0.58333,1.5 1.24873,-3.09467 2.14244,-0.75807 1.62556,4.25 -0.39033,3.78201 -0.21158,5.5 0.57226,5.5 0.63608,0 1.1399,1.54696 1.1399,3.5 0,1.925 0.45,3.5 1,3.5 0.55,0 1,1.09844 1,2.44098 0,2.64884 1.57902,4.32196 2.23151,2.3645 0.31259,-0.93778 0.56783,-0.93917 1.14442,-0.006 0.40816,0.66041 0.26555,1.20075 -0.31691,1.20075 -0.58246,0 -1.05902,1.575 -1.05902,3.5 0,2.13333 0.4881,3.5 1.25,3.5 0.70955,0 1.32174,1.40516 1.41592,3.25 0.25278,4.95113 1.45746,9.75 2.44758,9.75 0.48757,0 0.8865,1.25485 0.8865,2.78856 0,1.53371 0.9,4.55385 2,6.71144 1.1,2.15759 2.01368,4.84023 2.03041,5.96144 0.0279,1.87056 0.11477,1.89369 1.05412,0.28064 0.56304,-0.96686 0.7478,-2.20436 0.41058,-2.75 C 488.15788,165.44644 488.29692,165 488.80409,165 c 1.31285,0 4.5078,-10.68633 3.62299,-12.11799 -0.45284,-0.7327 -0.31012,-0.92776 0.37087,-0.50688 0.69377,0.42877 1.65746,-1.09995 2.58175,-4.0955 0.81113,-2.62879 3.34398,-9.87259 5.62855,-16.09733 2.28458,-6.22473 3.89747,-11.9856 3.58422,-12.80193 -0.31326,-0.81634 -0.16713,-1.23553 0.32472,-0.93155 1.21045,0.7481 4.14843,-8.11425 3.36596,-10.15333 -0.40075,-1.04434 -0.22644,-1.37848 0.48857,-0.93657 0.70546,0.43599 1.74868,-1.33404 2.85527,-4.84453 2.03136,-6.444221 1.69912,-6.435059 13.46195,-0.37125 26.71326,13.77084 43.88294,42.09359 43.90405,72.4232 0.004,5.53649 -0.48073,12.70476 -1.07685,15.9295 -1.64553,8.90146 -6.45429,21.22805 -11.22845,28.78253 l -4.28368,6.77836 z M 376,217 c 0,-0.55 0.45,-1 1,-1 0.55,0 1,0.45 1,1 0,0.55 -0.45,1 -1,1 -0.55,0 -1,-0.45 -1,-1 z m 33.05763,-8.13722 c -1.12759,-1.84953 -2.05184,-4.37528 -2.05389,-5.61278 -0.002,-1.2375 -0.40451,-2.25 -0.89433,-2.25 -0.94408,0 -1.55491,-2.89934 -3.16017,-15 -1.10546,-8.33309 -0.29199,-27.82753 1.23959,-29.7062 0.54084,-0.6634 0.6894,-1.68181 0.33013,-2.26312 -0.55141,-0.8922 2.07887,-7.63193 5.56795,-14.26711 0.5022,-0.95504 0.91309,-2.41754 0.91309,-3.25 0,-0.83246 0.45,-1.51357 1,-1.51357 0.55,0 1,-0.50221 1,-1.11602 0,-0.61382 1.67214,-3.39394 3.71587,-6.17805 2.3781,-3.23963 3.27813,-5.20793 2.5,-5.46731 C 417.25418,121.58473 417.82118,120 420.01682,120 c 1.10926,0 3.95712,-2.025 6.32859,-4.5 2.37146,-2.475 4.80139,-4.5 5.39984,-4.5 0.59845,0 1.28898,-0.5625 1.53451,-1.25 0.24554,-0.6875 0.82048,-0.90006 1.27764,-0.47236 0.45717,0.42771 -0.89099,2.19723 -2.99591,3.93229 -5.76379,4.751 -14.64154,16.45806 -18.43392,24.30874 -4.69862,9.72671 -5.88957,13.17518 -8.10942,23.48133 -1.3085,6.07498 -1.27295,24.29279 0.0573,29.38398 2.24206,8.58068 5.33254,18.16415 6.25297,19.39019 0.5261,0.70079 0.69168,1.53904 0.36794,1.86278 -0.32374,0.32373 -1.51118,-0.92464 -2.63876,-2.77417 z M 45.062587,174.458 c -10.140577,-2.38941 -18.695539,-4.18485 -19.011028,-3.98987 -0.315489,0.19499 -1.383081,-0.23738 -2.372428,-0.9608 -1.018958,-0.74508 -1.373427,-1.57823 -0.817619,-1.92174 0.580403,-0.35871 -2.050227,-9.68047 -6.440159,-22.82101 C 12.339609,132.54656 9.0194872,122.08874 9.0433049,121.52499 9.0671226,120.96125 17.002161,115.1 26.676723,108.5 36.351286,101.9 45.6069,95.260154 47.244754,93.744787 l 2.977918,-2.755213 14.138664,3.418422 c 7.776265,1.880131 16.731481,3.980276 19.90048,4.666987 3.168999,0.686711 6.154153,1.738267 6.633677,2.336787 0.479523,0.59853 4.077704,11.0644 7.995957,23.25749 3.91825,12.19309 7.59635,22.32667 8.17355,22.51907 1.77608,0.59203 0.0317,3.33419 -2.84173,4.46708 -1.4978,0.59055 -11.139068,6.98466 -21.425044,14.20915 -10.285975,7.22449 -18.835975,13.09097 -19,13.03663 -0.164024,-0.0544 -8.595062,-2.05378 -18.735639,-4.44319 z M 80.241383,162.86541 C 98.562692,150.31821 98.61282,150.27949 97.707045,149.37371 96.633278,148.29994 67.590618,142.15597 66.5,142.77186 c -3.798567,2.14511 -34.347743,23.71373 -34.033104,24.02837 0.440459,0.44046 28.328409,7.00156 30.274487,7.12258 0.682761,0.0425 8.557761,-4.93337 17.5,-11.0574 z M 44.818551,152.39992 c 9.174797,-6.38004 17.223829,-12.11754 17.886739,-12.75 0.934214,-0.8913 -0.266794,-5.70424 -5.340074,-21.39992 C 53.765265,107.1125 50.48281,98 50.070872,98 49.460799,98 15.561109,121.10556 14.255207,122.41146 13.77981,122.88686 27.056239,164 27.685153,164 c 0.248572,0 7.958601,-5.22003 17.133398,-11.60008 z M 100.80217,143.75 c -0.22649,-0.6875 -3.295897,-9.85758 -6.820895,-20.37796 L 87.572188,104.24409 71.66491,100.57656 c -8.749003,-2.017138 -16.067347,-3.507457 -16.262986,-3.311817 -0.195639,0.195639 2.661864,9.433317 6.350007,20.528177 l 6.705715,20.17248 7.521177,1.64979 c 4.136647,0.90739 10.671177,2.4654 14.521177,3.46224 8.430889,2.18293 10.85182,2.34098 10.30217,0.67257 z m 120.75339,29.69444 c -0.37649,-2.00684 -0.48453,-3.84881 -0.24008,-4.09325 0.24444,-0.24445 0.75248,1.19752 1.12896,3.20437 0.37649,2.00684 0.48453,3.84881 0.24008,4.09325 -0.24444,0.24445 -0.75248,-1.19752 -1.12896,-3.20437 z m 35.22675,-9.99546 c -0.30306,-0.30307 -1.84056,-0.70176 -3.41667,-0.88598 -1.5761,-0.18423 -3.18024,-0.38627 -3.56475,-0.44898 -1.12641,-0.18371 -6.13086,-7.11738 -5.55365,-7.69459 0.28937,-0.28937 2.14362,1.18537 4.12054,3.27722 3.48979,3.69264 3.79144,3.80167 10.36332,3.74568 3.72289,-0.0317 5.4189,0.14668 3.7689,0.39644 -2.99439,0.45327 -2.99532,0.45553 -0.5,1.208 2.23926,0.67524 2.12628,0.76427 -1.08333,0.85355 -1.97084,0.0548 -3.8313,-0.14828 -4.13436,-0.45134 z M 488,161.55902 C 488,160.70156 488.45,160 489,160 c 0.55,0 1,0.42344 1,0.94098 0,0.51754 -0.45,1.2191 -1,1.55902 -0.55,0.33992 -1,-0.0835 -1,-0.94098 z M 218.42924,159.25 c -0.33488,-1.5125 -1.0633,-4.24265 -1.61872,-6.067 -0.55542,-1.82435 -0.78485,-3.542 -0.50985,-3.817 0.54455,-0.54455 2.17305,4.22013 3.20731,9.384 0.78751,3.9319 -0.21592,4.397 -1.07874,0.5 z m 48.2338,0.77206 c 0.46033,-0.41353 3.76196,-1.29555 7.33696,-1.96005 3.575,-0.66449 12.78495,-2.75029 20.46656,-4.63509 7.68161,-1.88481 14.65661,-3.39985 15.5,-3.36675 1.66714,0.0654 -9.99865,3.56302 -16.46656,4.93697 -2.2,0.46733 -7.15,1.72275 -11,2.7898 -7.56257,2.09603 -17.19552,3.45555 -15.83696,2.23512 z M 316.5,148.42987 c 6.42518,-1.78786 7.90258,-1.74345 3.63519,0.10927 -1.85065,0.80347 -4.55065,1.42062 -6,1.37144 -1.87121,-0.0635 -1.18561,-0.49277 2.36481,-1.48071 z M 326,146 c 1.375,-0.44035 3.625,-0.79225 5,-0.78201 2.2456,0.0167 2.19472,0.0963 -0.5,0.78201 -1.65,0.41985 -3.9,0.77176 -5,0.78201 -1.5672,0.0146 -1.45899,-0.15463 0.5,-0.78201 z m -112.2284,-6.93827 c -0.95062,-4.09104 -1.51312,-7.65354 -1.25,-7.91666 0.26312,-0.26312 0.4784,0.2716 0.4784,1.18826 0,0.91667 0.42961,1.66667 0.95469,1.66667 1.19626,0 2.31748,5.72983 1.87697,9.59207 -0.24774,2.17216 -0.76898,1.02589 -2.06006,-4.53034 z m 31.99719,3.36745 c 0.29526,-1.54455 1.34186,-2.90686 2.45729,-3.19855 1.49139,-0.39001 1.63281,-0.70192 0.60845,-1.34201 -0.90509,-0.56557 -0.53006,-0.78298 1.16547,-0.67564 2.47863,0.15692 6.18432,-0.5916 11,-2.2219 1.375,-0.46549 4.75,-1.08292 7.5,-1.37208 3.23407,-0.34005 0.93836,0.51285 -6.5,2.41487 -9.7445,2.49172 -11.90037,3.40964 -14.12276,6.01318 l -2.62277,3.07258 z m 95.98121,-0.0915 c 0.6875,-0.27741 1.8125,-0.27741 2.5,0 0.6875,0.27741 0.125,0.50439 -1.25,0.50439 -1.375,0 -1.9375,-0.22698 -1.25,-0.50439 z m 11.99939,-3.75078 c -6.04843,-1.62723 -8.27541,-3.67805 -9.58147,-8.82353 -1.14542,-4.5126 0.0993,-9.08328 3.16617,-11.62672 0.90414,-0.74982 1.42869,-1.71151 1.16566,-2.13709 -0.26302,-0.42559 0.0794,-0.71884 0.76101,-0.65167 0.68158,0.0672 3.48924,-0.27659 6.23924,-0.7639 4.45565,-0.78955 4.72782,-0.97609 2.5,-1.71344 -2.04358,-0.67637 -1.86102,-0.74663 1,-0.38485 1.925,0.24341 7.775,-0.61706 13,-1.91217 5.225,-1.2951 8.68594,-2.40397 7.69098,-2.46415 C 376.67816,107.92719 378.89555,106 382.11803,106 c 1.65,0 2.79076,0.3375 2.53503,0.75 -0.25574,0.4125 1.66295,0.59945 4.26376,0.41544 3.94238,-0.27893 5.25395,0.10738 7.88707,2.323 1.8502,1.55683 3.59968,4.29657 4.22389,6.61474 0.68199,2.5327 1.49872,3.73963 2.26889,3.35284 0.66183,-0.33239 0.48131,-0.007 -0.40115,0.72366 -1.58949,1.31558 -3.47531,5.62552 -3.09365,7.07032 0.10897,0.4125 -0.13937,0.65575 -0.55187,0.54055 -0.4125,-0.11519 -2.1,0.58845 -3.75,1.56366 -1.65,0.9752 -2.18913,1.52461 -1.19806,1.2209 1.05255,-0.32256 1.54691,-0.13956 1.18871,0.44001 -0.33727,0.54572 -1.59814,0.74551 -2.80194,0.44398 -1.20379,-0.30154 -4.66371,0.11719 -7.68871,0.93051 -3.64677,0.9805 -4.65762,1.53543 -3,1.64694 2.10083,0.14132 1.94117,0.30605 -1,1.03168 -1.925,0.47493 -4.09826,0.65426 -4.82947,0.39853 -1.96082,-0.6858 -9.21682,0.64932 -8.63604,1.58904 0.27397,0.4433 -0.0287,1.13163 -0.67269,1.52961 -0.73122,0.45192 -0.90292,0.29014 -0.45729,-0.4309 0.80719,-1.30607 -0.65613,-1.45419 -5.26328,-0.53276 -1.70982,0.34197 -2.86451,1.01697 -2.56598,1.5 0.29853,0.48304 0.40373,0.84788 0.23377,0.81076 -0.16996,-0.0371 -2.4468,-0.64263 -5.05963,-1.34557 z m 24.97978,-4.19111 c -0.33229,-0.33229 -1.1948,-0.36781 -1.91667,-0.0789 -0.79773,0.31922 -0.56078,0.55618 0.60417,0.60416 1.05416,0.0434 1.64479,-0.19293 1.3125,-0.52522 z m 2.11599,-10.9461 c 0.90347,-0.80285 -1.16735,-6.54007 -2.21544,-6.13788 -0.64921,0.24912 -5.77192,1.47812 -11.3838,2.73111 -10.07129,2.24865 -10.19544,2.31169 -9.58642,4.86759 0.33936,1.4242 0.77329,2.87345 0.9643,3.22056 0.30323,0.55106 21.31431,-3.87535 22.22136,-4.68138 z m -106.03266,8.86716 c 0.72187,-0.28887 1.58438,-0.25335 1.91667,0.0789 0.33229,0.33229 -0.25834,0.56864 -1.3125,0.52522 -1.16495,-0.048 -1.4019,-0.28494 -0.60417,-0.60416 z m 5.4375,-1.00622 c 0.9625,-0.25152 1.75,-0.92247 1.75,-1.49098 0,-0.56852 0.7076,-0.76214 1.57244,-0.43026 0.86485,0.33187 2.41254,0.15379 3.43931,-0.39572 1.11712,-0.59786 2.09482,-0.6303 2.43445,-0.0808 0.31217,0.5051 -1.70767,1.40632 -4.48853,2.00271 -4.87417,1.04532 -8.29431,1.3323 -4.70767,0.39501 z m -69.17105,-3.894 c 0.048,-1.16495 0.28494,-1.4019 0.60416,-0.60417 0.28887,0.72187 0.25335,1.58437 -0.0789,1.91667 -0.3323,0.33229 -0.56864,-0.25834 -0.52522,-1.3125 z m 88.57863,-0.96671 c 0.27936,-0.72802 1.1457,-1.07894 1.92518,-0.77983 1.87817,0.72072 1.78977,0.99919 -0.50794,1.60005 -1.31432,0.3437 -1.76401,0.0834 -1.41724,-0.82022 z M 305.5,125 c 2.75248,-1.18278 3.731,-1.18278 3,0 -0.33992,0.55 -1.60398,0.96837 -2.80902,0.92971 C 303.57862,125.86195 303.57176,125.82859 305.5,125 Z m -95.42105,-1.58333 c 0.048,-1.16495 0.28494,-1.4019 0.60416,-0.60417 0.28887,0.72187 0.25335,1.58437 -0.0789,1.91667 -0.3323,0.33229 -0.56864,-0.25834 -0.52522,-1.3125 z m 105.25438,-1.04424 c 0,-0.84233 1.19094,-1.41561 3.08334,-1.48421 1.69583,-0.0615 4.62151,-0.28716 6.5015,-0.5015 5.01285,-0.57154 3.35464,0.33957 -3.54927,1.95014 -5.09833,1.18936 -6.03557,1.19488 -6.03557,0.0356 z m -110.72126,-5.94942 c -6.56805,-6.04353 -16.40645,-11.7196 -26.11207,-15.06485 -7.08413,-2.441695 -9.48829,-2.76314 -21,-2.807765 C 150.35,98.522678 142.71592,98.725 140.53537,99 c -3.11645,0.393033 -4.03618,0.152533 -4.29909,-1.124173 -0.4329,-2.102165 1.02522,-2.603544 11.27628,-3.877388 18.62853,-2.314867 38.96693,3.247492 54.47157,14.897461 3.83578,2.88214 5.85462,5.23994 6.73057,7.86058 0.6882,2.05894 1.06933,2.7053 0.84696,1.43637 -0.33438,-1.90809 -0.15633,-2.10135 1.02935,-1.11732 1.08697,0.9021 1.15924,1.52047 0.29888,2.55715 -0.62413,0.75203 -1.19218,1.34945 -1.26233,1.32761 -0.0702,-0.0218 -2.32713,-2.06361 -5.01549,-4.53728 z m 126.78308,2.85971 c 1.52203,-0.38973 1.62047,-0.6587 0.5,-1.36613 -0.92053,-0.5812 -0.0344,-0.81939 2.60485,-0.70018 2.2,0.0994 5.8,-0.12839 8,-0.50615 2.2,-0.37777 0.85,0.19761 -3,1.27861 -3.85,1.081 -7.675,1.92353 -8.5,1.87229 -0.92359,-0.0574 -0.77174,-0.27964 0.39515,-0.57844 z m 70.6838,-3.86605 c 0.048,-1.16495 0.28494,-1.4019 0.60416,-0.60417 0.28887,0.72187 0.25335,1.58437 -0.0789,1.91667 -0.33229,0.33229 -0.56864,-0.25834 -0.52522,-1.3125 z M 364,110.02301 c 0,-0.43436 0.9,-1.0251 2,-1.31276 1.1,-0.28766 2,-0.16762 2,0.26674 0,0.43436 -0.9,1.0251 -2,1.31276 -1.1,0.28766 -2,0.16762 -2,-0.26674 z m 34.54271,0.0461 c -0.31644,-0.512 -0.11799,-1.21356 0.44098,-1.55902 0.55897,-0.34546 1.01631,0.0734 1.01631,0.9309 0,1.75653 -0.60006,2.01516 -1.45729,0.62812 z M 373.75,108.33772 c 0.6875,-0.27741 1.8125,-0.27741 2.5,0 0.6875,0.27741 0.125,0.50439 -1.25,0.50439 -1.375,0 -1.9375,-0.22698 -1.25,-0.50439 z m -77.25,-1.28287 c -1.1,-0.44252 -2.3056,-0.62906 -2.6791,-0.41452 -0.77399,0.44457 -0.16202,-5.63254 0.64886,-6.44342 0.29163,-0.291634 0.53024,-0.054 0.53024,0.52807 0,0.67916 2.95571,0.3898 8.25,-0.807657 4.5375,-1.026287 8.61406,-1.877529 9.05902,-1.891649 0.44496,-0.01412 0.5011,-0.523884 0.12477,-1.132808 -0.45578,-0.737467 -0.006,-0.89178 1.34788,-0.46216 2.70523,0.858606 11.37757,-1.37158 13.04249,-3.354018 0.72828,-0.867179 1.03923,-1.014188 0.69098,-0.326688 -0.40819,0.80585 0.11941,1.25 1.48486,1.25 1.34635,0 1.85807,-0.420633 1.40451,-1.154508 -0.39992,-0.647081 -0.27818,-0.88545 0.27698,-0.542341 1.10068,0.680259 1.10882,3.609089 0.0149,5.37902 -0.38989,0.630855 -0.36859,1.33669 0.0473,1.568524 0.41593,0.231833 0.17498,0.277197 -0.53543,0.100809 -2.39408,-0.594428 -16.16469,2.910116 -15.52186,3.950226 0.3561,0.57618 0.12197,0.69792 -0.54706,0.28444 -1.42491,-0.88065 -12.25686,1.41479 -11.61061,2.46044 0.25284,0.4091 -0.24952,1.01597 -1.11634,1.34861 -1.89501,0.72718 -2.33449,0.69673 -4.91247,-0.34037 z m 4.22917,-0.65902 c -0.33229,-0.33229 -1.1948,-0.36781 -1.91667,-0.0789 -0.79773,0.31922 -0.56078,0.55618 0.60417,0.60416 1.05416,0.0434 1.64479,-0.19292 1.3125,-0.52522 z m 5.08333,0.92106 c 0.72187,-0.28887 1.58438,-0.25335 1.91667,0.0789 0.33229,0.3323 -0.25834,0.56864 -1.3125,0.52522 -1.16495,-0.048 -1.4019,-0.28494 -0.60417,-0.60416 z M 394,106 c 0,-0.55 0.45,-1 1,-1 0.55,0 1,0.45 1,1 0,0.55 -0.45,1 -1,1 -0.55,0 -1,-0.45 -1,-1 z m 114.63916,-2.49794 c -0.8468,-2.20673 -0.86188,-2.16873 0.86084,-2.16873 1.69794,0 1.84226,0.57844 0.62385,2.50052 -0.67448,1.06402 -0.97482,0.9969 -1.48469,-0.33179 z M 428.15789,98 c 0,-1.375 0.22698,-1.9375 0.50439,-1.25 0.27741,0.6875 0.27741,1.8125 0,2.5 -0.27741,0.6875 -0.50439,0.125 -0.50439,-1.25 z M 204,97.968615 c 0,-1.288937 2.84907,-2.452874 3.76417,-1.537781 0.37285,0.372852 0.0159,1.096553 -0.79313,1.608226 C 205.03529,99.263268 204,99.23872 204,97.968615 Z m 101.8125,-0.651729 c 0.72187,-0.288871 1.58438,-0.253344 1.91667,0.07895 0.33229,0.332292 -0.25834,0.568641 -1.3125,0.52522 -1.16495,-0.04798 -1.4019,-0.284941 -0.60417,-0.604167 z m 202,0 c 0.72187,-0.288871 1.58438,-0.253344 1.91667,0.07895 0.33229,0.332292 -0.25834,0.568641 -1.3125,0.52522 -1.16495,-0.04798 -1.4019,-0.284941 -0.60417,-0.604167 z M 268.1987,93.024645 C 268.03233,90.841245 268.40626,90 269.54313,90 c 0.8662,0 1.29997,-0.444846 0.96395,-0.988546 -0.33864,-0.547937 0.0242,-0.744799 0.81415,-0.441679 0.78382,0.300776 7.44469,-0.852065 14.80194,-2.56187 17.7305,-4.120518 17.45125,-4.030111 15.75896,-5.101916 -0.76017,-0.48145 -0.90963,-0.882254 -0.33213,-0.890676 0.5775,-0.0084 1.59,0.524687 2.25,1.184687 0.89752,0.897525 1.2,0.905436 1.2,0.03139 0,-0.642739 0.5865,-0.943554 1.30334,-0.668479 1.5771,0.605192 29.404,-6.089004 28.10814,-6.761851 -0.50131,-0.260296 -0.28564,-0.311834 0.47928,-0.11453 0.76492,0.197304 4.0537,-0.165167 7.3084,-0.805491 4.30118,-0.846205 6.21791,-0.863963 7.01686,-0.06501 1.72605,1.726046 -0.75147,3.929696 -5.27784,4.694421 -2.29744,0.388151 -3.68363,1.092405 -3.3172,1.685306 0.38275,0.6193 -0.10553,0.786756 -1.24575,0.427227 -1.03138,-0.325211 -3.22523,-0.1871 -4.87523,0.306913 -1.65,0.494012 -2.4375,0.936883 -1.75,0.984157 0.6875,0.04727 1.25,0.524815 1.25,1.061202 0,0.633666 -0.89843,0.633666 -2.5651,0 -3.12671,-1.188775 -3.70316,-1.218327 -3.04673,-0.156193 0.27841,0.450481 -0.88395,0.615024 -2.58303,0.365652 -2.35727,-0.345973 -2.89824,-0.144364 -2.28314,0.850883 0.58554,0.947434 0.33533,1.123641 -0.91451,0.644031 -2.31696,-0.889103 -47.01674,9.443029 -45.37149,10.487395 0.88074,0.559071 0.90978,0.807001 0.0958,0.81767 -0.64252,0.0084 -1.99252,0.282763 -3,0.609645 -1.56053,0.506322 -1.60966,0.419434 -0.33179,-0.586746 1.26899,-0.999186 1.19199,-1.108189 -0.5,-0.707786 -1.1,0.260311 -2.69094,0.760437 -3.53541,1.111391 -1.16007,0.482109 -1.59176,-0.101303 -1.76589,-2.386546 z M 480,95 c 0,-0.55 0.675,-1 1.5,-1 0.825,0 1.5,0.45 1.5,1 0,0.55 -0.675,1 -1.5,1 -0.825,0 -1.5,-0.45 -1.5,-1 z M 280,94.09362 c 0,-0.49851 0.9,-0.671025 2,-0.383369 1.1,0.287656 2,0.695528 2,0.90638 C 284,94.827484 283.1,95 282,95 c -1.1,0 -2,-0.407871 -2,-0.90638 z m 17.8125,-3.776734 c 0.72187,-0.288871 1.58438,-0.253344 1.91667,0.07895 0.33229,0.332292 -0.25834,0.568641 -1.3125,0.52522 -1.16495,-0.04798 -1.4019,-0.284941 -0.60417,-0.604167 z m 17,-5 c 0.72187,-0.288871 1.58438,-0.253344 1.91667,0.07895 0.33229,0.332292 -0.25834,0.568641 -1.3125,0.52522 -1.16495,-0.04798 -1.4019,-0.284941 -0.60417,-0.604167 z M 294,81 c 0,-0.55 1.09844,-1 2.44098,-1 1.34254,0 2.7191,0.45 3.05902,1 0.36058,0.583423 -0.65628,1 -2.44098,1 C 295.37656,82 294,81.55 294,81 Z m 33.5,-7 c -0.33992,-0.55 0.0835,-1 0.94098,-1 0.85746,0 1.55902,0.45 1.55902,1 0,0.55 -0.42344,1 -0.94098,1 -0.51754,0 -1.2191,-0.45 -1.55902,-1 z m 23.57895,-0.583333 c 0.048,-1.164943 0.28494,-1.4019 0.60416,-0.604167 0.28887,0.721875 0.25335,1.584375 -0.0789,1.916667 -0.33229,0.332291 -0.56864,-0.258334 -0.52522,-1.3125 z M 196.11871,67.55718 c -1.37918,-5.47726 -1.38698,-7.050996 -0.0586,-11.834514 1.35691,-4.886215 5.84447,-9.947632 10.64061,-12.001315 C 208.79033,42.826599 251.45,32.580048 301.5,20.951237 370.14578,5.001812 393.54851,-0.07530811 396.7683,0.28319855 c 8.53628,0.95046925 15.29385,7.99963655 16.82041,17.54622245 0.63616,3.978286 0.60831,4.022223 -3.2235,5.086188 -2.12587,0.590281 -4.67927,1.075747 -5.67423,1.078814 -1.11202,0.0034 -1.5341,0.450395 -1.09549,1.160085 0.44427,0.718841 0.27408,0.882917 -0.45099,0.434799 -0.64048,-0.395841 -5.67807,0.288045 -11.19463,1.519747 -7.31207,1.632591 -9.89225,2.598719 -9.52138,3.565202 C 382.7083,31.403415 382.50135,32 381.96862,32 381.43588,32 381,31.55 381,31 c 0,-0.55 -0.70156,-1 -1.55902,-1 -0.93567,0 -1.26991,0.467781 -0.83595,1.169939 0.49187,0.795858 0.16927,0.957431 -1.00891,0.505321 -2.09078,-0.802308 -16.95732,2.109652 -17.43153,3.414373 -0.18448,0.507555 -0.70811,0.692487 -1.16363,0.410959 -0.844,-0.521622 -13.6491,2.16391 -15.36012,3.221382 -0.51719,0.319637 -2.33545,0.711973 -4.04059,0.871857 -5.95565,0.558437 -30.91115,7.137388 -29.51173,7.780098 0.77631,0.356536 0.28648,0.41861 -1.08852,0.137943 -3.00627,-0.613645 -17.11151,2.498685 -16.417,3.622421 0.26881,0.434953 -0.76489,0.713666 -2.29712,0.619362 -4.90379,-0.301812 -16.64287,2.39172 -15.13226,3.472094 0.98236,0.702575 0.82735,0.793106 -0.57333,0.334846 -2.38477,-0.780225 -12.70113,1.434867 -11.99603,2.575745 0.28334,0.458449 -0.96971,0.577434 -2.78455,0.26441 -2.65352,-0.457679 -3.00596,-0.33834 -1.79971,0.60939 1.26247,0.991901 1.19267,1.077788 -0.44076,0.542377 -1.06741,-0.349881 -7.24864,0.581623 -13.73605,2.07001 -9.55146,2.191359 -11.58442,2.960241 -10.6868,4.041815 1.30656,1.574304 -0.25366,1.818387 -1.79175,0.280303 -0.5974,-0.597409 -2.24416,-0.756983 -3.79502,-0.367744 -2.08327,0.522869 -2.41741,0.915355 -1.39464,1.638174 0.90599,0.64029 0.12125,0.780889 -2.40417,0.430746 -2.26245,-0.313684 -7.74025,0.446571 -13.8137,1.917182 C 204.40162,70.903351 199.27968,72 198.55501,72 c -0.72467,0 -1.821,-1.999269 -2.4363,-4.44282 z m 18.71878,-10.435583 c 2.01251,-1.275638 1.03432,-5.574055 -1.33749,-5.877325 -3.07881,-0.393668 -4.37219,0.973468 -3.79205,4.008276 0.5334,2.790309 2.52897,3.517436 5.12954,1.869049 z m 14.95913,-3.584882 c 0.16539,-0.165394 0.005,-1.478817 -0.35636,-2.918716 C 228.96641,48.73004 228.13274,48 226.45061,48 c -2.92083,0 -3.81958,1.393786 -3.00123,4.654321 0.54732,2.180727 1.02078,2.444491 3.34209,1.861881 1.48744,-0.373323 2.83975,-0.814092 3.00515,-0.979487 z M 240.75,51.369714 c 2.21091,-0.592501 2.83194,-2.689639 1.68307,-5.683543 -0.68177,-1.776649 -5.99252,-0.742577 -5.83307,1.135776 0.055,0.647929 0.1675,2.078053 0.25,3.178053 0.16235,2.164697 0.49612,2.281919 3.9,1.369714 z M 207,71.616577 c 0,-0.210882 1.11138,-0.595877 2.46974,-0.855543 1.35835,-0.259666 2.2318,-0.08713 1.94098,0.383423 C 210.89864,71.97302 207,72.390327 207,71.616577 Z m 7.8125,-2.299691 c 0.72187,-0.288871 1.58437,-0.253344 1.91667,0.07895 0.33229,0.332292 -0.25834,0.568641 -1.3125,0.52522 -1.16495,-0.04798 -1.4019,-0.284941 -0.60417,-0.604167 z m 21.73021,-3.247788 c -0.31644,-0.511996 -0.11799,-1.213553 0.44098,-1.559017 0.55897,-0.345463 1.01631,0.07344 1.01631,0.930902 0,1.756526 -0.60006,2.015159 -1.45729,0.628115 z m 27.54062,-6.352066 C 264.3125,59.5614 265.2875,58.8313 266.25,58.094588 267.74798,56.948009 268,56.98876 268,58.377555 268,59.374934 267.16527,60 265.83333,60 c -1.19166,0 -1.97916,-0.127335 -1.75,-0.282968 z M 284.5,56 c -0.33992,-0.55 -0.25398,-1.006891 0.19098,-1.015313 0.44496,-0.0084 0.13402,-0.4879 -0.69098,-1.065506 -1.14484,-0.801536 -0.90807,-0.886884 1,-0.36046 3.14014,0.866346 3.35137,1.063739 2.54112,2.374748 C 286.71236,57.274425 285.30664,57.305178 284.5,56 Z m -5,-1 c -0.33992,-0.55 0.0835,-1 0.94098,-1 0.85746,0 1.55902,0.45 1.55902,1 0,0.55 -0.42344,1 -0.94098,1 -0.51754,0 -1.2191,-0.45 -1.55902,-1 z m 25,-4 c -0.33992,-0.55 -0.14148,-1 0.44098,-1 0.58246,0 1.05902,0.45 1.05902,1 0,0.55 -0.19844,1 -0.44098,1 -0.24254,0 -0.7191,-0.45 -1.05902,-1 z m 10.32259,-4.33404 c 1.49616,-0.667608 2.57576,-0.667608 3.24337,0 0.66761,0.667609 -0.0789,1.000707 -2.24267,1.000707 -2.99116,0 -3.06898,-0.07782 -1.0007,-1.000707 z m 12.98991,-3.349074 c 0.72187,-0.288871 1.58438,-0.253344 1.91667,0.07895 0.33229,0.332292 -0.25834,0.568641 -1.3125,0.52522 -1.16495,-0.04798 -1.4019,-0.284941 -0.60417,-0.604167 z m 3.27083,-0.67621 c 1.17815,-1.016007 6.02326,-1.622161 5.44144,-0.680758 C 336.17123,42.531963 334.70852,43 333.27432,43 c -1.43421,0 -2.42015,-0.161696 -2.19099,-0.359324 z m 65.72917,-15.32379 c 0.72187,-0.288871 1.58438,-0.253344 1.91667,0.07895 0.33229,0.332292 -0.25834,0.568641 -1.3125,0.52522 -1.16495,-0.04798 -1.4019,-0.284941 -0.60417,-0.604167 z"
         id="path3" />
      <path
         style="fill:#0d0c19"
         d="m 186.5,449.33718 c -41.98142,-1.99165 -71.5,-7.94981 -71.5,-14.43187 0,-6.23259 27.38414,-11.71136 69.82863,-13.97068 11.36869,-0.60515 20.85217,-1.2821 21.0744,-1.50433 0.22223,-0.22223 -4.24634,-22.57246 -9.93016,-49.66717 C 186.16711,323.0191 185.64311,319.91194 185.72571,309 c 0.14159,-18.70803 5.78948,-35.05695 17.3988,-50.36431 C 213.03573,245.56733 236,229.70275 236,235.92405 c 0,0.44331 -3.56121,2.87522 -7.9138,5.40425 -18.93533,11.00217 -33.18005,31.2769 -37.64847,53.58565 -2.94463,14.70115 -1.97037,22.29999 10.46032,81.58605 6.11197,29.15 11.33475,53.97632 11.60618,55.16959 0.40176,1.76625 1.81396,2.46992 7.59625,3.78507 12.50371,2.84391 23.09166,3.82534 35.39952,3.28129 13.89905,-0.61439 30.5,-4.06673 30.5,-6.34279 0,-1.30021 -11.2903,-48.92552 -19.41401,-81.89316 l -3.20339,-13 -9.4413,-0.5 c -7.50338,-0.39737 -9.4413,-0.80789 -9.4413,-2 0,-1.30145 5.53597,-1.56618 41.82377,-2 l 41.82377,-0.5 14.75244,-31 c 8.11384,-17.05 16.49055,-34.45967 18.61491,-38.68817 3.41473,-6.79691 3.72443,-7.99116 2.67156,-10.30196 -1.31036,-2.87592 -6.56831,-5.52214 -10.90433,-5.48791 -3.67831,0.029 -10.24685,3.12344 -12.94032,6.09612 -1.18701,1.31006 -5.5504,8.90692 -9.69642,16.88192 -4.14602,7.975 -10.2008,19.45 -13.45505,25.5 l -5.91682,11 h -20.88448 -20.88448 l -0.31204,-4.95355 c -0.64945,-10.30988 -7.08937,-19.40155 -16.77868,-23.68759 -4.96899,-2.19802 -6.22111,-3.61185 -3.96534,-4.47747 2.46586,-0.94624 11.98782,4.25227 16.07473,8.77599 4.24443,4.69808 7.08994,10.57124 8.05959,16.6351 L 273.25562,303 h 18.14933 18.14934 l 4.27324,-8.61628 c 2.35028,-4.73896 4.00998,-8.87954 3.68823,-9.20129 -0.32175,-0.32176 -14.10591,-4.49091 -30.63146,-9.2648 -27.0808,-7.82307 -33.18342,-9.99036 -31.81763,-11.29973 0.23833,-0.22849 8.98333,-4.99826 19.43333,-10.59949 10.45,-5.60123 20.23116,-11.49679 21.7359,-13.10123 2.64083,-2.8158 5.7641,-3.89619 5.7641,-1.99391 0,2.95688 -6.79652,7.92804 -22.074,16.14555 -9.3093,5.00732 -16.92117,9.40278 -16.91527,9.7677 0.006,0.36491 12.4934,4.2277 27.75,8.58397 15.2566,4.35627 28.19947,8.07766 28.76193,8.26975 0.56246,0.19209 4.34006,-6.07213 8.39466,-13.92049 7.96725,-15.42197 10.57408,-18.91974 16.29284,-21.86133 6.54413,-3.36614 17.94774,-2.04224 21.73411,2.52322 0.79435,0.9578 1.69435,3.60578 2,5.8844 l 0.55573,4.14295 3.25347,-5.07246 C 375.9725,246.8087 382.63315,243 389.91745,243 c 9.95102,0 16.56847,5.1075 15.88623,12.26137 -0.29679,3.11214 -0.0898,3.65473 1.1678,3.06106 0.84068,-0.39686 4.45352,-0.88469 8.02852,-1.08406 5.34876,-0.29829 7.29701,0.0556 11,1.99831 5.35397,2.8088 8.51557,8.13947 7.51888,12.67735 -0.43483,1.97978 -9.90761,12.86677 -29.36952,33.75416 L 375.4217,336.5 l -54.31452,0.25866 c -42.73095,0.2035 -54.22046,0.5234 -53.8735,1.5 0.24255,0.68274 5.07693,20.6247 10.74307,44.31547 l 10.30208,43.07413 6.92877,1.62609 c 19.91644,4.67412 19.19212,11.36338 -1.74003,16.06952 -21.91698,4.92755 -71.21286,7.68956 -106.96757,5.99331 z M 376.1887,304 c 8.81519,-15.675 16.94321,-30.5102 18.06229,-32.96711 1.11907,-2.45691 3.37665,-6.6481 5.01684,-9.31375 3.71354,-6.03526 3.8095,-9.39571 0.35323,-12.36867 -5.56511,-4.7869 -15.96518,-3.81235 -21.60288,2.02434 -8.15899,8.44696 -32.94589,51.95558 -44.09628,77.4025 l -1.87424,4.27731 14.05672,-0.27731 L 360.1611,332.5 Z m 25.76074,-1.19403 c 30.0168,-32.31053 30.63855,-33.21798 25.96291,-37.89362 -2.77715,-2.77715 -8.086,-4.91745 -12.13023,-4.89039 -4.34543,0.0291 -10.66191,3.03605 -13.8681,6.60194 -1.42229,1.58186 -9.71772,15.7011 -18.43427,31.3761 -8.71656,15.675 -16.70982,29.9625 -17.7628,31.75 l -1.9145,3.25 h 5.04821 5.04822 z M 22,264.70835 c 0,-2.82898 -0.521865,-3.5282 -3.712718,-4.97448 -3.602103,-1.63268 -3.781679,-1.61804 -6.027306,0.49162 l -2.314588,2.17444 -2.6726607,-2.67266 -2.6726607,-2.67266 2.2183093,-2.36128 c 2.1126796,-2.24884 2.145371,-2.53585 0.6865467,-6.02731 C 6.2163041,245.58193 5.4895034,245 2.9262147,245 c -2.90942386,0 -3.03293714,-0.16925 -2.73657996,-3.75 0.27911826,-3.37246 0.61915411,-3.78017 3.37745456,-4.04972 2.487745,-0.2431 3.3076239,-0.9649 4.3404965,-3.82126 1.0918349,-3.01941 1.0466219,-3.77214 -0.3170892,-5.27902 -2.1348787,-2.35902 -2.0105245,-3.35678 0.7404725,-5.9412 l 2.3309689,-2.18984 1.824019,2.01552 c 2.18555,2.41501 3.65661,2.51028 7.563703,0.48984 C 22.313521,221.30363 23,220.25658 23,217.97432 23,215.26037 23.296645,215 26.388709,215 c 3.084181,0 3.448,0.31605 4.048487,3.51692 0.510401,2.72067 1.384615,3.81928 3.861291,4.85242 2.825436,1.17862 3.50778,1.12184 5.808737,-0.48335 2.563591,-1.78841 2.645146,-1.77848 4.87311,0.59308 l 2.265886,2.41192 -2.009563,2.75869 c -1.885731,2.58869 -1.912715,2.96178 -0.437898,6.0545 C 46.026653,237.2791 46.986106,238 49.185212,238 51.802465,238 52,238.28071 52,242 c 0,3.77378 -0.168903,4 -2.98658,4 -2.493779,0 -3.239329,0.60491 -4.518343,3.66602 -1.440369,3.44729 -1.411382,3.79417 0.485818,5.81364 l 2.01758,2.14762 -2.790197,2.67318 -2.790198,2.67318 -2.093372,-2.09338 c -1.898984,-1.89898 -2.421786,-1.97461 -5.630079,-0.81448 -2.831289,1.02381 -3.661223,1.94262 -4.160982,4.60656 C 28.969419,267.67993 28.577088,268 25.454687,268 22.21479,268 22,267.79535 22,264.70835 Z m 8.327715,-13.07192 c 10.943491,-4.57248 7.794809,-20.55193 -4.061938,-20.61419 -3.284404,-0.0173 -4.966802,0.63232 -7.5,2.89573 -2.77189,2.47668 -3.265777,3.59873 -3.265777,7.41944 0,3.41758 0.601961,5.14915 2.5,7.19138 4.16737,4.48397 7.202523,5.24908 12.327715,3.10764 z m 106.817175,-5.5897 c -9.49836,-2.33232 -24.32919,-9.75378 -30.45404,-15.23945 l -4.80916,-4.30728 10.92306,-10.84728 10.92307,-10.84727 4.6017,3.51256 c 7.13322,5.4449 14.67947,7.92587 25.67048,8.43964 7.91189,0.36983 10.57758,0.08 15.94604,-1.73346 29.68975,-10.02945 41.29179,-43.97247 23.92144,-69.98478 -4.61816,-6.91576 -11.53903,-12.59649 -20.39937,-16.74404 -5.46975,-2.56041 -6.94829,-2.79377 -17.70627,-2.79453 -8.30235,-6e-4 -11.8752,-0.35735 -12.20633,-1.21881 -0.68336,-1.77784 0.43349,-2.17538 8.0688,-2.87214 25.724,-2.34745 49.55852,16.5367 53.43933,42.34011 3.57822,23.79146 -11.50054,48.07251 -34.04776,54.82646 -4.50736,1.35017 -5.91834,2.1995 -5.58985,3.3648 0.24167,0.8573 1.2354,5.94624 2.20829,11.30874 2.02643,11.16949 1.7407,10.98123 11.64723,7.67402 18.0233,-6.01694 33.42624,-19.57485 42.23922,-37.17962 4.08169,-8.15358 4.47256,-8.61917 5.10854,-6.08521 0.52403,2.0879 -0.18159,4.42905 -2.95142,9.79236 -9.73158,18.84364 -27.9523,33.11986 -49.2097,38.55658 -10.11367,2.58665 -26.87578,2.60398 -37.3233,0.0386 z M 519.5,200.94833 c -17.05,-13.13268 -31.3986,-24.49068 -31.88579,-25.24001 -0.58969,-0.90699 2.54895,-11.0307 9.38933,-30.28537 5.65132,-15.90762 11.58737,-32.74795 13.19124,-37.42295 1.60386,-4.675 3.32624,-8.912574 3.8275,-9.416831 2.24348,-2.256887 18.96929,7.515281 28.73274,16.787291 24.01377,22.80506 32.07758,55.02348 21.69314,86.67354 -2.78895,8.50026 -10.85637,23.0015 -12.72259,22.86895 C 551.05151,224.86508 536.55,214.081 519.5,200.94833 Z M 49,175.00009 c -6.325,-1.53583 -15.036007,-3.57011 -19.357794,-4.52062 -4.578267,-1.00691 -7.344637,-2.04534 -6.628263,-2.48809 0.914927,-0.56545 -0.612981,-6.35475 -5.971343,-22.62563 -3.96048,-12.02616 -7.3675854,-22.40596 -7.5713444,-23.06622 -0.2037591,-0.66025 8.6054834,-7.41025 19.5760954,-15 10.970612,-7.58974 19.947935,-14.286826 19.949608,-14.882411 0.0031,-1.112585 2.347589,-1.157004 5.003041,-0.09479 0.825,0.33001 8.7,2.225478 17.5,4.212149 8.8,1.986672 16.756945,3.824772 17.6821,4.084662 1.192859,0.3351 3.901359,7.13058 9.312327,23.36414 4.196623,12.59038 8.077933,23.04084 8.625133,23.22324 C 108.64201,147.714 106.9981,151 105.22175,151 c -0.86035,0 -2.2747,0.61193 -3.14301,1.35984 -6.234226,5.36983 -37.397971,25.62251 -39.294057,25.53642 C 61.528107,177.8392 55.325,176.53592 49,175.00009 Z m 32.883304,-13.18987 c 13.615461,-9.53015 16.975096,-12.30974 15.5,-12.82393 -1.035817,-0.36106 -8.245555,-2.149 -16.02164,-3.97319 l -14.138335,-3.31671 -17.987442,12.4018 c -9.893094,6.821 -17.815387,12.59227 -17.605097,12.82504 0.610769,0.67609 27.611808,6.87028 30.36921,6.96687 1.665507,0.0583 8.302497,-3.97389 19.883304,-12.07988 z M 55.749923,145.16803 c 4.537458,-3.11742 8.249958,-6.07479 8.25,-6.57194 C 64.000113,136.3616 50.803968,96.906237 50.150004,97.186001 47.201769,98.44725 14,122.35378 14,123.21537 c 0,0.60085 2.945935,10.2609 6.546522,21.4668 l 6.546521,20.37436 10.203479,-7.11024 c 5.611913,-3.91062 13.915943,-9.66084 18.453401,-12.77826 z M 101,144.50621 c 0,-0.27159 -2.7,-8.75133 -6,-18.84388 -3.3,-10.09254 -6,-18.84378 -6,-19.44719 0,-1.81478 -1.681355,-2.39076 -18.170783,-6.224788 -13.569189,-3.155027 -15.818943,-3.452776 -15.757256,-2.085434 0.03958,0.877295 3.077079,10.355452 6.75,21.062582 L 68.5,138.435 l 14,3.17772 c 13.784922,3.12891 18.5,3.86637 18.5,2.89349 z m 248.30255,-7.70325 c -5.74664,-2.77647 -6.88565,-14.33153 -1.81151,-18.37751 3.73409,-2.97747 42.1454,-11.89977 45.55937,-10.58268 4.05137,1.56299 6.88914,5.43704 7.55818,10.31826 0.55696,4.06341 0.31178,4.89654 -2.30179,7.82163 -2.71608,3.03982 -4.24311,3.5832 -21.36597,7.60288 -19.04693,4.47135 -23.87871,5.03383 -27.63828,3.21742 z m 21.35572,-10.37045 11.15828,-2.58538 -0.87742,-3.05937 c -0.48258,-1.68266 -1.0619,-3.24386 -1.28738,-3.46934 -0.44043,-0.44043 -21.5582,4.25469 -22.25046,4.94696 -0.60437,0.60437 0.73495,6.73299 1.47371,6.74357 0.34375,0.005 5.64622,-1.15448 11.78327,-2.57644 z M 203.03023,114.82239 C 188.8102,102.14717 166.70857,95.469523 147.10996,97.926981 c -4.52961,0.567965 -8.61021,1.264158 -9.06802,1.547097 -0.74416,0.459921 -2.48465,-2.415173 -1.81548,-2.998977 C 137.41667,95.436729 148.65748,94 155.59138,94 c 15.42545,0 29.68447,4.200171 42.58063,12.54265 6.85954,4.43742 10.25149,8.23337 9.66078,10.81147 -0.23559,1.02823 -1.63832,0.28876 -4.80256,-2.53173 z m 91.41592,-9.90952 c -0.36954,-0.59793 -0.28359,-1.44295 0.19098,-1.87784 C 295.66954,102.08895 325.90091,95 328.90309,95 c 2.82185,0 2.6979,2.821992 -0.15309,3.485669 -1.2375,0.288075 -8.90079,2.096651 -17.02954,4.019051 -16.63117,3.93318 -16.35554,3.89476 -17.27431,2.40815 z M 268.1815,92.29604 c 0.25694,-1.334165 4.23348,-2.606604 18.32333,-5.863218 C 296.40217,84.145229 311.7,80.5987 320.5,78.551647 c 8.8,-2.047054 18.61452,-4.324999 21.81004,-5.062101 5.03498,-1.161402 5.88522,-1.144292 6.37354,0.128263 0.30992,0.807646 0.35686,1.675081 0.10431,1.927633 C 348.17828,76.155048 271.43015,94 269.41794,94 c -0.9357,0 -1.43269,-0.684906 -1.23644,-1.70396 z M 197.30725,70.688116 c -0.34582,-0.559533 -0.81815,-4.205758 -1.04963,-8.102724 -0.38665,-6.509171 -0.18123,-7.457215 2.52588,-11.65745 1.6963,-2.631898 4.44295,-5.282046 6.47258,-6.245171 1.93921,-0.920213 45.0874,-11.370898 95.88487,-23.223746 69.10289,-16.1241461 93.23165,-21.39161046 95.82449,-20.91909764 7.90775,1.44108794 13.63215,6.77930424 15.66228,14.60564864 0.75069,2.893995 1.02906,5.574244 0.61859,5.956108 C 412.83584,21.483549 388.875,27.281165 360,33.985277 c -28.875,6.704111 -65.775,15.283382 -82,19.065045 -16.225,3.781664 -40.8769,9.526112 -54.782,12.765439 -16.07574,3.744998 -25.51096,5.519233 -25.91075,4.872355 z m 18.91672,-13.591191 c 0.39818,-0.354673 0.36148,-1.984074 -0.0816,-3.620892 -0.65242,-2.410356 -1.26522,-2.91208 -3.22396,-2.639574 -3.47841,0.483925 -4.20981,1.56047 -3.44033,5.063861 0.60379,2.749034 0.98126,3.027225 3.35116,2.469728 1.4689,-0.345545 2.99652,-0.918451 3.3947,-1.273123 z m 13.3649,-3.240726 c 0.30763,-0.497748 0.26531,-2.243638 -0.094,-3.879754 -0.57554,-2.620395 -0.97152,-2.899917 -3.3241,-2.346493 -3.68306,0.866406 -4.01765,1.415035 -3.03876,4.982713 0.72476,2.641474 1.23578,3.039691 3.37581,2.630598 1.38698,-0.265137 2.77347,-0.889316 3.08109,-1.387064 z m 12.82223,-2.460457 c 1.12821,-0.432936 1.39832,-1.354394 0.95268,-3.25 -0.87522,-3.722858 -1.69968,-4.350524 -4.71914,-3.592689 -2.64192,0.66308 -3.30333,2.566863 -2.03765,5.86516 0.62556,1.630188 3.04251,2.037252 5.80411,0.977529 z"
         id="path2" />
    </g>
  </g>
</svg>
