<?xml version="1.0" encoding="UTF-8" standalone="no"?>
<!-- Created with Inkscape (http://www.inkscape.org/) -->

<svg
   version="1.1"
   id="svg1"
   width="492"
   height="450"
   viewBox="0 0 492 450"
   sodipodi:docname="BUSINESS_07.svg"
   inkscape:version="1.3.2 (091e20e, 2023-11-25, custom)"
   xmlns:inkscape="http://www.inkscape.org/namespaces/inkscape"
   xmlns:sodipodi="http://sodipodi.sourceforge.net/DTD/sodipodi-0.dtd"
   xmlns="http://www.w3.org/2000/svg"
   xmlns:svg="http://www.w3.org/2000/svg">
  <defs
     id="defs1" />
  <sodipodi:namedview
     id="namedview1"
     pagecolor="#ffffff"
     bordercolor="#000000"
     borderopacity="0.25"
     inkscape:showpageshadow="2"
     inkscape:pageopacity="0.0"
     inkscape:pagecheckerboard="0"
     inkscape:deskcolor="#d1d1d1"
     showgrid="false"
     inkscape:zoom="1.7488889"
     inkscape:cx="246.15629"
     inkscape:cy="225"
     inkscape:window-width="1920"
     inkscape:window-height="1001"
     inkscape:window-x="-9"
     inkscape:window-y="-9"
     inkscape:window-maximized="1"
     inkscape:current-layer="g1" />
  <g
     inkscape:groupmode="layer"
     inkscape:label="Image"
     id="g1">
    <g
       id="g2">
      <path
         style="fill:#fefefe"
         d="M 0,225 V 0 H 246 492 V 225 450 H 246 0 Z"
         id="path6" />
      <path
         style="fill:#a0afc1"
         d="m 230.99353,449.12517 c -4.99102,-1.6367 -8.71456,-4.07398 -12.31868,-8.06331 C 216.65368,438.82467 215,436.61124 215,436.14314 c 0,-0.4681 -1.02312,-1.95506 -2.27361,-3.30436 -1.8557,-2.00234 -3.37211,-2.49782 -8.25,-2.69568 C 178.86222,429.10414 169,419.47862 169,395.51817 c 0,-8.34516 0.56297,-7.80361 -9.80688,-9.43385 -10.29195,-1.618 -15.77633,-5.9991 -19.67463,-15.71673 -1.82906,-4.55946 -3.19293,-6.35215 -6.11762,-8.04107 -5.55809,-3.20963 -10.99648,-8.87058 -13.60084,-14.15744 -2.24001,-4.54724 -2.3081,-5.54501 -2.60947,-38.23542 l -0.30944,-33.56633 -34.917466,-5.14604 C 62.759046,268.39096 45.729238,265.39422 44.119636,264.56187 40.267135,262.56966 37,257.13757 37,252.72444 37,250.77772 45.558525,194.58083 56.018945,127.84247 76.164232,-0.68616512 75.504086,2.6401989 81.274446,0.58428483 83.161387,-0.08801124 112.24197,3.8418454 190.6723,15.367962 249.42753,24.002628 298.7375,31.312955 300.25,31.613132 L 303,32.158911 V 20.079455 8 h 57 57 v 20.5 c 0,11.275 0.3756,20.5 0.83466,20.5 4.26972,0 68.62578,10.270599 70.09142,11.185907 2.29078,1.430615 4.07392,5.014216 4.07392,8.187399 0,5.642567 -38.19782,245.108564 -39.49936,247.625454 -1.9303,3.73278 -5.96152,6.81248 -9.85209,7.5266 -2.4683,0.45307 -36.59375,-3.99203 -54.14855,-7.05324 -2.56445,-0.44719 -2.32428,-0.16077 1.6542,1.97285 8.61228,4.61866 10.84545,10.01297 6.66871,16.10852 C 392.04649,341.52422 379.93218,347 369.28695,347 361.93273,347 356.44814,344.95412 326.55371,331.05954 312.28325,324.42679 300.47075,319 300.30371,319 c -0.16704,0 -0.30636,6.1875 -0.30961,13.75 -0.0134,31.18449 -8.21659,58.79217 -24.63711,82.91538 -7.28835,10.70723 -24.04747,30.1232 -27.57633,31.94804 -3.58628,1.85454 -13.12293,2.71336 -16.78713,1.51175 z M 445.93695,317.10674 c 1.34032,-0.95064 2.79131,-2.82605 3.22442,-4.16759 0.43311,-1.34153 9.35212,-57.07584 19.82004,-123.85401 C 486.57293,76.863188 487.89813,67.493469 486.48393,65.335137 485.64241,64.050812 484.54636,63 484.04826,63 482.59585,63 421.72915,54.063065 419.25,53.485802 L 417,52.961896 V 97.980948 143 H 360 303 V 89.720569 36.441139 L 193.35133,20.264949 C 116.4942,8.9264122 83.169261,4.3742307 81.919058,5.0433189 80.938073,5.5683261 79.891111,6.785855 79.592476,7.7489387 79.293841,8.7120224 70.440438,64.388523 59.918247,131.4745 41.103082,251.4337 40.815493,253.50192 42.512084,256.6523 c 0.948801,1.76181 2.909228,3.68211 4.356505,4.26732 1.447276,0.58521 17.69324,3.29603 36.102142,6.02406 25.367499,3.75923 33.655689,4.66908 34.234689,3.75819 0.42017,-0.66103 0.77825,-3.00187 0.79572,-5.20187 0.0432,-5.43918 3.62011,-11.36936 8.32246,-13.79782 3.31524,-1.71211 4.34379,-1.8188 7.73607,-0.80245 2.31343,0.69312 5.00639,2.54318 6.58905,4.52666 2.60449,3.2641 2.8336,3.34022 8.50595,2.82587 5.12258,-0.4645 6.31294,-0.20859 9.8176,2.11069 3.88452,2.57065 7.1053,7.47302 8.36674,12.73506 l 0.6228,2.59802 15.68912,0.69991 15.68912,0.69991 5.07998,-4.95001 c 6.57317,-6.405 13.16007,-10.33507 23.07997,-13.77064 6.92186,-2.39726 9.54983,-2.77273 19.5,-2.78602 10.74743,-0.0144 12.21103,0.23232 22.36521,3.76939 17.03129,5.93263 26.65418,10.41187 64.13479,29.85335 19.25,9.98513 36.125,18.7176 37.5,19.4055 3.08925,1.54553 67.7363,11.35146 70.5,10.69373 1.1,-0.26178 3.09663,-1.25377 4.43695,-2.20441 z m -25.27028,-17.77341 c -1.47874,-1.47873 -0.43143,-2.99102 4.30874,-6.22174 2.82749,-1.92711 4.69498,-3.86779 4.33026,-4.5 -0.35271,-0.61137 -1.96054,-2.80788 -3.57297,-4.88112 -2.8571,-3.67361 -3.0961,-6.77998 -0.51408,-6.68169 0.70476,0.0268 3.40307,3.03834 5.99626,6.69225 l 4.71488,6.64348 -6.59465,4.80774 c -6.76334,4.93074 -7.51819,5.29134 -8.66844,4.14108 z m -26.4303,-9.00402 c -2.78547,-3.73912 -4.87433,-7.10609 -4.6419,-7.48216 0.23242,-0.37607 3.39364,-2.80386 7.02492,-5.39509 5.20622,-3.71509 6.78711,-4.4196 7.47616,-3.3317 1.32558,2.09289 1.26541,2.18325 -4.14137,6.21979 l -5.04582,3.76705 3.68564,5.02086 c 3.26447,4.44709 3.51545,5.19106 2.19626,6.51025 -1.31918,1.31919 -2.06814,0.71249 -6.55389,-5.309 z M 302.38,244.54789 c -0.30647,-0.79867 -0.26579,-1.92367 0.0904,-2.5 C 302.90272,241.34839 315.23351,241 339.55902,241 H 376 v 2.5 2.5 h -36.53138 c -31.01443,0 -36.61554,-0.2193 -37.08862,-1.45211 z M 302,231 c 0,-1.97933 0.66667,-2 64.5,-2 63.83333,0 64.5,0.0207 64.5,2 0,1.97933 -0.66667,2 -64.5,2 -63.83333,0 -64.5,-0.0207 -64.5,-2 z m 0,-13.00847 c 0,-1.99016 0.50326,-2.00611 55.23642,-1.75 51.69285,0.24189 55.25803,0.37074 55.57332,2.00847 0.3176,1.64971 -2.84776,1.75 -55.23642,1.75 C 302.58858,220 302,219.97873 302,217.99153 Z M 72,196.5 c 0,-2.25 0.4,-2.5 4,-2.5 h 4 V 176 158 H 96.5 113 v 18 18 h 6.98915 6.98914 L 127.23915,151.75 127.5,109.5 h 16.5 16.5 l 0.26085,42.25 0.26086,42.25 h 6.97469 6.9747 L 175.23555,163.25 175.5,132.5 h 16.5 16.5 l 0.26445,30.75 0.26445,30.75 H 216.01445 223 V 142 90 h 17 17 v 52 52 h 6.5 c 6.26667,0 6.5,0.0897 6.5,2.5 V 199 H 171 72 Z M 108.77539,178.43374 108.5,162.86749 96.249824,162.68374 83.999648,162.5 83.999824,178.25 84,194 H 96.525393 109.05079 Z M 156,154 v -40 h -12 -12 v 40 40 h 12 12 z m 48,11.5 V 137 h -12 -12 v 28.5 28.5 h 12 12 z M 252,144 V 94 h -12 -12 v 50 50 h 12 12 z m 50.2001,46.25 0.2999,-5.75 56.25,-0.25833 56.25,-0.25832 V 189.99167 196 h -56.5499 -56.54991 z m 0.47776,-14.90548 C 302.30504,174.9717 302,172.26667 302,169.33333 V 164 h 41.0499 41.04991 l -0.29991,5.75 -0.2999,5.75 -40.07214,0.26119 c -22.03968,0.14366 -40.37718,-0.0438 -40.75,-0.41667 z M 140.87909,96.879631 138.46532,92.5 126.98266,92.239157 C 111.96825,91.898085 112,91.931203 112,76.611722 112,59.665092 109.31879,61 143.3567,61 c 20.63368,0 28.56662,0.323317 29.4433,1.2 0.81271,0.812713 1.2,5.48107 1.2,14.464816 0,12.091079 -0.17115,13.356415 -1.93426,14.3 C 171.0019,91.534167 165.1519,92 159.06574,92 c -6.08616,0 -11.06805,0.3375 -11.07086,0.75 -0.003,0.4125 -1.06193,2.495834 -2.35357,4.629631 l -2.34844,3.879629 z M 157.36163,76.5 C 156.8882,75.266266 154.31986,75 142.89301,75 131.21033,75 129,75.238645 129,76.5 c 0,1.264218 2.27429,1.5 14.46862,1.5 12.45014,0 14.38831,-0.20926 13.89301,-1.5 z M 460,79.5 c 0,-2 0.5,-2.5 2.5,-2.5 2,0 2.5,0.5 2.5,2.5 0,2 -0.5,2.5 -2.5,2.5 -2,0 -2.5,-0.5 -2.5,-2.5 z m -6.62,0.04789 C 452.6046,77.527215 453.7578,76 456.05902,76 457.46273,76 458,76.692005 458,78.5 c 0,1.846208 -0.53124,2.5 -2.03138,2.5 -1.11727,0 -2.28214,-0.653451 -2.58862,-1.452113 z M 437,76 c 0,-1.111111 -0.66667,-2 -1.5,-2 -1.68305,0 -1.75069,-0.183146 -0.89301,-2.418213 C 434.94083,70.711804 435.67872,70 436.24675,70 c 0.56802,0 1.5798,-0.748116 2.2484,-1.66248 1.4886,-2.03578 4.99045,-1.045355 4.13999,1.170909 C 442.28792,70.413259 442.64048,71 443.53138,71 444.33912,71 445,71.9 445,73 c 0,1.1 -0.62686,2 -1.39301,2 -0.76616,0 -1.65203,0.675 -1.96862,1.5 C 440.75406,78.804488 437,78.399814 437,76 Z m 25.75,-0.74926 c -1.82632,-0.414719 -2.41785,-3.719955 -0.84024,-4.694967 1.56367,-0.966406 4.09024,0.573039 4.09024,2.492199 0,2.164281 -0.85814,2.745908 -3.25,2.202768 z M 454.01531,72.75 c 0.0303,-2.475363 1.71945,-3.968961 3.75713,-3.322225 C 460.66219,70.344948 459.55177,74 456.38337,74 c -1.31085,0 -2.37648,-0.5625 -2.36806,-1.25 z M 117.57143,29.428571 C 115.7287,27.585842 115.62879,26.562138 117.03518,23.934259 119.12384,20.031566 126,22.277828 126,26.86283 126,28.505601 122.98538,31 121,31 c -1.02143,0 -2.56429,-0.707143 -3.42857,-1.571429 z m -13.00658,-2.356907 c -3.65979,-4.044024 1.40616,-9.63113 6.00221,-6.619683 2.78938,1.827672 3.14342,4.694687 0.86151,6.97659 -2.11656,2.116557 -4.74915,1.979665 -6.86372,-0.356907 z M 91.500367,24.640905 c -2.953232,-4.507203 1.578176,-9.129912 6.066691,-6.188924 2.789382,1.827672 3.143422,4.694687 0.861513,6.97659 -2.262421,2.262422 -5.144394,1.934771 -6.928204,-0.787666 z M 346.25401,413.31985 c -7.2853,-19.61366 -13.1184,-35.78879 -12.96246,-35.94474 0.44034,-0.44033 73.69556,20.06034 73.69908,20.62489 0.002,0.275 -5.17047,3.3901 -11.49375,6.92245 C 389.17359,408.4548 384,411.62542 384,411.96827 c 0,0.34285 4.24113,4.42774 9.42473,9.07755 5.1836,4.6498 9.4586,8.70185 9.5,9.00456 C 403.05113,430.97466 392.90295,442 391.92581,442 c -0.50283,0 -5.04746,-3.825 -10.09919,-8.5 -5.05173,-4.675 -9.46408,-8.5 -9.80522,-8.5 -0.34114,0 -3.05077,5.4 -6.0214,12 -2.97063,6.6 -5.64839,11.99573 -5.95057,11.99052 -0.30219,-0.005 -6.51013,-16.05702 -13.79542,-35.67067 z M 41.710208,408.93881 c -0.984386,-0.5955 -10.771886,-14.5448 -21.75,-30.99845 C 5.7824437,356.69118 0,347.20617 0,345.19941 0,341.24929 2.183465,339.46813 28.27704,322.13236 53.452519,305.40655 55.426013,304.64083 60.19005,309.75 c 4.020658,4.31194 38.662469,56.81421 39.384161,59.68966 0.413729,1.64842 0.05641,3.47514 -0.993065,5.07684 -2.086434,3.1843 -48.731194,34.38509 -52.362795,35.0256 -1.495093,0.26369 -3.523758,-0.008 -4.508143,-0.60329 z M 71.015286,388.9898 c 19.648751,-13.11588 23.973786,-16.41512 23.924267,-18.25 -0.07946,-2.94444 -37.941949,-59.14803 -40.116166,-59.54899 -1.964649,-0.36231 -49.6431788,31.176 -50.4978455,33.40323 -0.3591008,0.9358 6.8867915,12.71152 19.0492995,30.95811 C 38.270823,397.8996 43.489164,405 45.01713,405 c 1.107393,0 12.806563,-7.20459 25.998156,-16.0102 z m -26.840409,6.3582 c -0.732464,-1.30884 -0.559739,-2.09877 0.668818,-3.05872 1.395656,-1.09052 1.408957,-1.20904 0.08452,-0.75313 -1.136557,0.39123 -3.422523,-2.23865 -8.25553,-9.49755 C 32.996625,376.51737 29.589574,372 29.101459,372 c -0.488115,0 -1.147789,-0.67835 -1.465943,-1.50745 -0.422648,-1.1014 5.080063,-5.28604 20.429116,-15.53571 l 21.007577,-14.02827 1.541676,3.68975 c 0.847922,2.02936 4.183461,7.61865 7.412309,12.42064 3.228848,4.80198 5.570063,9.03145 5.2027,9.39881 -0.367363,0.36737 0.04778,0.39329 0.922544,0.0576 0.981629,-0.37668 1.840291,0.0407 2.243058,1.09028 0.35892,0.93533 0.529489,1.79859 0.379043,1.91835 -0.888039,0.70696 -40.393018,27.0507 -40.942357,27.30226 -0.36785,0.16845 -1.113187,-0.48777 -1.656305,-1.45827 z M 58,383.3898 c 0,-0.17986 -0.565082,-0.11019 -1.255739,0.15484 -0.695898,0.26704 -2.334483,-1.26357 -3.675392,-3.43321 l -2.419653,-3.91508 -4.074608,2.53638 c -2.241034,1.395 -4.205215,2.64393 -4.364845,2.77539 -0.159631,0.13146 0.963186,2.25226 2.495148,4.7129 l 2.785386,4.47387 5.254852,-3.48902 C 55.635317,385.2869 58,383.56967 58,383.3898 Z m 12,-8.0904 c 0,-0.22959 -0.432995,-0.14983 -0.962211,0.17725 -0.529217,0.32707 -2.159313,-1.21427 -3.622438,-3.4252 -2.612481,-3.94772 -2.707384,-3.99191 -5.287788,-2.4618 -6.606754,3.91762 -6.606137,3.91635 -3.728665,7.68891 C 57.829504,379.15418 59,381.2134 59,381.85461 c 0,0.6412 2.475,-0.47749 5.5,-2.48598 3.025,-2.00848 5.5,-3.83964 5.5,-4.06923 z m -29.476645,3.73839 c -0.327074,-0.52922 1.230138,-2.16982 3.460472,-3.64578 4.029056,-2.66631 4.044386,-2.70033 2.382313,-5.28779 -4.212879,-6.55847 -3.608463,-6.29837 -7.935691,-3.41494 -2.161747,1.44048 -4.060237,2.71696 -4.218868,2.83663 C 33.840855,369.8056 40.164283,380 40.708493,380 c 0.225247,0 0.141935,-0.433 -0.185138,-0.96221 z M 82,367.2994 c 0,-0.22959 -0.38885,-0.17711 -0.864111,0.11662 -0.475261,0.29372 -3.875985,-3.98962 -7.557165,-9.51854 l -6.693055,-10.05259 -2.692834,1.73091 c -6.697184,4.30482 -6.726577,3.14131 0.346566,13.71846 C 68.09273,368.60789 71,373.42004 71,373.98792 c 0,0.56788 2.475,-0.6108 5.5,-2.61929 3.025,-2.00848 5.5,-3.83964 5.5,-4.06923 z m -25.97856,0.0677 C 58.209648,365.91903 60,364.55938 60,364.34567 c 0,-0.2137 -1.180097,-2.1718 -2.622437,-4.35132 -2.573539,-3.88888 -2.671432,-3.93372 -5.25,-2.4047 -6.583637,3.90392 -6.538367,3.7949 -3.436749,8.27592 1.545052,2.23219 2.931334,4.07561 3.080626,4.09648 0.149292,0.0209 2.061792,-1.14685 4.25,-2.59494 z M 19.190911,355.80247 13.099813,346.60494 33.144688,333.23185 C 51.316572,321.10834 56,318.79756 56,321.95516 c 0,0.55987 -8.2125,6.48686 -18.25,13.1711 -10.0375,6.68425 -18.374121,12.25192 -18.525825,12.37261 -0.151703,0.1207 2.040055,3.613 4.870574,7.76069 4.842087,7.09532 5.517524,9.74044 2.487238,9.74044 -0.714988,0 -4.040972,-4.13889 -7.391076,-9.19753 z M 334,405.5 c 0,-1.925 0,-3.725 0,-4 0,-0.275 0.9,-0.7563 2,-1.06955 1.79131,-0.51012 2,-0.0927 2,4 0,3.90288 -0.29179,4.56955 -2,4.56955 -1.61905,0 -2,-0.66667 -2,-3.5 z M 309.65216,394.53593 C 309.10518,393.11053 313.66813,389 315.79738,389 c 0.88842,0 2.6419,3.05752 1.97616,3.44579 -0.15045,0.0877 -1.49521,0.92333 -2.98836,1.85687 -3.32609,2.07952 -4.40572,2.12858 -5.13302,0.23327 z M 311.25,369.25462 c -3.21274,-1.59893 -4.16255,-3.5726 -2.27937,-4.73647 0.75071,-0.46396 6.17263,1.59692 7.80291,2.9659 0.4937,0.41457 -0.97195,3.5175 -1.63053,3.452 -0.35365,-0.0352 -2.10551,-0.79182 -3.89301,-1.68143 z m 40.83625,-1.65069 c -0.92844,-1.11871 -0.4597,-1.82804 2.35932,-3.57029 1.93488,-1.19582 3.97616,-1.89103 4.53619,-1.54491 1.90745,1.17887 1.02477,3.45653 -1.9321,4.98559 -3.59147,1.85722 -3.53093,1.85564 -4.96341,0.12961 z M 331.4305,355.57909 c -0.93407,-3.72159 -0.12619,-6.07909 2.0832,-6.07909 1.62192,0 2.04271,0.77964 2.2938,4.25 0.26847,3.71062 0.0488,4.25 -1.73095,4.25 -1.32259,0 -2.25182,-0.85016 -2.64605,-2.42091 z"
         id="path5" />
      <path
         style="fill:#facb41"
         d="m 359.06825,446.9432 c -2.72426,-6.25007 -25.73832,-68.9398 -25.42395,-69.25417 0.30368,-0.30368 68.19426,18.34913 72.29979,19.86423 0.86151,0.31793 -3.27361,3.17015 -10.25,7.06999 C 389.26234,408.21863 384,411.51882 384,411.957 c 0,0.43819 4.27102,4.71722 9.49116,9.50897 l 9.49116,8.71226 -5.14113,5.91089 C 395.01357,439.3401 392.41662,442 392.0702,442 c -0.34643,0 -4.8256,-3.825 -9.9537,-8.5 -5.12811,-4.675 -9.65115,-8.5 -10.0512,-8.5 -0.40005,0 -3.24843,5.48694 -6.32974,12.1932 -5.17096,11.25423 -5.68439,12.00505 -6.66731,9.75 z M 225.5,445 c -0.33992,-0.55 -0.16803,-1 0.38197,-1 0.55,0 1.27811,0.45 1.61803,1 0.33992,0.55 0.16803,1 -0.38197,1 -0.55,0 -1.27811,-0.45 -1.61803,-1 z M 211.19594,430.28769 C 210.60308,428.75446 208.19052,413.775 205.83468,397 c -2.69443,-19.18604 -4.49968,-29.38715 -4.86654,-27.5 -0.32077,1.65 -0.59062,-3.61511 -0.59967,-11.70024 -0.009,-8.08513 0.30118,-14.50393 0.68941,-14.26399 0.38822,0.23994 1.34051,-0.87415 2.11619,-2.47576 1.21292,-2.50439 1.21375,-4.49712 0.006,-14.23601 -0.7724,-6.2282 -1.74324,-11.549 -2.15742,-11.824 -0.41419,-0.275 -1.07454,-1.52982 -1.46745,-2.78849 -0.39292,-1.25867 -2.5263,-3.48756 -4.74087,-4.95309 -8.18725,-5.41807 -20.21531,-2.25224 -24.32468,6.40234 -2.09117,4.40411 -2.17146,13.4476 -0.44958,50.63403 0.99869,21.56801 0.61066,26.39912 -1.87939,23.39879 -0.79431,-0.95708 -1.51685,-10.35763 -2.17621,-28.31319 -1.46333,-39.84906 -1.55535,-45.24006 -0.76377,-44.74726 1.47236,0.91662 1.99048,-4.98209 1.2662,-14.41538 -0.41036,-5.34476 -1.02733,-8.94123 -1.37103,-7.99215 -0.34369,0.94908 -0.65647,-2.65092 -0.69505,-8 -0.0554,-7.68579 -0.52143,-10.73729 -2.22181,-14.54924 -1.39972,-3.13789 -2.56342,-4.56917 -3.32984,-4.09549 -0.7459,0.46099 -0.91162,0.29687 -0.45169,-0.44732 1.07015,-1.73154 -5.95207,-4.39468 -9.52105,-3.6108 -1.59303,0.34989 -2.89641,1.05041 -2.89641,1.55671 0,0.50629 -0.5625,0.80804 -1.25,0.67054 -0.6875,-0.1375 -1.1375,0.3125 -1,1 0.1375,0.6875 -0.26365,1.1375 -0.89145,1 -0.6278,-0.1375 -2.05048,1.26601 -3.16151,3.11892 -2.37677,3.96383 -2.44496,11.32162 -0.58354,62.95967 0.83438,23.14687 0.83645,31.62146 0.008,32.45 -0.70581,0.70581 -1.45941,0.76933 -2.03341,0.17141 -0.96876,-1.00912 -3.088,-55.46035 -3.088,-79.34237 0,-10.49835 -0.3025,-14.03871 -1.15451,-13.51214 -0.72104,0.44563 -0.88282,0.27393 -0.4309,-0.45729 0.39798,-0.64395 1.09536,-0.94107 1.54972,-0.66026 1.28399,0.79355 3.16969,-4.95362 3.16994,-9.66124 1.2e-4,-2.09354 2.4197,-4.21041 3.82195,-3.34377 1.85246,1.14488 1.10818,2.77717 -1.01335,2.22238 -1.68797,-0.44142 -1.84546,-0.28289 -0.87756,0.88336 0.70894,0.85422 0.77443,1.42133 0.16414,1.42133 -0.5585,0 -1.31735,0.78674 -1.68634,1.74831 -0.46666,1.21608 0.18574,0.94885 2.14301,-0.87781 3.93386,-3.67135 6.60447,-4.8705 10.84703,-4.8705 8.26393,0 14.38105,5.78896 16.60148,15.71089 1.3564,6.06106 0.11264,5.46589 16.36539,7.83116 28.16908,4.09945 31.84578,4.52558 32.40385,3.75561 0.81449,-1.12376 6.22241,-1.31097 5.53052,-0.19146 -0.30382,0.49159 -1.53835,0.94673 -2.74339,1.01142 -2.49576,0.13398 5.32827,1.58049 12.80902,2.36814 2.75,0.28955 16.475,2.33984 30.5,4.5562 14.025,2.21637 26.4968,3.85402 27.71511,3.63924 1.21832,-0.21479 2.34332,-0.0553 2.5,0.35434 0.26188,0.68471 5.77742,1.57666 43.28489,6.99984 7.15,1.03382 18.85,2.80345 26,3.93251 81.685,12.89894 82.3936,12.95649 86.59164,7.03211 1.34248,-1.89454 6.40591,-32.10679 20.90746,-124.74955 C 479.52388,123.0132 487.86254,67.142271 487.52946,66.092832 487.19638,65.043394 486.20151,63.90757 485.31864,63.56878 484.43577,63.229989 470.1654,60.948581 453.60671,58.498983 437.04802,56.049385 422.0375,53.789615 420.25,53.477271 L 417,52.909374 V 97.954687 143 H 360 303 V 89.5 C 303,60.075 302.6625,36.003725 302.25,36.008277 301.8375,36.012829 252.28386,28.76647 192.1308,19.905255 85.782152,4.2389181 82.711892,3.8451337 80.961799,5.6469785 79.505286,7.1465631 75.494273,30.900312 59.932608,130.18464 42.664629,240.35536 40.836001,253.18986 42.005015,256.01211 c 0.715989,1.72855 2.245265,3.75188 3.398391,4.49629 C 47.012324,261.54705 112.12053,272 116.98104,272 c 0.56043,0 1.01896,0.9 1.01896,2 0,1.1 -0.6511,2 -1.44689,2 -0.79579,0 -16.883293,-2.27618 -35.750003,-5.05817 C 55.626633,267.22943 45.834854,265.40907 44,264.09988 40.44921,261.56635 37.001347,256.15539 36.992228,253.10212 36.987954,251.67095 45.570861,195.6 56.065354,128.5 70.587208,35.649743 75.571317,5.9026692 76.925274,4 77.903737,2.625 79.79339,1.1116576 81.124503,0.63701682 82.815211,0.0341541 116.43677,4.6308103 192.66835,15.887017 252.68636,24.749158 302.0638,32 302.396,32 302.7282,32 303,26.6 303,20 V 8 h 57 57 v 20.388709 20.388709 l 3.25,0.597272 c 1.7875,0.3285 17.2,2.636387 34.25,5.128637 32.71522,4.782085 35.01968,5.450494 36.89078,10.700221 1.06653,2.992337 -36.79545,246.653022 -38.99738,250.967612 -1.47674,2.89359 -5.57482,6.15719 -9.10888,7.25408 -1.21852,0.37819 -14.71852,-1.10878 -30,-3.30438 -62.89016,-9.03589 -70.95837,-10.07395 -74.78452,-9.62177 -3.33217,0.39379 -3.5826,0.31307 -1.5,-0.48352 2.22489,-0.85101 2.08734,-0.92658 -1.25,-0.6867 -2.0625,0.14824 -3.75,-0.0262 -3.75,-0.38765 0,-1.0327 -17.64627,-3.17894 -20.20484,-2.45743 -1.36603,0.38521 -1.80687,0.30416 -1.08899,-0.20021 0.72546,-0.5097 -5.13244,-1.76855 -14.69807,-3.15859 -14.65652,-2.12982 -16.08268,-2.18616 -18.17868,-0.71806 -1.25094,0.87619 -2.9618,1.5901 -3.80193,1.58648 -0.92369,-0.004 -0.43709,-0.72561 1.23099,-1.82555 l 2.75847,-1.81896 -16.25847,-2.39877 c -8.94217,-1.31932 -18.35301,-2.41032 -20.91299,-2.42445 -2.55998,-0.0141 -4.13498,-0.35629 -3.5,-0.76037 0.6536,-0.41592 -0.0384,-0.74133 -1.59505,-0.75 -1.51225,-0.008 -6.68725,-0.65394 -11.5,-1.43449 -15.37591,-2.49373 -16.41949,-2.57743 -15.94138,-1.27865 0.24252,0.65881 0.98064,1.07418 1.64027,0.92305 0.65963,-0.15112 0.91972,0.17765 0.57797,0.73061 -0.79953,1.29366 7.40003,12.20711 8.60978,11.45945 0.50186,-0.31017 0.84803,-0.19299 0.76928,0.26039 -0.38728,2.22937 0.24523,2.51966 1.6678,0.76546 0.86578,-1.06762 1.28923,-1.37863 0.94098,-0.69113 -0.34825,0.6875 -0.0441,1.25689 0.67584,1.26531 1.0497,0.0123 1.05671,0.17544 0.0354,0.82363 -0.97289,0.61743 -0.79578,1.24076 0.75,2.63967 1.11299,1.00725 2.02363,1.43649 2.02363,0.95387 0,-0.48262 0.70052,0.12264 1.5567,1.34501 0.85619,1.22238 2.15109,2.22251 2.87756,2.22251 0.72647,0 1.90506,0.70393 2.61909,1.56429 0.85769,1.03345 2.17178,1.36249 3.87245,0.96962 1.70658,-0.39423 2.11792,-0.29013 1.22043,0.30886 -0.96519,0.64419 0.45398,1.51402 4.94417,3.03038 6.22801,2.10323 11.57362,2.91619 7.4096,1.12685 -1.53877,-0.66123 -1.62466,-0.87564 -0.37244,-0.92971 0.89515,-0.0387 2.18775,0.60471 2.87244,1.42971 0.94625,1.14016 3.31459,1.47162 9.87244,1.38169 4.74516,-0.0651 9.97756,-0.4974 11.62756,-0.96072 2.4266,-0.68138 2.05473,-0.7736 -1.94559,-0.48247 -3.73766,0.27201 -4.50225,0.11182 -3.13047,-0.65587 0.99831,-0.55869 3.81912,-0.78991 6.26847,-0.51383 2.96259,0.33392 7.3557,-0.29656 13.12345,-1.88342 C 298.86995,315.61922 301,315.45539 301,317.44826 c 0,0.91637 -2.20356,2.06655 -6,3.13178 -3.3,0.92593 -6,1.96171 -6,2.30174 0,0.34002 -1.0125,0.66661 -2.25,0.72575 -1.2375,0.0591 -5.85,0.84657 -10.25,1.74983 -14.04596,2.88346 -27.85697,1.53059 -40.27863,-3.94553 -2.90324,-1.2799 -5.94074,-2.07301 -6.75,-1.76247 -0.80925,0.31054 -1.47137,0.0399 -1.47137,-0.60139 0,-0.6413 0.51953,-0.84492 1.15451,-0.45248 0.73827,0.45628 0.88207,0.27271 0.39885,-0.50916 -0.41561,-0.67247 -1.37975,-0.98319 -2.14251,-0.69049 -0.76277,0.2927 -1.27976,0.16312 -1.14885,-0.28795 0.1309,-0.45108 -2.04554,-2.63294 -4.83654,-4.84858 -2.791,-2.21564 -6.54301,-5.88252 -8.3378,-8.14863 -1.79479,-2.2661 -3.66859,-3.86968 -4.164,-3.5635 -0.49541,0.30618 -0.60921,-0.25418 -0.25288,-1.24524 0.35634,-0.99107 0.2752,-1.46346 -0.1803,-1.04976 C 207.57935,299.07971 204,296.26626 204,294.72257 c 0,-0.5321 0.7875,-0.35761 1.75,0.38775 1.66667,1.29068 1.66667,1.25705 0,-0.70629 -0.9625,-1.13383 -1.75,-2.73255 -1.75,-3.5527 0,-1.12188 -2.21926,-1.78666 -8.96099,-2.68426 -4.92855,-0.65619 -9.31605,-1.11578 -9.75,-1.02131 -0.43396,0.0945 -1.46401,-0.10157 -2.28901,-0.43563 -0.825,-0.33406 -4.35924,-1.01509 -7.85387,-1.5134 l -6.35386,-0.90602 0.65972,7.60464 c 0.36285,4.18256 0.90884,9.06272 1.21331,10.84481 l 0.55359,3.24016 3.11817,-2.22033 c 4.55272,-3.24182 14.89619,-3.70197 20.37584,-0.90646 2.2217,1.13343 4.39232,1.74256 4.8236,1.35362 0.43128,-0.38893 0.49762,-0.20479 0.14741,0.4092 -0.35021,0.614 0.28979,1.95486 1.42223,2.9797 3.12939,2.83207 4.76723,7.69291 5.98318,17.75719 0.6078,5.03072 1.22195,9.26985 1.36476,9.4203 0.59601,0.62785 3.49376,-1.04892 3.05094,-1.76542 -0.26592,-0.43027 0.0742,-0.76223 0.75574,-0.73768 5.79971,0.20887 8.63261,-0.42359 9.04991,-2.02044 0.43555,-1.66667 0.46285,-1.66667 0.57333,0 0.10902,1.64463 3.50879,2.4135 7.96635,1.8016 0.7427,-0.10195 1.15874,0.18223 0.92455,0.63152 -0.23419,0.44928 1.62976,2.61688 4.14213,4.81688 2.51236,2.2 3.94516,3.2022 3.184,2.22711 -1.19142,-1.5263 -1.17878,-1.69418 0.0909,-1.20697 0.81113,0.31126 1.53109,1.78406 1.59991,3.27289 0.20391,4.41102 6.85657,28.84021 7.40912,27.20697 0.27912,-0.825 0.35458,-0.54751 0.1677,0.61664 -0.18688,1.16415 0.50821,5.88915 1.54465,10.5 1.03644,4.61085 2.6712,11.85647 3.6328,16.10139 0.96161,4.24492 2.12697,7.48404 2.5897,7.19806 0.46273,-0.28598 0.60892,0.0857 0.32487,0.82588 -0.28405,0.74022 0.57635,5.96989 1.91199,11.62149 2.1047,8.90579 2.22828,10.35246 0.92698,10.85181 -1.93586,0.74286 -2.96494,-0.99787 -3.77215,-6.38071 C 254.16996,417.95055 253.42847,416 252.87971,416 c -0.54876,0 -0.7349,-0.42528 -0.41366,-0.94508 0.32125,-0.51979 -0.84878,-6.88399 -2.60006,-14.14267 -2.81249,-11.65711 -3.34068,-12.98356 -4.52508,-11.3638 -1.59783,2.18517 -1.77716,1.13521 -0.28297,-1.65672 1.35887,-2.53906 -2.85979,-22.70589 -4.32439,-20.67226 -0.65098,0.90392 -0.75037,0.74948 -0.33792,-0.52511 0.71244,-2.20163 -2.87484,-18.78659 -4.91815,-22.73791 -1.87815,-3.63194 -7.06264,-7.54369 -11.14364,-8.40799 -4.04482,-0.85663 -10.54096,0.30739 -9.66105,1.73113 0.40418,0.65397 0.0421,0.82497 -0.94492,0.44622 -2.0433,-0.78408 -7.02374,3.06078 -6.32465,4.88259 0.28864,0.75218 -0.0215,1.26051 -0.68921,1.1296 -0.67249,-0.13184 -1.18098,0.74346 -1.13995,1.96228 0.0407,1.21015 -0.29677,1.9711 -0.75,1.69098 -1.59291,-0.98447 -0.69279,10.32944 2.59432,32.60874 2.32721,15.77332 3.45527,21.30415 3.77323,18.5 0.24947,-2.2 0.42422,-0.625 0.38835,3.5 -0.0824,9.472 1.38094,20.29613 2.37418,17.56183 0.38723,-1.06599 0.63689,1.38203 0.55481,5.44005 -0.15765,7.79464 -1.50915,9.9509 -3.31301,5.28581 z M 208.15789,426 c 0,-1.375 0.22698,-1.9375 0.50439,-1.25 0.27741,0.6875 0.27741,1.8125 0,2.5 -0.27741,0.6875 -0.50439,0.125 -0.50439,-1.25 z M 268,421 c 0,-0.55 0.47656,-1 1.05902,-1 0.58246,0 0.7809,0.45 0.44098,1 -0.33992,0.55 -0.81648,1 -1.05902,1 C 268.19844,422 268,421.55 268,421 Z m -9.92105,-7.58333 c 0.048,-1.16495 0.28494,-1.4019 0.60416,-0.60417 0.28887,0.72187 0.25335,1.58438 -0.0789,1.91667 -0.33229,0.33229 -0.56864,-0.25834 -0.52522,-1.3125 z M 42.268703,408.97576 C 39.424444,407.83174 0,348.80139 0,345.68669 0,344.45377 0.63256664,342.5419 1.4057036,341.43809 2.1788407,340.33428 13.775508,332.13415 27.176076,323.21558 53.286002,305.83847 55.657584,304.82042 59.709581,309.25 62.46734,312.26474 100,368.83099 100,369.97253 c 0,4.16063 -3.229384,6.86226 -27.513034,23.01678 -14.063867,9.35588 -26.114334,16.98217 -26.778816,16.9473 -0.664483,-0.0349 -2.212234,-0.46724 -3.439447,-0.96085 z m 29.435595,-20.119 c 12.212364,-8.1496 22.65531,-15.66018 23.206547,-16.69017 0.832675,-1.55587 -2.331972,-6.8835 -18.704298,-31.48841 C 61.37727,318.39223 56.00501,311.05865 54.5,311.04694 52.301405,311.02984 6.2101413,341.71975 4.5994045,344.2733 c -0.7887511,1.25043 3.1209156,7.77933 18.3936915,30.71633 10.667442,16.02061 20.083829,29.51367 20.925304,29.98458 1.993219,1.11546 1.754383,1.254 27.785898,-16.11745 z m -27.064818,7.44939 c -1.818794,-1.8188 0.854117,-4.14768 17.61052,-15.34387 15.524274,-10.37291 23.602935,-16.12938 19.121523,-13.62507 -0.670778,0.37484 -3.675116,-3.23146 -7.407335,-8.89152 -3.453371,-5.23717 -6.642294,-9.74675 -7.086495,-10.02128 -1.320287,-0.81598 -8.913297,4.70316 -8.182493,5.94762 0.364317,0.62038 3.281936,5.04821 6.483597,9.83961 C 68.380459,369.00304 71,373.3424 71,373.85465 c 0,0.51226 -0.677362,1.1913 -1.505248,1.50899 -0.998806,0.38328 -2.385804,-0.75299 -4.122438,-3.37722 -2.56813,-3.88071 -2.666442,-3.92564 -5.244751,-2.39677 -6.612013,3.92074 -6.560851,3.79849 -3.515439,8.40042 2.288068,3.4575 2.512468,4.31849 1.321889,5.07187 -2.109875,1.33511 -2.210661,1.27326 -4.974977,-3.05344 l -2.540965,-3.97711 -3.815158,2.59247 c -3.407252,2.31529 -3.977062,2.43056 -5.329448,1.07818 -1.352386,-1.35239 -1.075435,-1.80471 2.590333,-4.2306 4.035063,-2.67028 4.078219,-2.76084 2.546551,-5.34388 -3.918495,-6.60822 -3.801578,-6.5588 -8.367814,-3.53701 -2.412209,1.59632 -3.921321,3.28295 -3.626009,4.05252 0.278211,0.725 3.272329,5.43255 6.653595,10.46121 4.775184,7.10172 5.844355,9.33527 4.788818,10.00406 -0.747417,0.47357 -1.620392,0.86793 -1.939945,0.87635 -0.319553,0.008 -3.323914,-4.14719 -6.676359,-9.23469 -3.352444,-5.0875 -7.07935,-10.07664 -8.282012,-11.08698 -1.202663,-1.01034 -1.798301,-2.19154 -1.323641,-2.62488 C 29.890508,366.98078 68.088939,342 68.981346,342 c 0.56026,0 1.074904,0.45 1.143654,1 0.06875,0.55 0.18125,1.36956 0.25,1.82125 0.06875,0.45168 2.9375,5.08651 6.375,10.29962 3.4375,5.2131 6.25,10.00441 6.25,10.64736 0,0.64295 0.616931,0.93226 1.370958,0.64291 1.127295,-0.43258 3.306762,2.37307 2.402581,3.09287 -0.568061,0.45223 -39.323589,26.15623 -40.384059,26.78411 -0.610786,0.36163 -1.398286,0.36974 -1.75,0.018 z M 56.02144,367.36711 C 58.209648,365.91903 60,364.55938 60,364.34567 60,363.71748 54.771287,356 54.345673,356 53.717476,356 46,361.22871 46,361.65433 46,362.28252 51.228713,370 51.654327,370 c 0.213704,0 2.178905,-1.1848 4.367113,-2.63289 z M 19.650107,356.50981 C 16.542548,351.84021 14,347.57082 14,347.02227 14,346.47373 22.815448,340.13669 33.589884,332.93996 51.364174,321.06772 56,318.79537 56,321.95516 c 0,0.55987 -8.2125,6.48686 -18.25,13.1711 -10.0375,6.68425 -18.400906,12.27871 -18.585347,12.43214 -0.184442,0.15343 2.003661,3.74522 4.86245,7.98177 4.061973,6.01958 4.900075,7.89143 3.835348,8.566 -0.749348,0.47476 -1.632403,0.8701 -1.962344,0.87852 -0.329942,0.008 -3.142442,-3.80527 -6.25,-8.47488 z M 334.59777,408.26443 C 334.26899,407.93566 334,405.94167 334,403.83333 334,400.66667 334.34783,400 336,400 c 1.65751,0 2,0.66667 2,3.89301 0,3.61476 -1.82019,5.95346 -3.40223,4.37142 z m -129.51882,-3.84776 c 0.048,-1.16495 0.28494,-1.4019 0.60416,-0.60417 0.28887,0.72187 0.25335,1.58438 -0.0789,1.91667 -0.3323,0.33229 -0.56864,-0.25834 -0.52522,-1.3125 z M 280,399 c 0,-0.55 0.45,-1 1,-1 0.55,0 1,0.45 1,1 0,0.55 -0.45,1 -1,1 -0.55,0 -1,-0.45 -1,-1 z m 29.62786,-4.52739 c -0.38733,-1.00937 0.50906,-2.19515 2.64301,-3.49626 3.87082,-2.36013 4.34935,-2.40841 5.07697,-0.51228 0.34169,0.89044 -0.55844,2.26176 -2.29738,3.5 -3.41819,2.43397 -4.63978,2.54853 -5.4226,0.50854 z M 285,393 c 0,-0.55 0.47656,-1 1.05902,-1 0.58246,0 0.7809,0.45 0.44098,1 -0.33992,0.55 -0.81648,1 -1.05902,1 C 285.19844,394 285,393.55 285,393 Z m -114,-3 c 0,-0.55 0.47656,-1 1.05902,-1 0.58246,0 0.7809,0.45 0.44098,1 -0.33992,0.55 -0.81648,1 -1.05902,1 C 171.19844,391 171,390.55 171,390 Z m 79.25,-9.57733 c 0,-2.30311 0.15222,-2.45533 0.97862,-0.97862 0.63817,1.14034 0.63817,2.08916 0,2.72733 -0.63816,0.63816 -0.97862,0.0298 -0.97862,-1.74871 z M 200.232,377 c 0,-1.925 0.2058,-2.7125 0.45733,-1.75 0.25152,0.9625 0.25152,2.5375 0,3.5 -0.25153,0.9625 -0.45733,0.175 -0.45733,-1.75 z M 142.5,375 c -0.33992,-0.55 -0.14148,-1 0.44098,-1 0.58246,0 1.05902,0.45 1.05902,1 0,0.55 -0.19844,1 -0.44098,1 -0.24254,0 -0.7191,-0.45 -1.05902,-1 z m 99,0 c 0.33992,-0.55 0.81648,-1 1.05902,-1 0.24254,0 0.44098,0.45 0.44098,1 0,0.55 -0.47656,1 -1.05902,1 -0.58246,0 -0.7809,-0.45 -0.44098,-1 z m -1.5,-2.88197 c 0,-0.55 0.45,-1.27811 1,-1.61803 0.55,-0.33992 1,-0.16803 1,0.38197 0,0.55 -0.45,1.27811 -1,1.61803 -0.55,0.33992 -1,0.16803 -1,-0.38197 z m 71.25,-2.86341 c -3.49479,-1.7393 -3.67028,-2.04315 -2.36739,-4.09892 0.70042,-1.10516 1.45377,-1.03806 4.23469,0.37717 4.27651,2.17635 4.03772,1.89958 3.29925,3.824 -0.75647,1.97132 -1.0102,1.9663 -5.16655,-0.10225 z m 41.41667,-0.92129 c -1.36759,-1.36758 -0.56494,-2.88403 2.42819,-4.58763 1.69521,-0.96487 3.49237,-1.50081 3.99367,-1.19098 1.72657,1.06708 0.90448,3.01819 -1.99282,4.72967 -3.26348,1.92779 -3.4953,1.98269 -4.42904,1.04894 z M 206.82193,365.5 c -0.64456,-2.99648 -0.33292,-4.34433 0.75331,-3.25809 0.31639,0.31639 0.42152,1.85389 0.23363,3.41667 L 207.46725,368.5 Z m -65.03818,-1.67054 c 1.03872,-2.14703 1.85338,-2.96169 2.06362,-2.06362 0.19105,0.81613 -0.58126,2.41249 -1.71625,3.54748 l -2.06361,2.06362 z M 246,364.55902 C 246,363.70156 246.45,363 247,363 c 0.55,0 1,0.42344 1,0.94098 0,0.51754 -0.45,1.2191 -1,1.55902 -0.55,0.33992 -1,-0.0835 -1,-0.94098 z M 131.63837,358.5 c 0.31659,-0.825 0.75246,-1.5 0.96862,-1.5 0.21615,0 0.39301,0.675 0.39301,1.5 0,0.825 -0.43588,1.5 -0.96862,1.5 -0.53273,0 -0.70959,-0.675 -0.39301,-1.5 z M 332,355.58179 c 0,-1.33002 -0.27314,-3.13002 -0.60699,-4 -0.45784,-1.19311 0.0336,-1.58179 2,-1.58179 2.37482,0 2.60699,0.35622 2.60699,4 0,3.33333 -0.33333,4 -2,4 -1.44863,0 -2,-0.66667 -2,-2.41821 z M 197.27236,352 c 0,-2.475 0.19502,-3.4875 0.43337,-2.25 0.23836,1.2375 0.23836,3.2625 0,4.5 -0.23835,1.2375 -0.43337,0.225 -0.43337,-2.25 z m 99.88553,-1 c 0,-1.375 0.22698,-1.9375 0.50439,-1.25 0.27741,0.6875 0.27741,1.8125 0,2.5 -0.27741,0.6875 -0.50439,0.125 -0.50439,-1.25 z m -127,-5 c 0,-1.375 0.22698,-1.9375 0.50439,-1.25 0.27741,0.6875 0.27741,1.8125 0,2.5 -0.27741,0.6875 -0.50439,0.125 -0.50439,-1.25 z M 377,345 c -0.90129,-0.58246 -1.02463,-0.97549 -0.30902,-0.98469 0.65504,-0.008 1.4691,0.43469 1.80902,0.98469 0.7673,1.24153 0.42112,1.24153 -1.5,0 z m -145,-2 c 0,-0.55 0.47656,-1 1.05902,-1 0.58246,0 0.7809,0.45 0.44098,1 -0.33992,0.55 -0.81648,1 -1.05902,1 C 232.19844,344 232,343.55 232,343 Z M 119.43355,315.5 c -6.1e-4,-13.75 0.14023,-19.5137 0.31298,-12.80822 0.17275,6.70549 0.17325,17.95549 10e-4,25 C 119.5755,334.7363 119.43416,329.25 119.43355,315.5 Z M 210.75,339.33772 c 0.6875,-0.27741 1.8125,-0.27741 2.5,0 0.6875,0.27741 0.125,0.50439 -1.25,0.50439 -1.375,0 -1.9375,-0.22698 -1.25,-0.50439 z M 133.19495,331.5 c 0.0204,-1.65 0.2445,-2.20394 0.49804,-1.23097 0.25354,0.97297 0.23687,2.32297 -0.0371,3 -0.27393,0.67703 -0.48137,-0.11903 -0.46099,-1.76903 z m 37.884,-1.08333 c 0.048,-1.16495 0.28494,-1.4019 0.60416,-0.60417 0.28887,0.72187 0.25335,1.58438 -0.0789,1.91667 -0.3323,0.33229 -0.56864,-0.25834 -0.52522,-1.3125 z M 201.5,331 c -0.33992,-0.55 -0.14148,-1 0.44098,-1 0.58246,0 1.05902,0.45 1.05902,1 0,0.55 -0.19844,1 -0.44098,1 -0.24254,0 -0.7191,-0.45 -1.05902,-1 z m -1.40032,-4.69098 C 200.04486,324.55398 200.45,322.83992 201,322.5 c 1.14998,-0.71073 1.14998,0.90919 0,4.5 -0.76461,2.38749 -0.80513,2.35639 -0.90032,-0.69098 z m 78.71282,0.008 c 0.72187,-0.28887 1.58438,-0.25335 1.91667,0.0789 0.33229,0.33229 -0.25834,0.56864 -1.3125,0.52522 -1.16495,-0.048 -1.4019,-0.28494 -0.60417,-0.60416 z m -45.85785,-3.67051 c 0.47089,-0.47146 1.66133,-0.40104 2.659,0.15728 1.55378,0.86954 1.43454,0.98892 -0.8526,0.85363 -1.46781,-0.0868 -2.27705,-0.5397 -1.8064,-1.01091 z m -99.8757,-1.22971 c 0.048,-1.16495 0.28494,-1.4019 0.60416,-0.60417 0.28887,0.72187 0.25335,1.58438 -0.0789,1.91667 -0.3323,0.33229 -0.56864,-0.25834 -0.52522,-1.3125 z M 264.8125,321.317 c 0.72187,-0.28887 1.58438,-0.25335 1.91667,0.0789 0.33229,0.33229 -0.25834,0.56864 -1.3125,0.52522 -1.16495,-0.048 -1.4019,-0.28494 -0.60417,-0.60416 z m -10,-1 c 0.72187,-0.28887 1.58438,-0.25335 1.91667,0.0789 0.33229,0.33229 -0.25834,0.56864 -1.3125,0.52522 -1.16495,-0.048 -1.4019,-0.28494 -0.60417,-0.60416 z M 240.75,317.33772 c 0.6875,-0.27741 1.8125,-0.27741 2.5,0 0.6875,0.27741 0.125,0.50439 -1.25,0.50439 -1.375,0 -1.9375,-0.22698 -1.25,-0.50439 z M 285,317.03138 c 0,-0.53273 0.675,-0.70959 1.5,-0.39301 0.825,0.31659 1.5,0.75246 1.5,0.96862 0,0.21615 -0.675,0.39301 -1.5,0.39301 -0.825,0 -1.5,-0.43588 -1.5,-0.96862 z m -61.47301,-0.98771 c -0.32507,-0.52598 -1.13913,-0.82473 -1.80902,-0.66389 -0.66988,0.16084 -0.87767,0.10275 -0.46174,-0.12909 0.41593,-0.23183 0.45107,-0.94558 0.0781,-1.5861 -0.37297,-0.64052 0.29922,-0.30735 1.49377,0.7404 1.19454,1.04774 2.17189,2.06024 2.17189,2.25 0,0.69248 -0.89739,0.32006 -1.47301,-0.61132 z M 171.09426,315.5 c -0.1166,-1.83234 1.71695,-3.8482 3.78761,-4.1642 1.46696,-0.22388 1.88465,0.10907 1.47525,1.17595 -0.31411,0.81854 -1.38545,1.48825 -2.38078,1.48825 -0.99532,0 -2.03665,0.5625 -2.31406,1.25 -0.27741,0.6875 -0.53302,0.8 -0.56802,0.25 z m 191.41505,-0.48494 c -0.38035,-0.61542 0.62923,-0.74912 2.69098,-0.35636 4.42127,0.84223 4.80279,1.3413 1.02539,1.3413 -1.7092,0 -3.38157,-0.44322 -3.71637,-0.98494 z m -156.807,-1.34846 c -0.31682,-0.82559 0.0706,-1.7492 0.86083,-2.05246 1.61142,-0.61835 1.82465,0.22579 0.56071,2.21971 -0.68783,1.08507 -0.95296,1.05388 -1.42154,-0.16725 z M 217,310.94098 c 0,-0.58246 0.45,-0.7809 1,-0.44098 0.55,0.33992 1,0.81648 1,1.05902 0,0.24254 -0.45,0.44098 -1,0.44098 -0.55,0 -1,-0.47656 -1,-1.05902 z M 164,310 c 0,-0.55 0.45,-1 1,-1 0.55,0 1,0.45 1,1 0,0.55 -0.45,1 -1,1 -0.55,0 -1,-0.45 -1,-1 z m 1.19495,-4.5 c 0.0204,-1.65 0.2445,-2.20394 0.49804,-1.23097 0.25354,0.97297 0.23687,2.32297 -0.0371,3 -0.27393,0.67703 -0.48137,-0.11903 -0.46099,-1.76903 z M 178.5,307 c 1.1,-0.47269 3.125,-0.85943 4.5,-0.85943 2.27881,0 2.32305,0.076 0.5,0.85943 -1.1,0.47269 -3.125,0.85943 -4.5,0.85943 -2.27881,0 -2.32305,-0.076 -0.5,-0.85943 z m 34,0 c -0.33992,-0.55 -0.14148,-1 0.44098,-1 0.58246,0 1.05902,0.45 1.05902,1 0,0.55 -0.19844,1 -0.44098,1 -0.24254,0 -0.7191,-0.45 -1.05902,-1 z m 145.39145,-0.9071 c -4.01234,-0.5162 -4.5201,-0.84218 -3.92487,-2.51979 0.63004,-1.77569 0.73626,-1.78989 1.35363,-0.18104 0.43277,1.12778 1.30978,1.54275 2.47732,1.17219 0.99406,-0.3155 2.68378,0.0892 3.75493,0.89925 1.07115,0.81008 1.72254,1.4165 1.44754,1.34758 -0.275,-0.0689 -2.57385,-0.3921 -5.10855,-0.71819 z m -155.34874,-1.0238 c -0.31644,-0.512 -0.11799,-1.21356 0.44098,-1.55902 0.55897,-0.34546 1.01631,0.0734 1.01631,0.9309 0,1.75653 -0.60006,2.01516 -1.45729,0.62812 z m 6.0603,-1.90243 c -0.28327,-0.45834 0.12038,-0.83334 0.89699,-0.83334 0.77661,0 1.18026,0.375 0.89699,0.83334 C 210.11373,303.625 209.71008,304 209.5,304 c -0.21008,0 -0.61373,-0.375 -0.89699,-0.83333 z m 56.47594,-0.75 c 0.048,-1.16495 0.28494,-1.4019 0.60416,-0.60417 0.28887,0.72187 0.25335,1.58438 -0.0789,1.91667 -0.33229,0.33229 -0.56864,-0.25834 -0.52522,-1.3125 z M 280,303 c 0.825,-0.53316 2.4,-0.94464 3.5,-0.9144 l 2,0.055 -2,0.85943 c -1.1,0.47269 -2.675,0.88417 -3.5,0.9144 -1.33333,0.0489 -1.33333,-0.0527 0,-0.9144 z m -147.92105,-1.58333 c 0.048,-1.16495 0.28494,-1.4019 0.60416,-0.60417 0.28887,0.72187 0.25335,1.58438 -0.0789,1.91667 -0.3323,0.33229 -0.56864,-0.25834 -0.52522,-1.3125 z m 40.73355,0.90022 c 0.72187,-0.28887 1.58437,-0.25335 1.91667,0.0789 0.33229,0.33229 -0.25834,0.56864 -1.3125,0.52522 -1.16495,-0.048 -1.4019,-0.28494 -0.60417,-0.60416 z m 44.64638,-0.38342 c -0.36253,-0.58659 -0.41903,-1.30665 -0.12555,-1.60014 0.71632,-0.71631 2.66667,0.54583 2.66667,1.72569 0,1.27797 -1.72641,1.19267 -2.54112,-0.12555 z M 194,301 c 0,-0.55 0.45,-1 1,-1 0.55,0 1,0.45 1,1 0,0.55 -0.45,1 -1,1 -0.55,0 -1,-0.45 -1,-1 z m 132.5,0 c -0.731,-1.18278 0.24752,-1.18278 3,0 1.92824,0.82859 1.92138,0.86195 -0.19098,0.92971 C 328.10398,301.96837 326.83992,301.55 326.5,301 Z m 21.5,-1.55902 c 0,-0.85746 0.45734,-1.27636 1.01631,-0.9309 0.55897,0.34546 0.75742,1.04702 0.44098,1.55902 C 348.60006,301.45614 348,301.19751 348,299.44098 Z M 224,298.5 c 0,-0.825 -0.64844,-1.5 -1.44098,-1.5 -0.79254,0 -1.75942,-0.51524 -2.14863,-1.14499 -0.48915,-0.79147 0.1175,-0.98725 1.96485,-0.63411 1.46987,0.28099 2.91331,0.12123 3.20764,-0.35501 1.05816,-1.71214 1.9959,-0.8108 2.2203,2.13411 0.18415,2.41681 -0.16329,3 -1.7873,3 C 224.89065,300 224,299.33727 224,298.5 Z m 31,0.5 c -0.90129,-0.58246 -1.02463,-0.97549 -0.30902,-0.98469 0.65504,-0.008 1.4691,0.43469 1.80902,0.98469 0.7673,1.24153 0.42112,1.24153 -1.5,0 z m 165.66691,-0.42564 c -0.39904,-1.03989 0.94027,-2.71742 4.12096,-5.16164 2.59167,-1.99159 4.57541,-4.09685 4.40831,-4.67836 -0.16711,-0.58152 -1.67916,-2.97242 -3.36013,-5.31313 C 423.03028,279.51426 422.72154,277 425.04755,277 425.99305,277 435,288.83732 435,290.07994 c 0,0.78697 -10.32414,8.72348 -12.36824,9.50787 -0.75552,0.28992 -1.6397,-0.16613 -1.96485,-1.01345 z M 293.8125,296.31689 c 0.72187,-0.28887 1.58438,-0.25335 1.91667,0.0789 0.33229,0.33229 -0.25834,0.56864 -1.3125,0.52522 -1.16495,-0.048 -1.4019,-0.28494 -0.60417,-0.60416 z m 100.3973,-6.21899 -5.11306,-7.0078 6.8294,-4.96728 c 5.04883,-3.67222 7.12198,-4.6747 7.95163,-3.84505 1.70899,1.70899 1.40106,2.38054 -2.12777,4.64048 -7.59013,4.86089 -7.43675,4.38699 -3.2887,10.16076 3.2188,4.48034 3.525,5.36326 2.28875,6.59951 -1.23625,1.23625 -2.11124,0.48964 -6.54025,-5.58062 z M 132.15789,294 c 0,-1.375 0.22698,-1.9375 0.50439,-1.25 0.27741,0.6875 0.27741,1.8125 0,2.5 -0.27741,0.6875 -0.50439,0.125 -0.50439,-1.25 z m 38.96464,0.5 c -0.0824,-1.1 -0.38139,-3.125 -0.66439,-4.5 l -0.51456,-2.5 1.07114,2.45316 c 0.58913,1.34923 0.8881,3.37423 0.66439,4.5 -0.39626,1.99405 -0.41061,1.99526 -0.55658,0.0468 z M 139.15789,292 c 0,-1.375 0.22698,-1.9375 0.50439,-1.25 0.27741,0.6875 0.27741,1.8125 0,2.5 -0.27741,0.6875 -0.50439,0.125 -0.50439,-1.25 z M 270.5,293 c -0.33992,-0.55 -0.14148,-1 0.44098,-1 0.58246,0 1.05902,0.45 1.05902,1 0,0.55 -0.19844,1 -0.44098,1 -0.24254,0 -0.7191,-0.45 -1.05902,-1 z M 199,291 c -1.29269,-0.8354 -1.26629,-0.97149 0.19098,-0.98469 0.93004,-0.008 1.9691,0.43469 2.30902,0.98469 0.78218,1.2656 -0.54163,1.2656 -2.5,0 z m -6.1875,-0.68311 c 0.72187,-0.28887 1.58437,-0.25335 1.91667,0.0789 0.33229,0.33229 -0.25834,0.56864 -1.3125,0.52522 -1.16495,-0.048 -1.4019,-0.28494 -0.60417,-0.60416 z M 246.5,289 c 0.33992,-0.55 1.29303,-1 2.11803,-1 0.825,0 1.22189,0.45 0.88197,1 -0.33992,0.55 -1.29303,1 -2.11803,1 -0.825,0 -1.22189,-0.45 -0.88197,-1 z m -6.75,-0.66228 c 0.6875,-0.27741 1.8125,-0.27741 2.5,0 0.6875,0.27741 0.125,0.50439 -1.25,0.50439 -1.375,0 -1.9375,-0.22698 -1.25,-0.50439 z m -68.35301,-1.50439 C 171.11373,286.375 172.23197,286 173.88197,286 c 1.65,0 3.23176,0.375 3.51502,0.83333 0.28327,0.45834 -0.83497,0.83334 -2.48497,0.83334 -1.65,0 -3.23176,-0.375 -3.51503,-0.83334 z M 224.75,285.33772 c 0.6875,-0.27741 1.8125,-0.27741 2.5,0 0.6875,0.27741 0.125,0.50439 -1.25,0.50439 -1.375,0 -1.9375,-0.22698 -1.25,-0.50439 z M 188.5,281 c -2.81549,-0.71642 -2.73861,-0.77065 1.25,-0.88169 2.3375,-0.0651 4.25,0.33169 4.25,0.88169 0,1.11719 -1.1095,1.11719 -5.5,0 z m -49.30505,-3.5 c 0.0204,-1.65 0.2445,-2.20394 0.49804,-1.23097 0.25354,0.97297 0.23687,2.32297 -0.0371,3 -0.27393,0.67703 -0.48137,-0.11903 -0.46099,-1.76903 z m 21.25607,-2.78804 c -0.58008,-0.67021 -0.73639,-2.32948 -0.34968,-3.71196 0.79703,-2.84938 0.90704,-2.72484 1.54582,1.75 0.50693,3.55116 0.37155,3.77322 -1.19614,1.96196 z M 154.5,264 c -1.63041,-0.70061 -1.68751,-0.87242 -0.30902,-0.92971 0.93004,-0.0387 1.9691,0.37971 2.30902,0.92971 0.71066,1.14988 0.67591,1.14988 -2,0 z m 67,-1 c 0.33992,-0.55 1.29303,-1 2.11803,-1 0.825,0 1.22189,0.45 0.88197,1 -0.33992,0.55 -1.29303,1 -2.11803,1 -0.825,0 -1.22189,-0.45 -0.88197,-1 z m 21.2277,-4.72173 c 1.77523,-0.22091 4.92523,-0.22454 7,-0.008 2.07476,0.21648 0.6223,0.39722 -3.2277,0.40166 -3.85,0.004 -5.54754,-0.17268 -3.7723,-0.39359 z M 302.19013,243.25 c 0.31235,-1.62306 3.00153,-1.76903 37.07333,-2.01232 C 375.49521,240.97896 376,241.00301 376,242.98768 376,244.96792 375.409,245 338.92668,245 c -34.76956,0 -37.0524,-0.10875 -36.73655,-1.75 z M 302.5,232 c -0.33992,-0.55 -0.33992,-1.45 0,-2 0.4016,-0.6498 23.01038,-1 64.55902,-1 63.27431,0 63.94098,0.0208 63.94098,2 0,1.97915 -0.66667,2 -63.94098,2 -41.54864,0 -64.15742,-0.3502 -64.55902,-1 z m -0.30974,-13.75 c 0.31524,-1.63747 3.85669,-1.76663 55.07332,-2.00854 C 411.49671,215.9853 412,216.00139 412,217.99146 412,219.97853 411.41138,220 356.92668,220 c -51.91247,0 -55.05399,-0.10044 -54.73642,-1.75 z M 72.345077,197.45687 c -0.815688,-2.12565 0.268621,-2.94625 3.987668,-3.01785 L 79.5,194.37804 79.772559,176.18902 80.045117,158 H 96.522559 113 l -4.9e-4,18.25 -4.9e-4,18.25 7.25049,-0.15271 7.25049,-0.1527 0.26085,-42.0973 L 128.02171,110 H 144.51085 161 v 42.25 42.25 h 7 7 V 163.75 133 h 17 17 v 30.75 30.75 h 7 7 V 142.25 90 h 16.49108 16.49108 l 0.25892,52.13956 0.25892,52.13957 6.5,0.11043 c 5.94009,0.10093 6.52753,0.30425 6.81955,2.36044 l 0.31955,2.25 h -98.60093 c -87.947565,0 -98.664919,-0.16673 -99.193093,-1.54313 z M 252,144.5 V 94 H 239.5 227 v 49.96922 49.96922 l 12.25,0.31456 c 6.7375,0.17301 12.3625,0.41186 12.5,0.53078 C 251.8875,194.9027 252,172.275 252,144.5 Z M 109,178 V 162 H 96.5 84 v 16 16 H 96.5 109 Z m 48,-24 V 114 H 144.5 132 v 40 40 h 12.5 12.5 z m 47,11.5 V 137 h -12 -12 v 28.5 28.5 h 12 12 z m 98.40875,29.12281 c -0.29421,-0.7667 -0.39404,-3.35798 -0.22184,-5.75841 L 302.5,184.5 h 56 56 v 5.5 5.5 l -55.77816,0.25841 c -46.94546,0.21749 -55.86286,0.0377 -56.31309,-1.1356 z M 302.19774,169.75 302.5,164.5 343.25,164.23878 384,163.97757 V 169.48878 175 H 342.94774 301.89548 Z M 141.10527,96.941126 C 139.95148,95.048507 139.00579,93.1625 139.00374,92.75 139.00168,92.3375 134.02042,92 127.93426,92 c -6.08616,0 -11.93616,-0.465833 -13,-1.035184 C 113.17115,90.021231 113,88.755895 113,76.664816 113,67.68107 113.38729,63.012713 114.2,62.2 c 1.71205,-1.71205 56.88795,-1.71205 58.6,0 0.81271,0.812713 1.2,5.48107 1.2,14.464816 0,12.091079 -0.17115,13.356415 -1.93426,14.3 C 171.0019,91.534167 165.18222,92 159.13313,92 c -9.58551,0 -11.07336,0.224804 -11.58227,1.75 -0.32115,0.9625 -1.43078,2.848507 -2.46585,4.191126 l -1.88195,2.441124 z M 158,76.5 c 0,-1.264368 -2.27778,-1.5 -14.5,-1.5 -12.22222,0 -14.5,0.235632 -14.5,1.5 0,1.264368 2.27778,1.5 14.5,1.5 12.22222,0 14.5,-0.235632 14.5,-1.5 z m 302.36419,4.006689 C 460.01783,79.604071 460.21394,78.386061 460.8,77.8 c 1.52361,-1.523609 4.41041,-0.131088 4.01242,1.935492 -0.4433,2.301882 -3.64766,2.857428 -4.44823,0.771197 z m -6.58876,-0.06459 C 452.59993,79.266598 454.32159,76 456.11663,76 457.45889,76 458,76.718272 458,78.5 c 0,1.757576 -0.54444,2.5 -1.83333,2.5 -1.00834,0 -2.08439,-0.251057 -2.39124,-0.557905 z M 437.28975,76 c -0.28766,-1.1 -0.92053,-2 -1.40638,-2 C 435.39752,74 435,73.1 435,72 c 0,-1.1 0.51289,-2 1.13976,-2 0.62686,0 1.68679,-0.748116 2.35539,-1.66248 1.49187,-2.04026 4.73487,-1.100514 3.881,1.124626 C 441.99601,70.452784 442.35784,71 443.39301,71 444.33333,71 445,71.829709 445,73 c 0,1.333333 -0.66667,2 -2,2 -1.11111,0 -2,0.666667 -2,1.5 0,2.233185 -3.10493,1.81476 -3.71025,-0.5 z M 461,73.166667 c 0,-2.458472 0.73827,-3.047871 3.0579,-2.441274 C 467.02546,71.501426 466.56884,75 463.5,75 461.74242,75 461,74.455556 461,73.166667 Z m -6.22457,0.275428 C 454.24154,72.90821 454.90969,69 455.53484,69 457.23348,69 459,70.58393 459,72.106989 c 0,1.781177 -2.87113,2.68855 -4.22457,1.335106 z M 117.49632,28.995938 C 114.82333,26.042316 116.81507,22 120.94338,22 c 4.08744,0 5.82883,3.172517 3.60464,6.567058 -1.93664,2.955682 -4.61742,3.118725 -7.0517,0.42888 z m -13.04434,-2.42888 C 102.22779,23.172517 103.96918,20 108.05662,20 c 4.12831,0 6.12005,4.042316 3.44706,6.995938 -2.43428,2.689845 -5.11506,2.526802 -7.0517,-0.42888 z M 92.050187,25.560472 c -0.657086,-0.791741 -1.049686,-2.704241 -0.872445,-4.25 0.256992,-2.241278 0.891452,-2.875738 3.13273,-3.13273 5.032784,-0.577075 7.536918,3.83201 4.118099,7.250829 -1.962234,1.962235 -4.81046,2.021134 -6.378384,0.131901 z"
         id="path4" />
      <path
         style="fill:#9da8b5"
         d="m 359.06825,446.9432 c -2.72426,-6.25007 -25.73832,-68.9398 -25.42395,-69.25417 0.30368,-0.30368 68.19426,18.34913 72.29979,19.86423 0.86151,0.31793 -3.27361,3.17015 -10.25,7.06999 C 389.26234,408.21863 384,411.51882 384,411.957 c 0,0.43819 4.27102,4.71722 9.49116,9.50897 l 9.49116,8.71226 -5.14113,5.91089 C 395.01357,439.3401 392.41662,442 392.0702,442 c -0.34643,0 -4.8256,-3.825 -9.9537,-8.5 -5.12811,-4.675 -9.65115,-8.5 -10.0512,-8.5 -0.40005,0 -3.24843,5.48694 -6.32974,12.1932 -5.17096,11.25423 -5.68439,12.00505 -6.66731,9.75 z M 225.5,445 c -0.33992,-0.55 -0.16803,-1 0.38197,-1 0.55,0 1.27811,0.45 1.61803,1 0.33992,0.55 0.16803,1 -0.38197,1 -0.55,0 -1.27811,-0.45 -1.61803,-1 z M 211.19594,430.28769 C 210.60308,428.75446 208.19052,413.775 205.83468,397 c -2.69443,-19.18604 -4.49968,-29.38715 -4.86654,-27.5 -0.32077,1.65 -0.59062,-3.61511 -0.59967,-11.70024 -0.009,-8.08513 0.30118,-14.50393 0.68941,-14.26399 0.38822,0.23994 1.34051,-0.87415 2.11619,-2.47576 1.21292,-2.50439 1.21375,-4.49712 0.006,-14.23601 -0.7724,-6.2282 -1.74324,-11.549 -2.15742,-11.824 -0.41419,-0.275 -1.07454,-1.52982 -1.46745,-2.78849 -0.39292,-1.25867 -2.5263,-3.48756 -4.74087,-4.95309 -8.18725,-5.41807 -20.21531,-2.25224 -24.32468,6.40234 -2.09117,4.40411 -2.17146,13.4476 -0.44958,50.63403 0.99869,21.56801 0.61066,26.39912 -1.87939,23.39879 -0.79431,-0.95708 -1.51685,-10.35763 -2.17621,-28.31319 -1.46333,-39.84906 -1.55535,-45.24006 -0.76377,-44.74726 1.47236,0.91662 1.99048,-4.98209 1.2662,-14.41538 -0.41036,-5.34476 -1.02733,-8.94123 -1.37103,-7.99215 -0.34369,0.94908 -0.65647,-2.65092 -0.69505,-8 -0.0554,-7.68579 -0.52143,-10.73729 -2.22181,-14.54924 -1.39972,-3.13789 -2.56342,-4.56917 -3.32984,-4.09549 -0.7459,0.46099 -0.91162,0.29687 -0.45169,-0.44732 1.07015,-1.73154 -5.95207,-4.39468 -9.52105,-3.6108 -1.59303,0.34989 -2.89641,1.05041 -2.89641,1.55671 0,0.50629 -0.5625,0.80804 -1.25,0.67054 -0.6875,-0.1375 -1.1375,0.3125 -1,1 0.1375,0.6875 -0.26365,1.1375 -0.89145,1 -0.6278,-0.1375 -2.05048,1.26601 -3.16151,3.11892 -2.37677,3.96383 -2.44496,11.32162 -0.58354,62.95967 0.83438,23.14687 0.83645,31.62146 0.008,32.45 -0.70581,0.70581 -1.45941,0.76933 -2.03341,0.17141 -0.96876,-1.00912 -3.088,-55.46035 -3.088,-79.34237 0,-10.49835 -0.3025,-14.03871 -1.15451,-13.51214 -0.72104,0.44563 -0.88282,0.27393 -0.4309,-0.45729 0.39798,-0.64395 1.09536,-0.94107 1.54972,-0.66026 1.28399,0.79355 3.16969,-4.95362 3.16994,-9.66124 1.2e-4,-2.09354 2.4197,-4.21041 3.82195,-3.34377 1.85246,1.14488 1.10818,2.77717 -1.01335,2.22238 -1.68797,-0.44142 -1.84546,-0.28289 -0.87756,0.88336 0.70894,0.85422 0.77443,1.42133 0.16414,1.42133 -0.5585,0 -1.31735,0.78674 -1.68634,1.74831 -0.46666,1.21608 0.18574,0.94885 2.14301,-0.87781 3.93386,-3.67135 6.60447,-4.8705 10.84703,-4.8705 8.26393,0 14.38105,5.78896 16.60148,15.71089 1.3564,6.06106 0.11264,5.46589 16.36539,7.83116 28.16908,4.09945 31.84578,4.52558 32.40385,3.75561 0.81449,-1.12376 6.22241,-1.31097 5.53052,-0.19146 -0.30382,0.49159 -1.53835,0.94673 -2.74339,1.01142 -2.49576,0.13398 5.32827,1.58049 12.80902,2.36814 2.75,0.28955 16.475,2.33984 30.5,4.5562 14.025,2.21637 26.4968,3.85402 27.71511,3.63924 1.21832,-0.21479 2.34332,-0.0553 2.5,0.35434 0.26188,0.68471 5.77742,1.57666 43.28489,6.99984 7.15,1.03382 18.85,2.80345 26,3.93251 81.685,12.89894 82.3936,12.95649 86.59164,7.03211 1.34248,-1.89454 6.40591,-32.10679 20.90746,-124.74955 10.52478,-67.23725 18.86344,-123.108179 18.53036,-124.157618 -0.33308,-1.049438 -1.32527,-2.184234 -2.20486,-2.521767 -0.8796,-0.337534 -18.29997,-3.083071 -38.71194,-6.101194 -43.59837,-6.446477 -49.298,-7.30023 -56.61266,-8.480066 -3.025,-0.487925 -9.1,-1.386996 -13.5,-1.997936 -4.4,-0.61094 -10.7,-1.531105 -14,-2.044811 -3.3,-0.513706 -10.95,-1.649417 -17,-2.523801 -6.05,-0.874385 -13.7,-2.005878 -17,-2.51443 -3.3,-0.508553 -9.15,-1.358157 -13,-1.888011 C 307.91423,36.976813 303.7565,36.366116 171.63335,16.889295 85.175397,4.1441859 82.717625,3.8393733 80.964239,5.6445386 79.504497,7.1473889 75.507654,30.814939 59.932608,130.18464 42.664629,240.35536 40.836001,253.18986 42.005015,256.01211 c 0.715989,1.72855 2.245265,3.75188 3.398391,4.49629 C 47.012324,261.54705 112.12053,272 116.98104,272 c 0.56043,0 1.01896,0.9 1.01896,2 0,1.1 -0.6511,2 -1.44689,2 -0.79579,0 -16.883293,-2.27618 -35.750003,-5.05817 C 55.626633,267.22943 45.834854,265.40907 44,264.09988 40.44921,261.56635 37.001347,256.15539 36.992228,253.10212 36.987954,251.67095 45.570861,195.6 56.065354,128.5 70.587208,35.649743 75.571317,5.9026692 76.925274,4 77.903737,2.625 79.793193,1.1117267 81.124067,0.63717034 83.20194,-0.10374749 170.98662,12.364756 296,31.157091 c 7.425,1.116145 16.2,2.423453 19.5,2.905128 3.3,0.481675 8.925,1.309318 12.5,1.839206 3.575,0.529889 9.875,1.440283 14,2.023098 4.125,0.582815 10.425,1.517362 14,2.076771 3.575,0.559409 9.65,1.47776 13.5,2.04078 3.85,0.56302 9.7,1.419574 13,1.903453 3.3,0.483879 11.175,1.611276 17.5,2.505326 6.325,0.89405 14.2,2.04922 17.5,2.567045 3.3,0.517825 19.95,2.983441 37,5.479147 32.71306,4.788397 35.0201,5.45795 36.89078,10.706503 1.06653,2.992337 -36.79545,246.653022 -38.99738,250.967612 -1.47674,2.89359 -5.57482,6.15719 -9.10888,7.25408 -1.21852,0.37819 -14.71852,-1.10878 -30,-3.30438 -62.89016,-9.03589 -70.95837,-10.07395 -74.78452,-9.62177 -3.33217,0.39379 -3.5826,0.31307 -1.5,-0.48352 2.22489,-0.85101 2.08734,-0.92658 -1.25,-0.6867 -2.0625,0.14824 -3.75,-0.0262 -3.75,-0.38765 0,-1.0327 -17.64627,-3.17894 -20.20484,-2.45743 -1.36603,0.38521 -1.80687,0.30416 -1.08899,-0.20021 0.72546,-0.5097 -5.13244,-1.76855 -14.69807,-3.15859 -14.65652,-2.12982 -16.08268,-2.18616 -18.17868,-0.71806 -1.25094,0.87619 -2.9618,1.5901 -3.80193,1.58648 -0.92369,-0.004 -0.43709,-0.72561 1.23099,-1.82555 l 2.75847,-1.81896 -16.25847,-2.39877 c -8.94217,-1.31932 -18.35301,-2.41032 -20.91299,-2.42445 -2.55998,-0.0141 -4.13498,-0.35629 -3.5,-0.76037 0.6536,-0.41592 -0.0384,-0.74133 -1.59505,-0.75 -1.51225,-0.008 -6.68725,-0.65394 -11.5,-1.43449 -15.37591,-2.49373 -16.41949,-2.57743 -15.94138,-1.27865 0.24252,0.65881 0.98064,1.07418 1.64027,0.92305 0.65963,-0.15112 0.91972,0.17765 0.57797,0.73061 -0.79953,1.29366 7.40003,12.20711 8.60978,11.45945 0.50186,-0.31017 0.84803,-0.19299 0.76928,0.26039 -0.38728,2.22937 0.24523,2.51966 1.6678,0.76546 0.86578,-1.06762 1.28923,-1.37863 0.94098,-0.69113 -0.34825,0.6875 -0.0441,1.25689 0.67584,1.26531 1.0497,0.0123 1.05671,0.17544 0.0354,0.82363 -0.97289,0.61743 -0.79578,1.24076 0.75,2.63967 1.11299,1.00725 2.02363,1.43649 2.02363,0.95387 0,-0.48262 0.70052,0.12264 1.5567,1.34501 0.85619,1.22238 2.15109,2.22251 2.87756,2.22251 0.72647,0 1.90506,0.70393 2.61909,1.56429 0.85769,1.03345 2.17178,1.36249 3.87245,0.96962 1.70658,-0.39423 2.11792,-0.29013 1.22043,0.30886 -0.96519,0.64419 0.45398,1.51402 4.94417,3.03038 6.22801,2.10323 11.57362,2.91619 7.4096,1.12685 -1.53877,-0.66123 -1.62466,-0.87564 -0.37244,-0.92971 0.89515,-0.0387 2.18775,0.60471 2.87244,1.42971 0.94625,1.14016 3.31459,1.47162 9.87244,1.38169 4.74516,-0.0651 9.97756,-0.4974 11.62756,-0.96072 2.4266,-0.68138 2.05473,-0.7736 -1.94559,-0.48247 -3.73766,0.27201 -4.50225,0.11182 -3.13047,-0.65587 0.99831,-0.55869 3.81912,-0.78991 6.26847,-0.51383 2.96259,0.33392 7.3557,-0.29656 13.12345,-1.88342 C 298.86995,315.61922 301,315.45539 301,317.44826 c 0,0.91637 -2.20356,2.06655 -6,3.13178 -3.3,0.92593 -6,1.96171 -6,2.30174 0,0.34002 -1.0125,0.66661 -2.25,0.72575 -1.2375,0.0591 -5.85,0.84657 -10.25,1.74983 -14.04596,2.88346 -27.85697,1.53059 -40.27863,-3.94553 -2.90324,-1.2799 -5.94074,-2.07301 -6.75,-1.76247 -0.80925,0.31054 -1.47137,0.0399 -1.47137,-0.60139 0,-0.6413 0.51953,-0.84492 1.15451,-0.45248 0.73827,0.45628 0.88207,0.27271 0.39885,-0.50916 -0.41561,-0.67247 -1.37975,-0.98319 -2.14251,-0.69049 -0.76277,0.2927 -1.27976,0.16312 -1.14885,-0.28795 0.1309,-0.45108 -2.04554,-2.63294 -4.83654,-4.84858 -2.791,-2.21564 -6.54301,-5.88252 -8.3378,-8.14863 -1.79479,-2.2661 -3.66859,-3.86968 -4.164,-3.5635 -0.49541,0.30618 -0.60921,-0.25418 -0.25288,-1.24524 0.35634,-0.99107 0.2752,-1.46346 -0.1803,-1.04976 C 207.57935,299.07971 204,296.26626 204,294.72257 c 0,-0.5321 0.7875,-0.35761 1.75,0.38775 1.66667,1.29068 1.66667,1.25705 0,-0.70629 -0.9625,-1.13383 -1.75,-2.73255 -1.75,-3.5527 0,-1.12188 -2.21926,-1.78666 -8.96099,-2.68426 -4.92855,-0.65619 -9.31605,-1.11578 -9.75,-1.02131 -0.43396,0.0945 -1.46401,-0.10157 -2.28901,-0.43563 -0.825,-0.33406 -4.35924,-1.01509 -7.85387,-1.5134 l -6.35386,-0.90602 0.65972,7.60464 c 0.36285,4.18256 0.90884,9.06272 1.21331,10.84481 l 0.55359,3.24016 3.11817,-2.22033 c 4.55272,-3.24182 14.89619,-3.70197 20.37584,-0.90646 2.2217,1.13343 4.39232,1.74256 4.8236,1.35362 0.43128,-0.38893 0.49762,-0.20479 0.14741,0.4092 -0.35021,0.614 0.28979,1.95486 1.42223,2.9797 3.12939,2.83207 4.76723,7.69291 5.98318,17.75719 0.6078,5.03072 1.22195,9.26985 1.36476,9.4203 0.59601,0.62785 3.49376,-1.04892 3.05094,-1.76542 -0.26592,-0.43027 0.0742,-0.76223 0.75574,-0.73768 5.79971,0.20887 8.63261,-0.42359 9.04991,-2.02044 0.43555,-1.66667 0.46285,-1.66667 0.57333,0 0.10902,1.64463 3.50879,2.4135 7.96635,1.8016 0.7427,-0.10195 1.15874,0.18223 0.92455,0.63152 -0.23419,0.44928 1.62976,2.61688 4.14213,4.81688 2.51236,2.2 3.94516,3.2022 3.184,2.22711 -1.19142,-1.5263 -1.17878,-1.69418 0.0909,-1.20697 0.81113,0.31126 1.53109,1.78406 1.59991,3.27289 0.20391,4.41102 6.85657,28.84021 7.40912,27.20697 0.27912,-0.825 0.35458,-0.54751 0.1677,0.61664 -0.18688,1.16415 0.50821,5.88915 1.54465,10.5 1.03644,4.61085 2.6712,11.85647 3.6328,16.10139 0.96161,4.24492 2.12697,7.48404 2.5897,7.19806 0.46273,-0.28598 0.60892,0.0857 0.32487,0.82588 -0.28405,0.74022 0.57635,5.96989 1.91199,11.62149 2.1047,8.90579 2.22828,10.35246 0.92698,10.85181 -1.93586,0.74286 -2.96494,-0.99787 -3.77215,-6.38071 C 254.16996,417.95055 253.42847,416 252.87971,416 c -0.54876,0 -0.7349,-0.42528 -0.41366,-0.94508 0.32125,-0.51979 -0.84878,-6.88399 -2.60006,-14.14267 -2.81249,-11.65711 -3.34068,-12.98356 -4.52508,-11.3638 -1.59783,2.18517 -1.77716,1.13521 -0.28297,-1.65672 1.35887,-2.53906 -2.85979,-22.70589 -4.32439,-20.67226 -0.65098,0.90392 -0.75037,0.74948 -0.33792,-0.52511 0.71244,-2.20163 -2.87484,-18.78659 -4.91815,-22.73791 -1.87815,-3.63194 -7.06264,-7.54369 -11.14364,-8.40799 -4.04482,-0.85663 -10.54096,0.30739 -9.66105,1.73113 0.40418,0.65397 0.0421,0.82497 -0.94492,0.44622 -2.0433,-0.78408 -7.02374,3.06078 -6.32465,4.88259 0.28864,0.75218 -0.0215,1.26051 -0.68921,1.1296 -0.67249,-0.13184 -1.18098,0.74346 -1.13995,1.96228 0.0407,1.21015 -0.29677,1.9711 -0.75,1.69098 -1.59291,-0.98447 -0.69279,10.32944 2.59432,32.60874 2.32721,15.77332 3.45527,21.30415 3.77323,18.5 0.24947,-2.2 0.42422,-0.625 0.38835,3.5 -0.0824,9.472 1.38094,20.29613 2.37418,17.56183 0.38723,-1.06599 0.63689,1.38203 0.55481,5.44005 -0.15765,7.79464 -1.50915,9.9509 -3.31301,5.28581 z M 208.15789,426 c 0,-1.375 0.22698,-1.9375 0.50439,-1.25 0.27741,0.6875 0.27741,1.8125 0,2.5 -0.27741,0.6875 -0.50439,0.125 -0.50439,-1.25 z M 268,421 c 0,-0.55 0.47656,-1 1.05902,-1 0.58246,0 0.7809,0.45 0.44098,1 -0.33992,0.55 -0.81648,1 -1.05902,1 C 268.19844,422 268,421.55 268,421 Z m -9.92105,-7.58333 c 0.048,-1.16495 0.28494,-1.4019 0.60416,-0.60417 0.28887,0.72187 0.25335,1.58438 -0.0789,1.91667 -0.33229,0.33229 -0.56864,-0.25834 -0.52522,-1.3125 z M 42.268703,408.97576 C 39.424444,407.83174 0,348.80139 0,345.68669 0,344.45377 0.63256664,342.5419 1.4057036,341.43809 2.1788407,340.33428 13.775508,332.13415 27.176076,323.21558 53.286002,305.83847 55.657584,304.82042 59.709581,309.25 62.46734,312.26474 100,368.83099 100,369.97253 c 0,4.16063 -3.229384,6.86226 -27.513034,23.01678 -14.063867,9.35588 -26.114334,16.98217 -26.778816,16.9473 -0.664483,-0.0349 -2.212234,-0.46724 -3.439447,-0.96085 z m 29.435595,-20.119 c 12.212364,-8.1496 22.65531,-15.66018 23.206547,-16.69017 0.832675,-1.55587 -2.331972,-6.8835 -18.704298,-31.48841 C 61.37727,318.39223 56.00501,311.05865 54.5,311.04694 52.301405,311.02984 6.2101413,341.71975 4.5994045,344.2733 c -0.7887511,1.25043 3.1209156,7.77933 18.3936915,30.71633 10.667442,16.02061 20.083829,29.51367 20.925304,29.98458 1.993219,1.11546 1.754383,1.254 27.785898,-16.11745 z m -27.064818,7.44939 c -1.818794,-1.8188 0.854117,-4.14768 17.61052,-15.34387 15.524274,-10.37291 23.602935,-16.12938 19.121523,-13.62507 -0.670778,0.37484 -3.675116,-3.23146 -7.407335,-8.89152 -3.453371,-5.23717 -6.642294,-9.74675 -7.086495,-10.02128 -1.320287,-0.81598 -8.913297,4.70316 -8.182493,5.94762 0.364317,0.62038 3.281936,5.04821 6.483597,9.83961 C 68.380459,369.00304 71,373.3424 71,373.85465 c 0,0.51226 -0.677362,1.1913 -1.505248,1.50899 -0.998806,0.38328 -2.385804,-0.75299 -4.122438,-3.37722 -2.56813,-3.88071 -2.666442,-3.92564 -5.244751,-2.39677 -6.612013,3.92074 -6.560851,3.79849 -3.515439,8.40042 2.288068,3.4575 2.512468,4.31849 1.321889,5.07187 -2.109875,1.33511 -2.210661,1.27326 -4.974977,-3.05344 l -2.540965,-3.97711 -3.815158,2.59247 c -3.407252,2.31529 -3.977062,2.43056 -5.329448,1.07818 -1.352386,-1.35239 -1.075435,-1.80471 2.590333,-4.2306 4.035063,-2.67028 4.078219,-2.76084 2.546551,-5.34388 -3.918495,-6.60822 -3.801578,-6.5588 -8.367814,-3.53701 -2.412209,1.59632 -3.921321,3.28295 -3.626009,4.05252 0.278211,0.725 3.272329,5.43255 6.653595,10.46121 4.775184,7.10172 5.844355,9.33527 4.788818,10.00406 -0.747417,0.47357 -1.620392,0.86793 -1.939945,0.87635 -0.319553,0.008 -3.323914,-4.14719 -6.676359,-9.23469 -3.352444,-5.0875 -7.07935,-10.07664 -8.282012,-11.08698 -1.202663,-1.01034 -1.798301,-2.19154 -1.323641,-2.62488 C 29.890508,366.98078 68.088939,342 68.981346,342 c 0.56026,0 1.074904,0.45 1.143654,1 0.06875,0.55 0.18125,1.36956 0.25,1.82125 0.06875,0.45168 2.9375,5.08651 6.375,10.29962 3.4375,5.2131 6.25,10.00441 6.25,10.64736 0,0.64295 0.616931,0.93226 1.370958,0.64291 1.127295,-0.43258 3.306762,2.37307 2.402581,3.09287 -0.568061,0.45223 -39.323589,26.15623 -40.384059,26.78411 -0.610786,0.36163 -1.398286,0.36974 -1.75,0.018 z M 56.02144,367.36711 C 58.209648,365.91903 60,364.55938 60,364.34567 60,363.71748 54.771287,356 54.345673,356 53.717476,356 46,361.22871 46,361.65433 46,362.28252 51.228713,370 51.654327,370 c 0.213704,0 2.178905,-1.1848 4.367113,-2.63289 z M 19.650107,356.50981 C 16.542548,351.84021 14,347.57082 14,347.02227 14,346.47373 22.815448,340.13669 33.589884,332.93996 51.364174,321.06772 56,318.79537 56,321.95516 c 0,0.55987 -8.2125,6.48686 -18.25,13.1711 -10.0375,6.68425 -18.400906,12.27871 -18.585347,12.43214 -0.184442,0.15343 2.003661,3.74522 4.86245,7.98177 4.061973,6.01958 4.900075,7.89143 3.835348,8.566 -0.749348,0.47476 -1.632403,0.8701 -1.962344,0.87852 -0.329942,0.008 -3.142442,-3.80527 -6.25,-8.47488 z M 334.59777,408.26443 C 334.26899,407.93566 334,405.94167 334,403.83333 334,400.66667 334.34783,400 336,400 c 1.65751,0 2,0.66667 2,3.89301 0,3.61476 -1.82019,5.95346 -3.40223,4.37142 z m -129.51882,-3.84776 c 0.048,-1.16495 0.28494,-1.4019 0.60416,-0.60417 0.28887,0.72187 0.25335,1.58438 -0.0789,1.91667 -0.3323,0.33229 -0.56864,-0.25834 -0.52522,-1.3125 z M 280,399 c 0,-0.55 0.45,-1 1,-1 0.55,0 1,0.45 1,1 0,0.55 -0.45,1 -1,1 -0.55,0 -1,-0.45 -1,-1 z m 29.62786,-4.52739 c -0.38733,-1.00937 0.50906,-2.19515 2.64301,-3.49626 3.87082,-2.36013 4.34935,-2.40841 5.07697,-0.51228 0.34169,0.89044 -0.55844,2.26176 -2.29738,3.5 -3.41819,2.43397 -4.63978,2.54853 -5.4226,0.50854 z M 285,393 c 0,-0.55 0.47656,-1 1.05902,-1 0.58246,0 0.7809,0.45 0.44098,1 -0.33992,0.55 -0.81648,1 -1.05902,1 C 285.19844,394 285,393.55 285,393 Z m -114,-3 c 0,-0.55 0.47656,-1 1.05902,-1 0.58246,0 0.7809,0.45 0.44098,1 -0.33992,0.55 -0.81648,1 -1.05902,1 C 171.19844,391 171,390.55 171,390 Z m 79.25,-9.57733 c 0,-2.30311 0.15222,-2.45533 0.97862,-0.97862 0.63817,1.14034 0.63817,2.08916 0,2.72733 -0.63816,0.63816 -0.97862,0.0298 -0.97862,-1.74871 z M 200.232,377 c 0,-1.925 0.2058,-2.7125 0.45733,-1.75 0.25152,0.9625 0.25152,2.5375 0,3.5 -0.25153,0.9625 -0.45733,0.175 -0.45733,-1.75 z M 142.5,375 c -0.33992,-0.55 -0.14148,-1 0.44098,-1 0.58246,0 1.05902,0.45 1.05902,1 0,0.55 -0.19844,1 -0.44098,1 -0.24254,0 -0.7191,-0.45 -1.05902,-1 z m 99,0 c 0.33992,-0.55 0.81648,-1 1.05902,-1 0.24254,0 0.44098,0.45 0.44098,1 0,0.55 -0.47656,1 -1.05902,1 -0.58246,0 -0.7809,-0.45 -0.44098,-1 z m -1.5,-2.88197 c 0,-0.55 0.45,-1.27811 1,-1.61803 0.55,-0.33992 1,-0.16803 1,0.38197 0,0.55 -0.45,1.27811 -1,1.61803 -0.55,0.33992 -1,0.16803 -1,-0.38197 z m 71.25,-2.86341 c -3.49479,-1.7393 -3.67028,-2.04315 -2.36739,-4.09892 0.70042,-1.10516 1.45377,-1.03806 4.23469,0.37717 4.27651,2.17635 4.03772,1.89958 3.29925,3.824 -0.75647,1.97132 -1.0102,1.9663 -5.16655,-0.10225 z m 41.41667,-0.92129 c -1.36759,-1.36758 -0.56494,-2.88403 2.42819,-4.58763 1.69521,-0.96487 3.49237,-1.50081 3.99367,-1.19098 1.72657,1.06708 0.90448,3.01819 -1.99282,4.72967 -3.26348,1.92779 -3.4953,1.98269 -4.42904,1.04894 z M 206.82193,365.5 c -0.64456,-2.99648 -0.33292,-4.34433 0.75331,-3.25809 0.31639,0.31639 0.42152,1.85389 0.23363,3.41667 L 207.46725,368.5 Z m -65.03818,-1.67054 c 1.03872,-2.14703 1.85338,-2.96169 2.06362,-2.06362 0.19105,0.81613 -0.58126,2.41249 -1.71625,3.54748 l -2.06361,2.06362 z M 246,364.55902 C 246,363.70156 246.45,363 247,363 c 0.55,0 1,0.42344 1,0.94098 0,0.51754 -0.45,1.2191 -1,1.55902 -0.55,0.33992 -1,-0.0835 -1,-0.94098 z M 131.63837,358.5 c 0.31659,-0.825 0.75246,-1.5 0.96862,-1.5 0.21615,0 0.39301,0.675 0.39301,1.5 0,0.825 -0.43588,1.5 -0.96862,1.5 -0.53273,0 -0.70959,-0.675 -0.39301,-1.5 z M 332,355.58179 c 0,-1.33002 -0.27314,-3.13002 -0.60699,-4 -0.45784,-1.19311 0.0336,-1.58179 2,-1.58179 2.37482,0 2.60699,0.35622 2.60699,4 0,3.33333 -0.33333,4 -2,4 -1.44863,0 -2,-0.66667 -2,-2.41821 z M 197.27236,352 c 0,-2.475 0.19502,-3.4875 0.43337,-2.25 0.23836,1.2375 0.23836,3.2625 0,4.5 -0.23835,1.2375 -0.43337,0.225 -0.43337,-2.25 z m 99.88553,-1 c 0,-1.375 0.22698,-1.9375 0.50439,-1.25 0.27741,0.6875 0.27741,1.8125 0,2.5 -0.27741,0.6875 -0.50439,0.125 -0.50439,-1.25 z m -127,-5 c 0,-1.375 0.22698,-1.9375 0.50439,-1.25 0.27741,0.6875 0.27741,1.8125 0,2.5 -0.27741,0.6875 -0.50439,0.125 -0.50439,-1.25 z M 377,345 c -0.90129,-0.58246 -1.02463,-0.97549 -0.30902,-0.98469 0.65504,-0.008 1.4691,0.43469 1.80902,0.98469 0.7673,1.24153 0.42112,1.24153 -1.5,0 z m -145,-2 c 0,-0.55 0.47656,-1 1.05902,-1 0.58246,0 0.7809,0.45 0.44098,1 -0.33992,0.55 -0.81648,1 -1.05902,1 C 232.19844,344 232,343.55 232,343 Z M 119.43355,315.5 c -6.1e-4,-13.75 0.14023,-19.5137 0.31298,-12.80822 0.17275,6.70549 0.17325,17.95549 10e-4,25 C 119.5755,334.7363 119.43416,329.25 119.43355,315.5 Z M 210.75,339.33772 c 0.6875,-0.27741 1.8125,-0.27741 2.5,0 0.6875,0.27741 0.125,0.50439 -1.25,0.50439 -1.375,0 -1.9375,-0.22698 -1.25,-0.50439 z M 133.19495,331.5 c 0.0204,-1.65 0.2445,-2.20394 0.49804,-1.23097 0.25354,0.97297 0.23687,2.32297 -0.0371,3 -0.27393,0.67703 -0.48137,-0.11903 -0.46099,-1.76903 z m 37.884,-1.08333 c 0.048,-1.16495 0.28494,-1.4019 0.60416,-0.60417 0.28887,0.72187 0.25335,1.58438 -0.0789,1.91667 -0.3323,0.33229 -0.56864,-0.25834 -0.52522,-1.3125 z M 201.5,331 c -0.33992,-0.55 -0.14148,-1 0.44098,-1 0.58246,0 1.05902,0.45 1.05902,1 0,0.55 -0.19844,1 -0.44098,1 -0.24254,0 -0.7191,-0.45 -1.05902,-1 z m -1.40032,-4.69098 C 200.04486,324.55398 200.45,322.83992 201,322.5 c 1.14998,-0.71073 1.14998,0.90919 0,4.5 -0.76461,2.38749 -0.80513,2.35639 -0.90032,-0.69098 z m 78.71282,0.008 c 0.72187,-0.28887 1.58438,-0.25335 1.91667,0.0789 0.33229,0.33229 -0.25834,0.56864 -1.3125,0.52522 -1.16495,-0.048 -1.4019,-0.28494 -0.60417,-0.60416 z m -45.85785,-3.67051 c 0.47089,-0.47146 1.66133,-0.40104 2.659,0.15728 1.55378,0.86954 1.43454,0.98892 -0.8526,0.85363 -1.46781,-0.0868 -2.27705,-0.5397 -1.8064,-1.01091 z m -99.8757,-1.22971 c 0.048,-1.16495 0.28494,-1.4019 0.60416,-0.60417 0.28887,0.72187 0.25335,1.58438 -0.0789,1.91667 -0.3323,0.33229 -0.56864,-0.25834 -0.52522,-1.3125 z M 264.8125,321.317 c 0.72187,-0.28887 1.58438,-0.25335 1.91667,0.0789 0.33229,0.33229 -0.25834,0.56864 -1.3125,0.52522 -1.16495,-0.048 -1.4019,-0.28494 -0.60417,-0.60416 z m -10,-1 c 0.72187,-0.28887 1.58438,-0.25335 1.91667,0.0789 0.33229,0.33229 -0.25834,0.56864 -1.3125,0.52522 -1.16495,-0.048 -1.4019,-0.28494 -0.60417,-0.60416 z M 240.75,317.33772 c 0.6875,-0.27741 1.8125,-0.27741 2.5,0 0.6875,0.27741 0.125,0.50439 -1.25,0.50439 -1.375,0 -1.9375,-0.22698 -1.25,-0.50439 z M 285,317.03138 c 0,-0.53273 0.675,-0.70959 1.5,-0.39301 0.825,0.31659 1.5,0.75246 1.5,0.96862 0,0.21615 -0.675,0.39301 -1.5,0.39301 -0.825,0 -1.5,-0.43588 -1.5,-0.96862 z m -61.47301,-0.98771 c -0.32507,-0.52598 -1.13913,-0.82473 -1.80902,-0.66389 -0.66988,0.16084 -0.87767,0.10275 -0.46174,-0.12909 0.41593,-0.23183 0.45107,-0.94558 0.0781,-1.5861 -0.37297,-0.64052 0.29922,-0.30735 1.49377,0.7404 1.19454,1.04774 2.17189,2.06024 2.17189,2.25 0,0.69248 -0.89739,0.32006 -1.47301,-0.61132 z M 171.09426,315.5 c -0.1166,-1.83234 1.71695,-3.8482 3.78761,-4.1642 1.46696,-0.22388 1.88465,0.10907 1.47525,1.17595 -0.31411,0.81854 -1.38545,1.48825 -2.38078,1.48825 -0.99532,0 -2.03665,0.5625 -2.31406,1.25 -0.27741,0.6875 -0.53302,0.8 -0.56802,0.25 z m 191.41505,-0.48494 c -0.38035,-0.61542 0.62923,-0.74912 2.69098,-0.35636 4.42127,0.84223 4.80279,1.3413 1.02539,1.3413 -1.7092,0 -3.38157,-0.44322 -3.71637,-0.98494 z m -156.807,-1.34846 c -0.31682,-0.82559 0.0706,-1.7492 0.86083,-2.05246 1.61142,-0.61835 1.82465,0.22579 0.56071,2.21971 -0.68783,1.08507 -0.95296,1.05388 -1.42154,-0.16725 z M 217,310.94098 c 0,-0.58246 0.45,-0.7809 1,-0.44098 0.55,0.33992 1,0.81648 1,1.05902 0,0.24254 -0.45,0.44098 -1,0.44098 -0.55,0 -1,-0.47656 -1,-1.05902 z M 164,310 c 0,-0.55 0.45,-1 1,-1 0.55,0 1,0.45 1,1 0,0.55 -0.45,1 -1,1 -0.55,0 -1,-0.45 -1,-1 z m 1.19495,-4.5 c 0.0204,-1.65 0.2445,-2.20394 0.49804,-1.23097 0.25354,0.97297 0.23687,2.32297 -0.0371,3 -0.27393,0.67703 -0.48137,-0.11903 -0.46099,-1.76903 z M 178.5,307 c 1.1,-0.47269 3.125,-0.85943 4.5,-0.85943 2.27881,0 2.32305,0.076 0.5,0.85943 -1.1,0.47269 -3.125,0.85943 -4.5,0.85943 -2.27881,0 -2.32305,-0.076 -0.5,-0.85943 z m 34,0 c -0.33992,-0.55 -0.14148,-1 0.44098,-1 0.58246,0 1.05902,0.45 1.05902,1 0,0.55 -0.19844,1 -0.44098,1 -0.24254,0 -0.7191,-0.45 -1.05902,-1 z m 145.39145,-0.9071 c -4.01234,-0.5162 -4.5201,-0.84218 -3.92487,-2.51979 0.63004,-1.77569 0.73626,-1.78989 1.35363,-0.18104 0.43277,1.12778 1.30978,1.54275 2.47732,1.17219 0.99406,-0.3155 2.68378,0.0892 3.75493,0.89925 1.07115,0.81008 1.72254,1.4165 1.44754,1.34758 -0.275,-0.0689 -2.57385,-0.3921 -5.10855,-0.71819 z m -155.34874,-1.0238 c -0.31644,-0.512 -0.11799,-1.21356 0.44098,-1.55902 0.55897,-0.34546 1.01631,0.0734 1.01631,0.9309 0,1.75653 -0.60006,2.01516 -1.45729,0.62812 z m 6.0603,-1.90243 c -0.28327,-0.45834 0.12038,-0.83334 0.89699,-0.83334 0.77661,0 1.18026,0.375 0.89699,0.83334 C 210.11373,303.625 209.71008,304 209.5,304 c -0.21008,0 -0.61373,-0.375 -0.89699,-0.83333 z m 56.47594,-0.75 c 0.048,-1.16495 0.28494,-1.4019 0.60416,-0.60417 0.28887,0.72187 0.25335,1.58438 -0.0789,1.91667 -0.33229,0.33229 -0.56864,-0.25834 -0.52522,-1.3125 z M 280,303 c 0.825,-0.53316 2.4,-0.94464 3.5,-0.9144 l 2,0.055 -2,0.85943 c -1.1,0.47269 -2.675,0.88417 -3.5,0.9144 -1.33333,0.0489 -1.33333,-0.0527 0,-0.9144 z m -147.92105,-1.58333 c 0.048,-1.16495 0.28494,-1.4019 0.60416,-0.60417 0.28887,0.72187 0.25335,1.58438 -0.0789,1.91667 -0.3323,0.33229 -0.56864,-0.25834 -0.52522,-1.3125 z m 40.73355,0.90022 c 0.72187,-0.28887 1.58437,-0.25335 1.91667,0.0789 0.33229,0.33229 -0.25834,0.56864 -1.3125,0.52522 -1.16495,-0.048 -1.4019,-0.28494 -0.60417,-0.60416 z m 44.64638,-0.38342 c -0.36253,-0.58659 -0.41903,-1.30665 -0.12555,-1.60014 0.71632,-0.71631 2.66667,0.54583 2.66667,1.72569 0,1.27797 -1.72641,1.19267 -2.54112,-0.12555 z M 194,301 c 0,-0.55 0.45,-1 1,-1 0.55,0 1,0.45 1,1 0,0.55 -0.45,1 -1,1 -0.55,0 -1,-0.45 -1,-1 z m 132.5,0 c -0.731,-1.18278 0.24752,-1.18278 3,0 1.92824,0.82859 1.92138,0.86195 -0.19098,0.92971 C 328.10398,301.96837 326.83992,301.55 326.5,301 Z m 21.5,-1.55902 c 0,-0.85746 0.45734,-1.27636 1.01631,-0.9309 0.55897,0.34546 0.75742,1.04702 0.44098,1.55902 C 348.60006,301.45614 348,301.19751 348,299.44098 Z M 224,298.5 c 0,-0.825 -0.64844,-1.5 -1.44098,-1.5 -0.79254,0 -1.75942,-0.51524 -2.14863,-1.14499 -0.48915,-0.79147 0.1175,-0.98725 1.96485,-0.63411 1.46987,0.28099 2.91331,0.12123 3.20764,-0.35501 1.05816,-1.71214 1.9959,-0.8108 2.2203,2.13411 0.18415,2.41681 -0.16329,3 -1.7873,3 C 224.89065,300 224,299.33727 224,298.5 Z m 31,0.5 c -0.90129,-0.58246 -1.02463,-0.97549 -0.30902,-0.98469 0.65504,-0.008 1.4691,0.43469 1.80902,0.98469 0.7673,1.24153 0.42112,1.24153 -1.5,0 z m 165.66691,-0.42564 c -0.39904,-1.03989 0.94027,-2.71742 4.12096,-5.16164 2.59167,-1.99159 4.57541,-4.09685 4.40831,-4.67836 -0.16711,-0.58152 -1.67916,-2.97242 -3.36013,-5.31313 C 423.03028,279.51426 422.72154,277 425.04755,277 425.99305,277 435,288.83732 435,290.07994 c 0,0.78697 -10.32414,8.72348 -12.36824,9.50787 -0.75552,0.28992 -1.6397,-0.16613 -1.96485,-1.01345 z M 293.8125,296.31689 c 0.72187,-0.28887 1.58438,-0.25335 1.91667,0.0789 0.33229,0.33229 -0.25834,0.56864 -1.3125,0.52522 -1.16495,-0.048 -1.4019,-0.28494 -0.60417,-0.60416 z m 100.3973,-6.21899 -5.11306,-7.0078 6.8294,-4.96728 c 5.04883,-3.67222 7.12198,-4.6747 7.95163,-3.84505 1.70899,1.70899 1.40106,2.38054 -2.12777,4.64048 -7.59013,4.86089 -7.43675,4.38699 -3.2887,10.16076 3.2188,4.48034 3.525,5.36326 2.28875,6.59951 -1.23625,1.23625 -2.11124,0.48964 -6.54025,-5.58062 z M 132.15789,294 c 0,-1.375 0.22698,-1.9375 0.50439,-1.25 0.27741,0.6875 0.27741,1.8125 0,2.5 -0.27741,0.6875 -0.50439,0.125 -0.50439,-1.25 z m 38.96464,0.5 c -0.0824,-1.1 -0.38139,-3.125 -0.66439,-4.5 l -0.51456,-2.5 1.07114,2.45316 c 0.58913,1.34923 0.8881,3.37423 0.66439,4.5 -0.39626,1.99405 -0.41061,1.99526 -0.55658,0.0468 z M 139.15789,292 c 0,-1.375 0.22698,-1.9375 0.50439,-1.25 0.27741,0.6875 0.27741,1.8125 0,2.5 -0.27741,0.6875 -0.50439,0.125 -0.50439,-1.25 z M 270.5,293 c -0.33992,-0.55 -0.14148,-1 0.44098,-1 0.58246,0 1.05902,0.45 1.05902,1 0,0.55 -0.19844,1 -0.44098,1 -0.24254,0 -0.7191,-0.45 -1.05902,-1 z M 199,291 c -1.29269,-0.8354 -1.26629,-0.97149 0.19098,-0.98469 0.93004,-0.008 1.9691,0.43469 2.30902,0.98469 0.78218,1.2656 -0.54163,1.2656 -2.5,0 z m -6.1875,-0.68311 c 0.72187,-0.28887 1.58437,-0.25335 1.91667,0.0789 0.33229,0.33229 -0.25834,0.56864 -1.3125,0.52522 -1.16495,-0.048 -1.4019,-0.28494 -0.60417,-0.60416 z M 246.5,289 c 0.33992,-0.55 1.29303,-1 2.11803,-1 0.825,0 1.22189,0.45 0.88197,1 -0.33992,0.55 -1.29303,1 -2.11803,1 -0.825,0 -1.22189,-0.45 -0.88197,-1 z m -6.75,-0.66228 c 0.6875,-0.27741 1.8125,-0.27741 2.5,0 0.6875,0.27741 0.125,0.50439 -1.25,0.50439 -1.375,0 -1.9375,-0.22698 -1.25,-0.50439 z m -68.35301,-1.50439 C 171.11373,286.375 172.23197,286 173.88197,286 c 1.65,0 3.23176,0.375 3.51502,0.83333 0.28327,0.45834 -0.83497,0.83334 -2.48497,0.83334 -1.65,0 -3.23176,-0.375 -3.51503,-0.83334 z M 224.75,285.33772 c 0.6875,-0.27741 1.8125,-0.27741 2.5,0 0.6875,0.27741 0.125,0.50439 -1.25,0.50439 -1.375,0 -1.9375,-0.22698 -1.25,-0.50439 z M 188.5,281 c -2.81549,-0.71642 -2.73861,-0.77065 1.25,-0.88169 2.3375,-0.0651 4.25,0.33169 4.25,0.88169 0,1.11719 -1.1095,1.11719 -5.5,0 z m -49.30505,-3.5 c 0.0204,-1.65 0.2445,-2.20394 0.49804,-1.23097 0.25354,0.97297 0.23687,2.32297 -0.0371,3 -0.27393,0.67703 -0.48137,-0.11903 -0.46099,-1.76903 z m 21.25607,-2.78804 c -0.58008,-0.67021 -0.73639,-2.32948 -0.34968,-3.71196 0.79703,-2.84938 0.90704,-2.72484 1.54582,1.75 0.50693,3.55116 0.37155,3.77322 -1.19614,1.96196 z M 154.5,264 c -1.63041,-0.70061 -1.68751,-0.87242 -0.30902,-0.92971 0.93004,-0.0387 1.9691,0.37971 2.30902,0.92971 0.71066,1.14988 0.67591,1.14988 -2,0 z m 67,-1 c 0.33992,-0.55 1.29303,-1 2.11803,-1 0.825,0 1.22189,0.45 0.88197,1 -0.33992,0.55 -1.29303,1 -2.11803,1 -0.825,0 -1.22189,-0.45 -0.88197,-1 z m 21.2277,-4.72173 c 1.77523,-0.22091 4.92523,-0.22454 7,-0.008 2.07476,0.21648 0.6223,0.39722 -3.2277,0.40166 -3.85,0.004 -5.54754,-0.17268 -3.7723,-0.39359 z M 302.19013,243.25 c 0.31235,-1.62306 3.00153,-1.76903 37.07333,-2.01232 C 375.49521,240.97896 376,241.00301 376,242.98768 376,244.96792 375.409,245 338.92668,245 c -34.76956,0 -37.0524,-0.10875 -36.73655,-1.75 z M 302.5,232 c -0.33992,-0.55 -0.33992,-1.45 0,-2 0.4016,-0.6498 23.01038,-1 64.55902,-1 63.27431,0 63.94098,0.0208 63.94098,2 0,1.97915 -0.66667,2 -63.94098,2 -41.54864,0 -64.15742,-0.3502 -64.55902,-1 z m -0.30974,-13.75 c 0.31524,-1.63747 3.85669,-1.76663 55.07332,-2.00854 C 411.49671,215.9853 412,216.00139 412,217.99146 412,219.97853 411.41138,220 356.92668,220 c -51.91247,0 -55.05399,-0.10044 -54.73642,-1.75 z M 72.345077,197.45687 c -0.815688,-2.12565 0.268621,-2.94625 3.987668,-3.01785 L 79.5,194.37804 79.772559,176.18902 80.045117,158 H 96.522559 113 l -4.9e-4,18.25 -4.9e-4,18.25 7.25049,-0.15271 7.25049,-0.1527 0.26085,-42.0973 L 128.02171,110 H 144.51085 161 v 42.25 42.25 h 7 7 V 163.75 133 h 17 17 v 30.75 30.75 h 7 7 V 142.25 90 h 16.49108 16.49108 l 0.25892,52.13956 0.25892,52.13957 6.5,0.11043 c 5.94009,0.10093 6.52753,0.30425 6.81955,2.36044 l 0.31955,2.25 h -98.60093 c -87.947565,0 -98.664919,-0.16673 -99.193093,-1.54313 z M 252,144.5 V 94 H 239.5 227 v 49.96922 49.96922 l 12.25,0.31456 c 6.7375,0.17301 12.3625,0.41186 12.5,0.53078 C 251.8875,194.9027 252,172.275 252,144.5 Z M 109,178 V 162 H 96.5 84 v 16 16 H 96.5 109 Z m 48,-24 V 114 H 144.5 132 v 40 40 h 12.5 12.5 z m 47,11.5 V 137 h -12 -12 v 28.5 28.5 h 12 12 z m 98.40875,29.12281 c -0.29421,-0.7667 -0.39404,-3.35798 -0.22184,-5.75841 L 302.5,184.5 h 56 56 v 5.5 5.5 l -55.77816,0.25841 c -46.94546,0.21749 -55.86286,0.0377 -56.31309,-1.1356 z M 302.19774,169.75 302.5,164.5 343.25,164.23878 384,163.97757 V 169.48878 175 H 342.94774 301.89548 Z M 141.10527,96.941126 C 139.95148,95.048507 139.00579,93.1625 139.00374,92.75 139.00168,92.3375 134.02042,92 127.93426,92 c -6.08616,0 -11.93616,-0.465833 -13,-1.035184 C 113.17115,90.021231 113,88.755895 113,76.664816 113,67.68107 113.38729,63.012713 114.2,62.2 c 1.71205,-1.71205 56.88795,-1.71205 58.6,0 0.81271,0.812713 1.2,5.48107 1.2,14.464816 0,12.091079 -0.17115,13.356415 -1.93426,14.3 C 171.0019,91.534167 165.18222,92 159.13313,92 c -9.58551,0 -11.07336,0.224804 -11.58227,1.75 -0.32115,0.9625 -1.43078,2.848507 -2.46585,4.191126 l -1.88195,2.441124 z M 158,76.5 c 0,-1.264368 -2.27778,-1.5 -14.5,-1.5 -12.22222,0 -14.5,0.235632 -14.5,1.5 0,1.264368 2.27778,1.5 14.5,1.5 12.22222,0 14.5,-0.235632 14.5,-1.5 z m 302.36419,4.006689 C 460.01783,79.604071 460.21394,78.386061 460.8,77.8 c 1.52361,-1.523609 4.41041,-0.131088 4.01242,1.935492 -0.4433,2.301882 -3.64766,2.857428 -4.44823,0.771197 z m -6.58876,-0.06459 C 452.59993,79.266598 454.32159,76 456.11663,76 457.45889,76 458,76.718272 458,78.5 c 0,1.757576 -0.54444,2.5 -1.83333,2.5 -1.00834,0 -2.08439,-0.251057 -2.39124,-0.557905 z M 437.28975,76 c -0.28766,-1.1 -0.92053,-2 -1.40638,-2 C 435.39752,74 435,73.1 435,72 c 0,-1.1 0.51289,-2 1.13976,-2 0.62686,0 1.68679,-0.748116 2.35539,-1.66248 1.49187,-2.04026 4.73487,-1.100514 3.881,1.124626 C 441.99601,70.452784 442.35784,71 443.39301,71 444.33333,71 445,71.829709 445,73 c 0,1.333333 -0.66667,2 -2,2 -1.11111,0 -2,0.666667 -2,1.5 0,2.233185 -3.10493,1.81476 -3.71025,-0.5 z M 461,73.166667 c 0,-2.458472 0.73827,-3.047871 3.0579,-2.441274 C 467.02546,71.501426 466.56884,75 463.5,75 461.74242,75 461,74.455556 461,73.166667 Z m -6.22457,0.275428 C 454.24154,72.90821 454.90969,69 455.53484,69 457.23348,69 459,70.58393 459,72.106989 c 0,1.781177 -2.87113,2.68855 -4.22457,1.335106 z M 117.49632,28.995938 C 114.82333,26.042316 116.81507,22 120.94338,22 c 4.08744,0 5.82883,3.172517 3.60464,6.567058 -1.93664,2.955682 -4.61742,3.118725 -7.0517,0.42888 z m -13.04434,-2.42888 C 102.22779,23.172517 103.96918,20 108.05662,20 c 4.12831,0 6.12005,4.042316 3.44706,6.995938 -2.43428,2.689845 -5.11506,2.526802 -7.0517,-0.42888 z M 92.050187,25.560472 c -0.657086,-0.791741 -1.049686,-2.704241 -0.872445,-4.25 0.256992,-2.241278 0.891452,-2.875738 3.13273,-3.13273 5.032784,-0.577075 7.536918,3.83201 4.118099,7.250829 -1.962234,1.962235 -4.81046,2.021134 -6.378384,0.131901 z"
         id="path3" />
      <path
         style="fill:#11111b"
         d="m 346.7309,413.32848 c -7.023,-19.04299 -12.58928,-34.80343 -12.3695,-35.02321 0.47613,-0.47614 69.82215,18.70314 70.84617,19.59418 0.38916,0.33863 -4.44555,3.53728 -10.74379,7.10812 -6.29825,3.57083 -11.34166,6.7404 -11.20757,7.04348 0.13408,0.30308 4.29379,4.29573 9.24379,8.87255 4.95,4.57682 9,8.88691 9,9.57797 0,0.69107 -2.17204,3.57857 -4.82676,6.41668 l -4.82676,5.16019 -9.80394,-9.03922 C 376.65037,428.06765 372.03627,424 371.78899,424 c -0.24729,0 -2.88847,5.39962 -5.8693,11.99915 -2.98083,6.59953 -5.64469,11.98875 -5.91969,11.97605 -0.275,-0.0127 -6.24609,-15.60373 -13.2691,-34.64672 z M 211.58358,430.25 c -1.56761,-4.97704 -11.44913,-78.70127 -10.92521,-81.51097 0.3322,-1.78147 1.50281,-4.73575 2.60136,-6.56507 1.87941,-3.12959 1.92851,-3.95647 0.8314,-14 -1.46749,-13.43413 -3.82728,-18.57996 -10.02295,-21.85631 -8.48312,-4.48598 -16.71705,-2.57556 -22.70235,5.26735 -2.80356,3.67367 -2.86583,4.02863 -2.86583,16.33514 0,6.91892 0.37164,23.31624 0.82587,36.43848 0.68004,19.6455 0.59174,23.78059 -0.5,23.41669 -1.49141,-0.49712 -1.35891,1.34769 -2.83034,-39.4075 -0.92443,-25.60454 -0.86314,-29.68786 0.50616,-33.72105 1.42973,-4.21115 1.39989,-6.14853 -0.36251,-23.53709 -1.55084,-15.30129 -2.3446,-19.70286 -4.12408,-22.86902 -5.79011,-10.3021 -18.35872,-9.47174 -23.24993,1.53602 -2.08538,4.69318 -2.0912,4.97865 -0.9121,44.72333 1.48714,50.12826 1.48611,51.23918 -0.0464,49.70666 -1.2252,-1.2252 -2.40391,-29.46325 -3.01404,-72.20666 L 134.5,271.5 l 2.85139,-4.85108 c 2.1392,-3.63942 3.98476,-5.35242 7.38901,-6.85828 10.15257,-4.49097 19.57025,1.75483 22.2724,14.77104 0.62095,2.99108 1.28475,5.43832 1.47511,5.43832 0.35858,0 18.43145,2.64697 58.01209,8.4965 79.81844,11.79619 113.90011,16.84611 128,18.96591 85.97884,12.92616 86.10753,12.9428 89.44645,11.55977 1.76466,-0.73095 3.84728,-2.30393 4.62804,-3.49552 C 449.93568,313.44921 488,74.659244 488,68.19747 c 0,-1.623919 -0.67636,-3.513907 -1.50301,-4.199972 -0.82666,-0.686065 -16.46416,-3.436662 -34.75,-6.112437 C 433.46114,55.209286 402.75,50.718654 383.5,47.905877 364.25,45.093101 337.025,41.063204 323,38.95055 204.55754,21.108986 84.647222,3.8717256 82.581761,4.3901233 80.762426,4.8467472 79.782953,6.0456885 79.012037,8.7597071 77.527506,13.986012 41,247.95601 41,252.23858 c 0,4.10328 2.780621,8.05485 6.716106,9.54433 1.531142,0.5795 17.746394,3.2222 36.033894,5.87267 29.88961,4.332 33.25,5.00521 33.25,6.66118 0,1.48152 -0.53835,1.73025 -2.75,1.27055 -1.5125,-0.31438 -16.7,-2.60468 -33.75,-5.08955 C 43.419568,265.09365 45.878298,265.60992 42.106329,262.43602 35.933631,257.24203 35.216516,263.99338 56.12032,130.5 66.627547,63.4 75.736386,7.4154706 76.362184,6.0899348 76.987983,4.7643989 78.625,2.8495891 80,1.8348019 82.463684,0.0165361 83.734732,0.17209442 167.5,12.54357 c 46.75,6.90461 107.95,15.887463 136,19.961895 28.05,4.074432 62.925,9.185351 77.5,11.357596 14.575,2.172246 43.825,6.495221 65,9.606613 21.175,3.111391 39.53588,6.079562 40.80196,6.595937 1.26608,0.516374 2.94379,2.474972 3.72825,4.352441 1.32325,3.166998 0.81949,7.266194 -6.97397,56.747768 C 478.9361,150.49962 470.34613,205.325 464.46742,243 c -7.25598,46.50159 -11.30097,69.81733 -12.59554,72.60198 -2.78226,5.98472 -6.79565,7.83322 -15.46938,7.12492 -3.79638,-0.31002 -26.9275,-3.50394 -51.4025,-7.09762 -61.86748,-9.08404 -129.38876,-19.07642 -155.5,-23.01223 -12.1,-1.82387 -22.18738,-3.15895 -22.4164,-2.96685 -0.95107,0.79774 7.60528,11.7649 13.42894,17.21265 7.46602,6.9841 14.6419,11.23515 23.48746,13.91416 13.96977,4.23097 25.52788,3.74968 44.80439,-1.86568 6.64457,-1.9356 10.80824,-2.6987 11.41489,-2.09205 1.27636,1.27636 0.72419,1.53014 -9.71928,4.46692 -15.57954,4.38109 -19.61586,4.96797 -31.06201,4.51637 -16.65909,-0.65727 -28.74461,-5.68566 -41.20032,-17.14213 -5.01844,-4.61584 -14.466,-17.48198 -13.7215,-18.6866 0.26171,-0.42346 -2.33487,-1.24305 -5.77017,-1.82133 -11.84558,-1.99399 -29.83902,-4.39275 -30.178,-4.02311 -0.36189,0.39463 1.49914,22.16346 1.93807,22.67003 0.1427,0.16468 1.91566,-0.82451 3.93992,-2.19821 7.43622,-5.04636 17.3024,-4.39507 24.12167,1.59233 4.90647,4.30794 6.31372,7.50741 7.49715,17.04526 0.56377,4.54365 1.23256,9.25046 1.4862,10.45957 l 0.46118,2.19838 4.24391,-1.92642 c 5.88387,-2.67084 11.33567,-2.47641 17.56206,0.62633 8.31335,4.14272 9.03131,6.00109 19.84908,51.3776 5.26131,22.0692 9.28103,40.4108 8.93272,40.75911 -0.34831,0.34831 -1.02373,0.21329 -1.50093,-0.30005 -0.4772,-0.51333 -5.17936,-19.06731 -10.44923,-41.23107 -6.59967,-27.75652 -10.24085,-41.22357 -11.69991,-43.27264 -4.33014,-6.08111 -13.98073,-8.61488 -21.24763,-5.57858 -4.38866,1.8337 -9.45881,7.83431 -10.26913,12.15371 -0.42769,2.27981 1.34627,17.56413 4.96424,42.77138 3.09637,21.57313 5.62366,39.56137 5.6162,39.97387 -0.0268,1.48055 -1.89023,0.7137 -2.42999,-1 z M 40.801683,407.75 C 39.023532,406.34375 1.7453841,350.5167 0.68401423,347.67054 -1.1228039,342.82539 0.60325688,341.24698 26.674541,323.90325 40.649579,314.60646 52.928064,307 53.960063,307 c 1.031999,0 2.626373,0.28781 3.543052,0.63957 0.91668,0.35176 10.628484,14.07122 21.581788,30.48768 20.2109,30.29145 21.695747,33.24045 18.665097,37.07 -0.6875,0.86872 -12.155621,8.82973 -25.484714,17.69113 C 47.700293,409.21957 44.544645,410.71012 40.801683,407.75 Z m 29.904005,-17.88689 c 13.730763,-9.13833 24.515148,-16.98354 24.86602,-18.08904 0.457735,-1.4422 -4.42207,-9.52382 -18.680379,-30.93727 -10.614981,-15.94182 -19.995523,-29.34522 -20.845647,-29.78533 -0.850125,-0.44012 -2.276987,-0.51924 -3.170805,-0.17584 -0.893818,0.3434 -12.256318,7.79151 -25.25,16.55135 C 11.153585,338.53129 4,343.90989 4,345.18993 c 0,1.81366 37.27985,58.62356 39.402632,60.04476 0.603553,0.40408 1.5382,0.74158 2.076995,0.75 0.538795,0.008 11.890523,-7.24629 25.226061,-16.12158 z m -26.217405,5.11793 c -0.940702,-1.52209 -1.845111,-0.83048 20.676288,-15.81131 16.208134,-10.78137 19.868034,-12.83537 20.822123,-11.68576 0.945382,1.13911 -2.442071,3.79911 -18.481159,14.51233 -10.801291,7.21467 -20.238228,13.34763 -20.970972,13.62881 -0.732744,0.28118 -1.65357,-0.009 -2.04628,-0.64407 z m -7.065698,-12.87655 c -3.65251,-5.48587 -7.2668,-10.21447 -8.031756,-10.50801 C 28.625873,371.30294 28,370.60425 28,370.04384 c 0,-0.76768 31.650308,-22.59885 39.751873,-27.41932 0.811265,-0.48271 1.594938,0.15746 2.226605,1.81887 0.536103,1.41006 3.704658,6.62373 7.041232,11.58592 C 82.550571,364.25488 83.533147,367 80.946513,367 c -0.5145,0 -3.919883,-4.48244 -7.567518,-9.96098 l -6.632064,-9.96099 -4.373465,3.00903 C 59.968059,351.74202 58,353.3095 58,353.57034 c 0,0.26084 2.903771,4.81654 6.452825,10.12378 3.549054,5.30724 6.222497,10.0222 5.940983,10.4777 -0.63852,1.03315 -3.392031,1.09649 -3.398775,0.0782 -0.0027,-0.4125 -1.044423,-2.04902 -2.314869,-3.6367 l -2.309901,-2.88671 -4.185132,2.76959 C 55.883309,372.01946 54,373.55151 54,373.90075 c 0,0.34924 1.111433,2.2706 2.46985,4.26969 2.012531,2.96171 2.223654,3.83904 1.140214,4.73822 -1.032408,0.85682 -1.950238,0.20797 -4.105852,-2.90258 C 51.977294,377.80274 50.540324,376 50.310945,376 c -0.229379,0 -2.064029,1.11915 -4.077,2.487 -2.574515,1.74943 -3.967491,2.1712 -4.696946,1.42217 -0.723043,-0.74245 0.157537,-2.07489 2.908561,-4.40106 l 3.945561,-3.33622 -2.831562,-4.08595 c -1.557358,-2.24727 -3.10786,-4.08401 -3.44556,-4.08166 -0.337699,0.002 -2.512645,1.26401 -4.833212,2.80367 l -4.219213,2.7994 6.469213,9.67403 C 43.088854,384.60209 46,389.38888 46,389.91869 c 0,3.41828 -2.792759,0.87402 -8.577415,-7.8142 z M 57.842698,360.27137 C 56.226369,357.92212 54.579997,356 54.184094,356 53.143236,356 46,360.95866 46,361.68119 c 0,0.335 1.207458,2.51768 2.68324,4.85038 l 2.68324,4.24129 4.707499,-3.11506 4.707499,-3.11506 z M 19.95042,355.92626 c -3.378148,-5.02402 -5.761463,-9.48114 -5.296254,-9.9047 1.502794,-1.36825 37.427983,-25.11585 38.779841,-25.63461 0.71935,-0.27604 1.559298,0.15322 1.866553,0.95391 0.395638,1.03102 -4.830538,5.03799 -17.910812,13.73242 -12.15559,8.0798 -18.293024,12.7364 -17.953352,13.62157 0.283857,0.73972 2.326792,4.0113 4.539854,7.27018 4.182798,6.15944 4.672405,7.51605 3.070004,8.50638 -0.52456,0.3242 -3.717685,-3.52112 -7.095834,-8.54515 z M 334,404 c 0,-2.88889 0.41667,-4 1.5,-4 0.825,0 1.50614,0.7875 1.51365,1.75 0.008,0.9625 0.285,2.7625 0.61664,4 0.48628,1.81458 0.19336,2.25 -1.51366,2.25 C 334.31389,408 334,407.4068 334,404 Z m -23.91352,-9.39579 c -0.90531,-1.09084 -0.42996,-1.79401 2.30274,-3.40635 1.89396,-1.11746 3.70618,-1.76912 4.02717,-1.44814 1.27406,1.27406 0.44641,2.90011 -2.30274,4.52407 -2.43033,1.43563 -3.06659,1.48784 -4.02717,0.33042 z m 0.59666,-26.21122 c -2.20241,-1.19386 -2.57176,-1.82227 -1.69321,-2.88086 0.93803,-1.13025 1.60884,-1.07788 4.06054,0.31698 2.96783,1.6885 4.00303,4.20463 1.69953,4.13085 -0.6875,-0.022 -2.51759,-0.72716 -4.06686,-1.56697 z m 41.97942,-0.82997 c -0.74605,-1.94417 5.45463,-5.96893 6.5586,-4.25709 0.47161,0.73128 -0.29406,2.06418 -1.97555,3.4391 -3.22335,2.63567 -3.8431,2.74629 -4.58305,0.81799 z M 332,354.07332 C 332,351.11926 332.41217,350 333.5,350 c 1,0 1.5,1 1.5,3 0,1.65 0.0238,3.3375 0.0528,3.75 0.029,0.4125 -0.64595,0.8955 -1.5,1.07332 -1.20253,0.25039 -1.55282,-0.59554 -1.55282,-3.75 z m 89.10357,-55.44853 c -0.82807,-0.99776 -0.0401,-2.04949 3.37079,-4.499 2.44833,-1.75825 4.72698,-3.64255 5.06368,-4.18734 0.33669,-0.54478 -0.97136,-3.19467 -2.90678,-5.88864 -2.76228,-3.84489 -3.24478,-5.12567 -2.24387,-5.95635 0.96866,-0.80391 2.41641,0.52832 6.02435,5.54365 2.61211,3.63103 4.37555,6.93341 3.91877,7.33862 -0.45678,0.40521 -3.37655,2.585 -6.48837,4.84399 -4.49477,3.26291 -5.88003,3.83955 -6.73857,2.80507 z m -26.61246,-8.85285 c -2.47011,-3.39466 -4.46685,-6.41957 -4.4372,-6.72202 C 390.1364,282.20854 401.89105,274 403.01342,274 c 2.44828,0 0.58674,3.17902 -3.51342,6 -2.475,1.70284 -4.5,3.52342 -4.5,4.04573 0,0.5223 1.58098,3.15024 3.51328,5.83987 2.843,3.95725 3.22287,5.00167 1.99111,5.47434 -1.04998,0.40292 -2.91531,-1.33049 -6.01328,-5.588 z M 303,243.5 c 0,-1.30594 4.72222,-1.5 36.5,-1.5 31.77778,0 36.5,0.19406 36.5,1.5 0,1.30594 -4.72222,1.5 -36.5,1.5 -31.77778,0 -36.5,-0.19406 -36.5,-1.5 z m -1.5e-4,-12.75 C 302.99999,229.10156 306.71434,229 367,229 c 55.9439,0 64,0.18699 64,1.48546 0,1.29573 -8.17484,1.51926 -64.00015,1.75 -60.38669,0.2496 -64.00015,0.16573 -64,-1.48546 z M 303,218.5 c 0,-1.31498 6.72222,-1.5 54.5,-1.5 47.77778,0 54.5,0.18502 54.5,1.5 0,1.31498 -6.72222,1.5 -54.5,1.5 -47.77778,0 -54.5,-0.18502 -54.5,-1.5 z m -230,-22 c 0,-1.04762 1.055556,-1.5 3.5,-1.5 H 80 v -18 -18 h 15.976926 15.976924 l 0.27308,17.75 0.27307,17.75 7.75,0.29206 7.75,0.29207 V 152.54206 110 h 15.98915 15.98914 l 0.26086,42.25 0.26085,42.25 7.75,0.29206 7.75,0.29207 V 164.04206 133 h 16 16 v 31.04206 31.04207 l 7.75,-0.29207 L 223.5,194.5 223.75892,142.25 224.01784,90 H 240.00892 256 v 52.5 52.5 h 7 c 5.55556,0 7,0.30952 7,1.5 0,1.32318 -11.61111,1.5 -98.5,1.5 C 84.611111,198 73,197.82318 73,196.5 Z m 36,-18.02988 V 161.94025 L 96.25,162.22012 83.5,162.5 83.222087,177.45607 c -0.152853,8.22583 -0.05448,15.53833 0.218615,16.25 C 83.810364,194.66939 87.139078,195 96.468615,195 H 109 Z m 48,-24.5 V 112.94025 L 144.25,113.22012 131.5,113.5 131.23878,154.25 130.97757,195 H 143.98878 157 Z M 205,165.5 V 136 h -13 -13 v 29.5 29.5 h 13 13 z m 48,-21 V 94 h -13 -13 v 50.5 50.5 h 13 13 z m 50,45.5 v -5 h 55.5 55.5 v 5 5 H 358.5 303 Z m 0,-20.5 V 164 h 40 40 v 5.5 5.5 H 343 303 Z M 140.86667,95.857356 138.46505,91.5 126.82933,91.219102 c -8.30218,-0.200423 -11.95875,-0.670115 -12.76323,-1.639457 -0.74236,-0.894493 -1.03162,-5.751551 -0.8468,-14.219102 L 113.5,62.5 142.93147,62.234607 c 22.87976,-0.206314 29.61027,0.0163 30.23469,1 1.32642,2.089654 1.00801,25.191227 -0.36616,26.565393 -0.79172,0.791717 -5.04404,1.2 -12.49816,1.2 h -11.29817 l -2.86769,4.607356 -2.86769,4.607354 z M 157.81083,76.75 C 158.11824,75.148026 156.91394,75 143.57332,75 129.60088,75 129,75.083595 129,77.027457 c 0,1.954665 0.51116,2.017495 14.23751,1.75 12.6355,-0.246238 14.2753,-0.474367 14.57332,-2.027457 z m 304.07613,4.363043 c -0.98567,-0.374608 -1.37461,-1.240414 -1,-2.226086 0.37461,-0.985672 1.24041,-1.374608 2.22608,-1 0.98567,0.374608 1.37461,1.240414 1,2.226086 -0.37461,0.985672 -1.24041,1.374608 -2.22608,1 z M 455.25,80.281721 C 454.5625,80.035108 454,78.922688 454,77.809678 c 0,-1.434467 0.46054,-1.84693 1.58179,-1.416667 0.86998,0.333844 1.76998,0.606989 2,0.606989 0.73505,0 0.44749,2.865412 -0.33179,3.306038 -0.4125,0.233239 -1.3125,0.222297 -2,-0.02432 z M 438.28975,76 c -0.28766,-1.1 -1.14553,-2 -1.90638,-2 C 435.62252,74 435,73.051855 435,71.893011 c 0,-1.485086 0.45392,-1.932805 1.53785,-1.516859 0.87507,0.335795 1.78315,-0.04908 2.10699,-0.893011 C 439.36535,67.605528 442,67.534753 442,69.393011 c 0,0.766156 0.675,1.652033 1.5,1.968615 C 445.71866,72.213004 445.33565,75 443,75 c -1.11111,0 -2,0.666667 -2,1.5 0,2.212109 -2.10245,1.824239 -2.71025,-0.5 z M 462,73 c 0,-1.367185 0.66667,-2 2.10699,-2 1.51045,0 1.93514,0.447838 1.5,1.581787 -0.33385,0.869984 -0.60699,1.769984 -0.60699,2 C 465,74.811804 464.325,75 463.5,75 462.66667,75 462,74.111111 462,73 Z m -7,-1 c 0,-1.333333 0.66667,-2 2,-2 1.33333,0 2,0.666667 2,2 0,1.333333 -0.66667,2 -2,2 -1.33333,0 -2,-0.666667 -2,-2 z M 118.59616,29.693972 c -3.74977,-2.741897 0.23634,-9.542469 4.15384,-7.08673 2.46343,1.54424 2.82811,5.496862 0.65384,7.08673 C 122.42149,30.412287 121.33976,31 121,31 c -0.33976,0 -1.42149,-0.587713 -2.40384,-1.306028 z m -13,-2 c -3.74977,-2.741897 0.23634,-9.542469 4.15384,-7.08673 2.46343,1.54424 2.82811,5.496862 0.65384,7.08673 C 109.42149,28.412287 108.33976,29 108,29 c -0.33976,0 -1.42149,-0.587713 -2.40384,-1.306028 z M 92.75,25.919901 c -2.138471,-1.245545 -2.290014,-5.22684 -0.262986,-6.909124 0.852871,-0.70782 2.558687,-0.965139 4,-0.603392 C 98.459532,18.902455 99,19.67165 99,21.983868 c 0,1.888935 -0.693939,3.317149 -1.934259,3.980948 -2.302034,1.232011 -2.120142,1.233904 -4.315741,-0.04491 z"
         id="path2" />
    </g>
  </g>
</svg>
