<?xml version="1.0" encoding="UTF-8" standalone="no"?>
<!-- Created with Inkscape (http://www.inkscape.org/) -->

<svg
   version="1.1"
   id="svg1"
   width="530"
   height="450"
   viewBox="0 0 530 450"
   sodipodi:docname="BUSINESS_03.svg"
   inkscape:version="1.3.2 (091e20e, 2023-11-25, custom)"
   xmlns:inkscape="http://www.inkscape.org/namespaces/inkscape"
   xmlns:sodipodi="http://sodipodi.sourceforge.net/DTD/sodipodi-0.dtd"
   xmlns="http://www.w3.org/2000/svg"
   xmlns:svg="http://www.w3.org/2000/svg">
  <defs
     id="defs1" />
  <sodipodi:namedview
     id="namedview1"
     pagecolor="#ffffff"
     bordercolor="#000000"
     borderopacity="0.25"
     inkscape:showpageshadow="2"
     inkscape:pageopacity="0.0"
     inkscape:pagecheckerboard="0"
     inkscape:deskcolor="#d1d1d1"
     showgrid="false"
     inkscape:zoom="1.5150943"
     inkscape:cx="265"
     inkscape:cy="224.73848"
     inkscape:window-width="1920"
     inkscape:window-height="1001"
     inkscape:window-x="-9"
     inkscape:window-y="-9"
     inkscape:window-maximized="1"
     inkscape:current-layer="g1" />
  <g
     inkscape:groupmode="layer"
     inkscape:label="Image"
     id="g1">
    <g
       id="g5"
       transform="translate(0.13031427)">
      <path
         style="fill:#fdfdfc"
         d="M 0,225 V 0 H 265 530 V 225 450 H 265 0 Z"
         id="path7" />
      <path
         style="fill:#f9ca41"
         d="m 113.5,449.38996 c -44.530703,-4.51494 -68.45853,-14.41901 -63.537621,-26.29913 1.487298,-3.59066 8.06983,-8.20474 15.932339,-11.1679 7.291681,-2.74804 24.51206,-6.64483 33.106839,-7.49174 l 6.773673,-0.66746 22.07921,-26.78833 22.0792,-26.78832 -9.07055,-8.84354 C 129.55448,330.31796 118.11671,316.22268 110.50436,303.9311 104.50757,294.24816 94.025571,273.48067 94.009183,271.25 94.004132,270.5625 92.875,270 91.5,270 c -1.833333,0 -2.5,-0.53333 -2.5,-2 0,-1.1 0.663862,-2 1.475249,-2 1.198864,0 1.27728,-0.51521 0.418555,-2.75 C 90.312623,261.7375 88.81932,256.675 87.575355,252 85.693176,244.9265 84.951637,243.44637 83.1568,243.18045 80.688183,242.8147 80.088847,239 82.5,239 c 0.825,0 1.5,-0.21138 1.5,-0.46973 0,-0.25835 -0.731461,-5.32085 -1.625469,-11.25 -0.894008,-5.92915 -1.681508,-17.19041 -1.75,-25.02503 -0.06849,-7.83461 -0.201009,-14.24711 -0.294483,-14.25 -0.09347,-0.003 -4.818473,1.09864 -10.5,2.44784 -14.908555,3.54033 -25.305368,4.73605 -42.615372,4.90114 -11.444118,0.10915 -15.483794,-0.17488 -16.075098,-1.13024 C 9.2626709,191.19151 1.8685282,139.59849 0.44442643,119.59801 l -0.70505497,-9.90199 3.88031424,0.68305 C 27.81398,114.63795 35.181744,115.32502 57,115.35699 c 23.666423,0.0347 41.700756,-1.85585 43.27578,-4.53659 0.42667,-0.72622 3.41314,-5.8204 6.63659,-11.3204 l 5.86082,-10 -10.95349,-0.283377 c -9.726081,-0.251622 -10.916608,-0.475736 -10.624332,-2 0.287069,-1.497108 1.958011,-1.752413 13.066892,-1.9965 C 111.26802,85.066191 117,84.582347 117,84.144914 117,81.020946 138.36865,57.367082 150.0285,47.584267 178.79838,23.44584 210.55095,8.8585513 248.5,2.3459653 c 13.88143,-2.38224717 47.09571,-2.38453209 61,-0.0042 47.46806,8.1262617 88.71319,31.0512627 119.67202,66.5164917 l 5.55035,6.358259 17.31126,-9.534016 17.31125,-9.534017 6.07756,4.652935 c 9.79179,7.496522 24.27169,21.917476 33.03858,32.904089 9.27043,11.617643 21.86142,32.011853 21.05727,34.107433 -0.76634,1.99705 -34.55177,56.41905 -36.00608,57.99905 -0.97003,1.05386 -2.51163,-0.61844 -7.83566,-8.5 -7.95749,-11.78008 -12.01773,-16.7586 -11.26439,-13.81199 2.88767,11.29477 3.46214,46.79574 1.02547,63.37166 -11.03562,75.0719 -63.242,137.16548 -135.12119,160.71136 -33.7806,11.0657 -73.88973,12.53474 -108.81644,3.98552 -5.5,-1.34627 -11.99378,-3.15866 -14.43063,-4.02752 -2.43685,-0.86887 -4.73503,-1.23354 -5.10708,-0.81039 -0.37205,0.42315 -4.61995,5.17768 -9.43978,10.56562 -4.81984,5.38794 -8.59665,9.92407 -8.39292,10.08028 0.20372,0.1562 3.49382,1.10862 7.31132,2.11647 3.8175,1.00784 9.99183,3.35876 13.72074,5.22426 15.10034,7.55439 14.25619,16.09006 -2.34478,23.70923 -16.20504,7.43745 -36.25434,10.58438 -70.31687,11.0369 -13.75,0.18267 -26.8,0.14963 -29,-0.0734 z m 44.09635,-8.98557 C 158.74934,439.90698 171.74093,426 186.46655,409.5 201.19216,393 215.31711,377.35212 217.85531,374.72694 l 4.61492,-4.77305 5.57992,0.63129 c 6.44864,0.72958 24.12021,-0.97167 32.61771,-3.14013 8.15846,-2.08194 17.73703,-6.94908 20.7704,-10.55404 1.40896,-1.67445 2.56174,-3.40408 2.56174,-3.84362 0,-0.43954 -2.94547,0.26999 -6.54549,1.57673 -7.76757,2.81947 -10.73586,3.04311 -10.27783,0.77437 0.20597,-1.02024 3.10169,-2.47639 7.97814,-4.01192 C 287.11685,347.61989 297,339.71202 297,333.90744 c 0,-1.64818 -0.44165,-1.5946 -5.33967,0.64779 -7.52682,3.44589 -20.78164,6.72346 -22.05218,5.45292 -1.58399,-1.58399 0.21958,-2.62313 8.39185,-4.83498 4.125,-1.11644 9.62386,-2.9403 12.2197,-4.05301 5.70361,-2.44487 13.28969,-9.22748 15.74255,-14.07521 C 307.79029,313.43208 309.53806,307 308.69173,307 c -0.25695,0 -3.33021,1.33168 -6.82946,2.9593 -6.70967,3.12088 -25.59879,8.32157 -27.02434,7.44054 -2.64559,-1.63507 -0.0637,-3.2728 8.41207,-5.33595 22.10327,-5.38032 30.75,-11.64846 30.75,-22.29113 0,-6.14309 -8.72476,-16.85983 -12.53549,-15.39751 C 300.4488,274.76501 300,276.4689 300,279.93528 c 0,4.36169 -0.43779,5.43585 -3.43846,8.43651 -1.89115,1.89115 -5.88139,4.35248 -8.8672,5.46962 C 280.90535,296.38149 267.32419,299 260.93875,299 c -10.39578,0 -21.14575,-4.11948 -18.30365,-7.01412 0.85792,-0.87378 1.85266,-0.78501 4.0737,0.36354 1.61623,0.83578 4.18968,1.66158 5.71877,1.83509 2.76505,0.31377 2.79602,0.25077 5.69409,-11.58338 1.60266,-6.54438 2.68055,-12.13225 2.39531,-12.41749 -0.6875,-0.6875 -22.40906,2.54736 -30.01697,4.47024 -7.5461,1.90726 -17.60813,7.15839 -23.65221,12.3435 -2.55871,2.19508 -8.7163,9.32346 -13.68352,15.84086 -4.96723,6.51739 -30.87977,38.35749 -57.58344,70.75578 -26.70367,32.39829 -48.558581,59.23744 -48.566476,59.64256 -0.0365,1.87306 11.62458,5.18077 25.918356,7.35185 9.48953,1.44136 41.19888,1.3107 44.66364,-0.18404 z M 296.96937,280 c 0,-1.33333 -0.1077,-1.33333 -0.96937,0 -0.53316,0.825 -0.96937,2.175 -0.96937,3 0,1.33333 0.1077,1.33333 0.96937,0 0.53316,-0.825 0.96937,-2.175 0.96937,-3 z M 166.92661,258.03793 c 17.2783,-8.68501 36.71299,-13.65579 57.51295,-14.70998 l 12.4153,-0.62924 -17.53705,-35.09935 c -9.64538,-19.30465 -17.95904,-35.62115 -18.4748,-36.2589 -2.39712,-2.96407 -28.6208,7.72509 -43.37191,17.67904 -8.91674,6.01695 -21.98343,18.18963 -28.69299,26.72982 l -4.54124,5.78027 9.44091,21.4852 c 5.19251,11.81687 10.07038,22.95761 10.83973,24.7572 l 1.39881,3.27199 6.71845,-4.59962 c 3.69514,-2.5298 10.12647,-6.31269 14.29184,-8.40643 z m 12.03887,-33.72183 c -12.40267,-26.01713 -13.35272,-28.32886 -12.14039,-29.54119 0.62787,-0.62787 1.36425,-0.9189 1.63641,-0.64675 0.6903,0.6903 19.63811,40.07027 19.85878,41.27328 0.0988,0.53888 -0.59089,1.14875 -1.53275,1.35527 -1.32901,0.2914 -3.08051,-2.49428 -7.82205,-12.44061 z m -17.9696,-5.89252 c -5.99278,-12.67146 -7.1005,-15.74089 -5.93961,-16.45835 0.78485,-0.48507 1.73348,-0.56319 2.10804,-0.17359 0.37457,0.3896 3.83077,7.45347 7.68044,15.6975 6.55702,14.04177 7.1445,16.41321 4.08651,16.49555 -0.31281,0.008 -3.88373,-6.99408 -7.93538,-15.56111 z m 36.30684,-18.47718 c -5.72019,-11.98143 -6.8838,-15.16992 -5.70169,-15.62354 0.81688,-0.31347 1.63987,-0.40184 1.82888,-0.1964 1.6242,1.76546 14.49346,29.18852 14.04118,29.92031 -1.56342,2.52967 -3.5323,-0.20056 -10.16837,-14.10037 z M 415.1067,259 c 1.55682,-8.64961 11.76405,-70.00461 12.37546,-74.38807 0.66467,-4.76528 0.62322,-4.87184 -1.65018,-4.24185 -12.37214,3.42844 -35.40299,4.94121 -50.97273,3.34812 l -7.64075,-0.7818 -3.71504,6.7818 c -7.50389,13.69832 -20.75324,28.78634 -31.55626,35.93544 -2.21538,1.46607 -3.6723,3.00182 -3.23759,3.41276 3.39743,3.21169 19.93937,13.16297 29.79039,17.92127 17.88857,8.64064 43.26359,16.23592 52.48837,15.71088 3.14682,-0.17911 3.55005,-0.54124 4.11833,-3.69855 z m -26.78225,-13.77832 c -0.8673,-0.55163 -0.0462,-5.98863 3.13147,-20.73468 2.36886,-10.99285 4.62492,-21.8995 5.01345,-24.237 0.54385,-3.27191 1.14647,-4.25 2.61853,-4.25 1.05165,0 1.9121,0.44506 1.9121,0.98903 0,0.54397 -1.54179,8.30647 -3.42619,17.25 -7.11473,33.76709 -6.75677,32.56803 -9.24936,30.98265 z M 374,240.75075 c 0,-0.76775 2.24861,-11.03825 4.99691,-22.82333 2.7483,-11.78508 4.9983,-21.76492 5,-22.17742 0.004,-1.02133 2.75926,-0.95354 3.40029,0.0837 0.28337,0.45851 -1.83903,10.91705 -4.71644,23.24121 -4.16912,17.85657 -5.58192,22.475 -6.95621,22.73966 C 374.75683,242.0009 374,241.53405 374,240.75075 Z m -11.55971,-14.56261 c 0.31628,-0.99653 2.34409,-8.69401 4.50624,-17.10553 2.16215,-8.41151 4.08423,-15.4467 4.27129,-15.63376 0.18705,-0.18706 1.00207,0.0695 1.81114,0.57022 1.26415,0.7823 1.01376,2.70851 -1.78029,13.69563 -5.24668,20.63165 -5.12096,20.2853 -7.36306,20.2853 -1.49538,0 -1.87095,-0.47082 -1.44532,-1.81186 z M 334.36408,202.25 C 340.1676,195.06254 349,181.32556 349,179.48686 c 0,-0.89847 -10.1269,-4.95544 -10.50284,-4.20758 C 338.05692,176.15504 328,207.83905 328,208.35024 c 0,1.4559 1.16304,0.34108 6.36408,-6.10024 z M 43,190.93834 c 21.222964,-1.94665 39.625971,-6.84527 56.440137,-15.02356 L 108,171.75132 v -14.32444 c 0,-13.22613 1.76439,-31.53223 3.92893,-40.76378 0.89238,-3.80591 0.87813,-3.8314 -1.76464,-3.15742 -9.42357,2.40327 -24.353574,4.65996 -37.259867,5.63186 C 56.073556,120.40498 33.601085,119.24411 14.75,116.13345 4.3203135,114.41242 4,114.41464 4,116.20822 c 0,7.7177 4.993356,45.86253 9.062389,69.22864 L 14.20531,192 22.852655,191.997 C 27.608695,191.9947 36.675,191.51849 43,190.93834 Z M 67.467724,174.94778 C 67.074167,174.31099 66.517376,163.93723 66.230412,151.89499 65.708874,130.00907 65.709546,130 67.854329,130 c 2.295071,0 2.232133,-0.9829 2.604004,40.66667 0.04046,4.53116 -1.485771,6.71599 -2.990609,4.28111 z M 80.625,168.875 c -0.816975,-4.08487 -0.809542,-33.70229 0.0095,-37.79742 0.399719,-1.9986 1.156386,-3.06238 2.044991,-2.875 1.153929,0.24332 1.447798,4.25384 1.615515,22.04746 0.183748,19.49442 0.03649,21.75004 -1.419991,21.75 -1.019984,-2e-5 -1.857698,-1.16353 -2.25,-3.12504 z M 93,154 c 0,-13.33333 0.09524,-14 2,-14 1.904762,0 2,0.66667 2,14 0,13.33333 -0.09524,14 -2,14 -1.904762,0 -2,-0.66667 -2,-14 z m 416.79693,-1.16706 15.96507,-25.66706 -3.46768,-6.25656 C 514.37874,106.62766 500.24559,88.226587 488.86695,77.387583 482.71182,71.524366 469.9272,61 468.9599,61 c -0.51623,0 -61.87123,33.676949 -62.67268,34.40021 -0.11704,0.105614 5.17613,3.935286 11.76258,8.51038 26.90856,18.6913 52.4362,44.11672 69.12451,68.84773 2.76278,4.09427 5.39096,7.06107 5.84039,6.5929 0.44944,-0.46817 8.00144,-12.4014 16.78223,-26.51828 z M 468.4678,134.9479 c -0.62437,-1.01025 20.02664,-23.94605 22.21846,-24.67665 0.58703,-0.19568 1.36679,0.42462 1.73281,1.37844 0.49981,1.30248 -2.1417,4.54939 -10.61048,13.04227 C 475.60681,130.91138 470.21434,136 469.82533,136 c -0.38901,0 -0.9999,-0.47344 -1.35753,-1.0521 z m -12.03014,-12.04877 c -0.3742,-0.60547 0.16174,-1.88409 1.19098,-2.84137 1.02925,-0.95727 8.32351,-7.51179 16.20946,-14.56559 11.10807,-9.935901 14.53987,-12.505998 15.23375,-11.408632 0.4926,0.779054 0.79045,1.709656 0.66189,2.068004 C 489.31208,97.32689 458.9298,124 458.01267,124 c -0.49205,0 -1.2008,-0.49539 -1.57501,-1.10087 z m -12.28863,-11.21956 c -0.85944,-1.03556 2.56354,-4.10984 15.8663,-14.249999 C 469.34452,90.318307 477.50756,84.5 478.15541,84.5 c 3.74158,0 0.1363,3.659305 -15.16196,15.389172 C 453.58881,107.10013 445.74804,113 445.5695,113 c -0.17854,0 -0.81775,-0.59419 -1.42047,-1.32043 z m -13.56558,-10.3227 c -0.34679,-0.90372 -0.50743,-1.740958 -0.35699,-1.86053 C 433.72133,96.718684 453.84363,84 454.74332,84 c 3.69905,0 -0.0337,3.805539 -10.76199,10.971789 C 437.37106,99.387305 431.79421,103 431.58832,103 c -0.20589,0 -0.65808,-0.73941 -1.00487,-1.64313 z M 239.25121,157.16544 C 246.53805,152.85643 258.125,146.04349 265,142.02557 c 6.875,-4.01792 12.65346,-7.43333 12.84102,-7.5898 0.42894,-0.35782 -10.16011,-18.79191 -18.23057,-31.73694 -8.61548,-13.819233 -23.04416,-32.791293 -32.82486,-43.160924 l -8.32721,-8.828625 -15.06707,15.895359 c -22.35352,23.582358 -36.39562,39.04034 -36.3575,40.02346 0.0186,0.47954 3.62422,3.28177 8.01251,6.22717 13.35784,8.96571 35.05625,30.92832 47.03308,47.60576 1.7928,2.49643 3.4089,4.53897 3.59133,4.53897 0.18243,0 6.29365,-3.52555 13.58048,-7.83456 z m -30.90613,-28.70857 c -0.32569,-0.84872 -0.42406,-1.67215 -0.21862,-1.82984 0.20545,-0.1577 6.34533,-4.90787 13.64417,-10.55595 8.66286,-6.70358 13.81317,-10.06103 14.83316,-9.66962 0.85939,0.32977 1.4126,0.99806 1.22937,1.48508 C 237.461,108.87567 210.40091,130 209.50599,130 c -0.31282,0 -0.83523,-0.69441 -1.16091,-1.54313 z m -8.75546,-9.08393 c -0.3434,-0.89488 0.0154,-2.13238 0.79734,-2.75 0.78194,-0.61761 8.10226,-6.7511 16.26738,-13.62996 19.62402,-16.532651 17.86091,-15.281997 19.22562,-13.637623 0.92295,1.11209 -2.3491,4.31794 -16.8533,16.512333 C 209.12743,114.19046 200.84489,121 200.62102,121 c -0.22388,0 -0.688,-0.73217 -1.0314,-1.62706 z m -8.51547,-7.78359 c -0.91133,-1.09809 0.0364,-2.49387 4.64031,-6.83406 C 208.98397,92.245901 225.04937,78 225.88697,78 c 0.49448,0 1.1333,0.610448 1.41961,1.356551 0.31897,0.831232 -3.99611,5.431551 -11.14301,11.879574 -6.41496,5.787662 -14.42671,13.045305 -17.80388,16.128085 -5.02306,4.5852 -6.34868,5.35398 -7.28554,4.22514 z m -8.60809,-7.64426 C 181.77592,102.82841 202.51332,81 204.26433,81 c 3.14236,0 0.5056,3.926394 -8.77716,13.070022 -5.82378,5.736488 -10.97461,10.566228 -11.44629,10.732768 -0.47168,0.16653 -1.18035,-0.21944 -1.57482,-0.8577 z M 58.183578,268.25 c 0.283136,-2.46072 0.763494,-2.78235 4.566422,-3.0575 4.140364,-0.29956 4.25,-0.22862 4.25,2.75 0,2.96363 -0.140203,3.0575 -4.566422,3.0575 -4.391594,0 -4.554308,-0.10529 -4.25,-2.75 z M 74,268 c 0,-1.66667 0.666667,-2 4,-2 3.333333,0 4,0.33333 4,2 0,1.66667 -0.666667,2 -4,2 -3.333333,0 -4,-0.33333 -4,-2 z M 61,86.942502 c 0,-1.801595 0.527523,-2.019252 4.241373,-1.75 3.093914,0.224308 4.331179,0.780942 4.573324,2.057498 C 70.09163,88.709954 69.388662,89 65.573324,89 61.624065,89 61,88.719239 61,86.942502 Z m 15,0 c 0,-1.801595 0.527523,-2.019252 4.241373,-1.75 3.093914,0.224308 4.331179,0.780942 4.573324,2.057498 C 85.09163,88.709954 84.388662,89 80.573324,89 76.624065,89 76,88.719239 76,86.942502 Z"
         id="path6" />
      <path
         style="fill:#181618"
         d="m 116,449.36671 c -11.36652,-0.8416 -28.837601,-3.54658 -38.43245,-5.95035 -17.754243,-4.44792 -27.900883,-10.8424 -27.900883,-17.58332 0,-8.51411 19.993286,-17.35484 47.543168,-21.02285 l 8.972025,-1.19455 20.6027,-25.05782 C 138.11605,364.77602 154.61987,344.725 163.45972,334 c 8.83986,-10.725 19.85018,-24.45 24.46738,-30.5 13.34019,-17.47987 18.85672,-22.57361 30.67893,-28.32766 7.67381,-3.73496 11.92381,-4.81673 29.37344,-7.47652 l 14.47947,-2.20706 1.83998,-7.99438 c 1.01198,-4.39691 2.24839,-8.41155 2.74757,-8.92143 0.55688,-0.5688 2.90649,-0.46565 6.08027,0.26695 2.84497,0.6567 5.35953,1.00714 5.58792,0.77875 0.89607,-0.89607 3.32238,-13.07969 2.84994,-14.31086 -0.27602,-0.71928 -1.07847,-1.30815 -1.78324,-1.30858 -0.70476,-4.3e-4 -4.16832,-1.36653 -7.69679,-3.03576 -18.10697,-8.56597 -30.95897,-31.98254 -32.77326,-59.71345 -0.33285,-5.0875 -0.75614,-9.25 -0.94064,-9.25 -0.18451,0 -3.31792,1.82547 -6.96315,4.05659 -3.64523,2.23113 -6.71707,3.91863 -6.8263,3.75 -0.10924,-0.16862 -3.31498,-4.35659 -7.12387,-9.30659 -15.74082,-20.45665 -32.1669,-36.57334 -48.17433,-47.26697 -7.75156,-5.17836 -8.13648,-5.60418 -6.796,-7.51799 3.06602,-4.37736 53.87709,-58.846148 55.50182,-59.49721 1.44409,-0.578675 20.14866,20.075458 29.54563,32.625149 l 9.73489,13.000977 4.71945,-7.22946 c 12.78731,-19.5882 31.65014,-33.577516 49.45603,-36.678278 18.09716,-3.151484 39.80385,5.841204 51.43346,21.307946 8.29296,11.029188 14.57913,28.008686 16.66212,45.005836 0.5462,4.45705 0.76335,4.75 3.52083,4.75 1.94554,0 2.93873,0.50695 2.93873,1.5 0,1 -1,1.5 -3,1.5 h -3 v 6.12166 c 0,10.41762 -2.94378,26.85446 -6.96298,38.87834 -2.11424,6.325 -3.51101,11.85398 -3.10393,12.28662 0.40709,0.43264 6.77617,1.05594 14.15353,1.38511 14.603,0.65156 26.17342,-0.45232 39.7449,-3.79187 4.58234,-1.12758 8.45186,-1.89933 8.59894,-1.715 0.36569,0.45832 -6.52507,43.54834 -11.16772,69.83514 l -3.79723,21.5 -6.38043,-0.25054 c -21.26568,-0.83504 -56.85807,-14.50619 -78.93406,-30.31884 l -8.1356,-5.82738 -5.25771,2.31811 C 312.0067,235.39785 304.41862,237 297.07235,237 h -5.8292 l -1.62158,6.45552 C 288.72971,247.00605 288,250.52729 288,251.28049 c 0,0.86121 2.3196,1.89834 6.25,2.79449 6.85629,1.56326 7.00957,1.84713 5.35902,9.92502 -0.69183,3.3859 -0.56443,3.57909 3.90795,5.92612 9.28567,4.87294 15.64227,15.44529 13.96265,23.22279 -0.39803,1.8431 -1.62821,5.13715 -2.73372,7.32012 -1.10552,2.18297 -2.08891,5.55797 -2.18532,7.5 -0.23076,4.64843 -4.43677,13.68142 -8.55375,18.37041 -2.0434,2.32731 -3.40676,5.03875 -3.59644,7.1526 -0.42355,4.72021 -2.59662,8.54004 -7.25002,12.74411 -2.183,1.97221 -4.28936,4.63839 -4.6808,5.92485 -1.09527,3.5996 -5.25152,8.66169 -9.83261,11.9756 -3.80631,2.75345 -4.31125,3.66793 -6.14696,11.13264 -1.93954,7.88693 -2.1058,8.1601 -5.5,9.03688 -8.03165,2.07473 -17.91932,-0.62042 -28.29441,-7.71242 C 235.68846,374.53132 233.71484,374 229.07103,374 h -5.84015 l -14.36544,16.03771 c -7.90099,8.82074 -14.48357,16.37513 -14.62795,16.78754 -0.14439,0.41241 2.78061,1.55625 6.5,2.54188 C 214.28232,412.95647 226,420.58434 226,425.81229 c 0,4.16586 -4.23688,8.2467 -12.7115,12.24335 -15.14585,7.14282 -38.15558,10.89508 -69.7885,11.38062 -12.1,0.18572 -24.475,0.15442 -27.5,-0.0695 z m 42.22662,-8.9175 c 0.94964,-0.5514 15.57464,-16.42527 32.5,-35.27527 L 221.5,370.90122 236,370.51955 c 22.43575,-0.59056 37.88554,-5.22293 45.4891,-13.63917 2.01651,-2.23203 3.49583,-4.22878 3.28739,-4.43723 -0.20845,-0.20844 -3.7053,0.74639 -7.7708,2.12184 -4.06549,1.37545 -7.97992,2.27514 -8.69874,1.9993 -2.68693,-1.03107 -1.13556,-2.4722 4.39077,-4.07875 12.79715,-3.72023 22.61731,-10.81068 23.90757,-17.262 l 0.6443,-3.22148 -4.3748,1.93293 c -7.37188,3.25716 -22.14663,7.19317 -23.16786,6.17194 -1.18109,-1.18109 -0.0405,-3.10693 1.84013,-3.10693 3.2988,0 20.3263,-6.16801 24.72041,-8.95467 2.70249,-1.71387 6.06518,-5.07709 7.7806,-7.78185 3.14888,-4.96491 5.68066,-11.86808 4.70905,-12.83969 -0.30982,-0.30982 -2.29442,0.31616 -4.41021,1.39108 -5.34125,2.71359 -19.12854,6.95462 -25.24794,7.76639 -4.18909,0.5557 -5.09897,0.40561 -5.09897,-0.84114 0,-0.96848 1.35678,-1.75861 3.75,-2.18385 7.33492,-1.30328 20.83776,-5.78849 26.56971,-8.82561 4.34621,-2.30287 6.33637,-4.09635 7.86028,-7.08348 2.77664,-5.44266 2.11949,-12.2547 -1.66026,-17.21019 -3.58091,-4.69482 -11.51875,-9.83797 -12.95973,-8.39699 -0.72437,0.72437 -0.63045,1.29842 0.30726,1.87796 0.74279,0.45907 1.5872,2.93434 1.87645,5.5006 0.50493,4.47974 0.34946,4.835 -3.89624,8.90309 -5.02051,4.8105 -10.58973,6.94254 -24.34459,9.31971 C 257.85693,299.99972 243,297.52385 243,292.89142 c 0,-2.28085 -0.0748,-2.2743 3.81457,-0.33404 1.71702,0.85657 4.34452,1.64407 5.83889,1.75 2.67034,0.18931 2.76888,-0.0173 5.73315,-12.02268 1.65886,-6.71842 2.813,-12.40743 2.56475,-12.64224 -0.76592,-0.72446 -28.49886,4.04904 -34.13264,5.87504 -13.08687,4.24169 -21.58799,11.18172 -34.617,28.26017 -4.91858,6.44728 -30.81077,38.25526 -57.53819,70.68439 -33.37618,40.49625 -48.214526,59.21203 -47.379426,59.76024 2.444403,1.60462 14.445366,4.81918 23.215896,6.21856 10.27606,1.6396 44.90678,1.64565 47.72662,0.008 z M 297,279.6422 c 0,-2.68905 -0.86732,-1.61632 -1.99863,2.47199 -0.85761,3.09921 -0.81267,3.2215 0.53086,1.44468 C 296.3395,282.49125 297,280.72875 297,279.6422 Z M 417.80168,245.5 c 4.95748,-27.60512 10.58782,-64.44383 9.94733,-65.08432 -0.32672,-0.32672 -4.1164,0.18073 -8.42152,1.12768 -9.01622,1.98318 -37.76716,3.06699 -46.32749,1.74638 l -5.5,-0.84848 -4.28112,7.44903 c -8.65673,15.06249 -18.23444,26.09522 -29.97788,34.53204 -2.88334,2.07147 -5.00195,4.15545 -4.70801,4.63106 1.16952,1.89231 18.01721,12.28213 28.28858,17.44531 5.98765,3.00985 16.29707,7.28141 22.90982,9.49236 11.77129,3.93569 33.15634,8.37137 34.39297,7.13378 0.3434,-0.34366 1.99819,-8.27484 3.67732,-17.62484 z m -25.26962,-24.75 c 4.07116,-19.13251 5.50913,-24.31823 6.81402,-24.57332 0.90966,-0.17783 1.65392,-0.0185 1.65392,0.35404 0,0.37255 -2.25,11.15873 -5,23.96928 -2.75,12.81055 -5,23.56373 -5,23.89596 0,0.33222 -0.81631,0.60404 -1.81402,0.60404 -1.66004,0 -1.37601,-2.05844 3.34608,-24.25 z m -17.94966,20.38332 c -0.2946,-0.47667 1.79033,-10.82667 4.63317,-23 C 383.55885,199.535 384.6681,196 386.16081,196 c 0.9809,0 1.5863,0.55978 1.35187,1.25 -0.23351,0.6875 -2.26733,9.35 -4.51961,19.25 -5.76797,25.35334 -6.55004,27.64388 -8.41067,24.63332 z M 363,226.94151 c 0,-0.9176 4.12691,-17.90453 7.09197,-29.19151 0.57093,-2.17333 1.59958,-3.75 2.44657,-3.75 2.02177,0 1.94701,0.5268 -2.55016,17.968 -2.19361,8.5074 -3.98838,15.5949 -3.98838,15.75 0,0.1551 -0.675,0.282 -1.5,0.282 -0.825,0 -1.5,-0.47632 -1.5,-1.05849 z m -57.434,-3.0359 c 3.2637,-1.21221 8.24662,-3.67438 11.07316,-5.47149 l 5.13916,-3.26747 6.54442,-20.33333 c 3.59943,-11.18332 6.82068,-21.31761 7.15833,-22.52063 l 0.61391,-2.18731 6.47534,2.43731 C 346.13176,173.90321 349.65748,175 350.40526,175 353.74671,175 363,138.72199 363,125.62166 V 122 h -5 c -3.77778,0 -5,-0.36667 -5,-1.5 0,-1.13669 1.2317,-1.5 5.08532,-1.5 h 5.08532 l -0.7087,-7.75 C 360.31992,87.825733 350.12167,68.368785 335.83936,60.457565 331.08564,57.824396 329.56769,57.5022 322,57.520058 c -5.11834,0.01208 -10.68813,0.696046 -14,1.719193 -14.98055,4.627998 -32.48343,19.879874 -42.38787,36.93645 l -2.71509,4.675699 7.41712,12.3243 c 4.07942,6.77837 8.58938,14.64579 10.02214,17.48316 l 2.60503,5.15887 -17.47067,10.1711 L 248,156.15993 v 5.34767 c 0,29.97971 15.20707,57.46531 35.5,64.1635 5.29173,1.74667 14.61926,1.00038 22.066,-1.76549 z M 330,120.5499 c 0,-1.23002 1.25554,-1.5499 6.08333,-1.5499 8.07801,0 7.72908,2.36935 -0.41233,2.7999 -4.58437,0.24244 -5.671,0.003 -5.671,-1.25 z m 6.69598,79.16578 C 341.5102,193.49113 349,181.18564 349,179.50059 c 0,-1.00927 -9.83163,-5.00229 -10.54939,-4.28453 -0.20026,0.20025 -2.58155,7.32107 -5.29176,15.82402 -2.7102,8.50296 -5.27673,16.35992 -5.70338,17.45992 -0.67613,1.74321 -0.41992,1.67902 1.99552,-0.5 1.52418,-1.375 4.78443,-5.10295 7.24499,-8.28432 z M 241.27644,156.21074 C 248.5494,151.90328 259.7875,145.30193 266.25,141.54107 272.7125,137.7802 278,134.40071 278,134.03109 278,132.70403 263.6247,108.27881 256.49988,97.5 252.50082,91.45 246.5067,82.959059 243.17963,78.631242 235.28851,68.36658 219.91921,51 218.72616,51 c -1.06686,0 -16.64614,16.165952 -38.06652,39.5 -13.25719,14.44158 -14.51598,16.12261 -12.92372,17.25884 20.17597,14.39741 34.7479,28.16911 49.24133,46.53718 5.08051,6.43872 8.99782,10.54379 9.77644,10.245 0.71456,-0.2742 7.24979,-4.02282 14.52275,-8.33028 z m -32.63772,-26.90535 c -1.3946,-1.3946 -0.14857,-2.62069 12.97187,-12.76424 C 233.82409,107.09877 237,105.3217 237,107.93005 c 0,0.6896 -23.02291,19.16627 -26.53096,21.29201 -0.65538,0.39713 -1.47902,0.43463 -1.83032,0.0833 z m -9.09505,-10.23474 c -0.31591,-0.51114 4.94504,-5.59473 11.69098,-11.29687 23.01641,-19.455075 22.71175,-19.227384 24.00151,-17.937619 0.91867,0.918668 0.28945,1.925066 -2.76748,4.42642 -2.17606,1.78058 -9.92211,8.299919 -17.21344,14.487419 -7.29132,6.1875 -13.68001,11.25 -14.19708,11.25 -0.51707,0 -1.19859,-0.41821 -1.51449,-0.92935 z m -9.00199,-8.00322 c -0.317,-0.51291 7.39017,-8.14852 17.12704,-16.968021 13.98488,-12.667273 17.9883,-15.799021 19.05973,-14.909815 0.74597,0.619103 0.99974,1.422488 0.56393,1.785298 -0.43581,0.362811 -8.29289,7.491883 -17.46018,15.842382 C 200.66492,105.16777 192.70398,112 192.14122,112 c -0.56275,0 -1.28255,-0.41965 -1.59954,-0.93257 z m -8.11251,-7.18203 c -0.39943,-0.6463 3.97806,-5.781515 10.41876,-12.222223 8.83216,-8.832155 11.36139,-10.853862 12.34635,-9.868901 0.98496,0.984961 -1.00435,3.488761 -9.71073,12.222222 C 189.46136,100.05742 184.21549,105 183.82607,105 c -0.38942,0 -1.01802,-0.50157 -1.3969,-1.1146 z m -50.08611,145.33372 c -12.02563,-27.50929 -12.10497,-27.74096 -10.48021,-30.60462 2.87887,-5.07404 21.14573,-23.4848 29.39285,-29.6244 13.24714,-9.86187 34.62374,-19.72887 48.28361,-22.28671 l 3.0393,-0.56911 20.14096,40.29659 20.14097,40.29659 -16.68027,0.56607 c -32.04874,1.08764 -53.65226,8.75596 -80.08176,28.42559 -1.45362,1.08183 -3.00273,-1.90256 -13.75545,-26.5 z m 21.41365,16.73756 c 13.84184,-9.25799 30.15711,-16.04802 46.68323,-19.42844 10.02217,-2.05004 29.03774,-3.8634 33.31006,-3.17651 1.7875,0.28739 3.25,0.32339 3.25,0.08 0,-0.51055 -36.03623,-72.73275 -36.58571,-73.32343 -0.85051,-0.9143 -21.24647,6.36199 -28.96273,10.33249 -15.8453,8.15341 -33.54244,22.81846 -43.58045,36.1137 l -3.85462,5.10541 10.74176,24.65037 c 5.90796,13.5577 10.90292,24.65922 11.09991,24.67005 0.19698,0.0108 3.75133,-2.24981 7.89855,-5.02363 z m 21.72196,-49.52641 c -7.95588,-16.5788 -9.59609,-20.73967 -8.45382,-21.44563 0.77947,-0.48174 1.49142,-0.78786 1.58211,-0.68027 0.0907,0.1076 4.51249,9.31668 9.82623,20.46464 C 187.16634,233.0907 188.51733,237 186.11585,237 c -0.42137,0 -5.2081,-9.25638 -10.63718,-20.56973 z M 166.69553,230.25 c -0.8369,-2.0625 -3.81844,-8.61054 -6.62565,-14.55119 -5.9247,-12.53796 -6.06019,-12.98326 -4.06988,-13.37608 1.74253,-0.34392 15.41953,28.1416 14.57214,30.34986 -0.89216,2.32495 -2.30965,1.43913 -3.87661,-2.42259 z m 31.2334,-29.39186 C 191.57335,188.17117 190.29448,184 192.7603,184 c 0.85889,0 3.59562,5.23148 10.81296,20.66985 3.40512,7.28381 3.99115,9.28333 2.8492,9.72153 -1.04238,0.4 -3.37754,-3.32076 -8.49353,-13.53324 z M 59,268.5 c 0,-2.25 0.4,-2.5 4,-2.5 3.6,0 4,0.25 4,2.5 0,2.25 -0.4,2.5 -4,2.5 -3.6,0 -4,-0.25 -4,-2.5 z m 15,0 c 0,-1.08333 1.111111,-1.5 4,-1.5 2.888889,0 4,0.41667 4,1.5 0,1.08333 -1.111111,1.5 -4,1.5 -2.888889,0 -4,-0.41667 -4,-1.5 z m 15,0 c 0,-1.28455 2.944444,-1.5 20.5,-1.5 17.55556,0 20.5,0.21545 20.5,1.5 0,1.28455 -2.94444,1.5 -20.5,1.5 C 91.944444,270 89,269.78455 89,268.5 Z m -8,-26.88337 c 0,-0.76085 1.0125,-1.65471 2.25,-1.98634 4.12013,-1.10416 5.75,-0.7159 5.75,1.36971 0,1.66667 -0.666667,2 -4,2 -2.739005,0 -4,-0.43611 -4,-1.38337 z M 96,241 c 0,-1.66667 0.666667,-2 4,-2 3.33333,0 4,0.33333 4,2 0,1.66667 -0.66667,2 -4,2 -3.333333,0 -4,-0.33333 -4,-2 z M 9.6016574,186.25 C 5.2965847,162.79638 -1.0239547,111.69062 0.22589982,110.44077 c 0.20913913,-0.20914 5.30636858,0.47537 11.32717618,1.52114 33.876167,5.88402 69.575248,5.16458 96.446924,-1.94369 9.38145,-2.48164 10.40425,-2.5104 9.53744,-0.26822 C 114.36207,117.96375 111,146.17353 111,164.60306 v 9.31263 l -4.44375,2.60422 c -6.975534,4.08793 -22.092457,9.93 -33.344392,12.88623 -14.433447,3.79212 -29.223764,5.55161 -46.857968,5.57434 L 11.20778,195 Z m 39.4044706,4.28754 c 19.402233,-2.27112 36.284456,-7.12567 51.594642,-14.83626 l 7.10077,-3.57612 0.59139,-18.81258 c 0.51561,-16.40212 1.42593,-24.51907 4.26193,-38.00184 l 0.67084,-3.18925 -5.36285,1.43363 c -15.725745,4.2039 -22.884189,4.90262 -50.36285,4.91582 -25.534351,0.0123 -39.103674,-1.07451 -51.1421054,-4.09596 -2.2074965,-0.55405 -2.3576059,-0.3138 -2.3533684,3.76661 0.00915,8.81197 5.7314812,52.07058 9.0756498,68.60841 l 1.06162,5.25 h 11.185229 c 6.151877,0 16.807473,-0.65811 23.679103,-1.46246 z M 67.54644,173.26043 c -0.367146,-0.95677 -0.935829,-11.08177 -1.26374,-22.5 C 65.764357,132.71112 65.882325,130 67.186042,130 c 1.255141,0 1.609556,3.04539 2.174522,18.68504 0.371238,10.27677 0.949495,20.40177 1.285015,22.5 C 71.127703,174.20008 70.93673,175 69.734797,175 c -0.836451,0 -1.821211,-0.78281 -2.188357,-1.73957 z m 13.096016,-7.40712 C 79.080994,150.91404 80.245115,129 82.600184,129 c 1.054084,0 1.32424,4.352 1.334638,21.5 0.01046,17.24151 -0.250687,21.5 -1.318436,21.5 -0.89454,0 -1.5423,-2.01709 -1.97393,-6.14669 z M 93.6875,167.35417 C 92.82848,166.49515 92.779106,147.35447 93.625,143.125 93.96875,141.40625 94.881449,140 95.65322,140 c 1.14942,0 1.352898,2.47213 1.125,13.66804 -0.259164,12.73185 -0.95661,15.82024 -3.09072,13.68613 z m 392.45861,10.28919 c -17.9713,-27.31972 -45.24582,-54.1725 -75.6382,-74.46863 -6.05435,-4.043109 -11.14571,-7.486726 -11.31414,-7.65248 -0.16842,-0.165755 7.25658,-4.471055 16.5,-9.567335 9.24343,-5.096281 24.80031,-13.695978 34.57084,-19.11044 C 460.03515,61.430014 468.54061,57 469.16564,57 c 0.62502,0 5.23094,3.342831 10.23538,7.428513 18.82574,15.369555 34.14344,33.641844 46.44706,55.406117 l 4.14637,7.33464 -18.11896,29.16536 c -9.96542,16.04095 -18.43761,29.5163 -18.82707,29.94522 -0.38946,0.42891 -3.4955,-3.4575 -6.90231,-8.63649 z m 25.27536,-26.93241 14.77834,-23.78905 -5.64421,-9.45821 C 512.80852,104.48165 504.19271,93.224979 493.51593,82.13601 484.55471,72.828845 470.77753,61 468.89859,61 c -1.01293,0 -60.7265,32.643406 -62.25276,34.031491 -0.46979,0.427262 3.23889,3.529002 8.24151,6.892759 27.76305,18.66783 54.88807,45.45711 73.11101,72.20606 l 4.49835,6.603 2.07322,-3.11665 c 1.14027,-1.71417 8.72347,-13.82173 16.85155,-26.90571 z m -42.97288,-15.79413 c -0.37185,-0.60168 4.1463,-6.04708 10.16405,-12.25 5.95842,-6.14175 11.11218,-11.52339 11.4528,-11.9592 0.34063,-0.43581 1.10821,-0.20331 1.70574,0.51667 0.83615,1.00749 -1.45173,4.01202 -9.93145,13.04238 C 475.77989,130.72 470.43849,136 469.96994,136 c -0.46855,0 -1.15315,-0.48743 -1.52135,-1.08318 z m -11.98971,-11.98335 c -0.36253,-0.58659 -0.50159,-1.20085 -0.30902,-1.36501 0.19258,-0.16417 7.26645,-6.43423 15.71971,-13.93347 C 480.32283,100.13575 487.60877,94 488.06055,94 c 3.1402,0 0.0565,3.577942 -13.73023,15.93083 C 465.6941,117.66887 458.28834,124 457.87307,124 c -0.41527,0 -1.05165,-0.47994 -1.41419,-1.06653 z m -11.95123,-10.92109 c -0.34413,-0.55681 -0.3813,-1.40781 -0.0826,-1.8911 0.29869,-0.4833 7.9736,-6.58588 17.05536,-13.561281 C 476.12692,85.310478 480,83.084681 480,85.917071 c 0,0.667422 -29.7301,23.963779 -33.62107,26.345309 -0.68508,0.41931 -1.52715,0.30681 -1.87128,-0.25 z m -14.04877,-11.07891 c -0.36253,-0.58659 -0.50159,-1.162027 -0.30902,-1.278743 0.19258,-0.116716 5.65664,-3.70159 12.14237,-7.966387 C 452.85978,84.739468 456,83.414537 456,85.904709 456,86.834655 433.44905,102 432.06622,102 c -0.5215,0 -1.2448,-0.47994 -1.60734,-1.06653 z M 136,138.5 c 0,-1.11111 1.16667,-1.5 4.5,-1.5 3.33333,0 4.5,0.38889 4.5,1.5 0,1.11111 -1.16667,1.5 -4.5,1.5 -3.33333,0 -4.5,-0.38889 -4.5,-1.5 z m 16,0 c 0,-1.25333 2.05556,-1.5 12.5,-1.5 10.44444,0 12.5,0.24667 12.5,1.5 0,1.25333 -2.05556,1.5 -12.5,1.5 -10.44444,0 -12.5,-0.24667 -12.5,-1.5 z m 245,-18 c 0,-1.11111 1.16667,-1.5 4.5,-1.5 3.33333,0 4.5,0.38889 4.5,1.5 0,1.11111 -1.16667,1.5 -4.5,1.5 -3.33333,0 -4.5,-0.38889 -4.5,-1.5 z M 61,87.5 c 0,-1.083333 1.111111,-1.5 4,-1.5 2.888889,0 4,0.416667 4,1.5 0,1.083333 -1.111111,1.5 -4,1.5 -2.888889,0 -4,-0.416667 -4,-1.5 z m 15,0 c 0,-1.083333 1.111111,-1.5 4,-1.5 2.888889,0 4,0.416667 4,1.5 0,1.083333 -1.111111,1.5 -4,1.5 -2.888889,0 -4,-0.416667 -4,-1.5 z m 15,0 c 0,-1.285714 3,-1.5 21,-1.5 18,0 21,0.214286 21,1.5 0,1.285714 -3,1.5 -21,1.5 -18,0 -21,-0.214286 -21,-1.5 z"
         id="path5" />
    </g>
  </g>
</svg>
