<?xml version="1.0" encoding="UTF-8" standalone="no"?>
<!-- Created with Inkscape (http://www.inkscape.org/) -->

<svg
   version="1.1"
   id="svg1"
   width="542"
   height="450"
   viewBox="0 0 542 450"
   sodipodi:docname="HR_02.svg"
   inkscape:version="1.3.2 (091e20e, 2023-11-25, custom)"
   xmlns:inkscape="http://www.inkscape.org/namespaces/inkscape"
   xmlns:sodipodi="http://sodipodi.sourceforge.net/DTD/sodipodi-0.dtd"
   xmlns="http://www.w3.org/2000/svg"
   xmlns:svg="http://www.w3.org/2000/svg">
  <defs
     id="defs1" />
  <sodipodi:namedview
     id="namedview1"
     pagecolor="#ffffff"
     bordercolor="#000000"
     borderopacity="0.25"
     inkscape:showpageshadow="2"
     inkscape:pageopacity="0.0"
     inkscape:pagecheckerboard="0"
     inkscape:deskcolor="#d1d1d1"
     showgrid="false"
     inkscape:zoom="1.7488889"
     inkscape:cx="270.74333"
     inkscape:cy="225"
     inkscape:window-width="1920"
     inkscape:window-height="1001"
     inkscape:window-x="-9"
     inkscape:window-y="-9"
     inkscape:window-maximized="1"
     inkscape:current-layer="g1" />
  <g
     inkscape:groupmode="layer"
     inkscape:label="Image"
     id="g1">
    <g
       id="g2"
       transform="translate(-0.00964027,0.04626116)">
      <path
         style="fill:#fefefe"
         d="M 0,225 V 0 H 271 542 V 225 450 H 271 0 Z"
         id="path5" />
      <path
         style="fill:#cdc9c7"
         d="m 110.87244,448.33444 c -1.09324,-1.32673 -1.30315,-6.00573 -1.03185,-23 L 110.18117,404 h -3.07673 -3.07673 L 103.76385,371.75 103.5,339.5 77.744462,390 c -30.409564,59.62535 -29.379526,57.79351 -31.374989,55.79804 -1.315651,-1.31565 1.91474,-8.15854 28.071894,-59.46429 L 104,328.35619 V 320.17809 312 H 77.467881 c -28.062513,0 -30.890188,-0.39143 -34.837084,-4.82244 -1.777786,-1.99585 -9.511429,-26.45563 -9.699568,-30.67756 -0.04902,-1.1 -0.265941,-1.55 -0.482052,-1 -0.216111,0.55 -6.682259,38.46773 -14.36922,84.26162 -7.68696,45.7939 -14.2511733,83.7064 -14.5871409,84.25 C 2.2037116,446.09744 6.496108e-5,444.98272 0.01033627,442.25 0.01602121,440.7375 6.6995256,399.80294 14.862568,351.28431 l 14.841896,-88.21569 -1.396957,-7.28431 c -3.063168,-15.97261 -3.43186,-34.50552 -0.815465,-40.99062 0.608589,-1.50848 -0.220625,-1.74036 -7.151818,-2 L 12.5,212.5 v -7.43298 -7.43298 L 27.931183,188.31702 43.362366,179 h 17.318817 c 13.146648,0 17.33767,-0.30113 17.397078,-1.25 0.04304,-0.6875 0.450938,-8.225 0.906432,-16.75 0.455494,-8.525 1.111227,-16.4 1.457184,-17.5 0.472452,-1.5022 -0.128421,-2.4978 -2.414133,-4 -4.261997,-2.80105 -10.527635,-11.56396 -13.090637,-18.30812 -2.774515,-7.30073 -3.048172,-19.34379 -0.622683,-27.40294 0.945343,-3.141083 3.686382,-8.585 6.091197,-12.097593 l 4.372391,-6.386532 -1.918989,-5.402407 C 68.998341,59.033678 71.228805,56.151551 85.983821,52.942996 100.67415,49.748509 104.43579,45.897079 105.93665,32.513931 c 0.9705,-8.653898 3.18191,-12.364807 9.91189,-16.632832 8.26166,-5.239388 16.994,-3.557153 39.77262,7.661966 13.08118,6.442854 13.13212,6.457967 16.71788,4.95974 8.51603,-3.558223 10.19266,-1.271089 9.33908,12.739702 l -0.60031,9.853727 4.46109,2.694601 c 4.88935,2.953276 5.20453,3.702757 2.92544,6.956607 -1.39883,1.99711 -1.36171,2.533396 0.41652,6.019019 3.03556,5.950204 3.55808,10.484042 1.63651,14.199945 -2.28065,4.410294 -10.6704,8.168484 -19.67325,8.812635 C 167.07985,90.048373 164,90.558142 164,90.911861 c 0,0.35372 0.74204,1.702536 1.64898,2.997371 0.90693,1.294834 2.43051,4.882462 3.38573,7.972508 1.70623,5.51952 1.82224,5.63814 6.60102,6.74957 6.80589,1.58287 9.50827,2.77753 13.07854,5.78172 1.70585,1.43538 9.54348,13.40464 17.41696,26.59837 7.87348,13.19373 14.77742,23.98732 15.34209,23.98576 0.56467,-0.002 4.69008,-5.26817 9.16758,-11.70358 l 8.1409,-11.70075 -1.45831,-4.54641 c -0.80207,-2.50053 -1.70423,-6.39445 -2.0048,-8.65316 -0.47436,-3.56463 -0.14628,-4.55467 2.48538,-7.5 L 240.83594,117.5 h 44.50147 44.50146 l 2.55385,2.39922 c 1.93043,1.81354 4.68708,8.81423 11.2925,28.67804 4.80625,14.45335 9.03543,26.09539 9.39817,25.8712 0.36274,-0.22418 9.14681,-15.37009 19.52015,-33.65757 10.37335,-18.28748 20.10412,-34.66622 21.62394,-36.3972 1.51982,-1.73098 4.11539,-3.70728 5.76792,-4.39178 2.68162,-1.110767 3.0046,-1.707438 3.0046,-5.55065 0,-3.402106 0.52483,-4.718933 2.5,-6.2726 3.47544,-2.733785 3.26288,-4.581237 -0.44185,-3.840291 -8.53548,1.707097 -18.84476,-5.80661 -22.92314,-16.707071 -2.54988,-6.81516 -2.90176,-19.765707 -0.73288,-26.972367 C 382.1733,38.096519 382.59779,36 382.34543,36 c -0.25236,0 0.24168,-1.000128 1.09787,-2.222506 2.4069,-3.436338 1.9337,-4.775718 -1.6933,-4.792807 -1.7875,-0.0084 -3.87337,-0.410097 -4.63526,-0.892612 -3.37561,-2.137809 4.67374,-14.636659 13.21418,-20.5186865 14.9841,-10.3199483 37.0925,-10.2102464 53.29892,0.2644694 6.9721,4.5062851 11.36937,9.4849611 15.15797,17.1621421 2.34562,4.753128 2.7135,6.722155 2.70914,14.5 -0.004,7.119815 -0.45927,9.985473 -2.17928,13.717228 -2.63247,5.711465 -10.22724,14.043069 -15.5051,17.009395 l -3.86477,2.172121 0.68206,6.028598 c 0.81589,7.211539 3.19105,9.645134 9.82083,10.062439 8.82388,0.555411 10.47075,2.24819 38.32332,39.391809 14.27746,19.04013 26.70208,36.07315 27.61027,37.85118 3.93644,7.70661 3.00081,16.50925 -2.65143,24.94519 L 510.5,195.5 l 2.40958,2.37591 c 1.39873,1.37919 4.87291,2.95058 8.28148,3.74574 10.6608,2.487 16.26972,6.45023 19.26121,13.60988 1.79205,4.28896 2.12783,22.65579 0.58627,32.06819 -0.52243,3.18984 -2.3419,15.96739 -4.04327,28.39454 -1.70137,12.42716 -3.70615,23.76728 -4.45506,25.20028 C 529.50822,306.69608 521.34729,312 515.45266,312 c -2.3169,0 -2.54893,0.31029 -2.05642,2.75 2.92048,14.46683 21.46489,128.66569 21.0125,129.39767 -0.32737,0.52968 -1.3188,0.82372 -2.20318,0.6534 -1.31895,-0.25401 -3.60473,-12.17171 -12.71716,-66.30537 L 508.37921,312.5 482.18961,312.2334 C 467.78532,312.08676 456,312.13742 456,312.34597 c 0,0.20854 15.10817,29.97927 33.57371,66.15718 29.86134,58.50469 33.40765,65.94406 32.0719,67.27982 -1.33576,1.33575 -1.72068,1.14192 -3.48116,-1.75296 -1.08864,-1.79012 -16.75,-32.22919 -34.80303,-67.64239 L 450.53773,312 H 446.26886 442 v 14.50686 c 0,14.05978 0.18755,15.35842 6.08574,42.138 4.63255,21.03323 5.79107,27.81324 4.85169,28.39381 -1.41225,0.87282 1.06437,11.48358 8.43398,36.13426 l 4.38665,14.67294 -13.12903,0.32706 c -7.22097,0.17989 -27.20857,0.10207 -44.4169,-0.17293 -34.27687,-0.54777 -33.81304,-0.45565 -32.72772,-6.5 0.29628,-1.65 1.35594,-4.125 2.35481,-5.5 0.99887,-1.375 12.35617,-8.40648 25.23845,-15.62552 C 428.17736,406.309 427.09141,407.31192 424.8681,400.25 L 423.8449,397 h -11.38391 -11.3839 l -0.98538,-3.75 c -0.54196,-2.0625 -1.51465,-5.89515 -2.16154,-8.517 -0.64689,-2.62185 -1.49034,-4.96117 -1.87434,-5.19849 -0.384,-0.23733 -7.77783,13.4751 -16.43074,30.47206 -14.1911,27.87564 -15.66722,31.25193 -15.06557,34.45898 l 0.667,3.55542 -44.25451,-0.26049 c -49.17795,-0.28946 -46.91092,0.0579 -45.58964,-6.98516 0.36641,-1.95314 1.74445,-4.6141 3.06231,-5.91324 1.31785,-1.29915 12.55692,-7.98523 24.97571,-14.85797 C 318.28961,411.77527 326,406.9602 326,405.90334 c 0,-0.88269 -0.45381,-2.90954 -1.00847,-4.50412 l -1.00847,-2.89922 -11.43693,0.30962 -11.43693,0.30962 -1.12733,-4.30962 C 299.36183,392.43933 297.34748,385.1 295.50552,378.5 c -3.36542,-12.05875 -6.51637,-23.39496 -21.42736,-77.08946 -8.63097,-31.08015 -9.6077,-37.81407 -6.54722,-45.13883 3.29724,-7.89142 11.21961,-15.31964 18.40119,-17.25344 3.65649,-0.98458 73.37669,-5.01313 86.81787,-5.01647 3.9875,-9.9e-4 7.25062,-0.1143 7.25137,-0.2518 7.5e-4,-0.1375 0.67513,-4.075 1.49863,-8.75 0.8235,-4.675 1.49788,-9.2926 1.49863,-10.26133 0.001,-1.67041 -5.15545,-1.7584 -99.89586,-1.70456 l -99.89724,0.0568 -0.56788,3.20455 c -0.31234,1.76251 -0.85843,5.50577 -1.21353,8.31835 -0.60825,4.81763 -0.50541,5.14899 1.77578,5.72153 4.12152,1.03444 10.64816,6.44653 12.7555,10.57726 1.10535,2.16667 2.30432,6.44585 2.66436,9.50929 l 0.65464,5.5699 10.55747,5.66297 c 15.581,8.35754 22.61298,15.76179 25.14393,26.47499 0.56785,2.40365 1.94141,24.17027 3.05235,48.37027 1.78834,38.95593 3.89235,70.63097 5.52294,83.14561 0.43719,3.35544 1.24622,4.63788 4.24453,6.72825 2.03741,1.42045 6.35226,5.55365 9.58855,9.18488 l 5.88417,6.60225 -1.17431,3.91951 -1.17431,3.9195 h -19.25986 c -13.64656,0 -19.6096,-0.34974 -20.45986,-1.2 -0.69603,-0.69603 -1.2,-4.03164 -1.2,-7.94236 0,-14.46796 -5.87378,-36.18421 -22.74567,-84.09409 L 181.5,312.0271 165.875,312.01355 150.25,312 l -0.625,3.125 c -0.34375,1.71875 -0.625,4.13031 -0.625,5.35903 0,1.22872 13.94865,29.59049 30.99699,63.02616 24.17751,47.41757 30.74846,61.0916 29.86732,62.1533 -0.82858,0.99838 -1.47939,1.07093 -2.44181,0.27219 -0.72168,-0.59894 -14.27448,-26.55225 -30.11733,-57.67402 -15.84284,-31.12176 -28.92283,-55.94977 -29.06663,-55.17334 -0.14381,0.77642 -1.58415,16.89643 -3.20075,35.82222 -1.83177,21.44473 -3.36445,34.67332 -4.06765,35.10792 -1.65445,1.0225 -3.92828,18.86976 -3.9507,31.00903 C 136.99197,449.90116 136.89986,450 123.06574,450 c -8.88059,0 -11.06694,-0.29865 -12.1933,-1.66556 z m 267.63757,-46.05492 15.78695,-31.22049 -10.73709,-41.77951 c -5.9054,-22.97874 -10.941,-41.98581 -11.19023,-42.23794 -1.42294,-1.4395 -42.92618,-2.56813 -43.77762,-1.19047 -0.28931,0.46812 2.85478,12.05562 6.98688,25.75 4.13209,13.69439 9.78172,32.54889 12.55474,41.89889 2.77302,9.35 6.80236,22.77108 8.95411,29.82463 2.15174,7.05354 3.91225,13.51136 3.91225,14.35069 0,1.19886 -0.9815,1.44801 -4.57768,1.16199 l -4.57767,-0.36408 0.58868,3.01339 c 1.48788,7.61623 9.08635,33.38417 9.65375,32.73782 0.34979,-0.39844 7.7401,-14.77366 16.42293,-31.94492 z m -144.3875,22.87375 5.12881,0.34673 -0.62566,-7.40088 C 238.28155,414.02864 238,409.41614 238,407.84912 V 405 h -9.91939 -9.9194 l 0.84583,3.25 c 0.4652,1.7875 1.59102,6.70116 2.50181,10.91925 l 1.65598,7.66925 2.91443,-1.01598 c 1.60294,-0.55878 5.2224,-0.85995 8.04325,-0.66925 z M 122.08179,425 H 126 V 414.5 404 h -5.5 -5.5 v 11.10699 c 0,9.71728 0.19791,11.03104 1.58179,10.5 0.86998,-0.33385 3.34498,-0.60699 5.5,-0.60699 z m 11.33354,-5.75 c 0.38034,-3.7125 0.95365,-8.6625 1.27402,-11 0.55816,-4.07243 0.47237,-4.25 -2.05343,-4.25 H 130 v 11 c 0,8.61539 0.29524,11 1.36191,11 0.94639,0 1.57288,-2.05937 2.05342,-6.75 z m 215.27199,0.70916 2.98576,-1.04085 -2.16057,-9.70915 -2.16057,-9.70916 -9.17819,-0.5 c -5.048,-0.275 -9.17719,-0.49096 -9.17597,-0.4799 0.001,0.0111 0.86358,3.16105 1.91636,7 1.05278,3.83894 2.42013,8.8924 3.03855,11.2299 l 1.1244,4.25 h 5.31223 c 2.92173,0 6.65583,-0.46838 8.298,-1.04084 z m 100.77999,-0.12622 c 1.61375,-0.73527 2.38997,-1.75271 2.098,-2.75 -0.25487,-0.87062 -1.41652,-5.71428 -2.58142,-10.7637 l -2.11801,-9.18075 -8.93524,-0.31925 c -4.91438,-0.17558 -8.9342,-0.14906 -8.93294,0.0589 10e-4,0.20799 1.42276,5.72049 3.15888,12.25 L 435.31317,421 h 5.79636 c 3.188,0 6.949,-0.52518 8.35778,-1.16706 z M 437.56258,312.22925 c -1.24467,-1.24467 -1.58742,0.73597 -0.84575,4.88725 L 437.5,321.5 l 0.31258,-4.35408 c 0.17192,-2.39475 0.0594,-4.60725 -0.25,-4.91667 z m 63.57503,-43.08088 c -3.26934,-19.40859 -6.19218,-35.53628 -6.4952,-35.8393 -0.30302,-0.30302 -3.08061,-0.23488 -6.17243,0.15141 -4.70435,0.58777 -5.5136,0.97458 -4.96028,2.37094 1.54997,3.9115 4.4903,16.73622 4.4903,19.58514 0,7.27018 -5.83082,18.03071 -11.96638,22.08344 -1.66533,1.1 -3.02916,2.7489 -3.03074,3.66422 -0.003,1.84604 6.00563,18.01776 8.45383,22.75206 l 1.56191,3.02041 11.74069,0.28166 c 9.89949,0.23748 11.78632,0.0414 12.03163,-1.24999 0.16001,-0.84241 -2.38398,-17.4114 -5.65333,-36.81999 z M 137.07505,302.75 c 4.59937,-16.9662 6.93591,-41.87458 5.00126,-53.31548 -3.63996,-21.52557 -25.94788,-38.40569 -58.175144,-44.02039 -17.674066,-3.07921 -39.216724,-0.598 -47.785955,5.50383 -9.134776,6.50454 -7.699288,33.4977 4.019428,75.58204 3.405945,12.23145 5.209354,15.76925 9.470386,18.57832 2.731825,1.80095 5.245678,1.90887 44.606431,1.91509 L 135.92291,307 Z m 60.60162,2 c 1.11392,-1.2375 2.31289,-3.06265 2.66438,-4.0559 0.99091,-2.80011 -1.90184,-8.57661 -4.85778,-9.70046 C 194.0134,290.43479 182.27741,290 168.66295,290 h -24.20684 l -1.22041,6.25 c -0.67123,3.4375 -1.50134,7.2625 -1.84469,8.5 l -0.62427,2.25 h 27.44231 c 27.19195,0 27.4608,-0.0205 29.46762,-2.25 z M 474.1862,298.5 470.56218,290 h -19.8895 -19.8895 l 0.54092,2.25 c 0.2975,1.2375 1.11132,5.0625 1.80848,8.5 l 1.26757,6.25 h 21.70504 21.70504 z m 48.50947,6.544 c 5.7197,-3.48752 6.25432,-5.2756 10.39386,-34.76313 2.14497,-15.27948 3.90232,-28.06591 3.90521,-28.41429 0.003,-0.34839 -1.00724,-0.86708 -2.24474,-1.15267 -1.2375,-0.28558 -6.60283,-1.66461 -11.92295,-3.0645 C 511.09942,234.56349 500,232.93974 500,234.31 c 0,0.53254 2.7,16.85492 6,36.27195 3.3,19.41703 6,35.55442 6,35.86087 0,1.37891 7.81667,0.35662 10.69567,-1.39882 z M 188.89721,282.75 c 5.44427,-16.81433 6.5656,-32.44296 2.85279,-39.76107 -5.68748,-11.21028 -23.31821,-12.78292 -42.45613,-3.78703 -3.68019,1.72989 -4.24175,2.37247 -3.64551,4.17149 1.92364,5.8042 1.82951,34.39488 -0.1336,40.58009 -0.6407,2.01869 -0.35728,2.04652 20.8403,2.04652 h 21.48984 z m 279.83123,2 c -0.47658,-1.35939 -5.18124,-1.18119 -7.69573,0.2915 -1.05831,0.61984 -0.0367,0.90709 3.30062,0.92809 3.44332,0.0217 4.70731,-0.32908 4.39511,-1.21959 z m 69.05996,-57.00546 c -0.72672,-13.89341 -3.4386,-17.54192 -15.7199,-21.14919 -7.54252,-2.2154 -7.90426,-2.12102 -8.25813,2.15465 l -0.31037,3.75 -8.61399,0.28695 -8.61399,0.28695 0.84005,4.71305 c 0.46203,2.59218 1.0866,6.12428 1.38793,7.84912 0.53283,3.04993 0.72908,3.15547 7.14533,3.84259 6.73527,0.72129 23.84609,4.57711 28.35467,6.38957 1.375,0.55275 2.89882,1.03352 3.38626,1.06838 0.48801,0.0349 0.66871,-4.09558 0.40214,-9.19207 z m -43.95266,0.71649 c 0.18465,-0.16454 -0.21802,-3.73185 -0.89482,-7.92734 l -1.23056,-7.62816 -5.10518,0.29723 L 481.5,213.5 l -0.72409,7 c -0.39825,3.85 -0.55577,7.48197 -0.35005,8.07105 0.32475,0.92993 12.35358,0.83124 13.40988,-0.11002 z M 34.602214,206.4952 c 7.050992,-4.78493 25.374106,-8.28608 37.085443,-7.08622 L 78,200.0557 V 192.02785 184 H 60.897675 43.79535 L 30.397675,192.06157 17,200.12314 V 204.56157 209 h 6.955591 c 5.773798,0 7.582717,-0.42558 10.646623,-2.5048 z m 178.392846,1.59548 c -0.003,-0.32488 -4.09069,-3.51568 -9.08437,-7.09068 -4.99368,-3.575 -10.7964,-7.73094 -12.89494,-9.23543 l -3.81551,-2.73543 -1.1374,6.73543 c -0.62557,3.70449 -1.40122,8.22729 -1.72365,10.05068 l -0.58626,3.31526 14.62354,-0.22458 c 8.04294,-0.12352 14.62131,-0.49038 14.61859,-0.81525 z M 509,204.62244 c 0,-5.79859 -1.60811,-7.10196 -6.32885,-5.1295 -1.9838,0.82888 -5.49404,1.50706 -7.80053,1.50706 -2.30648,0 -19.27421,-3.16173 -37.70605,-7.02607 -22.90923,-4.80305 -33.83708,-6.70142 -34.5385,-6 -0.68214,0.68214 -0.68704,1.02607 -0.0146,1.02607 2.19619,0 5.38856,4.17345 5.38856,7.04457 v 2.96666 l -85.16672,-0.25561 -85.16672,-0.25562 -2.43534,-7.30618 c -2.07089,-6.2128 -2.7454,-7.26035 -4.50728,-7 -1.68095,0.2484 -2.70052,2.27911 -5.40294,10.76118 -1.83206,5.75026 -3.77876,10.90276 -4.326,11.45 -0.54725,0.54725 -0.995,1.355 -0.995,1.795 0,0.44 60.525,0.8 134.5,0.8 H 509 Z m -9.40423,-9.09504 c 8.64833,-2.56828 14.44563,-10.74021 14.36231,-20.24528 -0.0539,-6.15272 -1.003,-7.79688 -15.95808,-27.64535 l -12.5,-16.59008 -5,0.56256 c -11.81021,1.3288 -20.56209,4.57169 -27.50021,10.18983 l -2.42533,1.96392 7.31945,8.11931 c 8.02275,8.89947 8.78808,11.79927 2.84553,10.78149 -1.78169,-0.30515 -15.57156,-2.2047 -30.64416,-4.22124 -23.74846,-3.17726 -27.9511,-3.50348 -31.5,-2.44513 -3.05207,0.91019 -6.83367,3.91715 -14.84528,11.80432 -5.9125,5.82066 -10.75,10.93062 -10.75,11.35545 0,0.42484 0.81288,1.20747 1.80639,1.73918 1.48819,0.79646 3.5321,-0.60655 11.60313,-7.96481 C 391.79773,168.01921 396.83485,164 397.60313,164 c 3.63164,0 0.62711,4.34958 -9.03318,13.07707 -8.88562,8.02763 -10.14278,9.52976 -8.49003,10.14439 2.96842,1.10391 5.75415,-0.42225 13.90136,-7.61585 7.57399,-6.68748 9.30575,-7.56824 10.63902,-5.41096 0.46347,0.74991 -1.84129,3.53873 -6.19098,7.49126 -6.8351,6.21099 -6.88734,6.29672 -3.84211,6.30535 2.01386,0.006 5.0293,-1.38196 8.67314,-3.99126 3.07227,-2.2 6.49055,-4 7.59619,-4 1.54261,0 69.52235,13.9098 79.64346,16.29639 3.38944,0.79924 3.98433,0.74895 9.09577,-0.76899 z M 373,187.39436 c 0,-0.88311 -1.125,-2.94263 -2.5,-4.57673 -1.375,-1.63409 -2.5,-3.51205 -2.5,-4.17324 0,-0.66119 2.89641,-4.07283 6.43646,-7.58142 l 6.43647,-6.37925 -2.93647,-2.74307 c -3.12353,-2.91782 -3.94595,-7.53116 -1.73646,-9.74065 0.7113,-0.7113 4.1347,-1.2 8.40616,-1.2 h 7.20616 l 0.66618,-5.25 c 0.36639,-2.8875 0.88894,-6.0375 1.16122,-7 0.43751,-1.54658 -0.2974,-1.7453 -6.32233,-1.70957 l -6.81739,0.0404 -12.76758,22.6413 c -12.25413,21.7308 -12.72353,22.77474 -11.67245,25.95958 L 357.1551,189 h 7.92245 C 371.68473,189 373,188.73343 373,187.39436 Z M 295.0677,161.87351 C 296.86857,158.50854 294.79224,155 291,155 c -2.23207,0 -3.33104,0.63245 -4.12432,2.37351 C 285.28957,160.85464 287.24723,164 291,164 c 1.96427,0 3.30465,-0.70072 4.0677,-2.12649 z M 388,157.5 390.34863,155 h -5.67432 c -5.88192,0 -6.78053,0.75092 -4.10288,3.42857 2.25265,2.25265 4.731,1.94286 7.42857,-0.92857 z m -117,-8.61715 c 4.12363,-1.82708 4.92993,-2.82557 9.64048,-11.93835 2.82726,-5.46947 4.94007,-9.9445 4.69513,-9.9445 -0.24494,0 -3.02866,1.75429 -6.18603,3.89842 -4.95714,3.36633 -6.62165,3.94277 -12.19513,4.22328 -3.54995,0.17867 -7.01695,-0.0272 -7.70445,-0.45744 -1.8425,-1.1531 -1.51938,-5.40798 0.5,-6.58416 1.60459,-0.93459 1.58381,-1.01563 -0.25,-0.97538 -1.22596,0.0269 -4.80589,3.25652 -9.25,8.34483 -3.9875,4.56551 -7.25,8.53329 -7.25,8.81728 0,0.284 1.02497,0.7736 2.27771,1.08802 1.25274,0.31442 3.53482,1.88381 5.07129,3.48754 2.65014,2.76615 3.13647,2.89323 9.47229,2.47508 3.67329,-0.24242 8.70371,-1.338 11.17871,-2.43462 z m 172.45625,-14.06998 c -2.72594,-2.84604 -5.54768,-5.8293 -6.27054,-6.62946 -0.93814,-1.03847 -1.62225,-1.14687 -2.39037,-0.37875 -0.76811,0.76811 0.73245,2.95948 5.24312,7.65688 4.32523,4.50427 6.6434,6.2566 7.34662,5.55338 0.70323,-0.70323 -0.53649,-2.66024 -3.92883,-6.20205 z M 178.11945,83.967091 c 5.24815,-1.4121 8.8807,-4.598719 8.87976,-7.789671 -4.3e-4,-1.472581 -1.3065,-5.437426 -2.90237,-8.810766 -2.59534,-5.486018 -2.74125,-6.293668 -1.38254,-7.652379 1.35871,-1.358711 1.26925,-1.648068 -0.84764,-2.741617 -1.30166,-0.672422 -3.4071,-2.171039 -4.67875,-3.330262 -2.23618,-2.038482 -2.41144,-2.050653 -5.33853,-0.370737 -1.66454,0.955318 -3.43661,1.483449 -3.93791,1.173625 -1.81901,-1.124211 -0.84504,-3.576103 2.08221,-5.241794 3.53954,-2.014101 3.51879,-1.906136 1.07797,-5.60863 l -1.91517,-2.905139 -1.62597,3.891492 c -2.2111,5.291928 -4.81435,7.846155 -12.21459,11.984605 -3.45964,1.934742 -6.78722,4.446302 -7.39463,5.581244 -1.93886,3.622797 -0.0863,8.514251 6.23941,16.474505 l 6.07424,7.643796 7.13253,-0.662199 c 3.92289,-0.36421 8.76128,-1.100442 10.75198,-1.636073 z M 172.1138,80.25 c -1.15928,-0.9625 -2.389,-3.20557 -2.73271,-4.9846 -0.78162,-4.045629 0.78707,-4.816427 7.35874,-3.615816 5.86716,1.071902 6.56479,3.199638 2.411,7.353434 -3.48264,3.482638 -4.19276,3.608473 -7.03703,1.246982 z m 0.40334,-18.87572 C 170.4,59.257144 170.91885,54.627382 173.3244,54.170898 175.35997,53.784623 179,56.614671 179,58.583559 179,60.022902 176.30362,63 175,63 c -0.47143,0 -1.58872,-0.731574 -2.48286,-1.62572 z m 264.14974,23.289303 c 0.0918,-0.09021 -0.69021,-7.813921 -1.73777,-17.163801 -2.49397,-22.259552 -2.65042,-20.496837 1.82089,-20.515095 4.31244,-0.01761 5.5019,-0.63224 7.1003,-3.668946 C 446.64506,38.006117 443.42819,30 438.5,30 c -2.07753,0 -5.75744,3.318146 -6.68339,6.026369 -0.18255,0.5339 -5.60679,0.100762 -12.81009,-1.022913 -13.31944,-2.077761 -13.9395,-2.410675 -16.21608,-8.70645 -0.65572,-1.813354 -1.43932,-3.29579 -1.74133,-3.294304 -0.30201,0.0015 -1.44998,1.688986 -2.55105,3.75 -2.23662,4.186568 -5.04372,5.041082 -4.91866,1.497298 0.0437,-1.2375 -0.0573,-2.25 -0.22432,-2.25 -0.71372,0 -3.45261,6.235806 -2.9567,6.731713 0.30022,0.300219 -0.5666,1.867926 -1.92626,3.483795 C 385.78141,39.413235 385.46446,40.550984 387,41.5 c 1.93357,1.195012 1.12382,5.654859 -1.13392,6.245271 -2.01222,0.526208 -2.09803,0.982524 -1.50471,8.001514 2.06482,24.426731 20.07887,32.147312 35.05706,15.024985 3.00814,-3.438749 4.92141,-4.855337 5.99916,-4.441768 0.87032,0.333975 1.58241,1.094009 1.58241,1.688963 0,1.369164 -12.0119,13.585868 -13.92991,14.167419 -0.92866,0.281574 -1.18445,1.073207 -0.7297,2.258272 0.64524,1.681476 1.62099,1.768126 12.42991,1.103832 6.45133,-0.396487 11.8048,-0.794694 11.89658,-0.884905 z M 392,71 c 0,-1.321395 0.66667,-2 1.96482,-2 1.08065,0 2.44648,-0.9 3.03518,-2 1.36464,-2.549861 5,-2.6766 5,-0.174314 C 402,69.465943 397.81335,73 394.68555,73 392.66667,73 392,72.503516 392,71 Z M 390.10957,60.204738 C 388.69648,57.564354 390.93488,48.5 393,48.5 c 2.29092,0 2.06184,12.864409 -0.23697,13.307119 -0.89545,0.172448 -2.0895,-0.548624 -2.65346,-1.602381 z M 399.4124,48.63232 c -1.00596,-2.621496 0.022,-5.13232 2.1013,-5.13232 1.53831,0 1.9863,0.67353 1.9863,2.986305 0,3.271738 -3.04264,4.869142 -4.0876,2.146015 z m 5.81011,-11.189024 c -3.29142,-2.305395 -2.95577,-4.840396 0.52749,-3.983981 3.40476,0.837112 7.25,3.257621 7.25,4.563738 0,1.537245 -5.32138,1.140574 -7.77749,-0.579757 z"
         id="path4" />
      <path
         style="fill:#62deab"
         d="m 112,449.01317 c -1.25983,-0.80311 -1.5,-4.52325 -1.5,-23.23469 V 403.5 l -3.23623,-0.31233 -3.23623,-0.31233 -0.26377,-32.18767 L 103.5,338.5 76.174415,392.25 C 51.107718,441.55672 46,450.38394 46,444.39778 46,443.51657 59.05,417.24526 75,386.0171 l 29,-56.77847 v -8.52464 -8.52464 l -27.25,-0.36449 c -29.391564,-0.39314 -32.095148,-0.86422 -34.88581,-6.07862 -1.350672,-2.52376 -8.815718,-28.01722 -8.954378,-30.5796 -0.21694,-4.00895 -2.54971,9.02197 -15.455232,86.33336 -7.5285033,45.1 -14.0856259,82.4275 -14.5713838,82.95 -3.65243044,3.9287 -2.61981921,-3.8953 12.0587238,-91.36775 l 15.125243,-90.13442 -1.61095,-8.22391 C 26.043228,242.4056 25.416678,222.5417 27.274205,217.25 L 28.766068,213 h -7.183034 c -4.253471,0 -7.672448,-0.48941 -8.383034,-1.2 -1.298849,-1.29885 -1.635684,-11.6381 -0.434687,-13.34286 0.404078,-0.57357 7.179079,-4.96107 15.055559,-9.75 L 42.141744,180 h 18.313735 18.313736 l 0.411348,-16.75 c 0.238657,-9.71805 0.883119,-17.60401 1.535099,-18.78423 0.990394,-1.79282 0.485575,-2.59688 -4.253939,-6.77551 -3.84665,-3.39143 -6.457283,-6.9257 -9.169706,-12.41391 C 63.594227,117.79438 63.5,117.3291 63.5,106.55186 63.5,96.545161 63.764631,94.932588 66.29829,89.5 c 1.53906,-3.3 4.208106,-7.762587 5.931215,-9.91686 L 75.36243,75.666281 73.080346,69.303105 C 69.297214,58.754534 71.351729,56.17566 85.730305,53.424585 96.009205,51.457906 100.93623,48.61799 103.75,43.03811 104.9875,40.584071 106,36.7561 106,34.531508 c 0,-2.224591 0.44248,-5.587563 0.9833,-7.47327 C 108.87958,20.446282 118.45575,13 125.06266,13 c 4.96842,0 20.19878,5.53648 32.44652,11.794832 l 11.23633,5.741544 3.87725,-1.761592 c 6.01279,-2.731861 7.75719,-2.074079 8.5531,3.225216 0.6268,4.173317 0.3026,11.532962 -0.73415,16.665545 -0.34834,1.724536 0.58038,2.791806 4.56043,5.240757 2.74883,1.691366 4.99786,3.459626 4.99786,3.929467 0,0.469841 -0.88097,1.65152 -1.9577,2.625954 -1.93913,1.754887 -1.93439,1.817717 0.5,6.621744 6.54154,12.909123 -0.001,20.829923 -18.63613,22.561871 l -6.66028,0.619008 2.83623,5.39177 c 1.55993,2.965474 3.13643,6.991924 3.50333,8.947664 0.73151,3.89929 0.84157,3.97012 7.56251,4.86754 6.28436,0.83912 13.2523,5.62886 16.56549,11.38707 9.57738,16.64516 25.7088,42.8378 27.00614,43.84999 1.31991,1.02978 2.80397,-0.58226 10.04134,-10.9073 l 8.49253,-12.11568 -2.2792,-7.26749 c -1.99029,-6.34626 -2.11565,-7.66236 -0.98892,-10.38253 C 238.55543,117.83065 237.15852,118 285.76796,118 h 44.32295 l 2.31754,2.31754 c 1.58543,1.58543 5.11765,10.73802 11.18145,28.97309 4.87516,14.66055 9.18089,26.33016 9.5683,25.93246 0.38741,-0.3977 8.87235,-15.12309 18.85543,-32.72309 22.66852,-39.96424 22.09337,-39.09214 27.52049,-41.72884 4.3508,-2.113784 4.46256,-2.286035 4.29842,-6.625445 -0.13203,-3.490661 0.30086,-4.835319 1.99947,-6.21077 C 409.19423,85.212389 408.46582,84 403.46788,84 398.59526,84 392.74731,81.972571 389.65689,79.211862 384.24803,74.380053 380,63.406425 380,54.265904 c 0,-6.343572 2.68149,-18.935363 4.62932,-21.73841 2.06723,-2.974888 1.78765,-3.28247 -3.66535,-4.03245 -4.55919,-0.627048 -4.97545,-0.896321 -4.39616,-2.843838 1.27855,-4.298405 5.38933,-10.356978 9.76213,-14.387685 21.51967,-19.8361404 60.1082,-12.12129271 72.44601,14.483835 3.57963,7.71909 3.75854,19.280575 0.41275,26.672985 -3.06945,6.78185 -8.15367,12.706994 -14.27304,16.633777 l -5.16224,3.312605 0.62197,5.950749 c 0.81156,7.764559 3.28953,10.241225 10.87608,10.870361 3.41653,0.283325 6.58138,1.269022 8.5303,2.656773 1.70417,1.21348 8.94198,9.957364 16.08402,19.430864 C 521.48221,171.783 518,166.45499 518,175.74356 c 0,7.06915 -1.40774,11.22757 -5.40597,15.96914 l -2.70905,3.21271 2.16041,2.92211 c 1.67971,2.27193 3.22255,3.06302 6.9339,3.55535 6.11399,0.81104 16.42578,5.95142 18.88779,9.41547 2.84804,4.00718 4.1207,9.76249 4.13104,18.68166 0.0133,11.48676 -7.63757,65.97011 -9.9918,71.1534 -2.40946,5.30489 -7.24171,8.9745 -13.81629,10.49209 -3.60783,0.83279 -5.17227,1.67914 -5.13179,2.77626 0.032,0.86804 4.87956,30.2925 10.77228,65.3877 5.89271,35.0952 10.38524,64.34144 9.98339,64.99164 -0.55641,0.90029 -1.00865,0.90417 -1.89656,0.0163 C 530.99117,443.39117 509.07779,317.97663 509.01627,313.25 509.00366,312.28143 502.95201,312 482.13679,312 h -26.86321 l 33.36321,65.44836 c 18.34977,35.9966 33.36321,66.1466 33.36321,67 0,5.87811 -5.83642,-4.46644 -36.7851,-65.19836 L 451.19944,312.5 446.59972,312.19521 442,311.89042 441.88515,325.69521 441.7703,339.5 l -1.80355,-7 c -0.99195,-3.85 -1.84027,-9.98936 -1.88515,-13.64301 -0.0605,-4.92762 -0.46894,-6.79165 -1.5816,-7.21862 -0.825,-0.31658 -1.5,-1.26472 -1.5,-2.10699 0,-1.32769 2.85972,-1.53138 21.5,-1.53138 11.825,0 21.5,-0.34212 21.5,-0.76027 0,-0.41815 -1.56236,-4.35565 -3.4719,-8.75 L 471.0562,290.5 450.7906,290 c -18.27407,-0.45086 -20.29859,-0.67197 -20.60142,-2.25 -0.31075,-1.6193 1.15065,-1.75 19.5669,-1.75 h 19.90272 l -0.0794,-2.25 c -0.186,-5.27065 2.78804,-1.6291 6.3294,7.75 2.07668,5.5 4.53331,11.4625 5.45918,13.25 l 1.68338,3.25 h 12.58273 c 12.53674,0 12.58082,-0.008 12.06077,-2.25 -0.28708,-1.2375 -3.14836,-18.16304 -6.35841,-37.6123 L 495.5,232.77539 l -6.69574,0.4749 c -5.34827,0.37933 -6.81201,0.17189 -7.27354,-1.03082 -0.80939,-2.10924 -0.60838,-2.19409 6.84782,-2.89036 5.47575,-0.51133 6.57988,-0.90797 6.19565,-2.22566 -0.25715,-0.8819 -0.74247,-3.40345 -1.07849,-5.60345 -1.36548,-8.9403 -1.00654,-8.5 -6.92943,-8.5 h -5.39563 l -0.69256,7.39066 -0.69256,7.39065 -8.14276,0.61203 c -20.91406,1.57196 -89.98119,5.35726 -90.52099,4.96111 -0.38922,-0.28564 1.68086,-15.47889 2.53485,-18.60445 0.45308,-1.65824 -4.79528,-1.75 -100.08923,-1.75 -55.31207,0 -100.58309,0.1125 -100.60228,0.25 -0.0192,0.1375 -0.67332,3.83336 -1.45364,8.21303 -0.78031,4.37967 -1.32711,7.97967 -1.21511,8 0.112,0.0203 2.80492,1.33685 5.98425,2.92559 C 194.37574,236.43383 198,242.34299 198,251.49649 v 4.19805 l 11.13434,5.90273 c 12.84556,6.80991 19.32138,12.5361 23.23821,20.54821 l 2.75988,5.64549 2.38441,47.85451 c 3.05507,61.31441 5.2404,87.51534 7.40406,88.77073 0.86851,0.50391 5.0666,4.29445 9.3291,8.42341 8.05917,7.80669 9.24568,10.49716 6.71482,15.22612 -0.96586,1.80472 -2.26703,1.93426 -19.42858,1.93426 -22.0482,0 -21.53568,0.24562 -21.53743,-10.32143 -0.002,-14.93346 -5.71864,-36.09885 -22.51643,-83.3724 C 188.96707,332.34178 182,312.56928 182,312.36728 182,312.16527 174.575,312 165.5,312 H 149 v 5.69111 c 0,5.48863 1.08516,7.82093 30.5,65.55307 16.775,32.92407 30.5,60.54607 30.5,61.38221 0,5.71203 -5.85929,-4.51747 -32.30566,-56.40119 -28.26286,-55.44739 -29.21778,-57.15437 -29.92903,-53.5 -0.40407,2.07614 -1.89902,18.14891 -3.32209,35.71728 -1.78032,21.97855 -2.98608,32.27235 -3.86547,33 C 138.94306,404.79509 136,427.82687 136,439.267 c 0,7.54103 -0.25044,8.79666 -1.93426,9.69782 -2.42689,1.29883 -20.04356,1.33743 -22.06574,0.0484 z m 22.0423,-32.99248 c 0.71812,-6.03862 1.23918,-11.30178 1.15792,-11.6959 -0.0813,-0.39413 -1.28456,-0.86883 -2.67399,-1.0549 L 130,402.93158 v 11.36754 C 130,424.98246 130.32326,427 132.03498,427 c 0.3859,0 1.28919,-4.94069 2.00732,-10.97931 z m 102.19033,9.6325 c 3.96889,0.63465 3.98726,0.62256 3.43112,-2.25756 -0.30752,-1.5926 -0.8545,-6.60813 -1.21552,-11.14563 L 237.79184,404 h -9.89592 C 222.45316,404 218,404.23285 218,404.51745 c 0,0.74477 4.03129,19.76416 4.47601,21.11755 0.26318,0.80091 1.75547,0.87672 5.06967,0.25756 2.58319,-0.48259 6.49232,-0.59031 8.68695,-0.23937 z M 125.7719,414.5 125.5,403.5 h -5.5 -5.5 l -0.16342,11.24767 -0.16341,11.24767 5.93531,-0.24767 5.93531,-0.24767 z m 12.38167,-114.32263 c 3.33397,-14.34778 5.11003,-30.69801 4.67129,-43.00356 -0.37113,-10.4094 -0.75493,-12.51058 -3.19675,-17.50148 -8.07131,-16.49717 -28.40277,-29.55724 -53.301705,-34.23876 -11.607238,-2.1824 -34.208284,-1.56643 -42.254425,1.15161 -7.789651,2.6314 -12.678541,7.60838 -13.616272,13.86161 -1.163924,7.76161 0.266008,26.91109 2.990859,40.05321 3.562506,17.18219 9.295917,37.5817 11.382781,40.5 0.983256,1.375 3.779306,3.51746 6.213446,4.76102 4.407775,2.25186 4.589795,2.25996 44.917468,2 L 136.45202,307.5 Z m 57.93905,6.27473 c 5.30633,-2.744 6.32402,-8.61507 2.31849,-13.37537 L 195.82221,290 h -25.75686 -25.75686 l -1.65424,7.52842 c -0.90984,4.14063 -1.65425,8.19063 -1.65425,9 0,2.24891 50.73203,2.17863 55.09262,-0.0763 z m 327.27282,-1.36894 c 1.8819,-1.16308 4.10581,-3.57009 4.94202,-5.34892 C 529.59219,297.00129 537,248.70798 537,243.06546 c 0,-1.4427 -1.5646,-2.34589 -6.83904,-3.94795 -7.62646,-2.31647 -18.04279,-4.57776 -25.76817,-5.59405 l -5.10721,-0.67186 6.30788,37.3242 c 3.46933,20.52831 6.33007,37.49595 6.35721,37.70587 0.13889,1.07457 8.44155,-0.96096 11.41477,-2.79851 z M 190.71464,277.5014 c 3.34334,-11.67318 4.56567,-23.08342 3.17491,-29.63721 -2.6428,-12.45392 -15.90216,-17.76606 -33.17381,-13.29053 -3.34012,0.86551 -8.24637,2.67502 -10.90278,4.02112 l -4.82984,2.44747 0.75844,4.22887 c 0.98055,5.46732 0.97892,27.55741 -0.003,34.99841 l -0.76103,5.76954 21.72291,-0.26954 21.7229,-0.26953 z M 537.99442,229.25 c -0.007,-10.38606 -1.29574,-14.52848 -5.62914,-18.10043 -3.37926,-2.78548 -10.89063,-5.70103 -16.36528,-6.35221 -2.23259,-0.26555 -2.55348,0.13049 -3,3.70264 l -0.5,4 -8.28761,0.29105 -8.28761,0.29105 0.57446,3.20895 c 0.31595,1.76492 0.90714,5.23395 1.31375,7.70895 l 0.73929,4.5 9.97386,1.75435 c 5.48562,0.9649 13.79886,2.82274 18.47386,4.12854 4.675,1.30579 9.0625,2.42884 9.75,2.49564 0.90335,0.0878 1.24845,-2.02777 1.24442,-7.62853 z M 36.393422,205.97324 C 43.604957,201.9033 53.164023,200.04019 67,200.00785 l 11.5,-0.0269 0.27181,-7.99048 L 79.043619,184 H 61.052625 43.061631 L 29.530815,192.20033 16,200.40066 V 204.70033 209 h 7.515149 c 6.516995,0 8.227472,-0.40201 12.878273,-3.02676 z M 214.45,208.15551 c -4.2499,-3.7779 -26.76794,-19.1709 -27.28632,-18.65253 -0.76867,0.76867 -2.96881,12.71344 -3.08468,16.74702 L 184,209 h 15.7 c 8.635,0 15.2725,-0.38002 14.75,-0.84449 z M 509,203.96862 c 0,-5.85818 -1.34467,-6.89931 -6.26796,-4.85306 -5.58347,2.32063 -13.3254,1.3929 -45.73204,-5.48018 -17.325,-3.67444 -32.15869,-6.78307 -32.96375,-6.90809 -0.80506,-0.12501 -1.62556,0.56021 -1.82332,1.52271 -0.21687,1.05547 0.24233,1.75 1.15704,1.75 1.83403,0 4.63003,3.76107 4.63003,6.22812 0,1.69886 -4.02414,1.77103 -85.16491,1.5275 L 257.67018,197.5 l -2.164,-6.5 c -1.82524,-5.48249 -2.55535,-6.54695 -4.66404,-6.79992 -2.34801,-0.28168 -2.70105,0.32584 -5.80536,9.99011 -1.81793,5.65952 -3.97166,11.30698 -4.78606,12.54992 L 238.76998,209 H 373.88499 509 Z m -8.89922,-8.12157 c 10.70248,-3.63008 16.60186,-14.96948 13.59442,-26.13027 -0.41249,-1.53077 -6.86101,-10.86827 -14.33005,-20.75 -15.32213,-20.27157 -13.66708,-19.2455 -26.6165,-16.50136 C 463.31707,134.46408 451,141.00497 451,144.01488 c 0,0.36644 3.15,4.12183 7,8.34532 7.06379,7.74904 7.91308,9.16877 5.88853,9.84362 -0.61131,0.20377 -13.32381,-1.31742 -28.25,-3.38043 -30.08518,-4.15819 -35.48619,-4.48602 -39.43819,-2.39383 -1.48519,0.78626 -7.39037,6.15924 -13.12262,11.93995 -8.965,9.04078 -10.24125,10.72852 -9.12756,12.07044 0.7121,0.85803 1.73308,1.56005 2.26883,1.56005 0.53576,0 5.44508,-4.12558 10.9096,-9.16796 7.93016,-7.31754 10.18132,-8.91256 11.15345,-7.90257 0.96891,1.00663 -1.00452,3.36134 -9.65078,11.5154 -8.56131,8.07394 -10.50772,10.38856 -9.16822,10.90258 3.64557,1.39893 5.70044,0.39279 14.02965,-6.86944 7.97299,-6.95164 10.5529,-8.22434 10.47818,-5.16899 -0.016,0.65504 -2.90416,3.66598 -6.4181,6.69098 l -6.38899,5.5 3.38424,0.30835 c 2.64906,0.24136 4.66816,-0.59711 9.29459,-3.85976 l 5.91036,-4.1681 40.37351,8.52548 c 22.20544,4.68902 41.76887,8.56341 43.4743,8.60976 1.70542,0.0463 4.63042,-0.43456 6.5,-1.06868 z m -126.47862,-8.11121 c -0.13277,-1.24529 -1.45207,-3.47484 -2.93178,-4.95455 C 369.21067,181.30158 368,179.51925 368,178.82055 c 0,-0.6987 2.93366,-4.22667 6.51924,-7.83993 l 6.51923,-6.56958 -3.01923,-2.89261 c -3.38647,-3.24444 -3.81602,-5.98052 -1.36425,-8.68969 1.29132,-1.4269 3.13527,-1.82874 8.39159,-1.82874 7.52198,0 7.09332,0.46675 8.4952,-9.25 l 0.68531,-4.75 h -7.00794 -7.00794 l -12.73339,22.55882 c -11.76549,20.84404 -12.66414,22.8014 -11.82219,25.75 l 0.91121,3.19118 8.46658,0.5637 c 4.65662,0.31003 8.54838,0.64753 8.64836,0.75 0.1,0.10246 0.0731,-0.83257 -0.0596,-2.07786 z M 252,179.05902 c 0,-0.51754 -0.45,-1.2191 -1,-1.55902 -0.55,-0.33992 -1,0.0835 -1,0.94098 0,0.85746 0.45,1.55902 1,1.55902 0.55,0 1,-0.42344 1,-0.94098 z m 42.17126,-15.71401 c 2.60796,-2.36017 2.30102,-5.98946 -0.67126,-7.93697 -2.31587,-1.51741 -2.68413,-1.51741 -5,0 -2.88298,1.889 -3.23493,5.12239 -0.84501,7.76322 2.05358,2.26919 4.13939,2.3248 6.51627,0.17375 z M 390.91167,155.25 c 0.23192,-0.1375 -2.38633,-0.25 -5.81833,-0.25 -5.36995,0 -6.19367,0.2405 -5.90781,1.72488 0.1827,0.94869 1.44724,2.2808 2.81009,2.96026 2.20159,1.09761 2.81338,0.93313 5.48615,-1.47489 1.65453,-1.49064 3.19799,-2.82275 3.4299,-2.96025 z m -119.87932,-5.76639 c 4.6085,-2.33531 5.32641,-3.23487 9.97588,-12.5 2.7555,-5.49099 4.6684,-9.98218 4.25089,-9.98043 C 284.8416,127.00493 281.8,128.8035 278.5,131 c -5.51327,3.66967 -6.54757,3.99389 -12.75,3.99682 L 259,135 v -3.32363 c 0,-2.9759 0.39235,-3.44021 3.75,-4.43784 l 3.75,-1.11421 -4.5,0.49926 c -4.72788,0.52454 -5.72249,1.36319 -16.11889,13.59136 l -4.00864,4.71495 2.45418,0.61596 c 1.34981,0.33878 3.71269,1.92955 5.25086,3.53506 2.55694,2.66886 3.38353,2.91909 9.64282,2.91909 5.33219,0 7.94431,-0.55648 11.81202,-2.51639 z m 176.72039,-8.63635 c 0.87032,-0.87032 -0.34875,-2.70781 -4.97581,-7.5 C 436.99751,127.36159 434,125.57627 434,128.1197 c 0,1.09789 10.96947,13.6685 12.05,13.80886 0.3025,0.0393 1.06873,-0.44729 1.70274,-1.0813 z M 432.75,85.414817 c 2.34736,-0.296796 4.23421,-1.069533 4.21474,-1.72609 -0.0194,-0.6538 -0.86016,-8.838727 -1.86836,-18.188727 -1.00821,-9.35 -1.61825,-17.373962 -1.35565,-17.831027 0.2626,-0.457065 1.60102,-0.549032 2.97425,-0.204371 5.91031,1.483392 10.64707,-6.269001 7.8787,-12.894636 -2.50321,-5.991036 -8.45946,-6.730432 -11.47716,-1.424751 -1.90951,3.35727 -2.58099,3.398491 -17.11652,1.050731 L 405.5,32.5 l -2,-5.238882 c -1.1,-2.881385 -2.24783,-5.243885 -2.55073,-5.25 -0.30291,-0.0061 -1.55105,2.047833 -2.77366,4.564329 -2.30626,4.746969 -4.75059,5.491589 -4.57697,1.39429 0.0963,-2.273182 0.0456,-2.261335 -2.15979,0.504497 -1.24214,1.557789 -2.03924,3.40357 -1.77132,4.101736 0.26791,0.698166 -0.44769,2.204186 -1.59021,3.346711 -2.36163,2.361633 -2.60244,4.263607 -0.88748,7.009687 0.9322,1.49269 0.90766,2.245223 -0.11331,3.47542 -0.71673,0.863605 -1.76192,1.286652 -2.32264,0.940105 -0.67499,-0.417163 -0.86528,2.205489 -0.56312,7.761011 0.52782,9.704318 2.83039,15.769217 7.83195,20.629094 7.74375,7.524375 21.52026,4.545057 28.85618,-6.240457 2.5678,-3.775258 5.1211,-4.611654 5.1211,-1.67754 0,2.386476 -6.10663,9.464748 -10.51722,12.190643 -3.02691,1.870732 -4.4394,4.699407 -3.04361,6.095194 0.5302,0.530203 14.37851,0.05905 20.31083,-0.691021 z M 392.66667,72.333333 C 391.38617,71.052842 392.01366,69 393.68555,69 c 0.92705,0 2.69374,-0.947146 3.92597,-2.104769 C 399.7478,64.888304 402,64.995688 402,67.104472 c 0,3.126234 -7.32964,7.232556 -9.33333,5.228861 z M 391.05218,60.562874 C 389.11049,58.223276 390.64091,49 392.97082,49 c 1.54532,0 1.75081,0.827573 1.5407,6.205153 -0.24951,6.386204 -1.28054,7.983019 -3.45934,5.357721 z m 8.91991,-12.096508 c -1.41336,-1.702992 -0.47854,-4.464215 1.76449,-5.211894 1.80427,-0.601421 2.64205,3.795469 1.0303,5.407223 -1.25158,1.251575 -1.61505,1.226172 -2.79479,-0.195329 z M 405.75,37.428025 C 402.54583,35.689733 402.15295,34 404.95295,34 407.88117,34 412,36.139479 412,37.660515 c 0,1.746222 -2.79426,1.64228 -6.25,-0.23249 z M 181.30928,83.187391 c 7.17007,-3.171665 7.56439,-5.660107 2.68987,-16.975208 -2.19564,-5.0967 -2.21164,-5.336318 -0.44274,-6.629774 1.69992,-1.243014 1.52983,-1.497765 -2.30696,-3.455149 -2.27821,-1.162255 -4.55592,-2.85248 -5.06159,-3.756055 -0.84476,-1.5095 -1.17303,-1.493039 -4.04381,0.202777 -4.1875,2.473613 -6.40601,0.679625 -3.03886,-2.457354 C 170.35475,48.952483 171.92988,48 172.60548,48 c 0.81586,0 0.51065,-1.310291 -0.90887,-3.901802 l -2.13722,-3.901803 -3.0643,5.533993 c -2.44572,4.416869 -4.34947,6.311088 -9.43079,9.383557 -8.69891,5.25988 -10.07143,6.669198 -10.02238,10.291043 0.0523,3.863349 2.19129,7.917239 7.95808,15.082578 l 4.5,5.591327 8.54562,-0.402244 c 5.76289,-0.271261 10.08196,-1.081844 13.26366,-2.489258 z m -9.82941,-3.219962 c -1.39889,-2.263445 -2.23298,-6.814315 -1.40137,-7.645928 1.20753,-1.207529 11.17418,-0.09158 11.63372,1.302608 0.20379,0.618261 -0.8131,2.530761 -2.25974,4.25 -2.62002,3.113715 -6.68271,4.18043 -7.97261,2.09332 z m 0.75845,-19.129108 c -2.89682,-2.896823 0.24301,-8.286046 3.5955,-6.171346 2.45919,1.551214 2.20669,6.755557 -0.3455,7.121346 -1.10642,0.158576 -2.56892,-0.268924 -3.25,-0.95 z M 408,447.96368 c -16.775,-0.29498 -30.59667,-0.63248 -30.71482,-0.75 -2.05762,-2.04673 -2.1929,-4.63387 -0.4485,-8.57737 1.85107,-4.18466 2.78425,-4.81926 26.08376,-17.73812 20.91334,-11.59579 24.091,-13.66724 23.62125,-15.39819 -0.29852,-1.1 -0.8323,-3.73297 -1.18619,-5.85105 -0.563,-3.36966 -0.41497,-3.80705 1.18427,-3.49907 1.41081,0.2717 2.53515,2.97495 4.9291,11.85105 1.70577,6.32449 3.44964,12.06157 3.87528,12.74907 1.51422,2.44582 15.17202,0.67442 16.23903,-2.10618 0.25995,-0.6774 -0.62017,-5.85568 -1.95581,-11.50728 -2.05577,-8.69874 -2.20689,-10.36066 -0.98478,-10.82963 2.09583,-0.80425 2.39832,-0.22467 4.4246,8.4774 1.01006,4.33781 4.14509,15.64896 6.96674,25.13588 2.82164,9.48692 4.98082,17.39733 4.79817,17.57869 -0.74891,0.74358 -28.20727,0.96815 -56.8321,0.4648 z m -131.50248,-1.96642 c -1.58127,-1.74728 -1.66174,-2.50576 -0.63092,-5.94635 0.64985,-2.16899 2.22409,-4.75526 3.49833,-5.74726 1.27424,-0.99201 12.50969,-7.42865 24.96768,-14.30365 13.32446,-7.35317 22.47255,-12.98544 22.21777,-13.67899 -0.23821,-0.64844 -0.74288,-2.83018 -1.12148,-4.8483 -0.60714,-3.23634 -0.46656,-3.62708 1.19137,-3.31131 1.4492,0.27602 2.56685,2.7607 4.87973,10.84831 1.65,5.76966 3.36406,11.05279 3.80902,11.74029 1.44349,2.23032 12.95273,0.97562 15.99862,-1.74412 0.4442,-0.39664 -0.1183,-4.3477 -1.25,-8.78013 -2.54013,-9.94871 -2.62553,-12.48356 -0.40593,-12.04907 1.20044,0.23498 2.40231,3.32871 4.39898,11.32332 1.51099,6.05 3.82292,14.36955 5.13762,18.4879 l 2.39037,7.48789 4.58548,-8.48789 c 2.52202,-4.66835 9.89923,-19.04065 16.39381,-31.93847 10.69941,-21.24834 11.89166,-23.20055 12.69576,-20.78825 0.77125,2.31377 -1.28092,6.90121 -15.67564,35.0414 -9.1097,17.8085 -16.40476,32.56322 -16.21126,32.78826 0.1935,0.22504 0.64869,1.64666 1.01155,3.15916 l 0.65972,2.75 h -43.36406 c -42.11385,0 -43.41632,-0.0577 -45.17652,-2.00274 z M 370.09997,285.18679 C 368.62295,282.42695 364,263.52592 364,260.24692 c 0,-8.49908 6.03412,-17.64875 14.3092,-21.69737 4.72673,-2.31257 6.60096,-2.60184 18.22959,-2.81357 C 407.49808,235.53645 409.5,235.73168 409.5,237 c 0,1.20686 -2.63827,1.70737 -13.5,2.5611 -8.76995,0.68932 -14.5867,1.63495 -16.60156,2.69892 -6.29425,3.32376 -11.38918,11.48531 -11.38649,18.23998 4.4e-4,1.1 1.34471,7.11068 2.98727,13.35707 1.64255,6.24639 2.73813,11.75889 2.4346,12.25 -0.88165,1.42655 -2.28522,1.03911 -3.33385,-0.92028 z"
         id="path3" />
      <path
         style="fill:#0d0c16"
         d="m 111.58489,448.0938 c -1.57029,-1.73515 -1.66071,-3.84394 -1.00764,-23.5 L 111.29469,403 h -3.63368 -3.63368 L 103.76366,370.62934 103.5,338.25867 76,392.12871 c -24.289556,47.58107 -30,57.58484 -30,52.55512 0,-0.7239 13.05,-26.92212 29,-58.21827 l 29,-56.9021 V 320.28173 311 H 76.404292 C 47.099536,311 45.177398,310.71622 42.200991,305.95023 41.077138,304.15066 34.930436,283.74092 33.482188,277 c -0.634899,-2.95516 -0.866063,-3.18866 -1.484974,-1.5 -0.40316,1.1 -6.956974,39.24328 -14.564031,84.76283 -7.6070571,45.51956 -14.1727627,83.3158 -14.5904571,83.99164 -0.5259869,0.85107 -1.0792892,0.90897 -1.7999098,0.18835 C 0.32219546,443.7222 4.6398224,415.90456 15.088195,353.95118 L 30.174038,264.5 l -1.657527,-10 c -2.443272,-14.74047 -2.965502,-29.89725 -1.247648,-36.21076 l 1.417804,-5.21075 -7.593334,-0.28925 L 13.5,212.5 v -7.41396 -7.41396 L 27.988021,188.83604 42.476043,180 H 60.738021 C 76.304225,180 79,180.22143 79,181.5 79,182.77526 76.419888,183 61.778992,183 H 44.557985 L 30.278992,191.54726 16,200.09452 V 204.54726 209 h 8.440983 c 5.121392,0 8.711579,-0.43783 9.12905,-1.11332 1.187436,-1.92131 9.138362,-4.92725 17.023463,-6.43592 20.240322,-3.87261 45.529673,-0.0231 65.143674,9.91606 9.03403,4.57788 21.17668,15.47344 24.94514,22.38318 0.97487,1.7875 2.06417,3.25 2.42066,3.25 0.35649,0 3.23131,-1.14239 6.38849,-2.53864 17.4526,-7.71837 33.22698,-7.00608 42.13568,1.90263 4.33487,4.33487 6.35752,9.36397 6.36728,15.83158 0.006,3.67343 0.07,3.73005 10.75558,9.44887 13.00559,6.96046 20.0465,13.28241 23.59211,21.18308 2.53634,5.65173 2.64306,6.80487 5.11034,55.22237 1.38594,27.19756 3.23235,57.55011 4.10313,67.45011 1.44788,16.4612 1.76965,18.12407 3.76383,19.45127 1.19932,0.7982 5.44309,4.71207 9.43059,8.69748 7.46451,7.46061 8.5679,10.02022 6.21482,14.41699 -0.9656,1.80423 -2.26608,1.93426 -19.34502,1.93426 -22.07471,0 -21.61923,0.23339 -21.62088,-11.07874 -0.002,-15.15144 -5.45877,-35.30328 -22.64079,-83.61539 l -15.77412,-44.35342 -16.042,0.27378 L 149.5,311.5 l -0.57583,5.5 -0.57584,5.5 30.82584,60.55757 c 16.9542,33.30666 30.82583,61.09416 30.82583,61.75 0,5.21921 -6.00667,-5.33723 -31.04354,-54.55757 -15.59707,-30.6625 -28.91075,-56.82516 -29.58595,-58.13925 -1.22154,-2.37739 -1.23035,-2.37243 -1.77503,1 -0.30107,1.86409 -1.7655,18.23925 -3.25431,36.38925 -1.81002,22.06601 -3.11619,33.33133 -3.94216,34 C 138.81918,404.77896 136,426.97701 136,438.13759 136,449.53733 135.48618,450 122.82625,450 c -8.09019,0 -9.77479,-0.28566 -11.24136,-1.9062 z M 133,426.07236 c 0,-1.17162 1.84834,-15.4964 2.5577,-19.82236 0.50371,-3.07186 0.366,-3.25 -2.51239,-3.25 H 130 v 12 c 0,10 0.25,12 1.5,12 0.825,0 1.5,-0.41744 1.5,-0.92764 z m 100.34384,-0.0587 6.84384,-0.0136 -0.55972,-4.75 c -0.30784,-2.6125 -0.84425,-7.5625 -1.19202,-11 L 237.80363,404 h -9.90182 c -5.44599,0 -9.90527,0.3375 -9.9095,0.75 -0.004,0.4125 0.99199,5.61482 2.21381,11.56072 2.03614,9.90861 2.39142,10.76506 4.2577,10.26365 1.1199,-0.30088 5.11591,-0.55321 8.88002,-0.56072 z M 126,414.5 V 403 h -6 -6 v 11.5 11.5 h 6 6 z m 12.81891,-116.75 c 3.64075,-17.33473 4.38116,-24.44179 4.02458,-38.63117 -0.32899,-13.09161 -0.48183,-13.94964 -3.61946,-20.31929 -6.7124,-13.6267 -25.08091,-26.71308 -44.520429,-31.71794 -12.400604,-3.19264 -27.080813,-4.42661 -37.537035,-3.15526 -15.276482,1.85744 -22.905435,5.52206 -25.69521,12.34286 -3.621651,8.85469 -1.45476,32.98357 5.364115,59.7308 4.799531,18.82629 6.180733,22.86581 8.939288,26.14416 4.843199,5.75582 4.998943,5.77401 49.808315,5.8167 L 136.66615,308 Z m 59.25801,7.32692 c 3.12597,-3.12596 3.73001,-6.69333 1.75974,-10.39266 -2.40517,-4.51588 -3.07222,-4.61909 -30.06761,-4.65246 L 144.0381,290 l -0.57676,2.75 c -1.34737,6.42414 -2.58675,11.86721 -3.07395,13.5 -0.48846,1.63706 1.26198,1.75 27.12215,1.75 h 27.64431 z m -9.06638,-21.60463 c 5.1907,-13.6526 7.0867,-33.92286 3.75108,-40.10317 -2.20932,-4.0935 -6.80835,-7.89941 -11.36131,-9.40202 -6.24968,-2.06258 -18.67848,-0.75175 -28.21029,2.97527 l -8.30999,3.24927 0.80999,5.65418 c 1.04857,7.31971 1.03831,24.79633 -0.0196,33.40418 l -0.8296,6.75 h 21.60435 21.60434 z M 408.5,448 c -16.5,-0.275 -30.5625,-0.86406 -31.25,-1.30902 -1.70223,-1.1017 -1.5718,-5.21057 0.28993,-9.13389 1.30099,-2.74163 5.27197,-5.31241 25.59166,-16.56783 26.58807,-14.72757 24.48479,-12.70092 22.28349,-21.47158 -0.57576,-2.29404 -0.39096,-2.65968 1.19031,-2.35516 1.45649,0.2805 2.54018,2.8009 4.88325,11.35729 1.65625,6.04824 3.37542,11.55556 3.82038,12.23849 1.01732,1.56141 7.74579,1.60517 12.82496,0.0834 4.57777,-1.37153 4.68283,-2.0945 1.86602,-12.84171 -2.3635,-9.01767 -2.46055,-11 -0.53854,-11 1.44899,0 2.32393,2.40219 4.55282,12.5 0.60701,2.75 3.33019,12.38443 6.05151,21.40984 2.72132,9.02542 4.83228,16.52436 4.69103,16.66431 -0.66707,0.66094 -29.1946,0.87689 -56.25682,0.42585 z m -130.1109,-0.97971 c -3.15911,-1.27647 -3.60806,-3.73686 -1.53643,-8.42013 1.77837,-4.02031 2.95591,-4.8162 26.06087,-17.61442 26.35929,-14.60086 24.61285,-13.02818 22.47158,-20.23574 -0.36786,-1.23824 0.0399,-1.75 1.39424,-1.75 1.59153,0 2.39049,1.8118 4.74051,10.75 1.55451,5.9125 3.31097,11.08061 3.90326,11.48469 3.03699,2.07196 16.57687,-0.46394 16.57687,-3.10471 0,-0.53464 -0.92803,-4.87957 -2.06229,-9.6554 -1.13426,-4.77584 -1.82866,-8.91696 -1.54313,-9.2025 1.64322,-1.64321 3.46911,1.43303 4.97578,8.38317 0.93533,4.31461 3.18789,12.56975 5.00568,18.34475 l 3.30508,10.5 5.76971,-11.5 c 19.67595,-39.21746 26.88718,-52.31857 27.65506,-50.24279 0.597,1.61386 -2.96728,9.4424 -15.59079,34.24337 -14.23373,27.96453 -16.29237,32.5971 -15.80907,35.57532 l 0.55565,3.4241 -41.88084,-0.0634 c -23.03446,-0.0349 -42.83074,-0.4472 -43.99174,-0.91632 z M 485.06655,378.49749 450.6331,311 H 446.31655 442 l -0.11485,13.75 -0.11485,13.75 -1.80355,-7 c -0.99195,-3.85 -1.84027,-10.0375 -1.88515,-13.75 -0.064,-5.29707 -0.40447,-6.75 -1.5816,-6.75 -0.825,0 -1.5,-0.675 -1.5,-1.5 0,-1.28682 3.05556,-1.5 21.5,-1.5 11.825,0 21.5,-0.32584 21.5,-0.7241 0,-0.39825 -1.4625,-4.43048 -3.25,-8.9605 l -3.25,-8.23641 -20.48696,-0.2895 c -18.58258,-0.26258 -20.51822,-0.45216 -20.82332,-2.03949 -0.31125,-1.61932 1.14991,-1.75 19.56636,-1.75 19.72007,0 19.90199,-0.0197 19.82332,-2.14879 -0.14355,-3.88475 2.17139,-3.0308 3.66536,1.35209 0.80552,2.36319 3.21748,8.45808 5.35991,13.5442 l 3.89533,9.24751 12.875,0.002 12.875,0.002 -0.52565,-2.75 c -0.2891,-1.5125 -3.1225,-18.41572 -6.29644,-37.5627 l -5.7708,-34.8127 -6.57856,0.2386 c -5.25167,0.19047 -6.63839,-0.0715 -6.87522,-1.29889 -0.30357,-1.57328 4.03875,-2.77947 10.09198,-2.8033 2.60497,-0.0103 2.75567,-0.23231 2.21315,-3.26101 -0.32018,-1.7875 -0.91375,-5.275 -1.31903,-7.75 l -0.73686,-4.5 -5.58802,-0.29578 -5.58801,-0.29578 -0.62726,3.79578 c -0.345,2.08768 -0.63222,5.2724 -0.63827,7.07716 -0.006,1.80477 -0.57351,3.48027 -1.26101,3.72335 -1.20033,0.42441 -55.43801,3.73612 -84,5.12899 -8.00127,0.39019 -13.74943,0.29336 -13.74863,-0.23159 7.5e-4,-0.49617 0.67513,-4.72713 1.49863,-9.40213 0.8235,-4.675 1.49788,-8.8375 1.49863,-9.25 7.5e-4,-0.4125 -33.86113,-0.76001 -75.24863,-0.77224 -74.86722,-0.0221 -75.23728,-0.0322 -72.75,-1.97776 2.45275,-1.91857 5.0656,-1.95595 138.25,-1.97776 L 510,209 v -4.34501 c 0,-2.94479 -0.59135,-4.88018 -1.835,-6.00567 -1.70555,-1.5435 -2.06777,-1.54454 -5.13432,-0.0147 -1.81462,0.90525 -5.60136,1.64954 -8.41499,1.65397 -3.86444,0.006 -49.98705,-9.04006 -70.36569,-13.801 -1.76398,-0.41211 -2.25,-0.0895 -2.25,1.4934 0,1.11048 0.45,2.01905 1,2.01905 1.73621,0 5,3.91655 5,6 0,1.9843 -0.66667,2 -84.91667,2 h -84.91666 l -2.41166,-7.25 c -1.91068,-5.74393 -2.8628,-7.31638 -4.58334,-7.56955 -2.52422,-0.37143 -2.8709,-1.9749 -0.6142,-2.84088 0.89922,-0.34506 1.30957,-1.24368 0.97091,-2.1262 -0.3226,-0.8407 0.37018,-4.40355 1.53953,-7.91744 2.0779,-6.24409 2.26681,-12.55624 0.4952,-16.54593 -0.69671,-1.56899 -0.0902,-1.75 5.86314,-1.75 5.07271,0 7.78678,-0.581 11.49711,-2.46116 4.37991,-2.21947 5.36323,-3.40884 10.01302,-12.11121 2.83588,-5.30752 5.02283,-10.04133 4.85988,-10.51957 -0.16294,-0.47823 -3.17467,1.02332 -6.69273,3.3368 -5.65891,3.72129 -7.19505,4.25144 -13.32208,4.59765 l -6.92561,0.39133 0.32208,-3.28285 c 0.2805,-2.85901 0.83851,-3.44156 4.32208,-4.51207 l 4,-1.22921 -4.38158,-0.10486 c -4.70419,-0.11257 -5.67373,0.64173 -16.89623,13.14515 -3.9998,4.45634 -8.86686,6.59356 -7.62083,3.34646 0.29622,-0.77195 -0.34876,-4.27643 -1.43329,-7.78774 -2.37194,-7.67944 -1.89965,-11.01535 2.02733,-14.31968 L 242.15345,118 h 42.87622 c 29.93287,0 43.63057,0.3437 45.37509,1.13856 3.26986,1.48985 3.90335,2.99035 13.557,32.11144 4.51255,13.6125 8.5047,24.72946 8.87144,24.70436 0.36674,-0.0251 8.5418,-14.0236 18.1668,-31.10777 23.60833,-41.9043 23.20414,-41.28291 28.53052,-43.86136 C 403.8041,98.916421 404,98.631389 404,94.482222 c 0,-4.076304 1.4322,-6.792957 4.03937,-7.662013 0.5913,-0.197099 0.81639,-1.024777 0.5002,-1.839285 -0.41345,-1.065031 -2.22961,-1.497576 -6.46704,-1.540219 -7.1182,-0.07163 -11.6631,-2.715794 -16.12537,-9.381537 -4.19752,-6.270249 -5.41668,-11.232985 -5.2963,-21.559168 0.0965,-8.279776 1.22325,-13.3782 4.7964,-21.70372 0.61658,-1.436666 -0.0665,-1.809543 -4.35803,-2.378831 C 378.29015,28.046138 376,27.525802 376,27.261147 c 0,-0.264656 1.4171,-3.139936 3.1491,-6.389511 3.89634,-7.310272 9.20947,-12.2085985 17.39973,-16.0412802 18.08008,-8.4606936 39.6878,-4.78987853 53.50629,9.0898892 11.67483,11.726591 14.58076,26.871853 7.83115,40.814694 -2.52169,5.209112 -9.76815,12.653993 -14.83057,15.236644 l -3.70494,1.890118 0.72499,6.148642 c 0.93311,7.913771 3.53651,10.9803 9.34856,11.011619 8.54591,0.04605 11.02525,2.170831 26.63019,22.821908 C 519.09492,168.80218 518,167.12749 518,176 c 0,5.67512 -1.81616,10.75912 -5.62944,15.75859 -2.37015,3.10743 -2.44466,3.50205 -0.96906,5.13257 0.87918,0.97148 1.5985,2.29339 1.5985,2.93758 0,0.64419 1.0776,1.17126 2.39466,1.17126 1.31707,0 5.4789,0.95262 9.24852,2.11694 9.5114,2.93777 14.63025,8.06215 16.36539,16.38306 1.32922,6.37431 0.85836,21.48361 -0.98166,31.5 -0.55569,3.025 -2.31938,15.08532 -3.91931,26.80072 -2.52032,18.45494 -3.25566,21.82462 -5.50401,25.22211 -3.06528,4.63194 -7.40639,7.16239 -13.60359,7.92958 -3.21381,0.39786 -4.44288,0.98445 -4.30015,2.05233 0.10992,0.8224 4.99423,30.18623 10.85403,65.25298 5.85979,35.06675 10.36761,64.5045 10.01736,65.41722 -0.42243,1.10085 -0.97178,1.32452 -1.63187,0.66443 -0.54729,-0.54729 -5.92624,-30.35532 -11.95323,-66.24007 -6.02698,-35.88475 -11.21601,-65.66221 -11.53116,-66.17215 C 507.87308,310.98562 455,310.56154 455,311.49841 c 0,0.27413 15.075,30.03172 33.5,66.12798 18.425,36.09627 33.5,66.24698 33.5,67.00159 0,0.75461 -0.5625,1.37089 -1.25,1.36951 -0.6875,-0.001 -16.74505,-30.37638 -35.68345,-67.5 z m 38.8572,-73.4432 c 1.70854,-1.21658 3.75461,-3.46542 4.54684,-4.99742 C 529.81907,297.44921 537,250.20533 537,243.94128 c 0,-2.65428 -0.47883,-3.00882 -6.62942,-4.90854 C 522.4917,236.5992 505.28241,233 501.52553,233 c -2.05577,0 -2.54768,0.39768 -2.16468,1.75 0.27259,0.9625 3.03085,17.275 6.12947,36.25 3.09861,18.975 5.8389,35.12012 6.08951,35.87805 0.6755,2.04284 8.54705,0.87986 12.34392,-1.82376 z M 538.4047,226 c -0.80146,-7.83888 -2.20431,-11.73215 -5.2472,-14.56235 -2.82473,-2.62728 -10.25244,-5.73395 -16.34833,-6.83776 l -3.69083,-0.66832 -0.30917,4.28422 L 512.5,212.5 l -8.36653,0.29233 -8.36654,0.29232 0.56349,2.81746 c 0.30992,1.5496 0.86778,5.1113 1.23969,7.91487 l 0.67619,5.09741 4.62685,0.63488 c 8.85014,1.21438 23.66106,4.40607 29.12685,6.27672 l 5.5,1.88236 0.73351,-3.10417 c 0.40344,-1.7073 0.48047,-5.57918 0.17119,-8.60418 z m -35.83396,-30.89281 c 8.20891,-3.72841 13.35116,-13.47385 11.96987,-22.68497 -0.59275,-3.9527 -2.7678,-7.38724 -14.43144,-22.78819 -13.53869,-17.8768 -13.7911,-18.1383 -17.79434,-18.43532 -5.02464,-0.3728 -16.03034,2.10534 -21.30835,4.79798 -2.17298,1.10858 -5.53601,3.40735 -7.47339,5.1084 l -3.52252,3.09281 7.51095,8.08482 c 4.95663,5.33533 7.17428,8.42148 6.52097,9.07479 -0.65331,0.65331 -11.21837,-0.38893 -31.06641,-3.0647 -24.04109,-3.24104 -30.87129,-3.85292 -34.03751,-3.04925 -3.09826,0.78642 -6.35467,3.4079 -14.94982,12.03489 C 377.94494,173.34466 373,178.88331 373,179.58657 c 0,0.70326 0.91424,1.56882 2.03163,1.92347 1.57197,0.49892 3.80352,-0.95251 9.86294,-6.415 4.30722,-3.8829 8.39808,-7.74274 9.09081,-8.57743 1.3688,-1.64929 5.01462,-2.08596 5.01462,-0.6006 0,0.50435 -4.6814,5.11685 -10.40312,10.25 -5.72172,5.13314 -10.29956,9.78299 -10.17299,10.33299 0.12657,0.55 1.61365,1.13771 3.30462,1.30601 2.58755,0.25755 4.46782,-0.89093 11.87172,-7.25127 6.2892,-5.40276 9.09693,-7.24496 9.8485,-6.46174 0.74712,0.77858 -0.91931,2.91107 -5.75989,7.37081 -5.46872,5.03845 -6.4757,6.404 -5.10912,6.92841 2.41676,0.92739 5.10594,-0.12162 11.60909,-4.52855 l 5.68881,-3.85509 39.81119,8.41229 c 21.89616,4.62676 41.83619,8.43995 44.31119,8.47375 2.475,0.0338 6.33183,-0.77054 8.57074,-1.78743 z M 374.03635,188.5438 c -0.66469,-0.8009 -0.93726,-1.89511 -0.60571,-2.43157 0.33155,-0.53646 -0.23329,-1.56868 -1.25521,-2.29381 -1.02192,-0.72513 -2.35468,-2.25506 -2.9617,-3.39985 -0.97709,-1.84273 -0.31644,-2.86262 5.76069,-8.89318 l 6.86435,-6.81176 -3.41939,-3.22489 C 371.98431,155.41969 375.03679,151 385.66349,151 c 3.42016,0 6.42424,-0.3375 6.67572,-0.75 0.25149,-0.4125 0.7828,-3.80931 1.18071,-7.54846 l 0.72345,-6.79847 -6.87168,0.29847 L 380.5,136.5 l -13.11857,23 c -7.21522,12.65 -12.96607,23.45 -12.77967,24 2.36444,6.97676 1.52124,6.5 11.49593,6.5 7.89517,0 8.98178,-0.19932 7.93866,-1.4562 z m -79.97061,-24.57898 c 2.38142,-1.2745 2.59276,-6.16346 0.36283,-8.39339 -3.27772,-3.27773 -8.67857,-0.8329 -8.67857,3.92857 0,4.48385 4.13341,6.70313 8.31574,4.46482 z m 93.85753,-5.55371 c 3.44219,-2.89641 3.95455,-4.40218 1.32673,-3.89914 -0.9625,0.18426 -3.6625,0.36944 -6,0.41152 -4.84163,0.0872 -5.68184,1.9602 -2.02749,4.51981 2.9036,2.03376 3.09148,2.00482 6.70076,-1.03219 z m 55.07333,-24.91454 c -6.19259,-6.24813 -9.01807,-7.89938 -8.97747,-5.24657 0.0105,0.6875 2.77675,4.3177 6.14718,8.06711 5.56947,6.19572 6.2712,6.67395 7.69858,5.24657 1.42738,-1.42738 0.98364,-2.1627 -4.86829,-8.06711 z m -6.09112,-48.118902 c 0.22302,-0.195417 -0.34063,-7.447835 -1.25256,-16.116486 -0.91192,-8.66865 -1.65689,-17.259437 -1.65548,-19.090637 0.002,-3.148484 0.15921,-3.295049 2.88456,-2.696463 2.21005,0.485409 3.55067,0.05782 5.75,-1.833961 2.39626,-2.061178 2.868,-3.235617 2.868,-7.140121 0,-3.880407 -0.47597,-5.082581 -2.80576,-7.086584 C 441.15107,30.086037 439.21811,29 438.39878,29 c -1.63015,0 -5.83978,3.822994 -6.54749,5.946131 -0.36492,1.094761 -2.57684,1.018075 -12.39773,-0.429825 -6.57446,-0.969276 -12.52716,-2.296638 -13.22823,-2.949694 -0.70106,-0.653055 -2.09518,-3.348956 -3.09804,-5.990891 l -1.82339,-4.803517 -2.15195,3.481932 C 397.96838,26.169199 397,28.245453 397,28.868034 c 0,1.209095 -2.24836,1.550275 -3.29815,0.500483 -0.34732,-0.347316 -0.16086,-1.510856 0.41435,-2.585646 1.9565,-3.65575 0.19175,-2.834737 -2.6162,1.217129 -1.53841,2.219925 -2.54366,4.289676 -2.23389,4.599448 0.30978,0.309772 -0.52891,2.172572 -1.86374,4.139556 -2.25869,3.328365 -2.3137,3.701494 -0.79339,5.38142 C 388.50204,44.212234 387.81652,47 385.40907,47 c -1.44434,0 -1.60044,1.10782 -1.23297,8.75 0.35155,7.310985 0.90391,9.636796 3.35865,14.142205 3.87219,7.106992 8.94629,10.51267 15.51512,10.413575 7.26325,-0.109572 15.65693,-5.647654 19.86769,-13.108545 0.75134,-1.331276 1.22191,-1.43586 2.18236,-0.485037 1.6834,1.666523 -3.03981,8.402216 -8.78494,12.528058 C 413.43855,81.305952 412,83.084561 412,84.575258 c 0,2.222606 0.0746,2.232936 12.25,1.696966 6.7375,-0.296589 12.43247,-0.699139 12.65548,-0.894556 z M 393.12188,72.096491 C 391.37475,70.989875 392.54122,69 394.93704,69 c 1.00046,0 2.50599,-1.0125 3.34563,-2.25 1.26672,-1.866942 1.75567,-2.025806 2.87198,-0.933135 1.12271,1.098941 0.80491,1.80226 -1.92043,4.25 -3.54038,3.179773 -4.03642,3.344486 -6.11234,2.029626 z M 390.954,60.444578 c -1.89329,-2.281277 -0.0817,-10.810164 2.39578,-11.279349 1.61237,-0.305349 1.75485,0.07869 1.11016,2.992231 -0.40679,1.838397 -0.70701,4.572221 -0.66716,6.075164 0.0883,3.329438 -1.12606,4.275652 -2.83878,2.211954 z m 8.60177,-12.354336 C 398.70796,46.718454 400.03201,44 401.54797,44 c 1.79487,0 2.59225,1.471024 1.84829,3.409758 -0.66471,1.732204 -2.9412,2.135567 -3.84049,0.680484 z M 406.25,37.352327 C 402.46244,35.485195 402.03158,34 405.27749,34 407.76821,34 412,36.553677 412,38.056704 c 0,1.372032 -2.04645,1.121341 -5.75,-0.704377 z M 370.06899,284.90213 c -2.71347,-6.34826 -6.07112,-23.04709 -5.45677,-27.13854 1.42343,-9.47983 9.07318,-18.59939 17.3659,-20.70256 5.56839,-1.41224 26.70136,-2.38866 27.39535,-1.26577 1.2623,2.04246 -2.24377,2.95713 -13.37347,3.48886 -6.325,0.30219 -12.68751,1.00674 -14.13891,1.56567 -4.17567,1.60804 -10.01019,7.27015 -11.99611,11.64163 -2.47634,5.45101 -2.32739,9.17897 0.86775,21.71842 2.10604,8.26527 2.46101,10.99642 1.54787,11.90956 -0.91314,0.91314 -1.42031,0.63398 -2.21161,-1.21727 z M 183.5,212 c -1.53579,-2.48497 1.27986,-2.99906 16.30902,-2.97776 C 213.84204,209.04212 215.76416,209.2511 218,211 l 2.5,1.95553 -18.19098,0.0222 C 191.2356,212.9913 183.87622,212.60873 183.5,212 Z m 45.15525,-21.25 c -0.75437,-1.7875 -3.26536,-7.68492 -5.57997,-13.10538 -4.07882,-9.55196 -4.80658,-14.83138 -1.59521,-11.57216 1.63099,1.65528 11.51993,24.41736 11.51993,26.51623 0,2.66726 -2.97434,1.40852 -4.34475,-1.83869 z M 87.821591,144.66432 C 63.286572,134.36858 55.382572,103.3014 71.56686,80.774052 l 3.7641,-5.239354 -2.16548,-6.204765 C 71.974466,65.917312 71,62.462007 71,61.651478 c 0,-3.264927 5.658465,-6.337025 15.021993,-8.15575 14.957087,-2.905189 19.061717,-7.242759 20.530197,-21.695265 0.68884,-6.779487 3.28205,-11.035162 9.30074,-15.263304 3.40496,-2.391999 5.33026,-3.022416 9.06354,-2.967755 6.81079,0.09972 17.74871,3.893001 32.01032,11.101205 7.65504,3.869067 12.83889,5.946092 13.5,5.409081 0.59027,-0.479465 2.74037,-1.326652 4.77802,-1.882637 5.51617,-1.505125 6.09698,-0.221745 5.62839,12.436778 l -0.3944,10.654651 4.77253,2.936571 c 4.05554,2.495399 4.62271,3.21653 3.77523,4.800065 -0.54852,1.024922 -1.41924,2.124256 -1.93492,2.442965 -0.52688,0.32563 0.12828,2.868847 1.49561,5.805693 6.0008,12.888944 0.82085,19.562256 -17.03952,21.95195 l -8.36255,1.118898 3.01453,5.97176 c 3.76695,7.462296 4.80839,15.557156 2.46218,19.137936 -3.27322,4.99556 -14.51993,8.51937 -27.25057,8.53813 -4.80305,0.007 -5.21121,0.20679 -6.42855,3.14571 -2.0767,5.01361 -11.22063,13.63656 -17.6338,16.62911 -8.37455,3.90778 -21.370582,4.30314 -29.487379,0.89705 z M 176.92865,84.921882 c 5.48247,-1.175779 11.07187,-5.504239 11.07056,-8.573092 -4.3e-4,-1.016834 -1.36182,-4.725774 -3.0253,-8.242087 -2.78391,-5.884678 -2.89806,-6.533039 -1.43486,-8.149848 1.47844,-1.633658 1.3053,-1.916366 -2.4747,-4.040844 -2.23539,-1.256361 -4.07124,-2.53893 -4.07966,-2.850152 -0.008,-0.311222 -0.41076,-1.190295 -0.89408,-1.953494 -0.71767,-1.133253 -1.29939,-0.995763 -3.17325,0.75 C 171.65539,53.038064 170.03273,54 169.31144,54 c -2.38249,0 -1.36317,-2.99794 1.64036,-4.824493 L 173.9036,47.38041 171.51465,43.440205 169.1257,39.5 l -1.65587,4 c -2.19622,5.305309 -5.92665,9.154258 -11.75398,12.127399 C 149.0061,59.050757 147,61.338231 147,65.565741 c 0,4.42103 0.9769,6.315283 7.31507,14.184259 l 5.03414,6.25 h 6.27618 c 3.45189,0 8.53836,-0.485153 11.30326,-1.078118 z M 171.5567,78.777494 C 170.70052,77.555115 170,75.530115 170,74.277494 170,72.251154 170.48723,72 174.41821,72 179.21685,72 182,72.745275 182,74.030264 182,75.772501 176.72566,81 174.96781,81 c -1.01992,0 -2.55492,-1.000128 -3.41111,-2.222506 z M 176,76 c 0,-0.55 -0.45,-1 -1,-1 -0.55,0 -1,0.45 -1,1 0,0.55 0.45,1 1,1 0.55,0 1,-0.45 1,-1 z m -4.16767,-16.468656 c -0.97572,-2.141467 -0.9092,-2.883041 0.37366,-4.165905 2.37264,-2.372639 6.01746,-0.127565 5.60394,3.451819 -0.44068,3.81449 -4.35207,4.281745 -5.9776,0.714086 z"
         id="path2" />
    </g>
  </g>
</svg>
