<?xml version="1.0" encoding="UTF-8" standalone="no"?>
<!-- Created with Inkscape (http://www.inkscape.org/) -->

<svg
   version="1.1"
   id="svg1"
   width="528"
   height="450"
   viewBox="0 0 528 450"
   sodipodi:docname="HR_05.svg"
   inkscape:version="1.3.2 (091e20e, 2023-11-25, custom)"
   xmlns:inkscape="http://www.inkscape.org/namespaces/inkscape"
   xmlns:sodipodi="http://sodipodi.sourceforge.net/DTD/sodipodi-0.dtd"
   xmlns="http://www.w3.org/2000/svg"
   xmlns:svg="http://www.w3.org/2000/svg">
  <defs
     id="defs1" />
  <sodipodi:namedview
     id="namedview1"
     pagecolor="#ffffff"
     bordercolor="#000000"
     borderopacity="0.25"
     inkscape:showpageshadow="2"
     inkscape:pageopacity="0.0"
     inkscape:pagecheckerboard="0"
     inkscape:deskcolor="#d1d1d1"
     showgrid="false"
     inkscape:zoom="1.7488889"
     inkscape:cx="263.88183"
     inkscape:cy="225"
     inkscape:window-width="1920"
     inkscape:window-height="1001"
     inkscape:window-x="-9"
     inkscape:window-y="-9"
     inkscape:window-maximized="1"
     inkscape:current-layer="g1" />
  <g
     inkscape:groupmode="layer"
     inkscape:label="Image"
     id="g1">
    <g
       id="g2">
      <path
         style="fill:#fefefe"
         d="M 0,225 V 0 H 264 528 V 225 450 H 264 0 Z"
         id="path5" />
      <path
         style="fill:#cdcac7"
         d="m 240.32423,448.36246 c -5.54816,-1.96593 -12.66011,-8.35911 -15.2497,-13.70849 l -2.09297,-4.32351 -11.75448,-1.02864 c -13.67739,-1.19692 -19.508,-3.54972 -25.65321,-10.35173 -5.77506,-6.39231 -7.48862,-11.24564 -8.22611,-23.29892 l -0.64516,-10.54442 -5.6013,-0.66186 c -13.28362,-1.56964 -23.06634,-9.64172 -25.53043,-21.06609 -0.51582,-2.3915 -1.61096,-3.54407 -4.68437,-4.92998 -5.51501,-2.48692 -11.72962,-8.93214 -14.57973,-15.12073 l -2.38188,-5.17191 0.053,-42.09658 c 0.0589,-46.78175 0.12497,-47.30874 6.64389,-53.03242 4.00813,-3.51919 7.15653,-4.48711 12.02542,-3.697 4.11631,0.66799 9.93583,4.78088 10.85285,7.67014 0.53925,1.69901 1.21436,1.90907 4.46503,1.38927 2.10634,-0.33682 5.42119,-0.0872 7.36633,0.55479 4.2161,1.39144 9.95455,7.43913 11.73764,12.37017 0.74897,2.07123 2.14362,3.77538 3.35619,4.101 1.14109,0.30643 8.41747,0.56329 16.16972,0.5708 l 14.09501,0.0136 1.90499,-2.14505 c 1.04775,-1.17978 4.07929,-3.87693 6.73677,-5.99366 l 4.83177,-3.84861 -2.33177,-0.86846 C 220.5493,252.66657 209.375,248.54796 197,243.99175 c -12.375,-4.5562 -22.86041,-8.60116 -23.30092,-8.98879 -0.83039,-0.73073 5.48707,-18.5272 9.06986,-25.55005 3.86749,-7.5809 16.38109,-17.21402 22.73106,-17.49863 l 2,-0.0896 -2.25,-1.08513 c -2.97466,-1.43463 -2.84476,-3.4969 0.86337,-13.70702 4.09079,-11.26377 4.67339,-11.85244 9.75477,-9.85642 l 3.95801,1.55475 19.96132,-33.13541 19.96131,-33.13541 -4.77693,-2.18779 c -2.6273,-1.203283 -5.08024,-2.678564 -5.45096,-3.278402 -0.68366,-1.106187 3.90405,-14.436735 5.79828,-16.848094 0.63302,-0.805847 1.98733,-1.07462 3.5008,-0.694762 l 2.46838,0.619523 -0.66722,-5.677005 c -0.36697,-3.122352 -0.94544,-8.968241 -1.28547,-12.990865 l -0.61825,-7.313862 3.01316,-3.01316 c 3.94049,-3.940489 7.20512,-4.666235 12.64788,-2.8117 l 4.42714,1.508478 2.79123,-2.913421 C 284.99192,43.355218 293.45515,39 296.94634,39 H 299.5 v -4.92667 c 0,-6.145587 2.64432,-10.029862 8.1546,-11.978418 4.74484,-1.677879 8.11986,-0.997013 12.23907,2.469072 5.62126,4.729975 5.93156,13.433223 0.65566,18.389674 l -2.45371,2.305144 2.56933,3.368568 c 3.29104,4.314779 5.23558,9.796517 5.29116,14.915976 l 0.0439,4.043345 4.25,1.54075 c 5.61359,2.035091 9.12111,7.004566 8.37981,11.872559 -0.42307,2.778219 -2.36856,5.269167 -9.4339,12.078897 l -8.90093,8.578893 2.30907,2.05674 2.30906,2.05674 -3.02037,7.86436 c -1.6612,4.32541 -3.40869,8.25891 -3.88332,8.74114 -0.49302,0.50091 -3.02802,0.0982 -5.91347,-0.93938 -2.77779,-0.99888 -5.22656,-1.61843 -5.44171,-1.37677 C 306.18027,120.59299 294,192.13309 294,194.38457 c 0,0.87372 1.52007,2.22371 3.37792,2.99998 1.85786,0.77626 3.68682,1.91118 4.06435,2.52204 0.97992,1.58555 -6.14308,20.26702 -8.48506,22.2537 -2.45387,2.08161 -2.44233,2.50432 0.23116,8.46259 1.70284,3.79505 2.19412,6.81846 2.21428,13.62712 0.0143,4.8125 0.39961,8.75 0.85634,8.75 2.55185,0 28.45889,12.74937 71.45338,35.16363 53.32268,27.79865 52.7946,27.436 51.95482,35.67912 -1.18456,11.62743 -22.08999,22.03036 -38.52139,19.16895 -4.76311,-0.82946 -14.44109,-4.79447 -35.2656,-14.44811 l -28.70094,-13.30492 -0.048,14.62066 c -0.10627,32.41038 -9.17993,60.85896 -27.59921,86.5316 -5.50039,7.6664 -20.4717,25.49687 -24.18263,28.80093 -5.28774,4.70798 -16.60799,6.13317 -25.02524,3.1506 z m 19.11848,-4.51831 c 3.65573,-1.66566 20.9397,-21.6956 28.72036,-33.28328 7.67897,-11.43622 11.80317,-19.67404 16.26011,-32.47849 5.76017,-16.54854 7.64957,-27.33083 8.28174,-47.26168 l 0.56076,-17.6793 -9.88284,2.90964 c -23.96603,7.0559 -40.6138,6.10228 -58.88284,-3.37294 -8.95175,-4.64281 -19.74359,-14.52622 -25.83987,-23.66475 C 214.55729,282.86306 214.1384,281 216.85842,281 c 1.15441,0 3.30043,2.17821 5.66501,5.75 7.91449,11.95512 20.25206,21.68026 33.47657,26.38803 5.64621,2.00999 8.33894,2.30838 20.5,2.27168 l 14,-0.0423 12,-3.5733 c 9.77446,-2.9106 12.27819,-3.34186 13.5,-2.32531 0.825,0.6864 15,7.49007 31.5,15.11927 l 30,13.87128 9.52103,0.0203 9.52102,0.0203 6.4885,-3.19427 c 11.13329,-5.48091 15.1764,-12.1046 10.52558,-17.24371 -1.50615,-1.66427 -68.24966,-36.96928 -97.11728,-51.37168 C 307.56979,262.26546 295.3501,257 293.95022,257 c -0.38773,0 -2.17945,4.1625 -3.9816,9.25 -1.80215,5.0875 -3.54798,9.56815 -3.87962,9.957 -0.33165,0.38884 -13.19162,-3.98945 -28.57772,-9.72954 l -27.97473,-10.43653 -4.01759,2.65871 c -2.20967,1.46229 -6.33968,4.85485 -9.1778,7.53903 l -5.16022,4.88031 -16.24438,-0.71388 -16.24439,-0.71389 0.63287,6.4044 c 0.34808,3.52241 0.92916,10.08236 1.29129,14.57767 l 0.65842,8.17327 4.0396,-2.67327 c 3.44427,-2.27931 5.10611,-2.67328 11.27648,-2.67328 6.44544,0 7.70948,0.33215 11.55824,3.03716 7.60188,5.3428 9.72271,10.20992 11.38372,26.12457 l 0.6431,6.16174 4.16205,-1.88977 c 9.61477,-4.36557 21.22858,-0.75511 27.20158,8.45632 2.05048,3.1622 22.4178,86.27224 21.66593,88.40907 -0.25141,0.7145 -1.18621,1.15868 -2.07735,0.98706 -1.71318,-0.32993 -1.61743,0.0255 -14.08519,-52.28615 -7.91247,-33.19876 -8.41965,-34.74559 -12.59466,-38.41129 -10.36376,-9.09951 -25.42688,-3.98507 -28.50879,9.6797 -1.14703,5.08578 10.41307,83.26265 13.14735,88.91092 5.19291,10.72712 19.648,16.04367 30.3559,11.16482 z M 222,425.6779 c 0,-0.17715 -2.475,-17.58221 -5.5,-38.6779 -3.025,-21.09569 -5.4956,-39.73825 -5.49023,-41.4279 0.005,-1.68966 1.13572,-5.49082 2.51188,-8.44703 l 2.50211,-5.37494 -1.38658,-11.31813 c -1.90038,-15.51215 -5.04772,-20.38873 -14.53458,-22.52028 -8.3901,-1.88513 -16.56246,2.48862 -19.62275,10.50187 l -1.66385,4.35672 1.64137,44.86484 c 1.77707,48.57391 2.09012,50.93385 7.65166,57.68096 4.71178,5.7162 11.13015,8.48724 22.06439,9.52598 5.12962,0.48731 9.88908,0.94719 10.57658,1.02196 0.6875,0.0748 1.25,-0.009 1.25,-0.18615 z m -45.98888,-68.24724 c -1.5032,-35.87217 -1.50535,-46.46892 -0.0103,-50.57862 1.12477,-3.09174 1.05667,-6.52238 -0.44664,-22.5 -0.97557,-10.36862 -2.4489,-20.54122 -3.27406,-22.60576 -4.7057,-11.7736 -18.82066,-11.70078 -23.91849,0.1234 -1.40259,3.25322 -1.44333,8.46047 -0.39225,50.13032 1.25988,49.94747 1.7216,54.10249 6.66497,59.97735 3.49466,4.15316 9.21067,6.93846 16.1562,7.87261 3.14018,0.42234 5.81561,0.71017 5.94542,0.63962 0.1298,-0.0705 -0.1964,-10.44706 -0.72489,-23.05892 z M 144.49348,341.25 c -1.6626,-38.45187 -2.26946,-73.16354 -1.35415,-77.45518 0.5859,-2.74706 2.32385,-6.15134 4.31288,-8.44801 l 3.33154,-3.84681 -1.34782,-2.61516 c -1.2976,-2.5177 -6.79306,-5.88884 -9.58706,-5.8811 -3.11994,0.009 -8.06821,4.23788 -9.95866,8.51156 l -1.97374,4.46196 0.29176,41.26137 L 128.5,338.5 l 2.16237,4 c 2.93369,5.42679 10.50177,12.34972 13.63163,12.46959 0.43671,0.0167 0.52647,-6.15709 0.19948,-13.71959 z m -73.747557,80.66433 c -9.929827,-2.34028 -18.859132,-9.6016 -23.108595,-18.79193 -3.052769,-6.60223 -2.970031,-22.48402 0.15313,-29.39355 7.71546,-17.0693 30.899995,-24.51145 48.504602,-15.5698 12.82759,6.51534 19.90524,21.25597 17.51734,36.4834 -3.07796,19.62792 -22.721064,32.06693 -43.066477,27.27188 z M 431.67757,421.0975 C 416.78222,416.17056 408.75783,405.00891 408.60185,389 c -0.0982,-10.07582 2.25551,-16.58859 8.44087,-23.35636 13.74415,-15.03829 38.36466,-15.16254 52.20619,-0.26347 11.39917,12.2701 11.31398,33.79765 -0.18558,46.89492 -7.90319,9.00123 -24.79438,12.98727 -37.38576,8.82241 z m -53.34835,-16.68194 c -0.41403,-1.07895 1.58138,-3.79072 6.25457,-8.5 L 391.44636,389 H 360.72318 330 v -2 -2 h 30.72318 30.72318 l -6.86257,-6.91556 c -4.67319,-4.70928 -6.6686,-7.42105 -6.25457,-8.5 C 378.66363,368.713 379.29774,368 379.73837,368 c 0.44062,0 5.05836,4.275 10.26163,9.5 l 9.4605,9.5 -9.4605,9.5 c -5.20327,5.225 -9.82101,9.5 -10.26163,9.5 -0.44063,0 -1.07474,-0.713 -1.40915,-1.58444 z m 114.76955,-25.23101 c -0.8203,-1.53273 -0.45838,-2.28189 1.96956,-4.07695 1.63598,-1.20953 3.41488,-1.927 3.95309,-1.59436 1.80458,1.11529 1.00306,3.33314 -1.96956,5.44983 l -2.94813,2.09926 z m 11.04196,-9.51498 c -0.84403,-1.017 -0.43816,-1.96849 1.72285,-4.03887 2.5216,-2.41585 2.96761,-2.53903 4.12849,-1.14026 1.09508,1.3195 0.93339,1.96 -1.01961,4.03888 -2.6612,2.83271 -3.30167,2.98386 -4.83173,1.14025 z m 9.11051,-10.81833 C 511.80281,357.40281 514.33845,352 516.46666,352 c 2.33499,0 2.70699,1.76351 1.04853,4.97063 -1.7015,3.29032 -2.50143,3.64313 -4.26395,1.88061 z M 75,343 c 0,-3.33333 0.333333,-4 2,-4 1.666667,0 2,0.66667 2,4 0,3.33333 -0.333333,4 -2,4 -1.666667,0 -2,-0.66667 -2,-4 z m 445.13323,3.10351 c -1.10261,-0.69853 -1.14263,-1.545 -0.20705,-4.37984 0.91302,-2.76648 1.57602,-3.4051 3.11677,-3.00219 2.27299,0.5944 2.32723,0.91817 0.85922,5.1293 -1.16887,3.35303 -1.61305,3.61852 -3.76894,2.25273 z m 3.26081,-14.51904 c -0.29875,-0.77854 -0.39713,-2.69104 -0.21861,-4.25 0.25257,-2.20572 0.76821,-2.75793 2.32457,-2.4894 2.62254,0.45248 2.52617,0.21881 1.83834,4.45744 -0.6057,3.73246 -2.88227,5.04956 -3.9443,2.28196 z M 75,327.5 c 0,-3.83333 0.296296,-4.5 2,-4.5 1.703704,0 2,0.66667 2,4.5 0,3.83333 -0.296296,4.5 -2,4.5 -1.703704,0 -2,-0.66667 -2,-4.5 z m 448.41121,-11.99776 c -0.84322,-3.35965 0.19507,-5.72352 2.33577,-5.31783 1.2264,0.23242 1.84626,1.45626 2.06339,4.07391 0.26556,3.20162 0.0157,3.74168 -1.73095,3.74168 -1.34293,0 -2.2558,-0.85455 -2.66821,-2.49776 z M 69.5,314.59785 C 59.156114,311.31793 51.782153,305.08643 47.637328,296.1224 45.901753,292.36887 45.501906,289.6203 45.51014,281.5 l 0.01014,-10 3.4197,-6.32601 C 55.358728,253.30011 65.273828,247.62626 79.5,247.6862 c 20.355327,0.0858 34.55559,13.73763 34.61736,33.28047 0.0369,11.68097 -3.12601,19.15851 -11.15872,26.38061 -8.40216,7.55426 -22.71756,10.65645 -33.45864,7.25057 z M 521.1098,300.88513 C 519.91372,297.45404 520.35244,296 522.58377,296 c 1.44807,0 3.41623,3.78229 3.41623,6.5651 0,2.82329 -3.77209,1.52743 -4.8902,-1.67997 z m -86.51961,-7.79069 -0.67743,-5.98777 -5.57723,-2.55333 C 425.26806,283.149 422.36399,282 421.88204,282 c -0.48195,0 -2.70635,1.65336 -4.94311,3.67414 l -4.06684,3.67414 -5.09523,-5.09523 -5.09523,-5.09523 4.009,-4.82891 4.00899,-4.82891 -2.33694,-5 c -1.28532,-2.75 -2.34274,-5.5625 -2.34981,-6.25 -0.008,-0.77303 -1.44378,-1.25521 -3.76287,-1.26365 -2.0625,-0.008 -4.7625,-0.285 -6,-0.61664 L 394,255.76674 V 249.00837 242.25 l 3.125,-0.625 c 1.71875,-0.34375 4.42989,-0.625 6.02475,-0.625 2.24541,0 3.13365,-0.62055 3.9363,-2.75 0.5701,-1.5125 1.68396,-4.05664 2.47525,-5.65364 1.9705,-3.97694 1.83525,-4.87681 -1.15312,-7.67205 -4.89292,-4.57669 -4.87702,-5.44889 0.1849,-10.1388 2.544,-2.35703 4.93645,-4.40557 5.31656,-4.5523 0.38012,-0.14674 2.56001,1.3329 4.8442,3.28808 l 4.15308,3.55488 6.54654,-2.28476 c 5.70259,-1.99022 6.54796,-2.60748 6.55755,-4.78809 0.006,-1.37682 0.28993,-4.19082 0.63084,-6.25332 l 0.61983,-3.75 h 6.74416 6.74416 l 0.625,3.125 c 0.34375,1.71875 0.625,4.56094 0.625,6.31599 v 3.19098 l 5.72145,2.43402 c 3.14679,1.3387 6.04052,2.57359 6.43051,2.74418 0.38999,0.1706 2.48238,-1.2919 4.64976,-3.25 2.16737,-1.95809 4.32068,-3.56017 4.78513,-3.56017 0.46445,0 2.97652,2.1 5.58237,4.66668 l 4.73792,4.66667 -4.06652,4.85702 -4.06653,4.85701 2.11296,4.91169 C 479.04917,237.6605 480,240.57484 480,241.43538 480,242.64279 481.12286,243 484.91821,243 492.72424,243 493,243.27264 493,250.99049 v 6.77652 l -6.28906,0.6735 -6.28905,0.6735 -2.69839,6.10532 -2.69839,6.10533 3.48745,4.25597 c 1.91809,2.34078 3.48744,4.64904 3.48744,5.12946 0,1.0822 -8.27808,9.28991 -9.36955,9.28991 -0.43662,0 -2.74411,-1.59808 -5.12775,-3.5513 l -4.33389,-3.5513 -6.54141,2.28297 -6.54142,2.28297 -0.29299,5.51833 L 449.5,298.5 l -7.11618,0.29111 -7.11619,0.29111 z m 81.12128,-5.57331 -1.65896,-3.47887 1.97327,-1.05606 c 1.71109,-0.91574 2.20098,-0.57853 3.68714,2.53797 1.48902,3.12252 1.52188,3.71546 0.25047,4.51962 -2.20178,1.39261 -2.45709,1.24114 -4.25192,-2.52266 z m -7.6164,-11.67169 c -1.97361,-2.49471 -2.15296,-3.19943 -1,-3.92936 2.01889,-1.27815 2.30552,-1.18703 4.87739,1.5506 1.92551,2.04961 2.10478,2.73133 1.05187,4 -1.705,2.0544 -2.13266,1.91374 -4.92926,-1.62124 z m -10.06753,-10.32012 c -1.953,-2.07888 -2.11469,-2.71938 -1.01961,-4.03888 1.16148,-1.3995 1.59944,-1.28273 4.07133,1.0855 2.69408,2.58109 2.9499,5.42406 0.48807,5.42406 -0.67029,0 -2.26319,-1.11181 -3.53979,-2.47068 z M 67.105659,229.6061 C 58.603876,221.06882 56.80011,218 60.283921,218 c 0.641238,0 4.21468,3.02543 7.940983,6.72318 L 75,231.44636 74.996649,217.97318 74.993299,204.5 66.246649,202.7926 C 50.060855,199.63303 35.923457,192.13368 24.480985,180.63749 8.6097542,164.69176 0.67522444,145.14771 0.67522444,122 c 0,-17.97064 4.63578956,-33.009468 14.50909956,-47.068552 l 5.046658,-7.18618 8.466605,8.466605 8.466606,8.466606 -4.049226,6.264939 c -6.113585,9.458902 -8.287777,16.097672 -8.861232,27.057272 -0.360106,6.88218 -0.04656,11.29197 1.137621,16 5.364038,21.32606 22.48968,38.84131 44.310773,45.31884 l 5.202128,1.54424 0.297872,-5.68189 C 75.425013,170.93037 75.877614,169.5 77,169.5 c 1.128999,0 1.575177,1.45571 1.803951,5.88563 l 0.30395,5.88563 8.69605,-0.50977 c 9.817911,-0.57554 18.145669,-3.46346 27.085859,-9.39288 l 5.38981,-3.5747 8.47243,8.47243 8.47243,8.47242 -6.46878,4.61603 c -12.85349,9.17206 -28.19126,14.43556 -43.400851,14.89399 L 79.020115,204.5 79.010057,217.97318 79,231.44636 l 6.775096,-6.72318 c 6.761042,-6.70923 8.499175,-7.70645 9.790478,-5.61708 C 96.159719,220.06745 78.491302,239 77,239 c -0.296725,0 -4.749179,-4.22725 -9.894341,-9.3939 z M 349.66893,193.25 c -0.247,-0.4125 -0.0754,-3 0.38138,-5.75 0.45676,-2.75 0.85729,-5.5625 0.89008,-6.25 0.0724,-1.5185 2.68718,-1.66162 3.59259,-0.19664 0.35805,0.57934 0.34043,3.72934 -0.0392,7 -0.5642,4.86119 -1.02655,5.94664 -2.53298,5.94664 -1.01354,0 -2.04489,-0.3375 -2.2919,-0.75 z m 19.60733,-11.38675 c -4.4631,-3.49691 -5.07439,-4.37192 -4.19813,-6.00923 l 1.0256,-1.91635 2.69813,1.98023 c 7.56834,5.55459 8.35939,6.49426 6.99578,8.31017 L 374.5,185.95613 Z m 64.9126,-5.1736 c -6.77327,-6.80155 -9.09693,-9.76565 -8.62326,-11 0.35661,-0.92931 0.92715,-1.68965 1.26787,-1.68965 0.34073,0 3.94093,3.2625 8.00046,7.25 l 7.38096,7.25 -0.66179,-9.5 C 439.11697,134.029 428.19823,101.81634 410.26146,76.682872 401.95727,65.04682 386.12234,48.959343 374.04919,39.893041 362.36992,31.122527 341.36622,19.902969 327.5,15.027834 315.8684,10.938355 298.01482,6.5844041 286,4.907234 c -12.22508,-1.7065202 -42.77492,-1.7065202 -55,0 -34.74029,4.8494602 -67.61629,18.604075 -93.5,39.118409 -3.3,2.61544 -6.78671,5.626688 -7.74825,6.691662 l -1.74826,1.936316 6.46243,5.243257 c 13.11962,10.644531 24.94667,30.655374 28.60998,48.406792 1.04381,5.05798 1.90374,10.65883 1.91096,12.44633 L 165,122 h 24.22497 24.22497 l -7.28161,-7.33054 c -6.50228,-6.54596 -7.10793,-7.4747 -5.65877,-8.67739 1.42478,-1.18246 2.80396,-0.16573 11.30023,8.33054 l 9.67739,9.67739 -9.67739,9.67739 c -8.49627,8.49627 -9.87545,9.513 -11.30023,8.33054 -1.44916,-1.20269 -0.84351,-2.13143 5.65877,-8.67739 L 213.44994,126 H 189.36857 165.2872 l -0.6467,6.95817 c -1.24287,13.37286 -8.56141,30.7922 -17.03318,40.54183 l -3.47572,4 -8.0658,-7.97654 C 131.62961,165.13636 128,161.1999 128,160.77577 c 0,-0.42413 1.59261,-2.98794 3.53913,-5.69736 6.35006,-8.83881 8.71461,-16.1671 9.22113,-28.57841 0.50711,-12.4256 -0.92865,-19.84781 -5.80323,-30 -5.81884,-12.118772 -20.99249,-27.37531 -24.40766,-24.540975 -1.66708,1.383558 -13.918089,20.059367 -13.39604,20.421338 0.190669,0.132203 2.738984,1.741746 5.66292,3.576763 10.89265,6.836044 15.60729,16.513954 15.02614,30.844654 -0.41495,10.23232 -2.90445,16.31433 -9.28999,22.696 -15.983605,15.97391 -46.448502,11.74366 -55.982508,-7.77353 -7.368119,-15.08338 -4.41264,-32.53105 7.249312,-42.79631 7.249854,-6.381577 20.249312,-10.046046 28.81241,-8.122046 l 4.121925,0.926135 7.495221,-11.399341 c 6.36029,-9.67325 7.24961,-11.529604 5.87323,-12.259617 C 103.00923,66.422114 93.611443,64 90.318499,64 H 87 v -12.143599 -12.1436 l 6.958174,0.646694 c 7.936046,0.737578 20.643656,4.541287 26.541826,7.944643 l 4,2.308075 5.62331,-4.917047 C 156.59479,22.54838 193.34905,6.3910102 230.65586,1.5005142 c 14.3628,-1.882798 41.51211,-1.90505359 55.4805,-0.04548 64.27347,8.5565538 117.1586,45.6392848 142.27931,99.7654058 9.35535,20.15741 16.46276,48.99899 16.57966,67.27956 0.063,9.84461 0.36235,9.92151 8.02952,2.06231 l 6.88974,-7.06231 1.76499,1.758 1.76499,1.758 -9.45254,9.492 C 448.79314,181.7286 444.29673,186 444,186 c -0.29673,0 -4.71174,-4.18966 -9.81114,-9.31035 z m -103.58187,0.72856 C 330.27314,176.54823 330,175.7031 330,175.54014 c 0,-0.16296 2.74226,-1.32183 6.09392,-2.57526 5.11533,-1.91301 6.23697,-2.05303 6.98469,-0.87193 1.43892,2.27291 1.1908,2.52639 -4.66759,4.76827 -6.68702,2.55897 -7.0265,2.5832 -7.80403,0.55699 z m 36.76866,-13.88167 c -0.84322,-2.19738 0.10603,-3.00048 6.31315,-5.34119 4.43178,-1.67122 5.27068,-1.74333 5.75,-0.49424 1.00317,2.61421 0.62183,3.08966 -3.6888,4.59911 -2.3375,0.81853 -5.03371,1.80752 -5.99157,2.19776 -1.16824,0.47595 -1.95266,0.15944 -2.38278,-0.96144 z m -29.18717,-6.30924 c -3.12844,-2.71599 -4.12808,-4.22113 -3.64301,-5.4852 0.36768,-0.95815 0.88704,-1.7421 1.15413,-1.7421 1.57177,0 10.20886,7.75323 10.0132,8.98852 -0.42478,2.68182 -3.13812,2.04671 -7.52432,-1.76122 z m 17.33431,-6.9773 c 0.98181,-7.22672 1.43832,-8.25 3.68052,-8.25 h 2.06854 l -0.63593,4.63957 C 360.28617,149.19134 360,152.11634 360,153.13957 360,154.46923 359.26928,155 357.43873,155 h -2.56128 z M 36.163682,69.664537 c -4.490025,-4.513472 -8.156845,-8.646913 -8.148488,-9.185425 0.0231,-1.488623 9.669358,-8.274225 17.091967,-12.023241 8.31877,-4.20165 17.596981,-7.198529 25.642839,-8.282685 L 77,39.331017 v 12.225989 12.22599 l -6.961356,1.572074 c -7.287292,1.645679 -14.73183,4.990091 -21.624962,9.714878 l -4.086318,2.800901 z"
         id="path4" />
      <path
         style="fill:#63dfac"
         d="m 241.47909,448.25946 c -2.7615,-0.98836 -6.43215,-2.80191 -8.15701,-4.03012 C 230.05451,441.90262 224,433.57551 224,431.40815 c 0,-0.81873 -2.3252,-1.44614 -6.75,-1.82138 -22.17239,-1.88026 -29.51558,-5.30941 -35.69936,-16.67106 -2.48924,-4.57355 -2.96957,-6.77878 -3.52371,-16.17746 -0.69476,-11.78361 -1.16012,-12.69114 -6.52693,-12.72851 -11.40699,-0.0794 -23.21686,-9.5008 -25.42145,-20.28007 -0.48547,-2.37366 -1.73378,-3.71083 -5.29241,-5.6691 -6.22851,-3.42748 -9.96445,-7.1541 -13.41682,-13.38335 L 124.5,339.5 124.19909,298 c -0.33745,-46.53956 -0.17491,-48.02418 5.92563,-54.12472 6.65285,-6.65285 14.92786,-6.1366 21.319,1.33 2.98862,3.49154 3.8857,3.97884 6.39929,3.47612 7.33876,-1.46775 16.48944,4.80945 18.94144,12.99349 l 1.20974,4.03776 15.73377,0.52878 15.73377,0.52878 5.01913,-4.53494 c 2.76053,-2.49422 6.34117,-5.34652 7.95697,-6.33844 l 2.93784,-1.8035 -2.43784,-0.91939 c -1.3408,-0.50567 -13.09229,-4.86057 -26.11441,-9.67757 l -23.67658,-8.75818 3.02654,-8.11909 c 1.6646,-4.46551 3.63834,-9.81154 4.3861,-11.88008 3.35172,-9.27199 11.31067,-17.28379 21.13723,-21.2776 l 5.55353,-2.25713 -2.12512,-1.13733 c -1.16882,-0.62553 -2.12293,-1.68399 -2.12025,-2.35214 0.009,-2.22653 7.03082,-20.11884 8.17266,-20.82454 0.61849,-0.38224 2.82675,-0.0944 4.90726,0.63964 2.89533,1.02153 3.99727,1.05727 4.69723,0.15235 2.23116,-2.88449 38.71798,-64.28374 38.71798,-65.1538 0,-0.53434 -2.025,-1.71845 -4.5,-2.63136 -2.57112,-0.948364 -4.64757,-2.400276 -4.84427,-3.387254 -0.47491,-2.382903 4.77986,-16.483054 6.19572,-16.62501 0.6317,-0.06333 1.93605,-0.03505 2.89855,0.06286 2.07968,0.211548 2.21365,-2.283506 0.78823,-14.679917 -1.07782,-9.373487 -0.20874,-13.270819 3.50141,-15.701803 2.80618,-1.838681 7.85886,-2.020232 12.37823,-0.44477 l 3.21632,1.121214 3.13,-3.201439 c 3.73674,-3.822028 8.93088,-6.611756 14.12433,-7.586052 3.37771,-0.633662 3.74297,-0.986749 3.3184,-3.20775 C 298.28779,28.823475 304.10555,22 311.85422,22 c 5.32167,0 8.45847,1.770215 10.65149,6.011044 2.90295,5.613675 1.34647,12.132212 -3.78492,15.851309 l -1.87969,1.362353 2.46529,2.637647 c 3.70631,3.965432 5.79942,8.762732 6.41172,14.695298 l 0.55037,5.332614 3.79163,1.517108 C 335.79164,71.700677 338,74.599816 338,79.83087 v 4.453748 l -9,8.485216 C 319.94826,101.30383 318.70996,103 321.53138,103 c 0.84227,0 1.79663,0.69121 2.12082,1.53602 0.8109,2.11319 -4.55961,16.49122 -6.42758,17.20803 -0.83206,0.31929 -3.54343,-0.17206 -6.02526,-1.09189 -2.48184,-0.91984 -4.64066,-1.54419 -4.79739,-1.38747 -0.15672,0.15673 -3.01871,16.47379 -6.35996,36.26014 -3.34125,19.78634 -6.3012,36.98786 -6.57767,38.2256 -0.42092,1.88447 0.16821,2.51886 3.62282,3.90112 l 4.12548,1.65069 -0.52206,3.09888 C 299.77308,207.84722 293.87254,222 292.51945,222 c -2.34082,0 -2.44647,2.77722 -0.2732,7.18152 1.58626,3.21467 2.23884,6.77529 2.5531,13.93037 l 0.42217,9.6119 5.63924,2.28486 c 12.04745,4.88128 110.54433,55.53481 114.52726,58.89739 2.87629,2.42831 4.67462,7.53075 3.94317,11.18802 -0.90169,4.50844 -7.30978,10.52594 -15.17994,14.25469 L 397.5,342.5 H 387 376.5 l -29.5,-13.71627 -29.5,-13.71627 -0.62606,16.71627 c -1.1562,30.87118 -8.78588,55.98432 -24.1421,79.46394 -8.21456,12.56004 -26.33355,33.50849 -31.07457,35.92718 -5.6232,2.86874 -13.94365,3.31598 -20.17818,1.08461 z M 259.83311,443.75 c 4.58289,-2.48609 21.18174,-21.55953 28.93615,-33.25 6.01651,-9.07044 13.34797,-23.93196 16.70892,-33.87043 5.35382,-15.83153 6.67351,-23.92919 7.2326,-44.37957 0.28945,-10.5875 0.35949,-19.25 0.15564,-19.25 -0.20385,0 -5.09469,1.39575 -10.86853,3.10166 -12.47626,3.68617 -29.09177,4.92524 -39.26606,2.92819 -17.02652,-3.34204 -31.80237,-13.4607 -43.41041,-29.72791 -3.19873,-4.48261 -4.2729,-6.75046 -3.54306,-7.4803 1.49169,-1.49169 2.71749,-0.45429 7.11518,6.0216 8.45325,12.44795 23.22974,23.14009 36.60646,26.48811 14.41586,3.60811 24.41636,3.03419 43.63788,-2.50434 l 10.93912,-3.15201 3.7115,2.07455 c 2.04133,1.141 15.93963,7.72377 30.88513,14.62836 18.6274,8.60559 29.00604,12.84672 33,13.48512 11.28164,1.8033 23.81223,-2.2309 30.73691,-9.89569 3.96058,-4.38389 4.51587,-7.64929 1.83946,-10.81703 -2.88973,-3.42023 -103.16456,-55.30661 -116.89539,-60.48656 l -4.14538,-1.56384 -3.13889,8.70004 c -1.72639,4.78503 -3.52844,9.32874 -4.00454,10.09714 -0.70024,1.13014 -6.15948,-0.56336 -28.57065,-8.86282 l -27.705,-10.25992 -2.43679,1.30413 c -1.34023,0.71727 -5.54212,3.91804 -9.33752,7.11282 L 211.11511,270 h -16.49468 -16.49469 l 0.44028,3.25 C 179.2498,278.29742 181,295.73686 181,297.50274 c 0,1.30679 0.73839,1.15693 4.25,-0.86255 8.18779,-4.70868 15.47312,-4.58358 22.98902,0.39474 6.24996,4.1398 8.72726,9.22897 10.28139,21.12126 0.71913,5.50278 1.49817,10.19573 1.73122,10.42877 0.23304,0.23304 1.95926,-0.35116 3.83604,-1.29823 10.01073,-5.05164 24.52836,0.68273 28.68505,11.33041 0.95824,2.45461 13.5125,54.13168 18.76212,77.2305 1.6388,7.21087 1.07059,10.89507 -1.22532,7.94474 -0.55314,-0.71081 -5.3912,-19.74238 -10.75124,-42.29238 -10.69286,-44.98549 -11.52741,-47.22089 -18.87442,-50.55654 -10.31681,-4.68399 -21.59549,0.35413 -24.80974,11.08237 -0.95411,3.18452 -0.26179,9.811 4.55672,43.6146 3.12496,21.92276 6.20367,41.65957 6.84157,43.85957 1.44193,4.97293 9.86221,13.65909 14.72759,15.19264 6.0859,1.91825 13.25819,1.53913 17.83311,-0.94264 z M 222,424.10529 c 0,-1.04208 -2.4869,-18.92568 -5.52645,-39.74132 -3.18138,-21.78693 -5.26146,-39.12332 -4.90198,-40.8553 0.34346,-1.65477 1.56114,-4.9232 2.70596,-7.26318 l 2.08149,-4.25451 -1.2408,-10.67429 c -1.47481,-12.68753 -2.63449,-15.80677 -7.44788,-20.03299 -3.97972,-3.49424 -8.85881,-4.83935 -14.33199,-3.95118 -4.70124,0.76291 -7.74761,2.86931 -11.3582,7.85358 L 179,309.30008 l 0.002,10.09996 c 0.002,10.20192 1.46072,53.43475 2.51628,74.55802 0.64225,12.85235 2.16926,17.47628 7.55334,22.87217 4.8398,4.85041 10.38061,7.30926 18.37244,8.15312 C 220.21629,426.33203 222,426.22443 222,424.10529 Z M 177.01138,377.25 c 0.006,-2.0625 -0.51293,-17.7617 -1.15375,-34.88712 -1.04155,-27.83474 -0.9973,-31.55654 0.41718,-35.09167 l 1.58229,-3.95454 -1.88558,-19.08761 c -2.00901,-20.33714 -3.09017,-24.40363 -7.59995,-28.58534 -7.49054,-6.94562 -18.04487,-2.49883 -21.25805,8.95652 -1.10134,3.92641 1.61651,94.47466 2.99274,99.70643 1.13971,4.33267 6.80494,11.07893 11.22155,13.36285 1.63796,0.84702 5.04677,1.88996 7.57515,2.31764 8.1501,1.37861 8.09587,1.39692 8.10842,-2.73716 z m -33.1133,-65.90252 c -0.68216,-24.11612 -0.91984,-45.5247 -0.52816,-47.57463 0.39167,-2.04993 2.27675,-5.77692 4.18907,-8.28218 3.85604,-5.0517 3.68139,-6.58323 -1.18753,-10.41312 -5.1982,-4.0889 -12.37612,-1.9725 -16.16321,4.76571 l -2.27023,4.03933 0.28099,42.88861 0.28099,42.88861 3.02914,4.9201 c 2.68792,4.36586 12.03379,12.19049 13.18523,11.03905 0.23321,-0.2332 -0.13412,-20.15537 -0.81629,-44.27148 z m 235.29059,93.37985 c -0.94001,-1.13264 0.22236,-2.79353 5.99503,-8.5662 L 392.34483,389 H 361.17241 330 v -2 -2 h 31 c 26.88889,0 31,0.19892 31,1.5 0,0.825 0.45,1.5 1,1.5 2.03026,0 0.81948,-1.63969 -7.05812,-9.55843 -6.50658,-6.54055 -7.79525,-8.31837 -6.69283,-9.2333 1.08297,-0.89879 3.31531,0.82504 10.79503,8.336 l 9.42973,9.4691 -9.55952,9.55952 c -7.85071,7.85071 -9.76796,9.30835 -10.72562,8.15444 z M 70.962689,398.25 c -8.823629,-7.90683 -3.382411,-22.25703 8.435194,-22.24626 12.093786,0.011 17.857762,13.70773 9.151465,21.74626 -3.082309,2.8459 -4.203703,3.25 -9.018886,3.25 -4.588176,0 -6.007176,-0.45546 -8.567773,-2.75 z m 16.387522,-4.47075 c 2.439025,-2.96384 1.675222,-9.53049 -1.398,-12.01903 -3.223751,-2.61044 -10.067683,-2.34572 -12.662962,0.48978 -3.023375,3.30323 -3.561035,6.16376 -1.903958,10.1297 1.096131,2.62342 2.323845,3.75258 4.79409,4.40928 4.207117,1.11844 8.789693,-0.11624 11.17083,-3.00973 z m 348.412359,5.65536 C 432.19058,397.49647 430,393.12388 430,387.93201 c 0,-3.50747 0.61471,-4.78202 3.88235,-8.04966 3.40072,-3.40071 4.46138,-3.88235 8.54966,-3.88235 5.77499,0 10.06334,2.12344 12.05106,5.96727 3.21673,6.22046 1.07249,14.65984 -4.45034,17.5158 -3.70007,1.91338 -10.69829,1.88962 -14.27016,-0.0485 z M 449.75,394.68765 c 3.1908,-2.88771 3.08962,-8.93894 -0.20455,-12.2331 C 444.03693,376.94602 434,380.73286 434,388.31969 c 0,8.29255 9.41656,12.09981 15.75,6.36796 z m 43.91667,-15.35432 c -1.20592,-1.20591 -0.70225,-2.26391 1.88468,-3.95893 1.98697,-1.30192 2.81649,-1.40568 3.75,-0.46906 0.93219,0.93529 0.64289,1.6303 -1.30135,3.12642 -2.74718,2.11398 -3.34221,2.2927 -4.33333,1.30157 z m 10.663,-9.91661 c -0.81409,-2.12148 2.81077,-5.6838 4.94876,-4.86337 1.47107,0.5645 1.41771,0.93863 -0.50479,3.53894 -2.42847,3.28469 -3.5621,3.62255 -4.44397,1.32443 z M 513,358.04705 C 513,356.00684 515.38639,352 516.6015,352 c 2.20595,0 2.54631,1.84477 0.82505,4.47175 -1.61906,2.471 -4.42655,3.47011 -4.42655,1.5753 z M 75,343 c 0,-3.33333 0.333333,-4 2,-4 1.666667,0 2,0.66667 2,4 0,3.33333 -0.333333,4 -2,4 -1.666667,0 -2,-0.66667 -2,-4 z m 445.22966,3.14194 C 518.50687,345.0772 520.62834,339 522.72283,339 c 1.18659,0 1.3836,0.71783 0.88342,3.21875 -0.77571,3.87853 -1.70389,4.95697 -3.37659,3.92319 z m 3.8657,-14.083 C 522.36816,330.99147 523.62783,325 525.57946,325 c 0.95217,0 1.42054,1.13454 1.42054,3.44098 0,3.76363 -0.8851,4.8661 -2.90464,3.61796 z M 75,327.5 c 0,-2.83333 0.380952,-3.5 2,-3.5 1.619048,0 2,0.66667 2,3.5 0,2.83333 -0.380952,3.5 -2,3.5 -1.619048,0 -2,-0.66667 -2,-3.5 z m 449,-13 c 0,-4.26365 2.51067,-4.84009 3.29145,-0.7557 0.61077,3.19502 0.14956,4.2557 -1.85047,4.2557 C 524.46081,318 524,316.88074 524,314.5 Z m -2.49464,-13.4756 c -1.19802,-5.45456 1.8834,-7.11126 3.30033,-1.7744 0.56857,2.14153 0.49306,3.50058 -0.22141,3.98469 -1.85534,1.25714 -2.40383,0.86339 -3.07892,-2.21029 z M 434.98469,293.75 c -0.008,-2.8875 -0.34592,-5.73098 -0.75,-6.31885 -0.40408,-0.58787 -2.75969,-1.86548 -5.23469,-2.83913 -2.475,-0.97365 -5.07877,-2.24877 -5.78616,-2.8336 -0.94938,-0.7849 -1.99676,-0.42671 -4,1.36795 -1.49261,1.3372 -3.63948,3.19694 -4.77082,4.13276 l -2.05699,1.70149 -4.74099,-4.81337 -4.74099,-4.81337 3.94704,-4.77646 3.94704,-4.77647 -1.81104,-4.64047 c -0.99608,-2.55227 -2.03698,-5.36399 -2.31312,-6.24829 C 406.15816,257.2404 401.95558,256 396.875,256 H 394 v -7 -7 h 3.375 c 5.2175,0 9.625,-1.12444 9.625,-2.45552 0,-0.66304 1.11318,-3.40434 2.47374,-6.09179 l 2.47374,-4.88626 -3.90841,-4.63515 -3.90842,-4.63515 4.86151,-4.78841 4.86151,-4.78841 4.64806,3.97304 4.64805,3.97303 6.39588,-2.51323 6.39588,-2.51323 0.6584,-5.81946 L 437.25833,201 H 444.12917 451 l 0.011,2.75 c 0.022,5.51062 1.24878,10.25 2.65308,10.25 0.77132,0 3.52494,1.07424 6.11915,2.3872 l 4.71676,2.3872 4.49759,-3.87771 4.49759,-3.8777 4.90408,4.90408 4.90409,4.90409 -4.07794,4.77079 -4.07795,4.77078 1.78437,3.56564 c 0.9814,1.96109 2.07063,4.75865 2.42051,6.21677 l 0.63614,2.65115 6.00576,0.69704 L 492,244.19637 V 251.09819 258 l -5.25,0.0153 c -6.1384,0.0179 -6.83512,0.40599 -8.5,4.73469 -0.6875,1.7875 -1.79457,4.58917 -2.46015,6.22593 -1.08822,2.67607 -0.95722,3.25545 1.30001,5.75 5.25459,5.80703 5.25171,5.51282 0.10348,10.58364 l -4.74742,4.67603 -4.68367,-3.87036 -4.68367,-3.87036 -6.42685,2.52541 -6.42685,2.5254 -0.6621,5.85216 L 448.90069,299 H 441.95034 435 Z m -369.828742,1.93791 c -0.836991,-1.00852 0.407451,-2.79519 5.378547,-7.7221 l 6.467488,-6.41 -6.211594,-6.2673 C 65.899225,270.35348 64.838392,268.76161 65.8,267.8 c 0.961608,-0.96161 2.553738,0.0995 7.489729,4.9916 l 6.268522,6.2128 5.939571,-6.0022 C 88.764586,269.70099 91.987422,267 92.65968,267 c 3.20439,0 2.02113,2.65581 -3.554312,7.97761 C 85.747416,278.18279 83,281.20063 83,281.68391 c 0,0.48328 2.685408,3.53608 5.967574,6.784 4.717889,4.66866 5.729797,6.19181 4.83213,7.27343 -0.920721,1.1094 -2.322663,0.19146 -7.413392,-4.85402 l -6.277949,-6.22214 -1.787744,1.41741 c -0.98326,0.77957 -3.865294,3.55491 -6.404521,6.16741 -5.105701,5.25303 -5.209794,5.30597 -6.76015,3.43791 z M 516.14781,287.42506 C 514.96774,284.83509 515.33497,283 517.03334,283 c 1.21345,0 4.06291,5.57042 3.26011,6.37322 -1.32242,1.32242 -3.01865,0.52531 -4.14564,-1.94816 z m -7.73273,-11.91432 c -1.33358,-2.0353 -1.44634,-2.8786 -0.50974,-3.81209 0.93529,-0.93219 1.62998,-0.64289 3.12497,1.30135 1.05728,1.375 1.79236,2.92187 1.63351,3.4375 -0.61739,2.00402 -2.61374,1.56857 -4.24874,-0.92676 z m -9.7049,-9.80909 c -3.19903,-2.60722 -2.40691,-5.68008 0.99489,-3.85949 3.33423,1.78442 4.5132,3.7318 3.01305,4.97682 -0.97312,0.80762 -1.99592,0.52249 -4.00794,-1.11733 z M 67.170947,229.67166 c -7.502752,-7.53408 -9.026332,-9.54679 -7.921074,-10.46407 1.085534,-0.90092 3.005456,0.5109 9.285842,6.82834 C 76.226621,233.77221 78,235.07711 78,233 c 0,-0.55 -0.675,-1 -1.5,-1 -1.301075,0 -1.5,-4.11111 -1.5,-31 v -31 h 2 2 v 30.72318 30.72318 l 6.944719,-6.8915 c 6.062281,-6.01583 7.149879,-6.72124 8.559303,-5.55152 1.435035,1.19097 0.581553,2.37732 -7.674969,10.66832 C 81.719799,234.80225 77.296725,239 77,239 c -0.296725,0 -4.719799,-4.19775 -9.829053,-9.32834 z M 350.48924,192.98258 c -0.34584,-0.55957 -0.32055,-3.48457 0.0562,-6.5 C 351.1115,181.952 351.56836,181 353.1765,181 c 1.74551,0 1.87954,0.48949 1.30071,4.75 -0.35493,2.6125 -0.86283,5.5375 -1.12866,6.5 -0.53703,1.94444 -1.89527,2.29244 -2.85931,0.73258 z M 369,181.08287 c -3.54144,-3.07818 -4.24305,-4.17592 -3.29372,-5.15339 0.95521,-0.98353 2.16199,-0.45892 5.79793,2.52046 4.26931,3.49838 5.20388,5.4848 2.93329,6.23467 -0.51563,0.17029 -2.9625,-1.4505 -5.4375,-3.60174 z m 65.21468,-5.3673 c -7.31147,-7.34199 -8.98875,-9.5415 -8.01706,-10.51319 0.9717,-0.9717 2.75328,0.28555 8.51558,6.00939 L 442,178.44994 v -6.0012 C 442,142.05175 428.89379,102.23487 410.25273,76 401.67272,63.924742 384.19225,46.456183 371.9739,37.747241 352.92009,24.166158 324.50924,11.985622 300.5,7.1043553 262.86762,-0.54660234 222.42286,2.4547706 187.5,15.489994 154.95545,27.637495 128.44696,47.274686 108.01277,74.373224 103.86625,79.87209 97,90.921984 97,92.09615 c 0,0.392593 1.9125,1.844616 4.25,3.226718 5.92638,3.504111 11.24251,9.287922 13.9499,15.177132 3.23454,7.03588 3.30592,21.81964 0.13846,28.67567 -3.05916,6.62161 -9.61134,13.3181 -16.1955,16.55219 -5.02438,2.46794 -6.738901,2.77176 -15.64286,2.77194 -11.879295,2.4e-4 -16.653091,-1.7567 -24.359672,-8.96531 C 51.883361,142.74645 49.546934,136.78733 49.520946,125 c -0.01805,-8.18732 0.341052,-10.27192 2.598869,-15.08648 3.330057,-7.101 8.692706,-12.463648 15.793703,-15.793705 C 72.79475,91.830731 74.785329,91.5 83.68145,91.5 H 93.8629 l 3.460088,-6.017122 C 112.95894,58.291816 138.64953,35.212177 170.21304,20.000667 217.54528,-2.8103166 272.80377,-6.2357789 323.63353,10.490163 383.01959,30.031626 425.39079,75.299181 439.49543,134.27198 442.28855,145.95026 445,165.41011 445,173.77776 v 5.67532 l 7.7861,-7.74044 c 6.15954,-6.12341 8.04295,-7.48359 9.01558,-6.51096 0.97262,0.97262 -0.70204,3.16904 -8.01636,10.51389 C 448.70012,180.82201 444.29673,185 444,185 c -0.29673,0 -4.70012,-4.17799 -9.78532,-9.28443 z m -102.6056,2.56018 c -1.6284,-1.62841 -0.11852,-3.18591 4.9799,-5.13697 C 343.36506,170.54573 343,170.55363 343,173 c 0,1.1 -0.20834,2 -0.46298,2 -0.25464,0 -2.68055,0.87409 -5.39092,1.94241 -2.71037,1.06833 -5.20203,1.66833 -5.53702,1.33334 z M 367.5612,163.29889 C 367.25254,162.49453 367,161.68056 367,161.49006 c 0,-0.1905 2.54797,-1.29968 5.66216,-2.46485 4.48617,-1.67849 5.82752,-1.85092 6.45836,-0.83021 1.05821,1.71222 0.31928,2.29855 -5.80932,4.60965 -4.43178,1.67122 -5.27068,1.74333 -5.75,0.49424 z m -28.59793,-5.93991 c -2.4548,-1.94255 -4.46327,-4.04934 -4.46327,-4.68175 0,-2.41852 3.17002,-1.50005 7.35229,2.13023 3.57169,3.10029 4.10316,3.98462 2.96327,4.93065 -1.09366,0.90765 -2.33809,0.40176 -5.85229,-2.37913 z m 16.87437,-2.85467 c -0.27263,-0.27263 -0.0606,-3.19763 0.47128,-6.5 0.78952,-4.90247 1.31698,-6.00431 2.87434,-6.00431 1.98357,0 1.99132,0.46806 0.16989,10.25 -0.45941,2.46727 -2.19172,3.5781 -3.51551,2.25431 z M 200.60442,141.41153 c -0.51736,-1.34822 1.21823,-3.70069 7.08167,-9.59872 L 215.45308,124 l -7.83993,-7.88618 c -6.07543,-6.11128 -7.63828,-8.2465 -6.94398,-9.48714 0.73369,-1.31104 2.60808,0.11832 10.35029,7.89286 l 9.45435,9.49383 -9.59203,9.59203 c -7.91098,7.91098 -9.71214,9.27905 -10.27736,7.80613 z m -49.1494,-16.48431 c -0.37442,-0.60582 -0.26324,-1.519 0.24705,-2.02929 0.54162,-0.54162 13.59598,-0.81753 31.36287,-0.66287 C 209.33391,122.46373 213.5,122.70533 213.5,124 c 0,1.295 -4.19328,1.53613 -30.68211,1.76435 -21.52389,0.18545 -30.88531,-0.0644 -31.36287,-0.83713 z M 35.556733,69.057068 C 26.446732,59.89332 26.382994,60.558172 37.051428,53.465811 47.631397,46.432261 65.494465,40 74.447405,40 H 77 v 11.816541 11.816542 l -6.390655,1.27026 c -7.231714,1.437435 -14.557626,4.588956 -21.04858,9.05485 C 47.129151,75.631187 44.760171,77 44.296365,77 43.832558,77 39.899724,73.42568 35.556733,69.057068 Z"
         id="path3" />
      <path
         style="fill:#11111d"
         d="m 242.93879,448.69072 c -7.41918,-2.09125 -15.93082,-9.50081 -18.11657,-15.77085 -1.0682,-3.06424 -2.04853,-3.33147 -16.32222,-4.44934 -13.47103,-1.05502 -22.53748,-6.73447 -27.68609,-17.34325 -1.75466,-3.61549 -2.36248,-7.0325 -2.7798,-15.62728 l -0.53411,-11 -5.50758,-0.59244 c -8.32985,-0.89603 -12.86852,-2.75384 -17.80923,-7.28985 -4.50232,-4.13353 -8.1182,-10.38665 -8.1636,-14.11771 -0.0171,-1.40361 -1.70116,-2.8762 -5.64762,-4.93838 -3.47863,-1.81772 -7.0998,-4.80632 -9.49473,-7.83614 -6.80221,-8.60544 -6.99982,-10.27579 -6.66972,-56.37752 L 124.5,252.5 l 2.46191,-4.29941 c 6.1796,-10.79187 18.82799,-11.59446 25.48351,-1.61702 l 1.94543,2.91643 h 6.05457 c 4.63714,0 6.77675,0.51514 9.13931,2.20041 2.74276,1.95648 6.4691,7.90232 7.7785,12.41159 0.39259,1.35201 2.98383,1.72896 16.06605,2.33714 l 15.59797,0.72514 5.73637,-4.90784 c 3.15501,-2.69931 6.83213,-5.6517 8.17138,-6.56087 l 2.435,-1.65303 -3.435,-1.38922 c -1.88925,-0.76408 -13.4475,-5.10084 -25.685,-9.63726 -12.2375,-4.53641 -22.25,-8.5944 -22.25,-9.01775 0,-1.31163 6.90735,-19.92773 8.64827,-23.30808 4.24461,-8.24177 12.71839,-15.36876 21.17916,-17.81303 l 4.32743,-1.25017 -2.66616,-1.39694 c -3.12828,-1.63907 -3.04963,-2.27015 1.81925,-14.59825 3.44322,-8.71831 3.95154,-9.06558 10.69205,-7.30456 l 2.5,0.65315 19.5,-32.56055 c 10.725,-17.9083 19.62735,-33.11192 19.783,-33.78581 0.15741,-0.68154 -1.95041,-2.02837 -4.75,-3.035091 C 249.04673,97.456346 248.88779,96.532814 252.86309,87 l 2.71058,-6.5 3.27149,0.153792 3.27149,0.153791 -0.5059,-2.653791 C 260.90012,74.426017 259.8,61.755608 259.8,57.298797 c 0,-2.913924 0.68228,-4.340524 3.11578,-6.514851 3.39932,-3.037291 6.25166,-3.413277 12.2532,-1.615173 l 3.90102,1.168774 3.715,-3.550541 c 4.55225,-4.350729 6.69341,-5.482018 12.88821,-6.809555 l 4.82679,-1.034372 -0.34673,-4.974806 -0.34674,-4.974806 3.49674,-3.496733 C 306.17537,22.624629 307.54126,22 310.94966,22 c 5.61889,0 9.43358,2.180505 11.52495,6.587739 2.31229,4.872781 1.44699,9.952198 -2.34062,13.73981 l -2.9267,2.926704 3.30396,4.328423 C 323.53529,53.544383 326,60.94229 326,66.057318 c 0,1.353462 1.24203,2.455839 4.01872,3.566849 4.98125,1.993102 7.98605,5.674879 7.96597,9.760692 -0.0201,4.0929 -0.45686,4.709036 -10.13103,14.292454 l -8.25476,8.177317 2.30628,1.8675 2.30627,1.86751 -2.76875,7.79912 c -1.52281,4.28952 -3.36232,8.0269 -4.08779,8.30529 -0.72548,0.27839 -3.42844,-0.21257 -6.00657,-1.09102 -2.57813,-0.87846 -4.85858,-1.42612 -5.06768,-1.21702 -0.75467,0.75466 -13.25648,75.84409 -12.76096,76.64587 0.27949,0.45222 2.07689,1.33994 3.99423,1.97272 2.04947,0.67638 3.48607,1.80984 3.48607,2.75046 0,3.767 -6.31529,18.85516 -8.75203,20.90988 l -2.56745,2.16493 2.38453,5.33507 c 1.93674,4.33319 2.38926,7.04135 2.40974,14.42124 l 0.0252,9.08618 9.44515,3.91382 c 14.228,5.89571 110.22189,56.10455 112.80485,59.00168 1.64711,1.84745 2.25,3.76632 2.25,7.16131 v 4.63764 l -5.34452,5.17657 c -8.63658,8.36518 -22.33383,12.17256 -34.44627,9.57491 -2.83665,-0.60835 -17.81656,-6.96334 -33.28868,-14.12219 C 330.4484,320.85724 317.67769,315 317.54117,315 c -0.13651,0 -0.5243,7.5375 -0.86174,16.75 -1.47774,40.34344 -12.64091,67.90373 -41.12096,101.52192 -10.78614,12.73209 -14.66987,15.45312 -23.19336,16.24976 -2.67581,0.25009 -6.91765,-0.12384 -9.42632,-0.83096 z m 16.57623,-4.39927 c 4.14625,-1.97721 21.15834,-21.53909 29.31945,-33.71386 11.00521,-16.41763 19.20506,-37.03197 22.70398,-57.07759 1.69128,-9.68949 2.65125,-38.64363 1.32519,-39.96969 -0.32932,-0.32933 -5.49587,0.8021 -11.48121,2.51429 -27.7809,7.94708 -51.63896,3.45111 -69.7497,-13.14409 C 221.71236,293.81029 213.10188,281 216.91222,281 c 0.50172,0 2.9252,2.8125 5.3855,6.25 9.41428,13.1535 20.92306,22.05421 34.20228,26.45153 6.74443,2.23337 9.80488,2.65496 19.5,2.68625 10.32353,0.0333 12.91836,-0.35532 25.36455,-3.799 8.68841,-2.40396 14.10178,-3.46147 14.5,-2.83258 1.35185,2.13493 59.69284,28.23193 65.51931,29.30799 7.51582,1.38806 13.95033,0.48364 21.30505,-2.99459 11.99144,-5.67105 16.25878,-12.76727 11.06109,-18.39365 -2.47615,-2.68038 -91.76907,-49.42504 -109.11019,-57.11895 -8.74133,-3.87836 -11.0271,-4.54907 -11.71572,-3.43773 -0.47055,0.7594 -2.27614,5.31823 -4.01244,10.13073 -1.7363,4.8125 -3.37498,8.75 -3.64151,8.75 -0.26654,0 -12.84169,-4.586 -27.94478,-10.1911 l -27.46018,-10.1911 -3.21178,1.72965 c -1.76647,0.95131 -6.02388,4.23461 -9.4609,7.29621 l -6.24913,5.56654 -15.888,-0.3551 c -8.7384,-0.1953 -16.13115,-0.11211 -16.42833,0.18488 -0.57619,0.57581 2.09992,28.02031 2.80057,28.72096 0.22834,0.22835 1.68804,-0.50864 3.24378,-1.63774 4.17697,-3.0315 10.82034,-4.21109 16.66147,-2.9584 3.69234,0.79187 6.07551,2.19211 9.68879,5.69269 5.36151,5.19428 6.49622,8.25449 7.57169,20.4203 0.37816,4.27778 1.06114,8.00867 1.51774,8.29086 0.4566,0.2822 2.25807,-0.22531 4.00327,-1.12778 4.82886,-2.4971 13.8537,-2.16108 19.04579,0.70913 8.1069,4.48153 8.85774,6.42988 19.21086,49.85 11.93462,50.0528 11.11992,46 9.247,46 -1.83775,0 -1.14455,2.50011 -12.54256,-45.23669 -4.95567,-20.75518 -9.6539,-38.98124 -10.4405,-40.50236 -4.20676,-8.13499 -15.60408,-11.70761 -23.62549,-7.40568 -5.14824,2.76103 -9.15532,8.25178 -9.72081,13.32003 -0.48657,4.36105 9.8614,79.46599 11.76761,85.40862 4.08847,12.7458 20.74535,20.29327 32.45877,14.70753 z M 217.31694,389.25 c -6.17886,-42.5823 -6.40933,-46.60144 -3.01999,-52.66562 l 2.40069,-4.2953 -1.37843,-11.3572 c -1.67225,-13.77809 -4.04257,-18.65137 -10.6208,-21.83583 -10.83255,-5.24395 -22.33225,-0.11215 -25.55476,11.40395 -0.47988,1.71491 -0.12949,22.53355 0.81798,48.60059 l 1.65747,45.60059 2.74341,5.60733 c 2.7849,5.69213 7.93877,10.66854 13.24355,12.78752 3.25691,1.30097 12.35627,2.5619 19.9687,2.76715 L 222.64951,426 Z M 177,373.3558 c 0,-4.20431 -0.49542,-19.77046 -1.10093,-34.59145 -0.98789,-24.18031 -0.93392,-27.38456 0.52555,-31.20614 l 1.62648,-4.25887 -1.95046,-19.54232 c -2.16118,-21.65364 -3.61691,-26.27188 -9.39098,-29.79251 -7.67265,-4.67826 -16.84808,0.093 -19.78724,10.28951 -0.59849,2.07628 -0.39531,20.36277 0.56383,50.74598 l 1.4995,47.5 2.76966,5.46126 c 4.20578,8.293 11.51055,12.49155 22.49459,12.92917 L 177,381 Z M 145.01192,349.25 c 0.007,-3.7125 -0.50941,-23.94985 -1.14659,-44.97189 l -1.15852,-38.22188 1.74439,-4.56761 c 0.95941,-2.51218 2.8506,-5.88227 4.20265,-7.4891 1.97066,-2.34198 2.25005,-3.31056 1.40854,-4.88295 -3.13001,-5.84847 -10.83786,-7.83676 -16.03473,-4.13626 -5.73609,4.08445 -5.82067,4.76796 -6.18945,50.01969 l -0.33821,41.5 2.28819,4.96346 c 1.25851,2.72991 3.05851,5.83329 4,6.8964 2.14272,2.41951 9.22313,7.64014 10.36185,7.64014 0.46748,0 0.85532,-3.0375 0.86188,-6.75 z m 233.62361,55.05219 c -0.3838,-0.38379 3.01877,-4.43379 7.56125,-9 L 394.45584,387 l -8.3327,-8.37622 c -5.63605,-5.66548 -7.93833,-8.61996 -7.11407,-9.12939 0.77979,-0.48193 4.50375,2.53194 10.34097,8.36916 l 9.12232,9.12232 -8.96533,9.00707 c -9.09656,9.1389 -9.63235,9.54841 -10.8715,8.30925 z M 72.762571,399.43461 C 67.460696,396.55785 65.356142,388.07955 68.455949,382.08519 70.075589,378.95315 75.402885,376 79.433248,376 c 3.990799,0 9.214326,2.5325 11.072304,5.36813 1.914251,2.92152 2.198756,10.44734 0.513959,13.59541 -2.860266,5.34446 -12.359747,7.67085 -18.25694,4.47107 z M 86.75,394.478 c 4.404762,-5.06944 2.2705,-12.32604 -4.259051,-14.48099 -10.725793,-3.53983 -17.428907,11.53004 -7.460722,16.77312 3.537377,1.86059 9.047975,0.78284 11.719773,-2.29213 z m 350.28002,5.29969 c -4.28302,-2.26607 -7.2753,-7.71943 -6.68932,-12.19111 1.41723,-10.81504 13.63065,-15.05149 21.95352,-7.615 2.88024,2.57349 3.20578,3.42926 3.20578,8.42716 0,4.90907 -0.37102,5.93382 -3.1571,8.71989 -2.47292,2.47293 -4.2066,3.24474 -8,3.56149 -2.83749,0.23694 -5.8657,-0.13675 -7.31288,-0.90243 z m 10.93635,-3.2603 c 3.44655,-1.78228 5.53167,-7.08358 4.17841,-10.62335 -1.56847,-4.10266 -4.92762,-6.36587 -9.27914,-6.25177 -5.59694,0.14676 -8.87578,3.40638 -8.83384,8.78204 0.0619,7.92759 6.74669,11.81008 13.93457,8.09308 z M 330.71439,388.38106 C 330.32148,387.98814 330,387.06016 330,386.31888 c 0,-1.10689 5.496,-1.30052 30.75,-1.08333 26.54913,0.22832 30.75,0.46937 30.75,1.76445 0,1.29343 -4.13628,1.541 -30.03561,1.79772 -16.51959,0.16375 -30.35709,-0.0238 -30.75,-0.41666 z m 162.71062,-9.5024 c -0.76358,-1.2355 3.42517,-5.03149 5.01249,-4.54248 2.02169,0.62283 1.4452,2.3019 -1.35909,3.95843 -2.12631,1.25604 -3.13812,1.41779 -3.6534,0.58405 z m 11.28757,-9.18528 c -0.74579,-1.94349 3.77482,-6.33181 4.80521,-4.6646 0.41623,0.67347 -0.33608,2.24406 -1.75416,3.66213 -1.99146,1.99146 -2.59539,2.18989 -3.05105,1.00247 z m 8.80488,-11.66513 c -0.93606,-1.51458 2.43971,-5.98192 4.05258,-5.363 1.19179,0.45733 1.14516,1.00829 -0.29108,3.43965 -1.79644,3.04114 -2.76469,3.53623 -3.7615,1.92335 z M 75.421445,345.65588 C 74.461735,343.15492 75.398967,339.5 77,339.5 c 1.04065,0 1.5,1.0463 1.5,3.41667 0,3.54571 -2.064257,5.38243 -3.078555,2.73921 z M 519.7754,345.44207 C 519.02948,344.69614 521.2181,339 522.25062,339 c 1.47218,0 1.92333,2.80646 0.7912,4.92186 -1.10786,2.07005 -2.20566,2.58097 -3.26642,1.52021 z m 3.57869,-14.92243 C 523.70934,329.59387 524,327.97323 524,326.91821 524,325.84525 524.68889,325 525.56336,325 c 2.4138,0 1.52046,6.37288 -0.95927,6.84323 -1.42854,0.27097 -1.73668,-0.0553 -1.25,-1.32359 z M 75,327.5 c 0,-2.83333 0.380952,-3.5 2,-3.5 1.619048,0 2,0.66667 2,3.5 0,2.83333 -0.380952,3.5 -2,3.5 -1.619048,0 -2,-0.66667 -2,-3.5 z m 449,-13 c 0,-2.44444 0.45238,-3.5 1.5,-3.5 1.04762,0 1.5,1.05556 1.5,3.5 0,2.44444 -0.45238,3.5 -1.5,3.5 -1.04762,0 -1.5,-1.05556 -1.5,-3.5 z m -2.44958,-14.15514 c -0.43387,-1.72868 -0.21008,-2.93717 0.64135,-3.46338 1.37377,-0.84904 2.60745,1.11935 2.73794,4.36852 0.11128,2.77056 -2.64183,2.03314 -3.37929,-0.90514 z M 65.430871,294.88815 c -0.389259,-0.62984 1.965916,-3.76494 5.432568,-7.23159 l 6.119731,-6.11973 -6.202188,-6.25781 c -4.909612,-4.95365 -5.945722,-6.51428 -4.971585,-7.48842 0.974137,-0.97413 2.525138,0.0639 7.442188,4.98099 l 6.211585,6.21158 6.257812,-6.20219 c 4.927557,-4.88375 6.51741,-5.94259 7.479018,-4.98098 0.961608,0.96161 -0.09723,2.55146 -4.980982,7.47902 l -6.202188,6.25781 6.211585,6.21158 c 4.91705,4.91706 5.955119,6.46806 4.980982,7.44219 -0.974137,0.97414 -2.537004,-0.0642 -7.499126,-4.9822 l -6.268522,-6.2128 -5.939571,6.0022 c -6.203651,6.26906 -6.94253,6.71675 -8.071307,4.89035 z m 451.142579,-7.4164 C 514.96424,285.0158 515.17155,283 517.03334,283 c 1.21345,0 4.06291,5.57042 3.26011,6.37322 -1.12938,1.12937 -2.03865,0.6646 -3.72,-1.90147 z m -7.93606,-12.09306 c -1.37663,-1.88725 -1.56989,-2.84619 -0.74073,-3.67535 0.82917,-0.82917 1.57605,-0.48024 2.86261,1.33739 0.9574,1.3526 1.74073,2.87177 1.74073,3.37594 0,1.95688 -2.08717,1.396 -3.86261,-1.03798 z m -9.84935,-9.88459 c -2.02345,-1.74049 -2.39776,-2.5727 -1.49397,-3.32152 1.30173,-1.07853 5.70593,1.76092 5.70593,3.6787 0,2.05145 -1.56616,1.91864 -4.21196,-0.35718 z m -63.48371,-3.4501 c -8.58011,-5.23163 -9.39822,-16.24233 -1.70848,-22.99402 2.98738,-2.62295 4.25741,-3.04998 9.07091,-3.04998 6.85758,0 11.39966,2.51286 13.84087,7.65733 2.09259,4.4098 1.59169,10.97179 -1.12141,14.6909 -4.09147,5.60856 -13.96479,7.4256 -20.08189,3.69577 z M 451.25,256.94057 c 4.01472,-4.33899 3.881,-10.48282 -0.31566,-14.50348 -2.55903,-2.4517 -3.89468,-2.93709 -8.08203,-2.93709 -4.40213,0 -5.37366,0.39988 -7.93434,3.26578 -5.11654,5.7264 -3.46884,13.74067 3.46033,16.83082 4.43023,1.97572 9.56681,0.9158 12.8717,-2.65603 z M 67.604962,229.10545 c -5.615845,-5.64199 -8.579823,-9.33711 -8.105372,-10.10479 0.502396,-0.81289 3.498032,1.52555 9.124189,7.12248 L 77,234.45584 l 8.376221,-8.3327 c 5.626157,-5.59693 8.621793,-7.93537 9.124189,-7.12248 0.474451,0.76768 -2.489527,4.4628 -8.105372,10.10479 C 81.525701,233.99745 77.297934,238 77,238 c -0.297934,0 -4.525701,-4.00255 -9.395038,-8.89455 z m 8.082538,2.24872 C 75.309375,230.97604 75,217.01667 75,200.33333 V 170 h 2.014452 2.014452 l -0.264452,30.66702 c -0.251643,29.18164 -0.646314,33.11778 -3.076952,30.68715 z m 275.52645,-38.22194 c -0.92215,-0.56992 -1.08867,-2.34681 -0.60534,-6.45921 0.54115,-4.60431 1.01398,-5.67302 2.50994,-5.67302 1.62059,0 1.76716,0.57366 1.21363,4.75 -0.87684,6.61564 -1.59761,8.32202 -3.11823,7.38223 z M 369,181.03498 c -3.46519,-3.00416 -4.22937,-4.1758 -3.32313,-5.09501 0.90903,-0.92204 2.22539,-0.33453 5.78392,2.58141 4.29023,3.51552 5.23321,5.45878 2.97671,6.13426 -0.51563,0.15435 -2.9625,-1.47494 -5.4375,-3.62066 z m 65.19804,-5.33611 C 426.01219,167.47883 424.36872,165 427.10471,165 c 0.42425,0 3.96963,3.20462 7.87863,7.12137 3.90899,3.91675 7.31822,6.91041 7.57606,6.65256 0.85801,-0.85801 -1.6511,-25.1223 -3.69364,-35.7192 C 424.5242,68.648962 366.59436,15.842081 286.88304,4.5124201 273.3703,2.591805 243.67049,2.5859632 230.19641,4.5012702 194.13532,9.6272655 162.091,23.277876 135.73763,44.739921 122.99972,55.113606 107.42033,73.198881 99.5,86.806227 97.85,89.640974 95.89474,91.969242 95.154978,91.980156 92.351831,92.021513 105.13432,72.79191 116.2201,60.290404 143.25278,29.805468 182.02965,9.7992812 228.5,2.3617329 c 14.51224,-2.32267421 45.69597,-2.33044424 60.15309,-0.014988 30.90294,4.9494219 57.3754,14.9963891 80.47722,30.5431351 44.33177,29.833786 69.84089,74.92063 75.05589,132.65977 l 1.21912,13.49768 7.28481,-7.23619 c 5.75547,-5.71705 7.54243,-6.97858 8.51195,-6.00906 0.96952,0.96952 -0.65048,3.1135 -7.71662,10.21253 -4.91907,4.94196 -9.18703,8.98539 -9.48436,8.98539 -0.29733,0 -4.70871,-4.18551 -9.80306,-9.30113 z m -102.86699,1.72145 c -0.69996,-1.82406 -1.0188,-1.57879 5.46436,-4.20343 4.56691,-1.84887 5.37494,-1.93653 5.87354,-0.63721 0.69996,1.82406 1.0188,1.57879 -5.46436,4.20343 -4.56691,1.84887 -5.37494,1.93653 -5.87354,0.63721 z m 36.17791,-14.40582 c -0.91958,-1.48791 -0.91888,-1.48843 5.27806,-3.93078 6.30269,-2.48402 5.86047,-2.44474 6.5745,-0.58398 0.91076,2.3734 -10.49168,6.7167 -11.85256,4.51476 z m -26.70426,-4.50528 c -1.48241,-1.27555 -3.71408,-3.03277 -4.95927,-3.90493 -1.71516,-1.20135 -1.98328,-1.86644 -1.10605,-2.74367 1.2334,-1.2334 2.81217,-0.43443 8.61613,4.36036 2.3269,1.92231 2.60457,2.56712 1.5,3.48321 -1.0395,0.86213 -1.98386,0.58355 -4.05081,-1.19497 z m 15.64339,-9.75314 c 0.7896,-6.97913 0.89688,-7.22142 2.86347,-6.46676 1.08896,0.41787 1.22214,1.60518 0.60274,5.37353 -0.43729,2.66043 -0.8219,5.39965 -0.85469,6.08715 -0.0328,0.6875 -0.79273,1.25 -1.68878,1.25 -1.40703,0 -1.53284,-0.85135 -0.92274,-6.24392 z m -155.81256,-7.45389 c -0.3838,-0.38379 3.01877,-4.43379 7.56125,-9 L 216.45584,124 l -8.3327,-8.37622 c -5.63605,-5.66548 -7.93833,-8.61996 -7.11407,-9.12939 0.77979,-0.48193 4.50375,2.53194 10.34097,8.36916 l 9.12232,9.12232 -8.96533,9.00707 c -9.09656,9.1389 -9.63235,9.54841 -10.8715,8.30925 z M 71.20662,133.70922 c -4.10033,-4.15191 -4.963471,-5.55237 -4.009822,-6.50602 0.953649,-0.95365 2.085731,-0.3652 5.259219,2.7337 L 76.5,133.88584 88.212555,122.44292 C 94.654461,116.14931 100.3654,111 100.90354,111 c 3.48579,0 1.00374,3.56735 -10.512564,15.10927 C 83.31681,133.19917 77.281992,139 76.980268,139 c -0.301723,0 -2.899865,-2.38085 -5.773648,-5.29078 z M 152,123.97456 v -2.02545 l 30.5,0.0798 30.5,0.0798 V 124.05432 126 H 182.5 152 Z M 36.124021,68.624668 27.792197,60.249337 34.146099,55.742575 C 45.816053,47.465187 58.488073,42.376402 72.25,40.440945 L 77,39.772912 V 51.886456 64 H 74.426317 C 69.87842,64 56.721805,69.020289 50.658174,73.069427 47.42083,75.231242 44.700938,77 44.613969,77 c -0.08697,0 -3.907445,-3.768899 -8.489948,-8.375332 z"
         id="path2" />
    </g>
  </g>
</svg>
