<?xml version="1.0" encoding="UTF-8" standalone="no"?>
<!-- Created with Inkscape (http://www.inkscape.org/) -->

<svg
   version="1.1"
   id="svg1"
   width="594"
   height="450"
   viewBox="0 0 594 450"
   sodipodi:docname="HR_04.svg"
   inkscape:version="1.3.2 (091e20e, 2023-11-25, custom)"
   xmlns:inkscape="http://www.inkscape.org/namespaces/inkscape"
   xmlns:sodipodi="http://sodipodi.sourceforge.net/DTD/sodipodi-0.dtd"
   xmlns="http://www.w3.org/2000/svg"
   xmlns:svg="http://www.w3.org/2000/svg">
  <defs
     id="defs1" />
  <sodipodi:namedview
     id="namedview1"
     pagecolor="#ffffff"
     bordercolor="#000000"
     borderopacity="0.25"
     inkscape:showpageshadow="2"
     inkscape:pageopacity="0.0"
     inkscape:pagecheckerboard="0"
     inkscape:deskcolor="#d1d1d1"
     showgrid="false"
     inkscape:zoom="1.6851852"
     inkscape:cx="292.84615"
     inkscape:cy="139.74725"
     inkscape:window-width="1920"
     inkscape:window-height="1001"
     inkscape:window-x="-9"
     inkscape:window-y="-9"
     inkscape:window-maximized="1"
     inkscape:current-layer="g1" />
  <g
     inkscape:groupmode="layer"
     inkscape:label="Image"
     id="g1">
    <g
       id="g11"
       transform="translate(0.06199881,0.02022723)">
      <path
         style="fill:#fefefe"
         d="M 0,225 V 0 H 297 594 V 225 450 H 297 0 Z"
         id="path14" />
      <path
         style="fill:#cdc9c7"
         d="m 140.60666,449.17257 c -0.3189,-0.51598 1.23798,-11.6285 3.45974,-24.69447 2.22176,-13.06597 3.90322,-24.9337 3.73658,-26.37274 C 147.63634,396.66632 138.725,378.27893 128,357.24449 l -19.5,-38.24444 -3.74271,-2e-5 -3.7427,-3e-5 -0.2573,64.73639 -0.25729,64.73639 -1.742681,0.33552 -1.742681,0.33553 L 96.757319,384.32191 96.5,319.5 l -3.624655,-0.30289 -3.624656,-0.3029 -32.225006,63.3029 c -17.723754,34.81659 -32.633374,63.7336 -33.132488,64.26003 -0.572116,0.60343 -1.444879,0.41865 -2.361652,-0.5 C 20.258875,444.68187 24.055754,436.699 51.951336,382 L 83.825302,319.5 55.662651,319 27.5,318.5 23.800407,316.19959 c -6.598492,-4.10294 -6.125075,-2.7289 -21.3885035,-62.07781 -4.6935891,-18.25013 -2.88062849,-29.90798 5.5123694,-35.44611 9.4397171,-6.22881 26.4685121,-7.82686 40.5613421,-3.80643 3.842088,1.09607 7.053602,1.91139 7.136697,1.81181 0.136637,-0.16374 10.562965,-28.465 29.515022,-80.11566 3.821198,-10.41404 8.598055,-22.07538 10.615238,-25.91408 4.362098,-8.30108 14.730308,-19.166533 21.393618,-22.419617 5.16659,-2.522372 5.36209,-2.961707 6.3809,-14.339433 l 0.68122,-7.607739 -2.99041,-2.129365 c -3.97775,-2.832408 -6.56051,-9.384771 -5.77196,-14.643228 0.41878,-2.792602 -0.021,-5.870138 -1.41962,-9.935418 -1.11447,-3.239286 -2.02381,-7.056663 -2.02074,-8.48306 0.0182,-8.467956 6.38223,-17.050293 14.19167,-19.138476 2.36651,-0.632786 4.84263,-1.592854 5.50249,-2.1334833 1.46434,-1.199745 37.1507,0.7942423 41.13295,2.2983173 3.94798,1.491131 8.05625,5.818451 9.09479,9.579702 0.68312,2.474057 0.41939,5.063878 -1.04128,10.22541 -1.6597,5.864824 -1.80043,7.871591 -0.92871,13.243644 1.62164,9.99349 1.19718,19.512903 -1.35946,30.489209 -1.3013,5.586774 -2.65946,10.632612 -3.01815,11.212972 -0.84659,1.369823 -7.18218,3.116561 -11.32988,3.123678 -2.70661,0.0046 -3.24744,0.381772 -3.23469,2.255577 0.0109,1.595374 0.25882,1.865967 0.85225,0.930051 0.63234,-0.997284 1.48419,-0.550735 3.48469,1.826725 1.45626,1.730671 2.64775,3.816812 2.64775,4.635869 0,0.819055 4.12987,7.872035 9.1775,15.673275 5.04762,7.80124 13.64897,21.15908 19.11411,29.68408 5.46513,8.525 11.23525,17.43506 12.8225,19.80013 2.08444,3.10593 2.88589,5.51321 2.88589,8.66821 0,7.95229 -1.20434,7.53166 21.56464,7.53166 h 20.35067 l 1.99491,-6.75 c 1.0972,-3.7125 5.17865,-17.52827 9.06989,-30.7017 3.89125,-13.17344 7.77071,-24.72047 8.62104,-25.66007 3.19353,-3.52881 5.88318,-3.1505 18.64235,2.62215 6.74108,3.04987 12.819,6.29372 13.5065,7.20855 0.6875,0.91483 1.25,2.90011 1.25,4.41174 0,2.02836 -11.67643,41.3563 -16.51333,55.61933 -0.33622,0.99146 12.91041,1.25 64.04471,1.25 C 400.79823,189 419,188.68906 419,187.89867 c 0,-0.60573 9.31768,-16.46823 20.70596,-35.25 13.19331,-21.75866 22.17324,-35.51691 24.75,-37.91975 C 469.75855,109.78425 477.44953,106 482.19634,106 H 486 l -0.0153,-3.25 c -0.0204,-4.332766 -0.71676,-5.122922 -5.83231,-6.618075 C 470.68416,93.364595 463,82.172654 463,71.149579 c 0,-3.99052 0.48843,-5.243338 2.97171,-7.622475 1.81293,-1.7369 3.81452,-5.416765 5.13311,-9.437092 1.18877,-3.624506 2.55064,-7.08509 3.02639,-7.690185 0.51219,-0.651454 0.20965,-2.413829 -0.74178,-4.321013 -1.4189,-2.844263 -1.44054,-3.650986 -0.18509,-6.899828 L 474.62602,31.5 l 3.75638,0.120216 c 3.32857,0.106525 4.03461,-0.32055 6.19953,-3.75 C 485.92567,25.741597 487.40665,24 487.873,24 c 0.46635,0 2.49595,1.118394 4.51023,2.485321 l 3.66233,2.48532 7.34275,-0.620689 c 26.63758,-2.2517 44.44509,24.705507 32.55082,49.27579 -1.23246,2.54593 -4.66869,7.018324 -7.63605,9.938653 l -5.3952,5.309688 0.79606,7.312957 0.79606,7.31296 5.57367,0.5 c 6.65724,0.59721 12.71625,4.21432 16.41057,9.79682 l 2.50131,3.77974 5.0125,44.90596 c 2.87029,25.71435 5.4754,45.19205 6.09562,45.57537 0.59572,0.36818 3.88555,0.9311 7.31073,1.25095 3.42518,0.31985 8.74805,1.52457 11.82861,2.67715 12.07091,4.51631 14.71247,9.11999 14.74503,25.69744 0.0254,12.93093 -2.90955,30.51002 -8.48415,50.81657 -4.12182,15.01453 -6.63015,19.41937 -12.74363,22.37885 L 568.36855,317 h -27.19806 -27.19806 l 21.05802,41.25 c 39.51266,77.40028 41.5386,81.58095 40.1882,82.93135 -0.97725,0.97725 -1.52402,0.93075 -2.63654,-0.22421 -0.77198,-0.80143 -15.4395,-29.01964 -32.59448,-62.70714 L 508.79676,317 h -2.91743 c -2.51225,0 -2.84552,0.31249 -2.39961,2.25 0.2848,1.2375 5.25812,30.78776 11.05181,65.66724 6.77208,40.76957 10.18918,63.76205 9.56845,64.38278 -2.85801,2.85801 -3.76548,-1.04483 -12.59998,-54.1905 l -9,-54.14124 -0.5,51.26586 -0.5,51.26586 -2.25,0.31955 -2.25,0.31955 v -63.62991 -63.62992 l -3.72427,0.31036 -3.72426,0.31037 -2.83059,5.54772 -2.83059,5.54771 0.0803,30.70229 0.0803,30.70228 h -2.52545 C 479.87341,390 479,390.55531 479,391.60566 c 0,2.43044 2.53138,12.05939 8.19108,31.15751 2.81375,9.49475 4.93434,17.43079 4.71241,17.63566 -0.22192,0.20487 -40.45349,0.53644 -89.40349,0.73683 L 313.5,441.5 311.33847,429 c -1.18883,-6.875 -2.21249,-12.95 -2.27479,-13.5 -0.0623,-0.55 -1.68638,-3.14426 -3.60909,-5.76502 l -3.49582,-4.76502 -2.92973,1.51502 C 297.4177,407.31824 295.63175,408 295.06027,408 c -0.57148,0 -12.96883,-14.90308 -27.54966,-33.11795 -14.58084,-18.21488 -26.52533,-32.50238 -26.54332,-31.75 -0.018,0.75237 -2.42821,15.42077 -5.35605,32.59644 l -5.32334,31.22849 18.42346,10.15957 c 10.1329,5.58776 19.06158,11.13347 19.8415,12.32378 2.51136,3.83283 2.90869,8.39219 0.92258,10.58681 L 267.69002,442 H 227.84501 188 l 0.008,-3.25 c 0.005,-1.7875 0.42114,-7.075 0.92584,-11.75 1.29929,-12.03533 1.94959,-30.15862 2.56553,-71.5 0.29501,-19.8 0.80247,-40.8375 1.1277,-46.75 L 193.21859,298 H 181.6093 c -6.38512,0 -11.61524,0.1125 -11.62249,0.25 -0.007,0.1375 -3.76643,22.39477 -8.35372,49.46061 l -8.34052,49.2106 11.90819,23.13726 c 6.54951,12.72549 11.76502,23.88072 11.59002,24.78939 -0.89284,4.63616 -3.86261,0.53018 -13.99392,-19.34786 -5.88673,-11.55 -10.74965,-20.55 -10.80648,-20 -0.0568,0.55 -1.76542,10.67085 -3.79686,22.49078 -2.98333,17.35855 -4.01208,21.55127 -5.35028,21.80537 -0.91122,0.17302 -1.91768,-0.10759 -2.23658,-0.62358 z m 245.32704,-39.40052 14.80733,-8.22795 -1.16269,-4.02205 -1.16268,-4.02205 -11.0519,-0.28129 -11.05189,-0.2813 -11.80573,-39.7187 C 358.013,331.37342 350.89591,307.425 348.6904,300 c -4.65643,-15.67619 -5.03695,-22.16369 -1.73805,-29.63226 3.37747,-7.64647 10.68264,-14.25548 18.1123,-16.38628 3.6051,-1.03393 67.45716,-4.37894 69.39485,-3.63537 0.70601,0.27092 2.22422,-0.77959 3.37379,-2.33447 3.33431,-4.50989 12.07473,-8.25211 19.43558,-8.32136 l 6.2354,-0.0587 -0.67262,-8.0658 c -0.36994,-4.43619 -0.7084,-8.40487 -0.75213,-8.81928 -0.0437,-0.41442 -62.95326,-0.63942 -139.79895,-0.5 L 182.56114,222.5 l -1.24734,7.44989 c -0.68604,4.09745 -1.1498,7.53255 -1.03057,7.63356 0.11922,0.10101 13.04177,0.59406 28.71677,1.09567 31.18392,0.99789 31.60686,1.08158 38.05573,7.53046 5.73484,5.73483 7.30694,10.80227 6.5885,21.23706 L 253.02091,276.5 295.00195,332 c 23.08957,30.525 41.98486,55.78291 41.98954,56.12868 0.005,0.34577 -1.34149,1.18787 -2.99149,1.87132 -1.65,0.68345 -3,1.47836 -3,1.76646 0,1.44346 5.66204,9.2302 6.71276,9.23175 0.66702,9.9e-4 8.09202,3.82455 16.5,8.49682 8.40798,4.67227 15.65317,8.49727 16.10042,8.5 0.44725,0.003 7.47648,-3.69761 15.62052,-8.22298 z m -55.27343,3.75336 c 3.77213,-2.64211 3.59916,-7.29926 -0.51131,-13.76666 -2.00693,-3.15769 -3.99545,-5.74519 -4.41894,-5.75 C 324.42673,393.99394 307,402.97888 307,403.66564 c 0,0.35507 1.20226,2.26305 2.67169,4.23997 1.46943,1.97691 2.78595,3.74841 2.92559,3.93665 0.13965,0.18824 1.97489,0.95599 4.07831,1.7061 5.07668,1.81044 11.38192,1.80009 13.98468,-0.0229 z m 92.14885,0.39129 3.10756,-1.0833 -0.63251,-3.1667 c -0.34788,-1.74169 -1.36925,-6.0917 -2.26972,-9.6667 l -1.63721,-6.5 -9.1495,-0.28701 -9.1495,-0.28701 0.88343,2.78701 c 0.48589,1.53286 1.8535,5.93701 3.03914,9.78701 1.18564,3.85 2.33136,7.5625 2.54606,8.25 0.48846,1.56412 8.94856,1.67046 13.26225,0.1667 z m 53.10291,-0.0359 c 1.76577,-0.61555 3.02425,-1.62805 2.79663,-2.25 -0.22762,-0.62195 -1.45137,-5.74332 -2.71945,-11.38082 L 473.68361,390 h -9.26439 -9.26438 l 2.42156,7.75 c 1.33186,4.2625 2.91762,9.55 3.52391,11.75 0.60629,2.2 1.30831,4.3375 1.56004,4.75 0.69739,1.14281 9.6281,0.89401 13.25168,-0.36918 z m -34.2946,-12.55635 c 4.59829,-8.57261 5.30956,-10.54134 4.20808,-11.64771 -0.8349,-0.83862 -3.1207,-14.6273 -6.17574,-37.25408 L 434.79954,316.5 l -2.30557,-2 C 429.25552,311.69076 428,308.77564 428,304.06574 V 300 h -11 c -6.05,0 -11,0.27127 -11,0.60281 0,0.33155 5.2177,16.64405 11.59489,36.25 6.37719,19.60596 12.90219,39.67895 14.5,44.60666 1.59781,4.9277 2.90511,9.5402 2.90511,10.25 0,0.86567 -1.50363,1.29053 -4.56739,1.29053 -3.88322,0 -4.48874,0.26214 -4.04239,1.75 0.28875,0.9625 1.49149,5.65625 2.67276,10.43055 l 2.14776,8.68055 2.43654,-1.11016 c 1.58985,-0.72438 4.35949,-4.6951 7.97015,-11.42647 z m 11.10291,-3.52813 C 452.19035,395.70835 451.45804,394 451.09299,394 c -0.36505,0 -2.10442,2.92158 -3.86528,6.4924 l -3.20155,6.49241 4.8289,-2.69607 4.82889,-2.69607 z M 157.5413,343.86769 c 4.09383,-24.40223 7.44679,-44.70519 7.45102,-45.11769 0.004,-0.4125 -1.73655,-0.75 -3.86839,-0.75 h -3.87607 l 1.53944,4.28101 c 1.95878,5.44713 1.08542,9.04627 -3.24624,13.37793 L 152.2,319 h -19.18333 c -10.55084,0 -19.03334,0.37185 -18.85,0.82634 1.54982,3.84202 35.26845,69.07187 35.55601,68.78432 0.2064,-0.20641 3.72478,-20.34074 7.81862,-44.74297 z M 240,340.918 c 0,-0.53018 -7.43277,-10.85362 -16.51727,-22.94098 L 206.96545,296 h -6.48272 C 195.38697,296 194,296.32092 194,297.5 c 0,1.16005 1.30789,1.5 5.77103,1.5 h 5.77103 l 16.41574,21.94359 C 236.59145,340.50498 240,344.27857 240,340.918 Z M 78.470861,311.75 c 2.955648,-17.10787 3.439628,-39.8342 1.044165,-49.031 -3.377418,-12.96679 -9.052917,-16.93869 -25.07561,-17.54876 -5.533321,-0.21068 -13.408321,0.12949 -17.5,0.75593 -9.443293,1.44578 -28.7899944,6.02304 -29.3607205,6.9465 -0.4794668,0.77579 11.7426345,49.06021 13.4862535,53.27855 1.450467,3.50912 4.997618,6.74942 8.554353,7.81436 1.584384,0.47438 13.097807,0.90119 25.585385,0.94847 L 77.909374,315 Z m 74.618459,0.38922 c 2.55596,-3.15808 2.43931,-7.94762 -0.26363,-10.82477 L 150.65137,299 H 117.93698 85.222582 l -0.560816,3.25 c -0.308449,1.7875 -0.862206,5.40471 -1.230572,8.03826 l -0.669755,4.78825 34.208601,-0.28825 L 151.17865,314.5 Z M 487,312.70318 c 0,-0.16325 -0.87015,-4.32575 -1.93366,-9.25 -3.89025,-18.01254 -5.10218,-41.72783 -2.55724,-50.04035 0.55083,-1.79917 -0.20122,-2.45157 -5.45015,-4.72796 -16.06685,-6.968 -29.55899,-5.68837 -36.32251,3.44492 -4.00753,5.41169 -3.03603,21.88991 2.19354,37.20576 2.1852,6.39979 1.78877,7.66445 -2.40253,7.66445 -6.80836,0 -10.61142,7.08095 -6.56555,12.22444 l 2.11822,2.69287 7.70994,0.3401 C 454.49334,312.72955 487,313.0649 487,312.70318 Z m 81.05685,-0.70243 c 6.11664,-1.69921 8.49781,-5.29355 12.33223,-18.61539 5.88362,-20.44127 8.87635,-37.3608 9.00064,-50.88536 0.13557,-14.75161 -0.86709,-17.16136 -8.67808,-20.85655 -7.67718,-3.63189 -17.26778,-5.02758 -29.66947,-4.31772 -13.96203,0.79917 -25.5043,3.71947 -36.85032,9.32346 -10.81262,5.34054 -19.93426,13.61188 -24.65735,22.35884 l -2.96549,5.49197 -0.38974,13 c -0.37789,12.60475 1.60008,29.5394 4.86747,41.67357 l 1.03035,3.82643 36.21145,-0.006 c 20.76462,-0.003 37.72872,-0.42707 39.76831,-0.99367 z M 20,244.56383 c 5.775,-1.36931 14.283816,-2.95266 18.908481,-3.51856 4.624664,-0.56589 8.452482,-1.14508 8.506261,-1.28708 0.05378,-0.14201 1.287017,-3.63319 2.740526,-7.75819 1.453509,-4.125 2.936113,-8.22177 3.294675,-9.10393 C 54.543044,220.20674 43.534765,217.57828 31,217.53568 L 20.5,217.5 l -5.95532,3 c -8.4735497,4.26856 -10.0529617,6.84448 -10.0094674,16.32481 0.041716,9.0927 0.7667819,11.52571 3.2098616,10.77089 C 8.7102834,247.29748 14.225,245.93314 20,244.56383 Z M 176.18698,233 c 0.40663,-2.475 1.0013,-5.9625 1.32148,-7.75 L 178.09063,222 H 165.6523 c -10.41963,0 -12.53683,-0.25672 -13.04531,-1.58179 -0.84725,-2.2079 -0.73159,-11.6931 0.15832,-12.98367 0.40408,-0.58601 4.66954,-3.42711 9.4788,-6.31356 l 8.7441,-5.2481 -6.59132,-3.3174 c -3.62523,-1.82457 -7.39271,-3.10783 -8.37217,-2.85169 -1.4429,0.37732 -2.38888,3.62816 -4.98505,17.13095 -1.76231,9.16589 -3.78528,19.67849 -4.49548,23.36133 l -1.29129,6.69608 3.12355,0.40831 c 1.71795,0.22457 8.51177,0.36133 15.09738,0.30392 L 175.44767,237.5 Z M 461.5,214.5 v -3 L 309.25,211.2468 157,210.99359 V 214.5 218.00641 L 309.25,217.7532 461.5,217.5 Z m -269,-9.47787 c -1.65,-0.42523 -6.08646,-2.11686 -9.85879,-3.75917 l -6.85879,-2.98603 -5.52079,3.32445 c -3.03643,1.82844 -5.76247,3.56613 -6.05787,3.86153 -0.2954,0.2954 6.62541,0.49103 15.37957,0.43473 9.61909,-0.0619 14.72969,-0.40827 12.91667,-0.87551 z M 420.45407,201.75 c -1.33649,-2.3375 -2.4354,-5.0375 -2.44202,-6 L 418,194 h -64 c -35.2,0 -64.3375,0.0183 -64.75,0.0407 -0.75824,0.0411 -2.37634,4.16487 -3.6136,9.20934 l -0.6745,2.75 h 68.96107 68.96107 z m 98.97907,-98.5 c -0.37917,-2.6125 -0.84685,-4.927606 -1.03928,-5.14468 -0.19244,-0.217074 -2.59014,-0.60994 -5.32823,-0.873036 -6.32435,-0.607689 -7.73707,-2.197688 -10.12626,-11.396956 -2.47045,-9.51217 -2.45181,-10.002046 0.35391,-9.297855 C 506.73744,77.401902 511,73.65118 511,69.756161 511,63.465648 504.08277,60.694714 499.38848,65.104769 495.9565,68.328941 495,66.727093 495,57.755434 c 0,-6.963146 0.31074,-8.457302 2.17061,-10.43704 1.19384,-1.270779 1.98134,-2.429443 1.75,-2.574808 -0.23134,-0.145366 -2.3258,-1.737474 -4.65437,-3.538019 l -4.23377,-3.273719 -2.89712,1.498159 c -1.59341,0.823987 -4.0968,2.923903 -5.56308,4.666478 l -2.66597,3.168319 3.08141,1.873918 c 3.51255,2.136108 5.29327,5.726759 3.77468,7.611278 -1.53214,1.901338 -2.71347,1.508857 -3.76239,-1.25 -0.65607,-1.725598 -1.70767,-2.5 -3.39488,-2.5 -2.05101,0 -2.71653,0.819345 -4.13543,5.091259 -0.93008,2.800193 -3.0365,6.623642 -4.68094,8.496555 l -2.98988,3.405296 1.26367,5.253445 c 0.69502,2.889395 1.45277,4.690945 1.6839,4.003445 0.23112,-0.6875 1.07185,-1.25 1.86828,-1.25 0.79643,0 1.70707,-0.675 2.02365,-1.5 C 474.43061,74.435477 478,74.57563 478,76.671259 478,79.198482 474.99116,82 472.27692,82 h -2.41311 l 2.16497,3.040425 c 3.12711,4.39161 6.66108,6.370322 12.41238,6.949835 L 489.5,92.5 l 0.5993,6.265969 c 0.32962,3.446281 0.90399,6.570651 1.27637,6.943041 0.37239,0.37238 6.6277,0.96691 13.9007,1.32117 7.273,0.35426 13.5887,0.71739 14.0349,0.80696 0.4462,0.0896 0.50104,-1.97464 0.12187,-4.58714 z M 475.14299,64.119091 c -1.61103,-1.032143 -0.72893,-4.680267 1.32196,-5.467269 0.76385,-0.293117 1.8785,0.05709 2.477,0.778232 1.50055,1.808055 -1.84683,5.939711 -3.79896,4.689037 z M 155.99625,93.75 155.9925,89.5 151.62062,87.702385 C 146.58653,85.632482 139,79.488246 139,77.481094 c 0,-2.785261 2.0352,-2.440656 6.70249,1.134883 2.63863,2.02141 6.24556,4.284755 8.01539,5.029657 3.58719,1.509803 15.01899,1.807041 17.16749,0.446372 C 173.0491,82.721695 176.6803,62.649627 176.14834,55 c -0.30984,-4.455597 -0.65042,-5.713691 -1.08284,-4 -0.34695,1.375 -1.54721,2.909151 -2.66723,3.409224 -1.77119,0.790807 -1.97871,1.604985 -1.59339,6.251403 l 0.44301,5.342179 -4.63547,2.05049 c -2.54951,1.12777 -5.08029,1.775581 -5.62395,1.43958 -2.01286,-1.244018 -0.89032,-3.635937 2.33974,-4.985543 l 3.3282,-1.390614 -0.7552,-5.308359 C 165.48585,54.888762 165.11315,50.3625 165.073,47.75 165.00987,43.642332 165.27046,43 167,43 c 1.1,0 2,0.632871 2,1.40638 0,0.946664 0.70264,1.222636 2.14954,0.844264 1.42254,-0.372002 2.61244,0.07094 3.5182,1.309646 1.52869,2.090607 1.5462,2.226459 -1.61881,-12.56029 -1.79328,-8.378121 -1.49346,-8.227444 -10.04893,-5.050199 -4.18467,1.554061 -7.64136,2.009464 -14.45401,1.90425 l -8.95401,-0.138285 -2.33264,7.392117 c -1.6149,5.117597 -2.14047,8.545974 -1.70809,11.142117 0.55103,3.308595 0.38521,3.75 -1.40879,3.75 -1.20406,0 -2.56538,-1.079925 -3.33789,-2.647933 C 130.08705,48.895704 128.375,46.987145 127,46.110825 c -2.18644,-1.393469 -2.09237,-1.119701 0.75,2.182729 3.21352,3.73365 4.22892,7.983403 2.2062,9.233519 C 128.51093,58.420295 126,56.139996 126,53.934259 126,52.247883 122.56238,49 120.77749,49 120.34987,49 120,50.549906 120,52.444236 c 0,4.493251 3.61683,8.805764 7.38525,8.805764 3.00232,0 4.43947,2.026922 2.84516,4.012735 -0.54633,0.680496 -1.51149,5.287265 -2.14479,10.237265 -0.6333,4.95 -1.3555,10.263029 -1.60488,11.806732 -0.3977,2.46176 0.006,3.00048 3.28291,4.383098 9.52077,4.016817 17.13075,6.238496 21.48635,6.272781 L 156,98 Z m 0.0786,-19.501645 c -4.23349,-2.160992 -6.00139,-4.721855 -4.37946,-6.343786 0.86731,-0.867305 1.84632,-0.667997 3.97753,0.809751 1.55487,1.078126 3.6478,2.257095 4.65095,2.619931 1.86143,0.673273 1.98578,3.73183 0.17609,4.331238 -0.55,0.182171 -2.5413,-0.455539 -4.42511,-1.417134 z M 151.15335,51.25 c -1.90254,-3.630735 3.01595,-9.680697 5.69345,-7.003196 1.50764,1.507632 1.47963,6.026763 -0.0468,7.553196 -1.7458,1.745796 -4.58873,1.468886 -5.64665,-0.55 z m 118.76022,25.794276 c -4.21459,-1.277233 -7.73122,-4.014625 -10.14596,-7.897747 L 257.5,65.5 257.15026,43.626043 c -0.19235,-12.030676 -0.0503,-24.270467 0.31566,-27.199536 0.76574,-6.128848 3.61786,-10.8924519 8.48578,-14.1729376 l 3.4041,-2.29402385 67.5721,0.27022723 L 404.5,0.5 l 3.36653,2.4010693 c 5.24042,3.7375675 7.08575,8.9553297 7.11151,20.1081837 l 0.022,9.509253 16.5,15.815772 c 9.075,8.698675 16.49311,16.344511 16.48469,16.990747 -0.0512,3.928749 -1.67715,3.677593 -17.30182,-2.67257 L 415,56.278641 v 3.892798 c 0,7.918095 -5.13449,14.660895 -12.78105,16.784555 -4.39977,1.221934 -128.29179,1.304603 -132.30538,0.08828 z M 404.03273,71.483073 C 408.32717,69.262332 410,65.216156 410,57.04966 410,53.172347 410.36801,50 410.8178,50 c 0.44979,0 6.41229,2.260107 13.25,5.02246 L 436.5,60.044921 423.25,46.759054 410,33.473187 V 22.721908 11.97063 L 406.57721,8.2353148 403.15443,4.5 337.82721,4.2399978 272.5,3.9799956 269,5.7399978 c -6.5056,3.271393 -6.99669,5.6124572 -6.99845,33.3621192 L 262,63.704234 l 2.28002,3.383314 c 1.254,1.860823 3.3915,3.945737 4.75,4.633141 1.89924,0.961031 17.44318,1.253234 67.26964,1.264569 55.98507,0.01274 65.19869,-0.191603 67.73307,-1.502185 z M 283.67542,48.342085 C 283.30394,47.970605 283,46.841667 283,45.833333 V 44 h 53.56955 53.56955 l -0.31955,2.25 -0.31955,2.25 -52.57458,0.258751 c -28.91602,0.142313 -52.87852,-0.04519 -53.25,-0.416666 z M 283,30 v -2 h 53.5 53.5 v 2 2 H 336.5 283 Z"
         id="path13" />
      <path
         style="fill:#62deab"
         d="m 141.01388,447.25 c 0.008,-1.5125 1.7923,-13.30909 3.96591,-26.21463 l 3.95202,-23.46464 -19.88285,-39.03536 -19.88285,-39.03537 -4.07574,-0.30714 -4.07574,-0.30714 -0.25732,64.80714 C 100.53169,440.51818 100.31526,448.5 99,448.5 c -1.315256,0 -1.531691,-7.98182 -1.757314,-64.80714 l -0.257314,-64.80714 -4.198986,0.30714 -4.198986,0.30714 -32.12862,63 c -20.828734,40.84241 -32.714241,63.11372 -33.793699,63.32332 -0.915795,0.17783 -1.66345,-0.27217 -1.661457,-1 0.002,-0.72782 14.176993,-29.12009 31.5,-63.09391 C 69.826631,347.75558 84,319.74308 84,319.47941 84,319.21573 72.060547,319 57.467881,319 28.714456,319 26.36296,318.63613 20.822659,313.32947 17.253266,309.91061 17.073203,309.38521 9.4000408,280 1.378145,249.27927 0.07796262,243.15509 0.05871745,236 0.01664336,220.35744 12.802464,211.98449 34.74077,213.28804 47.267343,214.03236 55,216.27183 55,219.15537 c 0,1.67928 -0.431627,1.95417 -2.25,1.43294 -11.647105,-3.33859 -14.735373,-3.78135 -23.827783,-3.41615 -8.33224,0.33467 -10.486973,0.80318 -15.445623,3.35838 -8.1320748,4.19048 -9.76631,7.45251 -9.1576351,18.27919 0.2569448,4.57036 0.7354537,8.57802 1.0633532,8.90592 0.3278994,0.32789 5.5083469,-0.61732 11.5121059,-2.10049 17.436857,-4.3076 33.047731,-6.03492 42.605582,-4.71424 17.432218,2.40875 22.56909,8.57171 26.223634,31.46182 l 0.776366,4.86274 9,-4.71612 C 125.39358,256.84472 141.8816,245.89499 144.07589,240.25 L 144.9505,238 h 15.3782 15.3782 l 1.14655,-6.94263 c 0.6306,-3.81844 1.14655,-7.40459 1.14655,-7.96922 0,-0.63097 -4.72079,-1.1348 -12.25,-1.30737 L 153.5,221.5 l -0.29237,-7.17877 -0.29237,-7.17877 9.3847,-5.60035 c 5.94744,-3.54915 9.99185,-5.36736 11.04237,-4.96424 2.64142,1.01361 2.03934,1.75966 -4.59233,5.69043 l -6.25,3.70455 15.5,0.011 c 10.91109,0.008 17.49863,0.49591 22.25079,1.64897 5.92574,1.43783 7.20531,1.46502 10.46989,0.22251 5.39741,-2.05427 7.04111,-6.78686 5.4929,-15.81534 -0.63325,-3.69283 -1.43851,-7.46252 -1.78946,-8.37709 L 213.78602,182 h 20.07821 20.0782 l 2.02427,-6.75 c 1.11334,-3.7125 5.3579,-17.97431 9.43236,-31.69291 4.86205,-16.37043 8.02245,-25.39213 9.19565,-26.25 3.19487,-2.33615 7.70105,-1.29082 19.40529,4.50158 8.92452,4.41673 11.69846,6.27099 12.38617,8.27962 0.703,2.0533 -0.89891,8.27925 -7.75,30.12101 C 293.88628,175.3523 290,188.02507 290,188.37101 290,188.71696 318.97686,189 354.39301,189 h 64.39301 l 0.61396,-1.59996 c 1.71213,-4.46173 41.32689,-68.40925 44.3223,-71.54659 4.89781,-5.12988 12.59911,-9.09385 17.94416,-9.23612 L 486.07471,106.5 485.78735,101.52336 485.5,96.546725 481.05783,95.792703 C 472.23324,94.294799 464.50209,84.26492 463.31634,72.776063 l -0.58268,-5.645545 3.0744,-2.815259 c 3.81174,-3.49045 9.57838,-18.724679 8.11964,-21.450361 -1.41325,-2.640677 -1.1093,-7.16061 0.65047,-9.67304 1.30221,-1.859158 2.17061,-2.142013 4.96614,-1.617568 l 3.38796,0.635586 1.71908,-3.604938 c 2.01946,-4.234849 3.62196,-4.462776 8.42588,-1.198428 3.18215,2.162329 4.04281,2.310425 8.48213,1.459557 12.97596,-2.487049 27.80337,5.117475 34.17311,17.526335 2.05143,3.996368 2.71296,6.956893 3.04061,13.607598 0.58612,11.896839 -1.88917,18.342091 -10.1773,26.5 l -6.09578,6 0.86925,7.75 0.86925,7.75 h 4.31565 c 2.37361,0 5.44642,0.42992 6.82847,0.95537 3.28726,1.24981 10.38757,7.69887 12.07723,10.96948 0.76278,1.47647 3.31506,20.92089 5.98221,45.57515 2.55851,23.65 4.86428,44.0125 5.12394,45.25 0.38183,1.81976 1.14778,2.25 4.00565,2.25 5.96464,0 16.67069,2.8965 22.03947,5.96274 7.79757,4.45337 8.90972,7.49245 8.79647,24.03726 -0.10031,14.65402 -2.52626,28.96632 -8.55981,50.5 -3.47054,12.38634 -4.64598,15.05531 -8.01641,18.20227 C 571.5738,316.61124 568.9101,317 540.53212,317 525.93945,317 514,317.23459 514,317.52131 c 0,0.28672 10.06923,20.19922 22.37608,44.25 36.80536,71.92728 39.94829,78.41018 38.45955,79.33028 -0.7254,0.44832 -1.63049,0.49637 -2.01132,0.10677 C 572.44349,440.81876 558.0276,412.825 540.78901,379 l -31.34289,-61.5 -3.22306,-0.31336 c -2.16579,-0.21056 -3.21179,0.11747 -3.18871,1 0.0189,0.72235 4.93135,30.33836 10.91658,65.81336 6.63245,39.3112 10.52428,64.871 9.96564,65.45 -0.577,0.59805 -1.33733,0.52924 -2.0523,-0.18573 -0.62465,-0.62465 -5.32353,-26.17377 -10.44194,-56.77581 -5.11841,-30.60204 -9.52181,-56.16846 -9.78532,-56.81427 -0.26351,-0.6458 -0.51464,23.49631 -0.55806,53.64913 L 501,444.14665 499.25,443.80972 497.5,443.47278 497.24254,380.23639 496.98509,317 l -3.74255,0.006 -3.74254,0.006 -18.3812,36.10349 c -12.14879,23.86207 -17.99835,36.34011 -17.25207,36.80133 0.62102,0.38381 2.80311,6.2286 4.84908,12.9884 l 3.71995,12.29056 7.24993,-0.3661 c 3.98746,-0.20136 7.76189,-0.87807 8.38762,-1.5038 1.00885,-1.00885 -0.88019,-12.04978 -3.69165,-21.57669 -0.37222,-1.26133 0.0501,-1.75 1.51241,-1.75 2.10787,0 2.65699,1.34058 5.12021,12.5 0.60701,2.75 3.33019,12.38443 6.05151,21.40984 2.72132,9.02542 4.79045,16.56725 4.59807,16.75964 -0.71794,0.71793 -177.0886,0.30321 -177.74861,-0.41796 -0.37828,-0.41334 -1.46542,-6.15152 -2.41588,-12.75152 -1.70341,-11.82858 -2.34559,-13.51911 -7.88436,-20.75564 l -1.34375,-1.75565 -3.76722,1.57405 c -2.07198,0.86573 -4.08987,1.20577 -4.48421,0.75564 -6.46949,-7.38466 -54.09604,-67.86835 -68.21573,-86.63106 l -18.85795,-25.05906 -6.47182,-0.0641 c -5.52094,-0.0547 -6.472,0.19298 -6.47307,1.68586 -0.001,1.45403 0.92601,1.75 5.48147,1.75 h 5.48272 l 16.51238,21.9705 c 12.15699,16.17545 16.92271,21.81303 18.06807,21.37351 1.21442,-0.46601 1.43837,-0.0757 1.02088,1.77951 -2.27266,10.09862 -10.43527,62.40549 -9.83131,63.00004 0.42049,0.41393 8.18953,4.87636 17.26453,9.91649 9.075,5.04014 17.49944,10.08417 18.72098,11.20897 3.09861,2.85321 4.71126,8.07481 3.30523,10.70201 L 268.92963,441 h -40.57836 -40.57836 l 0.58908,-4.25 c 1.733,-12.50289 2.71735,-34.36751 3.63538,-80.75 0.56063,-28.325 1.01557,-53.20178 1.01098,-55.28174 L 193,296.93653 181.30545,297.21826 169.6109,297.5 l -8.32214,49.792 -8.32215,49.792 12.0167,23.30199 C 171.59249,433.20208 177,444.20818 177,444.84399 177,445.47979 176.20393,446 175.23096,446 c -1.30384,0 -4.52421,-5.5304 -12.24648,-21.03116 -7.56761,-15.1903 -10.66925,-20.53648 -11.16806,-19.25 -0.37983,0.97964 -2.10124,10.33116 -3.82535,20.78116 -1.72411,10.45 -3.3762,20.0125 -3.67132,21.25 -0.77374,3.24455 -3.32282,2.85901 -3.30587,-0.5 z m 247.82203,-38.74615 c 10.87895,-5.94291 12.26386,-6.99068 11.72593,-8.87133 C 398.78926,393.43554 398.7475,392 400.33982,392 c 2.05209,0 2.74014,1.47057 6.24474,13.34692 l 2.90574,9.84692 7.22266,-0.36473 c 3.97246,-0.2006 7.73849,-0.88056 8.36896,-1.51103 0.86173,-0.86173 0.57407,-3.51993 -1.15878,-10.70789 -1.26779,-5.25887 -2.01355,-9.85311 -1.65724,-10.20943 1.90533,-1.90532 3.70895,1.2078 5.66635,9.78033 2.78159,12.1821 3.21264,12.85617 6.58666,10.30008 2.54854,-1.93071 5.22555,-6.94374 37.23728,-69.73117 L 484.88464,317 H 461.0902 437.29577 l -3.38332,-2.28002 c -4.56567,-3.0768 -6.08829,-6.28198 -5.55217,-11.68754 0.33901,-3.41818 1.17456,-5.12112 3.55718,-7.25 C 433.63021,294.2521 435.92445,293 437.01578,293 438.1071,293 439,292.87718 439,292.72707 c 0,-0.15012 -1.125,-4.70782 -2.5,-10.12823 -2.64929,-10.44382 -3.28485,-22.37544 -1.5197,-28.53017 2.27715,-7.93994 12.2199,-14.04255 22.90562,-14.0589 l 6.38593,-0.01 -0.63593,-4.63957 C 463.28617,232.80866 463,228.75866 463,226.36043 V 222 H 322.6372 182.2744 l -1.22294,7.58093 c -0.67261,4.16951 -0.92239,7.88201 -0.55506,8.25 0.36733,0.36799 12.89342,0.90668 27.83574,1.19708 29.56089,0.57453 31.91934,0.99491 38.00944,6.77504 6.27055,5.95139 8.1446,13.46013 6.66309,26.69695 l -0.44769,4 42.16573,55.75473 42.16574,55.75472 -3.37457,1.74528 -3.37456,1.74527 3.18034,5.22356 c 1.74919,2.87295 3.66743,5.05351 4.26277,4.84568 0.59534,-0.20782 8.23648,3.60172 16.98032,8.46566 l 15.89788,8.84353 3.01969,-1.81788 c 1.66082,-0.99983 8.57084,-4.85035 15.35559,-8.5567 z m -60.12297,6.44637 C 331.84689,413.85773 334,410.49365 334,406.6896 334,404.22956 327.51631,394 325.9571,394 c -0.54438,0 -5.29488,2.01178 -10.55666,4.47063 l -9.56689,4.47063 3.31753,4.61958 c 3.6808,5.12542 4.98759,6.03578 10.53919,7.34193 5.24842,1.23481 5.61114,1.23672 9.02267,0.0475 z M 449.37405,404.41451 C 451.91832,402.99248 454,401.58219 454,401.28052 454,399.75354 451.59917,393 451.05634,393 450.481,393 444,405.41666 444,406.51893 c 0,0.80387 0.5697,0.58077 5.37405,-2.10442 z M 157.98146,343.54553 c 4.24171,-25.0352 7.48112,-45.74961 7.1987,-46.03204 -0.81294,-0.81294 -9.18368,-0.59653 -9.14836,0.23651 0.0175,0.4125 0.6925,1.62351 1.5,2.69113 1.93538,2.5588 1.88014,10.52573 -0.0925,13.34208 C 154.198,318.41081 151.33045,319 132.04966,319 122.12235,319 114,319.29574 114,319.6572 c 0,1.22381 35.44189,70.23424 35.85714,69.81899 0.22667,-0.22666 3.88261,-20.89546 8.12432,-45.93066 z M 79.83899,306 C 81.895127,292.9475 81.849642,268.77529 79.75608,261.93717 76.268789,250.5468 71.577751,246.63907 59.305051,244.90104 51.488512,243.79408 37.364118,245.06088 23.5,248.11236 10.76513,250.91528 7,252.14459 7,253.49958 c 0,2.96546 13.326217,52.32059 14.819947,54.88732 0.924029,1.5878 3.255053,3.73131 5.180053,4.76335 l 3.5,1.87644 24,-0.26334 24,-0.26335 z m 72.41377,7.01582 c 1.38737,-1.09131 2.8076,-3.12019 3.15608,-4.50863 0.82847,-3.30089 -1.79058,-8.33052 -4.67703,-8.98176 -1.22749,-0.27695 -16.52501,-0.62097 -33.99447,-0.76449 -27.536275,-0.22622 -31.816326,-0.0614 -32.165944,1.23906 -0.221803,0.825 -0.691737,3.75 -1.044297,6.5 -0.352561,2.75 -0.870712,5.7875 -1.151447,6.75 L 81.865225,315 h 33.932525 33.93253 z M 486.73166,310.25 c -0.27243,-1.5125 -1.4989,-8.15 -2.72548,-14.75 -2.06899,-11.13281 -2.77676,-27.78046 -1.76263,-41.45886 l 0.25645,-3.45886 -7,-2.98709 c -6.08806,-2.59794 -8.24612,-2.99413 -16.56515,-3.04114 l -9.56514,-0.054 -4.26358,2.81628 c -2.46273,1.62675 -4.86389,4.25305 -5.68485,6.21789 -2.26261,5.41518 -1.77266,16.88509 1.19978,28.08761 3.71096,13.98582 3.67753,14.80417 -0.62106,15.20275 -8.74109,0.81051 -11.08549,10.8718 -3.5,15.02074 1.28835,0.70467 10.6691,1.10473 26.3635,1.12432 L 487.227,313 Z m 84.28394,0.93155 c 4.84164,-2.52677 7.3832,-8.12694 11.94929,-26.32956 5.24775,-20.92004 7.34891,-35.13162 6.85701,-46.37865 -0.59243,-13.54533 -3.58966,-16.95038 -17.6795,-20.08507 -9.96786,-2.21764 -30.36023,-1.4693 -41.6424,1.52816 -11.87181,3.15411 -23.3349,9.23028 -31.26527,16.57259 -12.43982,11.51736 -15.54132,21.60179 -13.39366,43.54899 1.04618,10.69094 4.56063,30.13936 5.82092,32.21199 0.25082,0.4125 17.42401,0.75 38.16263,0.75 H 567.5312 Z M 461.81037,214.25 461.5,210.5 309.25,210.2468 157,209.99359 V 213.9968 218 h 152.56037 152.56036 z m -39.78994,-10.72825 c -1.28051,-1.36304 -2.60405,-4.17554 -2.9412,-6.25 l -0.61299,-3.77175 -65.0269,-0.25717 -65.0269,-0.25717 -2.11564,6.50717 L 284.18117,206 h 70.08373 70.08373 z M 520,105.625 c 0,-1.30625 -0.28125,-3.78125 -0.625,-5.5 L 518.75,97 h -4.70069 c -6.16947,0 -8.23077,-2.271085 -10.94944,-12.063786 -2.57498,-9.275143 -2.59331,-8.753197 0.28807,-8.202386 8.17915,1.563544 11.37341,-10.518971 3.62897,-13.726826 -2.28275,-0.945544 -3.39507,-0.862811 -5.91422,0.439894 C 499.39621,64.329351 498,65.544904 498,66.148125 c 0,0.700337 -0.57712,0.617795 -1.59668,-0.228363 -2.37466,-1.970789 -1.63953,-15.896281 0.9927,-18.804871 l 1.89046,-2.088926 -4.39324,-3.904933 -4.39324,-3.904934 -2.5,1.30953 c -1.375,0.720241 -4.25413,3.121324 -6.39806,5.335739 l -3.89806,4.026209 2.67139,0.670475 c 2.94891,0.74013 5.62473,3.91057 5.62473,6.664455 0,2.586477 -2.50941,2.175168 -4.40804,-0.722506 -2.81986,-4.30364 -5.25404,-3.247791 -7.27214,3.154355 -0.98031,3.109896 -3.08627,6.958246 -4.67991,8.551889 -2.59414,2.594138 -2.83365,3.363623 -2.28741,7.348844 1.36013,9.923247 8.13902,17.804982 16.3553,19.016107 2.63571,0.388518 5.12281,1.206438 5.52689,1.817601 0.40408,0.611162 0.74158,3.679775 0.75,6.819144 l 0.0153,5.70793 7.75,0.34082 c 4.2625,0.18745 11.0125,0.43138 15,0.54207 L 520,108 Z M 470.43153,80.889217 c -0.74034,-1.197901 4.45761,-5.991168 6.00597,-5.538375 1.82566,0.533888 1.66076,2.550902 -0.375,4.586658 -2.2746,2.274597 -4.57327,2.663107 -5.63097,0.951717 z m 4.30489,-17.48613 C 473.69898,62.365643 475.89147,59 477.60473,59 c 1.01757,0 1.42674,0.754393 1.21482,2.239784 -0.3125,2.190384 -2.75956,3.486872 -4.08313,2.163303 z M 135,179.50615 c -18.02418,-9.61746 -21.73101,-12.31829 -19.12075,-13.93152 1.59986,-0.98877 41.228,20.63187 40.90119,22.31519 -0.15424,0.79445 -0.73044,1.57423 -1.28044,1.73286 -0.55,0.15862 -9.775,-4.39382 -20.5,-10.11653 z m 62.5,-11.28626 c -6.05,-5.91546 -22.87728,-22.38885 -37.39396,-36.60754 -17.76342,-17.3988 -27.73659,-26.43992 -30.5,-27.64962 -6.15629,-2.69496 -12.31326,-3.19991 -19.07979,-1.5648 -6.2894,1.51981 -7.52625,1.36888 -7.52625,-0.9184 0,-2.123462 7.58095,-3.971678 16,-3.900761 11.78254,0.09925 13.59878,1.400578 45.5,32.600631 15.4,15.06152 32.17924,31.39208 37.28721,36.29013 8.45754,8.10997 10.4764,11.29951 7.71279,12.18523 -0.55,0.17628 -5.95,-4.51942 -12,-10.43487 z M 143.77368,101.4966 c -3.14947,-0.79171 -9.33697,-3.089953 -13.75,-5.107201 -9.23759,-4.222615 -8.76904,-2.843886 -6.56517,-19.31847 l 1.39513,-10.429071 -4.17682,-3.705736 -4.17682,-3.705737 -0.18966,-7.04991 c -0.10431,-3.877451 -1.12396,-10.074849 -2.26589,-13.771995 -2.16578,-7.01196 -2.0212,-11.447803 0.53812,-16.510036 1.82979,-3.619272 7.91334,-8.755745 11.18577,-9.444398 1.50241,-0.316169 3.63166,-1.090983 4.73166,-1.721809 3.7594,-2.1559319 39.25723,0.05662 44.51294,2.774456 3.82551,1.978248 6.97839,6.997695 6.98332,11.11758 0.002,1.718351 -0.71313,5.093351 -1.5893,7.5 -1.40209,3.85123 -1.44452,5.884362 -0.35398,16.961837 l 1.23907,12.586111 -2.65841,11.890565 c -1.46213,6.53981 -3.22322,12.455368 -3.91354,13.145683 -1.4302,1.430207 -11.46943,3.564486 -12.82522,2.726564 C 161.4027,89.130846 161,91.072515 161,93.749853 c 0,2.677338 -0.58987,5.674577 -1.31081,6.660527 -1.76801,2.4179 -8.72834,2.89294 -15.91551,1.08622 z M 156.78514,94 l 0.28513,-4.5 -4.50443,-1.836355 C 146.94589,85.372516 139,79.392559 139,77.454193 c 0,-2.15925 3.41339,-1.760326 5.59501,0.653893 3.89861,4.314248 11.4198,7.246438 18.66339,7.27605 4.656,0.01903 7.18169,-0.425268 8.1191,-1.428254 0.74838,-0.800735 2.3775,-5.953782 3.62026,-11.451215 1.82101,-8.055314 2.1354,-11.610849 1.61979,-18.318773 -0.55857,-7.266785 -4.1019,-26.496458 -5.22278,-28.344054 -0.21961,-0.361988 -2.17686,0.20067 -4.34945,1.250353 -5.99974,2.898758 -13.73962,4.22351 -21.08033,3.608091 l -6.61817,-0.554843 -2.16854,6.733111 c -2.14703,6.6663 -2.60451,9.783234 -1.99364,13.583133 0.44245,2.752248 -2.82372,3.25084 -3.67733,0.561356 -0.85146,-2.682718 -4.43078,-6.024484 -6.44587,-6.018074 -1.09253,0.0035 -0.76389,0.679166 1.09436,2.25 3.226,2.727047 5.19071,6.399656 4.45259,8.323174 C 129.89887,57.427119 127,57.425982 127,55.576725 127,53.994272 122.27509,48 121.02774,48 c -1.40571,0 -1.88071,3.948613 -0.90159,7.49472 1.05713,3.828601 4.15846,6.50528 7.53734,6.50528 2.59969,0 4.12574,1.894195 2.39021,2.966813 -0.90649,0.560242 -3.97962,18.997846 -4.04465,24.266341 -0.0126,1.022336 8.49173,5.173816 14.49095,7.073896 6.23496,1.974743 9.17829,2.502023 13,2.328872 L 156.5,98.5 Z M 155,73.337643 C 150.7116,70.384285 149.76352,68 152.87756,68 c 1.03265,0 2.40111,0.630849 3.04101,1.401887 0.63991,0.771038 2.30198,1.687634 3.69349,2.036882 1.39151,0.349247 2.3503,1.180898 2.13065,1.848113 -0.62879,1.910027 -4.00606,1.935452 -6.74271,0.05076 z m 5.66667,-5.00431 c -1.33615,-1.336147 -0.59348,-2.230341 2.90226,-3.494418 l 3.56893,-1.290541 -0.52502,-3.024187 C 166.32407,58.860884 165.78491,54.2375 165.4147,50.25 164.81539,43.794992 164.93049,43 166.46441,43 c 0.94756,0 1.96066,0.909484 2.25135,2.021075 0.41527,1.587985 0.82378,1.776034 1.90638,0.877556 C 172.46405,44.369979 175,46.43728 175,49.467457 c 0,2.486224 -3.22613,5.95008 -4.45635,4.784725 -0.43673,-0.4137 -0.48185,1.823164 -0.10027,4.970809 l 0.69378,5.722992 -3.31858,2.02327 c -3.38708,2.065036 -5.96019,2.555803 -7.15191,1.36408 z M 151.31672,51.382988 C 150.18665,48.438067 152.3078,44.5 155.02408,44.5 c 2.85201,0 3.80797,3.076784 2.00353,6.448415 -1.30884,2.445594 -4.83618,2.714009 -5.71089,0.434573 z M 265.98983,74.75 c -1.81826,-1.2375 -4.24731,-3.520499 -5.39788,-5.07333 L 258.5,66.853339 V 38.598827 10.344316 l 2.69355,-3.5314312 C 266.61012,-0.28859641 263.44412,0 335.93325,0 c 70.78335,0 68.8875,-0.14372298 74.22358,5.626839 3.47219,3.7549037 4.83074,9.052109 4.83759,18.86244 l 0.006,7.989279 16.7195,16.741224 c 20.92391,20.951107 20.86565,21.751023 -0.95237,13.074704 L 415.5,56.223239 l -1.04457,5.695505 c -1.24494,6.788069 -4.17062,11.243693 -8.83687,13.457969 C 402.569,76.823824 394.98579,77 335.74675,77 H 269.29577 Z M 405.48632,70.8321 C 409.25033,67.871329 411,63.192241 411,56.087031 v -5.977207 l 13.2099,5.401855 c 7.26544,2.97102 13.36205,5.249705 13.54801,5.063744 0.18596,-0.185961 -5.75849,-6.123865 -13.2099,-13.195343 L 411,34.522849 V 24.729306 C 411,13.234115 409.57601,8.9312866 404.81018,6.0256346 L 401.5,4.0074761 335.63235,4.0037381 269.76471,4 265.88235,7.8823529 262,11.764706 v 26.167307 c 0,21.400625 0.27553,26.700128 1.51257,29.092296 3.14938,6.090226 0.70574,5.891812 73.10257,5.935653 L 402.73028,73 Z M 284,46 v -2 h 52.5 52.5 v 2 2 H 336.5 284 Z m 0,-16 v -2 h 52.5 52.5 v 2 2 H 336.5 284 Z"
         id="path12" />
      <path
         style="fill:#0f0f17"
         d="m 141.43995,448.70412 c -0.34408,-0.89668 1.24402,-12.83014 3.52912,-26.51881 L 149.12379,397.29683 129.22346,358.39841 109.32313,319.5 105.16157,319.1925 101,318.885 l -0.0153,63.8075 c -0.008,35.09413 -0.40811,64.42765 -0.8882,65.18562 C 97.262175,452.35295 97,446.89716 97,383.44098 V 319 l -4.25,0.0212 -4.25,0.0213 -32.17997,63.22875 C 27.573361,438.75409 21,450.42753 21,444.99508 21,444.36172 35.175,416.04937 52.5,382.07874 69.825,348.10812 84,320.0444 84,319.71493 c 0,-0.32948 -12.4875,-0.73763 -27.75,-0.90699 -24.158443,-0.26809 -28.163942,-0.5343 -30.948307,-2.05689 -6.311297,-3.45124 -7.884582,-6.9417 -14.341317,-31.81736 -3.3453499,-12.88853 -6.9221993,-26.63997 -7.9485539,-30.55877 -3.96382879,-15.13455 -3.59729115,-25.81831 1.0902211,-31.77752 2.8244065,-3.59065 10.1193848,-7.14684 17.7335418,-8.64484 13.133932,-2.58394 36.91613,1.96239 32.639061,6.23946 -0.288945,0.28895 -3.551445,-0.33568 -7.25,-1.38804 -5.272889,-1.50033 -9.099393,-1.83753 -17.724646,-1.56193 -9.639441,0.30799 -11.653817,0.69016 -16.286053,3.08982 -7.9449124,4.11574 -9.4103517,7.11563 -8.9782605,18.37932 0.1943449,5.06615 0.5583202,9.4143 0.8088339,9.66255 0.2505138,0.24824 4.4423802,-0.61428 9.3152586,-1.91672 21.530754,-5.75484 47.686987,-7.19031 55.640221,-3.05358 8.690318,4.52012 13.536841,12.83086 14.691158,25.19216 0.319848,3.42518 0.907308,6.7547 1.305467,7.39894 0.82681,1.33781 8.562746,-2.31903 27.003375,-12.76469 19.8037,-11.21778 32,-20.49038 32,-24.32897 0,-0.67073 5.31461,-0.95211 15.25,-0.8074 l 15.25,0.22212 1.58074,-7.9078 1.58074,-7.9078 -12.58074,-0.5 -12.58074,-0.5 -0.29077,-7.09925 -0.29076,-7.09925 9.2186,-5.51063 c 5.44706,-3.25609 9.9641,-5.31567 11.04077,-5.03411 2.84151,0.74307 2.23754,1.49163 -4.18867,5.19133 -3.29404,1.89645 -5.98917,3.80895 -5.98917,4.25 0,0.44105 7.64354,0.80191 16.98565,0.80191 9.64934,0 18.84423,0.49709 21.28879,1.15091 12.79174,3.42127 18.54449,-4.97312 14.30958,-20.88051 l -1.39223,-5.2296 20.08227,-0.2704 20.08228,-0.2704 9.07183,-30.66551 c 5.40195,-18.26022 9.84247,-31.50876 10.97682,-32.75 2.81927,-3.08493 5.88519,-2.54607 18.59501,3.26821 8.88963,4.06667 11.805,5.89069 12.84369,8.0357 l 1.3437,2.77487 -8.61332,27.66837 c -4.73732,15.2176 -8.60448,28.00586 -8.59369,28.41836 0.0108,0.4125 28.74462,0.75 63.85295,0.75 35.10834,0 64.10233,0.26899 64.4311,0.59777 0.32877,0.32877 0.35563,1.22877 0.0597,2 C 417.87014,192.7808 407.64742,193 352.92879,193 h -64.85724 l -1.88447,6.25 c -1.03646,3.4375 -1.69749,6.59318 -1.46896,7.01263 0.22854,0.41944 31.99795,0.76171 70.5987,0.76059 41.69865,-0.001 71.80662,0.38984 74.18318,0.96351 6.48185,1.56465 9.19169,1.20585 12.19848,-1.61513 2.13815,-2.00603 34.48274,-28.50608 40.91884,-33.52497 0.6776,-0.5284 1.57201,-0.32343 2.27269,0.52084 0.9375,1.12962 -2.62015,4.47441 -18.86733,17.73842 C 455.01021,200.09635 446,207.78225 446,208.18565 c 0,0.40341 3.7125,0.88507 8.25,1.07036 4.5375,0.1853 -60.4875,0.42849 -144.5,0.54044 L 157,210 v 4 4 H 309.5 462 v 2 2 H 322.10265 182.20531 l -1.10266,6.33191 C 180.49619,231.81447 180,235.58853 180,236.71873 v 2.05491 l 27.75,0.3867 27.75,0.3867 4.75121,2.31627 c 10.01125,4.88061 14.86215,15.16986 12.86195,27.2815 l -1.12517,6.81315 42.00601,55.56965 c 23.1033,30.56331 42.006,55.95375 42.006,56.4232 0,0.46944 -1.35,1.32415 -3,1.89935 -1.65,0.57519 -3,1.29944 -3,1.60944 0,1.69102 6.72487,10.37004 7.99747,10.32142 0.82639,-0.0316 8.43811,3.83732 16.91492,8.59753 l 15.41239,8.65494 15.08761,-8.39427 c 15.80331,-8.79246 15.81116,-8.80066 14.25319,-14.88922 -0.57923,-2.26362 -0.37603,-2.75 1.14891,-2.75 1.49093,0 2.46872,2.08581 5.00872,10.6846 1.73587,5.87653 3.72328,11.04464 4.41646,11.48469 3.82297,2.42691 15.77515,-0.50986 15.74319,-3.86826 C 425.97344,410.31046 425.08115,406.125 424,402 c -2.41194,-9.20248 -2.40822,-9 -0.1653,-9 1.5082,0 2.23125,1.77605 4.06295,9.97989 1.22553,5.48893 2.63924,10.23389 3.14158,10.54436 0.50234,0.31046 2.08238,-0.048 3.51121,-0.79668 2.01889,-1.05781 7.93278,-11.87663 26.53581,-48.54437 L 485.0242,317 h -23.04422 c -25.75888,0 -28.50481,-0.53191 -31.95435,-6.18982 -3.74672,-6.14536 -1.62322,-13.65879 4.66909,-16.52034 2.0929,-0.95179 3.97254,-1.83613 4.17697,-1.96521 0.20442,-0.12907 -0.63778,-3.96741 -1.87156,-8.52965 -2.72125,-10.06251 -3.65161,-22.75041 -2.08976,-28.49951 4.14578,-15.2605 24.66246,-19.75638 45.23248,-9.91192 l 4.9794,2.38305 2.60801,-4.1333 c 13.84873,-21.94811 51.94351,-35.25401 83.5944,-29.1982 18.55913,3.55095 23.6608,10.87847 22.29392,32.0207 -0.75244,11.63836 -5.14459,34.06691 -9.77773,49.93005 -3.6472,12.48745 -7.39139,17.57809 -14.34085,19.49795 -2.43894,0.67379 -14.0493,1.10722 -29.75,1.11062 -14.1625,0.003 -25.75,0.29792 -25.75,0.65523 0,0.35731 13.69543,27.49361 30.43429,60.30288 16.73886,32.80927 30.57636,60.2777 30.75,61.04096 0.17364,0.76325 -0.35929,1.52756 -1.18429,1.69847 -1.07872,0.22348 -10.34688,-17.09649 -33,-61.66909 l -31.5,-61.97983 -3.25,-0.0215 c -2.2963,-0.0152 -3.25,0.43937 -3.25,1.54909 0,0.86384 4.725,29.57904 10.5,63.81157 5.775,34.23253 10.5,63.48825 10.5,65.01272 0,3.37 -2.10711,3.05044 -3.03348,-0.46006 C 520.61313,445.59568 516.08859,419.3 510.912,388.5 l -9.412,-56 -0.5,55.4169 c -0.38874,43.08549 -0.77815,55.50956 -1.75,55.83333 -0.99127,0.33024 -1.25,-12.75575 -1.25,-63.22169 v -63.63812 l -4.54623,0.30479 -4.54624,0.30479 -18.43733,36.25 C 459.72195,374.88236 452.57847,390 453.34114,390 c 0.80372,0 2.7882,4.82907 5.1457,12.52164 3.29936,10.7659 4.16703,12.60437 6.1881,13.11162 3.17313,0.79641 10.62323,-0.39958 12.91135,-2.0727 l 1.85634,-1.35739 -2.23741,-9.35158 C 474.60404,391.97961 474.48258,390 476.41668,390 c 0.96364,0 2.11109,2.95806 3.58811,9.25 1.19428,5.0875 4.34198,16.45 6.99489,25.25 l 4.82347,16 -88.5992,0.25544 c -60.31329,0.17389 -88.80363,-0.0754 -89.23954,-0.78067 -0.3522,-0.56986 -1.44797,-6.50794 -2.43505,-13.19572 l -1.7947,-12.15962 -3.59078,-4.80971 C 304.18894,407.16437 302.1968,405 301.73689,405 c -0.45992,0 -2.20568,0.70818 -3.87948,1.57374 -1.6738,0.86555 -3.15614,1.42805 -3.29408,1.25 C 294.42538,407.64568 282.62766,392.875 268.34618,375 254.06469,357.125 234.36375,331.8125 224.56631,318.75 L 206.75277,295 h -6.37638 C 196.86937,295 194,295.43615 194,295.96922 c 0,0.5576 -5.20247,1.08847 -12.25,1.25 L 169.5,297.5 l -8.33232,49.71664 -8.33232,49.71663 12.08197,23.73372 c 8.52232,16.74116 11.76761,24.04296 11.015,24.78336 -1.50324,1.47884 -2.0953,0.51914 -13.46605,-21.82768 C 156.98483,412.85002 152.275,404.02869 152,404.01971 c -0.275,-0.009 -2.1645,9.94992 -4.19888,22.13087 -3.54472,21.22414 -4.95397,26.22063 -6.36117,22.55354 z m 188.59522,-34.22231 c 1.76954,-0.91506 3.17499,-2.60345 3.53781,-4.25 0.33108,-1.50249 0.71924,-3.18181 0.86258,-3.73181 0.1938,-0.74363 -4.981,-9.3747 -7.97463,-13.30093 -0.171,-0.22427 -17.8222,8.03831 -20.35948,9.53034 -0.52654,0.30962 4.75571,7.90716 6.50946,9.36264 2.02269,1.67868 8.48132,3.81377 11.68875,3.86406 1.53981,0.0241 4.12079,-0.63929 5.73551,-1.4743 z M 453.6267,401.52752 C 453.84295,400.96239 453.41903,398.475 452.68465,396 l -1.33525,-4.5 -3.91647,7.5 c -2.15406,4.125 -4.08993,7.89674 -4.30192,8.38165 -0.21199,0.48491 1.97434,-0.4027 4.85853,-1.97247 2.88419,-1.56977 5.42091,-3.31652 5.63716,-3.88166 z M 157.93894,345.24216 c 4.09141,-24.60819 7.6314,-45.52966 7.86663,-46.49216 0.36946,-1.51172 -0.34696,-1.75 -5.26152,-1.75 h -5.68921 l 2.07258,2.63486 c 3.7861,4.81325 2.33257,13.59185 -2.83155,17.10112 -2.18123,1.48225 -5.64713,1.84388 -21.69854,2.26402 l -19.10266,0.5 17.98466,35.25 c 9.89156,19.3875 18.26276,35.24647 18.60266,35.24216 0.33991,-0.004 3.96553,-20.14181 8.05695,-44.75 z M 80.121313,305.25 C 82.155383,290.86517 81.950499,267.95689 79.72336,260.75446 75.840206,248.19657 69.015295,244.4304 50.5,244.6282 33.407209,244.8108 7,250.31504 7,253.6952 c 0,3.35629 13.26508,52.77973 14.790914,55.10845 0.892923,1.36277 2.992754,3.31276 4.666291,4.33332 l 3.042795,1.85555 24.621313,0.004 24.621314,0.004 z m 72.678017,7.72232 c 2.92115,-2.72146 3.66551,-6.2304 2.04057,-9.61933 -2.49597,-5.20552 -3.64993,-5.35894 -38.32784,-5.09576 L 84.524115,298.5 l -0.706355,5 c -0.388496,2.75 -0.976813,6.4625 -1.307371,8.25 L 81.909374,315 h 34.356756 34.35675 z M 485.31485,301.75 c -3.92223,-19.43472 -4.74722,-41.34299 -1.83923,-48.84254 0.46787,-1.20662 -0.78715,-2.21525 -5.17905,-4.16228 -8.18242,-3.62744 -12.86684,-4.7332 -20.07869,-4.7396 -21.2837,-0.0189 -25.34563,13.70217 -14.68454,49.60384 0.54673,1.84112 0.11165,2.19173 -3.42063,2.75657 -7.75312,1.23977 -10.84629,8.99133 -5.65816,14.17946 L 436.90909,313 h 25.3381 25.33809 z m 85.61407,9.49845 c 5.14219,-2.62207 6.6926,-5.5156 10.58162,-19.74845 C 586.80361,272.12863 590,253.4907 590,241.99853 c 0,-14.46685 -2.0719,-18.38514 -11.60833,-21.95318 -21.58482,-8.07591 -57.80294,-1.5886 -76.48011,13.69894 -5.16164,4.22489 -10.556,10.59298 -13.14589,15.51886 -5.09363,9.68789 -4.96355,27.35204 0.39387,53.48685 L 491.26071,313 529.38035,312.998 567.5,312.996 Z M 291.05912,164.69829 c 5.2923,-17.70906 9.44341,-32.70208 9.2247,-33.31781 -0.72585,-2.04348 -21.63595,-11.64813 -23.20466,-10.65862 -2.24031,1.41315 -18.03474,58.43155 -16.67261,60.18867 2.19415,2.83041 19.85405,17.16221 20.43353,16.58273 0.32817,-0.32818 4.92674,-15.08591 10.21904,-32.79497 z M 188.36604,438.25 C 190.31859,428.02128 193,352.72247 193,308.1198 V 299 h 5.94316 5.94317 l 16.30683,21.99096 c 11.18751,15.08717 16.80544,21.87951 17.89504,21.63594 1.34893,-0.30155 0.78522,4.33242 -3.74179,30.75903 -2.93149,17.11274 -5.32287,31.78907 -5.31419,32.61407 0.01,0.90516 7.09227,5.3768 17.86037,11.27604 9.81452,5.37683 18.59234,10.60232 19.50628,11.61221 2.42535,2.67999 3.73812,7.98726 2.53277,10.23948 L 268.92963,441 H 228.38536 187.84109 Z M 135.23687,179.25539 c -18.3516,-9.67676 -21.85849,-12.13514 -19.4416,-13.62886 0.88113,-0.54457 37.84599,18.75286 40.16187,20.96642 0.94167,0.90006 1.1139,1.73601 0.48687,2.36304 -0.62703,0.62703 -8.12925,-2.80465 -21.20714,-9.7006 z m 56.02109,-17.30996 C 126.26998,98.125998 130.49412,101.67969 119.5,101.57675 c -3.3,-0.0309 -8.3625,0.33467 -11.25,0.81237 -4.46265,0.73828 -5.25,0.63437 -5.25,-0.6929 0,-1.743424 0.87415,-2.083896 9.60357,-3.740514 7.76403,-1.473411 15.47012,-0.02036 21.55262,4.063934 2.3891,1.60424 20.76881,19.08388 40.84381,38.84364 29.4879,29.02486 36.26139,36.17601 35.25796,37.22383 -1.00496,1.0494 -4.63171,-2.03174 -19,-16.14168 z M 520.50361,106.75 c -0.2385,-0.6875 -0.56187,-3.05 -0.71862,-5.25 l -0.28499,-4 -5.24122,-0.526932 c -2.89431,-0.290983 -5.97424,-1.259953 -6.87823,-2.163944 -0.90035,-0.900357 -2.6572,-5.163238 -3.90411,-9.473068 L 501.20935,77.5 504.57834,77.191205 C 508.45518,76.835861 512,73.076173 512,69.319687 512,66.214633 507.78537,62 504.68031,62 c -1.32582,0 -3.61998,0.951302 -5.09811,2.114004 -1.47814,1.162703 -2.98546,1.816073 -3.3496,1.451933 -0.36414,-0.364139 -0.54092,-4.352941 -0.39286,-8.864004 0.22923,-6.984119 0.5906,-8.474787 2.43378,-10.039597 l 2.16457,-1.837665 -1.77916,-0.995666 c -0.97853,-0.547616 -3.31114,-2.340768 -5.18357,-3.984782 l -3.40441,-2.989116 -4.38338,3.015839 c -2.41085,1.658712 -5.14096,4.172072 -6.06691,5.585245 l -1.68354,2.569405 2.69995,1.026517 c 3.12916,1.189705 5.28567,3.696835 5.33113,6.197887 0.0466,2.566925 -2.48747,2.132628 -4.37624,-0.75 -2.77437,-4.234223 -5.06292,-3.215975 -7.443,3.311627 -1.16547,3.196394 -3.25076,6.874836 -4.63399,8.174314 -2.93668,2.758861 -3.25017,6.678821 -1.03602,12.954403 3.06284,8.680997 9.53808,13.984167 17.14021,14.037694 L 488.73832,93 l 0.61983,3.75 c 0.34091,2.0625 0.62479,5.22833 0.63084,7.03518 L 490,107.07037 488,106 c -1.54155,-0.82501 -2,-2.09382 -2,-5.53518 V 96 h -3.30422 c -4.27809,0 -11.75719,-4.745259 -14.51686,-9.2105 -2.75726,-4.461344 -5.52347,-15.280587 -4.72264,-18.471317 0.34266,-1.36528 1.74134,-3.457895 3.10818,-4.650255 1.38741,-1.210307 3.79193,-5.690933 5.4435,-10.143543 2.54721,-6.867256 2.80137,-8.409673 1.82889,-11.099034 -2.14672,-5.936629 0.39373,-10.678014 5.79882,-10.822688 3.1697,-0.08484 4.06982,-0.591177 5.18522,-2.916779 1.88266,-3.925338 3.81133,-4.335568 7.5013,-1.595539 l 3.17781,2.359724 9.237,-0.304294 c 8.0814,-0.266226 9.91044,0.004 14.62001,2.160131 7.34256,3.361535 13.04339,8.773319 16.36321,15.53355 2.41554,4.918826 2.77978,6.841803 2.77978,14.675525 v 9.014981 l -3.30703,6.723584 c -2.23589,4.545826 -4.90265,8.069023 -8.2333,10.877473 -3.66584,3.091079 -4.81607,4.693123 -4.49556,6.261435 0.23689,1.15915 0.71176,4.695046 1.05526,7.857546 0.52883,4.86884 0.37884,5.75 -0.9788,5.75 -0.88184,0 -1.79847,-0.5625 -2.03696,-1.25 z m -375.00694,-5.18549 c -7.00717,-1.56204 -20.97715,-7.233602 -22.58269,-9.168156 -0.81648,-0.983797 -0.68769,-4.397877 0.48868,-12.954414 2.01307,-14.642475 2.0564,-13.911746 -0.90496,-15.261033 C 118.16471,62.206665 115.98441,57.337363 116.14799,50 c 0.0914,-4.098409 -0.46341,-7.930655 -1.50154,-10.372124 -2.37269,-5.580083 -2.103,-13.263703 0.63523,-18.098305 2.73568,-4.830113 6.93101,-7.781247 14.40276,-10.131403 l 5.64779,-1.7764465 18.24544,1.1177215 c 19.43712,1.190724 22.74487,2.051483 25.79969,6.713722 2.73105,4.16811 2.93615,7.816792 0.8334,14.82579 -1.59555,5.318375 -1.79452,7.519169 -1.03116,11.405506 1.7933,9.129807 1.23217,23.09211 -1.3382,33.297662 -2.71145,10.765759 -3.92728,11.977686 -12.04174,12.003135 L 161.09931,89 l -0.68135,6.022377 c -0.37475,3.312307 -0.96302,6.196453 -1.30727,6.409213 -1.99358,1.2321 -8.40253,1.29467 -13.61402,0.13292 z m 11.30116,-7.644032 0.29783,-4.579523 -4.14479,-1.62812 c -4.55704,-1.790053 -12.56464,-7.470832 -13.39214,-9.500689 -1.13575,-2.785998 2.58691,-2.291453 6.1232,0.813449 5.25181,4.61115 10.97604,6.943569 16.81807,6.852763 9.46612,-0.147138 9.56339,-0.237909 12.22191,-11.405477 1.97764,-8.307415 2.28497,-11.642876 1.8403,-19.972881 -0.46651,-8.739083 -3.51105,-25.990174 -5.01684,-28.426589 -0.28866,-0.46707 -3.34196,0.325331 -6.78511,1.760891 -5.29238,2.206567 -7.7716,2.610907 -16.03563,2.615269 l -9.77536,0.0052 -2.04411,6.863725 c -1.98802,6.675391 -2.51943,10.743292 -1.77097,13.556544 0.73753,2.772194 -2.06391,2.161594 -3.58588,-0.781576 -1.68091,-3.250526 -4.30297,-5.095717 -7.23257,-5.089686 -1.28169,0.0026 -0.87116,0.57968 1.3958,1.961912 2.97458,1.813693 5.67816,7.291096 4.58264,9.28435 C 129.43465,57.813878 127,56.915514 127,55.034478 c 0,-2.193497 -5.7556,-8.612207 -6.79262,-7.575195 -1.31345,1.31345 -0.62389,8.256101 1.078,10.853505 0.95695,1.460502 2.97173,2.925188 4.47727,3.254858 5.4029,1.183077 5.42636,1.205165 3.89171,3.664344 C 128.51318,67.060663 126,83.697639 126,89.42344 c 0,0.755369 3.41925,2.705904 7.75,4.42104 10.42032,4.126827 14.01762,5.055136 18.75,4.83857 l 4,-0.18305 z m -3.03205,-21.849121 c -2.65089,-2.377226 -2.96633,-3.044832 -1.67539,-3.545741 1.81434,-0.703993 10.12457,4.317552 9.31445,5.628354 -1.05157,1.70147 -4.45364,0.773975 -7.63906,-2.082613 z m 6.85432,-3.877023 c -0.71754,-1.161015 1.03024,-2.688869 4.18218,-3.655925 l 2.30227,-0.706368 -0.75699,-7.166021 c -0.41635,-3.941311 -0.77737,-8.47319 -0.80228,-10.070842 -0.0521,-3.341903 2.33463,-4.770422 3.09733,-1.853838 0.37675,1.440694 1.14206,1.831317 2.92149,1.491157 1.63341,-0.312245 2.6187,0.08029 3.05492,1.217073 C 175.50457,49.757278 173.40765,54 171.38154,54 c -1.41672,0 -1.57742,0.813201 -1.09135,5.52275 0.50726,4.914843 0.33003,5.677902 -1.61009,6.932278 -3.04112,1.966217 -7.34567,2.895115 -8.06,1.739306 z M 151.5,51 c -1.36186,-4.290839 2.16842,-8.350004 5.12675,-5.894808 1.91008,1.585228 1.7136,4.276817 -0.45549,6.23982 C 153.74354,53.542067 152.27233,53.433406 151.5,51 Z m 319.00113,30.001827 c -0.57529,-0.930841 4.16079,-5.900296 5.68985,-5.970226 1.90295,-0.08703 1.76083,2.390791 -0.26053,4.542427 -2.40576,2.560824 -4.40426,3.086386 -5.42932,1.427799 z M 269,76.289223 c -3.72372,-1.425916 -7.38381,-4.92331 -9.09457,-8.690292 -1.65446,-3.643021 -1.86395,-6.883836 -1.88347,-29.137041 L 258,13.42378 260.25,9.0056444 c 1.59872,-3.1392709 3.52572,-5.0820805 6.65728,-6.7118897 L 271.31457,0 h 64.63082 64.63083 l 4.45382,2.25 C 412.35412,5.9500121 414,9.4615068 414,21.38746 v 10.091694 l 16.97418,17.010423 c 21.40437,21.450063 21.39684,22.277594 -0.12421,13.654468 -8.44248,-3.382762 -15.68747,-6.149029 -16.09997,-6.147261 -0.4125,0.0018 -0.75,2.186669 -0.75,4.855333 0,5.373943 -2.48186,9.968355 -7.32278,13.555935 L 403.85443,76.5 337.17722,76.681808 C 300.50475,76.781803 269.825,76.605139 269,76.289223 Z m 133.28212,-3.660344 c 6.16347,-2.62622 8.14257,-5.907134 8.56094,-14.192159 C 411.04961,54.346524 411.53742,51 411.9271,51 c 0.38968,0 6.2675,2.247987 13.06184,4.995527 6.79434,2.74754 12.48569,4.86318 12.64744,4.701423 0.16176,-0.161758 -5.76525,-6.340993 -13.17114,-13.731634 L 411,33.527787 V 23.714234 C 411,13.005704 409.93701,9.6688099 405.38512,6.088296 L 402.73028,4 h -65.9148 C 264.49232,4 266.69547,3.8206409 263.51693,9.967267 262.2731,12.372569 262,17.666685 262,39.373615 v 26.472934 l 2.58291,3.069619 c 1.42061,1.68829 4.00811,3.482232 5.75,3.986537 1.75474,0.508021 31.1646,0.957138 65.94921,1.007107 51.10607,0.07341 63.38057,-0.164809 66,-1.280933 z M 284,46.5 c 0,-1.314286 6.5,-1.5 52.5,-1.5 46,0 52.5,0.185714 52.5,1.5 0,1.314286 -6.5,1.5 -52.5,1.5 -46,0 -52.5,-0.185714 -52.5,-1.5 z M 284,30 v -2 h 52.5 52.5 v 2 2 H 336.5 284 Z m 191,31.968615 c 0,-1.117261 0.69441,-2.297854 1.54313,-2.623538 2.08934,-0.801758 2.77187,0.08709 1.98079,2.579562 C 477.67643,64.594836 475,64.628236 475,61.968615 Z"
         id="path11" />
    </g>
  </g>
</svg>
