<?xml version="1.0" encoding="UTF-8" standalone="no"?>
<!-- Created with Inkscape (http://www.inkscape.org/) -->

<svg
   version="1.1"
   id="svg1"
   width="418"
   height="450"
   viewBox="0 0 418 450"
   sodipodi:docname="HR_16.svg"
   inkscape:version="1.3.2 (091e20e, 2023-11-25, custom)"
   xmlns:inkscape="http://www.inkscape.org/namespaces/inkscape"
   xmlns:sodipodi="http://sodipodi.sourceforge.net/DTD/sodipodi-0.dtd"
   xmlns="http://www.w3.org/2000/svg"
   xmlns:svg="http://www.w3.org/2000/svg">
  <defs
     id="defs1" />
  <sodipodi:namedview
     id="namedview1"
     pagecolor="#ffffff"
     bordercolor="#000000"
     borderopacity="0.25"
     inkscape:showpageshadow="2"
     inkscape:pageopacity="0.0"
     inkscape:pagecheckerboard="0"
     inkscape:deskcolor="#d1d1d1"
     showgrid="false"
     inkscape:zoom="1.7488889"
     inkscape:cx="208.98983"
     inkscape:cy="225"
     inkscape:window-width="1920"
     inkscape:window-height="1001"
     inkscape:window-x="-9"
     inkscape:window-y="-9"
     inkscape:window-maximized="1"
     inkscape:current-layer="g1" />
  <g
     inkscape:groupmode="layer"
     inkscape:label="Image"
     id="g1">
    <g
       id="g2"
       transform="translate(0.04780943,0.03572997)">
      <path
         style="fill:#fdfdfd"
         d="M 0,225 V 0 H 209 418 V 225 450 H 209 0 Z"
         id="path6" />
      <path
         style="fill:#cdc9c6"
         d="m 300.09244,448.25 c -2.11594,-1.73915 -2.11974,-1.82439 -0.61335,-13.75 0.83368,-6.6 1.73069,-13.2375 1.99335,-14.75 0.26266,-1.5125 0.07,-2.75 -0.42818,-2.75 -0.49815,0 -3.72598,3.40951 -7.17295,7.57669 -8.474,10.24455 -14.07381,12.77149 -19.6488,8.86661 -2.93659,-2.05687 -2.84805,-5.91104 0.2514,-10.9433 1.35502,-2.2 2.47772,-4.32662 2.49488,-4.72582 0.0172,-0.3992 -7.34589,-0.8492 -16.36235,-1 L 244.21288,416.5 l 9.82487,-27.3054 c 5.40367,-15.01797 11.18448,-29.41797 12.84624,-32 3.69464,-5.7407 12.13981,-14.05754 17.86601,-17.59453 2.3375,-1.44384 4.25,-3.30795 4.25,-4.14247 0,-4.58225 -18.79648,11.13548 -24.39722,20.40109 -2.80421,4.63917 -17.281,42.52943 -21.88275,57.27397 L 241.51304,417 h -87.92461 c -59.74348,0 -89.960392,-0.35452 -94.276227,-1.10609 -4.829257,-0.84098 -6.695921,-0.82034 -7.788108,0.0861 -1.57222,1.30483 -3.518634,0.59478 -3.533482,-1.28902 -0.0052,-0.65504 -3.516065,-2.87721 -7.802005,-4.93815 C 20.431667,400.25246 6.3000001,382.04011 1.8739897,360.37443 0.03397082,351.36738 -0.02840345,345.42267 0.23068717,203.75601 L 0.5,56.5 3.3236327,48.509598 C 10.690625,27.662259 27.202976,10.86852 47.729134,3.34738 L 55.5,0.5 204,0.21268536 C 309.2948,0.00896322 354.39114,0.24772803 359,1.0333406 383.5104,5.2113071 405.02554,23.887603 413.68173,48.5 l 2.8136,8 0.50233,48.5 c 0.82376,79.53236 0.56966,250.2134 -0.3785,254.25 -0.48447,2.0625 -1.15947,3.73804 -1.5,3.72342 -0.34054,-0.0146 -4.66916,-7.10212 -9.61916,-15.75 -13.84367,-24.18553 -21.49933,-30.25989 -39,-30.94443 -9.92393,-0.38817 -18.81142,1.38403 -19.28548,3.8456 -0.24553,1.27493 0.90951,1.20164 7.86168,-0.49883 6.89654,-1.68686 9.09305,-1.83101 14.28665,-0.93755 8.37302,1.44042 15.27264,4.87728 20.63715,10.27986 4.33212,4.36286 24,36.73463 24,39.5021 0,2.70529 -8.12025,17.27819 -12.89987,23.15058 -7.91219,9.72115 -19.91212,17.98755 -31.71654,21.84858 -4.06172,1.32852 -5.01598,2.06738 -4.95684,3.83796 0.0835,2.50002 -2.30265,2.97381 -3.48869,0.69271 -0.42895,-0.825 -1.73647,-4.01043 -2.90561,-7.07872 -2.42603,-6.36691 -6.95057,-12.31046 -10.94303,-14.37504 -8.96604,-4.63652 -33.70225,-7.88652 -42.73829,-5.61522 -8.00966,2.0133 -10.31175,4.57937 -19.69825,21.95703 C 279.8938,421.69876 276,429.10519 276,429.34677 c 0,0.24159 0.71076,0.712 1.57946,1.04535 3.58708,1.37649 6.66652,-0.88497 14.99686,-11.01332 9.8119,-11.92969 11.40898,-14.6098 11.41752,-19.16018 0.006,-3.30421 2.30089,-5.39316 3.95611,-3.6014 0.44853,0.48553 -0.49766,11.20421 -2.10264,23.81929 -1.60498,12.61509 -2.69133,23.52759 -2.41411,24.25 0.86528,2.2549 5.51765,1.57948 6.45079,-0.93651 0.45897,-1.2375 2.49721,-11.89492 4.52943,-23.68315 2.03221,-11.78824 3.92211,-21.80074 4.19978,-22.25 0.27766,-0.44927 1.21623,-0.81685 2.08572,-0.81685 1.99543,0 1.65089,3.40736 -3.01573,29.82459 l -3.4137,19.32459 2.61525,-0.64535 c 1.43839,-0.35495 2.98168,-1.00243 3.42953,-1.43886 0.94587,-0.92175 8.13595,-26.78208 9.80474,-35.26434 1.22336,-6.21822 3.17451,-8.90711 5.08037,-7.00125 0.99206,0.99206 -1.50642,12.46145 -7.85616,36.06411 -0.58173,2.16237 -0.45322,2.26575 1.51028,1.21492 3.98358,-2.13195 10.84623,-16.95575 13.57753,-29.32841 0.42613,-1.93031 1.23071,-2.75 2.69931,-2.75 1.86834,0 2.02163,0.40131 1.43242,3.75 -0.96974,5.51133 -4.50739,16.08392 -7.14634,21.35744 -3.16982,6.33439 -6.76968,10.3841 -10.64617,11.97656 -1.79864,0.73888 -4.79555,2.37225 -6.6598,3.62971 -2.85102,1.92305 -4.70024,2.28629 -11.63921,2.28629 -6.37907,0 -8.73245,-0.39681 -10.3788,-1.75 z M 115.73307,388.65893 c 4.59884,-2.40787 6.70853,-6.93366 6.60016,-14.15893 -0.0915,-6.10289 -2.11958,-17.05018 -4.88172,-26.35134 L 115.92252,343 H 102.08626 C 85.472839,343 82,342.45909 82,339.87145 c 0,-1.78072 0.74419,-1.84473 14.289907,-1.22924 23.100523,1.04965 36.601233,-1.80484 43.828353,-9.26676 3.12119,-3.22258 3.37745,-3.96867 3.326,-9.68353 -0.0948,-10.53354 -5.24071,-18.21515 -19.87434,-29.66775 -14.2043,-11.1166 -22.52132,-16.30939 -24.067119,-15.02649 -2.033191,1.68739 -5.301863,-0.42233 -5.686342,-3.67018 -0.446444,-3.7713 -2.394773,-3.97591 -3.64726,-0.38302 -0.745102,2.1374 -1.518316,2.85878 -2.613667,2.43846 -1.721353,-0.66055 -2.039369,-4.06942 -0.593006,-6.35655 1.053943,-1.66659 -0.369579,-2.98639 -3.24771,-3.01108 -1.480625,-0.0127 -1.60122,0.32843 -0.706876,1.99953 0.815717,1.52418 0.763405,2.10496 -0.214816,2.38495 C 82.081906,268.60336 78.575,269.5287 75,270.4561 c -8.996711,2.33388 -18.393054,7.00362 -22.641873,11.25244 -3.104497,3.1045 -3.49992,4.03027 -3.010264,7.04767 0.71477,4.40461 5.56543,10.64583 13.467711,17.32857 3.401434,2.87649 6.182499,5.49667 6.180145,5.82261 -0.0024,0.32593 -1.332243,2.59433 -2.955306,5.04087 -2.393988,3.6086 -3.076716,4.12071 -3.616901,2.71301 -1.747384,-4.55361 -10.970714,-5.95826 -18.041012,-2.74752 -5.039389,2.28847 -7.3825,5.4434 -7.3825,9.94034 0,2.69183 0.919073,4.32814 4.368421,7.77749 L 45.736842,339 h 8.046815 8.046815 l 4.733585,6.25 c 8.206611,10.83562 13.374475,25.05523 13.418579,36.92183 L 80,386.84367 l 8.25,2.0591 c 9.961399,2.48624 22.48099,2.37516 27.48307,-0.24384 z M 42.383095,330.55595 c -0.869551,-2.26602 1.510582,-7.44018 4.247403,-9.23341 3.600262,-2.35898 8.936671,-1.89449 13.346799,1.16173 3.954323,2.74034 5.470371,4.98237 4.46693,6.60597 -0.965329,1.56194 -2.56011,1.0152 -6.097008,-2.09024 -5.165917,-4.53573 -9.747875,-3.88788 -11.211553,1.58523 -0.864427,3.23234 -3.801146,4.45009 -4.752571,1.97072 z m 59.783155,-16.5788 c -4.054693,-1.69339 -1.88968,-3.44381 5.00202,-4.04415 C 113.45293,309.38555 120,306.32364 120,303.93191 c 0,-1.26971 2.72674,-1.18307 3.52718,0.11207 1.0401,1.68292 -2.25337,5.77568 -6.31527,7.84791 -4.65096,2.37275 -11.93879,3.3828 -15.04566,2.08526 z m 6.35889,-13.93647 c -0.32609,-0.52763 -0.0351,-1.85246 0.64659,-2.94406 1.52405,-2.4404 0.32334,-3.95921 -7.64071,-9.66492 C 96.245755,283.64517 94.303406,280 97.570989,280 c 2.479411,0 16.452921,11.25371 17.082151,13.75729 1.02008,4.05864 -4.19693,9.40793 -6.128,6.28339 z M 77.75,290.9199 C 75.365256,289.53092 75.4568,286 77.877555,286 c 2.399247,0 4.518548,2.52539 3.765705,4.48727 -0.673288,1.75456 -1.471382,1.84325 -3.89326,0.43263 z M 63,286.01578 c 0,-1.86308 1.063061,-4.174 2.829605,-6.1511 2.326856,-2.60421 3.614996,-3.18445 7.25,-3.26578 5.817904,-0.13017 6.086606,2.38175 0.420395,3.92998 -3.11396,0.85086 -4.405886,1.91013 -5.832358,4.78204 C 65.418616,289.83888 63,290.20411 63,286.01578 Z m 256.86087,58.67808 c 4.7874,-2.21575 9.24085,-6.59639 17.37089,-17.08686 l 5.34202,-6.89299 -3.73939,-17.6045 c -2.34556,-11.04253 -3.38745,-17.95645 -2.79521,-18.54869 0.5193,-0.5193 3.10134,-0.82969 5.73787,-0.68975 C 350.59354,284.33901 356,276.92378 356,264.36359 c 0,-13.12801 -7.5714,-23.08013 -16.79058,-22.07016 -5.14564,0.56372 -7.85568,2.76704 -10.40139,8.45657 C 326.35295,256.23696 323,256.75953 323,251.65521 v -3.3448 l -5.75,1.94528 c -4.6184,1.56245 -7.76612,1.87137 -15.99449,1.56974 -8.89799,-0.32618 -9.91662,-0.20376 -7.75,0.93145 1.37197,0.71885 2.49449,2.19262 2.49449,3.27506 0,3.7988 -11.83872,1.98648 -16.32418,-2.49897 -2.10321,-2.10321 -0.67232,-4.52016 2.69662,-4.55493 1.47673,-0.0152 0.85641,-0.59914 -2.02783,-1.90875 -6.3091,-2.8647 -14.30252,-8.27457 -19.65359,-13.30136 -4.74284,-4.45542 -4.82811,-4.48833 -6.20093,-2.39274 -0.76557,1.16865 -2.60381,5.27481 -4.08497,9.12481 -3.53069,9.17736 -4.48369,25.74132 -2.03169,35.31242 3.61068,14.09384 10.7627,24.10068 20.81536,29.12406 15.04225,7.5167 31.84583,1.14978 42.49357,-16.10091 3.75978,-6.09133 4.95985,-6.93153 6.00612,-4.20501 1.76476,4.59891 -11.48963,19.70409 -21.54236,24.55044 -3.65536,1.76223 -6.79374,3.30253 -6.97416,3.4229 -0.73352,0.48936 6.13184,30.99067 7.23981,32.16487 3.22721,3.42014 15.98569,3.37938 23.4491,-0.0749 z M 265.75,291.89449 c -5.18692,-2.0015 -2.97932,-5.60404 2.50599,-4.08947 4.48904,1.23948 11.83585,-0.74879 16.51725,-4.47008 5.3742,-4.27199 5.87054,-4.46908 7.20506,-2.86108 0.97676,1.17691 0.66683,1.95204 -1.63669,4.09339 -6.70582,6.23372 -18.39757,9.71736 -24.59161,7.32724 z m -2.35116,-13.40854 c -1.63949,-2.50217 -1.63752,-3.02469 0.0382,-10.13257 1.69258,-7.17957 3.56031,-9.75606 5.59635,-7.72002 0.53189,0.53189 0.28422,3.25284 -0.60659,6.66413 -0.82803,3.17088 -1.37529,7.3912 -1.21614,9.3785 0.36005,4.49584 -1.47959,5.36936 -3.81179,1.80996 z m 15.26783,-10.15262 c -1.08655,-1.08654 -0.76018,-4.83982 0.53333,-6.13333 1.77868,-1.77868 3.58338,-1.45788 4.28801,0.76223 1.13407,3.57314 -2.53351,7.65893 -4.82134,5.3711 z m -26.96543,-1.96543 c -1.26973,-1.26972 -0.7316,-5.19469 0.94162,-6.8679 1.48646,-1.48647 1.79095,-1.49476 3.19857,-0.0872 1.1977,1.19771 1.33266,2.18994 0.58647,4.31172 -0.94947,2.69982 -3.3357,4.03429 -4.72666,2.64333 z m 80.73439,-2.47205 c -1.44303,-2.33487 -0.65464,-10.12554 1.28797,-12.72746 4.17327,-5.58965 11.30715,-8.52537 12.05088,-4.95917 0.24176,1.15924 -0.71038,2.15517 -2.95901,3.0951 -4.66858,1.95147 -6.2088,4.21684 -6.8005,10.00219 -0.5052,4.93967 -2.09948,6.98381 -3.57934,4.58934 z M 248,252.56809 c 0,-2.28887 5.88669,-5.84978 9.85883,-5.96368 4.72534,-0.1355 4.82786,2.01621 0.24329,5.10576 C 254.24354,254.31046 248,254.8407 248,252.56809 Z m -129.8222,18.78678 c 8.78315,-2.75568 17.70782,-10.758 22.20972,-19.9144 2.83422,-5.76452 5.12918,-17.24562 4.19291,-20.97603 -0.5285,-2.1057 -0.93623,-2.34439 -2.53927,-1.48647 -1.05032,0.56212 -4.63926,1.02203 -7.97542,1.02203 -6.62872,0 -7.24145,-0.77744 -5.08434,-6.45109 l 0.98141,-2.58129 -2.89744,2.14217 c -3.0098,2.22524 -8.3851,2.85937 -13.31537,1.57083 -1.5125,-0.3953 -2.75,-1.16325 -2.75,-1.70657 0,-1.85554 12.4235,-24.46827 14.69824,-26.75312 1.95321,-1.96188 3.28031,-2.27498 9.53538,-2.24961 3.99651,0.0162 8.61638,-0.004 10.26638,-0.0446 1.65,-0.0408 4.35,-0.0525 6,-0.0261 1.65,0.0264 5.025,-0.006 7.5,-0.0718 2.475,-0.0659 5.4,-0.0302 6.5,0.0794 1.1,0.10958 3.23122,-0.10119 4.73604,-0.46837 5.01884,-1.22462 9.4426,0.41381 15.11515,5.5982 L 190.78042,204 H 197.89021 205 v -28 c 0,-15.4 -0.3375,-27.98531 -0.75,-27.96735 -0.4125,0.018 -3.225,0.90326 -6.25,1.96735 -6.97163,2.45238 -20.43055,2.64731 -28.0685,0.40654 -22.84797,-6.70299 -38.05785,-30.70486 -33.96623,-53.60021 3.70939,-20.756431 20.35866,-36.977237 40.86033,-39.808791 7.98851,-1.103318 17.24774,-0.11832 23.51892,2.501944 C 202.3197,60.324767 204.17522,61 204.46788,61 204.76055,61 205,48.15843 205,32.463177 V 3.9263541 L 131.75,4.213177 58.5,4.5 50.758844,7.1409824 C 34.153541,12.806069 19.940929,24.836624 12.172423,39.803245 5.1825019,53.269862 4.7910058,55.764076 4.2718079,90.13792 l -0.4627689,30.63792 5.0820593,1.68799 c 2.7951327,0.92839 5.7454917,1.54133 6.5563537,1.36208 0.810861,-0.17925 5.465371,-3.90978 10.343355,-8.29006 L 34.659868,107.57171 31.536599,103.48 C 24.089846,93.724228 21.390683,80.817769 24.36824,69.203411 26.559922,60.654464 32.243658,48.628999 36.6125,43.297404 39.355508,39.949924 47.656025,32.903243 51.819288,30.38768 c 0.175608,-0.106107 -0.274392,-1.150474 -1,-2.320814 -1.110732,-1.791509 -1.087466,-2.272107 0.147174,-3.040176 0.930776,-0.579036 1.970677,-0.493823 2.846776,0.233275 1.067663,0.886081 1.596157,0.759871 2.333229,-0.557203 C 57.456569,22.361738 60,22.557923 60,25 c 0,1.1 0.115471,2 0.256602,2 0.141131,0 1.828631,-0.459958 3.75,-1.022128 C 65.927971,25.415701 71.325,24.942163 76,24.925565 c 10.248882,-0.03639 19.53043,2.558728 25.0683,7.009083 2.74821,2.208523 4.87902,3.068083 7.62306,3.075121 4.26698,0.01094 12.91746,3.702701 15.50365,6.616479 2.51764,2.836532 5.75796,10.482168 5.78303,13.645192 0.0121,1.524292 1.21408,4.572855 2.67111,6.774584 5.42763,8.201696 3.88713,19.526438 -3.57299,26.266203 C 125.35333,91.675585 122.51125,99 124.92901,99 126.24839,99 129,104.32183 129,106.87361 129,109.18762 124.39213,115 122.55766,115 c -0.79227,0 -1.70883,2.69017 -2.45411,7.20299 -2.01733,12.21541 -6.0844,19.23523 -14.72462,25.41489 l -4.35933,3.11789 4.68155,1.7879 c 9.93736,3.79511 16.2574,12.38226 21.87485,29.72172 2.20965,6.82057 2.5681,9.01051 1.62861,9.95 -1.83562,1.83562 -2.74828,0.31993 -6.74117,-11.19539 -2.00246,-5.775 -4.51818,-11.93103 -5.59048,-13.68007 C 111.63683,158.77925 101.57007,153.96715 88,153.51811 c -4.675,-0.1547 -9.687009,-0.75423 -11.137799,-1.33228 -2.52438,-1.00582 -2.888186,-0.70325 -8.461118,7.03687 -7.395168,10.27099 -9.689545,12.3607 -15.054497,13.71161 -6.315129,1.59017 -12.433195,-0.17895 -16.599849,-4.80006 C 34.94447,166.13541 28.840491,156.30212 23.182339,146.28248 13.478406,129.09844 12.685035,128.0067 9.1973948,127.03806 7.1638277,126.47326 5.1625,126.00864 4.75,126.00558 4.3375,126.00251 4,143.55 4,165 v 39 h 32.065741 c 20.191382,0 32.782023,0.38334 34,1.03518 2.579377,1.38044 2.437711,3.81214 -0.531591,9.1248 -3.767261,6.74036 -5.852792,16.13413 -5.035046,22.67914 1.001696,8.01731 2.835565,10.08559 9.000896,10.15142 6.632928,0.0708 12.295609,2.78447 16.805807,8.05362 C 92.337613,257.41787 94,259.68285 94,260.07745 c 0,0.39459 1.4625,0.65109 3.25,0.57 2.632483,-0.11943 3.25,0.23256 3.25,1.85255 0,1.34094 -0.778034,2.1101 -2.361043,2.3341 -2.0437,0.2892 -1.50607,0.91613 4.000003,4.66444 6.78773,4.6208 7.1091,4.658 16.03884,1.85633 z m 22.55864,-46.88282 c 1.47635,-1.03407 3.32603,-5.06847 5.72251,-12.48151 C 148.40653,205.96608 150,200.35366 150,199.51849 c 0,-1.97567 -6.29106,-2.07764 -7.90895,-0.1282 C 141.01536,200.68641 133,223.44502 133,225.20316 c 0,1.3803 5.45843,0.86447 7.73644,-0.73111 z m 15.14602,-2.83042 c 0.79094,-0.95303 7.79767,-21.08872 8.09914,-23.27505 0.0101,-0.0734 -1.21431,-0.36907 -2.72096,-0.65709 -4.736,-0.90534 -5.96575,0.7019 -9.70711,12.68683 C 149.59909,216.65711 148,222.05417 148,222.38978 c 0,1.21821 6.78498,0.57422 7.88246,-0.74815 z m -27.72837,-5.80837 c 3.17001,-3.43013 5.43676,-7.12656 6.74403,-10.99761 l 1.96912,-5.83087 -2.35453,-0.59094 c -4.51144,-1.13231 -5.78555,0.0264 -11.64064,10.58616 -3.20206,5.775 -5.83322,10.8375 -5.847,11.25 -0.0138,0.4125 1.41025,0.75 3.16452,0.75 2.55846,0 4.13442,-1.02236 7.9645,-5.16674 z m 41.68151,2.56933 c 1.25434,-0.87857 3.43869,-4.14107 4.85411,-7.25 2.85629,-6.27378 3.70899,-7.11501 7.2346,-7.13728 L 184.34863,204 181.9842,201.48318 c -3.07828,-3.27668 -8.9613,-5.10099 -11.70844,-3.63076 -1.79602,0.9612 -3.71346,5.90927 -7.90433,20.39758 -0.39779,1.3752 0.10309,1.75 2.33868,1.75 1.56468,0 3.87115,-0.71883 5.12549,-1.59741 z m -110.733376,-54.26756 3.697791,-4.16689 -3.539873,-6.89945 c -3.380815,-6.58942 -3.58362,-7.57773 -4.513443,-21.99492 -0.766868,-11.89051 -0.703709,-15.42064 0.297484,-16.62701 2.089189,-2.51732 3.331998,-0.0389 3.493396,6.96656 0.38639,16.77122 13.475019,28.57245 30.346187,27.36131 8.055397,-0.57827 13.323284,-3.10585 18.755394,-8.99899 4.74182,-5.14427 6.9532,-10.43988 8.67227,-20.76758 1.01923,-6.12326 1.60708,-7.55874 3.21781,-7.8576 4.93692,-0.91604 6.00508,-5.45572 2.08557,-8.86368 -2.1355,-1.8568 -2.29709,-2.529939 -1.54355,-6.43034 2.07844,-10.758315 0.12604,-19.287146 -5.81568,-25.405147 -4.84619,-4.989956 -10.52538,-7.330545 -19.660446,-8.102741 L 87,61.706528 v 3.178855 c 0,7.103927 -5.149245,13.688649 -12.636959,16.159818 -2.902439,0.957891 -5.154833,0.954893 -10.57685,-0.01408 -5.37826,-0.961148 -7.52503,-0.96773 -9.788889,-0.03001 -6.331545,2.622613 -7.981795,10.708296 -3.40909,16.703423 3.020443,3.959996 2.664356,7.036176 -0.611537,5.282976 -2.49419,-1.33485 -2.328172,-1.45454 -19.337223,13.94105 l -12.626285,11.42857 1.860926,3.15404 c 1.02351,1.73472 5.568701,9.75488 10.100425,17.82257 4.531724,8.0677 9.633056,15.84115 11.336294,17.27433 2.719668,2.28845 3.766389,2.55025 8.595208,2.14981 4.944653,-0.41005 5.870827,-0.87563 9.196204,-4.62286 z M 104.51843,114.75 c -2.69932,-2.34217 -3.90496,-7.71569 -1.89206,-8.43291 0.6195,-0.22074 2.06683,1.19262 3.21628,3.14079 1.51886,2.57428 2.78221,3.54212 4.62362,3.54212 1.86706,0 2.53373,0.52623 2.53373,2 0,2.82292 -5.11378,2.67219 -8.48157,-0.25 z m 0.50681,-14 c -5.105178,-2.611472 -7.059725,-5.115515 -5.337353,-6.837887 0.857243,-0.857246 2.000043,-0.489185 4.571913,1.472476 C 106.68642,97.235461 108.90355,98 111.84439,98 115.24755,98 116,98.341018 116,99.883369 c 0,1.107801 -0.92655,2.131671 -2.25,2.486341 -3.40926,0.91365 -3.97908,0.80787 -8.72476,-1.61971 z M 56.6875,96.354167 C 56.309375,95.976042 56,94.031667 56,92.033333 56,90.035 55.46,87.86 54.8,87.2 c -0.933333,-0.933333 -0.927217,-1.472783 0.02752,-2.427524 1.651606,-1.651606 4.368197,0.08081 5.615518,3.581109 1.480969,4.155978 -1.42003,10.336094 -3.755542,8.000582 z m 46.78937,-7.391591 C 102.3097,87.074049 105.79311,85 110.13211,85 c 4.21419,0 5.56067,1.180156 3.3961,2.976589 -2.19399,1.820847 -9.11573,2.499835 -10.05134,0.985987 z M 337.53624,138.75 c 1.34432,-2.8875 2.44862,-6.10054 2.45399,-7.14009 0.005,-1.03954 -3.60831,-6.73823 -8.03041,-12.66375 l -8.04018,-10.77367 3.20684,-4.5496 c 6.34917,-9.007623 3.43432,-21.745336 -6.08776,-26.603135 -6.84331,-3.491199 -16.94944,-2.20469 -21.3287,2.715143 -1.72725,1.940462 -1.71849,2.029625 0.25,2.544397 2.35305,0.615336 2.73831,3.5155 0.57717,4.344808 -2.46689,0.946632 -11.30921,-2.591729 -15.75148,-6.303138 C 276.7551,73.611578 269.93405,62.973798 262.13758,45 c -2.2106,-5.096268 -0.0235,3.168662 2.63305,9.950119 4.26379,10.884331 9.19236,18.172343 18.46167,27.299744 C 291.5084,90.399259 293.00876,93 289.43403,93 287.02466,93 270.68745,75.921767 266.84135,69.382556 261.87317,60.935571 258.13808,51.225328 256.43679,42.333466 255.64655,38.203295 255,34.583549 255,34.289587 255,31.1754 243.22583,49.065196 238.39732,59.51586 234.89886,67.087815 230,81.222286 230,83.744276 c 0,1.019492 0.66104,1.316122 2.09645,0.940752 4.13997,-1.082625 4.90146,0.100367 4.93844,7.671961 0.0451,9.236421 2.30786,21.835201 4.63543,25.809671 1.00633,1.71835 3.08052,4.05664 4.60932,5.19619 5.87396,4.37838 18.75526,1.41001 32.36766,-7.45882 3.44335,-2.24343 6.73135,-3.78805 7.30667,-3.43248 1.98632,1.22762 1.03418,3.37265 -2.45397,5.52845 -1.925,1.18972 -3.5,2.59142 -3.5,3.11489 0,0.52348 3.12039,5.60265 6.93421,11.28705 l 6.93421,10.33527 5.31579,-1.83596 c 9.69825,-3.34957 24.99159,-2.07912 35.61179,2.95835 0.16281,0.0772 1.39591,-2.2221 2.74024,-5.1096 z M 257.20028,105.95044 C 253.23218,104.35821 246,98.962842 246,97.594785 246,96.280705 263.52173,88 266.30228,88 268.24157,88 269,90.145474 269,95.631447 c 0,9.169473 -4.61232,13.203003 -11.79972,10.318993 z m 7.3111,-8.017824 c 0.37795,-2.237062 0.48668,-4.26789 0.24162,-4.512952 C 264.24214,92.90881 253,97.725714 253,98.455453 c 0,1.041255 5.64896,3.466717 8.1621,3.504507 2.34347,0.0353 2.74436,-0.4468 3.34928,-4.027344 z m 43.89443,0.682532 C 306.88452,94.65072 314.07616,83 318.04458,83 c 3.37949,0 3.22139,2.15638 -0.37547,5.121221 -2.56769,2.116504 -3.79562,4.113646 -4.39607,7.149901 -0.86427,4.370338 -3.72039,6.332638 -4.86723,3.344026 z M 245.98977,70.980894 c -1.50752,-2.816839 0.769,-7.373017 3.90651,-7.818386 C 254.10441,62.565163 255.44403,67.555967 252,71 c -2.54951,2.54951 -4.6391,2.542868 -6.01023,-0.01911 z m 8.61902,-11.691535 c -4.00872,-4.229633 -4.30473,-5.085073 -2.05791,-5.947258 0.89959,-0.345204 2.61795,0.402887 4.09182,1.781385 3.71557,3.47513 4.56941,5.455586 2.9364,6.810868 -1.08859,0.903451 -2.13495,0.346621 -4.97031,-2.644995 z"
         id="path5" />
      <path
         style="fill:#62deab"
         d="m 301.25,448.77314 c -2.70719,-1.29797 -2.75026,-2.33842 -0.75799,-18.31115 C 302.29747,415.98699 302.2814,417 300.70549,417 c -0.71199,0 -2.94225,2.16064 -4.95613,4.80143 -8.76776,11.49704 -13.32641,14.28778 -19.70614,12.06379 -4.49552,-1.56715 -4.83561,-4.67957 -1.23727,-11.32321 L 277.80764,417 H 261.40382 C 252.38172,417 245,416.61049 245,416.13443 c 0,-2.0998 19.29179,-53.95601 21.42537,-57.59124 3.88334,-6.61653 10.29758,-13.23523 17.07239,-17.61659 4.18288,-2.70513 6.181,-4.60015 5.82597,-5.52536 -0.86406,-2.25171 -9.82739,3.13164 -16.81452,10.09876 -8.00327,7.98034 -11.37797,14.84531 -22.50174,45.77414 l -9.26985,25.77414 -16.11881,-0.27414 L 208.5,416.5 l -0.2707,-20.24951 -0.27071,-20.24952 -3.94994,-2.61394 c -10.98991,-7.27278 -29.22787,-10.40109 -49.75053,-8.53358 -7.01696,0.63852 -15.9629,2.10613 -19.87985,3.26135 l -7.12172,2.10039 -0.50811,6.32993 c -0.68134,8.48813 -3.51549,12.97206 -10.15256,16.06252 -6.20466,2.88911 -16.47069,3.18042 -27.09588,0.76889 -3.85,-0.87382 -8.125,-1.79255 -9.5,-2.04164 -3.203049,-0.58026 -16.255776,9.68816 -23.5,18.48715 -4.751907,5.77177 -8.5,7.86383 -8.5,4.74441 C 48,412.45614 62.825389,397.20704 69.939426,392 l 6.148053,-4.5 -0.580083,-7.19088 C 74.53127,368.20876 70.606271,357.78518 63.200561,347.62596 l -3.553002,-4.87404 -5.57378,0.57944 c -7.217344,0.7503 -12.463815,-1.52441 -17.550047,-7.60918 -2.907912,-3.47879 -4.652572,-4.64707 -7.657243,-5.12754 -5.538721,-0.88568 -11.259125,-6.38807 -13.954162,-13.42236 -2.746278,-7.16804 -3.611785,-22.32735 -1.9764,-34.61653 1.374642,-10.32981 3.280995,-13.66732 13.201988,-23.11308 11.149574,-10.6155 23.010514,-17.41504 30.409478,-17.4329 l 4.047393,-0.01 -0.402208,-6.31656 C 59.742297,228.61169 61.926124,218.48503 65.039233,213.2087 66.117655,211.38114 67,209.6864 67,209.44284 67,209.19928 51.925,209 33.5,209 H 0 V 137.08797 C 0,78.569383 0.2688386,63.770844 1.4434469,57.63172 6.315747,32.166506 24.340582,11.749494 49.478917,3.2211913 L 57.5,0.5 203,0.20123591 C 307.76346,-0.01388134 350.73981,0.22069203 356.5,1.0390691 372.20087,3.2697648 388.08338,11.625434 398.36988,23.066502 403.81097,29.1183 410.18177,39.435359 412.53136,46 c 4.53574,12.672657 4.4917,11.069706 4.47892,163.0135 -0.0112,133.46983 -0.25344,153.00918 -1.8962,152.97296 -0.33775,-0.007 -4.80355,-7.17499 -9.92401,-15.92788 -10.31432,-17.63125 -14.68189,-22.4844 -24.3492,-27.05631 -8.15763,-3.85795 -16.24518,-4.63248 -25.84087,-2.47472 -8.21865,1.8481 -9.28383,2.39516 -8.17067,4.1963 0.57661,0.93298 1.98662,0.877 6.20836,-0.24649 8.05657,-2.144 17.80641,-1.88177 24.60465,0.66178 9.10318,3.40594 15.33715,10.43523 26.80897,30.22921 l 9.77623,16.86835 -4.78012,9.62909 c -3.97806,8.0134 -6.2204,11.05876 -13.36378,18.1496 -8.74468,8.68038 -16.0405,13.36645 -26.34532,16.92151 -4.18403,1.44344 -5.1938,2.21614 -5.01711,3.83919 0.34291,3.14991 -2.60765,3.65281 -3.75322,0.63971 C 360.43559,416.0155 360,414.62695 360,414.33013 c 0,-1.90647 -5.73633,-11.45052 -8.75167,-14.56095 C 345.57745,393.91947 330.68567,390 314.13097,390 c -12.8051,0 -18.16783,2.40455 -22.8094,10.2273 -7.63043,12.8601 -15.3864,28.16136 -14.90735,29.40975 0.69862,1.82059 4.61669,1.73003 7.32848,-0.16938 1.20324,-0.84278 6.25337,-6.50729 11.2225,-12.5878 C 302.32336,407.87603 304,405.20636 304,402.49399 304,398.17289 304.8723,396 306.60699,396 c 1.87781,0 1.78167,1.78688 -1.46699,27.26572 -1.52638,11.97115 -2.5573,21.98365 -2.29095,22.25 0.98954,0.98954 5.94088,0.441 6.9117,-0.76572 0.5531,-0.6875 2.71441,-11.25484 4.8029,-23.48297 2.0885,-12.22813 4.14732,-22.79937 4.57517,-23.49164 0.58281,-0.94301 1.06413,-0.97244 1.91921,-0.11736 0.85509,0.85509 0.23327,6.37034 -2.47946,21.99164 -1.99143,11.46768 -3.87203,22.08783 -4.17913,23.60033 -0.45842,2.25783 -0.20601,2.75 1.41032,2.75 4.64178,0 6.0072,-2.84419 11.28172,-23.5 2.80888,-11 5.26798,-20.16809 5.46466,-20.37354 0.19668,-0.20544 1.01533,-0.12114 1.81923,0.18734 1.21578,0.46654 0.65439,3.7252 -3.3376,19.37354 -2.63957,10.34696 -4.6844,18.94365 -4.54406,19.10376 0.14033,0.1601 1.56988,-0.81517 3.17677,-2.16728 3.98987,-3.35726 7.61945,-10.40406 10.8802,-21.12382 2.98926,-9.82726 3.89172,-11.4576 5.46912,-9.8802 1.33326,1.33326 -2.99976,16.43162 -6.93839,24.17679 -3.20333,6.29922 -8.23542,11.59231 -12.08141,12.70803 -1.375,0.39889 -3.53676,1.67476 -4.80391,2.83527 -1.90277,1.74265 -3.73091,2.14502 -10.5,2.31102 -4.50785,0.11054 -9.20859,-0.28445 -10.44609,-0.87777 z M 114.92892,389.24845 c 8.53498,-4.3521 9.6955,-12.83399 4.65176,-33.99845 L 116.66137,343 104.08068,342.92588 C 88.561454,342.83444 82.5,342.02231 82.5,340.03445 c 0,-1.24135 2.600583,-1.42096 17,-1.17409 18.80933,0.32249 28.49161,-1.0496 35.77287,-5.0694 13.16478,-7.26794 11.3684,-23.83063 -4.10483,-37.8467 -8.14511,-7.37806 -30.54094,-23.18968 -31.00137,-21.88721 -0.511249,1.44623 -3.775081,1.11971 -5.130315,-0.51325 -0.664694,-0.8009 -0.887142,-1.97621 -0.49433,-2.6118 0.667056,-1.07932 -1.074112,-2.88224 -2.816776,-2.91669 -0.426113,-0.008 -1.216382,1.14627 -1.756153,2.56597 -0.539771,1.41971 -1.541133,2.38666 -2.225249,2.14879 -1.228181,-0.42704 -1.424885,-2.32949 -0.64416,-6.23007 0.308642,-1.542 -0.200041,-2.06962 -2.221345,-2.30404 -2.325422,-0.26968 -2.56649,-0.0154 -2.133423,2.25 0.438957,2.29626 0.174078,2.55404 -2.62436,2.55404 -4.109715,0 -14.334014,3.51862 -20.818224,7.16445 C 52.534871,279.96953 49,284.19754 49,288.48693 c 0,4.07548 5.242639,11.07109 13.101114,17.48171 2.969387,2.4223 5.776069,4.71998 6.23707,5.10596 0.461002,0.38597 -0.395382,2.56581 -1.903075,4.84409 l -2.741259,4.14232 -2.096925,-1.96389 c -3.612872,-3.38367 -7.097636,-4.18309 -12.853584,-2.94866 -10.562444,2.26524 -14.880005,10.87261 -9.193531,18.32796 3.830696,5.0223 8.274033,6.75596 15.283008,5.96298 l 5.823495,-0.65885 3.74937,4.35973 c 8.186677,9.51937 13.791469,23.28336 15.109316,37.10477 l 0.643129,6.74505 5.170936,1.44202 c 8.057541,2.247 8.647671,2.32883 17.670936,2.45032 6.29496,0.0848 9.38952,-0.33912 11.92892,-1.63399 z M 42.635041,330.49132 C 41.104084,326.50171 47.022111,320 52.184519,320 c 5.486623,0 12.660903,5.35448 11.439381,8.53772 -0.522095,1.36056 -1.200948,1.13224 -4.349125,-1.46276 -4.603285,-3.79441 -9.412398,-4.14426 -11.718071,-0.85245 -0.856187,1.22237 -1.556704,3.02237 -1.556704,4 0,2.1633 -2.559512,2.36777 -3.364959,0.26881 z M 100.625,313.20225 c -1.05028,-1.69938 1.08306,-2.71373 5.99722,-2.8515 5.68074,-0.15927 8.51452,-1.32304 12.67511,-5.20537 2.34255,-2.18589 2.94567,-2.37023 3.70976,-1.13391 1.27051,2.05573 -4.37238,7.7175 -8.96273,8.99273 -4.26719,1.18545 -12.7319,1.31038 -13.41936,0.19805 z m 7.83606,-13.26526 c -0.36134,-0.58466 0.0621,-1.85759 0.94098,-2.82874 0.87888,-0.97115 1.59796,-2.02014 1.59796,-2.33107 0,-0.31094 -3.375,-3.15039 -7.5,-6.30988 -7.555832,-5.7873 -8.376943,-6.80729 -6.442483,-8.00285 1.379255,-0.85242 15.906923,10.27923 16.923953,12.96778 1.48153,3.91647 -3.49557,9.78103 -5.52041,6.50476 z M 76.964826,289.45762 c -0.986689,-1.18889 -1.008443,-1.814 -0.09492,-2.72753 1.454234,-1.45423 4.46437,0.14222 4.953419,2.62709 0.419767,2.13284 -3.111172,2.20584 -4.858499,0.10044 z m -13.606168,-1.96536 c -1.050632,-2.7379 2.153403,-8.03283 5.951334,-9.83507 C 74.136061,275.36707 77,275.49474 77,278 c 0,1.31727 -0.666667,2 -1.952947,2 -3.715424,0 -7.061951,2.27817 -7.857737,5.34921 -0.899916,3.47289 -2.892569,4.58768 -3.830658,2.14305 z m 145.424772,61.7335 c 12.79977,6.61164 21.53689,8.50353 31.85345,6.89739 17.69318,-2.75457 31.27849,-15.18289 35.87145,-32.81645 2.52903,-9.70958 2.24691,-10.73504 -3.34781,-12.16892 C 259.72715,307.69491 248.70838,294.41312 244.00969,276 l -1.65868,-6.5 -9.94433,0.0476 c -9.04467,0.0433 -10.56346,0.33729 -16.78778,3.25 C 211.855,274.5589 208.60098,276 208.38773,276 208.17448,276 208,260.925 208,242.5 V 209 h -13.82906 -13.82907 l -2.33039,4.97549 c -3.43515,7.33419 -5.94826,9.27208 -12.75379,9.83459 -3.16673,0.26174 -6.71187,1.10009 -7.87808,1.863 -1.16622,0.7629 -3.52782,1.48606 -5.24801,1.60701 -3.10039,0.218 -3.12764,0.26814 -3.12961,5.75981 -0.007,18.85998 -11.16178,34.96472 -29.33431,42.35059 l -5.49879,2.23487 8.66555,6.60943 c 17.13964,13.07282 24.04627,22.28157 24.95811,33.27713 0.5947,7.17139 -1.094,11.58946 -6.24444,16.33697 C 137.43279,337.64226 126.9999,342 122.03349,342 c -1.61233,0 -1.52364,0.95187 1.08518,11.64651 1.56255,6.40558 3.04593,11.85142 3.29639,12.10188 0.25045,0.25046 2.62203,-0.25106 5.27016,-1.11449 8.53504,-2.78285 18.46627,-3.90963 34.31478,-3.89327 17.45678,0.018 27.2243,1.93138 36.42985,7.13623 l 5.07015,2.86668 0.28343,-10.94396 c 0.15588,-6.01918 0.60588,-10.7774 1,-10.57382 z m 112.42813,-4.95579 c 3.79462,-2.12857 7.62196,-5.81328 13.54962,-13.04469 l 8.26117,-10.07817 -3.51117,-16.66414 c -4.52037,-21.45378 -4.53326,-20.83144 0.41396,-19.99562 C 348.75504,285.97915 357,276.32784 357,264.5 c 0,-13.05968 -10.71856,-25.39814 -19.53577,-22.48819 -3.8209,1.26101 -9.12946,6.8062 -10.05819,10.50653 -1.12614,4.4869 -4.40604,2.47169 -4.40604,-2.70712 0,-1.53604 -0.42269,-1.85151 -1.75,-1.30609 -18.11016,7.44176 -41.58749,2.00008 -58.59092,-13.58048 -3.70731,-3.39707 -6.90946,-6.00733 -7.11589,-5.80057 -0.20644,0.20675 -1.52447,2.66414 -2.92897,5.46084 -7.94364,15.81774 -8.29491,36.47465 -0.88632,52.12182 3.67806,7.76818 12.02085,16.49435 18.51164,19.3623 7.63834,3.375 16.45961,3.27484 24.03038,-0.27284 6.38695,-2.99293 14.28734,-10.47821 18.31734,-17.35489 2.50947,-4.28208 5.41274,-5.92086 5.41274,-3.05526 0,2.47307 -8.01895,13.47427 -12.82172,17.59011 -2.57306,2.20503 -7.40739,5.20127 -10.74298,6.65829 l -6.0647,2.64915 3.36163,16.10513 c 1.8489,8.85782 3.67801,16.40878 4.0647,16.77992 1.68228,1.61461 8.17713,2.74382 13.91463,2.41923 4.57852,-0.25902 7.60191,-1.13131 11.5,-3.31791 z m -53.05421,-52.35706 c -4.01823,-0.83932 -5.97253,-2.49773 -4.582,-3.88826 0.63379,-0.63379 2.27418,-0.57672 4.68434,0.16298 4.73928,1.45452 9.66904,0.071 16.76719,-4.70572 2.84575,-1.91505 5.57888,-3.48191 6.07361,-3.48191 2.03383,0 0.68529,3.05858 -2.35049,5.33105 -7.43408,5.5649 -14.55898,7.84217 -20.59265,6.58186 z m -4.09982,-12.34359 c -1.30644,-1.57416 -1.67521,-5.9641 -0.76226,-9.07413 0.32213,-1.09735 1.07982,-3.90769 1.68375,-6.24519 0.66153,-2.56039 1.67908,-4.25 2.55952,-4.25 1.85158,0 1.83838,1.75672 -0.0685,9.11548 -1.13477,4.3792 -1.25197,6.42355 -0.45376,7.91501 1.78706,3.33916 -0.59689,5.38474 -2.95879,2.53883 z m 14.60914,-11.23599 c -1.1898,-1.18979 -0.70496,-5.05666 0.78953,-6.29698 1.89891,-1.57596 3.5438,-0.49787 3.5438,2.32267 0,3.22148 -2.65298,5.65467 -4.33333,3.97431 z m -27.27506,-3.75519 C 250.67582,262.71282 252.69698,259 254.42819,259 c 1.91412,0 2.75633,2.7867 1.53304,5.07244 -1.20879,2.25864 -3.78745,2.54401 -4.56962,0.5057 z M 332.00374,259.25 c 0.005,-5.89381 2.75449,-10.6902 7.39852,-12.90478 3.44613,-1.64335 7.26151,-1.22825 6.09274,0.66287 -0.34747,0.56222 -2.13977,1.6523 -3.98289,2.4224 -4.17264,1.74344 -5.78419,4.65126 -5.67212,10.23455 0.0737,3.67098 -0.21373,4.33496 -1.87649,4.33496 -1.67628,0 -1.96295,-0.69483 -1.95976,-4.75 z M 284,255.78354 c -2.47544,-1.25617 -4.6569,-3.13027 -4.84875,-4.16556 -0.31583,-1.70438 0.18363,-1.83787 5.29147,-1.41429 9.11211,0.75565 15.29131,6.9533 7.55728,7.57985 -2.14914,0.17411 -5.23683,-0.59781 -8,-2 z m -35.46316,-2.72393 c -0.83715,-1.35454 3.22286,-4.8252 7.1675,-6.12705 7.05317,-2.32775 7.99649,1.64893 1.21216,5.11004 -4.145,2.11462 -7.45316,2.51612 -8.37966,1.01701 z M 116.0685,272.41174 c 16.30246,-4.76709 27.47656,-19.0151 28.67975,-36.56931 l 0.55903,-8.15605 -2.40364,0.81866 c -1.322,0.45026 -5.10364,0.85833 -8.40364,0.90681 -6.47828,0.0952 -6.96848,-0.50075 -5.09544,-6.19442 l 0.75089,-2.28257 -3.32773,2.02883 C 121.95728,225.93308 112,225.49218 112,222.30714 c 0,-2.35727 11.73523,-23.70977 14.41372,-26.22609 2.06439,-1.93939 3.13537,-2.20586 6.76933,-1.68426 5.31879,0.76344 6.30049,0.76691 11.31695,0.0401 2.2,-0.31875 5.09086,-0.17103 6.42413,0.32828 1.67349,0.62672 3.28869,0.47654 5.21614,-0.485 2.14298,-1.06906 3.66648,-1.15139 6.55377,-0.35417 2.7048,0.74683 4.66303,0.71276 6.96943,-0.12124 4.76302,-1.72233 10.20356,0.3071 16.67219,6.21907 5.38021,4.9172 5.52312,4.9762 12.05455,4.9762 H 205 V 176.07572 147.1514 l -5.75,2.05771 c -24.90435,8.91232 -52.65228,-4.68715 -61.17333,-29.9815 -2.56949,-7.62741 -2.78639,-20.452509 -0.47853,-28.296079 3.73141,-12.681749 13.33361,-23.623179 26.01828,-29.647103 6.6626,-3.164055 8.7407,-3.653285 17.22998,-4.056322 8.34783,-0.396321 10.63426,-0.128432 16.9036,1.98051 L 205,61.647441 V 32.787358 3.9272443 L 130.75,4.2240957 C 58.021664,4.5148635 56.386824,4.5641355 50.977524,6.6283326 31.013983,14.246451 18.653349,25.168884 10.350026,42.528689 4.774281,54.185928 4.0368642,59.968933 4.0173636,92.190983 4.0078136,107.97102 4.3375,121.08615 4.75,121.33571 c 0.4125,0.24955 3.0906172,1.14536 5.951372,1.99067 l 5.201371,1.53694 9.547469,-8.54926 9.547468,-8.54927 -3.389417,-4.63239 c -6.541572,-8.940526 -9.413487,-20.409222 -7.586117,-30.294375 1.534915,-8.303121 6.541476,-20.398028 11.181943,-27.01347 3.642183,-5.192288 13.364759,-13.808853 17.024757,-15.088071 0.93243,-0.325897 0.76856,-1.0106 -0.614965,-2.569535 -1.71309,-1.930284 -1.734856,-2.183296 -0.237265,-2.757976 0.906869,-0.347998 2.280279,-0.108688 3.052021,0.531801 1.114392,0.924863 1.537244,0.742085 2.054653,-0.888124 0.833429,-2.625902 2.549832,-2.641996 3.232802,-0.03031 0.459013,1.755268 1.007904,1.920342 4.156381,1.25 C 65.867613,25.847552 71.775,25.509829 77,25.521843 c 11.261709,0.02589 18.505657,2.141783 23.88612,6.976911 2.83344,2.546262 4.49321,3.245538 7.68568,3.238059 10.25307,-0.02402 18.35324,6.674798 20.4123,16.880932 0.65271,3.23524 1.59257,6.557255 2.0886,7.382255 3.71866,6.184972 4.328,8.00399 4.3594,13.013989 0.039,6.220016 -3.42978,13.444021 -7.84438,16.33658 -3.62263,2.373637 -4.50268,8.046602 -1.7095,11.019801 3.99239,4.2497 1.85766,12.84938 -3.65695,14.7319 -0.6408,0.21875 -1.82353,3.84591 -2.62828,8.06035 -2.28272,11.95443 -6.98503,19.59333 -15.31182,24.87402 l -4.25815,2.70044 4.41264,1.6852 c 6.32315,2.41483 12.1166,6.91145 15.23218,11.82253 3.13403,4.94017 10.62101,25.47881 9.78243,26.83565 -1.55037,2.50856 -3.34088,0.30662 -5.4053,-6.64739 -3.16507,-10.66159 -8.5461,-20.95078 -12.55657,-24.00972 -5.74469,-4.38168 -13.193714,-6.69062 -23.9884,-7.43557 -5.5,-0.37955 -10.742463,-1.01294 -11.649917,-1.40752 -1.271837,-0.55303 -3.246304,1.43459 -8.61644,8.67384 -8.19525,11.04765 -11.612971,13.21089 -19.799478,12.532 -8.472927,-0.70264 -10.626537,-3.04854 -22.89842,-24.94298 -5.963023,-10.63872 -10.953696,-19.48633 -11.090384,-19.66137 -0.136689,-0.17503 -2.317813,-0.94101 -4.8469427,-1.70217 L 4,125.09566 V 165.04783 205 h 32.877555 c 27.980266,0 33.062681,0.22306 34.12038,1.49751 1.0192,1.22806 0.549591,2.89244 -2.609914,9.25 -3.649119,7.34277 -3.853671,8.25457 -3.87038,17.25249 -0.01471,7.9207 0.309369,9.93028 1.949429,12.08826 1.715782,2.25762 2.674872,2.57865 7.507708,2.51299 6.87336,-0.0934 13.340546,3.36026 17.481407,9.33552 2.159395,3.11601 3.469712,4.06323 5.620799,4.06323 4.020656,0 4.611236,1.86412 0.99046,3.12633 l -3.08257,1.07459 6.757566,4.37814 c 3.71666,2.40798 7.23838,4.38777 7.82606,4.39954 0.58767,0.0118 3.51267,-0.69332 6.5,-1.56686 z m 24.94713,-47.4201 c 1.25716,-0.67281 3.24899,-5.20357 5.98562,-13.6153 2.25582,-6.93382 3.96587,-12.72749 3.80012,-12.87483 -1.30688,-1.16167 -6.62712,-1.34658 -8.06589,-0.28033 -0.94908,0.70335 -3.72137,7.24132 -6.16066,14.52882 L 132.13977,226 h 3.49586 c 1.92272,0 4.34372,-0.45376 5.38,-1.00836 z m 14.02199,-2.01177 c 1.28956,-0.69015 3.07862,-4.77602 5.53082,-12.63131 3.83564,-12.28697 3.74748,-13.29735 -1.16345,-13.33325 -3.31556,-0.0242 -4.99108,2.74768 -8.45321,13.98469 -1.77928,5.775 -3.44446,11.0625 -3.70041,11.75 -0.57671,1.54915 5.01282,1.71416 7.78625,0.22987 z M 122.99519,221 c 0.45739,0 2.88777,-2.1375 5.40085,-4.75 4.4183,-4.5931 9.33881,-15.25197 8.02339,-17.38036 -0.2956,-0.4783 -2.05526,-0.86964 -3.91035,-0.86964 -3.93488,0 -4.88413,1.14644 -11.75266,14.19398 -3.86551,7.34297 -4.31873,8.76191 -2.91657,9.13114 0.91308,0.24043 2.25945,0.26564 2.99194,0.056 C 121.56427,221.17151 122.5378,221 122.99519,221 Z m 46.47422,-1.62664 c 0.89815,-0.34465 3.19061,-3.71965 5.09436,-7.5 3.34692,-6.64609 3.5844,-6.87336 7.18214,-6.87336 h 3.72076 l -3.57376,-3.57375 c -4.40872,-4.40872 -10.47262,-5.70324 -12.99949,-2.77513 C 167.4354,200.34065 162,216.30387 162,218.89638 c 0,1.19116 4.80816,1.4982 7.46941,0.47698 z M 53.895699,168.42506 c 2.311274,-0.92479 4.982735,-3.09205 6.471382,-5.25 L 62.902292,159.5 59.374629,152.41288 c -3.273316,-6.57614 -3.59165,-8.05199 -4.415144,-20.46935 C 54.017915,117.7457 54.362126,114 56.608408,114 57.622763,114 58,115.44175 58,119.3185 c 0,8.21534 2.419448,14.81948 7.498901,20.46905 7.49529,8.33657 17.051518,11.37996 27.754835,8.83914 C 106.46341,145.49089 114.4186,135.69472 116.50064,120 c 0.90057,-6.78856 2.00613,-9 4.49936,-9 4.1952,0 4.92946,-6.89702 0.96039,-9.0212 -1.73323,-0.9276 -1.84973,-1.84779 -1.29775,-10.250841 0.5383,-8.194824 0.35072,-9.826136 -1.66997,-14.523365 C 114.81619,67.496101 105.40244,62 92.950168,62 h -5.68683 l -0.546103,4.071507 c -0.734549,5.476465 -4.719033,11.226932 -9.278162,13.390381 -3.15482,1.49706 -5.254436,1.667051 -13.43063,1.087388 -9.470341,-0.671415 -9.762446,-0.627149 -12.815831,1.942106 -3.983278,3.351707 -4.975958,8.055581 -2.708428,12.834046 0.918659,1.935929 2.310532,3.765556 3.093052,4.065837 1.75309,0.672725 1.894525,3.614515 0.172764,3.593425 -0.6875,-0.008 -1.882348,-0.41565 -2.655217,-0.90495 -1.031247,-0.65288 -5.331853,2.61129 -16.159797,12.26531 -8.115018,7.23522 -14.795171,13.4579 -14.844782,13.82818 -0.129882,0.96936 19.73373,36.07129 21.302173,37.64408 1.170738,1.17398 7.947552,4.02513 9.837387,4.1388 0.40137,0.0241 2.50104,-0.66483 4.665935,-1.53105 z m 51.960361,-52.92138 c -2.55064,-1.40502 -5.30729,-6.71912 -4.10774,-7.91867 1.09439,-1.09438 3.25168,-0.59017 3.25168,0.76 0,1.75467 2.9646,4.35029 5.5,4.81545 1.1,0.20181 2,1.03577 2,1.85324 0,2.01582 -3.41654,2.26778 -6.64394,0.48998 z M 105.5,101.05978 C 102.98789,99.977791 99,96.236083 99,94.961045 c 0,-1.743657 3.329,-1.00059 5.76346,1.28646 1.82893,1.718197 3.44771,2.206661 6.87351,2.074077 3.70434,-0.143364 4.42608,0.117094 4.16346,1.502495 -0.36152,1.907183 -6.91583,2.693473 -10.30043,1.235703 z M 56.544494,92.614521 c 0.382647,-2.039686 0.2019,-3.653224 -0.454687,-4.059017 C 55.490413,88.185058 55,86.975528 55,85.867659 55,82.604043 58.354373,84.075441 59.58871,87.8805 61.057658,92.408789 60.283377,96 57.83811,96 56.187867,96 56.00108,95.511166 56.544494,92.614521 Z M 104.75,89.22743 C 100.60893,88.342239 105.15973,85 110.50608,85 c 2.30881,0 4.22481,1.602448 3.17328,2.653974 -0.87811,0.878108 -7.07441,1.969967 -8.92936,1.573456 z m 232.9157,49.72767 c 3.92598,-8.07618 4.04011,-7.63723 -5.15465,-19.82418 l -8.49839,-11.26396 3.10925,-3.86903 C 337.68395,90.854875 324.56476,70.85609 308.09614,74.995223 300.26907,76.962437 294.20711,83 300.05902,83 301.12656,83 302,83.675 302,84.5 c 0,2.382246 -5.93369,1.835681 -11.79827,-1.086763 -9.70259,-4.835005 -18.78606,-17.291558 -26.80693,-36.761498 -3.79892,-9.221535 -4.43172,-8.24767 -1.29498,1.992926 4.06248,13.262818 9.42468,21.982557 20.01741,32.551278 7.24615,7.229727 9.40597,9.954878 8.49134,10.71395 -0.88581,0.735159 -2.87729,-0.331895 -7.1676,-3.840464 C 269.26091,76.473106 258.15675,56.360526 256.34046,38.983204 255.9965,35.692442 255.40478,33 255.02551,33 c -1.16032,0 -8.79203,10.830821 -12.98891,18.4337 -4.71537,8.542152 -10.71616,23.710173 -11.62243,29.377708 -0.64131,4.010503 -0.61843,4.047238 2.71954,4.36656 L 236.5,85.5 l 0.59584,11 c 0.61737,11.39738 2.62492,20.28607 5.50084,24.35563 2.03012,2.87272 7.19955,5.15169 11.6212,5.12328 4.79629,-0.0308 15.28533,-4.02274 23.13432,-8.80445 3.76872,-2.29595 7.25622,-4.17446 7.75,-4.17446 2.05937,0 0.66733,3.02296 -2.3522,5.10807 -1.7875,1.23434 -3.40741,2.35989 -3.59979,2.50122 -0.76932,0.56515 14.1381,21.88029 15.2044,21.73977 0.62996,-0.083 4.07039,-0.92626 7.64539,-1.87387 8.00571,-2.12204 19.24203,-1.56141 26.5,1.3222 2.75,1.09259 5.45,1.90243 6,1.79966 0.55,-0.10277 1.97457,-2.19164 3.1657,-4.64195 z M 252.3727,102.75 c -2.66933,-1.7875 -4.98617,-3.949166 -5.14853,-4.803703 -0.20837,-1.096667 2.43621,-2.790071 8.99031,-5.756753 5.10704,-2.311678 9.82045,-4.200011 10.47425,-4.196297 0.6538,0.0037 1.49153,2.025989 1.86162,4.493944 1.89456,12.633849 -5.56764,17.367739 -16.17765,10.262809 z m 11.59212,-1.68426 C 265.2265,98.708262 265.33692,93 264.12084,93 c -0.48353,0 -3.4406,1.17267 -6.57126,2.605933 -5.37044,2.45867 -5.57925,2.684986 -3.69491,4.004825 5.09398,3.567962 8.70147,4.087132 10.11015,1.454982 z M 309.4229,98.659688 C 307.5889,93.880357 313.82619,83 318.4,83 c 2.39832,0 1.92672,2.555908 -0.80143,4.343458 -1.32079,0.865413 -3.19517,3.729668 -4.16529,6.36501 -2.17492,5.90822 -3.17116,7.138182 -4.01038,4.95122 z M 247.25,72.303399 c -1.93827,-0.728891 -1.47392,-5.790783 0.71275,-7.769693 2.83873,-2.569012 5.23862,-1.284783 4.85112,2.595935 -0.32407,3.245539 -3.3094,6.021555 -5.56387,5.173758 z m 6.83375,-13.716993 C 251.04492,55.451134 250.62906,53 253.13594,53 254.74687,53 260,58.68095 260,60.423077 c 0,2.555822 -2.37286,1.819179 -5.91625,-1.836671 z"
         id="path4" />
      <path
         style="fill:#5e5e61"
         d="m 301.25,448.77314 c -2.70719,-1.29797 -2.75026,-2.33842 -0.75799,-18.31115 C 302.29747,415.98699 302.2814,417 300.70549,417 c -0.71199,0 -2.94225,2.16064 -4.95613,4.80143 -8.76776,11.49704 -13.32641,14.28778 -19.70614,12.06379 -4.49552,-1.56715 -4.83561,-4.67957 -1.23727,-11.32321 L 277.80764,417 H 261.40382 C 252.38172,417 245,416.61049 245,416.13443 c 0,-2.0998 19.29179,-53.95601 21.42537,-57.59124 3.88334,-6.61653 10.29758,-13.23523 17.07239,-17.61659 4.18288,-2.70513 6.181,-4.60015 5.82597,-5.52536 -0.70003,-1.82425 -7.84091,1.93916 -14.53251,7.65896 -8.7926,7.51569 -12.71306,15.03743 -23.82685,45.7139 L 240.72094,417.0482 224.61047,416.7741 208.5,416.5 l -0.2707,-20.24951 -0.27071,-20.24952 -3.94994,-2.61394 c -10.98991,-7.27278 -29.22787,-10.40109 -49.75053,-8.53358 -7.01696,0.63852 -15.9629,2.10613 -19.87985,3.26135 l -7.12172,2.10039 -0.50811,6.32993 c -0.68134,8.48813 -3.51549,12.97206 -10.15256,16.06252 -6.20466,2.88911 -16.47069,3.18042 -27.09588,0.76889 -3.85,-0.87382 -8.125,-1.79255 -9.5,-2.04164 -3.203049,-0.58026 -16.255776,9.68816 -23.5,18.48715 -4.751907,5.77177 -8.5,7.86383 -8.5,4.74441 C 48,412.45614 62.825389,397.20704 69.939426,392 l 6.148053,-4.5 -0.580083,-7.19088 C 74.53127,368.20876 70.606271,357.78518 63.200561,347.62596 l -3.553002,-4.87404 -5.57378,0.57944 c -7.217344,0.7503 -12.463815,-1.52441 -17.550047,-7.60918 -2.907912,-3.47879 -4.652572,-4.64707 -7.657243,-5.12754 -5.538721,-0.88568 -11.259125,-6.38807 -13.954162,-13.42236 -2.746278,-7.16804 -3.611785,-22.32735 -1.9764,-34.61653 1.374642,-10.32981 3.280995,-13.66732 13.201988,-23.11308 11.149574,-10.6155 23.010514,-17.41504 30.409478,-17.4329 l 4.047393,-0.01 -0.402208,-6.31656 C 59.742297,228.61169 61.926124,218.48503 65.039233,213.2087 66.117655,211.38114 67,209.6864 67,209.44284 67,209.19928 51.925,209 33.5,209 H 0 V 137.08797 C 0,78.569383 0.2688386,63.770844 1.4434469,57.63172 6.315747,32.166506 24.340582,11.749494 49.478917,3.2211913 L 57.5,0.5 133.25,0.21427004 209,-0.07145993 V 33.96427 C 209,52.683922 208.82552,68 208.61227,68 c -0.21325,0 -3.46796,-1.441417 -7.2327,-3.203149 -13.89519,-6.502347 -31.53505,-4.67353 -44.09339,4.571394 -6.32195,4.653953 -13.40101,14.078404 -15.3653,20.45603 -0.62266,2.021649 -1.36129,7.793109 -1.64139,12.825465 -0.42533,7.6416 -0.15105,10.22622 1.66407,15.68066 3.77406,11.34105 11.22557,19.66703 22.65836,25.31742 12.54027,6.19774 28.11621,5.70555 40.14808,-1.26864 L 209,139.91569 V 173.95785 208 h 21.83039 21.83039 l 5.40557,-4.9696 c 2.97307,-2.73329 6.87255,-5.75963 8.66552,-6.72521 2.03703,-1.09701 3.09529,-2.3276 2.821,-3.28039 -2.30486,-8.00648 -0.75372,-20.75432 3.6298,-29.83102 1.24675,-2.58158 5.49947,-7.88915 9.45049,-11.79459 l 7.18366,-7.10082 -6.81147,-10.21891 c -3.74631,-5.6204 -7.01157,-10.41901 -7.25614,-10.66358 -0.24456,-0.24456 -2.87568,0.65963 -5.84693,2.00932 -13.56154,6.16031 -21.98027,5.90934 -28.4729,-0.84881 -5.01298,-5.21799 -7.49203,-13.13076 -8.19441,-26.155415 l -0.4896,-9.079026 -3.12268,-0.920974 C 225.15913,87.104537 225.10391,82.903209 229.39371,71 233.63665,59.226828 240.45686,42.499988 242.64528,38.5 248.67582,27.477397 257.6869,19.463066 272.8626,11.625123 299.28009,-2.0189769 329.00274,0.02492464 346.14655,16.664553 358.49073,28.6457 360.06277,48.165686 349.55603,59 c -3.69025,3.805304 -4.4746,5.340761 -5.0808,9.946159 -1.44293,10.962208 -7.06363,28.082625 -11.966,36.447881 l -2.40672,4.10676 6.7891,8.9996 6.78911,8.9996 35.76736,11 c 19.67205,6.05 36.50639,11.53221 37.40964,12.18268 1.23521,0.88953 1.35872,1.47054 0.49827,2.34401 -1.21796,1.2364 -0.11951,1.54026 -46.85599,-12.96167 -12.65,-3.92519 -23.7875,-7.3759 -24.75,-7.66825 -1.21581,-0.36929 -1.7566,0.0232 -1.77162,1.28584 -0.0119,0.99957 -1.29197,4.27694 -2.84462,7.28305 l -2.823,5.46566 5.33544,4.87629 c 3.66476,3.34939 6.51254,7.25801 9.09462,12.48248 3.68967,7.46554 3.75918,7.81979 3.75918,19.15805 0,10.9199 -0.17492,11.92113 -3.19746,18.30186 L 350.10508,208 H 383.55254 417 v 72.36043 c 0,67.45056 -0.32831,81.66037 -1.88592,81.62603 -0.33775,-0.007 -4.80355,-7.17499 -9.92401,-15.92788 -10.31432,-17.63125 -14.68189,-22.4844 -24.3492,-27.05631 -8.15763,-3.85795 -16.24518,-4.63248 -25.84087,-2.47472 -8.21463,1.8472 -9.28364,2.39548 -8.17332,4.19201 0.57091,0.92376 2.12739,0.83934 6.70836,-0.36387 8.6071,-2.26068 19.69282,-1.45809 26.60363,1.92607 8.0686,3.95111 12.72259,9.51208 23.91313,28.57335 l 10.18889,17.35512 -4.7867,9.64232 c -3.98532,8.02802 -6.22376,11.06881 -13.37035,18.16284 -8.74468,8.68038 -16.0405,13.36645 -26.34532,16.92151 -4.18403,1.44344 -5.1938,2.21614 -5.01711,3.83919 0.34291,3.14991 -2.60765,3.65281 -3.75322,0.63971 C 360.43559,416.0155 360,414.62695 360,414.33013 c 0,-1.90647 -5.73633,-11.45052 -8.75167,-14.56095 C 345.57522,393.91717 330.68536,390 314.11394,390 c -8.67675,0 -10.34762,0.30404 -15.1126,2.75 -5.2624,2.70129 -5.51453,3.04024 -14.23417,19.13587 -4.88228,9.01224 -8.64131,16.99974 -8.3534,17.75 0.69901,1.82162 4.61643,1.73171 7.32893,-0.1682 1.20324,-0.84278 6.25337,-6.50729 11.2225,-12.5878 C 302.32336,407.87603 304,405.20636 304,402.49399 304,398.17289 304.8723,396 306.60699,396 c 1.87781,0 1.78167,1.78688 -1.46699,27.26572 -1.52638,11.97115 -2.5573,21.98365 -2.29095,22.25 0.98954,0.98954 5.94088,0.441 6.9117,-0.76572 0.5531,-0.6875 2.71441,-11.25484 4.8029,-23.48297 2.0885,-12.22813 4.14732,-22.79937 4.57517,-23.49164 0.58281,-0.94301 1.06413,-0.97244 1.91921,-0.11736 0.85509,0.85509 0.23327,6.37034 -2.47946,21.99164 -1.99143,11.46768 -3.87203,22.08783 -4.17913,23.60033 -0.45842,2.25783 -0.20601,2.75 1.41032,2.75 4.64178,0 6.0072,-2.84419 11.28172,-23.5 2.80888,-11 5.26798,-20.16809 5.46466,-20.37354 0.19668,-0.20544 1.01533,-0.12114 1.81923,0.18734 1.21578,0.46654 0.65439,3.7252 -3.3376,19.37354 -2.63957,10.34696 -4.6844,18.94365 -4.54406,19.10376 0.14033,0.1601 1.56988,-0.81517 3.17677,-2.16728 3.98987,-3.35726 7.61945,-10.40406 10.8802,-21.12382 2.98926,-9.82726 3.89172,-11.4576 5.46912,-9.8802 1.33326,1.33326 -2.99976,16.43162 -6.93839,24.17679 -3.20333,6.29922 -8.23542,11.59231 -12.08141,12.70803 -1.375,0.39889 -3.53676,1.67476 -4.80391,2.83527 -1.90277,1.74265 -3.73091,2.14502 -10.5,2.31102 -4.50785,0.11054 -9.20859,-0.28445 -10.44609,-0.87777 z M 114.92892,389.24845 c 8.53498,-4.3521 9.6955,-12.83399 4.65176,-33.99845 L 116.66137,343 104.08068,342.92588 C 88.561454,342.83444 82.5,342.02231 82.5,340.03445 c 0,-1.24135 2.600583,-1.42096 17,-1.17409 18.80933,0.32249 28.49161,-1.0496 35.77287,-5.0694 13.16478,-7.26794 11.3684,-23.83063 -4.10483,-37.8467 -8.14511,-7.37806 -30.54094,-23.18968 -31.00137,-21.88721 -0.511249,1.44623 -3.775081,1.11971 -5.130315,-0.51325 -0.664694,-0.8009 -0.887142,-1.97621 -0.49433,-2.6118 0.667056,-1.07932 -1.074112,-2.88224 -2.816776,-2.91669 -0.426113,-0.008 -1.216382,1.14627 -1.756153,2.56597 -0.539771,1.41971 -1.541133,2.38666 -2.225249,2.14879 -1.228181,-0.42704 -1.424885,-2.32949 -0.64416,-6.23007 0.308642,-1.542 -0.200041,-2.06962 -2.221345,-2.30404 -2.325422,-0.26968 -2.56649,-0.0154 -2.133423,2.25 0.438957,2.29626 0.174078,2.55404 -2.62436,2.55404 -4.109715,0 -14.334014,3.51862 -20.818224,7.16445 C 52.534871,279.96953 49,284.19754 49,288.48693 c 0,4.07548 5.242639,11.07109 13.101114,17.48171 2.969387,2.4223 5.776069,4.71998 6.23707,5.10596 0.461002,0.38597 -0.395382,2.56581 -1.903075,4.84409 l -2.741259,4.14232 -2.096925,-1.96389 c -3.612872,-3.38367 -7.097636,-4.18309 -12.853584,-2.94866 -10.562444,2.26524 -14.880005,10.87261 -9.193531,18.32796 3.830696,5.0223 8.274033,6.75596 15.283008,5.96298 l 5.823495,-0.65885 3.74937,4.35973 c 8.186677,9.51937 13.791469,23.28336 15.109316,37.10477 l 0.643129,6.74505 5.170936,1.44202 c 8.057541,2.247 8.647671,2.32883 17.670936,2.45032 6.29496,0.0848 9.38952,-0.33912 11.92892,-1.63399 z M 42.635041,330.49132 C 41.104084,326.50171 47.022111,320 52.184519,320 c 5.486623,0 12.660903,5.35448 11.439381,8.53772 -0.522095,1.36056 -1.200948,1.13224 -4.349125,-1.46276 -4.603285,-3.79441 -9.412398,-4.14426 -11.718071,-0.85245 -0.856187,1.22237 -1.556704,3.02237 -1.556704,4 0,2.1633 -2.559512,2.36777 -3.364959,0.26881 z M 100.625,313.20225 c -1.05028,-1.69938 1.08306,-2.71373 5.99722,-2.8515 5.68074,-0.15927 8.51452,-1.32304 12.67511,-5.20537 2.34255,-2.18589 2.94567,-2.37023 3.70976,-1.13391 1.27051,2.05573 -4.37238,7.7175 -8.96273,8.99273 -4.26719,1.18545 -12.7319,1.31038 -13.41936,0.19805 z m 7.83606,-13.26526 c -0.36134,-0.58466 0.0621,-1.85759 0.94098,-2.82874 0.87888,-0.97115 1.59796,-2.02014 1.59796,-2.33107 0,-0.31094 -3.375,-3.15039 -7.5,-6.30988 -7.555832,-5.7873 -8.376943,-6.80729 -6.442483,-8.00285 1.379255,-0.85242 15.906923,10.27923 16.923953,12.96778 1.48153,3.91647 -3.49557,9.78103 -5.52041,6.50476 z M 76.964826,289.45762 c -0.986689,-1.18889 -1.008443,-1.814 -0.09492,-2.72753 1.454234,-1.45423 4.46437,0.14222 4.953419,2.62709 0.419767,2.13284 -3.111172,2.20584 -4.858499,0.10044 z m -13.606168,-1.96536 c -1.050632,-2.7379 2.153403,-8.03283 5.951334,-9.83507 C 74.136061,275.36707 77,275.49474 77,278 c 0,1.31727 -0.666667,2 -1.952947,2 -3.715424,0 -7.061951,2.27817 -7.857737,5.34921 -0.899916,3.47289 -2.892569,4.58768 -3.830658,2.14305 z m 145.424772,61.7335 c 12.79977,6.61164 21.53689,8.50353 31.85345,6.89739 17.69318,-2.75457 31.27849,-15.18289 35.87145,-32.81645 2.52903,-9.70958 2.24691,-10.73504 -3.34781,-12.16892 C 259.72715,307.69491 248.70838,294.41312 244.00969,276 l -1.65868,-6.5 -9.94433,0.0476 c -9.04467,0.0433 -10.56346,0.33729 -16.78778,3.25 C 211.855,274.5589 208.60098,276 208.38773,276 208.17448,276 208,260.925 208,242.5 V 209 h -13.82906 -13.82907 l -2.33039,4.97549 c -3.43515,7.33419 -5.94826,9.27208 -12.75379,9.83459 -3.16673,0.26174 -6.71187,1.10009 -7.87808,1.863 -1.16622,0.7629 -3.52782,1.48606 -5.24801,1.60701 -3.10039,0.218 -3.12764,0.26814 -3.12961,5.75981 -0.007,18.85998 -11.16178,34.96472 -29.33431,42.35059 l -5.49879,2.23487 8.66555,6.60943 c 17.13964,13.07282 24.04627,22.28157 24.95811,33.27713 0.5947,7.17139 -1.094,11.58946 -6.24444,16.33697 C 137.43279,337.64226 126.9999,342 122.03349,342 c -1.61233,0 -1.52364,0.95187 1.08518,11.64651 1.56255,6.40558 3.04593,11.85142 3.29639,12.10188 0.25045,0.25046 2.62203,-0.25106 5.27016,-1.11449 8.53504,-2.78285 18.46627,-3.90963 34.31478,-3.89327 17.45678,0.018 27.2243,1.93138 36.42985,7.13623 l 5.07015,2.86668 0.28343,-10.94396 c 0.15588,-6.01918 0.60588,-10.7774 1,-10.57382 z m 112.42813,-4.95579 c 3.79462,-2.12857 7.62196,-5.81328 13.54962,-13.04469 l 8.26117,-10.07817 -3.51117,-16.66414 c -4.52037,-21.45378 -4.53326,-20.83144 0.41396,-19.99562 C 348.75504,285.97915 357,276.32784 357,264.5 c 0,-13.05968 -10.71856,-25.39814 -19.53577,-22.48819 -3.8209,1.26101 -9.12946,6.8062 -10.05819,10.50653 -1.12614,4.4869 -4.40604,2.47169 -4.40604,-2.70712 0,-1.53604 -0.42269,-1.85151 -1.75,-1.30609 -18.11016,7.44176 -41.58749,2.00008 -58.59092,-13.58048 -3.70731,-3.39707 -6.90946,-6.00733 -7.11589,-5.80057 -0.20644,0.20675 -1.52447,2.66414 -2.92897,5.46084 -7.94364,15.81774 -8.29491,36.47465 -0.88632,52.12182 3.67806,7.76818 12.02085,16.49435 18.51164,19.3623 7.63834,3.375 16.45961,3.27484 24.03038,-0.27284 6.38695,-2.99293 14.28734,-10.47821 18.31734,-17.35489 2.50947,-4.28208 5.41274,-5.92086 5.41274,-3.05526 0,2.47307 -8.01895,13.47427 -12.82172,17.59011 -2.57306,2.20503 -7.40739,5.20127 -10.74298,6.65829 l -6.0647,2.64915 3.36163,16.10513 c 1.8489,8.85782 3.67801,16.40878 4.0647,16.77992 1.68228,1.61461 8.17713,2.74382 13.91463,2.41923 4.57852,-0.25902 7.60191,-1.13131 11.5,-3.31791 z m -53.05421,-52.35706 c -4.01823,-0.83932 -5.97253,-2.49773 -4.582,-3.88826 0.63379,-0.63379 2.27418,-0.57672 4.68434,0.16298 4.73928,1.45452 9.66904,0.071 16.76719,-4.70572 2.84575,-1.91505 5.57888,-3.48191 6.07361,-3.48191 2.03383,0 0.68529,3.05858 -2.35049,5.33105 -7.43408,5.5649 -14.55898,7.84217 -20.59265,6.58186 z m -4.09982,-12.34359 c -1.30644,-1.57416 -1.67521,-5.9641 -0.76226,-9.07413 0.32213,-1.09735 1.07982,-3.90769 1.68375,-6.24519 0.66153,-2.56039 1.67908,-4.25 2.55952,-4.25 1.85158,0 1.83838,1.75672 -0.0685,9.11548 -1.13477,4.3792 -1.25197,6.42355 -0.45376,7.91501 1.78706,3.33916 -0.59689,5.38474 -2.95879,2.53883 z m 14.60914,-11.23599 c -1.1898,-1.18979 -0.70496,-5.05666 0.78953,-6.29698 1.89891,-1.57596 3.5438,-0.49787 3.5438,2.32267 0,3.22148 -2.65298,5.65467 -4.33333,3.97431 z m -27.27506,-3.75519 C 250.67582,262.71282 252.69698,259 254.42819,259 c 1.91412,0 2.75633,2.7867 1.53304,5.07244 -1.20879,2.25864 -3.78745,2.54401 -4.56962,0.5057 z M 332.00374,259.25 c 0.005,-5.89381 2.75449,-10.6902 7.39852,-12.90478 3.44613,-1.64335 7.26151,-1.22825 6.09274,0.66287 -0.34747,0.56222 -2.13977,1.6523 -3.98289,2.4224 -4.17264,1.74344 -5.78419,4.65126 -5.67212,10.23455 0.0737,3.67098 -0.21373,4.33496 -1.87649,4.33496 -1.67628,0 -1.96295,-0.69483 -1.95976,-4.75 z M 284,255.78354 c -2.47544,-1.25617 -4.6569,-3.13027 -4.84875,-4.16556 -0.31583,-1.70438 0.18363,-1.83787 5.29147,-1.41429 9.11211,0.75565 15.29131,6.9533 7.55728,7.57985 -2.14914,0.17411 -5.23683,-0.59781 -8,-2 z m -35.46316,-2.72393 c -1.44214,-2.33344 8.65516,-7.96738 11.98754,-6.68863 2.20687,0.84686 0.79509,3.08119 -3.45685,5.47091 -4.05915,2.28137 -7.5641,2.78169 -8.53069,1.21772 z M 116.0685,272.41174 c 16.30246,-4.76709 27.47656,-19.0151 28.67975,-36.56931 l 0.55903,-8.15605 -2.40364,0.81866 c -1.322,0.45026 -5.10364,0.85833 -8.40364,0.90681 -6.47828,0.0952 -6.96848,-0.50075 -5.09544,-6.19442 l 0.75089,-2.28257 -3.32773,2.02883 C 121.95728,225.93308 112,225.49218 112,222.30714 c 0,-2.35727 11.73523,-23.70977 14.41372,-26.22609 2.06439,-1.93939 3.13537,-2.20586 6.76933,-1.68426 5.31879,0.76344 6.30049,0.76691 11.31695,0.0401 2.2,-0.31875 5.09086,-0.17103 6.42413,0.32828 1.67349,0.62672 3.28869,0.47654 5.21614,-0.485 2.14298,-1.06906 3.66648,-1.15139 6.55377,-0.35417 2.7048,0.74683 4.66303,0.71276 6.96943,-0.12124 4.76302,-1.72233 10.20356,0.3071 16.67219,6.21907 5.38021,4.9172 5.52312,4.9762 12.05455,4.9762 H 205 V 176.07572 147.1514 l -5.75,2.05771 c -24.90435,8.91232 -52.65228,-4.68715 -61.17333,-29.9815 -2.56949,-7.62741 -2.78639,-20.452509 -0.47853,-28.296079 3.73141,-12.681749 13.33361,-23.623179 26.01828,-29.647103 6.6626,-3.164055 8.7407,-3.653285 17.22998,-4.056322 8.34783,-0.396321 10.63426,-0.128432 16.9036,1.98051 L 205,61.647441 V 32.787358 3.9272443 L 130.75,4.2240957 C 58.021664,4.5148635 56.386824,4.5641355 50.977524,6.6283326 31.013983,14.246451 18.653349,25.168884 10.350026,42.528689 4.774281,54.185928 4.0368642,59.968933 4.0173636,92.190983 4.0078136,107.97102 4.3375,121.08615 4.75,121.33571 c 0.4125,0.24955 3.0906172,1.14536 5.951372,1.99067 l 5.201371,1.53694 9.547469,-8.54926 9.547468,-8.54927 -3.389417,-4.63239 C 25.113946,94.256458 22.38576,83.482128 24.041691,73.25 25.377608,64.995262 30.382785,52.697796 35.204089,45.824555 38.846272,40.632267 48.568848,32.015702 52.228846,30.736484 c 0.93243,-0.325897 0.76856,-1.0106 -0.614965,-2.569535 -1.71309,-1.930284 -1.734856,-2.183296 -0.237265,-2.757976 0.906869,-0.347998 2.280279,-0.108688 3.052021,0.531801 1.114392,0.924863 1.537244,0.742085 2.054653,-0.888124 0.833429,-2.625902 2.549832,-2.641996 3.232802,-0.03031 0.459013,1.755268 1.007904,1.920342 4.156381,1.25 C 65.867613,25.847552 71.775,25.509829 77,25.521843 c 11.261709,0.02589 18.505657,2.141783 23.88612,6.976911 2.83344,2.546262 4.49321,3.245538 7.68568,3.238059 10.25307,-0.02402 18.35324,6.674798 20.4123,16.880932 0.65271,3.23524 1.59257,6.557255 2.0886,7.382255 3.71866,6.184972 4.328,8.00399 4.3594,13.013989 0.039,6.220016 -3.42978,13.444021 -7.84438,16.33658 -3.62263,2.373637 -4.50268,8.046602 -1.7095,11.019801 3.99239,4.2497 1.85766,12.84938 -3.65695,14.7319 -0.6408,0.21875 -1.82353,3.84591 -2.62828,8.06035 -2.28272,11.95443 -6.98503,19.59333 -15.31182,24.87402 l -4.25815,2.70044 4.41264,1.6852 c 6.32315,2.41483 12.1166,6.91145 15.23218,11.82253 3.13403,4.94017 10.62101,25.47881 9.78243,26.83565 -1.55037,2.50856 -3.34088,0.30662 -5.4053,-6.64739 -3.16507,-10.66159 -8.5461,-20.95078 -12.55657,-24.00972 -5.74469,-4.38168 -13.193714,-6.69062 -23.9884,-7.43557 -5.5,-0.37955 -10.760408,-1.01983 -11.689795,-1.42283 -1.323347,-0.57382 -3.209049,1.31532 -8.6955,8.71136 -8.218181,11.07857 -11.532771,13.18546 -19.68054,12.50979 -8.472927,-0.70264 -10.626537,-3.04854 -22.89842,-24.94298 -5.963023,-10.63872 -10.953696,-19.48633 -11.090384,-19.66137 -0.136689,-0.17503 -2.317813,-0.94101 -4.8469427,-1.70217 L 4,125.09566 V 165.04783 205 h 32.877555 c 27.980266,0 33.062681,0.22306 34.12038,1.49751 1.0192,1.22806 0.549591,2.89244 -2.609914,9.25 -3.649119,7.34277 -3.853671,8.25457 -3.87038,17.25249 -0.01471,7.9207 0.309369,9.93028 1.949429,12.08826 1.715782,2.25762 2.674872,2.57865 7.507708,2.51299 6.87336,-0.0934 13.340546,3.36026 17.481407,9.33552 2.159395,3.11601 3.469712,4.06323 5.620799,4.06323 4.020656,0 4.611236,1.86412 0.99046,3.12633 l -3.08257,1.07459 6.757566,4.37814 c 3.71666,2.40798 7.23838,4.38777 7.82606,4.39954 0.58767,0.0118 3.51267,-0.69332 6.5,-1.56686 z m 24.94713,-47.4201 c 1.25716,-0.67281 3.24899,-5.20357 5.98562,-13.6153 2.25582,-6.93382 3.96587,-12.72749 3.80012,-12.87483 -1.30688,-1.16167 -6.62712,-1.34658 -8.06589,-0.28033 -0.94908,0.70335 -3.72137,7.24132 -6.16066,14.52882 L 132.13977,226 h 3.49586 c 1.92272,0 4.34372,-0.45376 5.38,-1.00836 z m 14.02199,-2.01177 c 1.28956,-0.69015 3.07862,-4.77602 5.53082,-12.63131 3.83564,-12.28697 3.74748,-13.29735 -1.16345,-13.33325 -3.31556,-0.0242 -4.99108,2.74768 -8.45321,13.98469 -1.77928,5.775 -3.44446,11.0625 -3.70041,11.75 -0.57671,1.54915 5.01282,1.71416 7.78625,0.22987 z M 122.99519,221 c 0.45739,0 2.88777,-2.1375 5.40085,-4.75 4.4183,-4.5931 9.33881,-15.25197 8.02339,-17.38036 -0.2956,-0.4783 -2.05526,-0.86964 -3.91035,-0.86964 -3.93488,0 -4.88413,1.14644 -11.75266,14.19398 -3.86551,7.34297 -4.31873,8.76191 -2.91657,9.13114 0.91308,0.24043 2.25945,0.26564 2.99194,0.056 C 121.56427,221.17151 122.5378,221 122.99519,221 Z m 46.47422,-1.62664 c 0.89815,-0.34465 3.19061,-3.71965 5.09436,-7.5 3.34692,-6.64609 3.5844,-6.87336 7.18214,-6.87336 h 3.72076 l -3.57376,-3.57375 c -4.40872,-4.40872 -10.47262,-5.70324 -12.99949,-2.77513 C 167.4354,200.34065 162,216.30387 162,218.89638 c 0,1.19116 4.80816,1.4982 7.46941,0.47698 z M 53.895699,168.42506 c 2.311274,-0.92479 4.982735,-3.09205 6.471382,-5.25 L 62.902292,159.5 59.374629,152.41288 c -3.273316,-6.57614 -3.59165,-8.05199 -4.415144,-20.46935 C 54.017915,117.7457 54.362126,114 56.608408,114 57.622763,114 58,115.44175 58,119.3185 c 0,8.21534 2.419448,14.81948 7.498901,20.46905 7.49529,8.33657 17.051518,11.37996 27.754835,8.83914 C 106.46341,145.49089 114.4186,135.69472 116.50064,120 c 0.90057,-6.78856 2.00613,-9 4.49936,-9 4.1952,0 4.92946,-6.89702 0.96039,-9.0212 -1.73323,-0.9276 -1.84973,-1.84779 -1.29775,-10.250841 0.5383,-8.194824 0.35072,-9.826136 -1.66997,-14.523365 C 114.81619,67.496101 105.40244,62 92.950168,62 h -5.68683 l -0.532744,3.971901 c -0.754762,5.627172 -4.259268,10.746998 -9.018089,13.174768 -3.648669,1.861412 -5.119206,2.011243 -13.740621,1.400015 -9.429539,-0.668522 -9.727529,-0.623175 -12.779272,1.944698 -3.983278,3.351707 -4.975958,8.055581 -2.708428,12.834046 0.918659,1.935929 2.310532,3.765556 3.093052,4.065837 C 52.359756,99.691546 53,100.67884 53,101.58525 c 0,1.55259 -0.779255,1.60143 -4.573172,0.28666 -1.024361,-0.35499 -30.159587,24.90191 -30.340023,26.30132 -0.125463,0.97305 19.741997,36.07618 21.305572,37.64408 1.170738,1.17398 7.947552,4.02513 9.837387,4.1388 0.40137,0.0241 2.50104,-0.66483 4.665935,-1.53105 z m 51.960361,-52.92138 c -2.55064,-1.40502 -5.30729,-6.71912 -4.10774,-7.91867 1.09439,-1.09438 3.25168,-0.59017 3.25168,0.76 0,1.75467 2.9646,4.35029 5.5,4.81545 1.1,0.20181 2,1.03577 2,1.85324 0,2.01582 -3.41654,2.26778 -6.64394,0.48998 z M 105.5,101.05978 C 102.98789,99.977791 99,96.236083 99,94.961045 c 0,-1.743657 3.329,-1.00059 5.76346,1.28646 1.82893,1.718197 3.44771,2.206661 6.87351,2.074077 3.70434,-0.143364 4.42608,0.117094 4.16346,1.502495 -0.36152,1.907183 -6.91583,2.693473 -10.30043,1.235703 z M 56.715278,95.381944 c -0.339931,-0.33993 -0.369596,-1.860354 -0.06592,-3.378719 0.306082,-1.530411 0.0616,-3.06383 -0.548611,-3.440962 -1.867521,-1.154191 -1.333187,-4.753475 0.649256,-4.373406 2.055176,0.394012 4.124882,6.014827 3.472133,9.429462 -0.430846,2.253825 -2.151384,3.119097 -3.506855,1.763625 z M 104.75,89.22743 C 100.60893,88.342239 105.15973,85 110.50608,85 c 2.30881,0 4.22481,1.602448 3.17328,2.653974 -0.87811,0.878108 -7.07441,1.969967 -8.92936,1.573456 z m 232.9157,49.72767 c 3.92598,-8.07618 4.04011,-7.63723 -5.15465,-19.82418 l -8.49839,-11.26396 3.10925,-3.86903 C 337.68395,90.854875 324.56476,70.85609 308.09614,74.995223 300.26907,76.962437 294.20711,83 300.05902,83 301.12656,83 302,83.675 302,84.5 c 0,2.382246 -5.93369,1.835681 -11.79827,-1.086763 -9.70259,-4.835005 -18.78606,-17.291558 -26.80693,-36.761498 -3.79892,-9.221535 -4.43172,-8.24767 -1.29498,1.992926 4.06248,13.262818 9.42468,21.982557 20.01741,32.551278 7.24615,7.229727 9.40597,9.954878 8.49134,10.71395 -0.88581,0.735159 -2.87729,-0.331895 -7.1676,-3.840464 C 269.26091,76.473106 258.15675,56.360526 256.34046,38.983204 255.9965,35.692442 255.40478,33 255.02551,33 c -1.16032,0 -8.79203,10.830821 -12.98891,18.4337 -4.71537,8.542152 -10.71616,23.710173 -11.62243,29.377708 -0.64131,4.010503 -0.61843,4.047238 2.71954,4.36656 L 236.5,85.5 l 0.59584,11 c 0.61737,11.39738 2.62492,20.28607 5.50084,24.35563 2.03012,2.87272 7.19955,5.15169 11.6212,5.12328 4.79629,-0.0308 15.28533,-4.02274 23.13432,-8.80445 3.76872,-2.29595 7.25622,-4.17446 7.75,-4.17446 2.05937,0 0.66733,3.02296 -2.3522,5.10807 -1.7875,1.23434 -3.41392,2.3664 -3.61426,2.51569 -0.20035,0.14929 2.9395,5.25389 6.97743,11.34355 5.32863,8.03618 7.75918,10.90905 8.86426,10.47739 10.28791,-4.01857 24.35359,-4.29017 33.52257,-0.64731 2.75,1.09259 5.45,1.90243 6,1.79966 0.55,-0.10277 1.97457,-2.19164 3.1657,-4.64195 z M 252.3727,102.75 c -2.66933,-1.7875 -4.98617,-3.949166 -5.14853,-4.803703 -0.20837,-1.096667 2.43621,-2.790071 8.99031,-5.756753 5.10704,-2.311678 9.82045,-4.200011 10.47425,-4.196297 0.6538,0.0037 1.49153,2.025989 1.86162,4.493944 1.89456,12.633849 -5.56764,17.367739 -16.17765,10.262809 z m 11.59212,-1.68426 C 265.2265,98.708262 265.33692,93 264.12084,93 c -0.48353,0 -3.4406,1.17267 -6.57126,2.605933 -5.37044,2.45867 -5.57925,2.684986 -3.69491,4.004825 5.09398,3.567962 8.70147,4.087132 10.11015,1.454982 z M 309.4229,98.659688 C 307.5889,93.880357 313.82619,83 318.4,83 c 2.39832,0 1.92672,2.555908 -0.80143,4.343458 -1.32079,0.865413 -3.19517,3.729668 -4.16529,6.36501 -2.17492,5.90822 -3.17116,7.138182 -4.01038,4.95122 z M 247.25,72.303399 c -1.93827,-0.728891 -1.47392,-5.790783 0.71275,-7.769693 2.83873,-2.569012 5.23862,-1.284783 4.85112,2.595935 -0.32407,3.245539 -3.3094,6.021555 -5.56387,5.173758 z m 6.83375,-13.716993 C 251.04492,55.451134 250.62906,53 253.13594,53 254.74687,53 260,58.68095 260,60.423077 c 0,2.555822 -2.37286,1.819179 -5.91625,-1.836671 z"
         id="path3" />
      <path
         style="fill:#060511"
         d="m 302.09805,448.39918 c -1.70393,-0.71645 -3.08026,-1.88686 -3.05851,-2.60091 0.0217,-0.71405 0.83997,-7.48577 1.81828,-15.04827 1.68311,-13.01084 1.68581,-13.75 0.0502,-13.75 -0.9507,0 -4.6893,3.57874 -8.30802,7.95276 -6.89708,8.33665 -10.20406,10.11638 -16.06455,8.64549 -4.41865,-1.10901 -4.93479,-3.90162 -1.81693,-9.83065 1.52351,-2.89718 2.92261,-5.6051 3.10909,-6.0176 C 278.01409,417.3375 270.70417,417 261.58333,417 252.4625,417 245,416.86738 245,416.70528 c 0,-1.17667 19.40354,-53.57597 20.99291,-56.69139 2.86158,-5.60915 12.90028,-15.98281 18.88381,-19.51389 2.99914,-1.7699 5.09173,-3.71756 5.10344,-4.75 0.03,-2.64515 -2.07363,-2.13629 -8.57512,2.07431 -7.44402,4.82102 -15.68899,13.80528 -19.33668,21.07052 C 259.33957,364.32989 241,414.05986 241,416.02426 241,416.61792 234.73476,417 225,417 h -16 v -19.81291 -19.81291 l -2.75,-2.63055 c -3.79304,-3.62829 -12.37185,-7.37605 -21.07471,-9.20676 -13.86982,-2.9176 -39.86379,-1.66029 -52.81498,2.55463 l -6.13968,1.99814 -0.38014,6.72756 c -0.45338,8.02362 -2.89376,12.12173 -9.1747,15.40701 -5.58115,2.91925 -19.793481,2.90163 -30.66579,-0.038 l -7.5,-2.02784 -4,2.55602 c -2.2,1.40581 -8.66715,7.24054 -14.371444,12.96606 -5.704294,5.72551 -10.582882,10.19859 -10.841306,9.94016 -1.855029,-1.85503 9.351744,-14.47701 20.7459,-23.36572 l 6.533151,-5.09659 -0.637152,-7.32914 C 75.578715,375.79811 74.734622,370.475 74.053387,368 c -1.591401,-5.78173 -7.211768,-16.52328 -11.13761,-21.28601 -2.973901,-3.60786 -3.252195,-3.7141 -9.738581,-3.71773 -7.887608,-0.004 -11.078052,-1.6041 -16.762737,-8.4048 C 33.391476,330.975 31.927508,330 29.520372,330 c -8.089905,0 -14.770273,-9.57031 -16.541694,-23.69767 -1.24941,-9.96424 0.271837,-28.94522 2.697486,-33.65721 C 22.215325,259.94233 43.49524,244.06522 56.25,242.37266 L 61,241.74234 v -8.21462 c 0,-8.27027 2.203148,-17.13643 5.513748,-22.18905 C 67.331187,210.0911 68,208.82953 68,208.53518 68,208.24083 52.678486,208 33.952191,208 H -0.09561885 L 0.26154522,134.25 C 0.66253635,51.450247 0.36179022,55.037824 8.2463418,39 11.616807,32.144198 14.173288,28.747172 21.462566,21.438413 31.615602,11.258244 39.342488,6.6256539 52.545067,2.8031616 L 60.5,0.5 h 74 74 l 0.26341,33.837803 c 0.14487,18.610791 -0.0801,33.664214 -0.5,33.45205 -14.00888,-7.078736 -21.03895,-8.615463 -31.50564,-6.886925 -9.88615,1.632662 -17.20672,5.401867 -24.32662,12.525252 -13.70608,13.71279 -17.07414,32.73518 -8.87382,50.11819 3.44838,7.30985 12.1521,16.25922 19.37024,19.91693 14.45061,7.32268 27.81692,6.65911 45.33602,-2.25068 0.41997,-0.21359 0.64497,14.61369 0.5,32.94952 L 208.5,207.5 l -14.09147,0.27649 -14.09147,0.27649 -2.35993,5.03854 C 174.34954,220.79388 171.66231,223 165.88781,223 c -3.07635,0 -6.03232,0.72728 -8.11364,1.99626 -1.80079,1.09795 -4.68299,1.99795 -6.40489,2 l -3.13072,0.004 -0.40901,9.35174 c -0.35636,8.14769 -0.84621,10.23989 -3.80465,16.25 -5.67746,11.53378 -13.15488,17.77324 -28.76632,24.00372 -2.06461,0.82398 -1.59498,1.36781 5.95379,6.89454 18.38791,13.46246 25.89467,23.79766 26.15626,36.01159 0.10999,5.13578 -0.31247,6.80465 -2.59624,10.25588 -3.36991,5.09263 -9.33892,8.68805 -17.63763,10.62401 -3.48599,0.81323 -6.52541,1.66584 -6.75426,1.89469 -0.48602,0.48602 4.98311,23.41078 5.77369,24.20136 0.29361,0.2936 2.51653,-0.18163 4.93982,-1.05608 6.99839,-2.52538 21.42281,-4.39406 34.06802,-4.41351 16.84588,-0.0259 30.69412,2.99458 39.06653,8.52095 2.05071,1.35361 3.96321,2.46111 4.25,2.46111 C 208.76535,372 209,367.04085 209,360.97968 v -11.02033 l 3.75,1.91002 c 13.06963,6.65684 29.24457,6.78441 41.86793,0.3302 12.09815,-6.18568 22.08954,-20.68616 23.12277,-33.55802 l 0.52471,-6.53683 -2.8827,-0.67979 c -5.69239,-1.34235 -14.59198,-6.86331 -19.09792,-11.84762 -5.47767,-6.05919 -9.88553,-15.00418 -11.6456,-23.63275 -1.45355,-7.12586 -2.2786,-7.7641 -10.17909,-7.87427 -6.29679,-0.0878 -15.6259,2.29248 -21.20399,5.41013 L 209,275.85921 V 242.4296 209 h 21.80383 21.80384 l 3.44616,-3.60616 c 1.89539,-1.98338 5.6794,-5.12614 8.40891,-6.98389 l 4.96274,-3.37774 0.0373,-11.26611 c 0.035,-10.57359 0.23498,-11.68353 3.25391,-18.0571 3.77821,-7.97657 9.14265,-14.84089 13.89201,-17.77615 C 288.4739,146.78007 290,145.40858 290,144.88511 290,143.4422 276.08095,123 275.09848,123 c -0.47124,0 -3.47406,1.19822 -6.67294,2.66272 -7.51165,3.43895 -18.55592,4.35546 -23.24775,1.92922 -6.72862,-3.47951 -10.51123,-13.15532 -11.75226,-30.061937 C 232.76516,88.533764 232.60049,88 230.48544,88 226.00803,88 225.49321,85.704428 227.95541,76.718803 229.19406,72.198461 231.54545,65.575 233.18073,62 c 1.63528,-3.575 4.24815,-9.962803 5.80637,-14.195118 5.86204,-15.921986 15.29773,-26.021225 32.76776,-35.072093 12.73899,-6.5998095 19.44249,-8.5472036 32.31631,-9.388013 27.69831,-1.8090201 50.15205,13.275001 51.69858,34.730186 0.6896,9.56692 -1.67068,16.947556 -6.71646,21.002457 -3.55424,2.856266 -4.0178,3.790764 -5.10048,10.282195 -1.87503,11.242118 -5.69184,23.435233 -10.10099,32.268436 l -4.05716,8.12805 6.7391,8.99709 6.7391,8.99708 13.61357,4.22091 c 50.44831,15.64159 58.70528,18.28272 59.47644,19.02453 0.47457,0.45651 0.58957,1.27223 0.25553,1.81271 -0.37385,0.6049 -3.39658,0.0984 -7.86286,-1.31764 C 386.12649,144.3164 345.9499,132 345.17584,132 c -0.49727,0 -1.71295,2.1375 -2.70151,4.75 -0.98856,2.6125 -2.45058,5.76116 -3.24892,6.99702 -1.37643,2.13077 -1.15514,2.53871 4.27724,7.88499 6.86499,6.75618 11.23053,15.42821 12.76849,25.36428 1.59762,10.32153 0.01,17.35387 -7.05652,31.25371 -0.20971,0.4125 14.97512,0.75 33.74406,0.75 h 34.12535 l -0.29202,74.25 c -0.19179,48.76699 -0.6465,74.8464 -1.3249,75.98773 -0.86042,1.44759 -2.52725,-0.8065 -9.98281,-13.5 -4.92245,-8.38075 -10.89233,-17.18425 -13.2664,-19.56333 -9.49039,-9.51046 -23.60477,-13.06892 -38.60231,-9.73229 -6.27458,1.39596 -7.61559,2.03448 -7.61559,3.6261 0,2.35888 1.39357,2.40724 9.35566,0.32467 12.15368,-3.17892 25.04922,0.15156 33.82467,8.73578 C 393.627,333.47844 413,365.34351 413,368.3077 c 0,2.68591 -7.89193,17.1253 -12.50694,22.88319 -7.37725,9.20418 -21.13701,18.53034 -32.24306,21.85386 -3.42798,1.02583 -4.25,1.72475 -4.25,3.61354 0,2.73508 -1.79734,3.13687 -2.64694,0.59171 -4.35647,-13.05058 -11.06862,-21.15327 -19.57046,-23.62482 -21.63518,-6.28952 -41.43686,-5.47175 -47.93544,1.97964 -2.83761,3.25364 -18.8942,33.51006 -18.29648,34.47718 0.63633,1.0296 5.46825,1.2317 7.82509,0.3273 0.84664,-0.32489 5.79106,-5.83739 10.98761,-12.25 8.03862,-9.91978 9.55413,-12.36981 10.15783,-16.4216 0.69989,-4.69735 1.82419,-6.60588 2.88262,-4.8933 0.29812,0.48236 -0.81334,11.58979 -2.4699,24.68319 -3.1395,24.81441 -3.11294,25.41547 1.12494,25.4571 4.02405,0.0395 4.85089,-2.21612 8.42536,-22.98469 4.57676,-26.59214 4.43751,-26 6.11428,-26 0.97288,0 1.27915,0.72945 0.94471,2.25 C 320.27188,406.03007 314,443.2448 314,445.00826 c 0,2.36971 0.12027,2.38615 4.39313,0.60084 3.6601,-1.52929 3.32161,-0.59338 11.04851,-30.54786 1.76567,-6.84487 3.73862,-12.62133 4.38433,-12.83656 1.72081,-0.57361 1.59235,0.19022 -3.32597,19.77532 -5.08958,20.26707 -4.86276,19 -3.40121,19 3.80431,0 11.17658,-12.81087 14.38677,-25 2.57901,-9.79257 2.43764,-9.4768 3.68454,-8.2299 1.63331,1.63331 -1.46389,13.03018 -6.23246,22.93378 C 335.17482,438.5187 330.27415,444 327.04997,444 c -0.69369,0 -2.59824,1.125 -4.23234,2.5 -1.63409,1.375 -3.94905,2.56552 -5.14436,2.6456 -8.71188,0.58368 -12.8878,0.38356 -15.57522,-0.74642 z m -186.45561,-59.0338 c 5.2368,-2.48502 7.34933,-6.57716 7.35382,-14.24497 0.003,-5.91259 -4.21421,-27.8484 -5.96196,-31.00769 -0.59012,-1.06672 -4.26359,-1.45526 -15.89724,-1.68146 C 85.583272,342.12884 82,341.63841 82,339.812 c 0,-0.71959 4.197161,-0.83312 13.25,-0.35839 23.05746,1.20912 38.3682,-1.96796 45.0325,-9.34455 4.0607,-4.4947 5.24103,-9.44963 3.65521,-15.34424 -3.05414,-11.35244 -9.10214,-17.83294 -31.57625,-33.83429 -11.33148,-8.0679 -12.890782,-8.84257 -13.588097,-6.75062 C 98.069625,276.29112 95,274.16518 95,271.56657 c 0,-1.48646 -0.82258,-2.93643 -2.033504,-3.5845 -1.779692,-0.95246 -2.166347,-0.70722 -3.097825,1.96482 -1.62428,4.65941 -3.242456,3.79682 -2.536701,-1.35222 C 87.967392,263.95876 87.211003,263 82.918213,263 80.876736,263 80.336198,264.47171 82,265.5 c 2.068374,1.27833 0.829883,2.13498 -4.753986,3.28831 -6.426543,1.32738 -18.564377,6.82726 -23.682294,10.73089 -4.683615,3.57236 -6.194459,7.53545 -4.472127,11.7308 1.571646,3.8283 8.50462,11.53842 15.073753,16.76344 l 4.665345,3.71077 -2.817238,4.25547 c -2.632022,3.9757 -2.888043,4.12317 -3.894236,2.24308 -1.185832,-2.21575 -5.971402,-4.22819 -10.01844,-4.21299 -4.457583,0.0167 -12.8161,4.53905 -14.53572,7.86442 -2.527528,4.8877 -1.948718,7.50855 2.821991,12.77796 l 4.387048,4.84565 8.636337,0.35468 8.636337,0.35467 4.473848,6.26954 c 7.738701,10.84482 12.463436,23.69528 12.494695,33.98341 0.0084,2.77194 0.345922,5.54849 0.75,6.1701 0.635982,0.97837 9.318227,3.38545 17.234687,4.77819 4.62947,0.81445 15.0205,-0.32429 18.64244,-2.04301 z M 43.341047,330.44637 c -1.062179,-2.76799 0.956769,-6.71619 4.48941,-8.77936 2.84618,-1.66226 3.857443,-1.77749 7.092726,-0.80817 C 60.6652,322.57919 66.763158,329 62.654988,329 c -0.739757,0 -2.202257,-0.95164 -3.25,-2.11476 -4.538476,-5.03825 -11.969643,-4.31197 -13.087864,1.27914 -0.698278,3.49139 -2.099648,4.56593 -2.976077,2.28199 z m 58.325623,-17.11304 c -1.60569,-1.60568 -0.34157,-2.33483 4.08333,-2.35529 5.25769,-0.0243 12.95268,-3.03967 13.87223,-5.43597 0.74923,-1.95246 3.37777,-2.0248 3.37777,-0.093 0,2.05727 -5.78249,6.15849 -10.5,7.44711 -4.4955,1.22798 -9.82734,1.44311 -10.83333,0.43711 z M 109,299.55976 c 0,-0.3228 0.5625,-1.5248 1.25,-2.67113 1.13243,-1.8882 0.78581,-2.47475 -3.68537,-6.23643 -9.949795,-8.37091 -10.894164,-9.3305 -9.829824,-9.9883 0.583448,-0.36059 4.500594,1.92654 8.704764,5.08251 7.72746,5.80083 9.81644,9.03611 7.8505,12.15837 C 112.31272,299.45699 109,300.73493 109,299.55976 Z M 77.335833,289.43278 c -0.959789,-2.50117 1.132746,-3.82134 3.037644,-1.91645 0.904698,0.9047 1.389212,2.05863 1.076697,2.56429 -0.906143,1.46617 -3.457265,1.06447 -4.114341,-0.64784 z m -13.78397,-2.34886 c -0.95128,-1.53921 1.1467,-5.70165 4.008316,-7.9526 C 70.155887,277.08954 77,276.1104 77,277.78083 c 0,0.42946 -1.9125,1.44196 -4.25,2.25 -3.096387,1.07038 -4.657157,2.34547 -5.75,4.69753 -1.54398,3.32301 -2.46244,3.95045 -3.448137,2.35556 z m 255.951177,58.56673 c 5.09677,-2.37345 11.20279,-8.35817 19.41336,-19.0277 l 4.41639,-5.73905 -3.66843,-17.60658 c -2.01763,-9.68362 -3.42787,-17.84714 -3.13386,-18.14115 0.29401,-0.29401 2.43772,-0.41753 4.76381,-0.27449 5.34093,0.32844 10.20085,-2.76921 13.1187,-8.36168 1.64302,-3.14907 2.08699,-5.82522 2.08699,-12.57986 0,-7.79454 -0.27459,-9.0214 -3,-13.40374 -3.73001,-5.9977 -7.04613,-8.51519 -12.08658,-9.1757 -5.17493,-0.67814 -9.96047,2.53789 -13.22967,8.89074 -2.60066,5.05372 -4.18375,5.38527 -4.18375,0.87621 0,-3.83519 -0.63109,-4.15974 -4.74569,-2.44055 -16.89909,7.06089 -40.36039,0.85041 -57.8748,-15.32016 -3.16278,-2.9201 -5.8379,-5.20525 -5.94471,-5.07811 -1.68959,2.01122 -6.01011,12.66067 -7.50024,18.48702 -6.53748,25.56133 4.36695,52.91248 24.06544,60.36238 7.01438,2.65281 16.47753,2.21414 22.89204,-1.06118 5.83093,-2.97734 13.2712,-10.05067 17.25648,-16.40544 1.77691,-2.83338 3.37791,-5.34661 3.55778,-5.58494 0.17987,-0.23834 0.77748,0.0171 1.32802,0.56765 1.3815,1.3815 -5.45951,11.72322 -11.28057,17.05312 C 301.09421,305.95382 292.30484,311 289.53324,311 288.68996,311 288,311.43427 288,311.96505 c 0,0.8076 4.91057,24.77372 6.48188,31.63496 1.07387,4.68911 16.61939,5.96317 25.02116,2.05064 z M 265.75,290.97814 c -3.16673,-1.94983 -1.83166,-2.89358 3.24314,-2.29255 5.90904,0.69984 11.97117,-1.28638 17.61483,-5.77139 2.62577,-2.0867 4.05097,-2.65526 4.79382,-1.91241 1.29875,1.29875 -2.88805,4.95345 -9.34752,8.15954 -5.00103,2.4822 -13.65706,3.44676 -16.30427,1.81681 z m -1.81216,-12.55304 c -1.06313,-1.28099 -1.07546,-2.69618 -0.0661,-7.58323 1.74745,-8.4603 2.97327,-11.39681 4.23206,-10.13802 0.70604,0.70604 0.50726,2.82608 -0.63263,6.74716 -1.01161,3.4798 -1.41137,7.05451 -1.02138,9.13331 0.68374,3.64463 -0.37254,4.41867 -2.512,1.84078 z m 14.57493,-11.40443 C 277.7917,265.85394 279.68264,262 280.97617,262 c 1.48273,0 2.19638,1.88099 1.52099,4.00895 -0.66456,2.09385 -2.956,2.67569 -3.98439,1.01172 z M 252,263.05902 c 0,-3.24554 1.59898,-4.86004 3.21392,-3.2451 C 256.64009,261.24009 255.30664,266 253.48095,266 252.50872,266 252,264.98974 252,263.05902 Z m 80.47241,-1.14596 c -1.6392,-5.16465 1.97833,-12.54343 7.56623,-15.43304 3.62946,-1.87687 4.96136,-1.87151 4.96136,0.02 0,0.825 -0.6679,1.5 -1.48422,1.5 -0.81633,0 -2.89914,1.26423 -4.62848,2.80939 -2.5565,2.28423 -3.23749,3.77967 -3.64301,8 -0.5202,5.41386 -1.64052,6.66828 -2.77188,3.10367 z M 290.5,257.27086 c -7.56502,-1.36176 -13.58186,-5.53475 -9.97561,-6.91859 1.96293,-0.75325 8.19425,0.45087 11.69105,2.25914 4.45419,2.30335 3.2572,5.55457 -1.71544,4.65945 z M 249,252.59371 c 0,-2.1399 5.75255,-5.58525 9.33333,-5.58997 3.52099,-0.005 3.1178,1.83458 -0.91361,4.16761 C 252.71555,253.89371 249,254.52138 249,252.59371 Z m -125.99899,17.32507 c 7.48868,-3.99143 15.3251,-12.21085 18.74973,-19.66614 2.02604,-4.4106 2.74183,-7.79393 3.06821,-14.50264 0.41537,-8.53788 -0.10757,-10.06138 -2.59852,-7.57043 -1.04271,1.04271 -12.91623,1.45797 -13.88847,0.48573 -0.19432,-0.19433 0.32649,-2.28009 1.15736,-4.63504 1.96585,-5.57179 1.9249,-5.75617 -0.73932,-3.32954 -4.02665,3.66756 -6.63647,4.50257 -11.83719,3.78729 -2.70205,-0.37163 -4.90286,-1.19596 -4.89069,-1.83185 0.0122,-0.63589 3.04966,-6.77596 6.75,-13.6446 7.67754,-14.25121 9.50086,-15.82296 16.24798,-14.00615 3.05805,0.82345 4.90603,0.78915 7.47188,-0.13867 2.60391,-0.94159 4.28334,-0.96435 7.11143,-0.0964 2.61201,0.80164 4.27908,0.82771 5.6603,0.0885 1.07682,-0.5763 3.8205,-0.78737 6.09707,-0.46904 4.99005,0.69773 4.96841,0.69775 10.7635,-0.008 5.56919,-0.67827 8.7469,0.77119 14.32867,6.53578 3.91423,4.04244 4.02441,4.08242 11.25,4.08242 H 205 v -29.10699 c 0,-27.3313 -0.10676,-29.06262 -1.75,-28.3798 -19.07042,7.92449 -39.10261,4.12824 -53.47968,-10.13479 -18.55381,-18.40663 -18.14656,-48.35837 0.91194,-67.07024 12.34457,-12.12005 32.56134,-16.38836 48.65341,-10.272058 2.84038,1.079578 5.27683,1.963096 5.41433,1.963374 0.1375,2.77e-4 0.25,-13.296269 0.25,-29.54788 V 2.9032318 L 132.25,3.2572819 C 50.896783,3.653201 56.025324,3.2152073 40.012396,11.134666 28.085344,17.033387 16.99073,28.142086 11.171283,40.012396 4.2100544,54.211671 3.7342761,57.445489 3.609702,91.407707 L 3.5,121.31541 l 5,1.76479 c 2.75,0.97064 5.675,1.78775 6.5,1.8158 1.339684,0.0456 19.047966,-15.14372 19.806396,-16.98893 0.168517,-0.40999 -1.344973,-3.04403 -3.363311,-5.85341 C 23.497553,90.994063 22.076633,78.547103 27.058714,63.647505 32.057023,48.69937 37.711042,40.767606 48.234935,33.940355 c 4.8524,-3.147937 5.506422,-3.91012 4.25,-4.952858 C 50.912009,27.682084 50.451305,25 51.8,25 c 0.44,0 1.370294,0.5625 2.067321,1.25 1.015383,1.001506 1.524347,0.902108 2.560242,-0.5 1.859806,-2.51729 3.866249,-2.251081 3.024425,0.401272 -0.555675,1.750776 -0.363393,2.028709 1.032847,1.492921 5.456963,-2.094033 15.815974,-2.8878 22.765165,-1.744398 8.446709,1.3898 17.0729,5.043138 18.9303,8.017298 C 103.22224,35.58551 104.49641,36 108.58326,36 c 10.21849,0 19.10571,7.777368 20.15398,17.637106 0.28436,2.674592 1.11765,5.554363 1.85175,6.399492 6.67965,7.689872 5.35419,21.643057 -2.69669,28.388299 -4.60619,3.859188 -5.53153,8.84496 -2.25054,12.125953 4.02463,4.02463 2.35821,11.35807 -3.04803,13.41351 -1.83759,0.69866 -2.40156,2.10599 -3.38888,8.45672 -1.86603,12.00275 -6.45756,19.53918 -15.37463,25.23555 -2.71776,1.73615 -4.578871,3.34396 -4.135801,3.57291 0.443071,0.22895 2.747631,1.02775 5.121251,1.7751 5.25842,1.65566 12.37613,7.73898 15.61326,13.34426 2.79244,4.83525 8.57107,20.89078 8.57107,23.81411 0,4.29073 -2.18752,0.90165 -5.34236,-8.27679 -3.90497,-11.3608 -7.31959,-17.50421 -12.02592,-21.63642 -4.71766,-4.14217 -14.979801,-7.38136 -24.425203,-7.70969 C 82.967933,152.39278 78.15,151.95526 76.5,151.56785 c -2.850071,-0.66917 -3.272425,-0.32249 -8.4511,6.93687 -2.998105,4.20268 -6.899211,8.91269 -8.669124,10.46669 -6.022822,5.28811 -16.292179,4.86078 -21.818954,-0.90793 C 35.996667,166.43086 29.9431,156.67422 24.108451,146.38206 14.057703,128.65282 13.291381,127.59767 9.5317142,126.3113 c -2.1825572,-0.74676 -4.4325572,-1.17978 -5,-0.96225 -0.6913249,0.26501 -0.9417979,13.46527 -0.7591794,40.00977 l 0.2725347,39.61427 33.2140565,0.26346 c 38.308206,0.30386 35.962653,-0.49505 30.589672,10.41902 -2.888745,5.86788 -3.339653,7.87675 -3.682183,16.40477 -0.357687,8.90537 -0.197996,9.9782 1.909587,12.82886 2.09552,2.83434 2.795595,3.1108 7.877458,3.1108 7.057107,0 11.329971,2.22073 16.553769,8.60348 3.283667,4.01218 4.502751,4.83937 6.75,4.5801 1.95753,-0.22585 2.742571,0.13195 2.742571,1.25 0,1.00418 -0.897329,1.56642 -2.5,1.56642 -3.935843,0 -2.984708,1.49997 3.75,5.91387 5.61239,3.67834 6.73742,4.04917 11.0278,3.635 2.68288,-0.25899 7.38469,-1.85068 10.72321,-3.63009 z M 141.41354,224.75 c 3.58611,-3.19546 10.67857,-25.4471 8.5418,-26.79876 -2.35727,-1.49115 -6.52463,-1.08591 -8.21421,0.79876 C 140.4497,200.19055 132,224.12073 132,226.3376 c 0,1.69098 7.0728,0.49815 9.41354,-1.5876 z m 14.83201,-2.5 c 1.76803,-1.98907 8.8278,-23.84332 7.97711,-24.694 -1.07541,-1.07541 -7.98947,-0.54152 -8.98745,0.694 C 154.1987,199.53323 147,221.15194 147,222.98151 c 0,1.76771 7.55543,1.16992 9.24555,-0.73151 z m -27.55998,-5.9043 c 3.74885,-4.02817 5.70112,-7.16405 6.78833,-10.90391 0.83935,-2.88728 1.5261,-5.70709 1.5261,-6.26624 0,-1.51511 -5.60234,-2.45874 -7.75565,-1.30632 C 127.67952,198.7067 116,219.43863 116,221.37884 c 0,0.34164 1.67025,0.62116 3.71168,0.62116 3.22417,0 4.40283,-0.74265 8.97389,-5.6543 z m 42.25902,2.20444 c 0.91765,-0.83045 2.96326,-4.21897 4.5458,-7.53003 2.80736,-5.87369 2.9744,-6.02011 6.86779,-6.02011 h 3.99045 l -2.42432,-2.63584 c -1.33337,-1.4497 -4.3406,-3.49744 -6.68274,-4.55052 -3.67037,-1.65028 -4.63153,-1.73509 -6.96021,-0.61416 -2.27396,1.09459 -3.21754,2.95698 -5.95901,11.76163 -2.28887,7.35109 -2.92244,10.66802 -2.13109,11.15709 1.71042,1.05711 6.87483,0.13196 8.75333,-1.56806 z M 54.919107,168.54183 c 1.550882,-0.80199 4.145463,-3.11066 5.765735,-5.13038 l 2.945949,-3.6722 -3.274971,-6.16753 C 56.548997,146.40259 55.078283,137.89441 55.330518,124.5 c 0.206183,-10.94894 1.947342,-12.39403 2.735501,-2.27035 1.573961,20.21707 18.520295,31.94295 37.862769,26.19886 3.981907,-1.1825 6.716882,-2.9771 11.049012,-7.25 6.33213,-6.24556 8.23222,-10.35058 10.03433,-21.67851 1.02435,-6.43905 1.369,-7.1202 4.30073,-8.5 4.80148,-2.25977 4.61252,-8.52487 -0.30655,-10.16456 -0.7002,-0.2334 -0.67415,-2.260771 0.0814,-6.339291 1.42722,-7.703881 0.60565,-13.451507 -2.82333,-19.751679 C 114.23588,67.342748 107.71883,63.335617 97.317095,61.864619 87.278674,60.445001 86,60.857813 86,65.518275 c 0,4.479898 -2.033059,8.490311 -5.99352,11.822818 -4.033709,3.394143 -8.921072,4.204606 -16.705573,2.770255 -5.501054,-1.013609 -6.845912,-0.946561 -9.8785,0.492497 -7.506422,3.56203 -8.506448,12.130486 -2.222239,19.040659 2.217932,2.438856 0.726249,4.369246 -1.773288,2.294816 -1.203623,-0.99892 -1.906902,-0.86025 -3.706195,0.73078 -1.221377,1.08001 -8.13551,7.26324 -15.36474,13.74051 l -13.144055,11.77685 9.040831,16.15627 c 4.972457,8.88595 9.937135,17.4383 11.032617,19.00523 4.24804,6.07621 11.688473,8.2673 17.633769,5.19287 z M 107.357,116.00842 c -2.58476,-1.04308 -5.357,-4.78508 -5.357,-7.23093 0,-2.72786 1.7746,-2.11404 3.49251,1.20802 0.84913,1.64204 2.66068,3.26582 4.02568,3.60841 1.36499,0.34259 2.48181,1.24911 2.48181,2.01449 0,1.55843 -1.46061,1.68426 -4.643,0.40001 z m -2.28211,-15.75997 c -3.50602,-1.789752 -5.974396,-4.682277 -4.90676,-5.749912 0.32856,-0.328564 2.32595,0.575646 4.43864,2.009355 2.31431,1.570533 5.04411,2.543684 6.86724,2.448108 4.53961,-0.237985 4.88088,-0.08855 3.52599,1.543999 -1.65767,1.99737 -5.72134,1.89438 -9.92511,-0.25155 z M 57,92.14235 C 57,89.928976 56.55,87.839919 56,87.5 54.502581,86.574544 54.795331,85 56.464816,85 c 2.070781,0 3.709994,3.537655 3.345096,7.219194 C 59.330602,97.055072 57,96.991336 57,92.14235 Z m 47.24143,-4.366646 c 0.51521,-1.545617 5.74056,-2.658973 8.28707,-1.765707 1.84941,0.648737 1.83996,0.722444 -0.23506,1.83296 -2.93404,1.57025 -8.58212,1.523075 -8.05201,-0.06725 z m 235.39514,47.597406 1.65106,-5.12689 -7.44282,-9.87311 c -9.57467,-12.70105 -9.3057,-12.19657 -7.56336,-14.18612 5.03942,-5.75443 6.20495,-15.353081 2.6988,-22.225713 -2.75586,-5.401917 -8.7397,-9.193856 -15.37687,-9.744261 -5.59453,-0.463942 -9.99972,1.093401 -14.35338,5.074271 C 296.48759,81.817158 296.38904,83 298.94098,83 c 2.55567,0 3.63415,1.84207 1.54733,2.642859 -2.37769,0.912406 -8.38447,-1.138824 -13.75819,-4.69823 -8.15788,-5.403557 -18.57815,-21.71021 -24.74191,-38.718574 -1.25051,-3.45067 -2.45271,-6.094887 -2.67156,-5.876038 -1.12104,1.12104 3.39021,16.26551 7.19382,24.149983 4.98986,10.343427 11.73312,19.120035 19.16514,24.944135 2.84658,2.230726 5.20908,4.618365 5.25,5.305865 0.17895,3.006867 -3.58994,0.675181 -11.31465,-7 C 266.78439,71.005673 259.73249,57.362863 256.70414,39.433789 l -1.3264,-7.852833 -4.22078,5.339696 C 243.04204,47.186788 234.80791,63.611479 230.59713,77.931501 228.49024,85.096589 228.46424,85 232.5,85 h 3.5 l 0.0309,5.25 c 0.0447,7.605217 1.73396,19.52151 3.53735,24.95337 0.94996,2.86132 2.96698,5.93738 5.1501,7.85418 3.38591,2.97287 3.96108,3.12924 10.18512,2.76895 6.93839,-0.40164 15.82505,-3.89049 25.1841,-9.88712 5.19996,-3.33178 5.91245,-3.51506 5.91245,-1.52094 0,0.78014 -1.575,2.39184 -3.5,3.58156 -1.925,1.18972 -3.5,2.59142 -3.5,3.11489 0,2.04206 14.13361,21.88511 15.58811,21.88511 0.84885,0 2.34862,-0.43095 3.3328,-0.95767 6.6473,-3.55753 23.68764,-3.09705 32.53548,0.8792 3.99306,1.7945 4.0654,1.79072 5.78637,-0.30216 0.95851,-1.16565 2.48573,-4.42647 3.39381,-7.24626 z M 253.0241,102.75 c -2.96309,-1.7875 -5.57069,-3.820029 -5.79468,-4.51673 -0.46004,-1.430973 18.35821,-10.606162 19.85538,-9.68086 0.50336,0.311093 0.9152,3.464066 0.9152,7.006607 0,10.830273 -4.97959,13.221323 -14.9759,7.190983 z m 10.91456,-1.1761 c 0.65096,-0.78435 1.04356,-3.225699 0.87245,-5.425222 L 264.5,92.149546 l -6.23692,2.675227 c -3.4303,1.471375 -6.10632,3.084672 -5.94671,3.585105 0.40089,1.256883 6.78804,4.590122 8.79558,4.590122 0.90374,0 2.17576,-0.64174 2.82671,-1.4261 z M 309,96.815724 c 0,-3.639274 3.77502,-10.251611 6.90993,-12.103446 3.9955,-2.3602 5.4612,-0.18651 1.71455,2.542738 C 314.57853,89.473831 312,93.918638 312,96.95034 312,98.105593 311.34545,99 310.5,99 309.62448,99 309,98.090636 309,96.815724 Z M 246.66667,71.333333 c -1.28517,-1.285169 -0.64828,-4.351719 1.31065,-6.310652 3.64428,-3.644279 6.6216,0.121193 3.9875,5.04306 -1.01134,1.889706 -3.96853,2.597217 -5.29815,1.267592 z M 254.75,58.540557 C 251.63436,54.784736 251.40296,54 253.41111,54 c 1.79319,0 6.79043,5.864889 6.03656,7.084672 -0.90101,1.457858 -1.76679,0.988974 -4.69767,-2.544115 z"
         id="path2" />
    </g>
  </g>
</svg>
