<?xml version="1.0" encoding="UTF-8" standalone="no"?>
<!-- Created with Inkscape (http://www.inkscape.org/) -->

<svg
   version="1.1"
   id="svg1"
   width="538"
   height="450"
   viewBox="0 0 538 450"
   sodipodi:docname="HR_13.svg"
   inkscape:version="1.3.2 (091e20e, 2023-11-25, custom)"
   xmlns:inkscape="http://www.inkscape.org/namespaces/inkscape"
   xmlns:sodipodi="http://sodipodi.sourceforge.net/DTD/sodipodi-0.dtd"
   xmlns="http://www.w3.org/2000/svg"
   xmlns:svg="http://www.w3.org/2000/svg">
  <defs
     id="defs1" />
  <sodipodi:namedview
     id="namedview1"
     pagecolor="#ffffff"
     bordercolor="#000000"
     borderopacity="0.25"
     inkscape:showpageshadow="2"
     inkscape:pageopacity="0.0"
     inkscape:pagecheckerboard="0"
     inkscape:deskcolor="#d1d1d1"
     showgrid="false"
     inkscape:zoom="1.7488889"
     inkscape:cx="269.02795"
     inkscape:cy="225"
     inkscape:window-width="1920"
     inkscape:window-height="1001"
     inkscape:window-x="-9"
     inkscape:window-y="-9"
     inkscape:window-maximized="1"
     inkscape:current-layer="g1" />
  <g
     inkscape:groupmode="layer"
     inkscape:label="Image"
     id="g1">
    <g
       id="g2"
       transform="translate(0,0.08037914)">
      <path
         style="fill:#fefefe"
         d="M 0,225 V 0 H 269 538 V 225 450 H 269 0 Z"
         id="path5" />
      <path
         style="fill:#cdc9c6"
         d="m 396,449.29652 c -9.76614,-0.7684 -29.96472,-4.62709 -38.504,-7.3557 -14.97282,-4.78438 -22.50501,-11.07241 -20.90406,-17.45113 0.89147,-3.5519 7.68663,-9.04666 14.41324,-11.65496 l 5.69579,-2.20859 20.29619,-73.56307 c 11.16291,-40.45969 20.52608,-74.42094 20.80704,-75.46944 0.28097,-1.04851 0.0959,-1.64994 -0.4112,-1.33652 -0.50713,0.31343 -29.05203,7.80879 -63.43312,16.65638 C 279.45534,290.93961 270.45542,293 263.69286,293 c -17.84557,0 -34.36325,-10.40827 -41.70042,-26.27667 -1.58273,-3.42303 -7.25715,-23.23293 -12.61072,-44.02516 l -9.73319,-37.80184 -7.57427,7.4204 c -9.78852,9.58968 -16.25456,14.54689 -27.96155,21.43682 -10.5092,6.185 -44.32309,23.11383 -79.451288,39.77707 -22.183177,10.52271 -22.823455,10.90922 -22.311586,13.46856 3.287012,16.43506 3.399011,44.12891 0.209304,51.75454 C 60.504986,323.66459 55.844263,328 52.619055,328 49.105583,328 41.544061,322.62945 37.046554,316.93968 16.040737,290.36533 -0.93236505,234.40832 0.15317803,195.30941 0.49366646,183.04575 0.81437216,180.94614 3.0182914,176.55197 c 1.3649397,-2.72141 3.738274,-5.86101 5.2740761,-6.97688 2.6797725,-1.94705 2.9758475,-1.96288 7.3426815,-0.39257 l 4.550314,1.63628 29.057257,-10.28621 29.057257,-10.28622 2.696848,-7.37318 C 84.165708,134.20918 87.91399,126.62406 92.793954,119 97.527468,111.60474 105.18163,94.67539 127.07864,43.169621 L 145.5,-0.16075827 l 4.82467,0.44076119 c 8.00917,0.73168408 8.15976,1.13514398 7.8292,20.97628808 -0.1764,10.587954 -0.68206,17.383885 -1.31008,17.606875 -0.56253,0.199742 0.03,0.91413 1.31671,1.587529 1.89596,0.992236 2.90232,0.944477 5.30814,-0.251911 4.80908,-2.3915 57.76908,-0.302547 73.53136,2.900368 6.56804,1.334635 8,2.340391 8,5.618922 0,5.74519 -9.05317,12.267134 -21.29037,15.33769 -2.63471,0.661099 -4.6493,1.62523 -4.47687,2.142513 0.17243,0.517284 3.50503,2.222785 7.40579,3.790002 l 7.09228,2.849487 57.88458,-14.914857 c 48.16396,-12.410187 59.0844,-14.915533 65.02925,-14.918883 18.51676,-0.01043 35.02875,10.826082 42.70706,28.027861 1.34244,3.007462 5.97498,19.303974 10.29454,36.214473 4.31955,16.91049 8.07874,30.74732 8.35374,30.7485 0.275,0.001 2.67705,-12.03468 5.3379,-26.74635 6.211,-34.340366 5.9335,-33.357538 10.61196,-37.58425 8.26444,-7.466422 20.18092,-5.222727 24.98666,4.704614 l 2.07843,4.293456 -2.62645,35.12672 c -1.44455,19.3197 -2.33535,36.28659 -1.97955,37.70421 1.18378,4.71654 3.87915,4.71096 22.69962,-0.0469 19.32089,-4.88441 23.55005,-5.25224 29.39143,-2.55627 5.72496,2.64224 7.9511,5.49953 12.55517,16.11472 2.24195,5.16908 5.67338,11.16613 7.62539,13.32678 5.41059,5.98887 8.68986,13.95318 9.13508,22.18619 0.61353,11.3454 -4.69859,65.99017 -7.02498,72.26458 -5.33988,14.40202 -19.56843,24.46563 -34.75902,24.58448 -3.0424,0.0238 -6.67587,-0.25915 -8.07436,-0.62879 l -2.54273,-0.67206 -8.25778,52.5832 c -4.54177,28.92075 -8.12255,52.70081 -7.95727,52.84458 0.16527,0.14376 4.94394,1.42043 10.61925,2.83705 31.27363,7.80622 38.09419,19.75665 17.22727,30.1842 -7.61936,3.80753 -25.37854,8.08886 -41.17887,9.92729 -12.22706,1.42266 -46.43848,1.91084 -59.86715,0.85426 z m 43.00613,-19.82093 c 12.97701,-1.58336 20.75879,-2.90718 21.51102,-3.65941 0.44793,-0.44793 20.52148,-127.18184 20.1744,-127.37058 -0.10535,-0.0573 -9.41655,-3.59031 -20.69155,-7.85117 -11.275,-4.26085 -22.32588,-8.80588 -24.55752,-10.10007 -5.67365,-3.2903 -12.14205,-10.62097 -15.28207,-17.31921 -2.50525,-5.34416 -2.67323,-6.63747 -2.88031,-22.17515 -0.12094,-9.075 -0.34594,-17.85 -0.5,-19.5 -0.22462,-2.4058 0.10711,-3 1.67483,-3 3.01146,0 4.85733,10.54948 3.69654,21.12645 -1.35817,12.3756 0.26035,19.94263 5.9645,27.88551 4.92701,6.86074 11.81467,11.02761 26.38403,15.96172 1.72957,0.58575 1.7725,0.53029 0.31749,-0.41009 -1.90978,-1.23432 -5.08243,-11.13409 -4.64296,-14.48767 0.1598,-1.21945 -0.41745,-3.3104 -1.28277,-4.64655 C 446.82925,260.74463 443,247.98345 443,244.29476 c 0,-1.59212 0.52937,-3.42413 1.17637,-4.07113 0.90183,-0.90183 0.77644,-1.6183 -0.53729,-3.06995 -1.80814,-1.99797 -6.59854,-16.23102 -6.62407,-19.68117 -0.008,-1.11513 0.7048,-3.05517 1.58457,-4.31122 1.46774,-2.09549 1.46581,-2.43155 -0.0234,-4.07713 -2.33172,-2.57653 -5.79595,-15.807 -5.04002,-19.24871 0.89477,-4.07386 4.22203,-6.20576 29.30778,-18.77865 C 483.82855,160.53938 488,159.07554 488,162.22908 c 0,0.71052 -11.0409,6.89717 -24.53534,13.74812 -18.99355,9.64276 -24.66087,12.95636 -25.09106,14.67039 -0.68812,2.74171 2.25074,13.23199 4.37104,15.60241 0.86093,0.9625 2.42316,1.75 3.47162,1.75 2.054,0 2.02756,-1.34189 -0.29476,-14.95951 -0.69663,-4.08485 -0.61512,-5.77533 0.32372,-6.71383 2.38751,-2.38666 3.713,0.30366 4.9414,10.02952 1.0027,7.9389 1.52186,9.69114 2.7735,9.36095 38.52702,-10.16396 42.16308,-10.99393 43.27827,-9.87874 2.24975,2.24975 -1.54899,3.84028 -21.93695,9.18496 -11.1092,2.91227 -20.60941,5.56089 -21.11156,5.88584 -0.53686,0.3474 -0.23256,5.32875 0.73859,12.09081 1.60406,11.1689 1.72244,11.49628 4.11157,11.37083 1.35298,-0.071 12.06082,-1.38553 23.79521,-2.92108 18.14887,-2.37495 21.46564,-2.58093 22.20836,-1.37919 0.51568,0.8344 0.46893,1.8169 -0.11422,2.40005 -0.54303,0.54303 -11.33862,2.35043 -23.99021,4.01644 -12.65159,1.66602 -23.08134,3.25048 -23.17721,3.52104 -0.0959,0.27055 0.43268,5.59618 1.17458,11.83472 l 1.3489,11.34282 21.34607,-0.72456 c 16.60375,-0.56359 21.68455,-0.44365 22.86961,0.53987 1.15932,0.96215 1.25226,1.59129 0.38876,2.63174 C 503.99465,266.71137 499.22567,267 482.2981,267 h -21.45701 l 0.52593,2.75 c 0.28926,1.5125 0.81275,4.65177 1.16332,6.97615 0.55384,3.67214 1.05245,4.34342 3.80353,5.12069 19.17941,5.41878 32.29605,9.62177 32.87997,10.53578 0.39261,0.61456 0.16045,1.67096 -0.51591,2.34757 -0.97318,0.97354 -5.39195,-0.007 -21.18045,-4.70005 -10.9729,-3.26163 -20.06746,-5.8135 -20.21014,-5.67082 -0.80318,0.80319 31.45937,11.86432 35.96012,12.32884 13.9823,1.4431 28.41305,-8.02827 33.28922,-21.84879 0.83257,-2.35976 2.76973,-18.4226 4.44492,-36.85693 2.78952,-30.69699 2.87624,-33.03161 1.43294,-38.57838 -1.68711,-6.48377 -2.89231,-8.67029 -8.52474,-15.46593 -2.07956,-2.50903 -5.15387,-8.01783 -6.8318,-12.24179 -3.83244,-9.64761 -4.57111,-10.81034 -8.63795,-13.59699 -4.69079,-3.21418 -9.33107,-2.91382 -28.14505,1.82176 C 471.38225,162.1645 462.67475,164 460.945,164 c -3.85872,0 -9.94346,-5.59664 -9.94801,-9.15 -0.002,-1.2925 1.15844,-17.59205 2.57799,-36.22122 1.41954,-18.629164 2.29785,-34.999325 1.95179,-36.378131 -0.34606,-1.378805 -1.92153,-3.799258 -3.50106,-5.378784 -5.28427,-5.284267 -15.58767,-2.809157 -17.90315,4.300741 -1.4724,4.521139 -13.75496,72.128594 -15.12193,83.236344 -0.60301,4.89993 -1.03051,16.14993 -0.95,25 L 418.19701,205.5 404.5426,255 c -7.50993,27.225 -17.1994,62.325 -21.53215,78 -4.33275,15.675 -10.65964,38.625 -14.05976,51 -3.40011,12.375 -7.40681,26.775 -8.90377,32 -1.85634,6.47941 -2.37599,9.69975 -1.63433,10.12824 0.59808,0.34553 6.26241,1.3556 12.58741,2.24461 6.325,0.889 12.625,1.78251 14,1.98558 7.25683,1.07171 42.74092,0.49166 54.00613,-0.88284 z M 457.26323,273.25 c -0.28473,-2.8875 -0.91044,-5.25 -1.39046,-5.25 -1.1672,0 -1.09245,2.66871 0.2057,7.34377 1.4094,5.0757 1.82014,4.34982 1.18476,-2.09377 z m -2.88517,-19.5 c -0.71922,-5.0875 -1.32351,-10.22037 -1.34287,-11.40638 -0.0272,-1.66886 -0.49452,-2.03626 -2.06686,-1.62509 -3.76898,0.98561 -4.05639,3.46719 -1.40244,12.10909 2.01833,6.57217 3.68378,9.37473 6.02698,10.14197 0.0511,0.0167 -0.49559,-4.13209 -1.21481,-9.21959 z m -2.73259,-20.77263 c -0.33249,-1.66245 -1.11984,-7.04085 -1.74967,-11.952 l -1.14514,-8.92936 -3.12533,1.27021 c -4.01207,1.6306 -4.27304,3.71265 -1.60693,12.82034 2.09807,7.16724 3.93108,9.81344 6.79773,9.81344 1.06224,0 1.27719,-0.7834 0.82934,-3.02263 z m -273.18759,-94.684 7.49098,-3.70663 -0.60151,-8.54337 c -0.70141,-9.96229 1.04532,-18.3531 5.55319,-26.675997 C 193.99494,93.654175 193.69777,93 188.00801,93 182.6939,93 166.85809,107.9525 162,117.55731 c -1.96231,3.87963 -2.5,6.45778 -2.5,11.9871 0,13.37929 4.96732,15.67168 18.95788,8.74896 z M 414.25,69.659697 c -5.62866,-3.28914 -5.70558,-3.39069 -4.27827,-5.648197 0.80201,-1.268502 1.75992,-1.046805 6.48119,1.5 3.04705,1.643675 5.54166,3.239992 5.54358,3.54737 0.002,0.307379 -0.559,1.258581 -1.2465,2.113783 -1.11012,1.380916 -1.83748,1.211616 -6.5,-1.512956 z m -67,-38.764301 c -5.52965,-3.223503 -6.05429,-3.983007 -3.95489,-5.725356 0.95909,-0.795974 2.64556,-0.303582 6.5,1.897783 2.86269,1.634948 5.20489,3.151726 5.20489,3.370618 0,1.093626 -1.29337,3.558835 -1.85699,3.539498 -0.35365,-0.01213 -3.00551,-1.399278 -5.89301,-3.082543 z m 62.35699,1.522817 C 409.27314,31.548229 409,30.657332 409,30.438441 c 0,-0.218892 2.3422,-1.73567 5.20489,-3.370618 3.85444,-2.201365 5.54091,-2.693757 6.5,-1.897783 2.1138,1.754303 1.5656,2.528422 -4.07662,5.756569 -6.23806,3.56906 -6.22514,3.566315 -7.02128,1.491604 z M 380,9.5 c 0,-5.8333333 0.20513,-6.5 2,-6.5 1.79487,0 2,0.6666667 2,6.5 0,5.833333 -0.20513,6.5 -2,6.5 -1.79487,0 -2,-0.666667 -2,-6.5 z"
         id="path4" />
      <path
         style="fill:#63ddab"
         d="m 397.16858,448.96502 c -13.18142,-1.27122 -27.28389,-3.78413 -36.99093,-6.59139 -26.87141,-7.77116 -30.96432,-19.86418 -9.77153,-28.87123 5.8352,-2.47999 6.69583,-3.20545 7.59218,-6.39973 13.56267,-48.33278 40.23122,-146.2039 39.92108,-146.5067 -0.23066,-0.22519 -28.09438,6.75816 -61.91938,15.51856 -35.15395,9.10459 -64.49874,16.18627 -68.5,16.53088 -13.57827,1.16941 -26.66163,-3.73373 -36.42632,-13.6512 -3.07894,-3.12712 -6.85866,-8.26013 -8.39938,-11.40669 -1.65638,-3.38276 -6.88107,-21.55746 -12.78328,-44.46813 l -9.98196,-38.7471 9.50079,-12.93615 c 13.49849,-18.37936 16.93497,-21.96763 29.8824,-31.2023 C 252.89012,130.53524 256,127.21099 256,122.37438 c 0,-3.11562 -0.43641,-3.67026 -4.25,-5.40131 -3.1832,-1.44491 -6.53256,-1.93466 -13.34345,-1.95111 -11.0771,-0.0268 -15.07788,1.23826 -36.0102,11.38613 -10.46647,5.07408 -15.40739,7.00553 -15.73528,6.15105 -1.54408,-4.02379 -1.67299,-12.71588 -0.28661,-19.32406 3.05563,-14.564641 12.5045,-27.158433 24.83628,-33.1027 C 215.27061,78.175406 232.21072,73.362273 259,66.554182 281.825,60.753554 311.89299,53.080879 325.81775,49.503793 341.16568,45.561112 353.19191,43 356.35765,43 c 16.87384,0 34.907,11.264878 41.9516,26.206158 2.16091,4.583198 18.70412,66.124772 18.69433,69.543842 -0.002,0.6875 0.35327,1.25 0.78943,1.25 0.43616,0 2.94158,-12.0375 5.56762,-26.75 5.60407,-31.397117 6.80524,-36.139529 9.85809,-38.921334 7.77509,-7.084778 18.7787,-5.90793 24.52788,2.623283 2.87479,4.265903 2.8645,6.811878 -0.18816,46.548051 -2.54811,33.16849 -2.46755,34.44191 2.2741,35.94685 1.03721,0.3292 10.16169,-1.46176 20.27664,-3.97991 20.21333,-5.03217 23.36832,-5.13479 30.44115,-0.99014 4.24543,2.4878 7.49072,7.44427 11.42584,17.45043 1.1739,2.98497 3.91386,7.55265 6.08882,10.15039 5.12946,6.12658 8.95122,14.57325 9.57825,21.16941 0.27464,2.88913 -0.84469,19.77481 -2.4874,37.52373 -2.83982,30.68313 -3.13479,32.5871 -5.9957,38.70072 -3.71697,7.94298 -9.91622,14.28035 -17.71461,18.10931 -5.39529,2.64905 -6.89414,2.91921 -16.19553,2.91921 -5.6375,0 -10.27439,0.225 -10.3042,0.5 -0.0298,0.275 -3.75849,23.98876 -8.28596,52.69724 l -8.23176,52.19724 7.53596,1.66963 c 13.47822,2.98618 23.85481,7.29597 28.66634,11.90622 2.96104,2.83718 4.36962,5.02325 4.36962,6.78153 0,8.82344 -19.13308,17.24244 -48.40331,21.29861 -13.30139,1.84325 -50.40308,2.67068 -63.42811,1.41455 z M 427,430.99814 c 6.875,-0.52606 17.31268,-1.69065 23.19485,-2.58797 10.20962,-1.55747 10.72002,-1.75124 11.24967,-4.27083 0.30514,-1.45164 4.13287,-25.58934 8.50606,-53.63934 4.37319,-28.05 8.64653,-55.275 9.49632,-60.5 0.84978,-5.225 1.54687,-10.00719 1.54908,-10.62709 0.002,-0.6199 -9.10848,-4.6086 -20.24598,-8.86379 -11.1375,-4.25518 -21.825,-8.5462 -23.75,-9.5356 -6.76973,-3.47948 -11.83132,-8.85327 -15.68685,-16.65442 l -3.74272,-7.57286 -0.0476,-18.96097 c -0.0262,-10.42853 0.26439,-19.15378 0.64569,-19.38943 2.51837,-1.55644 4.74313,11.39442 3.57659,20.82018 -1.1788,9.52488 -0.433,15.50111 2.8464,22.80858 2.79415,6.22621 8.65296,12.49911 14.49617,15.52075 1.82404,0.94325 13.238,5.57153 25.36436,10.28508 21.74102,8.45079 22.17322,8.57071 31.04794,8.61477 7.09962,0.0353 9.96092,-0.39886 13.55081,-2.05591 9.17917,-4.23701 15.61391,-11.7973 18.31653,-21.52043 1.98553,-7.14327 6.98907,-65.0065 6.1215,-70.79185 -0.91557,-6.10545 -3.76154,-11.84449 -8.80184,-17.74936 -2.44321,-2.86229 -5.43008,-8.07883 -7.09209,-12.38624 -3.81174,-9.87883 -6.56352,-13.3821 -12.20337,-15.53598 l -4.64286,-1.77313 -19.83341,4.88858 c -19.62664,4.83762 -19.87089,4.87071 -23.42962,3.17367 -6.48062,-3.0904 -6.59009,-4.17242 -3.91468,-38.69455 3.02791,-39.070427 3.04442,-41.947935 0.26113,-45.486321 -3.21055,-4.081556 -8.17766,-5.884767 -12.38513,-4.496178 -7.08886,2.339536 -7.38847,3.225486 -14.72612,43.546229 -9.19458,50.52462 -8.95547,48.67157 -8.95947,69.43627 l -0.004,18.5 -30.3789,110.17152 C 370.67051,376.26586 357,426.04974 357,426.30237 c 0,0.7091 20.36578,3.67934 31.51718,4.59662 14.20778,1.16868 24.16997,1.19435 38.48282,0.0991 z m 48.13853,-141.96137 c -10.64882,-3.20713 -20.00709,-6.47676 -20.79617,-7.26584 -1.85776,-1.85776 -4.47436,-11.73346 -3.73388,-14.09259 0.31448,-1.00192 -0.1026,-2.57692 -0.92684,-3.5 C 448.03795,262.33755 443,247.65995 443,244.712 c 0,-1.01392 0.46338,-2.70931 1.02973,-3.76755 0.75305,-1.4071 0.64616,-2.53135 -0.39785,-4.18426 -0.78517,-1.2431 -2.67412,-6.14494 -4.19767,-10.89296 l -2.77009,-8.63278 1.99008,-3.37293 c 1.85635,-3.14629 1.87859,-3.49037 0.331,-5.12045 C 436.9712,206.61974 434,196.35297 434,191.5151 c 0,-2.17686 0.75825,-4.27335 1.99166,-5.50676 C 438.60003,183.39997 483.38503,161 485.99167,161 c 5.36965,0 -0.003,3.52384 -22.53,14.77598 -18.06401,9.02306 -24.75533,12.84364 -25.36081,14.48041 -0.88617,2.39554 1.89873,13.83326 3.97827,16.33895 0.64117,0.77256 2.29834,1.40466 3.68261,1.40466 2.45223,0 2.50012,-0.13477 1.86553,-5.25 -2.06699,-16.6612 -2.06786,-16.9815 -0.0453,-16.59198 1.57284,0.3029 2.11261,1.94836 3.22989,9.84618 0.73781,5.21538 1.53514,9.67617 1.77184,9.91287 0.2367,0.23671 10.1698,-2.15246 22.07356,-5.30926 17.08104,-4.52978 21.81354,-5.46402 22.45131,-4.43208 0.44446,0.71915 0.48089,1.63477 0.081,2.0347 -0.39993,0.39993 -10.16756,3.23756 -21.70584,6.30584 -11.53828,3.06828 -21.34239,5.94239 -21.7869,6.3869 -0.71552,0.71552 1.95761,23.00999 2.87537,23.98121 0.34899,0.36932 39.02584,-4.39542 44.67863,-5.50412 1.96498,-0.3854 2.92871,-0.076 3.37353,1.08323 0.3425,0.89252 0.41367,1.83181 0.15817,2.08732 -0.4417,0.4417 -43.76768,6.42183 -46.66034,6.44036 -1.02567,0.007 -1.23263,0.96725 -0.80978,3.75883 0.31242,2.0625 1.0967,7.4625 1.74285,12 l 1.17482,8.25 h 22.45829 c 20.85244,0 22.43383,0.12513 22.11633,1.75 -0.39958,2.04492 1.11073,1.91348 -24.15289,2.10194 L 460.80363,267 l 0.69942,6.25 c 0.38469,3.4375 1.11829,6.7 1.63024,7.25 0.51195,0.55 8.6789,3.29724 18.14877,6.10499 12.50367,3.70724 17.30647,5.55539 17.54126,6.75 0.50973,2.5934 -2.64636,2.01798 -23.68479,-4.31822 z m -17.63141,-15.97541 c -0.66186,-5.70265 -1.61039,-7.32131 -2.98598,-5.09556 -0.68597,1.10992 2.4,12.4464 3.17668,11.66971 0.28204,-0.28204 0.19622,-3.2404 -0.1907,-6.57415 z M 455.98168,262.25 c -0.0675,-2.76299 -3.08449,-21.68615 -3.52827,-22.12992 -0.73096,-0.73096 -3.56283,1.10627 -4.84965,3.14632 -1.19548,1.89522 2.58346,15.05495 5.16414,17.9836 1.59039,1.80483 3.24602,2.32 3.21378,1 z M 452,234.49342 c 0,-2.17857 -2.99943,-21.82618 -3.39193,-22.21869 -0.18188,-0.18188 -1.49074,0.11036 -2.90858,0.64942 -4.47777,1.70245 -4.8881,3.96271 -2.26361,12.46899 1.29986,4.21304 2.91365,8.3231 3.5862,9.13346 1.59554,1.92251 4.97792,1.89996 4.97792,-0.0332 z M 50.255239,327.21553 C 49.02062,327.02124 45.544688,324.60868 42.530946,321.85429 14.568258,296.29797 -9.9775309,202.39822 4.0942982,174.81516 c 2.850795,-5.58802 8.0237118,-7.42792 13.1581128,-4.68007 1.963351,1.05075 1.745763,1.27503 -2.928672,3.01875 -5.0260017,1.87487 -5.0525362,1.90812 -5.6779772,7.11492 -2.3330406,19.42256 1.7154052,44.93918 10.2830052,64.8119 4.178488,9.69209 11.325778,22.14807 15.930544,27.76305 l 2.742132,3.34371 11.657075,-5.80258 c 6.411391,-3.19142 11.88447,-5.57519 12.162398,-5.29726 0.277928,0.27793 1.244635,6.10942 2.148239,12.95887 1.745788,13.23334 1.502993,31.31795 -0.511125,38.07118 -2.406337,8.06833 -6.961755,12.01712 -12.802791,11.0979 z M 129.05589,81.567341 c -1.42901,-1.721848 -0.89732,-2.13239 24.75075,-19.111279 l 19.30664,-12.780894 6.57881,1.212194 c 7.78759,1.434919 37.49634,11.813588 38.51627,13.45555 0.3896,0.627203 0.28021,1.56852 -0.24309,2.091814 -0.99132,0.991323 -1.87516,0.742233 -20.96527,-5.908602 -5.775,-2.011961 -13.21348,-4.290279 -16.52996,-5.062929 l -6.02996,-1.404818 -20.47004,13.541445 C 128.93739,84.159545 130.48647,83.291091 129.05589,81.567341 Z M 416.5,70.606149 c -1.1,-0.705302 -3.26761,-2.060323 -4.81692,-3.011159 -2.27228,-1.394534 -2.58818,-2.004411 -1.63386,-3.154293 1.00686,-1.213201 1.91325,-1.017075 6.08603,1.316902 2.79779,1.5649 4.78743,3.350874 4.63386,4.159535 -0.372,1.958967 -1.90308,2.206076 -4.26911,0.689015 z M 120.45425,66.925972 c -0.92686,-1.499682 2.41913,-4.798247 11.36778,-11.206674 12.41409,-8.890135 25.28348,-15.876619 26.85023,-14.576338 0.73026,0.606061 1.32774,1.392958 1.32774,1.74866 0,0.355702 -2.8125,2.187907 -6.25,4.071565 -8.96635,4.91332 -19.11316,11.581496 -25.33582,16.649922 -5.62557,4.582089 -6.8584,5.095182 -7.95993,3.312865 z M 348.7006,31.50672 c -5.05362,-2.933585 -6.08199,-4.07046 -5.3671,-5.933434 0.50546,-1.317196 1.42473,-1.07672 5.88279,1.538893 2.90604,1.705023 5.39156,3.197643 5.52338,3.316932 0.13181,0.11929 -0.31819,0.906794 -1,1.750009 -1.1014,1.362122 -1.66344,1.287126 -5.03907,-0.6724 z m 61.38149,0.64667 c -0.81234,-1.517882 -0.12179,-2.283525 4.40422,-4.883131 2.95219,-1.69565 5.62548,-2.825133 5.94065,-2.509963 1.4839,1.483899 0.16576,3.318756 -4.40421,6.13069 -4.62957,2.848601 -5.04456,2.936786 -5.94066,1.262404 z M 380,10 c 0,-5.3333333 0.22222,-6 2,-6 1.77778,0 2,0.6666667 2,6 0,5.333333 -0.22222,6 -2,6 -1.77778,0 -2,-0.666667 -2,-6 z"
         id="path3" />
      <path
         style="fill:#050508"
         d="M 400.5,448.97467 C 362.99503,445.93955 337,436.53778 337,426.00826 c 0,-3.70888 6.99534,-9.97871 14.17871,-12.70817 2.87026,-1.09061 5.58412,-2.61679 6.03081,-3.39151 1.43566,-2.48996 41.56642,-149.39883 40.88474,-149.66905 -0.36139,-0.14326 -28.56879,6.93013 -62.68311,15.71863 -34.11431,8.78851 -64.47518,16.26441 -67.46859,16.61313 -16.94535,1.97402 -37.30217,-9.34286 -44.96209,-24.99558 -2.66826,-5.45247 -21.95595,-76.59658 -22.25133,-82.07571 -0.0603,-1.1193 5.18889,-9.04558 11.92062,-18 12.11018,-16.10872 14.61069,-18.55584 30.35024,-29.70221 11.29572,-7.99935 15.29805,-13.50385 12.97491,-17.84468 -1.95367,-3.65046 -7.53923,-5.27687 -17.97491,-5.23393 -11.24939,0.0463 -15.19918,1.35041 -36.64533,12.09949 -16.30607,8.1728 -15.31698,8.4928 -15.34102,-4.96333 -0.0244,-13.63841 4.80701,-24.73699 14.86302,-34.143206 6.74032,-6.30478 13.26775,-9.336354 28.50449,-13.238505 C 236.59652,72.625763 266.35,64.944487 295.5,57.404125 343.8939,44.885858 349.23871,43.698802 357,43.745292 c 17.47415,0.10467 31.9798,8.777624 40.32491,24.110347 1.76378,3.240634 5.80212,16.798621 11.21563,37.654391 4.6527,17.92472 8.45946,33.2428 8.45946,34.04018 0,0.79739 0.35138,1.44979 0.78085,1.44979 0.42947,0 3.19576,-13.3875 6.14731,-29.75 3.62089,-20.073051 6.05042,-31.018753 7.46915,-33.650549 2.91163,-5.401162 7.68257,-7.829118 14.39416,-7.325267 6.23964,0.46842 9.74875,2.754192 12.56785,8.186472 l 1.99656,3.847278 -2.68403,36.349856 c -2.87836,38.98177 -2.84032,39.73889 2.05919,40.98299 1.22707,0.31159 10.78783,-1.53756 21.24614,-4.10921 19.00171,-4.67244 19.01889,-4.67463 24.39538,-3.11164 7.07045,2.05544 11.2925,6.76823 15.15005,16.91099 1.91414,5.03291 4.67717,9.84215 7.73725,13.46719 4.83883,5.73221 7.9776,12.48834 9.15311,19.70189 0.36091,2.21476 -0.69737,18.58867 -2.37118,36.68739 -2.33333,25.22997 -3.50078,33.96434 -5.11719,38.28458 -2.94158,7.86207 -11.07126,16.4039 -19.14257,20.11303 -5.57305,2.56106 -7.38669,2.88589 -16.07002,2.87822 -9.00895,-0.008 -9.82487,0.15233 -10.25126,2.01406 -0.2548,1.1125 -3.84187,23.84772 -7.97127,50.52272 -4.1294,26.675 -7.73988,49.52238 -8.0233,50.77196 -0.30852,1.36026 -0.004,2.42023 0.75926,2.64146 0.70101,0.20322 5.54956,1.36283 10.77456,2.5769 29.50657,6.85611 37.08963,18.95564 17.81851,28.43121 -14.43822,7.09924 -37.90873,11.20771 -68.48483,11.98814 -9.80853,0.25035 -22.78368,0.0546 -28.83368,-0.435 z m 46.27762,-19.88632 c 7.30268,-1.10245 13.65587,-2.23823 14.11819,-2.52396 0.46231,-0.28572 1.15175,-2.8921 1.53208,-5.79195 0.38033,-2.89984 4.729,-30.92244 9.66372,-62.27244 4.93472,-31.35 8.84535,-57.83079 8.6903,-58.84621 -0.21598,-1.41445 -5.37508,-3.78935 -22.0605,-10.15516 -22.89561,-8.7351 -27.7383,-11.49267 -33.60611,-19.13626 -5.76496,-7.50962 -7.48206,-13.47039 -7.16205,-24.86237 0.1545,-5.5 0.31139,-11.35 0.34865,-13 0.0373,-1.65 -0.29841,-5.3625 -0.74591,-8.25 -0.68007,-4.38811 -0.56404,-5.25 0.70677,-5.25 2.47082,0 3.15047,4.57346 3.19508,21.5 0.0477,18.10462 1.00142,21.57507 8.08324,29.41379 5.96446,6.60194 8.29864,7.835 32.80462,17.32943 21.15288,8.19533 23.89911,9.01474 31.7709,9.4797 7.84718,0.46352 9.16289,0.26381 14.73431,-2.2365 C 518.11293,290.32987 525.34184,281.9646 527.85064,272.5 529.03387,268.03618 534,214.6233 534,206.36094 c 0,-7.1355 -3.09157,-14.91622 -8.39588,-21.13039 -2.66241,-3.11908 -5.87565,-8.72293 -8.15521,-14.22256 -2.5211,-6.08234 -4.8574,-10.03748 -7.08394,-11.9924 -5.61821,-4.93286 -8.59968,-4.89634 -29.86497,0.36577 -20.76588,5.13854 -23.61341,5.14689 -26.93402,0.079 -2.05539,-3.13692 -1.97294,-7.56228 0.82806,-44.4451 1.51774,-19.985088 2.00892,-31.5937 1.42609,-33.704511 -2.57081,-9.310729 -16.9671,-10.728576 -21.42395,-2.109981 -1.9607,3.791567 -15.04775,75.638332 -16.52729,90.733372 -0.62684,6.3954 -0.85373,16.48336 -0.50753,22.56586 l 0.6261,11 -30.63678,111.27362 c -16.85023,61.20048 -30.44948,111.46091 -30.22056,111.68983 0.67018,0.67018 18.58974,3.51333 28.36988,4.50122 13.99477,1.4136 45.97063,0.4345 61.27762,-1.87632 z m 28.87803,-140.10307 c -10.9144,-3.24335 -20.43736,-6.38915 -21.16214,-6.99067 -1.48907,-1.23581 -3.93741,-10.34186 -3.68651,-13.71113 0.0908,-1.21909 -0.69281,-3.69409 -1.74131,-5.5 -1.04851,-1.80591 -2.90143,-6.5966 -4.1176,-10.64597 -2.02071,-6.72815 -2.08357,-7.63281 -0.72959,-10.5 1.33932,-2.83613 1.31823,-3.30736 -0.21957,-4.90569 C 442.05211,234.70838 438,221.58868 438,217.30882 c 0,-1.57509 0.66673,-3.8157 1.48162,-4.97912 1.30729,-1.86642 1.30767,-2.25969 0.003,-3.34232 C 437.62394,207.44301 434,195.87781 434,191.48356 c 0,-2.39804 0.77383,-3.95691 2.81812,-5.67707 5.07961,-4.2742 47.6526,-25.22357 49.67885,-24.44603 1.08605,0.41676 1.46238,1.05908 0.92025,1.57069 -0.50447,0.47607 -11.40557,6.1416 -24.22467,12.59007 -14.18526,7.1357 -23.89344,12.61884 -24.80469,14.00958 -1.33638,2.03957 -1.31917,2.9128 0.16017,8.12715 2.2056,7.77431 3.93737,10.34205 6.97502,10.34205 2.91174,0 3.019,-0.95807 1.40581,-12.5565 -0.78038,-5.6107 -0.76907,-8.00329 0.0416,-8.814 1.7269,-1.7269 2.76972,0.80493 3.55589,8.63325 0.38205,3.80434 0.98241,7.94366 1.33413,9.1985 l 0.63948,2.28153 21.5,-5.72691 c 11.825,-3.1498 21.8375,-5.54036 22.25,-5.31237 3.05953,1.69104 -1.14233,3.42636 -20.96208,8.65714 -11.94165,3.15161 -21.90689,5.925 -22.14499,6.16309 -0.411,0.41101 1.35766,15.86615 2.48633,21.72627 0.6726,3.4922 0.91892,3.49066 27.37074,-0.1711 19.1331,-2.64862 24.03026,-2.6817 21.45,-0.1449 -0.5225,0.5137 -11.26123,2.31243 -23.86384,3.99717 -12.60261,1.68474 -23.13035,3.27969 -23.39498,3.54432 -0.46759,0.46759 1.44717,16.75579 2.50094,21.27451 l 0.5247,2.25 h 22.39159 C 501.09752,263 505,263.24315 505,264.39516 c 0,1.12927 -4.21219,1.53533 -22.1025,2.13071 l -22.1025,0.73556 0.68994,6.61929 c 0.37946,3.6406 0.98808,6.89974 1.35249,7.24253 0.36442,0.34279 5.61257,2.05462 11.66257,3.80406 23.56135,6.81307 24.5,7.14314 24.5,8.61504 0,2.19359 -1.82837,1.83668 -23.34435,-4.55707 z m -17.83141,-15.1622 c -0.94039,-6.87629 -1.34658,-7.70074 -2.98619,-6.06113 -1.52991,1.52991 1.14358,12.23805 3.05546,12.23805 0.42651,0 0.39534,-2.77961 -0.0693,-6.17692 z M 455.96481,261.25 c -0.0709,-3.52425 -2.67086,-20.28938 -3.23384,-20.85236 -1.20597,-1.20597 -4.74974,0.82898 -5.30647,3.04714 -0.55676,2.21834 2.36713,13.42885 4.58176,17.56693 1.31409,2.45539 4.00639,2.61746 3.95855,0.23829 z m -3.98641,-28 c -0.0322,-4.09687 -2.55827,-20.16321 -3.28442,-20.88935 -1.08524,-1.08524 -6.59845,1.76299 -7.22329,3.7317 -0.70096,2.20854 3.27688,15.62433 5.38382,18.15765 2.32665,2.79748 5.14939,2.24658 5.12389,-1 z M 323.73103,220 c 32.04796,-8.25 58.494,-15 58.76899,-15 2.40283,0 -1.82708,-12.76436 -6.59698,-19.90734 -9.6314,-14.42313 -27.85213,-21.12208 -45.17695,-16.60953 -3.13177,0.81572 -13.90222,3.55927 -23.93434,6.09678 -20.69654,5.23496 -25.90153,7.51917 -33.49215,14.69807 -7.47421,7.06879 -11.50498,15.72682 -12.10543,26.00222 -0.48589,8.3151 1.34945,19.7198 3.17348,19.7198 0.6019,0 27.31542,-6.75 59.36338,-15 z m -14.17495,-67.67381 c 6.33766,-2.15945 13.64025,-9.5193 15.83427,-15.95841 3.75428,-11.01821 0.91066,-22.19753 -7.64386,-30.05084 C 313.04547,102.00126 305.56113,99 299.5,99 c -17.64521,0 -31.10573,18.08489 -26.14962,35.13333 4.5097,15.51281 20.49599,23.5457 36.2057,18.19286 z M 47.5,325.83791 C 32.215957,317.42197 12.832261,276.49206 4.4854936,235.01002 -4.1230164,192.22717 1.0780151,163.7204 16.418213,169.60699 c 2.573253,0.98745 1.838058,1.98831 -2.516101,3.42532 -2.660601,0.87807 -4.4142936,2.18463 -5.0000001,3.72516 -1.414723,3.721 -1.0485822,26.80099 0.5828834,36.74253 1.7766917,10.8265 4.1653627,19.32217 8.4065797,29.89927 3.505084,8.74128 12.332708,24.19043 16.898073,29.57319 l 2.94515,3.47245 11.052695,-5.38642 c 6.078982,-2.96253 11.42464,-5.42513 11.879241,-5.47245 1.5587,-0.16225 3.480275,15.91807 3.634423,30.41396 0.172053,16.17965 -1.324212,23.5748 -5.732259,28.33116 -2.675659,2.88708 -7.395334,3.52955 -11.068898,1.50675 z M 129,80.639082 c 0,-0.748505 9.92873,-7.949228 22.06385,-16.001607 C 176.83471,47.536967 172.78647,48.314192 196,56.010134 c 18.36249,6.087687 22,7.658973 22,9.503286 0,2.073743 -0.50265,1.976047 -12.67226,-2.463002 C 194.08205,58.948382 177.74981,54 175.45665,54 174.73086,54 164.56148,60.3 152.85803,68 141.15458,75.7 130.99875,82 130.28952,82 129.58028,82 129,81.387587 129,80.639082 Z M 414.98264,69.311059 c -5.67173,-3.31963 -5.32744,-2.970151 -4.65426,-4.72441 0.48178,-1.25551 1.31422,-1.086698 5.1141,1.037091 5.03699,2.815232 6.21441,4.119373 4.90303,5.430754 -0.50698,0.506972 -2.78107,-0.232323 -5.36287,-1.743435 z M 121.00373,66.25 c 0.01,-4.469018 33.45367,-26.468443 37.6903,-24.792535 1.70661,0.675094 1.69594,0.7949 -0.19403,2.177648 -1.1,0.804788 -6.5,4.122457 -12,7.372599 -5.5,3.250141 -13.11779,8.403009 -16.92843,11.450818 -7.48949,5.990219 -8.57355,6.469941 -8.56784,3.79147 z M 347.25,30.319047 c -4.27306,-2.482293 -5.08789,-3.683167 -3.26401,-4.810391 1.33053,-0.822312 10.1937,4.452261 9.74473,5.799193 -0.60091,1.802721 -2.05806,1.580395 -6.48072,-0.988802 z m 63.41667,2.014286 c -1.3071,-1.307099 -0.60736,-2.178045 3.84734,-4.788673 C 418.69558,25.094094 421,24.891174 421,26.973522 c 0,0.470519 -2.08168,2.018961 -4.62595,3.440983 -5.25935,2.939504 -4.83079,2.795422 -5.70738,1.918828 z M 380,10.073324 C 380,4.6173827 380.20838,4 382.0499,4 c 1.8633,0 2.02261,0.522551 1.75,5.7402817 -0.23657,4.5280683 -0.66946,5.8106123 -2.0499,6.0733243 -1.51113,0.287583 -1.75,-0.495957 -1.75,-5.740282 z"
         id="path2" />
    </g>
  </g>
</svg>
