<?xml version="1.0" encoding="UTF-8" standalone="no"?>
<!-- Created with Inkscape (http://www.inkscape.org/) -->

<svg
   version="1.1"
   id="svg1"
   width="433"
   height="450"
   viewBox="0 0 433 450"
   sodipodi:docname="HR_17.svg"
   inkscape:version="1.3.2 (091e20e, 2023-11-25, custom)"
   xmlns:inkscape="http://www.inkscape.org/namespaces/inkscape"
   xmlns:sodipodi="http://sodipodi.sourceforge.net/DTD/sodipodi-0.dtd"
   xmlns="http://www.w3.org/2000/svg"
   xmlns:svg="http://www.w3.org/2000/svg">
  <defs
     id="defs1" />
  <sodipodi:namedview
     id="namedview1"
     pagecolor="#ffffff"
     bordercolor="#000000"
     borderopacity="0.25"
     inkscape:showpageshadow="2"
     inkscape:pageopacity="0.0"
     inkscape:pagecheckerboard="0"
     inkscape:deskcolor="#d1d1d1"
     showgrid="false"
     inkscape:zoom="1.7488889"
     inkscape:cx="216.42313"
     inkscape:cy="225"
     inkscape:window-width="1920"
     inkscape:window-height="1001"
     inkscape:window-x="-9"
     inkscape:window-y="-9"
     inkscape:window-maximized="1"
     inkscape:current-layer="g1" />
  <g
     inkscape:groupmode="layer"
     inkscape:label="Image"
     id="g1">
    <g
       id="g4"
       transform="translate(0,0.08149859)">
      <path
         style="fill:#fefefe"
         d="M 0,225 V 0 H 216.5 433 V 225 450 H 216.5 0 Z"
         id="path7" />
      <path
         style="fill:#63deac"
         d="m 234.5,448.83623 c -20.99635,-2.36782 -42.11601,-9.60305 -46.84401,-16.04794 -5.48407,-7.47552 0.33258,-14.81342 16.15002,-20.37382 5.21558,-1.83347 6.62531,-2.74644 6.38304,-4.13382 -0.17102,-0.97936 -7.66537,-30.13065 -16.65411,-64.78065 -16.15726,-62.28343 -16.35443,-63.17195 -17.33466,-78.11768 -0.57325,-8.74046 -0.62974,-17.05415 -0.1339,-19.70824 1.17927,-6.31235 5.01938,-13.4607 9.59722,-17.86524 3.51534,-3.38226 13.29062,-8.77571 15.94773,-8.79907 0.62141,-0.005 0.91607,-1.03117 0.66841,-2.32674 -0.39568,-2.06988 0.19185,-2.50916 5.50934,-4.11917 l 5.95226,-1.8022 -2.07456,-6.38083 L 209.59222,198 202.54611,197.9866 C 171.85731,197.92835 136.56716,162.066 120.98129,115.09928 115.23533,97.784337 113.87608,90.27084 113.2839,72.550763 112.53625,50.178235 115.51661,35.859866 123.49379,23.5 131.03118,11.821547 138.52161,6.9871106 158.4934,0.91073524 173.88351,-3.7716744 197.92491,7.392604 214.83964,27.076642 L 219.5,32.5 l 7.69701,-0.29111 c 18.70807,-0.707563 36.72733,9.316438 46.54821,25.894478 12.70943,21.454025 7.465,51.115172 -11.81251,66.808532 l -5.43271,4.42264 -0.69474,10.68864 c -1.40092,21.55321 -6.55444,34.94797 -17.16633,44.61779 l -6.36032,5.79569 2.00369,6.03167 c 1.10203,3.31742 2.09051,6.14534 2.19662,6.28426 0.10611,0.13892 2.81221,-0.64858 6.01355,-1.75 3.20135,-1.10142 5.88662,-2.00259 5.96727,-2.00259 0.0806,0 1.6392,4.61806 3.46345,10.26235 l 3.31682,10.26235 3.6794,-3.67941 c 4.76883,-4.76883 8.8891,-5.53361 18.40568,-3.41637 9.64193,2.14512 20.42571,7.38176 26.28083,12.76204 7.78325,7.15206 9.18473,13.13435 4.85249,20.71314 -2.48303,4.34378 -2.49142,4.43279 -0.61292,6.5 4.67188,5.14117 5.5013,11.87467 2.1415,17.38531 l -2.00553,3.28941 2.50927,3.69273 c 2.67253,3.93298 3.31937,9.96752 1.56346,14.58592 -0.52019,1.36821 -4.90769,6.52136 -9.75,11.45143 -8.81417,8.97392 -15.46392,13.29781 -24.80419,16.12852 -5.4106,1.63975 -14.5,5.20313 -14.5,5.68452 0,0.21431 12.82772,20.06979 28.50605,44.12329 27.82139,42.68323 28.62,43.78414 33.25,45.83597 9.91838,4.39544 14.18066,10.28575 11.70439,16.17505 -3.36097,7.9934 -23.25944,15.27516 -49.67103,18.17689 -11.3813,1.25041 -40.82604,1.19584 -52.28941,-0.0969 z m 65.23472,-12.6795 C 307.44371,434.0795 323,427.21509 323,425.89065 323,425.45397 308.15,402.32818 290,374.5 c -18.15,-27.82818 -33,-51.04092 -33,-51.58388 0,-1.20337 5.4733,-3.59819 17.87227,-7.81992 12.0333,-4.09723 18.2391,-8.12845 26.19814,-17.01804 7.18288,-8.02267 8.30803,-10.22168 7.48435,-14.62747 C 306.96076,274.9246 285.46083,263 271.68238,263 c -7.51239,0 -12.66229,8.2706 -9.25395,14.86159 1.87779,3.63126 4.98789,5.36109 12.57157,6.99229 6.51752,1.40188 16,6.55663 16,8.69773 0,2.25014 -2.82976,2.91243 -4.80523,1.12466 -0.9519,-0.86147 -3.72693,-2.46002 -6.16673,-3.55235 l -4.436,-1.98606 -2.76456,4.84058 c -3.28729,5.75582 -6.76658,8.42023 -14.44536,11.06212 -11.27484,3.87911 -21.17008,1.87811 -27.03008,-5.46601 -2.38559,-2.98975 -2.88549,-3.22727 -3.89285,-1.84963 -2.0926,2.86181 -3.74106,0.4475 -3.14438,-4.60524 0.71206,-6.02983 -0.95932,-18.09452 -3.41654,-24.66204 -1.07191,-2.86493 -3.9529,-8.30242 -6.4022,-12.08331 -2.4493,-3.78088 -4.4629,-7.19107 -4.47467,-7.57819 -0.0118,-0.38712 5.2661,-4.30337 11.7286,-8.70279 6.4625,-4.39941 12.73805,-9.48268 13.94567,-11.29614 2.97645,-4.46969 5.0649,-12.43664 3.63497,-13.86657 -1.2414,-1.2414 -37.30231,7.99609 -43.44711,11.12958 -6.20155,3.16242 -10.05831,7.12984 -13.0231,13.39678 -3.25433,6.87896 -3.44726,10.02577 -1.83328,29.90184 0.9311,11.46634 2.76311,19.31205 19.58996,83.89522 11.57272,44.41725 19.13984,71.6977 20.09517,72.44563 3.85056,3.0146 27.69504,10.35349 39.80787,12.25213 9.31334,1.45983 30.7822,0.47707 39.21457,-1.79509 z m 6.87301,-169.76032 c 2.10181,-5.03033 1.01267,-8.56983 -4.08207,-13.26599 C 295.29262,246.46323 279.70546,240 270.85948,240 c -7.18767,0 -11.75492,5.41335 -10.44743,12.38285 0.92273,4.91858 2.91943,6.10214 10.49116,6.21872 8.04034,0.1238 18.55789,3.21946 26.59679,7.82831 3.3,1.89196 6.36046,3.46921 6.80103,3.50502 0.44056,0.0358 1.47858,-1.55652 2.3067,-3.53849 z M 304.60795,244.25 c 2.32917,-3.06829 1.71357,-9.71445 -1.22306,-13.20443 -7.40461,-8.79988 -28.23783,-17.14459 -37.07198,-14.84912 -7.46744,1.94034 -9.85873,11.41158 -4.28774,16.98256 2.40072,2.40072 3.56466,2.88977 5.63874,2.36921 4.09113,-1.02681 17.51709,2.35117 25.54153,6.42627 8.61446,4.37474 9.65182,4.58176 11.40251,2.27551 z M 226.25,206.44602 c 3.1625,-0.9962 5.75,-2.07294 5.75,-2.39276 0,-0.31982 -0.9,-3.04379 -2,-6.05326 -1.1,-3.00947 -2,-5.59919 -2,-5.75494 0,-0.5449 -5.53706,1.08608 -9.71155,2.86061 l -4.21155,1.79029 1.56683,5.30202 c 1.91002,6.46337 2.24864,7.05694 3.70742,6.49883 0.63187,-0.24174 3.73635,-1.2546 6.89885,-2.25079 z m 3.92575,-20.70313 c 12.24113,-7.17378 19.30708,-22.06043 21.30576,-44.88726 0.38667,-4.41612 0.27739,-7.8866 -0.25877,-8.21797 -2.13851,-1.32167 -3.92918,2.23318 -4.97995,9.88626 -5.24555,38.20493 -33.74542,47.36304 -62.8392,20.19266 C 164.11893,144.70683 149.40992,116.7696 142.88003,85.749033 139.78063,71.025152 139.77594,51.501062 142.86917,40.5 c 2.75435,-9.795865 5.6219,-14.854396 11.48328,-20.257229 12.70255,-11.7088 30.72396,-8.480572 50.05514,8.966523 4.24965,3.835464 6.95609,5.58838 8.00613,5.185441 C 213.28617,34.059943 214,33.46004 214,33.061618 214,32.061397 200.28799,18.64387 196,15.448194 187.83718,9.3647519 173.99975,4 166.4714,4 c -14.23131,0 -26.90676,12.45861 -32.04827,31.5 -2.1637,8.013204 -2.98556,30.134634 -1.51077,40.664462 7.18496,51.299728 39.11297,100.439518 72.35754,111.364098 2.58296,0.84879 7.38104,1.28424 12.32221,1.1183 6.62844,-0.2226 8.90451,-0.74786 12.58364,-2.90397 z m -5.63704,-13.62136 c 8.97649,-4.0775 16.09946,-16.74475 17.21243,-30.61003 l 0.51766,-6.44898 -3.3778,0.96874 c -5.04017,1.4455 -17.69708,1.17027 -24.2114,-0.5265 -16.89938,-4.40172 -30.655,-17.35691 -36.63664,-34.50476 -2.87985,-8.255788 -3.11153,-23.226644 -0.48368,-31.25412 4.13215,-12.622761 11.7103,-22.67123 22.19072,-29.424429 2.8875,-1.8606 5.25,-3.799685 5.25,-4.309078 0,-1.53933 -13.12393,-11.583155 -18.98051,-14.525901 -7.17395,-3.604678 -16.25702,-4.431281 -22.49886,-2.047501 -8.54841,3.264668 -14.71182,12.878591 -17.56998,27.406337 -1.54967,7.87684 -0.68931,29.735248 1.57756,40.079572 11.61751,53.01381 51.27495,96.88679 77.0105,85.19665 z M 24.5,372.83303 c -10.45,-3.88705 -19.1663029,-7.21844 -19.369562,-7.40309 -0.9030263,-0.82036 3.7900336,-7.13363 6.821511,-9.17654 4.559085,-3.07237 9.174035,-2.86199 19.46638,0.88738 9.622215,3.50526 14.023881,7.36902 15.13357,13.28417 0.679135,3.6201 -0.500639,8.76055 -2.114399,9.21275 -0.515625,0.14449 -9.4875,-2.91761 -19.9375,-6.80467 z m 338.5139,-5.29647 c -1.55957,-4.10198 -1.21071,-7.70146 1.11642,-11.51888 2.85761,-4.68762 3.97261,-5.40488 14.13537,-9.09307 10.30393,-3.73942 16.22915,-3.67853 20.39159,0.20957 2.44744,2.28613 5.82799,7.74615 5.16646,8.34449 -0.17806,0.16105 -8.64874,3.33372 -18.82374,7.05039 -10.175,3.71667 -19.05625,6.96383 -19.7361,7.21591 -0.67986,0.25209 -1.69236,-0.7417 -2.25,-2.20841 z M 123.70124,362.3679 C 123.31556,361.98222 123,357.24167 123,351.83333 V 342 h -10 -10 v -2.5 -2.5 h 10 10 v -10 -10 h 2.5 c 2.49941,0 2.5,0.002 2.5,9.96502 v 9.96501 l 10.25,0.28499 c 9.48834,0.2638 10.25,0.4336 10.25,2.28498 0,1.8509 -0.76153,2.02122 -10.2154,2.2846 l -10.2154,0.2846 -0.2846,10.20367 c -0.2306,8.26753 -0.57848,10.2599 -1.83336,10.49997 -0.85182,0.16297 -1.86432,-0.0193 -2.25,-0.40494 z M 32.110071,350.60449 c -5.126695,-2.84151 -6.541988,-9.51438 -2.978748,-14.04431 2.920596,-3.71294 6.364589,-4.88165 10.430811,-3.53967 C 43.501958,334.32077 46,337.81688 46,342.03056 c 0,4.15451 -1.463678,6.64074 -4.979984,8.45909 -3.543113,1.83221 -5.759886,1.86079 -8.909945,0.11484 z M 369.38812,341.01993 C 366.44761,339.83183 363,335.18631 363,332.41219 c 0,-5.97471 6.26035,-11.31662 11.67088,-9.95866 4.1353,1.0379 7.32912,4.98893 7.32912,9.06676 0,4.89701 -1.5208,7.38154 -5.54837,9.06437 -3.82592,1.59857 -4.13695,1.61774 -7.06351,0.43527 z M 381,274.88811 c -31.0757,-34.51352 -36.79101,-41.09318 -34.45022,-39.66021 2.26883,1.38892 73.00579,51.02922 73.85215,51.82641 0.86372,0.81356 -5.32283,23.94148 -6.40193,23.93308 -0.275,-0.002 -15.125,-16.24681 -33,-36.09928 z m -36.38569,30.40131 C 344.30526,303.75524 342.22033,291.7 339.98113,278.5 c -2.2392,-13.2 -4.32429,-24.9 -4.63353,-26 -0.49757,-1.76994 -0.39393,-1.82746 0.90102,-0.5 1.78586,1.83068 28.47139,45.03615 28.92666,46.83398 0.20005,0.78999 -2.88956,2.59275 -8.04722,4.69548 -12.33008,5.02687 -11.86872,4.96198 -12.51375,1.75996 z M 9,287.5 V 283 H 4.5 C 0.71106649,283 0,282.69306 0,281.0575 c 0,-1.5704 0.81413307,-2.00141 4.25,-2.25 4.2293392,-0.30601 4.2514949,-0.32816 4.5574978,-4.5575 C 9.0560912,270.81413 9.4871028,270 11.057498,270 12.693056,270 13,270.71107 13,274.5 v 4.5 h 4.5 c 3.833333,0 4.5,0.2963 4.5,2 0,1.7037 -0.666667,2 -4.5,2 H 13 v 4.5 c 0,3.83333 -0.296296,4.5 -2,4.5 -1.7037037,0 -2,-0.66667 -2,-4.5 z m 79.691319,-7.8e-4 C 71.330076,282.72649 56.992855,269.26401 50.885491,252 c -3.447306,-9.74468 -3.320711,-25.74572 0.282574,-35.71602 6.409751,-17.73579 22.093797,-31.70536 39.700221,-35.36044 8.029548,-1.66692 23.373724,-0.70866 30.592584,1.91054 18.09669,6.566 31.20481,22.11497 35.2778,41.84686 5.48858,26.58978 -11.29865,54.00819 -38.09401,62.21852 -7.99016,2.44826 -22.194662,2.73268 -29.953341,0.59976 z m 24.509461,-3.6043 c 8.4017,-1.75207 17.33696,-6.53095 24.18002,-12.9323 C 147.75566,261.25745 153,249.01467 153,234.5 153,219.98533 147.75566,207.74255 137.3808,198.03738 110.15335,172.56743 66.858815,183.57224 54.910793,219 c -3.036641,9.00412 -3.031314,22.02599 0.01268,31 8.358716,24.64235 33.243118,39.11547 58.277307,33.89492 z M 84.903218,266.25 c -2.709605,-8.11657 -1.053567,-15.82692 4.617324,-21.49781 2.905743,-2.90575 21.228438,-12.06896 27.521268,-13.76345 4.73775,-1.27574 10.78566,-0.05 15.41946,3.12516 3.77968,2.58987 8.93745,9.8922 7.78866,11.02711 C 139.23672,246.14198 88.177106,270 87.048091,270 c -0.491143,0 -1.456335,-1.6875 -2.144873,-3.75 z m 5.55922,-37.31373 c -8.17848,-2.37839 -12.027816,-12.92434 -7.27154,-19.9217 2.900288,-4.26686 6.096591,-5.98048 11.191068,-5.99983 14.519374,-0.0551 18.155224,19.95207 4.610693,25.37152 -4.481856,1.79328 -4.296181,1.78131 -8.530221,0.55001 z m 286.714312,3.8136 c -9.52779,-5.06057 -16.82707,-9.36643 -16.22063,-9.56858 1.04476,-0.34825 38.26376,3.61848 40.68935,4.33659 1.07231,0.31747 -5.44585,14.49059 -6.64547,14.44996 -0.275,-0.009 -8.29546,-4.1574 -17.82325,-9.21797 z M 364.27451,179.46096 C 351.70336,176.07507 338.86575,166.69934 331.86693,155.79263 308.62916,119.5797 334.91023,71.639214 378,71.639214 c 35.24072,0 61.53972,32.998136 53.49443,67.121056 -4.53191,19.22146 -20.7189,35.67708 -40.04673,40.71134 -7.21589,1.8795 -20.17427,1.87442 -27.17319,-0.0106 z m 24.54925,-3.98134 c 19.00841,-4.48121 33.91587,-19.09994 38.21986,-37.47962 5.14353,-21.96483 -5.21881,-45.384875 -24.65314,-55.718808 -26.06894,-13.8618 -56.42637,-4.176006 -69.48051,22.168348 -3.9782,8.02833 -4.26645,9.18645 -4.69723,18.87246 -0.73898,16.61573 3.41933,27.57694 14.67769,38.69005 12.6624,12.49906 29.3221,17.38365 45.93333,13.46757 z M 368,150.25315 c -14.575,-6.36395 -26.69737,-11.73422 -26.93861,-11.93392 -1.33032,-1.10133 4.35866,-9.56883 8.08627,-12.03564 3.53809,-2.3414 5.25044,-2.78147 10.77931,-2.77024 5.66631,0.0115 8.09044,0.68256 17.57303,4.86451 15.55204,6.85867 20.5,12.18204 20.5,22.05539 0,3.88979 -2.19661,11.7718 -3.19897,11.47874 C 394.63546,161.86358 382.575,156.6171 368,150.25315 Z m 11.29855,-31.21267 c -8.81148,-5.37267 -8.23764,-18.99431 0.98452,-23.370515 4.28356,-2.032683 6.76179,-2.095887 11.10039,-0.283104 4.71778,1.971213 7.94987,6.920149 7.94987,12.172729 0,10.3127 -11.31578,16.79718 -20.03478,11.48089 z M 53,150.92574 v -8.07426 l 15.25,0.60886 c 8.3875,0.33488 17.725,0.86706 20.75,1.18262 l 5.5,0.57375 -19.897375,6.89165 C 63.659069,155.89876 54.321569,159 53.852625,159 53.383681,159 53,155.36658 53,150.92574 Z m 45.5,-22.47176 c -0.55,-0.21347 -19.9,-3.57863 -43,-7.47813 -23.1,-3.8995 -42.730933,-7.30169 -43.624296,-7.56042 -1.23641,-0.35808 -2.0402616,-3.22214 -3.3661745,-11.99341 C 7.5514965,95.084366 6.9959374,89.670729 7.2749538,89.391713 7.8435509,88.823116 98.960662,126.66872 100.45,128.09208 c 0.9761,0.93286 -0.008,1.11554 -1.95,0.3619 z M 75.5,86.600702 C 62.3,81.503972 48.2375,76.094448 44.25,74.579536 40.2625,73.064624 37,71.42396 37,70.933615 c 0,-1.673785 7.497672,-17.895914 8.280001,-17.914792 0.719096,-0.01735 51.37263,38.532209 54.684285,41.61714 0.805354,0.75022 1.030354,1.334221 0.500004,1.297779 C 99.933929,95.897299 88.7,91.697432 75.5,86.600702 Z"
         id="path6" />
      <path
         style="fill:#9d9da2"
         d="m 234.5,448.83623 c -20.99635,-2.36782 -42.11601,-9.60305 -46.84401,-16.04794 -5.48407,-7.47552 0.33258,-14.81342 16.15002,-20.37382 5.21558,-1.83347 6.62531,-2.74644 6.38304,-4.13382 -0.17102,-0.97936 -7.66537,-30.13065 -16.65411,-64.78065 -16.15726,-62.28343 -16.35443,-63.17195 -17.33466,-78.11768 -0.57325,-8.74046 -0.62974,-17.05415 -0.1339,-19.70824 1.17927,-6.31235 5.01938,-13.4607 9.59722,-17.86524 3.51534,-3.38226 13.29062,-8.77571 15.94773,-8.79907 0.62141,-0.005 0.91607,-1.03117 0.66841,-2.32674 -0.39568,-2.06988 0.19185,-2.50916 5.50934,-4.11917 l 5.95226,-1.8022 -2.07456,-6.38083 L 209.59222,198 202.54611,197.9866 C 171.85731,197.92835 136.56716,162.066 120.98129,115.09928 115.23533,97.784337 113.87608,90.27084 113.2839,72.550763 112.53625,50.178235 115.51661,35.859866 123.49379,23.5 131.03118,11.821547 138.52161,6.9871106 158.4934,0.91073524 170.47588,-2.734909 187.87153,3.064057 203.33044,15.857485 c 6.17105,5.107015 16.28587,15.905217 15.52771,16.576804 -0.19698,0.174491 -1.25815,0.572126 -2.35815,0.883635 -1.47722,0.418332 -2.77227,-0.39872 -4.95444,-3.125772 C 206.38513,23.743163 194.99663,14.245967 188.04059,10.590669 180.90247,6.8396918 171.60905,4 166.4714,4 c -14.23131,0 -26.90676,12.45861 -32.04827,31.5 -2.1637,8.013204 -2.98556,30.134634 -1.51077,40.664462 7.35693,52.527608 40.80159,102.829618 74.35017,111.825438 7.14783,1.91664 17.5867,0.87454 22.99629,-2.29569 12.3435,-7.23377 19.86031,-23.39897 21.1337,-45.44888 C 251.911,131.26736 252.3216,130 254.71181,130 c 1.39972,0 1.51484,1.30884 0.9455,10.75 -1.26337,20.95008 -6.41056,34.22485 -17.01838,43.89097 l -6.36032,5.79569 2.00369,6.03167 c 1.10203,3.31742 2.09051,6.14534 2.19662,6.28426 0.10611,0.13892 2.81221,-0.64858 6.01355,-1.75 3.20135,-1.10142 5.88662,-2.00259 5.96727,-2.00259 0.0806,0 1.6392,4.61806 3.46345,10.26235 l 3.31682,10.26235 3.6794,-3.67941 c 4.76883,-4.76883 8.8891,-5.53361 18.40568,-3.41637 9.64193,2.14512 20.42571,7.38176 26.28083,12.76204 7.78325,7.15206 9.18473,13.13435 4.85249,20.71314 -2.48303,4.34378 -2.49142,4.43279 -0.61292,6.5 4.67188,5.14117 5.5013,11.87467 2.1415,17.38531 l -2.00553,3.28941 2.50927,3.69273 c 2.67253,3.93298 3.31937,9.96752 1.56346,14.58592 -0.52019,1.36821 -4.90769,6.52136 -9.75,11.45143 -8.81417,8.97392 -15.46392,13.29781 -24.80419,16.12852 -5.4106,1.63975 -14.5,5.20313 -14.5,5.68452 0,0.21431 12.82772,20.06979 28.50605,44.12329 27.82139,42.68323 28.62,43.78414 33.25,45.83597 9.91838,4.39544 14.18066,10.28575 11.70439,16.17505 -3.36097,7.9934 -23.25944,15.27516 -49.67103,18.17689 -11.3813,1.25041 -40.82604,1.19584 -52.28941,-0.0969 z m 65.23472,-12.6795 C 307.44371,434.0795 323,427.21509 323,425.89065 323,425.45397 308.15,402.32818 290,374.5 c -18.15,-27.82818 -33,-51.04092 -33,-51.58388 0,-1.20337 5.4733,-3.59819 17.87227,-7.81992 12.0333,-4.09723 18.2391,-8.12845 26.19814,-17.01804 7.18288,-8.02267 8.30803,-10.22168 7.48435,-14.62747 C 306.96076,274.9246 285.46083,263 271.68238,263 c -7.51239,0 -12.66229,8.2706 -9.25395,14.86159 1.87779,3.63126 4.98789,5.36109 12.57157,6.99229 6.51752,1.40188 16,6.55663 16,8.69773 0,2.25014 -2.82976,2.91243 -4.80523,1.12466 -0.9519,-0.86147 -3.72693,-2.46002 -6.16673,-3.55235 l -4.436,-1.98606 -2.76456,4.84058 c -3.28729,5.75582 -6.76658,8.42023 -14.44536,11.06212 -11.27484,3.87911 -21.17008,1.87811 -27.03008,-5.46601 -2.38559,-2.98975 -2.88549,-3.22727 -3.89285,-1.84963 -2.0926,2.86181 -3.74106,0.4475 -3.14438,-4.60524 0.71206,-6.02983 -0.95932,-18.09452 -3.41654,-24.66204 -1.07191,-2.86493 -3.9529,-8.30242 -6.4022,-12.08331 -2.4493,-3.78088 -4.4629,-7.19107 -4.47467,-7.57819 -0.0118,-0.38712 5.2661,-4.30337 11.7286,-8.70279 6.4625,-4.39941 12.73805,-9.48268 13.94567,-11.29614 2.97645,-4.46969 5.0649,-12.43664 3.63497,-13.86657 -1.2414,-1.2414 -37.30231,7.99609 -43.44711,11.12958 -6.20155,3.16242 -10.05831,7.12984 -13.0231,13.39678 -3.25433,6.87896 -3.44726,10.02577 -1.83328,29.90184 0.9311,11.46634 2.76311,19.31205 19.58996,83.89522 11.57272,44.41725 19.13984,71.6977 20.09517,72.44563 3.85056,3.0146 27.69504,10.35349 39.80787,12.25213 9.31334,1.45983 30.7822,0.47707 39.21457,-1.79509 z m 6.87301,-169.76032 c 2.10181,-5.03033 1.01267,-8.56983 -4.08207,-13.26599 C 295.29262,246.46323 279.70546,240 270.85948,240 c -7.18767,0 -11.75492,5.41335 -10.44743,12.38285 0.92273,4.91858 2.91943,6.10214 10.49116,6.21872 8.04034,0.1238 18.55789,3.21946 26.59679,7.82831 3.3,1.89196 6.36046,3.46921 6.80103,3.50502 0.44056,0.0358 1.47858,-1.55652 2.3067,-3.53849 z M 304.60795,244.25 c 2.32917,-3.06829 1.71357,-9.71445 -1.22306,-13.20443 -7.40461,-8.79988 -28.23783,-17.14459 -37.07198,-14.84912 -7.46744,1.94034 -9.85873,11.41158 -4.28774,16.98256 2.40072,2.40072 3.56466,2.88977 5.63874,2.36921 4.09113,-1.02681 17.51709,2.35117 25.54153,6.42627 8.61446,4.37474 9.65182,4.58176 11.40251,2.27551 z M 226.25,206.44602 c 3.1625,-0.9962 5.75,-2.07294 5.75,-2.39276 0,-0.31982 -0.9,-3.04379 -2,-6.05326 -1.1,-3.00947 -2,-5.59919 -2,-5.75494 0,-0.5449 -5.53706,1.08608 -9.71155,2.86061 l -4.21155,1.79029 1.56683,5.30202 c 1.91002,6.46337 2.24864,7.05694 3.70742,6.49883 0.63187,-0.24174 3.73635,-1.2546 6.89885,-2.25079 z M 24.5,372.83303 c -10.45,-3.88705 -19.1663029,-7.21844 -19.369562,-7.40309 -0.9030263,-0.82036 3.7900336,-7.13363 6.821511,-9.17654 4.559085,-3.07237 9.174035,-2.86199 19.46638,0.88738 9.622215,3.50526 14.023881,7.36902 15.13357,13.28417 0.679135,3.6201 -0.500639,8.76055 -2.114399,9.21275 -0.515625,0.14449 -9.4875,-2.91761 -19.9375,-6.80467 z m 338.5139,-5.29647 c -1.55957,-4.10198 -1.21071,-7.70146 1.11642,-11.51888 2.85761,-4.68762 3.97261,-5.40488 14.13537,-9.09307 10.30393,-3.73942 16.22915,-3.67853 20.39159,0.20957 2.44744,2.28613 5.82799,7.74615 5.16646,8.34449 -0.17806,0.16105 -8.64874,3.33372 -18.82374,7.05039 -10.175,3.71667 -19.05625,6.96383 -19.7361,7.21591 -0.67986,0.25209 -1.69236,-0.7417 -2.25,-2.20841 z M 123.70124,362.3679 C 123.31556,361.98222 123,357.24167 123,351.83333 V 342 h -10 -10 v -2.5 -2.5 h 10 10 v -10 -10 h 2.5 c 2.49941,0 2.5,0.002 2.5,9.96502 v 9.96501 l 10.25,0.28499 c 9.48834,0.2638 10.25,0.4336 10.25,2.28498 0,1.8509 -0.76153,2.02122 -10.2154,2.2846 l -10.2154,0.2846 -0.2846,10.20367 c -0.2306,8.26753 -0.57848,10.2599 -1.83336,10.49997 -0.85182,0.16297 -1.86432,-0.0193 -2.25,-0.40494 z M 32.110071,350.60449 c -5.126695,-2.84151 -6.541988,-9.51438 -2.978748,-14.04431 2.920596,-3.71294 6.364589,-4.88165 10.430811,-3.53967 C 43.501958,334.32077 46,337.81688 46,342.03056 c 0,4.15451 -1.463678,6.64074 -4.979984,8.45909 -3.543113,1.83221 -5.759886,1.86079 -8.909945,0.11484 z M 369.38812,341.01993 C 366.44761,339.83183 363,335.18631 363,332.41219 c 0,-5.97471 6.26035,-11.31662 11.67088,-9.95866 4.1353,1.0379 7.32912,4.98893 7.32912,9.06676 0,4.89701 -1.5208,7.38154 -5.54837,9.06437 -3.82592,1.59857 -4.13695,1.61774 -7.06351,0.43527 z M 381,274.88811 c -31.0757,-34.51352 -36.79101,-41.09318 -34.45022,-39.66021 2.26883,1.38892 73.00579,51.02922 73.85215,51.82641 0.86372,0.81356 -5.32283,23.94148 -6.40193,23.93308 -0.275,-0.002 -15.125,-16.24681 -33,-36.09928 z m -36.38569,30.40131 C 344.30526,303.75524 342.22033,291.7 339.98113,278.5 c -2.2392,-13.2 -4.32429,-24.9 -4.63353,-26 -0.49757,-1.76994 -0.39393,-1.82746 0.90102,-0.5 1.78586,1.83068 28.47139,45.03615 28.92666,46.83398 0.20005,0.78999 -2.88956,2.59275 -8.04722,4.69548 -12.33008,5.02687 -11.86872,4.96198 -12.51375,1.75996 z M 9,287.5 V 283 H 4.5 C 0.71106649,283 0,282.69306 0,281.0575 c 0,-1.5704 0.81413307,-2.00141 4.25,-2.25 4.2293392,-0.30601 4.2514949,-0.32816 4.5574978,-4.5575 C 9.0560912,270.81413 9.4871028,270 11.057498,270 12.693056,270 13,270.71107 13,274.5 v 4.5 h 4.5 c 3.833333,0 4.5,0.2963 4.5,2 0,1.7037 -0.666667,2 -4.5,2 H 13 v 4.5 c 0,3.83333 -0.296296,4.5 -2,4.5 -1.7037037,0 -2,-0.66667 -2,-4.5 z m 79.691319,-7.8e-4 C 71.330076,282.72649 56.992855,269.26401 50.885491,252 c -3.447306,-9.74468 -3.320711,-25.74572 0.282574,-35.71602 6.409751,-17.73579 22.093797,-31.70536 39.700221,-35.36044 8.029548,-1.66692 23.373724,-0.70866 30.592584,1.91054 18.09669,6.566 31.20481,22.11497 35.2778,41.84686 5.48858,26.58978 -11.29865,54.00819 -38.09401,62.21852 -7.99016,2.44826 -22.194662,2.73268 -29.953341,0.59976 z m 24.509461,-3.6043 c 8.4017,-1.75207 17.33696,-6.53095 24.18002,-12.9323 C 147.75566,261.25745 153,249.01467 153,234.5 153,219.98533 147.75566,207.74255 137.3808,198.03738 110.15335,172.56743 66.858815,183.57224 54.910793,219 c -3.036641,9.00412 -3.031314,22.02599 0.01268,31 8.358716,24.64235 33.243118,39.11547 58.277307,33.89492 z M 84.903218,266.25 c -2.709605,-8.11657 -1.053567,-15.82692 4.617324,-21.49781 2.905743,-2.90575 21.228438,-12.06896 27.521268,-13.76345 4.73775,-1.27574 10.78566,-0.05 15.41946,3.12516 3.77968,2.58987 8.93745,9.8922 7.78866,11.02711 C 139.23672,246.14198 88.177106,270 87.048091,270 c -0.491143,0 -1.456335,-1.6875 -2.144873,-3.75 z m 5.55922,-37.31373 c -8.17848,-2.37839 -12.027816,-12.92434 -7.27154,-19.9217 2.900288,-4.26686 6.096591,-5.98048 11.191068,-5.99983 14.519374,-0.0551 18.155224,19.95207 4.610693,25.37152 -4.481856,1.79328 -4.296181,1.78131 -8.530221,0.55001 z m 286.714312,3.8136 c -9.52779,-5.06057 -16.82707,-9.36643 -16.22063,-9.56858 1.04476,-0.34825 38.26376,3.61848 40.68935,4.33659 1.07231,0.31747 -5.44585,14.49059 -6.64547,14.44996 -0.275,-0.009 -8.29546,-4.1574 -17.82325,-9.21797 z M 364.27451,179.46096 C 351.70336,176.07507 338.86575,166.69934 331.86693,155.79263 308.62916,119.5797 334.91023,71.639214 378,71.639214 c 35.24072,0 61.53972,32.998136 53.49443,67.121056 -4.53191,19.22146 -20.7189,35.67708 -40.04673,40.71134 -7.21589,1.8795 -20.17427,1.87442 -27.17319,-0.0106 z m 24.54925,-3.98134 c 19.00841,-4.48121 33.91587,-19.09994 38.21986,-37.47962 5.14353,-21.96483 -5.21881,-45.384875 -24.65314,-55.718808 -26.06894,-13.8618 -56.42637,-4.176006 -69.48051,22.168348 -3.9782,8.02833 -4.26645,9.18645 -4.69723,18.87246 -0.73898,16.61573 3.41933,27.57694 14.67769,38.69005 12.6624,12.49906 29.3221,17.38365 45.93333,13.46757 z M 368,150.25315 c -14.575,-6.36395 -26.69737,-11.73422 -26.93861,-11.93392 -1.33032,-1.10133 4.35866,-9.56883 8.08627,-12.03564 3.53809,-2.3414 5.25044,-2.78147 10.77931,-2.77024 5.66631,0.0115 8.09044,0.68256 17.57303,4.86451 15.55204,6.85867 20.5,12.18204 20.5,22.05539 0,3.88979 -2.19661,11.7718 -3.19897,11.47874 C 394.63546,161.86358 382.575,156.6171 368,150.25315 Z m 11.29855,-31.21267 c -8.81148,-5.37267 -8.23764,-18.99431 0.98452,-23.370515 4.28356,-2.032683 6.76179,-2.095887 11.10039,-0.283104 4.71778,1.971213 7.94987,6.920149 7.94987,12.172729 0,10.3127 -11.31578,16.79718 -20.03478,11.48089 z M 209,177.65134 C 190.92922,173.62796 170.29484,153.30641 157.06123,126.5 145.85831,103.80703 140.7539,83.719551 140.67118,62 c -0.0785,-20.623065 3.88827,-32.730356 13.68127,-41.757229 12.65805,-11.6677867 30.80851,-8.455696 49.89646,8.830191 l 6.22029,5.633044 -3.20774,1.658787 c -2.56316,1.325462 -3.09879,1.374871 -2.66556,0.245883 0.68772,-1.792171 -11.03025,-11.332498 -18.57641,-15.124204 -7.17395,-3.604678 -16.25702,-4.431281 -22.49886,-2.047501 -8.54841,3.264668 -14.71182,12.878591 -17.56998,27.406337 -1.54967,7.87684 -0.68931,29.735248 1.57756,40.079572 11.61632,53.00836 51.2776,96.88559 77.0105,85.19665 8.75093,-3.97503 15.83148,-16.24326 17.15355,-29.72138 0.6076,-6.19434 1.63964,-8.40015 3.93018,-8.40015 1.79692,0 1.76118,4.52556 -0.10532,13.33479 -2.95954,13.96807 -9.33366,24.00351 -17.80921,28.03888 -6.67666,3.1789 -11.83782,3.80726 -18.70791,2.27767 z M 53,150.92574 v -8.07426 l 15.25,0.60886 c 8.3875,0.33488 17.725,0.86706 20.75,1.18262 l 5.5,0.57375 -19.897375,6.89165 C 63.659069,155.89876 54.321569,159 53.852625,159 53.383681,159 53,155.36658 53,150.92574 Z m 45.5,-22.47176 c -0.55,-0.21347 -19.9,-3.57863 -43,-7.47813 -23.1,-3.8995 -42.730933,-7.30169 -43.624296,-7.56042 -1.23641,-0.35808 -2.0402616,-3.22214 -3.3661745,-11.99341 C 7.5514965,95.084366 6.9959374,89.670729 7.2749538,89.391713 7.8435509,88.823116 98.960662,126.66872 100.45,128.09208 c 0.9761,0.93286 -0.008,1.11554 -1.95,0.3619 z M 204.63029,113.75 c -1.93528,-7.22145 0.85312,-15.530008 6.8789,-20.496965 2.96775,-2.446267 6.44463,-3.758873 16.37915,-6.183519 6.93641,-1.69292 14.15708,-3.076119 16.04594,-3.073776 7.69165,0.0095 16.38542,7.054027 18.10277,14.668515 0.67711,3.002215 0.4942,3.574045 -1.37816,4.308495 C 257.67766,104.14217 208.59656,116 206.73743,116 c -0.82729,0 -1.77551,-1.0125 -2.10714,-2.25 z M 75.5,86.600702 C 62.3,81.503972 48.2375,76.094448 44.25,74.579536 40.2625,73.064624 37,71.42396 37,70.933615 c 0,-1.673785 7.497672,-17.895914 8.280001,-17.914792 0.719096,-0.01735 51.37263,38.532209 54.684285,41.61714 0.805354,0.75022 1.030354,1.334221 0.500004,1.297779 C 99.933929,95.897299 88.7,91.697432 75.5,86.600702 Z M 216.18982,75.974365 c -5.51948,-3.365139 -7.69048,-11.17172 -4.7098,-16.935729 C 213.8734,54.410345 217.71033,52 222.68452,52 c 7.99701,0 13.48832,4.78584 13.6738,11.917139 0.28788,11.067776 -10.86017,17.732356 -20.1685,12.057226 z"
         id="path5" />
      <path
         style="fill:#0d0d1a"
         d="m 246,449.3677 c -11.96648,-0.88818 -28.46365,-3.5669 -36.74264,-5.96605 -23.86874,-6.91689 -29.88855,-17.30804 -15.10087,-26.06651 2.93893,-1.74068 7.93101,-3.96036 11.09351,-4.93263 3.1625,-0.97226 5.75,-2.2524 5.75,-2.84474 0,-0.59234 -7.42343,-29.54212 -16.4965,-64.33284 -15.92293,-61.0565 -16.53494,-63.76817 -17.60219,-77.99039 -1.33959,-17.85145 -0.87187,-23.38571 2.54652,-30.13159 4.26193,-8.41052 11.56865,-14.25728 21.91562,-17.53665 1.2522,-0.39687 1.69683,-1.2278 1.35548,-2.53312 -0.41967,-1.60481 0.38638,-2.23253 4.63654,-3.61077 2.82949,-0.91754 5.53203,-2.02294 6.00564,-2.45644 0.47361,-0.43351 -0.0901,-3.64069 -1.25267,-7.12708 L 209.99466,197.5 202.24733,197.38577 C 166.51197,196.85886 127.83754,151.01256 115.87807,95 c -1.83053,-8.573361 -2.23796,-13.619321 -2.22045,-27.5 0.0241,-19.088571 1.52477,-26.935188 7.39073,-38.643526 7.7814,-15.53151 16.09997,-21.3805618 39.253,-27.600041 14.61134,-3.9249685 35.07151,5.4840951 52.27728,24.040859 5.59357,6.032782 6.35422,7.251778 4.68299,7.504811 -1.37277,0.207844 -3.98693,-1.777837 -8.37847,-6.364184 -21.97626,-22.9510739 -46.22979,-28.8217249 -61.6807,-14.930027 -22.03441,19.810823 -20.9974,72.9752 2.33168,119.539308 13.27515,26.49677 34.38639,48.74205 53.1622,56.01795 8.83117,3.4222 19.08918,3.27677 26.52792,-0.3761 13.13193,-6.44857 21.10731,-22.56233 22.46481,-45.38879 0.45845,-7.70876 0.97056,-10.3394 2.09692,-10.77163 1.28717,-0.49393 1.41482,1.03286 0.93633,11.19974 -0.62435,13.26648 -2.35606,20.87537 -6.85503,30.12002 -3.04224,6.25131 -8.97631,13.23697 -13.85745,16.31315 l -2.49017,1.56935 2.27313,7.05785 2.27314,7.05785 6.023,-2.034 c 3.31265,-1.1187 6.16147,-1.87168 6.33071,-1.67329 0.16925,0.19838 1.78139,4.82388 3.58254,10.27889 l 3.27481,9.91818 2.6115,-3.06732 c 1.43633,-1.68702 3.59443,-3.5627 4.79577,-4.16818 9.83343,-4.95606 40.12469,6.89385 45.83126,17.92913 2.27392,4.39728 1.89155,11.09106 -0.86565,15.15402 l -2.35014,3.46312 2.31589,2.69237 c 4.66036,5.41801 5.03733,14.07153 0.81617,18.73586 -1.51619,1.67537 -1.44585,2.03964 1.0175,5.26925 6.0021,7.86917 3.98995,14.98156 -7.54105,26.65538 -8.54705,8.65292 -14.28676,12.02431 -28.90824,16.98014 -5.775,1.95739 -10.44239,4.00011 -10.37197,4.53937 0.0704,0.53927 12.89541,20.61406 28.5,44.61065 l 28.37197,43.63016 5.64409,2.6172 C 331.53772,418.34229 337,423.90806 337,427.45807 c 0,8.44361 -19.8396,17.32316 -45.70694,20.45694 -10.20466,1.23628 -36.74166,2.0874 -45.29306,1.45269 z m 53.71697,-12.9247 c 9.23615,-2.31585 23.93085,-9.14182 23.6145,-10.96939 -0.0927,-0.53548 -14.8302,-23.45704 -32.75,-50.9368 C 272.66166,347.05706 258,324.0006 258,323.30023 c 0,-1.45181 3.73352,-3.14404 16.37044,-7.41995 11.98194,-4.05428 20.32301,-9.54036 28.15006,-18.51482 5.89602,-6.76035 6.4795,-7.83145 6.4795,-11.89453 0,-3.72438 -0.59891,-5.12809 -3.61003,-8.46103 -7.38033,-8.16915 -30.58168,-16.82999 -37.45675,-13.98224 -6.31732,2.61672 -8.72769,9.60153 -5.48038,15.88115 1.55111,2.99952 3.09008,3.76507 14.04716,6.98775 8.09597,2.38118 13.5,5.41894 13.5,7.58874 0,2.1204 -0.93116,1.92772 -7.09023,-1.46718 -6.95968,-3.83621 -8.23337,-3.77759 -9.76182,0.44927 -1.90489,5.26789 -8.06606,9.92062 -16.41297,12.39456 -3.97924,1.17941 -8.58498,2.13308 -10.23498,2.11926 -4.72141,-0.0395 -10.7823,-3.32481 -14.80581,-8.02537 C 229.14759,295.98071 228,295.18467 228,296.39333 c 0,1.04493 -0.61513,1.62269 -1.5225,1.42999 -1.21953,-0.25898 -1.58875,-2.41271 -1.85545,-10.82332 -0.39588,-12.4844 -2.10197,-18.15159 -8.83898,-29.36093 C 213.15238,253.26201 211,249.31421 211,248.86618 c 0,-0.44803 4.1625,-3.58602 9.25,-6.97332 14.16602,-9.43185 17.72425,-13.37243 19.5956,-21.70118 1.71377,-7.62746 0.98038,-7.6808 -21.35112,-1.55273 -24.20051,6.64095 -27.92456,8.44807 -33.79663,16.40005 -4.75391,6.43775 -5.74204,13.01347 -4.5439,30.23852 1.10644,15.90691 2.23062,20.55849 37.90357,156.83541 0.90301,3.44967 1.40885,3.79568 11.19412,7.65723 25.37684,10.01442 48.43126,12.1976 70.46533,6.67284 z m 6.75735,-168.39334 c 4.18212,-8.08733 -0.57101,-15.55033 -14.32021,-22.48444 -6.95381,-3.50702 -19.80881,-6.80624 -23.74418,-6.09392 -5.95997,1.07878 -9.99389,7.82989 -8.31396,13.91411 1.35365,4.90252 3.87135,6.42023 9.71837,5.85841 2.73608,-0.26291 7.55726,0.24679 11.23863,1.18815 7.23008,1.84881 19.35847,7.15393 21.07015,9.21638 1.67957,2.02376 2.66523,1.66162 4.3512,-1.59869 z m -2.04456,-22.97204 c 4.46256,-4.93107 2.44033,-13.02467 -4.59462,-18.38917 -7.35497,-5.60852 -23.45306,-11.69614 -30.89903,-11.68471 -6.9566,0.0107 -12.19521,7.65111 -9.93713,14.49316 1.53978,4.6656 4.44108,6.5031 10.26801,6.5031 7.03132,0 16.67566,2.70442 24.9657,7.00076 3.99702,2.07146 7.53507,3.81871 7.86232,3.88277 0.32726,0.0641 1.37789,-0.7486 2.33475,-1.80591 z m -73.87878,-46.88894 c -2.56051,-7.52405 -2.51339,-7.50759 -11.30098,-3.94754 -2.8875,1.16979 -5.25,2.6625 -5.25,3.31715 0,0.99407 1.21366,4.89548 3.46552,11.1402 0.31175,0.86453 2.5122,0.49914 7.89694,-1.31132 l 7.46476,-2.50981 z M 25.5,372.69145 C 15.05,368.83443 6.2807216,365.4942 6.0127147,365.26872 c -0.2680069,-0.22547 0.4681107,-2.06568 1.6358171,-4.08934 1.4745204,-2.55537 3.5375592,-4.27254 6.7532602,-5.62107 l 4.630157,-1.94169 7.234026,2.31763 c 15.812808,5.06609 19.737102,8.46305 19.714974,17.06575 -0.0064,2.475 -0.342184,4.99595 -0.746262,5.60211 -0.49818,0.74732 -6.851073,-1.15541 -19.734687,-5.91066 z m 338.16667,-4.35812 c -1.44182,-1.44182 -0.60591,-9.92072 1.28356,-13.01951 2.32296,-3.80974 3.74807,-4.6272 14.65532,-8.4065 9.90202,-3.43098 11.2826,-3.51519 16.23226,-0.99006 3.32557,1.69658 8.36119,8.33876 7.11833,9.38937 C 402.29683,355.86396 365.9564,369 365.07388,369 c -0.4073,0 -1.04055,-0.3 -1.40721,-0.66667 z M 124,351.5 V 341 h -10.5 c -8.66667,0 -10.5,-0.2619 -10.5,-1.5 0,-1.2381 1.83333,-1.5 10.5,-1.5 H 124 v -10.5 c 0,-8.55523 0.27134,-10.5 1.46502,-10.5 1.17286,0 1.52184,2.04402 1.75,10.25 l 0.28498,10.25 10.25,0.28498 c 8.0887,0.2249 10.25,0.58652 10.25,1.71502 0,1.1285 -2.1613,1.49012 -10.25,1.71502 L 127.5,341.5 l -0.28498,10.25 c -0.22816,8.20598 -0.57714,10.25 -1.75,10.25 C 124.27134,362 124,360.05523 124,351.5 Z m -92.343698,-1.63253 c -1.014033,-0.58945 -2.482572,-2.60077 -3.26342,-4.4696 -3.746989,-8.9678 6.850953,-16.39302 14.278627,-10.004 3.966351,3.41171 3.966351,9.80055 0,13.21226 -2.976878,2.56061 -7.825007,3.11576 -11.015207,1.26134 z m 335.999998,-10 c -1.01403,-0.58945 -2.48257,-2.60077 -3.26342,-4.4696 -3.74699,-8.9678 6.85095,-16.39302 14.27863,-10.004 6.07574,5.22613 2.07461,15.65237 -5.97727,15.57572 -1.75683,-0.0167 -4.0239,-0.51268 -5.03794,-1.10212 z m 16.25737,-62.57886 C 367.73615,259.25738 352.7,242.49541 350.5,240.03977 l -4,-4.4648 5,3.55794 c 2.75,1.95686 18.05,12.68761 34,23.84611 15.95,11.1585 30.41824,21.3422 32.15164,22.63045 l 3.15165,2.34227 -3.02371,10.27413 c -1.66304,5.65077 -3.34513,10.62798 -3.73797,11.06046 -0.39285,0.43248 -13.95042,-13.96649 -30.12794,-31.99772 z M 340.79028,280.25 c -2.51984,-14.7125 -4.46471,-26.87629 -4.32192,-27.03065 C 336.76297,252.90086 365,298.48111 365,299.27515 365,299.82789 347.52571,307 346.17901,307 c -0.44396,0 -2.86888,-12.0375 -5.38873,-26.75 z M 8.8074978,286.75 C 8.5014949,282.52066 8.4793392,282.49851 4.25,282.1925 1.3562928,281.98314 0,281.42466 0,280.4425 0,279.39954 1.2463862,279 4.5,279 H 9 v -4.5 c 0,-3.83333 0.2962963,-4.5 2,-4.5 1.703704,0 2,0.66667 2,4.5 v 4.5 h 4 c 3.165525,0 4,0.3706 4,1.77643 0,1.4694 -0.691318,1.71049 -4,1.39496 l -4,-0.38146 v 4.60503 C 13,290.2879 12.69962,291 11.057498,291 9.4871028,291 9.0560912,290.18587 8.8074978,286.75 Z M 89.1906,286.97502 C 79.043982,284.31689 72.601066,280.61283 64.884522,273.00135 44.035866,252.43655 43.187424,219.36849 62.95354,197.74121 83.697392,175.04413 119.27689,174.24724 141,195.99317 c 10.81469,10.82606 16.01119,23.38854 15.98813,38.65117 -0.0226,14.93345 -5.3723,27.82528 -15.89499,38.30383 -13.77756,13.71977 -33.1204,18.94724 -51.90254,14.02685 z m 28.92944,-4.03611 c 12.25245,-3.54899 23.3078,-12.75966 29.692,-24.73764 17.8535,-33.49659 -6.32727,-74.10681 -44.31324,-74.42155 -14.505547,-0.12019 -26.20739,4.71351 -36.581349,15.11071 -22.910121,22.96144 -18.871682,60.59127 8.395691,78.23031 12.922296,8.35932 27.291388,10.31233 42.806898,5.81817 z M 85.834836,267.20608 c -2.25681,-5.6429 -2.202523,-11.81509 0.1466,-16.66773 2.775328,-5.73306 5.83763,-8.0067 18.928884,-14.05392 12.41298,-5.73391 17.85556,-6.56627 24.29876,-3.71614 4.5329,2.00512 9.3201,7.11237 9.95136,10.61668 0.3266,1.81305 -11.46124,7.88001 -45.95189,23.65049 l -6.291449,2.8767 z m 2.463753,-39.83022 c -8.177048,-4.03206 -9.209956,-14.589 -2.070863,-21.16546 5.320086,-4.90081 14.867294,-3.38346 18.746644,2.97942 6.81404,11.17637 -4.92609,23.97976 -16.675781,18.18604 z m 288.896891,4.97231 c -8.96749,-4.71485 -16.16749,-8.69074 -16,-8.83531 0.16748,-0.14458 8.85452,0.78196 19.30452,2.05895 10.45,1.277 19.5583,2.34575 20.24066,2.375 0.79868,0.0342 0.0988,2.36879 -1.96463,6.55319 -1.76291,3.575 -3.67121,6.48214 -4.24066,6.46031 -0.56945,-0.0218 -8.37241,-3.89729 -17.33989,-8.61214 z M 367,179.50215 c -20.39812,-4.59209 -36.23649,-19.67633 -41.52466,-39.54749 -1.88075,-7.06724 -1.87422,-20.00306 0.0137,-27.25147 4.93877,-18.961212 20.91285,-34.757595 39.60398,-39.163407 12.85914,-3.031115 26.96482,-1.291186 38.23625,4.716429 32.30235,17.21697 38.91248,60.501678 13.17053,86.243638 -13.03348,13.03353 -32.303,18.87369 -49.4998,15.0023 z m 23.86858,-3.95479 c 26.14432,-6.95856 42.52326,-33.3887 37.02634,-59.74814 C 422.56459,90.238654 396.57861,71.996818 371,75.859689 c -20.5448,3.102667 -37.24728,18.283924 -42.46834,38.600411 -6.66584,25.93855 9.9245,53.7396 36.46834,61.11133 6.17435,1.71473 19.38182,1.70245 25.86858,-0.0241 z M 371,150.95184 c -12.375,-5.42859 -24.19864,-10.56435 -26.27475,-11.4128 l -3.77474,-1.54265 1.64172,-3.24819 c 3.85911,-7.63539 9.25713,-11.06664 17.40777,-11.06527 4.36483,7.3e-4 7.77035,0.98779 16.5,4.78237 6.05,2.62979 12.24769,5.66382 13.77264,6.74229 3.16999,2.24185 6.27379,7.79102 7.18115,12.83892 0.662,3.68286 -1.34598,12.14353 -2.97576,12.53848 C 393.94011,160.71534 383.375,156.38042 371,150.95184 Z m 11.33291,-31.04914 c -1.74189,-0.5043 -4.31149,-2.27696 -5.71021,-3.93924 -7.37276,-8.76204 -1.47547,-20.949539 10.14199,-20.959722 3.4204,-0.003 4.96688,0.639781 7.8117,3.246863 6.8552,6.282319 5.30107,17.083859 -3.00053,20.854289 -4.54873,2.06595 -4.79061,2.08683 -9.24295,0.79781 z M 205.36814,176.22217 C 182.63811,168.09524 160.2228,139.92655 148.57488,104.8517 143.62905,89.958553 141.97859,81.228983 141.31686,66.462825 140.20714,41.700074 146.24269,24.643955 158.70784,17.316863 162.95411,14.820879 164.47417,14.5 172.05186,14.5 c 7.8516,0 9.16711,0.30407 16.06545,3.713417 C 195.07672,21.652942 209,32.904262 209,35.088592 c 0,2.291304 -3.69749,0.448021 -9.33519,-4.653804 -3.38237,-3.060866 -9.50269,-7.222319 -13.60071,-9.247673 -6.31767,-3.122358 -8.45945,-3.682815 -14.08142,-3.684788 -5.63287,-0.002 -7.37162,0.453425 -11.55657,3.026814 -29.55725,18.175209 -16.16387,97.700839 23.06037,136.925079 27.49274,27.49274 53.34917,21.14967 58.7503,-14.41258 1.02961,-6.7792 1.978,-8.97963 3.89038,-9.02633 0.85953,-0.021 -0.0315,8.16726 -1.71324,15.74362 -2.5577,11.52285 -8.22198,20.28616 -16.09414,24.89956 -5.979,3.50392 -15.67707,4.16465 -22.95164,1.56368 z M 53.363914,155.21449 C 53.701655,153.17152 53.982804,149.7 53.988688,147.5 l 0.0107,-4 16.250306,0.72442 c 8.937668,0.39844 17.600306,0.84882 19.250306,1.00086 2.138078,0.197 -2.710254,2.2053 -16.875081,6.99007 l -19.87508,6.71364 z m 1.181814,-34.85253 C 30.920879,116.27152 11.388429,112.72176 11.140285,112.47362 10.718489,112.05182 7.0449017,89.634525 7.356829,89.385871 7.4678597,89.297362 94.187676,125.46072 98.5,127.39383 c 1.94699,0.87279 -1.301659,0.35306 -43.954272,-7.03187 z m 149.925422,-8.70579 c -0.80798,-5.38796 0.61113,-10.7642 4.02154,-15.235478 3.50647,-4.597209 6.07962,-5.777394 20.60448,-9.450289 16.10185,-4.07167 21.4077,-3.352322 28.23191,3.827581 2.95724,3.111381 6.0021,10.240536 4.84336,11.340136 C 261.50665,102.76993 207.99371,116 206.10395,116 c -0.53977,0 -1.27453,-1.95472 -1.6328,-4.34383 z M 68.5,83.397309 C 52,77.064443 38.202697,71.57183 37.839326,71.191503 c -0.363371,-0.380327 1.211629,-4.617302 3.5,-9.415501 L 45.5,53.052003 71.5,73.094509 C 96.863142,92.646083 99.877735,95.046918 98.95,94.955806 98.7025,94.931499 85,89.730175 68.5,83.397309 Z m 150,-6.356795 c -1.1,-0.457992 -3.25439,-2.159224 -4.78754,-3.780515 -7.6322,-8.070993 -1.66167,-21.245282 9.63325,-21.256261 C 230.89209,51.996403 236,57.351101 236,65.269433 c 0,8.898073 -9.32906,15.173107 -17.5,11.771081 z"
         id="path4" />
    </g>
  </g>
</svg>
