<?xml version="1.0" encoding="UTF-8" standalone="no"?>
<!-- Created with Inkscape (http://www.inkscape.org/) -->

<svg
   version="1.1"
   id="svg1"
   width="552"
   height="450"
   viewBox="0 0 552 450"
   sodipodi:docname="HR_10.svg"
   inkscape:version="1.3.2 (091e20e, 2023-11-25, custom)"
   xmlns:inkscape="http://www.inkscape.org/namespaces/inkscape"
   xmlns:sodipodi="http://sodipodi.sourceforge.net/DTD/sodipodi-0.dtd"
   xmlns="http://www.w3.org/2000/svg"
   xmlns:svg="http://www.w3.org/2000/svg">
  <defs
     id="defs1" />
  <sodipodi:namedview
     id="namedview1"
     pagecolor="#ffffff"
     bordercolor="#000000"
     borderopacity="0.25"
     inkscape:showpageshadow="2"
     inkscape:pageopacity="0.0"
     inkscape:pagecheckerboard="0"
     inkscape:deskcolor="#d1d1d1"
     showgrid="false"
     inkscape:zoom="1.7488889"
     inkscape:cx="275.88945"
     inkscape:cy="225"
     inkscape:window-width="1920"
     inkscape:window-height="1001"
     inkscape:window-x="-9"
     inkscape:window-y="-9"
     inkscape:window-maximized="1"
     inkscape:current-layer="g1" />
  <g
     inkscape:groupmode="layer"
     inkscape:label="Image"
     id="g1">
    <g
       id="g2">
      <path
         style="fill:#fefefe"
         d="M 0,225 V 0 H 276 552 V 225 450 H 276 0 Z"
         id="path4" />
      <path
         style="fill:#cecbc8"
         d="m 308.46633,447.75 c 0.27745,-1.2375 3.04819,-19.32853 6.15721,-40.20229 l 5.65277,-37.95229 -2.38816,-1.53394 C 309.09767,362.41526 298,347.78373 298,341.84028 298,340.82812 297.57216,340 297.04924,340 c -0.52292,0 -18.18542,12.91013 -39.25,28.68917 -21.06458,15.77905 -40.07825,29.70453 -42.25259,30.94553 -2.17434,1.24099 -6.90595,2.78401 -10.51469,3.42892 -15.20762,2.71776 -30.86998,-5.96115 -37.93005,-21.01799 -2.14076,-4.56554 -2.59257,-6.95949 -2.55645,-13.54563 0.0402,-7.33594 0.84947,-10.48357 9.7492,-37.91993 C 179.6326,314.12411 184,300.28661 184,299.83007 184,299.37353 146.18207,299 99.960162,299 16.754873,299 15.879744,298.9793 11.833863,296.91524 9.5863098,295.76863 6.6402382,293.63584 5.2870373,292.17571 -0.27826086,286.17065 -0.00179815,293.65567 0.021962,149.62788 0.04298695,22.180149 0.12294045,16.329333 1.8958635,12.5 4.1652207,7.5984204 8.287708,3.6124992 13.217881,1.5530479 16.53832,0.16602127 38.666679,0.00234774 220.21788,0.021962 415.95053,0.04310838 423.64855,0.11270115 427.5,1.8958635 c 2.2,1.0185667 5.21363,3.1461838 6.69695,4.728038 C 440.12832,12.949262 440,11.380409 440,77.573537 c 0,52.510083 0.21564,61.461343 1.6088,66.782123 1.54247,5.891 1.48425,17.03177 -0.13662,26.14434 -0.49924,2.80675 -0.13966,3.22343 5.58221,6.46862 12.62622,7.16102 24.84453,24.19334 27.85552,38.8306 1.74973,8.5059 1.34634,21.81626 -0.90767,29.95015 l -1.99777,7.20917 36.12862,45.27073 c 27.36945,34.29512 37.00605,47.08906 39.74776,52.77073 3.61282,7.48689 3.61915,7.52374 3.61915,21.07539 v 13.57539 l -4.23439,8.54535 c -6.02885,12.16672 -12.68862,18.109 -31.52962,28.13272 -8.09348,4.30587 -14.97161,8.24337 -15.28472,8.75 -2.14146,3.46496 -9.00665,-2.68169 -13.18236,-11.80265 l -2.43331,-5.31506 -6.1678,0.5441 c -3.39229,0.29925 -11.51653,0.96922 -18.05386,1.48882 -6.53733,0.5196 -12.13116,1.18983 -12.43074,1.48941 -0.66577,0.66577 2.46234,17.69286 4.82553,26.26653 l 1.72271,6.25 H 381.34667 307.9619 Z m 107.8785,-29.18039 c 7.35148,-5.03302 3.04182,-4.33672 47.15517,-7.61868 14.85,-1.10482 27.53892,-2.19757 28.19759,-2.42835 2.39962,-0.84073 3.53251,-8.37614 2.31786,-15.41716 -1.43554,-8.32141 -7.94798,-28.1423 -9.43391,-28.7125 -0.61391,-0.23558 -14.72253,4.52964 -31.35251,10.58938 C 436.59906,381.04203 422.35671,386 421.57936,386 c -0.77734,0 -4.39201,-3.8146 -8.03259,-8.47689 -9.00672,-11.53441 -16.14649,-16.2413 -27.93289,-18.41474 l -4.88612,-0.90102 -13.61388,7.98373 c -19.34468,11.3445 -18.45185,10.69676 -17.05836,12.37582 3.08875,3.72171 9.67468,0.78764 22.42382,-9.98993 4.93864,-4.17491 9.43864,-7.43785 10,-7.25099 2.90188,0.96597 1.0982,3.96425 -5.89605,9.80107 -5.09125,4.24873 -7.13576,6.53836 -6.308,7.06425 2.14958,1.36566 3.63465,0.89654 10.112,-3.19428 l 6.33826,-4.00297 4.76712,1.75297 c 4.90271,1.80284 5.44069,2.52375 7.43516,9.96346 0.62083,2.31576 2.69104,6.25716 4.60047,8.75865 3.7064,4.85566 4.10082,6.02402 2.39044,7.08109 -2.5962,1.60454 -10.72541,-9.66581 -12.32966,-17.09387 -0.45462,-2.10499 -1.5263,-3.37164 -3.475,-4.10719 -2.46101,-0.92893 -3.5124,-0.63226 -8.30654,2.3438 -3.01889,1.87403 -6.44474,3.47934 -7.61301,3.56734 -2.40077,0.18084 -2.5772,-0.11538 5.03268,8.44988 5.19585,5.84816 4.36633,7.56942 -3.23352,6.7096 -11.94566,-1.3515 -17.03802,-1.07144 -18.57142,1.02135 -0.78225,1.06762 -1.42227,2.20268 -1.42227,2.52235 0,0.70969 37.74445,18.83688 41.68492,20.01964 1.54829,0.46474 4.92414,0.88365 7.50187,0.93093 3.97717,0.0729 5.6666,-0.58485 11.15804,-4.34444 z m -72.64452,-42.99278 c 0.43983,-0.78274 7.2771,-5.24342 15.19394,-9.91262 l 14.39424,-8.48946 -4.39424,-0.87673 c -3.69214,-0.73664 -4.88135,-0.55088 -7.44282,1.16263 -1.67672,1.12164 -8.53759,5.41435 -15.2464,9.53935 -10.6508,6.54879 -11.98379,7.65853 -10.51029,8.75 2.2769,1.68657 7.0182,1.58401 8.00557,-0.17317 z m 129.2462,-12.69058 c 2.99558,-1.05256 6.45774,-2.57633 7.69369,-3.38615 1.23595,-0.80983 6.64121,-3.2222 12.01168,-5.36084 5.37048,-2.13863 9.93332,-4.39486 10.13965,-5.01384 0.63633,-1.90901 -2.46557,-1.26853 -11.50033,2.37458 -4.77392,1.925 -9.18481,3.5 -9.80199,3.5 -0.61718,0 -7.38558,-7.92872 -15.04089,-17.61938 l -13.91876,-17.61937 -1.19852,5.86937 c -1.44241,7.06371 -4.99152,32.42578 -5.74903,41.08274 l -0.54369,6.21337 11.23084,-4.06337 c 6.17696,-2.23486 13.68177,-4.92456 16.67735,-5.97711 z m -127.83398,-0.72411 6.03624,-3.83786 -13.29121,-1.11199 c -7.31016,-0.61159 -13.51914,-0.88404 -13.79774,-0.60544 -1.36857,1.36857 2.90788,6.01465 6.96839,7.57071 6.32894,2.42537 7.32368,2.28302 14.08432,-2.01542 z M 244.93149,322.25 c 3.99531,-18.0125 7.4571,-33.06384 7.69288,-33.44743 0.7918,-1.28819 32.79933,-28.20913 39.87563,-33.53865 9.26811,-6.98028 18.86733,-11.61029 34.83593,-16.80246 11.5815,-3.76571 13.44473,-4.68188 15.49868,-7.62087 1.95457,-2.79678 2.23358,-4.11582 1.71394,-8.10277 -0.89162,-6.84111 -1.15396,-7.21747 -5.91906,-8.49194 -5.59853,-1.49738 -13.97768,-9.02609 -17.26444,-15.51219 -5.04169,-9.9493 -6.58389,-26.7904 -3.50687,-38.29578 0.56625,-2.1173 0.29028,-3.76683 -0.99448,-5.94435 -2.16635,-3.67168 -1.03485,-6.68825 1.83708,-4.89766 1.49791,0.93391 2.00805,0.53677 3.45134,-2.68694 0.93149,-2.08055 1.46092,-4.67268 1.17651,-5.76027 -0.3471,-1.32731 0.16526,-2.34264 1.55836,-3.08821 1.14152,-0.61092 2.69687,-2.29672 3.45634,-3.74623 1.25677,-2.39863 1.12366,-3.12443 -1.48123,-8.07641 -3.19336,-6.07068 -3.72658,-12.2371 -1.51497,-17.51996 1.76323,-4.21181 8.42418,-10.157272 13.11347,-11.704877 5.95855,-1.966497 16.33382,-0.922423 22.47009,2.261187 l 5.25662,2.72723 5.65634,-1.67367 c 7.20741,-2.132617 20.18912,-2.126753 25.9356,0.0117 2.35359,0.87586 6.62859,3.10015 9.5,4.94288 2.87141,1.84273 7.20559,4.61231 9.63151,6.15461 4.76621,3.03018 14.55611,12.35743 17.66547,16.83064 1.90852,2.74566 1.92164,2.38697 1.65484,-45.249995 L 435.96213,35 H 219.96958 3.9770179 l 0.261491,124.92685 c 0.2604146,124.41253 0.2699793,124.93821 2.3232797,127.68821 1.1339838,1.51875 3.304325,3.68917 4.8229804,4.82315 2.731916,2.03993 3.671661,2.06461 88.633291,2.32814 l 85.8721,0.26635 3.33858,-10.7506 3.33857,-10.75061 6.35789,-3.51575 6.3579,-3.51574 11.35845,-23.2941 C 222.8887,230.39414 228,219.71735 228,219.47969 c 0,-0.23766 -3.3792,-2.9755 -7.50933,-6.08408 -6.8929,-5.18801 -7.6459,-6.11346 -9.17302,-11.27379 -2.53708,-8.57307 -2.0944,-19.87764 1.17711,-30.05996 2.29775,-7.15156 2.49543,-8.60005 1.29647,-9.5 -19.38069,-14.54739 -24.6876,-19.01284 -25.2477,-21.24446 -1.14578,-4.56515 4.30243,-10.13584 8.58395,-8.77694 1.12856,0.35819 12.02407,6.46618 24.21223,13.57329 l 22.16029,12.92204 0.25578,-6.2679 c 0.3419,-8.37822 0.87363,-10.34472 3.44489,-12.74021 3.51352,-3.27334 9.51078,-2.30388 11.76128,1.90122 0.55428,1.03569 2.38975,13.67884 4.07883,28.0959 l 3.07103,26.21283 -6.58147,38.13119 c -3.61981,20.97215 -7.22093,39.70618 -8.00249,41.63118 -0.78156,1.925 -1.92339,6.875 -2.5374,11 -0.61401,4.125 -4.01305,20.79246 -7.55342,37.0388 -3.54037,16.24634 -6.43703,29.85884 -6.43703,30.25 0,0.39116 0.60014,0.7112 1.33365,0.7112 0.93651,0 3.49679,-9.75236 8.59784,-32.75 z M 34.666667,236.33333 C 34.3,235.96667 34,234.84167 34,233.83333 34,232.54444 34.742424,232 36.5,232 H 39 V 218.5 205 H 52.5 66 V 218.5 232 H 70.5 75 V 200.5 169 h 13 13 v 31.5 31.5 h 5 c 2.75,0 4.94671,-0.3375 4.88158,-0.75 -0.0651,-0.4125 -0.0651,-10.7625 0,-23 L 111,186 h 13 13 v 23 23 h 4.5 4.5 v -39.02903 -39.02902 l 13.25,0.27902 13.25,0.27903 0.26174,38.75 0.26175,38.75 h 4.48825 c 4.12081,0 4.48826,0.20467 4.48826,2.5 v 2.5 h -73.33333 c -40.333337,0 -73.633337,-0.3 -74.000003,-0.66667 z M 61,221 V 210 H 52.5 44 v 11 11 H 52.5 61 Z M 97,202.5 V 173 H 88.5 80 v 29.5 29.5 h 8.5 8.5 z m 35,8.5 v -21 h -8.5 -8.5 v 21 21 h 8.5 8.5 z m 36,-15.5 V 159 h -8.5 -8.5 v 36.5 36.5 h 8.5 8.5 z M 33.683735,129.3504 c -1.32157,-1.32157 -0.665639,-11.58628 0.959184,-15.01034 0.903605,-1.9042 3.258065,-4.55971 5.232134,-5.90112 C 43.275061,106.12857 44.234971,106 58.084251,106 c 13.51526,0 14.869787,0.17002 17.925918,2.25 5.800527,3.9478 7.318075,6.91067 7.408554,14.46447 L 83.5,129.5 58.933735,129.76707 c -13.511446,0.14689 -24.873946,-0.0406 -25.25,-0.41667 z M 101,125.54381 C 101,123.04277 101.12727,123 108.56955,123 c 7.27792,0 7.55724,0.0867 7.25,2.25 -0.29323,2.06465 -0.91678,2.2742 -7.56955,2.54381 -7.17696,0.29085 -7.25,0.26818 -7.25,-2.25 z m 28.6737,1.79656 C 129.30316,126.96983 129,125.84167 129,124.83333 129,123.07364 131.71423,123 196.56955,123 h 67.56955 l -0.31955,2.25 -0.31955,2.25 -66.5763,0.25703 c -36.61697,0.14137 -66.87947,-0.0461 -67.25,-0.41666 z M 101,104.45619 c 0,-2.51818 0.073,-2.54085 7.25,-2.25 6.65277,0.26961 7.27632,0.47916 7.56955,2.54381 0.30724,2.16331 0.0279,2.25 -7.25,2.25 C 101.12727,107 101,106.95723 101,104.45619 Z m 28,0.0368 v -2.50704 l 67.25,0.25704 67.25,0.25704 0.31955,2.25 0.31955,2.25 H 196.56955 129 Z M 52.218183,93.336917 C 41.860917,88.232026 42.107661,72.77775 52.616538,68.386861 58.807959,65.79992 63.956627,67.087974 69,72.48555 c 2.075733,2.221514 2.5,3.666474 2.5,8.51445 0,4.847976 -0.424267,6.292936 -2.5,8.51445 -5.160468,5.522894 -10.749146,6.795851 -16.781817,3.822467 z M 101,84 c 0,-1.822222 0.66667,-2 7.5,-2 6.83333,0 7.5,0.177778 7.5,2 0,1.822222 -0.66667,2 -7.5,2 -6.83333,0 -7.5,-0.177778 -7.5,-2 z m 28,0 c 0,-1.980247 0.66667,-2 67.5,-2 66.83333,0 67.5,0.01975 67.5,2 0,1.980247 -0.66667,2 -67.5,2 C 129.66667,86 129,85.980247 129,84 Z M 231.5399,282.45951 C 236.95748,281.05924 248,274.92624 248,273.31759 c 0,-0.36409 2.99565,-17.79699 6.657,-38.73978 l 6.65701,-38.07781 -2.70029,-24 c -3.50485,-31.15099 -3.18221,-29.68631 -6.45581,-29.30754 L 249.5,143.5 l -0.28394,10.15572 c -0.19341,6.91748 -0.70666,10.50655 -1.60966,11.25597 -1.01635,0.8435 -7.19337,-2.30927 -26.47093,-13.51084 -24.2115,-14.06853 -28.78815,-15.99165 -27.95938,-11.74859 0.17815,0.91207 5.94891,5.9438 12.82391,11.18162 l 12.5,9.52332 12.48947,2.8214 c 6.86921,1.55177 12.84135,2.8214 13.27144,2.8214 1.78066,0 3.07698,4.96299 1.94516,7.44707 -0.95613,2.09848 -0.83655,2.53544 0.83948,3.06739 3.57604,1.13499 1.81871,10.75907 -2.19731,12.03371 C 243.83171,188.8708 243,189.98692 243,191.02843 243,194.09406 239.06511,197 234.91399,197 c -3.54796,0 -3.70249,0.14101 -3.56144,3.25 0.11768,2.59389 -0.24178,3.25 -1.7806,3.25 -1.2626,0 -2.18421,-0.95781 -2.67024,-2.77512 -0.4082,-1.52631 -1.74967,-3.59093 -2.98105,-4.58804 C 220.33995,193.23735 222.32553,192 230.55902,192 236.13491,192 238,191.66201 238,190.65154 c 0,-0.92826 -2.57084,-1.71117 -8.25,-2.51241 -4.5375,-0.64017 -10.00916,-1.45387 -12.15924,-1.80822 l -3.90923,-0.64428 0.6105,6.40669 c 0.99191,10.40924 2.09369,12.34919 10.76081,18.9469 4.30604,3.27791 8.04966,6.3166 8.31915,6.75265 0.26949,0.43605 -6.04007,14.27354 -14.02125,30.74998 -7.98118,16.47643 -14.58762,30.37027 -14.68099,30.8752 -0.22568,1.22051 11.76638,4.42977 16.87015,4.51471 2.22195,0.037 6.72195,-0.62598 10,-1.47325 z M 391,250.1528 c 6.325,-12.16184 11.95864,-22.12152 12.51919,-22.13262 0.56056,-0.0111 12.15268,4.02982 25.76028,8.97982 24.71847,8.99177 28.21825,9.99316 27.51109,7.87169 -0.44752,-1.34257 -0.67446,-1.43238 -31.29056,-12.3835 -17.83808,-6.38052 -24.49499,-9.20812 -25.92792,-11.01318 l -1.92792,-2.42859 -5.07208,4.72866 c -2.78964,2.60076 -10.38362,9.67781 -16.8755,15.72679 -6.49188,6.04897 -12.19213,11.13571 -12.66722,11.30387 -0.47509,0.16816 -4.16356,-3.54164 -8.19658,-8.244 -4.03303,-4.70237 -7.56106,-8.55245 -7.84006,-8.55575 -0.27901,-0.003 -1.81049,2.13151 -3.4033,4.74401 l -2.89601,4.75 1.72329,8.5 c 0.9478,4.675 2.20278,10.74802 2.78883,13.4956 l 1.06554,4.9956 7.23883,-7.9008 c 4.77379,-5.21035 7.74538,-7.70642 8.72637,-7.32998 0.81815,0.31396 4.56867,4.91738 8.33449,10.22982 5.44061,7.67508 7.06079,9.36282 7.88809,8.217 0.57263,-0.7931 6.21615,-11.3926 12.54115,-23.55444 z m 80.52378,-16.91816 c 0.72741,-7.63238 -1.33083,-19.50563 -4.59072,-26.48214 -1.09287,-2.33887 -1.71776,-3.3525 -1.38863,-2.2525 3.8766,12.95615 4.47032,23.56984 1.92298,34.37608 -1.2111,5.13772 -1.2591,6.66999 -0.24715,7.88932 1.06778,1.28659 1.43605,0.89096 2.45877,-2.64144 0.66159,-2.28508 1.49173,-7.18527 1.84475,-10.88932 z M 378.2582,230.75 c 14.42274,-13.48424 15.2301,-14.43808 15.02413,-17.75 -0.45256,-7.27675 -1.32464,-9.47819 -4.57067,-11.53787 l -3.21166,-2.03786 -5.14268,4.16876 c -2.82848,2.29282 -5.54684,4.33486 -6.04081,4.53786 -0.49397,0.20301 -4.37567,4.75661 -8.626,10.11911 -4.25034,5.3625 -8.05697,9.76497 -8.4592,9.78327 -0.40222,0.0183 -1.7797,0.90699 -3.06107,1.97488 l -2.32977,1.94161 5.32977,6.45791 c 2.93137,3.55186 5.44595,6.48816 5.58796,6.52512 0.14201,0.037 7.11701,-6.34529 15.5,-14.18279 z m -17.0586,-21.64665 c 6.31267,-2.17188 12.27879,-5.71556 18.93918,-11.24927 2.55133,-2.11974 5.11564,-3.85408 5.69848,-3.85408 0.58283,0 2.25078,1.10386 3.70655,2.45302 8.64866,8.01531 23.46706,0.84239 23.4496,-11.3509 -0.0123,-8.62028 -5.84915,-14.08463 -15.05632,-14.09553 -4.75964,-0.006 -5.94275,-0.40368 -8.19346,-2.75659 -3.5736,-3.73586 -7.69495,-13.04336 -8.39577,-18.96066 l -0.57619,-4.865 -8.3707,-2.16391 c -9.29287,-2.40231 -20.36389,-7.59474 -27.74404,-13.01227 -2.69336,-1.9771 -5.13825,-3.13471 -5.5021,-2.60514 -0.36016,0.52419 -2.11733,3.03753 -3.90483,5.5852 -3.91555,5.58072 -3.993,6.36848 -0.70718,7.19317 2.89756,0.72724 4.36411,3.40006 2.49831,4.55319 -0.68767,0.42501 -2.54696,0.2833 -4.13175,-0.31489 -3.57218,-1.34835 -4.33924,-0.66587 -6.93769,6.1727 L 324.00815,155 h 4.43691 c 4.88913,0 6.4158,1.2578 4.43036,3.65011 -0.9393,1.13178 -2.46693,1.43061 -5.54173,1.08403 l -4.24497,-0.47847 -1.168,5.62217 c -0.65778,3.16624 -0.94531,9.33521 -0.6582,14.12216 1.20685,20.1222 11.51725,32 27.77727,32 3.922,0 8.90714,-0.77757 12.15981,-1.89665 z M 339.5,191.83791 c -3.10283,-1.70853 -8.5,-7.08986 -8.5,-8.47506 0,-0.68465 0.43204,-1.51183 0.96009,-1.83818 1.1647,-0.71983 22.45563,1.49619 24.09208,2.50757 1.88781,1.16674 0.11354,4.70223 -3.47183,6.91811 -3.6166,2.23518 -9.86319,2.65904 -13.08034,0.88756 z m 7.75,-4.54364 c -1.2375,-0.23836 -3.2625,-0.23836 -4.5,0 -1.2375,0.23835 -0.225,0.43337 2.25,0.43337 2.475,0 3.4875,-0.19502 2.25,-0.43337 z M 336.64602,169.54775 C 335.19071,168.19901 334,166.63778 334,166.07834 c 0,-0.55943 2.31523,-5.08092 5.14496,-10.04775 4.94021,-8.67122 7.26351,-10.73567 8.48868,-7.54293 0.51573,1.34398 -1.03466,4.57434 -6.83924,14.25007 l -1.94236,3.23773 2.57398,1.17279 c 1.41569,0.64503 2.57398,2.00055 2.57398,3.01227 0,2.69726 -4.15607,2.35095 -7.35398,-0.61277 z M 355,170.27847 c -3.40408,-1.27911 -7,-4.53936 -7,-6.34656 0,-2.50557 2.49294,-2.47593 5.72713,0.0681 1.49216,1.17373 4.05678,2 6.20773,2 4.33001,0 6.57649,1.67893 4.9189,3.67621 -1.09299,1.31697 -6.99216,1.67753 -9.85376,0.60226 z m 14.56068,-10.82621 c -2.04287,-3.11781 -7.30515,-6.44347 -10.20369,-6.44852 -2.66093,-0.005 -3.73441,-2.44562 -1.78648,-4.06226 3.69233,-3.06436 19.33907,8.0527 16.36962,11.63066 -1.66292,2.0037 -2.46764,1.79792 -4.37945,-1.11988 z M 243.5,182.53327 c 0,-1.72717 -1.64439,-2.29071 -13.5,-4.62655 -7.425,-1.4629 -13.5492,-2.60287 -13.60932,-2.53327 -0.3143,0.36382 -1.38867,5.6362 -1.15973,5.6913 4.3446,1.04553 23.10296,3.71724 25.26905,3.599 2.26091,-0.12341 3,-0.64828 3,-2.13048 z M 240.8,173.8 c 2.56332,-2.56332 0.89699,-3.53927 -9.84111,-5.76381 -6.07261,-1.25802 -11.19171,-2.11831 -11.37577,-1.91175 -0.18407,0.20656 -0.62681,1.32793 -0.98387,2.49195 -0.60463,1.97106 0.022,2.25544 9.12577,4.14161 12.17592,2.52267 11.63723,2.47975 13.07498,1.042 z M 27.777494,23.443296 C 30.682938,21.408244 30.802377,15.802377 28,13 23.782002,8.7820017 17,11.970319 17,18.171259 c 0,6.02058 5.716475,8.816913 10.777494,5.272037 z M 47.545455,22.545455 C 50.768547,19.322362 50.699508,15.695394 47.365141,13.07258 43.98708,10.415397 41.218053,10.446522 38.314451,13.174314 35.44415,15.870822 35.302329,20.302329 38,23 c 2.702734,2.702734 6.572447,2.518462 9.545455,-0.454545 z M 67.610482,22.246543 C 69.061523,20.335174 69.3954,16.138033 68.234687,14.399704 67.231799,12.89774 63.483771,11 61.520287,11 59.218498,11 55,15.528863 55,18 c 0,1.15 1.15483,3.245739 2.566288,4.657197 2.050279,2.050279 3.184785,2.442588 5.642285,1.951088 1.691799,-0.338359 3.672658,-1.401143 4.401909,-2.361742 z"
         id="path3" />
      <path
         style="fill:#0b0b19"
         d="m 309,449.24729 c 0,-0.85322 10.70697,-73.33263 11.42888,-77.36633 0.40507,-2.26329 -0.29666,-3.14619 -5.16611,-6.49991 -6.73467,-4.63834 -13.45718,-13.40715 -15.81773,-20.63258 -0.94307,-2.88666 -1.86496,-5.42191 -2.04863,-5.6339 -0.18367,-0.21199 -18.23495,13.02533 -40.11395,29.41627 -21.879,16.39094 -41.80556,30.73711 -44.28123,31.88038 -3.5029,1.61764 -6.49735,2.07858 -13.50123,2.07826 -7.95935,-3.6e-4 -9.66805,-0.33807 -14.77756,-2.9207 -6.48042,-3.27556 -13.37257,-10.09001 -16.86688,-16.67674 -1.9645,-3.70306 -2.33201,-5.88232 -2.34278,-13.89204 -0.0126,-9.3323 0.16929,-10.0649 10.3012,-41.5 5.67269,-17.6 11.97269,-36.94636 14,-42.9919 l 3.68602,-10.99191 6.20496,-3.50268 6.20496,-3.50269 10.97018,-22.50541 c 6.0336,-12.37798 11.11637,-23.09392 11.29504,-23.81322 0.17867,-0.71929 -3.01553,-3.86929 -7.09824,-7 -9.18394,-7.04245 -10.37286,-9.73133 -10.47576,-23.69219 -0.0603,-8.18456 0.40112,-11.47423 2.54181,-18.12053 l 2.61552,-8.12053 -12.41018,-9.25304 c -6.8256,-5.08917 -12.84626,-10.06785 -13.37924,-11.06373 C 187.58941,138.49578 190.6111,133 195.43546,133 c 1.3395,0 12.84354,6.075 25.56454,13.5 12.721,7.425 23.32504,13.5 23.56454,13.5 0.2395,0 0.43546,-3.77515 0.43546,-8.38922 0,-6.66295 0.37948,-8.85785 1.84417,-10.66666 2.41267,-2.97953 7.49653,-3.04786 10.40455,-0.13984 1.89008,1.89008 2.49402,5.23857 5.21547,28.91666 l 3.07785,26.77906 -6.80079,39 c -3.74043,21.45 -7.41649,40.35 -8.16901,42 -0.75253,1.65 -1.88309,6.825 -2.51237,11.5 -0.62928,4.675 -3.97605,21.1 -7.43726,36.5 -4.37757,19.47712 -5.98893,28.39576 -5.29377,29.30019 0.82006,1.06692 1.20949,1.06692 2.17057,0 0.64417,-0.71511 4.19592,-15.25019 7.89278,-32.30019 3.69686,-17.05 7.03347,-31.73725 7.41469,-32.63833 0.86205,-2.03763 34.57424,-30.61579 42.57051,-36.08745 8.2806,-5.66622 22.26779,-12.00995 34.9813,-15.86538 10.10539,-3.0645 11.02746,-3.56028 13.29135,-7.14652 2.287,-3.62285 2.36401,-4.20248 1.28614,-9.68117 -1.08085,-5.49388 -1.35522,-5.89013 -4.79134,-6.91977 C 325.90945,209.89571 317,195.41021 317,176.53115 c 0,-4.54199 0.45995,-10.68209 1.02211,-13.64466 0.85933,-4.52864 0.74687,-5.8978 -0.70614,-8.59701 -1.93854,-3.60117 -1.16668,-5.30185 1.6172,-3.56329 1.62913,1.01741 2.03967,0.63344 3.54934,-3.31957 0.93892,-2.45852 1.44705,-5.14781 1.12917,-5.97619 -0.32882,-0.85687 0.0917,-1.76309 0.97538,-2.10221 0.85434,-0.32784 2.58099,-2.21983 3.83701,-4.20441 l 2.28366,-3.60833 -2.44649,-3.69691 c -5.59277,-8.45125 -4.8715,-18.20831 1.84232,-24.92213 C 334.0766,98.923395 341.51307,96 347.64655,96 c 4.06047,0 11.96527,2.607017 15.49785,5.11122 2.48128,1.75894 2.91308,1.77757 7,0.302 11.56408,-4.175185 26.39037,-2.549064 36.3556,3.98742 2.75,1.8038 7.29402,4.70455 10.09783,6.4461 6.18878,3.84408 16.10675,14.01716 19.64788,20.15326 5.56841,9.64896 7.50482,24.44917 4.77308,36.48131 -0.74354,3.27497 -0.78765,5.09574 -0.12877,5.31536 0.5512,0.18374 3.72839,2.0961 7.06042,4.2497 11.53845,7.45765 19.8623,18.23792 24.80032,32.11903 3.47212,9.76037 3.73582,26.89596 0.56132,36.47657 l -2.03512,6.14198 36.39373,45.70482 c 20.01654,25.13765 37.50798,47.9037 38.86985,50.59123 11.16063,22.02444 4.44357,49.93802 -15.31196,63.63081 -3.15072,2.1838 -11.00432,6.76618 -17.45244,10.18306 -6.44812,3.41689 -11.98718,6.63858 -12.30902,7.15932 -1.15909,1.87546 -5.58941,0.9179 -8.05323,-1.74061 -1.36984,-1.47808 -3.85089,-5.53762 -5.51345,-9.02119 -1.66256,-3.48358 -3.3328,-6.14698 -3.71164,-5.91868 -0.37884,0.22831 -8.92903,0.98286 -19.00041,1.67678 l -18.31162,1.26167 0.64073,4.09442 c 0.78927,5.04371 5.43873,26.31679 6.16609,28.21225 C 454.13195,449.78623 442.98457,450 381.60699,450 341.67314,450 309,449.66128 309,449.24729 Z m 101.62032,-26.73311 c 1.95584,-0.81721 5.39432,-2.94175 7.64107,-4.7212 l 4.08499,-3.23538 31.07681,-2.2407 c 40.43848,-2.91571 39.07913,-2.70118 40.6153,-6.40982 1.97012,-4.75629 0.57745,-15.99326 -3.54142,-28.57464 -2.01081,-6.14216 -4.18276,-11.87978 -4.82655,-12.75028 -1.03567,-1.40038 -4.79934,-0.25158 -32.67052,9.97222 l -31.5,11.55494 -3.97183,-4.80466 c -9.21258,-11.14429 -16.93675,-17.93968 -22.94827,-20.18888 -12.07489,-4.5178 -12.12998,-4.50632 -30.38013,6.32693 -9.03622,5.36388 -15.98096,10.10231 -15.6325,10.66613 0.34485,0.55799 1.7179,1.42928 3.05121,1.93621 3.8516,1.46437 9.81323,-1.57985 20.20614,-10.31798 5.39926,-4.53959 9.9489,-7.64422 10.75104,-7.33641 2.15769,0.82799 0.80151,2.63691 -6.68894,8.92192 -3.81007,3.19691 -6.66669,6.23441 -6.34805,6.75 1.2197,1.9735 6.20121,0.79385 11.38252,-2.69545 l 5.3945,-3.63286 5.34215,1.68396 c 4.00559,1.26265 5.34216,2.16218 5.34216,3.59536 0,3.71077 4.04319,12.6536 7.00288,15.48917 3.43028,3.28641 3.86608,5.49724 1.08363,5.49724 -2.40748,0 -7.53156,-6.85728 -9.65882,-12.92587 -2.34906,-6.70135 -2.80599,-7.3669 -5.72593,-8.34021 -2.19192,-0.73064 -3.66636,-0.26109 -8.44828,2.69048 -3.1861,1.96658 -6.8346,3.5756 -8.10776,3.5756 -2.0771,0 -1.74129,0.65329 3.26972,6.3609 3.07151,3.4985 5.58456,6.90601 5.58456,7.57224 0,0.91697 -2.73393,1.04609 -11.25,0.53135 -11.21969,-0.67815 -11.25652,-0.67297 -13.67061,1.92382 -1.33134,1.43209 -2.22319,2.80123 -1.98189,3.04252 1.22951,1.22952 37.16487,18.0742 41.9025,19.64178 6.81092,2.25359 9.10549,2.32798 13.62032,0.44157 z m -66.36657,-46.87355 c 1.40019,-1.29765 8.65471,-5.91015 16.12115,-10.25 7.46644,-4.33984 13.58654,-8.16696 13.60022,-8.50471 0.0137,-0.33774 -2.06579,-0.90063 -4.62106,-1.25087 -4.53834,-0.62205 -5.00732,-0.41369 -20.25,8.99674 -8.58223,5.29844 -15.78465,9.79193 -16.00538,9.98552 -0.48425,0.42474 5.94332,3.28817 7.5053,3.34355 0.60718,0.0215 2.24958,-1.02257 3.64977,-2.32023 z M 463.5,366.85833 c 9.35,-3.38432 17.675,-6.69716 18.5,-7.36186 0.825,-0.6647 5.8875,-2.92428 11.25,-5.02129 7.39572,-2.89211 9.75,-4.25493 9.75,-5.64397 0,-2.49784 -1.06843,-2.30941 -12,2.11642 -5.225,2.11542 -9.78784,3.67174 -10.13965,3.45848 -0.35181,-0.21326 -6.87207,-8.28797 -14.48947,-17.94381 -11.00624,-13.95153 -13.99778,-17.18713 -14.57046,-15.75918 -1.22818,3.06245 -5.75574,33.30075 -6.44538,43.04688 -0.37479,5.29674 -0.26999,9.25249 0.24522,9.25582 0.49486,0.003 8.54974,-2.76317 17.89974,-6.14749 z m -118.1172,-4.23336 6.88279,-4.35256 -3.38279,-0.60012 C 343.1692,356.65867 323,355.67296 323,356.40733 c 0,2.79187 3.45949,6.59038 7.2287,7.93709 4.97918,1.77903 7.0761,2.47125 7.7713,2.5654 0.275,0.0372 3.59726,-1.89093 7.3828,-4.28485 z M 238.08647,280.74612 C 248.51345,275.64468 247.8564,277.42684 255.32082,234 l 6.61757,-38.5 -3.03804,-25.5 c -1.91092,-16.03939 -3.52764,-26.00189 -4.35769,-26.85278 -0.75202,-0.7709 -2.1735,-1.08177 -3.30473,-0.72273 -2.35748,0.74823 -3.21095,4.80157 -3.22692,15.32551 -0.007,4.83335 -0.39826,7.25 -1.17278,7.25 -0.63897,0 -12.04117,-6.3 -25.33823,-14 -13.29706,-7.7 -25.14926,-14 -26.33823,-14 -1.59321,0 -2.16177,0.60892 -2.16177,2.31523 0,1.79787 2.86919,4.47668 12.84001,11.98802 l 12.84002,9.67278 13.26719,3.01199 C 239.24417,165.64461 245.45385,167 245.7465,167 c 0.29264,0 0.2656,2.25 -0.0601,5 -0.47614,4.02021 -0.30132,5 0.89209,5 0.81635,0 1.73617,0.65644 2.04405,1.45876 0.79739,2.07798 -1.45222,8.30487 -3.53621,9.78814 -0.96833,0.6892 -2.39926,2.6031 -3.17985,4.2531 -1.16585,2.46436 -2.31085,3.17855 -6.41287,4 -4.66122,0.93343 -4.97256,1.18306 -4.6772,3.75 0.22602,1.96427 -0.13113,2.75 -1.25,2.75 C 228.70489,203 228,202.35953 228,201.57673 c 0,-0.78281 -1.18099,-2.82681 -2.62443,-4.54224 -1.44344,-1.71543 -2.31464,-3.42875 -1.936,-3.80739 0.37863,-0.37864 3.80827,-0.5443 7.62142,-0.36814 5.68458,0.26261 7.04582,0.0263 7.55954,-1.31247 0.3446,-0.89801 0.39506,-1.86423 0.11213,-2.14716 -0.28293,-0.28294 -4.95102,-1.16231 -10.37354,-1.95418 -5.42252,-0.79186 -10.87162,-1.67454 -12.10912,-1.9615 -2.12671,-0.49317 -2.25,-0.21621 -2.25,5.05448 0,3.06693 0.51368,7.61626 1.14152,10.10962 1.02686,4.07802 1.98112,5.14562 9.5,10.62837 4.59716,3.35223 8.35848,6.50343 8.35848,7.00266 0,0.49923 -6.525,14.38509 -14.5,30.85746 -7.975,16.47238 -14.5,30.32279 -14.5,30.7787 0,1.96947 10.68347,4.03051 19.556,3.77272 7.45124,-0.2165 10.02609,-0.73775 14.53047,-2.94154 z m 153.29221,-30.11934 11.72811,-22.46884 10.69661,3.83393 c 5.88313,2.10866 17.66648,6.34812 26.18522,9.42103 8.51874,3.0729 15.83124,5.5871 16.25,5.5871 0.41876,0 0.76138,-0.82696 0.76138,-1.83768 0,-1.49913 -5.02012,-3.641 -27.25,-11.62642 -18.80297,-6.7544 -27.93259,-10.52451 -29.45203,-12.16232 C 399.08685,220.06811 397.83065,219 397.50642,219 c -0.32422,0 -8.09932,6.975 -17.27799,15.5 -9.17866,8.525 -17.14747,15.49556 -17.70845,15.49013 -0.56099,-0.005 -4.16998,-3.82134 -8.01998,-8.47981 -3.85,-4.65848 -7.23237,-8.47904 -7.51637,-8.49014 -0.284,-0.0111 -1.93149,2.34574 -3.66108,5.23742 l -3.1447,5.2576 2.46504,12.4924 c 1.35577,6.87082 2.68484,13.14143 2.95348,13.9347 0.32765,0.96748 2.98366,-1.26941 8.06787,-6.79473 8.88642,-9.65742 7.67758,-9.93191 17.4716,3.96717 5.1781,7.34844 6.52333,8.70428 7.41977,7.47833 0.60222,-0.8236 6.37261,-11.60843 12.82307,-23.96629 z m 79.22626,-8.33068 c 2.82953,-12.02528 1.294,-26.39753 -4.03815,-37.7961 -3.44171,-7.35737 -6.09586,-10.25558 -3.20527,-3.5 1.29435,3.025 2.96782,7.975 3.71883,11 1.75816,7.08169 1.51133,22.09822 -0.4678,28.45967 -1.40809,4.52597 -1.40085,5.11677 0.0827,6.75614 2.07509,2.29295 2.27032,2.04728 3.90964,-4.91971 z m -91.82418,-11.38689 c 16.11844,-14.92333 15.79686,-14.41585 14.61219,-23.059 -0.52602,-3.8377 -1.1318,-4.73094 -4.53787,-6.69123 l -3.93082,-2.26229 -4.60292,4.05166 C 377.78973,205.17676 375.35173,207 374.90355,207 c -0.44817,0 -4.22437,4.28272 -8.39155,9.51716 -4.16718,5.23444 -9.33677,10.79215 -11.48798,12.35048 l -3.91129,2.83333 5.51937,6.64951 c 3.03565,3.65724 5.83663,6.64952 6.2244,6.64952 0.38777,0 7.55368,-6.34086 15.92426,-14.09079 z M 359.0685,210.40654 c 7.09379,-2.08113 14.5836,-6.38914 20.75549,-11.9382 2.73343,-2.45759 5.32913,-4.46834 5.76822,-4.46834 0.43909,0 2.06002,1.20875 3.60205,2.68612 4.06693,3.89636 12.88259,4.47018 17.70413,1.15238 9.31921,-6.41274 9.18624,-18.20908 -0.28492,-25.27671 -2.06996,-1.54466 -4.26325,-2.06179 -8.74457,-2.06179 -5.18594,0 -6.2449,-0.33255 -7.96084,-2.5 -3.60113,-4.54867 -6.93914,-11.9439 -7.56329,-16.75618 -0.3384,-2.6091 -0.94613,-5.37124 -1.35051,-6.13809 -0.40439,-0.76685 -4.05602,-2.23538 -8.11475,-3.26339 -9.21322,-2.33356 -20.73976,-7.74261 -27.70602,-13.00157 -2.92958,-2.2116 -5.46393,-3.86802 -5.63189,-3.68093 -1.26911,1.4136 -8.5416,12.30046 -8.5416,12.78671 0,0.33823 1.35,1.12454 3,1.74735 1.68004,0.63414 3,1.86553 3,2.79869 0,1.35463 -0.60793,1.53743 -3.25,0.97727 -1.7875,-0.37897 -3.6563,-0.75223 -4.1529,-0.82945 -0.49659,-0.0772 -2.04309,2.48112 -3.43665,5.68521 -2.89972,6.66704 -2.15449,8.1515 3.58955,7.15026 2.79199,-0.48667 3.25,-0.27827 3.25,1.47881 0,1.80847 -0.6267,2.04531 -5.4121,2.04531 h -5.4121 l -0.54621,3.75 c -1.5396,10.57015 -1.65448,14.33642 -0.63239,20.73349 1.4223,8.90193 4.13212,15.01262 8.80215,19.84893 7.92148,8.20354 17.51548,10.52234 29.26915,7.07412 z m -17.48276,-18.43963 c -3.28667,-0.99449 -10.77923,-7.84482 -9.98531,-9.12942 0.70254,-1.13672 5.08679,-1.0526 15.63339,0.29995 8.01683,1.02812 8.84028,1.33083 8.56772,3.14967 -0.63793,4.25705 -8.51572,7.40455 -14.2158,5.6798 z m 7.24133,-3.83887 c 1.32209,-0.83818 -3.844,-2.13185 -8.32707,-2.08523 -1.97336,0.0205 -1.97414,0.0404 -0.0589,1.48899 2.1341,1.61415 6.31182,1.91119 8.38594,0.59624 z M 338.25,170.01073 C 336.42079,168.89557 335,167.19964 335,166.13136 335,163.50603 344.18187,148 345.73645,148 c 2.13202,0 1.43402,2.52011 -2.73645,9.87979 -2.2,3.88238 -4,7.45044 -4,7.92902 0,0.47859 1.16035,1.39885 2.57855,2.04503 2.44189,1.1126 2.9006,3.15778 0.85895,3.82969 -0.51563,0.1697 -2.4,-0.58307 -4.1875,-1.6728 z m 17.1949,-0.079 c -3.95452,-1.14929 -8.21566,-5.56096 -6.76876,-7.00786 0.73288,-0.73288 2.18943,-0.27619 4.82631,1.51324 2.43988,1.65575 5.14307,2.5629 7.6371,2.5629 4.32748,0 5.44661,2.34166 1.61045,3.36971 -2.73651,0.73336 -3.4146,0.69271 -7.3051,-0.43799 z m 12.53637,-12.45104 c -1.87608,-1.93563 -5.11435,-3.97797 -7.19616,-4.53854 -4.4304,-1.193 -5.21353,-3.94215 -1.12297,-3.94215 3.41515,0 10.57484,4.18654 12.696,7.42383 3.63811,5.55246 0.67412,6.26815 -4.37687,1.05685 z m -124.5527,26.94789 C 244.29286,183.56429 245,182.29823 245,181.61512 c 0,-1.57362 -27.70441,-7.34661 -28.91149,-6.02452 -0.45666,0.50017 -1.10389,2.07486 -1.43828,3.49932 l -0.60798,2.58992 13.22888,2.02131 c 7.27588,1.11172 13.53423,2.08376 13.90744,2.16008 0.37322,0.0763 1.38572,-0.56837 2.25,-1.43266 z m -1.61365,-12.14322 c 0.23162,-1.62889 -0.29737,-2.35573 -2,-2.74801 C 229.27898,167.10988 219.85993,165 219.5591,165 c -0.1999,0 -0.8332,1.34752 -1.40733,2.99449 -0.93572,2.68419 -0.81633,3.04813 1.15217,3.51222 17.08212,4.02726 22.02472,4.19822 22.51098,0.77864 z M 35,234 c 0,-1.46667 0.666667,-2 2.5,-2 H 40 V 218.5 205 H 52.5 65 v 13.5 13.5 h 4.985753 4.985754 L 75.235753,200.75 75.5,169.5 88.25,169.22012 101,168.94025 V 200.47012 232 h 5 5 v -23 -23 h 12.5 12.5 v 23 23 h 5.5 5.5 v -39 -39 h 12.5 12.5 v 38.94521 38.94521 l 4.74101,0.30479 c 3.5723,0.22966 4.82292,0.73618 5.07332,2.05479 0.31405,1.65382 -3.71124,1.75 -73.24101,1.75 C 35.666667,236 35,235.98188 35,234 Z M 61,220.5 V 209 h -9 -9 v 11.5 11.5 h 9 9 z m 36,-18 V 173 h -9 -9 v 29.5 29.5 h 9 9 z m 36,8.5 v -21 h -9 -9 v 21 21 h 9 9 z m 35,-16 v -37 h -9 -9 v 37 37 h 9 9 z M 33.25158,123.16215 c 0.644146,-7.10375 2.666256,-11.25414 6.983331,-14.33331 2.947277,-2.10216 4.55309,-2.36268 16.49756,-2.67653 12.006434,-0.31548 13.654136,-0.14357 17.783446,1.8554 C 80.316042,110.8155 83,115.70392 83,123.46016 V 129 H 57.861111 32.722223 Z M 101,125.5 c 0,-1.19048 1.44444,-1.5 7,-1.5 5.55556,0 7,0.30952 7,1.5 0,1.19048 -1.44444,1.5 -7,1.5 -5.55556,0 -7,-0.30952 -7,-1.5 z m 28.99986,-0.25 c -1.4e-4,-1.65177 3.73257,-1.73518 66.5,-1.48597 58.04715,0.23046 66.50014,0.45291 66.50014,1.75 0,1.29973 -8.33452,1.48597 -66.5,1.48597 -62.66661,0 -66.50001,-0.10088 -66.50014,-1.75 z M 101,104.5 c 0,-1.19048 1.44444,-1.5 7,-1.5 5.55556,0 7,0.30952 7,1.5 0,1.19048 -1.44444,1.5 -7,1.5 -5.55556,0 -7,-0.30952 -7,-1.5 z m 29,0 c 0,-1.3183 8.05556,-1.5 66.5,-1.5 58.44444,0 66.5,0.1817 66.5,1.5 0,1.3183 -8.05556,1.5 -66.5,1.5 -58.44444,0 -66.5,-0.1817 -66.5,-1.5 z M 51.298549,92.040484 c -6.314516,-3.850186 -8.127832,-12.030245 -4.018534,-18.128032 2.793578,-4.14539 6.031562,-5.878358 11.019645,-5.89771 9.875778,-0.03832 15.716946,9.288312 11.775947,18.802725 -2.715573,6.555974 -12.244068,9.206415 -18.777058,5.223017 z M 101.18701,84.25 c 0.27145,-1.423699 1.59033,-1.805134 7.07333,-2.04569 C 114.47987,81.93144 115,82.066495 115,83.95431 115,85.822422 114.38599,86 107.92668,86 c -6.19695,0 -7.03199,-0.216824 -6.73967,-1.75 z M 130,84 c 0,-1.97995 0.66667,-2 66.5,-2 65.83333,0 66.5,0.02005 66.5,2 0,1.97995 -0.66667,2 -66.5,2 C 130.66667,86 130,85.97995 130,84 Z"
         id="path2" />
    </g>
  </g>
</svg>
