<?xml version="1.0" encoding="UTF-8" standalone="no"?>
<!-- Created with Inkscape (http://www.inkscape.org/) -->

<svg
   version="1.1"
   id="svg1"
   width="574"
   height="450"
   viewBox="0 0 574 450"
   sodipodi:docname="VIDEO_01.svg"
   inkscape:version="1.3.2 (091e20e, 2023-11-25, custom)"
   xmlns:inkscape="http://www.inkscape.org/namespaces/inkscape"
   xmlns:sodipodi="http://sodipodi.sourceforge.net/DTD/sodipodi-0.dtd"
   xmlns="http://www.w3.org/2000/svg"
   xmlns:svg="http://www.w3.org/2000/svg">
  <defs
     id="defs1" />
  <sodipodi:namedview
     id="namedview1"
     pagecolor="#ffffff"
     bordercolor="#000000"
     borderopacity="0.25"
     inkscape:showpageshadow="2"
     inkscape:pageopacity="0.0"
     inkscape:pagecheckerboard="0"
     inkscape:deskcolor="#d1d1d1"
     showgrid="false"
     inkscape:zoom="1.3989547"
     inkscape:cx="287"
     inkscape:cy="224.81071"
     inkscape:window-width="1920"
     inkscape:window-height="1001"
     inkscape:window-x="-9"
     inkscape:window-y="-9"
     inkscape:window-maximized="1"
     inkscape:current-layer="g1" />
  <g
     inkscape:groupmode="layer"
     inkscape:label="Image"
     id="g1">
    <g
       id="g2">
      <path
         style="fill:#fdfdfd"
         d="M 0,225 V 0 H 287 574 V 225 450 H 287 0 Z"
         id="path5" />
      <path
         style="fill:#fb6a52"
         d="M 106,449.32212 C 82.834248,447.63122 58.128284,442.52072 45.923303,436.89508 37.65789,433.0853 32,427.45185 32,423.03192 c 0,-8.95258 18.546852,-18.03409 46,-22.52402 5.775,-0.94449 12.141654,-2.00765 14.148121,-2.36258 3.372328,-0.59653 6.711389,-4.36207 44.168239,-49.8095 22.28606,-27.04029 45.58168,-55.7561 51.76804,-63.81291 12.60307,-16.41361 19.28683,-22.84561 29.16193,-28.06345 10.23292,-5.40692 16.18879,-7.11081 35.00515,-10.0145 9.48669,-1.46396 17.32983,-2.73178 17.42921,-2.81737 0.0994,-0.0856 1.2575,-4.42432 2.57361,-9.64161 2.6749,-10.60378 2.36048,-10.38547 12.3045,-8.54339 l 4.05881,0.75188 1.76085,-8.19424 c 0.96847,-4.50684 1.61701,-8.26895 1.4412,-8.36025 -0.17581,-0.0913 -2.79466,-1.00596 -5.81966,-2.03258 -18.05544,-6.12765 -33.13136,-25.54767 -39.09284,-50.3574 -1.92065,-7.99312 -2.50695,-9.25298 -4.31491,-9.27196 -6.76324,-0.071 -16.36954,-8.50845 -18.52375,-16.2699 -0.8115,-2.92374 -1.0765,-14.15237 -0.86824,-36.788838 L 223.5,62.338603 l 3.02644,-4.892866 c 1.87156,-3.025771 4.89243,-6.04774 7.91641,-7.919301 C 239.11963,46.631955 239.9336,46.4782 253.11167,46 l 13.77884,-0.5 4.13774,-5.912886 c 17.36835,-24.81961 40.6074,-39.51904756 62.56179,-39.57233291 7.68737,-0.01865798 20.04024,3.08237281 28.22413,7.08531221 11.64823,5.6974297 23.78858,19.1307947 30.33248,33.5630577 6.58407,14.520856 10.60386,38.135791 9.33445,54.836849 -0.89903,11.8282 -4.16133,28.4266 -7.63129,38.8275 -15.17791,45.49458 -50.05319,77.58567 -84.39521,77.65772 l -7.04539,0.0148 -2.06953,8.49783 -2.06954,8.49782 3.61493,0.94112 c 1.98821,0.51762 5.3074,1.24461 7.37598,1.61554 2.06857,0.37093 3.96047,0.9971 4.20421,1.39149 0.24375,0.39438 -0.20588,3.15587 -0.99917,6.13663 -1.95855,7.35915 -1.96401,7.33774 2.26062,8.86539 5.26169,1.90265 14.55552,11.54817 16.06239,16.6702 2.19289,7.45392 0.90087,15.64675 -3.20879,20.34738 -0.73888,0.84513 -1.53894,4.03602 -1.77791,7.09087 -0.51809,6.62311 -3.50525,13.18439 -8.69936,19.10808 -2.92018,3.33036 -3.92626,5.44495 -4.33245,9.10595 -0.6284,5.66386 -4.42079,11.8285 -9.20667,14.96572 -1.90127,1.24631 -3.63036,3.34585 -3.91174,4.74981 -0.8001,3.99219 -6.38513,10.93094 -11.1426,13.84337 -4.23205,2.59078 -4.43363,2.94899 -6.56862,11.6728 -1.21142,4.95 -2.49703,9.33081 -2.85691,9.73514 -0.35988,0.40432 -3.00101,1.18017 -5.86919,1.72411 -7.52424,1.42695 -14.24022,-0.18207 -24.39406,-5.84433 -7.15134,-3.98793 -9.88877,-4.95654 -15.50284,-5.48554 l -6.81796,-0.64243 -16,18.00913 c -8.8,9.90502 -16.10874,18.34546 -16.24165,18.75652 -0.1329,0.41107 3.4671,1.77966 8,3.04132 10.99123,3.05921 17.62066,6.19853 22.61166,10.70761 10.29434,9.30031 2.00709,18.88848 -22.48407,26.01359 -11.39703,3.31569 -27.49707,6.04545 -43.69041,7.40771 -11.66297,0.98114 -41.61472,1.2081 -52.69553,0.39929 z m 42.61164,-9.41494 6.27546,-1.09283 11.30645,-12.7209 c 6.21855,-6.9965 21.81197,-24.44449 34.65205,-38.77332 l 23.3456,-26.05241 17.1544,-0.55766 c 25.75808,-0.83736 42.24839,-5.7447 50.09043,-14.90636 1.95342,-2.28213 3.36917,-4.33184 3.1461,-4.5549 -0.22306,-0.22306 -3.62211,0.75471 -7.55344,2.17282 -8.43758,3.0436 -12.32659,3.34906 -11.85201,0.93092 0.20966,-1.06833 3.13555,-2.58915 8.32332,-4.3263 10.44848,-3.49873 15.65896,-6.25186 19.94651,-10.53941 2.97701,-2.97702 5.93288,-9.15261 4.95472,-10.35171 -0.16371,-0.20068 -3.58346,0.98082 -7.59944,2.62556 -10.15515,4.15903 -21.61714,6.82397 -23.07591,5.3652 -1.82679,-1.82679 0.22211,-2.98746 9.84952,-5.57957 11.4216,-3.07518 18.88554,-6.45257 23.95645,-10.84016 4.55462,-3.94087 8.9662,-11.40425 9.9828,-16.88864 l 0.6826,-3.68248 -8.03545,3.47406 C 306.46256,296.93779 288.79199,302 284.87178,302 283.6896,302 283,301.28928 283,300.0709 c 0,-1.54496 1.145,-2.16414 5.75,-3.10941 14.02126,-2.87814 30.70929,-9.48265 34.46186,-13.63874 5.53519,-6.13041 5.84693,-15.18059 0.76457,-22.19658 -3.53191,-4.87566 -12.96953,-11.53307 -14.36755,-10.13505 -0.6155,0.6155 -0.40899,1.60002 0.57372,2.73525 5.90662,6.82333 -0.0807,17.47279 -12.41898,22.08911 -17.87539,6.68804 -45.02152,6.66708 -49.15644,-0.038 -1.77574,-2.87948 0.62411,-4.3273 3.76335,-2.2704 1.42138,0.93133 4.17263,2.05154 6.11388,2.48936 3.2727,0.73812 3.57334,0.60347 4.13116,-1.85022 1.05007,-4.61898 5.45905,-22.58096 5.95276,-24.25127 0.42257,-1.42964 -1.24876,-1.34633 -15.29696,0.7625 -32.90539,4.93956 -41.03316,9.81991 -62.59279,37.58404 -7.37093,9.49216 -18.07649,22.89977 -23.79013,29.79469 -36.43148,43.96356 -92.439501,112.21596 -92.707669,112.97526 -0.744056,2.10672 13.905238,6.13265 30.819219,8.46976 11.88653,1.64244 35.31218,1.87122 43.61164,0.42594 z M 308,261.27432 c 0,-3.13458 -0.47899,-2.77194 -1.39941,1.05947 -0.44651,1.85868 -0.32286,2.6126 0.35933,2.19098 C 307.53196,264.17123 308,262.70852 308,261.27432 Z m 9.05782,-63.5616 c 10.01435,-3.41402 17.5789,-8.38019 26.98029,-17.71272 16.614,-16.4923 28.1499,-38.49399 34.60504,-66 3.08203,-13.13285 4.21654,-35.628352 2.42498,-48.083636 -1.45541,-10.118354 -6.06402,-24.417907 -10.19878,-31.644725 -7.1857,-12.559291 -19.04,-21.569043 -30.08709,-22.867411 -6.58153,-0.77353 -17.2485,0.908171 -24.25515,3.823946 -8.59321,3.576013 -21.05209,12.46103 -28.00737,19.973375 C 277.9416,46.626914 277.66492,46 293.2855,46 c 12.58884,0 13.66728,0.157933 18.77832,2.75 6.86886,3.483554 11.40103,9.355214 12.93888,16.763009 0.76869,3.702755 1.04372,15.462617 0.8249,35.270901 -0.31101,28.15351 -0.44128,29.92711 -2.47741,33.7292 -2.73142,5.10043 -6.73621,9.10533 -11.83708,11.83742 -3.74767,2.0073 -5.68322,2.17102 -29.26311,2.47527 -29.00626,0.37427 -26.78708,-0.69531 -22.81122,10.99422 6.1864,18.18877 17.53967,32.16654 31.06122,38.24157 5.92959,2.66407 18.19247,2.50299 26.55782,-0.34887 z M 279.25,106.82169 c 8.6625,-4.98052 15.73937,-9.340378 15.72638,-9.688585 C 294.95713,96.617395 263.64039,78.309929 260.8218,77.166667 260.36981,76.983333 260,85.918978 260,97.023655 c 0,18.816845 0.11905,20.144855 1.75,19.521915 0.9625,-0.36762 8.8375,-4.74337 17.5,-9.72388 z M 420,232.49488 c -5.7959,-1.84019 -11.28692,-6.42571 -14.75099,-12.3185 L 402.5,215.5 l -0.30576,-33 c -0.22318,-24.08706 0.0306,-34.2154 0.93946,-37.5 1.63725,-5.91669 10.61697,-15.06356 16.48232,-16.7891 2.85257,-0.8392 14.05659,-1.2079 36.5,-1.20113 31.89952,0.01 32.45961,0.045 37.43959,2.36393 2.79198,1.3001 6.71984,4.29845 8.77253,6.69655 6.1987,7.24179 6.67258,10.39527 6.66628,44.36125 -0.003,17.37906 -0.4366,31.62039 -1.02693,33.74581 -1.76013,6.33719 -6.99052,12.88695 -12.96749,16.23855 L 489.5,233.5 457,233.71181 c -25.8596,0.16854 -33.41944,-0.0801 -37,-1.21693 z m 66.90014,-3.56688 c 6.7396,-1.44539 12.31343,-5.68996 15.21715,-11.58814 C 504.47941,212.54182 504.5,212.2192 504.5,180 c 0,-31.66452 -0.0571,-32.60677 -2.22098,-36.65327 -2.72695,-5.09945 -8.13059,-9.68608 -13.2013,-11.2053 -5.12041,-1.53411 -62.0492,-1.55343 -67.57772,-0.0229 -5.30735,1.46927 -12.91223,9.07415 -14.3815,14.3815 -1.5305,5.52852 -1.51118,62.45731 0.0229,67.57772 2.14047,7.14424 8.65371,13.11147 16.35857,14.98721 4.83191,1.17632 57.81018,1.0619 63.40014,-0.13693 z M 439,180.5 c 0,-13.5149 0.38811,-23.5 0.91341,-23.5 1.05785,0 41.32074,23.12785 40.88019,23.48245 C 479.70904,181.35542 440.00523,204 439.55918,204 439.25163,204 439,193.425 439,180.5 Z m 32.51809,-0.47073 C 471.19302,179.5033 452.59006,168.56564 444.75,164.2909 444.3375,164.06599 444,171.30385 444,180.37504 v 16.49308 l 13.97775,-8.06555 c 7.68776,-4.43606 13.78092,-8.38404 13.54034,-8.7733 z M 146,173.5 V 152 h 9 9 v 21.5 21.5 h -9 -9 z m 13.77385,-0.30577 0.27386,-17.30576 -4.77386,0.30576 L 150.5,156.5 l -0.27646,15.95986 c -0.15205,8.77792 -0.0437,16.5665 0.24085,17.30794 0.34981,0.91158 1.89641,1.24838 4.77646,1.04014 L 159.5,190.5 Z M 170,173.5 v -21.57787 l 8.75,0.28894 8.75,0.28893 v 21 21 l -8.75,0.28893 -8.75,0.28894 z m 13,0 V 156 h -4.5 -4.5 v 17.5 17.5 h 4.5 4.5 z M 15.444392,175.6263 C 12.645109,174.3228 8.7234877,171.32661 6.6574556,168.91292 0.2778533,161.45979 -0.14525256,158.40763 0.19770418,122.3142 L 0.5,90.5 3.4364873,85.199366 c 1.615068,-2.915348 4.765068,-6.64691 6.9999997,-8.292359 7.644486,-5.628186 11.176584,-6.069511 45.791121,-5.721456 L 87.5,71.5 l 5.464442,3 c 6.081413,3.338719 11.417588,9.613686 12.989948,15.275256 0.61391,2.210473 1.03275,16.734134 1.03026,35.724744 -0.004,31.47072 -0.043,32.08333 -2.35024,37.0381 -2.79325,5.99846 -9.983495,12.6507 -15.441253,14.28588 -2.661212,0.79732 -14.353428,1.17287 -36.309177,1.16625 -31.899522,-0.01 -32.459611,-0.045 -37.439588,-2.36393 z M 89.5,172.13434 c 5.1438,-2.34267 11.07244,-8.93233 12.42788,-13.81356 0.64087,-2.30792 1.06317,-15.92545 1.06654,-34.39147 L 103,93.35863 100.25,87.935504 C 98.448772,84.383401 96.003996,81.475218 93.163858,79.506189 L 88.827716,76.5 H 53.512268 18.19682 l -4.34841,3.141589 C 11.315533,81.471514 8.456209,84.800939 7,87.615946 l -2.5,4.832768 v 32.525646 c 0,31.69101 0.056992,32.63222 2.2209777,36.67891 2.576194,4.81754 8.4671223,10.0201 12.7790223,11.28577 1.65,0.48432 17.175,0.91129 34.5,0.94881 28.431571,0.0616 31.889642,-0.10923 35.5,-1.75351 z M 38,124.40122 v -23.59877 l 3.25,1.89408 c 1.7875,1.04175 11.024122,6.37124 20.525827,11.84331 15.359155,8.8454 17.078807,10.09354 15.5,11.24999 C 74.581258,127.76357 39.383403,148 38.644994,148 38.290247,148 38,137.38055 38,124.40122 Z m 19.024291,8.47948 14.030701,-8.1193 -10.277496,-5.93499 C 55.124873,115.56218 48.5875,111.77189 46.25,110.40356 L 42,107.91569 v 16.54216 C 42,133.55603 42.223558,141 42.496795,141 c 0.273238,0 6.810611,-3.65369 14.527496,-8.1193 z M 511.79136,100.01159 c -4.46139,-1.344857 -8.70074,-4.92585 -11.064,-9.345805 C 498.61364,86.712538 498.5,85.352053 498.5,64 c 0,-12.375 0.344,-23.729247 0.76445,-25.23166 0.96242,-3.439092 6.15652,-9.41755 9.83433,-11.319423 C 511.32043,26.300057 516.94413,26 536.25456,26 h 24.35388 l 4.51784,2.865128 c 7.71282,4.891327 8.32526,7.17303 8.67741,32.328616 0.33043,23.60346 -0.24918,27.805375 -4.53862,32.903086 -5.26352,6.25533 -8.21125,6.86667 -32.76507,6.79526 -12.1,-0.0352 -23.21889,-0.43142 -24.70864,-0.8805 z m 47.40185,-4.187623 c 4.73034,-1.417245 8.36638,-5.474697 9.85276,-10.994678 0.68367,-2.538983 0.97686,-11.680208 0.7763,-24.204532 -0.36038,-22.504527 -0.90704,-24.659926 -7.24833,-28.579057 -3.34137,-2.065085 -4.3957,-2.135856 -27.50945,-1.846543 L 511.02958,30.5 507.26479,34.264789 503.5,38.029578 503.19916,62.06449 c -0.28901,23.089566 -0.21667,24.171116 1.83937,27.49786 2.18134,3.529469 4.34444,5.106149 8.90307,6.489423 4.21225,1.278168 40.84057,1.093774 45.25161,-0.227806 z M 524,63 c 0,-9.35 0.348,-17 0.77334,-17 0.8318,0 28.27105,15.692038 29.41361,16.821141 C 554.90651,63.53223 527.02993,80 525.10664,80 524.34119,80 524,74.758754 524,63 Z m 14.27174,5.179954 c 4.25054,-2.376025 7.72541,-4.626025 7.72194,-5 -0.003,-0.373975 -1.24098,-1.376006 -2.75,-2.226735 -1.50903,-0.85073 -5.33118,-3.021256 -8.49368,-4.823391 L 529,52.853219 v 10.156724 c 0,5.586198 0.34728,10.006724 0.77174,9.82339 0.42445,-0.183333 4.24945,-2.277354 8.5,-4.653379 z M 426,98 c 0,-1.706343 0.66667,-2 4.54044,-2 h 4.54044 L 434.79044,87.904143 434.5,79.808287 430.61548,78.475736 C 425.59004,76.751803 419.43304,70.700758 417.46748,65.554008 415.35009,60.009724 415.75455,42.5 418,42.5 c 1.20726,0 1.59758,2.063955 2,10.575592 0.42443,8.977147 0.85595,11.093174 2.855,14 3.15286,4.584571 6.07644,6.646289 11.47037,8.088946 5.47722,1.464932 10.98966,0.124149 15.66548,-3.810293 5.05528,-4.253739 6.38916,-7.859003 6.9757,-18.854245 0.42597,-7.985133 0.83568,-10 2.03345,-10 2.27773,0 2.64686,17.517691 0.48824,23.16996 -2.15906,5.653411 -9.19474,11.975536 -14.93601,13.421205 L 440,80.23743 V 88.118715 96 h 5 c 4.33333,0 5,0.266667 5,2 0,1.888889 -0.66667,2 -12,2 -11.33333,0 -12,-0.111111 -12,-2 z M 134.5,72.609929 c -3.7418,-1.704218 -8.03736,-6.222219 -9.43638,-9.925029 -0.62941,-1.665861 -1.05465,-11.259521 -1.04166,-23.5 0.0256,-24.094833 0.77041,-27.033815 8.07651,-31.8687603 L 136.35394,4.5 h 22.57303 c 21.8168,0 22.69697,0.077067 26.27262,2.3004065 2.03478,1.2652236 4.73478,3.9652235 6,6.0000005 2.18017,3.506226 2.31717,4.807457 2.62098,24.895837 0.36653,24.234571 -0.38221,27.577664 -7.37119,32.912223 L 182.66109,73.5 160.08055,73.738145 C 142.70979,73.921346 136.80784,73.661043 134.5,72.609929 Z m 47.42892,-4.361483 c 1.8859,-0.961645 4.3609,-3.018945 5.5,-4.571776 1.94069,-2.645586 2.07108,-4.156528 2.07108,-24 0,-31.4910475 0.81331,-30.6784625 -30.70034,-30.6729319 -31.11884,0.00546 -30.80057,-0.3067802 -30.79811,30.2141429 0.002,21.65819 0.6503,24.339566 6.89633,28.512186 3.25143,2.172094 4.26433,2.269866 23.5,2.268379 17.16193,-0.0013 20.60364,-0.257286 23.53104,-1.75 z M 148,38.916667 c 0,-8.845834 0.37793,-15.933334 0.83985,-15.75 2.71994,1.079542 27.1204,15.444798 27.13839,15.97716 C 176.0015,39.831933 149.92364,55 148.71734,55 148.3228,55 148,47.7625 148,38.916667 Z m 12.78677,4.725012 c 8.20283,-4.880823 8.30604,-4.36983 -2.03677,-10.084355 L 152,29.827868 v 9.086066 c 0,4.997336 0.3375,9.080988 0.75,9.074782 0.4125,-0.0062 4.02905,-1.962373 8.03677,-4.347037 z M 431.5,70.13944 c -7.16758,-4.427375 -7,-3.681317 -7,-31.163864 V 14.161128 L 427,11.48555 c 7.39855,-7.9181539 18.60713,-7.098566 24.0054,1.75531 1.82739,2.99715 1.98712,5.067833 1.98712,25.75914 0,20.691307 -0.15973,22.76199 -1.98712,25.75914 -4.12223,6.761004 -13.21134,9.26811 -19.5054,5.3803 z M 446.25,64.018953 449,60.968447 V 38.884223 16.8 l -3.4,-3.4 c -4.73043,-4.7304251 -9.46957,-4.7304251 -14.2,0 l -3.4,3.4 v 21.965141 c 0,20.923911 0.10135,22.093993 2.13812,24.683317 4.3273,5.501272 11.4398,5.753114 16.11188,0.570495 z M 50.818777,46.029236 C 43.895059,43.91309 40.013178,38.693502 40.013178,31.5 c 0,-5.621204 2.102275,-9.618281 6.628119,-12.602114 3.689109,-2.432184 11.51563,-2.506744 15.523482,-0.147886 9.168685,5.396314 9.343924,20.221178 0.299836,25.365527 -3.875218,2.204255 -8.31056,2.933095 -11.645838,1.913709 z m 11.1043,-7.106159 C 68.525089,32.321065 63.89741,21 54.596713,21 44.309383,21 40.218305,33.627034 48.36704,40.227764 c 1.244616,1.008178 3.870981,1.737025 6.306037,1.75 3.343254,0.01781 4.784928,-0.589615 7.25,-3.054687 z"
         id="path4" />
      <path
         style="fill:#595b5f"
         d="M 106,449.32212 C 82.834248,447.63122 58.128284,442.52072 45.923303,436.89508 37.65789,433.0853 32,427.45185 32,423.03192 c 0,-9.5281 21.186256,-19.0959 52.231296,-23.58787 6.197787,-0.89677 11.548943,-1.92604 11.891458,-2.28727 C 99.806735,393.27151 179.14172,296.12943 186.90341,286 199.32458,269.78969 200.92365,268.01109 208,262.53489 c 11.81975,-9.14699 21.08063,-12.51427 44.25148,-16.08993 9.48669,-1.46396 17.3822,-2.78415 17.54558,-2.93375 0.16339,-0.1496 1.30599,-4.48833 2.53911,-9.64161 2.50829,-10.48221 2.21599,-10.28069 12.22263,-8.42701 l 4.05881,0.75188 1.76085,-8.19424 c 0.96847,-4.50684 1.61701,-8.26895 1.4412,-8.36025 -0.17581,-0.0913 -2.79466,-1.00596 -5.81966,-2.03258 -16.66912,-5.65716 -30.40328,-21.91102 -37.2698,-44.1074 -1.36115,-4.4 -2.77767,-9.6875 -3.14782,-11.75 L 244.90937,148 h 5.42746 5.42746 l 2.71266,8.75 c 6.18542,19.95174 16.9021,34.0264 30.97886,40.68577 4.40193,2.08245 6.88809,2.55938 13.23226,2.53841 14.68413,-0.0485 27.52679,-6.25219 41.35004,-19.97418 22.35456,-22.19081 36.23663,-55.77022 37.65491,-91.083636 0.69095,-17.203788 -0.54101,-27.524372 -4.82196,-40.395491 -5.37063,-16.147379 -13.79849,-27.53857 -24.65626,-33.3257 -19.95427,-10.6355175 -48.05496,0.374079 -70.45379,27.603164 -2.59629,3.156177 -2.97593,3.285479 -8.80798,3 L 266.85828,45.5 l 4.92173,-7.000556 c 16.60721,-23.621731 40.39501,-38.43268668 61.81003,-38.48466291 7.68737,-0.01865798 20.04024,3.08237281 28.22413,7.08531221 7.51507,3.6758047 17.86064,13.0582237 23.411,21.2314837 24.46363,36.024292 20.93326,96.996343 -8.12578,140.338083 -18.22051,27.17601 -43.34561,43.26458 -67.64479,43.31556 l -7.04539,0.0148 -2.06953,8.49783 -2.06954,8.49782 3.61493,0.94112 c 1.98821,0.51762 5.3074,1.24461 7.37598,1.61554 2.06857,0.37093 3.96047,0.9971 4.20421,1.39149 0.24375,0.39438 -0.20588,3.15587 -0.99917,6.13663 -1.95855,7.35915 -1.96401,7.33774 2.26062,8.86539 5.26169,1.90265 14.55552,11.54817 16.06239,16.6702 2.19289,7.45392 0.90087,15.64675 -3.20879,20.34738 -0.73888,0.84513 -1.53894,4.03602 -1.77791,7.09087 -0.51809,6.62311 -3.50525,13.18439 -8.69936,19.10808 -2.92018,3.33036 -3.92626,5.44495 -4.33245,9.10595 -0.6284,5.66386 -4.42079,11.8285 -9.20667,14.96572 -1.90127,1.24631 -3.63036,3.34585 -3.91174,4.74981 -0.8001,3.99219 -6.38513,10.93094 -11.1426,13.84337 -4.23205,2.59078 -4.43363,2.94899 -6.56862,11.6728 -1.21142,4.95 -2.49703,9.33081 -2.85691,9.73514 -0.35988,0.40432 -3.00101,1.18017 -5.86919,1.72411 -7.52424,1.42695 -14.24022,-0.18207 -24.39406,-5.84433 -7.15134,-3.98793 -9.88877,-4.95654 -15.50284,-5.48554 l -6.81796,-0.64243 -16,18.00913 c -8.8,9.90502 -16.10874,18.34546 -16.24165,18.75652 -0.1329,0.41107 3.4671,1.77966 8,3.04132 10.99123,3.05921 17.62066,6.19853 22.61166,10.70761 10.29434,9.30031 2.00709,18.88848 -22.48407,26.01359 -11.39703,3.31569 -27.49707,6.04545 -43.69041,7.40771 -11.66297,0.98114 -41.61472,1.2081 -52.69553,0.39929 z m 42.61164,-9.41494 6.27546,-1.09283 11.30645,-12.7209 c 6.21855,-6.9965 21.81197,-24.44449 34.65205,-38.77332 l 23.3456,-26.05241 17.1544,-0.55766 c 25.75808,-0.83736 42.24839,-5.7447 50.09043,-14.90636 1.95342,-2.28213 3.37387,-4.32713 3.15655,-4.54445 -0.21731,-0.21732 -3.76824,0.80236 -7.89095,2.26596 -7.77861,2.76146 -11.20163,2.93408 -11.20163,0.56488 0,-0.84017 3.14204,-2.4262 8.00954,-4.04302 14.99448,-4.98066 22.27477,-10.32141 24.461,-17.94436 0.48942,-1.70649 0.52725,-3.10271 0.0841,-3.10271 -0.44317,0 -3.34506,1.123 -6.44865,2.49555 -8.47378,3.74751 -22.45704,7.05338 -23.8677,5.64272 -1.83995,-1.83995 0.19222,-2.99514 9.83713,-5.59196 11.4216,-3.07518 18.88554,-6.45257 23.95645,-10.84016 4.55462,-3.94087 8.9662,-11.40425 9.9828,-16.88864 l 0.6826,-3.68248 -8.03545,3.47406 C 306.46256,296.93779 288.79199,302 284.87178,302 283.6896,302 283,301.28928 283,300.0709 c 0,-1.54496 1.145,-2.16414 5.75,-3.10941 14.02126,-2.87814 30.70929,-9.48265 34.46186,-13.63874 5.53519,-6.13041 5.84693,-15.18059 0.76457,-22.19658 -3.53191,-4.87566 -12.96953,-11.53307 -14.36755,-10.13505 -0.6155,0.6155 -0.40899,1.60002 0.57372,2.73525 5.90662,6.82333 -0.0807,17.47279 -12.41898,22.08911 -17.87539,6.68804 -45.02152,6.66708 -49.15644,-0.038 -1.77574,-2.87948 0.62411,-4.3273 3.76335,-2.2704 1.42138,0.93133 4.17263,2.05154 6.11388,2.48936 3.2727,0.73812 3.57334,0.60347 4.13116,-1.85022 1.05007,-4.61898 5.45905,-22.58096 5.95276,-24.25127 0.42245,-1.42923 -1.25283,-1.34494 -15.29696,0.76962 -33.2016,4.99902 -40.88084,9.61682 -62.68345,37.69374 -7.32107,9.42791 -17.98583,22.78295 -23.69947,29.67787 -36.43148,43.96356 -92.439501,112.21596 -92.707669,112.97526 -0.744056,2.10672 13.905238,6.13265 30.819219,8.46976 11.88653,1.64244 35.31218,1.87122 43.61164,0.42594 z M 308,261.27432 c 0,-3.13458 -0.47899,-2.77194 -1.39941,1.05947 -0.44651,1.85868 -0.32286,2.6126 0.35933,2.19098 C 307.53196,264.17123 308,262.70852 308,261.27432 Z m 112,-28.77944 c -5.7959,-1.84019 -11.28692,-6.42571 -14.75099,-12.3185 L 402.5,215.5 l -0.30576,-33 c -0.21582,-23.29283 0.0439,-34.25312 0.88277,-37.26005 1.59271,-5.7087 8.19083,-12.99002 14.38489,-15.87436 4.96445,-2.31176 5.52131,-2.34619 38.09176,-2.35582 l 33.05365,-0.01 5.19398,2.58827 c 2.85668,1.42354 6.78666,4.44896 8.73328,6.72315 6.18086,7.22095 6.63297,10.56283 6.27909,46.41346 L 508.5,214.5 l -2.91129,5.25433 c -2.94373,5.31289 -6.21289,8.38955 -12.58871,11.84746 -3.20772,1.7397 -6.21399,1.9159 -36,2.11002 -25.8596,0.16854 -33.41944,-0.0801 -37,-1.21693 z m 66.90014,-3.56688 c 6.7396,-1.44539 12.31343,-5.68996 15.21715,-11.58814 C 504.47941,212.54182 504.5,212.2192 504.5,180 c 0,-31.66452 -0.0571,-32.60677 -2.22098,-36.65327 -2.72695,-5.09945 -8.13059,-9.68608 -13.2013,-11.2053 -2.50551,-0.75067 -14.38272,-1.13391 -34.69374,-1.11947 -27.71709,0.0197 -31.29415,0.20877 -34.88398,1.8437 -5.1438,2.34267 -11.07244,8.93233 -12.42788,13.81356 -1.48648,5.35316 -1.42782,62.40152 0.0693,67.3985 2.14047,7.14424 8.65371,13.11147 16.35857,14.98721 4.83191,1.17632 57.81018,1.0619 63.40014,-0.13693 z M 439,180.5 c 0,-13.5149 0.38811,-23.5 0.91341,-23.5 1.05785,0 41.32074,23.12785 40.88019,23.48245 C 479.70904,181.35542 440.00523,204 439.55918,204 439.25163,204 439,193.425 439,180.5 Z m 32.50345,-0.49441 c -0.33689,-0.54511 -20.87754,-12.61994 -26.75345,-15.72703 -0.4125,-0.21813 -0.75,7.02529 -0.75,16.09648 v 16.49308 l 13.97775,-8.06555 c 7.68776,-4.43606 13.77433,-8.3947 13.5257,-8.79698 z M 146,173.5 V 152 h 9 9 v 21.5 21.5 h -9 -9 z m 13.77385,-0.30577 0.27386,-17.30576 -4.77386,0.30576 L 150.5,156.5 l -0.27646,15.95986 c -0.15205,8.77792 -0.0437,16.5665 0.24085,17.30794 0.34981,0.91158 1.89641,1.24838 4.77646,1.04014 L 159.5,190.5 Z M 170,173.5 v -21.57787 l 8.75,0.28894 8.75,0.28893 v 21 21 l -8.75,0.28893 -8.75,0.28894 z m 13,0 V 156 h -4.5 -4.5 v 17.5 17.5 h 4.5 4.5 z M 15.444392,175.6263 C 12.645109,174.3228 8.7234877,171.32661 6.6574556,168.91292 0.2778533,161.45979 -0.14525256,158.40763 0.19770418,122.3142 L 0.5,90.5 3.4364873,85.199366 c 1.615068,-2.915348 4.765068,-6.64691 6.9999997,-8.292359 7.644486,-5.628186 11.176584,-6.069511 45.791121,-5.721456 L 87.5,71.5 l 5.464442,3 c 6.081413,3.338719 11.417588,9.613686 12.989948,15.275256 0.61391,2.210473 1.03275,16.734134 1.03026,35.724744 -0.004,31.47072 -0.043,32.08333 -2.35024,37.0381 -2.79325,5.99846 -9.983495,12.6507 -15.441253,14.28588 -2.661212,0.79732 -14.353428,1.17287 -36.309177,1.16625 -31.899522,-0.01 -32.459611,-0.045 -37.439588,-2.36393 z M 89.5,172.13434 c 5.1438,-2.34267 11.07244,-8.93233 12.42788,-13.81356 0.64173,-2.311 1.05931,-15.87281 1.05677,-34.32078 -0.004,-29.901661 -0.0502,-30.59889 -2.35152,-35.540865 -2.672767,-5.739729 -6.872121,-9.686318 -12.357726,-11.613896 -5.364211,-1.884921 -64.161844,-1.917108 -69.463776,-0.03803 -2.028605,0.718967 -5.498391,3.063777 -7.710637,5.210688 -6.7740026,6.573946 -7.2857047,9.918823 -6.9170834,45.215363 0.303295,29.04135 0.4060116,30.43489 2.5370701,34.42001 2.576194,4.81754 8.4671223,10.0201 12.7790223,11.28577 1.65,0.48432 17.175,0.91129 34.5,0.94881 28.431571,0.0616 31.889642,-0.10923 35.5,-1.75351 z M 38,124.40122 v -23.59877 l 3.25,1.89408 c 1.7875,1.04175 11.024122,6.37124 20.525827,11.84331 15.360865,8.84639 17.078983,10.09347 15.5,11.25056 C 74.708357,127.67186 39.3057,148 38.596502,148 38.268426,148 38,137.38055 38,124.40122 Z m 19.024291,8.47948 14.030701,-8.1193 -10.277496,-5.93499 C 55.124873,115.56218 48.5875,111.77189 46.25,110.40356 L 42,107.91569 v 16.54216 C 42,133.55603 42.223558,141 42.496795,141 c 0.273238,0 6.810611,-3.65369 14.527496,-8.1193 z M 511.79136,100.01159 c -4.46139,-1.344857 -8.70074,-4.92585 -11.064,-9.345805 C 498.61364,86.712538 498.5,85.352053 498.5,64 c 0,-12.375 0.344,-23.729247 0.76445,-25.23166 0.96242,-3.439092 6.15652,-9.41755 9.83433,-11.319423 C 511.32043,26.300057 516.94413,26 536.25456,26 h 24.35388 l 4.51784,2.865128 c 7.71282,4.891327 8.32526,7.17303 8.67741,32.328616 0.33043,23.60346 -0.24918,27.805375 -4.53862,32.903086 -5.26352,6.25533 -8.21125,6.86667 -32.76507,6.79526 -12.1,-0.0352 -23.21889,-0.43142 -24.70864,-0.8805 z m 47.40185,-4.187623 c 4.73034,-1.417245 8.36638,-5.474697 9.85276,-10.994678 0.68367,-2.538983 0.97686,-11.680208 0.7763,-24.204532 -0.36038,-22.504527 -0.90704,-24.659926 -7.24833,-28.579057 -3.34137,-2.065085 -4.3957,-2.135856 -27.50945,-1.846543 L 511.02958,30.5 507.26479,34.264742 503.5,38.029484 503.19749,61.680863 c -0.3674,28.724976 0.14012,30.537053 9.48631,33.870325 4.97771,1.775273 40.79341,1.985333 46.50941,0.272779 z M 524.04795,63 c 0.0681,-9.35 0.43324,-17 0.81131,-17 0.77319,0 28.25823,15.764281 29.32769,16.821141 C 554.9155,63.541113 527.01757,80 525.06866,80 c -0.81946,0 -1.10942,-4.82927 -1.02071,-17 z m 14.22379,5.179954 c 4.25054,-2.376025 7.72541,-4.626025 7.72194,-5 -0.003,-0.373975 -1.24098,-1.376006 -2.75,-2.226735 -1.50903,-0.85073 -5.33118,-3.021256 -8.49368,-4.823391 L 529,52.853219 v 10.156724 c 0,5.586198 0.34728,10.006724 0.77174,9.82339 0.42445,-0.183333 4.24945,-2.277354 8.5,-4.653379 z M 426,98 c 0,-1.706343 0.66667,-2 4.54044,-2 h 4.54044 L 434.79044,87.904143 434.5,79.808287 430.61548,78.475736 C 425.59004,76.751803 419.43304,70.700758 417.46748,65.554008 415.35009,60.009724 415.75455,42.5 418,42.5 c 1.20726,0 1.59758,2.063955 2,10.575592 0.42443,8.977147 0.85595,11.093174 2.855,14 3.15286,4.584571 6.07644,6.646289 11.47037,8.088946 5.47722,1.464932 10.98966,0.124149 15.66548,-3.810293 5.05528,-4.253739 6.38916,-7.859003 6.9757,-18.854245 0.42597,-7.985133 0.83568,-10 2.03345,-10 2.27773,0 2.64686,17.517691 0.48824,23.16996 -2.15906,5.653411 -9.19474,11.975536 -14.93601,13.421205 L 440,80.23743 V 88.118715 96 h 5 c 4.33333,0 5,0.266667 5,2 0,1.888889 -0.66667,2 -12,2 -11.33333,0 -12,-0.111111 -12,-2 z M 134.5,72.609929 c -3.7418,-1.704218 -8.03736,-6.222219 -9.43638,-9.925029 -0.62941,-1.665861 -1.05465,-11.259521 -1.04166,-23.5 0.0256,-24.094833 0.77041,-27.033815 8.07651,-31.8687603 L 136.35394,4.5 h 22.57303 c 21.8168,0 22.69697,0.077067 26.27262,2.3004065 2.03478,1.2652236 4.73478,3.9652235 6,6.0000005 2.18017,3.506226 2.31717,4.807457 2.62098,24.895837 0.36653,24.234571 -0.38221,27.577664 -7.37119,32.912223 L 182.66109,73.5 160.08055,73.738145 C 142.70979,73.921346 136.80784,73.661043 134.5,72.609929 Z m 47.42892,-4.361483 c 1.8859,-0.961645 4.3609,-3.018945 5.5,-4.571776 1.94069,-2.645586 2.07108,-4.156528 2.07108,-24 0,-31.4910475 0.81331,-30.6784625 -30.70034,-30.6729319 -31.11884,0.00546 -30.80057,-0.3067802 -30.79811,30.2141429 0.002,21.65819 0.6503,24.339566 6.89633,28.512186 3.25143,2.172094 4.26433,2.269866 23.5,2.268379 17.16193,-0.0013 20.60364,-0.257286 23.53104,-1.75 z M 148,38.916667 c 0,-8.845834 0.37793,-15.933334 0.83985,-15.75 2.71994,1.079542 27.1204,15.444798 27.13839,15.97716 C 176.0015,39.831933 149.92364,55 148.71734,55 148.3228,55 148,47.7625 148,38.916667 Z m 12.62966,4.878813 c 8.4383,-4.801028 8.48417,-4.550764 -1.87966,-10.25344 L 152,29.827868 v 9.086066 C 152,43.91127 152.27895,48 152.6199,48 c 0.34094,0 3.94534,-1.892034 8.00976,-4.20452 z m 270.6112,26.209922 c -1.79253,-1.092917 -4.16606,-3.453735 -5.27451,-5.246262 -1.89454,-3.063741 -1.99891,-4.678339 -1.74086,-26.930584 L 424.5,14.157111 427,11.483542 c 7.40203,-7.9159405 18.60769,-7.0956287 24.0054,1.757318 1.82739,2.99715 1.98712,5.067833 1.98712,25.75914 0,20.691307 -0.15973,22.76199 -1.98712,25.75914 -2.6641,4.369471 -7.61536,7.233384 -12.5054,7.233384 -2.23127,0 -5.44113,-0.87867 -7.25914,-1.987122 z M 446.25,64.018953 449,60.968447 V 38.884223 16.8 l -3.4,-3.4 c -4.73043,-4.7304251 -9.46957,-4.7304251 -14.2,0 l -3.4,3.4 v 21.965141 c 0,20.923911 0.10135,22.093993 2.13812,24.683317 4.3273,5.501272 11.4398,5.753114 16.11188,0.570495 z M 50.818777,46.029236 C 43.895059,43.91309 40.013178,38.693502 40.013178,31.5 c 0,-5.621204 2.102275,-9.618281 6.628119,-12.602114 3.689109,-2.432184 11.51563,-2.506744 15.523482,-0.147886 9.168685,5.396314 9.343924,20.221178 0.299836,25.365527 -3.875218,2.204255 -8.31056,2.933095 -11.645838,1.913709 z M 62.09879,38.894245 C 68.438141,32.107947 63.781187,21 54.596713,21 44.309383,21 40.218305,33.627034 48.36704,40.227764 c 1.276182,1.033748 3.879803,1.736696 6.48175,1.75 3.590787,0.01836 4.854477,-0.519104 7.25,-3.083519 z"
         id="path3" />
      <path
         style="fill:#12131e"
         d="m 110,449.00619 c -40.926329,-2.68125 -72.105454,-11.83432 -76.550337,-22.47242 -2.170841,-5.19555 0.478439,-9.7274 8.63061,-14.76347 7.205036,-4.45097 30.968623,-10.81941 46.100536,-12.35454 5.747223,-0.58306 7.087395,-1.11363 9.59036,-3.79677 5.370801,-5.75742 81.660771,-98.97469 91.445891,-111.73601 11.60016,-15.12841 19.41048,-22.43362 29.64415,-27.72701 9.45895,-4.89266 15.36517,-6.49196 35.51764,-9.61756 8.73337,-1.35453 15.97957,-2.59229 16.10267,-2.75059 0.12309,-0.1583 1.2225,-4.67532 2.44312,-10.03782 1.22063,-5.3625 2.52443,-9.74466 2.89734,-9.73813 0.37291,0.007 3.15302,0.67619 6.17802,1.48813 3.025,0.81194 5.80143,1.4816 6.16985,1.48813 0.36841,0.007 1.39938,-3.25063 2.29103,-7.23813 0.89166,-3.9875 1.84547,-7.99785 2.11958,-8.91189 0.37029,-1.23474 -0.34708,-1.84038 -2.79104,-2.35637 -4.60258,-0.97174 -12.41606,-4.98728 -18.12622,-9.31551 -9.5487,-7.23779 -18.58518,-21.96519 -23.15647,-37.73978 C 244.95499,149.17016 244.98733,149 250.86822,149 h 4.86823 l 1.70733,6.25 c 0.93903,3.4375 3.72682,10.45045 6.1951,15.58434 5.47312,11.38382 15.46999,22.19762 24.60575,26.61649 26.56029,12.84694 63.74001,-12.6909 82.22154,-56.47597 17.05158,-40.39734 16.07766,-85.375484 -2.41896,-111.713718 -5.55996,-7.917101 -10.43283,-12.13662 -18.18153,-15.743783 -10.68929,-4.9760601 -27.9542,-2.698035 -41.98567,5.539815 -8.21137,4.820883 -17.80688,13.050586 -23.73361,20.355405 L 278.80173,46 h -5.40086 C 270.43039,46 268,45.577695 268,45.061545 268,43.032977 280.41114,27.806612 287.15094,21.56659 301.9044,7.9071546 317.6592,0.73888796 333,0.7057626 c 35.33793,-0.0763052 61.25312,27.3537844 67.09154,71.0134484 1.54277,11.53688 0.56809,33.027449 -2.06269,45.479789 -11.19268,52.97853 -49.22329,93.7974 -87.7761,94.21151 -8.03856,0.0863 -8.35162,0.17746 -8.89665,2.58949 -0.31071,1.375 -1.19293,5.03996 -1.96051,8.14434 -0.76757,3.10439 -1.39559,6.09305 -1.39559,6.64147 0,0.54842 2.91692,1.57691 6.48205,2.28555 3.56513,0.70863 7.00509,1.61167 7.64435,2.00676 1.0838,0.66982 0.55899,4.42048 -1.67487,11.96981 -0.31167,1.05327 0.64216,1.94578 2.98473,2.79286 1.89352,0.68471 5.74239,3.31248 8.55304,5.8395 8.33523,7.49408 11.14147,15.24459 8.58965,23.72362 -0.79207,2.63187 -2.08698,5.53016 -2.87757,6.44065 -0.79059,0.91049 -1.68702,4.22081 -1.99208,7.35625 -0.67716,6.96007 -4.50879,14.93166 -9.77524,20.33704 -3.18421,3.26822 -3.93406,4.76425 -3.93406,7.84887 0,5.24201 -2.46893,9.97584 -7.52329,14.42486 -2.34875,2.06745 -5.01466,5.54312 -5.92426,7.72371 -1.9037,4.56378 -6.48198,9.67541 -11.61466,12.96775 -3.22996,2.07183 -3.73591,3.04545 -5.4244,10.43833 -2.64032,11.56039 -2.64173,11.56161 -13.18278,11.54323 -7.94253,-0.0138 -9.43402,-0.33116 -14.83061,-3.15522 -3.3,-1.72691 -7.70748,-4.30748 -9.79441,-5.7346 C 240.52624,365.4206 238.79552,365 233.02847,365 h -6.88271 l -16.68312,18.55643 c -9.17571,10.20603 -16.52101,18.70881 -16.32288,18.89505 0.19813,0.18625 4.04063,1.32649 8.53888,2.53387 C 218.05992,409.38227 229,416.84124 229,423.61309 c 0,5.63436 -10.71417,12.86828 -25.5,17.2169 -22.75493,6.69238 -62.75632,10.19035 -93.5,8.1762 z m 41.09216,-9.19399 c 4.2439,-1.21269 6.55695,-3.50908 30.5,-30.28034 14.24931,-15.93248 29.75102,-33.21398 34.44824,-38.40333 l 8.54041,-9.43518 13.95959,-0.20841 c 7.67778,-0.11462 17.10945,-0.74721 20.95926,-1.40574 15.8619,-2.7133 29.88632,-9.38401 33.85556,-16.10339 2.25916,-3.82446 1.70078,-4.56665 -2.01229,-2.67472 -3.75754,1.91458 -14.41856,4.95661 -15.07395,4.30122 -1.21061,-1.2106 0.79281,-3.36467 3.66329,-3.93876 6.0907,-1.21814 18.50473,-7.06356 22.31869,-10.50924 4.2621,-3.85055 6.74904,-7.94248 6.74904,-11.10465 0,-2.52778 0.33616,-2.55003 -6.12916,0.40578 -6.16558,2.81877 -23.43894,7.64312 -24.29626,6.78581 C 277.47309,326.13976 278.01017,324 279.38813,324 c 2.6349,0 18.89847,-5.07699 24.01036,-7.4953 5.87422,-2.77896 12.98,-9.38849 15.59974,-14.51032 2.01989,-3.94908 4.36331,-11.96617 3.69353,-12.63596 -0.24183,-0.24183 -2.0006,0.48126 -3.90836,1.60687 -5.96129,3.51725 -24.48284,9.37665 -32.2834,10.21304 -2.00466,0.21495 -3,-0.1242 -3,-1.02219 0,-0.8808 3.96264,-2.33322 11.5,-4.21507 15.4766,-3.86405 27.59996,-9.94729 30.77268,-15.44107 3.14423,-5.44444 2.72248,-13.64227 -0.9905,-19.25295 C 322.3389,257.55499 312.46334,250 310.08053,250 c -1.41898,0 -1.40317,3.72579 0.0178,4.19945 0.6041,0.20137 1.31883,2.37637 1.58831,4.83333 1.17924,10.75205 -10.48473,17.82169 -34.56759,20.95174 C 263.4951,281.75523 248,278.72203 248,274.28439 c 0,-1.74059 1.03349,-1.62385 6.1408,0.69365 8.06194,3.6582 7.96297,3.76019 11.70181,-12.05939 1.83041,-7.74475 3.10829,-14.30108 2.83974,-14.56964 -0.26856,-0.26855 -7.90074,0.65077 -16.9604,2.04293 -30.87601,4.7446 -40.71894,10.68836 -60.57308,36.5777 -5.28514,6.8917 -34.02551,42.16928 -63.8675,78.39463 -29.841984,36.22536 -54.019365,66.25065 -53.727512,66.72287 1.414923,2.2894 23.055716,7.26734 38.747582,8.91295 10.8483,1.13766 33.02934,0.45841 38.79072,-1.18789 z M 308.02475,263.4349 c 1.18026,-3.10432 1.25824,-5.4349 0.18184,-5.4349 -0.43637,0 -1.27385,1.8 -1.86107,4 -1.1756,4.40439 0.12703,5.51749 1.67923,1.4349 z m 109.46797,-32.78621 c -2.754,-1.28247 -6.5228,-4.05785 -8.37509,-6.1675 -6.62755,-7.54836 -6.61763,-7.48235 -6.61763,-44.0519 v -33.0707 l 3.02249,-5.9293 c 3.63295,-7.12682 9.79324,-11.73024 17.9686,-13.42744 3.59673,-0.74668 15.67006,-1.02624 35.24004,-0.81599 33.03091,0.35488 33.53171,0.44305 41.03888,7.22533 2.19499,1.98304 4.96683,5.87415 6.15964,8.64691 2.10452,4.89209 2.15988,6.03931 1.86955,38.74164 L 507.5,215.5 l -2.7723,4.71611 c -1.52476,2.59387 -4.33634,5.90908 -6.24796,7.36714 -6.68526,5.0991 -8.52796,5.32639 -43.47974,5.36309 -31.97848,0.0336 -32.58035,-0.003 -37.50728,-2.29765 z m 73.2894,-2.19937 c 4.91586,-2.05035 10.02441,-7.00598 12.31803,-11.94932 1.68477,-3.63111 1.85795,-6.96289 1.87789,-36.12788 0.0233,-34.10352 -0.14304,-35.49939 -4.96034,-41.62283 -1.19018,-1.51289 -4.26856,-3.98789 -6.84084,-5.5 L 488.5,130.5 h -33 c -32.31181,0 -33.08784,0.0469 -37.21184,2.25086 -5.06206,2.70522 -7.74129,5.41569 -10.62524,10.74914 -2.05858,3.80703 -2.17817,5.46012 -2.47901,34.26674 -0.37028,35.45545 0.11953,38.58933 7.12653,45.59633 2.31556,2.31556 5.78048,4.7102 7.69983,5.32143 2.22527,0.70865 15.00563,1.14831 35.27185,1.21341 26.61267,0.0855 32.38684,-0.15013 35.5,-1.44859 z M 440,180.09435 V 157.1887 l 20.00019,11.53312 20.00018,11.53313 -19.65573,11.37252 C 449.53399,197.88236 440.53391,203 440.34446,203 440.155,203 440,192.69246 440,180.09435 Z m 21.75,7.2033 c 6.1875,-3.55554 11.23907,-6.76455 11.22571,-7.13113 -0.0134,-0.36659 -5.18836,-3.54513 -11.5,-7.06343 C 455.16407,169.58479 450,166.24729 450,165.68643 c 0,-0.56087 -0.28411,-0.73565 -0.63136,-0.3884 -0.34725,0.34725 -1.57238,-0.0277 -2.72251,-0.83334 C 445.496,163.65911 444.20512,163 443.77749,163 443.34987,163 443,170.91945 443,180.59878 v 17.59877 l 3.75,-2.21764 c 2.0625,-1.2197 8.8125,-5.12672 15,-8.68226 z M 147,173.5 V 153 h 8 8 v 20.5 20.5 h -8 -8 z m 13,0 V 156 h -5 -5 v 17.5 17.5 h 5 5 z m 10,0 V 153 h 8.5 8.5 v 20.5 20.5 h -8.5 -8.5 z m 14,0 V 156 h -5.5 c -4.20952,0 -5.5067,0.35195 -5.52857,1.5 -0.0157,0.825 -0.0286,8.25 -0.0286,16.5 0,8.25 0.0129,15.45 0.0286,16 0.0157,0.55 2.50357,1 5.52857,1 H 184 Z M 18.182615,176.12493 C 11.655972,173.83798 6.5141335,169.10289 3.3873091,162.5 1.0455735,157.55498 1.0199131,157.14263 1.0536617,125 1.0903599,90.048218 1.3176503,88.205523 6.4167457,81.520265 7.8748098,79.608644 11.190023,76.797058 13.783886,75.272296 L 18.5,72.5 h 35 c 34.104929,0 35.104715,0.05603 39.09468,2.191086 4.821802,2.580172 9.73581,7.900324 12.09638,13.096141 1.42775,3.142613 1.74809,8.268666 2.08597,33.379853 0.27017,20.0783 0.0252,31.46864 -0.75794,35.24097 -1.68231,8.10364 -6.417255,14.43261 -13.535297,18.09195 l -5.835506,3 -31.574143,0.24408 c -28.61706,0.22122 -32.072145,0.0696 -36.891529,-1.61915 z M 90,172.63584 c 4.898668,-2.60912 8.815979,-6.45537 11.34158,-11.13584 2.04697,-3.79346 2.17483,-5.51111 2.47627,-33.2647 0.20649,-19.0127 -0.0758,-31.1607 -0.80572,-34.676881 C 101.49839,86.26676 97.39467,80.873888 90.895239,77.635085 L 85.607311,75 H 53.771537 c -35.106042,0 -36.168062,0.156916 -42.643649,6.300681 -6.9336591,6.578367 -7.0814355,7.482616 -7.105926,43.481439 -0.023693,34.82694 0.082079,35.64279 5.4456158,42.0038 2.9669582,3.51873 7.1939252,6.08503 12.0324222,7.30521 1.65,0.41609 16.95,0.67831 34,0.5827 28.127478,-0.15772 31.324317,-0.34657 34.5,-2.03799 z M 38,124.97568 c 0,-12.72829 0.389803,-22.99235 0.86623,-22.80901 3.931813,1.513 38.880922,22.47906 38.33716,22.99856 C 76.65872,125.6856 60.566246,135.11026 38.75,147.68571 38.3375,147.92349 38,137.70398 38,124.97568 Z m 10.058828,13.76482 c 2.992645,-1.79272 9.377203,-5.50522 14.187908,-8.25 4.810704,-2.74477 8.748204,-5.284 8.75,-5.64272 C 71.000894,124.0169 45.432302,108.92581 42.89718,108.26286 41.088842,107.78997 41,108.56829 41,124.88337 41,134.29752 41.363973,142 41.808828,142 c 0.444856,0 3.257356,-1.46677 6.25,-3.2595 z M 426.00142,98 c -0.003,-1.123532 1.1879,-1.5 4.74696,-1.5 H 435.5 l 0.28577,-8.533029 0.28577,-8.533028 -4.36385,-1.167152 c -6.30243,-1.685641 -12.21971,-7.780375 -14.2139,-14.640153 -1.8725,-6.441163 -1.70542,-19.73135 0.25621,-20.37998 0.92849,-0.307015 1.25143,1.601454 1.25558,7.420009 0.007,9.836052 1.27279,14.441845 5.19742,18.91175 4.29385,4.890434 7.75396,6.422191 14.49734,6.417845 C 451.26791,75.988162 457.98152,67.029449 457.99442,50.25 457.99763,46.087051 458.4258,43 459,43 c 1.60915,0 1.24371,19.185245 -0.44054,23.127876 -2.4072,5.634994 -11.02392,13.074331 -12.93268,11.165575 C 445.28205,76.94872 445,77.191667 445,77.833333 445,78.475 443.63248,79 441.96107,79 h -3.03894 l 0.28894,8.75 0.28893,8.75 5,0.08639 c 3.60123,0.06222 5,0.481854 5,1.5 0,1.137921 -2.29095,1.41361 -11.74696,1.41361 -9.77301,0 -11.74774,-0.252059 -11.75162,-1.5 z M 509.5,98.334803 c -4.63257,-2.44773 -6.62333,-4.488273 -8.61927,-8.834803 -1.61166,-3.509704 -1.83017,-6.696629 -1.78269,-26 0.0356,-14.455661 0.46503,-23.134168 1.25239,-25.30734 1.71341,-4.729176 7.2817,-10.016514 11.84194,-11.244459 2.36749,-0.637499 12.71211,-0.934162 26.1869,-0.750986 L 560.65276,26.5 l 4.15386,2.751115 C 572.44633,34.31091 573,36.590986 573,62.992281 c 0,25.116545 -0.3795,27.287886 -5.62684,32.194101 -4.78099,4.47019 -7.07711,4.816078 -31.68826,4.77358 -19.17856,-0.03312 -23.7033,-0.313946 -26.1849,-1.625159 z m 53.10477,-3.235525 c 1.70763,-1.041285 4.09301,-3.492238 5.30085,-5.446561 2.12522,-3.438687 2.18636,-4.321087 1.89522,-27.353016 -0.34054,-26.940092 -0.45593,-27.366678 -8.47754,-31.338889 -3.91234,-1.937351 -5.60094,-2.049031 -26.6795,-1.764533 -24.70687,0.333469 -25.01583,0.407276 -30.08201,7.186075 -1.91715,2.565248 -2.08282,4.349754 -2.36163,25.438212 -0.29216,22.098072 -0.24025,22.792086 2.02492,27.074098 4.06735,7.688776 5.7283,8.105907 32.25932,8.101598 20.81912,-0.0034 23.3119,-0.184419 26.12037,-1.896984 z M 525,63.103093 V 46.043068 l 7.25,4.34439 c 3.9875,2.389414 10.56446,6.254921 14.61547,8.590015 l 7.36547,4.245625 -6.36547,3.587247 c -3.50101,1.972986 -6.54016,3.459355 -6.75367,3.303041 -0.2135,-0.156313 -0.6635,0.115482 -1,0.60399 -0.33649,0.488508 -2.2993,1.876943 -4.3618,3.08541 -2.0625,1.208468 -5.325,3.133916 -7.25,4.278773 l -3.5,2.08156 z m 13.13133,5.821755 c 4.87777,-2.791334 8.8657,-5.378834 8.86207,-5.75 -0.005,-0.537482 -15.10292,-9.657559 -18.22329,-11.008181 C 528.34655,51.983333 528,56.820833 528,62.916667 528,69.0125 528.2841,74 528.63133,74 c 0.34723,0 4.62223,-2.283818 9.5,-5.075152 z m -399.29816,4.020868 c -5.00856,-0.825762 -9.3865,-3.806238 -11.73891,-7.9918 C 125.1413,61.479103 125,59.711891 125,38.761729 c 0,-21.728453 0.0748,-22.577008 2.27957,-25.848618 1.25377,-1.860461 4.06627,-4.3946053 6.25,-5.6314329 3.76585,-2.1329094 5.05441,-2.2496249 25.00854,-2.2652277 19.84739,-0.015519 21.29041,0.1108952 25.49588,2.2335496 2.93723,1.482523 5.22105,3.614403 6.69544,6.25 2.11888,3.787656 2.23854,5.124622 2.25412,25.1849 0.01,12.370113 -0.42001,22.356231 -1.0325,24 -1.27631,3.425262 -7.231,9.117309 -10.24906,9.797003 -3.22697,0.726745 -38.93101,1.113039 -42.86882,0.463813 z m 43.96105,-4.244265 c 6.68106,-3.647659 7.19786,-5.732253 7.20204,-29.050322 0.006,-31.6805261 0.6299,-31.020048 -29.72928,-31.4561033 C 136.4467,7.8528901 133.76397,8.4097646 130.01576,14.474496 128.16084,17.475817 128,19.426213 128,38.917694 c 0,22.309483 0.35286,24.376703 4.85666,28.45259 3.31942,3.004032 7.54313,3.510503 27.64334,3.314752 16.17086,-0.157484 19.49052,-0.452844 22.29422,-1.983585 z M 149,38.904978 V 23.809956 l 4.25,2.463481 c 2.3375,1.354914 7.97963,4.618363 12.53807,7.252108 4.55843,2.633745 8.48152,5.101649 8.71797,5.48423 C 174.86673,39.593378 150.78244,54 149.44612,54 149.20075,54 149,47.20724 149,38.904978 Z m 12.27323,5.146059 c 4.24972,-2.44693 7.71405,-4.69693 7.6985,-5 -0.0155,-0.303071 -3.84054,-2.643459 -8.5,-5.200865 L 152,29.200345 v 9.983161 c 0,5.490738 0.34795,9.833161 0.77323,9.649827 0.42527,-0.183333 4.25027,-2.335367 8.5,-4.782296 z m 268.66752,24.245654 c -5.44484,-4.581532 -5.9431,-7.066121 -5.91879,-29.514572 0.0251,-23.172046 0.96538,-27.167239 7.14946,-30.3773057 7.01628,-3.6420516 14.21546,-1.7819978 19.26679,4.9779607 1.88607,2.524044 2.08757,4.393726 2.36432,21.938211 0.39125,24.803186 0.0594,26.982534 -4.84927,31.842348 C 444.41037,70.671 443.60966,71 438.61576,71 c -4.47706,0 -6.04179,-0.487604 -8.67501,-2.703309 z M 445.75182,65.79201 C 449.31521,62.83696 450,58.518162 450,39 c 0,-20.974533 -0.65625,-24.202963 -5.63686,-27.730541 -3.48784,-2.470305 -8.53105,-2.2765269 -12.23139,0.469974 -4.92711,3.657051 -5.18015,5.126512 -4.89599,28.432223 0.26144,21.441784 0.29017,21.699238 2.70914,24.271912 4.1415,4.404668 11.37721,5.021925 15.80692,1.348442 z M 48.396258,44.570629 c -6.687822,-2.91127 -9.722839,-10.808504 -6.947109,-18.07665 2.318864,-6.071858 6.48852,-8.92255 13.050851,-8.92255 6.140211,0 10.43263,2.659483 12.989706,8.048121 5.642528,11.890744 -6.843446,24.283617 -19.093448,18.951079 z M 59.46977,41.447321 C 66.631825,38.048703 67.848904,29.103606 61.921885,23.425161 53.256361,15.123062 39.259394,25.315 44.41261,36.174597 c 2.936867,6.188987 8.799756,8.242057 15.05716,5.272724 z"
         id="path2" />
    </g>
  </g>
</svg>
