<?xml version="1.0" encoding="UTF-8" standalone="no"?>
<!-- Created with Inkscape (http://www.inkscape.org/) -->

<svg
   version="1.1"
   id="svg1"
   width="589"
   height="450"
   viewBox="0 0 589 450"
   sodipodi:docname="BUSINESS_17.svg"
   inkscape:version="1.3.2 (091e20e, 2023-11-25, custom)"
   xmlns:inkscape="http://www.inkscape.org/namespaces/inkscape"
   xmlns:sodipodi="http://sodipodi.sourceforge.net/DTD/sodipodi-0.dtd"
   xmlns="http://www.w3.org/2000/svg"
   xmlns:svg="http://www.w3.org/2000/svg">
  <defs
     id="defs1" />
  <sodipodi:namedview
     id="namedview1"
     pagecolor="#ffffff"
     bordercolor="#000000"
     borderopacity="0.25"
     inkscape:showpageshadow="2"
     inkscape:pageopacity="0.0"
     inkscape:pagecheckerboard="0"
     inkscape:deskcolor="#d1d1d1"
     showgrid="false"
     inkscape:zoom="1.7488889"
     inkscape:cx="294.75858"
     inkscape:cy="225"
     inkscape:window-width="1920"
     inkscape:window-height="1001"
     inkscape:window-x="-9"
     inkscape:window-y="-9"
     inkscape:window-maximized="1"
     inkscape:current-layer="g1" />
  <g
     inkscape:groupmode="layer"
     inkscape:label="Image"
     id="g1">
    <g
       id="g2"
       transform="translate(-0.03641858)">
      <path
         style="fill:#fefefe"
         d="M 0,225 V 0 H 294.5 589 V 225 450 H 294.5 0 Z"
         id="path6" />
      <path
         style="fill:#9faec0"
         d="m 284.88228,448.68077 c -6.36874,-2.38387 -11.0507,-5.87689 -13.90056,-10.37065 -5.29866,-8.35511 -6.3535,-8.94609 -17.38568,-9.74036 -12.38597,-0.89173 -18.88159,-3.24382 -24.3306,-8.8102 -6.09569,-6.22698 -8.11602,-11.63263 -8.91728,-23.85935 -0.37395,-5.70615 -1.20652,-10.90143 -1.85017,-11.54508 -0.64365,-0.64365 -3.75142,-1.49277 -6.90616,-1.88692 -11.44573,-1.43005 -21.02727,-8.94417 -23.60315,-18.51026 C 187.40251,361.78108 186.49026,360 185.96146,360 185.43266,360 185,359.37378 185,358.60841 c 0,-0.76538 -1.07071,-1.66033 -2.37936,-1.98878 -4.08099,-1.02426 -12.1754,-9.17655 -14.73484,-14.8402 L 165.5,336.5 v -43 c 0,-42.90181 0.005,-43.00979 2.29034,-47.28923 4.12038,-7.71644 12.18233,-10.35391 18.98005,-6.20933 1.79872,1.09668 3.79137,3.13739 4.42812,4.5349 0.79201,1.73826 1.65428,2.33588 2.72961,1.89182 0.86453,-0.35701 3.40511,-0.87399 5.64572,-1.14883 7.95666,-0.97601 17.65431,7.0416 19.04631,15.74671 l 0.58891,3.68282 10.55103,0.64557 c 18.52643,1.13355 22.33366,0.90613 24.88016,-1.48619 l 2.26915,-2.13175 -10.42362,-6.88425 c -12.22789,-8.07588 -23.74304,-19.01018 -32.40772,-30.773 -6.80211,-9.23427 -16.20935,-27.41086 -18.19387,-35.15404 L 194.6219,184 145.56095,183.9561 c -52.721357,-0.0472 -53.102635,-0.081 -59.960613,-5.31178 -7.280341,-5.55299 -9.991426,-18.03709 -5.73068,-26.38884 2.461889,-4.8257 7.810204,-9.6647 12.330935,-11.15668 3.306579,-1.09127 3.392552,-1.26542 4.422551,-8.95848 3.273262,-24.44802 23.340547,-41.328661 47.507177,-39.963124 l 6.90902,0.390395 1.02841,-4.033801 c 5.52768,-21.681689 21.47232,-38.608444 43.44185,-46.117668 6.60215,-2.256628 9.81467,-2.745626 18.4904,-2.81455 12.51929,-0.09946 18.65399,1.255723 30,6.627122 11.39304,5.393664 23.73911,17.554644 29.20919,28.771296 4.07517,8.356328 6.7901,17.807278 6.7922,23.644345 10e-4,3.838185 0.0279,3.863435 5.84545,5.572865 11.59266,3.40638 21.48712,13.09231 26.23031,25.67751 3.22285,8.55124 2.46202,21.22856 -1.82328,30.38054 -5.48201,11.70774 -15.94976,19.85412 -29.05309,22.61015 -2.91457,0.61304 -12.6904,1.1146 -21.72405,1.1146 h -16.42484 l 3.08194,5.25 c 18.81462,32.0502 56.8548,47.687 91.82751,37.74661 13.4375,-3.81938 24.40517,-10.29733 34.63985,-20.45971 10.57227,-10.4976 15.86247,-18.8677 20.56447,-32.5369 3.09492,-8.99725 3.26936,-10.26735 3.29637,-24 0.0336,-17.08265 -1.25607,-23.03218 -7.91209,-36.5 C 380.24991,96.705683 368.76863,85.399616 351.5,77.015481 346,74.345162 338.47637,71.496976 334.78082,70.68618 L 328.06164,69.212005 327.78082,80.575918 327.5,91.939831 299.75,69.896117 C 284.4875,57.772074 272.02964,47.548112 272.06587,47.176201 272.13879,46.427615 325.62778,1.6983993 327.08592,1.1666667 327.60251,0.978283 328,5.5741128 328,11.735461 v 10.902128 l 9.39735,1.665086 c 56.0063,9.923572 97.98657,54.028837 105.12597,110.447325 0.3654,2.8875 0.73463,5.24977 0.82052,5.2495 0.0859,-2.8e-4 2.63116,-0.94967 5.65616,-2.10975 20.05664,-7.69168 45.57634,0.74353 57.84837,19.12105 10.8882,16.3052 11.16758,39.19213 0.66788,54.71273 -13.21435,19.53336 -36.50822,27.67632 -58.00968,20.27873 -7.55995,-2.601 -11.80488,-5.28698 -18.90103,-11.9596 -3.76288,-3.5383 -6.05882,-5.07368 -6.34896,-4.24579 -1.25386,3.57782 -12.95427,17.68756 -20.98971,25.31188 -9.56003,9.0709 -18.96227,15.82931 -28.51687,20.49815 -3.1625,1.54536 -5.75,3.07709 -5.75,3.40385 0,0.32676 7.0875,4.2824 15.75,8.79031 8.6625,4.5079 21.825,11.37083 29.25,15.25096 7.425,3.88012 20.925,10.90826 30,15.61808 9.075,4.70983 17.27749,9.5233 18.22776,10.69661 1.01975,1.25909 1.73688,3.87536 1.75,6.3844 0.0192,3.67537 -0.53172,4.78872 -4.0681,8.22065 -8.46982,8.21968 -21.8718,12.27483 -33.22203,10.05227 -3.97606,-0.77858 -16.93985,-6.18197 -36.27064,-15.11783 C 373.87134,317.25779 360.08638,311 359.78375,311 c -0.30263,0 -0.78242,8.8875 -1.06621,19.75 -0.54959,21.0365 -2.00857,30.29493 -7.24009,45.94431 -3.87522,11.59222 -12.4922,28.74311 -18.9944,37.80569 -8.8595,12.34812 -24.27875,30.21061 -28.13648,32.59482 -4.35894,2.69398 -14.33292,3.50666 -19.46429,1.58595 z M 475.88822,228.93946 c 6.77763,-1.5625 14.57455,-5.62825 19.71064,-10.27825 l 4.66811,-4.22632 -18.40915,-14.15966 -18.40914,-14.15967 -6.47456,-21.94644 -6.47455,-21.94644 -3.60491,1.43783 -3.60491,1.43783 -0.61247,11.70083 c -0.9251,17.67334 -4.15107,29.58203 -14.33578,52.92064 -0.81558,1.86895 9.65476,11.73626 15.74213,14.83548 10.11728,5.15093 21.60791,6.73488 31.80459,4.38417 z m 30.55454,-24.99127 c 1.49374,-3.3285 3.19672,-8.9535 3.7844,-12.5 2.26716,-13.68189 -3.42707,-29.8605 -13.86841,-39.40329 -6.68329,-6.10815 -13.16238,-9.76772 -13.85428,-7.82529 -11.06694,31.0693 -13.52937,38.38737 -13.29144,39.50069 0.31926,1.4938 31.63979,26.05565 33.40041,26.1929 0.61239,0.0477 2.33558,-2.63652 3.82932,-5.96501 z M 192.6053,177.25 c -1.2084,-3.99392 -2.5907,-15.16836 -2.59775,-21 L 190,150 h 22.85178 22.85179 l 0.60046,7.75 c 0.33025,4.2625 1.55205,10.82642 2.71511,14.58648 l 2.11465,6.83649 20.70809,-0.33649 20.70808,-0.33648 6.65984,-3.28057 c 26.57696,-13.09157 27.03416,-50.94731 0.77379,-64.06977 -3.26409,-1.63108 -7.69054,-3.26225 -9.83656,-3.62482 l -3.90185,-0.65921 -0.68644,-6.966338 c -4.29281,-43.565216 -48.85719,-68.514325 -87.81232,-49.16122 -14.85536,7.380217 -27.6517,23.740441 -31.3384,40.066397 L 154.89605,97.5 h -12.19802 c -11.14073,0 -12.69366,0.232303 -17.9161,2.68006 C 110.25184,106.99031 101,121.55321 101,137.61411 c 0,6.74321 0.22125,6.4864 -6.809103,7.90367 -6.179817,1.24581 -12.223154,9.68339 -12.163358,16.98222 0.04711,5.7505 6.906358,14.4299 12.472461,15.78212 1.1,0.26723 23.74282,0.53808 50.31739,0.60188 45.5821,0.10943 48.28741,0.0169 47.78791,-1.634 z m 279.91653,-19.01932 c 3.17507,-8.94813 5.445,-16.59813 5.04429,-17 -1.01974,-1.02271 -19.81028,-1.47338 -21.2303,-0.5092 -0.84487,0.57367 0.23587,5.52271 3.94039,18.04411 2.80751,9.4895 5.41241,16.91181 5.78866,16.49402 0.37626,-0.41779 3.28189,-8.0808 6.45696,-17.02893 z m 89.84225,75.59973 c -3.30829,-1.6019 -4.53106,-5.147 -2.68459,-7.78321 1.25474,-1.79139 2.35,-2.13495 6.07568,-1.90584 4.88869,0.30063 5.19207,-0.004 6.64854,-6.68185 l 0.66317,-3.04049 -8.78344,-2.33611 c -4.83089,-1.28485 -9.51166,-2.54111 -10.40171,-2.79169 -1.28503,-0.36177 -2.07873,1.26023 -3.85431,7.8766 -1.22981,4.5827 -2.69419,8.89468 -3.25417,9.58218 -1.82362,2.23891 -8.59597,1.51819 -11.3187,-1.20455 -2.96371,-2.9637 -3.08623,-4.66381 -0.50448,-7.00026 1.38908,-1.25711 3.12118,-1.6531 6.02111,-1.37655 4.01104,0.38252 4.08679,0.32885 5.1389,-3.6402 4.1312,-15.58486 4.66214,-17.04202 6.32849,-17.36854 2.22135,-0.43527 25.67124,5.79945 27.25969,7.24764 0.926,0.84425 0.75653,2.68291 -0.74588,8.09246 -1.06928,3.85 -2.68519,9.925 -3.59091,13.5 -0.90572,3.575 -2.32732,7.2875 -3.15911,8.25 -1.66953,1.93189 -6.46311,2.21469 -9.83828,0.58041 z M 575,208.16394 c 0,-1.47944 -1.9296,-2.3535 -9.93433,-4.5 C 553.27629,200.50256 554,200.561 554,202.77034 c 0,1.39219 2.08264,2.33438 9.75,4.4109 12.0088,3.25229 11.25,3.18601 11.25,0.9827 z M 15.444079,154.71487 c -0.271233,-0.70683 -0.36961,-9.13856 -0.218615,-18.7372 0.242123,-15.39161 0.472182,-17.49002 1.948601,-17.77356 2.501232,-0.48037 31.82795,16.74913 31.816411,18.6922 C 48.981261,138.44794 19.671659,156 17.089844,156 c -0.633938,0 -1.374532,-0.57831 -1.645765,-1.28513 z m 24.425645,-16.44575 c 2.336659,-1.45158 2.238988,-1.54869 -7,-6.96028 C 27.716376,128.29035 22.7125,125.39519 21.75,124.87515 20.124653,123.99698 20,124.85419 20,136.90949 v 12.97986 l 8.75,-5.07405 c 4.8125,-2.79073 9.816376,-5.73651 11.119724,-6.54618 z m 507.549216,4.85245 c -12.88792,-6.09707 -30.41731,-16.33093 -32.77754,-19.1359 -3.35135,-3.98284 -4.98306,-9.35091 -4.1661,-13.70571 0.85841,-4.57568 17.41557,-34.837498 21.04817,-38.470095 3.5073,-3.507303 8.6054,-5.178575 13.84511,-4.538742 4.60718,0.562593 34.31444,16.234335 38.8583,20.499273 1.49979,1.407722 3.2395,4.112731 3.86603,6.011131 2.19956,6.664723 0.69401,11.694083 -8.59691,28.718473 -10.01954,18.35947 -10.59712,19.14009 -15.996,21.61927 -5.55599,2.55132 -9.0355,2.33544 -16.08106,-0.9977 z m 17.12441,-5.23333 c 1.30091,-1.31353 4.82607,-6.87766 7.83371,-12.36474 5.36259,-9.78342 5.4369,-10.02986 3.83962,-12.73384 C 574.45719,109.81108 569.51339,107 566.0345,107 c -1.18978,0 -8.32177,1.82395 -15.84887,4.05321 -7.52709,2.22927 -14.39979,4.26131 -15.27265,4.51566 -1.14516,0.33369 -1.91752,-0.64067 -2.77407,-3.49956 C 530.6075,106.9579 526.85094,104 521.89082,104 c -3.24029,0 -4.07755,0.46042 -5.36514,2.95034 -2.03214,3.92973 -1.92448,7.83726 0.33186,12.04445 1.52942,2.85176 4.8415,5.10846 18.75,12.77537 15.86996,8.74814 17.18537,9.28741 21.7315,8.90905 3.41126,-0.28391 5.53691,-1.10739 7.20431,-2.79097 z M 552.5,105.54202 c 11.77822,-3.4075 13.40066,-3.65274 17.26313,-2.60941 2.34472,0.63335 5.80448,2.50487 7.68835,4.15893 l 3.42521,3.00738 1.17144,-2.18885 c 3.53651,-6.60803 2.89234,-12.744198 -1.7918,-17.06813 -1.51598,-1.399402 -9.55432,-6.211322 -17.86296,-10.693154 -22.43548,-12.102092 -25.02986,-11.589352 -35.09584,6.936144 -3.41136,6.278288 -5.88636,11.488208 -5.5,11.577599 0.38636,0.08939 1.95132,0.438312 3.47768,0.77538 C 528.57773,100.1672 536,106.60003 536,108.73299 c 0,0.93936 0.65428,1.32637 1.75,1.03513 0.9625,-0.25582 7.6,-2.15757 14.75,-4.2261 z m -9.57692,-8.465097 c -4.77288,-4.772879 -3.48194,-11.767125 2.76118,-14.959883 3.37243,-1.724679 5.89292,-1.343698 9.12987,1.380012 5.38665,4.532572 4.93568,12.029607 -0.90532,15.050106 -4.34142,2.245032 -7.72303,1.792462 -10.98573,-1.470235 z m 10.12651,-3.63667 c 0.92391,-1.113254 1.02477,-2.329856 0.35232,-4.25 C 551.73497,84.430435 545,85.41816 545,90.422445 c 0,4.285651 5.33685,6.28645 8.04959,3.017808 z M 51.238582,79.25 C 46.75185,68.9375 42.788725,59.710366 42.431636,58.745259 41.460182,56.119699 51.681388,44.048568 61.36379,36.386596 70.653544,29.035338 84.396503,21.908452 94.216475,19.349702 97.910537,18.387155 101.12303,17.802203 101.35534,18.049809 102.24481,18.997816 130,75.031912 130,75.879622 130,76.371 123.8125,76.990777 116.25,77.256905 95.730298,77.979002 80.488244,82.913278 66.132608,93.481296 62.756584,95.966583 59.859809,98 59.695329,98 59.530849,98 55.725313,89.5625 51.238582,79.25 Z m 31.617561,-0.310469 c 9.848881,-3.707805 20.345077,-6.001926 30.318057,-6.626528 l 9.6742,-0.605889 -12.14637,-24.316846 C 96.795799,19.550233 99.629372,21.774847 85.348127,27.485141 80.864598,29.277862 73.759582,33.120403 69.559204,36.024122 62.200208,41.111393 46.610921,56.450177 47.208892,58.01529 c 0.160109,0.419067 3.386297,7.934223 7.169306,16.700346 l 6.878198,15.938406 7.977945,-4.794885 c 4.38787,-2.637187 10.517681,-5.751019 13.621802,-6.919626 z M 80.48189,54.425169 C 74.852236,42.460448 73.881635,39.687398 75.062062,38.940482 c 0.790866,-0.500421 1.719843,-0.916747 2.064394,-0.925169 0.344551,-0.0084 3.848528,6.585446 7.786617,14.65304 7.072489,14.488747 7.453255,16.260388 3.506754,16.316334 -0.594094,0.0084 -4.166166,-6.543361 -7.937937,-14.559518 z m -9.551464,2.122334 C 68.218692,50.798629 66,45.671774 66,45.154491 66,44.39989 68.225652,43 69.425374,43 c 0.143989,0 2.637055,5.002031 5.540146,11.115624 4.218879,8.884501 5.002973,11.290062 3.906413,11.984687 -0.754563,0.477985 -1.740741,0.875954 -2.191507,0.884376 -0.450766,0.0084 -3.038266,-4.688311 -5.75,-10.437184 z M 96.159901,43.351092 c -4.103751,-8.25151 -4.999317,-10.836856 -3.977979,-11.483744 2.104268,-1.332788 3.063735,-0.545463 5.77129,4.735839 6.523888,12.72537 7.528518,15.479918 5.998718,16.447681 -0.79856,0.505178 -1.68684,0.925397 -1.97395,0.933819 -0.28711,0.0084 -2.905247,-4.776696 -5.818079,-10.633595 z M 0,90.5 C 0,88.388889 0.46666667,88 3,88 5.5333333,88 6,88.388889 6,90.5 6,92.611111 5.5333333,93 3,93 0.46666667,93 0,92.611111 0,90.5 Z m 10,0 C 10,88.309524 10.433333,88 13.5,88 16.566667,88 17,88.309524 17,90.5 17,92.690476 16.566667,93 13.5,93 10.433333,93 10,92.690476 10,90.5 Z m 11,0 v -2.553466 l 14.75,0.276733 C 49.741089,88.485762 50.5,88.602903 50.5,90.5 c 0,1.897097 -0.758911,2.014238 -14.75,2.276733 L 21,93.053466 Z m -6,-19 C 15,69.309524 15.433333,69 18.5,69 21.566667,69 22,69.309524 22,71.5 22,73.690476 21.566667,74 18.5,74 15.433333,74 15,73.690476 15,71.5 Z m 11,0 c 0,-2.111111 0.466667,-2.5 3,-2.5 2.533333,0 3,0.388889 3,2.5 0,2.111111 -0.466667,2.5 -3,2.5 -2.533333,0 -3,-0.388889 -3,-2.5 z"
         id="path5" />
      <path
         style="fill:#facb41"
         d="m 302,445 c -1.2819,-0.82843 -1.24555,-0.9716 0.25,-0.98469 0.9625,-0.008 1.75,0.43469 1.75,0.98469 0,1.21961 -0.11279,1.21961 -2,0 z m -31.51287,-10.25 c -0.54292,-1.2375 -1.99039,-2.39259 -3.21659,-2.56686 -2.42046,-0.344 -3.60471,-3.48589 -4.78059,-12.68314 -0.35159,-2.75 -0.88838,-5.675 -1.19287,-6.5 -0.53453,-1.44828 -0.6839,-2.76942 -1.10229,-9.75 -0.128,-2.13565 -0.70911,-3.25 -1.69479,-3.25 -0.825,0 -1.5,-0.49814 -1.5,-1.10699 0,-0.60884 0.57868,-0.88493 1.28595,-0.61352 0.94,0.36071 1.1761,-0.44744 0.87763,-3.00404 -0.2824,-2.41897 -0.67021,-3.0778 -1.25761,-2.13647 -0.50277,0.80572 -0.60636,-0.15117 -0.25388,-2.34529 0.32748,-2.03848 0.24329,-4.51348 -0.1871,-5.5 -0.43038,-0.98653 -0.70347,-2.15398 -0.60687,-2.59433 0.41898,-1.90989 -2.20205,-18.76091 -2.77412,-17.83528 -0.34851,0.56391 -0.67215,-0.86231 -0.71918,-3.16939 -0.047,-2.30708 -0.26086,-8.01969 -0.47517,-12.69469 -0.34115,-7.44196 -0.0931,-9.08006 1.99267,-13.16003 2.31778,-4.53377 2.3518,-4.9495 1.25551,-15.34334 -1.43175,-13.5743 -5.82143,-24.21961 -7.63322,-18.51115 -0.82509,2.59963 -4.50461,2.70676 -4.50461,0.13115 0,-2.19581 -2.57833,-3.08351 -9.01265,-3.10298 -3.65519,-0.0111 -4.86939,0.46138 -6.39007,2.48635 -1.95542,2.60386 -3.59728,3.26155 -3.59728,1.44098 0,-0.58246 0.5625,-0.73531 1.25,-0.33967 0.6875,0.39564 0.92776,0.36245 0.53391,-0.0737 -0.39385,-0.43619 0.42832,-1.69327 1.82704,-2.7935 1.93788,-1.52434 4.18062,-2.02822 9.42366,-2.11724 3.7843,-0.0643 6.11214,-0.4227 5.17297,-0.79654 -2.91123,-1.15884 -9.11991,-0.88502 -12.4897,0.55083 -3.95516,1.68527 -8.16833,6.09102 -7.24832,7.57963 0.37351,0.60434 0.13069,0.97515 -0.53958,0.82403 -2.66261,-0.60034 -3.12391,6.74346 -2.02422,32.22522 0.60526,14.025 1.09907,30.2475 1.09736,36.05 -0.002,6.87608 0.41477,10.96789 1.19688,11.75 0.93333,0.93333 0.93333,1.2 0,1.2 -0.66,0 -1.2,-0.45 -1.2,-1 0,-0.55 -0.6199,-1 -1.37756,-1 -0.75765,0 -1.85172,-0.57134 -2.43126,-1.26965 -0.64547,-0.77774 -1.50491,-15.42396 -2.21828,-37.80276 -1.03667,-32.52107 -0.99379,-36.94183 0.39051,-40.25492 1.42173,-3.4027 1.38874,-5.37022 -0.38481,-22.94724 -1.06693,-10.57399 -1.94859,-19.81449 -1.95924,-20.53445 -0.0106,-0.71996 -0.35686,-1.10064 -0.76936,-0.84596 -0.4125,0.25469 -0.82115,-0.71924 -0.90812,-2.16428 -0.17084,-2.8389 -5.78012,-8.64596 -7.39025,-7.65085 C 204.42823,251.85337 204,251.64148 204,251.05902 204,250.47656 202.40757,250 200.46128,250 c -4.80642,0 -11.67681,6.21873 -11.84571,10.72213 -0.0636,1.6947 -0.45307,2.87394 -0.86557,2.62055 -0.4125,-0.25339 -0.75,4.29084 -0.75,10.0983 0,6.37268 0.39647,10.55902 1,10.55902 0.55,0 1,-0.675 1,-1.5 0,-0.825 0.45,-1.5 1,-1.5 0.55,0 1,0.4132 1,0.91821 0,0.50502 0.2861,1.66378 0.63578,2.57502 0.47265,1.23171 0.15193,1.57341 -1.25,1.33179 -1.68804,-0.29094 -1.91717,0.46141 -2.18518,7.17498 -0.5342,13.38194 1.57289,63.17349 2.72202,64.32262 0.59256,0.59256 1.04575,2.22488 1.00709,3.62738 -0.0633,2.29508 -0.15071,2.35006 -0.87486,0.55 -0.44252,-1.1 -0.58881,-2.37072 -0.32508,-2.82382 0.26374,-0.45311 -0.45634,-0.23938 -1.60017,0.47495 -4.30256,2.687 -4.55514,1.05565 -5.79833,-37.45096 -0.6428,-19.91009 -1.2122,-41.60017 -1.26531,-48.20017 -0.0533,-6.62205 -0.46236,-11.42352 -0.91274,-10.71368 -0.49376,0.77821 -0.78397,-0.30765 -0.73469,-2.7489 0.052,-2.57755 0.54573,-4.03562 1.36665,-4.03632 0.96194,-8.2e-4 1.02414,0.48668 0.2473,1.93821 -0.59543,1.11257 -0.6559,2.17539 -0.14186,2.49309 0.87264,0.53932 2.44762,-3.42219 2.55734,-6.4324 0.0301,-0.825 0.633,-1.5 1.33983,-1.5 1.40115,0 3.31821,-2.51947 2.69022,-3.53559 -0.21452,-0.34709 0.15267,-0.67302 0.81598,-0.72429 0.6633,-0.0513 3.23101,-0.83995 5.70601,-1.75261 12.07812,-4.45383 23.26333,5.29682 24.73854,21.56571 0.4168,4.5965 0.80008,5.7357 1.50561,4.47499 0.52056,-0.93019 0.74033,-2.47957 0.48837,-3.44307 -0.25196,-0.96349 0.081,-1.75181 0.73993,-1.75181 0.89888,0 0.94759,1.01968 0.1951,4.08334 -0.82681,3.36619 -1.07456,23.50965 -0.2987,24.28551 0.12609,0.1261 2.42095,-0.88031 5.09968,-2.23646 7.45815,-3.77579 19.76187,-3.00397 23.26851,1.45964 1.06548,1.35627 1.20417,1.22793 1,-0.92536 -0.19648,-2.07223 0.14795,-2.44647 2.01296,-2.18714 2.28537,0.31777 2.84403,-1.3659 2.42646,-7.31286 -0.12509,-1.78136 0.004,-1.74257 1.18284,0.35483 0.7278,1.29516 1.11724,3.43266 0.86541,4.75 -0.33032,1.72796 -0.008,2.39517 1.15871,2.39517 0.88912,0 3.41658,1.8 5.61658,4 4.5678,4.5678 5.40584,3.71747 1.19765,-1.2152 -7.97003,-9.34215 -11.71056,-16.37042 -8.78098,-16.49902 0.59583,-0.0262 1.75833,-0.25241 2.58333,-0.50278 0.825,-0.25036 1.18042,-0.27244 0.78982,-0.049 -0.75342,0.43089 8.93524,14.26604 9.99041,14.26604 0.34087,0 0.0798,-0.54 -0.58023,-1.2 -0.66,-0.66 -1.2,-1.59214 -1.2,-2.07143 0,-0.47928 0.675,-0.19643 1.5,0.62857 0.825,0.825 1.5,2.11156 1.5,2.85902 0,2.95193 14.30901,14.48003 21.12558,17.01989 0.89407,0.33313 2.78678,0.003 4.20602,-0.73306 2.62585,-1.36231 6.6684,-0.99031 6.6684,0.61364 0,0.48585 -1.6875,0.89705 -3.75,0.91378 -3.2222,0.0261 -3.48254,0.18571 -1.84971,1.1338 1.04516,0.60686 3.81107,1.15568 6.14645,1.21959 2.33539,0.0639 4.00088,0.51894 3.70109,1.01119 -0.30923,0.50774 0.70911,0.58504 2.35355,0.17865 1.59424,-0.39398 4.47362,-0.88705 6.39862,-1.09571 3.2509,-0.35238 3.28649,-0.328 0.5,0.34255 -1.98035,0.47656 -2.5795,0.987 -1.7628,1.50183 2.96822,1.8711 32.85701,-3.61169 30.1042,-5.52231 -0.92892,-0.64473 -0.66387,-0.74095 0.86197,-0.31292 1.21185,0.33995 4.42366,-0.0413 7.13735,-0.84714 3.62234,-1.07572 5.22977,-1.16945 6.04663,-0.35259 2.37874,2.37874 0.90172,3.72378 -6.4279,5.85349 -4.88284,1.41877 -7.08569,2.47958 -6.25,3.00977 0.96862,0.61452 0.87479,0.82258 -0.37612,0.83408 -0.91666,0.008 -1.81666,0.40583 -2,0.88313 -0.18333,0.47729 -1.45833,1.20745 -2.83333,1.62257 l -2.5,0.75476 2.40301,-2.12257 c 1.32166,-1.16742 2.22166,-2.11724 2,-2.11071 -0.22166,0.007 -2.87801,0.67927 -5.90301,1.49499 -3.025,0.81572 -9.2125,1.77676 -13.75,2.13566 -5.94506,0.47022 -8.25,1.0304 -8.25,2.00501 0,0.74386 -0.45,1.35247 -1,1.35247 -0.55,0 -1,-0.66643 -1,-1.48095 0,-1.63906 -2.46609,-2.44904 -8.5,-2.79182 -2.2,-0.12498 -4.225,-0.47452 -4.5,-0.77677 -0.84807,-0.93211 -11.99833,-4.75677 -11.49543,-3.94307 0.50158,0.81158 -2.82659,1.95611 -5.75457,1.97896 -1.21432,0.009 -1.75,-0.76967 -1.75,-2.54537 0,-1.4316 -0.43552,-2.28985 -0.98855,-1.94806 -0.57203,0.35354 -0.73136,-0.0592 -0.37816,-0.97968 0.40566,-1.05712 -0.68828,-2.73765 -3.26145,-5.01031 -2.12951,-1.88082 -4.27003,-3.43841 -4.7567,-3.4613 -0.48667,-0.0229 0.30083,0.89103 1.75,2.03095 3.3073,2.60152 3.35283,3.92742 0.13486,3.92742 -1.83333,0 -2.5,0.53333 -2.5,2 0,1.33333 -0.66667,2 -2,2 -1.30931,0 -2,0.66667 -2,1.93045 0,1.22823 -0.80355,2.04669 -2.20901,2.25 -1.35648,0.19623 -2.4758,1.28437 -2.90032,2.81955 -0.64356,2.32731 -0.6982,2.27958 -0.79099,-0.69098 -0.0548,-1.75504 0.35032,-3.4691 0.90032,-3.80902 0.55,-0.33992 1,-2.58992 1,-5 0,-5.79366 -1.96756,-7.02031 -2.09968,-1.30902 -0.0869,3.75767 -0.2118,3.98914 -0.97591,1.80902 -0.66443,-1.89573 -0.76651,-1.41231 -0.42234,2 1.20074,11.90463 1.82032,15.05717 2.88189,14.66368 0.61382,-0.22752 1.04104,-0.80743 0.94937,-1.28868 -0.0917,-0.48125 0.80834,-0.93275 2,-1.00333 12.87706,-0.76269 14.26353,-0.64472 18.60398,1.58283 2.44052,1.2525 4.93033,2.78762 5.53291,3.41138 2.82403,2.92331 5.46679,7.60295 6.86166,12.15021 0.84085,2.74115 1.56016,4.38927 1.59847,3.66248 0.0567,-1.07478 0.325,-1.06608 1.43772,0.0466 1.99434,1.99434 2.72793,5.05387 1.62441,6.77479 -0.75006,1.16971 -0.96523,0.90746 -0.97717,-1.19098 -0.008,-1.48004 -0.53094,-3.00966 -1.16115,-3.39916 -0.79386,-0.49063 -0.95954,0.0342 -0.53934,1.70836 0.33358,1.32909 1.1115,4.77121 1.72871,7.64916 0.61721,2.87794 1.35869,5.23262 1.64774,5.23262 0.28905,0 0.23373,-1.1627 -0.12294,-2.58379 -0.42051,-1.67543 -0.28284,-2.3578 0.39159,-1.94098 0.57204,0.35354 1.04008,1.51625 1.04008,2.58379 0,1.27431 0.68694,1.94098 2,1.94098 1.55556,0 2,0.66667 2,3 0,2.33333 -0.44444,3 -2,3 -2.08944,0 -2.48728,1.90216 -1.12365,5.37251 0.67871,1.72729 0.8616,1.74668 2.35828,0.25 C 309.48488,371.37227 312,371.5715 312,374 c 0,1.55556 -0.66667,2 -3,2 -1.65,0 -3.00577,0.3375 -3.01282,0.75 -0.007,0.4125 0.76847,4.08984 1.72336,8.17186 1.37603,5.8823 1.87359,6.91948 2.39858,5 0.43331,-1.58425 0.6309,-0.6926 0.57131,2.57814 -0.0501,2.75 1.40896,11.23781 3.24236,18.8618 2.75968,11.47582 3.09624,14.01204 1.95533,14.73469 -1.16051,0.73505 -1.15442,0.8753 0.0385,0.8882 0.77916,0.008 1.1552,0.27677 0.83564,0.59633 C 315.77818,428.55515 312,426.03079 312,424.4058 c 0,-0.8972 -0.47476,-1.23042 -1.15451,-0.81031 -0.70914,0.43827 -0.88331,0.27472 -0.45149,-0.42397 1.05124,-1.70096 -0.41616,-8.27586 -1.67359,-7.49873 -0.66808,0.4129 -0.81766,0.023 -0.40438,-1.05396 0.7687,-2.00321 -5.30588,-28.74314 -6.37899,-28.07992 -0.40011,0.24728 -0.99447,-0.24618 -1.3208,-1.09659 -0.33976,-0.8854 -0.17086,-1.28509 0.39521,-0.93524 C 301.55515,384.8431 302,384.38992 302,383.5 c 0,-0.92843 -0.47186,-1.32641 -1.10713,-0.93379 -0.74112,0.45804 -0.8893,-0.002 -0.44822,-1.39181 0.84656,-2.66729 -1.14416,-10.32946 -3.07237,-11.82533 -0.893,-0.69277 -1.38988,-2.4841 -1.24823,-4.5 0.45692,-6.50236 -0.0391,-8.84833 -1.87405,-8.86438 -1.31799,-0.0115 -1.42599,-0.22079 -0.4375,-0.84765 1.06517,-0.67548 0.93889,-2.29071 -0.67007,-8.57142 -1.928,-7.52606 -3.12657,-10.36609 -3.15774,-7.48229 -0.0126,1.16647 -0.18652,1.15175 -0.98469,-0.0833 -1.35439,-2.09576 -1.23419,-3.25174 0.25,-2.40436 0.6875,0.39253 -0.0828,-0.71749 -1.71175,-2.46671 -1.62896,-1.74922 -3.56483,-2.94897 -4.30193,-2.66612 -0.83007,0.31853 -1.06767,0.0733 -0.62421,-0.6442 0.47816,-0.77368 0.16325,-0.94638 -0.94807,-0.51993 -0.91522,0.3512 -1.66404,0.20267 -1.66404,-0.33006 0,-1.06437 -7.18851,-1.29282 -10.73875,-0.34128 -1.23132,0.33002 -1.99544,0.99373 -1.69806,1.4749 0.29737,0.48117 -0.0912,0.63237 -0.8635,0.33601 -0.81715,-0.31357 -2.73949,0.98199 -4.5982,3.09894 -2.45931,2.801 -3.08821,4.30901 -2.73409,6.55594 0.26768,1.69849 0.0626,2.67265 -0.49058,2.33074 -1.35379,-0.83669 -1.01871,4.66811 1.42375,23.39019 1.3768,10.55348 2.41113,15.6735 2.92924,14.5 0.52306,-1.18471 0.60327,-0.81118 0.23118,1.07667 -0.31335,1.5899 -0.23342,5.4149 0.17763,8.5 0.67961,5.10076 0.81553,5.33731 1.49937,2.60927 0.47626,-1.89997 0.60184,-0.61661 0.34247,3.5 -0.25439,4.0376 -0.11097,5.55292 0.37857,4 l 0.78811,-2.5 0.78344,2.37485 c 0.50571,1.53296 0.35984,2.63665 -0.41149,3.11335 -0.92383,0.57096 -0.89757,2.98162 0.11575,10.62516 1.01827,7.68096 1.4619,9.21735 1.9885,6.88664 0.37634,-1.66564 0.51895,0.0425 0.32064,3.84033 -0.26345,5.04537 -0.0405,6.7192 0.84942,6.37871 0.74461,-0.28487 1.28691,0.63775 1.41634,2.40967 0.25279,3.46057 0.0649,3.55604 -1.22261,0.62129 z m 17.00579,-121.73855 c 0.3629,-0.58718 -0.0858,-0.72119 -1.10503,-0.33006 -1.12883,0.43318 -1.47918,0.27534 -1.02393,-0.46128 0.38213,-0.61829 -0.21617,-1.60583 -1.33595,-2.20512 -2.45494,-1.31385 -2.62481,-0.33193 -0.37302,2.15627 1.86043,2.05576 2.94053,2.29221 3.83793,0.84019 z m -27.70978,-8.93404 c -0.0543,-1.90883 -0.69701,-3.08313 -1.85297,-3.38542 -1.67632,-0.43837 -1.6816,-0.28519 -0.10002,2.89799 0.91842,1.84845 1.75225,3.37188 1.85297,3.38542 0.10071,0.0135 0.14572,-1.29057 0.10002,-2.89799 z M 248,299.55902 c 0,-0.24254 -0.45,-0.7191 -1,-1.05902 -0.55,-0.33992 -1,-0.14148 -1,0.44098 0,0.58246 0.45,1.05902 1,1.05902 0.55,0 1,-0.19844 1,-0.44098 z m 8,-0.93658 c 0,-0.20765 -0.7875,-0.99515 -1.75,-1.75 -1.58606,-1.24387 -1.62143,-1.2085 -0.37756,0.37756 1.30637,1.66575 2.12756,2.19548 2.12756,1.37244 z M 312.15789,435 c 0,-1.375 0.22698,-1.9375 0.50439,-1.25 0.27741,0.6875 0.27741,1.8125 0,2.5 -0.27741,0.6875 -0.50439,0.125 -0.50439,-1.25 z M 270,428.5 c 0,-0.825 0.17686,-1.5 0.39301,-1.5 0.21616,0 0.65203,0.675 0.96862,1.5 0.31658,0.825 0.13972,1.5 -0.39301,1.5 C 270.43588,430 270,429.325 270,428.5 Z m -9.37646,-6.03866 c -0.34295,-0.8937 -0.57093,-3.50061 -0.50664,-5.79313 0.11577,-4.12785 0.12559,-4.1159 1.01378,1.23468 0.89988,5.42101 0.65804,7.59486 -0.50714,4.55845 z M 317,419.94098 c 0,-0.58246 0.45,-0.7809 1,-0.44098 0.55,0.33992 1,0.81648 1,1.05902 0,0.24254 -0.45,0.44098 -1,0.44098 -0.55,0 -1,-0.47656 -1,-1.05902 z M 328,415 c 0,-0.55 0.675,-1 1.5,-1 0.825,0 1.5,0.45 1.5,1 0,0.55 -0.675,1 -1.5,1 -0.825,0 -1.5,-0.45 -1.5,-1 z m -59,-4.55902 c 0,-0.85746 -0.3827,-1.32249 -0.85045,-1.0334 -0.46775,0.28908 -0.80525,-0.69686 -0.75,-2.19099 0.0765,-2.06817 0.67155,-2.79733 2.4931,-3.05483 2.20271,-0.3114 2.34163,-0.0832 1.75,2.875 C 271.28919,408.80404 271,410.64375 271,411.125 c 0,0.48125 -0.45,0.875 -1,0.875 -0.55,0 -1,-0.70156 -1,-1.55902 z m 46.07895,-0.0243 c 0.048,-1.16495 0.28494,-1.4019 0.60416,-0.60417 0.28887,0.72187 0.25335,1.58438 -0.0789,1.91667 -0.33229,0.33229 -0.56864,-0.25834 -0.52522,-1.3125 z M 333,410 c 0.5887,-1.1 1.29537,-2 1.57037,-2 0.275,0 0.0183,0.9 -0.57037,2 -0.5887,1.1 -1.29537,2 -1.57037,2 -0.275,0 -0.0183,-0.9 0.57037,-2 z m -27.92105,-4.66821 c -0.0434,-0.64252 -0.33793,-1.99252 -0.65446,-3 -0.54705,-1.74122 -0.51883,-1.7434 0.57078,-0.0441 0.63045,0.98322 0.92496,2.33322 0.65445,3 -0.35498,0.87499 -0.51379,0.88727 -0.57077,0.0441 z m -49,-17.91512 c 0.048,-1.16495 0.28494,-1.4019 0.60416,-0.60417 0.28887,0.72187 0.25335,1.58438 -0.0789,1.91667 -0.33229,0.33229 -0.56864,-0.25834 -0.52522,-1.3125 z m -33,-6 c 0.048,-1.16495 0.28494,-1.4019 0.60416,-0.60417 0.28887,0.72187 0.25335,1.58438 -0.0789,1.91667 -0.3323,0.33229 -0.56864,-0.25834 -0.52522,-1.3125 z M 223.15789,376 c 0,-1.375 0.22698,-1.9375 0.50439,-1.25 0.27741,0.6875 0.27741,1.8125 0,2.5 -0.27741,0.6875 -0.50439,0.125 -0.50439,-1.25 z m 39.93589,-1.32476 c -0.86204,-1.61075 -0.9668,-3.37116 -0.34209,-5.7485 l 0.90046,-3.42674 0.72386,5.36674 c 0.82699,6.13142 0.49256,7.12472 -1.28223,3.8085 z M 351,373.05902 c 0,-0.51754 0.44485,-1.21592 0.98855,-1.55194 0.56686,-0.35034 0.7345,0.0511 0.39301,0.94098 C 351.71677,374.18048 351,374.49745 351,373.05902 Z M 261.232,366 c 0,-1.925 0.2058,-2.7125 0.45733,-1.75 0.25152,0.9625 0.25152,2.5375 0,3.5 -0.25153,0.9625 -0.45733,0.175 -0.45733,-1.75 z m 91.3783,-2.5 c 0.82247,-3.67693 1.39483,-4.47511 1.37439,-1.91667 -0.008,1.05417 -0.47209,2.59167 -1.03038,3.41667 -0.74131,1.09546 -0.83408,0.69092 -0.34401,-1.5 z M 223.15789,362 c 0,-1.375 0.22698,-1.9375 0.50439,-1.25 0.27741,0.6875 0.27741,1.8125 0,2.5 -0.27741,0.6875 -0.50439,0.125 -0.50439,-1.25 z M 260,358 c 0,-1.1 0.45,-2 1,-2 0.55,0 1,0.9 1,2 0,1.1 -0.45,2 -1,2 -0.55,0 -1,-0.9 -1,-2 z m -0.92105,-5.58333 c 0.048,-1.16495 0.28494,-1.4019 0.60416,-0.60417 0.28887,0.72187 0.25335,1.58438 -0.0789,1.91667 -0.33229,0.33229 -0.56864,-0.25834 -0.52522,-1.3125 z M 190.64185,349.25 c -0.81064,-4.90434 -0.8265,-28.76799 -0.0186,-27.96007 0.56345,0.56345 1.41792,31.71007 0.86993,31.71007 -0.12733,0 -0.51043,-1.6875 -0.85134,-3.75 z m 22.52812,0.75 c 0.0162,-0.825 0.38968,-2.625 0.83003,-4 0.64363,-2.00973 0.8064,-2.10779 0.83003,-0.5 0.0162,1.1 -0.35734,2.9 -0.83003,4 -0.52653,1.22531 -0.84804,1.41898 -0.83003,0.5 z m 8.84534,-3.25 c 0.008,-1.7875 0.45153,-3.925 0.98469,-4.75 0.70111,-1.08489 0.97361,-0.18547 0.98469,3.25 0.008,2.6125 -0.43469,4.75 -0.98469,4.75 -0.55,0 -0.99311,-1.4625 -0.98469,-3.25 z m -41.34967,-1.67181 C 179.73463,340.42316 179.80416,340 181.5,340 c 1.61208,0 1.8998,3.11868 0.59535,6.45319 -0.64702,1.65396 -0.86605,1.44331 -1.42971,-1.375 z M 181.19495,336.5 c 0.0204,-1.65 0.2445,-2.20394 0.49804,-1.23097 0.25354,0.97297 0.23687,2.32297 -0.0371,3 -0.27393,0.67703 -0.48137,-0.11903 -0.46099,-1.76903 z M 430.75,337.29427 c 1.2375,-0.23836 3.2625,-0.23836 4.5,0 1.2375,0.23835 0.225,0.43337 -2.25,0.43337 -2.475,0 -3.4875,-0.19502 -2.25,-0.43337 z m 12.0625,0.0226 c 0.72187,-0.28887 1.58438,-0.25335 1.91667,0.0789 0.33229,0.33229 -0.25834,0.56864 -1.3125,0.52522 -1.16495,-0.048 -1.4019,-0.28494 -0.60417,-0.60416 z m -157.66926,-2.2072 c -0.83426,-0.52861 -0.97089,-1.09817 -0.35479,-1.47895 0.55109,-0.34059 1.26001,0.0532 1.57538,0.875 0.66263,1.72679 0.60022,1.75767 -1.22059,0.60395 z m 129.45977,0.057 c -0.28327,-0.45834 0.12038,-0.83334 0.89699,-0.83334 0.77661,0 1.18026,0.375 0.89699,0.83334 C 416.11373,335.625 415.71008,336 415.5,336 c -0.21008,0 -0.61373,-0.375 -0.89699,-0.83333 z M 252.33333,333.5747 c 0,-0.78391 0.80206,-1.36488 1.78236,-1.29103 1.33829,0.10081 1.5154,0.45591 0.71089,1.42529 -1.40924,1.69803 -2.49325,1.63966 -2.49325,-0.13426 z m -85.25438,-1.15803 c 0.048,-1.16495 0.28494,-1.4019 0.60416,-0.60417 0.28887,0.72187 0.25335,1.58438 -0.0789,1.91667 -0.3323,0.33229 -0.56864,-0.25834 -0.52522,-1.3125 z M 222.15789,330 c 0,-1.375 0.22698,-1.9375 0.50439,-1.25 0.27741,0.6875 0.27741,1.8125 0,2.5 -0.27741,0.6875 -0.50439,0.125 -0.50439,-1.25 z M 272.5,331 c -2.81549,-0.71642 -2.73861,-0.77065 1.25,-0.88169 2.3375,-0.0651 4.25,0.33169 4.25,0.88169 0,1.11719 -1.1095,1.11719 -5.5,0 z m -105.24782,-4.5 c 0.0111,-2.2 0.21589,-2.98225 0.45508,-1.73834 0.23919,1.24391 0.23011,3.04391 -0.0202,4 -0.25029,0.95609 -0.446,-0.0617 -0.4349,-2.26166 z M 408,329 c 0,-0.55 0.45,-1 1,-1 0.55,0 1,0.45 1,1 0,0.55 -0.45,1 -1,1 -0.55,0 -1,-0.45 -1,-1 z m -186.84211,-7 c 0,-1.375 0.22698,-1.9375 0.50439,-1.25 0.27741,0.6875 0.27741,1.8125 0,2.5 -0.27741,0.6875 -0.50439,0.125 -0.50439,-1.25 z M 279,322 c 0,-0.55 0.45,-1 1,-1 0.55,0 1,0.45 1,1 0,0.55 -0.45,1 -1,1 -0.55,0 -1,-0.45 -1,-1 z m -98.885,-7.75 c -0.0658,-3.57667 0.31273,-6.25 0.885,-6.25 1.18146,0 1.2015,2.96861 0.0574,8.5 -0.79046,3.82154 -0.8325,3.72116 -0.94237,-2.25 z M 212.5,319 c 0.33992,-0.55 0.81648,-1 1.05902,-1 0.24254,0 0.44098,0.45 0.44098,1 0,0.55 -0.47656,1 -1.05902,1 -0.58246,0 -0.7809,-0.45 -0.44098,-1 z m 11.97288,-1.74795 c 0.73954,-2.94657 1.28212,-3.83334 1.93882,-3.16872 0.77569,0.78507 -0.64382,5.91667 -1.63669,5.91667 -0.58247,0 -0.70717,-1.13416 -0.30213,-2.74795 z M 253.15789,318 c 0,-1.375 0.22698,-1.9375 0.50439,-1.25 0.27741,0.6875 0.27741,1.8125 0,2.5 -0.27741,0.6875 -0.50439,0.125 -0.50439,-1.25 z M 288,318.7 c 0,-1.44095 1.95378,-3.7 3.2,-3.7 0.44,0 0.8,1.125 0.8,2.5 0,1.83333 -0.53333,2.5 -2,2.5 -1.1,0 -2,-0.585 -2,-1.3 z m 7.5,0.3 c -0.33992,-0.55 -0.14148,-1 0.44098,-1 0.58246,0 1.05902,0.45 1.05902,1 0,0.55 -0.19844,1 -0.44098,1 -0.24254,0 -0.7191,-0.45 -1.05902,-1 z m 41.3125,0.31689 c 0.72187,-0.28887 1.58438,-0.25335 1.91667,0.0789 0.33229,0.33229 -0.25834,0.56864 -1.3125,0.52522 -1.16495,-0.048 -1.4019,-0.28494 -0.60417,-0.60416 z m -145.73355,-1.90022 c 0.048,-1.16495 0.28494,-1.4019 0.60416,-0.60417 0.28887,0.72187 0.25335,1.58438 -0.0789,1.91667 -0.3323,0.33229 -0.56864,-0.25834 -0.52522,-1.3125 z m 30.48647,-3.13544 c 0.19009,-2.62968 0.37252,-5.23123 0.40541,-5.78123 0.0329,-0.55 0.49601,-0.325 1.02917,0.5 1.43742,2.22425 1.2026,7.58697 -0.3901,8.90879 -1.16044,0.96308 -1.33299,0.36379 -1.04448,-3.62756 z M 169,315 c 0,-0.55 1.575,-1 3.5,-1 1.925,0 3.5,0.45 3.5,1 0,0.55 -1.575,1 -3.5,1 -1.925,0 -3.5,-0.45 -3.5,-1 z m 20.37407,-11.5 c 0.002,-6.05 0.16696,-8.39607 0.36601,-5.21349 0.19905,3.18258 0.1972,8.13258 -0.004,11 -0.20131,2.86742 -0.36417,0.26349 -0.36191,-5.78651 z M 370.5,313 c -0.33992,-0.55 0.33508,-1 1.5,-1 1.16492,0 1.83992,0.45 1.5,1 -0.33992,0.55 -1.01492,1 -1.5,1 -0.48508,0 -1.16008,-0.45 -1.5,-1 z m -41.6875,-0.68311 c 0.72187,-0.28887 1.58438,-0.25335 1.91667,0.0789 0.33229,0.33229 -0.25834,0.56864 -1.3125,0.52522 -1.16495,-0.048 -1.4019,-0.28494 -0.60417,-0.60416 z m 121.74514,-1.22363 c -0.30822,-0.49871 0.34022,-0.67122 1.44098,-0.38337 2.33499,0.61061 2.63015,1.29011 0.5604,1.29011 -0.79254,0 -1.69316,-0.40803 -2.00138,-0.90674 z M 339,309.05742 c 0,-0.51842 0.96089,-0.75753 2.13531,-0.53136 C 344.36708,309.14844 344.67407,310 341.66667,310 340.2,310 339,309.57584 339,309.05742 Z m -51.3717,-3.84983 c -0.26936,-0.43583 0.38881,-0.8586 1.46259,-0.93948 1.07379,-0.0809 1.69105,0.2757 1.37171,0.79241 -0.70856,1.14648 -2.16978,1.22229 -2.8343,0.14707 z m -71.54935,-4.79092 c 0.048,-1.16495 0.28494,-1.4019 0.60416,-0.60417 0.28887,0.72187 0.25335,1.58438 -0.0789,1.91667 -0.3323,0.33229 -0.56864,-0.25834 -0.52522,-1.3125 z m 64.03533,-0.34604 c -0.85973,-0.53135 -0.96201,-1.0467 -0.29014,-1.46194 0.57071,-0.35272 1.33882,-0.15403 1.7069,0.44153 0.91846,1.4861 0.188,2.0122 -1.41676,1.02041 z m -99.49074,-5.60929 c -0.34295,-0.8937 -0.55887,-4.85061 -0.47983,-8.79313 l 0.1437,-7.16821 0.74909,8.5 c 0.76778,8.7122 0.67945,10.30813 -0.41296,7.46134 z m 92.88354,-0.44989 c -0.35034,-0.56686 0.0511,-0.7345 0.94098,-0.39301 1.73242,0.66479 2.04939,1.38156 0.61096,1.38156 -0.51754,0 -1.21592,-0.44485 -1.55194,-0.98855 z M 223,290.8 c 0,-2.35847 0.29401,-2.90599 1.11798,-2.08202 0.63092,0.63092 2.5914,0.87888 4.5,0.56916 4.53566,-0.73603 4.42405,1.29479 -0.11798,2.14688 -1.925,0.36113 -3.5,1.08622 -3.5,1.61129 0,0.52508 -0.45,0.95469 -1,0.95469 -0.55,0 -1,-1.44 -1,-3.2 z m 11.76166,-1.50726 c 1.24391,-0.23919 3.04391,-0.23011 4,0.0202 0.95609,0.25029 -0.0617,0.446 -2.26166,0.4349 -2.2,-0.0111 -2.98225,-0.21589 -1.73834,-0.45508 z m 8.05084,0.0242 c 0.72187,-0.28887 1.58437,-0.25335 1.91667,0.0789 0.33229,0.33229 -0.25834,0.56864 -1.3125,0.52522 -1.16495,-0.048 -1.4019,-0.28494 -0.60417,-0.60416 z m 158.21852,-3.13268 c -1.89682,-2.02453 -0.9059,-2.0807 3.46898,-0.19664 3.98709,1.71706 3.98994,1.72228 0.8819,1.61752 -1.71496,-0.0578 -3.67285,-0.69719 -4.35088,-1.42088 z m -178.39036,-2.39455 c -0.33734,-1.25931 -0.57019,-3.41466 -0.51744,-4.78966 0.0565,-1.47317 0.45333,-0.67762 0.96611,1.93691 0.91858,4.68359 0.59422,6.74593 -0.44867,2.85275 z M 213.25218,281.5 c 0.0111,-2.2 0.21589,-2.98225 0.45508,-1.73834 0.23919,1.24391 0.23011,3.04391 -0.0202,4 -0.25029,0.95609 -0.446,-0.0617 -0.4349,-2.26166 z M 168,283 c 0,-0.55 1.8,-1 4,-1 2.2,0 4,0.45 4,1 0,0.55 -1.8,1 -4,1 -2.2,0 -4,-0.45 -4,-1 z m 132.58003,-4.25 c 0.40256,-1.26991 0.004,-1.75 -1.45363,-1.75 -1.1046,0 -2.31839,-0.50163 -2.69732,-1.11474 -0.4187,-0.67749 -2.54395,-0.93651 -5.41805,-0.66034 -3.03022,0.29116 -5.38726,-0.0269 -6.56119,-0.88526 C 283.44218,273.60285 281.38031,273 279.86789,273 c -1.51242,0 -3.02797,-0.45 -3.36789,-1 -0.33992,-0.55 -1.67898,-1 -2.97568,-1 -1.29671,0 -2.58463,-0.5625 -2.86204,-1.25 -0.30132,-0.74674 -0.53617,-0.54544 -0.58333,0.5 -0.0434,0.9625 -0.80209,1.75 -1.68594,1.75 -1.01759,0 -1.39587,-0.55016 -1.03138,-1.5 0.39697,-1.0345 -0.0644,-1.5 -1.48663,-1.5 -1.22124,0 -2.27553,-0.81562 -2.58525,-2 -0.37352,-1.42835 -1.36402,-2 -3.4654,-2 -1.70694,0 -2.68289,-0.41988 -2.32435,-1 0.33992,-0.55 0.0665,-1 -0.60765,-1 -0.67413,0 -0.94325,-0.28243 -0.59806,-0.62762 0.34519,-0.3452 -4.06582,-3.7274 -9.80225,-7.51601 -12.23373,-8.07973 -23.74802,-19.01257 -32.41398,-30.77713 -6.80211,-9.23427 -16.20935,-27.41086 -18.19387,-35.15404 L 194.6219,184 147.06095,183.97555 C 118.20759,183.96072 97.729974,183.54722 95,182.92429 c -17.468399,-3.98597 -23.07335,-26.47538 -9.406073,-37.7411 2.118723,-1.74643 5.235928,-3.63199 6.927123,-4.19014 2.950576,-0.97378 3.123213,-1.34792 4.269879,-9.25393 0.760452,-5.24314 2.325643,-10.54111 4.304371,-14.56972 7.8199,-15.92105 25.98423,-26.319811 43.51656,-24.912484 l 6.15323,0.493922 2.65346,-8.053887 c 3.50781,-10.647009 8.55658,-18.756994 16.66222,-26.764996 7.51462,-7.4241 18.58706,-13.738155 28.91923,-16.491188 8.53376,-2.273841 23.43067,-2.301932 32,-0.06034 C 249.0493,46.101815 265.04418,58.951929 272.84719,75 277.31814,84.195185 280,93.24268 280,99.130643 c 0,3.375157 0.29368,3.774017 3.25,4.413997 10.61769,2.29849 21.60673,11.35633 26.95313,22.21641 3.09717,6.29124 3.29687,7.33546 3.29687,17.23895 0,9.86179 -0.20866,10.96591 -3.23363,17.11049 -3.92741,7.97771 -12.02813,15.97546 -19.77209,19.52076 -7.23714,3.31327 -14.84342,4.32423 -32.71833,4.34864 L 243.05189,184 l 3.08194,5.25 c 18.81462,32.0502 56.8548,47.687 91.82751,37.74661 13.4375,-3.81938 24.40517,-10.29733 34.63985,-20.45971 10.57227,-10.4976 15.86247,-18.8677 20.56447,-32.5369 3.09492,-8.99725 3.26936,-10.26735 3.29637,-24 0.0336,-17.08265 -1.25607,-23.03218 -7.91209,-36.5 C 380.24991,96.705683 368.76863,85.399616 351.5,77.015481 346,74.345162 338.47637,71.496976 334.78082,70.68618 L 328.06164,69.212005 327.78082,80.575918 327.5,91.939831 299.75,69.896117 C 284.4875,57.772074 272.02964,47.548112 272.06587,47.176201 272.13879,46.427615 325.62778,1.6983993 327.08592,1.1666667 327.60251,0.978283 328,5.5741128 328,11.735461 v 10.902128 l 9.39735,1.665086 c 56.0063,9.923572 97.98657,54.028837 105.12597,110.447325 0.3654,2.8875 0.75023,5.25 0.85518,5.25 0.10495,0 2.8742,-0.94313 6.15389,-2.09585 24.82049,-8.7237 52.5008,4.20942 62.56426,29.23202 3.05144,7.58735 3.75452,22.42407 1.43994,30.38597 -2.47378,8.50951 -6.04922,15.03815 -11.37072,20.76261 -19.31817,20.78099 -49.93257,21.69467 -71.1018,2.12203 -4.03538,-3.73104 -6.54946,-5.42908 -6.82529,-4.60991 -1.18173,3.50945 -12.90086,17.65377 -20.97191,25.31188 -9.56715,9.07766 -18.96247,15.82938 -28.53964,20.50932 -3.58347,1.75108 -5.58641,3.30653 -5.28138,4.10141 0.27026,0.70429 -0.1756,1.28052 -0.9908,1.28052 -0.8152,0 -2.37608,0.45 -3.46862,1 -1.09254,0.55 -2.88032,1.45 -3.97286,2 -1.09254,0.55 -2.9191,1 -4.05902,1 -1.13992,0 -1.79447,0.45 -1.45455,1 0.35698,0.5776 -0.58962,1 -2.24098,1 -1.57246,0 -3.28652,0.40391 -3.80902,0.89757 -0.87855,0.83007 -2.72971,1.18835 -14.08249,2.72557 -3.21335,0.4351 -4.03601,0.92852 -3.69869,2.21843 0.39075,1.49425 -1.15785,1.65885 -15.60487,1.65865 -14.81953,-2e-4 -15.9965,-0.13324 -15.48392,-1.75022 z m 8.66997,-1.41228 c -0.6875,-0.27741 -1.8125,-0.27741 -2.5,0 -0.6875,0.27741 -0.125,0.50439 1.25,0.50439 1.375,0 1.9375,-0.22698 1.25,-0.50439 z m 16.51791,-0.0523 c -1.50265,-0.22817 -4.20265,-0.23276 -6,-0.0102 -1.79735,0.22256 -0.56791,0.40925 2.73209,0.41486 3.3,0.006 4.77056,-0.17648 3.26791,-0.40466 z m 153.41918,-49.26154 c 6.93384,-2.14164 13.66745,-6.16641 18.14547,-10.84579 l 2.83256,-2.95993 -12.83256,-9.92366 C 480.27465,198.83654 472.025,192.51405 469,190.24457 l -5.5,-4.12632 -6.41456,-22.05913 C 453.55744,151.92661 450.53521,142 450.36937,142 c -0.16583,0 -1.82801,0.72793 -3.69372,1.61763 l -3.39221,1.61763 -0.60932,11.63237 c -0.92045,17.5721 -4.23153,29.78532 -14.31881,52.81619 -0.7247,1.65462 6.82019,9.57861 12.73319,13.37297 10.77049,6.91141 25.56072,8.8397 38.09859,4.96714 z m 27.21937,-23.62446 c 8.3929,-16.79649 4.45896,-38.59269 -9.34131,-51.75591 -5.85591,-5.5856 -13.56546,-10.2611 -14.47993,-8.78145 -0.59349,0.96029 -13.25783,36.88634 -13.75934,39.03234 -0.36472,1.56065 33.25361,28.18863 34.35303,27.20992 0.3734,-0.3324 1.82579,-2.89961 3.22755,-5.7049 z M 192.6053,177.25 c -1.2084,-3.99392 -2.5907,-15.16836 -2.59775,-21 L 190,150 h 22.85178 22.85179 l 0.60046,7.75 c 0.33025,4.2625 1.55,10.81977 2.71054,14.57172 l 2.11009,6.82171 20.68767,-0.32171 c 20.36644,-0.31672 20.78447,-0.36643 26.92198,-3.20124 7.55208,-3.48818 14.34964,-10.41309 18.06398,-18.40241 2.2209,-4.77701 2.65841,-7.11697 2.65841,-14.21807 0,-7.1011 -0.43751,-9.44106 -2.65841,-14.21807 -4.95485,-10.65759 -14.19145,-18.30373 -25.63867,-21.22394 l -4.56652,-1.16493 -1.22454,-8.482402 C 271.55531,71.496419 254.87927,52.235167 230.40399,45.975445 196.90078,37.406766 163.12913,58.322388 155.8785,92.130947 c -0.5722,2.668083 -1.43247,5.093394 -1.91171,5.389579 -0.47924,0.296186 -3.59718,0.09954 -6.92876,-0.436999 -12.5611,-2.022906 -25.42524,2.448018 -34.54066,12.004583 -7.76767,8.14359 -10.77834,15.10387 -11.31632,26.16189 -0.27102,5.57072 -0.83543,8.75203 -1.553369,8.75558 -0.620225,0.003 -2.801206,0.47036 -4.846626,1.03843 -11.953947,3.31993 -16.585466,18.41448 -8.482047,27.64376 5.590162,6.36684 4.324872,6.23004 58.018382,6.27309 46.03808,0.0369 48.78724,-0.0605 48.28791,-1.71086 z M 472.34638,159.33845 C 475.45587,150.4496 478,142.70749 478,142.13376 c 0,-2.30389 -19.88532,-3.64909 -22.04222,-1.4911 -0.47595,0.47618 1.43708,8.74404 4.30301,18.59699 2.83795,9.7568 5.44613,17.4068 5.79595,17 0.34981,-0.40681 3.18015,-8.01235 6.28964,-16.9012 z M 291.5,279 c 0.33992,-0.55 -0.0835,-1 -0.94098,-1 C 289.70156,278 289,277.58909 289,277.08686 c 0,-0.50641 1.30862,-0.41918 2.93799,0.19583 2.96131,1.11777 3.22265,2.71731 0.44398,2.71731 -0.825,0 -1.22189,-0.45 -0.88197,-1 z m -111.17186,-7.5 c 0.004,-3.85 0.18518,-5.30246 0.40166,-3.2277 0.21647,2.07477 0.21284,5.22477 -0.008,7 -0.22091,1.77524 -0.39803,0.0777 -0.39359,-3.7723 z m 31.99775,-1.5 c -0.0637,-6.68894 0.0337,-7.09447 0.90069,-3.75 0.59745,2.30477 0.62498,5.19523 0.0714,7.5 -0.79718,3.31905 -0.90889,2.8881 -0.9721,-3.75 z M 167,272.5 c 0,-0.825 0.43588,-1.5 0.96862,-1.5 0.53273,0 0.70959,0.675 0.39301,1.5 -0.31659,0.825 -0.75246,1.5 -0.96862,1.5 C 167.17686,274 167,273.325 167,272.5 Z m 2,-5.5 c 0,-0.55 1.575,-1 3.5,-1 1.925,0 3.5,0.45 3.5,1 0,0.55 -1.575,1 -3.5,1 -1.925,0 -3.5,-0.45 -3.5,-1 z m -1.84211,-6 c 0,-1.375 0.22698,-1.9375 0.50439,-1.25 0.27741,0.6875 0.27741,1.8125 0,2.5 -0.27741,0.6875 -0.50439,0.125 -0.50439,-1.25 z m 23.50878,1.33333 C 190.3,261.96667 190,260.76667 190,259.66667 c 0,-2.50768 1.3222,-1.33008 1.51992,1.3537 0.16143,2.19118 0.10768,2.27389 -0.85325,1.31296 z m 2.83888,-8.33946 c 0.99854,-1.10337 2.02185,-1.7998 2.27403,-1.54762 0.54163,0.54162 -2.30894,3.55375 -3.36314,3.55375 -0.39953,0 0.0906,-0.90276 1.08911,-2.00613 z m -21.55139,-8.07952 c -0.61391,-1.1471 -0.85474,-2.3471 -0.53518,-2.66666 0.31956,-0.31956 0.58102,-0.056 0.58102,0.58564 0,0.64167 0.9,1.16667 2,1.16667 1.11111,0 2,0.66667 2,1.5 0,2.21905 -2.75851,1.81975 -4.04584,-0.58565 z M 173,240.60699 c 0,-0.21616 0.69837,-0.661 1.55194,-0.98855 0.88992,-0.34149 1.29132,-0.17385 0.94098,0.39301 C 174.90566,240.96166 173,241.4169 173,240.60699 Z m 388.63486,-7.67957 c -2.93135,-2.3058 -3.45613,-6.00094 -1.12679,-7.93412 0.93341,-0.77466 3.16139,-1.06523 5.84686,-0.76254 l 4.33878,0.48904 1.26071,-4.91901 c 0.69338,-2.70545 1.0998,-5.07519 0.90314,-5.26609 -0.19666,-0.1909 -4.8051,-1.55621 -10.24099,-3.03402 -6.8024,-1.8493 -10.09308,-2.3477 -10.55595,-1.59877 -0.36988,0.59848 -1.49415,4.35289 -2.49837,8.34312 -1.00423,3.99023 -2.52756,7.81747 -3.38519,8.50497 -2.07384,1.66246 -5.63779,1.58023 -9.09962,-0.20995 -3.46416,-1.79139 -4.35615,-4.69713 -2.32992,-7.58997 1.2843,-1.8336 2.21975,-2.10116 5.89699,-1.68668 l 4.37055,0.49262 1.4413,-5.12801 c 0.79272,-2.8204 2.17127,-7.71551 3.06343,-10.87801 1.1525,-4.08529 2.10823,-5.7464 3.30117,-5.73758 0.92347,0.007 5.72904,1.13875 10.67904,2.51538 4.95,1.37662 10.6875,2.96337 12.75,3.52612 2.90034,0.79134 3.7476,1.52423 3.73943,3.23462 -0.0207,4.31987 -7.00993,27.21468 -8.68864,28.46146 -2.515,1.86789 -6.69811,1.51191 -9.66593,-0.82258 z M 575,208.1316 c 0,-1.50828 -1.82837,-2.37562 -9.4861,-4.5 C 554.22243,200.49916 554,200.48395 554,202.8443 c 0,1.47504 1.85205,2.35672 9.25,4.40352 11.42703,3.16154 11.75,3.18584 11.75,0.88378 z M 15.606989,154.41821 c -0.935209,-2.43711 -0.688307,-33.74157 0.278151,-35.2666 1.214669,-1.91671 1.964131,-1.59801 18.395079,7.82222 9.7791,5.60657 14.683878,8.97408 14.495495,9.95228 -0.278794,1.44766 -29.167013,18.9456 -31.418725,19.03069 -0.628656,0.0238 -1.416156,-0.6686 -1.75,-1.53859 z M 35.24331,141.22102 c 3.708821,-2.04656 6.746321,-3.96267 6.75,-4.25803 0.006,-0.48505 -5.972786,-4.10346 -17.74331,-10.73832 L 20,123.82901 v 13.14218 13.14217 l 4.25,-2.58566 c 2.3375,-1.42211 7.28449,-4.26012 10.99331,-6.30668 z m 514.97866,3.33042 c -7.06132,-3.18481 -31.85072,-16.98015 -34.06698,-18.95834 -3.53745,-3.15744 -5.38362,-7.42947 -5.46222,-12.63956 -0.0612,-4.05591 1.11696,-6.89864 8.73274,-21.070989 9.46232,-17.608626 12.98046,-22.20137 18.36899,-23.979745 5.81454,-1.918972 10.57119,-0.454918 26.47846,8.149834 18.93898,10.2447 20.30911,11.207826 22.74968,15.991737 3.77462,7.398861 2.95642,10.608423 -7.72962,30.321033 -7.64833,14.10892 -10.43898,18.36457 -13.27205,20.23941 -4.61408,3.05345 -11.47159,3.89838 -15.799,1.94662 z m 13.68901,-6.12999 c 1.68544,-1.4182 5.56886,-7.24756 8.62983,-12.95413 5.53361,-10.31632 5.55536,-10.39091 3.80789,-13.05789 -1.88544,-2.87755 -6.85602,-5.41671 -10.56658,-5.3978 -1.25517,0.006 -8.92121,1.9802 -17.03564,4.38624 l -14.75353,4.37462 -1.90294,-4.3019 c -2.083,-4.70898 -5.00113,-7.10281 -9.83761,-8.07011 -2.79013,-0.55803 -3.37336,-0.25086 -5.19399,2.73545 -1.12801,1.85024 -2.05093,4.93907 -2.05093,6.86407 0,6.76358 2.57196,9.11495 20.6675,18.89486 19.12688,10.33731 22.72015,11.16788 28.236,6.52659 z m -14.59171,-31.8474 c 17.221,-5.06738 20.5636,-5.07315 27.14835,-0.0469 l 4.62082,3.52715 2.00154,-4.5248 c 2.49469,-5.639671 1.7854,-10.518824 -2.08199,-14.321804 -1.51445,-1.489233 -9.79365,-6.473135 -18.39822,-11.075339 C 539.61057,67.831107 537.62463,68.215059 527.25,86.968634 523.8125,93.182392 521,98.38136 521,98.521897 c 0,0.140536 1.58462,0.552798 3.52138,0.916136 3.85791,0.723747 10.02581,5.559937 10.99817,8.623557 0.33837,1.06612 0.96212,1.93841 1.38611,1.93841 0.42398,0 6.01011,-1.54168 12.41361,-3.42595 z m -4.97384,-8.505055 c -6.02748,-3.675314 -5.31101,-12.43385 1.27268,-15.558016 7.80168,-3.702139 15.56747,4.080992 11.86239,11.888871 -2.61725,5.515447 -7.75395,6.95033 -13.13507,3.669145 z M 552.8,93.8 c 2.805,-2.804997 0.69173,-7.8 -3.3,-7.8 -1.155,0 -2.64,0.54 -3.3,1.2 -1.2834,1.283397 -1.63817,6.028496 -0.53333,7.133333 C 546.7715,95.438171 551.5166,95.083397 552.8,93.8 Z M 56.146379,90.236544 C 54.301887,85.981445 50.297015,76.778565 47.246663,69.7857 L 41.700568,57.071401 45.587663,52.2857 C 59.005628,35.765816 79.543574,22.47368 97.711184,18.551414 l 3.211186,-0.693274 14.53881,29.064264 C 123.45753,62.907749 130,76.106341 130,76.252609 c 0,0.146267 -5.2875,0.345753 -11.75,0.443301 -19.478819,0.294022 -40.094598,6.999577 -53.082207,17.265692 -2.809927,2.221119 -5.234695,4.032343 -5.388375,4.024942 -0.15368,-0.0074 -1.788547,-3.494901 -3.633039,-7.75 z M 73.5,83.538909 C 84.536647,77.273026 104.70353,72 117.63099,72 120.58395,72 123,71.768792 123,71.486205 123,71.203618 117.57271,60.148858 110.93935,46.92007 L 98.878706,22.86773 95.689353,23.548881 c -5.259989,1.123377 -14.72439,5.244002 -22.075808,9.611399 -6.779024,4.027345 -20.847289,16.550501 -24.750721,22.032367 l -1.972118,2.769583 7.194878,16.528299 7.194877,16.528298 3.10977,-2.036756 C 66.100604,87.861855 70.2,85.412432 73.5,83.538909 Z m 7.235295,-28.745446 c -5.994711,-12.577146 -6.595004,-14.362326 -5.27381,-15.68352 0.819993,-0.819992 1.72043,-1.261362 2.000971,-0.98082 0.280541,0.280541 3.613428,7.003755 7.406414,14.940476 6.611349,13.834067 7.078192,15.879328 3.63113,15.908132 -0.55,0.0046 -4.044117,-6.378325 -7.764705,-14.184268 z m -9.77854,1.516156 c -4.448642,-9.502862 -4.837929,-10.857017 -3.504469,-12.190477 0.825052,-0.825052 1.70232,-1.297869 1.949485,-1.050704 0.247165,0.247164 2.675475,5.170379 5.396246,10.940476 3.482016,7.384513 4.652257,10.86123 3.951975,11.741086 C 78.202807,66.4375 77.351507,67 76.858214,67 76.364921,67 73.709265,62.189328 70.956755,56.309619 Z M 96.298402,43.629578 c -3.832799,-7.7067 -4.867417,-10.660563 -4.02798,-11.5 C 92.89169,31.50831 93.755897,31 94.190883,31 c 0.434985,0 3.068304,4.538293 5.851817,10.085097 4.01608,8.002972 4.81851,10.377211 3.88668,11.5 C 103.28353,53.363293 102.4628,54 102.10553,54 101.74827,54 99.135058,49.33331 96.298402,43.629578 Z M 0,90.5 C 0,88.388889 0.46666667,88 3,88 5.5333333,88 6,88.388889 6,90.5 6,92.611111 5.5333333,93 3,93 0.46666667,93 0,92.611111 0,90.5 Z m 10.361532,0.999754 C 9.5145902,89.292659 11.251794,87.757446 14.134665,88.165335 15.721778,88.389892 16.5,89.158022 16.5,90.5 c 0,2.612861 -5.194797,3.458921 -6.138468,0.999754 z M 21,90.5 V 88 H 35.5 50 V 90.5 93 H 35.5 21 Z M 15.361532,72.499754 C 14.51459,70.292659 16.251794,68.757446 19.134665,69.165335 20.721778,69.389892 21.5,70.158022 21.5,71.5 c 0,2.612861 -5.194797,3.458921 -6.138468,0.999754 z M 26,71.5 c 0,-2.111111 0.466667,-2.5 3,-2.5 2.533333,0 3,0.388889 3,2.5 0,2.111111 -0.466667,2.5 -3,2.5 -2.533333,0 -3,-0.388889 -3,-2.5 z"
         id="path4" />
      <path
         style="fill:#9eabb8"
         d="m 302,445 c -1.2819,-0.82843 -1.24555,-0.9716 0.25,-0.98469 0.9625,-0.008 1.75,0.43469 1.75,0.98469 0,1.21961 -0.11279,1.21961 -2,0 z m -31.51287,-10.25 c -0.54292,-1.2375 -1.99039,-2.39259 -3.21659,-2.56686 -2.42046,-0.344 -3.60471,-3.48589 -4.78059,-12.68314 -0.35159,-2.75 -0.88838,-5.675 -1.19287,-6.5 -0.53453,-1.44828 -0.6839,-2.76942 -1.10229,-9.75 -0.128,-2.13565 -0.70911,-3.25 -1.69479,-3.25 -0.825,0 -1.5,-0.49814 -1.5,-1.10699 0,-0.60884 0.57868,-0.88493 1.28595,-0.61352 0.94,0.36071 1.1761,-0.44744 0.87763,-3.00404 -0.2824,-2.41897 -0.67021,-3.0778 -1.25761,-2.13647 -0.50277,0.80572 -0.60636,-0.15117 -0.25388,-2.34529 0.32748,-2.03848 0.24329,-4.51348 -0.1871,-5.5 -0.43038,-0.98653 -0.70347,-2.15398 -0.60687,-2.59433 0.41898,-1.90989 -2.20205,-18.76091 -2.77412,-17.83528 -0.34851,0.56391 -0.67215,-0.86231 -0.71918,-3.16939 -0.047,-2.30708 -0.26086,-8.01969 -0.47517,-12.69469 -0.34115,-7.44196 -0.0931,-9.08006 1.99267,-13.16003 2.31778,-4.53377 2.3518,-4.9495 1.25551,-15.34334 -1.43175,-13.5743 -5.82143,-24.21961 -7.63322,-18.51115 -0.82509,2.59963 -4.50461,2.70676 -4.50461,0.13115 0,-2.19581 -2.57833,-3.08351 -9.01265,-3.10298 -3.65519,-0.0111 -4.86939,0.46138 -6.39007,2.48635 -1.95542,2.60386 -3.59728,3.26155 -3.59728,1.44098 0,-0.58246 0.5625,-0.73531 1.25,-0.33967 0.6875,0.39564 0.92776,0.36245 0.53391,-0.0737 -0.39385,-0.43619 0.42832,-1.69327 1.82704,-2.7935 1.93788,-1.52434 4.18062,-2.02822 9.42366,-2.11724 3.7843,-0.0643 6.11214,-0.4227 5.17297,-0.79654 -2.91123,-1.15884 -9.11991,-0.88502 -12.4897,0.55083 -3.95516,1.68527 -8.16833,6.09102 -7.24832,7.57963 0.37351,0.60434 0.13069,0.97515 -0.53958,0.82403 -2.66261,-0.60034 -3.12391,6.74346 -2.02422,32.22522 0.60526,14.025 1.09907,30.2475 1.09736,36.05 -0.002,6.87608 0.41477,10.96789 1.19688,11.75 0.93333,0.93333 0.93333,1.2 0,1.2 -0.66,0 -1.2,-0.45 -1.2,-1 0,-0.55 -0.6199,-1 -1.37756,-1 -0.75765,0 -1.85172,-0.57134 -2.43126,-1.26965 -0.64547,-0.77774 -1.50491,-15.42396 -2.21828,-37.80276 -1.03667,-32.52107 -0.99379,-36.94183 0.39051,-40.25492 1.42173,-3.4027 1.38874,-5.37022 -0.38481,-22.94724 -1.06693,-10.57399 -1.94859,-19.81449 -1.95924,-20.53445 -0.0106,-0.71996 -0.35686,-1.10064 -0.76936,-0.84596 -0.4125,0.25469 -0.82115,-0.71924 -0.90812,-2.16428 -0.17084,-2.8389 -5.78012,-8.64596 -7.39025,-7.65085 C 204.42823,251.85337 204,251.64148 204,251.05902 204,250.47656 202.40757,250 200.46128,250 c -4.80642,0 -11.67681,6.21873 -11.84571,10.72213 -0.0636,1.6947 -0.45307,2.87394 -0.86557,2.62055 -0.4125,-0.25339 -0.75,4.29084 -0.75,10.0983 0,6.37268 0.39647,10.55902 1,10.55902 0.55,0 1,-0.675 1,-1.5 0,-0.825 0.45,-1.5 1,-1.5 0.55,0 1,0.4132 1,0.91821 0,0.50502 0.2861,1.66378 0.63578,2.57502 0.47265,1.23171 0.15193,1.57341 -1.25,1.33179 -1.68804,-0.29094 -1.91717,0.46141 -2.18518,7.17498 -0.5342,13.38194 1.57289,63.17349 2.72202,64.32262 0.59256,0.59256 1.04575,2.22488 1.00709,3.62738 -0.0633,2.29508 -0.15071,2.35006 -0.87486,0.55 -0.44252,-1.1 -0.58881,-2.37072 -0.32508,-2.82382 0.26374,-0.45311 -0.45634,-0.23938 -1.60017,0.47495 -4.30256,2.687 -4.55514,1.05565 -5.79833,-37.45096 -0.6428,-19.91009 -1.2122,-41.60017 -1.26531,-48.20017 -0.0533,-6.62205 -0.46236,-11.42352 -0.91274,-10.71368 -0.49376,0.77821 -0.78397,-0.30765 -0.73469,-2.7489 0.052,-2.57755 0.54573,-4.03562 1.36665,-4.03632 0.96194,-8.2e-4 1.02414,0.48668 0.2473,1.93821 -0.59543,1.11257 -0.6559,2.17539 -0.14186,2.49309 0.87264,0.53932 2.44762,-3.42219 2.55734,-6.4324 0.0301,-0.825 0.633,-1.5 1.33983,-1.5 1.40115,0 3.31821,-2.51947 2.69022,-3.53559 -0.21452,-0.34709 0.15267,-0.67302 0.81598,-0.72429 0.6633,-0.0513 3.23101,-0.83995 5.70601,-1.75261 12.07812,-4.45383 23.26333,5.29682 24.73854,21.56571 0.4168,4.5965 0.80008,5.7357 1.50561,4.47499 0.52056,-0.93019 0.74033,-2.47957 0.48837,-3.44307 -0.25196,-0.96349 0.081,-1.75181 0.73993,-1.75181 0.89888,0 0.94759,1.01968 0.1951,4.08334 -0.82681,3.36619 -1.07456,23.50965 -0.2987,24.28551 0.12609,0.1261 2.42095,-0.88031 5.09968,-2.23646 7.45815,-3.77579 19.76187,-3.00397 23.26851,1.45964 1.06548,1.35627 1.20417,1.22793 1,-0.92536 -0.19648,-2.07223 0.14795,-2.44647 2.01296,-2.18714 2.28537,0.31777 2.84403,-1.3659 2.42646,-7.31286 -0.12509,-1.78136 0.004,-1.74257 1.18284,0.35483 0.7278,1.29516 1.11724,3.43266 0.86541,4.75 -0.33032,1.72796 -0.008,2.39517 1.15871,2.39517 0.88912,0 3.41658,1.8 5.61658,4 4.5678,4.5678 5.40584,3.71747 1.19765,-1.2152 -7.97003,-9.34215 -11.71056,-16.37042 -8.78098,-16.49902 0.59583,-0.0262 1.75833,-0.25241 2.58333,-0.50278 0.825,-0.25036 1.18042,-0.27244 0.78982,-0.049 -0.75342,0.43089 8.93524,14.26604 9.99041,14.26604 0.34087,0 0.0798,-0.54 -0.58023,-1.2 -0.66,-0.66 -1.2,-1.59214 -1.2,-2.07143 0,-0.47928 0.675,-0.19643 1.5,0.62857 0.825,0.825 1.5,2.11156 1.5,2.85902 0,2.95193 14.30901,14.48003 21.12558,17.01989 0.89407,0.33313 2.78678,0.003 4.20602,-0.73306 2.62585,-1.36231 6.6684,-0.99031 6.6684,0.61364 0,0.48585 -1.6875,0.89705 -3.75,0.91378 -3.2222,0.0261 -3.48254,0.18571 -1.84971,1.1338 1.04516,0.60686 3.81107,1.15568 6.14645,1.21959 2.33539,0.0639 4.00088,0.51894 3.70109,1.01119 -0.30923,0.50774 0.70911,0.58504 2.35355,0.17865 1.59424,-0.39398 4.47362,-0.88705 6.39862,-1.09571 3.2509,-0.35238 3.28649,-0.328 0.5,0.34255 -1.98035,0.47656 -2.5795,0.987 -1.7628,1.50183 2.96822,1.8711 32.85701,-3.61169 30.1042,-5.52231 -0.92892,-0.64473 -0.66387,-0.74095 0.86197,-0.31292 1.21185,0.33995 4.42366,-0.0413 7.13735,-0.84714 3.62234,-1.07572 5.22977,-1.16945 6.04663,-0.35259 2.37874,2.37874 0.90172,3.72378 -6.4279,5.85349 -4.88284,1.41877 -7.08569,2.47958 -6.25,3.00977 0.96862,0.61452 0.87479,0.82258 -0.37612,0.83408 -0.91666,0.008 -1.81666,0.40583 -2,0.88313 -0.18333,0.47729 -1.45833,1.20745 -2.83333,1.62257 l -2.5,0.75476 2.40301,-2.12257 c 1.32166,-1.16742 2.22166,-2.11724 2,-2.11071 -0.22166,0.007 -2.87801,0.67927 -5.90301,1.49499 -3.025,0.81572 -9.2125,1.77676 -13.75,2.13566 -5.94506,0.47022 -8.25,1.0304 -8.25,2.00501 0,0.74386 -0.45,1.35247 -1,1.35247 -0.55,0 -1,-0.66643 -1,-1.48095 0,-1.63906 -2.46609,-2.44904 -8.5,-2.79182 -2.2,-0.12498 -4.225,-0.47452 -4.5,-0.77677 -0.84807,-0.93211 -11.99833,-4.75677 -11.49543,-3.94307 0.50158,0.81158 -2.82659,1.95611 -5.75457,1.97896 -1.21432,0.009 -1.75,-0.76967 -1.75,-2.54537 0,-1.4316 -0.43552,-2.28985 -0.98855,-1.94806 -0.57203,0.35354 -0.73136,-0.0592 -0.37816,-0.97968 0.40566,-1.05712 -0.68828,-2.73765 -3.26145,-5.01031 -2.12951,-1.88082 -4.27003,-3.43841 -4.7567,-3.4613 -0.48667,-0.0229 0.30083,0.89103 1.75,2.03095 3.3073,2.60152 3.35283,3.92742 0.13486,3.92742 -1.83333,0 -2.5,0.53333 -2.5,2 0,1.33333 -0.66667,2 -2,2 -1.30931,0 -2,0.66667 -2,1.93045 0,1.22823 -0.80355,2.04669 -2.20901,2.25 -1.35648,0.19623 -2.4758,1.28437 -2.90032,2.81955 -0.64356,2.32731 -0.6982,2.27958 -0.79099,-0.69098 -0.0548,-1.75504 0.35032,-3.4691 0.90032,-3.80902 0.55,-0.33992 1,-2.58992 1,-5 0,-5.79366 -1.96756,-7.02031 -2.09968,-1.30902 -0.0869,3.75767 -0.2118,3.98914 -0.97591,1.80902 -0.66443,-1.89573 -0.76651,-1.41231 -0.42234,2 1.20074,11.90463 1.82032,15.05717 2.88189,14.66368 0.61382,-0.22752 1.04104,-0.80743 0.94937,-1.28868 -0.0917,-0.48125 0.80834,-0.93275 2,-1.00333 12.87706,-0.76269 14.26353,-0.64472 18.60398,1.58283 2.44052,1.2525 4.93033,2.78762 5.53291,3.41138 2.82403,2.92331 5.46679,7.60295 6.86166,12.15021 0.84085,2.74115 1.56016,4.38927 1.59847,3.66248 0.0567,-1.07478 0.325,-1.06608 1.43772,0.0466 1.99434,1.99434 2.72793,5.05387 1.62441,6.77479 -0.75006,1.16971 -0.96523,0.90746 -0.97717,-1.19098 -0.008,-1.48004 -0.53094,-3.00966 -1.16115,-3.39916 -0.79386,-0.49063 -0.95954,0.0342 -0.53934,1.70836 0.33358,1.32909 1.1115,4.77121 1.72871,7.64916 0.61721,2.87794 1.35869,5.23262 1.64774,5.23262 0.28905,0 0.23373,-1.1627 -0.12294,-2.58379 -0.42051,-1.67543 -0.28284,-2.3578 0.39159,-1.94098 0.57204,0.35354 1.04008,1.51625 1.04008,2.58379 0,1.27431 0.68694,1.94098 2,1.94098 1.55556,0 2,0.66667 2,3 0,2.33333 -0.44444,3 -2,3 -2.08944,0 -2.48728,1.90216 -1.12365,5.37251 0.67871,1.72729 0.8616,1.74668 2.35828,0.25 C 309.48488,371.37227 312,371.5715 312,374 c 0,1.55556 -0.66667,2 -3,2 -1.65,0 -3.00577,0.3375 -3.01282,0.75 -0.007,0.4125 0.76847,4.08984 1.72336,8.17186 1.37603,5.8823 1.87359,6.91948 2.39858,5 0.43331,-1.58425 0.6309,-0.6926 0.57131,2.57814 -0.0501,2.75 1.40896,11.23781 3.24236,18.8618 2.75968,11.47582 3.09624,14.01204 1.95533,14.73469 -1.16051,0.73505 -1.15442,0.8753 0.0385,0.8882 0.77916,0.008 1.1552,0.27677 0.83564,0.59633 C 315.77818,428.55515 312,426.03079 312,424.4058 c 0,-0.8972 -0.47476,-1.23042 -1.15451,-0.81031 -0.70914,0.43827 -0.88331,0.27472 -0.45149,-0.42397 1.05124,-1.70096 -0.41616,-8.27586 -1.67359,-7.49873 -0.66808,0.4129 -0.81766,0.023 -0.40438,-1.05396 0.7687,-2.00321 -5.30588,-28.74314 -6.37899,-28.07992 -0.40011,0.24728 -0.99447,-0.24618 -1.3208,-1.09659 -0.33976,-0.8854 -0.17086,-1.28509 0.39521,-0.93524 C 301.55515,384.8431 302,384.38992 302,383.5 c 0,-0.92843 -0.47186,-1.32641 -1.10713,-0.93379 -0.74112,0.45804 -0.8893,-0.002 -0.44822,-1.39181 0.84656,-2.66729 -1.14416,-10.32946 -3.07237,-11.82533 -0.893,-0.69277 -1.38988,-2.4841 -1.24823,-4.5 0.45692,-6.50236 -0.0391,-8.84833 -1.87405,-8.86438 -1.31799,-0.0115 -1.42599,-0.22079 -0.4375,-0.84765 1.06517,-0.67548 0.93889,-2.29071 -0.67007,-8.57142 -1.928,-7.52606 -3.12657,-10.36609 -3.15774,-7.48229 -0.0126,1.16647 -0.18652,1.15175 -0.98469,-0.0833 -1.35439,-2.09576 -1.23419,-3.25174 0.25,-2.40436 0.6875,0.39253 -0.0828,-0.71749 -1.71175,-2.46671 -1.62896,-1.74922 -3.56483,-2.94897 -4.30193,-2.66612 -0.83007,0.31853 -1.06767,0.0733 -0.62421,-0.6442 0.47816,-0.77368 0.16325,-0.94638 -0.94807,-0.51993 -0.91522,0.3512 -1.66404,0.20267 -1.66404,-0.33006 0,-1.06437 -7.18851,-1.29282 -10.73875,-0.34128 -1.23132,0.33002 -1.99544,0.99373 -1.69806,1.4749 0.29737,0.48117 -0.0912,0.63237 -0.8635,0.33601 -0.81715,-0.31357 -2.73949,0.98199 -4.5982,3.09894 -2.45931,2.801 -3.08821,4.30901 -2.73409,6.55594 0.26768,1.69849 0.0626,2.67265 -0.49058,2.33074 -1.35379,-0.83669 -1.01871,4.66811 1.42375,23.39019 1.3768,10.55348 2.41113,15.6735 2.92924,14.5 0.52306,-1.18471 0.60327,-0.81118 0.23118,1.07667 -0.31335,1.5899 -0.23342,5.4149 0.17763,8.5 0.67961,5.10076 0.81553,5.33731 1.49937,2.60927 0.47626,-1.89997 0.60184,-0.61661 0.34247,3.5 -0.25439,4.0376 -0.11097,5.55292 0.37857,4 l 0.78811,-2.5 0.78344,2.37485 c 0.50571,1.53296 0.35984,2.63665 -0.41149,3.11335 -0.92383,0.57096 -0.89757,2.98162 0.11575,10.62516 1.01827,7.68096 1.4619,9.21735 1.9885,6.88664 0.37634,-1.66564 0.51895,0.0425 0.32064,3.84033 -0.26345,5.04537 -0.0405,6.7192 0.84942,6.37871 0.74461,-0.28487 1.28691,0.63775 1.41634,2.40967 0.25279,3.46057 0.0649,3.55604 -1.22261,0.62129 z m 17.00579,-121.73855 c 0.3629,-0.58718 -0.0858,-0.72119 -1.10503,-0.33006 -1.12883,0.43318 -1.47918,0.27534 -1.02393,-0.46128 0.38213,-0.61829 -0.21617,-1.60583 -1.33595,-2.20512 -2.45494,-1.31385 -2.62481,-0.33193 -0.37302,2.15627 1.86043,2.05576 2.94053,2.29221 3.83793,0.84019 z m -27.70978,-8.93404 c -0.0543,-1.90883 -0.69701,-3.08313 -1.85297,-3.38542 -1.67632,-0.43837 -1.6816,-0.28519 -0.10002,2.89799 0.91842,1.84845 1.75225,3.37188 1.85297,3.38542 0.10071,0.0135 0.14572,-1.29057 0.10002,-2.89799 z M 248,299.55902 c 0,-0.24254 -0.45,-0.7191 -1,-1.05902 -0.55,-0.33992 -1,-0.14148 -1,0.44098 0,0.58246 0.45,1.05902 1,1.05902 0.55,0 1,-0.19844 1,-0.44098 z m 8,-0.93658 c 0,-0.20765 -0.7875,-0.99515 -1.75,-1.75 -1.58606,-1.24387 -1.62143,-1.2085 -0.37756,0.37756 1.30637,1.66575 2.12756,2.19548 2.12756,1.37244 z M 312.15789,435 c 0,-1.375 0.22698,-1.9375 0.50439,-1.25 0.27741,0.6875 0.27741,1.8125 0,2.5 -0.27741,0.6875 -0.50439,0.125 -0.50439,-1.25 z M 270,428.5 c 0,-0.825 0.17686,-1.5 0.39301,-1.5 0.21616,0 0.65203,0.675 0.96862,1.5 0.31658,0.825 0.13972,1.5 -0.39301,1.5 C 270.43588,430 270,429.325 270,428.5 Z m -9.37646,-6.03866 c -0.34295,-0.8937 -0.57093,-3.50061 -0.50664,-5.79313 0.11577,-4.12785 0.12559,-4.1159 1.01378,1.23468 0.89988,5.42101 0.65804,7.59486 -0.50714,4.55845 z M 317,419.94098 c 0,-0.58246 0.45,-0.7809 1,-0.44098 0.55,0.33992 1,0.81648 1,1.05902 0,0.24254 -0.45,0.44098 -1,0.44098 -0.55,0 -1,-0.47656 -1,-1.05902 z M 328,415 c 0,-0.55 0.675,-1 1.5,-1 0.825,0 1.5,0.45 1.5,1 0,0.55 -0.675,1 -1.5,1 -0.825,0 -1.5,-0.45 -1.5,-1 z m -59,-4.55902 c 0,-0.85746 -0.3827,-1.32249 -0.85045,-1.0334 -0.46775,0.28908 -0.80525,-0.69686 -0.75,-2.19099 0.0765,-2.06817 0.67155,-2.79733 2.4931,-3.05483 2.20271,-0.3114 2.34163,-0.0832 1.75,2.875 C 271.28919,408.80404 271,410.64375 271,411.125 c 0,0.48125 -0.45,0.875 -1,0.875 -0.55,0 -1,-0.70156 -1,-1.55902 z m 46.07895,-0.0243 c 0.048,-1.16495 0.28494,-1.4019 0.60416,-0.60417 0.28887,0.72187 0.25335,1.58438 -0.0789,1.91667 -0.33229,0.33229 -0.56864,-0.25834 -0.52522,-1.3125 z M 333,410 c 0.5887,-1.1 1.29537,-2 1.57037,-2 0.275,0 0.0183,0.9 -0.57037,2 -0.5887,1.1 -1.29537,2 -1.57037,2 -0.275,0 -0.0183,-0.9 0.57037,-2 z m -27.92105,-4.66821 c -0.0434,-0.64252 -0.33793,-1.99252 -0.65446,-3 -0.54705,-1.74122 -0.51883,-1.7434 0.57078,-0.0441 0.63045,0.98322 0.92496,2.33322 0.65445,3 -0.35498,0.87499 -0.51379,0.88727 -0.57077,0.0441 z m -49,-17.91512 c 0.048,-1.16495 0.28494,-1.4019 0.60416,-0.60417 0.28887,0.72187 0.25335,1.58438 -0.0789,1.91667 -0.33229,0.33229 -0.56864,-0.25834 -0.52522,-1.3125 z m -33,-6 c 0.048,-1.16495 0.28494,-1.4019 0.60416,-0.60417 0.28887,0.72187 0.25335,1.58438 -0.0789,1.91667 -0.3323,0.33229 -0.56864,-0.25834 -0.52522,-1.3125 z M 223.15789,376 c 0,-1.375 0.22698,-1.9375 0.50439,-1.25 0.27741,0.6875 0.27741,1.8125 0,2.5 -0.27741,0.6875 -0.50439,0.125 -0.50439,-1.25 z m 39.93589,-1.32476 c -0.86204,-1.61075 -0.9668,-3.37116 -0.34209,-5.7485 l 0.90046,-3.42674 0.72386,5.36674 c 0.82699,6.13142 0.49256,7.12472 -1.28223,3.8085 z M 351,373.05902 c 0,-0.51754 0.44485,-1.21592 0.98855,-1.55194 0.56686,-0.35034 0.7345,0.0511 0.39301,0.94098 C 351.71677,374.18048 351,374.49745 351,373.05902 Z M 261.232,366 c 0,-1.925 0.2058,-2.7125 0.45733,-1.75 0.25152,0.9625 0.25152,2.5375 0,3.5 -0.25153,0.9625 -0.45733,0.175 -0.45733,-1.75 z m 91.3783,-2.5 c 0.82247,-3.67693 1.39483,-4.47511 1.37439,-1.91667 -0.008,1.05417 -0.47209,2.59167 -1.03038,3.41667 -0.74131,1.09546 -0.83408,0.69092 -0.34401,-1.5 z M 223.15789,362 c 0,-1.375 0.22698,-1.9375 0.50439,-1.25 0.27741,0.6875 0.27741,1.8125 0,2.5 -0.27741,0.6875 -0.50439,0.125 -0.50439,-1.25 z M 260,358 c 0,-1.1 0.45,-2 1,-2 0.55,0 1,0.9 1,2 0,1.1 -0.45,2 -1,2 -0.55,0 -1,-0.9 -1,-2 z m -0.92105,-5.58333 c 0.048,-1.16495 0.28494,-1.4019 0.60416,-0.60417 0.28887,0.72187 0.25335,1.58438 -0.0789,1.91667 -0.33229,0.33229 -0.56864,-0.25834 -0.52522,-1.3125 z M 190.64185,349.25 c -0.81064,-4.90434 -0.8265,-28.76799 -0.0186,-27.96007 0.56345,0.56345 1.41792,31.71007 0.86993,31.71007 -0.12733,0 -0.51043,-1.6875 -0.85134,-3.75 z m 22.52812,0.75 c 0.0162,-0.825 0.38968,-2.625 0.83003,-4 0.64363,-2.00973 0.8064,-2.10779 0.83003,-0.5 0.0162,1.1 -0.35734,2.9 -0.83003,4 -0.52653,1.22531 -0.84804,1.41898 -0.83003,0.5 z m 8.84534,-3.25 c 0.008,-1.7875 0.45153,-3.925 0.98469,-4.75 0.70111,-1.08489 0.97361,-0.18547 0.98469,3.25 0.008,2.6125 -0.43469,4.75 -0.98469,4.75 -0.55,0 -0.99311,-1.4625 -0.98469,-3.25 z m -41.34967,-1.67181 C 179.73463,340.42316 179.80416,340 181.5,340 c 1.61208,0 1.8998,3.11868 0.59535,6.45319 -0.64702,1.65396 -0.86605,1.44331 -1.42971,-1.375 z M 181.19495,336.5 c 0.0204,-1.65 0.2445,-2.20394 0.49804,-1.23097 0.25354,0.97297 0.23687,2.32297 -0.0371,3 -0.27393,0.67703 -0.48137,-0.11903 -0.46099,-1.76903 z M 430.75,337.29427 c 1.2375,-0.23836 3.2625,-0.23836 4.5,0 1.2375,0.23835 0.225,0.43337 -2.25,0.43337 -2.475,0 -3.4875,-0.19502 -2.25,-0.43337 z m 12.0625,0.0226 c 0.72187,-0.28887 1.58438,-0.25335 1.91667,0.0789 0.33229,0.33229 -0.25834,0.56864 -1.3125,0.52522 -1.16495,-0.048 -1.4019,-0.28494 -0.60417,-0.60416 z m -157.66926,-2.2072 c -0.83426,-0.52861 -0.97089,-1.09817 -0.35479,-1.47895 0.55109,-0.34059 1.26001,0.0532 1.57538,0.875 0.66263,1.72679 0.60022,1.75767 -1.22059,0.60395 z m 129.45977,0.057 c -0.28327,-0.45834 0.12038,-0.83334 0.89699,-0.83334 0.77661,0 1.18026,0.375 0.89699,0.83334 C 416.11373,335.625 415.71008,336 415.5,336 c -0.21008,0 -0.61373,-0.375 -0.89699,-0.83333 z M 252.33333,333.5747 c 0,-0.78391 0.80206,-1.36488 1.78236,-1.29103 1.33829,0.10081 1.5154,0.45591 0.71089,1.42529 -1.40924,1.69803 -2.49325,1.63966 -2.49325,-0.13426 z m -85.25438,-1.15803 c 0.048,-1.16495 0.28494,-1.4019 0.60416,-0.60417 0.28887,0.72187 0.25335,1.58438 -0.0789,1.91667 -0.3323,0.33229 -0.56864,-0.25834 -0.52522,-1.3125 z M 222.15789,330 c 0,-1.375 0.22698,-1.9375 0.50439,-1.25 0.27741,0.6875 0.27741,1.8125 0,2.5 -0.27741,0.6875 -0.50439,0.125 -0.50439,-1.25 z M 272.5,331 c -2.81549,-0.71642 -2.73861,-0.77065 1.25,-0.88169 2.3375,-0.0651 4.25,0.33169 4.25,0.88169 0,1.11719 -1.1095,1.11719 -5.5,0 z m -105.24782,-4.5 c 0.0111,-2.2 0.21589,-2.98225 0.45508,-1.73834 0.23919,1.24391 0.23011,3.04391 -0.0202,4 -0.25029,0.95609 -0.446,-0.0617 -0.4349,-2.26166 z M 408,329 c 0,-0.55 0.45,-1 1,-1 0.55,0 1,0.45 1,1 0,0.55 -0.45,1 -1,1 -0.55,0 -1,-0.45 -1,-1 z m -186.84211,-7 c 0,-1.375 0.22698,-1.9375 0.50439,-1.25 0.27741,0.6875 0.27741,1.8125 0,2.5 -0.27741,0.6875 -0.50439,0.125 -0.50439,-1.25 z M 279,322 c 0,-0.55 0.45,-1 1,-1 0.55,0 1,0.45 1,1 0,0.55 -0.45,1 -1,1 -0.55,0 -1,-0.45 -1,-1 z m -98.885,-7.75 c -0.0658,-3.57667 0.31273,-6.25 0.885,-6.25 1.18146,0 1.2015,2.96861 0.0574,8.5 -0.79046,3.82154 -0.8325,3.72116 -0.94237,-2.25 z M 212.5,319 c 0.33992,-0.55 0.81648,-1 1.05902,-1 0.24254,0 0.44098,0.45 0.44098,1 0,0.55 -0.47656,1 -1.05902,1 -0.58246,0 -0.7809,-0.45 -0.44098,-1 z m 11.97288,-1.74795 c 0.73954,-2.94657 1.28212,-3.83334 1.93882,-3.16872 0.77569,0.78507 -0.64382,5.91667 -1.63669,5.91667 -0.58247,0 -0.70717,-1.13416 -0.30213,-2.74795 z M 253.15789,318 c 0,-1.375 0.22698,-1.9375 0.50439,-1.25 0.27741,0.6875 0.27741,1.8125 0,2.5 -0.27741,0.6875 -0.50439,0.125 -0.50439,-1.25 z M 288,318.7 c 0,-1.44095 1.95378,-3.7 3.2,-3.7 0.44,0 0.8,1.125 0.8,2.5 0,1.83333 -0.53333,2.5 -2,2.5 -1.1,0 -2,-0.585 -2,-1.3 z m 7.5,0.3 c -0.33992,-0.55 -0.14148,-1 0.44098,-1 0.58246,0 1.05902,0.45 1.05902,1 0,0.55 -0.19844,1 -0.44098,1 -0.24254,0 -0.7191,-0.45 -1.05902,-1 z m 41.3125,0.31689 c 0.72187,-0.28887 1.58438,-0.25335 1.91667,0.0789 0.33229,0.33229 -0.25834,0.56864 -1.3125,0.52522 -1.16495,-0.048 -1.4019,-0.28494 -0.60417,-0.60416 z m -145.73355,-1.90022 c 0.048,-1.16495 0.28494,-1.4019 0.60416,-0.60417 0.28887,0.72187 0.25335,1.58438 -0.0789,1.91667 -0.3323,0.33229 -0.56864,-0.25834 -0.52522,-1.3125 z m 30.48647,-3.13544 c 0.19009,-2.62968 0.37252,-5.23123 0.40541,-5.78123 0.0329,-0.55 0.49601,-0.325 1.02917,0.5 1.43742,2.22425 1.2026,7.58697 -0.3901,8.90879 -1.16044,0.96308 -1.33299,0.36379 -1.04448,-3.62756 z M 169,315 c 0,-0.55 1.575,-1 3.5,-1 1.925,0 3.5,0.45 3.5,1 0,0.55 -1.575,1 -3.5,1 -1.925,0 -3.5,-0.45 -3.5,-1 z m 20.37407,-11.5 c 0.002,-6.05 0.16696,-8.39607 0.36601,-5.21349 0.19905,3.18258 0.1972,8.13258 -0.004,11 -0.20131,2.86742 -0.36417,0.26349 -0.36191,-5.78651 z M 370.5,313 c -0.33992,-0.55 0.33508,-1 1.5,-1 1.16492,0 1.83992,0.45 1.5,1 -0.33992,0.55 -1.01492,1 -1.5,1 -0.48508,0 -1.16008,-0.45 -1.5,-1 z m -41.6875,-0.68311 c 0.72187,-0.28887 1.58438,-0.25335 1.91667,0.0789 0.33229,0.33229 -0.25834,0.56864 -1.3125,0.52522 -1.16495,-0.048 -1.4019,-0.28494 -0.60417,-0.60416 z m 121.74514,-1.22363 c -0.30822,-0.49871 0.34022,-0.67122 1.44098,-0.38337 2.33499,0.61061 2.63015,1.29011 0.5604,1.29011 -0.79254,0 -1.69316,-0.40803 -2.00138,-0.90674 z M 339,309.05742 c 0,-0.51842 0.96089,-0.75753 2.13531,-0.53136 C 344.36708,309.14844 344.67407,310 341.66667,310 340.2,310 339,309.57584 339,309.05742 Z m -51.3717,-3.84983 c -0.26936,-0.43583 0.38881,-0.8586 1.46259,-0.93948 1.07379,-0.0809 1.69105,0.2757 1.37171,0.79241 -0.70856,1.14648 -2.16978,1.22229 -2.8343,0.14707 z m -71.54935,-4.79092 c 0.048,-1.16495 0.28494,-1.4019 0.60416,-0.60417 0.28887,0.72187 0.25335,1.58438 -0.0789,1.91667 -0.3323,0.33229 -0.56864,-0.25834 -0.52522,-1.3125 z m 64.03533,-0.34604 c -0.85973,-0.53135 -0.96201,-1.0467 -0.29014,-1.46194 0.57071,-0.35272 1.33882,-0.15403 1.7069,0.44153 0.91846,1.4861 0.188,2.0122 -1.41676,1.02041 z m -99.49074,-5.60929 c -0.34295,-0.8937 -0.55887,-4.85061 -0.47983,-8.79313 l 0.1437,-7.16821 0.74909,8.5 c 0.76778,8.7122 0.67945,10.30813 -0.41296,7.46134 z m 92.88354,-0.44989 c -0.35034,-0.56686 0.0511,-0.7345 0.94098,-0.39301 1.73242,0.66479 2.04939,1.38156 0.61096,1.38156 -0.51754,0 -1.21592,-0.44485 -1.55194,-0.98855 z M 223,290.8 c 0,-2.35847 0.29401,-2.90599 1.11798,-2.08202 0.63092,0.63092 2.5914,0.87888 4.5,0.56916 4.53566,-0.73603 4.42405,1.29479 -0.11798,2.14688 -1.925,0.36113 -3.5,1.08622 -3.5,1.61129 0,0.52508 -0.45,0.95469 -1,0.95469 -0.55,0 -1,-1.44 -1,-3.2 z m 11.76166,-1.50726 c 1.24391,-0.23919 3.04391,-0.23011 4,0.0202 0.95609,0.25029 -0.0617,0.446 -2.26166,0.4349 -2.2,-0.0111 -2.98225,-0.21589 -1.73834,-0.45508 z m 8.05084,0.0242 c 0.72187,-0.28887 1.58437,-0.25335 1.91667,0.0789 0.33229,0.33229 -0.25834,0.56864 -1.3125,0.52522 -1.16495,-0.048 -1.4019,-0.28494 -0.60417,-0.60416 z m 158.21852,-3.13268 c -1.89682,-2.02453 -0.9059,-2.0807 3.46898,-0.19664 3.98709,1.71706 3.98994,1.72228 0.8819,1.61752 -1.71496,-0.0578 -3.67285,-0.69719 -4.35088,-1.42088 z m -178.39036,-2.39455 c -0.33734,-1.25931 -0.57019,-3.41466 -0.51744,-4.78966 0.0565,-1.47317 0.45333,-0.67762 0.96611,1.93691 0.91858,4.68359 0.59422,6.74593 -0.44867,2.85275 z M 213.25218,281.5 c 0.0111,-2.2 0.21589,-2.98225 0.45508,-1.73834 0.23919,1.24391 0.23011,3.04391 -0.0202,4 -0.25029,0.95609 -0.446,-0.0617 -0.4349,-2.26166 z M 168,283 c 0,-0.55 1.8,-1 4,-1 2.2,0 4,0.45 4,1 0,0.55 -1.8,1 -4,1 -2.2,0 -4,-0.45 -4,-1 z m 132.58003,-4.25 c 0.40256,-1.26991 0.004,-1.75 -1.45363,-1.75 -1.1046,0 -2.31839,-0.50163 -2.69732,-1.11474 -0.4187,-0.67749 -2.54395,-0.93651 -5.41805,-0.66034 -3.03022,0.29116 -5.38726,-0.0269 -6.56119,-0.88526 C 283.44218,273.60285 281.38031,273 279.86789,273 c -1.51242,0 -3.02797,-0.45 -3.36789,-1 -0.33992,-0.55 -1.67898,-1 -2.97568,-1 -1.29671,0 -2.58463,-0.5625 -2.86204,-1.25 -0.30132,-0.74674 -0.53617,-0.54544 -0.58333,0.5 -0.0434,0.9625 -0.80209,1.75 -1.68594,1.75 -1.01759,0 -1.39587,-0.55016 -1.03138,-1.5 0.39697,-1.0345 -0.0644,-1.5 -1.48663,-1.5 -1.22124,0 -2.27553,-0.81562 -2.58525,-2 -0.37352,-1.42835 -1.36402,-2 -3.4654,-2 -1.61831,0 -2.68802,-0.41157 -2.37714,-0.91459 0.31089,-0.50302 -5e-5,-1.1425 -0.69098,-1.42105 -0.95724,-0.38592 -0.96468,-0.52526 -0.0313,-0.58541 0.67372,-0.0434 4.05419,1.21687 7.51215,2.80064 11.64915,5.33542 15.38837,6.4255 32.76289,9.55124 14.18464,2.55187 33.58087,1.90445 47.5,-1.58548 6.54378,-1.64072 17.925,-5.16702 19,-5.88686 1.87573,-1.25603 5.49671,-1.77282 6.05802,-0.86461 0.30801,0.49837 -0.14765,0.90612 -1.01257,0.90612 -0.86492,0 -2.46648,0.45 -3.55902,1 -1.09254,0.55 -2.88032,1.45 -3.97286,2 -1.09254,0.55 -2.9191,1 -4.05902,1 -1.13992,0 -1.79447,0.45 -1.45455,1 0.35698,0.5776 -0.58962,1 -2.24098,1 -1.57246,0 -3.28652,0.40391 -3.80902,0.89757 -0.87855,0.83007 -2.72971,1.18835 -14.08249,2.72557 -3.21335,0.4351 -4.03601,0.92852 -3.69869,2.21843 0.39075,1.49425 -1.15785,1.65885 -15.60487,1.65865 -14.81953,-2e-4 -15.9965,-0.13324 -15.48392,-1.75022 z m 8.66997,-1.41228 c -0.6875,-0.27741 -1.8125,-0.27741 -2.5,0 -0.6875,0.27741 -0.125,0.50439 1.25,0.50439 1.375,0 1.9375,-0.22698 1.25,-0.50439 z m 16.51791,-0.0523 c -1.50265,-0.22817 -4.20265,-0.23276 -6,-0.0102 -1.79735,0.22256 -0.56791,0.40925 2.73209,0.41486 3.3,0.006 4.77056,-0.17648 3.26791,-0.40466 z M 291.5,279 c 0.33992,-0.55 -0.0835,-1 -0.94098,-1 C 289.70156,278 289,277.58909 289,277.08686 c 0,-0.50641 1.30862,-0.41918 2.93799,0.19583 2.96131,1.11777 3.22265,2.71731 0.44398,2.71731 -0.825,0 -1.22189,-0.45 -0.88197,-1 z m -111.17186,-7.5 c 0.004,-3.85 0.18518,-5.30246 0.40166,-3.2277 0.21647,2.07477 0.21284,5.22477 -0.008,7 -0.22091,1.77524 -0.39803,0.0777 -0.39359,-3.7723 z m 31.99775,-1.5 c -0.0637,-6.68894 0.0337,-7.09447 0.90069,-3.75 0.59745,2.30477 0.62498,5.19523 0.0714,7.5 -0.79718,3.31905 -0.90889,2.8881 -0.9721,-3.75 z M 167,272.5 c 0,-0.825 0.43588,-1.5 0.96862,-1.5 0.53273,0 0.70959,0.675 0.39301,1.5 -0.31659,0.825 -0.75246,1.5 -0.96862,1.5 C 167.17686,274 167,273.325 167,272.5 Z m 2,-5.5 c 0,-0.55 1.575,-1 3.5,-1 1.925,0 3.5,0.45 3.5,1 0,0.55 -1.575,1 -3.5,1 -1.925,0 -3.5,-0.45 -3.5,-1 z m -1.84211,-6 c 0,-1.375 0.22698,-1.9375 0.50439,-1.25 0.27741,0.6875 0.27741,1.8125 0,2.5 -0.27741,0.6875 -0.50439,0.125 -0.50439,-1.25 z m 23.50878,1.33333 C 190.3,261.96667 190,260.76667 190,259.66667 c 0,-2.50768 1.3222,-1.33008 1.51992,1.3537 0.16143,2.19118 0.10768,2.27389 -0.85325,1.31296 z m 2.83888,-8.33946 c 0.99854,-1.10337 2.02185,-1.7998 2.27403,-1.54762 0.54163,0.54162 -2.30894,3.55375 -3.36314,3.55375 -0.39953,0 0.0906,-0.90276 1.08911,-2.00613 z m -21.55139,-8.07952 c -0.61391,-1.1471 -0.85474,-2.3471 -0.53518,-2.66666 0.31956,-0.31956 0.58102,-0.056 0.58102,0.58564 0,0.64167 0.9,1.16667 2,1.16667 1.11111,0 2,0.66667 2,1.5 0,2.21905 -2.75851,1.81975 -4.04584,-0.58565 z M 173,240.60699 c 0,-0.21616 0.69837,-0.661 1.55194,-0.98855 0.88992,-0.34149 1.29132,-0.17385 0.94098,0.39301 C 174.90566,240.96166 173,241.4169 173,240.60699 Z m 284,-6.69814 c -3.025,-0.52037 -8.66065,-2.44219 -12.52366,-4.27071 -31.71454,-15.01177 -38.23753,-56.85865 -12.60117,-80.84022 6.97178,-6.52175 15.04115,-10.79753 23.92405,-12.67681 23.16636,-4.90111 47.17153,8.32368 56.29743,31.01506 3.05144,7.58735 3.75452,22.42407 1.43994,30.38597 -3.64463,12.53706 -10.85219,22.44471 -21.15002,29.07319 C 482.438,232.999 468.48024,235.88372 457,233.90885 Z m 22.18709,-5.88492 c 6.93384,-2.14164 13.66745,-6.16641 18.14547,-10.84579 l 2.83256,-2.95993 -12.83256,-9.92366 C 480.27465,198.83654 472.025,192.51405 469,190.24457 l -5.5,-4.12632 -6.41456,-22.05913 C 453.55744,151.92661 450.50498,142 450.3022,142 c -1.06454,0 -10.34348,5.20896 -13.90005,7.80312 -5.60637,4.08931 -11.94009,13.92973 -14.50144,22.53027 -5.78181,19.41424 2.59766,40.55955 20.43566,51.56877 9.89539,6.10721 24.96535,7.79279 36.85072,4.12177 z m 27.21937,-23.62446 c 8.3929,-16.79649 4.45896,-38.59269 -9.34131,-51.75591 -5.85591,-5.5856 -13.56546,-10.2611 -14.47993,-8.78145 -0.59349,0.96029 -13.25783,36.88634 -13.75934,39.03234 -0.36472,1.56065 33.25361,28.18863 34.35303,27.20992 0.3734,-0.3324 1.82579,-2.89961 3.22755,-5.7049 z M 472.34638,159.33845 C 475.45587,150.4496 478,142.70749 478,142.13376 c 0,-2.30389 -19.88532,-3.64909 -22.04222,-1.4911 -0.47595,0.47618 1.43708,8.74404 4.30301,18.59699 2.83795,9.7568 5.44613,17.4068 5.79595,17 0.34981,-0.40681 3.18015,-8.01235 6.28964,-16.9012 z m 89.28848,73.58897 c -2.93135,-2.3058 -3.45613,-6.00094 -1.12679,-7.93412 0.93341,-0.77466 3.16139,-1.06523 5.84686,-0.76254 l 4.33878,0.48904 1.26071,-4.91901 c 0.69338,-2.70545 1.0998,-5.07519 0.90314,-5.26609 -0.19666,-0.1909 -4.8051,-1.55621 -10.24099,-3.03402 -6.8024,-1.8493 -10.09308,-2.3477 -10.55595,-1.59877 -0.36988,0.59848 -1.49415,4.35289 -2.49837,8.34312 -1.00423,3.99023 -2.52756,7.81747 -3.38519,8.50497 -2.07384,1.66246 -5.63779,1.58023 -9.09962,-0.20995 -3.46416,-1.79139 -4.35615,-4.69713 -2.32992,-7.58997 1.2843,-1.8336 2.21975,-2.10116 5.89699,-1.68668 l 4.37055,0.49262 1.4413,-5.12801 c 0.79272,-2.8204 2.17127,-7.71551 3.06343,-10.87801 1.1525,-4.08529 2.10823,-5.7464 3.30117,-5.73758 0.92347,0.007 5.72904,1.13875 10.67904,2.51538 4.95,1.37662 10.6875,2.96337 12.75,3.52612 2.90034,0.79134 3.7476,1.52423 3.73943,3.23462 -0.0207,4.31987 -7.00993,27.21468 -8.68864,28.46146 -2.515,1.86789 -6.69811,1.51191 -9.66593,-0.82258 z M 575,208.1316 c 0,-1.50828 -1.82837,-2.37562 -9.4861,-4.5 C 554.22243,200.49916 554,200.48395 554,202.8443 c 0,1.47504 1.85205,2.35672 9.25,4.40352 11.42703,3.16154 11.75,3.18584 11.75,0.88378 z M 94.501924,182.86642 c -16.998592,-3.98914 -22.345283,-26.60708 -8.907997,-37.68323 2.118723,-1.74643 5.235928,-3.63199 6.927123,-4.19014 2.950576,-0.97378 3.123213,-1.34792 4.269879,-9.25393 0.760452,-5.24314 2.325643,-10.54111 4.304371,-14.56972 7.8199,-15.92105 25.98423,-26.319811 43.51656,-24.912484 l 6.15323,0.493922 2.65346,-8.053887 c 3.50781,-10.647009 8.55658,-18.756994 16.66222,-26.764996 7.51462,-7.4241 18.58706,-13.738155 28.91923,-16.491188 8.53376,-2.273841 23.43067,-2.301932 32,-0.06034 C 249.0493,46.101815 265.04418,58.951929 272.84719,75 277.31814,84.195185 280,93.24268 280,99.130643 c 0,3.375157 0.29368,3.774017 3.25,4.413997 10.61769,2.29849 21.60673,11.35633 26.95313,22.21641 3.09717,6.29124 3.29687,7.33546 3.29687,17.23895 0,9.86179 -0.20866,10.96591 -3.23363,17.11049 -5.92782,12.04112 -18.14123,21.0375 -31.02473,22.85277 -8.14518,1.14765 -179.820149,1.05765 -184.739716,-0.0968 z m 194.232386,-7.24594 c 7.55208,-3.48818 14.34964,-10.41309 18.06398,-18.40241 2.2209,-4.77701 2.65841,-7.11697 2.65841,-14.21807 0,-7.1011 -0.43751,-9.44106 -2.65841,-14.21807 -4.95485,-10.65759 -14.19145,-18.30373 -25.63867,-21.22394 l -4.56652,-1.16493 -1.22454,-8.482402 C 271.55531,71.496419 254.87927,52.235167 230.40399,45.975445 196.90078,37.406766 163.12913,58.322388 155.8785,92.130947 c -0.5722,2.668083 -1.43247,5.093394 -1.91171,5.389579 -0.47924,0.296186 -3.59718,0.09954 -6.92876,-0.436999 -12.5611,-2.022906 -25.42524,2.448018 -34.54066,12.004583 -7.76767,8.14359 -10.77834,15.10387 -11.31632,26.16189 -0.27102,5.57072 -0.83543,8.75203 -1.553369,8.75558 -0.620225,0.003 -2.801206,0.47036 -4.846626,1.03843 -11.953947,3.31993 -16.585466,18.41448 -8.482047,27.64376 5.814699,6.62258 -0.06265,6.27728 102.700992,6.03378 L 282.5,178.5 Z M 15.606989,154.41821 c -0.935209,-2.43711 -0.688307,-33.74157 0.278151,-35.2666 1.214669,-1.91671 1.964131,-1.59801 18.395079,7.82222 9.7791,5.60657 14.683878,8.97408 14.495495,9.95228 -0.278794,1.44766 -29.167013,18.9456 -31.418725,19.03069 -0.628656,0.0238 -1.416156,-0.6686 -1.75,-1.53859 z M 35.24331,141.22102 c 3.708821,-2.04656 6.746321,-3.96267 6.75,-4.25803 0.006,-0.48505 -5.972786,-4.10346 -17.74331,-10.73832 L 20,123.82901 v 13.14218 13.14217 l 4.25,-2.58566 c 2.3375,-1.42211 7.28449,-4.26012 10.99331,-6.30668 z m 514.97866,3.33042 c -7.06132,-3.18481 -31.85072,-16.98015 -34.06698,-18.95834 -3.53745,-3.15744 -5.38362,-7.42947 -5.46222,-12.63956 -0.0612,-4.05591 1.11696,-6.89864 8.73274,-21.070989 9.46232,-17.608626 12.98046,-22.20137 18.36899,-23.979745 5.81454,-1.918972 10.57119,-0.454918 26.47846,8.149834 18.93898,10.2447 20.30911,11.207826 22.74968,15.991737 3.77462,7.398861 2.95642,10.608423 -7.72962,30.321033 -7.64833,14.10892 -10.43898,18.36457 -13.27205,20.23941 -4.61408,3.05345 -11.47159,3.89838 -15.799,1.94662 z m 13.68901,-6.12999 c 1.68544,-1.4182 5.56886,-7.24756 8.62983,-12.95413 5.53361,-10.31632 5.55536,-10.39091 3.80789,-13.05789 -1.88544,-2.87755 -6.85602,-5.41671 -10.56658,-5.3978 -1.25517,0.006 -8.92121,1.9802 -17.03564,4.38624 l -14.75353,4.37462 -1.90294,-4.3019 c -2.083,-4.70898 -5.00113,-7.10281 -9.83761,-8.07011 -2.79013,-0.55803 -3.37336,-0.25086 -5.19399,2.73545 -1.12801,1.85024 -2.05093,4.93907 -2.05093,6.86407 0,6.76358 2.57196,9.11495 20.6675,18.89486 19.12688,10.33731 22.72015,11.16788 28.236,6.52659 z m -14.59171,-31.8474 c 17.221,-5.06738 20.5636,-5.07315 27.14835,-0.0469 l 4.62082,3.52715 2.00154,-4.5248 c 2.49469,-5.639671 1.7854,-10.518824 -2.08199,-14.321804 -1.51445,-1.489233 -9.79365,-6.473135 -18.39822,-11.075339 C 539.61057,67.831107 537.62463,68.215059 527.25,86.968634 523.8125,93.182392 521,98.38136 521,98.521897 c 0,0.140536 1.58462,0.552798 3.52138,0.916136 3.85791,0.723747 10.02581,5.559937 10.99817,8.623557 0.33837,1.06612 0.96212,1.93841 1.38611,1.93841 0.42398,0 6.01011,-1.54168 12.41361,-3.42595 z m -4.97384,-8.505055 c -6.02748,-3.675314 -5.31101,-12.43385 1.27268,-15.558016 7.80168,-3.702139 15.56747,4.080992 11.86239,11.888871 -2.61725,5.515447 -7.75395,6.95033 -13.13507,3.669145 z M 552.8,93.8 c 2.805,-2.804997 0.69173,-7.8 -3.3,-7.8 -1.155,0 -2.64,0.54 -3.3,1.2 -1.2834,1.283397 -1.63817,6.028496 -0.53333,7.133333 C 546.7715,95.438171 551.5166,95.083397 552.8,93.8 Z M 56.146379,90.236544 C 54.301887,85.981445 50.297015,76.778565 47.246663,69.7857 L 41.700568,57.071401 45.587663,52.2857 C 59.005628,35.765816 79.543574,22.47368 97.711184,18.551414 l 3.211186,-0.693274 14.53881,29.064264 C 123.45753,62.907749 130,76.106341 130,76.252609 c 0,0.146267 -5.2875,0.345753 -11.75,0.443301 -19.478819,0.294022 -40.094598,6.999577 -53.082207,17.265692 -2.809927,2.221119 -5.234695,4.032343 -5.388375,4.024942 -0.15368,-0.0074 -1.788547,-3.494901 -3.633039,-7.75 z M 73.5,83.538909 C 84.536647,77.273026 104.70353,72 117.63099,72 120.58395,72 123,71.768792 123,71.486205 123,71.203618 117.57271,60.148858 110.93935,46.92007 L 98.878706,22.86773 95.689353,23.548881 c -5.259989,1.123377 -14.72439,5.244002 -22.075808,9.611399 -6.779024,4.027345 -20.847289,16.550501 -24.750721,22.032367 l -1.972118,2.769583 7.194878,16.528299 7.194877,16.528298 3.10977,-2.036756 C 66.100604,87.861855 70.2,85.412432 73.5,83.538909 Z m 7.235295,-28.745446 c -5.994711,-12.577146 -6.595004,-14.362326 -5.27381,-15.68352 0.819993,-0.819992 1.72043,-1.261362 2.000971,-0.98082 0.280541,0.280541 3.613428,7.003755 7.406414,14.940476 6.611349,13.834067 7.078192,15.879328 3.63113,15.908132 -0.55,0.0046 -4.044117,-6.378325 -7.764705,-14.184268 z m -9.77854,1.516156 c -4.448642,-9.502862 -4.837929,-10.857017 -3.504469,-12.190477 0.825052,-0.825052 1.70232,-1.297869 1.949485,-1.050704 0.247165,0.247164 2.675475,5.170379 5.396246,10.940476 3.482016,7.384513 4.652257,10.86123 3.951975,11.741086 C 78.202807,66.4375 77.351507,67 76.858214,67 76.364921,67 73.709265,62.189328 70.956755,56.309619 Z M 96.298402,43.629578 c -3.832799,-7.7067 -4.867417,-10.660563 -4.02798,-11.5 C 92.89169,31.50831 93.755897,31 94.190883,31 c 0.434985,0 3.068304,4.538293 5.851817,10.085097 4.01608,8.002972 4.81851,10.377211 3.88668,11.5 C 103.28353,53.363293 102.4628,54 102.10553,54 101.74827,54 99.135058,49.33331 96.298402,43.629578 Z M 0,90.5 C 0,88.388889 0.46666667,88 3,88 5.5333333,88 6,88.388889 6,90.5 6,92.611111 5.5333333,93 3,93 0.46666667,93 0,92.611111 0,90.5 Z m 10.361532,0.999754 C 9.5145902,89.292659 11.251794,87.757446 14.134665,88.165335 15.721778,88.389892 16.5,89.158022 16.5,90.5 c 0,2.612861 -5.194797,3.458921 -6.138468,0.999754 z M 21,90.5 V 88 H 35.5 50 V 90.5 93 H 35.5 21 Z M 15.361532,72.499754 C 14.51459,70.292659 16.251794,68.757446 19.134665,69.165335 20.721778,69.389892 21.5,70.158022 21.5,71.5 c 0,2.612861 -5.194797,3.458921 -6.138468,0.999754 z M 26,71.5 c 0,-2.111111 0.466667,-2.5 3,-2.5 2.533333,0 3,0.388889 3,2.5 0,2.111111 -0.466667,2.5 -3,2.5 -2.533333,0 -3,-0.388889 -3,-2.5 z"
         id="path3" />
      <path
         style="fill:#1b1c21"
         d="M 265.06421,429.82855 C 263.77809,426.7235 252.97327,350.73919 253.00176,345 c 0.0146,-2.94673 0.89404,-6.02499 2.54776,-8.91805 2.48111,-4.34051 2.5063,-4.59501 1.43548,-14.5 -1.34808,-12.4696 -3.14937,-17.64107 -7.46414,-21.42949 -8.54762,-7.50491 -19.84172,-6.21405 -26.54058,3.03345 -2.87471,3.96843 -2.98028,4.5017 -2.98028,15.05391 0,6.01687 0.4866,23.10275 1.08132,37.96864 1.07554,26.88419 0.7673,31.04016 -2.0902,28.18266 -1.44074,-1.44074 -3.97873,-71.69117 -2.7566,-76.30147 1.88498,-7.11078 1.91707,-9.97697 0.29847,-26.65686 -2.01101,-20.72364 -2.71931,-23.55245 -6.95887,-27.792 -5.60308,-5.60308 -12.84898,-5.41245 -18.25751,0.48033 -5.08433,5.53956 -5.14846,6.90505 -3.20346,68.20395 0.84197,26.53584 0.84503,36.11675 0.0118,36.95 -0.7076,0.7076 -1.46122,0.7725 -2.03144,0.17493 -0.49857,-0.5225 -1.56401,-21.875 -2.36764,-47.45 -1.59388,-50.72465 -1.47138,-52.71164 3.66503,-59.44582 1.49188,-1.95596 4.08941,-4.26831 5.7723,-5.13856 3.90548,-2.01961 10.75024,-2.02887 14.63533,-0.0198 4.26427,2.20513 8.8411,8.11587 10.0732,13.009 0.81602,3.24071 4.12829,31.85589 4.12829,35.66489 0,0.43423 2.1375,-0.41149 4.75,-1.87938 8.26,-4.64106 18.92248,-3.34318 26.09732,3.17665 3.85569,3.50371 6.136,9.15312 7.21938,17.88589 0.56273,4.53593 1.22992,9.23345 1.48266,10.43894 l 0.45953,2.19181 4.64221,-2.05348 c 6.38194,-2.82303 13.6352,-2.17747 20.04246,1.78383 8.19865,5.06884 7.31934,2.46737 22.89718,67.74244 3.52509,14.77103 6.40926,27.74152 6.40926,28.82333 0,1.3173 -0.56466,1.85818 -1.70966,1.63767 -1.38129,-0.26601 -3.65835,-8.52175 -11.85555,-42.98361 -5.58025,-23.4599 -11.02273,-44.15571 -12.09441,-45.99068 -3.65956,-6.26604 -11.4859,-9.7888 -18.72863,-8.43005 -7.60766,1.4272 -14.56171,9.36453 -14.5953,16.65904 -0.009,1.96465 2.46765,20.86465 5.50378,42 3.03612,21.13534 5.62362,39.72893 5.75,41.31909 0.28581,3.59632 -1.90495,4.57851 -3.20602,1.43736 z M 307.5,318.41433 C 292.01113,314.7018 282.65742,310.0769 272.88452,301.29886 267.94548,296.86261 257,282.47115 257,280.41341 c 0,-3.05205 3.62415,-1.21333 6.46217,3.2786 7.81071,12.36257 20.445,22.55041 34.55884,27.867 6.8169,2.56788 8.6741,2.82147 20.97899,2.86454 12.70887,0.0445 14.28474,-0.17639 26.89104,-3.76895 10.69579,-3.0481 13.55555,-3.55003 14.20836,-2.49376 0.44953,0.72734 0.47857,1.66119 0.0645,2.07521 -0.41402,0.41402 -6.35778,2.36573 -13.20836,4.33713 -10.63914,3.06164 -14.27852,3.63804 -24.95559,3.95245 -6.875,0.20245 -13.4,0.15236 -14.5,-0.1113 z m 254.75,-85.40337 c -6.0858,-3.71059 -3.11344,-9.67529 4.31412,-8.65723 l 4.1994,0.5756 1.4711,-5.21467 1.4711,-5.21466 -4.10286,-1.26083 c -2.25657,-0.69345 -7.13378,-2.11941 -10.83823,-3.1688 l -6.73537,-1.90798 -1.48405,4.99732 c -0.81622,2.74853 -1.77769,6.56257 -2.13658,8.47566 -0.81488,4.34368 -4.29303,6.85989 -8.15134,5.89696 C 536.4855,226.59099 534,224.14725 534,221.3802 c 0,-2.93831 2.97758,-4.54623 7.72571,-4.17195 l 3.70116,0.29175 2.78083,-9.94426 c 1.52945,-5.46935 3.17204,-10.33548 3.6502,-10.81364 1.30208,-1.30208 28.1421,6.32236 28.1421,7.99432 0,3.42912 -7.44683,27.90201 -8.82851,29.01358 -2.22069,1.78656 -5.18148,1.54129 -8.92149,-0.73904 z m 13.16655,-24.65409 c 0.34679,-0.90372 0.49985,-1.7738 0.34014,-1.93351 -0.15971,-0.15971 -5.0078,-1.60138 -10.77353,-3.2037 -10.29859,-2.86203 -10.49674,-2.87825 -11.25464,-0.92131 -0.42432,1.09561 -0.64932,2.10393 -0.5,2.24071 0.53559,0.49064 18.30653,5.28396 19.91449,5.37149 0.90366,0.0492 1.92675,-0.64996 2.27354,-1.55368 z m -122.7288,24.14144 c -25.10235,-6.90045 -40.81242,-32.36504 -35.59677,-57.69909 1.81879,-8.83443 7.41908,-19.02745 13.79607,-25.11007 19.8654,-18.94838 50.38559,-18.646 69.65689,0.69012 19.22928,19.29398 19.0288,50.54867 -0.44648,69.60422 -5.94151,5.81346 -15.55044,11.19306 -23.09746,12.93122 -6.10983,1.40716 -18.44722,1.19586 -24.31225,-0.4164 z m 20.77651,-2.57634 c 3.20736,-0.59291 8.12751,-2.10082 10.93366,-3.35092 6.35982,-2.8332 15.82622,-10.25103 15.41183,-12.07665 -0.17036,-0.75055 -8.27971,-7.4739 -18.02076,-14.9408 l -17.71102,-13.57616 -2.16205,-7.23872 c -1.18912,-3.9813 -4.07488,-13.66944 -6.41279,-21.5292 -2.33792,-7.85976 -4.55923,-14.59895 -4.93625,-14.97597 -0.9001,-0.90011 -10.151,3.97498 -14.77411,7.78574 -5.19951,4.28587 -11.44332,14.10951 -13.7835,21.68611 -6.98573,22.61716 5.46661,48.08619 27.35498,55.94973 9.13738,3.28267 15.4122,3.87287 24.10001,2.26684 z M 507.05129,203.75 c 2.77943,-6.01993 3.41903,-8.73252 3.76978,-15.98797 0.63067,-13.04589 -2.54324,-22.83551 -10.58554,-32.65009 C 496.72416,150.82678 485.8943,143 483.47631,143 c -1.13425,0 -16.10335,40.70629 -15.27406,41.53559 1.4729,1.4729 34.42414,26.45462 34.89971,26.45894 0.33108,0.003 2.10828,-3.25703 3.94933,-7.24453 z M 472.8521,159.08193 c 3.3798,-9.57994 5.95638,-17.60679 5.72572,-17.83744 -0.23065,-0.23066 -2.14252,-0.81929 -4.2486,-1.30808 -7.37605,-1.71186 -19.29769,-0.82601 -19.36034,1.43859 -0.0667,2.41076 10.50245,36.54807 11.10182,35.85781 0.34997,-0.40305 3.4016,-8.57094 6.7814,-18.15088 z M 90.491423,181.13502 c -11.044963,-5.01762 -15.434026,-17.8373 -9.905375,-28.93185 2.756434,-5.53145 6.449724,-8.76583 12.299023,-10.77082 L 96.5,140.19324 l 0.624485,-7.52982 c 1.397784,-16.85399 13.217565,-31.94317 29.642435,-37.841639 4.23362,-1.52037 8.23067,-2.067505 15.28245,-2.091935 l 9.54936,-0.03308 1.19319,-5.098382 C 155.21342,77.251556 160.67957,68.102703 169.89397,58.97419 184.17974,44.82158 198.19787,39.374741 218,40.282276 c 16.30883,0.747437 28.31718,5.574623 40.92583,16.451611 10.28549,8.872893 18.71607,25.437283 20.57991,40.4354 l 0.70454,5.669283 5.14486,1.66262 c 11.22515,3.62755 19.72899,11.23661 25.00665,22.37543 2.83259,5.97835 3.13821,7.54856 3.13821,16.12338 0,8.57482 -0.30562,10.14503 -3.13821,16.12338 -3.68957,7.78706 -8.64879,13.58132 -15.16457,17.71799 -10.04324,6.37614 -6.24962,6.16084 -108.12872,6.13667 -87.375466,-0.0207 -92.793379,-0.12412 -96.577077,-1.84302 z M 289.22034,175.8189 c 7.06647,-3.31202 13.77249,-10.06769 17.47197,-17.60132 C 309.17096,153.17005 309.5,151.38669 309.5,143 c 0,-8.47267 -0.31568,-10.14295 -2.91921,-15.44553 C 301.483,117.17187 292.56233,110.03914 281.5,107.50056 l -5,-1.1474 -0.68213,-7.444101 c -2.28213,-24.905125 -21.03857,-46.9874 -45.35239,-53.394142 -7.82467,-2.061816 -22.60509,-2.049849 -30.64572,0.02481 -20.97559,5.412171 -38.19126,22.986383 -43.76432,44.675797 -1.5523,6.041262 -2.18608,7.22406 -3.71359,6.930488 C 151.32883,96.951323 146.45,96.756728 141.5,96.713581 c -7.1042,-0.06193 -10.21164,0.396566 -14.75209,2.176614 -15.51134,6.081115 -25.618,20.585835 -26.07618,37.423635 l -0.18964,6.9694 -4.787205,1.21551 c -15.38195,3.90564 -18.694988,24.53669 -5.174503,32.22283 L 94.5,178.98391 189,178.74196 283.5,178.5 Z M 16.626784,155.29345 c -1.043262,-1.04326 -0.71875,-36.11858 0.34022,-36.77306 C 18.203614,117.75613 48.5,135.37655 48.5,136.86003 c 0,0.61119 -5.85,4.53249 -13,8.714 -16.527932,9.66597 -18.111272,10.48136 -18.873216,9.71942 z M 31.158679,143.91081 C 37.11712,140.56176 42.185885,137.50825 42.4226,137.12524 42.887336,136.37328 21.801988,124 20.055837,124 19.368866,124 19,128.54167 19,137 c 0,7.15 0.298158,13 0.662574,13 0.364416,0 5.537663,-2.74013 11.496105,-6.08919 z M 544.96629,141.57025 C 513.69835,125.21787 510.5779,122.47771 511.29225,112 c 0.3182,-4.66719 1.69962,-7.92272 9.12309,-21.5 4.81146,-8.8 10.04371,-17.215409 11.62722,-18.70091 3.87947,-3.63935 9.82739,-5.18047 14.81281,-3.838034 5.48255,1.476298 33.01086,16.665278 36.91395,20.367586 3.65611,3.468032 5.68888,9.415383 4.81333,14.082478 -0.69973,3.72989 -16.87668,34.12397 -19.92381,37.43389 -5.79825,6.29829 -13.82996,6.88314 -23.69255,1.72524 z m 19.03221,-2.56918 c 3.40806,-2.42676 14.31417,-22.44059 13.54651,-24.85925 -1.08656,-3.42345 -5.28808,-6.35854 -9.83593,-6.87114 -3.30495,-0.37252 -7.94295,0.53686 -18.44125,3.61582 -7.71419,2.26242 -14.29922,4.1135 -14.6334,4.1135 -0.33417,0 -1.23063,-1.4625 -1.99213,-3.25 -2.00831,-4.71419 -5.87165,-7.83695 -10.45632,-8.45188 -3.69652,-0.49581 -4.13494,-0.2975 -5.59829,2.53231 -0.87323,1.68864 -1.58769,5.08307 -1.58769,7.54318 0,7.62259 1.80418,9.01165 32.96044,25.37664 7.10514,3.73201 11.06227,3.79389 16.03806,0.25082 z m 18.98118,-31.96123 C 584.09085,104.86175 585,101.5533 585,99.687721 c 0,-6.386013 -3.25998,-9.350862 -21,-19.098864 -24.4499,-13.435029 -26.80538,-12.983466 -37.6402,7.215925 -3.05087,5.687729 -5.3924,10.453609 -5.20341,10.590846 0.18898,0.137236 2.52338,1.057722 5.18754,2.045522 3.39432,1.25853 5.63878,2.94621 7.5,5.63948 1.46084,2.11391 3.22898,3.86055 3.92921,3.88142 0.70022,0.0209 6.59077,-1.53705 13.0901,-3.46205 6.49933,-1.925 13.57642,-3.49832 15.72686,-3.49626 4.12315,0.004 9.98122,2.94467 12.2166,6.13269 0.71869,1.02496 1.49705,1.86357 1.72968,1.86357 0.23263,0 1.33212,-1.78207 2.4433,-3.96016 z M 546.5,99.029999 C 540.30804,96.571977 538.63253,88.433161 543.46308,84.278102 549.25983,79.29194 558,82.971932 558,90.398782 c 0,5.988138 -6.28163,10.702758 -11.5,8.631217 z m 5.56574,-4.065183 c 2.67727,-1.432832 2.56951,-6.406463 -0.18054,-8.332673 -2.32192,-1.626336 -4.70601,-1.195624 -6.6352,1.198723 -1.76213,2.187009 -1.55869,3.860446 0.75,6.169134 2.26853,2.268526 3.31787,2.435434 6.06574,0.964816 z M 50.887271,77.248567 42.274542,57.5 45.305844,53.251318 C 55.705553,38.675058 75.557395,25.095541 93.751001,20.112741 l 7.250999,-1.985878 14.39189,28.797215 14.39188,28.797215 -12.64289,0.589232 c -19.762568,0.921051 -34.615842,5.525593 -49.101941,15.221692 -4.492916,3.007281 -8.252639,5.467138 -8.354939,5.46635 -0.1023,-7.88e-4 -4.061728,-8.888288 -8.798729,-19.75 z m 15.7579,10.651553 c 11.55794,-7.952072 27.406885,-13.252407 44.807279,-14.98482 6.07615,-0.604952 11.18626,-1.234586 11.3558,-1.399187 0.16953,-0.164602 -5.14252,-11.193538 -11.80457,-24.508749 L 98.890874,22.79789 95.195437,23.486883 c -5.701524,1.063016 -16.476475,5.952797 -24.463015,11.101562 -7.739656,4.989603 -22.065296,18.734268 -23.177055,22.23711 -0.636201,2.00449 0.904376,6.035977 10.862008,28.424445 1.406573,3.1625 2.819501,5.75 3.13984,5.75 0.320339,0 2.609919,-1.394946 5.087956,-3.09988 z M 81.436266,55.217706 C 73.903898,39.486984 73.986708,39.732652 76.061469,39.272374 c 1.135822,-0.251979 3.384725,3.423648 8.25,13.483874 C 87.990161,60.362902 91,66.856414 91,67.186275 c 0,0.329861 -0.673934,0.85836 -1.497631,1.174442 -1.126095,0.432124 -3.127154,-2.828427 -8.066103,-13.143011 z M 71.358696,56.25 C 66.051041,44.814405 66.026261,44.723658 68.086665,44.267521 c 1.156076,-0.255934 2.8522,2.375372 6.25,9.696022 C 79.469282,65.021904 79.721625,66 77.442004,66 76.447295,66 74.247899,62.474927 71.358696,56.25 Z M 96.476938,42.953127 C 92.330159,34.525104 91.772632,32.757913 93.016824,31.98562 c 1.185945,-0.736139 2.514051,1.126968 6.627224,9.296872 2.829222,5.61963 4.940172,10.555008 4.690982,10.967508 -1.33328,2.207094 -3.40225,-0.2407 -7.858092,-9.296873 z M 0,90.5 C 0,89.5 1,89 3,89 5,89 6,89.5 6,90.5 6,91.5 5,92 3,92 1,92 0,91.5 0,90.5 Z m 11,0 C 11,89.566667 11.944444,89 13.5,89 15.055556,89 16,89.566667 16,90.5 16,91.433333 15.055556,92 13.5,92 11.944444,92 11,91.433333 11,90.5 Z m 10,0 C 21,89.235632 23.277778,89 35.5,89 47.722222,89 50,89.235632 50,90.5 50,91.764368 47.722222,92 35.5,92 23.277778,92 21,91.764368 21,90.5 Z m -5,-19 C 16,70.566667 16.944444,70 18.5,70 20.055556,70 21,70.566667 21,71.5 21,72.433333 20.055556,73 18.5,73 16.944444,73 16,72.433333 16,71.5 Z m 10,0 c 0,-1 1,-1.5 3,-1.5 2,0 3,0.5 3,1.5 0,1 -1,1.5 -3,1.5 -2,0 -3,-0.5 -3,-1.5 z"
         id="path2" />
    </g>
  </g>
</svg>
