<?xml version="1.0" encoding="UTF-8" standalone="no"?>
<!-- Created with Inkscape (http://www.inkscape.org/) -->

<svg
   version="1.1"
   id="svg1"
   width="414"
   height="450"
   viewBox="0 0 414 450"
   sodipodi:docname="BUSINESS_11.svg"
   inkscape:version="1.3.2 (091e20e, 2023-11-25, custom)"
   xmlns:inkscape="http://www.inkscape.org/namespaces/inkscape"
   xmlns:sodipodi="http://sodipodi.sourceforge.net/DTD/sodipodi-0.dtd"
   xmlns="http://www.w3.org/2000/svg"
   xmlns:svg="http://www.w3.org/2000/svg">
  <defs
     id="defs1" />
  <sodipodi:namedview
     id="namedview1"
     pagecolor="#ffffff"
     bordercolor="#000000"
     borderopacity="0.25"
     inkscape:showpageshadow="2"
     inkscape:pageopacity="0.0"
     inkscape:pagecheckerboard="0"
     inkscape:deskcolor="#d1d1d1"
     showgrid="false"
     inkscape:zoom="1.7488889"
     inkscape:cx="207.27446"
     inkscape:cy="225"
     inkscape:window-width="1920"
     inkscape:window-height="1001"
     inkscape:window-x="-9"
     inkscape:window-y="-9"
     inkscape:window-maximized="1"
     inkscape:current-layer="g1" />
  <g
     inkscape:groupmode="layer"
     inkscape:label="Image"
     id="g1">
    <g
       id="g6">
      <path
         style="fill:#fefefe"
         d="M 0,225 V 0 H 207 414 V 225 450 H 207 0 Z"
         id="path10" />
      <path
         style="fill:#fcce4d"
         d="M 24.949845,448.03444 C 15.945729,443.27346 8.1893603,430.53906 3.3010562,412.49149 0.73986274,403.03559 0.59591165,401.3207 0.61562718,380.5 0.63512671,359.90739 0.805203,357.87284 3.274216,348.69644 10.861247,320.49827 24.922424,306.58383 39.810913,312.54102 l 3.851387,1.54102 16.415062,-7.58734 c 9.028284,-4.17303 17.379787,-8.21944 18.558895,-8.99202 1.179108,-0.77258 16.002678,-17.96424 32.941263,-38.20369 16.93859,-20.23944 31.27557,-37.1296 31.85996,-37.53368 0.58439,-0.40408 18.89339,-0.74158 40.68668,-0.75 L 223.74833,221 l 0.46963,-11.75 c 0.41307,-10.33469 0.24755,-12.03726 -1.37416,-14.13486 -2.35971,-3.05216 -2.35373,-7.26383 0.0145,-10.18841 1.02204,-1.26216 1.65367,-3.07715 1.40363,-4.03331 -0.40345,-1.5428 -1.59741,-1.69179 -10.60825,-1.32377 -5.5845,0.22809 -16.90363,1.04674 -25.15363,1.81924 -8.25,0.7725 -15.12673,1.28679 -15.28163,1.14287 -0.15489,-0.14393 6.21127,-8.30995 14.14704,-18.14672 7.93576,-9.83677 14.27486,-18.13934 14.08688,-18.45015 -0.18799,-0.31081 -12.06665,-5.91242 -26.39704,-12.44801 C 160.72486,126.95129 149,121.33709 149,121.01088 c 0,-0.3262 12.4875,-4.36215 27.75,-8.96877 15.2625,-4.60662 27.9153,-8.50342 28.11734,-8.65956 0.20204,-0.15615 -4.73787,-5.929183 -10.97758,-12.828973 -10.95491,-12.113789 -11.51063,-12.567052 -16.16465,-13.18443 -3.70177,-0.491057 -4.74839,-1.01394 -4.5122,-2.254253 0.16914,-0.888192 1.31996,-1.759286 2.55738,-1.935765 1.97909,-0.282254 1.13538,-1.523963 -7.01021,-10.317208 -5.09305,-5.497985 -9.38116,-10.329323 -9.52914,-10.736307 -0.14798,-0.406985 16.05202,2.278049 36,5.966742 19.94798,3.688694 36.34352,6.639424 36.43452,6.55718 C 231.75646,64.567291 230.73053,51 229.38561,34.5 228.04069,18 227.06623,3.7206848 227.22015,2.7681884 227.40305,1.6363502 235.40408,10.210807 250.31496,27.518188 262.86319,42.083185 273.51531,54 273.98632,54 c 0.47102,0 11.57929,-5.848843 24.68504,-12.997428 16.89268,-9.214179 23.919,-12.581035 24.13908,-11.566903 0.17074,0.786788 -1.07053,10.996859 -2.75838,22.689047 -1.68785,11.692187 -2.72755,21.554203 -2.31044,21.915589 0.41711,0.361387 9.53338,1.876364 20.25838,3.366615 10.725,1.490252 22.76365,3.188217 26.75255,3.773256 l 7.25256,1.063707 -20.00256,19.475667 c -11.0014,10.71162 -19.99464,19.76924 -19.98497,20.12806 0.01,0.35881 11.24294,5.82739 24.96282,12.15239 13.71989,6.325 24.95906,11.725 24.97594,12 0.0169,0.275 -13.32907,4.22519 -29.65768,8.7782 -16.32861,4.55301 -29.92951,8.51931 -30.22421,8.81402 -0.40424,0.40423 7.00362,16.27155 8.52363,18.25724 0.14713,0.1922 6.3239,-3.95071 13.72616,-9.20648 C 365.68916,157.47345 364.76518,158 370.01909,158 c 5.89144,0 35.4065,10.1188 38.82592,13.31089 3.50193,3.2691 5.15499,7.08673 5.15499,11.90505 0,7.71704 -1.96171,9.77168 -25.45563,26.6617 -20.68422,14.87008 -22.00536,16.01195 -23.36182,20.19188 -2.37041,7.30444 -5.77162,10.69718 -20.56603,20.51484 l -14.11652,9.3678 -10.92736,26.42186 -10.92736,26.42186 -3.57264,0.59105 c -1.96495,0.32508 -6.16014,0.59601 -9.32264,0.60206 -3.1625,0.006 -5.75,0.17377 -5.75,0.37269 0,0.19893 1.35,3.33905 3,6.97805 1.65,3.63899 3,7.04306 3,7.56458 0,0.52153 -6.6375,4.42429 -14.75,8.6728 -27.16709,14.22738 -48.54235,26.08807 -77.16303,42.81616 -15.62716,9.1337 -29.35216,16.60308 -30.5,16.59862 -1.14783,-0.004 -18.73697,-2.68359 -39.08697,-5.95361 l -37,-5.94549 -9,6.11532 c -4.95,3.36343 -12.639802,8.72073 -17.08845,11.9051 -7.987561,5.71756 -8.110636,5.87174 -9.867223,12.3611 -2.220702,8.20394 -7.606432,19.55369 -11.778067,24.82081 -7.094502,8.95754 -16.792537,11.982 -24.816415,7.73932 z M 186.01295,328.26685 c 9.86547,-7.02177 17.95282,-13.21685 17.9719,-13.76685 0.15263,-4.40022 12.14191,-21.5 15.07444,-21.5 0.43208,0 1.30333,1.56873 1.93611,3.48607 0.63278,1.91734 1.56755,3.74382 2.07726,4.05884 1.47682,0.91272 34.8946,-23.31337 40.64321,-29.46414 3.64631,-3.9014 5.46335,-5.21472 6.03826,-4.36436 0.57753,0.85424 19.86668,-12.33625 64.78413,-44.30129 35.17896,-25.03473 64.31289,-45.86826 64.74206,-46.29673 0.42918,-0.42847 -6.71108,-3.56577 -15.86725,-6.97177 l -16.64757,-6.19274 -11.13275,7.88358 c -15.78468,11.17782 -80.46253,57.07676 -103.75948,73.6334 l -19.62674,13.9483 0.48546,3.61933 0.48545,3.61934 -5.54629,1.74452 c -3.05046,0.95948 -6.46167,1.59897 -7.58048,1.42108 -1.78075,-0.28313 -19.42922,11.78895 -69.24651,47.3667 l -4.65584,3.32504 9.54688,11.29528 c 6.11842,7.23894 10.0485,11.10279 10.9437,10.75927 0.76826,-0.29481 9.46858,-6.2811 19.33405,-13.30287 z m 16.80687,-55.42031 c 8.6664,-5.83934 8.61593,-5.74046 4.39211,-8.60494 -2.04156,-1.38453 -4.23786,-3.24279 -4.88066,-4.12946 -4.11213,-5.67227 -3.04174,-5.37951 -12.27349,-3.35701 l -8.40585,1.84157 -4.87909,6.95165 C 168.65143,277.11959 167.87354,276 184.03464,276 h 14.10501 z m 74.36845,-54.1733 c -0.25466,-0.95843 -10.87332,-20.38701 -11.75076,-21.49994 -0.14167,-0.17969 -9.07306,6.28832 -19.84754,14.37335 C 232.20576,221.58998 226,226.84671 226,228.14079 c 0,1.73322 3.47114,19.09452 4.6058,23.03644 0.37934,1.31785 5.45514,-1.85913 23.68849,-14.82676 12.76314,-9.07719 23.06543,-17.03195 22.89398,-17.67723 z M 309,197.46482 c 0,-1.18721 -2.85252,-0.29154 -3.37051,1.05832 -0.47685,1.24266 -0.22033,1.32825 1.39302,0.46482 C 308.11013,198.40588 309,197.72047 309,197.46482 Z M 120.70124,216.3679 C 120.31556,215.98222 120,214.16667 120,212.33333 120,209.19048 119.8,209 116.5,209 c -2.83333,0 -3.5,-0.38095 -3.5,-2 0,-1.61236 0.66667,-2 3.43963,-2 3.25285,0 3.45649,-0.20364 3.75,-3.75 0.24663,-2.97988 0.7211,-3.75 2.31037,-3.75 1.58927,0 2.06374,0.77012 2.31037,3.75 0.29351,3.54636 0.49715,3.75 3.75,3.75 2.77296,0 3.43963,0.38764 3.43963,2 0,1.61236 -0.66667,2 -3.43963,2 -3.25137,0 -3.45663,0.2048 -3.75,3.74168 -0.29604,3.56897 -2.35202,5.38333 -4.10913,3.62622 z m 23,-41 C 143.31556,174.98222 143,170.69167 143,165.83333 V 157 h -9 c -8.33333,0 -9,-0.14815 -9,-2 0,-1.85121 0.66667,-2 8.96107,-2 h 8.96106 l 0.28894,-8.75 c 0.27113,-8.21091 0.42755,-8.76969 2.53893,-9.06955 2.19143,-0.31123 2.25,-0.0835 2.25,8.75 V 153 h 9 c 8.33333,0 9,0.14815 9,2 0,1.85123 -0.66667,2 -8.96247,2 h -8.96248 l -0.28752,9.23857 c -0.23013,7.39422 -0.59672,9.29767 -1.83629,9.53457 -0.85182,0.1628 -1.86432,-0.0196 -2.25,-0.40524 z"
         id="path9" />
      <path
         style="fill:#9faec0"
         d="M 24.949845,448.03444 C 15.945729,443.27346 8.1893603,430.53906 3.3010562,412.49149 0.73986274,403.03559 0.59591165,401.3207 0.61562718,380.5 0.63512671,359.90739 0.805203,357.87284 3.274216,348.69644 10.861247,320.49827 24.922424,306.58383 39.810913,312.54102 l 3.851387,1.54102 16.415062,-7.58734 c 9.028284,-4.17303 17.379787,-8.21944 18.558895,-8.99202 1.179108,-0.77258 16.002678,-17.96424 32.941263,-38.20369 16.93859,-20.23944 31.27557,-37.1296 31.85996,-37.53368 0.58439,-0.40408 18.87799,-0.74158 40.65246,-0.75 L 223.67988,221 l 1.12136,3.75 c 0.61675,2.0625 2.06442,8.475 3.21705,14.25 1.15263,5.775 2.31497,11.25475 2.58299,12.17723 0.48451,1.6676 5.07507,-1.41656 59.33569,-39.86462 6.84034,-4.84694 16.29034,-11.49389 21,-14.77102 4.70967,-3.27712 11.08998,-7.77712 14.17847,-10 C 367.53493,156.01106 364.40578,158 370.01909,158 c 5.89144,0 35.4065,10.1188 38.82592,13.31089 3.50193,3.2691 5.15499,7.08673 5.15499,11.90505 0,7.71704 -1.96171,9.77168 -25.45563,26.6617 -20.68422,14.87008 -22.00536,16.01195 -23.36182,20.19188 -2.37041,7.30444 -5.77162,10.69718 -20.56603,20.51484 l -14.11652,9.3678 -10.92736,26.42186 -10.92736,26.42186 -3.57264,0.59105 c -1.96495,0.32508 -6.16014,0.59601 -9.32264,0.60206 -3.1625,0.006 -5.75,0.17377 -5.75,0.37269 0,0.19893 1.35,3.33905 3,6.97805 1.65,3.63899 3,7.04306 3,7.56458 0,0.52153 -6.6375,4.42429 -14.75,8.6728 -27.16709,14.22738 -48.54235,26.08807 -77.16303,42.81616 -15.62716,9.1337 -29.35216,16.60308 -30.5,16.59862 -1.14783,-0.004 -18.73697,-2.68359 -39.08697,-5.95361 l -37,-5.94549 -9,6.11532 c -4.95,3.36343 -12.639802,8.72073 -17.08845,11.9051 -7.987561,5.71756 -8.110636,5.87174 -9.867223,12.3611 -2.220702,8.20394 -7.606432,19.55369 -11.778067,24.82081 -7.094502,8.95754 -16.792537,11.982 -24.816415,7.73932 z M 186.01295,328.26685 c 9.86547,-7.02177 17.95282,-13.21685 17.9719,-13.76685 0.15263,-4.40022 12.14191,-21.5 15.07444,-21.5 0.43208,0 1.30333,1.56873 1.93611,3.48607 0.63278,1.91734 1.56755,3.74382 2.07726,4.05884 1.47682,0.91272 34.8946,-23.31337 40.64321,-29.46414 3.64631,-3.9014 5.46335,-5.21472 6.03826,-4.36436 0.57753,0.85424 19.86668,-12.33625 64.78413,-44.30129 35.17896,-25.03473 64.31289,-45.86826 64.74206,-46.29673 0.42918,-0.42847 -6.71108,-3.56577 -15.86725,-6.97177 l -16.64757,-6.19274 -11.13275,7.88358 c -15.78468,11.17782 -80.46253,57.07676 -103.75948,73.6334 l -19.62674,13.9483 0.48546,3.61933 0.48545,3.61934 -5.54629,1.74452 c -3.05046,0.95948 -6.46167,1.59897 -7.58048,1.42108 -1.78075,-0.28313 -19.42922,11.78895 -69.24651,47.3667 l -4.65584,3.32504 9.54688,11.29528 c 6.11842,7.23894 10.0485,11.10279 10.9437,10.75927 0.76826,-0.29481 9.46858,-6.2811 19.33405,-13.30287 z m 16.80687,-55.42031 c 8.6664,-5.83934 8.61593,-5.74046 4.39211,-8.60494 -2.04156,-1.38453 -4.23786,-3.24279 -4.88066,-4.12946 -4.11213,-5.67227 -3.04174,-5.37951 -12.27349,-3.35701 l -8.40585,1.84157 -4.87909,6.95165 C 168.65143,277.11959 167.87354,276 184.03464,276 h 14.10501 z M 120.70124,216.3679 C 120.31556,215.98222 120,214.16667 120,212.33333 120,209.19048 119.8,209 116.5,209 c -2.83333,0 -3.5,-0.38095 -3.5,-2 0,-1.61236 0.66667,-2 3.43963,-2 3.25285,0 3.45649,-0.20364 3.75,-3.75 0.24663,-2.97988 0.7211,-3.75 2.31037,-3.75 1.58927,0 2.06374,0.77012 2.31037,3.75 0.29351,3.54636 0.49715,3.75 3.75,3.75 2.77296,0 3.43963,0.38764 3.43963,2 0,1.61236 -0.66667,2 -3.43963,2 -3.25137,0 -3.45663,0.2048 -3.75,3.74168 -0.29604,3.56897 -2.35202,5.38333 -4.10913,3.62622 z m 104.61413,-19.37488 c -4.40048,-1.77299 -5.68485,-8.08021 -2.45712,-12.06629 2.47205,-3.05286 1.69771,-5.82897 -1.5625,-5.60171 -2.22429,0.15505 -2.7233,-0.48886 -4.38093,-5.65306 l -1.87071,-5.82803 7.70294,-14.74667 7.70294,-14.74667 -18.69423,-27.9253 C 201.47393,95.066382 192.26019,81.543518 191.28077,80.374486 c -1.43383,-1.711412 -3.32342,-2.247464 -9.69889,-2.751458 -4.35497,-0.344269 -8.12307,-0.83088 -8.37354,-1.081358 -0.25048,-0.250478 -0.19379,-1.137198 0.12597,-1.97049 0.48035,-1.251768 2.0225,-1.414833 8.87354,-0.938272 7.23754,0.503446 8.56236,0.8953 10.4167,3.081041 2.5158,2.965403 0.66312,3.153999 33.37545,-3.397513 12.375,-2.478422 34.36122,-6.876881 48.85826,-9.774353 l 26.35826,-5.268131 1.26747,3.113024 c 4.2745,10.498541 12.83553,38.683954 11.98749,39.466354 -0.53431,0.49296 -14.92148,7.43633 -31.97148,15.42969 -53.90688,25.27258 -47.74212,21.80552 -51.50835,28.96833 -1.80706,3.43676 -5.22985,9.88261 -7.60619,14.32411 -3.95908,7.3997 -4.23573,8.38295 -3.30604,11.75 0.55802,2.021 1.40401,3.67454 1.87996,3.67454 0.47596,0 22.89281,-7.37738 49.81522,-16.39417 31.35727,-10.50211 49.4382,-16.09235 50.30866,-15.55437 1.90582,1.17786 0.64081,2.14162 -5.89244,4.48917 -6.89431,2.47729 -7.83484,4.74561 -2.83407,6.83507 9.39481,3.9254 7.92089,15.6243 -1.96847,15.6243 -4.69769,0 -7.58828,-2.80018 -7.58828,-7.35094 0,-2.13682 0.73232,-4.57978 1.69013,-5.63816 2.09278,-2.31248 1.16052,-6.47455 -1.24359,-5.55201 C 301.55506,152.49171 228.6056,177 228.22288,177 c -0.19909,0 -0.21818,1.0079 -0.0424,2.23978 0.18595,1.30336 1.15572,2.39032 2.31955,2.59983 6.4314,1.1578 8.89367,10.13237 3.86514,14.08781 -2.78911,2.19391 -5.46681,2.50921 -9.04977,1.0656 z M 236.679,133.79911 c 1.82655,-0.66049 3.31672,-1.89799 3.3115,-2.75 -0.005,-0.85201 -1.81167,-4.38989 -4.01432,-7.86195 -4.25778,-6.71159 -4.70463,-6.87047 -10.69309,-3.80192 -2.20582,1.13029 -2.19345,1.17218 2.47378,8.37537 2.57988,3.98166 4.89554,7.23939 5.14591,7.23939 0.25038,0 1.94967,-0.5404 3.77622,-1.20089 z m 11.78707,-5.48432 C 250.40973,127.38792 252,126.2561 252,125.79964 c 0,-0.63327 -5.32171,-10.84437 -6.57473,-12.61536 C 244.86592,112.39371 237,115.20217 237,116.19244 237,117.42079 243.84646,130 244.51501,130 c 0.22943,0 2.0074,-0.75835 3.95106,-1.68521 z m 12.61629,-5.85738 c 1.64067,-0.84842 2.8101,-1.86092 2.59874,-2.25 -0.21136,-0.38907 -1.60988,-3.25608 -3.10782,-6.37111 l -2.72354,-5.66371 -4.42487,1.50771 C 250.99119,110.50954 249,111.38354 249,111.62252 c 0,0.23898 1.35648,3.12168 3.0144,6.406 3.21418,6.36725 4.29693,6.89608 9.06796,4.42889 z m 10.51651,-5.07135 c 3.921,-1.86064 3.9252,-1.87701 1.79672,-7.01394 -2.46051,-5.93827 -3.04043,-6.38462 -6.70707,-5.16219 -1.75369,0.58467 -3.59069,1.42629 -4.08224,1.87027 -0.88197,0.79663 3.76487,11.9198 4.97965,11.9198 0.3365,0 2.14232,-0.72627 4.01294,-1.61394 z M 230,113.29598 c 0,-0.28382 -1.42319,-3.1862 -3.16264,-6.44974 -3.00175,-5.63186 -3.31487,-5.90027 -6.15526,-5.27642 -1.64594,0.36151 -4.26281,1.19137 -5.81526,1.84412 l -2.82264,1.18683 2.62029,3.94962 c 5.39459,8.13139 5.93361,8.46516 10.92436,6.76464 C 228.01498,114.48836 230,113.57979 230,113.29598 Z m 55.34879,-7.78575 c -0.8448,-2.47934 -1.84323,-4.69778 -2.21874,-4.92986 -1.41689,-0.875683 -8.12944,1.95097 -8.10809,3.41432 0.0121,0.82792 0.8975,3.43439 1.96761,5.79216 l 1.94564,4.28685 3.97479,-2.02778 3.97478,-2.02779 z m -45.78143,5.02607 3.50312,-1.4637 -2.65381,-5.2863 c -3.8807,-7.730218 -3.88489,-7.733439 -8.15084,-6.266876 -2.03271,0.69881 -3.87846,1.818481 -4.10169,2.488156 -0.3714,1.11419 2.78186,7.74244 5.11048,10.74242 1.24048,1.59811 2.01982,1.57164 6.29274,-0.2137 z M 253.75,105.89122 c 1.2375,-0.46294 2.25,-1.09069 2.25,-1.39499 0,-0.30429 -1.37761,-3.28229 -3.06135,-6.617758 -3.28719,-6.5119 -3.40082,-6.554251 -10.42214,-3.884747 l -2.57171,0.977759 2.17213,4.264258 c 4.78652,9.396728 4.59631,9.287908 11.63307,6.655478 z m 41.09636,0.53554 c 3.45114,-1.72166 3.69351,-2.57964 2.05581,-7.277537 -1.2588,-3.611004 -0.95817,-3.512336 -6.05181,-1.986244 -4.14352,1.241431 -4.19339,1.484047 -1.66199,8.087021 1.22915,3.20615 1.48381,3.25912 5.65799,1.17676 z M 267.35004,97.141912 C 266.47748,95.13886 265.26811,92.2625 264.66255,90.75 264.05699,89.2375 262.82733,88 261.92999,88 259.4952,88 254,90.077876 254,90.998529 c 0,0.824701 3.96757,9.617461 5.24395,11.621421 0.51633,0.81064 1.95328,0.71175 5.20295,-0.35809 l 4.48962,-1.47804 z m 40.12291,3.304948 c 3.32013,-1.387243 3.64607,-1.841217 3.05136,-4.250003 -1.02348,-4.145453 -2.0308,-4.661292 -6.49221,-3.324619 -4.26948,1.279166 -5.09794,3.267711 -2.99692,7.193502 1.25034,2.33628 1.69535,2.36263 6.43777,0.38112 z m -91.90109,-1.091714 c 2.71048,-0.90467 5.09417,-1.783203 5.2971,-1.952296 0.72099,-0.600771 -9.24523,-17.402121 -10.29788,-17.36048 -4.09052,0.161813 -12.02886,2.868201 -11.75926,4.009038 C 199.10355,85.285915 209.83908,101 210.39074,101 c 0.13914,0 2.47064,-0.74018 5.18112,-1.644854 z m 64.62084,-2.477977 c 1.56904,-0.821461 1.538,-1.269447 -0.42485,-6.131688 -3.04695,-7.54773 -3.24967,-7.723548 -7.56304,-6.559465 -2.03765,0.549915 -4.07262,1.348337 -4.52217,1.774273 -0.44954,0.425935 0.42169,3.551479 1.93608,6.945655 2.6672,5.977951 2.8494,6.150654 5.81736,5.51433 1.68516,-0.361294 3.82564,-1.055691 4.75662,-1.543105 z M 231.4559,94.016768 C 232.85515,93.484772 234,92.686138 234,92.242026 c 0,-1.103199 -6.93201,-14.081973 -7.81157,-14.625572 -0.84319,-0.521119 -9.02587,0.88765 -9.83072,1.692504 -0.30966,0.309655 1.39568,4.207921 3.78964,8.662812 4.66335,8.677989 4.54694,8.615758 11.30855,6.044998 z M 292.25,92.826484 c 2.11791,-1.085402 2.09908,-1.913877 -0.18926,-8.326484 -1.68247,-4.714761 -1.96885,-4.984766 -5.02008,-4.732961 -1.7797,0.146872 -4.07042,0.713704 -5.09048,1.259626 -1.69062,0.904791 -1.73521,1.323428 -0.50413,4.732961 3.42072,9.47385 3.31945,9.334931 6.28797,8.625105 1.52129,-0.363768 3.55348,-1.064979 4.51598,-1.558247 z M 247.04219,88.473925 C 247.87655,87.958262 241.60278,74 240.53665,74 c -0.24101,0 -2.7134,0.487941 -5.49419,1.084314 l -5.05598,1.084313 4.08141,7.844989 4.08142,7.844988 3.98061,-1.404443 c 2.18934,-0.772444 4.39986,-1.66355 4.91227,-1.980236 z m 55.93757,0.917495 C 305.19089,88.506701 307,87.251927 307,86.603033 c 0,-0.648894 -0.87642,-3.637533 -1.9476,-6.64142 -2.06892,-5.80185 -2.7941,-6.150914 -8.37241,-4.030045 C 295.206,76.49198 294,77.619756 294,78.437737 294,80.140793 297.93455,91 298.55161,91 c 0.22436,0 2.21702,-0.723861 4.42815,-1.60858 z M 259.25,84.49716 c 2.28498,-0.928532 2.23009,-1.428525 -0.87722,-7.99127 -2.61021,-5.512833 -2.6507,-5.544482 -6.25,-4.885104 -7.42378,1.360004 -7.36449,1.264124 -4.54499,7.349724 3.92428,8.470145 4.15726,8.580458 11.67221,5.52665 z m 11.85078,-3.645617 c 1.86957,-0.631651 3.52821,-1.248145 3.68587,-1.369987 0.28043,-0.21672 -3.66729,-10.694365 -4.24873,-11.276583 -0.31583,-0.316246 -9.77856,1.87378 -10.42469,2.412657 -0.21272,0.177412 0.68728,2.803343 2,5.835402 2.54993,5.889697 3.37654,6.294239 8.98755,4.398511 z m 14.35512,-4.834775 c 2.92305,-1.111343 3.13892,-2.657409 1.06429,-7.622683 -1.08726,-2.602195 -1.94937,-3.409274 -3.25,-3.042538 -0.9736,0.274526 -3.23269,0.79349 -5.02019,1.153251 -3.79816,0.764439 -3.76058,0.598309 -1.538,6.79916 1.84058,5.135076 2.13368,5.226011 8.7439,2.71281 z m 12.50369,-4.152525 c 3.02964,-1.056137 3.2179,-1.383077 2.68553,-4.663693 -0.7555,-4.655575 -1.37555,-5.041555 -6.39512,-3.980897 -4.56826,0.965295 -5.15743,2.263419 -3.27475,7.215247 1.08572,2.855661 2.22435,3.088682 6.98434,1.429343 z M 143.70124,175.3679 C 143.31556,174.98222 143,170.69167 143,165.83333 V 157 h -9 c -8.33333,0 -9,-0.14815 -9,-2 0,-1.85121 0.66667,-2 8.96107,-2 h 8.96106 l 0.28894,-8.75 c 0.27113,-8.21091 0.42755,-8.76969 2.53893,-9.06955 2.19143,-0.31123 2.25,-0.0835 2.25,8.75 V 153 h 9 c 8.33333,0 9,0.14815 9,2 0,1.85123 -0.66667,2 -8.96247,2 h -8.96248 l -0.28752,9.23857 c -0.23013,7.39422 -0.59672,9.29767 -1.83629,9.53457 -0.85182,0.1628 -1.86432,-0.0196 -2.25,-0.40524 z"
         id="path8" />
      <path
         style="fill:#9eacb9"
         d="M 25.461292,448.12153 C 14.202103,443.00714 4.4647603,423.62469 1.0348399,399.5 c -1.28052636,-9.00671 -1.27840707,-29.01622 0.00402,-38 4.9032468,-34.34857 21.2446631,-55.57193 37.7147571,-48.9819 l 4.195888,1.67886 -1.500435,2.90152 c -1.587817,3.0705 -3.092136,4.01969 -2.044723,1.29018 0.452567,-1.17937 0.191242,-1.44745 -0.974799,-1 -0.87622,0.33624 -1.893824,0.61823 -2.26134,0.62665 -0.367517,0.008 -0.01111,0.43095 0.792024,0.93895 1.249701,0.79047 1.191311,1.2208 -0.404988,2.98469 -2.03105,2.24429 -6.012051,2.74898 -7.150741,0.90654 C 28.932373,322.08156 29.133831,321.96468 30,322.5 c 0.867261,0.536 1.067659,0.41849 0.59382,-0.3482 -0.537182,-0.86917 -1.260124,-0.87392 -2.904508,-0.019 -2.85745,1.4855 -3.660814,2.3551 -1.439312,1.55796 0.977354,-0.3507 1.75,-0.14881 1.75,0.45725 0,0.62194 -1.080757,0.87859 -2.531728,0.60122 -1.873047,-0.35805 -3.051543,0.17687 -4.529706,2.05605 -1.415745,1.79983 -1.660576,2.74854 -0.840157,3.25559 0.636802,0.39357 0.81892,1.26393 0.404706,1.93414 -0.579324,0.93737 -0.951499,0.90547 -1.612802,-0.1382 -0.472828,-0.74622 -0.866578,-0.86926 -0.875,-0.27343 -0.0084,0.59584 0.27544,1.37409 0.630805,1.72945 0.355365,0.35537 0.757948,2.0677 0.894629,3.80519 0.167813,2.13324 -0.03703,2.70819 -0.630805,1.77055 -0.707125,-1.11661 -0.882315,-1.05739 -0.894629,0.30246 -0.0084,0.93004 -0.530558,2.00942 -1.160302,2.39863 -1.192174,0.7368 -0.882705,-2.1032 0.663572,-6.08961 0.511529,-1.31876 0.439614,-1.65938 -0.211129,-1 -0.542796,0.55 -1.580836,2.50406 -2.306755,4.34236 -1.074468,2.72095 -1.080447,3.49032 -0.03216,4.1382 0.70823,0.43771 0.94879,1.34419 0.534576,2.0144 -0.579324,0.93737 -0.951499,0.90547 -1.612802,-0.1382 -1.432118,-2.26017 -0.99227,0.63159 0.573454,3.77015 1.800406,3.609 0.993586,7.37309 -1.580398,7.37309 -1.459348,0 -1.882065,0.7317 -1.877577,3.25 0.01584,8.88602 5.050151,26.45149 7.200229,25.12267 0.606587,-0.37489 0.843639,-0.0618 0.558838,0.73813 -0.749792,2.10595 1.057121,4.89474 2.750395,4.24497 C 22.331864,389.04241 23,389.28417 23,389.89301 23,390.50186 22.475,391 21.833333,391 c -0.641666,0 -0.829166,0.3375 -0.416666,0.75 0.4125,0.4125 1.275,0.75 1.916666,0.75 0.641667,0 1.320196,1.125 1.507842,2.5 0.414877,3.04006 3.045404,6.18813 4.44698,5.32191 0.561474,-0.34701 0.746545,-0.18707 0.41127,0.35541 -0.335276,0.54249 1.709051,3.19952 4.54295,5.90451 2.833898,2.70499 4.558586,4.13067 3.832639,3.16817 -1.556415,-2.06358 -0.501812,-2.22745 3.217819,-0.5 2.792622,1.29693 3.906808,4.42432 1.207167,3.38837 -2.690592,-1.03247 -1.583488,0.278 2.540387,3.00705 3.293176,2.17933 4.264087,2.43222 5.25,1.36749 0.831416,-0.89789 0.847004,-1.10311 0.04986,-0.65637 -0.637867,0.35747 -1.848483,0.38566 -2.690259,0.0626 -1.234336,-0.47366 -1.317492,-1.05481 -0.429727,-3.00324 1.140883,-2.50397 3.236484,-3.04546 5.715442,-1.47684 1.18984,0.7529 1.211684,1.17839 0.127555,2.48468 C 52.343775,415.2907 52.041825,416 52.392254,416 c 0.350428,0 1.578407,-1.4625 2.72884,-3.25 1.150434,-1.7875 1.823974,-2.43913 1.496756,-1.44806 -0.349974,1.05999 -0.187907,1.55037 0.393604,1.19098 C 57.555154,412.1569 58,411.28167 58,410.54797 c 0,-1.6362 2.26946,-2.6175 3.827115,-1.65482 1.571827,0.97144 -1.760465,12.49302 -6.249174,21.60685 -8.113017,16.47259 -18.834995,22.74612 -30.116649,17.62153 z M 13.09387,349.91952 c -0.90871,-2.27345 -0.970924,-2.21123 -1.030484,1.03048 -0.04351,2.36804 0.259786,3.12683 0.967098,2.41952 0.682356,-0.68236 0.70377,-1.84787 0.06339,-3.45 z M 33.5,405 c -0.339919,-0.55 0.110081,-1 1,-1 0.889919,0 1.339919,0.45 1,1 -0.339919,0.55 -0.789919,1 -1,1 -0.210081,0 -0.660081,-0.45 -1,-1 z m -6.935707,-7.70687 c -0.542685,-1.4252 -0.427821,-1.54006 0.559795,-0.5598 0.683418,0.67834 0.990671,1.48524 0.682784,1.79313 -0.307887,0.30789 -0.867048,-0.24711 -1.242579,-1.23333 z M 166.54271,394.0691 c -0.31644,-0.512 -0.11799,-1.21356 0.44098,-1.55902 0.55897,-0.34546 1.01631,0.0734 1.01631,0.9309 0,1.75653 -0.60006,2.01516 -1.45729,0.62812 z M 133,388.94098 c 0,-0.58246 0.45,-0.7809 1,-0.44098 0.55,0.33992 1,0.81648 1,1.05902 0,0.24254 -0.45,0.44098 -1,0.44098 -0.55,0 -1,-0.47656 -1,-1.05902 z M 19.650663,387.53203 c -0.309823,-0.80739 -0.132968,-1.73395 0.393011,-2.05902 C 20.569653,385.14793 21,385.80852 21,386.94098 c 0,2.41457 -0.556111,2.65816 -1.349337,0.59105 z m 72.36465,-1.22301 c -0.02407,-1.8719 2.039555,-2.66408 3.321819,-1.27518 0.899574,0.97438 0.854532,1.08414 -0.198935,0.48475 -0.806547,-0.4589 -1.717711,-0.21291 -2.234688,0.60329 -0.573892,0.90607 -0.878129,0.97017 -0.888196,0.18714 z M 116,386 c 0,-0.55 0.47656,-1 1.05902,-1 0.58246,0 0.7809,0.45 0.44098,1 -0.33992,0.55 -0.81648,1 -1.05902,1 C 116.19844,387 116,386.55 116,386 Z m 76,-1.39301 c 0,-0.21616 0.69837,-0.661 1.55194,-0.98855 0.88992,-0.34149 1.29132,-0.17385 0.94098,0.39301 C 193.90566,384.96166 192,385.4169 192,384.60699 Z M 16.657916,381.55093 c -0.373092,-0.97227 -0.07552,-1.26467 0.904352,-0.88866 1.069117,0.41026 1.277874,0.0847 0.779134,-1.21497 -0.466656,-1.21609 -0.312714,-1.5476 0.488659,-1.05233 1.638674,1.01276 1.464661,4.60503 -0.223072,4.60503 -0.766156,0 -1.643239,-0.65208 -1.949073,-1.44907 z M 199.5,380 c 0.33992,-0.55 1.06803,-1 1.61803,-1 0.55,0 0.72189,0.45 0.38197,1 -0.33992,0.55 -1.06803,1 -1.61803,1 -0.55,0 -0.72189,-0.45 -0.38197,-1 z M 14.88598,376.75 c -0.06271,-0.6875 -0.260025,-2.47805 -0.438474,-3.97901 -0.178449,-1.50095 0.145903,-3.0197 0.720783,-3.375 0.680664,-0.42067 0.574921,-0.93666 -0.303167,-1.47935 -1.009661,-0.624 -1.061896,-1.11987 -0.207926,-1.97384 1.538457,-1.53845 2.954754,4.61492 1.473106,6.4002 -0.57563,0.69359 -0.787949,2.25016 -0.47182,3.45904 0.316129,1.20888 0.297297,2.19796 -0.04185,2.19796 -0.339147,0 -0.66794,-0.5625 -0.730651,-1.25 z M 206.5,376 c 2.74909,-1.18132 4.32797,-1.18132 2.5,0 -0.825,0.53316 -2.175,0.94464 -3,0.9144 -0.98906,-0.0362 -0.81874,-0.34772 0.5,-0.9144 z m 9.5,-3.86908 c 0,-1.37243 2.75705,-3.33304 3.34629,-2.37963 0.28839,0.46662 -0.34655,1.39229 -1.41097,2.05703 -1.06443,0.66475 -1.93532,0.80991 -1.93532,0.3226 z m 8.73333,-6.25501 c 0.67834,-0.68342 1.48524,-0.99067 1.79313,-0.68278 0.30789,0.30789 -0.24711,0.86705 -1.23333,1.24258 -1.4252,0.54268 -1.54006,0.42782 -0.5598,-0.5598 z M 15.078947,362.41667 c 0.04798,-1.16495 0.284941,-1.4019 0.604167,-0.60417 0.288871,0.72187 0.253344,1.58438 -0.07895,1.91667 -0.332292,0.33229 -0.568641,-0.25834 -0.52522,-1.3125 z M 159.5,360.22686 c -2.7347,-0.62655 -3.7579,-2.50531 -2.05887,-3.78041 1.14539,-0.85961 0.77379,-1.61621 -2.01866,-4.11003 -3.16629,-2.8277 -4.94244,-3.25639 -2.22247,-0.53642 0.8886,0.8886 0.89871,1.2 0.039,1.2 -1.58762,0 -5.21262,-4.02056 -5.35431,-5.93856 -0.0634,-0.85879 -0.17594,-2.01144 -0.25,-2.56144 -0.0741,-0.55 -2.3812,-3.79507 -5.12699,-7.21128 l -4.99235,-6.21128 -3.21874,3.11973 c -1.77031,1.71586 -2.94173,3.56796 -2.60315,4.11579 0.36012,0.58269 0.10469,0.6803 -0.6155,0.2352 -0.7298,-0.45104 -2.03017,0.0968 -3.19346,1.34549 C 126.80515,341.05214 125.48962,342 124.96104,342 124.43247,342 124,342.675 124,343.5 c 0,0.825 -0.62252,1.5 -1.38337,1.5 -0.76085,0 -1.61872,0.9 -1.90638,2 -0.32192,1.23101 -1.42412,2.04435 -2.86663,2.11535 -1.28899,0.0634 -2.79362,0.2199 -3.34362,0.34769 -0.55,0.12778 -1.675,0.30776 -2.5,0.39996 -1.17105,0.13087 -1.21725,0.34702 -0.21066,0.98565 0.83345,0.52878 0.22872,0.81802 -1.71027,0.81802 -2.37955,0 -3.19952,-0.57344 -3.96666,-2.77406 -0.75822,-2.17501 -0.68087,-2.66424 0.35815,-2.26553 1.71147,0.65675 5.54126,-3.4327 4.86504,-5.1949 -0.55125,-1.43653 1.63976,-2.19758 7.6644,-2.66224 1.925,-0.14847 3.51595,-0.71994 3.53544,-1.26994 0.0195,-0.55 0.62367,-2.06081 1.34264,-3.35736 0.95596,-1.72394 1.60475,-2.05981 2.41456,-1.25 1.64152,1.64152 3.01129,1.34177 2.30301,-0.50398 -0.43243,-1.12689 -0.18593,-1.44541 0.8199,-1.05944 0.79102,0.30354 2.03362,-0.20885 2.76134,-1.13866 1.189,-1.51921 1.14574,-1.55145 -0.42689,-0.31812 -1.54808,1.21409 -1.75,1.12755 -1.75,-0.75 0,-1.59727 0.61859,-2.12244 2.5,-2.12244 2.02736,0 2.5,-0.49287 2.5,-2.60699 0,-1.83882 0.4176,-2.44674 1.41724,-2.06314 0.77948,0.29911 1.67433,-0.12611 1.98855,-0.94495 0.32239,-0.84014 0.1406,-1.22261 -0.41724,-0.87784 -1.97009,1.21758 -0.9266,-1.46177 1.63623,-4.20132 1.44362,-1.54317 2.00612,-1.93188 1.25,-0.8638 -1.07098,1.51281 -1.08492,1.76758 -0.0631,1.15286 0.72143,-0.434 1.72279,-1.87039 2.22525,-3.19196 0.6164,-1.62125 1.69879,-2.40286 3.32754,-2.40286 1.32768,0 3.27252,-0.7875 4.32188,-1.75 1.04935,-0.9625 1.40374,-1.42341 0.78753,-1.02425 -0.76802,0.49751 -0.98237,-0.21458 -0.68154,-2.26421 0.39349,-2.68106 6.15398,-8.47863 6.23946,-6.27963 0.0175,0.44995 0.6449,0.01 1.39423,-0.97839 0.74933,-0.98806 1.14582,-2.62477 0.88108,-3.63714 -0.26474,-1.01236 0.0774,-2.18598 0.76028,-2.60803 0.80037,-0.49465 0.98805,-0.35707 0.5281,0.38714 -0.39244,0.63498 -0.4778,1.15451 -0.18969,1.15451 0.28811,0 1.00008,-0.88987 1.58216,-1.97749 0.86343,-1.61335 0.77784,-1.86987 -0.46482,-1.39302 -1.94357,0.74582 -1.95463,-0.34085 -0.0231,-2.27235 0.825,-0.825 1.5,-2.81785 1.5,-4.42857 0,-1.61071 0.47656,-2.92857 1.05902,-2.92857 0.58246,0 0.7809,-0.45 0.44098,-1 -0.33992,-0.55 0.0835,-1 0.94098,-1 0.85746,0 1.56591,-0.7875 1.57433,-1.75 0.008,-0.9625 0.4879,-2.425 1.06551,-3.25 0.82277,-1.17516 0.91357,-1.01411 0.4193,0.74371 -0.47578,1.69202 -0.27771,2.10817 0.80555,1.69249 0.79005,-0.30317 2.1159,0.12823 2.94634,0.95867 0.83044,0.83044 1.84437,1.19382 2.25317,0.80751 0.4088,-0.38631 0.39495,0.42262 -0.0308,1.79762 -1.11729,3.60856 -0.72469,9.22728 0.70654,10.11183 1.23434,0.76287 6.09609,-1.56394 7.98495,-3.82156 0.74977,-0.89613 0.47061,-1.10543 -1.07688,-0.80741 -1.14896,0.22127 -2.08902,-0.0283 -2.08902,-0.55454 0,-0.52626 1.35,-0.71901 3,-0.42832 1.70885,0.30106 3,0.092 3,-0.48574 0,-0.55784 0.65264,-1.01426 1.45031,-1.01426 0.79767,0 1.81017,-0.61403 2.25,-1.36452 0.43983,-0.75049 2.37469,-2.157 4.29969,-3.12559 3.96756,-1.99633 16.34468,-10.54542 16.79795,-11.60264 0.16387,-0.38221 1.28887,-0.46147 2.5,-0.17612 2.18423,0.51462 2.18587,0.50522 0.20205,-1.16132 -1.97481,-1.65898 -1.97248,-1.66685 0.18426,-0.62498 C 216.4558,266.2837 223,266.32246 223,265 c 0,-0.55 1.2375,-0.99311 2.75,-0.98469 2.14294,0.0119 2.41887,0.22931 1.25,0.98469 -1.24079,0.80186 -1.2544,0.97202 -0.0787,0.98469 0.78169,0.008 2.24695,-0.73193 3.25613,-1.64523 1.00918,-0.91329 2.15658,-1.33882 2.54978,-0.94562 1.49012,1.49012 -6.61918,4.58983 -12.03581,4.60058 -1.5619,0.003 -4.44721,1.27994 -6.5,2.87645 -2.03025,1.57898 -17.86636,12.89014 -35.19136,25.13592 -17.325,12.24577 -31.83816,22.56454 -32.25146,22.93059 -0.4133,0.36604 3.68388,5.89683 9.10485,12.29064 l 9.85631,11.62509 18.89515,-13.43426 c 10.39233,-7.38884 19.45102,-14.44329 20.13041,-15.67655 l 1.23526,-2.2423 0.0147,2.16667 c 0.008,1.19166 -0.40341,2.31666 -0.91449,2.5 -0.51107,0.18333 -1.24647,3.16596 -1.63423,6.62807 -0.55842,4.98599 -0.42864,6.23346 0.62421,6 1.89001,-0.4191 3.60377,9.97029 1.90719,11.562 -0.94497,0.88655 -1.10932,0.52578 -0.73194,-1.60674 0.26766,-1.5125 0.0604,-2.75 -0.46066,-2.75 -0.52102,0 -0.79612,1.9125 -0.61133,4.25 0.2566,3.24579 -0.0184,4.26092 -1.16401,4.29623 -2.54038,0.0783 -6,2.44003 -6,4.09594 0,0.97108 -0.56104,1.35651 -1.46797,1.00849 -1.77103,-0.6796 -3.09619,1.15714 -2.67569,3.70865 0.18616,1.12964 -0.11797,1.59703 -0.77496,1.19098 C 191.48284,354.18037 191,354.57807 191,355.44098 191,356.49961 190.05604,357 188.05902,357 c -1.61754,0 -3.2191,0.45 -3.55902,1 -0.33992,0.55 -1.06803,1 -1.61803,1 -0.55,0 -0.67892,-0.51953 -0.28648,-1.15451 0.45101,-0.72975 0.27333,-0.88245 -0.48294,-0.41505 -1.70115,1.05137 -16.07257,2.31388 -15.48314,1.36017 0.7274,-1.17696 -0.42124,-0.95945 -2.91459,0.55193 -1.21815,0.7384 -3.11482,1.13634 -4.21482,0.88432 z M 190,354 c 0.5887,-1.1 0.84537,-2 0.57037,-2 -0.275,0 -0.98167,0.9 -1.57037,2 -0.5887,1.1 -0.84537,2 -0.57037,2 0.275,0 0.98167,-0.9 1.57037,-2 z m -39,-6.37756 c 0,-0.20765 -0.6853,-0.9463 -1.52289,-1.64144 -1.27335,-1.05678 -1.41968,-0.99492 -0.89301,0.37756 0.53789,1.40173 2.4159,2.38422 2.4159,1.26388 z m -32,-7.22943 C 119,340.17686 118.07344,340 116.94098,340 c -1.13246,0 -1.79305,0.43035 -1.46797,0.95633 0.53361,0.8634 3.52699,0.38531 3.52699,-0.56332 z m 6.92611,-4.80398 c 0.64406,-0.77604 0.78922,-1.64693 0.3226,-1.93532 -0.46662,-0.28839 -1.39229,0.34655 -2.05703,1.41097 -1.38905,2.22423 -0.0199,2.63815 1.73443,0.52435 z m 42.46758,-42.17259 c 0.37373,-0.97391 0.15024,-1.43108 -0.58051,-1.1875 -1.49484,0.49828 -2.31789,2.77106 -1.0035,2.77106 0.53699,0 1.24979,-0.7126 1.58401,-1.58356 z m 4.46799,0.25023 c 0.82691,-0.99637 0.77361,-1.33334 -0.21089,-1.33334 -0.7246,0 -1.31746,0.6 -1.31746,1.33334 0,0.73333 0.0949,1.33333 0.21089,1.33333 0.11599,0 0.70885,-0.6 1.31746,-1.33333 z m -6.87699,-9.97569 C 165.99311,283.24602 165.55,283.16008 165,283.5 c -0.55,0.33992 -0.99311,1.37898 -0.98469,2.30902 0.0132,1.45727 0.14929,1.48367 0.98469,0.19098 0.53316,-0.825 0.97627,-1.86406 0.98469,-2.30902 z m 5.94502,0 C 171.86195,281.57862 171.82859,281.57176 171,283.5 c -1.18278,2.75248 -1.18278,3.731 0,3 0.55,-0.33992 0.96837,-1.60398 0.92971,-2.80902 z m 69.03512,72.76664 c -0.96957,-1.16826 -0.99927,-1.82318 -0.12245,-2.7 0.63669,-0.63669 1.19205,-0.73012 1.23413,-0.20762 0.0421,0.5225 0.22726,1.7375 0.41152,2.7 0.4117,2.15064 0.12212,2.19011 -1.5232,0.20762 z m 2.01282,-3.02534 c -0.6476,-1.96225 -2.38001,-4.79791 -3.84979,-6.30148 -1.46979,-1.50358 -2.7479,-3.8356 -2.84024,-5.18229 l -0.1679,-2.44851 1.4047,2.5 c 0.77259,1.375 1.42066,2.17777 1.44014,1.78393 0.0578,-1.1686 -3.28358,-7.78393 -3.93166,-7.78393 -0.32818,0 -0.68281,-1.04061 -0.78807,-2.31247 -0.26851,-3.24433 -4.2466,-12.02623 -5.88305,-12.98722 C 227.6128,320.26048 227,319.17502 227,318.28817 227,316.08201 222.16834,308 220.84944,308 c -0.62826,0 -0.81704,-0.99295 -0.45957,-2.41724 0.33368,-1.32948 0.17716,-2.56698 -0.34782,-2.75 -0.52499,-0.18302 -1.06932,-2.06672 -1.20962,-4.186 l -0.25511,-3.85323 -3.09957,3.35323 c -1.70476,1.84428 -3.97216,4.02049 -5.03866,4.83601 -1.88009,1.43764 -1.87911,1.40722 0.0321,-1 6.41522,-8.08019 8.82654,-9.61398 9.79874,-6.23277 0.27674,0.9625 0.82168,2.65 1.21096,3.75 0.56875,1.60712 0.49582,1.70534 -0.37123,0.5 -0.94466,-1.31321 -1.08093,-1.29733 -1.09434,0.12756 -0.008,0.89515 0.65969,2.18775 1.48469,2.87244 0.95306,0.79097 1.5,0.85551 1.5,0.17701 0,-1.64764 34.96569,-26.31625 36.21056,-25.54688 0.66057,0.40826 0.81402,0.21865 0.38493,-0.47562 C 259.16747,276.46193 259.5351,276 260.51432,276 c 1.02571,0 1.49794,0.65036 1.2707,1.75 -0.1989,0.9625 -1.1002,1.69278 -2.00289,1.62285 -2.24286,-0.17376 -4.64085,5.47839 -2.80551,6.61269 0.99306,0.61375 0.79673,1.22811 -0.84043,2.62988 -1.1749,1.00599 -2.12929,2.51655 -2.12087,3.35682 0.0135,1.3511 0.12589,1.35431 0.9716,0.0278 0.64855,-1.01731 0.92388,1.14812 0.85559,6.72923 -0.0554,4.52608 -0.4063,8.04036 -0.77981,7.80951 -0.37352,-0.23084 -2.00292,0.71105 -3.62091,2.09311 -1.61798,1.38205 -2.30281,2.18145 -1.52184,1.77644 1.06264,-0.55109 1.24702,-0.28576 0.73275,1.05441 -0.37796,0.98494 -0.16428,2.42087 0.47484,3.19096 0.9612,1.15818 0.57531,1.36493 -2.23275,1.19627 -1.86713,-0.11215 -3.95196,-0.62495 -4.63295,-1.13954 -0.83881,-0.63386 -1.43776,-0.41551 -1.85699,0.67699 -0.34035,0.88694 -1.2598,1.61262 -2.04321,1.61262 -0.78342,0 -1.68243,0.67242 -1.9978,1.49426 -0.31537,0.82184 -0.94515,1.2645 -1.39952,0.98368 -0.45436,-0.28081 -1.15174,0.0163 -1.54972,0.66026 -0.43488,0.70364 -0.29147,0.90374 0.35941,0.50148 0.63059,-0.38973 1.22723,0.27677 1.42825,1.59549 0.18988,1.24566 0.89705,2.15233 1.57149,2.01483 1.4218,-0.28987 1.55371,0.68511 0.34968,2.58453 -0.6332,0.99893 -0.9966,0.75842 -1.44502,-0.95633 -0.32949,-1.25997 -0.84738,-2.04255 -1.15087,-1.73907 -1.06795,1.06795 3.68293,10.10315 5.57221,10.5972 1.04515,0.27332 1.90026,1.11945 1.90026,1.8803 0,1.72451 -1.65752,1.81907 -2.33772,0.13337 -0.27741,-0.6875 -0.53991,-0.77351 -0.58333,-0.19113 -0.0434,0.58238 0.62942,1.93238 1.49521,3 0.86578,1.06762 1.28923,1.37863 0.94098,0.69113 -0.34825,-0.6875 -0.15986,-1.25 0.41865,-1.25 0.5785,0 0.98542,1.69452 0.90426,3.76561 -0.0812,2.07108 0.62045,5.10858 1.55911,6.75 l 1.70666,2.98439 -0.52533,-3 c -0.48507,-2.77007 -0.43901,-2.82755 0.6009,-0.75 0.61943,1.2375 1.84497,2.28046 2.72342,2.31768 1.10987,0.047 0.91069,0.39877 -0.65281,1.15281 -1.2375,0.59683 -2.25,1.64323 -2.25,2.32534 0,1.01456 -2.05557,2.45417 -3.50424,2.45417 -0.18736,0 -0.87051,-1.60547 -1.51811,-3.56772 z M 226.36163,310.5 C 225.73448,308.86567 224,308.43725 224,309.91667 c 0,0.759 0.70084,1.27571 2.71862,2.00438 0.12023,0.0434 -0.0404,-0.59605 -0.35699,-1.42105 z m 27.34563,-13.73834 c -0.23919,-1.24391 -0.44398,-0.46166 -0.45508,1.73834 -0.0111,2.2 0.18461,3.21775 0.4349,2.26166 0.25029,-0.95609 0.25937,-2.75609 0.0202,-4 z m -53.97393,50.11425 c 0.67834,-0.68342 1.48524,-0.99067 1.79313,-0.68278 0.30789,0.30789 -0.24711,0.86705 -1.23333,1.24258 -1.4252,0.54268 -1.54006,0.42782 -0.5598,-0.5598 z M 126.5,343 c -0.33992,-0.55 -0.14148,-1 0.44098,-1 0.58246,0 1.05902,0.45 1.05902,1 0,0.55 -0.19844,1 -0.44098,1 -0.24254,0 -0.7191,-0.45 -1.05902,-1 z m 142.23333,-1.12409 c 0.67834,-0.68342 1.48524,-0.99067 1.79313,-0.68278 0.30789,0.30789 -0.24711,0.86705 -1.23333,1.24258 -1.4252,0.54268 -1.54006,0.42782 -0.5598,-0.5598 z M 272,339.52296 c 0,-0.70939 1.08392,-1.49701 2.4087,-1.75026 1.64272,-0.31402 2.25674,-0.0644 1.93083,0.78488 C 275.66571,340.31354 272,341.12901 272,339.52296 Z m -131.43571,-1.22983 c -0.54268,-1.4252 -0.42782,-1.54006 0.5598,-0.5598 0.68342,0.67834 0.99067,1.48524 0.68278,1.79313 -0.30789,0.30789 -0.86705,-0.24711 -1.24258,-1.23333 z m -3.05421,-3.30944 c 0.34546,-0.55897 1.04702,-0.75742 1.55902,-0.44098 1.38704,0.85723 1.12841,1.45729 -0.62812,1.45729 -0.85746,0 -1.27636,-0.45734 -0.9309,-1.01631 z M 284.5,333 c 0.33992,-0.55 0.81648,-1 1.05902,-1 0.24254,0 0.44098,0.45 0.44098,1 0,0.55 -0.47656,1 -1.05902,1 -0.58246,0 -0.7809,-0.45 -0.44098,-1 z m 4.5,-0.9244 c 0,-0.47389 0.675,-1.12064 1.5,-1.43723 0.825,-0.31658 1.5,-0.18787 1.5,0.28603 0,0.47389 -0.675,1.12064 -1.5,1.43723 -0.825,0.31658 -1.5,0.18787 -1.5,-0.28603 z M 127.5,329 c -0.33992,-0.55 -0.14148,-1 0.44098,-1 0.58246,0 1.05902,0.45 1.05902,1 0,0.55 -0.19844,1 -0.44098,1 -0.24254,0 -0.7191,-0.45 -1.05902,-1 z m 164.84508,-2.54313 c -0.32569,-0.84872 -0.36872,-1.76657 -0.0956,-2.03966 0.27309,-0.2731 0.73656,0.42131 1.02992,1.54313 0.62315,2.38293 -0.0692,2.75089 -0.9343,0.49653 z M 228,324.55902 C 228,323.70156 228.45,323 229,323 c 0.55,0 1,0.42344 1,0.94098 0,0.51754 -0.45,1.2191 -1,1.55902 -0.55,0.33992 -1,-0.0835 -1,-0.94098 z m 59.38586,-10.99588 c -0.30326,-0.79027 -1.18914,-1.19212 -1.96862,-0.89301 C 284.63776,312.96925 284,312.71583 284,312.10699 284,311.49814 284.45,311 285,311 c 0.55,0 1,-0.45 1,-1 0,-0.55 -0.675,-1 -1.5,-1 -0.94173,0 -1.54293,-1.02349 -1.61535,-2.75 -0.0634,-1.5125 -0.2199,-3.2 -0.34769,-3.75 -0.12778,-0.55 -0.30087,-1.58906 -0.38465,-2.30902 -0.0838,-0.71996 -0.56034,-1.05684 -1.05905,-0.74862 -0.49871,0.30822 -0.65282,-0.41059 -0.34248,-1.59735 0.42037,-1.60751 0.22969,-1.95097 -0.74776,-1.34687 -0.81738,0.50516 -1.06979,0.41892 -0.6695,-0.22876 C 280.13217,294.97712 278.13304,289 276.90217,289 276.40598,289 276,289.45 276,290 c 0,0.55 0.45,1 1,1 0.55,0 1,1.125 1,2.5 0,4.43406 -1.55333,2.66115 -2.77612,-3.16855 -0.9335,-4.45049 -0.92414,-5.98984 0.0436,-7.16372 1.0591,-1.28475 0.94607,-1.34259 -0.80315,-0.41095 -1.69656,0.90359 -2.03572,0.78319 -2.03572,-0.72266 0,-1.04889 0.53224,-1.60265 1.26872,-1.32004 0.99621,0.38228 1.03657,-0.17908 0.18789,-2.61361 C 273.29072,276.39521 272.39837,275 271.90217,275 271.40598,275 271,273.785 271,272.3 c 0,-2.1 -0.26667,-2.43333 -1.2,-1.5 -0.66,0.66 -1.6725,1.19311 -2.25,1.18469 -0.5775,-0.008 -0.375,-0.45153 0.45,-0.98469 1.10788,-0.71597 1.15456,-0.97338 0.17857,-0.98469 -1.5834,-0.0183 -4.17857,2.41205 -4.17857,3.91326 0,0.58929 -0.76633,1.07143 -1.70295,1.07143 -1.23528,0 -0.62462,-1.10431 2.22363,-4.02118 2.15961,-2.21164 4.52614,-3.79109 5.25895,-3.50989 0.73282,0.28121 3.66968,-1.22367 6.52638,-3.34417 2.85669,-2.1205 31.85649,-22.82881 64.44399,-46.01846 32.5875,-23.18965 59.25,-42.31692 59.25,-42.50503 0,-1.01163 -33.16835,-12.61968 -34.23914,-11.9828 -0.69347,0.41246 -13.63586,9.52236 -28.76086,20.24423 -15.125,10.72187 -41.45,29.38231 -58.5,41.46765 -42.55246,30.16194 -44.82816,31.81207 -46.25,33.53617 -1.04836,1.27123 -1.25,0.92478 -1.25,-2.14769 0,-3.63444 0.17125,-3.78432 21.64214,-18.94113 11.90318,-8.40273 30.91568,-21.84141 42.25,-29.86371 11.33432,-8.02231 24.05301,-17.02231 28.26376,-20 4.21074,-2.9777 15.18167,-10.77316 24.37984,-17.32326 21.05844,-14.99591 19.98871,-14.80012 41.25412,-7.55031 8.40942,2.86694 16.73442,6.17716 18.5,7.35603 5.98922,3.99901 8.51522,13.24767 5.29942,19.40321 -2.04776,3.91972 -5.26173,6.59706 -23.08928,19.23419 -19.93746,14.13274 -28.90925,21.15684 -29.3116,22.94832 -0.17138,0.76309 -1.07138,1.98038 -2,2.70508 -1.51898,1.18544 -1.52295,1.2604 -0.0396,0.74703 2.68766,-0.93013 3.07298,1.28019 0.62332,3.57557 L 356.5,241.13894 356.19174,238.6541 C 355.90227,236.32067 353,233.93582 353,236.03138 353,236.56412 352.523,237 351.94001,237 c -0.583,0 -3.12271,1.575 -5.6438,3.5 -2.5211,1.925 -4.22436,3.5 -3.78502,3.5 0.43933,0 -0.0157,0.9 -1.01119,2 -0.99549,1.1 -2.30273,1.96447 -2.90499,1.92105 -0.63208,-0.0456 -0.56656,-0.29218 0.15499,-0.58333 0.6875,-0.27741 1.25,-0.93036 1.25,-1.45099 0,-0.52063 -1.31619,0.0265 -2.92487,1.21584 -2.48899,1.84019 -2.78704,2.52497 -2,4.59504 1.25457,3.29976 1.25337,3.30239 -1.50558,3.30239 -1.72973,0 -2.52258,0.62611 -2.75,2.17167 -0.17575,1.19442 -0.88205,2.35692 -1.56955,2.58334 -1.63794,0.53942 -1.67963,-4.92538 -0.05,-6.55501 0.93333,-0.93333 0.65556,-1.23153 -1.25,-1.34191 -1.57298,-0.0911 -1.01813,-0.39827 1.55,-0.85809 3.31241,-0.59308 2.71078,-0.7285 -3.5,-0.78781 -4.57146,-0.0436 -6.71906,0.23363 -5.5,0.71013 1.88864,0.73822 1.8608,0.82886 -0.5,1.62784 -1.375,0.46535 -2.8841,0.7414 -3.35356,0.61345 -0.46946,-0.12796 -1.70696,0.0382 -2.75,0.36926 C 312.37218,254.01665 312,255.10282 312,259.06739 312,263.8814 311.92787,264 309,264 c -2.33333,0 -3,-0.44444 -3,-2 0,-1.1 -0.45,-2 -1,-2 -0.55,0 -1,-0.40787 -1,-0.90638 0,-0.49851 0.80357,-0.69624 1.78571,-0.43941 1.27187,0.33261 1.78572,-0.10484 1.78572,-1.5202 0,-2.04792 -0.81493,-1.90808 -3.79785,0.65174 -0.94953,0.81485 -1.48547,1.8714 -1.19098,2.3479 0.29449,0.47649 -0.12612,0.86635 -0.93469,0.86635 -1.78314,0 -5.93935,4.77797 -7.78683,8.95171 -0.74212,1.67656 -1.7376,3.04829 -2.21218,3.04829 -0.47458,0 -0.59489,0.69837 -0.26734,1.55194 0.32754,0.85356 0.18178,1.29622 -0.32392,0.98369 -0.50569,-0.31254 -1.24507,-0.0414 -1.64305,0.60257 -0.45349,0.73376 -0.29001,0.90284 0.43796,0.45293 0.63887,-0.39484 1.40659,-0.0794 1.70605,0.70098 0.73445,1.91395 -3.37472,8.70789 -5.26678,8.70789 -1.13171,0 -1.41019,0.86032 -1.11022,3.42985 0.23741,2.03356 0.009,3.18808 -0.56053,2.83596 -0.55895,-0.34545 -0.68069,0.13643 -0.29101,1.15193 0.36847,0.96021 0.67683,2.04653 0.68525,2.41405 0.008,0.36751 0.4879,-0.007 1.06551,-0.83179 0.83456,-1.19201 0.92773,-1.06161 0.45377,0.63509 -0.81457,2.91601 1.37573,7.36491 3.62593,7.36491 1.97653,0 2.47632,1.48838 0.83948,2.5 -0.55,0.33992 -1,0.0665 -1,-0.60765 0,-0.67413 -0.20715,-1.01853 -0.46034,-0.76535 -0.76034,0.76035 0.62038,4.873 1.63599,4.873 0.51831,0 0.6213,-0.51953 0.22886,-1.15451 -0.44208,-0.7153 -0.27432,-0.88306 0.44098,-0.44098 1.64574,1.01712 1.42682,4.18032 -0.41692,6.02406 -1.95564,1.95564 -3.32639,2.00127 -4.04271,0.13457 z M 288,282.89235 c 0,-1.45382 -1.78914,-1.88423 -2.29987,-0.55327 -0.2802,0.73017 0.12265,1.32759 0.89521,1.32759 0.77256,0 1.40466,-0.34845 1.40466,-0.77432 z m 70.43071,-50.79497 c -0.26308,-0.26308 -1.25511,0.33267 -2.20452,1.3239 -1.64929,1.72194 -1.62798,1.74325 0.47833,0.47833 1.21249,-0.72815 1.98927,-1.53915 1.72619,-1.80223 z M 54.5,311.16292 c 0.55,-0.5264 2.966209,-1.27702 5.369354,-1.66806 3.455869,-0.56234 4.275792,-0.42706 3.921831,0.64708 -0.275924,0.83732 -2.334767,1.47693 -5.369354,1.66806 -3.155699,0.19875 -4.562995,-0.0334 -3.921831,-0.64708 z m 21.010081,-11.17923 c 0.345464,-0.55897 1.047021,-0.75742 1.559017,-0.44098 1.387044,0.85723 1.128411,1.45729 -0.628115,1.45729 -0.857459,0 -1.276365,-0.45734 -0.930902,-1.01631 z M 91.078947,286.80654 C 91.035526,285.87513 92.35,284.31561 94,283.34093 c 1.65,-0.97468 3,-2.29502 3,-2.93409 0,-1.86726 2.19715,-3.13076 6.75,-3.88167 L 108,275.8242 V 279.9121 284 h -5.5 c -3.025,0 -5.5,0.45 -5.5,1 0,0.55 -1.0875,1 -2.416667,1 -1.329166,0 -2.64364,0.5625 -2.921052,1.25 -0.310159,0.76866 -0.534787,0.59789 -0.583334,-0.44346 z m 167.000003,-3.38987 c 0.048,-1.16495 0.28494,-1.4019 0.60416,-0.60417 0.28887,0.72187 0.25335,1.58438 -0.0789,1.91667 -0.33229,0.33229 -0.56864,-0.25834 -0.52522,-1.3125 z M 298,276 c 0,-2.2 0.45,-4 1,-4 0.55,0 1,1.8 1,4 0,2.2 -0.45,4 -1,4 -0.55,0 -1,-1.8 -1,-4 z m 23.75,-0.75739 c -0.9625,-0.21409 -1.75,-1.03126 -1.75,-1.81593 0,-1.83902 0.7649,-1.80464 2.69048,0.12094 1.7848,1.7848 1.52976,2.24445 -0.94048,1.69499 z M 294.5,270 c 0.33992,-0.55 0.81648,-1 1.05902,-1 0.24254,0 0.44098,0.45 0.44098,1 0,0.55 -0.47656,1 -1.05902,1 -0.58246,0 -0.7809,-0.45 -0.44098,-1 z m 2.06429,-3.29313 c 0.37553,-0.98622 0.93469,-1.54122 1.24258,-1.23333 0.30789,0.30789 6.4e-4,1.11479 -0.68278,1.79313 -0.98762,0.98026 -1.10248,0.8654 -0.5598,-0.5598 z M 202.63837,258.5 c 0.31659,-0.825 0.75246,-1.5 0.96862,-1.5 0.21615,0 0.39301,0.675 0.39301,1.5 0,0.825 -0.43588,1.5 -0.96862,1.5 -0.53273,0 -0.70959,-0.675 -0.39301,-1.5 z m 25.92592,-2.79313 c 0.37553,-0.98622 0.93469,-1.54122 1.24258,-1.23333 0.30789,0.30789 6.4e-4,1.11479 -0.68278,1.79313 -0.98762,0.98026 -1.10248,0.8654 -0.5598,-0.5598 z m -37.80263,-2.41413 c 1.24391,-0.23919 3.04391,-0.23011 4,0.0202 0.95609,0.25029 -0.0617,0.446 -2.26166,0.4349 -2.2,-0.0111 -2.98225,-0.21589 -1.73834,-0.45508 z M 138.5,251 c 0.33992,-0.55 0.81648,-1 1.05902,-1 0.24254,0 0.44098,0.45 0.44098,1 0,0.55 -0.47656,1 -1.05902,1 -0.58246,0 -0.7809,-0.45 -0.44098,-1 z m 205.75674,-2 c 0.22494,-0.825 1.2717,-1.60456 2.32613,-1.73237 1.34704,-0.16326 1.47108,-0.0443 0.41713,0.39995 -0.825,0.34777 -1.87176,1.12733 -2.32613,1.73236 -0.53136,0.70754 -0.6802,0.56484 -0.41713,-0.39994 z m 0.34627,-6.16667 C 344.88627,242.375 345.54148,242 346.05902,242 c 0.51754,0 0.94098,0.375 0.94098,0.83333 0,0.45834 -0.65521,0.83334 -1.45601,0.83334 -0.80081,0 -1.22425,-0.375 -0.94098,-0.83334 z m 6.63472,-1.21092 c -1.34603,-2.95422 -0.28227,-4.10668 2.14939,-2.32861 1.43255,1.04751 1.48402,1.50017 0.34734,3.05467 -1.26033,1.7236 -1.39896,1.68329 -2.49673,-0.72606 z M 141,230 c 0,-1.11111 0.66667,-2 1.5,-2 0.83333,0 1.5,0.88889 1.5,2 0,1.11111 -0.66667,2 -1.5,2 -0.83333,0 -1.5,-0.88889 -1.5,-2 z m 221.56429,0.70687 c 0.37553,-0.98622 0.93469,-1.54122 1.24258,-1.23333 0.30789,0.30789 6.4e-4,1.11479 -0.68278,1.79313 -0.98762,0.98026 -1.10248,0.8654 -0.5598,-0.5598 z M 222.71051,225.001 c -0.77595,-2.96723 0.82263,-3.32105 2.12182,-0.46964 0.89625,1.96704 0.84806,2.46864 -0.23714,2.46864 -0.74906,0 -1.59717,-0.89955 -1.88468,-1.999 z M 121,213 v -4 h -4 c -3.33333,0 -4,-0.33333 -4,-2 0,-1.66667 0.66667,-2 4,-2 h 4 v -4 c 0,-2.88889 0.41667,-4 1.5,-4 1.08333,0 1.5,1.11111 1.5,4 v 4 h 4 c 3.33333,0 4,0.33333 4,2 0,1.66667 -0.66667,2 -4,2 h -4 v 4 c 0,2.88889 -0.41667,4 -1.5,4 -1.08333,0 -1.5,-1.11111 -1.5,-4 z m 104.31537,-16.00698 c -4.40048,-1.77299 -5.68485,-8.08021 -2.45712,-12.06629 2.23017,-2.75414 1.67279,-6.29886 -0.88527,-5.62992 -2.59775,0.67933 -3.39947,-0.25296 -5.25663,-6.11281 l -1.68481,-5.31601 7.71557,-14.77085 7.71557,-14.77086 -16.90143,-25.41314 C 204.26546,98.935914 195.09552,85.397411 193.18359,82.827581 l -3.47623,-4.67242 -8.40343,-0.700001 c -7.01095,-0.584009 -8.34984,-0.969698 -8.08004,-2.327581 0.2745,-1.381563 1.60463,-1.578455 8.79975,-1.302586 7.64317,0.293047 8.68519,0.574083 10.60091,2.859092 2.51572,3.000667 0.62555,3.191388 33.37545,-3.367649 12.375,-2.478422 34.36122,-6.876881 48.85826,-9.774353 l 26.35826,-5.268131 1.26747,3.113024 c 4.2745,10.498541 12.83553,38.683954 11.98749,39.466354 -0.53431,0.49296 -14.92148,7.43633 -31.97148,15.42969 -53.90688,25.27258 -47.74212,21.80552 -51.50835,28.96833 -1.80706,3.43676 -5.22985,9.88261 -7.60619,14.32411 -3.95908,7.3997 -4.23573,8.38295 -3.30604,11.75 0.55802,2.021 1.40401,3.67454 1.87996,3.67454 0.47596,0 22.89281,-7.37738 49.81522,-16.39417 31.35727,-10.50211 49.4382,-16.09235 50.30866,-15.55437 1.90582,1.17786 0.64081,2.14162 -5.89244,4.48917 -6.89431,2.47729 -7.83484,4.74561 -2.83407,6.83507 9.39481,3.9254 7.92089,15.6243 -1.96847,15.6243 -4.69769,0 -7.58828,-2.80018 -7.58828,-7.35094 0,-2.13682 0.73232,-4.57978 1.69013,-5.63816 2.09278,-2.31248 1.16052,-6.47455 -1.24359,-5.55201 C 301.55506,152.49171 228.6056,177 228.22288,177 c -0.19909,0 -0.21818,1.0079 -0.0424,2.23978 0.18595,1.30336 1.15572,2.39032 2.31955,2.59983 6.4314,1.1578 8.89367,10.13237 3.86514,14.08781 -2.78911,2.19391 -5.46681,2.50921 -9.04977,1.0656 z M 236.679,133.79911 c 1.82655,-0.66049 3.31672,-1.89799 3.3115,-2.75 -0.005,-0.85201 -1.81167,-4.38989 -4.01432,-7.86195 -4.25778,-6.71159 -4.70463,-6.87047 -10.69309,-3.80192 -2.20582,1.13029 -2.19345,1.17218 2.47378,8.37537 2.57988,3.98166 4.89554,7.23939 5.14591,7.23939 0.25038,0 1.94967,-0.5404 3.77622,-1.20089 z m 11.78707,-5.48432 C 250.40973,127.38792 252,126.2561 252,125.79964 c 0,-0.63327 -5.32171,-10.84437 -6.57473,-12.61536 C 244.86592,112.39371 237,115.20217 237,116.19244 237,117.42079 243.84646,130 244.51501,130 c 0.22943,0 2.0074,-0.75835 3.95106,-1.68521 z m 12.61629,-5.85738 c 1.64067,-0.84842 2.8101,-1.86092 2.59874,-2.25 -0.21136,-0.38907 -1.60988,-3.25608 -3.10782,-6.37111 l -2.72354,-5.66371 -4.42487,1.50771 C 250.99119,110.50954 249,111.38354 249,111.62252 c 0,0.23898 1.35648,3.12168 3.0144,6.406 3.21418,6.36725 4.29693,6.89608 9.06796,4.42889 z m 10.51651,-5.07135 c 3.921,-1.86064 3.9252,-1.87701 1.79672,-7.01394 -2.46051,-5.93827 -3.04043,-6.38462 -6.70707,-5.16219 -1.75369,0.58467 -3.59069,1.42629 -4.08224,1.87027 -0.88197,0.79663 3.76487,11.9198 4.97965,11.9198 0.3365,0 2.14232,-0.72627 4.01294,-1.61394 z M 230,113.29598 c 0,-0.28382 -1.42319,-3.1862 -3.16264,-6.44974 -3.00175,-5.63186 -3.31487,-5.90027 -6.15526,-5.27642 -1.64594,0.36151 -4.26281,1.19137 -5.81526,1.84412 l -2.82264,1.18683 2.62029,3.94962 c 5.39459,8.13139 5.93361,8.46516 10.92436,6.76464 C 228.01498,114.48836 230,113.57979 230,113.29598 Z m 55.34879,-7.78575 c -0.8448,-2.47934 -1.84323,-4.69778 -2.21874,-4.92986 -1.41689,-0.875683 -8.12944,1.95097 -8.10809,3.41432 0.0121,0.82792 0.8975,3.43439 1.96761,5.79216 l 1.94564,4.28685 3.97479,-2.02778 3.97478,-2.02779 z m -45.78143,5.02607 3.50312,-1.4637 -2.65381,-5.2863 c -3.8807,-7.730218 -3.88489,-7.733439 -8.15084,-6.266876 -2.03271,0.69881 -3.87846,1.818481 -4.10169,2.488156 -0.3714,1.11419 2.78186,7.74244 5.11048,10.74242 1.24048,1.59811 2.01982,1.57164 6.29274,-0.2137 z M 253.75,105.89122 c 1.2375,-0.46294 2.25,-1.09069 2.25,-1.39499 0,-0.30429 -1.37761,-3.28229 -3.06135,-6.617758 -3.28719,-6.5119 -3.40082,-6.554251 -10.42214,-3.884747 l -2.57171,0.977759 2.17213,4.264258 c 4.78652,9.396728 4.59631,9.287908 11.63307,6.655478 z m 41.09636,0.53554 c 3.45114,-1.72166 3.69351,-2.57964 2.05581,-7.277537 -1.2588,-3.611004 -0.95817,-3.512336 -6.05181,-1.986244 -4.14352,1.241431 -4.19339,1.484047 -1.66199,8.087021 1.22915,3.20615 1.48381,3.25912 5.65799,1.17676 z M 267.35004,97.141912 C 266.47748,95.13886 265.26811,92.2625 264.66255,90.75 264.05699,89.2375 262.82733,88 261.92999,88 259.4952,88 254,90.077876 254,90.998529 c 0,0.824701 3.96757,9.617461 5.24395,11.621421 0.51633,0.81064 1.95328,0.71175 5.20295,-0.35809 l 4.48962,-1.47804 z m 40.12291,3.304948 c 3.32013,-1.387243 3.64607,-1.841217 3.05136,-4.250003 -1.02348,-4.145453 -2.0308,-4.661292 -6.49221,-3.324619 -4.26948,1.279166 -5.09794,3.267711 -2.99692,7.193502 1.25034,2.33628 1.69535,2.36263 6.43777,0.38112 z m -91.90109,-1.091714 c 2.71048,-0.90467 5.09417,-1.783203 5.2971,-1.952296 0.72099,-0.600771 -9.24523,-17.402121 -10.29788,-17.36048 -4.09052,0.161813 -12.02886,2.868201 -11.75926,4.009038 C 199.10355,85.285915 209.83908,101 210.39074,101 c 0.13914,0 2.47064,-0.74018 5.18112,-1.644854 z m 64.62084,-2.477977 c 1.56904,-0.821461 1.538,-1.269447 -0.42485,-6.131688 -3.04695,-7.54773 -3.24967,-7.723548 -7.56304,-6.559465 -2.03765,0.549915 -4.07262,1.348337 -4.52217,1.774273 -0.44954,0.425935 0.42169,3.551479 1.93608,6.945655 2.6672,5.977951 2.8494,6.150654 5.81736,5.51433 1.68516,-0.361294 3.82564,-1.055691 4.75662,-1.543105 z M 231.4559,94.016768 C 232.85515,93.484772 234,92.686138 234,92.242026 c 0,-1.103199 -6.93201,-14.081973 -7.81157,-14.625572 -0.84319,-0.521119 -9.02587,0.88765 -9.83072,1.692504 -0.30966,0.309655 1.39568,4.207921 3.78964,8.662812 4.66335,8.677989 4.54694,8.615758 11.30855,6.044998 z M 292.25,92.826484 c 2.11791,-1.085402 2.09908,-1.913877 -0.18926,-8.326484 -1.68247,-4.714761 -1.96885,-4.984766 -5.02008,-4.732961 -1.7797,0.146872 -4.07042,0.713704 -5.09048,1.259626 -1.69062,0.904791 -1.73521,1.323428 -0.50413,4.732961 3.42072,9.47385 3.31945,9.334931 6.28797,8.625105 1.52129,-0.363768 3.55348,-1.064979 4.51598,-1.558247 z M 247.04219,88.473925 C 247.87655,87.958262 241.60278,74 240.53665,74 c -0.24101,0 -2.7134,0.487941 -5.49419,1.084314 l -5.05598,1.084313 4.08141,7.844989 4.08142,7.844988 3.98061,-1.404443 c 2.18934,-0.772444 4.39986,-1.66355 4.91227,-1.980236 z m 55.93757,0.917495 C 305.19089,88.506701 307,87.251927 307,86.603033 c 0,-0.648894 -0.87642,-3.637533 -1.9476,-6.64142 -2.06892,-5.80185 -2.7941,-6.150914 -8.37241,-4.030045 C 295.206,76.49198 294,77.619756 294,78.437737 294,80.140793 297.93455,91 298.55161,91 c 0.22436,0 2.21702,-0.723861 4.42815,-1.60858 z M 259.25,84.49716 c 2.28498,-0.928532 2.23009,-1.428525 -0.87722,-7.99127 -2.61021,-5.512833 -2.6507,-5.544482 -6.25,-4.885104 -7.42378,1.360004 -7.36449,1.264124 -4.54499,7.349724 3.92428,8.470145 4.15726,8.580458 11.67221,5.52665 z m 11.85078,-3.645617 c 1.86957,-0.631651 3.52821,-1.248145 3.68587,-1.369987 0.28043,-0.21672 -3.66729,-10.694365 -4.24873,-11.276583 -0.31583,-0.316246 -9.77856,1.87378 -10.42469,2.412657 -0.21272,0.177412 0.68728,2.803343 2,5.835402 2.54993,5.889697 3.37654,6.294239 8.98755,4.398511 z m 14.35512,-4.834775 c 2.92305,-1.111343 3.13892,-2.657409 1.06429,-7.622683 -1.08726,-2.602195 -1.94937,-3.409274 -3.25,-3.042538 -0.9736,0.274526 -3.23269,0.79349 -5.02019,1.153251 -3.79816,0.764439 -3.76058,0.598309 -1.538,6.79916 1.84058,5.135076 2.13368,5.226011 8.7439,2.71281 z m 12.50369,-4.152525 c 3.02964,-1.056137 3.2179,-1.383077 2.68553,-4.663693 -0.7555,-4.655575 -1.37555,-5.041555 -6.39512,-3.980897 -4.56826,0.965295 -5.15743,2.263419 -3.27475,7.215247 1.08572,2.855661 2.22435,3.088682 6.98434,1.429343 z M 144,166.5 V 157 h -9.57332 c -8.57831,0 -9.53854,-0.18189 -9.23858,-1.75 0.28511,-1.49046 1.7049,-1.79264 9.57333,-2.03753 L 144,152.92495 v -8.96248 C 144,136.6625 144.27824,135 145.5,135 c 1.22176,0 1.5,1.6625 1.5,8.96247 v 8.96248 l 9.23857,0.28752 c 7.86843,0.24489 9.28822,0.54707 9.57333,2.03753 0.29996,1.56811 -0.66027,1.75 -9.23858,1.75 H 147 v 9.5 c 0,7.77778 -0.27193,9.5 -1.5,9.5 -1.22807,0 -1.5,-1.72222 -1.5,-9.5 z"
         id="path7" />
      <path
         style="fill:#171612"
         d="M 25.429137,447.61923 C 0.1529742,435.84947 -8.4056862,366.9104 10.762466,329.48082 c 3.031401,-5.9194 7.869069,-11.62406 12.565638,-14.8176 3.709898,-2.52263 4.863716,-2.79425 10.419112,-2.45278 9.872321,0.60681 9.791246,1.98218 -0.393787,6.68029 C 28.484043,321.13686 23.825,323.33734 23,323.7807 c -2.163936,1.1629 -8.710758,14.69951 -10.484991,21.6794 -1.930666,7.59531 -1.942661,20.47783 -0.02592,27.83671 3.957697,15.19462 15.854792,31.10004 31.725634,42.41452 l 4.50454,3.21133 6.379966,-4.49253 c 3.508982,-2.4709 6.534241,-4.02972 6.722799,-3.46404 0.56613,1.69839 -3.831242,14.07402 -7.548046,21.24265 C 48.843865,442.68186 39.666305,450.00608 32,449.98465 c -0.825,-0.002 -3.781889,-1.06674 -6.570863,-2.36542 z M 161.37103,355.4976 c -3.52341,-1.75579 -7.23688,-5.08677 -12.44635,-11.16437 -4.08357,-4.76408 -8.09968,-9.91294 -8.92468,-11.4419 l -1.5,-2.77994 -5.5,4.57342 c -6.72677,5.59352 -15.08578,11.31459 -20.71016,14.17444 -4.94783,2.51584 -5.28984,2.56726 -5.28984,0.79539 0,-0.73995 3.7125,-3.62046 8.25,-6.40113 12.65745,-7.75673 21.71252,-15.87726 23.65417,-21.21291 1.14009,-3.13297 2.95729,-5.44035 6.10931,-7.75728 9.44101,-6.93974 12.88409,-11.72692 20.5154,-28.52411 2.18412,-4.80744 4.53362,-8.74494 5.22112,-8.75 2.22335,-0.0164 1.35081,3.01605 -3.98681,13.85579 -2.88025,5.84925 -5.39202,10.9703 -5.58171,11.38012 -0.18969,0.40981 11.09311,-7.3335 25.07289,-17.20736 22.37023,-15.8 25.74088,-17.86606 28.11261,-17.23176 2.46547,0.65936 -0.29262,2.84371 -32.40458,25.6637 -19.30468,13.71864 -35.31918,25.29856 -35.58777,25.73315 C 145.93975,319.9065 164.72293,343 165.73014,343 c 0.22431,0 8.5647,-5.83709 18.5342,-12.97131 9.96951,-7.13422 18.22177,-12.87172 18.33835,-12.75 0.11659,0.12172 0.35324,5.77395 0.52589,12.56052 l 0.31391,12.33921 -8.97124,6.52924 C 183.25142,356.87342 180.61537,358 172.72846,358 c -4.75528,0 -7.58845,-0.62423 -11.35743,-2.5024 z m 75.83136,-17.75836 C 233.1887,327.70766 229.92984,319.05 229.96048,318.5 c 0.0306,-0.55 -1.37789,-4.48255 -3.13005,-8.73901 -1.75216,-4.25645 -2.9933,-7.90631 -2.75809,-8.11079 0.23521,-0.20448 7.62766,-5.45313 16.42766,-11.66366 8.8,-6.21053 16.49729,-11.67415 17.10509,-12.14138 0.60779,-0.46723 -0.0425,1.51396 -1.44498,4.40266 -2.0462,4.21441 -2.63269,7.16313 -2.96824,14.92351 l -0.41817,9.67134 -9.39357,6.76979 c -7.36319,5.30652 -9.26802,7.16542 -8.81265,8.60015 0.31951,1.00669 3.43483,8.7584 6.92292,17.22601 3.4881,8.46761 6.07971,15.65794 5.75913,15.97852 -1.77765,1.77764 -3.41686,-1.10654 -10.04714,-17.6779 z M 282.63185,299.75 c -3.11201,-7.8375 -5.65227,-14.77055 -5.64503,-15.40678 0.007,-0.63623 -1.33682,-4.16568 -2.98682,-7.84322 -1.65,-3.67754 -3,-7.01284 -3,-7.41178 0,-0.85597 -2.16646,0.71129 71,-51.36297 31.625,-22.50825 57.86052,-41.26237 58.30116,-41.67583 0.8221,-0.77139 -30.78029,-13.08692 -33.36537,-13.00257 -0.78968,0.0258 -31.36079,21.33632 -67.93579,47.35678 -59.07428,42.02706 -66.60244,47.09894 -67.41737,45.42052 -0.5565,-1.14615 -0.5565,-2.21652 0,-2.72095 0.50455,-0.45735 11.94237,-8.62407 25.41737,-18.14828 13.475,-9.5242 31.475,-22.26554 40,-28.31408 8.525,-6.04854 25.175,-17.81822 37,-26.15486 11.825,-8.33663 23.56075,-16.61394 26.07944,-18.39403 7.351,-5.19531 10.05308,-5.06252 28.83709,1.41717 9.02908,3.11465 17.44449,6.33655 18.70089,7.15977 2.708,1.77435 6.39168,8.95384 6.36062,12.39683 -0.0121,1.33886 -0.8613,4.2825 -1.88715,6.54143 -1.59692,3.51641 -5.1536,6.47093 -24.72804,20.5415 -12.57457,9.0389 -29.61285,21.34325 -37.86285,27.343 l -15,10.90864 -8.04116,0.73575 c -16.9205,1.5482 -24.50542,6.74602 -36.22591,24.82502 -4.11433,6.34642 -7.90003,11.80604 -8.41265,12.13249 -0.51324,0.32685 1.33979,6.28802 4.12384,13.26638 5.50028,13.78672 5.716,14.64007 3.70091,14.64007 -0.81186,0 -3.62294,-5.7118 -7.01318,-14.25 z M 121,212.5 c 0,-3.42717 -0.0848,-3.5 -4.07332,-3.5 -3.34287,0 -4.01205,-0.31382 -3.73161,-1.75 0.24497,-1.25453 1.32745,-1.76305 3.82332,-1.79609 3.28316,-0.0435 3.4993,-0.2572 3.79198,-3.75 C 121.00574,199.37232 121.63176,198 122.5,198 c 0.86824,0 1.49426,1.37232 1.68963,3.70391 0.29268,3.4928 0.50882,3.70654 3.79198,3.75 2.49587,0.033 3.57835,0.54156 3.82332,1.79609 0.28044,1.43618 -0.38874,1.75 -3.73161,1.75 -3.98856,0 -4.07332,0.0728 -4.07332,3.5 0,2.44444 -0.45238,3.5 -1.5,3.5 -1.04762,0 -1.5,-1.05556 -1.5,-3.5 z m 103.74724,-16.48418 c -3.62878,-2.8544 -4.2535,-6.49259 -1.82239,-10.61302 2.38942,-4.04978 1.85157,-6.17314 -1.67042,-6.59454 -2.12974,-0.25483 -2.88997,-1.23431 -4.38595,-5.65087 l -1.80965,-5.34262 7.76515,-14.65738 7.76515,-14.65739 -18.73962,-28 C 201.54272,95.1 192.28643,81.47517 191.27998,80.2226 c -1.50792,-1.876662 -3.21898,-2.40455 -9.72398,-3 -4.87067,-0.445848 -8.05274,-1.201344 -8.30836,-1.9726 -0.31107,-0.938508 1.84345,-1.25 8.64597,-1.25 8.56082,0 9.15059,0.137817 10.69835,2.5 0.90205,1.376705 2.59735,2.498927 3.77305,2.497613 1.17424,-0.0013 25.21001,-4.673342 53.4128,-10.382287 45.85066,-9.281306 51.36643,-10.20714 52.11501,-8.747612 1.78108,3.472618 13.25432,39.19086 12.91535,40.207776 -0.19705,0.59114 -18.34699,9.52265 -40.33322,19.84781 L 234.5,138.69632 l -7.81692,14.68406 c -7.47658,14.04473 -7.76709,14.83504 -6.67245,18.15184 0.62946,1.90728 1.63314,3.46778 2.2304,3.46778 0.59727,0 22.98938,-7.38417 49.76025,-16.40926 32.27414,-10.88038 49.14732,-16.11693 50.07816,-15.54164 1.98957,1.22962 0.40897,2.38947 -6.07944,4.46113 -3.025,0.96584 -5.81785,1.93556 -6.20633,2.15494 -1.47788,0.83459 0.58187,3.4649 3.74983,4.78856 9.29642,3.88429 7.59658,15.54627 -2.26601,15.54627 -3.54998,0 -7.20115,-2.83988 -7.39264,-5.75 -0.22555,-3.42763 0.32092,-5.7723 1.7081,-7.32874 1.58459,-1.77794 1.85462,-4.52661 0.52541,-5.34811 -0.65979,-0.40777 -77.71371,24.83831 -78.8287,25.82757 -0.11568,0.10264 0.0493,1.17947 0.36663,2.39295 0.3753,1.43514 1.34912,2.20633 2.78603,2.20633 6.11189,0 8.92619,9.99177 3.92282,13.92742 -3.31115,2.60455 -6.38324,2.63279 -9.6179,0.0884 z m 12.67139,-62.54627 3.66287,-1.53044 -3.56809,-6.21956 c -1.96246,-3.42075 -3.94242,-6.83786 -4.39992,-7.59358 -0.68748,-1.13561 -1.50697,-1.15803 -4.72265,-0.1292 -2.13996,0.68466 -4.27921,1.60135 -4.75389,2.03709 -0.82293,0.75541 8.18214,14.95061 9.49093,14.96111 0.34533,0.003 2.27617,-0.68367 4.29075,-1.52542 z m 11.04744,-5.15476 C 250.40973,127.38792 252,126.2561 252,125.79964 c 0,-0.66864 -5.52596,-11.21646 -6.647,-12.68763 -0.37616,-0.49365 -9.353,1.99552 -9.353,2.59348 0,0.75423 8.06115,14.29451 8.51018,14.29451 0.23208,0 2.01223,-0.75835 3.95589,-1.68521 z m 11.53746,-5.31659 3.92385,-2.0018 -1.86892,-4.36002 c -3.63338,-8.47633 -3.79514,-8.60471 -8.72555,-6.92475 -2.3831,0.81201 -4.33291,1.65055 -4.33291,1.86344 0,0.67537 6.41467,13.42493 6.75447,13.42493 0.17886,0 2.09094,-0.90081 4.24906,-2.0018 z m 11.52859,-5.44717 C 273.43945,116.75409 275,115.6664 275,115.13393 c 0,-0.89344 -3.78633,-10.2536 -4.39326,-10.86052 -0.14717,-0.14717 -2.3562,0.44409 -4.90895,1.3139 l -4.64138,1.58147 2.98619,5.91561 c 1.64241,3.25359 3.21917,5.91561 3.50391,5.91561 0.28475,0 2.07827,-0.65204 3.98561,-1.44897 z M 225.32186,115.406 C 227.89484,114.5293 230,113.57979 230,113.29598 c 0,-0.28382 -1.43375,-3.20601 -3.18611,-6.49378 -3.47481,-6.51942 -4.18986,-6.73932 -11.70117,-3.59848 l -3.10004,1.29628 4.12299,6.25 c 2.26764,3.4375 4.20963,6.25 4.31552,6.25 0.10589,0 2.29769,-0.7173 4.87067,-1.594 z M 287,109.56258 c 0,-0.21822 -0.89737,-2.49024 -1.99414,-5.04892 -2.1205,-4.946905 -2.0281,-4.921284 -8.72075,-2.41823 -2.1523,0.80496 -2.17042,0.93542 -0.64132,4.61647 3.22069,7.75323 2.93014,7.54611 7.39239,5.26964 2.1801,-1.1122 3.96382,-2.20073 3.96382,-2.41896 z m -47.86602,1.27913 C 241.26029,110.20465 243,109.38457 243,109.01929 c 0,-0.5018 -5.511,-11.340764 -6.49099,-12.766374 -0.40849,-0.594246 -9.57231,3.040346 -9.30571,3.690869 1.52915,3.731215 6.48596,12.051975 7.18068,12.053835 0.48619,0.001 2.62369,-0.51885 4.75,-1.15591 z M 253.75,105.89122 c 1.2375,-0.46294 2.25,-1.09069 2.25,-1.39499 0,-0.30429 -1.37761,-3.28229 -3.06135,-6.617758 -3.28699,-6.511494 -3.40122,-6.554098 -10.41919,-3.885872 l -2.56874,0.976635 2.64321,5.265385 c 4.25393,8.47398 3.98688,8.33857 11.15607,5.6566 z m 41.60957,0.47435 3.42743,-1.63442 -1.4875,-4.36558 C 296.48137,97.964509 295.56901,96 295.27202,96 293.47223,96 287,98.455287 287,99.138051 287,100.90018 290.26444,108 291.07465,108 c 0.47162,0 2.39984,-0.73549 4.28492,-1.63443 z M 264.32186,102.406 C 266.89484,101.5293 269,100.69154 269,100.54431 c 0,-0.14722 -1.34315,-3.22994 -2.98478,-6.850481 l -2.98479,-6.582802 -4.51521,1.538489 c -2.48337,0.846168 -4.51651,1.833687 -4.51809,2.194486 -0.003,0.695649 5.18221,13.155998 5.47475,13.155998 0.0945,0 2.277,-0.7173 4.84998,-1.594 z m 46.03608,-3.406699 c 0.47512,-0.451442 0.34452,-2.370839 -0.29271,-4.301643 l -1.15064,-3.486471 -4.96347,1.587257 c -5.27575,1.687117 -5.23142,1.564226 -2.85569,7.916446 0.80365,2.14878 0.94144,2.1684 4.61647,0.65724 2.08346,-0.85671 4.17417,-1.924483 4.64604,-2.372829 z m -94.78608,0.355845 c 2.71048,-0.90467 5.09069,-1.779715 5.28935,-1.944545 0.19867,-0.16483 -1.76273,-4.196116 -4.35866,-8.958414 -4.63606,-8.504971 -4.77565,-8.647538 -7.86121,-8.028864 -1.72774,0.346422 -4.85341,0.904335 -6.94593,1.239806 -2.68161,0.429911 -3.64791,1.018269 -3.27375,1.993305 C 199.4338,86.294031 209.65564,101 210.47685,101 c 0.0918,0 2.38453,-0.74018 5.09501,-1.644854 z m 62.52892,-1.503603 c 1.86957,-0.631651 3.51097,-1.230905 3.64756,-1.331674 0.26089,-0.192472 -4.70562,-12.765095 -5.28131,-13.369534 -0.45448,-0.47718 -7.76016,1.901622 -8.81769,2.871126 C 266.53354,87.044391 271.9114,99 273.48734,99 c 0.66782,0 2.74386,-0.516806 4.61344,-1.148457 z m -47.82245,-3.430713 4.63461,-1.579171 -4.20647,-7.93814 -4.20647,-7.938141 -4,0.644867 c -7.77208,1.252989 -7.71745,1.042136 -2.62066,10.115405 2.54136,4.524107 4.878,8.236607 5.19252,8.25 0.31452,0.01339 2.65744,-0.686277 5.20647,-1.55482 z m 59.85565,-0.579118 C 292.26029,93.204654 294,92.167031 294,91.535884 c 0,-0.631147 -0.92878,-3.897799 -2.06395,-7.259225 l -2.06395,-6.111684 -4.68605,1.562366 c -2.57733,0.859302 -4.80335,1.651988 -4.94673,1.761524 -0.24979,0.19084 1.35117,4.931382 3.63422,10.761135 1.23574,3.155435 1.1305,3.12868 6.26044,1.591712 z m -42.3198,-5.384081 C 248.22331,88.128612 241.1114,74 240.53665,74 c -0.24101,0 -2.7134,0.487941 -5.49419,1.084314 l -5.05598,1.084313 4.07459,7.831876 4.07459,7.831876 4.68217,-1.561043 c 2.57519,-0.858574 4.82355,-1.674742 4.99635,-1.813705 z m 55.42041,0.978105 4.59086,-1.564265 -2.0438,-6.185735 c -1.12409,-3.402155 -2.34731,-6.525736 -2.71828,-6.941292 -0.37096,-0.415555 -2.75226,-0.04758 -5.29177,0.817712 l -4.61728,1.573268 1.93366,5.682288 C 297.75343,90.650426 297.89025,91 298.29048,91 c 0.19428,0 2.41913,-0.703919 4.94411,-1.564264 z m -45.99668,-4.001133 4.59419,-1.565397 -2.49606,-5.684603 C 257.9632,75.058071 256.504,72.150518 256.09336,71.723374 255.38866,70.990347 245,72.713983 245,73.56393 245,74.585556 251.50147,87 252.03649,87 c 0.33398,0 2.67462,-0.704429 5.20142,-1.565397 z m 17.54874,-5.949444 C 275.05952,79.270851 271.12826,68.796131 270.5622,68.22926 269.97169,67.637893 260,70.217869 260,70.962021 c 0,0.437961 1.14272,3.292321 2.53938,6.343021 l 2.53937,5.546728 4.71063,-1.570739 c 2.59084,-0.863906 4.83961,-1.672049 4.99727,-1.795872 z m 9.45213,-3.050852 4.59506,-1.565693 -1.56178,-4.684307 c -0.85897,-2.576369 -1.64658,-4.796798 -1.75023,-4.934288 -0.10365,-0.137489 -2.66887,0.248156 -5.70047,0.85699 l -5.51202,1.106971 1.98664,5.39301 C 277.38864,75.573146 278.58887,78 278.96317,78 c 0.37431,0 2.74833,-0.704562 5.27561,-1.565693 z m 17.13387,-7.877157 c -2.02457,-6.510514 -1.87304,-6.392277 -6.97152,-5.439777 -2.60522,0.486707 -4.88493,1.033093 -5.06603,1.214192 -0.1811,0.181099 0.36985,2.381078 1.22433,4.888842 l 1.55361,4.559571 4.94966,-1.582839 c 4.25622,-1.361085 4.86004,-1.871044 4.30995,-3.639989 z M 144,166 v -9 h -9 c -7.33333,0 -9,-0.27778 -9,-1.5 0,-1.22222 1.66667,-1.5 9,-1.5 h 9 v -9.5 c 0,-7.77778 0.27193,-9.5 1.5,-9.5 1.22807,0 1.5,1.72222 1.5,9.5 v 9.5 h 9 c 7.33333,0 9,0.27778 9,1.5 0,1.22222 -1.66667,1.5 -9,1.5 h -9 v 9 c 0,7.33333 -0.27778,9 -1.5,9 -1.22222,0 -1.5,-1.66667 -1.5,-9 z"
         id="path6" />
    </g>
  </g>
</svg>
