<?xml version="1.0" encoding="UTF-8" standalone="no"?>
<!-- Created with Inkscape (http://www.inkscape.org/) -->

<svg
   version="1.1"
   id="svg1"
   width="603"
   height="450"
   viewBox="0 0 603 450"
   sodipodi:docname="BUSINESS_15.svg"
   inkscape:version="1.3.2 (091e20e, 2023-11-25, custom)"
   xmlns:inkscape="http://www.inkscape.org/namespaces/inkscape"
   xmlns:sodipodi="http://sodipodi.sourceforge.net/DTD/sodipodi-0.dtd"
   xmlns="http://www.w3.org/2000/svg"
   xmlns:svg="http://www.w3.org/2000/svg">
  <defs
     id="defs1" />
  <sodipodi:namedview
     id="namedview1"
     pagecolor="#ffffff"
     bordercolor="#000000"
     borderopacity="0.25"
     inkscape:showpageshadow="2"
     inkscape:pageopacity="0.0"
     inkscape:pagecheckerboard="0"
     inkscape:deskcolor="#d1d1d1"
     showgrid="false"
     inkscape:zoom="1.7488889"
     inkscape:cx="301.62008"
     inkscape:cy="225"
     inkscape:window-width="1920"
     inkscape:window-height="1001"
     inkscape:window-x="-9"
     inkscape:window-y="-9"
     inkscape:window-maximized="1"
     inkscape:current-layer="g1" />
  <g
     inkscape:groupmode="layer"
     inkscape:label="Image"
     id="g1">
    <g
       id="g2">
      <path
         style="fill:#fefefe"
         d="M 0,225 V 0 H 301.5 603 V 225 450 H 301.5 0 Z"
         id="path6" />
      <path
         style="fill:#9faec0"
         d="m 333,449.31261 c -8.65003,-0.64966 -25.57811,-3.4595 -35.07514,-5.822 -17.35418,-4.31708 -29.84035,-10.31558 -35.97177,-17.28124 -4.43991,-5.04401 -5.66784,-9.51363 -4.0011,-14.56389 1.23806,-3.75136 7.8826,-10.47434 12.93365,-13.08634 1.7129,-0.88578 3.11436,-1.7578 3.11436,-1.93782 0,-0.18003 -2.43983,-5.45597 -5.42184,-11.72432 L 263.15633,373.5 240.49926,350 c -26.00281,-26.9702 -32.72839,-35.38955 -39.48878,-49.4336 -8.97174,-18.63792 -11.18073,-27.74723 -8.45264,-34.85654 0.3931,-1.0244 -1.66226,-2.7619 -6.8343,-5.77741 l -7.39646,-4.31243 -1.67351,-10.56001 c -2.11764,-13.36256 -2.09169,-14.77777 0.35904,-19.58475 1.98457,-3.89261 1.98577,-3.96873 0.0865,-5.46144 -10.00504,-7.86322 -21.17012,-17.69521 -21.52598,-18.95581 -0.2419,-0.8569 -1.2126,-6.40698 -2.1571,-12.3335 -1.3597,-8.53171 -1.48234,-11.5597 -0.58896,-14.54153 1.36261,-4.54798 5.68872,-8.90839 10.46863,-10.55165 l 3.52114,-1.21051 -17.77959,-11.25885 c -9.77878,-6.19236 -18.71608,-12.25569 -19.86067,-13.47405 -7.49283,-7.97575 -6.39179,-22.60827 2.19394,-29.15693 4.66211,-3.55596 11.69077,-5.19474 16.628,-3.87692 2.20084,0.58744 4.00152,0.97776 4.00152,0.86737 0,-0.11038 -7.91773,-16.336843 -17.59496,-36.058809 C 124.72781,49.740666 116.56826,32.11435 116.2727,30.29304 c -1.21205,-7.469021 5.49693,-17.054948 13.46072,-19.232926 6.457,-1.7658955 90.51009,-11.28280569 95.47442,-10.8100913 7.17111,0.68284736 11.251,4.3739411 15.82147,14.3137223 l 3.8162,8.299418 3.71502,-1.894022 c 6.52361,-3.325926 17.90707,-5.303778 26.88084,-4.670489 14.43117,1.018423 26.58535,6.806559 36.81672,17.533082 16.44136,17.237044 19.7969,43.057955 8.4032,64.662729 -4.68545,8.884587 -14.56204,18.405957 -23.80373,22.947627 l -7.64243,3.75574 2.99401,6.60314 c 1.6467,3.63173 3.39974,7.67031 3.89564,8.97462 0.88716,2.33341 0.95422,2.30254 4.17729,-1.92319 7.45629,-9.77585 17.75146,-14.52488 29.45172,-13.5857 3.50803,0.28159 6.60117,0.73492 6.87365,1.0074 0.27248,0.27249 -0.26057,5.60978 -1.18455,11.86066 -3.19222,21.59587 -0.66933,48.23671 6.46255,68.24218 1.59271,4.46768 4.2782,11.96271 5.96775,16.65561 7.51806,20.88219 7.8052,36.64968 1.19686,65.72191 l -4.14939,18.25446 17.79809,37.99554 17.79809,37.99554 3.50158,2e-4 c 5.25729,2.9e-4 26.48161,3.66663 35.00158,6.04625 24.00397,6.70428 38,16.63172 38,26.95355 0,15.25777 -30.45963,28.87372 -73.78258,32.982 -9.86108,0.93512 -39.5648,1.13068 -50.21742,0.33061 z M 343.9699,428.367 c 8.12875,-2.30451 12.45021,-4.7846 23.85386,-13.68974 C 378.63057,406.23819 381,403.21668 381,397.87484 c 0,-2.10444 -7.09162,-18.36043 -20.41617,-46.79966 L 340.16765,307.5 344.63385,288 c 4.40404,-19.22865 4.46029,-19.70177 4.04184,-34 -0.44791,-15.30481 -2.35582,-24.1726 -8.17569,-38 -3.40319,-8.08562 -7.12069,-21.24498 -9.11461,-32.26423 -1.96854,-10.87903 -2.28404,-36.89455 -0.56607,-46.67718 0.62216,-3.54277 0.92273,-6.64988 0.66793,-6.90468 -0.25481,-0.2548 -3.02301,-0.37963 -6.15158,-0.27739 -9.90155,0.32355 -18.7771,5.82442 -23.37164,14.48522 l -2.35048,4.43069 17.69323,40.47629 c 18.63485,42.63043 19.49067,45.35472 16.22914,51.66182 -2.30108,4.44981 -5.2985,6.50472 -35.64743,24.43848 l -28.54709,16.86902 0.95217,3.63098 c 2.99439,11.41866 -9.51943,23.90006 -21.29809,21.24292 -2.88326,-0.65044 -44.73769,-15.90145 -45.8265,-16.69837 -0.18206,-0.13325 0.13959,-1.12163 0.71479,-2.19639 0.99781,-1.86442 2.06661,-1.57005 23.28885,6.41436 12.23368,4.60265 23.54402,8.36846 25.13409,8.36846 7.33685,0 13.69657,-6.32649 13.68955,-13.61803 -0.004,-4.39352 -2.81811,-9.68108 -6.08139,-11.42753 C 254.67018,275.14757 212.36107,260 209.76581,260 203.08194,260 196,266.871 196,273.35579 c 0,4.21259 7.13803,22.6225 12.46395,32.14613 5.30534,9.48683 10.63224,15.71764 36.07623,42.19785 L 267.5,371.59464 277.87515,393.71 l 10.37515,22.11537 10.62485,5.50221 c 18.52803,9.59498 29.84767,11.36201 45.09475,7.03942 z M 200.60789,258.38391 c 3.12147,-1.82931 5.97517,-2.63889 9.48862,-2.6919 l 5.02459,-0.0758 -4.81055,-1.89713 c -4.65827,-1.83708 -9.73582,-1.85338 -17.06055,-0.0548 -1.86746,0.45856 -2.25,0.1395 -2.25,-1.87662 0,-2.24919 0.54692,-2.51415 7.38353,-3.57702 7.36705,-1.14533 7.40334,-1.13969 16.25,2.52565 7.47562,3.09728 10.05406,3.6806 16.43718,3.7186 6.50332,0.0387 8.40264,-0.3804 13.47146,-2.97269 5.90321,-3.01902 13.45354,-11.15304 13.44301,-14.48224 -0.003,-1.01296 -4.30372,-3.06995 -13.24497,-6.33523 C 237.4581,228.00539 226.325,223.84311 220,221.41524 l -11.5,-4.41429 -10.94897,1.8828 c -10.26283,1.7648 -11.15585,2.10853 -14.25,5.48484 -2.8882,3.15157 -3.29318,4.26045 -3.23827,8.86672 0.0345,2.89558 0.59702,8.52963 1.25,12.52012 l 1.18724,7.25542 6.5,3.89906 c 3.575,2.14448 6.64487,3.94204 6.82193,3.99457 0.17706,0.0525 2.33074,-1.08172 4.78596,-2.52057 z m 26.84211,1.68685 c -0.5225,-0.51108 -2.3,-1.19014 -3.95,-1.50903 -2.80757,-0.5426 -2.7755,-0.48787 0.5,0.85316 4.30339,1.76187 4.64761,1.82731 3.45,0.65587 z M 191.5,215.42294 c 3.3,-0.75969 7.21094,-1.39064 8.69098,-1.4021 3.42531,-0.0265 4.13478,-1.21178 2.66121,-4.4459 C 201.93499,207.5619 200.95535,207 198.36296,207 c -1.82381,0 -7.65229,-1.6244 -12.95218,-3.60979 -7.43241,-2.78424 -10.50114,-3.47147 -13.41839,-3.00498 -2.91484,0.4661 -3.92175,0.24124 -4.39056,-0.98046 -0.9134,-2.38029 -0.0616,-3.07977 4.49482,-3.69091 3.23562,-0.43399 6.14895,0.2102 13.27438,2.93519 14.94289,5.71462 22.95545,5.52101 32.83516,-0.79344 4.63154,-2.96017 11.15962,-11.24496 10.4825,-13.30335 -0.19038,-0.57874 -5.03572,-2.7978 -10.76742,-4.93124 -28.83586,-10.7332 -34.51884,-12.96752 -35.6542,-14.01778 -0.67811,-0.62729 -7.02356,-12.84606 -14.10101,-27.15282 -12.51998,-25.30861 -12.97911,-26.06237 -16.97202,-27.86292 -2.94783,-1.32928 -5.54109,-1.71252 -9.20553,-1.36042 -11.63384,1.11787 -17.44659,14.57971 -10.53843,24.40609 0.82482,1.17325 11.63047,8.53762 24.01257,16.36527 12.38209,7.82766 22.29935,14.57764 22.03834,14.99996 -0.26101,0.42232 -3.06754,1.09182 -6.23673,1.48779 C 157.44952,168.21223 155.23509,172.46504 158.5,191 c 0.8235,4.675 1.49788,8.58494 1.49863,8.68875 7.5e-4,0.10381 4.83887,4.2878 10.75137,9.29774 8.29053,7.02497 11.20758,8.96128 12.75,8.46336 1.1,-0.35511 4.7,-1.26722 8,-2.02691 z M 72.849178,406.43595 C 39.70141,400.43717 9.9193904,377.05682 1.8562375,350.70299 0.16896497,345.18827 -0.15147047,341.96397 0.15769922,333.61192 0.51156892,324.05232 0.81624689,322.75356 4.4279758,315.40893 13.992237,295.95951 35.678102,283.81837 63.54234,282.31291 l 11.042339,-0.5966 32.887321,-60.38482 c 18.08803,-33.21165 33.50055,-60.89375 34.25005,-61.51577 0.99249,-0.8237 1.66208,-0.83159 2.46462,-0.0291 0.80254,0.80254 -4.72955,18.30077 -20.36257,64.40762 L 102.35964,287.5 l 9.90152,4.72027 c 12.80863,6.10614 20.62878,11.75758 29.88556,21.5976 29.98585,31.87515 21.13123,73.71943 -18.78583,88.77622 -14.25091,5.37547 -33.814955,6.86349 -50.511712,3.84186 z m 40.768852,-5.46614 c 19.21174,-4.91353 33.55549,-16.44572 39.46499,-31.72935 3.11558,-8.05776 3.12742,-20.27843 0.0286,-29.4835 C 148.88567,327.20395 137.47679,312.82626 125,304.33017 119.42224,300.53199 109.76772,295.63332 102.50275,292.91515 99.47624,291.78278 97,290.50207 97,290.06911 97,289.27659 128.81214,195.09293 130.96893,189.5 c 0.63629,-1.65 0.75837,-2.55 0.27129,-2 -0.48708,0.55 -12.89886,23.10955 -27.58174,50.13234 l -26.696146,49.13235 -12.731167,0.49856 c -14.644664,0.57349 -21.519053,2.18472 -32.731167,7.67157 -42.550079,20.82265 -33.9160396,73.89279 15.961703,98.11049 21.547659,10.46228 45.170084,13.29188 66.156327,7.9245 z M 69.827703,373.15173 c -16.869764,-5.30845 -30.997231,-9.9792 -31.394373,-10.37944 -0.397141,-0.40023 0.05196,-2.75447 0.997996,-5.23164 3.336328,-8.73605 14.378371,-15.5049 23.322799,-14.29704 2.060231,0.27822 9.820875,2.40869 17.245875,4.73438 12.517656,3.92084 13.833864,4.57239 18.088174,8.95406 C 102.54526,361.52257 105,367.25639 105,373.0768 c 0,3.52901 -2.22114,9.93179 -3.40829,9.82493 -0.60044,-0.054 -14.894244,-4.44154 -31.764007,-9.75 z M 78.24086,336.0054 c -4.68526,-2.85664 -7.232667,-7.56888 -7.237122,-13.38737 -0.01177,-15.36897 19.011756,-20.53905 27.831937,-7.56396 2.954385,4.3461 2.661345,12.03481 -0.635121,16.66428 -4.321892,6.06954 -13.724034,8.08898 -19.959694,4.28705 z m 474.54295,32.30973 C 551.0287,360.97975 551.16562,360 553.94579,360 c 1.76675,0 2.09252,1.01338 4.41355,13.72937 0.0774,0.42385 -0.78097,0.90252 -1.9074,1.06372 -1.76484,0.25256 -2.27208,-0.64323 -3.66813,-6.47796 z m 24.21579,-10.81565 c -3.53348,-4.58005 -4.03366,-5.75351 -2.98893,-7.01233 1.5633,-1.88367 2.66751,-1.05578 7.65642,5.74048 2.9335,3.99622 3.36934,5.13594 2.23794,5.85223 -2.19585,1.39018 -2.40747,1.24982 -6.90543,-4.58038 z m -65.38065,-3.36804 C 508.30285,350.46719 486,314.59245 486,312.92266 c 0,-0.9356 0.7875,-2.58997 1.75,-3.67637 C 490.51004,306.13094 557.52455,264 559.71986,264 c 1.08359,0 2.73112,0.84085 3.66119,1.86856 C 566.1394,268.91651 589,305.26811 589,306.60634 c 0,0.67655 -0.27138,1.93729 -0.60306,2.80164 C 587.6048,311.47227 517.64823,356 515.19722,356 c -1.03799,0 -2.6482,-0.84085 -3.57827,-1.86856 z M 550.545,329.43313 c 17.9584,-11.43011 32.87761,-21.37086 33.15379,-22.09057 0.4471,-1.16513 -21.5141,-36.87177 -22.22747,-36.13958 -0.15916,0.16336 -2.1734,6.09384 -4.47607,13.17884 -2.73876,8.42676 -3.82099,13.10784 -3.12927,13.53535 0.58159,0.35944 6.24967,1.7431 12.59573,3.07479 10.6598,2.23692 11.53829,2.59588 11.53829,4.71465 0,1.26137 -0.3375,2.28002 -0.75,2.26367 -0.4125,-0.0163 -6.375,-1.29232 -13.25,-2.8355 l -12.5,-2.80577 -1.64831,4.71548 c -3.63274,10.39254 -7.95759,13.3633 -18.63657,12.80154 l -6.57789,-0.34603 -0.70953,3 c -0.39024,1.65 -1.69101,7.3875 -2.89059,12.75 -1.83609,8.20784 -2.48602,9.75 -4.10909,9.75 -2.52972,0 -2.4688,-1.534 0.57198,-14.40311 1.375,-5.81924 2.5,-10.94333 2.5,-11.38686 0,-0.7385 -27.05572,-4.48764 -27.70435,-3.83902 -0.15574,0.15574 4.77653,8.25353 10.96059,17.99509 8.50126,13.39175 11.6576,17.60668 12.94043,17.28048 0.93317,-0.2373 16.38992,-9.78335 34.34833,-21.21345 z m -8.96381,-16.5094 c 1.26192,-1.18552 3.21989,-5.14084 4.35105,-8.78961 1.13116,-3.64876 4.03919,-12.81882 6.46228,-20.37789 2.56415,-7.99909 3.8708,-13.43288 3.12608,-13 C 554.81684,271.1653 540.45671,280.275 523.60919,291 l -30.63185,19.5 19.76133,2.67969 c 21.78891,2.95464 25.45967,2.92206 28.84252,-0.25596 z M 594.25,337.7264 c -6.6482,-3.35445 -6.72124,-3.43294 -5.2944,-5.68881 0.78312,-1.23812 1.86624,-1.01253 7.06221,1.47092 6.84766,3.27288 7.24572,3.64117 6.37845,5.90125 -0.78239,2.03887 -0.75999,2.0435 -8.14626,-1.68336 z M 440,271.78181 l -7.5,-3.0313 -18.64773,0.19342 c -18.05853,0.1873 -18.80103,0.1152 -23.5,-2.28201 -6.04014,-3.08143 -9.65898,-6.83654 -12.26241,-12.72418 -1.76973,-4.00225 -2.15904,-8.22295 -3.17157,-34.3846 -1.25632,-32.46057 -1.04014,-34.78125 3.87726,-41.62255 5.41175,-7.52905 12.6514,-10.89933 23.60367,-10.98822 3.90543,-0.0317 8.84851,-0.3692 10.98462,-0.75 L 417.26769,165.5 379.63384,137.10037 C 358.93523,121.48058 342,108.50638 342,108.26881 c 0,-0.23756 1.4625,0.45206 3.25,1.53249 1.7875,1.08043 25.24518,13.99966 52.12817,28.7094 l 48.87818,26.74497 20.18245,-0.71737 c 13.86892,-0.49296 21.47982,-0.36803 24.32977,0.39938 6.0728,1.63524 12.30081,6.8364 15.68376,13.09788 l 2.95232,5.46444 0.96587,30.11344 c 1.10037,34.30658 0.80958,36.62825 -5.48291,43.7769 -6.98342,7.93359 -10.34583,8.87066 -33.7394,9.40283 -11.19349,0.25463 -19.78418,0.81378 -19.09043,1.24254 1.7923,1.1077 -0.71865,6.99767 -2.9291,6.87084 -0.89577,-0.0514 -5.00368,-1.45753 -9.12868,-3.12474 z m 4.93794,-37.29924 c 5.7464,-15.51521 5.18092,-14.85719 10.91348,-12.69943 0.8788,0.33078 1.22853,-0.10456 1,-1.24481 C 456.54661,219.0174 445.82385,214 442.87826,214 c -2.03211,0 -0.67029,3.01409 1.62174,3.58936 1.375,0.3451 2.5,1.10787 2.5,1.69505 0,0.58718 -2.25,7.07107 -5,14.40865 C 436.57072,248.17952 436.37135,249 438.28054,249 c 0.73501,0 3.5712,-6.18473 6.6574,-14.51743 z m 27.88587,-19.06074 c 0.17809,-2.70701 -0.17971,-6.61679 -0.79511,-8.68841 -1.96905,-6.62837 -11.99131,-15.8792 -13.35456,-12.32663 -0.30971,0.8071 0.95733,2.31722 3.12562,3.72527 5.35081,3.4747 8.25821,9.14494 8.13623,15.86794 -0.1314,7.24236 -0.13348,7.23168 1.31401,6.75516 0.71038,-0.23385 1.38979,-2.53625 1.57381,-5.33333 z M 138.5,261.83927 c -3.85,-3.27151 -7.40371,-6.34991 -7.89714,-6.84088 -0.52876,-0.52613 2.55082,-10.97433 7.5,-25.44546 l 8.39714,-24.55279 0.26472,30.68521 c 0.1456,16.87687 -0.0794,31.00401 -0.5,31.39366 -0.4206,0.38965 -3.91472,-1.96823 -7.76472,-5.23974 z M 65.276435,217.1192 c -2.322961,-3.19982 -4.435179,-6.44815 -4.693818,-7.21853 -0.301511,-0.89807 11.382076,-11.2685 32.5602,-28.90067 33.810683,-28.14959 37.788143,-31.34262 36.574133,-29.36099 -1.40833,2.29881 -58.807705,70.86808 -59.500708,71.07951 -0.393933,0.12019 -2.616846,-2.39951 -4.939807,-5.59932 z"
         id="path5" />
      <path
         style="fill:#f9cb43"
         d="m 330.5,448.93709 c -38.88131,-4.01961 -66.95535,-15.08869 -72.04063,-28.40431 -2.85762,-7.48256 0.23207,-13.65162 10.12795,-20.22212 2.97698,-1.9766 5.41268,-3.78906 5.41268,-4.02769 0,-0.23863 -2.39465,-5.46242 -5.32145,-11.60842 L 263.3571,373.5 240.79234,350 c -12.41061,-12.925 -24.16957,-25.42948 -26.13102,-27.78774 -6.36066,-7.64741 -12.74521,-18.92171 -17.80953,-31.44933 -4.98181,-12.32351 -6.00152,-17.5885 -4.53318,-23.40595 0.77624,-3.07539 0.6366,-3.23804 -6.48961,-7.55908 l -7.28292,-4.41606 -1.80182,-10.44092 c -1.90061,-11.0133 -1.64564,-16.90923 0.89938,-20.79782 0.84841,-1.2963 1.16316,-2.71626 0.69946,-3.15547 -0.46371,-0.43922 -5.5681,-4.71701 -11.3431,-9.50621 -5.775,-4.78921 -10.80674,-9.66925 -11.18166,-10.84453 -0.37491,-1.17529 -1.43409,-6.78724 -2.35373,-12.47101 -1.54835,-9.56942 -1.55154,-10.64973 -0.0432,-14.59932 1.95681,-5.12384 5.14134,-8.30814 9.96828,-9.96756 l 3.57933,-1.23052 -18.5439,-11.7954 c -20.59745,-13.10163 -23.36723,-15.915 -24.1999,-24.58079 -1.25201,-13.02992 11.8805,-24.54212 24.13613,-21.15818 2.00124,0.55257 3.63863,0.85362 3.63863,0.669 0,-0.18462 -7.64976,-15.96185 -16.99946,-35.060513 -9.3497,-19.098662 -17.46704,-36.461336 -18.03854,-38.583719 -2.22078,-8.247365 4.02862,-18.516312 12.57425,-20.661849 2.18006,-0.547344 24.27502,-3.3771679 49.0999,-6.2884976 40.52442,-4.7524876 45.58066,-5.16014921 49.48665,-3.98988528 5.80163,1.73820878 9.81662,6.23668838 13.30881,14.91145888 1.5875,3.943442 2.94467,7.169895 3.01594,7.169895 0.0713,0 1.86171,-0.883098 3.97878,-1.962441 6.64894,-3.38982 17.97607,-5.376797 27.01504,-4.738907 14.43117,1.018423 26.58535,6.806559 36.81672,17.533082 16.44136,17.237044 19.7969,43.057955 8.4032,64.662729 -4.69107,8.895237 -14.561,18.405437 -23.82817,22.959707 l -7.66689,3.76782 1.91689,4.38901 c 1.05428,2.41395 2.82502,6.47029 3.93496,9.01408 l 2.01808,4.62508 2.84639,-3.87508 c 4.0119,-5.46182 6.81266,-7.81581 13.11745,-11.025 4.75074,-2.41817 6.68066,-2.803 14.16667,-2.82482 4.76666,-0.0139 8.94023,0.24831 9.27459,0.58267 0.33436,0.33436 -0.1226,5.05936 -1.01546,10.5 -1.24066,7.55993 -1.49964,13.89997 -1.0985,26.89207 0.62527,20.25162 2.78052,30.75399 10.6712,52 7.02826,18.92391 8.33551,25.343 8.34966,41 0.0106,11.73823 -0.4042,14.8282 -4.27376,31.83589 l -4.28551,18.83589 17.79077,37.91411 C 378.83568,379.72927 380.58061,383 382.80688,383 c 5.36688,0 24.33495,3.26529 34.98989,6.02339 32.83256,8.49892 46.72134,23.37202 34.42636,36.86622 -9.01348,9.89264 -29.04834,17.45016 -57.50293,21.69116 -12.33114,1.83789 -51.54996,2.66618 -64.2202,1.35632 z m 9.622,-19.37544 c 3.6421,-0.772 9.3037,-2.75735 12.58134,-4.4119 7.70168,-3.88779 24.89122,-17.46504 26.8104,-21.17633 2.97025,-5.74382 2.09879,-8.33942 -15.12844,-45.05922 -9.13808,-19.47781 -18.29303,-39.01917 -20.34433,-43.42524 l -3.72965,-8.01104 3.78704,-16.48896 c 7.82818,-34.08424 7.26043,-47.53129 -3.13282,-74.20034 -8.20089,-21.04348 -11.06926,-35.83515 -11.10928,-57.28862 -0.0154,-8.25 0.481,-18.11086 1.10311,-21.91303 1.34646,-8.22928 0.82015,-8.92291 -6.20838,-8.18203 -6.19271,0.65278 -13.41279,3.89418 -17.58862,7.89628 C 303.94615,140.38364 300,146.8078 300,148.96123 c 0,0.5725 7.875,19.10383 17.5,41.18074 18.23387,41.82312 19.16569,44.75594 16.09501,50.65769 -2.31448,4.44838 -4.87284,6.20024 -35.2527,24.1396 l -29.15769,17.21768 0.90748,3.16419 C 273.04867,295.63009 263.91666,307 252.6802,307 245.80842,307 204,291.39222 204,288.82687 204,287.82209 204.52755,287 205.17234,287 c 0.64479,0 10.77475,3.6 22.51103,8 12.76375,4.78521 22.84118,7.9985 25.07765,7.99626 13.75267,-0.0138 18.4914,-19.16029 6.3022,-25.46357 -1.51811,-0.78504 -12.56377,-5.10277 -24.54591,-9.59495 -25.89961,-9.70991 -28.33982,-9.92599 -34.73006,-3.07532 -4.96954,5.32761 -5.01227,9.32452 -0.22899,21.42065 8.97315,22.69158 12.93314,28.15649 43.73079,60.34982 L 267.0781,371.5 l 10.71095,22.36388 10.71095,22.36388 11.61636,5.92166 c 16.53411,8.42859 26.49968,10.27501 40.00564,7.41223 z M 272.37819,273.8029 c -0.39494,-0.63901 -0.23567,-0.83285 0.37447,-0.45577 1.41434,0.87412 12.31088,-5.43531 11.54028,-6.68217 -0.33108,-0.53569 -0.13191,-0.68347 0.44259,-0.32841 0.57451,0.35506 3.15937,-0.53642 5.74414,-1.98108 3.55438,-1.98658 4.37314,-2.86028 3.35996,-3.58539 -1.0093,-0.72234 -0.91101,-0.82105 0.3986,-0.40031 1.88197,0.60461 15.14257,-6.5399 14.27424,-7.69063 -0.28186,-0.37353 -0.23042,-0.47209 0.11431,-0.21902 0.34474,0.25306 1.98527,-0.24238 3.64563,-1.10099 2.06292,-1.06678 2.6293,-1.80184 1.78868,-2.32138 -0.85477,-0.52827 -0.59363,-0.92673 0.85576,-1.30575 1.22827,-0.32121 1.83674,-0.14232 1.47989,0.43508 -0.33332,0.53931 0.31196,0.40728 1.43393,-0.29341 1.12198,-0.70068 1.77454,-1.70343 1.45014,-2.22833 -0.32457,-0.52516 -0.0624,-0.6284 0.58292,-0.22956 0.64501,0.39864 2.77234,-0.26381 4.72739,-1.4721 6.3586,-3.92983 7.04682,-10.26291 2.27499,-20.93488 C 325.14247,219.15396 323.31592,216 322.8071,216 c -0.50883,0 -0.67212,-0.40939 -0.36287,-0.90976 0.86109,-1.39327 -0.51521,-4.16441 -1.70352,-3.42999 -0.6392,0.39505 -0.74969,0.16329 -0.28252,-0.59261 0.99038,-1.60246 -2.41476,-9.21251 -3.75228,-8.38588 -0.58179,0.35956 -0.70806,0.13073 -0.29587,-0.5362 0.93849,-1.51851 -0.28193,-5.34277 -1.47058,-4.60814 -0.5052,0.31223 -0.62102,-0.20369 -0.25807,-1.14953 0.44376,-1.15641 0.28072,-1.4825 -0.5,-1 -0.72407,0.4475 -0.96116,0.20176 -0.63226,-0.65533 0.58846,-1.53349 -4.08395,-12.33695 -4.77925,-11.05051 -0.24315,0.44987 -0.30214,0.24809 -0.13109,-0.4484 0.47111,-1.91836 -6.17197,-16.3558 -7.12699,-15.48911 -0.45785,0.41551 -0.53218,0.23088 -0.16519,-0.41027 0.62663,-1.09475 -15.10089,-38.51122 -16.85518,-40.09918 -0.44664,-0.4043 -0.46684,-0.13774 -0.0449,0.59236 1.28507,2.22348 -25.76015,1.21447 -30.94656,-1.15456 -11.71064,-5.34914 -14.75876,-7.12832 -19.17125,-11.19018 -3.35801,-3.09119 -5.39183,-4.26844 -6.67747,-3.86516 -1.50705,0.47272 -1.72695,0.19623 -1.18984,-1.49607 0.44272,-1.39489 -0.017,-2.80143 -1.40128,-4.28728 C 223.92707,104.61797 223,103.10247 223,102.46643 c 0,-0.63605 -0.9,-1.97094 -2,-2.96643 -1.1,-0.995486 -2,-2.421337 -2,-3.168556 0,-0.74722 -0.39476,-2.139976 -0.87724,-3.095013 C 215.73624,88.512525 215,83.208162 215,70.738019 215,62.736718 215.41253,56.863075 216,56.5 c 0.55,-0.339919 1,-1.477789 1,-2.528601 0,-1.050811 0.9,-3.512941 2,-5.471399 1.1,-1.958458 2,-4.184645 2,-4.947083 0,-0.762438 0.3375,-1.53625 0.75,-1.719584 1.03118,-0.458303 6.24,-7.508087 6.2926,-8.516611 C 228.09993,32.217353 237.52853,25 238.90739,25 c 1.3425,0 1.34252,0.01533 -0.005,-3.84959 -0.62227,-1.785045 -1.5551,-2.865171 -2.15451,-2.494715 -0.58195,0.359665 -0.76589,0.18214 -0.40923,-0.394952 0.92391,-1.494916 -1.74581,-7.375125 -4.50153,-9.9148923 -4.65605,-4.2911649 -6.98315,-4.2561205 -47.33732,0.7128634 -52.4155,6.4541479 -48.33678,5.7625489 -50.13062,8.5002929 -1.72358,2.630522 -1.01989,8.961067 0.8665,7.795211 0.61162,-0.378002 0.78453,-0.196259 0.40206,0.422595 -0.90683,1.46728 2.43392,8.296811 3.68136,7.52585 0.54434,-0.336424 0.69373,-0.13276 0.33196,0.452586 -0.86452,1.398824 0.30525,4.389666 1.44207,3.68707 0.48607,-0.300407 0.58744,0.225998 0.22528,1.169788 -0.48212,1.256381 -0.30375,1.496745 0.66596,0.897429 0.84004,-0.519174 1.0844,-0.430151 0.66812,0.243402 -0.86144,1.393848 15.77785,35.459937 16.8469,34.491131 0.45158,-0.409238 0.51646,-0.212474 0.14416,0.437253 -0.89606,1.563806 2.40424,8.407055 3.67555,7.621341 0.54434,-0.336424 0.68947,-0.125872 0.3225,0.467893 -0.91414,1.479117 1.40659,6.317574 2.65894,5.543579 0.55455,-0.342734 0.71229,-0.144232 0.35052,0.441114 -0.93257,1.508942 0.34791,4.363298 1.60803,3.584499 0.58929,-0.3642 0.75537,-0.172491 0.37865,0.437065 -0.90683,1.46728 2.43392,8.296807 3.68136,7.525847 0.54434,-0.336421 0.69179,-0.12961 0.32765,0.45958 -0.91107,1.47413 5.4305,15.30793 6.667,14.54373 0.54729,-0.33824 0.68513,-0.1135 0.30632,0.49943 -0.8861,1.43374 6.76234,16.45344 7.86771,15.45028 0.45797,-0.41562 0.52807,-0.22409 0.15577,0.42564 -1.02455,1.78805 2.50277,8.6462 3.63831,7.07395 0.63121,-0.87397 0.73422,-0.72009 0.33911,0.50658 -0.71945,2.23361 1.33824,6.88127 2.67957,6.05228 0.55455,-0.34273 0.70629,-0.13452 0.3372,0.46268 -1.04157,1.68529 2.52886,8.52263 3.64412,6.97846 0.63064,-0.87317 0.73339,-0.71775 0.33757,0.51059 -0.79588,2.46983 7.89619,20.8442 9.58132,20.25416 0.71448,-0.25018 2.64905,0.65504 4.29905,2.01159 l 3,2.46645 -3.25,-1.21827 c -1.7875,-0.67004 -3.25,-1.55549 -3.25,-1.96764 0,-0.41216 -0.65702,-0.49726 -1.46004,-0.18911 -0.80302,0.30815 -6.94387,-1.58435 -13.64634,-4.20556 l -12.18631,-4.76583 -13.10366,-26.51612 c -12.29271,-24.87512 -13.34272,-26.63781 -16.96664,-28.4825 -8.27677,-4.21313 -17.70023,-1.28534 -21.56606,6.7004 -2.64311,5.45994 -2.60781,8.15817 0.17905,13.68468 2.04128,4.04799 4.35456,5.805 24.93767,18.94089 12.47821,7.96345 22.51878,14.64788 22.31237,14.85429 -0.20641,0.20641 -3.62803,0.99507 -7.60361,1.75259 -12.63641,2.40776 -14.64212,6.26866 -11.83042,22.77314 1.67589,9.83739 2.07435,10.88664 5.0913,13.40682 1.80022,1.50379 6.6305,5.57842 10.73398,9.05475 5.75246,4.8733 7.93574,6.16992 9.53478,5.66259 1.14066,-0.3619 5.89893,-1.32366 10.57393,-2.13725 11.82489,-2.05788 11.33681,-1.79394 9.58434,-5.18283 -1.22996,-2.37848 -2.31144,-2.97761 -6.28497,-3.48181 -2.63965,-0.33495 -8.3864,-2.02257 -12.77056,-3.75026 -5.97786,-2.35575 -9.02064,-3.02298 -12.16791,-2.66824 -3.46325,0.39036 -4.2805,0.15265 -4.67609,-1.36009 -1.05408,-4.03081 7.718,-4.01114 17.81519,0.0399 9.06352,3.63637 18.04504,4.80948 24.15734,3.15528 6.09574,-1.64971 13.23304,-6.90099 17.12253,-12.59793 2.40765,-3.52647 4.09713,-5.01335 5.73279,-5.04529 l 2.31911,-0.0453 -1.87304,3.67146 c -1.03017,2.01931 -1.55482,3.98969 -1.16588,4.37862 0.38893,0.38894 0.25715,0.5783 -0.29285,0.42082 -0.55,-0.15749 -3.1375,1.88922 -5.75,4.54824 -4.70524,4.78903 -5.83988,6.36305 -3.58006,4.9664 0.78665,-0.48618 0.96074,-0.1779 0.53138,0.94099 -0.3512,0.91522 -0.20267,1.66404 0.33006,1.66404 0.53274,0 0.86032,0.3375 0.72796,0.75 -0.54095,1.68586 4.37092,11.28753 5.43718,10.62854 0.694,-0.42891 0.83005,-0.23055 0.36167,0.52731 -0.87567,1.41686 1.30472,7.29691 2.44456,6.59245 0.42385,-0.26195 1.38412,0.30627 2.13394,1.26271 1.2337,1.57367 1.19694,1.60851 -0.38669,0.36655 -0.96474,-0.7566 -1.75,-0.9135 -1.75,-0.34967 0,0.56253 -5.25778,-0.97215 -11.68396,-3.41039 l -11.68396,-4.43317 -10.56604,1.62545 c -11.68822,1.79808 -14.25404,2.96931 -16.64846,7.5996 -2.00785,3.88276 -2.09139,6.97196 -0.48764,18.03317 l 1.26033,8.69255 7.06833,4.19922 c 5.72043,3.39845 7.37088,3.97766 8.65487,3.03735 3.50348,-2.56573 8.26675,-4.12528 12.80441,-4.19231 l 4.78212,-0.0706 -4.5,-2.00359 c -3.82088,-1.70121 -5.68394,-1.89995 -12.34499,-1.31687 -7.27633,0.63693 -7.81928,0.55324 -7.49038,-1.15463 0.27673,-1.43692 1.88562,-2.09245 7.32546,-2.98472 6.8679,-1.12651 7.10405,-1.09046 15.99038,2.44095 7.67618,3.0505 10.21103,3.58711 17.01953,3.60291 6.73594,0.0156 8.79004,-0.39818 13,-2.61887 5.45289,-2.87631 9.14655,-6.40151 12.38897,-11.82391 2.50035,-4.18142 6.72712,-5.05576 6.6546,-1.37655 -0.024,1.21582 -0.40485,2.57171 -0.84642,3.01309 -0.44157,0.44137 -0.50921,-0.0838 -0.15031,-1.16702 0.3589,-1.08324 -0.61704,0.0555 -2.16874,2.53048 -1.55171,2.475 -2.68752,5.32156 -2.52402,6.32568 0.20969,1.28777 -0.24063,1.73792 -1.5284,1.52782 -1.00412,-0.16382 -3.44893,0.81462 -5.43291,2.17432 l -3.60722,2.47218 2.98116,6.25 c 1.63965,3.4375 3.6004,6.25 4.35723,6.25 0.75683,0 1.37606,0.47656 1.37606,1.05902 0,0.58246 -0.45,0.7809 -1,0.44098 -0.55,-0.33992 -1,-0.17723 -1,0.36153 0,0.9259 5.6404,2.73781 7.25,2.32897 0.4125,-0.10478 0.75689,0.372 0.76531,1.0595 0.0102,0.83333 0.33844,0.75 0.98469,-0.25 0.78741,-1.21842 0.97225,-1.08696 0.98469,0.70031 0.0225,3.23071 2.85153,4.43574 6.26712,2.66948 1.61905,-0.83725 2.52182,-1.92704 2.12638,-2.56689 z M 249.87244,258.25 c -1.24387,-1.58606 -1.2085,-1.62143 0.37756,-0.37756 0.9625,0.75485 1.75,1.54235 1.75,1.75 0,0.82304 -0.82119,0.29331 -2.12756,-1.37244 z M 258.5,248 c -0.33992,-0.55 -0.14148,-1 0.44098,-1 0.58246,0 1.05902,0.45 1.05902,1 0,0.55 -0.19844,1 -0.44098,1 -0.24254,0 -0.7191,-0.45 -1.05902,-1 z M 255,234 c -0.825,-0.53316 -1.05,-0.96937 -0.5,-0.96937 0.55,0 1.675,0.43621 2.5,0.96937 0.825,0.53316 1.05,0.96937 0.5,0.96937 -0.55,0 -1.675,-0.43621 -2.5,-0.96937 z m -8.36431,-3.50616 c -1.57537,-0.82161 -3.60037,-1.50979 -4.5,-1.52928 -0.89963,-0.0195 -2.76069,-0.72557 -4.13569,-1.56907 -1.60264,-0.98314 -1.78211,-1.27467 -0.5,-0.81218 1.1,0.3968 3.3663,0.91589 5.03623,1.15352 1.66992,0.23764 4.14492,1.28406 5.5,2.32538 2.97679,2.28755 2.46215,2.44616 -1.40054,0.43163 z M 230.5,219 c 0.33992,-0.55 0.81648,-1 1.05902,-1 0.24254,0 0.44098,0.45 0.44098,1 0,0.55 -0.47656,1 -1.05902,1 -0.58246,0 -0.7809,-0.45 -0.44098,-1 z M 225,199.59106 c 0,-0.19039 0.675,-0.90637 1.5,-1.59106 0.86459,-0.71755 1.5,-0.81474 1.5,-0.22943 0,0.5585 -0.675,1.27447 -1.5,1.59106 -0.825,0.31658 -1.5,0.41982 -1.5,0.22943 z m -1.5,-18.62421 c -3.4374,-1.70211 -3.5895,-1.90077 -1.08144,-1.41242 1.6052,0.31256 3.84283,1.21567 4.9725,2.00693 2.93441,2.05534 0.80245,1.7296 -3.89106,-0.59451 z M 170.07895,95.416667 c 0.048,-1.164943 0.28494,-1.4019 0.60416,-0.604167 0.28887,0.721875 0.25335,1.584375 -0.0789,1.916667 -0.3323,0.332291 -0.56864,-0.258334 -0.52522,-1.3125 z M 150.5,15 c 0.33992,-0.55 1.06803,-1 1.61803,-1 0.55,0 0.72189,0.45 0.38197,1 -0.33992,0.55 -1.06803,1 -1.61803,1 -0.55,0 -0.72189,-0.45 -0.38197,-1 z m 68.3125,-7.683114 c 0.72187,-0.2888706 1.58437,-0.2533443 1.91667,0.078947 0.33229,0.3322917 -0.25834,0.5686404 -1.3125,0.5252193 -1.16495,-0.047984 -1.4019,-0.2849403 -0.60417,-0.6041663 z m 9.10417,252.387314 c -0.99132,-0.70374 -11.34306,-3.61115 -11.67511,-3.27909 -0.48587,0.48586 11.13756,4.40641 11.67511,3.93799 0.22916,-0.19971 0.22916,-0.49621 0,-0.6589 z M 74.178415,406.49304 C 52.616956,402.58673 33.714712,392.94149 19.470964,378.57749 10.98375,370.01862 6.0435209,362.1507 2.4671111,351.49676 0.105734,344.46234 -0.15955199,342.38204 0.23668914,334.00636 0.77551552,322.61674 3.2007083,315.59175 9.4755766,307.24434 20.440209,292.65815 39.76771,283.83917 63.994666,282.36773 l 10.757142,-0.65334 32.717312,-60.1072 c 17.99451,-33.05895 33.23786,-60.65342 33.87409,-61.32103 0.6744,-0.70766 1.70924,-0.87227 2.48159,-0.39475 1.03538,0.64014 -1.66351,9.64393 -12.35383,41.21384 -30.52681,90.14959 -29.51507,86.94599 -27.66319,87.59403 12.02195,4.20691 24.71727,12.01593 34.45565,21.19403 31.98393,30.14378 28.04407,71.49837 -8.53733,89.61169 -15.80725,7.82698 -36.528506,10.43377 -55.547685,6.98804 z M 104.5,402.96306 c 33.97767,-4.84096 55.45897,-28.60235 50.57323,-55.94125 -3.76634,-21.07515 -23.22271,-42.29075 -48.13654,-52.489 -4.4732,-1.83107 -8.519675,-3.71579 -8.992168,-4.18829 -0.478772,-0.47877 6.869108,-23.63101 16.598198,-52.29881 9.6015,-28.29186 17.45535,-51.68858 17.45299,-51.99272 -0.002,-0.30415 -12.42994,22.23755 -27.61683,50.09267 l -27.612541,50.64565 -10.280337,0.0424 C 8.9270116,287.07127 -15.814707,336.97061 22.5,375.54514 c 20.72169,20.86221 52.77926,31.58114 82,27.41792 z M 70.183162,373.04939 c -17.224261,-5.41735 -31.497145,-10.03004 -31.71752,-10.25041 -0.927551,-0.92756 2.066812,-7.98925 4.786986,-11.28929 4.176359,-5.06665 10.091105,-7.87244 16.747372,-7.94448 7.532722,-0.0815 31.542521,7.60903 36.491829,11.68867 4.003721,3.3002 7.002491,8.53368 8.030901,14.01561 0.67701,3.60877 -1.0869,13.77979 -2.37247,13.68007 -0.35764,-0.0277 -14.742837,-4.48282 -31.967098,-9.90017 z m 8.801236,-36.901 c -13.88441,-7.37818 -8.635853,-28.13186 7.117719,-28.14465 11.40169,-0.009 18.388323,12.01355 12.779997,21.99222 -4.033016,7.17578 -12.844728,9.90039 -19.897716,6.15243 z M 553.12462,368.75 c -1.55242,-7.81019 -1.51946,-8.25 0.61832,-8.25 1.27004,0 2.05795,1.35659 2.904,5 1.74389,7.50987 1.6468,9.5 -0.46348,9.5 -1.42911,0 -2.0815,-1.33299 -3.05884,-6.25 z m 24.05332,-11.25021 C 573.07639,352.2482 572.55507,350 575.43887,350 c 0.72646,0 3.14449,2.41541 5.3734,5.36758 3.01763,3.99682 3.76337,5.65678 2.92015,6.5 -1.70575,1.70575 -1.9252,1.55952 -6.55448,-4.36779 z M 512.85718,355.007 c -0.90354,-0.54253 -7.36384,-9.99499 -14.35621,-21.00547 -10.00401,-15.75274 -12.58643,-20.52489 -12.11765,-22.39266 0.90508,-3.60612 70.85725,-48.01629 74.27941,-47.15738 1.717,0.43094 4.56426,3.90928 9.68324,11.82947 17.21831,26.64056 18.9029,29.59131 18.28935,32.03592 -0.44917,1.78961 -9.11475,7.78215 -35.5898,24.61151 -19.24783,12.23525 -35.79469,22.43021 -36.77079,22.65547 -0.9761,0.22525 -2.514,-0.0343 -3.41755,-0.57686 z M 550.9009,329.5 c 27.43485,-17.37835 33.09272,-21.34492 32.80692,-23 -0.18994,-1.1 -5.26441,-9.76418 -11.27659,-19.25374 L 561.5,269.99252 l -4.36283,13.62499 c -3.22071,10.05816 -4.04789,13.81963 -3.15977,14.36852 0.66168,0.40894 6.15677,1.78305 12.2113,3.05357 10.44609,2.19207 13.47537,3.79316 11.19408,5.9165 -0.72153,0.67158 -9.84257,-1.00884 -24.05276,-4.43139 -1.8801,-0.45283 -2.39777,0.17853 -3.87524,4.72632 -3.20178,9.85534 -8.36741,13.32311 -18.45035,12.386 l -6.60898,-0.61424 -1.28524,6.2386 C 519.43355,343.10812 518.8375,345 516.8915,345 c -2.41273,0 -2.3896,-0.52466 0.6085,-13.80607 1.375,-6.09117 2.5,-11.47564 2.5,-11.96548 0,-0.88979 -26.91813,-4.64365 -27.69902,-3.86276 -0.35944,0.35943 2.87391,5.6106 19.35019,31.42602 2.39607,3.75421 3.77251,5.06168 4.7374,4.5 C 517.1366,350.85627 532.66715,341.05 550.9009,329.5 Z m -10.0191,-16.054 c 2.58374,-2.17407 3.94174,-5.40954 9.12895,-21.75 3.35153,-10.5578 6.29004,-19.78187 6.53002,-20.49794 0.55,-1.64114 3.41243,-3.35286 -32.94922,19.70343 -16.99965,10.77918 -30.27465,19.72218 -29.5,19.87334 3.6427,0.7108 37.77965,5.01007 40.58172,5.11094 2.0662,0.0744 4.23221,-0.7768 6.20853,-2.43977 z m 53.8682,24.48987 c -5.41487,-2.79495 -7.04785,-5.01572 -4.73792,-6.44333 0.74991,-0.46347 9.28502,3.56795 12.76146,6.02766 0.50451,0.35696 -0.97955,3.4804 -1.63053,3.4317 -0.35365,-0.0265 -3.23051,-1.38367 -6.39301,-3.01603 z M 440.5,271.81751 c -7.98746,-3.0634 -8.02923,-3.06791 -26.64773,-2.87419 -18.05912,0.1879 -18.80088,0.11589 -23.5,-2.2814 -6.04014,-3.08143 -9.65898,-6.83654 -12.26241,-12.72418 -1.76973,-4.00225 -2.15904,-8.22295 -3.17157,-34.3846 -1.25632,-32.46057 -1.04014,-34.78125 3.87726,-41.62255 5.41175,-7.52905 12.6514,-10.89933 23.60367,-10.98822 3.90543,-0.0317 8.84851,-0.3692 10.98462,-0.75 L 417.26769,165.5 379.63384,137.10037 C 358.93523,121.48058 342,108.50638 342,108.26881 c 0,-0.23756 1.4625,0.45206 3.25,1.53249 1.7875,1.08043 25.24518,13.99966 52.12817,28.7094 l 48.87818,26.74497 20.18245,-0.71737 c 13.86892,-0.49296 21.47982,-0.36803 24.32977,0.39938 6.0728,1.63524 12.30081,6.8364 15.68376,13.09788 l 2.95232,5.46444 0.96587,30.11344 c 1.10037,34.30658 0.80958,36.62825 -5.48291,43.7769 -6.98153,7.93144 -10.34919,8.87073 -33.71015,9.40221 -13.30387,0.30268 -19.98331,0.8016 -19.34028,1.44463 1.24807,1.24807 -0.55658,6.78644 -2.18501,6.70568 -0.63369,-0.0314 -4.75217,-1.43783 -9.15217,-3.12535 z m 4.6424,-37.33288 c 4.19777,-11.42093 5.6573,-14.38131 6.84636,-13.88654 3.51727,1.46352 4.76807,1.47799 5.31165,0.0614 0.83901,-2.18643 -14.07369,-7.6444 -15.33048,-5.61088 -0.61478,0.99474 -0.0307,1.72689 2.0883,2.61788 1.61797,0.68031 2.94177,1.465 2.94177,1.74376 0,0.27876 -2.25,6.48306 -5,13.78734 C 436.59961,247.5416 436.26771,249 438.40364,249 c 0.89535,0 3.3356,-5.25633 6.73876,-14.51537 z M 473.33378,217.25 c 0.90765,-5.77494 -1.34702,-13.18585 -5.5635,-18.28672 -2.21639,-2.68126 -7.71794,-6.11366 -8.76346,-5.4675 -1.75795,1.08648 -1.11043,2.16988 2.87203,4.80535 5.49433,3.63598 8.49442,10.18423 7.90764,17.25993 -0.38431,4.63434 -0.19889,5.43894 1.25343,5.43894 1.19816,0 1.87954,-1.11393 2.29386,-3.75 z m -331.84989,46.97069 c -1.65886,-1.49638 -4.95024,-4.31504 -7.31418,-6.26369 L 129.87165,254.41401 138.18582,229.957 146.5,205.5 146.81028,227 c 0.31325,21.705 -0.44465,40.02465 -1.6536,39.97069 -0.36118,-0.0161 -2.01393,-1.25363 -3.67279,-2.75 z M 65.5,217.25856 c -2.2,-3.11267 -4.344913,-6.2175 -4.766474,-6.89963 C 60.214067,209.5184 70.52846,200.31758 92.73845,181.80935 110.76272,166.78921 126.40763,153.825 127.50492,153 c 1.89792,-1.42695 1.92203,-1.40332 0.49508,0.48523 -3.82859,5.06708 -57.303015,69.03931 -57.864182,69.22375 C 69.786118,222.82393 67.7,220.37124 65.5,217.25856 Z"
         id="path4" />
      <path
         style="fill:#9fa8b2"
         d="m 330.5,448.93709 c -38.88131,-4.01961 -66.95535,-15.08869 -72.04063,-28.40431 -2.85762,-7.48256 0.23207,-13.65162 10.12795,-20.22212 2.97698,-1.9766 5.41268,-3.78906 5.41268,-4.02769 0,-0.23863 -2.39465,-5.46242 -5.32145,-11.60842 L 263.3571,373.5 240.79234,350 c -12.41061,-12.925 -24.16957,-25.42948 -26.13102,-27.78774 -6.36066,-7.64741 -12.74521,-18.92171 -17.80953,-31.44933 -4.98181,-12.32351 -6.00152,-17.5885 -4.53318,-23.40595 0.77624,-3.07539 0.6366,-3.23804 -6.48961,-7.55908 l -7.28292,-4.41606 -1.80182,-10.44092 c -1.90061,-11.0133 -1.64564,-16.90923 0.89938,-20.79782 0.84841,-1.2963 1.16316,-2.71626 0.69946,-3.15547 -0.46371,-0.43922 -5.5681,-4.71701 -11.3431,-9.50621 -5.775,-4.78921 -10.80674,-9.66925 -11.18166,-10.84453 -0.37491,-1.17529 -1.43409,-6.78724 -2.35373,-12.47101 -1.54835,-9.56942 -1.55154,-10.64973 -0.0432,-14.59932 1.95681,-5.12384 5.14134,-8.30814 9.96828,-9.96756 l 3.57933,-1.23052 -18.5439,-11.7954 c -20.59745,-13.10163 -23.36723,-15.915 -24.1999,-24.58079 -1.25201,-13.02992 11.8805,-24.54212 24.13613,-21.15818 2.00124,0.55257 3.63863,0.85362 3.63863,0.669 0,-0.18462 -7.64976,-15.96185 -16.99946,-35.060513 -9.3497,-19.098662 -17.46704,-36.461336 -18.03854,-38.583719 -2.22078,-8.247365 4.02862,-18.516312 12.57425,-20.661849 2.18006,-0.547344 24.27502,-3.3771679 49.0999,-6.2884976 50.38345,-5.9087014 50.80187,-5.9047829 56.87312,0.5326175 3.78984,4.0184077 9.53743,17.7099511 7.69262,18.3248871 -2.68482,0.894941 -11.36556,8.499861 -15.11118,13.238426 -13.40075,16.953216 -16.02512,41.064474 -6.46931,59.43638 6.84075,13.151978 17.66489,23.097978 29.71946,27.308408 11.58234,4.04547 24.2434,5.55274 28.47488,3.38986 0.92634,-0.4735 3.39805,-1.12447 5.49268,-1.44661 4.23047,-0.65063 3.16173,-2.07411 9.70966,12.93258 l 2.01808,4.62508 2.84639,-3.87508 c 4.0119,-5.46182 6.81266,-7.81581 13.11745,-11.025 4.75074,-2.41817 6.68066,-2.803 14.16667,-2.82482 4.76666,-0.0139 8.94023,0.24831 9.27459,0.58267 0.33436,0.33436 -0.1226,5.05936 -1.01546,10.5 -1.24066,7.55993 -1.49964,13.89997 -1.0985,26.89207 0.62527,20.25162 2.78052,30.75399 10.6712,52 7.02826,18.92391 8.33551,25.343 8.34966,41 0.0106,11.73823 -0.4042,14.8282 -4.27376,31.83589 l -4.28551,18.83589 17.79077,37.91411 C 378.83568,379.72927 380.58061,383 382.80688,383 c 5.36688,0 24.33495,3.26529 34.98989,6.02339 32.83256,8.49892 46.72134,23.37202 34.42636,36.86622 -9.01348,9.89264 -29.04834,17.45016 -57.50293,21.69116 -12.33114,1.83789 -51.54996,2.66618 -64.2202,1.35632 z m 9.622,-19.37544 c 3.6421,-0.772 9.3037,-2.75735 12.58134,-4.4119 7.70168,-3.88779 24.89122,-17.46504 26.8104,-21.17633 2.97025,-5.74382 2.09879,-8.33942 -15.12844,-45.05922 -9.13808,-19.47781 -18.29303,-39.01917 -20.34433,-43.42524 l -3.72965,-8.01104 3.78704,-16.48896 c 7.82818,-34.08424 7.26043,-47.53129 -3.13282,-74.20034 -8.20089,-21.04348 -11.06926,-35.83515 -11.10928,-57.28862 -0.0154,-8.25 0.481,-18.11086 1.10311,-21.91303 1.34646,-8.22928 0.82015,-8.92291 -6.20838,-8.18203 -6.19271,0.65278 -13.41279,3.89418 -17.58862,7.89628 C 303.94615,140.38364 300,146.8078 300,148.96123 c 0,0.5725 7.875,19.10383 17.5,41.18074 18.23387,41.82312 19.16569,44.75594 16.09501,50.65769 -2.31448,4.44838 -4.87284,6.20024 -35.2527,24.1396 l -29.15769,17.21768 0.90748,3.16419 C 273.04867,295.63009 263.91666,307 252.6802,307 245.80842,307 204,291.39222 204,288.82687 204,287.82209 204.52755,287 205.17234,287 c 0.64479,0 10.77475,3.6 22.51103,8 12.76375,4.78521 22.84118,7.9985 25.07765,7.99626 13.75267,-0.0138 18.4914,-19.16029 6.3022,-25.46357 -1.51811,-0.78504 -12.56377,-5.10277 -24.54591,-9.59495 -25.89961,-9.70991 -28.33982,-9.92599 -34.73006,-3.07532 -4.96954,5.32761 -5.01227,9.32452 -0.22899,21.42065 8.97315,22.69158 12.93314,28.15649 43.73079,60.34982 L 267.0781,371.5 l 10.71095,22.36388 10.71095,22.36388 11.61636,5.92166 c 16.53411,8.42859 26.49968,10.27501 40.00564,7.41223 z M 272.37819,273.8029 c -0.39494,-0.63901 -0.23567,-0.83285 0.37447,-0.45577 1.41434,0.87412 12.31088,-5.43531 11.54028,-6.68217 -0.33108,-0.53569 -0.13191,-0.68347 0.44259,-0.32841 0.57451,0.35506 3.15937,-0.53642 5.74414,-1.98108 3.55438,-1.98658 4.37314,-2.86028 3.35996,-3.58539 -1.0093,-0.72234 -0.91101,-0.82105 0.3986,-0.40031 1.88197,0.60461 15.14257,-6.5399 14.27424,-7.69063 -0.28186,-0.37353 -0.23042,-0.47209 0.11431,-0.21902 0.34474,0.25306 1.98527,-0.24238 3.64563,-1.10099 2.06292,-1.06678 2.6293,-1.80184 1.78868,-2.32138 -0.85477,-0.52827 -0.59363,-0.92673 0.85576,-1.30575 1.22827,-0.32121 1.83674,-0.14232 1.47989,0.43508 -0.33332,0.53931 0.31196,0.40728 1.43393,-0.29341 1.12198,-0.70068 1.77454,-1.70343 1.45014,-2.22833 -0.32457,-0.52516 -0.0624,-0.6284 0.58292,-0.22956 0.64501,0.39864 2.77234,-0.26381 4.72739,-1.4721 6.3586,-3.92983 7.04682,-10.26291 2.27499,-20.93488 C 325.14247,219.15396 323.31592,216 322.8071,216 c -0.50883,0 -0.67212,-0.40939 -0.36287,-0.90976 0.86109,-1.39327 -0.51521,-4.16441 -1.70352,-3.42999 -0.6392,0.39505 -0.74969,0.16329 -0.28252,-0.59261 0.99038,-1.60246 -2.41476,-9.21251 -3.75228,-8.38588 -0.58179,0.35956 -0.70806,0.13073 -0.29587,-0.5362 0.93849,-1.51851 -0.28193,-5.34277 -1.47058,-4.60814 -0.5052,0.31223 -0.62102,-0.20369 -0.25807,-1.14953 0.44376,-1.15641 0.28072,-1.4825 -0.5,-1 -0.72407,0.4475 -0.96116,0.20176 -0.63226,-0.65533 0.58846,-1.53349 -4.08395,-12.33695 -4.77925,-11.05051 -0.24315,0.44987 -0.30214,0.24809 -0.13109,-0.4484 0.47111,-1.91836 -6.17197,-16.3558 -7.12699,-15.48911 -0.45785,0.41551 -0.53218,0.23088 -0.16519,-0.41027 0.62663,-1.09475 -15.10089,-38.51122 -16.85518,-40.09918 -0.44664,-0.4043 -0.46684,-0.13774 -0.0449,0.59236 1.28507,2.22348 -25.76015,1.21447 -30.94656,-1.15456 -11.71064,-5.34914 -14.75876,-7.12832 -19.17125,-11.19018 -3.35801,-3.09119 -5.39183,-4.26844 -6.67747,-3.86516 -1.50705,0.47272 -1.72695,0.19623 -1.18984,-1.49607 0.44272,-1.39489 -0.017,-2.80143 -1.40128,-4.28728 C 223.92707,104.61797 223,103.10247 223,102.46643 c 0,-0.63605 -0.9,-1.97094 -2,-2.96643 -1.1,-0.995486 -2,-2.421337 -2,-3.168556 0,-0.74722 -0.39476,-2.139976 -0.87724,-3.095013 C 215.73624,88.512525 215,83.208162 215,70.738019 215,62.736718 215.41253,56.863075 216,56.5 c 0.55,-0.339919 1,-1.477789 1,-2.528601 0,-1.050811 0.9,-3.512941 2,-5.471399 1.1,-1.958458 2,-4.184645 2,-4.947083 0,-0.762438 0.3375,-1.53625 0.75,-1.719584 1.03118,-0.458303 6.24,-7.508087 6.2926,-8.516611 C 228.09993,32.217353 237.52853,25 238.90739,25 c 1.3425,0 1.34252,0.01533 -0.005,-3.84959 -0.62227,-1.785045 -1.5551,-2.865171 -2.15451,-2.494715 -0.58195,0.359665 -0.76589,0.18214 -0.40923,-0.394952 0.92391,-1.494916 -1.74581,-7.375125 -4.50153,-9.9148923 -4.65605,-4.2911649 -6.98315,-4.2561205 -47.33732,0.7128634 -52.4155,6.4541479 -48.33678,5.7625489 -50.13062,8.5002929 -1.72358,2.630522 -1.01989,8.961067 0.8665,7.795211 0.61162,-0.378002 0.78453,-0.196259 0.40206,0.422595 -0.90683,1.46728 2.43392,8.296811 3.68136,7.52585 0.54434,-0.336424 0.69373,-0.13276 0.33196,0.452586 -0.86452,1.398824 0.30525,4.389666 1.44207,3.68707 0.48607,-0.300407 0.58744,0.225998 0.22528,1.169788 -0.48212,1.256381 -0.30375,1.496745 0.66596,0.897429 0.84004,-0.519174 1.0844,-0.430151 0.66812,0.243402 -0.86144,1.393848 15.77785,35.459937 16.8469,34.491131 0.45158,-0.409238 0.51646,-0.212474 0.14416,0.437253 -0.89606,1.563806 2.40424,8.407055 3.67555,7.621341 0.54434,-0.336424 0.68947,-0.125872 0.3225,0.467893 -0.91414,1.479117 1.40659,6.317574 2.65894,5.543579 0.55455,-0.342734 0.71229,-0.144232 0.35052,0.441114 -0.93257,1.508942 0.34791,4.363298 1.60803,3.584499 0.58929,-0.3642 0.75537,-0.172491 0.37865,0.437065 -0.90683,1.46728 2.43392,8.296807 3.68136,7.525847 0.54434,-0.336421 0.69179,-0.12961 0.32765,0.45958 -0.91107,1.47413 5.4305,15.30793 6.667,14.54373 0.54729,-0.33824 0.68513,-0.1135 0.30632,0.49943 -0.8861,1.43374 6.76234,16.45344 7.86771,15.45028 0.45797,-0.41562 0.52807,-0.22409 0.15577,0.42564 -1.02455,1.78805 2.50277,8.6462 3.63831,7.07395 0.63121,-0.87397 0.73422,-0.72009 0.33911,0.50658 -0.71945,2.23361 1.33824,6.88127 2.67957,6.05228 0.55455,-0.34273 0.70629,-0.13452 0.3372,0.46268 -1.04157,1.68529 2.52886,8.52263 3.64412,6.97846 0.63064,-0.87317 0.73339,-0.71775 0.33757,0.51059 -0.79588,2.46983 7.89619,20.8442 9.58132,20.25416 0.71448,-0.25018 2.64905,0.65504 4.29905,2.01159 l 3,2.46645 -3.25,-1.21827 c -1.7875,-0.67004 -3.25,-1.55549 -3.25,-1.96764 0,-0.41216 -0.65702,-0.49726 -1.46004,-0.18911 -0.80302,0.30815 -6.94387,-1.58435 -13.64634,-4.20556 l -12.18631,-4.76583 -13.10366,-26.51612 c -12.29271,-24.87512 -13.34272,-26.63781 -16.96664,-28.4825 -8.27677,-4.21313 -17.70023,-1.28534 -21.56606,6.7004 -2.64311,5.45994 -2.60781,8.15817 0.17905,13.68468 2.04128,4.04799 4.35456,5.805 24.93767,18.94089 12.47821,7.96345 22.51878,14.64788 22.31237,14.85429 -0.20641,0.20641 -3.62803,0.99507 -7.60361,1.75259 -12.63641,2.40776 -14.64212,6.26866 -11.83042,22.77314 1.67589,9.83739 2.07435,10.88664 5.0913,13.40682 1.80022,1.50379 6.6305,5.57842 10.73398,9.05475 5.75246,4.8733 7.93574,6.16992 9.53478,5.66259 1.14066,-0.3619 5.89893,-1.32366 10.57393,-2.13725 11.82489,-2.05788 11.33681,-1.79394 9.58434,-5.18283 -1.22996,-2.37848 -2.31144,-2.97761 -6.28497,-3.48181 -2.63965,-0.33495 -8.3864,-2.02257 -12.77056,-3.75026 -5.97786,-2.35575 -9.02064,-3.02298 -12.16791,-2.66824 -3.46325,0.39036 -4.2805,0.15265 -4.67609,-1.36009 -1.05408,-4.03081 7.718,-4.01114 17.81519,0.0399 9.06352,3.63637 18.04504,4.80948 24.15734,3.15528 6.09574,-1.64971 13.23304,-6.90099 17.12253,-12.59793 2.40765,-3.52647 4.09713,-5.01335 5.73279,-5.04529 l 2.31911,-0.0453 -1.87304,3.67146 c -1.03017,2.01931 -1.55482,3.98969 -1.16588,4.37862 0.38893,0.38894 0.25715,0.5783 -0.29285,0.42082 -0.55,-0.15749 -3.1375,1.88922 -5.75,4.54824 -4.70524,4.78903 -5.83988,6.36305 -3.58006,4.9664 0.78665,-0.48618 0.96074,-0.1779 0.53138,0.94099 -0.3512,0.91522 -0.20267,1.66404 0.33006,1.66404 0.53274,0 0.86032,0.3375 0.72796,0.75 -0.54095,1.68586 4.37092,11.28753 5.43718,10.62854 0.694,-0.42891 0.83005,-0.23055 0.36167,0.52731 -0.87567,1.41686 1.30472,7.29691 2.44456,6.59245 0.42385,-0.26195 1.38412,0.30627 2.13394,1.26271 1.2337,1.57367 1.19694,1.60851 -0.38669,0.36655 -0.96474,-0.7566 -1.75,-0.9135 -1.75,-0.34967 0,0.56253 -5.25778,-0.97215 -11.68396,-3.41039 l -11.68396,-4.43317 -10.56604,1.62545 c -11.68822,1.79808 -14.25404,2.96931 -16.64846,7.5996 -2.00785,3.88276 -2.09139,6.97196 -0.48764,18.03317 l 1.26033,8.69255 7.06833,4.19922 c 5.72043,3.39845 7.37088,3.97766 8.65487,3.03735 3.50348,-2.56573 8.26675,-4.12528 12.80441,-4.19231 l 4.78212,-0.0706 -4.5,-2.00359 c -3.82088,-1.70121 -5.68394,-1.89995 -12.34499,-1.31687 -7.27633,0.63693 -7.81928,0.55324 -7.49038,-1.15463 0.27673,-1.43692 1.88562,-2.09245 7.32546,-2.98472 6.8679,-1.12651 7.10405,-1.09046 15.99038,2.44095 7.67618,3.0505 10.21103,3.58711 17.01953,3.60291 6.73594,0.0156 8.79004,-0.39818 13,-2.61887 5.45289,-2.87631 9.14655,-6.40151 12.38897,-11.82391 2.50035,-4.18142 6.72712,-5.05576 6.6546,-1.37655 -0.024,1.21582 -0.40485,2.57171 -0.84642,3.01309 -0.44157,0.44137 -0.50921,-0.0838 -0.15031,-1.16702 0.3589,-1.08324 -0.61704,0.0555 -2.16874,2.53048 -1.55171,2.475 -2.68752,5.32156 -2.52402,6.32568 0.20969,1.28777 -0.24063,1.73792 -1.5284,1.52782 -1.00412,-0.16382 -3.44893,0.81462 -5.43291,2.17432 l -3.60722,2.47218 2.98116,6.25 c 1.63965,3.4375 3.6004,6.25 4.35723,6.25 0.75683,0 1.37606,0.47656 1.37606,1.05902 0,0.58246 -0.45,0.7809 -1,0.44098 -0.55,-0.33992 -1,-0.17723 -1,0.36153 0,0.9259 5.6404,2.73781 7.25,2.32897 0.4125,-0.10478 0.75689,0.372 0.76531,1.0595 0.0102,0.83333 0.33844,0.75 0.98469,-0.25 0.78741,-1.21842 0.97225,-1.08696 0.98469,0.70031 0.0225,3.23071 2.85153,4.43574 6.26712,2.66948 1.61905,-0.83725 2.52182,-1.92704 2.12638,-2.56689 z M 249.87244,258.25 c -1.24387,-1.58606 -1.2085,-1.62143 0.37756,-0.37756 0.9625,0.75485 1.75,1.54235 1.75,1.75 0,0.82304 -0.82119,0.29331 -2.12756,-1.37244 z M 258.5,248 c -0.33992,-0.55 -0.14148,-1 0.44098,-1 0.58246,0 1.05902,0.45 1.05902,1 0,0.55 -0.19844,1 -0.44098,1 -0.24254,0 -0.7191,-0.45 -1.05902,-1 z M 255,234 c -0.825,-0.53316 -1.05,-0.96937 -0.5,-0.96937 0.55,0 1.675,0.43621 2.5,0.96937 0.825,0.53316 1.05,0.96937 0.5,0.96937 -0.55,0 -1.675,-0.43621 -2.5,-0.96937 z m -8.36431,-3.50616 c -1.57537,-0.82161 -3.60037,-1.50979 -4.5,-1.52928 -0.89963,-0.0195 -2.76069,-0.72557 -4.13569,-1.56907 -1.60264,-0.98314 -1.78211,-1.27467 -0.5,-0.81218 1.1,0.3968 3.3663,0.91589 5.03623,1.15352 1.66992,0.23764 4.14492,1.28406 5.5,2.32538 2.97679,2.28755 2.46215,2.44616 -1.40054,0.43163 z M 230.5,219 c 0.33992,-0.55 0.81648,-1 1.05902,-1 0.24254,0 0.44098,0.45 0.44098,1 0,0.55 -0.47656,1 -1.05902,1 -0.58246,0 -0.7809,-0.45 -0.44098,-1 z M 225,199.59106 c 0,-0.19039 0.675,-0.90637 1.5,-1.59106 0.86459,-0.71755 1.5,-0.81474 1.5,-0.22943 0,0.5585 -0.675,1.27447 -1.5,1.59106 -0.825,0.31658 -1.5,0.41982 -1.5,0.22943 z m -1.5,-18.62421 c -3.4374,-1.70211 -3.5895,-1.90077 -1.08144,-1.41242 1.6052,0.31256 3.84283,1.21567 4.9725,2.00693 2.93441,2.05534 0.80245,1.7296 -3.89106,-0.59451 z M 170.07895,95.416667 c 0.048,-1.164943 0.28494,-1.4019 0.60416,-0.604167 0.28887,0.721875 0.25335,1.584375 -0.0789,1.916667 -0.3323,0.332291 -0.56864,-0.258334 -0.52522,-1.3125 z M 150.5,15 c 0.33992,-0.55 1.06803,-1 1.61803,-1 0.55,0 0.72189,0.45 0.38197,1 -0.33992,0.55 -1.06803,1 -1.61803,1 -0.55,0 -0.72189,-0.45 -0.38197,-1 z m 68.3125,-7.683114 c 0.72187,-0.2888706 1.58437,-0.2533443 1.91667,0.078947 0.33229,0.3322917 -0.25834,0.5686404 -1.3125,0.5252193 -1.16495,-0.047984 -1.4019,-0.2849403 -0.60417,-0.6041663 z m 9.10417,252.387314 c -0.99132,-0.70374 -11.34306,-3.61115 -11.67511,-3.27909 -0.48587,0.48586 11.13756,4.40641 11.67511,3.93799 0.22916,-0.19971 0.22916,-0.49621 0,-0.6589 z M 74.178415,406.49304 C 52.616956,402.58673 33.714712,392.94149 19.470964,378.57749 10.98375,370.01862 6.0435209,362.1507 2.4671111,351.49676 0.105734,344.46234 -0.15955199,342.38204 0.23668914,334.00636 0.77551552,322.61674 3.2007083,315.59175 9.4755766,307.24434 20.440209,292.65815 39.76771,283.83917 63.994666,282.36773 l 10.757142,-0.65334 32.717312,-60.1072 c 17.99451,-33.05895 33.23786,-60.65342 33.87409,-61.32103 0.6744,-0.70766 1.70924,-0.87227 2.48159,-0.39475 1.03538,0.64014 -1.66351,9.64393 -12.35383,41.21384 -30.52681,90.14959 -29.51507,86.94599 -27.66319,87.59403 12.02195,4.20691 24.71727,12.01593 34.45565,21.19403 31.98393,30.14378 28.04407,71.49837 -8.53733,89.61169 -15.80725,7.82698 -36.528506,10.43377 -55.547685,6.98804 z M 104.5,402.96306 c 33.97767,-4.84096 55.45897,-28.60235 50.57323,-55.94125 -3.76634,-21.07515 -23.22271,-42.29075 -48.13654,-52.489 -4.4732,-1.83107 -8.519675,-3.71579 -8.992168,-4.18829 -0.478772,-0.47877 6.869108,-23.63101 16.598198,-52.29881 9.6015,-28.29186 17.45535,-51.68858 17.45299,-51.99272 -0.002,-0.30415 -12.42994,22.23755 -27.61683,50.09267 l -27.612541,50.64565 -10.280337,0.0424 C 8.9270116,287.07127 -15.814707,336.97061 22.5,375.54514 c 20.72169,20.86221 52.77926,31.58114 82,27.41792 z M 70.183162,373.04939 c -17.224261,-5.41735 -31.497145,-10.03004 -31.71752,-10.25041 -0.927551,-0.92756 2.066812,-7.98925 4.786986,-11.28929 4.176359,-5.06665 10.091105,-7.87244 16.747372,-7.94448 7.532722,-0.0815 31.542521,7.60903 36.491829,11.68867 4.003721,3.3002 7.002491,8.53368 8.030901,14.01561 0.67701,3.60877 -1.0869,13.77979 -2.37247,13.68007 -0.35764,-0.0277 -14.742837,-4.48282 -31.967098,-9.90017 z m 8.801236,-36.901 c -13.88441,-7.37818 -8.635853,-28.13186 7.117719,-28.14465 11.40169,-0.009 18.388323,12.01355 12.779997,21.99222 -4.033016,7.17578 -12.844728,9.90039 -19.897716,6.15243 z M 553.12462,368.75 c -1.55242,-7.81019 -1.51946,-8.25 0.61832,-8.25 1.27004,0 2.05795,1.35659 2.904,5 1.74389,7.50987 1.6468,9.5 -0.46348,9.5 -1.42911,0 -2.0815,-1.33299 -3.05884,-6.25 z m 24.05332,-11.25021 C 573.07639,352.2482 572.55507,350 575.43887,350 c 0.72646,0 3.14449,2.41541 5.3734,5.36758 3.01763,3.99682 3.76337,5.65678 2.92015,6.5 -1.70575,1.70575 -1.9252,1.55952 -6.55448,-4.36779 z M 512.85718,355.007 c -0.90354,-0.54253 -7.36384,-9.99499 -14.35621,-21.00547 -10.00401,-15.75274 -12.58643,-20.52489 -12.11765,-22.39266 0.90508,-3.60612 70.85725,-48.01629 74.27941,-47.15738 1.717,0.43094 4.56426,3.90928 9.68324,11.82947 17.21831,26.64056 18.9029,29.59131 18.28935,32.03592 -0.44917,1.78961 -9.11475,7.78215 -35.5898,24.61151 -19.24783,12.23525 -35.79469,22.43021 -36.77079,22.65547 -0.9761,0.22525 -2.514,-0.0343 -3.41755,-0.57686 z M 550.9009,329.5 c 27.43485,-17.37835 33.09272,-21.34492 32.80692,-23 -0.18994,-1.1 -5.26441,-9.76418 -11.27659,-19.25374 L 561.5,269.99252 l -4.36283,13.62499 c -3.22071,10.05816 -4.04789,13.81963 -3.15977,14.36852 0.66168,0.40894 6.15677,1.78305 12.2113,3.05357 10.44609,2.19207 13.47537,3.79316 11.19408,5.9165 -0.72153,0.67158 -9.84257,-1.00884 -24.05276,-4.43139 -1.8801,-0.45283 -2.39777,0.17853 -3.87524,4.72632 -3.20178,9.85534 -8.36741,13.32311 -18.45035,12.386 l -6.60898,-0.61424 -1.28524,6.2386 C 519.43355,343.10812 518.8375,345 516.8915,345 c -2.41273,0 -2.3896,-0.52466 0.6085,-13.80607 1.375,-6.09117 2.5,-11.47564 2.5,-11.96548 0,-0.88979 -26.91813,-4.64365 -27.69902,-3.86276 -0.35944,0.35943 2.87391,5.6106 19.35019,31.42602 2.39607,3.75421 3.77251,5.06168 4.7374,4.5 C 517.1366,350.85627 532.66715,341.05 550.9009,329.5 Z m -10.0191,-16.054 c 2.58374,-2.17407 3.94174,-5.40954 9.12895,-21.75 3.35153,-10.5578 6.29004,-19.78187 6.53002,-20.49794 0.55,-1.64114 3.41243,-3.35286 -32.94922,19.70343 -16.99965,10.77918 -30.27465,19.72218 -29.5,19.87334 3.6427,0.7108 37.77965,5.01007 40.58172,5.11094 2.0662,0.0744 4.23221,-0.7768 6.20853,-2.43977 z m 53.8682,24.48987 c -5.41487,-2.79495 -7.04785,-5.01572 -4.73792,-6.44333 0.74991,-0.46347 9.28502,3.56795 12.76146,6.02766 0.50451,0.35696 -0.97955,3.4804 -1.63053,3.4317 -0.35365,-0.0265 -3.23051,-1.38367 -6.39301,-3.01603 z M 438,270.90184 c -5.775,-2.19225 -14.16385,-5.34195 -18.64188,-6.99933 -7.28618,-2.69671 -8.08551,-3.24406 -7.60557,-5.20796 0.29497,-1.207 0.93004,-2.70117 1.41127,-3.32037 0.7823,-1.00661 10.28626,2.20088 37.04787,12.50327 2.50639,0.96488 2.63147,1.27402 1.65217,4.08323 -0.58273,1.67163 -1.57799,3.01406 -2.21169,2.9832 -0.63369,-0.0309 -5.87717,-1.84979 -11.65217,-4.04204 z m -296.51611,-6.68115 c -1.65886,-1.49638 -4.95024,-4.31504 -7.31418,-6.26369 L 129.87165,254.41401 138.18582,229.957 146.5,205.5 146.81028,227 c 0.31325,21.705 -0.44465,40.02465 -1.6536,39.97069 -0.36118,-0.0161 -2.01393,-1.25363 -3.67279,-2.75 z M 448,257.52495 c -1.925,-0.7546 -8.675,-3.29117 -15,-5.63681 -6.325,-2.34565 -11.64369,-4.36125 -11.81931,-4.47912 -0.17562,-0.11787 0.21948,-2.01263 0.878,-4.21057 1.108,-3.69818 1.00659,-4.2463 -1.35954,-7.34846 -8.54219,-11.1994 -9.51588,-25.52524 -2.68418,-39.49238 3.66092,-7.48461 9.09796,-12.57063 17.86165,-16.70848 5.80937,-2.74294 7.66803,-3.12596 15.12338,-3.11655 7.12901,0.009 9.44129,0.44821 14.33589,2.72307 7.88621,3.66527 12.8211,7.75259 16.91418,14.00914 14.17965,21.67456 2.8539,50.79111 -22.25007,57.20112 -3.71876,0.94955 -4.80518,1.79008 -6.25787,4.84156 -0.96683,2.03089 -1.86683,3.66934 -2,3.641 -0.13317,-0.0283 -1.81713,-0.66893 -3.74213,-1.42352 z m -2.8576,-23.04032 c 4.19777,-11.42093 5.6573,-14.38131 6.84636,-13.88654 3.51727,1.46352 4.76807,1.47799 5.31165,0.0614 0.83901,-2.18643 -14.07369,-7.6444 -15.33048,-5.61088 -0.61478,0.99474 -0.0307,1.72689 2.0883,2.61788 1.61797,0.68031 2.94177,1.465 2.94177,1.74376 0,0.27876 -2.25,6.48306 -5,13.78734 C 436.59961,247.5416 436.26771,249 438.40364,249 c 0.89535,0 3.3356,-5.25633 6.73876,-14.51537 z M 473.33378,217.25 c 0.90765,-5.77494 -1.34702,-13.18585 -5.5635,-18.28672 -2.21639,-2.68126 -7.71794,-6.11366 -8.76346,-5.4675 -1.75795,1.08648 -1.11043,2.16988 2.87203,4.80535 5.49433,3.63598 8.49442,10.18423 7.90764,17.25993 -0.38431,4.63434 -0.19889,5.43894 1.25343,5.43894 1.19816,0 1.87954,-1.11393 2.29386,-3.75 z M 65.5,217.25856 c -2.2,-3.11267 -4.344913,-6.2175 -4.766474,-6.89963 C 60.214067,209.5184 70.52846,200.31758 92.73845,181.80935 110.76272,166.78921 126.40763,153.825 127.50492,153 c 1.89792,-1.42695 1.92203,-1.40332 0.49508,0.48523 -3.82859,5.06708 -57.303015,69.03931 -57.864182,69.22375 C 69.786118,222.82393 67.7,220.37124 65.5,217.25856 Z M 269.92349,113.75 c -0.89116,-2.91185 -0.51902,-3.75 1.66499,-3.75 1.74485,0 2.41152,0.5529 2.41152,2 0,1.33333 -0.66667,2 -2,2 -1.1,0 -2.03443,-0.1125 -2.07651,-0.25 z m -19.70736,-5.59621 c -1.74337,-1.10491 -0.38343,-4.33266 1.6597,-3.93919 1.75802,0.33857 2.2615,3.91665 0.62417,4.43581 -0.55,0.17439 -1.57774,-0.0491 -2.28387,-0.49662 z m 39.37583,-0.77475 c -0.37359,-0.97356 -0.1029,-2.07203 0.62417,-2.53283 1.877,-1.18961 3.28387,-0.45126 3.28387,1.72343 0,2.44076 -3.04039,3.07046 -3.90804,0.8094 z M 235.02927,93.0547 c -0.85156,-1.591167 -0.67514,-2.173859 0.91603,-3.025425 1.59117,-0.851567 2.17386,-0.675142 3.02543,0.916025 0.85156,1.591167 0.67514,2.173859 -0.91603,3.025425 -1.59117,0.851567 -2.17386,0.675142 -3.02543,-0.916025 z m 70.15086,0.662348 C 303.96828,92.256851 304.52368,89 305.98454,89 c 1.93472,0 2.96503,2.686708 1.6959,4.422345 -1.11789,1.528807 -1.44417,1.567265 -2.50031,0.294703 z M 229.66667,73.333333 C 228.14859,71.815259 229.14699,70 231.5,70 c 1.83333,0 2.5,0.533333 2.5,2 0,1.951128 -2.84129,2.825372 -4.33333,1.333333 z m 40,0 C 268.83343,72.5001 268.77904,41.739379 269.60699,39.581787 269.94083,38.711804 271.06583,38 272.10699,38 273.88546,38 274,38.968095 274,54 v 16 h 10.5 c 9.83333,0 10.5,0.126984 10.5,2 0,1.891892 -0.66667,2 -12.33333,2 -6.78334,0 -12.63334,-0.3 -13,-0.666667 z M 309.92349,73.75 C 309.03233,70.838154 309.40447,70 311.58848,70 313.33333,70 314,70.552903 314,72 c 0,1.333333 -0.66667,2 -2,2 -1.1,0 -2.03443,-0.1125 -2.07651,-0.25 z M 234.70185,53.368517 c -0.34732,-0.347316 -0.17842,-1.478036 0.37532,-2.512713 0.81746,-1.527439 1.38718,-1.67766 3.02938,-0.798778 1.61609,0.864904 1.78402,1.369901 0.83557,2.512713 -1.24705,1.502607 -3.17353,1.865516 -4.24027,0.798778 z m 69.62105,-0.969442 c -0.85252,-2.221637 1.81066,-3.693066 3.54542,-1.958872 0.75258,0.752331 1.06353,1.861057 0.69099,2.463836 -1.00603,1.627794 -3.53361,1.326517 -4.23641,-0.504964 z M 249.91549,38.398177 c -0.88851,-1.07059 -0.92753,-1.78614 -0.14033,-2.573341 1.38085,-1.380845 4.22484,-0.346339 4.22484,1.53679 0,2.083791 -2.65598,2.757817 -4.08451,1.036551 z m 40.36265,0.479968 C 288.90364,37.503644 289.72342,35 291.54797,35 c 1.79487,0 2.59225,1.471024 1.84829,3.409758 -0.71991,1.876056 -1.58109,2.005417 -3.11812,0.468387 z M 269.60699,32.418213 C 268.71156,30.084775 268.77793,30 271.5,30 c 1.83333,0 2.5,0.533333 2.5,2 0,2.432371 -3.49252,2.764857 -4.39301,0.418213 z"
         id="path3" />
      <path
         style="fill:#100f17"
         d="m 335.5,448.87578 c -33.10923,-2.53534 -61.77168,-11.33829 -72.39013,-22.23278 -3.74808,-3.84553 -4.46152,-5.24727 -4.87829,-9.58475 -0.41539,-4.32298 -0.0954,-5.64726 2.14616,-8.88182 1.44888,-2.09074 5.2803,-5.51369 8.51428,-7.60655 l 5.87995,-3.8052 -5.43068,-11.55777 -5.43068,-11.55777 -19.70531,-20.38234 c -33.81919,-34.98116 -38.29723,-40.96734 -47.32351,-63.26135 -4.98187,-12.30473 -5.94714,-18.07318 -3.91755,-23.4114 0.90624,-2.38358 0.59038,-2.74788 -5.25,-6.05531 -3.41783,-1.93554 -6.83065,-3.92094 -7.58405,-4.41201 -1.60503,-1.04617 -4.09705,-15.18988 -4.07476,-23.12673 0.008,-3.025 0.65855,-6.625 1.44457,-8 0.78602,-1.375 1.44508,-2.78695 1.46456,-3.13766 0.0195,-0.35071 -5.09155,-4.96361 -11.35787,-10.25088 l -11.3933,-9.61322 -1.16034,-6.24912 c -0.63818,-3.43702 -1.42274,-9.69642 -1.74346,-13.90979 -0.51963,-6.8265 -0.33367,-8.06429 1.70776,-11.36741 1.50914,-2.44183 3.97755,-4.48818 7.23354,-5.9967 l 4.94264,-2.28996 -5.34676,-3.41818 c -2.94073,-1.88 -10.84285,-6.90608 -17.56029,-11.16907 -6.71744,-4.26299 -13.561,-9.28558 -15.20792,-11.16132 -6.80843,-7.75437 -6.174,-18.67632 1.51807,-26.13444 4.87016,-4.72203 8.70316,-5.86074 16.88529,-5.01627 l 5.28514,0.54547 -17.53938,-35.665724 C 120.19496,39.597184 117.63321,33.713965 117.30279,29 c -0.30868,-4.403726 0.0772,-6.296725 1.93607,-9.497164 4.39351,-7.564458 5.0415,-7.721409 57.71657,-13.9795909 45.31164,-5.38335204 47.64176,-5.56689284 51.57992,-4.0628954 5.59147,2.1354007 8.68913,5.6834095 12.54994,14.3744523 2.64185,5.947056 2.99835,7.495473 1.88426,8.184017 -1.97919,1.223208 -2.36766,0.75147 -5.05115,-6.133893 -2.78223,-7.138711 -7.25868,-12.4302576 -11.39343,-13.4680155 -3.21628,-0.8072332 -87.89432,9.2267425 -90.82284,10.7621075 -0.98882,0.518422 -2.24451,2.11734 -2.7904,3.553151 -1.09673,2.884627 -0.35295,4.500193 37.64464,81.767831 21.21876,43.14807 36.4286,74.50127 36.13963,74.49733 -0.1078,-0.001 -5.67736,-2.13933 -12.3768,-4.75081 l -12.1808,-4.74814 -13.3192,-26.49919 c -12.39593,-24.6623 -13.59648,-26.65402 -17.3192,-28.73274 -2.2,-1.22845 -5.575,-2.23355 -7.5,-2.23355 -4.1313,0 -10.52947,3.41144 -13.22922,7.05368 -2.1479,2.89773 -3.34027,9.50827 -2.39464,13.27595 1.20984,4.82039 5.94904,8.69165 27.21084,22.22742 11.81458,7.52144 21.31401,13.84239 21.10985,14.04655 -0.20416,0.20417 -3.02289,0.8614 -6.26384,1.46052 -7.96234,1.47192 -10.84371,3.14139 -12.89972,7.47411 -1.6509,3.47901 -1.64853,4.21961 0.048,15.03737 l 1.78444,11.37814 11.30358,9.54912 c 10.11527,8.54526 11.5274,9.42934 13.43266,8.40967 1.17099,-0.62669 6.23103,-1.79973 11.24454,-2.60675 5.0135,-0.80701 9.23854,-1.59039 9.38899,-1.74083 0.15044,-0.15044 -0.20616,-1.64956 -0.79244,-3.33136 -0.92433,-2.65154 -1.68892,-3.1502 -5.75451,-3.75303 -2.5787,-0.38235 -8.57726,-2.19302 -13.33015,-4.02371 -6.67017,-2.56917 -9.57886,-3.2028 -12.75,-2.77746 -3.30102,0.44276 -4.10839,0.24244 -4.10839,-1.01935 0,-1.08187 1.32209,-1.76669 4.25,-2.20141 3.44378,-0.51131 6.021,0.0462 13.58578,2.93873 16.89471,6.46006 28.63926,4.50868 38.4345,-6.38598 2.60134,-2.89332 4.72972,-5.86036 4.72972,-6.59342 0,-1.8007 1.31415,-2.49277 2.88727,-1.52053 1.95684,1.2094 -1.76948,7.7846 -7.30163,12.88397 l -4.58294,4.2244 5.55988,11.08609 c 3.05794,6.09734 5.39668,11.24928 5.19721,11.44875 -0.19947,0.19947 -5.06452,-1.4853 -10.81123,-3.74394 L 209.5,216.72297 198.08414,218.3333 c -12.67661,1.78817 -15.93392,3.65146 -18.15657,10.38617 -1.12244,3.40104 0.21672,17.8099 2.12847,22.90154 0.43801,1.16656 3.88453,3.90146 7.65894,6.07757 l 6.86257,3.95657 3.68861,-2.44786 c 5.73377,-3.80509 10.85189,-3.8973 20.48384,-0.36904 4.5375,1.66212 8.25,2.69348 8.25,2.2919 C 229,259.80379 226.62912,258 224.88578,258 c -0.94282,0 -5.86416,-1.58368 -10.93632,-3.51928 -8.81641,-3.36447 -9.48652,-3.47134 -15.23306,-2.42929 -4.79909,0.87024 -6.17466,0.82513 -6.82289,-0.22374 -1.03085,-1.66794 0.83031,-2.37297 8.60649,-3.26026 5.27447,-0.60183 6.86241,-0.3275 13.13201,2.26861 8.74738,3.62211 11.7419,4.30682 18.83555,4.30682 9.66746,0 20.78662,-6.88383 25.28633,-15.65467 1.33851,-2.60903 2.10276,-3.19482 3.24618,-2.48815 2.76006,1.70581 -2.92621,9.69584 -12.00007,16.86182 l -2.5,1.97435 3.70988,7.51735 c 3.19992,6.48402 4.29959,7.79295 8,9.52226 2.35956,1.10271 5.48516,2.78521 6.94576,3.73891 l 2.65565,1.734 25.84435,-15.29323 c 34.35757,-20.33086 33.90119,-20.03526 35.7407,-23.1493 0.88201,-1.49313 1.60366,-4.03519 1.60366,-5.64901 0,-3.11876 -0.17199,-3.53192 -27.79012,-66.75719 -16.72151,-38.28 -18.18734,-42.40886 -15.08302,-42.48469 0.34477,-0.008 1.64483,2.34719 2.88902,5.23469 1.24419,2.8875 3.10998,7.224 4.14619,9.63666 l 1.88401,4.38666 3.00853,-4.54205 c 6.01951,-9.0878 15.71665,-13.99699 27.6046,-13.97486 3.93756,0.007 7.58729,0.2779 8.1105,0.60126 0.58716,0.36289 0.39735,3.56485 -0.49586,8.36513 -2.07986,11.17744 -2.04066,36.43454 0.0749,48.2772 2.15001,12.03541 3.69102,17.37896 9.68246,33.57466 6.87016,18.57102 8.2955,26.55909 7.72166,43.27492 -0.38193,11.12568 -1.14224,16.4825 -4.11074,28.96255 C 346.63897,297.2338 345,305.08738 345,306.26454 c 0,1.87323 33.18688,74.14643 34.85851,75.91362 0.35282,0.37298 6.26649,1.43192 13.14149,2.3532 49.39919,6.61967 75.29605,25.56749 57.95076,42.40052 -16.56347,16.07429 -66.97445,25.65599 -115.45076,21.9439 z m 6.85566,-19.45997 c 3.37938,-0.87131 8.68643,-2.9348 11.79343,-4.58554 6.45087,-3.42734 22.16616,-15.95497 25.24349,-20.12316 4.05514,-5.49261 3.41415,-7.37588 -18.16531,-53.37064 C 350.10227,327.62449 341,307.68778 341,307.03266 c 0,-0.65511 1.87759,-9.14296 4.17243,-18.86189 3.78803,-16.0428 4.17696,-18.9145 4.22168,-31.17077 0.0587,-16.09912 -0.87693,-20.80964 -7.94535,-40 -6.42666,-17.44804 -8.99271,-27.29221 -10.54492,-40.45363 -1.13057,-9.58622 -0.76097,-32.32005 0.69577,-42.79637 L 332.2601,129 h -5.09253 c -10.48614,0 -21.37988,6.61536 -26.08669,15.84147 l -2.00188,3.92399 17.5832,40.3226 c 9.67076,22.17743 17.78106,41.9177 18.0229,43.86727 0.30058,2.42304 -0.292,4.96859 -1.87269,8.04467 -2.1884,4.25867 -3.94809,5.46975 -32.81241,22.58261 l -30.5,18.0826 0.33883,5.13323 c 0.42178,6.39003 -1.07737,11.09803 -4.61195,14.48357 -3.34427,3.20325 -9.1424,5.71799 -13.18374,5.71799 -2.95369,0 -45.61517,-15.37741 -47.49314,-17.11899 -0.6,-0.55643 -0.6,-1.22205 0,-1.80669 0.58681,-0.57179 9.16957,2.16949 22.45,7.1704 27.59757,10.3922 31.14908,10.46421 37.75,0.76545 2.73262,-4.01506 2.80826,-7.18377 0.3032,-12.7015 -2.34834,-5.17251 -3.37597,-5.70614 -30.5532,-15.86595 -23.61565,-8.82836 -27.24671,-9.39877 -32.81135,-5.15441 -4.3705,3.33355 -7.09004,8.95473 -6.28346,12.98766 0.80145,4.00725 6.97717,19.56852 10.56843,26.62982 5.42652,10.66988 12.88681,19.71939 36.64647,44.45304 l 23.87991,24.85883 10.25322,21.54259 c 5.63927,11.84842 10.69862,22.07926 11.24299,22.73519 1.77322,2.13659 22.53961,12.42492 28.09275,13.91803 7.23343,1.94491 18.72841,1.94593 26.2667,0.002 z M 78.955184,406.96892 C 63.182157,404.76416 43.587169,397.16248 31.567261,388.58525 23.587798,382.89122 12.172215,370.79227 8.1558052,363.77232 -1.4937495,346.90666 -2.3758478,329.54224 5.6158029,313.77147 9.3334339,306.43508 19.97163,296.21972 28.516335,291.78116 c 10.583347,-5.49753 20.093857,-7.87085 34.046301,-8.49614 l 12.062636,-0.5406 33.419928,-61.37221 C 126.42616,187.61749 142.03547,160 142.73256,160 c 0.69709,0 1.26744,0.65214 1.26744,1.44921 0,0.79707 -9.45,29.42694 -21,63.62194 -11.55,34.195 -21,62.56785 -21,63.05079 0,0.48293 0.63426,0.87806 1.40947,0.87806 0.77521,0 5.83771,2.2301 11.25,4.95579 24.22981,12.20236 39.69424,30.31258 44.00324,51.53169 5.48025,26.9868 -13.31054,51.90868 -44.88188,59.526 -9.75173,2.35283 -25.611796,3.24336 -34.825646,1.95544 z M 114.5,401.51856 c 9.67975,-2.67229 19.9286,-8.26002 26.94851,-14.6925 15.46531,-14.17114 18.89636,-34.94751 9.01486,-54.58864 -4.52988,-9.0039 -11.95574,-17.94355 -20.38127,-24.53607 -6.98667,-5.4667 -21.41645,-13.44005 -28.3321,-15.65526 -2.0625,-0.66066 -3.75,-1.80485 -3.75,-2.54266 0,-0.73781 7.87341,-24.6295 17.49647,-53.09264 9.62306,-28.46315 17.35527,-51.89238 17.18269,-52.06496 -0.17257,-0.17257 -12.76822,22.56267 -27.99033,50.52278 l -27.676557,50.83654 -11.756136,0.58176 c -27.771501,1.37427 -47.929703,12.16406 -57.0035729,30.51148 -3.3695712,6.81329 -3.7876577,8.52955 -4.0964107,16.81592 -0.5788878,15.5363 4.0970635,27.10027 16.1972906,40.05708 13.836819,14.81633 31.324479,24.28198 53.272023,28.83487 9.080368,1.88367 32.525793,1.31713 40.874533,-0.9877 z M 79,375.4136 c -11.275,-3.54318 -24.93684,-7.82027 -30.359644,-9.50465 l -9.859645,-3.06251 0.629675,-3.14837 c 0.983477,-4.91738 5.219686,-10.17887 10.516468,-13.06174 7.172312,-3.90366 12.725549,-3.56182 29.619989,1.82334 15.322926,4.88423 19.089106,7.3926 22.582227,15.04033 2.95107,6.461 2.29662,18.57326 -0.9957,18.42787 C 100.23502,381.8882 90.275,378.95678 79,375.4136 Z m 2.604322,-38.44172 c -6.542131,-1.98101 -11.381986,-9.79227 -10.278927,-16.58963 1.530841,-9.43347 12.36986,-15.1768 20.605149,-10.91817 4.083438,2.11163 7.714499,6.8303 8.507096,11.05523 1.81997,9.70123 -9.23526,19.35895 -18.833318,16.45257 z M 554.40991,372.2147 c -0.33576,-1.49308 -1.05006,-4.46669 -1.58733,-6.60801 -0.74967,-2.98788 -0.66821,-4.08708 0.35029,-4.72652 0.96642,-0.60675 1.63164,0.18548 2.44749,2.91481 2.38634,7.98322 2.55947,9.92204 0.94144,10.54293 -1.08876,0.4178 -1.72069,-0.20571 -2.15189,-2.12321 z m 23.63705,-14.2745 c -4.22256,-5.34194 -4.67775,-6.43231 -3.09392,-7.41118 0.93633,-0.57868 9.04696,8.83617 9.04696,10.50176 0,2.65178 -2.39806,1.4068 -5.95304,-3.09058 z m -65.67284,-3.70551 C 509.82608,352.57197 487,315.2241 487,312.71773 c 0,-3.35159 -0.24197,-3.1769 38.213,-27.58713 C 547.90392,270.72698 557.76137,265 559.86235,265 c 2.72644,0 3.83717,1.41846 15.537,19.84152 12.52219,19.71796 14.18254,23.60074 11.16358,26.10625 -5.22842,4.33921 -69.16669,44.04925 -70.90508,44.03692 -1.18682,-0.008 -2.66449,-0.34592 -3.28373,-0.75 z m 37.84356,-24.08561 c 20.5093,-13.07225 34.23966,-22.43464 34.17612,-23.30384 -0.0584,-0.79911 -5.21554,-9.49165 -11.46031,-19.31678 -13.09789,-20.6074 -11.06338,-20.52265 -17.25105,-0.71854 -2.46198,7.87977 -3.17716,11.43394 -2.35808,11.71882 0.6466,0.22489 6.31737,1.55216 12.60172,2.94949 6.28434,1.39732 11.65434,2.76886 11.93333,3.04785 0.27899,0.27899 0.01,1.0047 -0.59819,1.6127 -0.80726,0.80726 -4.39334,0.37421 -13.29455,-1.60545 -6.70401,-1.49099 -12.53375,-2.33344 -12.95497,-1.87211 -0.42122,0.46133 -1.51087,3.13665 -2.42144,5.94515 -2.86992,8.8518 -7.89752,11.82766 -18.19924,10.77222 -3.51506,-0.36013 -6.39102,-0.35114 -6.39102,0.02 0,1.80645 -5.28703,24.19327 -5.85926,24.8098 -0.3616,0.3896 -1.18693,0.38113 -1.83405,-0.0188 -0.87349,-0.53984 -0.46226,-3.94248 1.59632,-13.20836 1.5251,-6.86465 2.48476,-12.60154 2.13258,-12.74864 C 518.82348,317.72626 491,314.35876 491,314.71834 c 0,0.95817 23.59465,37.27969 24.21768,37.28061 0.39472,5.8e-4 16.14472,-9.83186 35,-21.84987 z m -8.88751,-16.19415 c 2.08608,-1.64091 3.90499,-6.10687 9.20373,-22.59781 3.6321,-11.304 6.37245,-20.78411 6.08965,-21.06691 -0.50728,-0.50727 -59.82425,36.74268 -62.50661,39.25299 -1.54094,1.4421 -2.81168,1.17409 20.88306,4.40453 18.5927,2.53485 23.11521,2.53609 26.33017,0.007 z M 594.5,337.3315 c -6.11694,-3.15067 -5.66896,-2.72761 -4.92928,-4.65519 0.53723,-1.40001 1.38789,-1.2212 6.52353,1.37127 3.24816,1.63967 5.90575,3.64973 5.90575,4.46682 0,2.06922 -1.70962,1.79958 -7.5,-1.1829 z m -154,-65.79237 c -4.95,-1.85012 -13.5797,-5.03525 -19.17712,-7.07808 -9.97625,-3.64092 -10.15823,-3.76391 -9.21997,-6.23171 0.52643,-1.38462 1.16586,-2.8552 1.42096,-3.26797 0.49197,-0.79602 36.13557,12.29807 37.67951,13.84201 0.95403,0.95403 0.0426,6.23161 -1.06179,6.14811 -0.35287,-0.0267 -4.69159,-1.56225 -9.64159,-3.41236 z m -302.57302,-10.96286 -7.57303,-6.37499 8.05549,-23.85064 C 142.83996,217.23279 146.5852,207.4 146.73219,208.5 c 0.14699,1.1 -0.0701,14.70153 -0.48246,30.22563 L 145.5,266.95126 Z M 436.5,253.21589 c -8.25,-3.04289 -15.14369,-5.64248 -15.31931,-5.77686 -0.17562,-0.13437 0.21309,-2.02132 0.86381,-4.19322 1.11332,-3.71593 1.00274,-4.19791 -1.8743,-8.16956 -5.40483,-7.46115 -7.87787,-18.23871 -6.19619,-27.00309 2.50114,-13.03505 10.05448,-22.85052 21.82528,-28.36168 5.86239,-2.74481 7.76414,-3.13731 15.20071,-3.13731 7.43657,0 9.33832,0.3925 15.20071,3.13731 15.55222,7.28164 24.77746,24.13593 21.85727,39.9327 -2.87391,15.54639 -13.23359,26.88257 -28.02662,30.66838 -4.62945,1.18476 -5.57414,1.83619 -6.47576,4.46551 -0.58058,1.69311 -1.2806,3.27908 -1.5556,3.52437 -0.275,0.2453 -7.25,-2.04365 -15.5,-5.08655 z m 8.62584,-17.72332 5.37416,-14.50743 3.5,0.25743 c 6.10234,0.44884 4.10305,-2.26208 -3.94918,-5.35487 -5.65989,-2.17391 -7.63786,-2.5641 -8.23469,-1.62443 -1.2184,1.91829 -1.02196,2.27308 2.10687,3.8053 l 2.92301,1.43143 -5.43729,14.43216 c -5.24828,13.9305 -5.53873,15.97286 -2.28288,16.05253 0.34421,0.008 3.04421,-6.51303 6,-14.49212 z m 28.4126,-17.90034 c 1.04337,-6.95768 -1.1647,-14.22539 -5.90541,-19.43724 C 465.4247,195.72718 460.88377,193 459.04966,193 c -1.87181,0 -1.10882,3.84645 0.88875,4.48045 5.60147,1.77784 10.81786,12.38862 9.65757,19.64468 -0.55476,3.4693 0.002,4.49894 2.59275,4.79592 0.3788,0.0434 0.98617,-1.90455 1.34971,-4.32882 z M 65.129213,215.95294 c -2.345478,-3.32589 -4.121564,-6.42382 -3.946859,-6.8843 C 61.357059,208.60817 74.1,197.74781 89.5,184.93451 c 15.4,-12.81329 30.46821,-25.35286 33.48492,-27.8657 l 5.48491,-4.56881 -4.98491,6.04102 C 98.065564,189.34574 70.564281,222 70.040029,222 c -0.355471,0 -2.565339,-2.72118 -4.910816,-6.04706 z M 269.92349,113.75 c -0.89116,-2.91185 -0.51902,-3.75 1.66499,-3.75 1.74485,0 2.41152,0.5529 2.41152,2 0,1.33333 -0.66667,2 -2,2 -1.1,0 -2.03443,-0.1125 -2.07651,-0.25 z m -19.70736,-5.59526 c -1.22696,-0.77853 -0.70168,-4.1714 0.64086,-4.13943 1.76189,0.042 3.36456,1.96495 2.82011,3.38377 -0.68276,1.77924 -1.54954,1.96849 -3.46097,0.75566 z m 39.37583,-0.7757 c -0.37359,-0.97356 -0.1029,-2.07203 0.62417,-2.53283 1.877,-1.18961 3.28387,-0.45126 3.28387,1.72343 0,2.44076 -3.04039,3.07046 -3.90804,0.8094 z m -54.5749,-14.34717 c -0.83677,-1.563517 -0.6536,-2.156019 0.92824,-3.002595 1.57064,-0.84058 2.16803,-0.686033 2.94259,0.761255 0.74262,1.387597 0.52367,2.095866 -0.92824,3.002595 -1.58339,0.988844 -2.07388,0.861953 -2.94259,-0.761255 z m 70.16307,0.685178 C 303.96828,92.256851 304.52368,89 305.98454,89 c 1.93472,0 2.96503,2.686708 1.6959,4.422345 -1.11789,1.528807 -1.44417,1.567265 -2.50031,0.294703 z M 229.66667,73.333333 C 228.14859,71.815259 229.14699,70 231.5,70 c 1.83333,0 2.5,0.533333 2.5,2 0,1.951128 -2.84129,2.825372 -4.33333,1.333333 z m 40,0 C 268.83343,72.5001 268.77904,41.739379 269.60699,39.581787 269.94083,38.711804 271.06583,38 272.10699,38 273.88546,38 274,38.968095 274,54 v 16 h 10.5 c 9.83333,0 10.5,0.126984 10.5,2 0,1.891892 -0.66667,2 -12.33333,2 -6.78334,0 -12.63334,-0.3 -13,-0.666667 z M 309.92349,73.75 C 309.03233,70.838154 309.40447,70 311.58848,70 313.33333,70 314,70.552903 314,72 c 0,1.333333 -0.66667,2 -2,2 -1.1,0 -2.03443,-0.1125 -2.07651,-0.25 z m -74.6655,-20.409618 c -0.90649,-0.366185 -0.96268,-1.023651 -0.20801,-2.433765 0.84302,-1.575203 1.40756,-1.732118 3.05657,-0.849591 1.61609,0.864904 1.78402,1.369901 0.83557,2.512713 -1.24583,1.501141 -1.66087,1.587958 -3.68413,0.770643 z m 69.06491,-0.941307 c -0.85252,-2.221637 1.81066,-3.693066 3.54542,-1.958872 0.75258,0.752331 1.06353,1.861057 0.69099,2.463836 -1.00603,1.627794 -3.53361,1.326517 -4.23641,-0.504964 z M 249.91549,38.398177 c -0.88851,-1.07059 -0.92753,-1.78614 -0.14033,-2.573341 1.38085,-1.380845 4.22484,-0.346339 4.22484,1.53679 0,2.083791 -2.65598,2.757817 -4.08451,1.036551 z m 40.36265,0.479968 C 288.90364,37.503644 289.72342,35 291.54797,35 c 1.79487,0 2.59225,1.471024 1.84829,3.409758 -0.71991,1.876056 -1.58109,2.005417 -3.11812,0.468387 z M 269.60699,32.418213 C 268.71156,30.084775 268.77793,30 271.5,30 c 1.83333,0 2.5,0.533333 2.5,2 0,2.432371 -3.49252,2.764857 -4.39301,0.418213 z"
         id="path2" />
    </g>
  </g>
</svg>
