<?xml version="1.0" encoding="UTF-8" standalone="no"?>
<!-- Created with Inkscape (http://www.inkscape.org/) -->

<svg
   version="1.1"
   id="svg1"
   width="528"
   height="450"
   viewBox="0 0 528 450"
   sodipodi:docname="BUSINESS_38.svg"
   inkscape:version="1.3.2 (091e20e, 2023-11-25, custom)"
   xmlns:inkscape="http://www.inkscape.org/namespaces/inkscape"
   xmlns:sodipodi="http://sodipodi.sourceforge.net/DTD/sodipodi-0.dtd"
   xmlns="http://www.w3.org/2000/svg"
   xmlns:svg="http://www.w3.org/2000/svg">
  <defs
     id="defs1" />
  <sodipodi:namedview
     id="namedview1"
     pagecolor="#ffffff"
     bordercolor="#000000"
     borderopacity="0.25"
     inkscape:showpageshadow="2"
     inkscape:pageopacity="0.0"
     inkscape:pagecheckerboard="0"
     inkscape:deskcolor="#d1d1d1"
     showgrid="false"
     inkscape:zoom="1.5208333"
     inkscape:cx="264"
     inkscape:cy="225.20548"
     inkscape:window-width="1920"
     inkscape:window-height="1001"
     inkscape:window-x="-9"
     inkscape:window-y="-9"
     inkscape:window-maximized="1"
     inkscape:current-layer="g1" />
  <g
     inkscape:groupmode="layer"
     inkscape:label="Image"
     id="g1">
    <g
       id="g2">
      <path
         style="fill:#fefefe"
         d="M 0,225 V 0 H 264 528 V 225 450 H 264 0 Z"
         id="path6" />
      <path
         style="fill:#9e9ea2"
         d="M 68.5,448.96033 C 47.032175,446.8338 25.666297,442.14525 14.715351,437.15779 -0.24150369,430.34589 -3.8440518,421.55926 5.4221341,414.49159 13.898015,408.02672 34.642185,401.42816 54.1783,398.98263 l 9.6783,-1.21153 32.035417,-38.85677 32.035413,-38.85678 -3.71371,-0.9862 C 122.17117,318.52894 95.975,312.17136 66,304.9434 26.068135,295.31451 10.502886,291.1596 7.7697549,289.39971 3.1536912,286.42738 -0.00852792,280.46096 0.02648507,274.78984 0.04105185,272.43043 14.164327,212.97861 31.411541,142.67469 60.073395,25.841876 63.007074,14.602054 65.525598,11.973281 67.041115,10.391422 69.472224,8.835556 70.928061,8.5158004 72.622258,8.1436923 99.830319,14.282051 146.5164,25.569141 l 72.94136,17.634714 10.25324,-2.25016 c 8.43019,-1.850078 10.54022,-2.688167 11.86735,-4.713612 C 244.7174,31.449279 258.57997,17.691777 264.5,13.492161 282.10258,1.0050395 298.43363,-2.6205995 316.39052,1.9719995 344.49429,9.1597331 363.35661,33.347988 368.73345,69.094396 l 1.59357,10.594395 75.56078,18.279512 c 41.55843,10.053727 76.51549,18.905067 77.68236,19.669627 2.69229,1.76406 4.42988,5.55291 4.42971,9.65912 -9e-5,2.40032 -56.20885,234.19673 -62.06043,255.92786 C 463.94729,390.62317 456.13328,397 449.05977,397 c -1.65246,0 -44.82467,-10.12622 -95.93825,-22.5027 l -92.93378,-22.5027 -3.954,2.58876 c -3.4327,2.24745 -4.11466,3.33549 -5.17261,8.2527 -2.93236,13.62921 -2.48484,12.90251 -8.74616,14.20235 -7.94434,1.64924 -14.78921,0.0519 -25.28023,-5.89951 -7.19044,-4.07903 -9.59397,-4.92534 -15.25966,-5.3731 l -6.72491,-0.53147 -16.04574,17.94492 c -8.82515,9.8697 -15.78488,18.36697 -15.46606,18.88283 0.31881,0.51586 1.19299,0.93792 1.9426,0.93792 2.59265,0 18.63849,5.87996 22.96502,8.41548 18.3701,10.76559 9.21719,23.51373 -22.64908,31.54559 -18.42794,4.64474 -33.42302,6.22775 -62.29691,6.57663 -14.3,0.17278 -30.05,-0.087 -35,-0.57737 z m 47.0127,-9.08986 7.59439,-1.12952 34.55365,-38.62048 34.55365,-38.62047 15.64281,-0.63275 c 26.59162,-1.07562 43.94331,-6.14317 51.57883,-15.06355 1.95342,-2.28213 3.42544,-4.27556 3.27116,-4.42984 -0.15428,-0.15428 -3.38273,0.84554 -7.17434,2.22182 -7.33855,2.66375 -12.03285,2.84047 -12.03285,0.45299 0,-0.93526 3.2017,-2.5354 9.00399,-4.5 14.87995,-5.03822 22.20637,-10.50631 24.06783,-17.96309 0.65032,-2.60512 0.52592,-2.82532 -1.17214,-2.07478 -5.03822,2.22687 -21.37636,7.46868 -25.14968,8.06884 -3.85956,0.61388 -4.25,0.48404 -4.25,-1.41329 0,-1.6199 0.95479,-2.33473 4.25,-3.18189 16.87901,-4.33939 23.8526,-7.27548 29.58876,-12.45775 C 284.18659,306.59871 290,296.21325 290,292.374 v -2.30655 l -3.25,1.91563 c -7.89975,4.65629 -32.92542,11.2415 -34.96602,9.2009 -1.7676,-1.7676 0.72046,-3.85132 5.4849,-4.59353 12.0432,-1.87611 30.08434,-9.07915 34.41451,-13.74022 6.73968,-7.2547 5.28929,-18.14874 -3.46735,-26.04366 -7.47305,-6.73764 -13.16356,-8.28764 -8.68424,-2.36544 2.18491,2.88871 1.81327,8.75105 -0.80066,12.62987 -5.73966,8.51708 -20.16539,13.24778 -40.73114,13.35719 -11.36861,0.0605 -14.10655,-0.22935 -17.34183,-1.83571 -7.24371,-3.59659 -5.90714,-7.96663 1.41991,-4.64252 8.11072,3.67964 8.23808,3.57014 11.28261,-9.69996 1.48268,-6.4625 2.94145,-12.68943 3.24171,-13.83763 0.54377,-2.07933 0.47568,-2.07632 -17.10847,0.75446 -19.94728,3.21122 -28.92727,6.3339 -38.28249,13.31226 -7.5543,5.63499 -10.03982,8.36433 -23.39958,25.6949 -6.22152,8.07069 -21.64984,27.19569 -34.28514,42.5 -12.63531,15.3043 -35.759384,43.30796 -51.386837,62.23035 -15.627453,18.92238 -28.464475,35.06631 -28.526717,35.87539 -0.140846,1.83088 5.031915,3.73784 17.015173,6.27271 17.615994,3.72638 40.780291,4.91575 54.884361,2.81803 z m 340.17348,-49.8207 c 1.7524,-1.06851 3.66995,-2.84669 4.26123,-3.9515 0.59128,-1.10482 15.24358,-59.82834 32.56067,-130.49671 33.52662,-136.81698 32.6092,-132.28694 27.262,-134.6141 C 517.36297,119.93986 373.33814,85 371.42696,85 c -0.72873,0 -1.34676,4.115899 -1.76434,11.75 -2.74213,50.13133 -32.79805,97.32784 -70.98854,111.47258 -6.28669,2.32843 -10.42475,3.14489 -17.9215,3.53602 l -9.74743,0.50855 -0.95741,3.61642 c -2.35176,8.88322 -2.90703,12.58536 -1.97414,13.16192 0.52926,0.3271 3.87922,1.17452 7.44435,1.88315 7.23037,1.43717 7.24764,1.46919 5.15265,9.55082 l -1.29081,4.97947 5.5601,3.28259 c 14.3069,8.44653 19.66138,22.31796 12.85062,33.29105 -1.18369,1.90709 -2.47293,6.06504 -2.86498,9.2399 -0.87386,7.07667 -4.59107,14.91603 -9.59271,20.23042 -2.95866,3.14366 -3.81211,4.89443 -3.99715,8.19968 -0.30751,5.49316 -2.211,9.00603 -7.5434,13.92126 -2.39871,2.21105 -5.51827,6.35794 -6.93237,9.21532 l -2.57109,5.19523 2.60559,0.67543 c 33.94654,8.79976 177.86825,43.12118 181.1056,43.18877 2.83634,0.0592 5.67794,-0.6243 7.68618,-1.84881 z m -71.12865,-40.12918 c -27.46835,-7.09804 -50.3239,-13.28696 -50.79011,-13.75317 -0.89392,-0.89392 19.73677,-83.02674 21.23994,-84.55828 0.82565,-0.84124 102.46285,24.52774 103.85855,25.92343 0.58878,0.58879 -16.3537,69.01954 -19.79587,79.95558 -0.89777,2.85229 -2.21232,5.06304 -3.07004,5.16305 -0.825,0.0962 -23.97411,-5.63257 -51.44247,-12.73061 z M 429.38177,355.75 C 428.54437,354.32829 397.15608,311.92353 396.0399,310.70599 395.31857,309.91916 344,332.86007 344,333.96935 c 0,0.31741 18.3375,5.25382 40.75,10.96981 22.4125,5.71599 41.65,10.73951 42.75,11.16339 2.73203,1.05276 2.71175,1.05656 1.88177,-0.35255 z m 15.16667,-37.61704 c 4.70295,-18.35187 8.32587,-33.59198 8.05093,-33.86692 -0.36815,-0.36815 -50.27115,21.85703 -52.44937,23.35925 -0.1925,0.13276 7.4575,10.7829 17,23.66697 12.97651,17.52059 17.53875,23.02002 18.0988,21.81666 0.41185,-0.8849 4.59668,-16.62409 9.29964,-34.97596 z m -78.32978,0.11767 c 14.14526,-6.46285 25.73276,-12.0683 25.75,-12.45656 0.0633,-1.42486 -34.39863,-47.00416 -34.74762,-45.95719 -1.88351,5.65052 -17.84746,70.16327 -17.36232,70.16375 0.3527,3.4e-4 12.21467,-5.28716 26.35994,-11.75 z M 427.5,290.03058 c 11,-5.05574 20.34783,-9.52622 20.77295,-9.93438 0.42513,-0.40816 -1.37487,-1.25941 -4,-1.89168 -2.62512,-0.63226 -22.16028,-5.60528 -43.41146,-11.05116 l -38.63852,-9.90159 13.05372,17.62412 c 7.17954,9.69326 15.00978,20.18446 17.40053,23.31377 l 4.34681,5.68966 5.23798,-2.32823 C 405.14291,300.27056 416.5,295.08633 427.5,290.03058 Z m -20.9945,-38.94739 c -35.86425,-9.27324 -49.0725,-13.07329 -49.28555,-14.17962 -0.22365,-1.16129 11.85277,-49.89007 19.8644,-80.15357 0.75063,-2.83543 1.50754,-3.75 3.10358,-3.75 2.65557,0 101.01966,25.06607 102.1276,26.02513 0.44854,0.38826 -4.02228,19.66644 -9.93515,42.8404 L 461.62969,264 l -3.06485,-0.12428 c -1.68566,-0.0684 -25.11236,-5.825 -52.05934,-12.79253 z m 46.32783,6.07372 C 451.92364,254.85602 419.48474,212 418.65284,212 c -1.44869,0 -51.6983,23.28787 -51.23953,23.74665 0.36714,0.36713 83.06164,21.94404 84.92002,22.15759 0.45834,0.0527 0.68334,-0.28363 0.5,-0.74733 z m 15.10765,-36.62646 c 4.9243,-19.23325 8.83534,-35.08747 8.69121,-35.2316 -0.59332,-0.59331 -52.13219,23.72358 -52.13219,24.59683 0,1.26091 33.92991,47.09116 34.24386,46.25433 0.13413,-0.35751 4.27283,-16.38631 9.19712,-35.61956 z m -73.21614,-3.01119 c 13.38686,-6.17576 20.98946,-10.20297 20.58743,-10.90546 -0.35058,-0.61259 -8.07376,-11.14435 -17.16264,-23.40391 -10.60087,-14.29903 -16.7747,-21.82761 -17.2211,-21 C 380.3053,163.36532 363,230.2083 363,231.46013 c 0,0.61177 3.79016,-1.05374 31.72484,-13.94087 z M 448.21946,192.945 c 13.5957,-6.23668 24.55422,-11.50465 24.35226,-11.70661 -0.46605,-0.46605 -85.91885,-22.23554 -86.16187,-21.95013 -0.0992,0.11646 7.48429,10.4844 16.85211,23.03988 12.12555,16.25162 17.49415,22.70256 18.63522,22.39221 0.88155,-0.23977 12.72658,-5.53868 26.32228,-11.77535 z m 40.1543,-50.93038 c -1.63824,-0.66155 -2.00982,-1.46763 -1.61899,-3.51214 0.43838,-2.29321 0.86261,-2.56434 3.12419,-1.99672 3.40564,0.85476 3.47361,0.95334 2.72208,3.94767 -0.68987,2.74867 -1.00156,2.86378 -4.22728,1.56119 z m -8.21182,-1.73189 c -1.97684,-0.37618 -2.23464,-0.85692 -1.66871,-3.11177 0.8599,-3.42614 0.79967,-3.38653 3.94842,-2.59625 1.79875,0.45146 2.49394,1.15074 2.11799,2.13046 -0.3078,0.80212 -0.55964,2.0966 -0.55964,2.87662 0,0.78001 -0.3375,1.35693 -0.75,1.28203 -0.4125,-0.0749 -1.80213,-0.33639 -3.08806,-0.58109 z m -21.60617,-6.19249 c -0.30924,-0.50036 -0.27735,-1.65221 0.0709,-2.55965 0.44255,-1.15328 -0.0238,-1.82168 -1.54923,-2.2206 -3.16838,-0.82855 -2.4845,-4.937 0.7465,-4.48461 1.68437,0.23583 2.47733,-0.26133 2.88142,-1.80656 0.35192,-1.34573 1.09237,-1.92669 2.00788,-1.57538 0.7977,0.30611 1.63856,0.55656 1.86858,0.55656 0.23001,0 0.41821,1.07252 0.41821,2.38337 0,1.5158 0.70446,2.56759 1.93529,2.88946 1.39446,0.36466 1.78175,1.0932 1.38587,2.60704 -0.42827,1.63772 -1.07546,1.96892 -2.93528,1.50213 C 463.43643,130.89272 463,131.16886 463,132.89159 c 0,2.16474 -3.29749,3.05411 -4.44423,1.19865 z m 32.63521,-0.0111 c -1.26996,-0.31852 -2.28246,-0.91662 -2.25,-1.32912 0.0325,-0.4125 0.059,-1.65 0.059,-2.75 0,-2.46876 4.73994,-2.84127 5.65956,-0.44479 1.02703,2.6764 -0.88611,5.17162 -3.46858,4.52391 z m -10.58373,-2.90558 c -0.96104,-1.555 0.62394,-5.17356 2.25938,-5.15823 2.7784,0.026 4.08736,1.44462 3.47914,3.77047 -0.57847,2.21206 -4.62437,3.19049 -5.73852,1.38776 z M 141.6962,303.21664 c 5.60791,-6.99415 14.10578,-17.79057 18.88416,-23.99205 9.38833,-12.18437 16.23379,-18.29849 26.41964,-23.59708 9.49236,-4.93785 14.87734,-6.4265 34.10903,-9.42927 l 17.28129,-2.69824 2.31666,-9.92848 c 1.27416,-5.46067 2.44476,-10.05659 2.60134,-10.21317 0.15658,-0.15658 2.73876,0.3684 5.73818,1.16661 2.99943,0.79822 5.96129,1.45664 6.58193,1.46317 1.12736,0.0119 4.37157,-11.07806 4.37157,-14.94365 0,-1.27674 -0.65716,-2.04815 -1.75,-2.05425 -2.81625,-0.0157 -12.32521,-4.80815 -17.92001,-9.03152 -5.53339,-4.17702 -13.12357,-13.36096 -15.9625,-19.31426 C 222.71994,177.1895 222.37664,177 217.76513,177 c -5.35157,0 -9.76361,-1.83439 -14.10441,-5.86416 -4.09942,-3.8057 -5.10861,-6.24896 -8.1106,-19.63584 -1.48003,-6.6 -6.26261,-27.3 -10.62793,-46 -4.36533,-18.7 -7.93113,-34.9 -7.924,-36 0.0429,-6.614874 5.13091,-14.964037 10.95435,-17.97546 1.46062,-0.755311 6.90632,-2.376633 12.10156,-3.602937 C 205.24935,46.6953 209.05,45.548914 208.5,45.37408 207.95,45.199246 177.44038,37.800322 140.70085,28.932027 97.931254,18.608176 73.009742,13.031723 71.422155,13.430182 69.926903,13.805466 68.36882,15.332231 67.497186,17.276255 64.650282,23.62577 3.9175656,274.34819 4.5399796,277.18203 c 0.7232456,3.29291 3.8262072,7.40655 6.7875724,8.99836 1.796561,0.96571 116.005698,29.39776 119.172448,29.66766 0.55,0.0469 5.58829,-5.63726 11.1962,-12.63141 z M 81.199322,275.04338 c -27.115373,-7.00961 -49.760067,-13.20412 -50.321541,-13.7656 -0.694483,-0.69448 2.378391,-14.24994 9.611458,-42.39932 5.847776,-22.75815 10.988701,-41.73969 11.424279,-42.1812 0.900858,-0.91312 101.893292,24.70955 103.423082,26.23934 0.6613,0.6613 -2.46682,14.53247 -9.30907,41.27969 -5.66778,22.15604 -10.70844,41.07121 -11.20148,42.03371 -0.49303,0.9625 -1.66808,1.70232 -2.61123,1.64405 -0.94315,-0.0583 -23.90013,-5.84107 -51.015498,-12.85067 z M 126.28627,280.75 c -0.52724,-0.6875 -8.29114,-11.15 -17.25312,-23.25 -8.96198,-12.1 -16.384035,-22.11083 -16.493456,-22.24629 -0.243991,-0.30206 -50.758374,22.77517 -51.745371,23.6396 -0.485337,0.42507 75.787247,20.82908 86.078117,23.02714 0.20485,0.0437 -0.0589,-0.48295 -0.58617,-1.17045 z m 15.22391,-37.63661 c 4.70247,-18.36263 8.36427,-33.57227 8.13735,-33.7992 -0.43508,-0.43507 -50.630193,22.33673 -51.866813,23.53019 -0.395606,0.3818 7.029393,11.14257 16.500003,23.91282 13.3034,17.93843 17.38532,22.82342 17.9494,21.48072 0.40157,-0.95586 4.57759,-16.76189 9.28006,-35.12453 z m -56.203552,-9.82327 c 2.183264,-0.89048 3.607355,-2.07189 3.339353,-2.7703 -0.392369,-1.02249 -31.527008,-43.44162 -33.617629,-45.80205 -0.381051,-0.43023 -4.617005,14.64477 -9.41323,33.5 -4.796225,18.85522 -8.944166,35.04491 -9.217647,35.97707 -0.354097,1.20695 6.066215,-1.33457 22.302644,-8.82864 12.539934,-5.78791 24.512864,-11.22215 26.606509,-12.07608 z M 121.2139,216.7298 C 143.91189,206.41601 148.36042,204 144.6529,204 c -0.7409,0 -19.90935,-4.75655 -42.59655,-10.57012 -22.687199,-5.81356 -41.425001,-10.39456 -41.63956,-10.18 -0.214559,0.21456 7.141389,10.5861 16.346551,23.04788 11.665188,15.79212 17.191183,22.50689 18.236659,22.15981 0.825,-0.27389 12.62125,-5.55138 26.2139,-11.72777 z M 107,177.07166 C 79.775,170.10838 56.7125,164.10776 55.75,163.73696 54.7875,163.36615 54,162.34528 54,161.46835 54,160.19214 72.630181,86.315419 74.607677,79.75 74.897581,78.7875 75.843363,78 76.709415,78 c 3.028004,0 100.801805,25.30371 102.007495,26.39939 0.9447,0.85849 -1.1694,10.43769 -9.45097,42.82337 -5.86734,22.94463 -11.13995,41.89569 -11.71692,42.11346 C 156.97206,189.554 134.225,184.03495 107,177.07166 Z m 42.29969,4.5767 c -3.6535,-6.17516 -33.06664,-44.57897 -33.9984,-44.39064 -2.72259,0.55029 -51.178478,23.19843 -50.686285,23.69062 0.555975,0.55597 81.892665,21.75946 84.184685,21.94593 0.82825,0.0674 1.00961,-0.38456 0.5,-1.24591 z m 15.58904,-36.14158 c 4.92699,-19.24627 8.88012,-35.06793 8.78472,-35.15926 -0.0954,-0.0913 -12.00486,5.26933 -26.46546,11.91255 -15.83614,7.27514 -26.11615,12.53688 -25.84979,13.231 0.84171,2.19347 34.12478,46.55956 34.34812,45.7858 0.12334,-0.42728 4.25542,-16.52382 9.18241,-35.77009 z M 86.393132,145.12636 C 100.52125,138.59585 112.26905,133.06429 112.49935,132.83398 113.12437,132.20896 78.907336,86.436987 78.15053,86.885713 77.586106,87.220372 60.064036,154.24736 60.017447,156.25 c -0.0096,0.4125 0.141323,0.75 0.335376,0.75 0.194053,0 11.912192,-5.34314 26.040309,-11.87364 z m 57.980358,-26.69499 c 14.23042,-6.51697 25.39768,-12.00765 24.81612,-12.2015 -2.56898,-0.85633 -85.709727,-22.012411 -85.882802,-21.853832 -0.407514,0.373385 34.182882,46.441692 34.674452,46.180262 0.28531,-0.15174 12.16181,-5.60796 26.39223,-12.12493 z M 116.27808,50.907164 c -4.8008,-1.775931 -5.21856,-7.589605 -0.75551,-10.513907 3.57883,-2.344939 7.86415,-0.05702 8.29566,4.429022 0.49027,5.096906 -2.87327,7.811276 -7.54015,6.084885 z m -16.0735,-4.027189 c -3.436332,-1.271181 -4.847636,-5.249602 -2.910832,-8.205538 4.316412,-6.587682 13.194532,-1.431043 9.917832,5.760532 -1.21816,2.673571 -3.87913,3.602083 -7.007,2.445006 z M 82.579632,41.883978 c -3.390934,-2.667309 -3.142068,-6.396522 0.613128,-9.187596 2.568939,-1.909381 2.812821,-1.922745 5.303744,-0.29063 1.436041,0.940931 2.86033,2.360569 3.165087,3.154751 0.985306,2.567668 -0.547851,6.066644 -3.184667,7.268058 -3.21933,1.466824 -2.732567,1.54479 -5.897292,-0.944583 z M 276.9144,260 c -0.0362,-0.98906 -0.34772,-0.81874 -0.9144,0.5 -1.18132,2.74909 -1.18132,4.32797 0,2.5 0.53316,-0.825 0.94464,-2.175 0.9144,-3 z m 6.1541,-61.59635 c 10.7492,-3.15925 18.90025,-8.32493 29.00019,-18.3787 21.66168,-21.56265 34.80825,-51.6012 37.83394,-86.446603 0.50557,-5.822491 0.80974,-11.332364 0.67591,-12.244162 -0.18817,-1.282071 -4.64431,-2.734382 -19.66093,-6.407735 -10.67968,-2.612457 -19.56842,-4.601326 -19.75275,-4.419709 -0.18433,0.181618 0.59376,4.079399 1.72909,8.661736 6.17864,24.937773 13.10481,55.472743 13.09628,57.736813 -0.0248,6.59784 -7.02746,16.20733 -13.49023,18.51223 -1.1,0.39231 -19.05831,4.72967 -39.90737,9.63858 -20.84905,4.90892 -38.03573,9.05366 -38.19262,9.21055 -0.15689,0.15689 1.90974,3.27447 4.59252,6.92795 5.23485,7.12897 12.80642,13.45393 20.0256,16.72852 5.58483,2.53325 16.33525,2.74805 24.05037,0.48053 z M 236.32166,99.158786 c 10.84257,-7.147896 10.27568,-24.208177 -1.02445,-30.830495 -8.74367,-5.124134 -18.019,-3.240409 -24.69119,5.01453 -2.78686,3.447954 -3.10602,4.534874 -3.10602,10.577842 0,5.845182 0.37213,7.22291 2.81658,10.427754 1.54913,2.031003 3.9229,4.417614 5.27505,5.30358 5.87372,3.848603 14.45362,3.644473 20.73003,-0.493211 z M 348.99665,64.069512 c -3.74764,-23.26148 -14.41609,-41.21747 -29.15732,-49.074465 -5.67496,-3.024724 -7.02471,-3.32838 -14.79454,-3.32838 -10.26605,0 -19.40466,2.617985 -29.12239,8.342844 -6.18598,3.64425 -17.4222,12.824024 -16.64642,13.5998 0.19465,0.194649 4.96585,-0.762817 10.60267,-2.127702 12.22471,-2.96006 18.1756,-3.094066 23.80965,-0.536163 6.61743,3.004365 9.60362,8.117161 12.83392,21.973538 l 2.79717,11.99847 20.0903,4.87808 c 16.89281,4.101702 20.1473,4.636592 20.44839,3.360785 0.19695,-0.834512 -0.1907,-4.923575 -0.86143,-9.086807 z"
         id="path5" />
      <path
         style="fill:#fccc05"
         d="M 73.5,448.88998 C 31.608669,445.73621 1,434.94586 1,423.33185 c 0,-9.77466 17.875318,-18.27555 48.978902,-23.2927 7.413397,-1.19581 14.019091,-2.62252 14.679322,-3.17046 1.510146,-1.25331 62.754306,-75.66151 63.085286,-76.64507 0.13393,-0.39799 -25.74107,-6.98211 -57.500001,-14.63138 C 38.484579,297.94297 11.375,291.12064 10,290.43151 4.3683894,287.60904 0,280.91029 0,275.0969 0,271.70176 62.387449,17.01308 63.92104,14.147538 65.6236,10.966275 69.105396,9 73.03608,9 c 2.570961,0 136.23168,31.597182 144.53088,34.166872 0.51317,0.158893 5.78961,-0.786306 11.72541,-2.100444 l 10.79237,-2.389341 5.02672,-6.317164 c 10.45986,-13.145078 25.33956,-24.2268422 39.12657,-29.1397904 10.74374,-3.82849002 23.9934,-3.76386938 36.06507,0.175895 4.8417,1.5801599 11.3667,4.532538 14.5,6.5608401 12.1434,7.8608893 23.48775,23.3390093 28.98227,39.5431323 2.47366,7.295181 5.20906,20.218047 5.22994,24.707842 0.008,1.810687 0.39327,3.888296 0.85522,4.616908 0.48619,0.766856 32.16987,8.87599 75.23469,19.255595 40.91713,9.861965 75.40831,18.369155 76.64708,18.904855 2.71295,1.17323 6.23879,6.66436 6.24396,9.72433 0.006,3.3676 -61.79185,255.24224 -63.69375,259.60316 -3.3623,7.70955 -11.51699,11.67696 -20.14413,9.80052 -2.56211,-0.55727 -44.64741,-10.71072 -93.52289,-22.56322 -48.87548,-11.85249 -89.37548,-21.52405 -90,-21.49234 -0.62452,0.0317 -2.71049,1.09115 -4.63549,2.35432 -3.1409,2.06104 -3.7565,3.25617 -6,11.64846 -2.85006,10.66125 -2.86088,10.66963 -14,10.8391 -7.0145,0.10672 -14.47321,-2.70274 -23.69067,-8.92353 -3.84261,-2.59335 -5.27106,-2.96742 -11.10946,-2.90931 l -6.69987,0.0667 -16,18.01064 c -8.8,9.90585 -16.10874,18.31334 -16.24165,18.6833 -0.1329,0.36997 3.4671,1.68424 8,2.9206 C 186.21916,409.10128 198,416.85225 198,423 c 0,6.49575 -13.82884,15.13611 -31.16911,19.47468 -25.4388,6.36483 -61.27851,8.82835 -93.33089,6.4153 z m 45.10942,-9.23641 c 5.09362,-1.15 5.21676,-1.27343 39.80971,-39.90357 L 193.11942,361 h 13.3093 c 24.69831,0 43.39501,-5.05903 52.55709,-14.2211 5.78158,-5.78158 5.26339,-7.04743 -1.73581,-4.24028 -3.1625,1.26837 -7.4375,2.61614 -9.5,2.99505 -3.30593,0.60733 -3.75,0.4537 -3.75,-1.29738 0,-1.39681 0.87025,-2.16034 2.93235,-2.57276 6.49936,-1.29987 18.9684,-6.88672 22.92083,-10.26985 4.51714,-3.86651 7.14682,-8.04803 7.14682,-11.36434 0,-2.06398 -0.0109,-2.06446 -3.75,-0.16503 -4.88606,2.48206 -18.79132,6.84718 -23.2203,7.28928 -2.5858,0.25812 -3.55419,-0.068 -3.79942,-1.27947 -0.26018,-1.28531 1.57151,-2.09551 8.74451,-3.86789 16.48344,-4.07291 27.40789,-10.90456 31.99183,-20.00623 2.16424,-4.29722 4.37906,-10.98765 3.82185,-11.54486 -0.22597,-0.22598 -3.92128,1.11518 -8.2118,2.98034 -10.00492,4.34931 -29.30749,9.2337 -30.75806,7.78313 -1.73402,-1.73402 -0.20212,-2.8156 5.88575,-4.15559 9.92852,-2.18534 23.56644,-6.91444 29.03152,-10.067 9.42297,-5.43569 12.13809,-16.07268 6.40865,-25.10707 -3.49261,-5.50727 -13.90458,-12.89523 -15.20594,-10.78959 -0.51627,0.83535 -0.26519,1.98726 0.65474,3.00377 0.82069,0.90685 1.7222,3.16713 2.00336,5.02284 1.78248,11.76473 -17.79678,21.36216 -43.59669,21.37037 -10.03993,0.003 -12.10307,-0.29333 -16.25,-2.33555 -2.6125,-1.28656 -4.75,-2.7225 -4.75,-3.19098 0,-1.92953 2.22561,-1.91506 8.06604,0.0524 3.39207,1.1427 6.28539,1.94267 6.42961,1.7777 0.62221,-0.71176 6.77738,-27.86026 6.40171,-28.23592 -0.81464,-0.81464 -32.44152,4.59752 -38.3653,6.56528 C 184.00397,259.95524 175.29304,267.06522 160.71026,286 150.94615,298.67805 111.23058,347.24062 58.308083,411.21316 49.338638,422.0554 42,431.13557 42,431.39131 c 0,1.77361 23.55202,7.60933 36,8.92007 8.123823,0.85543 35.89983,0.4055 40.60942,-0.65781 z m 334.6727,-48.02469 c 5.79214,-2.468 7.48772,-5.40692 10.77689,-18.67938 C 480.1825,307.88791 524,128.36833 524,127.37222 c 0,-2.09583 -2.1755,-6.22559 -3.55928,-6.75659 -0.70861,-0.27192 -34.06016,-8.41264 -74.11455,-18.09048 -40.05439,-9.677844 -73.54477,-17.813576 -74.42305,-18.079405 -1.36353,-0.412695 -1.689,1.017314 -2.22719,9.785465 -1.68766,27.49494 -9.88071,52.63659 -24.22227,74.32986 -17.2104,26.0327 -40.63131,41.41557 -65.89421,43.27934 l -8.94056,0.65959 -1.85957,7.39818 c -1.02276,4.069 -1.65308,7.9363 -1.4007,8.59399 0.25238,0.6577 3.13969,1.76472 6.41623,2.46005 8.69706,1.84564 8.6186,1.74071 6.73536,9.00837 -0.89226,3.44336 -1.48458,6.33672 -1.31625,6.42969 0.16832,0.093 1.99801,0.93804 4.06597,1.87793 5.29394,2.40612 12.70944,9.5038 14.86906,14.23179 3.05412,6.68632 1.97064,17.06025 -2.32204,22.23261 -0.63265,0.7623 -1.22546,3.52286 -1.31736,6.13459 -0.21541,6.12231 -4.20033,14.7788 -9.4,20.41978 -3.34431,3.62815 -4.08959,5.15514 -4.08959,8.37907 0,4.66625 -4.20817,11.92187 -8.81859,15.20477 -2.46898,1.75807 -8.97441,12.90607 -7.9458,13.61628 0.69066,0.47688 182.49117,44.37252 184.04651,44.43794 0.98016,0.0412 3.23016,-0.54204 5,-1.29616 z M 385.25,349.64085 C 340.39617,338.14954 334,336.27607 334,334.62948 c 0,-2.2566 19.97017,-80.96319 20.94152,-82.53486 0.45943,-0.74338 17.07426,3.10568 51.618,11.95804 28.01726,7.17986 51.29692,13.40916 51.73258,13.84291 0.78722,0.78377 -19.82997,83.02536 -21.11814,84.23984 -0.37068,0.34947 -23.73646,-5.27308 -51.92396,-12.49456 z m 28.54822,-15.73882 c -9.42988,-12.70388 -17.65988,-23.29545 -18.28889,-23.53682 -0.629,-0.24137 -10.56342,3.90378 -22.07648,9.21145 C 361.91978,324.88433 350.025,330.34956 347,331.7216 l -5.5,2.49463 43.5,11.26161 c 23.925,6.19388 44.04978,11.32023 44.72173,11.39188 0.67196,0.0717 -6.49362,-10.26381 -15.92351,-22.96769 z m 30.87818,-14.98412 c 5.64634,-22.19758 8.69877,-35.89212 7.93478,-35.59895 -0.68289,0.26205 -12.81672,5.7788 -26.96405,12.25945 -16.3671,7.49748 -25.5536,12.22294 -25.25824,12.99263 0.68605,1.78782 33.92067,46.42953 34.56269,46.42561 0.30163,-0.002 4.6778,-16.23727 9.72482,-36.07874 z m -72.30946,-3.2273 C 383.29376,310.63577 392.17623,306.05 392.10577,305.5 391.98187,304.53297 357.67887,257.98005 357.34646,258.32781 357.07183,258.6151 339,329.36506 339,330.1529 c 0,0.82677 5.02992,-1.35336 33.36694,-14.46229 z m 50.75934,-23.29466 c 13.95555,-6.38223 25.72194,-11.92794 26.14753,-12.32381 0.4256,-0.39587 -18.88022,-5.75573 -42.90182,-11.9108 -24.0216,-6.15506 -43.82033,-11.04634 -43.99717,-10.86949 -0.44392,0.44392 33.97393,46.70015 34.75146,46.70458 0.34445,0.002 12.04445,-5.21825 26,-11.60048 z m -15.47785,-41.39342 c -27.41836,-7.07978 -50.05777,-13.07853 -50.3098,-13.33056 -0.67209,-0.6721 20.38957,-82.80017 21.52526,-83.93586 1.0433,-1.0433 100.24045,23.81031 102.5842,25.70223 1.06287,0.85797 -0.73919,9.02387 -9.39256,42.56166 -9.29518,36.02525 -10.96157,41.52473 -12.63165,41.68743 -1.05813,0.10309 -24.35708,-5.60511 -51.77545,-12.6849 z m 29.31881,-16.20441 c -9.49841,-12.81396 -17.36113,-23.41999 -17.4727,-23.56895 -0.11158,-0.14895 -12.18412,5.22292 -26.82787,11.9375 -14.64376,6.71457 -26.42109,12.41224 -26.17186,12.66148 0.60608,0.60608 86.90259,22.85333 87.37373,22.52496 0.2027,-0.14127 -7.40288,-10.74102 -16.9013,-23.55499 z m 31.57577,-15.14571 c 4.72732,-18.61618 8.3681,-34.07464 8.09061,-34.35213 -0.2775,-0.27749 -12.46545,5.00245 -27.08434,11.7332 l -26.5798,12.23773 2.30648,3.11439 c 31.38635,42.38042 33.21023,44.6878 33.93098,42.92577 0.40751,-0.99625 4.60874,-17.04279 9.33607,-35.65896 z m -78.60537,0.47178 c 13.9907,-6.46252 25.56581,-12.17172 25.72246,-12.68711 0.48908,-1.60913 -34.54561,-47.91116 -35.08075,-46.3629 -2.65806,7.69029 -17.95382,70.91068 -17.14483,70.86294 0.58602,-0.0346 12.51242,-5.3504 26.50312,-11.81293 z M 447.85074,193.5 c 18.79871,-8.61588 25.68422,-12.2051 24.41583,-12.72729 -3.32938,-1.37069 -84.4959,-21.86293 -85.40084,-21.56129 -0.49716,0.16572 6.85055,10.76649 16.32825,23.55725 9.47771,12.79077 17.51168,23.1379 17.85327,22.99363 0.34159,-0.14426 12.40316,-5.6623 26.80349,-12.2623 z M 487,140.58179 c 0,-3.10765 1.11395,-4.28266 3.6081,-3.80588 1.68512,0.32213 2.32483,0.95648 1.9499,1.93354 -0.3069,0.79977 -0.558,1.86732 -0.558,2.37234 0,0.50501 -1.125,0.91821 -2.5,0.91821 -1.49148,0 -2.5,-0.57212 -2.5,-1.41821 z M 478.67643,139.25 c -0.24288,-0.4125 -0.0719,-1.72754 0.38002,-2.92232 1.14043,-3.01521 4.94355,-2.02361 4.94355,1.28895 0,1.86023 -0.53579,2.38337 -2.44098,2.38337 -1.34254,0 -2.63971,-0.3375 -2.88259,-0.75 z m -18.77916,-4.9709 c -1.10763,-0.25503 -1.45776,-1.12742 -1.13343,-2.82406 0.37875,-1.98127 0.0609,-2.45504 -1.64726,-2.45504 -2.28772,0 -2.58394,-0.71353 -1.20219,-2.89572 0.51192,-0.80848 1.59627,-1.1223 2.57723,-0.74587 1.17815,0.4521 1.85294,0.04 2.21755,-1.35428 0.30316,-1.15929 1.36373,-2.00413 2.51587,-2.00413 1.59981,0 1.87393,0.46952 1.39296,2.38588 -0.45937,1.83027 -0.13531,2.50708 1.39159,2.90638 C 468.95238,128.06181 468.54855,131 465.5,131 c -1.51005,0 -2.5,0.5706 -2.5,1.44098 0,1.75177 -0.97336,2.32841 -3.10273,1.83812 z m 30.24572,-1.16957 c -0.86256,-0.54654 -1.10645,-1.64929 -0.66935,-3.02647 0.52959,-1.6686 1.18632,-2.01354 2.85701,-1.50062 2.80389,0.86083 2.67956,0.6625 2.01306,3.21123 -0.6078,2.32423 -1.94717,2.74378 -4.20072,1.31586 z m -8.74765,-1.72336 C 480.17557,130.88272 480.75525,126 482.03479,126 c 2.33598,0 3.96521,1.48204 3.96521,3.60699 0,2.32133 -1.69983,2.97812 -4.60466,1.77918 z M 143.22772,301.75 c 6.27317,-7.8375 14.14173,-17.87484 17.48568,-22.30521 10.90778,-14.45159 22.14987,-23.0632 36.31596,-27.8186 C 202.75509,249.70412 233.33124,244 237.90847,244 c 0.40197,0 1.79316,-4.5 3.09153,-10 1.29837,-5.5 2.84203,-9.99466 3.43034,-9.98813 0.58831,0.007 3.52373,0.66495 6.52316,1.46317 2.99942,0.79821 5.5489,1.35537 5.6655,1.23813 0.43087,-0.43324 4.472,-16.95003 4.18186,-17.09199 -0.16547,-0.081 -2.77586,-0.98716 -5.80086,-2.01378 -11.08272,-3.76125 -22.03844,-13.11645 -28.96436,-24.73295 l -3.35402,-5.62554 -5.9954,-0.54365 c -10.36214,-0.9396 -17.11947,-7.5372 -19.52866,-19.06706 -1.83114,-8.76341 -3.74066,-17.00514 -12.07989,-52.1382 -4.43866,-18.7 -8.06944,-34.9 -8.0684,-36 0.004,-4.33218 2.28849,-9.823822 5.62085,-13.512351 3.87428,-4.288364 7.9851,-6.068318 19.86988,-8.603503 6.57201,-1.401899 7.55375,-1.842973 5.5,-2.471015 C 201.09396,42.801246 75.172261,12.784113 73.152778,12.768337 67.63018,12.725194 68.375881,10.121214 35.382544,144.6616 18.140149,214.97272 4.0253693,273.55699 4.0163673,274.84887 c -0.024205,3.47364 2.9314479,9.07083 5.7731763,10.9328 2.1506244,1.40915 115.8483764,29.86159 120.3714364,30.12251 0.99735,0.0575 6.21804,-5.59762 13.06674,-14.15418 z M 82,274.85926 c -27.775,-7.14814 -50.799775,-13.30321 -51.166168,-13.67794 -0.89828,-0.91871 20.006895,-82.39138 21.4934,-83.76512 0.85326,-0.78854 14.980689,2.48074 51.855278,12 27.87538,7.19609 50.94012,13.34854 51.25499,13.67212 0.51665,0.53095 -19.9974,82.37642 -21.0946,84.16168 -0.62293,1.01358 3.91893,2.08874 -52.3429,-12.39074 z m 45,6.66896 c 0,-0.55174 -31.622589,-43.36719 -33.538979,-45.41015 -1.092111,-1.16424 -5.365618,0.47867 -27.128669,10.42937 -14.207793,6.49623 -26.183349,12.10409 -26.612344,12.46193 -0.428996,0.35784 18.471004,5.61751 42,11.68816 C 125.36824,281.95909 127,282.3494 127,281.52822 Z m 14.6543,-37.5858 c 5.03486,-19.82491 8.8053,-35.90964 8.37875,-35.74385 C 143.3993,210.77691 97,232.67722 97,233.22999 c 0,1.08717 34.02895,46.77128 34.83324,46.76387 0.36672,-0.003 4.78619,-16.22653 9.82106,-36.05144 z M 62.5,244.00427 c 11,-5.08838 21.720083,-9.9927 23.822407,-10.8985 l 3.822407,-1.64689 -17.765282,-23.88075 C 57.805424,187.98708 54.472044,184.03892 53.82259,185.5987 52.911996,187.78564 36,253.75813 36,255.12334 c 0,1.09041 1.137387,0.61318 26.5,-11.11907 z m 57.7982,-26.5592 c 13.86099,-6.35521 25.51388,-11.86771 25.89532,-12.25 0.38144,-0.38229 -18.96856,-5.71755 -43,-11.85613 C 79.162084,187.20035 59.363689,182.31166 59.197087,182.47518 58.657638,183.00465 93.25106,229 94.188727,229 c 0.499219,0 12.248483,-5.19972 26.109473,-11.55493 z M 104.0515,176.08793 C 76.854828,169.05953 54.466298,162.89889 54.299213,162.39764 53.857729,161.07319 74.728771,79.871229 75.781167,78.818833 76.296504,78.303496 97.95928,83.389405 127.52117,90.966165 155.49059,98.134774 178.51536,104 178.68733,104 c 1.09522,0 -0.92523,8.92652 -10.07221,44.5 -9.88501,38.44371 -10.37914,40.00714 -12.70015,40.18343 -1.32823,0.10089 -24.66679,-5.56709 -51.86347,-12.5955 z m 29.52508,-16.38662 -17.54439,-23.51105 -26.503,12.15487 C 74.952543,155.03031 63.020301,160.8375 63.013097,161.25 c -0.0072,0.4125 0.774403,0.76882 1.736903,0.79182 0.9625,0.023 20.65,4.91721 43.75,10.87601 23.1,5.9588 42.13972,10.71276 42.31049,10.56435 0.17077,-0.1484 -7.58449,-10.8498 -17.23391,-23.78087 z m 31.94753,-15.05859 c 4.72706,-18.62151 8.40695,-34.045 8.17753,-34.27442 -0.34702,-0.34702 -52.56074,23.18159 -53.51017,24.11281 -0.16969,0.16644 5.70308,8.33878 13.05061,18.16075 7.34752,9.82198 15.32725,20.53255 17.73274,23.80127 3.8067,5.17276 4.47608,5.69125 5.16412,4 0.43478,-1.06872 4.6581,-17.17891 9.38517,-35.80041 z M 89.483504,144.07024 C 101.57443,138.49475 111.84307,133.55693 112.3027,133.0973 112.76234,132.63766 105.23204,121.5915 95.568716,108.55027 85.90539,95.509043 77.791412,85.437683 77.537653,86.169473 77.283894,86.901263 73.222561,102.575 68.512468,121 c -4.710093,18.425 -8.806479,34.28404 -9.103081,35.2423 -0.643674,2.0796 -2.182486,2.70241 30.074117,-12.17206 z m 55.747646,-25.63952 c 14.15213,-6.49097 25.62713,-11.9032 25.5,-12.02717 -0.66154,-0.64514 -87.02034,-22.447694 -87.402083,-22.06595 -0.834716,0.834716 33.922453,46.77997 35.052203,46.33526 0.6153,-0.24221 12.69775,-5.75117 26.84988,-12.24214 z M 114.57143,49.428571 C 111.20703,46.064169 113.68002,40 118.41644,40 121.15227,40 124,42.893727 124,45.673753 c 0,4.434402 -6.25715,6.926239 -9.42857,3.754818 z M 98.2,45.8 c -1.550085,-1.550085 -1.550085,-7.049915 0,-8.6 3.10203,-3.102026 9.8,-0.04437 9.8,4.473753 0,4.211585 -6.83628,7.08997 -9.8,4.126247 z M 81.332541,40.384769 c -1.537283,-2.34619 -1.561429,-2.886283 -0.234708,-5.25 C 82.245806,33.089512 83.342632,32.5 86,32.5 c 2.657368,0 3.754194,0.589512 4.902167,2.634769 1.326721,2.363717 1.302575,2.90381 -0.234708,5.25 C 89.459657,42.228108 88.082044,43 86,43 83.917956,43 82.540343,42.228108 81.332541,40.384769 Z M 276.96959,260.05887 c -0.0369,-3.10498 -1.34682,-1.18684 -2.34998,3.44113 -0.61305,2.82821 -0.56351,2.88884 0.86505,1.05887 0.83344,-1.06762 1.50166,-3.09262 1.48493,-4.5 z M 284.5,198.30774 c 7.49055,-2.36988 12.25097,-4.95126 20.07672,-10.88674 25.33363,-19.21446 43.65078,-58.1406 46.0858,-97.937868 l 0.61446,-10.042612 -19.88849,-4.734067 c -10.93867,-2.603737 -20.14735,-4.727854 -20.46373,-4.72026 -0.31638,0.0076 2.48802,12.726307 6.232,28.263807 7.26286,30.14083 8.50803,37.3928 7.41804,43.20298 -0.80694,4.30135 -6.71437,11.28803 -11.0748,13.0981 -1.65,0.68493 -19.65,5.13511 -40,9.88928 -20.35,4.75417 -37.59004,8.84642 -38.3112,9.09389 -2.11979,0.72742 1.42704,6.07304 9.3112,14.03343 12.54009,12.66134 24.10918,15.76766 40,10.74006 z M 236.32166,99.158786 C 241.26322,95.901094 244,90.498072 244,84 244,65.626609 220.25609,58.496131 210.02301,73.796448 c -2.00045,2.99103 -2.48142,4.969055 -2.5,10.281394 -0.0199,5.692375 0.35614,7.074935 2.79357,10.270575 1.54913,2.031003 3.9229,4.417614 5.27505,5.30358 5.87372,3.848603 14.45362,3.644473 20.73003,-0.493211 z M 350.22887,69.75 C 349.38066,60.424881 345.15238,45.711269 340.87904,37.214397 336.00496,27.523041 328.0451,18.832747 320.21863,14.658109 309.84486,9.1247403 294.52875,10.183438 280.14236,17.428308 273.39454,20.826456 258,32.237194 258,33.840665 c 0,0.449126 4.8375,-0.452844 10.75,-2.004378 13.00384,-3.412416 19.07577,-3.583135 25.02414,-0.70358 6.87537,3.32831 9.44752,7.817115 12.76434,22.275728 2.51885,10.980098 3.14915,12.601271 4.92502,12.667402 1.12007,0.04171 9.6865,2.016798 19.0365,4.389084 9.35,2.372286 17.72144,4.363159 18.60321,4.424163 1.33705,0.0925 1.52393,-0.760672 1.12566,-5.139084 z"
         id="path4" />
      <path
         style="fill:#5c5b63"
         d="M 73.5,448.88998 C 31.608669,445.73621 1,434.94586 1,423.33185 c 0,-9.77466 17.875318,-18.27555 48.978902,-23.2927 7.413397,-1.19581 14.019091,-2.62252 14.679322,-3.17046 1.510146,-1.25331 62.754306,-75.66151 63.085286,-76.64507 0.13393,-0.39799 -25.74107,-6.98211 -57.500001,-14.63138 C 38.484579,297.94297 11.375,291.12064 10,290.43151 4.3683894,287.60904 0,280.91029 0,275.0969 0,271.70176 62.387449,17.01308 63.92104,14.147538 65.6236,10.966275 69.105396,9 73.03608,9 c 1.975087,0 35.20606,7.65 73.8466,17 38.64055,9.35 70.56194,17.047184 70.93643,17.104853 0.37449,0.05767 -1.06165,0.644659 -3.19142,1.30442 -3.22029,0.997585 -5.07245,0.90349 -11,-0.558827 C 154.22968,31.664017 74.975251,12.784436 73.152778,12.769385 67.632843,12.723798 68.374691,10.136715 35.332632,144.6616 13.299927,234.36385 4.0618149,273.60471 4.3650181,276.20317 c 0.535918,4.59284 3.6963706,9.17189 7.3590359,10.66222 C 14.37922,287.94577 129.20141,316 130.96809,316 c 0.86657,0 18.64584,-21.84965 29.74531,-36.55521 10.90778,-14.45159 22.14987,-23.0632 36.31596,-27.8186 C 202.75509,249.70412 233.33124,244 237.90847,244 c 0.40197,0 1.79316,-4.5 3.09153,-10 1.29837,-5.5 2.84203,-9.99466 3.43034,-9.98813 0.58831,0.007 3.52373,0.66495 6.52316,1.46317 2.99942,0.79821 5.5489,1.35537 5.6655,1.23813 0.43087,-0.43324 4.472,-16.95003 4.18186,-17.09199 -0.16547,-0.081 -2.77586,-0.98716 -5.80086,-2.01378 -11.08272,-3.76125 -22.03844,-13.11645 -28.96436,-24.73295 l -3.35402,-5.62554 -5.9954,-0.54365 c -6.92368,-0.62781 -12.89187,-4.18096 -16.02037,-9.5377 C 198.79991,163.97262 194,145.7941 194,141.92222 c 0,-1.04597 1.98342,-4.99609 4.40759,-8.77805 7.05234,-11.00236 14.74205,-13.584 25.41798,-8.53347 6.56015,3.10344 13.1786,2.94665 17.91275,-0.42436 1.80215,-1.28325 8.60272,-11.22234 17.08495,-24.969792 7.75011,-12.560892 15.08739,-24.104544 16.30506,-25.65256 1.21767,-1.548016 4.49943,-3.878796 7.29281,-5.179512 8.21421,-3.824892 14.41034,-3.021588 24.11473,3.126381 l 5.03587,3.190346 6.71413,28.517507 C 321.97864,118.90334 325,133.83503 325,136.40023 c 0,6.24582 -1.87968,10.36475 -6.72529,14.7371 -4.36677,3.94026 -6.10591,4.42678 -62.27471,17.42105 -11.275,2.60839 -20.83086,5.02819 -21.23525,5.37733 -1.20403,1.03952 5.60796,10.2903 11.63094,15.79496 9.62185,8.79383 19.65796,12.19187 30.60431,10.36205 37.6045,-6.28605 70.28184,-55.35667 73.66301,-110.617613 l 0.61495,-10.050638 -20.63898,-4.903582 C 313.20196,70.378053 310,69.336708 310,67.808652 c 0,-0.994758 0.5625,-1.804615 1.25,-1.799681 0.6875,0.0049 9.50936,2.029935 19.60413,4.5 C 340.9489,72.979037 349.54535,75 349.95734,75 c 1.22002,0 -0.0348,-9.80868 -2.55861,-20 -4.60213,-18.583749 -14.81943,-33.748711 -27.1801,-40.341891 -14.79795,-7.8932245 -37.06712,-2.460543 -56.36299,13.750044 -6.16229,5.176983 -8.84376,6.729351 -13.83077,8.006963 -9.05693,2.320278 -9.58247,2.19366 -6.91131,-1.665116 4.40712,-6.36656 18.5094,-19.391386 26.12447,-24.128496 11.8836,-7.3924244 20.18815,-9.97780607 32.26197,-10.04381963 18.13283,-0.0991412 32.87142,6.43948203 45.6402,20.24779963 6.91462,7.477561 13.02969,18.011938 16.64517,28.674516 2.47366,7.295181 5.20906,20.218047 5.22994,24.707842 0.008,1.810687 0.39327,3.888296 0.85522,4.616908 0.48619,0.766856 32.16987,8.87599 75.23469,19.255595 40.91713,9.861965 75.40831,18.369155 76.64708,18.904855 2.71295,1.17323 6.23879,6.66436 6.24396,9.72433 0.006,3.3676 -61.79185,255.24224 -63.69375,259.60316 -3.3623,7.70955 -11.51699,11.67696 -20.14413,9.80052 -2.56211,-0.55727 -44.64741,-10.71072 -93.52289,-22.56322 -48.87548,-11.85249 -89.37548,-21.52405 -90,-21.49234 -0.62452,0.0317 -2.71049,1.09115 -4.63549,2.35432 -3.1409,2.06104 -3.7565,3.25617 -6,11.64846 -2.85006,10.66125 -2.86088,10.66963 -14,10.8391 -7.0145,0.10672 -14.47321,-2.70274 -23.69067,-8.92353 -3.84261,-2.59335 -5.27106,-2.96742 -11.10946,-2.90931 l -6.69987,0.0667 -16,18.01064 c -8.8,9.90585 -16.10874,18.31334 -16.24165,18.6833 -0.1329,0.36997 3.4671,1.68424 8,2.9206 C 186.21916,409.10128 198,416.85225 198,423 c 0,6.49575 -13.82884,15.13611 -31.16911,19.47468 -25.4388,6.36483 -61.27851,8.82835 -93.33089,6.4153 z m 45.10942,-9.23641 c 5.09362,-1.15 5.21676,-1.27343 39.80971,-39.90357 L 193.11942,361 h 13.3093 c 24.69831,0 43.39501,-5.05903 52.55709,-14.2211 5.78158,-5.78158 5.26339,-7.04743 -1.73581,-4.24028 -3.1625,1.26837 -7.4375,2.61614 -9.5,2.99505 -3.30593,0.60733 -3.75,0.4537 -3.75,-1.29738 0,-1.39681 0.87025,-2.16034 2.93235,-2.57276 6.49936,-1.29987 18.9684,-6.88672 22.92083,-10.26985 4.51714,-3.86651 7.14682,-8.04803 7.14682,-11.36434 0,-2.06398 -0.0109,-2.06446 -3.75,-0.16503 -4.88606,2.48206 -18.79132,6.84718 -23.2203,7.28928 -2.5858,0.25812 -3.55419,-0.068 -3.79942,-1.27947 -0.26018,-1.28531 1.57151,-2.09551 8.74451,-3.86789 16.48344,-4.07291 27.40789,-10.90456 31.99183,-20.00623 2.16424,-4.29722 4.37906,-10.98765 3.82185,-11.54486 -0.22597,-0.22598 -3.92128,1.11518 -8.2118,2.98034 -10.00492,4.34931 -29.30749,9.2337 -30.75806,7.78313 -1.73402,-1.73402 -0.20212,-2.8156 5.88575,-4.15559 9.92852,-2.18534 23.56644,-6.91444 29.03152,-10.067 9.42297,-5.43569 12.13809,-16.07268 6.40865,-25.10707 -3.49261,-5.50727 -13.90458,-12.89523 -15.20594,-10.78959 -0.51627,0.83535 -0.26519,1.98726 0.65474,3.00377 0.82069,0.90685 1.7222,3.16713 2.00336,5.02284 1.78248,11.76473 -17.79678,21.36216 -43.59669,21.37037 -10.03993,0.003 -12.10307,-0.29333 -16.25,-2.33555 -2.6125,-1.28656 -4.75,-2.7225 -4.75,-3.19098 0,-1.92953 2.22561,-1.91506 8.06604,0.0524 3.39207,1.1427 6.28539,1.94267 6.42961,1.7777 0.62221,-0.71176 6.77738,-27.86026 6.40171,-28.23592 -0.81464,-0.81464 -32.44152,4.59752 -38.3653,6.56528 C 184.00397,259.95524 175.29304,267.06522 160.71026,286 150.94615,298.67805 111.23058,347.24062 58.308083,411.21316 49.338638,422.0554 42,431.13557 42,431.39131 c 0,1.77361 23.55202,7.60933 36,8.92007 8.123823,0.85543 35.89983,0.4055 40.60942,-0.65781 z m 334.6727,-48.02469 c 5.79214,-2.468 7.48772,-5.40692 10.77689,-18.67938 C 480.1825,307.88791 524,128.36833 524,127.37222 c 0,-2.09583 -2.1755,-6.22559 -3.55928,-6.75659 -0.70861,-0.27192 -34.06016,-8.41264 -74.11455,-18.09048 -40.05439,-9.677844 -73.54477,-17.813576 -74.42305,-18.079405 -1.36353,-0.412695 -1.689,1.017314 -2.22719,9.785465 -1.68766,27.49494 -9.88071,52.63659 -24.22227,74.32986 -17.2104,26.0327 -40.63131,41.41557 -65.89421,43.27934 l -8.94056,0.65959 -1.85957,7.39818 c -1.02276,4.069 -1.65308,7.9363 -1.4007,8.59399 0.25238,0.6577 3.13969,1.76472 6.41623,2.46005 8.69706,1.84564 8.6186,1.74071 6.73536,9.00837 -0.89226,3.44336 -1.48458,6.33672 -1.31625,6.42969 0.16832,0.093 1.99801,0.93804 4.06597,1.87793 5.29394,2.40612 12.70944,9.5038 14.86906,14.23179 3.05412,6.68632 1.97064,17.06025 -2.32204,22.23261 -0.63265,0.7623 -1.22546,3.52286 -1.31736,6.13459 -0.21541,6.12231 -4.20033,14.7788 -9.4,20.41978 -3.34431,3.62815 -4.08959,5.15514 -4.08959,8.37907 0,4.66625 -4.20817,11.92187 -8.81859,15.20477 -2.46898,1.75807 -8.97441,12.90607 -7.9458,13.61628 0.69066,0.47688 182.49117,44.37252 184.04651,44.43794 0.98016,0.0412 3.23016,-0.54204 5,-1.29616 z M 385.25,349.64085 C 340.39617,338.14954 334,336.27607 334,334.62948 c 0,-2.2566 19.97017,-80.96319 20.94152,-82.53486 0.45943,-0.74338 17.07426,3.10568 51.618,11.95804 28.01726,7.17986 51.29692,13.40916 51.73258,13.84291 0.78722,0.78377 -19.82997,83.02536 -21.11814,84.23984 -0.37068,0.34947 -23.73646,-5.27308 -51.92396,-12.49456 z m 28.54822,-15.73882 c -9.42988,-12.70388 -17.65988,-23.29545 -18.28889,-23.53682 -0.629,-0.24137 -10.56342,3.90378 -22.07648,9.21145 C 361.91978,324.88433 350.025,330.34956 347,331.7216 l -5.5,2.49463 43.5,11.26161 c 23.925,6.19388 44.04978,11.32023 44.72173,11.39188 0.67196,0.0717 -6.49362,-10.26381 -15.92351,-22.96769 z m 30.87818,-14.98412 c 5.64634,-22.19758 8.69877,-35.89212 7.93478,-35.59895 -0.68289,0.26205 -12.81672,5.7788 -26.96405,12.25945 -16.3671,7.49748 -25.5536,12.22294 -25.25824,12.99263 0.68605,1.78782 33.92067,46.42953 34.56269,46.42561 0.30163,-0.002 4.6778,-16.23727 9.72482,-36.07874 z m -72.30946,-3.2273 C 383.29376,310.63577 392.17623,306.05 392.10577,305.5 391.98187,304.53297 357.67887,257.98005 357.34646,258.32781 357.07183,258.6151 339,329.36506 339,330.1529 c 0,0.82677 5.02992,-1.35336 33.36694,-14.46229 z m 50.75934,-23.29466 c 13.95555,-6.38223 25.72194,-11.92794 26.14753,-12.32381 0.4256,-0.39587 -18.88022,-5.75573 -42.90182,-11.9108 -24.0216,-6.15506 -43.82033,-11.04634 -43.99717,-10.86949 -0.44392,0.44392 33.97393,46.70015 34.75146,46.70458 0.34445,0.002 12.04445,-5.21825 26,-11.60048 z m -15.47785,-41.39342 c -27.41836,-7.07978 -50.05777,-13.07853 -50.3098,-13.33056 -0.67209,-0.6721 20.38957,-82.80017 21.52526,-83.93586 1.0433,-1.0433 100.24045,23.81031 102.5842,25.70223 1.06287,0.85797 -0.73919,9.02387 -9.39256,42.56166 -9.29518,36.02525 -10.96157,41.52473 -12.63165,41.68743 -1.05813,0.10309 -24.35708,-5.60511 -51.77545,-12.6849 z m 29.31881,-16.20441 c -9.49841,-12.81396 -17.36113,-23.41999 -17.4727,-23.56895 -0.11158,-0.14895 -12.18412,5.22292 -26.82787,11.9375 -14.64376,6.71457 -26.42109,12.41224 -26.17186,12.66148 0.60608,0.60608 86.90259,22.85333 87.37373,22.52496 0.2027,-0.14127 -7.40288,-10.74102 -16.9013,-23.55499 z m 31.57577,-15.14571 c 4.72732,-18.61618 8.3681,-34.07464 8.09061,-34.35213 -0.2775,-0.27749 -12.46545,5.00245 -27.08434,11.7332 l -26.5798,12.23773 2.30648,3.11439 c 31.38635,42.38042 33.21023,44.6878 33.93098,42.92577 0.40751,-0.99625 4.60874,-17.04279 9.33607,-35.65896 z m -78.60537,0.47178 c 13.9907,-6.46252 25.56581,-12.17172 25.72246,-12.68711 0.48908,-1.60913 -34.54561,-47.91116 -35.08075,-46.3629 -2.65806,7.69029 -17.95382,70.91068 -17.14483,70.86294 0.58602,-0.0346 12.51242,-5.3504 26.50312,-11.81293 z M 447.85074,193.5 c 18.79871,-8.61588 25.68422,-12.2051 24.41583,-12.72729 -3.32938,-1.37069 -84.4959,-21.86293 -85.40084,-21.56129 -0.49716,0.16572 6.85055,10.76649 16.32825,23.55725 9.47771,12.79077 17.51168,23.1379 17.85327,22.99363 0.34159,-0.14426 12.40316,-5.6623 26.80349,-12.2623 z M 487,140.58179 c 0,-3.10765 1.11395,-4.28266 3.6081,-3.80588 1.68512,0.32213 2.32483,0.95648 1.9499,1.93354 -0.3069,0.79977 -0.558,1.86732 -0.558,2.37234 0,0.50501 -1.125,0.91821 -2.5,0.91821 -1.49148,0 -2.5,-0.57212 -2.5,-1.41821 z M 478.67643,139.25 c -0.24288,-0.4125 -0.0719,-1.72754 0.38002,-2.92232 1.14043,-3.01521 4.94355,-2.02361 4.94355,1.28895 0,1.86023 -0.53579,2.38337 -2.44098,2.38337 -1.34254,0 -2.63971,-0.3375 -2.88259,-0.75 z m -18.77916,-4.9709 c -1.10763,-0.25503 -1.45776,-1.12742 -1.13343,-2.82406 0.37875,-1.98127 0.0609,-2.45504 -1.64726,-2.45504 -2.28772,0 -2.58394,-0.71353 -1.20219,-2.89572 0.51192,-0.80848 1.59627,-1.1223 2.57723,-0.74587 1.17815,0.4521 1.85294,0.04 2.21755,-1.35428 0.30316,-1.15929 1.36373,-2.00413 2.51587,-2.00413 1.59981,0 1.87393,0.46952 1.39296,2.38588 -0.45937,1.83027 -0.13531,2.50708 1.39159,2.90638 C 468.95238,128.06181 468.54855,131 465.5,131 c -1.51005,0 -2.5,0.5706 -2.5,1.44098 0,1.75177 -0.97336,2.32841 -3.10273,1.83812 z m 30.24572,-1.16957 c -0.86256,-0.54654 -1.10645,-1.64929 -0.66935,-3.02647 0.52959,-1.6686 1.18632,-2.01354 2.85701,-1.50062 2.80389,0.86083 2.67956,0.6625 2.01306,3.21123 -0.6078,2.32423 -1.94717,2.74378 -4.20072,1.31586 z m -8.74765,-1.72336 C 480.17557,130.88272 480.75525,126 482.03479,126 c 2.33598,0 3.96521,1.48204 3.96521,3.60699 0,2.32133 -1.69983,2.97812 -4.60466,1.77918 z m -204.42575,128.6727 c -0.0369,-3.10498 -1.34682,-1.18684 -2.34998,3.44113 -0.61305,2.82821 -0.56351,2.88884 0.86505,1.05887 0.83344,-1.06762 1.50166,-3.09262 1.48493,-4.5 z M 82,274.85926 c -27.775,-7.14814 -50.799775,-13.30321 -51.166168,-13.67794 -0.89828,-0.91871 20.006895,-82.39138 21.4934,-83.76512 0.85326,-0.78854 14.980689,2.48074 51.855278,12 27.87538,7.19609 50.94012,13.34854 51.25499,13.67212 0.51665,0.53095 -19.9974,82.37642 -21.0946,84.16168 -0.62293,1.01358 3.91893,2.08874 -52.3429,-12.39074 z m 45,6.66896 c 0,-0.55174 -31.622589,-43.36719 -33.538979,-45.41015 -1.092111,-1.16424 -5.365618,0.47867 -27.128669,10.42937 -14.207793,6.49623 -26.183349,12.10409 -26.612344,12.46193 -0.428996,0.35784 18.471004,5.61751 42,11.68816 C 125.36824,281.95909 127,282.3494 127,281.52822 Z m 14.6543,-37.5858 c 5.03486,-19.82491 8.8053,-35.90964 8.37875,-35.74385 C 143.3993,210.77691 97,232.67722 97,233.22999 c 0,1.08717 34.02895,46.77128 34.83324,46.76387 0.36672,-0.003 4.78619,-16.22653 9.82106,-36.05144 z M 62.5,244.00427 c 11,-5.08838 21.720083,-9.9927 23.822407,-10.8985 l 3.822407,-1.64689 -17.765282,-23.88075 C 57.805424,187.98708 54.472044,184.03892 53.82259,185.5987 52.911996,187.78564 36,253.75813 36,255.12334 c 0,1.09041 1.137387,0.61318 26.5,-11.11907 z m 57.7982,-26.5592 c 13.86099,-6.35521 25.51388,-11.86771 25.89532,-12.25 0.38144,-0.38229 -18.96856,-5.71755 -43,-11.85613 C 79.162084,187.20035 59.363689,182.31166 59.197087,182.47518 58.657638,183.00465 93.25106,229 94.188727,229 c 0.499219,0 12.248483,-5.19972 26.109473,-11.55493 z M 104.0515,176.08793 C 76.854828,169.05953 54.466298,162.89889 54.299213,162.39764 53.857729,161.07319 74.728771,79.871229 75.781167,78.818833 76.296504,78.303496 97.95928,83.389405 127.52117,90.966165 155.49059,98.134774 178.51536,104 178.68733,104 c 1.09522,0 -0.92523,8.92652 -10.07221,44.5 -9.88501,38.44371 -10.37914,40.00714 -12.70015,40.18343 -1.32823,0.10089 -24.66679,-5.56709 -51.86347,-12.5955 z m 29.52508,-16.38662 -17.54439,-23.51105 -26.503,12.15487 C 74.952543,155.03031 63.020301,160.8375 63.013097,161.25 c -0.0072,0.4125 0.774403,0.76882 1.736903,0.79182 0.9625,0.023 20.65,4.91721 43.75,10.87601 23.1,5.9588 42.13972,10.71276 42.31049,10.56435 0.17077,-0.1484 -7.58449,-10.8498 -17.23391,-23.78087 z m 31.94753,-15.05859 c 4.72706,-18.62151 8.40695,-34.045 8.17753,-34.27442 -0.34702,-0.34702 -52.56074,23.18159 -53.51017,24.11281 -0.16969,0.16644 5.70308,8.33878 13.05061,18.16075 7.34752,9.82198 15.32725,20.53255 17.73274,23.80127 3.8067,5.17276 4.47608,5.69125 5.16412,4 0.43478,-1.06872 4.6581,-17.17891 9.38517,-35.80041 z M 89.483504,144.07024 C 101.57443,138.49475 111.84307,133.55693 112.3027,133.0973 112.76234,132.63766 105.23204,121.5915 95.568716,108.55027 85.90539,95.509043 77.791412,85.437683 77.537653,86.169473 77.283894,86.901263 73.222561,102.575 68.512468,121 c -4.710093,18.425 -8.806479,34.28404 -9.103081,35.2423 -0.643674,2.0796 -2.182486,2.70241 30.074117,-12.17206 z m 55.747646,-25.63952 c 14.15213,-6.49097 25.62713,-11.9032 25.5,-12.02717 -0.66154,-0.64514 -87.02034,-22.447694 -87.402083,-22.06595 -0.834716,0.834716 33.922453,46.77997 35.052203,46.33526 0.6153,-0.24221 12.69775,-5.75117 26.84988,-12.24214 z M 114.57143,49.428571 C 111.20703,46.064169 113.68002,40 118.41644,40 121.15227,40 124,42.893727 124,45.673753 c 0,4.434402 -6.25715,6.926239 -9.42857,3.754818 z M 98.2,45.8 c -1.550085,-1.550085 -1.550085,-7.049915 0,-8.6 3.10203,-3.102026 9.8,-0.04437 9.8,4.473753 0,4.211585 -6.83628,7.08997 -9.8,4.126247 z M 81.332541,40.384769 c -1.537283,-2.34619 -1.561429,-2.886283 -0.234708,-5.25 C 82.245806,33.089512 83.342632,32.5 86,32.5 c 2.657368,0 3.754194,0.589512 4.902167,2.634769 1.326721,2.363717 1.302575,2.90381 -0.234708,5.25 C 89.459657,42.228108 88.082044,43 86,43 83.917956,43 82.540343,42.228108 81.332541,40.384769 Z"
         id="path3" />
      <path
         style="fill:#090816"
         d="M 82.5,448.86906 C 37.04769,447.07672 1,435.63476 1,423 c 0,-8.09121 14.597327,-15.82261 39.699664,-21.02674 5.059815,-1.04899 12.146125,-2.20912 15.747356,-2.57808 3.60123,-0.36895 7.184837,-1.17131 7.963569,-1.783 C 66.556691,395.92641 128,320.98035 128,320.0484 c 0,-0.44636 -11.5875,-3.6162 -25.75,-7.0441 C 26.301445,294.62171 11.093063,290.73481 8.1770327,288.96147 4.4436324,286.69105 1.4365298,282.14044 0.55124362,277.42146 0.08139856,274.91697 7.5881503,242.78844 30.488976,149.28941 47.299625,80.655234 61.717936,22.176453 62.529667,19.336562 64.188473,13.533128 68.615257,9 72.623742,9 74.966854,9 216.11028,42.782133 216.85218,43.52052 c 0.1937,0.192783 -1.1763,0.63726 -3.04445,0.987727 -2.53912,0.476342 -20.71406,-3.554023 -71.99166,-15.964435 C 68.280553,10.746448 69.900605,11.010616 67.099489,16.360457 65.295576,19.805745 3.9996265,270.99642 4.0037381,274.92671 c 0.00426,4.06912 2.8124248,9.25868 6.1985209,11.45501 C 12.326477,287.75955 126.88904,316 130.35425,316 c 1.7866,0 10.44962,-10.17232 26.91381,-31.60286 20.58253,-26.79115 30.38806,-32.48864 65.06855,-37.80799 8.71014,-1.33597 16.04802,-2.64044 16.3064,-2.89882 0.25838,-0.25838 1.3949,-4.45691 2.5256,-9.33006 1.1307,-4.87315 2.35009,-9.18253 2.70974,-9.57641 0.35966,-0.39387 3.28251,-0.0297 6.49522,0.80924 3.21271,0.83895 6.11846,1.2482 6.45723,0.90944 0.60722,-0.60723 4.04559,-13.995 4.12721,-16.06992 0.0231,-0.58706 -2.40111,-1.83749 -5.38711,-2.77875 -11.27621,-3.55451 -22.72639,-13.48542 -29.72184,-25.77818 -2.815,-4.94667 -3.70316,-5.8028 -5.5696,-5.36876 -3.27389,0.76134 -9.88895,-0.98685 -13.85547,-3.66166 -4.4821,-3.02249 -7.70557,-9.79718 -10.43867,-21.9387 l -2.15951,-9.59343 3.25101,-5.40657 c 4.07991,-6.78508 6.66106,-9.70017 10.23518,-11.55932 4.20899,-2.18941 11.6804,-1.90193 16.66541,0.64122 7.37887,3.76443 15.5356,2.5217 20.6323,-3.14346 1.70899,-1.89959 15.51206,-23.706057 27.23406,-43.025082 2.65096,-4.36906 8.33312,-9.553512 12.01732,-10.964717 5.10454,-1.955257 12.72665,-1.303605 18.36501,1.570116 9.2715,4.725431 8.42828,2.88931 15.90747,34.638733 3.77654,16.03153 6.85655,30.78797 6.84447,32.79209 -0.0297,4.9184 -3.00477,11.14711 -6.88316,14.41056 -4.01414,3.37768 -5.12008,3.69287 -48.34488,13.77837 -19.6625,4.58778 -35.75,8.75981 -35.75,9.27118 0,2.27168 9.59912,14.06722 14.30943,17.58364 9.69469,7.23745 13.23488,8.57585 22.69057,8.57838 5.61501,0.002 10.36676,-0.62413 14,-1.84332 24.36568,-8.17627 46.84789,-35.00255 58.44388,-69.73656 C 347.67371,116.22858 351,97.771777 351,86.971212 V 79.14117 l -20.12119,-4.820585 c -17.88836,-4.285649 -22.49175,-6.040975 -20.65625,-7.876474 0.25829,-0.258297 9.30508,1.644914 20.10397,4.229358 10.79889,2.584445 19.92288,4.410455 20.27553,4.057801 1.17306,-1.173061 -1.70282,-17.10588 -4.731,-26.210397 -5.24699,-15.775645 -13.24868,-26.767774 -24.34315,-33.440819 -4.89304,-2.943043 -6.80566,-3.484767 -13.71571,-3.884784 -16.1153,-0.9329 -31.89924,5.446522 -46.00004,18.591915 -4.53272,4.225598 -6.24252,4.945561 -18.20025,7.663729 l -2.88808,0.656505 4.38808,-5.242931 C 267.55855,6.0450121 292.09573,-4.1144301 317.46489,2.9072592 329.06438,6.1177723 336.4364,10.419153 345.02874,18.99005 353.19738,27.138292 359.1081,37.087271 363.56448,50.189578 366.24322,58.0654 369,71.431336 369,76.54308 c 0,2.293029 0.54211,3.488233 1.75,3.858304 0.9625,0.294888 35.18107,8.610627 76.04127,18.479419 40.8602,9.868797 75.37537,18.653587 76.70038,19.521767 1.32502,0.86819 2.87989,3.27027 3.45528,5.33797 0.94596,3.3994 -1.97911,16.11453 -30.54083,132.75946 -17.91529,73.16535 -32.39211,130.31497 -33.44713,132.03809 -2.57338,4.20296 -8.74585,7.46488 -14.09512,7.44874 -2.40012,-0.007 -45.76385,-10.06839 -96.36385,-22.35811 -89.07695,-21.635 -92.08966,-22.29385 -94.82207,-20.73683 -5.23467,2.98289 -6.2848,4.7243 -8.11867,13.46301 -1.79473,8.55219 -1.83751,8.62797 -5.43412,9.62699 -8.8619,2.46157 -17.05673,0.63789 -28.58557,-6.36144 C 208.48376,365.33677 207.438,365 201.19164,365 h -6.73742 l -16.22711,18.14513 C 169.3022,393.12495 162,401.60117 162,401.98118 c 0,0.38 2.8125,1.45375 6.25,2.38611 41.13319,11.15656 37.77336,28.95352 -7.36965,39.03694 -21.66062,4.83824 -47.89153,6.66712 -78.38035,5.46483 z m 30,-7.933 c 5.44007,-0.63969 9.89325,-1.72633 11.25826,-2.74718 1.24204,-0.92888 17.29555,-18.51869 35.67447,-39.08846 l 33.41621,-37.39957 13.82553,-0.23098 c 16.00731,-0.26744 24.73623,-1.51561 35.59535,-5.08988 9.10957,-2.99841 16.26259,-7.51532 19.46113,-12.28909 1.25629,-1.87501 2.15141,-3.54187 1.98915,-3.70413 -0.16226,-0.16227 -4.26621,1.07378 -9.11989,2.74677 -5.88642,2.02897 -9.15802,2.70865 -9.8254,2.04127 -1.65621,-1.65621 -0.15505,-2.76416 5.62333,-4.15037 3.02024,-0.72455 8.99681,-3.18458 13.28126,-5.46674 8.11154,-4.32069 12.52648,-9.06653 13.9282,-14.97212 0.61524,-2.59206 0.48163,-2.82511 -1.20792,-2.10692 -6.66791,2.83439 -21.78525,7.61245 -25.84618,8.16906 -8.36736,1.14688 -4.91003,-1.66171 5.69545,-4.62675 19.05081,-5.32614 28.38264,-12.0749 32.7177,-23.66139 3.52602,-9.42414 3.1857,-9.80502 -5.21665,-5.83834 -7.15298,3.37686 -29.50553,9.74788 -30.98726,8.83213 -2.18603,-1.35105 -0.35894,-3.18684 3.79112,-3.80918 7.69128,-1.15337 25.68295,-7.2978 30.69826,-10.48392 13.99913,-8.89333 12.06861,-24.923 -4.20771,-34.93793 -4.69443,-2.88851 -4.96709,-2.94133 -5.55885,-1.07685 -0.37142,1.17025 0.01,2.5929 0.94608,3.52901 0.96988,0.96988 1.56836,3.32369 1.56836,6.16835 0,4.11525 -0.45348,5.03449 -4.30335,8.72332 -3.03614,2.90913 -6.33006,4.78866 -11.1859,6.38271 -9.69573,3.18289 -25.71038,5.42279 -33.01075,4.61709 -7.23485,-0.79848 -14.5,-3.75952 -14.5,-5.90974 0,-1.94087 0.89731,-1.95304 4.68495,-0.0635 1.64572,0.82099 4.34814,1.7639 6.00538,2.09535 l 3.01317,0.60263 3.58665,-14.32362 c 1.97266,-7.87799 3.41178,-14.49849 3.19804,-14.71222 -0.59351,-0.59351 -28.19949,3.72109 -34.90161,5.45485 -8.24964,2.13409 -18.31391,7.41757 -25.46403,13.36796 -3.50213,2.9145 -11.36144,11.90631 -18.60365,21.28437 -6.89687,8.93088 -17.75742,22.53796 -24.13456,30.23796 -6.37714,7.7 -15.10129,18.275 -19.38699,23.5 -4.28571,5.225 -22.454377,27.275 -40.374817,49 -17.92044,21.725 -32.441662,39.94981 -32.269381,40.49958 0.835644,2.66666 22.339908,7.82567 39.146848,9.39159 13.138465,1.22412 20.87635,1.23532 31,0.0449 z M 455.0156,391.1369 c 1.91642,-1.0247 4.24364,-3.1622 5.1716,-4.75 C 462.08859,383.13351 524,131.56979 524,127.0973 c 0,-6.36885 1.99773,-5.72863 -78.3755,-25.11725 -41.18152,-9.934316 -75.02425,-17.91363 -75.20607,-17.73181 -0.18182,0.18182 -0.78782,5.961345 -1.34665,12.843389 -1.22358,15.068181 -3.0232,24.021431 -7.54384,37.531181 -10.8411,32.39814 -31.38231,58.00277 -56.02794,69.83884 -10.84361,5.20765 -16.44902,6.66872 -27,7.03765 l -8,0.27974 -2.11047,8.36048 c -1.16076,4.59826 -1.83576,8.64049 -1.5,8.98271 0.33576,0.34223 3.80642,1.3869 7.71257,2.32148 l 7.10211,1.69924 -1.33649,5.67853 c -1.79277,7.61723 -1.83987,7.43748 2.46846,9.42029 C 292.01153,252.46451 300,263.0787 300,271.04712 c 0,4.36032 -1.61647,9.4621 -4.15295,13.10725 -1.10502,1.58801 -1.84737,4.40017 -1.84784,7 -9.8e-4,5.384 -4.44341,15.11778 -9.40724,20.61215 -2.34435,2.59491 -3.5996,4.97579 -3.61393,6.85468 -0.0328,4.29725 -3.1842,10.40685 -7.54574,14.6288 -2.13069,2.0625 -4.18885,3.75 -4.57369,3.75 -0.38483,0 -0.99157,1.32887 -1.3483,2.95304 -0.35672,1.62417 -1.56878,4.12287 -2.69346,5.55266 -1.12467,1.42979 -1.88106,2.74064 -1.68085,2.91299 1.00909,0.86872 181.86708,44.36777 184.8796,44.46631 1.93358,0.0632 5.08358,-0.72339 7,-1.7481 z m -70.96078,-42.04182 c -27.19486,-7.0214 -49.60505,-13.24576 -49.80043,-13.8319 -0.27298,-0.81896 17.75537,-73.05085 20.34488,-81.51318 0.29453,-0.9625 1.2474,-1.75 2.1175,-1.75 2.11769,0 100.60315,25.15613 101.43525,25.90959 0.35862,0.32473 -4.14138,19.26541 -10,42.09041 -9.44375,36.79263 -10.87888,41.52049 -12.65202,41.68064 -1.1,0.0994 -24.25033,-5.56415 -51.44518,-12.58556 z m 44.77265,4.65492 c -1.32545,-1.7875 -9.31922,-12.56212 -17.76393,-23.94361 l -15.35401,-20.6936 -2.78272,1.1936 c -12.16163,5.21656 -50.88054,23.31761 -50.90102,23.79617 -0.0142,0.33141 14.48671,4.30431 32.22421,8.82866 17.7375,4.52434 36.975,9.5087 42.75,11.07635 5.775,1.56764 11.34091,2.88225 12.36869,2.92135 1.70633,0.0649 1.65931,-0.21129 -0.54122,-3.17892 z m 15.94393,-33.8976 c 5.09927,-19.87861 9.04396,-36.37037 8.76597,-36.64836 -0.64349,-0.64349 -54.63302,24.07113 -54.29151,24.85286 0.59365,1.35887 35.29964,47.84389 35.75414,47.8889 0.275,0.0272 4.67213,-16.2148 9.7714,-36.0934 z m -77.81915,-1.30642 c 15.35287,-7.03037 25.9266,-12.4193 25.67167,-13.08364 -0.23841,-0.62128 -8.19976,-11.5923 -17.69189,-24.38005 -11.45973,-15.43847 -17.49992,-22.8022 -17.97717,-21.91636 -0.39531,0.73374 -3.49661,12.2804 -6.89178,25.65926 -3.39517,13.37885 -7.47007,29.26891 -9.05535,35.31125 -2.17544,8.29179 -2.54857,10.90972 -1.52147,10.67481 0.74847,-0.17119 13.10816,-5.69056 27.46599,-12.26527 z m 81.93644,-37.66178 c 1.31378,-0.51709 2.21378,-1.11408 2,-1.32665 -0.86264,-0.85775 -87.97631,-22.80327 -88.48788,-22.2917 -0.3034,0.30341 7.32142,11.13401 16.94407,24.06801 l 17.49571,23.51636 24.82971,-11.51294 c 13.65633,-6.33211 25.90461,-11.936 27.21839,-12.45308 z m -40.33116,-29.97453 c -27.46835,-7.09203 -50.24744,-13.23549 -50.6202,-13.65214 -0.66436,-0.74257 20.00585,-82.55916 21.14019,-83.67686 0.31764,-0.31297 23.36465,5.27834 51.21558,12.42514 C 458.14403,173.15262 481.17165,179 481.46558,179 c 0.29393,0 0.53442,0.57896 0.53442,1.28657 0,0.98852 -13.48221,54.63042 -20.0978,79.96343 -0.53861,2.0625 -1.52444,3.70596 -2.19074,3.65213 -0.6663,-0.0538 -23.68557,-5.90043 -51.15393,-12.99246 z m 45.70349,6.84033 c -0.54113,-0.6875 -8.29783,-11.15 -17.23711,-23.25 -8.93928,-12.1 -16.63023,-22.4061 -17.09102,-22.90245 -0.48493,-0.52236 -12.20791,4.30763 -27.83408,11.46792 -14.84797,6.80371 -26.76868,12.598 -26.49047,12.8762 0.53949,0.53949 85.94758,22.73548 88.2641,22.93822 0.96017,0.084 1.0769,-0.25539 0.38858,-1.12989 z m 14.42596,-37.55827 c 5.05285,-19.6081 9.0591,-35.77899 8.90278,-35.9353 -0.37297,-0.37298 -52.84143,23.66171 -53.91431,24.697 -0.4535,0.43762 7.11386,11.47226 16.81636,24.52143 9.7025,13.04917 17.94854,23.42025 18.32455,23.04686 0.376,-0.3734 4.81778,-16.72189 9.87062,-36.32999 z m -79.1487,0.35621 c 14.82895,-6.84863 26.8608,-12.88888 26.73746,-13.42277 C 415.94191,205.68016 381.82424,160 381.07883,160 c -0.35207,0 -4.57435,15.4125 -9.38285,34.25 -4.8085,18.8375 -9.00969,35.2625 -9.33599,36.5 -0.32629,1.2375 -0.41104,2.25 -0.18834,2.25 0.2227,0 12.53768,-5.60343 27.36663,-12.45206 z m 58.05835,-26.68593 C 471.497,182.87468 476.69312,180 472.65287,180 c -0.74092,0 -20.63132,-4.9346 -44.20089,-10.96577 -23.56957,-6.03118 -43.0147,-10.80484 -43.2114,-10.60814 -0.1967,0.1967 5.65397,8.3938 13.0015,18.21577 7.34752,9.82198 15.26305,20.44564 17.59007,23.60814 2.32701,3.1625 4.48523,5.75 4.79602,5.75 0.3108,0 12.4466,-5.4621 26.96846,-12.13799 z m 40.6195,-52.70727 c -1.74245,-1.10561 -0.38423,-4.33286 1.6597,-3.94362 1.97867,0.37682 2.85227,4.79572 0.94372,4.77357 -0.72575,-0.008 -1.89729,-0.3819 -2.60342,-0.82995 z m -8.11185,-2.06913 C 478.17936,137.86676 479.48751,135 481.96862,135 c 2.12135,0 2.44138,0.76799 1.42439,3.41821 -0.68984,1.7977 -1.30614,1.92277 -3.28873,0.6674 z M 459.41064,131.5 c 0.51411,-2.04838 0.26272,-2.5 -1.39159,-2.5 C 456.66032,129 456,128.33968 456,126.98095 c 0,-1.62333 0.46333,-1.90277 2.36395,-1.42574 1.85451,0.46545 2.48678,0.1236 2.93393,-1.5863 0.71685,-2.74125 3.31038,-2.0345 2.9033,0.79116 -0.19784,1.37328 0.39351,2.2939 1.75,2.72444 3.06253,0.972 2.70357,3.89664 -0.38316,3.12192 -1.86735,-0.46868 -2.57951,-0.14559 -3.06739,1.39159 -0.97824,3.08216 -3.87152,2.61584 -3.08999,-0.49802 z m 31.26593,1.79653 c -1.12606,-0.29115 -1.60412,-1.04296 -1.25,-1.96578 0.31539,-0.82188 0.57343,-1.86539 0.57343,-2.31892 0,-0.45352 0.9,-0.58924 2,-0.30158 1.29427,0.33846 2,1.36402 2,2.90638 0,2.43067 -0.14205,2.50248 -3.32343,1.6799 z m -7.98504,-2.07928 c -2.66057,-0.56849 -1.87172,-4.83461 0.80847,-4.37218 2.71812,0.46897 2.96051,0.84355 1.90709,2.94718 -0.51899,1.03639 -1.68085,1.64608 -2.71556,1.425 z M 276.39301,264.41821 c 0.95283,-2.48303 0.73373,-6.95279 -0.28766,-5.86821 -1.37322,1.45819 -2.41217,7.45 -1.29179,7.45 0.53485,0 1.24561,-0.7118 1.57945,-1.58179 z M 81,274.34132 c -26.675,-6.88379 -48.912,-12.91118 -49.415557,-13.3942 -0.851826,-0.8171 18.754179,-80.25895 20.508015,-83.09672 0.962721,-1.55772 101.875922,23.97339 102.659302,25.97287 0.28515,0.7278 -4.15725,19.6278 -9.872,42 -10.11708,39.60654 -10.45608,40.68143 -12.88511,40.85537 C 130.62259,286.7769 107.675,281.2251 81,274.34132 Z m 29.44808,-16.01597 c -9.75401,-13.10394 -18.182319,-23.69211 -18.729585,-23.52926 -2.474826,0.73643 -51.31713,23.4296 -52.11314,24.21287 -0.52021,0.51189 0.316847,1.1811 2,1.59896 C 43.19741,261.00317 63.175,266.13689 86,272.0162 c 22.825,5.8793 41.65359,10.56474 41.84131,10.41207 0.18773,-0.15266 -7.63923,-10.99897 -17.39323,-24.10292 z m 31.26445,-13.53067 c 5.06689,-19.91163 9.03088,-36.38461 8.80887,-36.60661 -0.31327,-0.31327 -52.840217,23.28737 -54.384889,24.43542 -0.447548,0.33263 35.166619,48.3679 35.863489,48.37154 0.275,0.001 4.64564,-16.28872 9.71253,-36.20035 z m -78.488871,-0.8027 c 14.369141,-6.60441 26.324633,-12.20694 26.567761,-12.45007 0.669373,-0.66937 -35.026688,-48.51454 -35.826617,-48.02016 -0.38238,0.23633 -0.96096,1.90311 -1.285733,3.70397 -0.324773,1.80085 -4.388724,18.01178 -9.031003,36.02428 -4.642279,18.0125 -8.01517,32.75 -7.495313,32.75 0.519857,0 12.701764,-5.40361 27.070905,-12.00802 z M 121,217.50121 c 26.2867,-12.04845 26.6199,-12.21464 25.91082,-12.92372 -0.71638,-0.71639 -87.01643,-22.71239 -87.82671,-22.38511 -1.143443,0.46183 34.257574,47.82016 35.41589,47.37822 0.55,-0.20984 12.475,-5.64107 26.5,-12.06939 z M 105.19932,176.04338 C 78.083949,169.03377 55.522874,162.89395 55.0636,162.39932 54.604327,161.90469 59.039167,142.825 64.918801,120 72.939238,88.864307 75.970041,78.528232 77.054522,78.613044 c 3.139426,0.245519 100.496898,25.538376 101.267068,26.308546 0.45239,0.45239 -3.06067,16.0676 -7.8068,34.70047 -13.04329,51.20674 -12.51391,49.39215 -14.37434,49.27199 -0.90225,-0.0583 -23.82576,-5.84107 -50.94113,-12.85067 z M 151,183.37864 c 0,-0.34175 -7.5375,-10.76897 -16.75,-23.1716 -9.2125,-12.40264 -17.02591,-22.96243 -17.36313,-23.4662 C 116.24834,135.78694 63,159.73944 63,160.98057 c 0,0.5944 83.03686,22.50436 86.75,22.88971 0.6875,0.0713 1.25,-0.14989 1.25,-0.49164 z m 14.47291,-37.54243 c 5.1216,-19.98491 9.21756,-36.44155 9.10213,-36.57029 -0.22267,-0.24836 -51.05816,23.03854 -53.52544,24.51912 -1.14149,0.68499 2.36112,6.01224 16.44602,25.0133 9.84303,13.27862 18.06942,23.96996 18.28086,23.75852 0.21143,-0.21144 4.57483,-16.73573 9.69643,-36.72065 z m -79.345412,0.0849 c 14.504872,-6.64338 26.674402,-12.38088 27.043392,-12.75 C 113.80507,132.53673 79.640674,85.794398 78.136089,85.237913 77.551941,85.02186 73.842258,98.943415 59.213464,156.25 c -0.2457,0.9625 -0.224368,1.75 0.0474,1.75 0.271771,0 12.361755,-5.4355 26.866631,-12.07889 z m 55.469212,-25.50543 c 12.59681,-5.82138 24.43488,-11.22729 26.30683,-12.01313 1.87195,-0.78584 3.11671,-1.71563 2.76614,-2.0662 -0.7705,-0.7705 -88.021608,-23.225713 -88.519683,-22.781694 -0.642257,0.572552 34.332763,47.330154 35.446713,47.388194 0.60319,0.0314 11.40319,-4.7058 24,-10.52717 z M 114.65499,49.171259 c -2.1712,-2.399142 -2.10048,-5.458119 0.17375,-7.516271 2.54653,-2.304582 5.7712,-2.064245 7.61456,0.567518 2.05737,2.937312 1.96362,4.37057 -0.4433,6.777494 -2.49115,2.491152 -5.18862,2.554047 -7.34501,0.171259 z m -16.000002,-4 C 97.744744,44.165452 97,42.435196 97,41.326247 97,38.950766 99.952147,36 102.32874,36 104.407,36 108,39.4845 108,41.5 c 0,2.089856 -3.62406,5.5 -5.84501,5.5 -1.01476,0 -2.589759,-0.822933 -3.500002,-1.828741 z M 82.571429,41.428571 C 79.524793,38.381936 81.599908,32 85.63717,32 89.003861,32 91,34.047196 91,37.5 c 0,4.987929 -5.0264,7.330743 -8.428571,3.928571 z"
         id="path2" />
    </g>
  </g>
</svg>
