<?xml version="1.0" encoding="UTF-8" standalone="no"?>
<!-- Created with Inkscape (http://www.inkscape.org/) -->

<svg
   version="1.1"
   id="svg1"
   width="584"
   height="450"
   viewBox="0 0 584 450"
   sodipodi:docname="BUSINESS_23.svg"
   inkscape:version="1.3.2 (091e20e, 2023-11-25, custom)"
   xmlns:inkscape="http://www.inkscape.org/namespaces/inkscape"
   xmlns:sodipodi="http://sodipodi.sourceforge.net/DTD/sodipodi-0.dtd"
   xmlns="http://www.w3.org/2000/svg"
   xmlns:svg="http://www.w3.org/2000/svg">
  <defs
     id="defs1" />
  <sodipodi:namedview
     id="namedview1"
     pagecolor="#ffffff"
     bordercolor="#000000"
     borderopacity="0.25"
     inkscape:showpageshadow="2"
     inkscape:pageopacity="0.0"
     inkscape:pagecheckerboard="0"
     inkscape:deskcolor="#d1d1d1"
     showgrid="false"
     inkscape:zoom="1.7488889"
     inkscape:cx="291.89962"
     inkscape:cy="225"
     inkscape:window-width="1920"
     inkscape:window-height="1001"
     inkscape:window-x="-9"
     inkscape:window-y="-9"
     inkscape:window-maximized="1"
     inkscape:current-layer="g1" />
  <g
     inkscape:groupmode="layer"
     inkscape:label="Image"
     id="g1">
    <g
       id="g2">
      <path
         style="fill:#fefefe"
         d="M 0,225 V 0 H 292 584 V 225 450 H 292 0 Z"
         id="path6" />
      <path
         style="fill:#9faec0"
         d="M 49.224838,448.54526 C 32.253663,444.67805 16.158463,432.12147 8.7897017,417 2.456129,404.00285 0.5876224,397.42514 0.5517686,388 0.51457459,378.22255 2.4526226,371.47696 7.3860243,364.21261 9.1462737,361.62067 34.60723,325.3 63.965927,283.5 c 29.358696,-41.8 54.953903,-78.25 56.878243,-81 17.06826,-24.39163 19.47354,-27.26219 28.64918,-34.19108 11.01154,-8.31525 23.1219,-13.26592 37.64629,-15.38967 l 8.14509,-1.19096 -0.6705,-11.86415 C 194.1681,131.97017 194.28778,128 194.97187,128 195.53734,128 196,127.40344 196,126.67431 c 0,-0.72912 1.0415,-2.30412 2.31445,-3.5 C 200.6286,121.00028 200.6356,121 251.88019,121 c 32.71043,0 51.93638,0.36665 53.14504,1.0135 1.04156,0.55743 2.64646,2.59971 3.56643,4.53841 1.55601,3.27905 1.56313,5.24691 0.10209,28.21475 -0.86382,13.57942 -1.43642,24.824 -1.27245,24.98797 0.16397,0.16397 2.94875,1.28255 6.18841,2.48572 7.87611,2.92512 28.48527,3.18741 38.39029,0.4886 11.31262,-3.08233 31.53789,-13.85244 35.91273,-19.1238 1.88171,-2.26731 4.37889,-2.00523 10.37051,1.08839 9.95503,5.14003 21.01237,2.92652 26.67689,-5.3403 2.89644,-4.22708 3.95494,-13.72986 2.04338,-18.34476 -1.2421,-2.9987 -7.52377,-9.34857 -10.09654,-10.20616 -1.08431,-0.36143 -0.59737,-2.77544 2.29565,-11.38053 4.34287,-12.91759 6.20095,-25.108039 5.22844,-34.302595 -1.12618,-10.647411 -1.15881,-10.678035 -6.9492,-6.523681 -9.80327,7.03341 -25.63461,13.651735 -27.70445,11.581899 -1.74419,-1.744196 -0.12816,-3.88903 3.43367,-4.557233 C 396.60371,84.983719 411,78.492001 411,77.598624 c 0,-0.263713 -3.21295,0.613318 -7.1399,1.948957 -17.2073,5.852582 -40.74662,7.263489 -56.83578,3.406641 C 334.99724,80.071124 319,72.04623 319,68.896035 c 0,-2.337086 3.11856,-1.676236 9.55927,2.025691 3.8174,2.194128 10.99073,5.201324 15.94073,6.682656 7.95251,2.379862 10.68762,2.695822 23.5,2.714728 14.37555,0.02121 21.83779,-1.047402 33,-4.725692 l 4.5,-1.482889 -7.5,0.691781 c -11.24612,1.037312 -29.54163,0.670696 -38,-0.761467 -15.78602,-2.672874 -33.7647,-9.933348 -44.5,-17.970788 -2.75,-2.058906 -6.03134,-4.292861 -7.29186,-4.964344 -2.77744,-1.479552 -10.75175,-1.640026 -14.26451,-0.287056 -11.46023,4.414004 -15.37327,18.882735 -8.00366,29.594087 l 3.26561,4.746403 -3.45056,7.670428 c -3.0481,6.775793 -5.15034,13.341447 -7.17873,22.420427 L 277.9619,118 260.73095,117.9683 243.5,117.9366 l -4.13846,-6.21833 c -5.8024,-8.71851 -7.04716,-11.46591 -8.27335,-18.260805 -2.07901,-11.520692 1.88839,-24.127898 10.11538,-32.143623 6.95458,-6.775992 54.55389,-40.823071 62.7119,-44.856895 C 318.85823,9.0683896 331.98541,6 348.65263,6 c 17.86828,0 35.26883,4.909933 50.46505,14.239785 6.20742,3.811097 11.6256,8.492671 20.88232,18.043337 6.875,7.093319 13.26864,14.318928 14.20808,16.056911 1.98141,3.665608 2.27449,9.977208 0.67621,14.562048 -0.9909,2.842499 -0.71334,4.080781 2.48125,11.069397 1.97832,4.327879 4.81176,11.842292 6.29652,16.698696 2.44834,8.008106 2.70601,10.365346 2.76875,25.329826 0.0542,12.93276 -0.31788,17.90527 -1.72117,23 -1.39461,5.06317 -8.32185,22.12262 -17.51441,43.13208 -0.16763,0.3831 27.28237,17.22833 61,37.43384 33.71762,20.20551 64.28226,39.11498 67.92141,42.02104 28.09652,22.43658 36.04454,66.12974 18.26567,100.41304 -11.27784,21.74726 -31.7601,35.45412 -61.38921,41.08204 -6.21839,1.18116 -15.12917,-0.25222 -25.24305,-4.06057 -5.8941,-2.21941 -22.17076,-12.3627 -24.6134,-15.33857 -1.15851,-1.41143 -16.00626,-6.4782 -62.78785,-21.42625 l -8.15121,-2.60454 -12.84879,5.60974 c -23.23108,10.1426 -30.41679,10.12284 -59.98753,-0.16497 -10.9237,-3.80041 -20.63965,-7.22156 -21.591,-7.60257 -1.43361,-0.57414 -2.72996,1.4214 -7.5723,11.65648 -6.40569,13.53947 -10.24082,17.97584 -17.14737,19.83559 -3.932,1.05877 -8.59573,0.55864 -9.57564,-1.02689 -0.27837,-0.45043 0.17407,-5.01307 1.00543,-10.13922 0.83136,-5.12615 1.51338,-9.76726 1.51559,-10.31359 0.002,-0.54632 -3.3134,3.95368 -7.36803,10 C 251.10967,394.71806 247.45686,398 242.49684,398 c -4.01497,0 -9.30636,-2.86895 -11.1982,-6.07159 -1.13167,-1.91576 -2.62883,-2.9262 -4.63616,-3.12895 -1.81238,-0.18306 -3.73345,-1.33378 -4.94244,-2.9605 -1.65984,-2.23335 -1.80464,-3.15752 -0.90089,-5.75 0.59224,-1.69893 0.8403,-3.08896 0.55123,-3.08896 -0.28907,0 -8.84706,4.5 -19.01775,10 -17.96087,9.71268 -18.67693,10 -24.92241,10 C 173.8936,397 171,396.73332 171,396.40739 c 0,-0.32594 1.6875,-2.75231 3.75,-5.39193 3.18514,-4.07639 6.71927,-6.43486 23.46239,-15.65738 19.06977,-10.50411 19.64355,-10.91078 17.60106,-12.47473 -2.105,-1.6118 -2.08991,-1.65453 5.03761,-14.25839 C 224.78298,341.672 228,335.76199 228,335.49161 c 0,-0.27039 -1.6875,-0.47486 -3.75,-0.45439 -3.57866,0.0355 -5.44051,1.71505 -40.75,36.75989 -20.35,20.19747 -38.65017,39.02448 -40.66705,41.83781 -3.54698,4.94766 -4.54564,5.54706 -30.5,18.30629 C 97.574827,439.19634 82.8,446.0453 79.5,447.16113 c -7.82443,2.64568 -21.912348,3.28976 -30.275162,1.38413 z M 248.70983,389.53585 c 1.5705,-1.90527 9.59076,-13.5913 17.82281,-25.96894 9.89245,-14.87421 15.56072,-22.51533 16.71736,-22.53586 3.00468,-0.0533 1.96334,2.87144 -4.57574,12.8516 -6.22821,9.50568 -6.35259,9.83158 -8.06646,21.13595 -0.9574,6.31477 -1.98459,12.4939 -2.28267,13.7314 -0.45055,1.87055 -0.12699,2.25 1.91858,2.25 5.63741,0 8.9163,-3.80008 16.17837,-18.75 3.80715,-7.8375 7.46882,-14.25 8.13705,-14.25 0.66823,0 9.7033,2.98614 20.07792,6.63588 24.38473,8.5784 27.35138,9.33804 36.52386,9.35225 8.97208,0.0139 14.95815,-1.67261 30.06592,-8.47077 l 10.72683,-4.82683 41.21883,13.25582 c 45.8541,14.7465 47.82577,15.11518 56.7233,10.60646 7.71815,-3.91108 12.95659,-12.18356 13.06032,-20.62467 0.10133,-8.24629 -2.3937,-12.17109 -19.69099,-30.97477 -9.08331,-9.87435 -16.79636,-17.94831 -17.14011,-17.94213 -0.34376,0.006 -15.70001,1.58062 -34.12501,3.49874 -18.425,1.91813 -40.925,4.20943 -50,5.09179 l -16.5,1.60428 -38.47421,-13.05078 -38.4742,-13.05079 -12.5258,6.57572 c -6.88918,3.61665 -17.98342,9.44797 -24.65386,12.9585 l -12.12807,6.38277 -9.27483,16.73926 c -5.10116,9.2066 -9.45758,17.07677 -9.68095,17.48927 -1.1936,2.2043 4.98683,0.24927 9.33065,-2.95152 4.1016,-3.0223 6.09741,-5.69061 10.87663,-14.54154 l 5.85328,-10.84002 9.57568,-5.34677 c 20.41965,-11.40172 19.87918,-11.14999 21.17523,-9.86253 1.89441,1.88183 0.21539,3.21065 -13.68992,10.83455 -14.94339,8.19307 -13.70081,6.62666 -28.54836,35.98837 -10.82986,21.41656 -11.1094,22.60925 -5.08801,21.70823 2.41747,-0.36175 3.79312,-2.47928 12.12852,-18.66937 l 9.40178,-18.26134 13.85861,-7.75704 C 277.83078,332.46006 282,331.0747 282,333.95607 c 0,1.20355 -4.00875,3.76894 -17.26781,11.05049 l -9.76782,5.36424 -9.0045,17.47943 c -10.3863,20.16176 -11.00518,21.91225 -8.4162,23.80536 3.4775,2.54281 8.03625,1.67739 11.16616,-2.11974 z m -93.45741,-19.86851 c 55.93589,-42.29098 56.80616,-43.04897 62.3412,-54.2983 4.74765,-9.64905 5.38079,-14.19949 5.40817,-38.86904 0.014,-12.65 0.29555,-24.00749 0.62559,-25.23887 0.33003,-1.23138 6.33513,-7.34464 13.34466,-13.58502 l 12.7446,-11.34614 8.87135,-1.76183 c 4.87924,-0.96901 10.53826,-2.61223 12.5756,-3.6516 3.50735,-1.78931 6.83641,-5.31523 6.83641,-7.24067 0,-0.50044 -8.24357,-0.56273 -19.1383,-0.1446 l -19.13829,0.7345 -14.81539,10.86712 C 216.75955,231.1098 209.64834,236 209.10533,236 c -1.71528,0 -2.32522,-2.03012 -1.06586,-3.54756 0.66641,-0.80297 7.7682,-6.28019 15.78175,-12.17158 l 14.5701,-10.71163 18.39724,-0.55214 18.39724,-0.55214 3.4071,-3.71779 c 1.8739,-2.04478 3.40758,-4.5119 3.40816,-5.48247 9.9e-4,-1.64147 -1.51369,-1.74328 -21.69288,-1.45802 l -21.69394,0.30666 -16.81647,11.94334 C 212.54871,216.6255 204.3105,222 203.49065,222 202.67079,222 202,221.18978 202,220.19951 c 0,-1.19744 5.77775,-5.8476 17.25,-13.88348 l 17.25,-12.08299 12.72321,-0.71567 12.72321,-0.71567 3.52679,-3.90373 c 3.96073,-4.38406 4.95762,-9.92135 1.77679,-9.86938 -0.9625,0.0157 -8.76348,1.51819 -17.33551,3.33879 -12.37408,2.62812 -16.49512,3.93373 -20,6.33633 -13.12762,8.99898 -30.39848,19.32454 -31.57054,18.87478 -2.66676,-1.02333 -1.1883,-3.15339 5.01787,-7.22937 5.76974,-3.78937 6.52449,-4.70386 8.66588,-10.5 1.29012,-3.49202 2.82417,-6.6712 3.40899,-7.06484 0.58482,-0.39365 5.00349,-2.1373 9.81927,-3.87478 6.43267,-2.32083 9.5504,-4.06386 11.75,-6.56907 2.93331,-3.34086 3.85152,-6.69245 2.12569,-7.75907 -1.20345,-0.74377 -39.00555,5.87013 -40.01919,7.00181 -0.45166,0.50425 -4.54065,16.89183 -9.08665,36.41683 -4.546,19.525 -9.89903,42.39795 -11.89563,50.82878 l -3.63018,15.32879 -37,17.97502 c -20.35,9.88626 -37.47104,18.58674 -38.046754,19.33439 -0.575715,0.74765 -2.319396,11.73748 -3.874846,24.42185 -2.394047,19.52293 -2.648051,23.77748 -1.655007,27.72122 1.822259,7.23684 4.531335,11.71436 10.137067,16.7544 5.97186,5.36921 11.70579,7.46579 20.69196,7.5659 L 131.00484,388 Z M 310,282.24674 c 22.0472,-7.26861 39.14635,-23.59993 46.19583,-44.12142 3.93084,-11.44292 2.83045,-34.49936 -1.99877,-41.8801 -0.63943,-0.97727 -4.32506,-0.46979 -16.66447,2.29456 -10.53541,2.3602 -16.17765,3.21516 -16.84093,2.55188 -0.66328,-0.66328 -0.27289,-2.74096 1.16522,-6.20145 1.18947,-2.86219 2.04578,-5.25795 1.9029,-5.32391 -0.14288,-0.066 -3.18478,-0.85967 -6.75978,-1.76379 -3.575,-0.90411 -7.2546,-1.94007 -8.17689,-2.30211 -2.241,-0.87971 -2.27974,-0.51132 -5.31028,50.4996 -1.3887,23.375 -2.71915,43.96404 -2.95655,45.75341 -0.41001,3.0903 -0.2969,3.22141 2.25604,2.61516 1.47822,-0.35104 4.71268,-1.30586 7.18768,-2.12183 z M 323,163.69356 C 321.075,163.0371 319.5,161.825 319.5,161 c 0,-1.23384 1.95182,-1.52512 11,-1.64159 6.05,-0.0779 12.35,-0.30288 14,-0.5 5.08131,-0.60706 3.69622,2.40401 -2,4.34782 -5.80457,1.98079 -14.48447,2.19771 -19.5,0.48733 z m 76.66287,-12.12974 c -0.86746,-2.26056 2.94684,-6.24935 7.71862,-8.07171 5.50684,-2.10308 9.11851,-1.70387 9.11851,1.00789 0,1.59768 -0.85597,2.11424 -4.25523,2.56792 -2.6977,0.36005 -5.27993,1.54965 -7.05472,3.25 -3.14041,3.0087 -4.71457,3.36354 -5.52718,1.2459 z m -65.07535,-11.84304 c -2.75911,-2.0653 -1.43139,-4.97068 1.89052,-4.13694 5.48433,1.37648 7.07675,-0.006 11.16827,-9.69923 3.79386,-8.98758 5.52685,-11.11145 7.47603,-9.16227 1.28562,1.28562 -5.45681,17.91075 -8.55819,21.10235 -2.8115,2.89328 -9.27699,3.91686 -11.97663,1.89609 z m 30.4247,-8.69794 C 362.8233,126.93281 368.43849,119 373.52251,119 c 5.20723,0 5.9038,5.30593 1.3739,10.4652 -3.6136,4.11566 -8.13394,4.82801 -9.88419,1.55764 z M 144.5422,116.04528 132.5844,104.05328 82.819337,103.77664 33.054271,103.5 30.777135,101.22222 28.5,98.944444 V 51.885639 4.8268327 L 31.305764,2.4134163 34.111527,0 102.30576,0.03180337 c 52.02987,0.02426489 68.57033,0.3205577 69.7809,1.25000003 C 175.87854,4.1931149 176,5.7832009 176,52.511182 v 45.642664 l -2.92308,2.923074 C 170.44153,103.71231 169.50958,104 163.6077,104 h -6.54614 L 156.78078,116.01864 156.5,128.03728 Z M 153,108.03893 v -8.961064 l 8.75,-0.288933 8.75,-0.288933 0.26235,-46 C 171.00392,10.142849 170.88979,6.4010095 169.32122,5.25 167.10045,3.6204143 37.963486,3.4139902 34.934259,5.0351838 33.065648,6.0352337 33,7.6066426 33,51.335184 33,85.207819 33.302014,96.902014 34.2,97.8 35.100727,98.700727 47.637967,99 84.470849,99 H 133.5417 l 8.9583,9 c 4.92707,4.95 9.30518,9 9.72915,9 C 152.65312,117 153,112.96752 153,108.03893 Z M 75.076725,73.411106 72,70.822213 V 51.865652 C 72,26.378374 70.411866,28 95.372758,28 105.52777,28 114.56487,28.279532 115.4552,28.621181 117.91487,29.565045 120,34.404349 120,39.169037 v 4.268356 L 126,37.5 132,31.562607 V 52 72.437393 L 126,66.5 120,60.562607 v 4.79562 c 0,3.967088 -0.50502,5.300634 -2.92308,7.718696 L 114.15385,76 H 96.153648 C 78.247575,76 78.137362,75.986462 75.076725,73.411106 Z M 114.77408,52.504188 c 0.24429,-16.040752 0.0877,-18.132066 -1.44113,-19.25 C 112.12431,32.370409 106.81787,32 95.365574,32 74.735893,32 76,30.708302 76,51.788248 c 0,8.777137 0.448129,16.180572 1.047159,17.29987 0.989145,1.848234 2.055622,1.941545 19.25,1.684258 L 114.5,70.5 Z M 128,51.797052 V 41.594104 L 124,45.5 c -5.10955,4.989338 -5.17324,7.714168 -0.29705,12.707837 2.03662,2.08569 3.83662,3.792163 4,3.792163 C 127.86633,62 128,57.408674 128,51.797052 Z M 332.2,102.8 c -4.33923,-4.33923 4.3734,-15.704226 9.80903,-12.795167 C 343.39037,90.744104 344,92.098902 344,94.429429 344,100.73539 335.88905,106.48905 332.2,102.8 Z M 293.53,71.048544 c -0.36106,-0.584206 0.31505,-2.426562 1.50246,-4.094123 1.53088,-2.149925 2.14779,-4.468343 2.12067,-7.96966 -0.0426,-5.494382 1.41052,-7.276269 3.57791,-4.387536 1.94753,2.595696 1.1135,10.7939 -1.44738,14.227267 -2.17511,2.916159 -4.71834,3.899233 -5.75366,2.224052 z"
         id="path5" />
      <path
         style="fill:#9ea9b6"
         d="m 48.269032,445.30701 c 0.972967,-0.25354 2.322967,-0.23687 3,0.0371 0.677032,0.27393 -0.119032,0.48137 -1.769032,0.46099 -1.65,-0.0204 -2.203936,-0.2445 -1.230968,-0.49804 z M 72.75,445.33772 c 0.6875,-0.27741 1.8125,-0.27741 2.5,0 0.6875,0.27741 0.125,0.50439 -1.25,0.50439 -1.375,0 -1.9375,-0.22698 -1.25,-0.50439 z m 8.0625,-1.02083 c 0.721875,-0.28887 1.584375,-0.25335 1.916667,0.0789 0.332291,0.33229 -0.258334,0.56864 -1.3125,0.52522 -1.164943,-0.048 -1.4019,-0.28494 -0.604167,-0.60416 z M 100,433.55902 C 100,432.70156 100.45,432 101,432 c 0.55,0 1,0.42344 1,0.94098 0,0.51754 -0.45,1.2191 -1,1.55902 -0.55,0.33992 -1,-0.0835 -1,-0.94098 z M 118.5,426 c 0.33992,-0.55 1.06803,-1 1.61803,-1 0.55,0 0.72189,0.45 0.38197,1 -0.33992,0.55 -1.06803,1 -1.61803,1 -0.55,0 -0.72189,-0.45 -0.38197,-1 z m -1.85777,-2.23013 c 0.45327,-0.7334 -0.067,-0.94385 -2.89223,-1.16987 -0.6875,-0.055 -2.825,-1.5586 -4.75,-3.34133 -1.925,-1.78273 -4.03218,-3.24523 -4.68261,-3.25 -0.65044,-0.005 -1.45126,-0.85508 -1.7796,-1.88959 -0.34049,-1.0728 -1.90165,-2.14185 -3.633658,-2.48825 -1.71919,-0.34384 -2.76102,-1.05337 -2.401309,-1.6354 0.349455,-0.56543 1.055055,-0.76868 1.568,-0.45166 0.512944,0.31702 0.0024,-1.00022 -1.13454,-2.92719 -1.436333,-2.4344 -2.581241,-3.33946 -3.751725,-2.96575 -1.231161,0.39308 -1.337699,0.28826 -0.395833,-0.38945 1.021256,-0.73483 0.826568,-1.79311 -0.938054,-5.09907 -1.584175,-2.9679 -2.479993,-3.8097 -3.104231,-2.91705 -0.570261,0.81546 -0.673298,0.5219 -0.294311,-0.83851 0.682842,-2.45112 -1.709641,-8.79687 -2.893038,-7.6734 -0.44415,0.42166 -0.478434,-0.3022 -0.07618,-1.60858 0.547988,-1.77969 0.415031,-2.17973 -0.530281,-1.59549 -0.76025,0.46986 -1.011255,0.3746 -0.631599,-0.23969 0.853378,-1.3808 -1.499071,-12.29759 -2.514729,-11.66987 -1.107572,0.68451 -1.070068,1.36944 -1.211173,-22.11972 -0.06938,-11.55 0.110655,-19.425 0.400087,-17.5 0.502914,3.34487 0.57344,3.24613 1.591189,-2.22777 0.87948,-4.73022 0.834072,-5.53615 -0.260725,-4.62755 C 81.317418,325.98146 81,325.85641 81,324.62244 81,323.7301 81.45,323 82,323 c 0.55,0 1,-0.64844 1,-1.44098 0,-0.79254 0.408034,-1.69316 0.906741,-2.00138 0.498708,-0.30822 0.718718,0.45272 0.488912,1.69098 -0.229806,1.23826 -0.135138,1.57638 0.210374,0.75138 0.345512,-0.825 1.451525,-3.4155 2.457808,-5.75667 1.793457,-4.17257 1.791879,-4.23648 -0.07988,-3.23474 -1.234034,0.66043 -1.693725,1.63556 -1.299541,2.75666 0.46651,1.32682 0.32274,1.4704 -0.61138,0.61061 -0.922238,-0.84886 -4.203001,0.53472 -13.397179,5.64991 -6.696722,3.72573 -12.052209,7.30254 -11.901081,7.94847 0.151127,0.64593 -0.176089,0.89577 -0.727146,0.5552 -1.08705,-0.67184 -10.08445,3.98055 -11.282318,5.83387 -0.404078,0.62518 -0.741578,0.76249 -0.75,0.30513 -0.01947,-1.05744 -7.113016,3.23913 -8.73351,5.28991 -0.670008,0.84791 -1.232508,1.16119 -1.25,0.69619 -0.01749,-0.465 -2.499986,0.5475 -5.516654,2.25 C 28.49848,346.60704 24.843593,348 23.393177,348 c -2.480542,0 -2.551723,-0.12862 -1.198829,-2.16618 0.791061,-1.19141 5.233448,-4.34988 9.871972,-7.01884 4.638524,-2.66896 8.310031,-5.32762 8.158903,-5.90814 -0.151127,-0.58053 0.145764,-0.79559 0.659758,-0.47793 1.302851,0.80521 4.223394,-0.44454 3.557338,-1.52224 -0.300407,-0.48607 0.10666,-0.63324 0.904593,-0.32704 0.797933,0.30619 1.790833,0.007 2.206446,-0.66596 C 48.06841,329.08029 47.892217,328.94858 47,329.5 c -0.872678,0.53934 -1.067815,0.41874 -0.58541,-0.3618 0.397984,-0.64395 1.129297,-0.92009 1.625141,-0.61365 0.495843,0.30645 2.330279,-0.18165 4.076523,-1.08467 2.51731,-1.30175 2.885895,-1.84761 1.779368,-2.6352 -1.070086,-0.76164 -0.961857,-0.85222 0.46399,-0.38834 1.138778,0.3705 3.949065,-0.59045 7.25,-2.47905 5.053646,-2.89141 7.193198,-4.84307 3.941316,-3.59521 -0.976861,0.37486 -1.264677,0.0755 -0.883217,-0.91853 0.410051,-1.06858 0.915896,-1.18409 1.837149,-0.41952 1.398209,1.16041 6.810265,-0.68513 5.974545,-2.03735 -0.251834,-0.40748 0.324776,-0.67918 1.281357,-0.60378 0.961928,0.0758 1.616433,-0.45478 1.464461,-1.18723 -0.151127,-0.72838 0.177073,-1.04507 0.729334,-0.70376 1.353467,0.83649 5.252209,-1.32834 4.521513,-2.51063 -0.31897,-0.5161 0.053,-0.69549 0.826612,-0.39862 0.773606,0.29686 5.184478,-1.7689 9.801937,-4.59058 4.61746,-2.82167 7.326528,-4.8215 6.020152,-4.44406 -1.618868,0.46772 -2.15734,0.3337 -1.690983,-0.42089 C 95.810123,299.49821 96.766476,299 97.559017,299 98.351558,299 99,298.59814 99,298.10699 c 0,-1.4347 2.55754,-2.00997 4.09068,-0.92014 1.06419,0.75648 0.91953,0.84176 -0.59068,0.34824 -1.36452,-0.44591 -1.67678,-0.32742 -0.98275,0.37291 0.55948,0.56457 2.06002,0.7538 3.33453,0.42051 1.63023,-0.42632 1.94167,-0.83813 1.05042,-1.38895 -0.69678,-0.43064 1.42638,-0.53876 4.71813,-0.24027 4.86572,0.44121 6.76997,0.14224 10.18234,-1.59862 2.30853,-1.17772 4.19733,-2.38373 4.19733,-2.68001 0,-0.29628 -0.51953,-0.21761 -1.15451,0.17483 -0.7153,0.44208 -0.88306,0.27432 -0.44098,-0.44098 0.39244,-0.63498 1.77516,-1.15451 3.07272,-1.15451 3.38046,0 5.61668,-1.03903 4.86252,-2.25929 -0.35921,-0.58122 -0.17377,-0.75616 0.4155,-0.39197 1.61984,1.00111 3.9873,-0.25626 4.55259,-2.41791 0.51236,-1.95927 2.69216,-2.73836 2.69216,-0.96221 0,0.53273 0.71273,0.69511 1.58385,0.36083 1.27522,-0.48935 1.32393,-0.77253 0.25,-1.4533 -0.88364,-0.56014 -0.21697,-0.85069 1.97517,-0.86084 1.81996,-0.008 3.06004,-0.41816 2.75574,-0.91053 -0.3043,-0.49236 0.14251,-1.16221 0.99292,-1.48854 0.8854,-0.33976 1.28509,-0.17086 0.93524,0.39521 -0.78667,1.27286 0.13866,1.25609 2.57282,-0.0466 1.06384,-0.56935 1.93426,-1.74684 1.93426,-2.61664 0,-1.06863 0.62428,-1.41819 1.92518,-1.078 1.41882,0.37103 1.77139,0.10267 1.34047,-1.02028 -0.46884,-1.22179 0.0501,-1.43056 2.61885,-1.05354 1.76196,0.2586 3.47827,0.0257 3.81404,-0.5176 0.36717,-0.5941 0.0888,-0.66535 -0.69854,-0.17876 -0.88207,0.54515 -1.06809,0.4192 -0.57035,-0.38617 0.40626,-0.65735 1.4898,-0.95678 2.40786,-0.6654 2.69923,0.8567 8.14372,-3.04148 8.28749,-5.93373 0.14359,-2.88878 0.24281,-3.3133 1.39241,-5.9577 0.46458,-1.06864 0.87572,-4.06211 0.91364,-6.65214 0.0379,-2.59003 0.34269,-4.2673 0.67725,-3.72726 0.65232,1.05293 4.91015,-16.21666 4.89862,-19.86858 -0.004,-1.20504 0.40269,-2.44414 0.90333,-2.75355 1.1163,-0.68991 3.6425,-14.16471 3.26146,-17.39672 -0.19074,-1.61794 0.0973,-2.11055 0.93223,-1.59451 0.89737,0.5546 1.0398,-0.12951 0.55356,-2.65875 -0.38088,-1.98114 -0.30021,-2.85564 0.19286,-2.09085 0.56275,0.87286 1.26679,-0.63936 2.09508,-4.5 0.68612,-3.19805 1.63885,-7.61464 2.11717,-9.81464 0.47831,-2.2 1.06274,-4.90175 1.29871,-6.0039 0.23598,-1.10214 0.95627,-3.96181 1.60064,-6.35481 0.64436,-2.39301 0.92168,-5.00212 0.61626,-5.79804 -0.30978,-0.80728 -0.11823,-1.17699 0.43323,-0.83617 0.5437,0.33602 0.98855,-0.28905 0.98855,-1.38905 0,-1.1 0.45,-2.27811 1,-2.61803 1.23543,-0.76354 1.33738,-7.5 0.1135,-7.5 -0.48758,0 -1.08115,-1.32623 -1.31906,-2.94719 -0.25288,-1.72303 -0.0351,-2.70152 0.52444,-2.35573 0.60007,0.37086 0.77716,-4.3889 0.47482,-12.76176 -0.31995,-8.86051 -0.11402,-13.81962 0.61206,-14.73947 0.60183,-0.76244 2.08629,-2.46841 3.29879,-3.79105 l 2.20454,-2.4048 h 51.54546 c 50.21212,0 51.59718,0.0517 53.54545,2 1.1,1.1 2,2.6375 2,3.41667 0,0.77916 0.50915,1.58638 1.13144,1.79381 1.06538,0.35513 0.29243,19.54761 -1.78896,44.42011 l -0.5967,7.1306 5.87711,2.2605 c 8.22646,3.16414 25.20949,3.8838 35.84003,1.51873 13.32767,-2.96513 25.20153,-8.58414 36.22023,-17.14034 C 387.79969,163.98004 390.758,162 391.25718,162 c 0.49918,0 4.10379,1.40282 8.01025,3.11738 5.95582,2.61402 7.90508,3.02234 12.07231,2.52879 17.66225,-2.09183 23.35204,-25.54231 8.5707,-35.32413 -2.67836,-1.77246 -3.87732,-3.21224 -3.54006,-4.25112 0.28049,-0.86401 1.84038,-5.39592 3.46642,-10.07092 3.90272,-11.22067 5.55585,-22.517671 4.7417,-32.403473 -0.35799,-4.34691 -0.98012,-8.491773 -1.38252,-9.210806 -0.54449,-0.972964 -2.35336,-0.178723 -7.07241,3.105371 -6.8088,4.738401 -18.76177,10.151766 -23.58803,10.682756 -2.12515,0.233811 -3.06069,-0.141447 -3.30437,-1.325423 -0.25077,-1.218449 1.05116,-2.107446 4.96446,-3.389882 C 399.33906,83.772977 413,77.345837 413,76.611544 c 0,-0.199823 -2.91815,0.695918 -6.48478,1.990534 -22.5221,8.175083 -49.73724,8.566755 -69.82715,1.004933 C 329.41671,76.870077 319,70.612319 319,68.981036 c 0,-2.101535 3.00703,-2.11222 5.94371,-0.02112 4.34342,3.092789 14.65157,7.602407 22.11414,9.674516 4.84747,1.345981 10.15524,1.794299 21.44215,1.811099 13.27015,0.01975 16.26856,-0.304978 26,-2.815825 12.49082,-3.222807 16.52828,-4.953306 9,-3.8575 -2.75,0.400286 -13.775,0.684429 -24.5,0.631428 -17.65532,-0.08725 -20.42493,-0.342603 -29.27735,-2.699337 -11.99838,-3.194267 -25.95046,-9.750521 -35.11325,-16.500154 -7.6482,-5.633929 -12.20318,-6.929159 -18.45131,-5.246714 -12.95836,3.489325 -18.34195,19.234382 -10.41967,30.473804 l 3.10936,4.41128 -3.48174,8.053211 c -1.91496,4.429266 -4.42886,11.889706 -5.58644,16.578746 L 277.6749,118 h -16.81141 -16.8114 l -5.05617,-7.19973 c -6.4569,-9.19429 -8.36262,-15.593486 -7.80516,-26.208906 0.35331,-6.728006 0.97371,-9.120954 3.68204,-14.201856 1.79142,-3.360771 4.9154,-7.689139 6.94217,-9.618595 C 243.84174,58.841456 256.525,49.218955 270,39.387577 308.52776,11.277669 320.16122,6.4505874 349,6.6080224 c 19.08479,0.1041864 26.48598,1.839332 43,10.0809766 10.89394,5.436833 12.24948,6.472419 25.72133,19.650202 17.95718,17.565201 20.73065,22.856628 16.84923,32.146165 -1.35929,3.253238 -1.26547,3.754679 1.91167,10.217882 7.939,16.150154 10.9936,30.565172 10.21873,48.223342 -0.68326,15.57042 -1.7655,19.47906 -12.17188,43.96027 -8.24017,19.38516 -10.78749,26.22341 -8.6099,23.11314 0.64473,-0.92087 1.05611,-1.04018 1.06551,-0.30902 0.008,0.65504 -0.43469,1.4691 -0.98469,1.80902 -0.55,0.33992 -1.00689,1.60398 -1.01531,2.80902 -0.0104,1.49378 -0.27151,1.78734 -0.82042,0.92253 -0.54637,-0.86081 -1.54499,0.31123 -3.10738,3.64698 -1.31026,2.79746 -1.96738,5.45728 -1.52507,6.17296 0.47522,0.76892 0.37112,1.00656 -0.26793,0.6116 -0.57482,-0.35525 -1.77972,0.47522 -2.67756,1.8455 -0.89784,1.37027 -1.3814,2.49141 -1.07459,2.49141 0.96406,0 -5.848,5.53441 -9.59352,7.7942 -1.96999,1.18854 -6.24499,2.80631 -9.5,3.59503 -6.26642,1.5184 -22.7394,2.94169 -18.41822,1.59136 l 2.5,-0.78123 -2.62427,-0.0997 c -1.44335,-0.0548 -4.52877,-0.77162 -6.85648,-1.59289 -2.32772,-0.82126 -4.70382,-1.20174 -5.28024,-0.84549 -0.61133,0.37782 -0.75071,0.16665 -0.3345,-0.50679 0.39244,-0.63498 0.17772,-1.15451 -0.47716,-1.15451 -0.82125,0 -1.01598,1.30254 -0.62761,4.19803 0.40068,2.98732 0.27148,3.78041 -0.44799,2.75 -0.72018,-1.03144 -0.86403,-0.16835 -0.5,3 0.36603,3.18578 0.22213,4.03711 -0.50709,3 -0.78629,-1.11828 -0.90586,-0.93565 -0.52503,0.80197 0.27122,1.2375 0.0853,2.25 -0.41325,2.25 -0.49851,0 -0.90638,0.47949 -0.90638,1.06554 0,0.58605 -1.54572,4.41105 -3.43493,8.5 -1.88921,4.08895 -3.01421,7.43446 -2.5,7.43446 0.92515,0 -2.1013,3.69162 -3.06507,3.73872 -1.92064,0.0939 -2.08461,0.45545 -0.87244,1.9239 1.17722,1.42613 1.15908,1.58725 -0.12756,1.13271 -0.92881,-0.32812 -4.18204,1.98993 -8.54325,6.08738 -9.40025,8.83174 -13.26439,11.97632 -13.91604,11.32467 -0.29739,-0.29739 -0.54071,-0.0157 -0.54071,0.62595 0,0.64167 -0.3375,1.0611 -0.75,0.93208 -1.19874,-0.37496 -14.25,5.59303 -14.25,6.51613 0,0.46007 -0.36466,0.61112 -0.81035,0.33567 C 311.0395,286.90638 303,289.0699 303,290.09025 c 0,0.46584 0.7875,0.56709 1.75,0.225 1.49483,-0.53129 1.45838,-0.32665 -0.25,1.4035 -2.1855,2.21336 -3.74233,2.07634 -2.84934,-0.25078 C 301.96049,290.66059 301.71583,290 301.10699,290 300.48794,290 300,291.70965 300,293.87868 c 0,3.38403 0.39038,4.04038 3.06105,5.14661 1.68358,0.69736 4.33934,1.31445 5.9017,1.37132 1.56235,0.0569 2.67685,0.37046 2.47665,0.69689 -0.20019,0.32642 12.1827,4.80189 27.51753,9.94547 l 27.88152,9.35197 19.33077,-2.21758 c 10.63193,-1.21967 20.23078,-2.23565 21.33078,-2.25774 1.1,-0.0221 7.175,-0.52729 13.5,-1.12269 9.17201,-0.8634 11.95764,-1.49542 13.7607,-3.12211 1.72821,-1.55915 1.96375,-2.25389 1,-2.94952 -0.90273,-0.65159 -0.78812,-0.75945 0.40365,-0.37988 1.76604,0.56246 11.49174,-5.7831 11.12487,-7.25846 -0.11594,-0.46622 0.55906,-0.78811 1.5,-0.71531 0.94093,0.0728 1.58713,-0.4636 1.436,-1.19198 -0.15112,-0.72838 0.1112,-1.08578 0.58295,-0.79423 1.33919,0.82767 8.33422,-4.34202 7.56319,-5.58958 -0.40362,-0.65308 -0.22225,-0.81774 0.44589,-0.40481 1.48371,0.91699 6.35247,-2.30342 5.51966,-3.65094 -0.37966,-0.61429 -0.16248,-0.74634 0.52682,-0.32033 1.40814,0.87028 7.91139,-2.94349 10.45885,-6.13349 1.00242,-1.25526 2.57742,-2.26634 3.5,-2.24685 1.22559,0.0259 1.00402,0.44116 -0.82258,1.54171 l -2.5,1.50628 2.5,-0.6765 c 1.375,-0.37207 2.83061,-1.17834 3.23469,-1.79171 0.40408,-0.61337 0.74158,-0.79924 0.75,-0.41305 0.008,0.38619 2.15281,0.0392 4.76531,-0.77104 10.23664,-3.17488 23.23032,-4.51322 37.08489,-3.81973 10.32692,0.51692 13.4614,0.99716 13.89572,2.12897 1.04974,2.73558 -2.08628,3.33617 -14.23061,2.72537 -6.6,-0.33196 -14.94506,-0.16957 -18.54458,0.36084 -9.26137,1.36474 -23.04297,5.22274 -22.39604,6.26951 0.29947,0.48455 -0.0958,0.63529 -0.8784,0.33498 -1.41868,-0.54439 -3.09898,2.08357 -2.2306,3.48864 0.56585,0.91557 -2.56704,0.74426 -4.13734,-0.22624 -0.63349,-0.39152 -1.76129,-0.14522 -2.50623,0.54734 -0.74494,0.69255 -2.01871,1.40383 -2.83062,1.58062 -0.8119,0.17678 -1.92619,0.8053 -2.47619,1.3967 -0.6953,0.74764 -0.57204,0.83115 0.40451,0.27407 0.92013,-0.5249 1.16774,-0.41812 0.71797,0.30962 -0.37759,0.61096 -1.27685,0.8843 -1.99836,0.60744 -0.72151,-0.27687 -2.7321,0.82333 -4.46798,2.44488 -1.73587,1.62155 -3.15614,2.76135 -3.15614,2.53288 0,-0.22847 -1.8,0.77579 -4,2.23168 -2.2,1.45589 -3.99581,2.69977 -3.99069,2.76419 0.005,0.0644 2.95462,0.20158 6.55445,0.30483 3.59983,0.10325 8.65814,0.85569 11.24069,1.6721 2.58255,0.81641 6.27055,1.35793 8.19555,1.20339 1.925,-0.15455 4.625,0.21252 6,0.8157 4.05325,1.77808 6.81465,6.07632 3.25,5.05878 -0.9625,-0.27475 -0.625,0.0644 0.75,0.75371 1.375,0.68929 2.77531,1.64165 3.1118,2.11634 0.3365,0.47469 0.899,0.82465 1.25,0.77767 2.75322,-0.36846 3.78917,0.0788 3.27657,1.41459 -0.40089,1.04472 0.0725,1.5 1.55968,1.5 1.17441,0 1.85671,0.27857 1.51624,0.61905 -0.75722,0.75721 1.86155,3.52234 2.98214,3.14881 0.44196,-0.14732 0.93129,0.18214 1.0874,0.73214 0.57114,2.01222 9.58205,10.39191 10.53885,9.80058 0.54248,-0.33528 0.68338,-0.1194 0.31309,0.47973 -0.37084,0.60005 0.90286,2.29148 2.83575,3.76577 1.92995,1.47204 3.31955,2.98295 3.08801,3.35759 -0.23153,0.37464 0.54271,0.75375 1.72055,0.84247 2.65844,0.20026 5.66805,3.96449 5.69768,7.1263 0.0196,2.09655 -0.17124,2.21284 -1.64148,1 -1.5086,-1.24448 -1.55194,-1.16266 -0.46482,0.87756 0.6594,1.2375 1.65963,2.25 2.22274,2.25 0.56311,0 0.74572,0.45 0.4058,1 -0.33992,0.55 -0.14148,1 0.44098,1 0.58246,0 1.00573,0.3375 0.9406,0.75 -0.31345,1.98515 0.21726,3.30695 1.10697,2.75708 0.55819,-0.34499 0.73943,0.0382 0.41631,0.88024 -0.31472,0.82016 -0.0734,2.30604 0.53636,3.30194 1.04384,1.705 1.09252,1.69606 0.83368,-0.15301 -0.16963,-1.21177 0.39523,-2.10144 1.4751,-2.32332 2.11351,-0.43427 2.28585,1.5362 0.32433,3.70833 -1.23507,1.36769 -1.222,2.44769 0.0978,8.07874 1.47231,6.28194 1.39426,16.02501 -0.16422,20.5 -0.58297,1.67394 -0.50273,1.75545 0.49214,0.5 1.01415,-1.27978 1.10141,-1.23107 0.59433,0.33179 -0.32688,1.00748 -0.59433,2.25612 -0.59433,2.77475 0,0.51863 -1.125,1.37069 -2.5,1.89346 -1.375,0.52277 -2.5,1.46674 -2.5,2.09769 0,0.81185 0.44518,0.77774 1.52289,-0.11669 1.27857,-1.06112 1.4183,-0.99132 0.87096,0.43503 -0.38594,1.00575 -1.27029,1.46162 -2.16751,1.11733 -0.83357,-0.31987 -2.26034,0.0924 -3.1706,0.9162 -4.94565,4.47575 -19.9511,5.94607 -30.12424,2.95176 -7.85993,-2.31346 -21.5842,-9.63782 -28.49715,-15.20834 -5.70316,-4.59566 -7.51274,-5.31183 -39.17889,-15.50559 C 408.9957,370.80932 393.33833,366 392.4613,366 c -0.87704,0 -6.72543,2.27612 -12.99643,5.05804 -23.25724,10.31731 -31.2645,10.18876 -62.84573,-1.00893 C 305.68467,366.1721 296.54128,363 296.3005,363 c -0.24078,0 -3.07569,5.5125 -6.29979,12.25 -5.5991,11.70059 -8.87138,16.15478 -13.68497,18.62781 -2.57105,1.32091 -11.95852,1.50919 -12.73341,0.2554 -0.29464,-0.47674 0.12819,-4.63924 0.93961,-9.25 2.26,-12.84196 2.01971,-13.01203 -4.66912,-3.30457 -3.38095,4.90675 -7.51469,10.37918 -9.18608,12.16096 -5.4871,5.84947 -12.7762,5.31657 -18.64079,-1.36283 C 230.39528,390.51955 228.34277,389 227.46481,389 c -5.15681,0 -7.9721,-4.71309 -5.87004,-9.82706 0.75216,-1.82988 1.02528,-3.17988 0.60693,-3 -0.41835,0.17988 -9.01289,4.77844 -19.09897,10.21901 -17.07934,9.21283 -18.81082,9.92575 -25.22053,10.38437 -3.78521,0.27083 -6.8822,0.1569 -6.8822,-0.25317 0,-0.41008 1.82211,-2.9219 4.04913,-5.58183 3.30167,-3.94349 7.64229,-6.83034 23.51419,-15.63878 15.74665,-8.73892 19.17581,-11.01463 17.95088,-11.91278 -2.38771,-1.75072 -1.88092,-3.48695 4.08983,-14.01156 8.62533,-15.20382 12.52986,-23.35255 11.77489,-24.57412 -0.40594,-0.65681 -0.23525,-0.83332 0.4164,-0.43058 1.24636,0.77029 3.50957,-2.73528 2.44998,-3.79487 -0.37639,-0.37638 0.16327,-0.35908 1.19923,0.0385 1.12929,0.43335 1.64407,0.33528 1.2855,-0.2449 -0.32894,-0.53222 -0.1435,-1.6212 0.41208,-2.41994 0.72909,-1.04817 1.14607,-1.12008 1.49863,-0.25843 0.26866,0.65661 1.13182,0.94695 1.91812,0.64522 0.78631,-0.30174 1.13342,-1.02793 0.77135,-1.61376 -0.39884,-0.64534 -0.0652,-0.83758 0.84643,-0.48774 0.8276,0.31758 2.10946,0.20368 2.84857,-0.25312 0.74916,-0.46301 -4.15872,-0.75396 -11.09069,-0.65748 -12.34925,0.17187 -12.43282,0.18889 -12.18602,2.48115 0.14336,1.33152 -0.17397,2.04699 -0.75,1.69098 -0.60203,-0.37207 -0.9985,0.9946 -0.9985,3.44191 0,2.8028 -0.43112,4.05902 -1.39301,4.05902 -0.76616,0 -1.64074,0.64556 -1.94351,1.43459 -0.30278,0.78902 -1.58843,1.9795 -2.85699,2.6455 l -2.30649,1.21093 1.9746,-2.39551 c 1.08603,-1.31753 0.0735,-0.61668 -2.25,1.55744 -2.32353,2.17412 -4.2246,4.39763 -4.2246,4.94113 0,0.5435 0.63821,0.11538 1.41824,-0.95138 0.78003,-1.06675 1.75227,-1.60552 2.16053,-1.19726 1.23766,1.23766 -2.70364,4.89582 -4.06103,3.76929 -0.80723,-0.66995 -2.23873,-0.19613 -4.54249,1.50353 -1.85009,1.36496 -2.71388,2.48863 -1.91953,2.49705 1.25341,0.0133 1.25235,0.13673 -0.008,0.93402 -0.79874,0.50529 -1.77498,0.71925 -2.16941,0.47548 -0.39444,-0.24378 -1.23839,1.13612 -1.87545,3.06643 -1.11661,3.38336 -3.03048,4.5475 -7.03371,4.27835 -2.12079,-0.14259 -7.078,3.24532 -6.38626,4.36457 0.31115,0.50347 0.19479,0.80864 -0.25859,0.67816 -1.36382,-0.39248 -5.4202,2.22355 -4.85808,3.13307 0.28724,0.46477 -0.17352,1.11204 -1.02393,1.43837 -1.04328,0.40034 -1.31076,0.19048 -0.82236,-0.64521 0.3981,-0.6812 -0.25352,-0.38131 -1.44807,0.66644 -1.19454,1.04774 -2.17189,2.55839 -2.17189,3.35699 0,0.84675 -0.59477,1.22376 -1.42689,0.90445 -0.78478,-0.30115 -1.96488,0.1007 -2.62244,0.89301 -0.74374,0.89615 -0.80286,1.44056 -0.15645,1.44056 0.57151,0 1.21923,-0.54034 1.43936,-1.20075 0.26826,-0.80476 0.61518,-0.85298 1.05198,-0.14622 0.35845,0.57998 -0.45916,1.56067 -1.81692,2.1793 -1.66935,0.76061 -2.46864,0.78591 -2.46864,0.0781 0,-1.75881 -6.07835,3.16541 -7.04469,5.70707 -0.49819,1.31035 -1.3935,2.38246 -1.98958,2.38246 -0.60086,0 -0.74915,-0.55697 -0.33279,-1.25 0.44765,-0.74511 0.0194,-0.65566 -1.06029,0.22146 -1.51394,1.22992 -1.72028,2.46107 -1.25697,7.5 0.38464,4.18329 0.26388,5.41637 -0.39454,4.02854 -0.84506,-1.78123 -0.90671,-1.72654 -0.56359,0.5 0.21189,1.375 0.70486,3.4 1.09549,4.5 0.70016,1.97164 0.6878,1.97247 -0.8714,0.0589 -1.8204,-2.23416 -2.15111,-0.4436 -0.42775,2.31594 0.91315,1.46219 0.80411,2.34606 -0.52264,4.23643 l -1.67653,2.38876 0.54382,-3.5 c 0.54008,-3.47596 0.5345,-3.47253 -0.81261,0.5 -5.70677,16.82882 -14.80071,25.34507 -28.23797,26.44416 -4.00485,0.32757 -7.06743,0.24914 -6.80573,-0.17429 z M 248.14374,390.14853 C 249.5978,388.69184 257.83955,377.0375 266.45875,364.25 280.64596,343.20175 285,338.09615 285,342.50831 c 0,0.82956 -2.89388,5.89206 -6.43085,11.25 l -6.43085,9.74169 -2.11864,13.36718 c -1.16525,7.35194 -1.89235,13.59346 -1.61578,13.87003 1.21683,1.21684 7.4767,-1.00314 9.86832,-3.49966 1.44238,-1.50565 5.31155,-8.42707 8.59814,-15.38093 3.2866,-6.95387 6.45585,-12.94018 7.04279,-13.30293 0.58695,-0.36275 10.8591,2.80967 22.82702,7.04983 20.18512,7.15146 22.46604,7.74269 31.5181,8.16957 11.93827,0.56299 15.49496,-0.2773 31.28825,-7.39204 l 12.23477,-5.51167 23.85936,7.65349 c 47.83624,15.34466 57.8782,18.48384 61.00421,19.07028 1.80832,0.33924 5.61965,-0.10954 8.81218,-1.03763 11.14426,-3.23973 18.28026,-13.48802 17.25614,-24.78223 -0.318,-3.5069 -1.45255,-7.35383 -2.86955,-9.72975 C 496.74183,346.8427 467.2048,315 465.48232,315 c -1.21024,0 -44.87583,4.44708 -84.00296,8.55521 l -15.02064,1.57708 -38.88903,-13.07033 -38.88904,-13.07033 -23.53573,12.25419 C 252.20027,317.98562 240.83485,324.175 239.88844,325 238.40309,326.2948 220,358.24681 220,359.53093 c 0,1.5416 5.16069,-0.003 9.29111,-2.78093 4.75116,-3.19535 5.64476,-4.4668 14.44804,-20.55715 2.75935,-5.04346 3.6184,-5.70318 17.28914,-13.2776 C 274.28835,315.56839 278,314.26514 278,316.95607 c 0,1.21382 -3.92248,3.7115 -18.04187,11.48833 -11.97036,6.59316 -9.14133,2.77026 -26.11526,35.28985 -8.42687,16.14468 -10.05814,20.90671 -7.07917,20.66575 0.67996,-0.055 2.32032,-0.1675 3.64524,-0.25 2.0786,-0.12943 3.67977,-2.65898 11.67598,-18.44588 l 9.26704,-18.29587 13.95521,-7.76077 c 12.79732,-7.11685 17.53169,-8.67068 16.44402,-5.39695 -0.22832,0.68721 -6.45324,4.62604 -13.83316,8.75296 l -13.41803,7.50349 -9.78175,19.35579 c -10.3407,20.46181 -10.48108,21.08117 -5.25297,23.17639 2.82629,1.13266 5.57699,0.21645 8.67846,-2.89063 z m -115.85322,-3.30401 c 1.18747,-0.63552 18.75011,-13.76075 39.02809,-29.16719 37.4251,-28.43417 41.37342,-32.01865 46.45851,-42.17733 4.4531,-8.89615 5.15177,-13.73217 5.857,-40.54115 l 0.67951,-25.83099 12.99682,-11.56393 C 244.4587,231.20377 250.96993,226 251.77985,226 c 0.80992,0 5.57358,-0.9628 10.58592,-2.13956 7.40192,-1.73776 9.72564,-2.75185 12.37379,-5.4 5.72301,-5.72301 5.33681,-5.84662 -15.88604,-5.08467 l -19.14648,0.6874 -14.98804,10.97922 c -12.10896,8.87021 -15.2608,10.75284 -16.40804,9.80072 -1.89079,-1.56921 -1.14706,-2.25495 16.13284,-14.87497 l 13.9438,-10.18357 18.42519,-0.54461 18.42519,-0.5446 3.38101,-3.38102 C 280.54347,203.38986 282,200.9202 282,199.58157 v -2.35177 l -21.75,0.50712 -21.75,0.50712 -16.40829,11.51547 c -9.02456,6.33351 -17.10732,11.5661 -17.96169,11.62798 -0.85436,0.0619 -1.67284,-0.56249 -1.81883,-1.38749 -0.16779,-0.94818 6.0757,-5.95241 16.97146,-13.60284 l 17.23691,-12.10284 12.28825,-0.50609 c 11.86006,-0.48845 12.39541,-0.60683 15.36338,-3.39716 3.32577,-3.1267 6.25505,-8.89238 5.30161,-10.43509 -0.92243,-1.49252 -3.88149,-1.14277 -19.9728,2.36073 l -15,3.2659 -17.42481,11.23376 c -9.58365,6.17856 -17.90865,11.07248 -18.5,10.87536 -2.53409,-0.8447 -0.65787,-3.45943 5.16047,-7.19173 5.77183,-3.70247 6.38968,-4.45926 8.30634,-10.17432 2.3576,-7.02982 2.6431,-7.32529 9.458,-9.78853 13.95483,-5.04395 18.5,-8.60331 18.5,-14.48749 0,-2.5932 0.46828,-2.62126 -22.4642,1.34614 l -18.9642,3.28088 -11.72227,50.41166 c -6.44725,27.72641 -12.12634,51.06912 -12.6202,51.87268 -0.49386,0.80356 -17.73495,9.80356 -38.31353,20 L 98.5,311.5 95.709802,333 c -1.534609,11.825 -2.59943,23.9811 -2.366268,27.01355 0.844079,10.97794 8.980346,22.04438 19.057476,25.92079 5.7588,2.21526 16.52994,2.70817 19.88951,0.91018 z M 81.692991,366.26903 C 81.439447,365.29606 81.215328,365.85 81.194949,367.5 c -0.02038,1.65 0.187065,2.44606 0.460988,1.76903 0.273923,-0.67703 0.290597,-2.02703 0.03705,-3 z M 523,349 c 0,-0.55 -0.47656,-1 -1.05902,-1 -0.58246,0 -0.7809,0.45 -0.44098,1 0.33992,0.55 0.81648,1 1.05902,1 0.24254,0 0.44098,-0.45 0.44098,-1 z m -328.40499,-2.1548 1.90499,-2.1548 -2.75,1.76981 C 190.91444,348.28508 190.37821,349 191.84501,349 c 0.46476,0 1.70226,-0.96966 2.75,-2.1548 z M 484,312.59783 c 0,-0.2212 -1.35,-0.87279 -3,-1.44799 -3.47266,-1.21057 -4.09865,-0.52699 -0.75,0.819 2.53286,1.01808 3.75,1.22223 3.75,0.62899 z m -5.981,-23.12072 c 1.05678,-1.27335 0.99492,-1.41968 -0.37756,-0.89301 -0.90279,0.34643 -1.64144,1.03173 -1.64144,1.52289 0,1.28596 0.57887,1.10536 2.019,-0.62988 z M 313,281.33825 c 16.57338,-6.17892 31.35298,-18.7461 38.71407,-32.91883 5.87968,-11.32047 7.57332,-18.72876 7.06866,-30.91942 -0.41015,-9.90758 -3.11789,-21.30765 -5.25584,-22.12806 -0.56931,-0.21846 -7.78325,1.12212 -16.03099,2.97907 -16.98349,3.82378 -18.38328,3.62958 -15.85916,-2.2002 2.9211,-6.74668 3.10113,-6.46829 -5.77262,-8.92613 -5.21749,-1.44514 -8.44098,-1.90934 -8.83471,-1.27226 -0.34097,0.55169 -1.85737,21.15058 -3.36979,45.77532 -1.51243,24.62474 -3.01294,46.73334 -3.33447,49.13021 l -0.58461,4.35795 3.37973,-0.72716 c 1.85885,-0.39993 6.30473,-1.81765 9.87973,-3.15049 z M 105.02006,418.52417 C 104.23131,417.57378 104.15544,417 104.81854,417 c 1.20855,0 2.61759,1.8972 1.9241,2.5907 -0.2517,0.2517 -1.02686,-0.22824 -1.72258,-1.06653 z M 534,391.5 c 0,-0.825 0.45,-1.5 1,-1.5 0.55,0 1,0.675 1,1.5 0,0.825 -0.45,1.5 -1,1.5 -0.55,0 -1,-0.675 -1,-1.5 z M 2,376 c 0,-0.55 0.4765576,-1 1.059017,-1 0.5824593,0 0.7809017,0.45 0.440983,1 -0.3399187,0.55 -0.8164763,1 -1.059017,1 C 2.1984424,377 2,376.55 2,376 Z m 79,-1 c -0.588702,-1.1 -0.845368,-2 -0.570368,-2 0.275,0 0.981666,0.9 1.570368,2 0.588702,1.1 0.845368,2 0.570368,2 -0.275,0 -0.981666,-0.9 -1.570368,-2 z m 96.70354,-1.02568 C 177.06613,371.53688 177.54892,370 178.95203,370 c 1.53588,0 1.92448,2.78663 0.63458,4.55066 -1.18111,1.61527 -1.32117,1.5724 -1.88307,-0.57634 z M 9,363.60699 c 0,-0.21616 0.698372,-0.661 1.551938,-0.98855 0.889925,-0.34149 1.291322,-0.17385 0.940983,0.39301 C 10.905663,363.96166 9,364.4169 9,363.60699 Z M 185.5,355 c -0.33992,-0.55 0.11008,-1 1,-1 0.88992,0 1.33992,0.45 1,1 -0.33992,0.55 -0.78992,1 -1,1 -0.21008,0 -0.66008,-0.45 -1,-1 z M 18,351.05902 c 0,-0.51754 0.375,-1.17275 0.833333,-1.45601 0.458334,-0.28327 0.833334,0.14017 0.833334,0.94098 0,0.8008 -0.375,1.45601 -0.833334,1.45601 C 18.375,352 18,351.57656 18,351.05902 Z m 185,-10.61746 c 0,-0.20415 0.9,-0.85286 2,-1.44156 1.10492,-0.59134 2,-0.65928 2,-0.15182 0,0.50521 -0.9,1.15391 -2,1.44157 -1.1,0.28766 -2,0.35597 -2,0.15181 z M 27.693823,339.35644 c 0.656603,-0.26711 0.945958,-1.13158 0.643011,-1.92105 C 27.999063,336.55517 28.407567,336 29.393011,336 c 0.883844,0 1.494489,0.5625 1.356989,1.25 -0.295619,1.47809 -1.846108,2.74508 -3.25,2.65574 -0.55,-0.035 -0.46278,-0.28218 0.193823,-0.5493 z m 4.964154,-3.90753 C 32.963777,334.65201 32.715833,334 32.106989,334 31.498145,334 31,333.58892 31,333.08648 c 0,-1.20155 4.934147,0.12981 5.055148,1.36401 0.05125,0.52277 -0.817245,1.28728 -1.929993,1.69892 -1.535191,0.5679 -1.889072,0.39894 -1.467178,-0.7005 z m 18.829403,-0.46933 c -0.666487,-1.0784 3.812286,-2.07991 4.815408,-1.07679 0.460505,0.4605 -0.329974,1.06041 -1.75662,1.33314 -1.426646,0.27272 -2.803101,0.15736 -3.058788,-0.25635 z m 175.84268,-2.39732 C 227.69853,331.62205 228,330.42323 228,329.91821 228,329.4132 228.40787,329 228.90638,329 c 1.16376,0 0.18526,3.82533 -1.19703,4.67963 -0.65978,0.40777 -0.80057,4.6e-4 -0.37929,-1.09737 z m 279.32077,-2.41559 c -1.34316,-1.48418 -1.38659,-1.83334 -0.22803,-1.83334 0.78711,0 1.64685,0.825 1.91053,1.83334 0.26369,1.00833 0.3663,1.83333 0.22804,1.83333 -0.13827,0 -0.99801,-0.825 -1.91054,-1.83333 z M 64.5,327 c 0.339919,-0.55 0.816476,-1 1.059017,-1 C 65.801558,326 66,326.45 66,327 c 0,0.55 -0.476558,1 -1.059017,1 -0.582459,0 -0.780902,-0.45 -0.440983,-1 z m -7.25,-4.68933 C 58.2125,322.05915 59,321.43635 59,320.92668 59,320.417 59.5051,320 60.122445,320 c 0.775506,0 0.737659,0.46364 -0.122445,1.5 -0.684689,0.825 -1.977289,1.4478 -2.872445,1.384 -1.373157,-0.0979 -1.354019,-0.18749 0.122445,-0.57333 z M 82.15,318.05 c 0.22,-0.66 0.72625,-1.16625 1.125,-1.125 1.195703,0.12369 0.964135,1.49529 -0.325,1.925 -0.66,0.22 -1.02,-0.14 -0.8,-0.8 z m 286.6,-0.71228 c 0.6875,-0.27741 1.8125,-0.27741 2.5,0 0.6875,0.27741 0.125,0.50439 -1.25,0.50439 -1.375,0 -1.9375,-0.22698 -1.25,-0.50439 z m 8.33333,0.30592 c 0.22917,-0.196 1.99167,-0.64537 3.91667,-0.9986 2.46242,-0.45185 3.05532,-0.35075 2,0.34104 -1.35564,0.88866 -6.90843,1.50578 -5.91667,0.65756 z M 408.75,313.33772 c 0.6875,-0.27741 1.8125,-0.27741 2.5,0 0.6875,0.27741 0.125,0.50439 -1.25,0.50439 -1.375,0 -1.9375,-0.22698 -1.25,-0.50439 z M 430,312.60699 c 0,-0.21616 0.69837,-0.661 1.55194,-0.98855 0.88992,-0.34149 1.29132,-0.17385 0.94098,0.39301 C 431.90566,312.96166 430,313.4169 430,312.60699 Z M 337.5,309 c -0.33992,-0.55 0.0835,-1 0.94098,-1 0.85746,0 1.55902,0.45 1.55902,1 0,0.55 -0.42344,1 -0.94098,1 -0.51754,0 -1.2191,-0.45 -1.55902,-1 z m 94.5,0 c 0,-0.55 0.47656,-1 1.05902,-1 0.58246,0 0.7809,0.45 0.44098,1 -0.33992,0.55 -0.81648,1 -1.05902,1 C 432.19844,310 432,309.55 432,309 Z M 49,306.96862 C 49,306.43588 49.675,306 50.5,306 c 0.825,0 1.5,0.17686 1.5,0.39301 0,0.21616 -0.675,0.65203 -1.5,0.96862 -0.825,0.31658 -1.5,0.13972 -1.5,-0.39301 z m 37.47619,-1.58767 c 0.890477,-0.89047 1.922087,-1.31601 2.292469,-0.94562 0.370381,0.37038 0.01145,1.09206 -0.797619,1.60373 -2.36246,1.49407 -3.254363,1.10141 -1.49485,-0.65811 z m 376.33631,-1.06406 c 0.72187,-0.28887 1.58438,-0.25335 1.91667,0.0789 0.33229,0.33229 -0.25834,0.56864 -1.3125,0.52522 -1.16495,-0.048 -1.4019,-0.28494 -0.60417,-0.60416 z m -149,-4 c 0.72187,-0.28887 1.58438,-0.25335 1.91667,0.0789 0.33229,0.33229 -0.25834,0.56864 -1.3125,0.52522 -1.16495,-0.048 -1.4019,-0.28494 -0.60417,-0.60416 z M 572,292.94098 c 0,-1.68246 0.38965,-2.8182 0.86589,-2.52386 C 573.67146,290.91498 573.23201,296 572.38342,296 572.17254,296 572,294.62344 572,292.94098 Z M 119.5,293 c -0.33992,-0.55 -0.16803,-1 0.38197,-1 0.55,0 1.27811,0.45 1.61803,1 0.33992,0.55 0.16803,1 -0.38197,1 -0.55,0 -1.27811,-0.45 -1.61803,-1 z M 315,286.94098 c 0,-0.58246 0.45,-0.7809 1,-0.44098 0.55,0.33992 1,0.81648 1,1.05902 0,0.24254 -0.45,0.44098 -1,0.44098 -0.55,0 -1,-0.47656 -1,-1.05902 z M 486,287 c -0.90129,-0.58246 -1.02463,-0.97549 -0.30902,-0.98469 0.65504,-0.008 1.4691,0.43469 1.80902,0.98469 0.7673,1.24153 0.42112,1.24153 -1.5,0 z m -162.1875,-3.68311 c 0.72187,-0.28887 1.58438,-0.25335 1.91667,0.0789 0.33229,0.33229 -0.25834,0.56864 -1.3125,0.52522 -1.16495,-0.048 -1.4019,-0.28494 -0.60417,-0.60416 z M 524.75,282.29427 c 1.2375,-0.23836 3.2625,-0.23836 4.5,0 1.2375,0.23835 0.225,0.43337 -2.25,0.43337 -2.475,0 -3.4875,-0.19502 -2.25,-0.43337 z M 484.33333,277.5 c 0,-0.85556 0.40875,-1.41931 0.90834,-1.25278 0.49958,0.16653 0.90833,0.73028 0.90833,1.25278 0,0.5225 -0.40875,1.08625 -0.90833,1.25278 -0.49959,0.16653 -0.90834,-0.39722 -0.90834,-1.25278 z m -148.58556,-1.0991 c -0.34012,-0.55033 0.23163,-1.53145 1.27055,-2.18027 1.19544,-0.74656 2.11122,-0.82005 2.49434,-0.20015 0.33295,0.53874 -0.0587,0.97952 -0.87031,0.97952 -0.81163,0 -1.6558,0.54034 -1.87593,1.20075 -0.24915,0.74743 -0.63371,0.82299 -1.01865,0.20015 z M 500.75,273.33772 c 0.6875,-0.27741 1.8125,-0.27741 2.5,0 0.6875,0.27741 0.125,0.50439 -1.25,0.50439 -1.375,0 -1.9375,-0.22698 -1.25,-0.50439 z m 10.01166,-0.045 c 1.24391,-0.23919 3.04391,-0.23011 4,0.0202 0.95609,0.25029 -0.0617,0.446 -2.26166,0.4349 -2.2,-0.0111 -2.98225,-0.21589 -1.73834,-0.45508 z M 340.15,272.05 c 0.22,-0.66 0.72625,-1.16625 1.125,-1.125 1.1957,0.12369 0.96414,1.49529 -0.325,1.925 -0.66,0.22 -1.02,-0.14 -0.8,-0.8 z m 4.44357,-4.49476 c 1.00246,-0.73302 2.5165,-1.11536 3.36454,-0.84966 1.35658,0.42503 1.36162,0.35591 0.0419,-0.57508 -1.32404,-0.93404 -1.3086,-1.24963 0.13168,-2.6903 2.10601,-2.10659 3.09378,-0.5127 1.55734,2.51296 -0.75062,1.47818 -2.24519,2.45088 -4.05355,2.63816 -2.60843,0.27014 -2.70158,0.17751 -1.0419,-1.03608 z M 532.5,255 c -0.33992,-0.55 -1.49148,-1 -2.55902,-1 C 528.86256,254 528,253.31777 528,252.46482 c 0,-1.29505 0.35195,-1.34003 2.25,-0.28755 1.2375,0.6862 2.5125,1.17703 2.83333,1.09074 0.32084,-0.0863 0.58334,0.4931 0.58334,1.28755 0,1.69853 -0.31697,1.81928 -1.16667,0.44444 z m -174.05385,-4.08713 c -0.36954,-0.59793 -0.26752,-1.4915 0.2267,-1.98572 0.53144,-0.53144 0.89858,-0.0873 0.89858,1.08714 0,2.27223 -0.18501,2.41996 -1.12528,0.89858 z M 93,243 c 0,-0.55 0.423442,-1 0.940983,-1 0.517541,0 1.219098,0.45 1.559017,1 0.339919,0.55 -0.08352,1 -0.940983,1 C 93.701558,244 93,243.55 93,243 Z m 83.65625,-7.5 c 0.33499,-2.2 0.77437,-4.1875 0.97641,-4.41667 0.75747,-0.85918 0.19039,4.49696 -0.67936,6.41667 -0.63152,1.3939 -0.72154,0.7878 -0.29705,-2 z m 308.07708,-8.62409 c 0.67834,-0.68342 1.48524,-0.99067 1.79313,-0.68278 0.30789,0.30789 -0.24711,0.86705 -1.23333,1.24258 -1.4252,0.54268 -1.54006,0.42782 -0.5598,-0.5598 z M 367.8125,225.31689 c 0.72187,-0.28887 1.58438,-0.25335 1.91667,0.0789 0.33229,0.33229 -0.25834,0.56864 -1.3125,0.52522 -1.16495,-0.048 -1.4019,-0.28494 -0.60417,-0.60416 z m -187.73355,-4.90022 c 0.048,-1.16495 0.28494,-1.4019 0.60416,-0.60417 0.28887,0.72187 0.25335,1.58437 -0.0789,1.91667 -0.3323,0.33229 -0.56864,-0.25834 -0.52522,-1.3125 z m 232.61198,-2.05364 c 0.7465,-1.94535 2.8805,-2.28888 2.8805,-0.4637 0,0.91965 -0.75245,1.6721 -1.6721,1.6721 -0.91966,0 -1.46343,-0.54378 -1.2084,-1.2084 z M 116,215 c 0,-0.55 0.45,-1 1,-1 0.55,0 1,0.45 1,1 0,0.55 -0.45,1 -1,1 -0.55,0 -1,-0.45 -1,-1 z m 65.07895,-2.58333 c 0.048,-1.16495 0.28494,-1.4019 0.60416,-0.60417 0.28887,0.72187 0.25335,1.58437 -0.0789,1.91667 -0.3323,0.33229 -0.56864,-0.25834 -0.52522,-1.3125 z M 188,186.05902 c 0,-0.51754 0.44485,-1.21592 0.98855,-1.55194 0.56686,-0.35034 0.7345,0.0511 0.39301,0.94098 C 188.71677,187.18048 188,187.49745 188,186.05902 Z M 188,182 c 0,-0.55 0.45,-1 1,-1 0.55,0 1,0.45 1,1 0,0.55 -0.45,1 -1,1 -0.55,0 -1,-0.45 -1,-1 z m 136.51727,-18.07198 c -8.75447,-2.18377 -7.02306,-5.53629 2.10041,-4.06699 5.4499,0.87768 7.92904,0.67751 17.13232,-1.38329 2.83718,-0.6353 3.25,-0.47025 3.25,1.29943 0,1.38522 -1.02921,2.39027 -3.25,3.17374 -4.63849,1.6364 -14.56749,2.14084 -19.23273,0.97711 z M 185.54271,156.0691 c -0.31644,-0.512 -0.11799,-1.21356 0.44098,-1.55902 0.55897,-0.34546 1.01631,0.0734 1.01631,0.9309 0,1.75653 -0.60006,2.01516 -1.45729,0.62812 z m 214.95176,-4.07805 c -1.12857,-1.82607 0.55515,-4.85878 3.80716,-6.85744 6.12298,-3.76312 13.85772,-3.59721 12.37547,0.26547 -0.41997,1.09443 -1.86541,1.60092 -4.56879,1.60092 -3.06052,0 -4.63265,0.67818 -6.95446,3 -3.29083,3.29083 -3.73798,3.48191 -4.65938,1.99105 z M 335.25,140.00668 c -4.50288,-1.88567 -1.98046,-4.5563 3.90228,-4.13156 4.35497,0.31444 5.05659,-0.55618 9.45349,-11.73064 2.87063,-7.29554 4.62988,-9.30883 6.50005,-7.43866 1.35968,1.35968 -6.82449,20.06374 -9.56475,21.85923 -2.93796,1.92502 -7.58294,2.57572 -10.29107,1.44163 z m 30.41667,-7.67335 c -1.57197,-1.57196 -0.56002,-7.15636 1.7481,-9.64686 4.62122,-4.98639 10.58523,-4.40269 10.58523,1.03597 0,4.93249 -9.42876,11.51546 -12.33333,8.61089 z M 144.51563,116.01864 132.53126,104 H 84.215972 C 30.039366,104 30.995391,104.11692 28.977444,97.244175 28.229323,94.696215 27.977441,79.334783 28.189048,49.162608 L 28.5,4.8252154 31.305764,2.4126077 34.111527,0 h 68.021163 68.02116 l 2.95196,2.9519599 2.95196,2.9519599 -0.27889,46.5209862 -0.27888,46.520986 -2.24479,2.244068 c -1.79142,1.79084 -3.65361,2.32368 -9.22012,2.63821 l -6.97532,0.39415 -0.27988,11.90748 L 156.5,128.03728 Z M 161.78575,98.788411 170.5,98.5 170.76018,52.614728 C 170.94756,19.567221 170.70347,6.3476322 169.88773,5.3647276 168.20309,3.334859 35.796907,3.334859 34.112266,5.3647276 33.296528,6.3476322 33.052435,19.567221 33.239821,52.614728 L 33.5,98.5 l 50.028838,0.259125 50.028842,0.259125 9.47116,9.51486 9.47116,9.51486 0.28575,-9.48558 0.28575,-9.485567 z M 74.985077,73.138923 72,70.153846 V 51.713287 33.272727 L 74.636364,30.636364 77.272727,28 h 18.44056 18.440563 l 2.92307,2.923077 C 119.49498,33.341139 120,34.674685 120,38.641773 v 4.79562 L 126,37.5 132,31.562607 V 52 72.437393 L 126,66.5 120,60.562607 v 4.662933 c 0,3.485661 -0.60879,5.371316 -2.4113,7.468696 L 115.1774,75.5 96.573778,75.812 77.970155,76.124001 Z M 114.77356,52.630851 c 0.18879,-12.331693 -0.0816,-18.297061 -0.87245,-19.25 C 112.1107,31.223532 79.749565,31.393292 77.571429,33.571429 76.268106,34.874751 76,37.99697 76,51.871429 c 0,11.842863 0.356807,17.085378 1.221701,17.950272 0.893052,0.893052 6.07149,1.148612 19.25,0.95 L 114.5,70.5 Z M 128,51.797052 V 41.594104 L 124,45.5 c -5.10955,4.989338 -5.17324,7.714168 -0.29705,12.707837 2.03662,2.08569 3.83662,3.792163 4,3.792163 C 127.86633,62 128,57.408674 128,51.797052 Z m 204.01098,50.223468 c -1.46988,-2.746499 -0.35899,-6.312921 2.9555,-9.488405 3.66252,-3.508914 8.35913,-3.269095 8.88396,0.453635 0.97576,6.921139 -8.92653,14.47763 -11.83946,9.03477 z M 293.74508,70.75 c -0.23187,-0.6875 0.51813,-2.526444 1.66667,-4.086541 1.52265,-2.068267 2.04734,-4.167347 1.93719,-7.75 C 297.22062,54.739713 297.47726,54 299.05363,54 c 2.18168,0 3.56752,5.389008 2.48994,9.682432 -1.45012,5.777744 -6.6455,10.486176 -7.79849,7.067568 z"
         id="path4" />
      <path
         style="fill:#5d5f65"
         d="M 116.5,422.77274 C 103.20523,418.03378 90.377575,399.99069 84.313544,377.5 c -2.413005,-8.94951 -2.702402,-11.78583 -2.754893,-27 -0.05229,-15.15533 0.196461,-17.81251 2.292392,-24.4879 1.293073,-4.11834 3.227261,-9.20543 4.298194,-11.30463 l 1.947152,-3.81673 -2.298194,1.41337 c -1.264007,0.77735 -15.905988,9.17689 -32.537735,18.66563 -28.139961,16.05441 -34.367684,18.85193 -33.029349,14.83693 0.218584,-0.65576 18.214257,-11.40928 39.990383,-23.89672 38.566386,-22.11574 46.755176,-26.00734 51.164716,-24.31524 1.33981,0.51413 10.62331,-3.74423 44.86379,-20.57916 7.0125,-3.44782 12.75281,-6.54929 12.75624,-6.89216 0.003,-0.34286 5.46315,-23.57339 12.1327,-51.62339 6.66955,-28.05 12.31282,-53.475 12.5406,-56.5 0.22778,-3.025 0.0406,-11.8 -0.41585,-19.5 -0.45651,-7.7 -0.47743,-14.45 -0.0465,-15 0.43093,-0.55 1.64351,-2.125 2.69462,-3.5 l 1.91111,-2.5 50.46963,-0.23943 c 33.95926,-0.16111 51.47656,0.11158 53.54768,0.83358 1.69293,0.59016 3.38209,2.0479 3.75369,3.23943 0.3716,1.19153 1.07078,2.42155 1.55372,2.73338 0.49742,0.32118 0.18164,11.28238 -0.72843,25.28478 -0.88357,13.59479 -1.38369,25.29844 -1.11136,26.00811 0.27232,0.70968 4.02696,2.35438 8.34364,3.65489 6.25184,1.88354 9.98459,2.3445 18.34851,2.26585 17.19811,-0.16171 32.6567,-5.71191 49.4024,-17.73725 l 7.9024,-5.67483 6.8564,3.06575 c 4.22746,1.89024 8.4826,3.05732 11.0976,3.04378 12.8573,-0.0666 22.13866,-12.34351 18.67747,-24.70567 -1.2289,-4.3892 -6.18174,-10.53128 -10.33649,-12.81842 -1.84147,-1.0137 -1.82078,-1.24559 0.6693,-7.5 5.04108,-12.66182 6.17529,-18.63172 6.20395,-32.654278 0.0165,-8.084263 -0.38799,-13.615165 -1.04371,-14.27068 -0.76077,-0.760534 -3.24484,0.377564 -8.58191,3.931874 C 404.17487,87.068411 389,92.409887 389,89.059017 c 0,-1.321992 1.59955,-2.177605 8.74331,-4.676882 5.95734,-2.084201 15.77878,-7.209614 15.0852,-7.872352 -0.18068,-0.172643 -4.15963,0.971175 -8.8421,2.541816 -26.01774,8.727118 -52.84455,7.786326 -73.79581,-2.587952 -5.12017,-2.535316 -9.56742,-5.28206 -9.88278,-6.103874 -1.22503,-3.192371 1.36596,-3.137228 6.7204,0.143026 3.04052,1.862694 9.79052,4.831599 15,6.597566 17.2097,5.833934 42.5713,4.999289 61.97178,-2.039478 l 5.5,-1.995478 -6.5,0.717295 c -3.575,0.394513 -14.375,0.683687 -24,0.64261 -14.34812,-0.06123 -19.06827,-0.461277 -26.2074,-2.22113 -16.28578,-4.014577 -26.26849,-8.700027 -41.63092,-19.539749 -7.27231,-5.131333 -15.82261,-4.535073 -22.79853,1.589868 -4.72475,4.148378 -6.5208,8.014597 -6.57598,14.155552 -0.0462,5.143658 1.61854,9.680576 5.27398,14.37299 1.73071,2.221681 1.68704,2.480507 -1.63018,9.660186 -1.8747,4.057537 -4.40612,11.467759 -5.62539,16.467159 L 277.58872,118 h -16.81455 -16.81455 l -4.99669,-7.65417 c -6.33021,-9.69691 -8.3509,-16.418853 -7.74568,-25.766446 0.51208,-7.90897 3.06869,-14.627399 7.87604,-20.697167 4.46218,-5.633967 56.28009,-43.037731 66.42725,-47.949239 31.42675,-15.2114176 70.08015,-12.2249352 98.00011,7.571795 3.31136,2.347928 11.50097,9.93857 18.19913,16.868094 14.52658,15.028336 16.16004,18.605574 12.80059,28.032961 -1.32254,3.711355 -1.24426,4.198183 1.57217,9.77749 7.76612,15.384602 11.58633,33.513652 10.58722,50.242322 -0.77249,12.93432 -2.83091,20.03835 -12.19431,42.0852 -4.20204,9.89404 -9.70651,22.86277 -12.23214,28.8194 -7.22779,17.04651 -15.22292,24.17903 -30.02614,26.78656 -7.12149,1.25443 -16.93514,-0.0222 -23.94507,-3.115 l -4.2179,-1.86094 -0.5304,3.67957 c -1.98304,13.757 -6.35306,24.77172 -13.819,34.83101 -9.69068,13.05682 -27.70277,24.73962 -43.87956,28.46067 -5.62054,1.29285 -5.66807,1.33458 -6.0893,5.34546 -0.2335,2.22334 -0.3133,4.18849 -0.17734,4.367 0.13596,0.17851 15.25115,5.41004 33.5893,11.62562 L 366.5,320.75125 399,317.39944 c 17.875,-1.84349 33.2875,-3.36252 34.25,-3.37562 0.9625,-0.0131 1.75,-0.66057 1.75,-1.43881 0,-1.52795 25.91551,-20.33272 35.1216,-25.48488 7.96374,-4.45689 20.11601,-8.68793 28.8784,-10.05455 4.12728,-0.64371 14.24543,-1.02939 22.5,-0.85766 13.78567,0.28682 15,0.46104 15,2.15214 0,1.71194 -1.28818,1.85651 -18.5,2.07612 -16.82676,0.21469 -19.29486,0.47849 -27.28832,2.91666 -11.31876,3.45245 -20.19813,7.96457 -31.7154,16.11642 L 449.74114,306 h 6.44793 c 18.58634,0 44.67622,15.76946 60.18737,36.37895 18.14911,24.11452 22.18749,48.10975 10.12667,60.17057 -11.62575,11.62575 -36.00708,7.50024 -59.30791,-10.03535 -7.11148,-5.35192 -8.20288,-5.78627 -41.23994,-16.41237 l -33.93515,-10.91497 -11.89039,5.37553 c -14.3675,6.49541 -19.00315,7.65939 -30.38035,7.62825 -8.2371,-0.0225 -9.96828,-0.44602 -29.5,-7.21621 C 308.83722,367.01866 298.6,363.58879 297.5,363.35247 c -1.70114,-0.36547 -2.91095,1.49355 -8.09618,12.44071 -7.37079,15.56137 -10.22958,18.3496 -19.50159,19.02027 L 264,395.24038 l 0.0526,-3.87019 c 0.0289,-2.1286 0.65947,-7.24519 1.4012,-11.37019 0.74172,-4.125 1.20419,-7.65136 1.0277,-7.83636 -0.17649,-0.185 -3.48194,4.37511 -7.34545,10.13356 -7.50799,11.19048 -10.49587,14.18364 -15.18718,15.21403 -3.84115,0.84366 -9.75346,-2.01427 -12.43568,-6.01123 -1.39856,-2.08409 -2.68136,-2.9049 -4.20171,-2.68851 -4.64502,0.66113 -7.8811,-6.01013 -5.27631,-10.87723 0.56935,-1.06384 0.78753,-1.93426 0.48485,-1.93426 -0.30269,0 -8.75659,4.44309 -18.78644,9.87353 -16.96591,9.18581 -18.75669,9.92581 -25.71031,10.62413 -6.25989,0.62866 -7.30523,0.52735 -6.43411,-0.62353 7.09751,-9.37686 7.44175,-9.63708 26.88148,-20.3199 C 209.21179,369.65159 218,364.46032 218,364.01807 c 0,-0.44225 -0.675,-1.06311 -1.5,-1.3797 -0.825,-0.31658 -1.5,-1.04236 -1.5,-1.61284 0,-0.57047 4.75654,-9.72903 10.5701,-20.35234 l 10.57009,-19.31512 6.17991,-3.119 6.1799,-3.11901 -12.72432,-0.06 -12.72432,-0.06 -1.42233,2.75 c -0.78227,1.5125 -3.44405,5.49615 -5.91506,8.85255 -4.46394,6.06342 -6.08014,7.38772 -47.21397,38.68635 l -13,9.89167 -1.69527,10.23383 c -2.56056,15.4574 -6.52652,24.18233 -14.44884,31.78677 -6.55746,6.29435 -15.03241,8.36028 -22.85589,5.57157 z m 128.94448,-29.9294 c 2.35036,-1.07089 15.43932,-19.36391 30.83401,-43.09334 3.12216,-4.8125 6.11019,-8.75 6.64006,-8.75 2.70517,0 1.6596,3.0022 -4.30299,12.35542 -6.51776,10.22409 -6.56159,10.34124 -8.58339,22.94403 C 268.91448,383.26656 268,389.42436 268,389.98346 c 0,1.62009 4.91817,1.17782 8.1563,-0.73346 2.21639,-1.30821 4.85118,-5.47366 10.43681,-16.5 4.10956,-8.1125 7.64282,-14.75 7.85168,-14.75 0.20887,0 9.98173,3.38214 21.71748,7.51586 34.44783,12.13367 38.90916,12.14361 65.51249,0.14603 l 10.17477,-4.58862 40.32523,13.09385 c 44.96821,14.60145 49.21521,15.42032 57.46779,11.08038 5.3683,-2.82312 11.09719,-9.56727 12.47568,-14.68657 1.3797,-5.12381 0.73066,-13.03394 -1.4409,-17.56093 -2.42715,-5.05981 -32.59976,-37.43419 -35.23179,-37.80275 -1.87343,-0.26232 -84.00181,7.824 -94.93625,9.34738 -3.32834,0.46371 -10.46551,-1.63045 -43,-12.61686 L 288.5,298.75492 263.81591,311.62746 239.13182,324.5 l -9.56591,17.18557 c -5.26125,9.45206 -9.56591,17.43956 -9.56591,17.75 0,1.77883 5.69021,0.0652 9.95312,-2.99736 4.04665,-2.90722 5.97298,-5.45447 10.48204,-13.86073 3.03836,-5.66441 6.12949,-10.80121 6.86919,-11.41511 0.73971,-0.6139 7.37384,-4.47367 14.74253,-8.57727 10.18623,-5.67268 13.71405,-7.19848 14.71775,-6.36548 1.85906,1.54288 1.15351,2.06892 -13.85632,10.33085 l -13.21547,7.27425 -5.43659,9.83764 C 235.95017,358.69239 225,380.78789 225,382.51806 c 0,2.08863 2.37462,2.85707 5.55398,1.79728 2.12404,-0.70801 4.35438,-4.27328 11.78299,-18.83543 l 9.16303,-17.9621 14.31025,-7.89866 c 11.14242,-6.15014 14.57362,-7.63145 15.5,-6.69158 1.54621,1.56872 0.41188,2.38982 -14.98316,10.84569 l -12.1729,6.68608 -9.58485,19.52033 c -5.27167,10.73618 -9.58136,19.84346 -9.5771,20.23839 0.009,0.87772 5.04677,3.68652 6.71071,3.7419 0.66162,0.022 2.34531,-0.48046 3.74153,-1.11662 z M 128.9249,388 c 2.06728,0 11.91206,-6.92447 39.16822,-27.54954 20.02378,-15.15224 38.65818,-29.95273 41.40977,-32.88997 2.75158,-2.93724 6.48734,-8.32317 8.30167,-11.96873 5.01234,-10.07135 6.19339,-18.42746 6.20902,-43.92973 l 0.0136,-22.16203 9.62269,-8.5 c 16.52153,-14.59394 15.72058,-14.08 25.15965,-16.14419 11.54546,-2.52484 13.62628,-3.44981 17.3872,-7.72904 l 3.1875,-3.62677 -10.9421,-0.31818 c -6.01815,-0.17501 -15.05459,-0.0243 -20.08098,0.33499 l -9.13887,0.65318 -14.75316,10.88624 c -8.11424,5.98743 -15.13924,10.64763 -15.61112,10.35599 -2.27647,-1.40694 0.25635,-3.95933 13.89203,-13.99938 l 14.75,-10.86054 8.5,-0.68907 c 4.675,-0.379 13.25331,-0.72826 19.06291,-0.77616 10.23508,-0.0844 10.64691,-0.17475 13.26969,-2.91235 1.48874,-1.5539 3.11652,-4.2539 3.61729,-6 l 0.9105,-3.17472 -9.6802,0.10423 c -5.3241,0.0573 -15.53019,0.39483 -22.68019,0.75 l -13,0.64577 -16.80824,11.89176 c -11.78591,8.33848 -17.12337,11.57663 -17.86287,10.83713 -0.58004,-0.58004 -0.7655,-1.52244 -0.41212,-2.09422 0.35338,-0.57178 8.34623,-6.46099 17.76188,-13.08713 L 237.29803,194 h 11.7304 11.73041 l 3.97689,-3.85945 c 4.25525,-4.12958 6.0258,-8.51803 4.28361,-10.61725 -0.8585,-1.03443 -4.29202,-0.60831 -17.58613,2.18254 l -16.51935,3.46793 -17.92051,11.49464 C 200.7864,207.06393 197,208.82121 197,205.94742 c 0,-0.514 2.90757,-2.84994 6.46126,-5.19098 5.96155,-3.92725 6.63558,-4.74643 8.71514,-10.59201 2.46409,-6.92647 2.86401,-7.24925 13.8236,-11.15731 7.99621,-2.85135 12.46678,-6.03875 13.78877,-9.83104 2.00378,-5.74803 1.16795,-5.8319 -20.95705,-2.10287 L 198.5,170.5 186.49805,221.70195 c -6.60107,28.16107 -12.45107,51.63925 -13,52.17374 -0.54893,0.53449 -17.64805,9.05969 -37.99805,18.9449 l -37,17.97311 -2.673501,20.35315 c -1.470425,11.19423 -2.707925,22.92377 -2.75,26.06564 -0.150876,11.2665 5.994998,21.78722 15.865761,27.15957 4.99996,2.72132 13.17066,4.78199 15.88953,4.00737 C 125.56427,388.17074 127.40617,388 128.9249,388 Z M 314.89764,280.76101 c 32.80299,-13.61568 50.39233,-45.00453 42.573,-75.97313 -2.7567,-10.91798 -1.72427,-10.55421 -19.17037,-6.75454 -8.27646,1.80257 -15.78033,2.99642 -16.67527,2.653 -1.45345,-0.55774 -1.37233,-1.20065 0.7598,-6.02178 l 2.38698,-5.39737 -5.63589,-1.24397 c -3.09974,-0.68418 -7.11816,-1.8546 -8.92981,-2.60092 -2.54139,-1.04694 -3.38075,-1.07884 -3.67395,-0.13963 -0.20901,0.66953 -1.54688,20.34233 -2.97303,43.71733 -1.42616,23.375 -2.87465,45.59964 -3.21887,49.38808 l -0.62586,6.88809 3.89281,-0.72229 c 2.14105,-0.39727 7.22176,-2.10405 11.29046,-3.79287 z M 325.25,163.84167 c -4.29304,-0.81299 -5.25,-1.36612 -5.25,-3.03452 0,-1.7071 0.44911,-1.94062 2.75,-1.42989 7.08403,1.57245 12.09492,1.65059 17.23421,0.26877 5.71355,-1.53623 7.01579,-1.39614 7.01579,0.7547 0,2.82151 -13.63242,4.97821 -21.75,3.44094 z m 75.0773,-12.43112 c -0.38537,-1.00427 0.53746,-2.73685 2.50658,-4.70597 2.66778,-2.66778 3.862,-3.12285 8.29396,-3.16055 6.66729,-0.0567 7.59294,1.97084 1.32863,2.91023 -3.11627,0.46731 -5.63115,1.65093 -7.69163,3.62004 -3.56316,3.40514 -3.63529,3.42686 -4.43754,1.33625 z m -64.2151,-11.68244 c -3.45849,-1.7788 -2.67577,-3.22811 1.74338,-3.22811 2.10926,0 4.52049,-0.56851 5.35829,-1.26336 0.83779,-0.69485 3.21907,-5.30735 5.29173,-10.25 3.3676,-8.03068 5.43238,-10.51403 6.84349,-8.23082 0.4568,0.73912 -2.5791,8.67839 -6.43584,16.83055 -2.6593,5.62108 -8.43013,8.38983 -12.80105,6.14174 z M 366.2,131.8 c -3.8771,-3.8771 3.36878,-14.0238 8.78662,-12.30425 2.72034,0.86341 3.36884,3.91618 1.57062,7.39357 -2.68231,5.18701 -7.70127,7.56665 -10.35724,4.91068 z m -222.66417,-16.76407 -11.9329,-11.96408 -49.005739,-0.0535 c -48.780686,-0.0533 -49.016279,-0.0634 -51.301464,-2.21023 L 29,98.651372 V 51.780231 4.9090909 L 31.454545,2.4545455 33.909091,0 h 67.989689 67.98969 l 2.80577,2.4125943 2.80576,2.4125943 0.30238,43.8374054 c 0.16631,24.110573 0.0287,45.325006 -0.30578,47.143183 C 174.45717,101.45587 171.98959,103 164,103 h -7 v 12 c 0,6.6 -0.34453,12 -0.76563,12 -0.4211,0 -6.13544,-5.38383 -12.69854,-11.96407 z M 160.53753,100 C 172.92397,100 172,103.90376 172,51.571429 172,12.515152 171.80998,6.9528403 170.42857,5.5714286 169.0314,4.1742566 161.45758,4 102.12857,4 51.561905,4 35.109356,4.2906444 34.2,5.2 33.301628,6.098372 33,17.903292 33,52.164816 c 0,44.222877 0.06517,45.799695 1.934259,46.8 C 36.19185,99.637859 53.953155,100 85.705108,100 H 134.5417 l 8.97915,9.02542 8.97915,9.02541 0.28753,-9.02541 L 153.07505,100 Z M 78.269925,75.296878 c -1.226541,-0.236917 -3.139041,-1.586321 -4.25,-2.998677 C 72.163827,69.938555 72,68.275082 72,51.788218 V 33.846154 L 74.923077,30.923077 77.846154,28 h 18.021159 c 17.382977,0 18.116217,0.08176 20.705347,2.308842 2.09459,1.801689 2.79554,3.467727 3.19114,7.584737 l 0.50694,5.275896 5.86463,-5.803434 L 132,31.562607 V 51.281303 C 132,62.126587 131.67665,71 131.28145,71 c -0.39521,0 -3.09521,-2.347128 -6,-5.21584 L 120,60.56832 v 3.7655 c 0,5.210026 -2.33482,9.238647 -6.11884,10.557763 -3.01771,1.051981 -30.635982,1.366307 -35.611235,0.405295 z M 114,70 c 1.83768,-1.837681 2,-3.333333 2,-18.428571 0,-13.601732 -0.27039,-16.698965 -1.57143,-18 C 113.12046,32.263319 109.94259,32 95.463755,32 79.290878,32 77.997728,32.135729 77.035184,33.934259 76.443526,35.039781 76,42.825287 76,52.105518 76,65.810894 76.258041,68.62765 77.654988,70.171259 79.129722,71.800822 81.090197,72 95.654988,72 110.66667,72 112.16315,71.836851 114,70 Z M 128,51.797052 V 41.594104 L 124,45.5 c -5.10955,4.989338 -5.17324,7.714168 -0.29705,12.707837 2.03662,2.08569 3.83662,3.792163 4,3.792163 C 127.86633,62 128,57.408674 128,51.797052 Z M 333.34995,103.23469 C 329.02199,100.46986 334.26848,90 339.9819,90 c 5.14726,0 5.48175,5.73635 0.6181,10.6 -3.40023,3.40023 -5.09029,4.01441 -7.25005,2.63469 z M 294.41061,70.627649 c -0.28253,-0.736249 0.4462,-2.965515 1.61939,-4.953925 1.42755,-2.419506 2.02342,-4.857023 1.80154,-7.369501 -0.25286,-2.863236 0.0607,-3.832441 1.32133,-4.083837 2.9049,-0.579309 3.45062,6.901526 0.88942,12.192261 -2.23095,4.608522 -4.75558,6.498072 -5.63168,4.215002 z"
         id="path3" />
      <path
         style="fill:#050510"
         d="M 119.5,423.08319 C 106.92482,419.91804 94.151443,405.25935 87.607175,386.48308 83.131229,373.64107 81.677407,364.50984 81.718936,349.5 c 0.0429,-15.50466 2.103452,-25.90976 6.792362,-34.29913 1.384843,-2.47776 2.398827,-4.61986 2.253299,-4.76023 -0.145528,-0.14038 -15.098306,8.24684 -33.228396,18.63827 -22.97361,13.16753 -33.277835,18.57421 -34,17.83997 -0.717982,-0.72998 -0.421998,-1.51142 0.963799,-2.54456 3.44267,-2.56658 74.796962,-43.05955 78.87212,-44.75928 2.12967,-0.88827 5.97967,-1.61504 8.55555,-1.61504 3.99752,0 8.64392,-1.96004 31.72613,-13.38336 14.87349,-7.36084 27.29773,-14.04795 27.60943,-14.86023 0.3117,-0.81227 5.81845,-23.92726 12.23721,-51.36664 6.41877,-27.43937 12.06382,-50.36395 12.54457,-50.94349 0.50035,-0.60318 0.40177,-9.13407 -0.23055,-19.95164 -0.82794,-14.16416 -0.81781,-18.99352 0.0404,-19.27961 0.6298,-0.20993 1.14509,-0.98705 1.14509,-1.72693 0,-0.73989 0.70714,-2.05239 1.57143,-2.91667 1.38864,-1.38859 7.66895,-1.57143 53.977,-1.57143 h 52.40551 l 1.74996,2.75 c 0.96247,1.5125 2.0341,2.975 2.38139,3.25 0.52072,0.41233 -0.50695,20.66648 -2.36954,46.70077 l -0.37208,5.20076 4.6053,1.98115 c 10.45452,4.49741 27.09759,5.1738 40.40524,1.6421 12.74254,-3.38172 28.85152,-11.78636 36.73311,-19.16499 l 2.58727,-2.42217 6.91273,3.118 c 5.90496,2.66345 7.82232,3.06209 13.15196,2.73449 6.87731,-0.42275 9.6588,-1.9655 14.64019,-8.12017 2.37068,-2.92905 3.08342,-4.92053 3.41838,-9.55131 0.53908,-7.45272 -1.45255,-11.8489 -7.8738,-17.38003 -4.54161,-3.91205 -4.7142,-4.24461 -3.46553,-6.67784 0.72276,-1.40842 2.58115,-6.38576 4.12976,-11.06076 2.59321,-7.82851 2.81944,-9.73764 2.86371,-24.166667 0.0264,-8.616666 -0.21207,-15.926798 -0.53001,-16.244736 -0.31794,-0.317939 -4.25938,1.843885 -8.75876,4.804053 C 407.68115,84.315111 394.96848,90 391.44279,90 c -3.15432,0 -1.19049,-2.758181 2.80721,-3.942683 5.37713,-1.593222 17.77272,-7.71329 19.75,-9.751151 1.33333,-1.374188 1.33333,-1.48446 0,-0.992448 -32.77775,12.095285 -58.59827,12.489549 -82.5,1.259726 -8.54746,-4.015878 -12.49574,-6.911037 -11.19662,-8.210156 0.32361,-0.323609 5.22523,1.683692 10.8925,4.46067 12.64622,6.196686 22.61745,8.505281 36.80412,8.5211 12.61364,0.01407 22.27526,-1.532042 35,-5.600894 10.17543,-3.253687 10.78937,-4.554172 1.31301,-2.78131 -29.35951,5.492656 -63.27165,-0.621753 -84.98543,-15.322997 -11.26986,-7.630228 -13.39739,-8.636598 -18.26186,-8.638303 -9.37671,-0.0033 -18.26358,7.466612 -19.61654,16.488755 -0.8604,5.737573 0.0519,9.413524 3.70484,14.92851 l 3.02896,4.572883 -3.61427,8.414883 c -1.98784,4.628186 -4.39151,11.839945 -5.34149,16.026125 l -1.72722,7.61125 -17,-0.27198 -17,-0.27198 -4.73024,-7 C 227.71472,93.140297 229.07007,74.080925 242.19634,61.314235 250.23169,53.499007 296.03526,21.039098 305.5,16.452425 337.51493,0.93778725 375.06627,3.8547091 404,24.103732 c 5.36758,3.756457 27.29705,26.114853 29.71456,30.295768 1.55272,2.685298 1.63259,11.744474 0.13259,15.036625 -1.00383,2.20316 -0.60531,3.708696 3.08292,11.646868 6.80174,14.639361 9.28352,25.850547 9.27904,41.917007 -0.005,17.82957 -1.0705,21.53243 -16.78063,58.31554 -11.01015,25.77876 -13.32685,30.42526 -17.11104,34.3189 -9.69227,9.97262 -25.431,13.06507 -40.58849,7.97512 C 367.45487,222.1743 363.74237,221 363.47895,221 363.21553,221 363,222.50302 363,224.34004 c 0,5.74605 -3.81198,18.56514 -7.73563,26.01374 -2.63541,5.00301 -6.46354,9.84539 -12.76437,16.14622 -10.21718,10.21718 -19.95403,16.01613 -34.47856,20.53429 l -8.52144,2.65077 -0.30436,4.0932 c -0.23335,3.13823 0.11661,4.30854 1.5,5.01621 0.9924,0.50766 16.32681,5.76442 34.07648,11.68167 l 32.27211,10.75865 31.22789,-3.15496 c 35.16138,-3.55237 36.70916,-3.78003 36.77566,-5.40929 0.0765,-1.87446 28.83235,-21.72479 38.90175,-26.85411 15.15321,-7.719 32.05312,-10.73675 52.37178,-9.35183 7.96848,0.54313 10.67869,1.0723 10.67869,2.08503 0,1.09345 -3.35199,1.34207 -17.25,1.27943 -15.39175,-0.0694 -18.28091,0.19385 -26.81983,2.4433 -11.68979,3.0795 -21.45781,7.87212 -33.82932,16.59813 l -9.39915,6.62951 3.89915,0.24852 c 19.4071,1.23694 36.67521,10.09731 53.89915,27.65597 15.34143,15.63957 24.04008,31.90372 25.21496,47.1452 0.796,10.32636 -1.4161,17.13704 -7.22759,22.25252 -13.27256,11.68296 -36.50975,6.47631 -62.98737,-14.11329 -1.85407,-1.44177 -15.8646,-6.43337 -36.67902,-13.06781 l -33.67902,-10.73495 -12.34177,5.4615 c -14.70742,6.50836 -21.95108,8.12433 -33.09207,7.38244 -7.93136,-0.52816 -14.2688,-2.45193 -46.44809,-14.0996 l -4.23998,-1.53471 -7.05082,13.89576 c -5.72359,11.28005 -7.7255,14.31273 -10.635,16.1109 -4.08307,2.52348 -12.68418,3.75836 -13.78389,1.97899 -0.39025,-0.63142 0.0354,-5.89889 0.94598,-11.70549 0.91053,-5.8066 1.47849,-10.73447 1.26214,-10.95083 -0.21636,-0.21635 -3.92775,4.80287 -8.24753,11.15382 -8.15519,11.98977 -10.97652,14.42382 -16.71127,14.41732 -4.32311,-0.005 -9.58176,-3.27989 -10.38123,-6.46524 C 230.90244,388.47517 230.17555,388 227.54658,388 c -1.94737,0 -3.94494,-0.7827 -5.01487,-1.96496 -1.7217,-1.90246 -1.72223,-3.22173 -0.004,-8.7556 0.57484,-1.85083 -2.55948,-0.47722 -18.82487,8.25 C 185.00807,395.56042 183.93161,396 178.06271,396 h -6.12609 l 3.28169,-4.46935 C 177.9891,387.7571 181.65259,385.30734 198.75,375.79512 209.8875,369.59872 219,364.18493 219,363.76447 219,363.34401 218.35156,363 217.55902,363 c -0.79254,0 -1.72751,-0.46361 -2.07771,-1.03024 -0.3502,-0.56664 4.23574,-9.85006 10.19098,-20.62984 l 10.82771,-19.5996 6.19357,-3.05696 c 3.40646,-1.68133 6.03801,-3.3104 5.84788,-3.62016 -0.19012,-0.30976 -6.14055,-0.42703 -13.22318,-0.2606 l -12.87751,0.30259 -2.33773,4.40667 c -4.33031,8.16272 -12.79572,15.89694 -39.38361,35.98188 l -26.46716,19.99375 -0.59631,7.05438 c -1.4467,17.11447 -9.75902,33.43089 -19.56127,38.39721 -4.42233,2.24058 -10.60357,3.14867 -14.59468,2.14411 z M 247.89254,391.25 c 1.60825,-1.5125 9.7045,-12.875 17.99166,-25.25 17.4004,-25.98355 17.0264,-25.4894 18.31604,-24.19976 0.6217,0.6217 -1.43686,4.57565 -5.77276,11.08793 l -6.73904,10.12165 -2.18662,13.74509 c -1.20264,7.5598 -1.98969,14.10894 -1.74902,14.55364 0.71469,1.32052 6.51466,-0.35303 9.81943,-2.83335 2.17338,-1.63119 4.94152,-6.28027 9.46145,-15.8905 4.41965,-9.39701 6.89919,-13.5847 8.04353,-13.5847 0.90987,0 11.27722,3.40441 23.03855,7.56536 31.34473,11.08921 37.58917,11.12905 61.38424,0.3917 6.05,-2.73001 11.78405,-4.96218 12.74233,-4.96036 0.95828,0.002 10.63328,2.89386 21.5,6.42677 C 464.40118,384.8933 474.81728,388 479.37821,388 c 8.89449,0 16.53439,-4.74876 21.08184,-13.10392 3.69341,-6.78602 3.94561,-15.22043 0.64837,-21.68355 -1.18045,-2.31389 -9.42128,-12.08772 -18.31294,-21.71962 l -16.16666,-17.51256 -4.56441,0.59329 c -2.51042,0.32631 -25.03941,2.72449 -50.06441,5.3293 l -45.5,4.73601 -37.88934,-12.81947 c -20.83914,-7.05072 -38.61414,-12.81193 -39.5,-12.8027 -0.88586,0.009 -12.57115,5.74673 -25.9673,12.75 L 238.78673,324.5 228.97353,342 c -5.44611,9.71213 -9.43643,17.89019 -8.96658,18.37678 1.41637,1.46684 5.54399,-0.16337 10.64679,-4.20497 3.68304,-2.91709 6.21597,-6.35606 10.55277,-14.32758 l 5.70652,-10.48918 13.83083,-7.67752 C 268.35082,319.45489 275.12039,316 275.78735,316 c 3.77502,0 -0.4159,3.3655 -12.56996,10.09424 -15.79215,8.74287 -13.33743,5.65316 -29.93812,37.68246 -5.76121,11.11566 -9.23181,18.90459 -8.85781,19.87923 0.47652,1.24179 1.52986,1.47981 4.67933,1.05738 2.23541,-0.29983 4.20163,-0.69549 4.36937,-0.87923 0.16774,-0.18374 4.30747,-8.3455 9.19939,-18.13724 l 8.8944,-17.80316 13.96802,-7.82018 c 12.26324,-6.86573 17.12393,-8.56181 15.08578,-5.26402 -0.3344,0.54106 -6.4641,4.21072 -13.62157,8.1548 l -13.01358,7.17104 -9.4913,18.98554 C 239.27109,379.56291 235,388.73194 235,389.4965 c 0,2.0086 3.99246,4.5035 7.20673,4.5035 1.63725,0 3.9523,-1.1197 5.68581,-2.75 z m -80.71219,-29.75383 c 19.42581,-14.70992 37.89876,-29.25437 41.05101,-32.32099 3.2431,-3.15501 7.24914,-8.46401 9.22734,-12.22855 5.67125,-10.79241 6.50979,-16.32956 6.52652,-43.09697 L 224,250.19933 l 12.75,-11.45843 12.75,-11.45843 10,-2.18318 c 5.5592,-1.21367 11.55433,-3.20762 13.50011,-4.49006 3.26237,-2.15018 6.87721,-7.06524 5.9086,-8.03386 -0.23521,-0.2352 -9.19838,-0.11656 -19.91818,0.26365 L 239.5,213.53031 224.87631,224.26516 C 216.83328,230.16932 209.74578,235 209.12631,235 c -3.30811,0 0.42941,-3.59311 14.15245,-13.60564 L 238.5,210.28872 l 18.48608,-0.6471 18.48608,-0.64711 3.20472,-3.24725 c 1.7626,-1.786 3.51765,-4.53457 3.90011,-6.10795 l 0.69539,-2.86068 -22.38619,0.36336 -22.38619,0.36336 -16.63858,11.74732 C 212.7102,215.7137 204.74926,221 204.17044,221 c -3.6631,0 -0.13166,-3.22567 15.76371,-14.39878 L 237.86121,194 h 11.87323 11.87323 l 3.07617,-3.25 c 5.10359,-5.39198 6.99694,-11.16779 4.03364,-12.30492 -0.70539,-0.27068 -8.61879,1.07765 -17.58534,2.9963 l -16.30283,3.48844 -17.27438,11.03509 C 208.05402,202.03421 199.76742,207 199.14027,207 c -2.79643,0 -0.60096,-2.82833 5.13054,-6.60945 5.75405,-3.79599 6.4044,-4.6068 8.52625,-10.62998 l 2.29705,-6.52054 8.89805,-3.18292 c 9.87201,-3.53131 13.29443,-5.77684 15.60017,-10.23566 1.96077,-3.7917 1.20852,-5.82145 -2.1575,-5.82145 -2.39187,0 -38.6124,5.84347 -39.07093,6.30333 -0.10785,0.10817 -3.83988,15.72167 -8.2934,34.69667 -4.45351,18.975 -9.91272,42.18639 -12.13157,51.58086 l -4.03428,17.08086 -37.5147,18.36556 c -20.63309,10.10106 -37.712012,18.68481 -37.953167,19.07501 -0.913965,1.47882 -5.430566,39.69034 -5.433604,45.96957 -0.0041,8.48423 2.172851,14.71048 7.100861,20.30899 7.22306,8.20583 15.5002,11.84126 25.57631,11.23345 l 6.18036,-0.37281 z m 152.45309,-82.53644 c 17.72139,-8.50627 31.0539,-22.98884 37.16883,-40.37502 3.51242,-9.98666 3.65896,-27.02716 0.31459,-36.58471 -1.25096,-3.575 -2.57651,-6.80116 -2.94567,-7.16925 -0.36915,-0.36809 -7.42119,0.85903 -15.67119,2.72693 -8.25,1.86791 -15.5625,3.40657 -16.25,3.41926 -1.82509,0.0337 -1.53287,-2.50214 0.81976,-7.11368 1.13837,-2.23139 1.88666,-4.24018 1.66286,-4.46397 -0.2238,-0.2238 -3.51769,-1.25729 -7.31976,-2.29665 -3.80207,-1.03936 -7.86446,-2.1992 -9.02752,-2.57743 -2.01472,-0.65519 -2.14604,-0.27031 -2.77855,8.14355 -1.29876,17.27634 -5.59232,85.89237 -5.59949,89.48631 l -0.007,3.65507 5.75,-1.47318 c 3.1625,-0.81025 9.41005,-3.23001 13.88344,-5.37723 z m 3.37181,-115.85326 c -1.37211,-0.38179 -2.65525,-1.52759 -2.85142,-2.54622 -0.28061,-1.4571 0.0381,-1.69068 1.49475,-1.09531 3.85138,1.57422 14.82834,1.68975 19.60266,0.20632 4.44269,-1.3804 6.61859,-0.88769 5.32478,1.20574 -1.5341,2.48223 -17.30229,3.97368 -23.57077,2.22947 z M 400,151.13486 c 0,-3.78651 8.65564,-8.78047 13.83356,-7.98141 3.70721,0.5721 2.63125,2.29721 -1.91707,3.07366 -2.41776,0.41275 -5.3978,1.81789 -6.8926,3.25 C 402.40181,151.98923 400,152.78176 400,151.13486 Z m -64.75,-11.79714 c -0.6875,-0.27741 -1.25,-1.17764 -1.25,-2.00051 0,-1.15476 0.71156,-1.33984 3.1186,-0.81116 4.69584,1.03138 7.44769,-1.01145 9.98523,-7.41251 3.9288,-9.91058 5.96584,-13.44387 7.09803,-12.31168 1.48534,1.48534 -5.83247,18.76242 -9.00341,21.25668 -2.30807,1.81553 -7.09412,2.43093 -9.94845,1.27918 z m 31.29367,-7.68213 c -3.9474,-2.88641 1.84987,-12.08939 7.22545,-11.47017 5.08808,0.58611 3.95861,7.77206 -1.75178,11.14526 -3.39789,2.00719 -3.1899,1.99484 -5.47367,0.32491 z M 144.51563,115.01864 132.53126,103 H 83.220177 33.909091 L 31.454545,100.54545 29,98.090909 V 52.101218 6.1115274 L 31.413059,3.3057637 33.826117,0.5 99.163059,0.20742318 c 35.935321,-0.16091724 66.824541,-0.0233177 68.642721,0.30577687 1.81817,0.32909452 4.18067,1.47325405 5.25,2.54257685 C 174.92605,4.9260471 175,6.7811197 175,51.825686 v 46.825686 l -2.31445,2.174318 C 170.78791,102.60843 169.17263,103 163.71633,103 h -6.65477 L 156.78078,115.01864 156.5,127.03728 Z M 160.9661,100 c 5.84034,0 8.29942,-0.408378 9.46247,-1.571429 C 171.81082,97.046326 172,91.412121 172,51.628571 172,17.784127 171.69796,6.0979575 170.8,5.2 169.89028,4.2902777 153.20782,4 101.83518,4 35.861552,4 34.043005,4.051127 33.035184,5.9342585 32.366356,7.1839748 32,23.524179 32,52.105518 32,91.86519 32.167505,96.52761 33.654988,98.171259 35.215951,99.896104 38.128788,100 84.925837,100 H 134.5417 l 8.97915,9.02542 8.97915,9.02541 0.28753,-9.02541 L 153.07505,100 Z M 75,73 C 73.137848,71.137848 73,69.666667 73,51.654988 73,26.880701 71.535001,28.617492 92.804179,28.176661 116.50077,27.685518 119,28.670424 119,38.5 c 0,3.025 0.19952,5.5 0.44339,5.5 0.24386,0 2.78413,-2.475 5.64505,-5.5 2.86092,-3.025 5.5864,-5.5 6.05662,-5.5 C 131.61528,33 132,41.648413 132,52.218697 v 19.218696 l -5.779,-5.718696 C 123.04255,62.573413 120.11755,60 119.721,60 119.32445,60 119,62.396559 119,65.325686 c 0,4.273909 -0.45708,5.755094 -2.31445,7.5 C 114.47972,74.897954 113.49413,75 95.685549,75 78.333333,75 76.857287,74.857287 75,73 Z m 39.42857,-2.571429 C 115.73553,69.121614 116,65.957576 116,51.628571 116,39.561905 115.64046,34.040464 114.8,33.2 c -1.68814,-1.688136 -35.911864,-1.688136 -37.6,0 -0.843194,0.843194 -1.2,6.477847 -1.2,18.95031 0,15.850093 0.187342,17.859427 1.75,18.769591 0.992405,0.578023 8.970346,1.032446 18.428571,1.04969 13.857189,0.02527 16.944399,-0.235418 18.249999,-1.54102 z M 128,51.291792 V 40.583584 L 123.5,45 C 121.025,47.429029 119,50.318189 119,51.420356 119,52.988703 126.41729,62 127.70821,62 127.86869,62 128,57.181306 128,51.291792 Z m 204.66667,51.041538 c -1.6247,-1.62469 -0.48984,-6.311118 2.23454,-9.227575 3.31938,-3.553409 6.54771,-4.003967 8.08657,-1.128592 1.34374,2.510798 -0.92246,8.382327 -3.83738,9.942347 -2.26983,1.21478 -5.47802,1.41954 -6.48373,0.41382 z M 294.00659,70.25 c 0.004,-0.4125 0.90066,-2.1 1.99341,-3.75 1.29089,-1.949173 1.98913,-4.692998 1.99341,-7.833333 0.009,-6.589963 2.40769,-5.802547 2.77803,0.911936 0.19529,3.540606 -0.29158,5.833246 -1.7353,8.171397 -1.77801,2.879554 -5.04716,4.504527 -5.02955,2.5 z"
         id="path2" />
    </g>
  </g>
</svg>
