<?xml version="1.0" encoding="UTF-8" standalone="no"?>
<!-- Created with Inkscape (http://www.inkscape.org/) -->

<svg
   version="1.1"
   id="svg1"
   width="476"
   height="450"
   viewBox="0 0 476 450"
   sodipodi:docname="BUSINESS_18.svg"
   inkscape:version="1.3.2 (091e20e, 2023-11-25, custom)"
   xmlns:inkscape="http://www.inkscape.org/namespaces/inkscape"
   xmlns:sodipodi="http://sodipodi.sourceforge.net/DTD/sodipodi-0.dtd"
   xmlns="http://www.w3.org/2000/svg"
   xmlns:svg="http://www.w3.org/2000/svg">
  <defs
     id="defs1" />
  <sodipodi:namedview
     id="namedview1"
     pagecolor="#ffffff"
     bordercolor="#000000"
     borderopacity="0.25"
     inkscape:showpageshadow="2"
     inkscape:pageopacity="0.0"
     inkscape:pagecheckerboard="0"
     inkscape:deskcolor="#d1d1d1"
     showgrid="false"
     inkscape:zoom="1.7488889"
     inkscape:cx="238.15121"
     inkscape:cy="225"
     inkscape:window-width="1920"
     inkscape:window-height="1001"
     inkscape:window-x="-9"
     inkscape:window-y="-9"
     inkscape:window-maximized="1"
     inkscape:current-layer="g1" />
  <g
     inkscape:groupmode="layer"
     inkscape:label="Image"
     id="g1">
    <g
       id="g6">
      <path
         style="fill:#fdfdfd"
         d="M 0,225 V 0 H 238 476 V 225 450 H 238 0 Z"
         id="path9" />
      <path
         style="fill:#facb43"
         d="m 200,449.41223 c -1.925,-0.22171 -7.775,-0.88662 -13,-1.47757 -37.61357,-4.25411 -63.61405,-16.38332 -60.6275,-28.28269 1.46676,-5.84405 12.16196,-12.50668 26.50248,-16.50986 4.05624,-1.13231 7.58758,-2.27134 7.84743,-2.53119 0.59237,-0.59237 -13.77765,-71.82629 -14.7044,-72.89147 -0.37351,-0.4293 -18.19286,2.85708 -39.59856,7.30308 -21.405698,4.446 -40.78178,8.09725 -43.057961,8.11389 -8.765833,0.0641 -14.424168,-5.45298 -16.799995,-16.38052 C 38.991045,291.93586 0,97.670312 0,94.772009 0,92.090256 0.77836312,90.17682 2.75,88.011733 5.492924,84.999684 6.0286116,84.882567 210.93691,42.495957 323.92722,19.123181 417.45775,0 418.78254,0 c 3.48795,0 7.91198,3.5293952 9.10884,7.2668265 C 428.46083,9.0450719 439.55795,62.7 452.55164,126.5 c 17.25259,84.71155 23.50912,117.24675 23.19569,120.62224 -0.49183,5.29682 -3.58339,10.2245 -7.77441,12.39176 -1.57817,0.81611 -16.9552,4.37754 -34.17116,7.91431 -103.87949,21.34048 -202.3496,41.78975 -202.64469,42.08319 -0.42702,0.42465 23.56735,86.46272 24.65079,88.39183 0.43798,0.77983 4.7092,2.19716 9.61351,3.19006 18.67871,3.78161 32.77588,9.43719 38.97481,15.63613 4.31285,4.31284 5.11563,7.38967 3.0589,11.7239 -3.88234,8.18143 -20.48871,14.94039 -46.95508,19.11118 -9.52918,1.50169 -52.19146,2.80457 -60.5,1.84763 z m 20.5,-18.40702 c 4.95,-0.52808 11.7,-1.66557 15,-2.52776 6.65325,-1.73829 18.95667,-7.11785 20.48175,-8.95546 0.6668,-0.80344 -2.70237,-14.27062 -10.53284,-42.10165 C 239.11663,354.91415 228.75395,318.05 222.42074,295.5 c -6.33322,-22.55 -12.17927,-43.25 -12.99122,-46 -1.39169,-4.71354 -1.91772,-5.25781 -9.18154,-9.5 -13.61534,-7.95157 -15.36104,-14.02421 -7.82434,-27.21804 3.89582,-6.82007 4.30287,-8.0999 3.49855,-11 -0.50063,-1.80508 -2.26292,-8.07411 -3.91621,-13.93118 C 190.35269,181.9937 189,176.96989 189,176.68675 c 0,-0.28314 6.8625,-5.34524 15.25,-11.24911 8.3875,-5.90387 15.41287,-10.86793 15.61194,-11.03125 0.19906,-0.16331 -0.76543,-3.58406 -2.14332,-7.60166 -1.37789,-4.0176 -3.03517,-9.89223 -3.68284,-13.05473 -1.04903,-5.12234 -1.44607,-5.75 -3.63723,-5.75 -1.56448,0 -3.59124,1.28881 -5.56889,3.54123 -1.98061,2.25578 -4.65402,3.95439 -7.36493,4.67945 -3.68371,0.98524 -4.40579,1.63925 -5.37256,4.86602 -0.61763,2.06148 -2.73593,5.14936 -4.73892,6.908 -3.19079,2.80156 -4.20142,3.14002 -8.48827,2.84275 -4.58149,-0.3177 -4.86619,-0.19501 -4.8656,2.09683 0.001,3.93765 -4.02446,11.10996 -7.38589,13.1597 -3.34216,2.03798 -8.37666,2.34693 -15.58436,0.95635 -7.79529,-1.50394 -11.12969,-8.08761 -7.57629,-14.95914 1.5742,-3.04416 6.58687,-5.67366 9.0292,-4.73646 C 154.71445,148.21139 154.34569,151 152,151 c -2.52819,0 -6,3.40771 -6,5.88922 0,3.96437 3.13765,6.02769 10.22243,6.72226 6.59453,0.64652 6.77785,0.59973 9.63557,-2.45946 4.43317,-4.74573 4.79865,-10.31203 1.62782,-24.79172 -0.5849,-2.671 -1.57476,-3.07827 -14.3568,-5.90706 -10.81888,-2.39432 -13.35748,-3.62478 -11.43818,-5.54408 0.78778,-0.78778 4.38552,-0.37337 12.95,1.49167 14.29885,3.11378 16.77054,5.03984 17.88185,13.93446 0.55673,4.45594 1.0883,5.59396 2.83136,6.06163 6.06278,1.62667 10.62417,-0.60071 12.78476,-6.24295 1.41695,-3.70026 0.20493,-11.90541 -2.46051,-16.6572 -3.20692,-5.7171 -8.12805,-7.97658 -21.52313,-9.8821 -6.23966,-0.88762 -11.75216,-1.8656 -12.25,-2.17328 C 150.21959,110.39965 150.9876,108 153.00658,108 c 3.47637,0 22.35035,2.99842 25.68357,4.08023 5.39458,1.75083 11.16801,8.43979 13.01329,15.07691 0.89345,3.21357 2.04518,5.84286 2.55938,5.84286 2.42216,0 7.57784,-3.35487 8.59862,-5.59524 1.46164,-3.20795 1.45528,-9.17252 -0.0144,-13.50554 -3.19743,-9.42689 -8.3234,-12.25357 -25.34705,-13.977459 -12.64933,-1.280922 -15.59566,-2.281215 -13.30019,-4.515469 1.04878,-1.020806 3.40061,-1.005004 12.16263,0.08172 10.78875,1.338095 10.94348,1.327443 22.81055,-1.570389 19.69391,-4.809077 30.98221,-3.853786 43.32701,3.666619 7.13457,4.346358 12.82737,5.332068 17.33429,3.001448 4.86819,-2.517437 4.06783,-4.765599 -3.92231,-11.017448 C 246.92781,82.538614 236.8321,77.574359 226,74.859953 c -7.203,-1.804993 -10.25476,-2.03933 -20,-1.53575 -28.77382,1.486875 -50.18454,10.491486 -68.13812,28.656547 -6.26056,6.33431 -8.55664,9.60296 -12.73109,18.12367 -6.4961,13.25956 -8.58505,23.17021 -7.86406,37.30953 0.3602,7.0637 2.80871,21.17332 8.17107,47.08605 8.63212,41.71325 13.15658,63.80273 31.03086,151.5 6.89414,33.825 12.88771,63.075 13.31904,65 0.89381,3.98903 2.76636,5.15857 12.07944,7.54447 12.72915,3.26106 24.25141,3.99497 38.63286,2.46074 z M 105.47368,330.90683 c 21.46448,-4.45124 39.20043,-8.26285 39.41323,-8.47024 0.2128,-0.20739 -6.7622,-35.15296 -15.5,-77.65683 L 113.5,167.5 113.52889,153 c 0.0242,-12.13753 0.39171,-15.66122 2.25576,-21.62716 3.07645,-9.84625 8.22395,-19.76336 13.94844,-26.87284 10.00113,-12.420848 29.66032,-25.506766 45.70933,-30.425896 15.80949,-4.845717 38.00749,-6.46606 49.98456,-3.648624 5.80594,1.365762 5.96452,1.346528 7.76445,-0.941718 C 236.45511,65.334671 247.29026,57.794017 255.5,53.958265 266.60805,48.768363 274.65253,47 287.15393,47 c 33.25613,0 60.8975,20.632472 71.00421,53 1.99953,6.40368 2.33592,9.54647 2.3012,21.5 -0.0367,12.63924 -0.30961,14.77758 -2.80776,22 -4.08412,11.80761 -9.87073,20.91829 -19.1303,30.11954 -6.62848,6.58672 -9.95029,8.99256 -17.59614,12.74411 -10.14211,4.97637 -17.69517,7.24973 -27.38496,8.24248 l -6.11967,0.62698 -6.57213,11.63344 c -4.18315,7.40469 -6.18126,11.88459 -5.49685,12.32435 1.66366,1.06898 -2.02259,8.1493 -3.8731,7.4392 -1.63167,-0.62613 -4.97025,4.7651 -3.96155,6.39722 0.78462,1.26953 -2.60185,6.97268 -4.1403,6.97268 -0.65572,0 -3.35043,3.845 -5.98826,8.54444 C 251.84247,258.42467 248.58328,261 241.62528,261 c -3.86815,0 -6.54042,-1.07968 -16.08796,-6.5 -6.29713,-3.575 -11.62309,-6.5 -11.83547,-6.5 -0.38866,0 15.29644,56.19071 15.87112,56.85714 0.48071,0.55744 234.70197,-47.95004 236.73054,-49.02717 2.55165,-1.35486 5.68833,-6.84805 5.69275,-9.96957 C 472.00224,241.63981 425.0951,11.83877 423.50043,8.276255 422.67074,6.4227257 421.08886,4.8254769 419.7787,4.518363 418.52541,4.2245822 325.32181,23.079843 212.65959,46.418942 58.716398,78.309803 7.3190166,89.306306 5.8062384,90.675352 4.1776262,92.149226 3.8883066,93.356494 4.2909033,96.998518 4.5645849,99.474333 15.402126,153.475 28.374327,217 l 23.585821,115.5 3.505241,3.25 c 2.655353,2.462 4.411653,3.25 7.243611,3.25 2.056103,0 21.300212,-3.64192 42.76468,-8.09317 z m 296.26628,-88.91887 -7.76004,-4.97432 5.26004,-7.9843 c 2.89302,-4.39136 5.48504,-7.98754 5.76004,-7.99151 0.275,-0.004 1.14531,0.40114 1.93401,0.90023 1.19652,0.75714 1.01751,1.54128 -1.08089,4.73468 -1.38319,2.10499 -3.29421,5.02883 -4.24671,6.49742 l -1.73181,2.67016 6.12053,4.15637 c 5.5696,3.78224 6.96711,5.88116 4.44237,6.67195 -0.51563,0.16151 -4.42952,-1.9448 -8.69754,-4.68068 z m 32.56809,-1.07991 c -0.78927,-0.78927 -0.0131,-2.71616 2.8,-6.95141 2.14057,-3.22269 3.89195,-6.08955 3.89195,-6.37078 0,-0.28124 -2.68369,-2.3338 -5.96376,-4.56125 -4.06523,-2.76065 -5.78207,-4.5234 -5.39301,-5.53726 0.86466,-2.25327 1.82343,-1.90819 9.96783,3.5876 l 7.52075,5.07494 -1.73729,2.67506 c -9.17427,14.12646 -9.11151,14.05806 -11.08647,12.0831 z M 359.59829,189.09933 C 354.24091,183.68545 353.16068,181 356.34032,181 c 1.9243,0 12.98082,11.67137 12.22107,12.90067 -1.28454,2.07843 -3.13716,1.08602 -8.9631,-4.80134 z M 380,167.04861 c -11.95009,-5.68415 -16.12592,-9.14597 -10.82332,-8.97269 3.48356,0.11384 25.32332,11.18816 25.32332,12.84075 0,0.77916 -0.45,1.56539 -1,1.74716 -0.55,0.18177 -6.625,-2.34508 -13.5,-5.61522 z m 3.79203,-28.97353 c -5.34778,-0.74707 -6.28385,-1.35102 -5.45236,-3.51786 0.46136,-1.2023 1.60966,-1.39967 5.37354,-0.92365 9.29845,1.17601 11.77038,1.92343 12.10483,3.66009 0.36043,1.87156 -2.76752,2.07481 -12.02601,0.78142 z M 23.654988,108.17126 c -2.403533,-2.65587 -2.037468,-5.87454 0.885976,-7.79006 5.039287,-3.301865 10.335243,2.1064 7.018911,7.16776 -1.916007,2.9242 -5.561948,3.21122 -7.904887,0.6223 z m 15,-3 C 37.744744,104.16545 37,102.4352 37,101.32625 37,98.950766 39.952147,96 42.328741,96 44.406999,96 48,99.4845 48,101.5 c 0,2.08986 -3.624061,5.5 -5.845012,5.5 -1.014757,0 -2.589757,-0.82293 -3.5,-1.82874 z m 15,-3 C 51.483794,99.772117 51.554508,96.71314 53.828741,94.654988 57.360545,91.458748 62.25,93.691195 62.25,98.5 c 0,4.90626 -5.392759,7.20971 -8.595012,3.67126 z M 371.72717,37.064712 C 371.36165,35.666953 370.63488,35.28272 369.11054,35.681344 367.4802,36.107687 367,35.776019 367,34.22362 c 0,-1.105303 0.675,-2.268664 1.5,-2.585246 0.825,-0.316583 1.5,-1.489728 1.5,-2.606989 C 370,27.666667 370.65637,27 372,27 c 1.11111,0 2,0.666667 2,1.5 0,0.933333 0.94444,1.5 2.5,1.5 1.83333,0 2.5,0.533333 2.5,2 0,1.111111 -0.66667,2 -1.5,2 -0.93333,0 -1.5,0.944444 -1.5,2.5 0,3.064909 -3.49811,3.527232 -4.27283,0.564712 z M 390.5161,34.050739 C 389.70292,31.488637 390.59458,30 392.94239,30 c 1.04021,0 2.07234,0.948315 2.40132,2.20633 0.6665,2.548731 0.79083,2.350402 -2.01306,3.211232 -1.64295,0.504406 -2.32591,0.172741 -2.81455,-1.366823 z M 398,31.616631 c 0,-2.754709 3.76282,-4.398275 4.66816,-2.039008 C 403.53431,31.83476 402.24331,34 400.03138,34 398.55775,34 398,33.345608 398,31.616631 Z m -9.32998,-5.770492 c -0.70835,-2.708698 -0.6908,-2.731254 2.39175,-3.074578 C 393.0683,22.548081 393.5,22.942639 393.5,25 c 0,3.419296 -3.97499,4.115653 -4.82998,0.846139 z m 7.99665,-0.512806 C 396.3,24.966667 396,23.841667 396,22.833333 396,21.566302 396.73918,21 398.39301,21 400.55762,21 402,22.632242 402,25.081787 c 0,1.051926 -4.32879,1.256092 -5.33333,0.251546 z M 203.86904,192.38808 c 0.86407,-1.89643 0.89083,-2.97249 0.0977,-3.92817 -1.65173,-1.99022 1.54003,-7.66111 4.08826,-7.2637 1.55271,0.24214 3.25401,-2.02549 8.38421,-11.17517 3.53992,-6.31342 6.26949,-11.64568 6.06572,-11.84945 -0.26676,-0.26676 -24.66406,16.44797 -28.38077,19.44382 -0.78545,0.63311 3.87804,15.76891 5.09687,16.54235 2.19947,1.39574 3.41697,0.93219 4.64802,-1.76968 z M 213.01736,118.25 c 0.0153,-5.04784 1.54989,-14.09966 3.56035,-21 0.57243,-1.964709 0.29208,-2.247827 -2.21108,-2.232862 -2.66658,0.01594 -17.10932,3.392214 -17.90206,4.184958 -0.19534,0.195336 0.92552,1.215894 2.49078,2.267894 4.09517,2.75234 7.86538,9.08171 8.58805,14.41747 0.95029,7.01634 1.42646,8.11254 3.52399,8.11254 1.68406,0 1.93484,-0.73949 1.94997,-5.75 z"
         id="path8" />
      <path
         style="fill:#f9cb3c"
         d="m 197.59345,448.95389 c -21.10948,-1.75921 -43.36589,-6.59285 -55.4064,-12.03315 -24.35161,-11.00286 -20.11102,-24.57618 10.44451,-33.43083 4.81057,-1.39404 8.80811,-2.63707 8.88341,-2.76227 0.0753,-0.1252 -3.26554,-16.76514 -7.42409,-36.97764 -5.23554,-25.44714 -7.958,-36.75 -8.85178,-36.75 -0.70992,0 -18.67623,3.6 -39.92514,8 -21.24891,4.4 -40.520739,8 -42.826288,8 -5.578075,0 -10.417647,-3.31411 -13.144746,-9.00145 C 47.924837,331.04115 39.051102,289.46897 23.440794,212.6508 -2.1814457,86.564003 -1.5126918,90.890917 4,86.86665 5.7683605,85.575747 66.897115,72.543687 212.87593,42.33632 402.8376,3.027592 419.45285,-0.25491503 421.77878,1.0654953 c 1.38979,0.7889776 3.3643,2.5625979 4.38779,3.9413786 1.34121,1.8067872 8.55946,35.3939881 25.84716,120.2692261 13.19245,64.76929 23.98459,119.2162 23.98253,120.99312 -0.004,3.54381 -2.9297,9.02101 -6.32478,11.84103 -2.83879,2.35795 -2.35989,2.25271 -129.03974,28.35807 -59.87754,12.33917 -109.12271,22.68932 -109.43372,23.00033 -0.46169,0.46169 16.09898,61.08382 22.9703,84.08524 l 1.8085,6.05388 9.13301,1.75078 c 60.05516,11.51244 56.07498,37.75163 -7.00907,46.207 -14.16174,1.89815 -45.70516,2.62191 -60.50731,1.38834 z m 34.06199,-19.32702 c 8.81382,-1.92104 18.89462,-5.88628 22.70752,-8.9319 l 2.86297,-2.28685 -7.29804,-25.95406 C 245.91397,378.17933 234.90023,339.05 225.45291,305.5 l -17.17694,-61 -7.78617,-4.5 c -9.83164,-5.68217 -12.0054,-8.47151 -11.9416,-15.32333 0.0394,-4.23161 0.82822,-6.51745 4.32081,-12.52095 2.65014,-4.55538 4.02793,-7.97303 3.62827,-9 -0.7567,-1.94443 -6.63002,-24.10699 -6.84816,-25.84107 -0.17594,-1.39856 30.43036,-23.38356 31.57149,-22.6783 2.20836,1.36484 -0.4333,3.94934 -13.22061,12.93459 -7.76096,5.45339 -13.9966,10.52627 -13.99236,11.38322 0.0147,2.97169 3.92035,14.38348 5.20072,15.19578 2.26654,1.43793 3.69027,0.92162 5.1521,-1.86838 1.24975,-2.38524 1.23551,-2.85651 -0.11621,-3.84491 -1.37458,-1.00511 -1.33975,-1.46639 0.32321,-4.28156 1.02506,-1.7353 2.10423,-3.15192 2.39815,-3.14805 0.29391,0.004 5.69995,2.87745 12.01342,6.38573 l 11.47903,6.37869 6.28266,-10.56121 c 4.36102,-7.33092 6.10612,-11.19574 5.70546,-12.63573 -0.41864,-1.50464 -0.31622,-1.69758 0.37284,-0.70234 0.71578,1.03383 1.93162,-0.32238 4.93075,-5.5 4.73525,-8.17481 12.07863,-22.23599 14.6181,-27.99088 l 1.81746,-4.1187 -3.54201,-4.93022 c -4.02903,-5.60812 -7.02858,-12.14717 -8.01857,-17.48055 -0.53449,-2.8795 -1.25107,-3.792 -3.40096,-4.33078 -1.49808,-0.37543 -5.19879,-2.18019 -8.22379,-4.01056 -12.49725,-7.561885 -27.4547,-8.579769 -43.79909,-2.980619 -0.83566,0.286275 -0.012,1.575109 2.30892,3.612899 4.69437,4.12171 7.5259,9.80334 8.2155,16.48483 0.4977,4.82234 0.79612,5.3724 2.91457,5.3724 1.69343,0 2.3601,0.56495 2.3601,2 0,1.47508 -0.66667,2 -2.54006,2 -1.66254,0 -3.8546,1.38187 -6.34516,4 -3.04242,3.19825 -4.51537,4 -7.34865,4 -3.23789,0 -3.59854,0.29315 -4.18112,3.39855 -1.31822,7.0267 -8.02731,12.20785 -14.65661,11.31867 -3.63789,-0.48794 -3.76566,-0.39822 -4.42298,3.10561 -0.95126,5.07063 -2.91493,8.50252 -6.67565,11.66695 -3.0785,2.59039 -3.59518,2.69322 -10.24192,2.03827 -8.46098,-0.83373 -11.905,-2.46528 -13.54096,-6.41484 -2.43896,-5.88817 1.55894,-12.97477 7.56283,-13.40574 4.01525,-0.28822 3.68505,1.9029 -0.60972,4.04601 -2.692,1.34332 -3.56892,2.45089 -3.79852,4.79762 -0.44769,4.57567 2.39696,6.5667 10.2869,7.20003 5.88546,0.47243 6.84358,0.28564 9.01928,-1.75833 3.49047,-3.27912 4.8195,-8.16811 4.03022,-14.8256 -1.00453,-8.47312 -2.40655,-13.02785 -4.32184,-14.04037 -0.94382,-0.49895 -6.42554,-1.8636 -12.18161,-3.03257 -10.6341,-2.15962 -13.22919,-3.2995 -11.4843,-5.04439 0.98102,-0.98102 21.91859,3.06024 25.33903,4.89081 3.0347,1.62412 4.0905,3.5819 5.21602,9.67213 1.21216,6.55911 1.93193,7.34981 6.71056,7.37188 7.33768,0.0339 10.78538,-4.95936 9.8176,-14.21864 -0.66215,-6.33506 -1.70841,-8.96957 -5.0083,-12.61106 -3.45838,-3.81638 -6.57491,-4.90417 -19.17092,-6.69139 -12.14741,-1.72358 -14.70139,-2.61633 -12.83217,-4.48555 1.08848,-1.08848 19.90669,1.19654 26.21382,3.18303 6.78993,2.13856 14.08068,11.22234 14.14227,17.6203 0.0121,1.25477 0.70504,2.54351 1.53992,2.86389 2.21765,0.85099 7.39599,-1.58431 9.18963,-4.32175 3.02026,-4.60949 1.08766,-16.57494 -3.49573,-21.64333 -3.18849,-3.5259 -8.73045,-5.48859 -18.73803,-6.6361 C 165.99401,98.383773 164,97.941321 164,96.388709 c 0,-1.694253 3.36333,-1.767797 15.08668,-0.329893 8.15791,1.000592 9.20654,0.895497 21,-2.104665 19.19109,-4.882057 31.00225,-3.561334 44.45654,4.971125 5.52676,3.504964 12.47052,4.154254 16.23427,1.518024 3.38,-2.367446 2.69579,-4.862517 -2.52749,-9.216865 -16.48507,-13.742655 -31.90799,-18.956569 -53.03011,-17.9275 -16.4142,0.7997 -28.12721,3.541113 -40.46656,9.471142 C 133.76393,97.662923 117,122.54357 117,153.64447 c 0,11.00732 -2.1614,-0.16691 37.01342,191.35553 4.89372,23.925 10.56708,51.708 12.60746,61.74001 l 3.70978,18.24001 5.46167,2.04347 c 13.26279,4.96225 39.44282,6.18231 55.86311,2.60338 z m -4.41167,-239.29123 c -0.69093,-0.27855 -1.00187,-0.91803 -0.69098,-1.42105 C 226.86367,188.41157 226.41648,188 225.55902,188 224.70156,188 224,187.60248 224,187.11663 c 0,-1.2488 3.88164,-2.11716 4.55969,-1.02005 0.33097,0.53552 1.33128,0.49695 2.43526,-0.0939 2.58474,-1.38331 3.8429,-1.20259 1.94308,0.2791 -0.85909,0.67001 -1.85746,2.0057 -2.21862,2.9682 -0.67134,1.78917 -1.26818,1.9756 -3.47564,1.08564 z m -8.43127,-6.01875 c 0.72187,-0.28887 1.58437,-0.25335 1.91667,0.0789 0.33229,0.33229 -0.25834,0.56864 -1.3125,0.52522 -1.16495,-0.048 -1.4019,-0.28494 -0.60417,-0.60416 z M 234,179 c -1.1,-1.1 -2,-2.675 -2,-3.5 0,-0.83333 0.88889,-1.5 2,-1.5 1.39798,0 2.00957,0.67727 2.0318,2.25 0.031,2.19371 0.0685,2.20144 1.5,0.30887 0.80751,-1.06762 1.4682,-1.43726 1.4682,-0.82143 0,0.61584 -0.65357,1.77327 -1.45238,2.57208 -0.79881,0.79881 -1.17381,1.73096 -0.83333,2.07143 C 237.05476,180.72143 237.03333,181 236.66667,181 236.3,181 235.1,180.1 234,179 Z m 5,-12.41821 c 0,-0.78002 -0.27314,-2.13002 -0.60699,-3 -0.40136,-1.04594 -0.0517,-1.58179 1.03223,-1.58179 1.63126,0 3.74023,3.82016 2.89833,5.25 C 241.54849,168.56636 239,168.05398 239,166.58179 Z m -15.92105,-5.16512 c 0.048,-1.16495 0.28494,-1.4019 0.60416,-0.60417 0.28887,0.72187 0.25335,1.58437 -0.0789,1.91667 -0.3323,0.33229 -0.56864,-0.25834 -0.52522,-1.3125 z m 0.504,-5.28246 c -0.43077,-0.697 -0.51316,-1.53733 -0.18309,-1.86741 0.89497,-0.89496 1.87077,0.4213 1.38739,1.87145 -0.33872,1.01617 -0.57427,1.01538 -1.2043,-0.004 z M 250.11418,153 c -0.046,-1.925 0.33509,-4.16197 0.84676,-4.97104 1.69321,-2.67735 2.03731,-0.45563 0.62612,4.04256 L 250.19774,156.5 Z M 221,151.25 c 0,-0.77917 0.53437,-1.23854 1.1875,-1.02083 1.8131,0.60436 2.06901,2.4375 0.34028,2.4375 -0.84028,0 -1.52778,-0.6375 -1.52778,-1.41667 z m -2.26879,-6.16984 c -0.43497,-1.66335 -0.30483,-2.05378 0.43724,-1.31171 0.5811,0.5811 0.85979,1.64682 0.61931,2.36826 -0.24965,0.74895 -0.70294,0.29565 -1.05655,-1.05655 z M 247.25,144.75 c 0.22917,-0.6875 1.24167,-1.25 2.25,-1.25 1.00833,0 2.02083,0.5625 2.25,1.25 0.26389,0.79167 -0.56111,1.25 -2.25,1.25 -1.68889,0 -2.51389,-0.45833 -2.25,-1.25 z m 7.75,-4.19098 c 0,-3.33945 1.82157,-4.2047 2.89105,-1.37326 C 258.90326,141.86558 258.47199,143 256.44098,143 255.57989,143 255,142.01768 255,140.55902 Z m 5,-5.5 c 0,-1.06754 0.38499,-2.17893 0.85554,-2.46974 0.47055,-0.29082 0.64309,0.58263 0.38343,1.94098 C 260.67495,137.48072 260,137.76877 260,135.05902 Z M 255.5,135 c 0.33992,-0.55 1.04148,-1 1.55902,-1 0.51754,0 0.94098,0.45 0.94098,1 0,0.55 -0.70156,1 -1.55902,1 -0.85746,0 -1.2809,-0.45 -0.94098,-1 z M 219,131.42857 C 219,130.44726 221.80415,128 222.92857,128 c 0.58929,0 1.07143,0.9 1.07143,2 0,1.46667 -0.66667,2 -2.5,2 -1.375,0 -2.5,-0.25714 -2.5,-0.57143 z M 215,129.5 c 0,-0.825 0.45,-1.5 1,-1.5 0.55,0 1,0.675 1,1.5 0,0.825 -0.45,1.5 -1,1.5 -0.55,0 -1,-0.675 -1,-1.5 z m 40,-1.5 c 0,-0.55 0.45,-1 1,-1 0.55,0 1,0.45 1,1 0,0.55 -0.45,1 -1,1 -0.55,0 -1,-0.45 -1,-1 z m -21,-6 c 0,-1.1 0.45,-2 1,-2 0.55,0 1,0.45 1,1 0,0.55 0.9,1 2,1 1.1,0 2,0.45 2,1 0,0.55 -1.35,1 -3,1 -2.33333,0 -3,-0.44444 -3,-2 z m 14,-1.94098 c 0,-1.06754 0.4892,-2.24333 1.08712,-2.61286 0.59791,-0.36953 0.86504,-1.52109 0.59362,-2.55902 -0.27143,-1.03793 -0.0856,-1.88714 0.41288,-1.88714 0.49851,0 0.90638,0.70156 0.90638,1.55902 0,0.85746 0.45,1.2809 1,0.94098 0.55,-0.33992 1,0.0835 1,0.94098 0,0.85746 -0.50248,1.55902 -1.11663,1.55902 -0.6243,0 -0.88603,0.88181 -0.59362,2 0.38794,1.48349 0.0307,2 -1.38337,2 C 248.68599,122 248,121.30156 248,120.05902 Z m -24,-2.9857 C 224,114.63374 224.42611,114 226.06642,114 c 1.663,0 2.00465,0.53521 1.75,2.74145 -0.19084,1.65345 -1.01094,2.87316 -2.06642,3.07332 -1.35905,0.25774 -1.75,-0.35471 -1.75,-2.74145 z m -9.42944,-0.95916 C 213.74871,114.78439 214.9521,110 216.10841,110 c 0.49037,0 0.89159,0.45 0.89159,1 0,0.55 0.675,1 1.5,1 0.83333,0 1.5,0.88889 1.5,2 0,1.1 -0.4132,2 -0.91821,2 -0.50502,0 -1.5845,0.25568 -2.39885,0.56817 -0.81435,0.3125 -1.76492,0.10819 -2.11238,-0.45401 z M 239,111 c 0,-0.55 0.675,-1 1.5,-1 0.825,0 1.5,0.45 1.5,1 0,0.55 -0.675,1 -1.5,1 -0.825,0 -1.5,-0.45 -1.5,-1 z m 7.58295,0.13421 c -0.43077,-0.697 -0.51316,-1.53733 -0.18309,-1.86741 0.89497,-0.89496 1.87077,0.4213 1.38739,1.87145 -0.33872,1.01617 -0.57427,1.01538 -1.2043,-0.004 z M 230,104 c 0,-1.31306 0.66667,-2 1.94098,-2 2.78329,0 3.45464,1.71791 1.15277,2.94983 C 230.37535,106.40467 230,106.28944 230,104 Z m 8.18576,0.94507 c -1.27284,-0.51048 -2.03378,-1.38196 -1.69099,-1.93661 0.85124,-1.37733 2.10561,-1.26523 3.70166,0.33083 0.73661,0.7366 2.00625,1.60108 2.82143,1.92105 1.04756,0.41118 0.89572,0.58633 -0.51786,0.59733 -1.1,0.009 -3.04141,-0.40211 -4.31424,-0.9126 z M 101.6041,331.99878 c 21.39274,-4.40067 39.9084,-8.23425 41.1459,-8.51905 1.26763,-0.29174 2.24978,-1.27358 2.24949,-2.24878 -2.8e-4,-0.95202 -6.77578,-34.80595 -15.05666,-75.23095 -8.28089,-40.425 -15.53147,-75.975 -16.11242,-79 -1.3505,-7.03213 -0.46017,-25.71246 1.59666,-33.5 6.91534,-26.18284 29.45871,-48.835792 58.1318,-58.414383 24.44124,-8.164894 49.41674,-7.849266 68.04652,0.859938 9.43927,4.41275 22.4132,13.83719 25.3143,18.38866 1.10983,1.741182 3.04442,4.437957 4.29909,5.992835 2.01479,2.49687 2.26425,3.84 2.13593,11.5 -0.1009,6.02306 -0.76502,10.28525 -2.17364,13.94993 l -2.02836,5.27698 2.50899,1.64395 c 2.14745,1.40706 2.65438,1.4392 3.51798,0.22302 0.80809,-1.13802 0.89806,-1.07553 0.45189,0.31382 -0.69702,2.17045 1.73873,3.55553 10.34146,5.88061 l 6.47303,1.74949 6.59983,-6.77221 c 7.92424,-8.13121 15.69566,-12.30166 24.04953,-12.90592 5.14962,-0.37249 6.03957,-0.14264 8.33488,2.15268 3.15995,3.15994 3.23813,5.94476 0.3197,11.38834 -2.65285,4.94821 -7.65396,8.90004 -13.12883,10.37427 -3.49609,0.9414 -14.81584,1.27254 -21.58941,0.63156 -2.14327,-0.20282 -3.67204,1.57066 -11.61127,13.46989 -10.07551,15.10106 -27.81267,44.29233 -28.77158,47.35141 -0.51052,1.62863 0.85623,2.74771 8.39963,6.87755 4.95515,2.71283 9.45649,5.47118 10.00297,6.12965 1.25158,1.50806 -2.01405,7.64295 -3.72604,6.99984 -1.52364,-0.57236 -4.63974,4.17673 -3.9389,6.00308 0.66718,1.73865 -2.51746,7.54498 -3.88657,7.0861 -0.55,-0.18435 -3.25416,3.51612 -6.00924,8.22326 -9.13629,15.60963 -13.62361,16.53249 -31.68712,6.51677 -6.55557,-3.63488 -12.06115,-6.44738 -12.23463,-6.25 -0.17347,0.19739 2.92649,11.83388 6.88882,25.85888 3.96232,14.025 7.51383,26.7375 7.89225,28.25 0.38025,1.51985 1.38071,2.75 2.23653,2.75 2.15851,0 229.17372,-46.8455 233.13066,-48.10745 4.87071,-1.55337 8.28848,-6.19873 8.25443,-11.21928 -0.0156,-2.2953 -10.75037,-56.7158 -23.85513,-120.93445 C 430.43736,38.103473 423.82536,7.4645009 422.48988,5.9888206 421.49996,4.8949693 419.76209,4 418.62794,4 417.4938,4 366.37605,14.392427 305.03293,27.094281 243.68982,39.796136 151.43882,58.893975 100.03072,69.533924 27.363018,84.573977 6.2764133,89.269079 5.2807186,90.630772 4.5763233,91.59409 4,93.683209 4,95.27326 c 0,3.630223 46.652601,233.22246 48.158386,237.00269 1.17053,2.93857 5.01102,6.15737 8.341614,6.99129 1.1,0.27541 2.046844,0.55296 2.104098,0.61676 0.05725,0.0638 17.607253,-3.48455 39.000002,-7.88522 z m 300.66273,-89.75812 c -3.97824,-2.60736 -7.24074,-5.09848 -7.25,-5.53582 -0.009,-0.43734 2.26579,-4.17786 5.05567,-8.31228 4.11769,-6.10215 5.33567,-7.2987 6.47065,-6.35675 1.16563,0.96739 0.73782,2.13275 -2.5725,7.00741 -2.18386,3.21587 -3.97065,6.07996 -3.97065,6.36465 0,0.28468 2.72602,2.36881 6.05782,4.6314 5.51903,3.74789 6.89057,5.82694 4.37968,6.63889 -0.51563,0.16674 -4.19243,-1.83014 -8.17067,-4.4375 z M 435.25,241.29623 c -1.95324,-0.72332 -1.53871,-1.98083 2.72053,-8.25284 l 3.97054,-5.84687 -6.48674,-4.22627 c -5.25129,-3.42136 -6.26631,-4.49187 -5.32939,-5.62079 1.26237,-1.52106 0.55868,-1.85107 11.56492,5.42357 l 5.18985,3.43026 -3.68985,5.90355 c -5.0377,8.06002 -6.48046,9.72983 -7.93986,9.18939 z M 271,213.5 c 0.68469,-0.825 1.91989,-1.5 2.74489,-1.5 1.21995,0 1.26758,0.28005 0.25511,1.5 -0.68469,0.825 -1.91989,1.5 -2.74489,1.5 -1.21995,0 -1.26758,-0.28005 -0.25511,-1.5 z m -6.08022,-3.91355 c -0.28892,-0.28892 -0.33984,-2.11407 -0.11314,-4.05588 0.4627,-3.96342 3.19336,-5.00809 3.19336,-1.2217 0,2.43175 -2.18401,6.17379 -3.08022,5.27758 z M 260,208.05902 c 0,-0.51754 0.45,-1.2191 1,-1.55902 0.55,-0.33992 1,0.0835 1,0.94098 0,0.85746 -0.45,1.55902 -1,1.55902 -0.55,0 -1,-0.42344 -1,-0.94098 z m 20.26283,-5.89803 c 0.10603,-1.40761 0.49829,-1.79987 1.14908,-1.14908 0.65079,0.65079 0.59583,1.38035 -0.16099,2.13717 -0.86544,0.86544 -1.10934,0.62154 -0.98809,-0.98809 z M 272,193.55902 c 0,-1.34254 -0.43281,-2.70847 -0.96179,-3.0354 -0.59211,-0.36595 -0.61665,-1.50221 -0.0638,-2.9562 0.49387,-1.29898 0.60289,-2.65683 0.24227,-3.01745 -0.36062,-0.36062 0.046,-0.38641 0.90363,-0.0573 0.85761,0.3291 2.1365,-0.0971 2.84196,-0.94715 C 276.72685,181.41928 278,181.60976 278,184 c 0,2.06373 1.44791,2.70232 2.45017,1.08062 0.31252,-0.50566 -0.14603,-1.63362 -1.01899,-2.50658 -1.17479,-1.1748 -1.38928,-2.42995 -0.82548,-4.83062 0.41895,-1.78388 0.80077,-3.69342 0.84849,-4.24342 0.19491,-2.24627 1.74084,-5.5 2.6132,-5.5 0.51293,0 0.93261,-0.675 0.93261,-1.5 0,-0.825 0.45,-1.5 1,-1.5 0.55,0 1,-0.675 1,-1.5 0,-0.825 0.675,-1.5 1.5,-1.5 2.08888,0 1.88524,3.63668 -0.25,4.46443 -1.63089,0.63224 -1.61789,0.77564 0.19113,2.10699 1.06762,0.78572 2.75512,1.42858 3.75,1.42858 1.50398,0 1.80887,0.84277 1.80887,5 0,4.33333 -0.26667,5 -2,5 -1.33333,0 -2,0.66667 -2,2 0,1.29205 -0.66667,2 -1.88337,2 -1.04236,0 -2.11691,0.89308 -2.40638,2 -0.28766,1.1 -1.24014,2 -2.11663,2 -0.87649,0 -1.59362,0.71713 -1.59362,1.59362 0,0.87649 -0.9,1.82897 -2,2.11663 -1.10692,0.28947 -2,1.36402 -2,2.40638 0,1.2167 -0.70795,1.88337 -2,1.88337 -1.45377,0 -2,-0.66667 -2,-2.44098 z m 88.44014,-3.70408 c -5.40799,-5.11465 -6.44171,-7.1179 -4.34247,-8.4153 1.43918,-0.88946 11.90233,9.46281 11.90233,11.7762 0,2.89222 -1.78912,2.09683 -7.55986,-3.3609 z m -71.21097,2.95756 C 289.84724,190.95828 292,190.65074 292,192.41667 292,193.2875 291.2875,194 290.41667,194 c -0.87084,0 -1.40521,-0.53438 -1.1875,-1.1875 z M 308.75,188.33772 c 0.6875,-0.27741 1.8125,-0.27741 2.5,0 0.6875,0.27741 0.125,0.50439 -1.25,0.50439 -1.375,0 -1.9375,-0.22698 -1.25,-0.50439 z m 5.43339,-2.33522 -2.31661,-1.93096 2.47347,-0.6208 c 1.36041,-0.34144 3.49648,-0.0733 4.74683,0.59586 2.19087,1.17252 2.20546,1.26632 0.40201,2.58504 -2.35732,1.72371 -2.50377,1.70635 -5.3057,-0.62914 z M 335,173.08333 C 335,171.855 335.64569,171 336.57332,171 c 0.93124,0 1.44138,0.68037 1.25,1.66713 C 337.33677,175.1759 335,175.52038 335,173.08333 Z m 45.39165,-6.07281 c -6.65959,-3.15871 -12.42561,-6.25646 -12.81338,-6.88388 -1.89124,-3.06009 3.49347,-1.77276 14.38976,3.4402 10.75448,5.14511 13.63808,7.3818 11.28197,8.75096 -0.4125,0.23971 -6.19876,-2.14857 -12.85835,-5.30728 z M 339,168.5 c 0,-0.825 0.64844,-1.5 1.44098,-1.5 2.11561,0 2.80217,1.69272 0.97149,2.39522 C 339.18368,170.25048 339,170.18232 339,168.5 Z m -41,-1.94098 c 0,-0.79254 0.45,-1.7191 1,-2.05902 0.55,-0.33992 1,0.30852 1,1.44098 0,1.13246 -0.45,2.05902 -1,2.05902 -0.55,0 -1,-0.64844 -1,-1.44098 z m -6,-7.62641 c 0,-1.66075 -0.44256,-1.9456 -2.25,-1.44822 -2.18667,0.60174 -2.19536,0.57549 -0.30887,-0.93261 1.06762,-0.85348 1.54012,-1.55178 1.05,-1.55178 -0.49012,0 -0.40199,-0.48914 0.19585,-1.08698 0.78264,-0.78264 1.65389,-0.60159 3.11174,0.64666 1.6727,1.43222 1.83831,2.14284 0.9525,4.08699 C 293.42709,161.55282 292,161.70115 292,158.93261 Z m 16,-2.81598 c 0,-3.15144 -0.42407,-4.01637 -2.25,-4.58903 l -2.25,-0.70566 2.5,-0.81129 c 3.51621,-1.14107 6.2227,-1.18001 5.54271,-0.0797 -0.93944,1.52003 1.42381,2.34177 2.99194,1.04035 0.79587,-0.66052 2.80115,-1.00219 4.45619,-0.75929 2.05548,0.30163 3.00916,0.0211 3.00916,-0.8852 C 322,148.59706 321.52344,148 320.94098,148 c -0.58246,0 -0.8182,-0.38965 -0.52386,-0.86589 0.29433,-0.47624 1.78339,-0.62678 3.30901,-0.33452 1.52563,0.29225 2.21137,0.7194 1.52387,0.94922 -0.6875,0.22982 -1.25,1.0875 -1.25,1.90595 0,2.49127 -2.46615,4.16995 -5.32362,3.62371 C 316.17358,152.80003 316,153.00141 316,156.38342 316,159.9361 315.92932,160 312,160 c -3.97998,0 -4,-0.0194 -4,-3.88337 z m -13.24377,-6.69606 c 0.69093,-0.32526 1.01228,-0.98611 0.71412,-1.46854 -0.29816,-0.48243 0.80004,-0.7815 2.44043,-0.66459 3.52645,0.25132 2.81429,1.33552 -1.41078,2.14778 -1.65,0.31721 -2.4347,0.31062 -1.74377,-0.0146 z M 327,144 c -1.2819,-0.82843 -1.24555,-0.9716 0.25,-0.98469 0.9625,-0.008 1.75,-0.41717 1.75,-0.90832 0,-0.49116 0.6765,-1.15261 1.50332,-1.46989 1.28039,-0.49133 1.26333,-0.2106 -0.11501,1.89301 -0.89008,1.35844 -1.67908,2.463 -1.75332,2.45458 C 328.56075,144.97627 327.825,144.53316 327,144 Z m -40,-6.29506 -2.5,-1.05181 2.33586,-0.40737 c 2.539,-0.44279 3.57345,0.0953 3.01831,1.57012 -0.21528,0.57191 -1.33454,0.52841 -2.85417,-0.11094 z m 5,0.35408 c 0,-0.51754 0.44485,-1.21592 0.98855,-1.55194 0.56686,-0.35034 0.7345,0.0511 0.39301,0.94098 C 292.71677,139.18048 292,139.49745 292,138.05902 Z m 93.14664,-0.0665 c -2.94435,-0.43958 -5.84685,-1.29272 -6.45,-1.89587 -2.24847,-2.24847 0.85338,-2.8548 8.80336,-1.72083 5.91425,0.8436 8,1.52998 8,2.63265 0,1.79392 -3.01148,2.08015 -10.35336,0.98405 z M 334.01531,137.25 c 0.008,-0.4125 0.45153,-1.425 0.98469,-2.25 0.78387,-1.21296 0.9723,-1.06944 0.98469,0.75 0.008,1.2375 -0.43469,2.25 -0.98469,2.25 -0.55,0 -0.99311,-0.3375 -0.98469,-0.75 z m -37.62137,-7.83421 C 296.72727,128.54714 297,127.64823 297,127.41821 c 0,-1.32738 2.84536,-0.11755 3.2359,1.37589 0.34883,1.33392 -0.16144,1.84628 -1.98942,1.99757 -1.87068,0.15482 -2.31367,-0.17419 -1.85254,-1.37588 z M 271.5,129 c 0.33992,-0.55 1.2968,-1 2.1264,-1 0.97725,0 1.3167,-0.61621 0.96403,-1.75 -0.29939,-0.9625 -0.16178,-4.675 0.30581,-8.25 0.72137,-5.51537 0.86936,-5.85621 0.97696,-2.25 0.13852,4.64297 0.71085,5.16616 2.73475,2.5 1.155,-1.52152 1.3326,-1.01015 1.36025,3.91667 0.0202,3.60369 0.48687,5.82919 1.2818,6.11309 0.72707,0.25967 0.87897,0.81746 0.3631,1.33334 -0.51588,0.51587 -1.07367,0.36397 -1.33334,-0.3631 -0.53164,-1.4886 -4.89755,-1.67745 -5.77976,-0.25 -0.33992,0.55 -1.29303,1 -2.11803,1 -0.825,0 -1.22189,-0.45 -0.88197,-1 z m 33.98866,-4.18686 c -0.36181,-0.93295 -1.28758,-1.4438 -2.07142,-1.14301 C 302.4706,124.03339 302,123.51434 302,122.10699 c 0,-2.21238 2.39543,-2.89423 3.5582,-1.01282 0.37193,0.60179 1.74849,0.8892 3.05902,0.63867 1.31053,-0.25052 2.38278,-0.0679 2.38278,0.40583 0,0.47373 -0.51289,0.86133 -1.13976,0.86133 -0.62686,0 -1.71972,0.7875 -2.42858,1.75 -1.19906,1.62812 -1.33438,1.63252 -1.943,0.0631 z m 9.26134,-4.47542 c 0.6875,-0.27741 1.8125,-0.27741 2.5,0 0.6875,0.27741 0.125,0.50439 -1.25,0.50439 -1.375,0 -1.9375,-0.22698 -1.25,-0.50439 z M 334.5,119 c -0.33992,-0.55 -0.14148,-1 0.44098,-1 0.58246,0 1.05902,0.45 1.05902,1 0,0.55 -0.19844,1 -0.44098,1 -0.24254,0 -0.7191,-0.45 -1.05902,-1 z m 22.5,-0.5 c 0,-0.82536 0.8854,-1.5 1.96862,-1.5 1.33903,0 1.78453,0.47971 1.39301,1.5 -0.31659,0.825 -1.20246,1.5 -1.96862,1.5 C 357.62686,120 357,119.325 357,118.5 Z M 24,108 c -1.1,-1.1 -2,-2.675 -2,-3.5 C 22,102.93901 25.421565,99 26.777494,99 29.08147,99 32,102.36505 32,105.02152 32,109.73785 27.436778,111.43678 24,108 Z m 251.04355,-0.71057 c 0.024,-0.43419 0.41679,-2.71977 0.87298,-5.07907 0.45618,-2.359304 0.62333,-4.083549 0.37143,-3.831656 -0.25189,0.251892 -1.74237,0.01025 -3.31218,-0.536992 -1.85309,-0.645991 -2.66262,-1.494222 -2.308,-2.418345 C 271.2534,93.897261 276,93.412395 276,94.87868 c 0,0.483273 1.35,1.437868 3,2.12132 3.48887,1.445139 3.92062,4.16451 1.07168,6.75 -3.70042,3.35822 -5.07137,4.32326 -5.02813,3.53943 z M 39.222506,105.4433 c -3.008199,-2.10703 -2.8748,-5.969794 0.277494,-8.035257 2.315871,-1.517417 2.684129,-1.517417 5,0 2.874473,1.883427 3.309358,5.639737 0.928571,8.020527 -1.977232,1.97723 -3.399375,1.98061 -6.206065,0.0147 z m 15,-3 c -3.008199,-2.10703 -2.8748,-5.969794 0.277494,-8.035257 2.315871,-1.517417 2.684129,-1.517417 5,0 2.972279,1.947512 3.279221,5.576797 0.671259,7.936967 -2.265904,2.05062 -3.140772,2.06507 -5.948753,0.0983 z M 351,95.5 c 0,-0.825 0.675,-1.5 1.5,-1.5 0.825,0 1.52852,-0.7875 1.56339,-1.75 0.0469,-1.294769 0.30753,-1.140678 1.00194,0.592353 0.5162,1.288295 0.68612,2.750795 0.37759,3.25 C 354.51944,97.586584 351,97.117354 351,95.5 Z m -81,-5.083333 c 0,-0.870834 0.53437,-1.405209 1.1875,-1.1875 C 273.04172,89.847241 273.34926,92 271.58333,92 270.7125,92 270,91.2875 270,90.416667 Z m -5,-1.381483 c 0,-1.175791 3.95774,-3.410775 4.70918,-2.659332 0.29585,0.29584 0.27143,1.232299 -0.0543,2.08102 C 269.01501,90.124456 265,90.623268 265,89.035184 Z m -5.75,-5.453939 c -3.93166,-3.988161 -4.06722,-4.824457 -0.64267,-3.96495 1.67394,0.420132 2.89441,0.189901 3.40925,-0.643127 0.63586,-1.028843 1.14611,-0.953332 2.4641,0.364653 1.52623,1.526228 1.53083,1.79353 0.0562,3.268125 -1.23992,1.239925 -1.34225,1.923673 -0.44898,3 2.44865,2.950448 -1.6062,1.253469 -4.83793,-2.024701 z m -9.58333,-5.247912 C 248.73453,77.401201 248.83462,76 249.83333,76 c 0.45834,0 0.83334,0.675 0.83334,1.5 0,1.699352 -0.0731,1.760252 -1,0.833333 z m -3.17929,-2.640804 c -0.41,-0.994108 -1.33948,-1.579526 -2.06549,-1.300927 -0.83937,0.322096 -1.11756,-0.02111 -0.76397,-0.94253 0.69961,-1.82317 1.11923,-1.814781 2.99387,0.05986 0.82991,0.82991 1.30015,2.06741 1.04499,2.75 -0.30717,0.821715 -0.71582,0.63033 -1.2094,-0.5664 z M 341.75,76.225824 C 340.7875,76.020964 340,75.211348 340,74.426676 340,73.642004 339.62223,73 339.16052,73 338.42267,73 336,68.720977 336,67.417763 c 0,-1.310805 3.94706,1.840077 4.50427,3.595696 0.35185,1.108571 0.94482,1.830413 1.31773,1.604095 0.3729,-0.226319 1.42994,0.592147 2.34897,1.818812 1.67987,2.242181 1.23858,2.568361 -2.42097,1.789458 z M 324,66 c 0,-1.333333 0.66667,-2 2,-2 1.1,0 1.94671,-0.3375 1.88158,-0.75 -0.3333,-2.110883 0.26774,-3.129931 1.55475,-2.636057 1.22303,0.469318 1.1859,1.055049 -0.25,3.944011 C 327.31426,68.324504 324,69.246023 324,66 Z m -36,-9.5 c 0,-6.90499 0.16335,-7.5 2.05902,-7.5 1.24256,0 1.7895,-0.436088 1.37932,-1.099768 -0.49008,-0.792961 -0.12476,-0.802776 1.3095,-0.03518 1.09406,0.585521 2.27336,0.780417 2.62068,0.433102 0.34731,-0.34732 0.63148,-0.101169 0.63148,0.546997 0,0.812741 1.31899,0.994573 4.25,0.585893 2.8481,-0.39712 3.80035,-0.276019 2.88685,0.367131 -1.15087,0.810267 -1.15087,1.044145 0,1.501827 0.78515,0.312244 0.40912,0.575578 -0.88685,0.621051 C 300.69298,51.975685 300,52.615984 300,54 c 0,1.666667 -0.66667,2 -4,2 h -4 v 4 c 0,3.333333 -0.33333,4 -2,4 -1.82222,0 -2,-0.666667 -2,-7.5 z m 36.60301,3.666667 c -0.28327,-0.458334 0.12038,-0.833334 0.89699,-0.833334 0.77661,0 1.18026,0.375 0.89699,0.833334 C 326.11373,60.625 325.71008,61 325.5,61 c -0.21008,0 -0.61373,-0.375 -0.89699,-0.833333 z m -63.40614,-2.429449 c -1.35212,-1.629212 -1.16093,-5.742971 0.26593,-5.721905 2.20575,0.03256 3.69775,1.809624 3.37469,4.019449 -0.40218,2.751068 -2.10823,3.548867 -3.64062,1.702456 z m 54.81033,-2.245894 c 0.5365,-0.646438 0.65557,-1.495222 0.2646,-1.886186 -0.39096,-0.390964 0.0345,-0.424818 0.94554,-0.07523 1.93408,0.742176 1.36574,3.136761 -0.7445,3.136761 -0.99067,0 -1.13621,-0.36736 -0.46564,-1.175343 z m 4.49988,0.52013 c -0.35034,-0.56686 0.0511,-0.734507 0.94098,-0.393011 C 323.18048,56.283234 323.49745,57 322.05902,57 c -0.51754,0 -1.21592,-0.444846 -1.55194,-0.988546 z M 304,55.081787 C 304,53.030299 305.29673,51 306.60699,51 307.4262,51 308,52.029782 308,53.5 c 0,1.833333 -0.53333,2.5 -2,2.5 -1.1,0 -2,-0.413196 -2,-0.918213 z m 7.02006,-2.557621 C 310.23131,51.573782 310.15544,51 310.81854,51 c 1.20855,0 2.61759,1.8972 1.9241,2.590697 -0.2517,0.251699 -1.02686,-0.22824 -1.72258,-1.066531 z m -36.20756,-4.20728 c 0.72187,-0.288871 1.58438,-0.253344 1.91667,0.07895 0.33229,0.332292 -0.25834,0.568641 -1.3125,0.52522 -1.16495,-0.04798 -1.4019,-0.284941 -0.60417,-0.604167 z M 372,37.010466 c 0,-1.635348 -0.52174,-2.062832 -2.22535,-1.823324 -2.98839,0.420132 -3.64978,-2.725029 -0.73341,-3.487674 1.62855,-0.425877 1.9815,-1.052468 1.48103,-2.629295 C 370.01108,27.459542 370.29826,27 371.81598,27 c 1.08801,0 2.17458,0.855906 2.45685,1.935288 0.36552,1.397759 1.09229,1.781992 2.61663,1.383368 C 378.54593,29.885478 379,30.222113 379,31.883369 379,33.32915 378.36985,34 377.01179,34 c -1.45614,0 -1.92446,0.591159 -1.75,2.209012 0.15348,1.423285 -0.38425,2.338595 -1.51179,2.573324 -1.23422,0.256937 -1.75,-0.265292 -1.75,-1.77187 z m 18.57312,-3.680516 c -0.35329,-0.920649 -0.0648,-2.035603 0.64301,-2.484688 C 393.57193,29.350465 395,29.974977 395,32.5 c 0,2.926935 -3.37909,3.560445 -4.42688,0.82995 z m 8.09355,0.0034 C 398.3,32.966667 398,31.841667 398,30.833333 398,29.544444 398.74242,29 400.5,29 c 2.87644,0 3.58107,3.371175 0.91821,4.393011 -1.95858,0.751579 -1.93988,0.751985 -2.75154,-0.05968 z M 389,25.567388 C 389,23.653445 389.51702,23 391.03138,23 c 1.11727,0 2.29786,0.694408 2.62354,1.543128 0.69671,1.81558 0.55084,1.991477 -2.40492,2.900032 -1.92867,0.592844 -2.25,0.32496 -2.25,-1.875772 z m 7.72539,-1.509483 C 396.12613,21.766331 396.7087,21 399.05004,21 c 1.66877,0 3.29487,3.321757 2.17453,4.442095 -1.27061,1.270609 -4.02667,0.422696 -4.49918,-1.38419 z M 259.04483,193.75 c 9.06466,-15.45117 18.79445,-31.01481 25.63997,-41.01336 2.92336,-4.26984 5.3152,-7.94506 5.3152,-8.16713 0,-0.22208 -2.26486,-0.88951 -5.03303,-1.48317 -5.31779,-1.14046 -12.28851,-4.28324 -15.2231,-6.86339 -0.96587,-0.84921 -1.86587,-1.35928 -2,-1.13349 -0.13413,0.2258 -2.24838,4.46054 -4.69833,9.41054 -4.76064,9.61862 -16.49493,30.51486 -23.58511,42 -2.37674,3.85 -4.46514,7.57592 -4.64089,8.27983 -0.22717,0.90986 13.93094,10.28704 16.85955,11.1664 0.0985,0.0296 3.41308,-5.45873 7.36574,-12.19623 z M 246.5,199.69119 c -1.1,-0.65515 -2.33061,-1.64119 -2.73469,-2.19119 -0.45499,-0.61931 -0.74051,-0.52413 -0.75,0.25 -0.0206,1.68178 -1.6698,1.59277 -2.32924,-0.12571 -0.29035,-0.75664 -0.001,-1.36075 0.64301,-1.34246 C 246.43762,196.42686 248,195.89244 248,194 c 0,-1.1 -0.45,-2 -1,-2 -1.78193,0 -1.06016,-2.42865 1.63455,-5.5 1.68214,-1.91726 2.79452,-2.54886 3.08211,-1.75 0.2475,0.6875 1.08751,1.25 1.86667,1.25 0.77917,0 1.48417,0.9 1.56667,2 0.0825,1.1 0.195,2.5625 0.25,3.25 0.055,0.6875 0.55,1.59573 1.1,2.0183 0.61951,0.47596 0.34995,1.15188 -0.70847,1.77644 -0.99608,0.58778 -1.48849,1.72683 -1.18093,2.73171 0.29015,0.94795 -0.19549,0.59855 -1.07919,-0.77645 l -1.60673,-2.5 0.59834,3.5 c 0.46916,2.74441 0.35291,3.17617 -0.53848,2 -0.85784,-1.13191 -1.26127,-1.19326 -1.644,-0.25 -0.61131,1.50657 -1.22815,1.49712 -3.84054,-0.0588 z m -8.10699,-6.27298 C 238.72686,192.54823 239,191.17167 239,190.3592 c 0,-0.81248 0.45,-1.19912 1,-0.8592 1.68137,1.03914 1.18906,5.5 -0.60699,5.5 -1.05452,0 -1.39831,-0.5438 -1,-1.58179 z m 19.25025,-3.93094 c 0.31927,-0.83201 0.0298,-2.17628 -0.64326,-2.98727 -0.67306,-0.81099 -0.96253,-2.15526 -0.64326,-2.98727 0.69929,-1.82231 3.59108,-2.0238 3.77088,-0.26273 0.0702,0.6875 0.23319,2.25074 0.36221,3.47386 0.12903,1.22312 -0.1534,1.98406 -0.62762,1.69098 C 259.38799,188.12176 259,188.58352 259,189.44098 259,190.29844 258.56412,191 258.03138,191 c -0.53273,0 -0.70739,-0.68073 -0.38812,-1.51273 z m -14.86218,-5.17982 C 244.00149,182.59354 245,180.77323 245,180.2623 c 0,-0.51093 0.63118,-0.92897 1.40262,-0.92897 2.0414,0 0.13081,3.67063 -3.18992,6.12849 l -2.65054,1.96182 z M 264.75,175.9199 C 262.61164,174.67442 262.42493,171 264.5,171 c 0.825,0 1.5,0.81 1.5,1.8 0,0.99 0.54,2.34 1.2,3 1.45423,1.45423 -0.034,1.52706 -2.45,0.1199 z m -10.99132,-4.40196 c -0.26975,-1.41112 -0.0935,-2.81103 0.39174,-3.11091 0.48521,-0.29987 0.56348,-1.07663 0.17393,-1.72613 -0.40349,-0.67274 0.0198,-0.59031 0.98369,0.19154 1.43953,1.16769 1.69196,1.16023 1.69196,-0.05 0,-0.78234 -0.5625,-2.02846 -1.25,-2.76914 -1,-1.07737 -1,-1.20556 0,-0.64099 1.09326,0.61723 1.78708,-1.64625 1.40004,-4.56745 -0.0477,-0.36033 0.50091,-0.88067 1.21922,-1.15632 0.99431,-0.38155 1.33744,1.24058 1.43769,6.79654 0.10955,6.07211 -0.15708,7.40003 -1.58764,7.90696 -0.94562,0.33508 -2.22575,0.85277 -2.84474,1.15041 -0.63428,0.305 -1.33947,-0.57852 -1.61589,-2.02451 z m -3.02747,-0.5981 c 0.35361,-1.3522 0.8069,-1.8055 1.05655,-1.05655 0.24048,0.72144 -0.0382,1.78716 -0.61931,2.36826 -0.74207,0.74207 -0.87221,0.35164 -0.43724,-1.31171 z M 272,165.10765 c 0,-2.57226 0.39264,-3.98302 1.00349,-3.6055 0.55191,0.34111 0.75308,2.04149 0.44704,3.77864 C 272.62526,169.96519 272,169.89056 272,165.10765 Z m -7,-7.05095 c 0,-1.06881 -0.96483,-2.61909 -2.14408,-3.44506 -1.93936,-1.35839 -2.02326,-1.79344 -0.87867,-4.5567 C 263.5089,146.35718 265,146.08344 265,149.5 c 0,2.79006 1.01656,3.09668 4.14422,1.25 1.69367,-1 2.20762,-1 2.56977,0 0.24897,0.6875 1.31518,1.25 2.36934,1.25 1.53464,0 1.91667,-0.71894 1.91667,-3.60699 0,-2.7666 0.34332,-3.47524 1.47355,-3.04153 0.81622,0.31321 1.90366,-0.19668 2.43772,-1.14301 0.7722,-1.3683 1.2155,-1.45959 2.22645,-0.45847 0.69425,0.6875 2.10978,1.25 3.14561,1.25 1.07657,0 1.69333,0.53546 1.43977,1.25 -0.24396,0.6875 -1.35763,1.15146 -2.47481,1.03102 -2.2776,-0.24554 -3.94878,3.66802 -2.06381,4.833 0.71333,0.44086 0.34297,1.16415 -1.0376,2.02632 -1.18078,0.73742 -2.14688,2.13251 -2.14688,3.10021 0,2.22118 -4.22306,2.39354 -6.35714,0.25945 C 270.49956,155.3567 268,155.62589 268,158 c 0,1.11111 -0.66667,2 -1.5,2 -0.825,0 -1.5,-0.87448 -1.5,-1.9433 z m 2.62976,-14.91332 c -1.49992,-1.65739 -1.51655,-1.99244 -0.15499,-3.12244 1.24087,-1.02983 1.52808,-1.00995 1.54054,0.10662 0.0122,1.09399 0.20418,1.0738 0.94621,-0.0995 0.81958,-1.29597 0.98708,-1.29597 1.40079,0 1.47711,4.62713 -0.71136,6.45373 -3.73255,3.11535 z m 50.68263,-2.35512 c 7.21628,-2.16205 13.58484,-10.79731 10.60822,-14.38391 -2.98757,-3.59981 -15.08993,0.16209 -23.68203,7.36132 -2.89378,2.42467 -5.72211,5.2693 -6.28518,6.32141 -0.9694,1.81133 -0.58993,1.91292 7.1454,1.91292 4.49304,0 9.98915,-0.54528 12.21359,-1.21174 z M 304.5515,139.91667 C 304.86309,139.4125 306.89148,139 309.05902,139 c 2.16754,0 3.94098,0.4125 3.94098,0.91667 0,0.50416 -2.02838,0.91666 -4.50751,0.91666 -2.47914,0 -4.25258,-0.4125 -3.94099,-0.91666 z M 315.5,137 c 0.33992,-0.55 1.49148,-1 2.55902,-1 1.06754,0 1.94098,-0.45 1.94098,-1 0,-0.55 0.675,-1 1.5,-1 1.99134,0 1.92815,2.62173 -0.0818,3.39301 -2.54066,0.97495 -6.59716,0.70557 -5.9182,-0.39301 z M 309,134.86292 C 309,134.38831 309.72314,134 310.60699,134 c 0.97588,0 1.39341,-0.55658 1.06314,-1.41724 -0.29911,-0.77948 0.10274,-1.66536 0.89301,-1.96862 0.79027,-0.30325 1.43686,-0.14679 1.43686,0.34769 0,0.49449 1.0125,1.04766 2.25,1.22926 1.71486,0.25166 1.12027,0.71128 -2.5,1.93247 -2.6125,0.88126 -4.75,1.21397 -4.75,0.73936 z m 16.70533,-4.88173 c -0.54105,-2.069 -0.69652,-2.10077 -2.86124,-0.58454 C 319.83374,131.50518 319,131.41915 319,129 c 0,-1.7037 0.66667,-2 4.5,-2 4.53127,0 5.4427,0.96453 3.62342,3.83453 -0.63794,1.0064 -0.98663,0.79658 -1.41809,-0.85334 z M 268.10359,122.25 c 1.9448,-6.77501 1.80715,-17.17 -0.26614,-20.09766 -1.65491,-2.336861 -1.66763,-2.338172 -2.76632,-0.28525 -0.60707,1.13432 -2.88777,2.5969 -5.06822,3.25018 -4.2928,1.28616 -4.4319,2.03539 -1.74204,9.38273 1.2902,3.52419 6.92209,12.5 7.84314,12.5 0.34984,0 1.24965,-2.1375 1.99958,-4.75 z m -5.09639,-2.50082 C 261.09708,115.43103 261.14126,112 263.10699,112 263.59814,112 264,111.325 264,110.5 c 0,-0.825 0.45,-1.5 1,-1.5 1.74852,0 1.11634,5.83286 -0.75,6.9199 -1.16152,0.67653 -1.29368,1.02951 -0.39301,1.04969 0.83825,0.0188 1.11836,0.65227 0.73275,1.65716 -0.34334,0.89471 -0.10236,2.25558 0.53551,3.02416 0.63786,0.76858 0.87608,1.68109 0.52938,2.02779 -0.3467,0.34671 -1.53805,-1.42158 -2.64743,-3.92952 z m -3.43577,-10.32061 c -2.0559,-2.0559 -1.98282,-2.34891 0.42857,-1.71832 1.1,0.28766 2,1.14553 2,1.90638 0,1.78225 -0.49673,1.74378 -2.42857,-0.18806 z"
         id="path7" />
      <path
         style="fill:#13111c"
         d="m 197.59345,448.95389 c -21.10948,-1.75921 -43.36589,-6.59285 -55.4064,-12.03315 -24.35161,-11.00286 -20.11102,-24.57618 10.44451,-33.43083 4.81057,-1.39404 8.80811,-2.63707 8.88341,-2.76227 0.0753,-0.1252 -3.26554,-16.76514 -7.42409,-36.97764 -5.23554,-25.44714 -7.958,-36.75 -8.85178,-36.75 -0.70992,0 -18.67623,3.6 -39.92514,8 -21.24891,4.4 -40.520739,8 -42.826288,8 -5.578075,0 -10.417647,-3.31411 -13.144746,-9.00145 C 47.924837,331.04115 39.051102,289.46897 23.440794,212.6508 -2.1814457,86.564003 -1.5126918,90.890917 4,86.86665 5.7683605,85.575747 66.897115,72.543687 212.87593,42.33632 402.8376,3.027592 419.45285,-0.25491503 421.77878,1.0654953 c 1.38979,0.7889776 3.3643,2.5625979 4.38779,3.9413786 1.34121,1.8067872 8.55946,35.3939881 25.84716,120.2692261 13.19245,64.76929 23.98459,119.2162 23.98253,120.99312 -0.004,3.54381 -2.9297,9.02101 -6.32478,11.84103 -2.83879,2.35795 -2.35989,2.25271 -129.03974,28.35807 -59.87754,12.33917 -109.12271,22.68932 -109.43372,23.00033 -0.46169,0.46169 16.09898,61.08382 22.9703,84.08524 l 1.8085,6.05388 9.13301,1.75078 c 60.05516,11.51244 56.07498,37.75163 -7.00907,46.207 -14.16174,1.89815 -45.70516,2.62191 -60.50731,1.38834 z m 34.06199,-19.32702 c 8.81382,-1.92104 18.89462,-5.88628 22.70752,-8.9319 l 2.86297,-2.28685 -7.29804,-25.95406 C 245.91397,378.17933 234.90023,339.05 225.45291,305.5 l -17.17694,-61 -7.78617,-4.5 c -9.83164,-5.68217 -12.0054,-8.47151 -11.9416,-15.32333 0.0394,-4.23161 0.82822,-6.51745 4.32081,-12.52095 2.65014,-4.55538 4.02793,-7.97303 3.62827,-9 -0.7567,-1.94443 -6.63002,-24.10699 -6.84816,-25.84107 -0.17594,-1.39856 30.43036,-23.38356 31.57149,-22.6783 2.20836,1.36484 -0.4333,3.94934 -13.22061,12.93459 -7.76096,5.45339 -13.9966,10.52627 -13.99236,11.38322 0.0147,2.97169 3.92035,14.38348 5.20072,15.19578 2.26654,1.43793 3.69027,0.92162 5.1521,-1.86838 1.24975,-2.38524 1.23551,-2.85651 -0.11621,-3.84491 -1.37458,-1.00511 -1.33975,-1.46639 0.32321,-4.28156 1.02506,-1.7353 2.12725,-3.15509 2.44929,-3.15509 0.32204,0 5.6928,2.93222 11.93502,6.51604 6.24222,3.58382 11.44568,6.39632 11.56325,6.25 C 230.63259,193.61972 233.42755,189 236.72604,183.5 250.3312,160.81436 264,135.45446 264,132.89829 c 0,-0.63035 -1.75881,-3.77993 -3.90846,-6.99906 -3.76496,-5.63807 -6.32429,-11.44681 -7.52174,-17.07153 -0.42117,-1.97834 -1.52532,-2.98795 -4.25192,-3.8878 -2.02566,-0.66853 -5.73836,-2.5216 -8.25045,-4.11793 -10.99444,-6.986526 -26.71011,-7.826852 -42.86652,-2.292099 -0.83566,0.286275 -0.012,1.575109 2.30892,3.612899 4.69437,4.12171 7.5259,9.80334 8.2155,16.48483 0.4977,4.82234 0.79612,5.3724 2.91457,5.3724 1.69343,0 2.3601,0.56495 2.3601,2 0,1.47508 -0.66667,2 -2.54006,2 -1.66254,0 -3.8546,1.38187 -6.34516,4 -3.04242,3.19825 -4.51537,4 -7.34865,4 -3.23789,0 -3.59854,0.29315 -4.18112,3.39855 -1.31822,7.0267 -8.02731,12.20785 -14.65661,11.31867 -3.63789,-0.48794 -3.76566,-0.39822 -4.42298,3.10561 -0.95126,5.07063 -2.91493,8.50252 -6.67565,11.66695 -3.0785,2.59039 -3.59518,2.69322 -10.24192,2.03827 -8.46098,-0.83373 -11.905,-2.46528 -13.54096,-6.41484 -2.43896,-5.88817 1.55894,-12.97477 7.56283,-13.40574 4.01525,-0.28822 3.68505,1.9029 -0.60972,4.04601 -2.692,1.34332 -3.56892,2.45089 -3.79852,4.79762 -0.44769,4.57567 2.39696,6.5667 10.2869,7.20003 5.88546,0.47243 6.84358,0.28564 9.01928,-1.75833 3.49047,-3.27912 4.8195,-8.16811 4.03022,-14.8256 -1.00453,-8.47312 -2.40655,-13.02785 -4.32184,-14.04037 -0.94382,-0.49895 -6.42554,-1.8636 -12.18161,-3.03257 -10.6341,-2.15962 -13.22919,-3.2995 -11.4843,-5.04439 0.98102,-0.98102 21.91859,3.06024 25.33903,4.89081 3.0347,1.62412 4.0905,3.5819 5.21602,9.67213 1.21216,6.55911 1.93193,7.34981 6.71056,7.37188 7.33768,0.0339 10.78538,-4.95936 9.8176,-14.21864 -0.66215,-6.33506 -1.70841,-8.96957 -5.0083,-12.61106 -3.45838,-3.81638 -6.57491,-4.90417 -19.17092,-6.69139 -12.14741,-1.72358 -14.70139,-2.61633 -12.83217,-4.48555 1.08848,-1.08848 19.90669,1.19654 26.21382,3.18303 6.78993,2.13856 14.08068,11.22234 14.14227,17.6203 0.0121,1.25477 0.70504,2.54351 1.53992,2.86389 2.21765,0.85099 7.39599,-1.58431 9.18963,-4.32175 3.02026,-4.60949 1.08766,-16.57494 -3.49573,-21.64333 -3.18849,-3.5259 -8.73045,-5.48859 -18.73803,-6.6361 C 165.99401,98.383773 164,97.941321 164,96.388709 c 0,-1.694253 3.36333,-1.767797 15.08668,-0.329893 8.15791,1.000592 9.20654,0.895497 21,-2.104665 19.19109,-4.882057 31.00225,-3.561334 44.45654,4.971125 5.52676,3.504964 12.47052,4.154254 16.23427,1.518024 3.38,-2.367446 2.69579,-4.862517 -2.52749,-9.216865 -16.48507,-13.742655 -31.90799,-18.956569 -53.03011,-17.9275 -16.4142,0.7997 -28.12721,3.541113 -40.46656,9.471142 C 133.76393,97.662923 117,122.54357 117,153.64447 c 0,11.00732 -2.1614,-0.16691 37.01342,191.35553 4.89372,23.925 10.56708,51.708 12.60746,61.74001 l 3.70978,18.24001 5.46167,2.04347 c 13.26279,4.96225 39.44282,6.18231 55.86311,2.60338 z M 101.6041,331.99878 c 21.39274,-4.40067 39.9084,-8.23425 41.1459,-8.51905 1.26763,-0.29174 2.24978,-1.27358 2.24949,-2.24878 -2.8e-4,-0.95202 -6.77578,-34.80595 -15.05666,-75.23095 -8.28089,-40.425 -15.53147,-75.975 -16.11242,-79 -1.3505,-7.03213 -0.46017,-25.71246 1.59666,-33.5 6.91534,-26.18284 29.45871,-48.835792 58.1318,-58.414383 C 183.83761,71.651878 199.67606,69 209.90545,69 c 22.50148,0 45.82886,11.101557 59.2,28.173436 5.48897,7.008144 6.04609,14.735474 1.99972,27.736464 l -1.9004,6.10601 2.64761,2.08289 c 3.30735,2.60189 7.7986,4.49688 15.20903,6.41711 l 5.76338,1.49344 6.27411,-6.53382 c 10.02305,-10.43797 23.53081,-15.78685 30.61541,-12.12327 3.85188,1.99189 4.78674,5.5128 2.7549,10.37567 -1.99698,4.77944 -4.93699,7.91119 -9.96921,10.61939 -3.41833,1.83964 -5.71403,2.16326 -15.78705,2.22545 -8.83474,0.0545 -12.12727,0.43025 -13.14534,1.5 -4.25471,4.47069 -37.56799,58.07727 -37.56735,60.45208 1.5e-4,0.53633 4.27472,3.37993 9.49906,6.31911 5.22434,2.93918 9.72615,5.71184 10.00404,6.16147 0.797,1.28958 -2.87179,7.04711 -4.17789,6.55648 -1.52364,-0.57236 -4.63974,4.17673 -3.9389,6.00308 0.66718,1.73865 -2.51746,7.54498 -3.88657,7.0861 -0.55,-0.18435 -3.25416,3.51612 -6.00924,8.22326 -9.13629,15.60963 -13.62361,16.53249 -31.68712,6.51677 -6.55557,-3.63488 -12.06115,-6.44738 -12.23463,-6.25 -0.17347,0.19739 2.92649,11.83388 6.88882,25.85888 3.96232,14.025 7.51383,26.7375 7.89225,28.25 0.38025,1.51985 1.38071,2.75 2.23653,2.75 2.15851,0 229.17372,-46.8455 233.13066,-48.10745 4.87071,-1.55337 8.28848,-6.19873 8.25443,-11.21928 -0.0156,-2.2953 -10.75037,-56.7158 -23.85513,-120.93445 C 430.43736,38.103473 423.82536,7.4645009 422.48988,5.9888206 421.49996,4.8949693 419.76209,4 418.62794,4 417.4938,4 366.37605,14.392427 305.03293,27.094281 243.68982,39.796136 151.43882,58.893975 100.03072,69.533924 27.363018,84.573977 6.2764133,89.269079 5.2807186,90.630772 4.5763233,91.59409 4,93.683209 4,95.27326 c 0,3.630223 46.652601,233.22246 48.158386,237.00269 1.17053,2.93857 5.01102,6.15737 8.341614,6.99129 1.1,0.27541 2.046844,0.55296 2.104098,0.61676 0.05725,0.0638 17.607253,-3.48455 39.000002,-7.88522 z m 300.66273,-89.75812 c -3.97824,-2.60736 -7.24074,-5.09848 -7.25,-5.53582 -0.009,-0.43734 2.26579,-4.17786 5.05567,-8.31228 4.11769,-6.10215 5.33567,-7.2987 6.47065,-6.35675 1.16563,0.96739 0.73782,2.13275 -2.5725,7.00741 -2.18386,3.21587 -3.97065,6.07996 -3.97065,6.36465 0,0.28468 2.72602,2.36881 6.05782,4.6314 5.51903,3.74789 6.89057,5.82694 4.37968,6.63889 -0.51563,0.16674 -4.19243,-1.83014 -8.17067,-4.4375 z M 435.25,241.29623 c -1.95324,-0.72332 -1.53871,-1.98083 2.72053,-8.25284 l 3.97054,-5.84687 -6.48674,-4.22627 c -5.25129,-3.42136 -6.26631,-4.49187 -5.32939,-5.62079 1.26237,-1.52106 0.55868,-1.85107 11.56492,5.42357 l 5.18985,3.43026 -3.68985,5.90355 c -5.0377,8.06002 -6.48046,9.72983 -7.93986,9.18939 z m -74.80986,-51.44129 c -5.40799,-5.11465 -6.44171,-7.1179 -4.34247,-8.4153 1.43918,-0.88946 11.90233,9.46281 11.90233,11.7762 0,2.89222 -1.78912,2.09683 -7.55986,-3.3609 z m 19.95151,-22.84442 c -6.65959,-3.15871 -12.42561,-6.25646 -12.81338,-6.88388 -1.89124,-3.06009 3.49347,-1.77276 14.38976,3.4402 10.75448,5.14511 13.63808,7.3818 11.28197,8.75096 -0.4125,0.23971 -6.19876,-2.14857 -12.85835,-5.30728 z m 4.75499,-29.01801 c -2.94435,-0.43958 -5.84685,-1.29272 -6.45,-1.89587 -2.24847,-2.24847 0.85338,-2.8548 8.80336,-1.72083 5.91425,0.8436 8,1.52998 8,2.63265 0,1.79392 -3.01148,2.08015 -10.35336,0.98405 z M 24,108 c -1.1,-1.1 -2,-2.675 -2,-3.5 C 22,102.93901 25.421565,99 26.777494,99 29.08147,99 32,102.36505 32,105.02152 32,109.73785 27.436778,111.43678 24,108 Z m 15.222506,-2.5567 c -3.008199,-2.10703 -2.8748,-5.969794 0.277494,-8.035257 2.315871,-1.517417 2.684129,-1.517417 5,0 2.874473,1.883427 3.309358,5.639737 0.928571,8.020527 -1.977232,1.97723 -3.399375,1.98061 -6.206065,0.0147 z m 15,-3 c -3.008199,-2.10703 -2.8748,-5.969794 0.277494,-8.035257 2.315871,-1.517417 2.684129,-1.517417 5,0 2.972279,1.947512 3.279221,5.576797 0.671259,7.936967 -2.265904,2.05062 -3.140772,2.06507 -5.948753,0.0983 z M 372,37.010466 c 0,-1.635348 -0.52174,-2.062832 -2.22535,-1.823324 -2.98839,0.420132 -3.64978,-2.725029 -0.73341,-3.487674 1.62855,-0.425877 1.9815,-1.052468 1.48103,-2.629295 C 370.01108,27.459542 370.29826,27 371.81598,27 c 1.08801,0 2.17458,0.855906 2.45685,1.935288 0.36552,1.397759 1.09229,1.781992 2.61663,1.383368 C 378.54593,29.885478 379,30.222113 379,31.883369 379,33.32915 378.36985,34 377.01179,34 c -1.45614,0 -1.92446,0.591159 -1.75,2.209012 0.15348,1.423285 -0.38425,2.338595 -1.51179,2.573324 -1.23422,0.256937 -1.75,-0.265292 -1.75,-1.77187 z m 18.57312,-3.680516 c -0.35329,-0.920649 -0.0648,-2.035603 0.64301,-2.484688 C 393.57193,29.350465 395,29.974977 395,32.5 c 0,2.926935 -3.37909,3.560445 -4.42688,0.82995 z m 8.09355,0.0034 C 398.3,32.966667 398,31.841667 398,30.833333 398,29.544444 398.74242,29 400.5,29 c 2.87644,0 3.58107,3.371175 0.91821,4.393011 -1.95858,0.751579 -1.93988,0.751985 -2.75154,-0.05968 z M 389,25.567388 C 389,23.653445 389.51702,23 391.03138,23 c 1.11727,0 2.29786,0.694408 2.62354,1.543128 0.69671,1.81558 0.55084,1.991477 -2.40492,2.900032 -1.92867,0.592844 -2.25,0.32496 -2.25,-1.875772 z m 7.72539,-1.509483 C 396.12613,21.766331 396.7087,21 399.05004,21 c 1.66877,0 3.29487,3.321757 2.17453,4.442095 -1.27061,1.270609 -4.02667,0.422696 -4.49918,-1.38419 z M 262.73704,188 c 5.41642,-9.075 13.7869,-22.51699 18.60107,-29.87109 4.81417,-7.3541 8.57565,-13.54849 8.35883,-13.7653 -0.21681,-0.21681 -3.04982,-1.0768 -6.29557,-1.91109 -3.24575,-0.83429 -8.09658,-2.8697 -10.77962,-4.52313 -2.68303,-1.65342 -4.99357,-2.87644 -5.13453,-2.71781 -0.14095,0.15863 -2.38541,4.56342 -4.98769,9.78842 -5.03097,10.10148 -19.59282,35.93951 -25.27848,44.85323 -1.87802,2.94428 -3.03354,5.72474 -2.56782,6.1788 2.07976,2.02769 16.91786,9.77201 17.54127,9.15516 0.38198,-0.37795 5.12612,-8.11219 10.54254,-17.18719 z m 57.84156,-47.89633 c 6.60252,-2.99872 11.13403,-10.33515 8.41062,-13.61666 -1.82527,-2.19932 -8.18466,-1.81821 -14.21071,0.85164 C 309.74605,129.56829 298,139.20237 298,141.10034 c 0,0.49481 4.1625,0.88978 9.25,0.8777 6.83315,-0.0162 10.31566,-0.50596 13.3286,-1.87437 z M 268.36822,121.1844 c 2.03863,-7.2656 2.0759,-13.1857 0.11262,-17.88451 l -1.51917,-3.635872 -1.93276,2.074572 c -1.06301,1.14101 -3.52939,2.60151 -5.48083,3.24554 -2.20431,0.72749 -3.53909,1.80439 -3.52434,2.84342 0.0602,4.24114 7.78,19.17245 9.91258,19.17245 0.44007,0 1.53443,-2.61702 2.4319,-5.8156 z"
         id="path6" />
    </g>
  </g>
</svg>
