<?xml version="1.0" encoding="UTF-8" standalone="no"?>
<!-- Created with Inkscape (http://www.inkscape.org/) -->

<svg
   version="1.1"
   id="svg1"
   width="495"
   height="450"
   viewBox="0 0 495 450"
   sodipodi:docname="BUSINESS_01.svg"
   inkscape:version="1.3.2 (091e20e, 2023-11-25, custom)"
   xmlns:inkscape="http://www.inkscape.org/namespaces/inkscape"
   xmlns:sodipodi="http://sodipodi.sourceforge.net/DTD/sodipodi-0.dtd"
   xmlns="http://www.w3.org/2000/svg"
   xmlns:svg="http://www.w3.org/2000/svg">
  <defs
     id="defs1" />
  <sodipodi:namedview
     id="namedview1"
     pagecolor="#ffffff"
     bordercolor="#000000"
     borderopacity="0.25"
     inkscape:showpageshadow="2"
     inkscape:pageopacity="0.0"
     inkscape:pagecheckerboard="0"
     inkscape:deskcolor="#d1d1d1"
     showgrid="false"
     inkscape:zoom="1.6222222"
     inkscape:cx="247.5"
     inkscape:cy="224.69178"
     inkscape:window-width="1920"
     inkscape:window-height="1001"
     inkscape:window-x="-9"
     inkscape:window-y="-9"
     inkscape:window-maximized="1"
     inkscape:current-layer="g1" />
  <g
     inkscape:groupmode="layer"
     inkscape:label="Image"
     id="g1">
    <g
       id="g5"
       transform="translate(0.01015363,-0.02380175)">
      <path
         style="fill:#fefefe"
         d="M 0,225 V 0 H 247.5 495 V 225 450 H 247.5 0 Z"
         id="path8" />
      <path
         style="fill:#ccc9c7"
         d="M 28,448.25226 C 18.63612,443.6982 8.593837,427.79605 4.1592764,410.5 -3.2814715,381.47896 -0.58788618,344.98238 10.650062,322.55348 19.313988,305.26185 31.343955,297.32524 42.731284,301.38832 l 4.231283,1.50976 16.768717,-7.75209 c 9.222794,-4.26365 17.497297,-8.17822 18.387784,-8.69904 C 83.009556,285.92613 94.669454,272.45 108.02995,256.5 c 13.3605,-15.95 28.15396,-33.6125 32.87436,-39.25 L 149.48685,207 h 16.25657 C 177.19764,207 182,206.66492 182,205.8657 c 0,-0.62386 2.04054,-5.44191 4.53452,-10.70677 9.97873,-21.0653 26.53468,-41.30115 45.44501,-55.54611 10.23046,-7.70649 26.93853,-16.74873 38.74845,-20.97025 4.4249,-1.58171 9.39115,-4.34561 12.80586,-7.12693 11.1178,-9.05557 25.26617,-14.284629 35.42095,-13.091134 3.04008,0.357301 7.9349,1.751824 10.8774,3.098944 6.25423,2.86328 16.66039,10.89754 21.62094,16.69283 6.40661,7.48468 8.73462,19.49079 6.14982,31.71615 -0.86428,4.08783 -1.46602,7.53611 -1.33719,7.66284 0.12883,0.12672 5.35735,-3.41088 11.61893,-7.86133 15.25636,-10.84355 15.95963,-10.90636 37.86319,-3.38162 8.90632,3.05967 17.30027,6.28835 18.65323,7.17484 7.55525,4.95039 9.26524,16.54211 3.51808,23.84844 -1.14071,1.45018 -12.16418,9.85609 -24.49661,18.67979 C 388.8092,206.51109 381,212.7095 381,213.8529 c 0,0.96493 -1.18215,4.12667 -2.62699,7.0261 -2.42023,4.85677 -3.85315,6.09011 -18.20571,15.67003 l -15.57872,10.39835 -11.66121,27.77631 -11.66121,27.77631 -7.38308,0.25303 c -12.71813,0.43587 -12.25318,-0.0699 -8.37959,9.11479 l 3.32143,7.87542 -17.90996,9.37838 c -9.85049,5.15811 -17.91109,9.69538 -17.91247,10.08282 -0.001,0.38745 3.34904,2.29489 7.44536,4.23876 25.06613,11.89491 54.48351,11.85167 80.67017,-0.11857 C 367.6651,340.33188 369,339.3282 369,337.39836 c 0,-2.24291 -0.32009,-2.33326 -9.25,-2.61083 -8.73014,-0.27137 -9.26796,-0.41398 -9.56955,-2.53753 -0.31221,-2.19832 -0.1006,-2.25 9.21247,-2.25 h 9.53203 l 0.28752,-9.25 c 0.27137,-8.73014 0.41398,-9.26796 2.53753,-9.56955 2.19885,-0.31229 2.25,-0.10199 2.25,9.25 V 330 h 4.02665 c 4.95963,0 8.55633,-3.02418 17.24505,-14.5 9.02905,-11.92533 14.28376,-23.72767 18.14294,-40.75 L 414.0381,272 h -13.01905 c -7.16048,0 -13.01486,-0.3375 -13.00974,-0.75 0.008,-0.63277 48.49554,-62.10967 50.94629,-64.59414 0.45798,-0.46428 13.21572,13.93572 28.35054,32 l 27.51785,32.84414 -13.16199,0.27713 -13.162,0.27712 -1.79936,11.06623 c -3.36724,20.70878 -11.09669,39.83531 -23.81356,58.92672 -7.55824,11.34692 -26.03209,30.17436 -36.88708,37.59309 -29.36436,20.06876 -64.96704,29.66864 -98,26.42465 -30.96816,-3.04122 -58.41544,-14.258 -81.35404,-33.24667 l -5.85404,-4.846 -5.64596,3.19649 c -3.10528,1.75806 -11.69479,6.78234 -19.0878,11.16506 l -13.44183,7.96858 -17.05817,-2.64563 C 156.17617,386.20168 138.6,383.43765 126.5,381.51449 c -12.1,-1.92316 -22.9,-3.49946 -24,-3.50289 -2.704493,-0.008 -29.539672,18.87543 -30.474839,21.44508 -0.408989,1.12383 -1.70832,6.06326 -2.887401,10.97651 C 65.166334,426.9822 56.7214,441.04982 47.092534,447.15627 41.744794,450.54771 33.672592,451.01108 28,448.25226 Z M 193.05638,318.75 c 10.94844,-7.8375 19.91467,-14.84083 19.92494,-15.56295 0.0451,-3.16749 5.93304,-13.10464 10.47995,-17.68705 l 4.96127,-5 1.9738,4.75 c 1.08559,2.6125 2.22802,4.74072 2.53873,4.72937 1.75058,-0.0639 38.29621,-27.23241 41.86347,-31.12183 2.77622,-3.02694 5.03106,-4.60467 6.47969,-4.53389 1.42149,0.0695 17.89049,-11.07135 45.72177,-30.92947 23.925,-17.07091 53.94317,-38.47369 66.70705,-47.56172 l 23.20705,-16.5237 -17.47106,-6.53562 -17.47106,-6.53562 -15.73599,11.28985 c -12.4924,8.96273 -16.34162,12.28779 -18.67414,16.13124 -1.61599,2.66277 -6.22672,8.07507 -10.24607,12.02734 -8.37654,8.23674 -18.9356,14.11905 -29.27411,16.30822 -5.85842,1.24051 -8.5522,2.85411 -29,17.37126 -12.39792,8.80205 -25.81133,18.28317 -29.80757,21.06915 -7.20967,5.02622 -7.26124,5.09438 -6.66348,8.80728 0.5509,3.4218 0.35981,3.83719 -2.2341,4.85645 -1.56009,0.61303 -5.32471,1.4224 -8.36583,1.79859 -5.06502,0.62655 -7.12226,1.82035 -24.5,14.21707 -10.43388,7.4432 -26.84569,19.09389 -36.47069,25.89041 -9.625,6.79653 -17.65375,12.46719 -17.84166,12.60147 -0.18792,0.13428 0.0371,0.89907 0.5,1.69954 0.99211,1.71555 18.69149,22.6596 19.16672,22.68039 0.17878,0.008 9.28287,-6.39828 20.23132,-14.23578 z m 75.10311,-98.4621 25.08415,-17.74596 -3.26401,-1.33186 c -1.79521,-0.73252 -5.60549,-3.21696 -8.4673,-5.52097 -2.8618,-2.30401 -7.37478,-5.76411 -10.02883,-7.68911 -2.65406,-1.925 -5.37973,-3.92003 -6.05705,-4.43339 -2.84159,-2.15376 -21.64442,18.09967 -27.54985,29.67527 l -2.05482,4.02778 2.25948,10.90678 c 1.70183,8.21492 2.59694,10.77729 3.62678,10.3821 0.75201,-0.28857 12.65516,-8.51036 26.45145,-18.27064 z M 362.5,102.11003 c -26.93365,-7.844365 -49.22343,-37.773845 -47.1633,-63.328266 0.69812,-8.659688 3.41059,-14.668853 8.78017,-19.451483 2.36519,-2.106654 7.3808,-6.632572 11.1458,-10.0575944 7.43986,-6.7680525 13.32106,-9.28179099 21.66883,-9.26168094 6.14574,0.0148053 12.13952,1.06505824 11.54726,2.02335564 -0.26483,0.4285167 0.33564,0.5654291 1.33439,0.3042499 2.44065,-0.6382451 16.00458,6.4852988 22.15727,11.6366228 10.07099,8.43191 18.91718,21.950548 22.55713,34.471526 2.37191,8.159105 1.68479,22.218183 -1.41199,28.890555 -2.38302,5.134475 -12.59063,15.813295 -19.99429,20.917272 -8.51175,5.867873 -19.12391,7.204023 -30.62127,3.855443 z M 286.28361,82.175279 c -0.6165,-0.381016 -1.27001,-2.263824 -1.45226,-4.184017 -0.31702,-3.340303 -0.51778,-3.504688 -4.64302,-3.801773 -3.41656,-0.246049 -4.24518,-0.661252 -3.99137,-2 0.22889,-1.207384 1.53059,-1.777235 4.56167,-1.996987 C 284.97792,69.886605 285,69.864482 285,65.942502 285,62.666667 285.33819,62 287,62 c 1.66667,0 2,0.666667 2,4 v 4 h 4 c 3.33333,0 4,0.333333 4,2 0,1.666667 -0.66667,2 -4,2 -3.99002,0 -4,0.0098 -4,3.940983 0,4.117635 -0.82482,5.403354 -2.71639,4.234296 z"
         id="path7" />
      <path
         style="fill:#facb41"
         d="M 30,448.69783 C 24.249354,446.89378 15.830303,437.59731 11.103732,427.83223 -3.107264,398.47236 -3.1676323,352.72398 10.965698,323.2274 c 7.335164,-15.30866 17.205089,-23.04197 28.075114,-21.9975 8.319014,0.79935 7.815392,2.00661 -2.786012,6.6785 -13.179627,5.80807 -13.821866,6.29013 -17.135888,12.86195 -13.7771948,27.32068 -8.895795,54.18056 14.012132,77.1017 C 39.247654,403.99219 49.32642,412 50.912724,412 c 0.58555,0 4.78223,-2.62219 9.325956,-5.82708 11.850607,-8.35877 11.096877,-8.13468 10.257307,-3.04948 -2.296941,13.91239 -9.787351,30.69187 -17.114684,38.3391 C 46.038991,449.1254 38.650742,451.41168 30,448.69783 Z m 272.5,-43.37347 c -14.78806,-1.8533 -34.89604,-8.00922 -48.56087,-14.8666 -7.70745,-3.8678 -22.62343,-13.72639 -28.73909,-18.99485 l -4.29997,-3.70429 8.25846,-4.91198 c 4.54215,-2.70158 11.97155,-6.93598 16.50977,-9.40977 4.53823,-2.47379 8.48921,-4.88271 8.77997,-5.35317 0.29076,-0.47045 -2.87555,-9.11924 -7.03623,-19.21953 -4.16068,-10.1003 -7.73383,-19.48917 -7.94033,-20.86417 -0.2065,-1.375 -1.71392,-5.63418 -3.34982,-9.46484 -1.6359,-3.83066 -2.78453,-7.272 -2.55251,-7.64742 C 234.07405,290.07117 267.69018,266 268.32587,266 c 0.24291,0 -0.71445,2.8125 -2.12747,6.25 -1.98845,4.83739 -2.61973,8.24846 -2.79306,15.09206 l -0.22396,8.84206 -9.34069,6.75924 c -7.18718,5.2009 -9.28742,7.2453 -9.10965,8.86747 0.2153,1.96466 12.7161,32.96964 13.68259,33.93614 0.24124,0.24123 2.97457,-0.95315 6.07408,-2.65418 3.09951,-1.70104 6.22047,-3.09279 6.93546,-3.09279 0.71499,0 5.1227,1.79139 9.79491,3.98086 25.71661,12.05121 56.76163,11.55921 81.78192,-1.29608 5.2593,-2.7022 6.5604,-3.84979 6.81642,-6.01222 L 370.13284,334 h -9.56642 C 352.7296,334 351,333.7288 351,332.5 c 0,-1.22807 1.72222,-1.5 9.5,-1.5 h 9.5 v -9.5 c 0,-7.66944 0.28181,-9.5 1.46247,-9.5 1.15718,0 1.5225,1.931 1.75,9.25 l 0.28753,9.25 4.11602,0.30095 c 3.98484,0.29136 4.35137,0.0474 11.5,-7.65392 4.06119,-4.37518 9.57985,-11.59249 12.26369,-16.03847 4.66283,-7.72435 10.74,-23.38301 12.17034,-31.35856 L 414.22258,272 H 401.11129 C 393.90008,272 388,271.78279 388,271.51731 c 0,-0.37668 48.15346,-61.59638 50.9525,-64.77826 C 439.54085,206.07024 494,270.10736 494,271.46799 494,271.7606 488.20177,272 481.11504,272 h -12.88496 l -1.14878,7.85654 c -4.62145,31.60629 -19.4233,60.68082 -42.58292,83.64346 -21.18468,21.0045 -49.37069,35.59498 -78.34775,40.55667 -10.5694,1.80978 -33.91516,2.48778 -43.65063,1.26769 z M 375.5,335 c 0.33992,-0.55 -0.0835,-1 -0.94098,-1 -0.85746,0 -1.55902,0.45 -1.55902,1 0,0.55 0.42344,1 0.94098,1 0.51754,0 1.2191,-0.45 1.55902,-1 z m -203.16025,13.5651 c -2.28814,-0.7156 -5.54621,-2.28799 -7.24015,-3.49418 -3.20727,-2.28377 -19.55507,-20.93732 -20.29519,-23.15768 -0.26755,-0.80265 -3.85516,1.38143 -9.74016,5.92966 -12.19679,9.4263 -21.7836,14.84403 -23.38732,13.21671 -1.36167,-1.38171 -0.93703,-1.73748 8.40247,-7.03965 6.80891,-3.86551 21.83025,-15.68277 22.90582,-18.01996 3.54895,-7.71177 5.18549,-9.89119 10.51478,-14.00279 6.90069,-5.32394 14.42467,-16.41593 19.52335,-28.78167 3.65527,-8.86507 4.03565,-9.41514 5.76966,-8.34347 0.98022,0.60581 0.46247,2.69016 -2.23188,8.9851 -1.92949,4.50797 -4.68784,10.20927 -6.12967,12.66957 -1.44183,2.46029 -2.37133,4.47326 -2.06557,4.47326 0.30577,0 9.00916,-5.9625 19.34088,-13.25 l 18.78495,-13.25 -14.24586,-0.27746 c -10.42167,-0.20297 -14.24051,-0.60564 -14.22593,-1.5 0.0238,-1.46006 10.60314,-15.92022 12.38032,-16.92177 1.14171,-0.64343 15.13006,-3.79808 16.84975,-3.79995 0.4125,-4.5e-4 0.75,0.63819 0.75,1.41919 0,2.06427 11.03431,11.57726 13.44962,11.5953 1.12771,0.008 2.57951,0.35186 3.22623,0.76319 0.72593,0.46172 -12.93109,10.69108 -35.69297,26.73469 C 168.70504,296.80593 152.09104,308.725 152.06289,309 c -0.0994,0.97047 19.99769,24 20.94395,24 0.52775,0 8.05461,-5.07654 16.72635,-11.2812 8.67175,-6.20465 17.11681,-12.22852 18.76681,-13.38636 l 3,-2.10517 0.18559,13.38705 0.18558,13.38704 -9.94427,7.0998 c -13.37695,9.55059 -20.02849,11.45338 -29.58715,8.46394 z M 294.25,288.2266 c -3.4375,-8.66526 -6.25,-16.26918 -6.25,-16.89759 0,-0.62842 -1.38353,-4.22202 -3.07451,-7.98579 L 281.85098,256.5 285.06636,254 c 1.76846,-1.375 31.98041,-22.975 67.13766,-48 35.15725,-25.025 63.98673,-45.95 64.06553,-46.5 0.12374,-0.86379 -31.03667,-13.25473 -33.76955,-13.42846 -0.55,-0.035 -7.82191,4.77214 -16.15981,10.68245 -12.81844,9.08634 -15.7997,11.70441 -19.30295,16.9514 -9.01138,13.49678 -24.71821,24.75998 -38.37103,27.51544 -6.49654,1.31116 -8.28204,2.4057 -36.17952,22.17864 -16.14015,11.43967 -29.71495,20.86716 -30.16621,20.94997 -0.45126,0.0828 -0.95772,-0.81192 -1.12547,-1.98829 -0.25317,-1.77548 4.21625,-5.34318 26.30764,-21 L 294.11528,202.5 l -3.30764,-1.34646 c -2.7218,-1.10798 -8.43282,-5.12242 -13.24019,-9.30692 -0.5129,-0.44644 0.60913,-0.36957 2.4934,0.17083 9.32477,2.67431 22.83644,-0.0914 34.33878,-7.02891 6.93753,-4.18428 18.84734,-16.47486 23.36203,-24.10894 10.2507,-17.33334 11.56243,-38.1895 3.14534,-50.01021 C 339.78325,109.29123 339.09609,108 339.37999,108 c 0.2839,0 3.19844,2.2322 6.47676,4.96045 7.99739,6.65549 11.32774,13.51688 11.9109,24.53955 0.26896,5.08392 -0.13008,10.36718 -1.09473,14.49414 -0.83489,3.57177 -1.40957,6.60255 -1.27707,6.73505 0.13251,0.1325 5.61015,-3.55809 12.17253,-8.20132 16.08612,-11.38175 15.80636,-11.35177 37.18464,-3.98497 9.21084,3.17399 18.14615,6.79988 19.85625,8.05755 6.35988,4.67726 8.0677,13.01196 4.14073,20.20808 -1.82525,3.34474 -7.15823,7.64853 -28.25,22.79813 -14.3,10.27127 -32.075,23.04139 -39.5,28.37805 l -13.5,9.70302 -8.63835,0.53851 c -6.96778,0.43436 -9.86893,1.14432 -15.00151,3.67108 -8.86926,4.36632 -12.39353,7.94587 -21.32138,21.65579 -4.27887,6.57079 -8.26525,12.25389 -8.85863,12.62912 -0.70801,0.44772 0.84489,5.43187 4.51775,14.5 5.20465,12.85003 5.64593,15.25844 2.80212,15.29327 -0.275,0.003 -3.3125,-7.08364 -6.75,-15.7489 z M 234.31268,211.25 233.42667,207.5 207.96334,207 c -29.72429,-0.58367 -27.53154,1.00088 -19.86678,-14.35636 16.18864,-32.4358 43.5486,-58.03983 75.90344,-71.03204 13.99486,-5.61969 13.95976,-5.61977 9.2723,0.0206 -4.76848,5.73785 -10.35853,16.03666 -12.14094,22.36781 -0.69678,2.475 -1.68639,5.88195 -2.19912,7.571 -2.2222,7.3204 -0.93445,17.23985 3.37615,26.00621 l 2.00485,4.07721 -9.46969,9.42279 c -5.41564,5.38882 -11.36916,12.5229 -13.90661,16.66423 -2.44032,3.98279 -4.72974,7.24529 -5.0876,7.25 -0.35786,0.005 -1.04936,-1.67894 -1.53666,-3.74144 z m 51.68085,-30.18434 C 274.8545,177.67732 269.04464,169.25732 269.04305,156.5 c -0.003,-23.29193 21.64116,-46.55441 43.24446,-46.47804 7.81204,0.0276 13.19773,2.39045 17.85774,7.83463 15.54541,18.16132 -1.32476,54.4571 -29.07675,62.55795 -5.75679,1.68041 -10.95334,1.90486 -15.07497,0.65112 z m 20.32521,-6.33017 c 12.01037,-5.54781 23.25042,-20.41026 25.74122,-34.037 3.01399,-16.48898 -7.83658,-29.34024 -23.04961,-27.29965 -16.02254,2.14918 -32.89039,19.42481 -36.084,36.95635 -1.63419,8.97101 0.71124,18.29662 5.74699,22.85048 6.11852,5.533 17.60313,6.16853 27.6454,1.52982 z m 54.56381,-73.59408 C 343.20615,95.3422 326.41772,78.844847 319.38252,60.360893 315.8679,51.12674 315.07297,38.700701 317.46948,30.456979 c 1.42989,-4.91863 2.68731,-6.821473 7.35654,-11.132558 3.09752,-2.859933 5.72114,-5.110593 5.83027,-5.001466 0.10912,0.109127 -0.65421,2.668604 -1.69629,5.687729 -7.84538,22.729544 9.00591,55.038096 35.48982,68.043725 13.25621,6.509816 24.14945,7.242251 36.05018,2.423927 3.57437,-1.44718 -6.86533,7.397755 -11.5,9.743264 -6.1636,3.11926 -20.03065,3.57289 -28.11745,0.91981 z M 375,81.618524 C 353.0127,76.677609 334.73595,51.80983 338.03677,31.325475 c 1.35346,-8.399407 5.33237,-14.016933 12.4764,-17.614526 10.98277,-5.5307015 27.81869,-0.983344 39.44202,10.653231 12.89889,12.913589 18.35372,28.18163 14.63664,40.967924 C 400.81041,78.339751 389.09711,84.786382 375,81.618524 Z m 15.54137,-4.498188 c 8.25167,-3.748213 12.01003,-11.169759 11.22348,-22.162767 -2.06924,-28.920311 -39.75913,-51.5343009 -55.67617,-33.405787 -8.43731,9.609567 -5.40126,28.915516 6.68363,42.500511 10.93515,12.292541 27.13595,17.897996 37.76906,13.068043 z M 285,78 v -4 h -4 c -2.88889,0 -4,-0.416667 -4,-1.5 0,-1.079687 1.10472,-1.5 3.9425,-1.5 3.91092,0 3.94497,-0.03342 4.25,-4.172279 0.42208,-5.727022 2.59718,-6.192143 2.99692,-0.64086 L 288.5,70.5 l 4.31314,0.310583 c 5.55128,0.39974 5.08616,2.574832 -0.64086,2.996915 C 288.03343,74.112532 288,74.14658 288,78.057498 288,80.895278 287.57969,82 286.5,82 285.41667,82 285,80.888889 285,78 Z"
         id="path6" />
      <path
         style="fill:#151516"
         d="M 30,448.69783 C 24.249354,446.89378 15.830303,437.59731 11.103732,427.83223 -3.107264,398.47236 -3.1676323,352.72398 10.965698,323.2274 c 7.335164,-15.30866 17.205089,-23.04197 28.075114,-21.9975 8.319014,0.79935 7.815392,2.00661 -2.786012,6.6785 -13.179627,5.80807 -13.821866,6.29013 -17.135888,12.86195 -13.7771948,27.32068 -8.895795,54.18056 14.012132,77.1017 C 39.247654,403.99219 49.32642,412 50.912724,412 c 0.58555,0 4.78223,-2.62219 9.325956,-5.82708 11.850607,-8.35877 11.096877,-8.13468 10.257307,-3.04948 -2.296941,13.91239 -9.787351,30.69187 -17.114684,38.3391 C 46.038991,449.1254 38.650742,451.41168 30,448.69783 Z M 370,343.5 V 334 h -9.5 c -7.77778,0 -9.5,-0.27193 -9.5,-1.5 0,-1.22807 1.72222,-1.5 9.5,-1.5 h 9.5 v -9.5 c 0,-7.66944 0.28181,-9.5 1.46247,-9.5 1.15718,0 1.5225,1.931 1.75,9.25 l 0.28753,9.25 9.75,0.28621 c 7.76245,0.22787 9.75,0.58461 9.75,1.75 C 393,333.72368 391.11227,334 383,334 h -10 v 9.5 c 0,7.77778 -0.27193,9.5 -1.5,9.5 -1.22807,0 -1.5,-1.72222 -1.5,-9.5 z m -197.66025,5.0651 c -2.28814,-0.7156 -5.54621,-2.28799 -7.24015,-3.49418 -3.20727,-2.28377 -19.55507,-20.93732 -20.29519,-23.15768 -0.26755,-0.80265 -3.85516,1.38143 -9.74016,5.92966 -12.19679,9.4263 -21.7836,14.84403 -23.38732,13.21671 -1.36167,-1.38171 -0.93703,-1.73748 8.40247,-7.03965 6.80891,-3.86551 21.83025,-15.68277 22.90582,-18.01996 3.54895,-7.71177 5.18549,-9.89119 10.51478,-14.00279 6.90069,-5.32394 14.42467,-16.41593 19.52335,-28.78167 3.65527,-8.86507 4.03565,-9.41514 5.76966,-8.34347 0.98022,0.60581 0.46247,2.69016 -2.23188,8.9851 -1.92949,4.50797 -4.68784,10.20927 -6.12967,12.66957 -1.44183,2.46029 -2.36029,4.47326 -2.04102,4.47326 0.31927,0 12.01923,-8.1 25.99991,-18 13.98069,-9.9 26.24973,-17.99311 27.26454,-17.98469 1.01481,0.008 2.37424,0.35186 3.02096,0.76319 0.72593,0.46172 -12.93109,10.69108 -35.69297,26.73469 C 168.70504,296.80593 152.09104,308.725 152.06289,309 c -0.0994,0.97047 19.99769,24 20.94395,24 0.52775,0 8.05461,-5.07654 16.72635,-11.2812 8.67175,-6.20465 17.11681,-12.22852 18.76681,-13.38636 l 3,-2.10517 0.18559,13.38705 0.18558,13.38704 -9.94427,7.0998 c -13.37695,9.55059 -20.02849,11.45338 -29.58715,8.46394 z m 75.08479,-19.74982 c -4.27865,-10.47403 -7.89903,-20.00481 -8.04529,-21.17949 -0.14625,-1.17468 -1.60822,-5.26997 -3.24882,-9.10063 -1.6406,-3.83066 -2.79307,-7.272 -2.56105,-7.64742 C 234.07405,290.07117 267.69018,266 268.32587,266 c 0.24291,0 -0.71445,2.8125 -2.12747,6.25 -1.98845,4.83739 -2.61973,8.24846 -2.79306,15.09206 l -0.22396,8.84206 -9.34069,6.75924 c -7.18718,5.2009 -9.28742,7.2453 -9.10965,8.86747 0.12707,1.15952 3.16457,9.18437 6.75,17.833 3.58543,8.64862 6.51896,16.04369 6.51896,16.43348 0,0.38979 -0.62912,0.95013 -1.39804,1.24519 -1.02624,0.3938 -3.46698,-4.52822 -9.17742,-18.50722 z M 294.25,288.2266 c -3.4375,-8.66526 -6.25,-16.26918 -6.25,-16.89759 0,-0.62842 -1.38353,-4.22202 -3.07451,-7.98579 L 281.85098,256.5 285.06636,254 c 1.76846,-1.375 31.98041,-22.975 67.13766,-48 35.15725,-25.025 63.98673,-45.95 64.06553,-46.5 0.12374,-0.86379 -31.03667,-13.25473 -33.76955,-13.42846 -0.55,-0.035 -7.82191,4.77214 -16.15981,10.68245 -12.81844,9.08634 -15.7997,11.70441 -19.30295,16.9514 -9.01138,13.49678 -24.71821,24.75998 -38.37103,27.51544 -6.49654,1.31116 -8.28204,2.4057 -36.17952,22.17864 -16.14015,11.43967 -29.71495,20.86716 -30.16621,20.94997 -0.45126,0.0828 -0.95772,-0.81192 -1.12547,-1.98829 -0.25317,-1.77548 4.21625,-5.34318 26.30764,-21 L 294.11528,202.5 l -3.30764,-1.34646 c -2.7218,-1.10798 -8.43282,-5.12242 -13.24019,-9.30692 -0.5129,-0.44644 0.60913,-0.36957 2.4934,0.17083 9.32477,2.67431 22.83644,-0.0914 34.33878,-7.02891 6.93753,-4.18428 18.84734,-16.47486 23.36203,-24.10894 10.2507,-17.33334 11.56243,-38.1895 3.14534,-50.01021 C 339.78325,109.29123 339.09609,108 339.37999,108 c 0.2839,0 3.19844,2.2322 6.47676,4.96045 7.99739,6.65549 11.32774,13.51688 11.9109,24.53955 0.26896,5.08392 -0.13008,10.36718 -1.09473,14.49414 -0.83489,3.57177 -1.40957,6.60255 -1.27707,6.73505 0.13251,0.1325 5.61015,-3.55809 12.17253,-8.20132 16.08612,-11.38175 15.80636,-11.35177 37.18464,-3.98497 9.21084,3.17399 18.14615,6.79988 19.85625,8.05755 6.35988,4.67726 8.0677,13.01196 4.14073,20.20808 -1.82525,3.34474 -7.15823,7.64853 -28.25,22.79813 -14.3,10.27127 -32.075,23.04139 -39.5,28.37805 l -13.5,9.70302 -8.63835,0.53851 c -6.96778,0.43436 -9.86893,1.14432 -15.00151,3.67108 -8.86926,4.36632 -12.39353,7.94587 -21.32138,21.65579 -4.27887,6.57079 -8.26525,12.25389 -8.85863,12.62912 -0.70801,0.44772 0.84489,5.43187 4.51775,14.5 5.20465,12.85003 5.64593,15.25844 2.80212,15.29327 -0.275,0.003 -3.3125,-7.08364 -6.75,-15.7489 z M 285.99353,181.06566 C 274.8545,177.67732 269.04464,169.25732 269.04305,156.5 c -0.003,-23.29193 21.64116,-46.55441 43.24446,-46.47804 7.81204,0.0276 13.19773,2.39045 17.85774,7.83463 15.54541,18.16132 -1.32476,54.4571 -29.07675,62.55795 -5.75679,1.68041 -10.95334,1.90486 -15.07497,0.65112 z m 20.32521,-6.33017 c 12.01037,-5.54781 23.25042,-20.41026 25.74122,-34.037 3.01399,-16.48898 -7.83658,-29.34024 -23.04961,-27.29965 -16.02254,2.14918 -32.89039,19.42481 -36.084,36.95635 -1.63419,8.97101 0.71124,18.29662 5.74699,22.85048 6.11852,5.533 17.60313,6.16853 27.6454,1.52982 z m 54.56381,-73.59408 C 343.20615,95.3422 326.41772,78.844847 319.38252,60.360893 315.8679,51.12674 315.07297,38.700701 317.46948,30.456979 c 1.42989,-4.91863 2.68731,-6.821473 7.35654,-11.132558 3.09752,-2.859933 5.72114,-5.110593 5.83027,-5.001466 0.10912,0.109127 -0.65421,2.668604 -1.69629,5.687729 -7.84538,22.729544 9.00591,55.038096 35.48982,68.043725 13.25621,6.509816 24.14945,7.242251 36.05018,2.423927 3.57437,-1.44718 -6.86533,7.397755 -11.5,9.743264 -6.1636,3.11926 -20.03065,3.57289 -28.11745,0.91981 z M 375,81.618524 C 353.0127,76.677609 334.73595,51.80983 338.03677,31.325475 c 1.35346,-8.399407 5.33237,-14.016933 12.4764,-17.614526 10.98277,-5.5307015 27.81869,-0.983344 39.44202,10.653231 12.89889,12.913589 18.35372,28.18163 14.63664,40.967924 C 400.81041,78.339751 389.09711,84.786382 375,81.618524 Z m 15.54137,-4.498188 c 8.25167,-3.748213 12.01003,-11.169759 11.22348,-22.162767 -2.06924,-28.920311 -39.75913,-51.5343009 -55.67617,-33.405787 -8.43731,9.609567 -5.40126,28.915516 6.68363,42.500511 10.93515,12.292541 27.13595,17.897996 37.76906,13.068043 z M 285,78 v -4 h -4 c -2.88889,0 -4,-0.416667 -4,-1.5 0,-1.079687 1.10472,-1.5 3.9425,-1.5 3.91092,0 3.94497,-0.03342 4.25,-4.172279 0.42208,-5.727022 2.59718,-6.192143 2.99692,-0.64086 L 288.5,70.5 l 4.31314,0.310583 c 5.55128,0.39974 5.08616,2.574832 -0.64086,2.996915 C 288.03343,74.112532 288,74.14658 288,78.057498 288,80.895278 287.57969,82 286.5,82 285.41667,82 285,80.888889 285,78 Z"
         id="path5" />
    </g>
  </g>
</svg>
