<?xml version="1.0" encoding="UTF-8" standalone="no"?>
<!-- Created with Inkscape (http://www.inkscape.org/) -->

<svg
   version="1.1"
   id="svg1"
   width="464"
   height="450"
   viewBox="0 0 464 450"
   sodipodi:docname="BUSINESS_29.svg"
   inkscape:version="1.3.2 (091e20e, 2023-11-25, custom)"
   xmlns:inkscape="http://www.inkscape.org/namespaces/inkscape"
   xmlns:sodipodi="http://sodipodi.sourceforge.net/DTD/sodipodi-0.dtd"
   xmlns="http://www.w3.org/2000/svg"
   xmlns:svg="http://www.w3.org/2000/svg">
  <defs
     id="defs1" />
  <sodipodi:namedview
     id="namedview1"
     pagecolor="#ffffff"
     bordercolor="#000000"
     borderopacity="0.25"
     inkscape:showpageshadow="2"
     inkscape:pageopacity="0.0"
     inkscape:pagecheckerboard="0"
     inkscape:deskcolor="#d1d1d1"
     inkscape:zoom="1.7306034"
     inkscape:cx="232"
     inkscape:cy="225.066"
     inkscape:window-width="1920"
     inkscape:window-height="1001"
     inkscape:window-x="-9"
     inkscape:window-y="-9"
     inkscape:window-maximized="1"
     inkscape:current-layer="g1" />
  <g
     inkscape:groupmode="layer"
     inkscape:label="Image"
     id="g1">
    <g
       id="g2">
      <path
         style="fill:#fdfefd"
         d="m 0.06581111,413.25 c 0.05999904,-33.50444 0.19033192,-36.28763 1.47578129,-31.51455 1.9679298,7.30725 5.7695736,14.54896 12.0591306,22.97133 7.373764,9.87422 13.652216,15.65291 21.470125,19.76111 C 44.559666,429.45412 51.567962,431 64.684419,431 H 75.94864 l 1.460942,2.82515 c 2.978095,5.759 11.577702,12.08381 20.090418,14.77603 3.34446,1.05771 -4.317112,1.27599 -46.75,1.33192 L 0,450 Z M 232.61732,449.05107 c 6.21856,-1.48456 12.41885,-5.31023 17.34894,-10.70453 C 252.73482,435.3173 255,432.42509 255,431.91941 255,431.40797 260.69344,431 267.83102,431 c 12.802,0 12.83417,0.006 14.22565,2.60589 2.80422,5.23972 11.75338,12.26015 18.25492,14.32058 l 6.18841,1.9612 -38.5,-0.0462 c -21.175,-0.0254 -37.09721,-0.38108 -35.38268,-0.7904 z M 438.5,448.60118 c 12.11624,-3.83187 20.3317,-11.99197 24.04925,-23.88722 1.2249,-3.91939 1.32163,-3.1829 1.38385,10.53604 L 464,450 449.25,449.9331 c -13.38956,-0.0607 -14.38107,-0.18357 -10.75,-1.33192 z M 50.410929,425.51613 C 37.481736,422.70298 26.434337,414.87604 16.909843,401.78105 2.6512581,382.17727 0.41242862,363.28549 10.08038,344.15238 13.0621,338.25149 17.649549,332.38014 30.123309,318.5 130.9609,206.29328 133.27651,203.77767 139.32114,199.87084 c 6.17344,-3.99009 15.47195,-7.25628 23.67886,-8.31743 2.475,-0.32001 9.9,0.0777 16.5,0.88376 l 12,1.46561 29.5,30.07283 c 18.26783,18.62255 29.91885,29.77804 30.60006,29.29861 0.60503,-0.42582 3.33179,-7.49202 6.05947,-15.70265 l 4.95943,-14.92844 10.43235,12.67844 C 279.20181,242.79626 284.20529,248 285.24183,248 c 0.967,0 1.75934,-0.1125 1.76077,-0.25 0.0129,-1.24316 9.99447,-39.08041 10.42241,-39.50834 0.54791,-0.54792 37.95959,3.8457 50.07499,5.88079 3.3,0.55432 9.05038,2.40109 12.77863,4.10394 l 6.77862,3.09608 -2.70928,1.77726 c -2.07448,1.36084 -3.16974,1.53084 -4.67444,0.72555 -5.68211,-3.04098 -22.34554,3.37437 -32.2659,12.42223 -6.48908,5.91835 -12.63696,14.8142 -15.17329,21.9554 -1.55804,4.38676 -1.97987,4.79709 -4.93155,4.79709 -9.48205,0 -22.28858,9.1279 -27.35868,19.5 l -2.44411,5 -0.27088,66.97073 c -0.16735,41.37538 0.0994,68.03293 0.69798,69.75 L 278.89596,427 H 268 257.10404 l 0.97549,-2.79831 c 0.60743,-1.74245 0.87079,-28.06044 0.69798,-69.75 -0.27547,-66.46013 -0.29357,-66.98645 -2.46445,-71.68625 -2.64511,-5.72647 -10.34549,-13.62633 -15.81306,-16.2227 -8.20638,-3.89696 -11.82955,-4.05944 -79,-3.54274 -64.708006,0.49775 -65.020215,0.51001 -69.5,2.72745 -11.570185,5.7271 -20,18.55071 -20,30.4244 0,4.25488 -0.358572,4.96409 -3.946623,7.80587 -7.689592,6.09027 -16.969284,20.46749 -20.358783,31.54228 -0.841652,2.75 -2.453881,6.86309 -3.58273,9.14021 -2.814006,5.67642 -4.058493,11.63198 -4.087418,19.56057 -0.03512,9.62622 1.551562,16.06415 6.503447,26.3876 5.056558,10.54167 16.248922,23.5228 21.885256,25.38296 2.650165,0.87463 3.448065,1.76271 3.876825,4.31498 0.29693,1.76752 0.851303,4.00118 1.231938,4.96368 0.628942,1.59038 -0.11578,1.74275 -8.164923,1.6705 -4.871344,-0.0437 -11.597071,-0.67569 -14.94606,-1.40437 z m 12.10775,-19.84139 C 50.583112,393.1312 44.49463,378.94751 44.6294,364 44.733901,352.40965 47.335556,345.85247 55.139806,337.5097 64.803988,327.17866 74.932437,321.89892 87.901743,320.43161 97.603835,319.33394 103,322.1258 103,328.24313 c 0,5.2623 -1.90369,6.17656 -13.143939,6.31254 -11.13043,0.13465 -18.644032,2.19983 -28.042645,7.70779 C 56.526502,345.3618 47,354.08794 47,355.83235 c 0,3.20896 3.321231,2.08645 8.802659,-2.97515 6.903568,-6.37481 13.710125,-10.23478 21.732303,-12.32429 5.982053,-1.55813 15.980219,-2.03992 18.920236,-0.91173 2.392996,0.91828 4.682252,5.98298 3.976082,8.79659 -1.003914,3.99992 -3.465374,5.28082 -11.349175,5.90589 -5.795306,0.45948 -9.185772,1.43982 -15.5,4.48178 C 65.471295,362.71293 55,371.0125 55,373.53365 c 0,3.03413 2.324659,2.35844 7.272182,-2.11377 6.154942,-5.56362 13.331303,-9.09558 21.608295,-10.63485 5.181005,-0.96351 6.320653,-0.88326 8.591955,0.60495 C 100.13261,366.40912 96.63819,376 87.149291,376 c -3.52823,0 -12.106546,4.26115 -15.193639,7.54721 -2.014361,2.14419 -2.195669,2.83882 -1.169751,4.48157 C 71.546864,389.24728 72,394.08344 72,400.98643 c 0,13.5206 -0.732487,13.88279 -9.481321,4.68831 z M 145,395.69113 c 0,-5.01122 -0.88891,-6.33311 -7.02289,-10.44373 -19.82505,-13.28555 -26.70525,-40.46258 -15.77906,-62.32782 3.64018,-7.28464 12.33167,-16.43141 19.30195,-20.31304 C 147.51181,299.25867 159.57169,296 165.94986,296 c 10.58536,0 24.47421,5.51371 32.28324,12.81607 10.80161,10.10077 15.7669,21.54615 15.7669,36.34396 0,10.29756 -1.58631,16.46228 -6.43746,25.01729 -2.87582,5.07152 -14.18688,16.25129 -17.50888,17.30565 C 188.32372,388.03203 188,388.96705 188,393.4146 v 5.27982 l -11.25,0.64824 c -6.1875,0.35654 -15.8625,0.65029 -21.5,0.65279 L 145,400 Z M 168.11298,373.65082 167.72596,353 h 4.63702 C 176.64247,353 177,352.80724 177,350.5 V 348 h -10.94098 c -6.01754,0 -11.194,0.40939 -11.50325,0.90976 -1.42425,2.30449 0.74784,4.09024 4.97514,4.09024 h 4.31693 l 0.11124,20.15238 c 0.0612,11.0838 0.3222,20.49372 0.58005,20.91093 0.25785,0.41721 1.25452,0.64151 2.21484,0.49845 1.6111,-0.24002 1.71612,-1.85592 1.35901,-20.91094 z M 195,342.53751 c 0,-4.53371 -4.04787,-13.34568 -8.00224,-17.42038 -4.91445,-5.064 -10.7162,-8.05958 -17.06615,-8.81164 C 165.37762,315.76614 165,315.88523 165,317.86071 c 0,1.17661 0.59332,2.13929 1.3185,2.13929 0.72517,0 3.69291,0.70512 6.59497,1.56694 9.1309,2.71159 15.23017,9.90535 17.53623,20.68306 0.78687,3.67758 4.5503,3.91537 4.5503,0.28751 z m 232.5,30.7955 c -4.4,-1.3751 -9.35,-2.87554 -11,-3.33429 -1.65,-0.45875 -7.5,-2.1879 -13,-3.84255 -5.5,-1.65465 -15.04315,-4.49598 -21.207,-6.31408 l -11.207,-3.30562 -0.51133,-5.01823 c -0.28123,-2.76003 -0.79179,-19.07773 -1.13458,-36.26156 l -0.62324,-31.24331 2.84157,0.44574 c 1.56287,0.24516 5.4988,0.70427 8.74651,1.02026 24.1152,2.34629 47.66208,21.09118 56.71843,45.15166 4.62694,12.29264 5.99928,27.59699 3.53021,39.36897 -1.39777,6.66431 -2.0033,6.81775 -13.15357,3.33301 z M 0.1004511,179.25 0,0 107.25,0.021962 C 211.84291,0.0433799 214.4009,0.08909863 210.5,1.8673407 202.62782,5.4559047 196.11079,13.081046 194.57509,20.5 c -0.34154,1.65 -1.47654,14.164742 -2.52221,27.810539 -1.87578,24.478419 -1.93728,24.84654 -4.59461,27.5 -3.86715,3.86152 -4.55778,6.357973 -5.17941,18.722422 -0.62782,12.487549 0.51679,16.306689 5.78554,19.304139 2.72543,1.55053 2.92338,2.07299 2.92928,7.7314 0.0104,9.9923 4.64544,22.53408 11.00446,29.7766 2.83912,3.23358 3.00186,3.88615 3.00186,12.03692 0,4.73989 -0.35741,8.61798 -0.79425,8.61798 -0.43684,0 -3.66411,3.87482 -7.1717,8.6107 l -6.37743,8.6107 -4.57831,-0.61133 c -11.74496,-1.56828 -23.26625,-1.83444 -29.26271,-0.67601 -8.59687,1.66079 -19.43564,7.02073 -25.85336,12.78489 C 124.44782,206.56996 14.714184,328.60935 9.7319908,335.5442 6.0995815,340.60025 2.5838933,348.44413 1.0511397,354.91212 0.57279846,356.93065 0.15696461,280.09555 0.1004511,179.25 Z M 57.116415,325.00951 c 4.184593,-7.70509 14.1885,-18.71329 20.947775,-23.0507 C 83.660462,298.36769 94.804672,294 98.371175,294 101.76012,294 105,297.98798 105,302.15946 c 0,4.52076 -2.06596,6.31394 -8.93765,7.75756 -2.990707,0.6283 -7.490707,2.4052 -10,3.94868 -2.509292,1.54348 -7.565011,3.80522 -11.23493,5.02608 -3.669919,1.22086 -9.917532,4.49859 -13.883585,7.28384 l -7.211005,5.0641 z M 462.58843,287.61966 c -0.95126,-5.07062 -7.6734,-14.69713 -12.8131,-18.3491 -3.42819,-2.43588 -4.70547,-4.08462 -5.19792,-6.70959 -0.35908,-1.91409 -2.51365,-7.19786 -4.78793,-11.74173 -7.50345,-14.99144 -22.40007,-27.09749 -38.43382,-31.23406 -6.2548,-1.61368 -21.65414,-2.00955 -26.35566,-0.67753 -1.86796,0.52923 -4.26971,-0.22705 -9.5,-2.9914 -3.85,-2.03484 -8.62363,-4.21225 -10.60807,-4.83869 -1.98443,-0.62644 -17.14773,-2.89257 -33.69622,-5.03584 l -30.08815,-3.89687 -6.55378,-5.25187 L 278,191.64111 V 176.2769 160.91268 l 5.5152,-5.38456 c 6.72253,-6.56328 12.62455,-18.16814 13.28394,-26.11955 0.40546,-4.88933 0.66421,-5.35143 3.32352,-5.93551 3.70348,-0.81342 8.44356,-5.55845 9.71198,-9.72212 1.44925,-4.75723 2.36128,-21.096322 1.33228,-23.867776 -0.55199,-1.48671 -0.14878,-12.106842 1.07189,-28.232911 1.88072,-24.845807 1.88781,-26.030352 0.18254,-30.5 -0.9758,-2.557639 -3.3823,-6.310594 -5.34777,-8.339899 -1.96547,-2.029306 -4.96884,-5.633692 -6.67416,-8.009749 -1.80846,-2.519762 -5.28203,-5.5073894 -8.33517,-7.1691217 C 286.51374,4.6105189 288.43439,4.864682 243,1.1387442 236.35461,0.59377541 274.99244,0.22670356 348.25,0.13883539 L 464,0 v 145.5 c 0,80.025 -0.17492,145.5 -0.38871,145.5 -0.21379,0 -0.67408,-1.52115 -1.02286,-3.38034 z m -99.07687,-14.78923 c -2.60379,-2.04814 -2.73023,-2.51753 -2.2591,-8.38675 0.94135,-11.7273 10.74679,-27.46894 21.23953,-34.09792 4.66686,-2.94837 6.05767,-6.34576 2.59781,-6.34576 -2.42382,0 -10.37094,6.25475 -16.01637,12.60561 -5.7603,6.48009 -10.9763,17.57714 -12.25578,26.07419 -0.56484,3.75111 -1.36399,7.4952 -1.7759,8.3202 -1.1971,2.39764 -5.58676,3.52834 -8.51619,2.1936 -4.11024,-1.87275 -5.11132,-5.29496 -3.63697,-12.43305 2.6218,-12.69353 11.40714,-25.02801 23.38204,-32.82803 18.08414,-11.77936 47.60495,-4.74155 63.12646,15.04945 4.62953,5.90298 8.88208,13.71571 10.00922,18.38883 0.63288,2.62391 0.49468,2.82118 -1.60694,2.29382 -1.26465,-0.31734 -8.93687,-0.64005 -17.04937,-0.71713 -8.1125,-0.0771 -14.75,-0.50948 -14.75,-0.96089 0,-0.4514 1.86539,-2.37022 4.1453,-4.26405 C 414.25169,254.31156 414.6572,252 411.14919,252 407.63354,252 398,264.08538 398,268.49579 398,270.94596 393.38837,275 390.60122,275 c -4.1205,0 -8.0223,-4.1284 -7.90232,-8.36123 0.2204,-7.77526 7.24672,-18.80795 16.71776,-26.25013 2.74249,-2.155 3.72621,-3.57394 3.28138,-4.73314 -0.87459,-2.27916 -1.51589,-2.10641 -6.93178,1.86721 -8.8455,6.4899 -18.03171,20.03148 -19.40201,28.60089 -1.27385,7.9662 -7.27233,11.09635 -12.85269,6.70683 z m -44.8767,-2.90301 c -3.66186,-2.88042 -3.50529,-7.86608 0.49863,-15.87864 5.67851,-11.3637 17.60301,-21.29147 30.6537,-25.5208 7.1857,-2.32867 9.41785,-1.41283 5.20218,2.13442 C 351.69435,233.43498 342,246.58771 342,248.28563 c 0,0.53458 -1.63284,2.77932 -3.62853,4.98831 -1.99569,2.20899 -4.9322,6.89155 -6.52559,10.40568 -2.02301,4.46168 -3.66323,6.68064 -5.43657,7.35486 -3.64748,1.38677 -4.81551,1.22044 -7.77445,-1.10706 z m -96.47625,-50.96543 -27.34138,-27.93034 4.78425,-6.51582 C 202.23282,180.93212 204.70284,178 205.09042,178 c 0.50859,0 51.00874,38.09639 53.76344,40.55815 0.32499,0.29043 -8.80738,28.51027 -9.18678,28.38801 -0.0919,-0.0296 -12.4707,-12.62249 -27.50847,-27.98417 z m 52.07824,10.72433 C 269.15658,223.40578 265,218.00919 265,217.6939 c 0,-0.44252 11.56366,-19.47748 12.39217,-20.39877 0.14306,-0.15908 13.09068,9.88382 14.40159,11.17069 0.34892,0.34252 -6.50376,28.22913 -7.57767,30.83693 -0.6039,1.46647 -2.46536,-0.32731 -9.97924,-9.61643 z M 235.12373,194.83689 210,175.67378 v -4.19732 c 0,-2.30852 -0.28355,-6.26604 -0.63011,-8.79447 l -0.63011,-4.59716 7.01372,2.94686 c 14.55695,6.11618 34.19658,7.75964 49.3602,4.1305 l 7.61371,-1.8222 0.69567,15.21038 0.69567,15.21037 -6.19209,10.11963 C 264.52102,209.44617 261.39997,214 260.99101,214 c -0.40896,0 -12.04924,-8.6234 -25.86728,-19.16311 z m 0.0453,-32.86228 c -8.08148,-1.17619 -18.91703,-4.95704 -24.06314,-8.39635 -5.289,-3.5348 -10.06091,-10.16937 -13.03867,-18.12815 -2.69918,-7.21419 -2.65122,-13.13519 0.42889,-52.95011 1.36155,-17.6 2.48192,-32.969948 2.48972,-34.155439 0.0136,-2.070537 0.32589,-2.134074 7.92791,-1.61302 l 7.91374,0.54242 2.52204,-4.977 c 2.79056,-5.506918 8.25163,-10.814537 13.29563,-12.922057 5.53539,-2.312831 7.02303,-1.851486 7.70098,2.388223 0.88574,5.539081 5.9629,12.842721 11.26525,16.205373 5.32624,3.377802 10.92329,4.644178 24.56842,5.558797 11.15374,0.747623 15.26233,2.468142 18.02927,7.549968 1.68411,3.093062 1.80445,5.011991 1.24942,19.922735 -0.3378,9.075 -1.23421,24.58562 -1.99202,34.46804 -1.31837,17.19254 -1.52812,18.27153 -4.85971,25 -4.09575,8.27177 -10.36705,15.03216 -16.49283,17.77911 -8.86208,3.97397 -24.44724,5.54639 -36.9449,3.72746 z m 12.05785,-19.7752 c 3.01926,-2.80049 5.4757,-8.89683 4.12792,-10.24461 -1.01476,-1.01476 -26.1424,-3.2041 -27.45607,-2.39221 -1.90125,1.17503 -0.70697,3.54439 4.44794,8.82437 7.66628,7.85227 13.29862,8.9896 18.88021,3.81245 z m -12.48876,-3.85912 c -4.78947,-3.40776 -4.7854,-4.77508 0.0119,-3.98214 2.0625,0.34091 5.4375,0.62479 7.5,0.63084 4.18966,0.0123 4.91181,1.64961 1.92126,4.35602 -2.57939,2.33432 -5.12067,2.06365 -9.43314,-1.00472 z M 242,117.43981 c 0,-0.74042 -2.03032,-2.24433 -4.51181,-3.34201 -2.4815,-1.09768 -4.77357,-2.6779 -5.09348,-3.51159 -0.31992,-0.83369 1.71188,-6.59415 4.51511,-12.801008 C 242.41639,85.592649 242.99647,83 240.21784,83 c -1.27335,0 -2.81448,2.355399 -5.39796,8.25 -1.9887,4.5375 -4.77699,10.82832 -6.19621,13.97959 l -2.5804,5.72959 2.72837,2.62186 C 234.12227,118.72281 242,121.02077 242,117.43981 Z M 263.70409,90.75 c 1.08325,-2.377596 0.22068,-6.060426 -1.69703,-7.245634 C 260.40912,82.516781 257,85.887471 257,88.454988 c 0,4.51934 4.92286,6.204583 6.70409,2.295012 z m -41.75428,-2.189528 c 1.60698,-1.936291 0.94682,-6.610496 -1.11599,-7.901621 C 218.53959,79.222871 216,81.462872 216,84.922445 c 0,4.462596 3.49295,6.598368 5.94981,3.638027 z M 275,62.094002 c 0,-1.37589 -1.30111,-2.349331 -4.67814,-3.5 C 262.09121,55.789538 252,56.858692 252,60.535184 c 0,1.15437 1.6425,1.479712 7.75,1.535101 4.2625,0.03866 8.65,0.457029 9.75,0.929715 3.43588,1.476447 5.5,1.136431 5.5,-0.905998 z m -62.66338,-2.213264 c 3.04219,-0.990548 4.78376,-0.995891 8.41082,-0.0258 3.18447,0.851715 4.8921,0.90552 5.62053,0.177096 2.64527,-2.645272 -6.61993,-6.498785 -12.8067,-5.326469 -4.34009,0.822392 -8.56127,3.1168 -8.56127,4.653448 0,1.751777 1.13274,2.786595 2.4375,2.226797 0.58437,-0.250722 2.78898,-1.018004 4.89912,-1.705072 z M 298.42766,109.75 c 0.352,-5.0875 0.892,-11.3875 1.2,-14 0.54556,-4.627372 0.64795,-4.75 3.96618,-4.75 H 307 l -0.073,6.25 c -0.12244,10.48196 -1.35015,16.50707 -3.92125,19.24388 -4.46487,4.75263 -5.28946,3.53794 -4.57809,-6.74388 z M 189.2113,108.99996 c -3.20233,-3.44223 -3.46349,-5.26653 -2.41364,-16.859949 0.77374,-8.544412 1.30357,-10.618865 3.23804,-12.678015 C 191.30781,78.107898 192.76458,77 193.27296,77 c 0.89457,0 0.28575,15.371743 -1.128,28.48006 L 191.5,111.46012 Z"
         id="path6" />
      <path
         style="fill:#9faec0"
         d="m 300.21924,447.91239 c -4.00092,-1.27645 -6.03202,-2.4063 -5.5955,-3.11261 0.40561,-0.65628 0.23063,-0.82781 -0.42873,-0.4203 -1.23454,0.76299 -8.11941,-5.06019 -11.3547,-9.60374 -1.14229,-1.60421 -2.23373,-4.79752 -2.42541,-7.09624 -0.19168,-2.29873 -0.64743,-5.7545 -1.01277,-7.6795 -0.36535,-1.925 -0.75566,-29.825 -0.86736,-62 -0.1117,-32.175 -0.43706,-60.75 -0.72303,-63.5 -0.28597,-2.75 -0.33071,-3.9875 -0.0994,-2.75 0.49013,2.62239 2.54251,3.10022 2.14764,0.5 -0.14616,-0.9625 0.0719,-3.1 0.48463,-4.75 0.41271,-1.65 0.97279,-3.9 1.24461,-5 0.37861,-1.53213 0.14186,-1.41516 -1.01205,0.5 -0.82845,1.375 -1.52223,1.9375 -1.54171,1.25 -0.0195,-0.6875 0.82706,-2.1125 1.88123,-3.16667 1.05416,-1.05416 1.72111,-2.11222 1.4821,-2.35122 -0.23901,-0.23901 1.26099,-2.21433 3.33334,-4.38961 2.07234,-2.17527 3.43039,-3.50222 3.01789,-2.94877 -1.3976,1.87516 -0.75952,2.62916 1.19304,1.40977 1.06867,-0.66739 2.21251,-2.28712 2.54187,-3.59939 0.40272,-1.60455 1.09338,-2.19618 2.1089,-1.80649 0.83054,0.31871 1.26428,0.18178 0.96387,-0.30429 -0.30041,-0.48607 0.16303,-1.15591 1.02985,-1.48855 2.4058,-0.92319 3.08436,-0.6945 1.41247,0.47604 -1.15305,0.80729 -0.94431,0.89261 0.90247,0.36891 1.32136,-0.37471 4.13386,-0.65739 6.25,-0.62819 2.11614,0.0292 3.84753,-0.36869 3.84753,-0.88422 0,-0.51553 0.45,-0.93732 1,-0.93732 0.55,0 1,1.05 1,2.33333 0,1.28334 0.3375,2.67084 0.75,3.08334 0.4125,0.4125 0.75,1.14313 0.75,1.62362 0,0.48049 0.9,1.59281 2,2.47183 1.95268,1.5604 1.94677,1.57242 -0.25,0.50786 -1.51545,-0.73439 -2.25,-0.7524 -2.25,-0.0552 0,1.1126 0.19666,1.19348 4,1.64506 6.13665,0.72861 10.86275,0.53394 12.84936,-0.52926 1.68201,-0.90018 2.15321,-0.87094 2.16244,0.1342 0.01,1.07727 3.06334,-4.73433 5.36691,-10.21482 0.34677,-0.825 0.46582,-0.2625 0.26456,1.25 -0.20126,1.5125 -0.0308,2.75 0.37877,2.75 0.40958,0 0.98678,0.92572 1.28265,2.05715 0.43565,1.66592 0.27405,1.83812 -0.84974,0.90546 -0.76324,-0.63343 -1.96534,-0.91967 -2.67133,-0.6361 -0.8069,0.32411 -0.63369,0.54492 0.46638,0.59454 0.9625,0.0434 1.75,0.4601 1.75,0.92594 0,0.46584 0.85633,1.83435 1.90296,3.04112 1.34661,1.55266 2.04096,1.81666 2.375,0.90301 0.37699,-1.03115 0.7489,-1.00989 1.84704,0.10558 0.83889,0.85214 0.89209,1.12431 0.13645,0.69807 -0.84622,-0.47735 -1.03971,-0.1805 -0.61083,0.93714 0.42826,1.11602 0.85194,1.27297 1.3334,0.49395 0.65616,-1.0617 1.66132,-0.98703 8.51598,0.63259 1.18174,0.27922 1.54528,0.13891 0.88858,-0.34294 -0.71562,-0.52509 0.13719,-1.41904 2.39473,-2.51024 1.92838,-0.9321 2.99102,-1.1796 2.36142,-0.55 -1.75262,1.75262 -1.36087,2.93077 0.62171,1.86973 1.20151,-0.64303 2.56069,-0.50571 4.25,0.42938 3.08714,1.70885 7.42719,1.81874 10.2993,0.26078 1.20134,-0.65167 3.30926,-1.21417 4.68426,-1.25 1.51095,-0.0394 2.39287,-0.58436 2.22921,-1.37753 -0.1829,-0.8864 0.51395,-0.72412 2.14697,0.5 1.32976,0.99681 2.27802,2.04396 2.10723,2.32702 -0.17079,0.28305 2.328,0.54107 5.55288,0.57336 3.22487,0.0323 5.70506,-0.1993 5.51152,-0.51465 -0.19353,-0.31535 1.15442,-1.69836 2.99546,-3.07336 1.84104,-1.375 3.54028,-3.175 3.7761,-4 0.23581,-0.825 0.28797,-0.0329 0.1159,1.76022 -0.27217,2.83632 -0.12577,3.07314 1.12594,1.82142 0.83032,-0.83031 1.43879,-3.36402 1.43879,-5.99116 0,-5.70333 0.5525,-5.88061 16.91131,-5.42629 6.65028,0.1847 12.0908,-0.002 12.09005,-0.41419 -7.5e-4,-0.4125 0.67364,-0.75 1.49864,-0.75 0.825,0 1.5,0.48214 1.5,1.07143 0,1.12442 2.44726,3.92857 3.42857,3.92857 0.31429,0 0.57143,-0.69083 0.57143,-1.53518 0,-1.15221 0.43657,-1.30154 1.75,-0.59862 0.9625,0.51512 2.05,0.86845 2.41667,0.78519 0.36666,-0.0833 1.00416,0.18611 1.41666,0.59861 0.4125,0.4125 0.1699,0.75 -0.53911,0.75 -1.03249,0 -1.0413,0.2986 -0.0442,1.5 0.68469,0.825 1.75229,1.49311 2.37244,1.48469 0.66509,-0.009 0.57108,-0.36792 -0.2292,-0.875 -0.8477,-0.53713 -0.97648,-1.09472 -0.34322,-1.48609 1.5317,-0.94665 10.49129,8.17487 9.79979,9.9769 -0.33415,0.87078 -0.15098,1.24014 0.4353,0.8778 0.55671,-0.34407 2.01406,1.54506 3.23855,4.19806 L 463.5,288.5 v 67.5 67.5 l -2.63517,5.62001 c -3.70625,7.90431 -8.99542,13.32655 -16.70015,17.12031 l -6.62009,3.25968 -65.52229,0.20811 c -63.1183,0.20047 -65.75274,0.13458 -71.80306,-1.79572 z M 364.25,430.33772 c -0.6875,-0.27741 -1.8125,-0.27741 -2.5,0 -0.6875,0.27741 -0.125,0.50439 1.25,0.50439 1.375,0 1.9375,-0.22698 1.25,-0.50439 z M 283,429.55902 c 0,-0.24254 -0.45,-0.7191 -1,-1.05902 -0.55,-0.33992 -1,-0.14148 -1,0.44098 0,0.58246 0.45,1.05902 1,1.05902 0.55,0 1,-0.19844 1,-0.44098 z m 103.14067,-2.57451 c 2.4746,-0.69204 4.55648,-0.6906 6.5,0.005 2.43685,0.87155 2.61135,0.82855 1.18102,-0.291 -1.51438,-1.18534 -1.37796,-1.42702 1.39654,-2.47428 1.69117,-0.63835 3.52844,-0.8803 4.08282,-0.53767 0.55438,0.34263 0.71916,0.15565 0.36617,-0.4155 -0.35324,-0.57154 0.81373,-1.6121 2.59549,-2.31433 1.78051,-0.70173 4.58729,-2.25952 6.23729,-3.46174 1.65,-1.20223 4.8,-3.01604 7,-4.03069 3.61967,-1.66941 13.37575,-10.88195 13.46391,-12.7138 0.0199,-0.4125 0.73765,-0.75 1.59511,-0.75 0.85746,0 1.30733,-0.40724 0.99971,-0.90497 C 430.90288,398.03384 434.98982,390 436.18552,390 436.63349,390 437,389.12656 437,388.05902 c 0,-1.06754 0.45,-2.2191 1,-2.55902 0.55,-0.33992 1,-1.94148 1,-3.55902 0,-1.61754 0.45,-2.94098 1,-2.94098 0.55,0 1,-0.9551 1,-2.12244 0,-1.85918 -0.21707,-1.95819 -1.75,-0.79823 -1.48877,1.12655 -1.56341,1.11497 -0.5,-0.0776 0.6875,-0.77097 1.25,-2.23833 1.25,-3.26079 0,-1.02246 0.402,-1.61057 0.89333,-1.30691 1.42938,0.88341 1.76259,-2.96019 1.64142,-18.93407 -0.11908,-15.6984 -0.80358,-19.99455 -3.04846,-19.13311 -0.82003,0.31467 -1.72733,-0.61958 -2.35764,-2.42768 C 436.56512,329.32264 436.46823,328 436.91335,328 c 0.44512,0 0.59284,-1.13236 0.32828,-2.51635 -0.31078,-1.62569 -1.05807,-2.42207 -2.11133,-2.25 -1.27136,0.20771 -1.56308,-0.43494 -1.325,-2.91887 0.22276,-2.32415 -0.21478,-3.46356 -1.61852,-4.21482 -1.0581,-0.56628 -2.30565,-0.70793 -2.77233,-0.31478 -0.46668,0.39315 -0.18835,-0.15906 0.61852,-1.22714 1.03773,-1.37368 1.0828,-1.7108 0.15402,-1.15204 -1.69615,1.02042 -5.23525,-2.11666 -4.51256,-3.99996 C 425.97118,308.63272 425.71583,308 425.10699,308 424.49814,308 424,307.325 424,306.5 c 0,-0.825 -0.47656,-1.5 -1.05902,-1.5 -0.58246,0 -0.77707,0.5625 -0.43247,1.25 0.3446,0.6875 -1.72326,-1.225 -4.59523,-4.25 -2.87198,-3.025 -4.58987,-4.63391 -3.81753,-3.57535 1.37363,1.88268 1.34429,1.88562 -1.34575,0.13499 -2.59884,-1.69129 -4.0555,-3.48452 -1.59549,-1.96415 0.6991,0.43207 0.8837,0.27535 0.46797,-0.39731 -0.37759,-0.61096 -1.3016,-0.87481 -2.05335,-0.58633 -0.75176,0.28847 -1.6639,0.0438 -2.027,-0.54368 -0.36309,-0.58749 -0.0711,-1.08185 0.64885,-1.09858 0.78042,-0.0181 0.57781,-0.45574 -0.50172,-1.08368 -0.9959,-0.5793 -2.48178,-0.79577 -3.30194,-0.48105 -0.82016,0.31473 -1.25693,0.19319 -0.97061,-0.27009 0.65369,-1.0577 -4.23788,-3.36332 -5.49165,-2.58846 -0.50878,0.31445 -0.92595,0.20767 -0.92705,-0.23729 -0.001,-0.44496 -1.35991,-0.9041 -3.0196,-1.0203 -1.65969,-0.11621 -3.7963,-0.68489 -4.74802,-1.26374 -1.36963,-0.83304 -1.10494,-0.92726 1.26961,-0.45195 l 3,0.60051 -2.83965,-1.57398 c -2.03762,-1.12942 -3.36063,-1.29515 -4.68426,-0.58677 -2.52254,1.35003 -5.01149,1.31358 -2.97609,-0.0436 1.04161,-0.69452 -0.63916,-0.85373 -5.5,-0.52099 -4.78535,0.32757 -6.05086,0.21171 -4,-0.36621 l 3,-0.84538 -3.75,-0.11832 C 370.6875,283.05324 369,282.55 369,282 c 0,-0.55 -1.2375,-0.93872 -2.75,-0.86382 -2.35784,0.11676 -2.42915,0.19798 -0.5,0.56955 3.40303,0.65546 2.69417,2.29225 -1,2.30905 -1.7875,0.008 -6.09983,0.68662 -9.58296,1.50775 -3.48313,0.82113 -6.81516,1.19495 -7.40451,0.83071 -0.59536,-0.36796 -0.78376,-0.19661 -0.42395,0.38558 0.76806,1.24275 -3.93033,2.63153 -5.53908,1.63727 -0.60968,-0.37681 -0.86309,-0.27808 -0.56311,0.2194 0.29997,0.49748 -2.33051,2.55713 -5.8455,4.57699 -3.51499,2.01987 -6.39089,3.25737 -6.39089,2.75 0,-0.50736 0.4875,-0.92248 1.08333,-0.92248 0.59584,0 0.92209,-0.48375 0.725,-1.075 -0.54569,-1.63709 -2.22453,-0.66818 -2.5512,1.47238 -0.38669,2.5338 -13.1952,14.18124 -15.18766,13.81092 -1.27181,-0.23637 -1.3081,-0.11534 -0.19135,0.6382 1.64266,1.1084 0.50808,3.4866 -1.19722,2.50949 -0.64949,-0.37215 -0.85923,-0.32033 -0.46608,0.11517 1.05697,1.17082 -1.13053,4.69897 -2.4195,3.90234 -0.62482,-0.38616 -0.82402,-0.22896 -0.45877,0.36203 0.35506,0.57451 -0.53665,3.15977 -1.98158,5.74504 -1.44493,2.58527 -3.67078,7.92225 -4.94632,11.85996 -1.27554,3.93771 -2.35361,6.48447 -2.39571,5.65947 -0.0585,-1.14591 -0.42834,-1.03465 -1.56681,0.47131 -0.81964,1.08421 -1.20637,2.65921 -0.8594,3.5 0.34697,0.84078 1.02278,7.15369 1.50179,14.02869 0.80719,11.5851 1.46249,15.43221 3.47727,20.41404 0.5411,1.33795 0.4254,1.69855 -0.3844,1.19807 -0.76363,-0.47195 -0.94986,-0.17233 -0.5464,0.87908 0.33665,0.87729 0.84223,1.36492 1.12352,1.08363 0.28129,-0.28129 1.78711,2.18597 3.34626,5.4828 3.62866,7.6728 8.11402,14.17301 13.2921,19.26299 2.25672,2.21833 3.48225,3.66605 2.7234,3.21716 -0.94951,-0.56167 -1.23448,-0.38298 -0.91391,0.57303 0.2562,0.76406 1.17402,1.39525 2.0396,1.40265 0.86559,0.007 2.40185,0.73244 3.41392,1.61121 1.01206,0.87877 3.97772,2.82803 6.59033,4.3317 2.67169,1.53766 4.46373,3.19747 4.09549,3.7933 -0.36009,0.58264 -0.23003,0.79688 0.28904,0.47608 0.51906,-0.3208 4.52609,0.74463 8.90451,2.36761 4.78997,1.77554 6.68731,2.81499 4.76356,2.60971 -1.81457,-0.19363 -2.94678,0.064 -2.61814,0.59574 0.31847,0.51529 2.4322,0.71064 4.69718,0.43409 2.26498,-0.27655 6.36815,-0.13592 9.11815,0.3125 5.91283,0.96416 19.48972,0.37962 24.64067,-1.06088 z m 54.93828,-60.56784 c 0.048,-1.16495 0.28494,-1.4019 0.60416,-0.60417 0.28887,0.72187 0.25335,1.58438 -0.0789,1.91667 -0.33229,0.33229 -0.56864,-0.25834 -0.52522,-1.3125 z M 370.15789,354 c 0,-1.375 0.22698,-1.9375 0.50439,-1.25 0.27741,0.6875 0.27741,1.8125 0,2.5 -0.27741,0.6875 -0.50439,0.125 -0.50439,-1.25 z m 71,-8 c 0,-1.375 0.22698,-1.9375 0.50439,-1.25 0.27741,0.6875 0.27741,1.8125 0,2.5 -0.27741,0.6875 -0.50439,0.125 -0.50439,-1.25 z m -143.40264,-1.5 c -0.26285,-1.375 -0.0903,-2.5 0.38342,-2.5 0.47373,0 0.86133,1.125 0.86133,2.5 0,1.375 -0.17254,2.5 -0.38342,2.5 -0.21089,0 -0.59848,-1.125 -0.86133,-2.5 z m 141.97392,-6.10417 C 439.32812,337.99479 439,336.97667 439,336.13333 c 0,-1.12559 0.29583,-1.2375 1.1125,-0.42083 0.61187,0.61187 0.94,1.63 0.72917,2.2625 -0.21084,0.6325 -0.71146,0.82187 -1.1125,0.42083 z M 369.15789,314 c 0,-1.375 0.22698,-1.9375 0.50439,-1.25 0.27741,0.6875 0.27741,1.8125 0,2.5 -0.27741,0.6875 -0.50439,0.125 -0.50439,-1.25 z m 60.81031,92.25 c -0.0301,-2.60563 -0.1072,-2.6504 -1.46797,-0.85268 -1.44635,1.91078 -1.18393,3.60268 0.55879,3.60268 0.51754,0 0.92667,-1.2375 0.90918,-2.75 z M 310,398 c 0,-0.55 -0.19844,-1 -0.44098,-1 -0.24254,0 -0.7191,0.45 -1.05902,1 -0.33992,0.55 -0.14148,1 0.44098,1 0.58246,0 1.05902,-0.45 1.05902,-1 z m -12,-26.55902 c 0,-0.85746 -0.45734,-1.27636 -1.01631,-0.9309 -0.55897,0.34546 -0.75742,1.04702 -0.44098,1.55902 0.85723,1.38704 1.45729,1.12841 1.45729,-0.62812 z m 0,-5.38196 c 0,-0.51754 -0.45,-1.2191 -1,-1.55902 -0.55,-0.33992 -1,0.0835 -1,0.94098 0,0.85746 0.45,1.55902 1,1.55902 0.55,0 1,-0.42344 1,-0.94098 z m -1.28242,-12.79527 c -0.22985,-1.52006 -0.42406,-0.51375 -0.43157,2.23625 -0.007,2.75 0.18056,3.99369 0.41792,2.76375 0.23736,-1.22994 0.24351,-3.47994 0.0136,-5 z m 5.08929,-23.79021 c -0.30789,-0.30789 -0.86705,0.24711 -1.24258,1.23333 -0.54268,1.4252 -0.42782,1.54006 0.5598,0.5598 0.68342,-0.67834 0.99067,-1.48524 0.68278,-1.79313 z M 440,329.88197 c 0,-0.55 -0.45,-0.72189 -1,-0.38197 -0.55,0.33992 -1,1.06803 -1,1.61803 0,0.55 0.45,0.72189 1,0.38197 0.55,-0.33992 1,-1.06803 1,-1.61803 z M 305.36163,322.5 c 0.31658,-0.825 0.13972,-1.5 -0.39301,-1.5 -0.53274,0 -0.96862,0.675 -0.96862,1.5 0,0.825 0.17686,1.5 0.39301,1.5 0.21616,0 0.65203,-0.675 0.96862,-1.5 z m 130.60774,-3 c 0,-0.55 -0.43621,-0.325 -0.96937,0.5 -0.53316,0.825 -0.96937,1.95 -0.96937,2.5 0,0.55 0.43621,0.325 0.96937,-0.5 0.53316,-0.825 0.96937,-1.95 0.96937,-2.5 z M 318,305 c 0,-0.55 -0.47656,-1 -1.05902,-1 -0.58246,0 -0.7809,0.45 -0.44098,1 0.33992,0.55 0.81648,1 1.05902,1 0.24254,0 0.44098,-0.45 0.44098,-1 z m 35.72917,-20.60417 c -0.33229,-0.33229 -1.1948,-0.36781 -1.91667,-0.0789 -0.79773,0.31922 -0.56078,0.55618 0.60417,0.60416 1.05416,0.0434 1.64479,-0.19293 1.3125,-0.52522 z m 45.43698,-5.27198 c -1.07393,-0.68077 -1.02522,-0.96395 0.25,-1.4533 C 400.28727,277.33627 401,276.5289 401,275.8764 c 0,-0.7073 -0.80763,-0.45548 -2,0.6236 -2.46485,2.23066 -2.55627,3.50487 -0.25,3.48469 1.34018,-0.0117 1.43764,-0.21332 0.41615,-0.86084 z M 287,275 c 0,-0.55 -0.19844,-1 -0.44098,-1 -0.24254,0 -0.7191,0.45 -1.05902,1 -0.33992,0.55 -0.14148,1 0.44098,1 0.58246,0 1.05902,-0.45 1.05902,-1 z m -9.92105,146.41667 c 0.048,-1.16495 0.28494,-1.4019 0.60416,-0.60417 0.28887,0.72187 0.25335,1.58438 -0.0789,1.91667 -0.33229,0.33229 -0.56864,-0.25834 -0.52522,-1.3125 z M 167.9859,388.70389 168.47179,382.5 l 0.32132,5.39279 c 0.17672,2.96603 -0.0419,5.75778 -0.4859,6.20389 -0.44396,0.4461 -0.58856,-1.98065 -0.32131,-5.39279 z M 52,355.62244 c 0,-0.20765 0.7875,-0.99515 1.75,-1.75 1.586056,-1.24387 1.621426,-1.2085 0.377555,0.37756 C 52.821186,355.91575 52,356.44548 52,355.62244 Z M 154.25204,350 c 0.28442,-1.05524 1.86365,-1.53192 5.32613,-1.60766 l 4.92183,-0.10766 -4.48357,0.42657 c -2.46597,0.23461 -4.86273,0.95806 -5.32613,1.60766 -0.58254,0.81659 -0.71779,0.71817 -0.43826,-0.31891 z M 53,338.68709 c 0,-0.1721 1.4625,-1.6346 3.25,-3.25 L 59.5,332.5 56.562909,335.75 C 53.825128,338.77946 53,339.45965 53,338.68709 Z M 185.87244,324.25 c -1.24387,-1.58606 -1.2085,-1.62143 0.37756,-0.37756 1.66575,1.30637 2.19548,2.12756 1.37244,2.12756 -0.20765,0 -0.99515,-0.7875 -1.75,-1.75 z M 67.5,310 c 0.995486,-1.1 2.034975,-2 2.309975,-2 0.275,0 -0.314489,0.9 -1.309975,2 -0.995486,1.1 -2.034975,2 -2.309975,2 -0.275,0 0.314489,-0.9 1.309975,-2 z m 236.3125,-46.68311 c 0.72187,-0.28887 1.58438,-0.25335 1.91667,0.0789 0.33229,0.33229 -0.25834,0.56864 -1.3125,0.52522 -1.16495,-0.048 -1.4019,-0.28494 -0.60417,-0.60416 z M 356,235.5 c 1.29175,-1.375 2.57363,-2.5 2.84863,-2.5 0.275,0 -0.55688,1.125 -1.84863,2.5 -1.29175,1.375 -2.57363,2.5 -2.84863,2.5 -0.275,0 0.55688,-1.125 1.84863,-2.5 z M 233.46241,230.75 228.5,225.5 l 5.25,4.96241 c 2.8875,2.72932 5.25,5.09182 5.25,5.25 0,0.74619 -0.92643,-0.084 -5.53759,-4.96241 z M 225,228.5 c -2.42903,-2.475 -4.19142,-4.5 -3.91642,-4.5 0.275,0 2.48739,2.025 4.91642,4.5 2.42903,2.475 4.19142,4.5 3.91642,4.5 -0.275,0 -2.48739,-2.025 -4.91642,-4.5 z m 48.34281,-55 c 0.004,-4.4 0.17944,-6.07561 0.39069,-3.72357 0.21124,2.35204 0.20827,5.95204 -0.007,8 -0.21487,2.04796 -0.38771,0.12357 -0.38408,-4.27643 z M 209.27236,168 c 0,-2.475 0.19502,-3.4875 0.43337,-2.25 0.23836,1.2375 0.23836,3.2625 0,4.5 -0.23835,1.2375 -0.43337,0.225 -0.43337,-2.25 z m 32.54014,-37.68311 c 0.72187,-0.28887 1.58437,-0.25335 1.91667,0.0789 0.33229,0.33229 -0.25834,0.56864 -1.3125,0.52522 -1.16495,-0.048 -1.4019,-0.28494 -0.60417,-0.60416 z M 195.232,123 c 0,-1.925 0.2058,-2.7125 0.45733,-1.75 0.25152,0.9625 0.25152,2.5375 0,3.5 -0.25153,0.9625 -0.45733,0.175 -0.45733,-1.75 z m 99.84695,-43.583333 c 0.048,-1.164943 0.28494,-1.4019 0.60416,-0.604167 0.28887,0.721875 0.25335,1.584375 -0.0789,1.916667 -0.33229,0.332291 -0.56864,-0.258334 -0.52522,-1.3125 z m 16,-9 c 0.048,-1.164943 0.28494,-1.4019 0.60416,-0.604167 0.28887,0.721875 0.25335,1.584375 -0.0789,1.916667 -0.33229,0.332291 -0.56864,-0.258334 -0.52522,-1.3125 z M 259.25,61.310674 c 0.9625,-0.251527 2.5375,-0.251527 3.5,0 0.9625,0.251528 0.175,0.457323 -1.75,0.457323 -1.925,0 -2.7125,-0.205795 -1.75,-0.457323 z m -43.4375,-6.993788 c 0.72187,-0.288871 1.58437,-0.253344 1.91667,0.07895 0.33229,0.332292 -0.25834,0.568641 -1.3125,0.52522 -1.16495,-0.04798 -1.4019,-0.284941 -0.60417,-0.604167 z m 62,-1 c 0.72187,-0.288871 1.58438,-0.253344 1.91667,0.07895 0.33229,0.332292 -0.25834,0.568641 -1.3125,0.52522 -1.16495,-0.04798 -1.4019,-0.284941 -0.60417,-0.604167 z m -85.73355,-9.900219 c 0.048,-1.164943 0.28494,-1.4019 0.60416,-0.604167 0.28887,0.721875 0.25335,1.584375 -0.0789,1.916667 -0.3323,0.332291 -0.56864,-0.258334 -0.52522,-1.3125 z"
         id="path5" />
      <path
         style="fill:#f9cb42"
         d="m 97.5,448.61865 c -10.389608,-3.33119 -17.895582,-9.73631 -22.114569,-18.87117 -2.762819,-5.982 -2.898912,-6.96409 -3.202686,-23.11144 -0.309598,-16.4569 -0.261323,-16.92475 2,-19.38234 3.049235,-3.3139 11.476435,-7.23165 15.58194,-7.24393 2.314426,-0.007 4.351932,-1.00616 7,-3.43293 3.353885,-3.07361 3.735315,-3.93086 3.735315,-8.39501 0,-3.4499 -0.571332,-5.60317 -1.866406,-7.03421 -1.838071,-2.03105 -1.812542,-2.11316 1.681666,-5.40861 4.50707,-4.25072 5.46491,-7.91604 3.49804,-13.3857 -1.42284,-3.95675 -1.39609,-4.32607 0.44684,-6.169 3.02173,-3.02174 3.46689,-10.27188 0.88699,-14.44624 C 102.97661,318.22609 99.386823,316 95.89393,316 c -1.10658,0 -1.733849,-0.45 -1.39393,-1 0.339919,-0.55 1.828976,-1.00168 3.309017,-1.00374 4.066533,-0.006 9.123773,-3.59115 10.832123,-7.67981 2.15019,-5.14612 1.06626,-9.48816 -3.33278,-13.35057 -3.29925,-2.89678 -4.10585,-3.14741 -8.860529,-2.75311 -4.722548,0.39163 -7.416698,1.48084 -23.697831,9.58077 -1.48639,0.73948 -0.708848,-8.43436 1.144666,-13.50536 3.411956,-9.33471 9.582411,-16.34199 18.105334,-20.56073 4.479785,-2.21744 4.791994,-2.2297 69.5,-2.72745 67.17045,-0.5167 70.79362,-0.35422 79,3.54274 5.46757,2.59637 13.16795,10.49623 15.81306,16.2227 2.17113,4.70032 2.18894,5.22008 2.46389,71.87503 0.27256,66.0792 0.24379,67.22908 -1.8206,72.74666 -2.76804,7.39824 -10.40691,15.70458 -17.7662,19.31856 L 233.5,449.5 l -66,0.20058 c -51.39745,0.1562 -66.885,-0.0832 -70,-1.08193 z m 95.37188,-31.51831 c 0.75454,-0.47797 1.19492,-1.39993 0.97863,-2.04881 -0.28995,-0.86986 -7.32163,-1.15485 -26.76722,-1.08486 -14.50567,0.0522 -26.7389,0.32048 -27.18495,0.59616 -0.44604,0.27567 -0.5575,1.16181 -0.24768,1.9692 0.47522,1.23838 4.57383,1.46558 26.20633,1.45266 14.10365,-0.008 26.26036,-0.40638 27.01489,-0.88435 z M 176.75,399.34266 188,398.69442 v -5.27982 c 0,-4.44755 0.32372,-5.38257 2.05366,-5.93163 3.322,-1.05436 14.63306,-12.23413 17.50888,-17.30565 C 212.41369,361.62231 214,355.45759 214,345.16003 c 0,-10.95871 -2.12828,-18.40903 -7.65262,-26.789 -6.98731,-10.59915 -16.89169,-17.52403 -29.80748,-20.84058 -7.89465,-2.02721 -13.67051,-1.93006 -22.62994,0.38061 -9.68845,2.4987 -16.13352,6.18593 -23.02647,13.17347 -10.21523,10.3554 -14.5773,22.58529 -13.58148,38.07823 0.93658,14.57109 8.64318,28.02158 20.6751,36.08464 6.13398,4.11062 7.02289,5.43251 7.02289,10.44373 V 400 l 10.25,-0.005 c 5.6375,-0.002 15.3125,-0.29625 21.5,-0.65279 z M 410.25792,408.25 c -1.60057,-2.0625 -6.67407,-8.7 -11.27444,-14.75 -14.56429,-19.15368 -21.25904,-27.88917 -24.33243,-31.74961 -1.64184,-2.06229 -2.76811,-3.96667 -2.50283,-4.23195 0.45987,-0.45986 7.48167,1.47299 30.85178,8.49242 5.775,1.73457 11.85,3.53008 13.5,3.99001 1.65,0.45993 7.20888,2.07491 12.35307,3.58884 l 9.35307,2.7526 -0.53191,3.27775 c -0.6588,4.05968 -3.12945,9.49185 -6.99509,15.37994 -3.58632,5.46264 -14.65962,17 -16.31622,17 -0.65717,0 -2.50442,-1.6875 -4.105,-3.75 z"
         id="path4" />
      <path
         style="fill:#9fa9b5"
         d="m 53.8125,430.31689 c 0.721875,-0.28887 1.584375,-0.25335 1.916667,0.0789 0.332291,0.33229 -0.258334,0.56864 -1.3125,0.52522 -1.164943,-0.048 -1.4019,-0.28494 -0.604167,-0.60416 z m 226.90837,-1.03186 c 0.38818,-1.01159 0.21678,-1.36453 -0.45965,-0.94647 -2.82536,1.74616 -3.41846,-12.81156 -3.08977,-75.83856 0.30766,-58.99451 0.44777,-63.27285 2.20373,-67.29149 2.27332,-5.20266 2.98224,-5.03143 1.43964,0.34772 -0.62204,2.16907 -1.06489,4.95627 -0.9841,6.19377 0.0808,1.2375 -0.21915,2.25 -0.66653,2.25 -0.78491,0 -0.74716,119.92502 0.0394,125 0.60364,3.89497 1.98392,8.38726 2.95986,9.63322 0.56107,0.71629 0.34512,1.3414 -0.58696,1.69907 -1.04392,0.40059 -1.29381,0.0947 -0.85558,-1.04726 z m 81.02913,1.05269 c 0.6875,-0.27741 1.8125,-0.27741 2.5,0 0.6875,0.27741 0.125,0.50439 -1.25,0.50439 -1.375,0 -1.9375,-0.22698 -1.25,-0.50439 z m 7.01791,-2.06245 c 1.79735,-0.22256 4.49735,-0.21797 6,0.0102 1.50265,0.22818 0.0321,0.41027 -3.26791,0.40466 -3.3,-0.006 -4.52944,-0.1923 -2.73209,-0.41486 z M 347.66256,427.25 c -0.2505,-0.4125 1.57487,-0.80866 4.0564,-0.88035 2.88177,-0.0832 4.01855,0.18219 3.14645,0.73469 -1.68465,1.06728 -6.58299,1.16634 -7.20285,0.14566 z m 11.08744,0.0877 c 0.6875,-0.27741 1.8125,-0.27741 2.5,0 0.6875,0.27741 0.125,0.50439 -1.25,0.50439 -1.375,0 -1.9375,-0.22698 -1.25,-0.50439 z m 22,0 c 0.6875,-0.27741 1.8125,-0.27741 2.5,0 0.6875,0.27741 0.125,0.50439 -1.25,0.50439 -1.375,0 -1.9375,-0.22698 -1.25,-0.50439 z m 11.5,-0.36888 c -1.2375,-0.49742 -2.25,-1.14389 -2.25,-1.43662 0,-0.97061 1.59154,-0.55204 3.55887,0.93598 2.21231,1.67331 1.90296,1.79163 -1.30887,0.50064 z M 52.8125,426.31689 c 0.721875,-0.28887 1.584375,-0.25335 1.916667,0.0789 0.332291,0.33229 -0.258334,0.56864 -1.3125,0.52522 -1.164943,-0.048 -1.4019,-0.28494 -0.604167,-0.60416 z m 286.92958,-4.40142 c -0.96686,-0.56304 -2.12936,-0.79415 -2.58333,-0.51358 -0.45398,0.28057 -0.82542,-0.11784 -0.82542,-0.88537 0,-1.157 0.52698,-1.12775 3.08334,0.17116 1.69583,0.86167 3.27083,1.73444 3.5,1.9395 0.88972,0.7961 -1.50873,0.25839 -3.17459,-0.71171 z M 404,419.60699 c 0,-0.21616 0.69837,-0.661 1.55194,-0.98855 0.88992,-0.34149 1.29132,-0.17385 0.94098,0.39301 C 405.90566,419.96166 404,420.4169 404,419.60699 Z m -218.73625,-2.32457 c 1.52006,-0.22986 3.77006,-0.22371 5,0.0136 1.22994,0.23736 -0.0137,0.42542 -2.76375,0.41792 -2.75,-0.008 -3.75631,-0.20172 -2.23625,-0.43157 z m 141.04201,-3.85537 -2.80576,-2.57296 3.25,2.26101 c 1.7875,1.24356 3.25,2.40139 3.25,2.57296 0,0.78934 -1.10612,0.11236 -3.69424,-2.26101 z M 23.946167,411.25 20.5,407.5 l 3.75,3.44617 c 2.0625,1.89539 3.75,3.58289 3.75,3.75 0,0.76362 -0.846216,0.0442 -4.053833,-3.44617 z m 388.711753,2.19907 C 412.96375,412.65208 413.74133,412 414.38588,412 c 1.63812,0 12.73106,-11.57411 16.29326,-17 3.67235,-5.59367 6.15303,-10.91085 6.95041,-14.89774 C 438.40746,376.21271 441,373.73227 441,376.87756 441,378.0449 440.55,379 440,379 c -0.55,0 -1,1.32344 -1,2.94098 0,1.61754 -0.45,3.2191 -1,3.55902 -0.55,0.33992 -1,1.49148 -1,2.55902 0,1.06754 -0.36651,1.94098 -0.81448,1.94098 -1.1957,0 -5.28264,8.03384 -4.62679,9.09503 0.30762,0.49773 -0.14225,0.90497 -0.99971,0.90497 -0.85746,0 -1.57176,0.3375 -1.58734,0.75 -0.0465,1.23272 -9.08788,10.59823 -11.36351,11.77095 -4.29781,2.21483 -5.53287,2.44639 -4.95025,0.92812 z m -91.99125,-2.11574 c -1.21466,-1.21466 -0.69095,-2.27988 0.83333,-1.69496 0.825,0.31659 1.5,0.97746 1.5,1.46862 0,1.0484 -1.37764,1.18204 -2.33333,0.22634 z M 16.872445,409.25 c -1.243871,-1.58606 -1.208501,-1.62143 0.377555,-0.37756 0.9625,0.75485 1.75,1.54235 1.75,1.75 0,0.82304 -0.821186,0.29331 -2.127555,-1.37244 z m 410.718605,-1.10268 c -0.28984,-0.46897 0.11929,-1.70647 0.90918,-2.75 1.36077,-1.79772 1.43783,-1.75295 1.46797,0.85268 0.0305,2.63939 -1.27469,3.68114 -2.37715,1.89732 z M 61.872445,406.25 c -1.243871,-1.58606 -1.208501,-1.62143 0.377555,-0.37756 0.9625,0.75485 1.75,1.54235 1.75,1.75 0,0.82304 -0.821186,0.29331 -2.127555,-1.37244 z m -6,-1 C 54.628574,403.66394 54.663944,403.62857 56.25,404.87244 57.915748,406.17881 58.445479,407 57.622445,407 c -0.207656,0 -0.995156,-0.7875 -1.75,-1.75 z m 260.999995,0 c -1.24387,-1.58606 -1.2085,-1.62143 0.37756,-0.37756 1.66575,1.30637 2.19548,2.12756 1.37244,2.12756 -0.20765,0 -0.99515,-0.7875 -1.75,-1.75 z m -3.46745,-4.5 -1.90499,-2.25 2.25,1.90499 c 1.2375,1.04774 2.25,2.06024 2.25,2.25 0,0.80025 -0.80479,0.20945 -2.59501,-1.90499 z M 308,398.62244 c 0,-0.20765 0.63494,-0.9045 1.41097,-1.54855 1.08042,-0.89667 1.58517,-0.88916 2.15451,0.0321 0.47138,0.76271 0.32096,0.9419 -0.41097,0.48954 C 310.51953,397.20305 310,397.35852 310,397.94098 310,398.52344 309.55,399 309,399 c -0.55,0 -1,-0.1699 -1,-0.37756 z m 0.21482,-3.0936 c 0.39315,-0.43549 0.26481,-1.63264 -0.28519,-2.66032 -0.55,-1.02769 -0.775,-1.86852 -0.5,-1.86852 0.275,0 0.96705,0.87269 1.53789,1.93931 0.75781,1.41598 0.69984,2.13388 -0.21482,2.66033 -0.68898,0.39655 -0.93103,0.3647 -0.53788,-0.0708 z M 164.232,391 c 0,-1.925 0.2058,-2.7125 0.45733,-1.75 0.25152,0.9625 0.25152,2.5375 0,3.5 -0.25153,0.9625 -0.45733,0.175 -0.45733,-1.75 z m -93.773119,-3.06653 c -0.362533,-0.58659 -0.444683,-1.281 -0.182555,-1.54313 0.262128,-0.26213 0.743066,0.21781 1.068751,1.06653 0.676184,1.76211 0.09985,2.07206 -0.886196,0.4766 z M 71,384.62244 c 0,-0.20765 0.7875,-0.99515 1.75,-1.75 1.586056,-1.24387 1.621426,-1.2085 0.377555,0.37756 C 71.821186,384.91575 71,385.44548 71,384.62244 Z m 229.70013,-3.96152 c -0.2802,-0.73017 0.12265,-1.32759 0.89521,-1.32759 1.57457,0 1.87888,1.25555 0.50944,2.10191 -0.49236,0.3043 -1.12446,-0.0441 -1.40465,-0.77432 z m -0.0766,-4.19958 c -0.34295,-0.8937 -0.59502,-2.15061 -0.56015,-2.79313 0.0349,-0.64251 0.49453,-0.0904 1.02148,1.22697 0.52695,1.31735 0.77902,2.57426 0.56015,2.79313 -0.21887,0.21887 -0.67854,-0.33327 -1.02148,-1.22697 z M 4.0789474,375.41667 c 0.047984,-1.16495 0.2849403,-1.4019 0.6041666,-0.60417 0.2888706,0.72187 0.2533443,1.58438 -0.078947,1.91667 -0.3322917,0.33229 -0.5686404,-0.25834 -0.5252196,-1.3125 z m -4.00000003,-1 c 0.04798392,-1.16495 0.2849403,-1.4019 0.60416667,-0.60417 0.28887061,0.72187 0.25334429,1.58438 -0.0789474,1.91667 -0.33229167,0.33229 -0.56864035,-0.25834 -0.52521927,-1.3125 z M 59,373.62244 c 0,-0.20765 0.7875,-0.99515 1.75,-1.75 1.586056,-1.24387 1.621426,-1.2085 0.377555,0.37756 C 59.821186,373.91575 59,374.44548 59,373.62244 Z m -14.921053,-2.20577 c 0.04798,-1.16495 0.284941,-1.4019 0.604167,-0.60417 0.288871,0.72187 0.253344,1.58438 -0.07895,1.91667 -0.332292,0.33229 -0.568641,-0.25834 -0.52522,-1.3125 z m 252.463763,0.65243 c -0.31644,-0.512 -0.11799,-1.21356 0.44098,-1.55902 0.55897,-0.34546 1.01631,0.0734 1.01631,0.9309 0,1.75653 -0.60006,2.01516 -1.45729,0.62812 z M 299.15789,370 c 0,-1.375 0.22698,-1.9375 0.50439,-1.25 0.27741,0.6875 0.27741,1.8125 0,2.5 -0.27741,0.6875 -0.50439,0.125 -0.50439,-1.25 z m 142.01208,0.5 c 0.0162,-1.1 0.38968,-3.125 0.83003,-4.5 l 0.80064,-2.5 0.0294,2.5 c 0.0162,1.375 -0.35734,3.4 -0.83003,4.5 l -0.85943,2 z M 296,365.44098 c 0,-0.85746 0.45,-1.2809 1,-0.94098 1.3094,0.80926 1.33584,-13.8422 0.0332,-18.38433 -1.11959,-3.90378 0.46406,-8.51918 2.059,-6.00077 0.48246,0.76181 0.83189,2.2851 0.77652,3.3851 -0.0845,1.67904 -0.17408,1.71916 -0.55802,0.25 -0.25152,-0.9625 -0.84291,-1.75 -1.31419,-1.75 -0.47128,0 -0.43828,1.45953 0.0733,3.2434 1.03863,3.6215 1.26452,17.72178 0.3232,20.17481 C 297.61206,367.45334 296,367.46868 296,365.44098 Z M 0.07894737,360.41667 c 0.04798392,-1.16495 0.2849403,-1.4019 0.60416667,-0.60417 0.28887061,0.72187 0.25334429,1.58438 -0.0789474,1.91667 -0.33229167,0.33229 -0.56864035,-0.25834 -0.52521927,-1.3125 z m 4.00000003,-1 c 0.047984,-1.16495 0.2849403,-1.4019 0.6041666,-0.60417 0.2888706,0.72187 0.2533443,1.58438 -0.078947,1.91667 -0.3322917,0.33229 -0.5686404,-0.25834 -0.5252196,-1.3125 z M 296.28601,355.5 c 0.008,-2.75 0.20172,-3.75631 0.43157,-2.23625 0.22986,1.52006 0.22371,3.77006 -0.0136,5 -0.23736,1.22994 -0.42542,-0.0138 -0.41792,-2.76375 z m -256.207063,1.91667 c 0.04798,-1.16495 0.284941,-1.4019 0.604167,-0.60417 0.288871,0.72187 0.253344,1.58438 -0.07895,1.91667 -0.332292,0.33229 -0.568641,-0.25834 -0.52522,-1.3125 z m 4,0 c 0.04798,-1.16495 0.284941,-1.4019 0.604167,-0.60417 0.288871,0.72187 0.253344,1.58438 -0.07895,1.91667 -0.332292,0.33229 -0.568641,-0.25834 -0.52522,-1.3125 z m 3.379934,-0.4832 c -0.362533,-0.58659 -0.444683,-1.281 -0.182555,-1.54313 0.262128,-0.26213 0.743066,0.21781 1.068751,1.06653 0.676184,1.76211 0.09985,2.07206 -0.886196,0.4766 z M 88.75,354.33772 c 0.6875,-0.27741 1.8125,-0.27741 2.5,0 0.6875,0.27741 0.125,0.50439 -1.25,0.50439 -1.375,0 -1.9375,-0.22698 -1.25,-0.50439 z M 97,353.62244 c 0,-0.20765 0.7875,-0.99515 1.75,-1.75 1.58606,-1.24387 1.62143,-1.2085 0.377555,0.37756 C 97.821186,353.91575 97,354.44548 97,353.62244 Z m -48,-1 c 0,-0.20765 0.7875,-0.99515 1.75,-1.75 1.586056,-1.24387 1.621426,-1.2085 0.377555,0.37756 C 49.821186,352.91575 49,353.44548 49,352.62244 Z m 6,0 c 0,-0.20765 0.7875,-0.99515 1.75,-1.75 1.586056,-1.24387 1.621426,-1.2085 0.377555,0.37756 C 55.821186,352.91575 55,353.44548 55,352.62244 Z m 102.26375,-0.34002 c 1.52006,-0.22986 3.77006,-0.22371 5,0.0136 1.22994,0.23736 -0.0137,0.42542 -2.76375,0.41792 -2.75,-0.008 -3.75631,-0.20172 -2.23625,-0.43157 z m 12.48625,0.0118 c 1.2375,-0.23836 3.2625,-0.23836 4.5,0 1.2375,0.23835 0.225,0.43337 -2.25,0.43337 -2.475,0 -3.4875,-0.19502 -2.25,-0.43337 z M 441.64597,346.5 c -0.43675,-3.3 -0.78181,-6.87926 -0.76682,-7.95391 0.015,-1.07466 -0.4658,-2.54803 -1.06844,-3.27417 -0.60264,-0.72614 -0.78212,-1.63385 -0.39884,-2.01713 1.22984,-1.22984 2.45799,2.01643 3.12727,8.26608 0.88778,8.28995 0.11509,12.59742 -0.89317,4.97913 z M 176,350.16667 c 0,-0.74428 -2.26281,-1.23513 -6.25,-1.35575 l -6.25,-0.18909 5.89575,-0.36517 c 5.47643,-0.33919 8.89682,0.78411 7.28758,2.39334 C 176.3075,351.02583 176,350.80833 176,350.16667 Z m 18.07895,-8.75 c 0.048,-1.16495 0.28494,-1.4019 0.60416,-0.60417 0.28887,0.72187 0.25335,1.58438 -0.0789,1.91667 -0.3323,0.33229 -0.56864,-0.25834 -0.52522,-1.3125 z m 106,-3 c 0.048,-1.16495 0.28494,-1.4019 0.60416,-0.60417 0.28887,0.72187 0.25335,1.58438 -0.0789,1.91667 -0.33229,0.33229 -0.56864,-0.25834 -0.52522,-1.3125 z m -212.8152,-0.13425 c 1.520062,-0.22986 3.770062,-0.22371 5,0.0136 1.229937,0.23736 -0.01375,0.42542 -2.76375,0.41792 -2.75,-0.008 -3.756313,-0.20172 -2.23625,-0.43157 z M 87.75,334.29427 c 1.2375,-0.23836 3.2625,-0.23836 4.5,0 1.2375,0.23835 0.225,0.43337 -2.25,0.43337 -2.475,0 -3.4875,-0.19502 -2.25,-0.43337 z M 302,332.10765 c 0,-0.67413 -0.44485,-0.95075 -0.98855,-0.61473 -0.58086,0.359 -0.72562,-0.0742 -0.351,-1.05044 0.59193,-1.54257 0.70496,-1.54092 1.58021,0.0231 0.51847,0.92646 0.67642,1.95071 0.351,2.27613 C 302.26625,333.06708 302,332.78178 302,332.10765 Z m 136,-0.98962 c 0,-0.55 0.45,-1.27811 1,-1.61803 0.55,-0.33992 1,-0.16803 1,0.38197 0,0.55 -0.45,1.27811 -1,1.61803 -0.55,0.33992 -1,0.16803 -1,-0.38197 z M 369.34281,323.5 c 0.004,-4.4 0.17944,-6.07561 0.39069,-3.72357 0.21124,2.35204 0.20827,5.95204 -0.007,8 -0.21487,2.04796 -0.38771,0.12357 -0.38408,-4.27643 z M 16,327.5 c 1.291745,-1.375 2.573628,-2.5 2.848628,-2.5 0.275,0 -0.556883,1.125 -1.848628,2.5 -1.291745,1.375 -2.573628,2.5 -2.848628,2.5 -0.275,0 0.556883,-1.125 1.848628,-2.5 z m 166.92431,-0.25 -2.42431,-2.75 2.75,2.42431 c 2.57029,2.26589 3.20859,3.07569 2.42431,3.07569 -0.17912,0 -1.41662,-1.2375 -2.75,-2.75 z m 120.10632,2.25 c 0,-0.55 0.43621,-1.675 0.96937,-2.5 0.53316,-0.825 0.96937,-1.05 0.96937,-0.5 0,0.55 -0.43621,1.675 -0.96937,2.5 -0.53316,0.825 -0.96937,1.05 -0.96937,0.5 z M 22.5,326 c 0.995486,-1.1 2.034975,-2 2.309975,-2 0.275,0 -0.314489,0.9 -1.309975,2 -0.995486,1.1 -2.034975,2 -2.309975,2 -0.275,0 0.314489,-0.9 1.309975,-2 z m 412.32966,-1.76017 c -0.91869,-2.05691 -2.62587,-5.16361 -3.79373,-6.90379 -1.55651,-2.3193 -1.80349,-3.36166 -0.92515,-3.90451 0.73857,-0.45646 0.93641,-0.3169 0.51572,0.36379 -0.37538,0.60738 0.23009,1.59274 1.34549,2.18969 1.11541,0.59695 2.0349,2.08202 2.04332,3.30017 0.0127,1.83399 0.19589,1.9569 1.06551,0.71482 0.82211,-1.17423 0.91274,-1.01135 0.4173,0.75 -0.34809,1.2375 -0.20503,2.25 0.31792,2.25 0.52294,0 1.16586,1.125 1.42871,2.5 0.6993,3.65813 -0.49726,3.03378 -2.41509,-1.26017 z m -130.16299,0.0935 c -1.16388,-1.16387 -0.718,-3.51729 0.58333,-3.07889 0.6875,0.2316 1.83732,-0.2934 2.55517,-1.16667 1.10446,-1.34361 1.13519,-1.23746 0.19982,0.69024 -0.62682,1.29183 -1.5901,1.97841 -2.2251,1.58595 -0.72982,-0.45105 -0.8974,-0.11257 -0.48121,0.972 0.6761,1.7619 0.46526,2.09464 -0.63201,0.99737 z M 24.5,318 c 0.995486,-1.1 2.034975,-2 2.309975,-2 0.275,0 -0.314489,0.9 -1.309975,2 -0.995486,1.1 -2.034975,2 -2.309975,2 -0.275,0 0.314489,-0.9 1.309975,-2 z m 7,-2 c 0.995486,-1.1 2.034975,-2 2.309975,-2 0.275,0 -0.314489,0.9 -1.309975,2 -0.995486,1.1 -2.034975,2 -2.309975,2 -0.275,0 0.314489,-0.9 1.309975,-2 z m 277.10301,1.16667 c -0.28327,-0.45834 0.12038,-0.83334 0.89699,-0.83334 0.77661,0 1.18026,0.375 0.89699,0.83334 C 310.11373,317.625 309.71008,318 309.5,318 c -0.21008,0 -0.61373,-0.375 -0.89699,-0.83333 z M 63,314.62244 c 0,-0.20765 0.7875,-0.99515 1.75,-1.75 1.586056,-1.24387 1.621426,-1.2085 0.377555,0.37756 C 63.821186,314.91575 63,315.44548 63,314.62244 Z m 248.33333,-1.07845 c 0,-0.80081 0.38234,-1.21971 0.84965,-0.9309 0.4673,0.28881 0.59075,0.94401 0.27431,1.45601 -0.80862,1.30838 -1.12396,1.16106 -1.12396,-0.52511 z M 313,309.89035 c -1.28939,-0.92751 -1.26748,-1.00503 0.15604,-0.55212 2.3297,0.74122 5.219,-2.56319 3.63031,-4.15188 C 315.87122,304.27122 315.87434,304 316.8,304 c 0.66,0 1.2,0.53828 1.2,1.19617 0,0.65789 1.6875,-0.35052 3.75,-2.24091 2.0625,-1.89039 1.29037,-0.85367 -1.71584,2.30383 -3.00621,3.1575 -5.48121,5.73402 -5.5,5.7256 -0.0188,-0.008 -0.70916,-0.50087 -1.53416,-1.09434 z M 33.5,308 c 0.995486,-1.1 2.034975,-2 2.309975,-2 0.275,0 -0.314489,0.9 -1.309975,2 -0.995486,1.1 -2.034975,2 -2.309975,2 -0.275,0 0.314489,-0.9 1.309975,-2 z m 390.7982,0.77417 C 422.35345,306.26309 421.89924,305 422.94098,305 c 0.58246,0 1.05902,0.6375 1.05902,1.41667 0,0.77916 0.5625,1.61756 1.25,1.86309 0.6875,0.24554 0.97663,0.74391 0.6425,1.1075 -0.33412,0.36359 -1.05156,0.0877 -1.5943,-0.61309 z M 40.5,306 c 0.995486,-1.1 2.034975,-2 2.309975,-2 0.275,0 -0.314489,0.9 -1.309975,2 -0.995486,1.1 -2.034975,2 -2.309975,2 -0.275,0 0.314489,-0.9 1.309975,-2 z m 23.5,1.62244 c 0,-0.20765 0.7875,-0.99515 1.75,-1.75 1.586056,-1.24387 1.621426,-1.2085 0.377555,0.37756 C 64.821186,307.91575 64,308.44548 64,307.62244 Z m 6,0 c 0,-0.20765 0.7875,-0.99515 1.75,-1.75 1.586056,-1.24387 1.621426,-1.2085 0.377555,0.37756 C 70.821186,307.91575 70,308.44548 70,307.62244 Z M 414.40499,298.75 412.5,296.5 l 2.25,1.90499 c 2.11444,1.79022 2.70524,2.59501 1.90499,2.59501 -0.18976,0 -1.20226,-1.0125 -2.25,-2.25 z M 42.5,298 c 0.995486,-1.1 2.034975,-2 2.309975,-2 0.275,0 -0.314489,0.9 -1.309975,2 -0.995486,1.1 -2.034975,2 -2.309975,2 -0.275,0 0.314489,-0.9 1.309975,-2 z m 285.43918,-1.34003 c 0.51322,-1.34988 0.70692,-2.68053 0.43044,-2.95701 -0.27647,-0.27648 -0.0453,-0.78535 0.51368,-1.13083 0.55899,-0.34548 1.49015,0.25715 2.06923,1.33917 0.75817,1.41665 0.72896,2.16752 -0.10433,2.68252 -0.71794,0.44371 -0.88637,0.27695 -0.44369,-0.43931 C 330.79695,295.51953 330.64148,295 330.05902,295 329.47656,295 329,295.64844 329,296.44098 c 0,0.79254 -0.44864,1.71826 -0.99698,2.05715 -0.65397,0.40418 -0.67594,-0.22822 -0.0638,-1.83816 z M 48,297.62244 c 0,-0.20765 0.7875,-0.99515 1.75,-1.75 1.586056,-1.24387 1.621426,-1.2085 0.377555,0.37756 C 48.821186,297.91575 48,298.44548 48,297.62244 Z M 402,291.5 c -5.84959,-3.13229 -4.71656,-3.16306 2.12176,-0.0576 2.95803,1.34332 4.70324,2.44799 3.87824,2.45482 -0.825,0.007 -3.525,-1.07192 -6,-2.39721 z m -351,-3 c 1.291745,-1.375 2.573628,-2.5 2.848628,-2.5 0.275,0 -0.556883,1.125 -1.848628,2.5 -1.291745,1.375 -2.573628,2.5 -2.848628,2.5 -0.275,0 0.556883,-1.125 1.848628,-2.5 z m 289.75623,1.83564 c 0.69093,-0.27855 1.00506,-0.91287 0.69806,-1.4096 -0.30699,-0.49672 0.17794,-0.62066 1.07762,-0.27542 1.30917,0.50238 1.36946,0.79653 0.30194,1.47323 -0.73362,0.46504 -1.78385,0.81689 -2.33385,0.78189 -0.55,-0.035 -0.4347,-0.29154 0.25623,-0.5701 z M 58,286.5 c 1.291745,-1.375 2.573628,-2.5 2.848628,-2.5 0.275,0 -0.556883,1.125 -1.848628,2.5 -1.291745,1.375 -2.573628,2.5 -2.848628,2.5 -0.275,0 0.556883,-1.125 1.848628,-2.5 z m 289.50708,0.51145 c -0.35034,-0.56686 0.0511,-0.7345 0.94098,-0.39301 1.73242,0.66479 2.04939,1.38156 0.61096,1.38156 -0.51754,0 -1.21592,-0.44485 -1.55194,-0.98855 z m 20.6291,-1.6919 c -0.10482,-2.44804 -0.65432,-3.28025 -2.38618,-3.61382 -1.92915,-0.37157 -1.85784,-0.45279 0.5,-0.56955 1.5125,-0.0749 2.75,0.28666 2.75,0.80345 0,0.5168 1.6875,1.11616 3.75,1.3319 l 3.75,0.39226 -3.68045,0.16811 c -2.9547,0.13495 -3.7659,0.61178 -4.11382,2.4181 -0.32059,1.66446 -0.46881,1.42233 -0.56955,-0.93045 z m -16.32368,0.99734 c 0.72187,-0.28887 1.58438,-0.25335 1.91667,0.0789 0.33229,0.33229 -0.25834,0.56864 -1.3125,0.52522 -1.16495,-0.048 -1.4019,-0.28494 -0.60417,-0.60416 z M 387.5,286.10424 c -2.34792,-0.51586 -2.62634,-0.80678 -1.28093,-1.33843 0.94548,-0.37362 2.97048,-0.0265 4.5,0.77128 2.89599,1.51061 1.8854,1.68866 -3.21907,0.56715 z m -31.6875,-0.78735 c 0.72187,-0.28887 1.58438,-0.25335 1.91667,0.0789 0.33229,0.33229 -0.25834,0.56864 -1.3125,0.52522 -1.16495,-0.048 -1.4019,-0.28494 -0.60417,-0.60416 z m -4,-1 c 0.72187,-0.28887 1.58438,-0.25335 1.91667,0.0789 0.33229,0.33229 -0.25834,0.56864 -1.3125,0.52522 -1.16495,-0.048 -1.4019,-0.28494 -0.60417,-0.60416 z m 9.94916,-0.0242 c 1.24391,-0.23919 3.04391,-0.23011 4,0.0202 0.95609,0.25029 -0.0617,0.446 -2.26166,0.4349 -2.2,-0.0111 -2.98225,-0.21589 -1.73834,-0.45508 z m 18.50737,0.0143 c 0.97297,-0.25354 2.32297,-0.23687 3,0.0371 0.67703,0.27393 -0.11903,0.48137 -1.76903,0.46099 -1.65,-0.0204 -2.20394,-0.2445 -1.23097,-0.49804 z M 60,278.5 c 1.291745,-1.375 2.573628,-2.5 2.848628,-2.5 0.275,0 -0.556883,1.125 -1.848628,2.5 -1.291745,1.375 -2.573628,2.5 -2.848628,2.5 -0.275,0 0.556883,-1.125 1.848628,-2.5 z m 282.63357,-0.0125 c -0.64841,-1.68973 0.5142,-2.63606 2.05351,-1.6715 0.76317,0.47822 0.70064,1.0467 -0.20785,1.88947 -1.01981,0.94605 -1.41698,0.89915 -1.84566,-0.21797 z M 349.5,279 c -2.76761,-0.70424 -2.80634,-0.77135 -0.5,-0.86637 1.375,-0.0566 3.175,0.33321 4,0.86637 1.70194,1.09988 0.82246,1.09988 -3.5,0 z m 15.58333,0.63759 c 0.22917,-0.19933 2.41828,-0.61846 4.8647,-0.93141 2.87759,-0.3681 3.93678,-0.24555 3,0.3471 -1.33642,0.84548 -8.80272,1.40019 -7.8647,0.58431 z m 19.65,-0.76168 c 0.67834,-0.68342 1.48524,-0.99067 1.79313,-0.68278 0.30789,0.30789 -0.24711,0.86705 -1.23333,1.24258 -1.4252,0.54268 -1.54006,0.42782 -0.5598,-0.5598 z m 4.5357,0.4311 c 0.97297,-0.25354 2.32297,-0.23687 3,0.0371 0.67703,0.27393 -0.11903,0.48137 -1.76903,0.46099 -1.65,-0.0204 -2.20394,-0.2445 -1.23097,-0.49804 z m 7.28511,-1.02653 c -0.36292,-0.94573 -0.33508,-1.39475 0.0619,-0.99782 0.39693,0.39694 1.54572,-0.024 2.55285,-0.93547 1.14798,-1.03891 1.83115,-1.21455 1.83115,-0.47079 0,0.6525 -0.71273,1.45987 -1.58385,1.79415 -1.27522,0.48935 -1.32393,0.77253 -0.25,1.4533 1.0404,0.65951 0.97238,0.84889 -0.30916,0.86084 -0.90366,0.008 -1.93994,-0.75847 -2.30285,-1.70421 z M 66.5,277 c 0.995486,-1.1 2.034975,-2 2.309975,-2 0.275,0 -0.314489,0.9 -1.309975,2 -0.995486,1.1 -2.034975,2 -2.309975,2 -0.275,0 0.314489,-0.9 1.309975,-2 z m 290.5,1.03518 c 0,-0.56935 -0.1125,-1.32978 -0.25,-1.68985 -0.55986,-1.4661 3.25418,-1.03535 4.42334,0.49957 0.6934,0.9103 0.87889,1.33343 0.41221,0.94028 -0.46668,-0.39315 -1.68935,-0.26481 -2.71703,0.28519 -1.26536,0.6772 -1.86852,0.66584 -1.86852,-0.0352 z m -18.26715,-2.30632 C 337.77978,274.55426 337,273.23474 337,272.79661 337,272.35847 336.35156,272 335.55902,272 c -2.00807,0 -2.61711,-1.32709 -1.3987,-3.04775 0.85645,-1.2095 0.94057,-1.1762 0.50321,0.19921 -0.33912,1.06647 0.15881,1.83032 1.40567,2.15638 1.07845,0.28203 1.94422,-0.006 1.96121,-0.65146 0.0167,-0.63601 0.49108,-0.36532 1.05412,0.60154 0.56304,0.96686 0.70483,2.27388 0.31508,2.90451 -0.4212,0.68151 -0.26837,0.87449 0.37678,0.47577 1.3699,-0.84665 2.32164,0.58514 1.39048,2.0918 -0.47126,0.76251 -1.26937,0.43423 -2.43402,-1.00114 z M 376,277.15499 c 0,-0.46476 0.82219,-1.58909 1.82709,-2.49851 1.71464,-1.55172 1.97621,-1.48619 4.25,1.06475 1.3326,1.49504 1.67547,2.14751 0.76194,1.44995 -1.12234,-0.857 -1.87113,-0.92826 -2.30902,-0.21974 C 379.75868,278.19949 376,278.36837 376,277.15499 Z m 26.54916,-5.08356 c 0.0987,-9.18014 -0.47561,-8.86601 16.48848,-9.01852 8.2293,-0.074 14.96297,0.22135 14.96372,0.65629 7.5e-4,0.43494 -5.43977,0.63969 -12.09005,0.45499 C 405.5525,263.70987 405,263.88715 405,269.59048 c 0,2.50381 -0.5625,5.11488 -1.25,5.80238 -1,1 -1.24017,0.33571 -1.20084,-3.32143 z M 285.5,275 c 0.33992,-0.55 0.81648,-1 1.05902,-1 0.24254,0 0.44098,0.45 0.44098,1 0,0.55 -0.47656,1 -1.05902,1 -0.58246,0 -0.7809,-0.45 -0.44098,-1 z m 27.84322,0.17766 C 312.44341,274.59175 311.82356,271 312.62226,271 c 0.15891,0 1.84732,1.05756 3.75203,2.35013 l 3.46312,2.35013 -2.72674,0.0775 c -1.49971,0.0426 -3.19506,-0.22742 -3.76745,-0.60013 z M 315.5,274 c -0.33992,-0.55 -1.15398,-0.99311 -1.80902,-0.98469 -0.71561,0.009 -0.59227,0.40223 0.30902,0.98469 1.92112,1.24153 2.2673,1.24153 1.5,0 z m 15.5,0.55902 c 0,-0.79254 0.40803,-1.69316 0.90674,-2.00138 0.49871,-0.30822 0.67122,0.34022 0.38337,1.44098 C 331.6795,276.33361 331,276.62877 331,274.55902 Z m -43,-1.37623 c 0,-0.45879 1.09634,-1.86412 2.43632,-3.12297 2.18156,-2.04946 2.38398,-2.08865 1.93579,-0.37475 C 291.86473,271.62529 288,274.7171 288,273.18279 Z M 361.87244,272.25 c -1.24387,-1.58606 -1.2085,-1.62143 0.37756,-0.37756 0.9625,0.75485 1.75,1.54235 1.75,1.75 0,0.82304 -0.82119,0.29331 -2.12756,-1.37244 z m 38.76593,0.25 c 0.31659,-0.825 0.75246,-1.5 0.96862,-1.5 0.21615,0 0.39301,0.675 0.39301,1.5 0,0.825 -0.43588,1.5 -0.96862,1.5 -0.53273,0 -0.70959,-0.675 -0.39301,-1.5 z M 68.5,269 c 0.995486,-1.1 2.034975,-2 2.309975,-2 0.275,0 -0.314489,0.9 -1.309975,2 -0.995486,1.1 -2.034975,2 -2.309975,2 -0.275,0 0.314489,-0.9 1.309975,-2 z m 248.37244,0.25 c -1.24387,-1.58606 -1.2085,-1.62143 0.37756,-0.37756 0.9625,0.75485 1.75,1.54235 1.75,1.75 0,0.82304 -0.82119,0.29331 -2.12756,-1.37244 z m 39.37974,-1.75 c 0.0111,-2.2 0.21589,-2.98225 0.45508,-1.73834 0.23919,1.24391 0.23011,3.04391 -0.0202,4 -0.25029,0.95609 -0.446,-0.0617 -0.4349,-2.26166 z M 446,269.5 c -1.02262,-1.23219 -0.94468,-1.5 0.43657,-1.5 0.92481,0 1.4271,0.41157 1.11622,0.91459 -0.31089,0.50302 5e-5,1.1425 0.69098,1.42105 0.7827,0.31556 0.8312,0.53622 0.12867,0.58541 C 447.75229,270.96447 446.68469,270.325 446,269.5 Z m -134.62571,-0.96701 c -0.30962,-0.80686 -0.36997,-2.04436 -0.1341,-2.75 0.23587,-0.70564 0.66592,-0.0455 0.95566,1.46701 0.56574,2.95322 0.099,3.68204 -0.82156,1.28299 z M 75.5,267 c 0.995486,-1.1 2.034975,-2 2.309975,-2 0.275,0 -0.314489,0.9 -1.309975,2 -0.995486,1.1 -2.034975,2 -2.309975,2 -0.275,0 0.314489,-0.9 1.309975,-2 z m 261,-1 c 0,-1.65 0.3375,-3 0.75,-3 0.4125,0 0.75,1.35 0.75,3 0,1.65 -0.3375,3 -0.75,3 -0.4125,0 -0.75,-1.35 -0.75,-3 z m 39.57895,1.41667 c 0.048,-1.16495 0.28494,-1.4019 0.60416,-0.60417 0.28887,0.72187 0.25335,1.58438 -0.0789,1.91667 -0.33229,0.33229 -0.56864,-0.25834 -0.52522,-1.3125 z m 62.07017,-1.02049 c -0.74298,-0.84027 -1.08048,-1.79815 -0.75,-2.12863 0.33048,-0.33049 0.60088,-0.24578 0.60088,0.18823 0,0.43401 0.675,0.22891 1.5,-0.45578 1.26848,-1.05275 1.5,-0.84012 1.5,1.37756 0,2.95387 -0.86606,3.26331 -2.85088,1.01862 z M 299.5,265.54841 c 1.65,-0.78747 4.9125,-1.73411 7.25,-2.10363 2.3375,-0.36953 4.25,-1.14577 4.25,-1.72499 0,-0.57922 0.30475,-0.74837 0.67723,-0.3759 1.37357,1.37358 -3.41705,4.45611 -6.92533,4.45611 -1.95052,0 -4.60513,0.26554 -5.89915,0.59008 -1.67586,0.42032 -1.48965,0.17817 0.64725,-0.84167 z m 60.57895,-1.13174 c 0.048,-1.16495 0.28494,-1.4019 0.60416,-0.60417 0.28887,0.72187 0.25335,1.58438 -0.0789,1.91667 -0.33229,0.33229 -0.56864,-0.25834 -0.52522,-1.3125 z M 77.5,259 c 0.995486,-1.1 2.034975,-2 2.309975,-2 0.275,0 -0.314489,0.9 -1.309975,2 -0.995486,1.1 -2.034975,2 -2.309975,2 -0.275,0 0.314489,-0.9 1.309975,-2 z m 330,0 c 0.99549,-1.1 2.03498,-2 2.30998,-2 0.275,0 -0.31449,0.9 -1.30998,2 -0.99549,1.1 -2.03498,2 -2.30998,2 -0.275,0 0.31449,-0.9 1.30998,-2 z m -323,-2 c 0.995486,-1.1 2.034975,-2 2.309975,-2 0.275,0 -0.314489,0.9 -1.309975,2 -0.995486,1.1 -2.034975,2 -2.309975,2 -0.275,0 0.314489,-0.9 1.309975,-2 z M 337,254.62244 c 0,-0.20765 0.7875,-0.99515 1.75,-1.75 1.58606,-1.24387 1.62143,-1.2085 0.37756,0.37756 C 337.82119,254.91575 337,255.44548 337,254.62244 Z M 86,249.5 c 1.291745,-1.375 2.573628,-2.5 2.848628,-2.5 0.275,0 -0.556883,1.125 -1.848628,2.5 -1.291745,1.375 -2.573628,2.5 -2.848628,2.5 -0.275,0 0.556883,-1.125 1.848628,-2.5 z m 302,1.12244 c 0,-0.20765 0.7875,-0.99515 1.75,-1.75 1.58606,-1.24387 1.62143,-1.2085 0.37756,0.37756 C 388.82119,250.91575 388,251.44548 388,250.62244 Z M 93,247.5 c 1.291745,-1.375 2.573628,-2.5 2.848628,-2.5 0.275,0 -0.556883,1.125 -1.848628,2.5 -1.291745,1.375 -2.573628,2.5 -2.848628,2.5 -0.275,0 0.556883,-1.125 1.848628,-2.5 z m 144.97792,-6.25 -8.47792,-8.75 8.75,8.47792 c 4.8125,4.66286 8.75,8.60036 8.75,8.75 0,0.72761 -1.14804,-0.35118 -9.02208,-8.47792 z M 390,242.5 c 1.86578,-1.925 3.61733,-3.5 3.89233,-3.5 0.275,0 -1.02655,1.575 -2.89233,3.5 -1.86578,1.925 -3.61733,3.5 -3.89233,3.5 -0.275,0 1.02655,-1.575 2.89233,-3.5 z m -295,-3 c 1.291745,-1.375 2.573628,-2.5 2.848628,-2.5 0.275,0 -0.556883,1.125 -1.848628,2.5 -1.291745,1.375 -2.573628,2.5 -2.848628,2.5 -0.275,0 0.556883,-1.125 1.848628,-2.5 z m 188.56429,1.20687 c 0.37553,-0.98622 0.93469,-1.54122 1.24258,-1.23333 0.30789,0.30789 6.4e-4,1.11479 -0.68278,1.79313 -0.98762,0.98026 -1.10248,0.8654 -0.5598,-0.5598 z M 101,238.62244 c 0,-0.20765 0.7875,-0.99515 1.75,-1.75 1.58606,-1.24387 1.62143,-1.2085 0.37756,0.37756 C 101.82119,238.91575 101,239.44548 101,238.62244 Z M 427.94617,235.25 424.5,231.5 l 3.75,3.44617 c 2.0625,1.89539 3.75,3.58289 3.75,3.75 0,0.76362 -0.84622,0.0443 -4.05383,-3.44617 z m -149.07373,1 c -1.24387,-1.58606 -1.2085,-1.62143 0.37756,-0.37756 1.66575,1.30637 2.19548,2.12756 1.37244,2.12756 -0.20765,0 -0.99515,-0.7875 -1.75,-1.75 z m 142,-2 c -1.24387,-1.58606 -1.2085,-1.62143 0.37756,-0.37756 0.9625,0.75485 1.75,1.54235 1.75,1.75 0,0.82304 -0.82119,0.29331 -2.12756,-1.37244 z M 353,232.5 c 1.29175,-1.375 2.57363,-2.5 2.84863,-2.5 0.275,0 -0.55688,1.125 -1.84863,2.5 -1.29175,1.375 -2.57363,2.5 -2.84863,2.5 -0.275,0 0.55688,-1.125 1.84863,-2.5 z M 103.5,230 c 0.99549,-1.1 2.03498,-2 2.30998,-2 0.275,0 -0.31449,0.9 -1.30998,2 -0.99549,1.1 -2.03498,2 -2.30998,2 -0.275,0 0.31449,-0.9 1.30998,-2 z m 7.5,-2.5 c 1.29175,-1.375 2.57363,-2.5 2.84863,-2.5 0.275,0 -0.55688,1.125 -1.84863,2.5 -1.29175,1.375 -2.57363,2.5 -2.84863,2.5 -0.275,0 0.55688,-1.125 1.84863,-2.5 z m 153.87244,-2.25 c -1.24387,-1.58606 -1.2085,-1.62143 0.37756,-0.37756 0.9625,0.75485 1.75,1.54235 1.75,1.75 0,0.82304 -0.82119,0.29331 -2.12756,-1.37244 z m 5,0 c -1.24387,-1.58606 -1.2085,-1.62143 0.37756,-0.37756 0.9625,0.75485 1.75,1.54235 1.75,1.75 0,0.82304 -0.82119,0.29331 -2.12756,-1.37244 z M 219,216.5 c -4.09747,-4.125 -7.22494,-7.5 -6.94994,-7.5 0.275,0 3.85247,3.375 7.94994,7.5 4.09747,4.125 7.22494,7.5 6.94994,7.5 -0.275,0 -3.85247,-3.375 -7.94994,-7.5 z M 112.5,220 c 0.99549,-1.1 2.03498,-2 2.30998,-2 0.275,0 -0.31449,0.9 -1.30998,2 -0.99549,1.1 -2.03498,2 -2.30998,2 -0.275,0 0.31449,-0.9 1.30998,-2 z m 152.47994,-0.52417 c -0.69572,-0.83829 -1.07128,-1.71782 -0.83459,-1.95452 0.2367,-0.23669 0.97964,0.44918 1.65098,1.52417 1.45181,2.32472 0.96763,2.57996 -0.81639,0.43035 z M 120,217.5 c 1.29175,-1.375 2.57363,-2.5 2.84863,-2.5 0.275,0 -0.55688,1.125 -1.84863,2.5 -1.29175,1.375 -2.57363,2.5 -2.84863,2.5 -0.275,0 0.55688,-1.125 1.84863,-2.5 z m 258.8125,0.81689 c 0.72187,-0.28887 1.58438,-0.25335 1.91667,0.0789 0.33229,0.33229 -0.25834,0.56864 -1.3125,0.52522 -1.16495,-0.048 -1.4019,-0.28494 -0.60417,-0.60416 z m 15,0 c 0.72187,-0.28887 1.58438,-0.25335 1.91667,0.0789 0.33229,0.33229 -0.25834,0.56864 -1.3125,0.52522 -1.16495,-0.048 -1.4019,-0.28494 -0.60417,-0.60416 z m -48,-5 c 0.72187,-0.28887 1.58438,-0.25335 1.91667,0.0789 0.33229,0.33229 -0.25834,0.56864 -1.3125,0.52522 -1.16495,-0.048 -1.4019,-0.28494 -0.60417,-0.60416 z m -8,-1 c 0.72187,-0.28887 1.58438,-0.25335 1.91667,0.0789 0.33229,0.33229 -0.25834,0.56864 -1.3125,0.52522 -1.16495,-0.048 -1.4019,-0.28494 -0.60417,-0.60416 z M 121.5,210 c 0.99549,-1.1 2.03498,-2 2.30998,-2 0.275,0 -0.31449,0.9 -1.30998,2 -0.99549,1.1 -2.03498,2 -2.30998,2 -0.275,0 0.31449,-0.9 1.30998,-2 z m 208.3125,1.31689 c 0.72187,-0.28887 1.58438,-0.25335 1.91667,0.0789 0.33229,0.33229 -0.25834,0.56864 -1.3125,0.52522 -1.16495,-0.048 -1.4019,-0.28494 -0.60417,-0.60416 z M 130,206.5 c 1.86578,-1.925 3.61733,-3.5 3.89233,-3.5 0.275,0 -1.02655,1.575 -2.89233,3.5 -1.86578,1.925 -3.61733,3.5 -3.89233,3.5 -0.275,0 1.02655,-1.575 2.89233,-3.5 z m 184.8125,2.81689 c 0.72187,-0.28887 1.58438,-0.25335 1.91667,0.0789 0.33229,0.33229 -0.25834,0.56864 -1.3125,0.52522 -1.16495,-0.048 -1.4019,-0.28494 -0.60417,-0.60416 z m 30,0 c 0.72187,-0.28887 1.58438,-0.25335 1.91667,0.0789 0.33229,0.33229 -0.25834,0.56864 -1.3125,0.52522 -1.16495,-0.048 -1.4019,-0.28494 -0.60417,-0.60416 z m -8,-1 c 0.72187,-0.28887 1.58438,-0.25335 1.91667,0.0789 0.33229,0.33229 -0.25834,0.56864 -1.3125,0.52522 -1.16495,-0.048 -1.4019,-0.28494 -0.60417,-0.60416 z m -38,-1 c 0.72187,-0.28887 1.58438,-0.25335 1.91667,0.0789 0.33229,0.33229 -0.25834,0.56864 -1.3125,0.52522 -1.16495,-0.048 -1.4019,-0.28494 -0.60417,-0.60416 z m 30,0 c 0.72187,-0.28887 1.58438,-0.25335 1.91667,0.0789 0.33229,0.33229 -0.25834,0.56864 -1.3125,0.52522 -1.16495,-0.048 -1.4019,-0.28494 -0.60417,-0.60416 z m -130.76628,-6.77026 c -3.51781,-3.54935 -7.32981,-6.63807 -8.47111,-6.86382 -2.02835,-0.4012 -2.02944,-0.41351 -0.0483,-0.54663 1.28842,-0.0866 4.55748,2.41402 8.97318,6.86382 3.8205,3.85 6.72043,7 6.44429,7 -0.27614,0 -3.38027,-2.90402 -6.89807,-6.45337 z M 320.75,206.33772 c 0.6875,-0.27741 1.8125,-0.27741 2.5,0 0.6875,0.27741 0.125,0.50439 -1.25,0.50439 -1.375,0 -1.9375,-0.22698 -1.25,-0.50439 z m -6.9375,-1.02083 c 0.72187,-0.28887 1.58438,-0.25335 1.91667,0.0789 0.33229,0.33229 -0.25834,0.56864 -1.3125,0.52522 -1.16495,-0.048 -1.4019,-0.28494 -0.60417,-0.60416 z m -8,-1 c 0.72187,-0.28887 1.58438,-0.25335 1.91667,0.0789 0.33229,0.33229 -0.25834,0.56864 -1.3125,0.52522 -1.16495,-0.048 -1.4019,-0.28494 -0.60417,-0.60416 z m -8,-1 c 0.72187,-0.28887 1.58438,-0.25335 1.91667,0.0789 0.33229,0.33229 -0.25834,0.56864 -1.3125,0.52522 -1.16495,-0.048 -1.4019,-0.28494 -0.60417,-0.60416 z m -116,-11 c 0.72187,-0.28887 1.58437,-0.25335 1.91667,0.0789 0.33229,0.33229 -0.25834,0.56864 -1.3125,0.52522 -1.16495,-0.048 -1.4019,-0.28494 -0.60417,-0.60416 z m -8,-1 c 0.72187,-0.28887 1.58437,-0.25335 1.91667,0.0789 0.33229,0.33229 -0.25834,0.56864 -1.3125,0.52522 -1.16495,-0.048 -1.4019,-0.28494 -0.60417,-0.60416 z M 188,189.61663 c 0,-0.21085 0.90062,-0.61888 2.00138,-0.90674 1.10076,-0.28785 1.7492,-0.11534 1.44098,0.38337 C 190.90411,189.96417 188,190.4057 188,189.61663 Z m -7.1875,-1.29974 c 0.72187,-0.28887 1.58437,-0.25335 1.91667,0.0789 0.33229,0.33229 -0.25834,0.56864 -1.3125,0.52522 -1.16495,-0.048 -1.4019,-0.28494 -0.60417,-0.60416 z M 160.75,187.33772 c 0.6875,-0.27741 1.8125,-0.27741 2.5,0 0.6875,0.27741 0.125,0.50439 -1.25,0.50439 -1.375,0 -1.9375,-0.22698 -1.25,-0.50439 z m 11,0 c 0.6875,-0.27741 1.8125,-0.27741 2.5,0 0.6875,0.27741 0.125,0.50439 -1.25,0.50439 -1.375,0 -1.9375,-0.22698 -1.25,-0.50439 z m 105.41004,-18.0287 c -0.088,-5.05504 0.17746,-9.40099 0.58996,-9.65767 0.4125,-0.25667 0.62581,2.52927 0.47403,6.19099 -0.48082,11.59965 -0.89867,12.9611 -1.06399,3.46668 z m -67.78575,6.22397 c -0.30962,-0.80686 -0.36997,-2.04436 -0.1341,-2.75 0.23587,-0.70564 0.66592,-0.0455 0.95566,1.46701 0.56574,2.95322 0.099,3.68204 -0.82156,1.28299 z m -6.19612,-2.78554 c 0.923,-0.74959 1.85985,-3.13692 2.0819,-5.30517 l 0.40372,-3.94228 0.16811,4.21482 c 0.13849,3.47249 -0.22817,4.40685 -2.0819,5.30516 -1.97587,0.95751 -2.04554,0.9243 -0.57183,-0.27253 z m 33.63433,-6.43056 c 0.72187,-0.28887 1.58437,-0.25335 1.91667,0.0789 0.33229,0.33229 -0.25834,0.56864 -1.3125,0.52522 -1.16495,-0.048 -1.4019,-0.28494 -0.60417,-0.60416 z m 19,0 c 0.72187,-0.28887 1.58438,-0.25335 1.91667,0.0789 0.33229,0.33229 -0.25834,0.56864 -1.3125,0.52522 -1.16495,-0.048 -1.4019,-0.28494 -0.60417,-0.60416 z M 273.15789,164 c 0,-1.375 0.22698,-1.9375 0.50439,-1.25 0.27741,0.6875 0.27741,1.8125 0,2.5 -0.27741,0.6875 -0.50439,0.125 -0.50439,-1.25 z m -37.34539,-1.68311 c 0.72187,-0.28887 1.58437,-0.25335 1.91667,0.0789 0.33229,0.33229 -0.25834,0.56864 -1.3125,0.52522 -1.16495,-0.048 -1.4019,-0.28494 -0.60417,-0.60416 z m 21,0 c 0.72187,-0.28887 1.58438,-0.25335 1.91667,0.0789 0.33229,0.33229 -0.25834,0.56864 -1.3125,0.52522 -1.16495,-0.048 -1.4019,-0.28494 -0.60417,-0.60416 z M 282,156.62244 c 0,-0.20765 0.7875,-0.99515 1.75,-1.75 1.58606,-1.24387 1.62143,-1.2085 0.37756,0.37756 C 282.82119,156.91575 282,157.44548 282,156.62244 Z M 202.40499,151.75 200.5,149.5 l 2.25,1.90499 c 2.11444,1.79022 2.70524,2.59501 1.90499,2.59501 -0.18976,0 -1.20226,-1.0125 -2.25,-2.25 z m 37.40751,-10.43311 c 0.72187,-0.28887 1.58437,-0.25335 1.91667,0.0789 0.33229,0.33229 -0.25834,0.56864 -1.3125,0.52522 -1.16495,-0.048 -1.4019,-0.28494 -0.60417,-0.60416 z M 228.40499,138.75 226.5,136.5 l 2.25,1.90499 c 2.11444,1.79022 2.70524,2.59501 1.90499,2.59501 -0.18976,0 -1.20226,-1.0125 -2.25,-2.25 z m 10.86404,-4.44299 c 0.97297,-0.25354 2.32297,-0.23687 3,0.0371 0.67703,0.27393 -0.11903,0.48137 -1.76903,0.46099 -1.65,-0.0204 -2.20394,-0.2445 -1.23097,-0.49804 z M 223.2522,131 c 0.22245,-0.825 1.49421,-1.58309 2.82613,-1.68464 1.90949,-0.1456 1.99867,-0.0683 0.42167,0.36568 -1.1,0.30268 -2.37176,1.06077 -2.82613,1.68464 -0.54586,0.74949 -0.68891,0.62542 -0.42167,-0.36568 z m 72.82675,-0.58333 c 0.048,-1.16495 0.28494,-1.4019 0.60416,-0.60417 0.28887,0.72187 0.25335,1.58437 -0.0789,1.91667 -0.33229,0.33229 -0.56864,-0.25834 -0.52522,-1.3125 z m -58.80992,-0.10966 c 0.97297,-0.25354 2.32297,-0.23687 3,0.0371 0.67703,0.27393 -0.11903,0.48137 -1.76903,0.46099 -1.65,-0.0204 -2.20394,-0.2445 -1.23097,-0.49804 z M 191.19495,125.5 c 0.0204,-1.65 0.2445,-2.20394 0.49804,-1.23097 0.25354,0.97297 0.23687,2.32297 -0.0371,3 -0.27393,0.67703 -0.48137,-0.11903 -0.46099,-1.76903 z m 102,-5 c 0.0204,-1.65 0.2445,-2.20394 0.49804,-1.23097 0.25354,0.97297 0.23687,2.32297 -0.0371,3 -0.27393,0.67703 -0.48137,-0.11903 -0.46099,-1.76903 z m -102,-1 c 0.0204,-1.65 0.2445,-2.20394 0.49804,-1.23097 0.25354,0.97297 0.23687,2.32297 -0.0371,3 -0.27393,0.67703 -0.48137,-0.11903 -0.46099,-1.76903 z m 4,-2 c 0.0204,-1.65 0.2445,-2.20394 0.49804,-1.23097 0.25354,0.97297 0.23687,2.32297 -0.0371,3 -0.27393,0.67703 -0.48137,-0.11903 -0.46099,-1.76903 z m 101.96294,0.5 c 0,-1.375 0.22698,-1.9375 0.50439,-1.25 0.27741,0.6875 0.27741,1.8125 0,2.5 -0.27741,0.6875 -0.50439,0.125 -0.50439,-1.25 z M 302.5,117 c 0.99549,-1.1 2.03498,-2 2.30998,-2 0.275,0 -0.31449,0.9 -1.30998,2 -0.99549,1.1 -2.03498,2 -2.30998,2 -0.275,0 0.31449,-0.9 1.30998,-2 z m -62.28943,-0.60086 C 239.50139,115.62961 239.36233,115 239.90156,115 c 1.03844,0 2.54172,1.90221 1.94858,2.46567 -0.19258,0.18294 -0.93038,-0.297 -1.63957,-1.06653 z M 231.87244,111.25 c -1.24387,-1.58606 -1.2085,-1.62143 0.37756,-0.37756 0.9625,0.75485 1.75,1.54235 1.75,1.75 0,0.82304 -0.82119,0.29331 -2.12756,-1.37244 z M 306.15789,109 c 0,-1.375 0.22698,-1.9375 0.50439,-1.25 0.27741,0.6875 0.27741,1.8125 0,2.5 -0.27741,0.6875 -0.50439,0.125 -0.50439,-1.25 z m -11.96294,-1.5 c 0.0204,-1.65 0.2445,-2.20394 0.49804,-1.23097 0.25354,0.97297 0.23687,2.32297 -0.0371,3 -0.27393,0.67703 -0.48137,-0.11903 -0.46099,-1.76903 z m 15.96294,0.5 c 0,-1.375 0.22698,-1.9375 0.50439,-1.25 0.27741,0.6875 0.27741,1.8125 0,2.5 -0.27741,0.6875 -0.50439,0.125 -0.50439,-1.25 z m -118,-2 c 0,-1.375 0.22698,-1.9375 0.50439,-1.25 0.27741,0.6875 0.27741,1.8125 0,2.5 -0.27741,0.6875 -0.50439,0.125 -0.50439,-1.25 z m 106.03706,-0.5 c 0.0204,-1.65 0.2445,-2.20394 0.49804,-1.23097 0.25354,0.97297 0.23687,2.32297 -0.0371,3 -0.27393,0.67703 -0.48137,-0.11903 -0.46099,-1.76903 z m -102,-1 c 0.0204,-1.65 0.2445,-2.20394 0.49804,-1.23097 0.25354,0.97297 0.23687,2.32297 -0.0371,3 -0.27393,0.67703 -0.48137,-0.11903 -0.46099,-1.76903 z M 307.27236,95 c 0,-2.475 0.19502,-3.4875 0.43337,-2.25 0.23836,1.2375 0.23836,3.2625 0,4.5 -0.23835,1.2375 -0.43337,0.225 -0.43337,-2.25 z m 3.95964,-1 c 0,-1.925 0.2058,-2.7125 0.45733,-1.75 0.25152,0.9625 0.25152,2.5375 0,3.5 C 311.4378,96.7125 311.232,95.925 311.232,94 Z M 182.19495,93.5 c 0.0204,-1.65 0.2445,-2.203936 0.49804,-1.230968 0.25354,0.972967 0.23687,2.322967 -0.0371,3 C 182.38201,95.946064 182.17457,95.15 182.19495,93.5 Z M 295.15789,94 c 0,-1.375 0.22698,-1.9375 0.50439,-1.25 0.27741,0.6875 0.27741,1.8125 0,2.5 -0.27741,0.6875 -0.50439,0.125 -0.50439,-1.25 z M 193.19495,92.5 c 0.0204,-1.65 0.2445,-2.203936 0.49804,-1.230968 0.25354,0.972967 0.23687,2.322967 -0.0371,3 C 193.38201,94.946064 193.17457,94.15 193.19495,92.5 Z m -7,-1 c 0.0204,-1.65 0.2445,-2.203936 0.49804,-1.230968 0.25354,0.972967 0.23687,2.322967 -0.0371,3 C 186.38201,93.946064 186.17457,93.15 186.19495,91.5 Z M 197.232,91 c 0,-1.925 0.2058,-2.7125 0.45733,-1.75 0.25152,0.9625 0.25152,2.5375 0,3.5 C 197.4378,93.7125 197.232,92.925 197.232,91 Z m 102.03563,1.582866 c 0.12781,-1.054423 0.90737,-2.101182 1.73237,-2.326131 0.96478,-0.26306 1.10748,-0.11422 0.39994,0.417134 -0.60503,0.454372 -1.38459,1.501131 -1.73236,2.326131 -0.44428,1.053951 -0.56321,0.92991 -0.39995,-0.417134 z m -42.18868,-4.166199 c 0.048,-1.164943 0.28494,-1.4019 0.60416,-0.604167 0.28887,0.721875 0.25335,1.584375 -0.0789,1.916667 -0.33229,0.332291 -0.56864,-0.258334 -0.52522,-1.3125 z M 295.19495,83.5 c 0.0204,-1.65 0.2445,-2.203936 0.49804,-1.230968 0.25354,0.972967 0.23687,2.322967 -0.0371,3 C 295.38201,85.946064 295.17457,85.15 295.19495,83.5 Z m 15,-3 c 0.0204,-1.65 0.2445,-2.203936 0.49804,-1.230968 0.25354,0.972967 0.23687,2.322967 -0.0371,3 C 310.38201,82.946064 310.17457,82.15 310.19495,80.5 Z M 193.78669,79 c -0.24217,-1.65 -0.0682,-3 0.3865,-3 0.45475,0 0.82681,1.35 0.82681,3 0,1.65 -0.17393,3 -0.3865,3 -0.21258,0 -0.58464,-1.35 -0.82681,-3 z M 189.5,79 c 0.99549,-1.1 2.03498,-2 2.30998,-2 0.275,0 -0.31449,0.9 -1.30998,2 -0.99549,1.1 -2.03498,2 -2.30998,2 -0.275,0 0.31449,-0.9 1.30998,-2 z m 8.65789,-1 c 0,-1.375 0.22698,-1.9375 0.50439,-1.25 0.27741,0.6875 0.27741,1.8125 0,2.5 -0.27741,0.6875 -0.50439,0.125 -0.50439,-1.25 z m -8.07894,-5.583333 c 0.048,-1.164943 0.28494,-1.4019 0.60416,-0.604167 0.28887,0.721875 0.25335,1.584375 -0.0789,1.916667 -0.3323,0.332291 -0.56864,-0.258334 -0.52522,-1.3125 z M 296.25218,68.5 c 0.0111,-2.2 0.21589,-2.982253 0.45508,-1.738341 0.23919,1.243913 0.23011,3.043913 -0.0202,4 C 296.43679,71.717747 296.24108,70.7 296.25218,68.5 Z M 311.15789,67 c 0,-1.375 0.22698,-1.9375 0.50439,-1.25 0.27741,0.6875 0.27741,1.8125 0,2.5 -0.27741,0.6875 -0.50439,0.125 -0.50439,-1.25 z M 199.19495,64.5 c 0.0204,-1.65 0.2445,-2.203936 0.49804,-1.230968 0.25354,0.972967 0.23687,2.322967 -0.0371,3 C 199.38201,66.946064 199.17457,66.15 199.19495,64.5 Z m -8,-4 c 0.0204,-1.65 0.2445,-2.203936 0.49804,-1.230968 0.25354,0.972967 0.23687,2.322967 -0.0371,3 C 191.38201,62.946064 191.17457,62.15 191.19495,60.5 Z m 65.61755,-3.183114 c 0.72187,-0.288871 1.58438,-0.253344 1.91667,0.07895 0.33229,0.332292 -0.25834,0.568641 -1.3125,0.52522 -1.16495,-0.04798 -1.4019,-0.284941 -0.60417,-0.604167 z m 4.4375,-0.0062 c 0.9625,-0.251527 2.5375,-0.251527 3.5,0 0.9625,0.251528 0.175,0.457323 -1.75,0.457323 -1.925,0 -2.7125,-0.205795 -1.75,-0.457323 z M 312.19495,53.5 c 0.0204,-1.65 0.2445,-2.203936 0.49804,-1.230968 0.25354,0.972967 0.23687,2.322967 -0.0371,3 C 312.38201,55.946064 312.17457,55.15 312.19495,53.5 Z m -112,-2 c 0.0204,-1.65 0.2445,-2.203936 0.49804,-1.230968 0.25354,0.972967 0.23687,2.322967 -0.0371,3 C 200.38201,53.946064 200.17457,53.15 200.19495,51.5 Z M 280.75,53.337719 c 0.6875,-0.277412 1.8125,-0.277412 2.5,0 0.6875,0.277413 0.125,0.504386 -1.25,0.504386 -1.375,0 -1.9375,-0.226973 -1.25,-0.504386 z m -13.48097,-1.03071 c 0.97297,-0.253543 2.32297,-0.236869 3,0.03705 0.67703,0.273923 -0.11903,0.481368 -1.76903,0.460988 -1.65,-0.02038 -2.20394,-0.244498 -1.23097,-0.498042 z M 192.19495,47.5 c 0.0204,-1.65 0.2445,-2.203936 0.49804,-1.230968 0.25354,0.972967 0.23687,2.322967 -0.0371,3 C 192.38201,49.946064 192.17457,49.15 192.19495,47.5 Z m 16.07408,-1.192991 c 0.97297,-0.253543 2.32297,-0.236869 3,0.03705 0.67703,0.273923 -0.11903,0.481368 -1.76903,0.460988 -1.65,-0.02038 -2.20394,-0.244498 -1.23097,-0.498042 z M 246.87244,44.25 C 245.62857,42.663944 245.66394,42.628574 247.25,43.872445 248.91575,45.178814 249.44548,46 248.62244,46 c -0.20765,0 -0.99515,-0.7875 -1.75,-1.75 z M 313.27236,39 c 0,-2.475 0.19502,-3.4875 0.43337,-2.25 0.23836,1.2375 0.23836,3.2625 0,4.5 -0.23835,1.2375 -0.43337,0.225 -0.43337,-2.25 z M 193.232,34 c 0,-1.925 0.2058,-2.7125 0.45733,-1.75 0.25152,0.9625 0.25152,2.5375 0,3.5 C 193.4378,36.7125 193.232,35.925 193.232,34 Z M 224,34.5 c 1.29175,-1.375 2.57363,-2.5 2.84863,-2.5 0.275,0 -0.55688,1.125 -1.84863,2.5 -1.29175,1.375 -2.57363,2.5 -2.84863,2.5 -0.275,0 0.55688,-1.125 1.84863,-2.5 z M 194.07895,22.416667 c 0.048,-1.164943 0.28494,-1.4019 0.60416,-0.604167 0.28887,0.721875 0.25335,1.584375 -0.0789,1.916667 -0.3323,0.332291 -0.56864,-0.258334 -0.52522,-1.3125 z M 199,10.687091 c 0,-0.1721 1.4625,-1.6345996 3.25,-3.2499998 L 205.5,4.5 202.56291,7.75 C 199.82513,10.779455 199,11.459652 199,10.687091 Z m 80.75,-6.3493717 c 0.6875,-0.2774123 1.8125,-0.2774123 2.5,0 0.6875,0.2774123 0.125,0.504386 -1.25,0.504386 -1.375,0 -1.9375,-0.2269737 -1.25,-0.504386 z m -13,-1 c 0.6875,-0.2774123 1.8125,-0.2774123 2.5,0 0.6875,0.2774123 0.125,0.504386 -1.25,0.504386 -1.375,0 -1.9375,-0.2269737 -1.25,-0.504386 z m -13.5,-1.0270448 c 0.9625,-0.2515276 2.5375,-0.2515276 3.5,0 0.9625,0.2515275 0.175,0.4573228 -1.75,0.4573228 -1.925,0 -2.7125,-0.2057953 -1.75,-0.4573228 z m -12.5,-0.9729552 c 0.6875,-0.2774123 1.8125,-0.2774123 2.5,0 0.6875,0.2774123 0.125,0.504386 -1.25,0.504386 -1.375,0 -1.9375,-0.2269737 -1.25,-0.504386 z M 227.26903,0.30700928 c 0.97297,-0.25354341 2.32297,-0.23686912 3,0.037054 C 230.94606,0.61798638 230.15,0.82543099 228.5,0.8050513 226.85,0.7846716 226.29606,0.56055271 227.26903,0.30700928 Z"
         id="path3" />
      <path
         style="fill:#0d0c17"
         d="M 50,429.43992 C 34.648443,426.13089 21.993135,416.75973 11.328091,400.80367 1.5916688,386.23692 -1.5844512,372.47338 1.3472762,357.55235 3.9692505,344.2078 7.8873959,337.53659 23.182731,320.37431 88.479758,247.10715 131.46789,200.07432 135.77154,197.19216 c 14.14088,-9.47016 28.42377,-11.59026 51.78015,-7.68605 2.85281,0.47687 3.43935,-0.0178 9,-7.59032 3.27157,-4.45523 6.76705,-8.54143 7.76772,-9.08044 1.63975,-0.88324 1.74969,-1.88634 1.11329,-10.15768 -0.62664,-8.14441 -1.02871,-9.54773 -3.57128,-12.46459 -6.35412,-7.2895 -9.99651,-17.50975 -10.00663,-28.07778 -0.006,-6.36284 -0.1367,-6.71764 -3.18057,-8.64051 -5.36662,-3.39018 -6.8719,-7.64239 -6.19318,-17.49479 0.95458,-13.856884 1.44399,-15.778101 4.97225,-19.519147 l 3.26843,-3.465553 2.05567,-26.519498 c 1.72806,-22.293082 2.39564,-27.221786 4.18889,-30.926151 3.10242,-6.4087334 9.79089,-12.1524819 16.38285,-14.0688149 5.17206,-1.50356012 7.50293,-1.44564735 38.76648,0.9631946 37.79415,2.9120214 40.60378,3.6017228 46.96723,11.5294283 1.87944,2.34144 5.04442,6.113274 7.03329,8.381853 7.38208,8.42025 7.9359,11.875278 5.79059,36.124688 -0.58389,6.6 -1.16595,21.45 -1.29348,33 -0.19215,17.40272 -0.51889,21.54322 -1.90746,24.17116 -1.82099,3.44632 -6.03691,6.87298 -9.19515,7.47373 -1.59145,0.30271 -2.23085,1.7108 -3.19664,7.03956 -1.67818,9.25948 -6.4189,18.08046 -13.54918,25.21074 l -6.01394,6.01394 0.72084,15.50559 c 0.5103,10.97658 1.10831,15.80932 2.04737,16.54544 0.72958,0.57191 3.72376,2.90785 6.65372,5.19097 l 5.3272,4.15113 28.5,3.6325 c 31.58029,4.02509 36.609,5.14108 45.84476,10.17404 6.1129,3.33118 6.54899,3.41977 11.93366,2.42436 7.51569,-1.38935 12.38734,-1.27856 20.72158,0.47124 15.00242,3.14979 30.69263,14.15029 38.37718,26.90646 3.30565,5.4873 8.56852,18.47678 7.79822,19.24707 -1.30399,1.30399 -3.73986,-1.56967 -5.55852,-6.55753 C 432.83565,241.87352 417.66783,228.06292 400,223.48369 c -9.70329,-2.51495 -22.9064,-1.74319 -30.056,1.75685 -13.69227,6.70297 -25.12285,21.68799 -27.90554,36.58299 -1.49641,8.00992 1.32343,12.17647 8.24081,12.17647 4.7974,0 6.37777,-2.31026 6.97481,-10.1961 0.59603,-7.87249 4.70536,-17.47421 10.93369,-25.54729 4.2746,-5.54066 15.35573,-14.57544 17.14518,-13.97896 2.29176,0.76392 1.54199,2.53934 -2.08642,4.94051 C 371.0186,237.31022 360,255.32597 360,267.22696 c 0,5.53677 6.67534,9.3698 12.4552,7.15186 2.05014,-0.78672 4.5448,-5.5454 4.5448,-8.66944 0,-4.12358 5.77914,-14.17911 12.13637,-21.11689 6.85518,-7.48123 11.41354,-10.44994 13.22853,-8.61531 0.84878,0.85796 0.63062,1.43072 -0.8649,2.2707 -5.31803,2.98691 -12.95409,11.60823 -16.14127,18.22391 -4.05842,8.42414 -4.29782,12.68002 -0.90418,16.07366 4.7393,4.73931 12.04521,2.37307 14.03436,-4.54545 2.19359,-7.62962 11.24126,-17.66983 13.70388,-15.20721 0.80071,0.80071 -0.10471,2.27291 -3.32344,5.40387 -2.43319,2.36684 -5.01145,5.87834 -5.72949,7.80334 -3.0003,8.04365 -4.22451,9.99242 -7.26488,11.56465 -4.30042,2.22383 -10.29272,1.36737 -13.77494,-1.96881 l -2.6768,-2.56453 -2.59392,2.59391 c -3.78501,3.78502 -10.90035,4.43771 -15.037,1.37936 -2.92164,-2.16006 -3.20642,-2.19118 -5.83621,-0.63773 -8.62724,5.09624 -18.61331,-1.63571 -17.7896,-11.99257 0.19135,-2.40586 0.21334,-4.37428 0.0489,-4.37428 -0.16446,0 -1.59895,2.89728 -3.18774,6.4384 -3.08347,6.87248 -6.38733,9.56499 -11.72798,9.55786 -3.46703,-0.005 -8.77122,-3.14034 -10.3722,-6.13181 -3.06806,-5.73271 0.69037,-17.25901 8.9936,-27.58141 8.69116,-10.80468 29.04547,-21.14334 36.39434,-18.48595 2.58831,0.93594 3.88436,0.92484 5.98627,-0.0513 1.4755,-0.68521 2.68624,-1.57418 2.69053,-1.97551 0.01,-0.89593 -6.85275,-4.45277 -12.39496,-6.42446 -3.56665,-1.26888 -57.66431,-8.83585 -58.02529,-8.11636 -0.0746,0.14878 -2.37137,9.23653 -5.10383,20.19501 -2.73247,10.95848 -5.4842,20.09301 -6.11497,20.29895 -0.63076,0.20594 -6.0063,-5.57053 -11.94563,-12.8366 l -10.79879,-13.21105 -5.11724,15.34972 c -2.81448,8.44235 -5.55607,15.496 -6.09242,15.67478 -0.90187,0.30062 -32.37354,-30.89353 -51.2186,-50.76696 l -8.12336,-8.56665 -10.27856,-1.18903 C 163.43956,190.0562 153.90404,191.26889 142.92924,197.1184 134.62937,201.54218 130.99617,205.23106 91.830797,249 72.390804,270.725 47.26365,298.76618 35.992678,311.31374 24.721705,323.8613 14.06039,336.27113 12.300866,338.89116 4.1697008,350.9989 1.6548152,369.46942 6.287279,383.05782 c 4.319316,12.66984 15.337345,27.66024 25.372549,34.52021 9.995993,6.83316 15.958527,8.66923 30.329555,9.33948 10.82702,0.50496 12.533831,0.81542 12.823324,2.33249 0.299565,1.56985 -0.62581,1.74182 -8.989383,1.6705 C 60.695496,430.87678 53.575,430.21052 50,429.43992 Z M 328.46409,270.03968 c 0.97574,-1.07818 2.80175,-4.17848 4.05782,-6.88956 1.25606,-2.71108 3.8304,-6.66644 5.72076,-8.78968 1.89036,-2.12324 4.51296,-6.04623 5.82802,-8.71774 1.31505,-2.67152 4.98712,-7.69051 8.16015,-11.15332 3.17304,-3.46281 5.76916,-6.62305 5.76916,-7.02275 0,-0.3997 -2.04212,-0.49656 -4.53804,-0.21523 -11.88985,1.34016 -28.55196,14.20839 -34.94572,26.98877 -1.93393,3.8657 -3.51624,8.33854 -3.51624,9.93964 0,6.45092 9.27575,10.48793 13.46409,5.85987 z m -73.30278,-36.96927 4.61749,-13.92959 -2.1394,-1.93077 c -3.93832,-3.55427 -52.74004,-40.444 -53.01497,-40.07456 -0.14919,0.20048 -2.37572,3.14283 -4.94785,6.53855 C 197.10446,187.06977 195,190.2394 195,190.71768 195,191.74599 248.85552,247 249.85782,247 c 0.3773,0 2.76387,-6.26832 5.30349,-13.92959 z m 33.19947,-7.29735 C 290.36235,217.67324 292,210.38014 292,209.56616 c 0,-0.81398 -3.1753,-4.04548 -7.05622,-7.18112 -8.2221,-6.64316 -7.07366,-7.12065 -15.30845,6.3648 l -5.64836,9.24985 9.75652,11.87953 c 5.36608,6.53375 10.03136,11.59632 10.36729,11.25016 0.33592,-0.34616 2.24842,-7.2565 4.25,-15.35632 z M 267.86729,204.97741 274,194.95482 v -16.34313 -16.34313 l -6.75,1.88344 c -17.39385,4.85336 -36.2357,2.97812 -56.5,-5.62318 -1.59148,-0.67551 -1.74858,0.0595 -1.73436,8.11419 l 0.0156,8.85699 25.73436,19.71652 c 14.1539,10.84408 26.01214,19.73158 26.35165,19.75 0.33951,0.0184 3.37701,-4.47669 6.75,-9.98911 z m -3.88082,-43.53575 c 7.90446,-1.86298 13.50495,-5.02944 18.31785,-10.35674 3.98768,-4.41389 9.10227,-13.87053 10.05158,-18.58492 0.94365,-4.68628 2.60851,-26.28498 3.38697,-43.940273 1.06106,-24.064416 1.01437,-25.068515 -1.3104,-28.182304 -4.25048,-5.693052 -6.34414,-6.501211 -19.54716,-7.545254 -6.81192,-0.53866 -14.00346,-1.394929 -15.98119,-1.90282 -8.21592,-2.109883 -17.01169,-11.687611 -18.42709,-20.065292 -0.64981,-3.846233 -0.77841,-3.957994 -3.82473,-3.324014 -7.47582,1.555823 -13.67259,6.920673 -18.81531,16.289329 l -1.66301,3.029557 -7.51561,-0.568405 -7.51561,-0.568404 -0.53893,3.38894 c -1.43861,9.046475 -5.6729,74.75127 -5.09028,78.98745 1.58354,11.5137 10.96404,24.59105 20.72781,28.89662 13.24201,5.83938 33.7369,7.74808 47.74511,4.44653 z M 234.5,143.15583 c -3.96756,-2.42907 -10.5,-9.74503 -10.5,-11.7594 0,-1.41769 1.43733,-1.517 12.75,-0.88093 7.0125,0.39428 13.27945,1.14226 13.92655,1.66217 1.63998,1.31764 -0.11639,6.01117 -3.67501,9.82068 -3.32493,3.55935 -7.8883,3.98185 -12.50154,1.15748 z m 10.04775,-3.80185 c 2.46572,-2.66056 3.09373,-4.29313 1.70225,-4.42513 -12.05687,-1.14378 -16.25,-1.37411 -16.25,-0.89262 0,0.84152 5.12874,5.49125 7.5,6.79951 3.04792,1.6816 4.37453,1.40268 7.04775,-1.48176 z M 232.66547,116.0028 c -2.59935,-1.64846 -4.96688,-3.62468 -5.26118,-4.39161 -0.48943,-1.27544 9.80933,-25.857498 11.75636,-28.06119 0.52532,-0.594575 1.24864,-0.54071 1.93332,0.143973 0.79197,0.791964 -0.47401,4.586266 -4.58578,13.744175 -6.26687,13.957842 -6.26525,14.014842 0.48606,17.059262 4.11631,1.85619 5.41026,4.50259 2.20153,4.50259 -0.99232,0 -3.93096,-1.34874 -6.53031,-2.9972 z M 259.2125,91.8125 C 256.82219,89.422193 258.12382,84 261.08794,84 c 3.44042,0 3.70406,7.569334 0.30312,8.702981 -0.53133,0.17711 -1.51169,-0.223606 -2.17856,-0.890481 z m -41.64107,-3.383929 c -1.84273,-1.842729 -1.94264,-2.866433 -0.53625,-5.494312 1.35076,-2.523904 3.61101,-2.46388 5.00071,0.132799 0.86054,1.607934 0.75218,2.607449 -0.48787,4.5 -1.88358,2.874707 -1.94918,2.88892 -3.97659,0.861513 z M 268.5,62.289407 c -2.58194,-0.945336 -6.03832,-1.289865 -9.74961,-0.971834 -6.01112,0.51511 -7.7441,-0.247977 -5.25484,-2.313879 3.47767,-2.886212 22.36108,-0.0736 21.28003,3.16958 -0.57978,1.739317 -1.78153,1.761556 -6.27558,0.116133 z M 205.22622,59.75 c 0.62502,-1.988561 6.94163,-4.746749 10.87456,-4.748446 4.78907,-0.0021 9.89922,1.854391 9.89922,3.596271 0,1.624015 -1.03073,1.695217 -6.4261,0.443912 -2.8358,-0.657685 -5.05745,-0.516248 -8,0.509303 -5.05008,1.760075 -6.85614,1.816683 -6.34768,0.19896 z m 97.06653,58.23436 c 3.28964,-2.58763 4.39486,-6.33713 5.19292,-17.61726 l 0.64615,-9.132898 -3.81591,-0.477696 c -2.09875,-0.262732 -4.09489,-0.325035 -4.43587,-0.138451 -0.34098,0.186584 -0.92679,5.411352 -1.30179,11.610595 -0.37501,6.19924 -0.9336,12.73385 -1.24133,14.52135 -0.6705,3.89474 1.03399,4.31928 4.95583,1.23436 z M 192.41347,107.75 c 0.895,-5.77019 2.58823,-31.081629 2.11116,-31.558707 -0.77015,-0.770144 -5.37867,2.667463 -6.57644,4.905524 -0.61721,1.153249 -1.3615,7.115749 -1.654,13.25 -0.49607,10.403693 -0.38454,11.337983 1.65958,13.903183 2.85303,3.5803 3.84405,3.46919 4.4597,-0.5 z m 63.97954,321.66821 c 0.33385,-0.86998 0.60699,-1.76998 0.60699,-2 C 257,427.1882 261.90186,427 267.89301,427 278.56052,427 280,427.42586 280,430.58179 280,430.8118 274.55186,431 267.89301,431 c -10.62915,0 -12.0329,-0.19308 -11.5,-1.58179 z m 99.97231,-2.91138 c -25.39454,-5.52281 -45.07425,-22.83313 -54.0502,-47.54266 -2.48646,-6.84489 -2.71467,-8.70868 -2.75059,-22.46417 -0.0364,-13.93504 0.16041,-15.5673 2.77179,-22.9904 5.41514,-15.39309 15.68131,-28.54037 29.26248,-37.47473 7.92265,-5.21191 20.41032,-9.75223 29.99668,-10.90632 l 6.33681,-0.76288 0.49034,4.06717 c 0.26969,2.23694 0.76042,18.43517 1.09053,35.99607 l 0.60018,31.9289 3.76291,4.5711 c 2.0696,2.5141 11.7851,15.10366 21.58999,27.9768 14.04117,18.43508 17.621,23.74429 16.85666,25 -1.66513,2.73562 -19.40182,11.07435 -26.8229,12.61054 -8.58223,1.77655 -20.94095,1.77255 -29.13468,-0.009 z m -216.71466,-9.9748 c -0.30982,-0.80739 -0.19836,-1.69353 0.24768,-1.9692 0.44605,-0.27568 12.6889,-0.54576 27.20633,-0.60019 22.02311,-0.0826 26.44405,0.13567 26.68945,1.31758 0.38976,1.87712 -10.27934,2.70586 -34.93713,2.71379 -15.4722,0.005 -18.73882,-0.24368 -19.20633,-1.46198 z m -72.453087,-1.58259 c -2.874001,-1.15311 -11.17925,-9.60901 -15.252251,-15.52891 -12.693639,-18.44957 -14.990994,-38.41563 -6.523105,-56.69155 0.822856,-1.77594 2.582248,-6.26268 3.90976,-9.97053 3.633941,-10.1499 8.354632,-17.44142 16.754697,-25.87908 9.042945,-9.08342 20.870562,-15.60663 30.007076,-16.5496 5.19586,-0.53626 5.7941,-0.36713 9.16228,2.59017 4.18428,3.67384 5.37124,7.64939 3.75027,12.56096 -1.53526,4.65189 -4.94647,7.14575 -11.817063,8.63918 L 91.5,315.35672 l 3.781026,0.66927 c 5.201844,0.92075 8.084004,2.62907 10.049654,5.95667 2.34438,3.96871 2.09162,9.11596 -0.64573,13.14967 -2.06469,3.04248 -2.17771,3.73349 -1.04511,6.38954 0.69848,1.63797 1.28857,4.10313 1.31132,5.47813 0.0558,3.37517 -3.37383,8.77983 -6.465331,10.18841 l -2.518766,1.14763 2.266468,2.41254 c 1.730958,1.84252 2.266469,3.59304 2.266469,7.40882 0,4.49236 -0.37674,5.34153 -3.735315,8.41944 -2.635755,2.41549 -4.696335,3.42962 -7,3.44512 -4.110748,0.0277 -11.429673,3.29795 -14.985139,6.69577 -2.515535,2.40401 -2.773566,2.46143 -3.425563,0.76235 C 69.875791,383.62797 82.669791,376 90.608921,376 93.515714,376 97,371.54026 97,367.81969 c 0,-1.79673 -0.989137,-3.89974 -2.58466,-5.49526 -2.385481,-2.38548 -3.083176,-2.54464 -9.053697,-2.06539 -7.804126,0.62644 -16.823859,4.78937 -23.283093,10.74597 -2.431797,2.24256 -5.038703,3.84052 -5.793124,3.55102 -3.710033,-1.42367 6.474455,-10.20896 18.190921,-15.69176 5.266076,-2.46429 8.85816,-3.39147 14.842952,-3.83123 6.674037,-0.49041 8.188367,-0.94176 9.788134,-2.91739 2.653787,-3.27728 2.443677,-8.24928 -0.464037,-10.98094 -7.370462,-6.92419 -29.640598,-1.08871 -43.392793,11.37028 -5.316256,4.81633 -6.351055,5.39681 -6.930215,3.88755 -0.509326,-1.32729 0.755197,-3.0792 5.020145,-6.9551 10.799297,-9.81416 23.78526,-14.778 37.60879,-14.37582 9.005258,0.262 10.586517,-0.29138 11.941827,-4.17921 1.25572,-3.60218 0.1187,-7.06168 -3.050538,-9.2815 C 97.18385,319.74004 87.939502,319.48705 81,321.08529 c -12.972429,2.98769 -27.586307,14.26637 -33.163209,25.59467 -5.724974,11.62907 -4.98335,28.17388 1.871391,41.74864 5.168131,10.23469 14.841108,21.68914 19.959127,23.63501 C 70.950289,412.5514 72,413.63664 72,414.47525 c 0,1.70584 -1.390479,1.84314 -4.802427,0.47419 z m -8.86587,-86.28202 c 6.100104,-4.87707 10.392778,-7.23721 17.494677,-9.6187 3.479509,-1.16679 7.979509,-3.18303 10,-4.48053 3.475438,-2.23184 7.207674,-3.62223 13.395943,-4.99048 5.912167,-1.30721 8.541467,-7.61453 5.176767,-12.41832 -2.53229,-3.61535 -5.608461,-4.28404 -11.606044,-2.52289 -14.173871,4.16205 -28.885051,16.43448 -36.11347,30.12675 C 54.578342,328.74346 53.152609,332 53.511279,332 c 0.35867,0 2.527861,-1.49966 4.820424,-3.33258 z M 164.63592,389.36043 C 164.28617,386.80866 164,377.35866 164,368.36043 V 352 h -4.5 c -3.33333,0 -4.5,-0.38889 -4.5,-1.5 0,-1.23711 1.82145,-1.5 10.39301,-1.5 8.31574,0 10.50806,0.29981 10.96862,1.5 0.45872,1.19542 -0.33176,1.5 -3.89301,1.5 H 168 v 21 c 0,17.06998 -0.25528,21 -1.36408,21 -0.86471,0 -1.59687,-1.69844 -2,-4.63957 z m 25.92797,-48.78298 C 189.12302,330.9691 179.1597,321.3359 169.5417,320.25181 165.8392,319.83448 165,319.37076 165,317.74214 c 0,-1.78708 0.44372,-1.9268 4.20752,-1.32495 5.79548,0.92674 11.70763,3.6914 16.0532,7.50686 6.41342,5.63106 11.68201,20.07288 7.61032,20.86077 -1.23872,0.2397 -1.79142,-0.76822 -2.30715,-4.20737 z"
         id="path2" />
    </g>
  </g>
</svg>
