<?xml version="1.0" encoding="UTF-8" standalone="no"?>
<!-- Created with Inkscape (http://www.inkscape.org/) -->

<svg
   version="1.1"
   id="svg1"
   width="1116"
   height="450"
   viewBox="0 0 1116 450"
   sodipodi:docname="BUSINESS_05.svg"
   inkscape:version="1.3.2 (091e20e, 2023-11-25, custom)"
   xmlns:inkscape="http://www.inkscape.org/namespaces/inkscape"
   xmlns:sodipodi="http://sodipodi.sourceforge.net/DTD/sodipodi-0.dtd"
   xmlns="http://www.w3.org/2000/svg"
   xmlns:svg="http://www.w3.org/2000/svg">
  <defs
     id="defs1" />
  <sodipodi:namedview
     id="namedview1"
     pagecolor="#ffffff"
     bordercolor="#000000"
     borderopacity="0.25"
     inkscape:showpageshadow="2"
     inkscape:pageopacity="0.0"
     inkscape:pagecheckerboard="0"
     inkscape:deskcolor="#d1d1d1"
     showgrid="false"
     inkscape:zoom="0.89695341"
     inkscape:cx="558"
     inkscape:cy="224.64935"
     inkscape:window-width="1920"
     inkscape:window-height="1001"
     inkscape:window-x="-9"
     inkscape:window-y="-9"
     inkscape:window-maximized="1"
     inkscape:current-layer="g1" />
  <g
     inkscape:groupmode="layer"
     inkscape:label="Image"
     id="g1">
    <g
       id="g2">
      <path
         style="fill:#fefefe"
         d="M 0,225 V 0 h 558 558 V 225 450 H 558 0 Z"
         id="path4" />
      <path
         style="fill:#cdc9c6"
         d="M 115.71978,448.49152 C 86.33804,441.07579 56.936407,412.04501 35.719189,369.5 12.264722,322.46884 -0.00636198,267.01202 0.00341712,208.08939 0.01154976,159.0873 7.8617293,118.88884 23.982218,85.300989 37.357057,57.433837 51.874258,40.993298 71.5,31.487726 c 11.268375,-5.457748 18.562406,-6.893284 31.75405,-6.249503 15.56467,0.75959 30.14424,6.818977 44.45654,18.476506 l 5.31735,4.331046 80.73603,-0.272887 L 314.5,47.5 l 29,-7.312989 c 40.17678,-10.131462 109.29743,-26.697922 119.28077,-28.588563 23.00939,-4.3575128 50.65962,-4.1955905 74.66647,0.437253 l 10.3069,1.989027 11.98515,-3.449688 C 597.29977,-0.23599937 639.24223,-3.0520265 663,3.6420901 666.025,4.4944302 686.43883,13.923645 708.36406,24.5959 L 748.22813,44 h 132.02949 132.02948 l 8.4218,-8.085225 c 10.8798,-10.445043 16.9006,-13.401658 27.2911,-13.401658 5.9736,0 8.6193,0.524987 13,2.579601 25.8599,12.12878 45.7716,59.464363 53.1732,126.407282 1.7486,15.81481 1.7651,77.7463 0.025,93.5 -7.7388,70.06009 -25.7999,121.94646 -50.8597,146.11084 -3.7706,3.63596 -9.3269,7.90682 -12.3471,9.49079 -4.8683,2.55317 -6.5126,2.87995 -14.4914,2.87995 -7.9625,0 -9.6278,-0.32936 -14.4463,-2.85713 -14.1265,-7.41069 -26.97485,-26.27242 -36.52826,-53.62445 -4.00289,-11.46052 -9.68033,-34.14242 -11.51412,-46 -0.63794,-4.125 -1.38179,-8.2875 -1.65299,-9.25 -0.46497,-1.65016 -5.60981,-1.74902 -90.17572,-1.73286 -84.94869,0.0162 -90.07006,0.11776 -97.02275,1.92347 -4.03707,1.04848 -7.4975,2.0637 -7.68984,2.25604 -0.43745,0.43745 -12.13335,26.76336 -17.62197,39.66469 -2.25532,5.30126 -5.38409,11.50569 -6.95284,13.78762 C 750.34026,351.36545 743.12196,358 741.63343,358 c -0.31832,0 -3.06077,1.17518 -6.09433,2.6115 -3.03357,1.43633 -6.10796,2.38419 -6.83198,2.10635 -0.83325,-0.31974 -2.13127,1.27109 -3.53657,4.33437 -2.72979,5.95037 -9.65972,13.03799 -15.52325,15.87647 -6.58251,3.18654 -15.47518,4.48841 -21.63512,3.16734 C 685.20134,385.49321 682.56988,385 682.16449,385 c -0.40539,0 -0.81379,2.76819 -0.90757,6.15154 -0.45231,16.31911 -14.49496,28.90588 -30.79004,27.59786 -6.4209,-0.5154 -7.62856,-1.03778 -24.71257,-10.68941 -4.26958,-2.41211 -5.85766,-2.90101 -6.18153,-1.90301 -0.23972,0.73866 -1.12363,3.82526 -1.96425,6.8591 -3.28099,11.84131 -13.29945,19.57582 -25.10853,19.38444 -3.3,-0.0535 -7.61513,-0.78727 -9.58917,-1.63065 -1.97405,-0.84338 -13.49868,-7.82374 -25.61029,-15.51191 l -22.0211,-13.97849 -16.88972,7.77829 c -18.47999,8.51066 -22.44797,9.55202 -30.12408,7.90579 -9.74492,-2.08991 -19.2519,-11.0429 -20.86675,-19.65081 -0.35079,-1.86987 -0.92154,-3.24472 -1.26834,-3.05521 -8.29127,4.5307 -10.92533,5.23223 -19.63055,5.22821 -7.89711,-0.004 -9.64756,-0.34422 -14.28435,-2.7792 -11.32332,-5.94637 -17.45351,-15.39565 -18.0498,-27.82255 l -0.36545,-7.616 -5.1502,1.98688 c -7.55469,2.91451 -16.8459,2.71778 -23.88707,-0.50577 -11.24359,-5.14749 -17.74188,-14.73755 -18.55326,-27.38059 l -0.47112,-7.34104 -2.61938,0.73626 c -5.36989,1.5094 -15.43788,0.68465 -20.88948,-1.71121 -6.80928,-2.99255 -14.47378,-11.26002 -16.72654,-18.04243 -1.82441,-5.4928 -2.10387,-14.66876 -0.6018,-19.76009 l 0.95884,-3.25 h -47.71601 -47.71602 l -1.2043,13.84286 C 226.13718,335.32488 218.46255,365.03431 205.54689,391.5 191.47048,420.34421 172.403,439.77453 151,447.08486 c -8.37402,2.8602 -26.63625,3.58834 -35.28022,1.40666 z M 522.5,398.3097 c 33.12263,-15.22687 40.71228,-19.14735 39.86009,-20.58998 C 561.1029,375.59149 536.7963,346 536.30535,346 c -0.41335,0 -33.90692,22.48187 -54.05535,36.28355 -7.15941,4.90419 -7.25,5.02153 -7.25,9.39101 0,2.43362 0.63483,5.63991 1.41072,7.1251 3.56992,6.83336 12.49738,11.6672 19.58928,10.60676 1.925,-0.28785 13.85,-5.28137 26.5,-11.09672 z m -66.76831,-7.84206 c 2.0171,-0.8428 5.94015,-3.26879 8.71788,-5.3911 2.77774,-2.1223 18.77543,-13.14543 35.55043,-24.49584 16.775,-11.3504 30.5,-21.04942 30.5,-21.55337 0,-0.50395 -7.2,-9.78765 -16,-20.63046 -8.8,-10.8428 -16.49346,-20.38549 -17.09659,-21.20597 -0.91316,-1.24225 -4.34212,1.09145 -20.5,13.95202 C 466.23154,319.63701 452.1,330.80575 445.5,335.96235 429.20968,348.69003 427.12581,350.71714 424.38731,356.5 c -2.65958,5.6162 -3.08146,12.41856 -1.17119,18.88398 1.50502,5.09384 9.87566,13.76161 14.78388,15.30866 5.16401,1.62767 13.55237,1.52123 17.73169,-0.225 z m 116.93234,-18.02185 c 0.18632,-1.07018 1.47901,-10.49579 2.87265,-20.94579 1.39363,-10.45 3.01564,-20.5011 3.60446,-22.33577 2.54257,-7.92229 11.34333,-14.10186 20.14098,-14.14227 11.76639,-0.054 19.83918,7.65005 21.50891,20.52657 0.70244,5.41696 0.75843,5.25761 6.07538,-17.29059 6.08364,-25.79954 8.56767,-32.11105 14.26123,-36.23544 12.03534,-8.71835 28.15583,-4.8316 35.16086,8.4775 1.76421,3.35187 2.17283,6.22793 2.5219,17.75 0.22911,7.5625 0.703,13.74596 1.05308,13.74102 0.35009,-0.005 2.38172,-6.41744 4.51474,-14.25 8.97879,-32.97058 9.50975,-34.45149 13.77677,-38.42441 3.15631,-2.93877 7.14693,-4.33784 12.71454,-4.45758 9.21799,-0.19825 17.16318,6.78305 18.84462,16.55844 l 0.78585,4.56869 9.99799,-12.60077 c 11.74412,-14.80145 15.98765,-18.87109 21.18123,-20.31327 5.5086,-1.52965 7.0153,-1.36188 12.93972,1.44082 9.57534,4.52986 13.18873,15.70685 8.45105,26.14088 l -1.88609,4.15383 3.15805,-1.13159 c 2.2391,-0.80231 35.02114,-1.29689 112.65805,-1.69969 100.90028,-0.52348 109.9712,-0.70735 115.5,-2.34116 15.627,-4.61796 29.8497,-14.5342 38.5628,-26.88642 11.4755,-16.26844 23.4192,-45.2564 27.914,-67.74879 3.7905,-18.96774 4.5581,-33.31764 3.1391,-58.68551 -1.8963,-33.89857 -2.6776,-41.162573 -5.1266,-47.658161 -4.3742,-11.602351 -14.3839,-20.844633 -26.693,-24.646519 C 1043.9023,52.034886 1041.2064,52 894.98401,52 H 746.1787 L 715.33935,36.885816 C 657.88873,8.7296044 658.96272,9.1145069 635.5,8.2726211 615.94249,7.5708616 587.94738,11.090184 565.93308,17.018019 l -4.34742,1.170639 6.63636,2.32069 c 8.81456,3.082391 16.17642,6.428278 58.77798,26.713964 5.775,2.749896 21.975,10.402985 36,17.006864 14.025,6.60388 31.06324,14.653677 37.86276,17.888439 C 707.66228,85.353377 713.5245,88 713.8899,88 c 2.00726,0 7.05371,6.182485 7.65271,9.375455 1.41241,7.528755 -1.28901,11.497735 -12.29103,18.058265 -13.41528,7.99955 -30.94164,12.30398 -45.75158,11.23647 -7.07492,-0.50996 -27.73898,-4.52212 -89.5,-17.37744 -13.97903,-2.90968 -19.71318,-3.64234 -28.5,-3.64149 -16.16984,0.002 -20.81169,1.28983 -27.5017,7.6326 -3.02594,2.86888 -24.40094,22.92035 -47.5,44.55884 -23.09907,21.63848 -42.12923,39.69376 -42.28925,40.12284 -0.26779,0.71806 2.97304,4.85842 26.24884,33.53446 8.19419,10.09533 20.07093,24.76546 40.07454,49.5 6.00484,7.425 23.47412,29.025 38.82063,48 15.34651,18.975 29.98268,37.08569 32.52484,40.24598 4.74939,5.90423 6.19648,6.58656 6.78613,3.19981 z M 406.39185,355.60963 c 1.83019,-0.7647 7.55539,-4.96541 12.72266,-9.33492 5.16727,-4.36951 9.91856,-8.13134 10.55841,-8.35964 0.972,-0.34679 51.41104,-39.98744 59.12573,-46.46762 l 2.44358,-2.05255 -4.9954,-6.00258 c -2.74746,-3.30141 -9.88946,-12.06371 -15.87111,-19.47177 -5.98165,-7.40806 -11.13487,-13.68326 -11.45161,-13.94488 -0.56855,-0.46961 -7.97144,5.89341 -55.81267,47.97266 -20.61434,18.13156 -24.75249,22.23276 -26.74023,26.50144 -5.422,11.64379 -0.47594,25.266 11.12879,30.65038 4.8115,2.23245 14.16453,2.48469 18.89185,0.50948 z m -40.8062,-36.41442 c 1.80341,-0.93236 7.9219,-5.8007 13.59664,-10.81853 5.67474,-5.01783 24.49271,-21.56913 41.81771,-36.78067 17.325,-15.21154 31.61088,-27.98105 31.74639,-28.37668 0.13552,-0.39563 -6.77893,-9.41976 -15.36543,-20.05361 l -15.61183,-19.33429 -3.13456,2.91899 c -60.5533,56.38872 -82.70427,77.76212 -84.55647,81.58825 -2.43411,5.02819 -2.78148,14.04706 -0.72964,18.94345 5.18268,12.36759 20.4472,18.00853 32.23719,11.91309 z"
         id="path3" />
      <path
         style="fill:#090817"
         d="M 119,448.57566 C 65.039255,437.204 17.901408,360.63184 4.1028834,261.93329 -8.4689479,172.00907 11.035111,84.041764 52.051781,45.67394 66.709375,31.962929 82.707175,25.037624 99.792158,25.007554 c 6.180812,-0.01088 18.737692,2.770505 25.705772,5.6939 5.60633,2.352082 18.82242,10.55418 24.50207,15.206342 l 2.5,2.047732 -39.09895,0.02224 L 74.30209,48 64.864594,57.75 C 49.831372,73.281018 38.932295,91.270584 32.077026,111.86781 27.051878,126.96628 25.544352,137.2996 25.565643,156.5 c 0.02097,18.91548 1.356081,27.8075 6.6368,44.20215 3.653744,11.3435 15.784473,35.69723 22.531382,45.23415 10.882995,15.38336 26.54471,27.36333 44.494977,34.03512 14.349828,5.33356 14.413438,5.33848 74.542178,5.76419 l 56.27099,0.3984 -0.59625,6.683 c -2.96405,33.22244 -8.14502,58.07807 -17.10777,82.0743 -14.32421,38.35058 -37.66918,64.67016 -64.33795,72.53584 -7.71791,2.27632 -21.12815,2.80742 -29,1.14851 z m 365.05357,-33.25167 c -6.63487,-2.41973 -13.56907,-9.84957 -15.54904,-16.66042 l -1.61328,-5.54948 -4.47122,2.37737 c -6.67593,3.54963 -14.19168,4.83698 -20.94771,3.58806 -16.06258,-2.96933 -26.9307,-15.80076 -26.95936,-31.82952 -0.007,-3.9875 -0.23796,-7.11377 -0.51296,-6.94727 -10.68831,6.47139 -25.46152,5.80302 -35.15505,-1.59048 -8.25491,-6.29623 -12.37939,-15.11847 -12.15495,-25.99939 0.11392,-5.5229 0.021,-5.75119 -2.03531,-5 -1.18508,0.43293 -5.97969,0.7717 -10.65469,0.75284 -9.74254,-0.0393 -14.44818,-1.91388 -20.83368,-8.29938 -6.14215,-6.14215 -8.60155,-12.31205 -8.63646,-21.66632 -0.0556,-14.90471 -5.81582,-8.62691 92.88704,-101.23391 86.58105,-81.23383 87.47417,-82.03411 95.08978,-85.20449 4.22829,-1.76025 7.88045,-3.00781 8.11589,-2.77236 0.23545,0.23544 -20.7527,20.33418 -46.64033,44.66385 l -47.06841,44.23577 3.36899,4.15557 c 1.85294,2.28556 34.1293,42.18057 71.72524,88.65557 37.59594,46.475 68.78361,84.78822 69.30593,85.14049 0.52232,0.35228 0.65671,2.20214 0.29864,4.11082 -0.59055,3.1479 -1.32281,3.77807 -7.88183,6.78286 -3.97694,1.8219 -14.6558,6.87716 -23.7308,11.23392 -35.69785,17.13793 -37.99732,18.07758 -45,18.38871 -4.16671,0.18513 -8.09612,-0.29331 -10.94643,-1.33281 z m 35.39313,-14.97426 c 11.57932,-5.30764 26.36619,-12.29884 32.85971,-15.53598 l 11.80642,-5.88572 -3.80642,-4.74687 c -17.72536,-22.10478 -23.73899,-29.03656 -24.70205,-28.47352 -0.6074,0.35511 -14.71686,9.84566 -31.35436,21.09012 -29.75865,20.11239 -30.25,20.49987 -30.25,23.85547 0,7.2798 4.60916,14.2764 11.5,17.45673 7.65871,3.53472 10.94354,2.78381 33.9467,-7.76023 z m -65.78939,-8.8406 c 2.76117,-0.81998 7.90535,-3.66093 11.4315,-6.31321 3.52616,-2.65229 19.68619,-13.747 35.91119,-24.65492 16.225,-10.90792 29.86139,-20.15086 30.30308,-20.53987 1.11468,-0.98172 -33.65555,-43.52642 -35.4639,-43.39348 -2.66647,0.19602 -67.52811,52.3239 -70.28028,56.48271 -9.52432,14.39222 -2.17969,34.07919 14.37989,38.54467 6.0935,1.64318 7.81455,1.62739 13.71852,-0.1259 z m -45.8517,-35.90861 c 1.76838,-0.91446 6.31932,-4.33427 10.1132,-7.59956 3.79389,-3.26529 8.40767,-6.96381 10.25286,-8.21893 1.84519,-1.25512 16.93539,-13.02712 33.53378,-26.16001 l 30.17889,-23.87799 -16.08649,-19.9022 c -8.84758,-10.9462 -16.4452,-20.12388 -16.88362,-20.39484 -0.43841,-0.27095 -15.78916,12.68013 -34.11278,28.78018 -18.32362,16.10006 -36.1358,31.71223 -39.58262,34.69372 -7.43222,6.42885 -9.78345,9.95057 -11.26946,16.87961 -2.18018,10.16581 3.526,21.1223 13.47977,25.88259 4.12176,1.9712 6.20232,2.34602 11.11605,2.0026 3.32485,-0.23238 7.49204,-1.1707 9.26042,-2.08517 z m -43.27032,-35.47746 c 3.15965,-1.43526 49.83962,-41.48534 84.78006,-72.73886 l 4.81535,-4.30723 -16.1989,-20.03876 -16.19889,-20.03876 -7.1532,6.75028 c -3.93426,3.71265 -23.15958,21.74529 -42.72293,40.07254 -20.28906,19.0071 -36.50889,34.99328 -37.75587,37.21197 -6.49293,11.55261 -1.89905,26.39921 10.00385,32.33067 6.43553,3.20697 14.38979,3.50213 20.43053,0.75815 z M 614.2,406.8 c -1.36157,-1.36157 -1.608,-18.898 -0.54372,-38.69145 0.54006,-10.04389 0.95834,-12.36712 2.36186,-13.11826 1.1243,-0.6017 2.30208,-0.47663 3.45581,0.367 1.61997,1.18455 1.69508,3.08379 1.00923,25.51874 -0.5819,19.03455 -1.05073,24.54866 -2.18352,25.68145 -1.75562,1.75562 -2.54015,1.80203 -4.09966,0.24252 z m 414.7293,-4.11237 C 1013.5111,398.3449 999.94107,382.06424 988.99315,354.77397 983.41319,340.86463 977.06858,317.17269 974.39182,300.25 L 972.61234,289 h -88.88956 c -86.3466,0 -89.11935,0.0587 -96.92197,2.05086 -4.41784,1.12797 -8.2246,1.85868 -8.45948,1.62381 -0.23488,-0.23488 0.33229,-2.0194 1.26036,-3.9656 C 782.87064,281.85401 780.27693,282 898.79555,282 c 101.75375,0 105.11895,-0.0599 112.73645,-2.00819 12.1292,-3.10212 21.5059,-8.24283 30.5448,-16.746 16.0071,-15.05837 30.4731,-45.35341 37.5253,-78.58646 2.1065,-9.92684 2.6731,-15.83144 3.0861,-32.15935 0.5855,-23.1485 -1.7853,-64.689571 -4.0599,-71.136304 -4.2612,-12.077475 -11.2094,-20.06284 -22.1396,-25.444098 L 1049.543,52.5 897.52151,52 745.5,51.5 710.5,34.153355 C 659.2798,8.7676809 661.68794,9.6987357 642.76611,7.9655601 623.90055,6.2375389 596.74678,9.0285765 570.62802,15.380373 c -9.40056,2.286111 -10.13107,2.327057 -15.29723,0.857413 -2.98387,-0.84884 -5.06648,-1.863723 -4.62801,-2.255297 1.04766,-0.935608 17.79355,-5.5419995 27.29034,-7.5069167 31.44682,-6.50645125 63.80729,-7.6216541 82.85428,-2.8553145 4.09249,1.0241098 22.3763,9.3064822 47.51158,21.5222482 L 749.21796,45 h 131.47612 131.47612 l 7.6649,-7.814471 c 9.6711,-9.859827 16.6315,-13.518374 26.6649,-14.015782 11.0764,-0.549112 17.0963,2.177929 27,12.231003 15.5453,15.779811 27.0905,42.413869 34.4846,79.55368 18.8243,94.5532 2.0952,215.02233 -37.0788,267.01008 -12.7798,16.96012 -28.2394,24.59229 -41.9765,20.72312 z M 677.51671,368.81697 c -1.14965,-3.20826 -2.34362,-43.32061 -1.32597,-44.5468 1.67284,-2.01565 4.77871,-1.48244 5.70732,0.97983 0.4667,1.2375 1.01807,11.7 1.22525,23.25 l 0.37669,21 -2.75569,0.31697 c -1.61889,0.18621 -2.95036,-0.22631 -3.2276,-1 z m 49.15222,-8.23733 c -0.29977,-0.7812 -0.16263,-17.49259 0.30475,-37.13643 0.86679,-36.43053 0.98461,-37.37807 4.65388,-37.4279 3.16575,-0.043 3.34531,2.60508 2.5814,38.07015 -0.41954,19.478 -1.11475,35.97704 -1.5449,36.66454 -1.06622,1.70411 -5.32223,1.58317 -5.99513,-0.17036 z"
         id="path2" />
    </g>
  </g>
</svg>
