<?xml version="1.0" encoding="UTF-8" standalone="no"?>
<!-- Created with Inkscape (http://www.inkscape.org/) -->

<svg
   version="1.1"
   id="svg1"
   width="631"
   height="450"
   viewBox="0 0 631 450"
   sodipodi:docname="BUSINESS_33.svg"
   inkscape:version="1.3.2 (091e20e, 2023-11-25, custom)"
   xmlns:inkscape="http://www.inkscape.org/namespaces/inkscape"
   xmlns:sodipodi="http://sodipodi.sourceforge.net/DTD/sodipodi-0.dtd"
   xmlns="http://www.w3.org/2000/svg"
   xmlns:svg="http://www.w3.org/2000/svg">
  <defs
     id="defs1" />
  <sodipodi:namedview
     id="namedview1"
     pagecolor="#ffffff"
     bordercolor="#000000"
     borderopacity="0.25"
     inkscape:showpageshadow="2"
     inkscape:pageopacity="0.0"
     inkscape:pagecheckerboard="0"
     inkscape:deskcolor="#d1d1d1"
     showgrid="false"
     inkscape:zoom="1.2725832"
     inkscape:cx="315.5"
     inkscape:cy="225.13263"
     inkscape:window-width="1920"
     inkscape:window-height="1001"
     inkscape:window-x="-9"
     inkscape:window-y="-9"
     inkscape:window-maximized="1"
     inkscape:current-layer="g1" />
  <g
     inkscape:groupmode="layer"
     inkscape:label="Image"
     id="g1">
    <g
       id="g2"
       transform="translate(0,0.06212827)">
      <path
         style="fill:#fefefe"
         d="M 0,225 V 0 H 315.5 631 V 225 450 H 315.5 0 Z"
         id="path6" />
      <path
         style="fill:#9faec0"
         d="M 345.10139,445.93908 C 307.25228,425.30853 276.12842,389.14369 258.9437,345.82683 l -1.85395,-4.67317 5.40999,-6.78863 c 2.9755,-3.73374 5.31781,-6.86351 5.20513,-6.95505 -0.11268,-0.0915 -37.17142,5.12516 -82.35276,11.59265 -45.18133,6.46749 -83.38859,11.52189 -84.905,11.23201 C 96.455698,349.47163 88.575624,341.33067 86.668631,336 82.65814,324.78935 0,12.710505 0,8.7793949 0,3.3484846 2.2171363,-0.00172075 5.806704,0.00517085 7.2880168,0.00801481 71.104241,10.759468 147.62054,23.89729 c 94.24972,16.182645 139.93536,24.420842 141.64687,25.542269 4.20837,2.757432 7.32735,8.417563 12.29504,22.312329 l 4.73785,13.251887 4.09985,1.102815 c 2.25492,0.606549 6.97459,2.405699 10.48817,3.998113 4.78518,2.168731 7.92202,2.899598 12.5,2.912435 C 336.74974,93.026563 342.875,93.918851 347,95 c 6.86643,1.799668 10.98303,1.967172 48.73095,1.982862 L 436.9619,97 l 0.50782,-2.25 c 0.2793,-1.2375 2.289,-12.080044 4.46599,-24.094541 2.17699,-12.014498 4.62218,-22.857965 5.43376,-24.096594 0.81158,-1.238629 2.74796,-2.767785 4.30307,-3.398125 C 453.9115,42.253208 616.77311,28 624.9039,28 628.36701,28 631,31.496394 631,36.095132 631,42.168744 585.25062,289.86255 583.30755,294.30899 581.34691,298.79565 577.26537,302 573.51113,302 c -2.1622,0 -136.42454,-58.39492 -149.6666,-65.09472 -4.48093,-2.26712 -7.52209,-5.99412 -8.81795,-10.80658 -0.76018,-2.82308 -0.42423,-6.64449 1.4966,-17.02387 C 417.88543,201.71382 419,195.31066 419,194.84559 c 0,-0.99645 -13.37585,-0.9585 -17,0.0482 -2.03045,0.56402 -3.50009,2.94001 -7.8247,12.65032 -5.94991,13.3597 -6.49068,14.1339 -11.84344,16.95586 -2.0865,1.1 -5.63761,3.9125 -7.89134,6.25 -3.75262,3.8921 -4.52069,4.25 -9.12083,4.25 h -5.02315 l 11.35173,31.54281 c 6.42994,17.86673 11.35173,33.08511 11.35173,35.1 0,2.68283 -0.80207,4.35926 -3.26308,6.82027 -2.92142,2.92142 -4.20407,3.38814 -12.25,4.45747 -4.94281,0.65692 -9.66192,1.30487 -10.48692,1.4399 -3.88422,0.63571 27.7592,18.51535 43.48651,24.5714 l 7.74853,2.98369 53.95163,-27.02747 c 62.05279,-31.08581 56.18947,-29.52611 62.38636,-16.59538 3.69734,7.71506 4.1958,10.81447 2.07234,12.88588 -0.74504,0.72679 -21.79225,11.65179 -46.77157,24.27779 l -45.41694,22.95637 -40.45409,45.79363 c -22.24975,25.1865 -40.69004,45.78731 -40.97843,45.77957 -0.28839,-0.008 -3.85372,-1.82882 -7.92295,-4.04685 z M 381.64223,411.267 c 15.87177,-18.00314 30.88761,-34.99064 33.36852,-37.75 9.35965,-10.41012 9.30324,-10.17061 1.48925,-6.32276 l -7,3.44701 -12.5,-1.0973 c -9.58005,-0.84098 -12.43149,-1.41339 -12.20674,-2.45042 0.46577,-2.14905 12.12462,-18.3783 14.85827,-20.68287 l 2.47834,-2.08935 -4.81493,-1.80023 C 388.60188,339.2634 370.66758,329.91035 361,323.58221 344.79499,312.97484 330.38565,300.06124 316.99545,284.14547 l -4.50456,-5.35417 -24.74544,31.10171 C 274.13545,326.99896 263,341.64912 263,342.44893 c 0,3.13616 10.95957,25.59707 17.78669,36.45265 10.02673,15.94316 30.91124,38.74092 45.29692,49.44662 8.67438,6.4554 23.63855,15.6518 25.46824,15.6518 0.67794,0 14.21861,-14.72985 30.09038,-32.733 z m -36.59469,9.29029 c -1.05968,-1.27684 -1.04577,-1.87245 0.0772,-3.30729 1.29065,-1.64905 26.6939,-31.06346 29.54857,-34.21429 1.16184,-1.28238 1.52909,-1.26185 2.95619,0.16526 1.50606,1.50606 0.54697,2.86738 -12.65643,17.96429 -19.81015,22.65114 -18.37772,21.25707 -19.92557,19.39203 z M 313.10605,396.0867 c -1.06502,-0.67438 3.85842,-7.04208 20.86426,-26.98469 C 346.21233,354.74591 356.57201,343 356.99182,343 c 0.41981,0 1.24791,0.58393 1.84021,1.29761 0.82391,0.99275 -4.07971,7.33618 -20.87163,27 -12.07171,14.13632 -22.28872,25.6955 -22.70448,25.68708 -0.41576,-0.008 -1.3832,-0.41252 -2.14987,-0.89799 z m -13.91748,-14.35948 c -0.7951,-0.95805 3.04622,-6.16515 15.53432,-21.05752 14.78311,-17.62923 16.75486,-19.62052 18.09797,-18.27741 1.79091,1.79091 3.60403,-0.7763 -16.14345,22.85771 -8.15709,9.7625 -15.1914,17.75 -15.63179,17.75 -0.4404,0 -1.27607,-0.57275 -1.85705,-1.27278 z M 402,364.46016 c 0,-0.29691 -0.94497,-2.39213 -2.09993,-4.65605 l -2.09994,-4.11621 -2.00374,3.16469 C 393.15263,363.02813 394.00978,365 398.46862,365 400.41088,365 402,364.75707 402,364.46016 Z M 188.4414,334.00838 c 46.13135,-6.59539 83.9595,-12.10789 84.06256,-12.25 5.30748,-7.31849 39.9923,-49.7467 40.50434,-49.54693 0.40679,0.1587 3.53694,3.82033 6.95589,8.13696 6.93382,8.75433 16.7309,18.86831 25.03917,25.84908 l 5.50335,4.62403 12.18644,-1.73835 c 6.70254,-0.95609 12.88853,-2.32103 13.74664,-3.0332 2.91171,-2.4165 1.58051,-8.21957 -8.12363,-35.41321 -5.32611,-14.92522 -9.78861,-27.28676 -9.91667,-27.47009 -0.12805,-0.18334 -1.18829,0.62213 -2.35609,1.78993 -4.65855,4.65855 -10.24942,4.83225 -17.06436,0.53017 -3.91486,-2.47134 -5.58426,-1.99195 -7.84534,2.25288 -1.68836,3.16964 -6.81306,5.57407 -10.5781,4.96309 -1.72416,-0.2798 -7.46451,-3.27904 -12.75633,-6.66499 l -9.62151,-6.15628 -6.06036,3.05927 c -8.17813,4.12831 -13.0444,4.12316 -16.52851,-0.0175 -1.42389,-1.69219 -2.58889,-3.94219 -2.58889,-5 0,-2.28209 -0.8184,-2.3752 -3.44113,-0.39147 -3.19456,2.41624 -9.93101,1.86739 -13.45289,-1.09608 -3.59334,-3.0236 -5.42061,-8.47799 -4.04887,-12.08593 1.38296,-3.63747 1.26095,-3.70948 -2.42514,-1.43135 -5.27747,3.26165 -10.14078,2.77275 -14.35681,-1.44328 -3.28829,-3.28829 -3.49276,-3.85878 -3.04673,-8.50067 0.34002,-3.5387 0.15946,-4.72664 -0.62516,-4.11305 -2.32447,1.81779 -6.66823,2.13826 -10.01707,0.73902 -4.82154,-2.01457 -6.87141,-5.54648 -6.43124,-11.08098 L 215.51441,194 h -14.61006 -14.61007 l -0.6077,11.75 c -0.98122,18.97199 -5.00203,31.29742 -13.06254,40.04204 -7.64984,8.2991 -17.21331,10.92282 -28.18634,7.73287 -8.42534,-2.44931 -13.79128,-5.88956 -23.09962,-14.8098 C 100.23441,218.49133 85.433115,185.26153 81.979675,150.35313 79.564601,125.94085 84.671398,105.23336 95.868256,94.036506 106.21981,83.684955 120.62226,83.490373 135.69548,93.498427 L 140.96923,97 h 38.37838 38.37838 l 26.887,-6.699017 26.88701,-6.699018 14.74819,-0.05098 c 8.1115,-0.02804 14.6365,-0.297174 14.5,-0.598073 C 300.61168,82.65201 298.7,77.309088 296.5,71.07975 293.65244,63.016832 291.49162,58.649286 289,55.920438 L 285.5,52.087196 150.66469,29.001535 C 76.505273,16.304421 13.534403,5.4806397 10.729426,4.9486867 5.2764206,3.9145455 4.0460603,4.5528227 4.0153128,8.4317851 3.9857389,12.162682 90.134903,332.5514 92.363858,337 c 2.266156,4.52285 7.522896,9 10.567132,9 0.89937,0 39.37906,-5.39623 85.51041,-11.99162 z M 51.574409,39.485787 C 49.093646,36.809 47.677388,32.004289 48.634176,29.510938 c 0.927182,-2.416196 5.014746,-1.77272 7.314972,1.151544 5.880448,7.475778 1.870925,15.562488 -4.374739,8.823305 z M 39.251808,39.46382 c -2.990324,-2.094504 -4.862287,-8.454612 -3.33073,-11.316353 1.422101,-2.65722 2.138798,-2.674809 5.371672,-0.13183 3.346218,2.632136 5.227769,8.143247 3.733457,10.935394 -1.309341,2.446526 -2.82184,2.580842 -5.774399,0.512789 z M 25.050852,37.337518 C 21.373203,32.662146 21.025555,27.642894 24.2392,25.619111 c 3.610227,-2.27353 9.519171,7.098524 7.654165,12.140114 -1.122716,3.034991 -4.276358,2.840631 -6.842513,-0.421707 z M 576.29275,295.98436 c 1.40936,-1.1086 3.02182,-3.4711 3.58325,-5.25 0.56142,-1.7789 11.41051,-59.8206 24.10907,-128.98155 16.60302,-90.425986 22.81812,-126.252036 22.12642,-127.544482 -0.91582,-1.711238 -5.06175,-1.455873 -86.5955,5.333787 -77.55473,6.458311 -85.81022,7.31159 -87.5055,9.04448 -1.39247,1.423367 -2.91405,7.67603 -5.94118,24.414179 C 443.83119,85.376199 442,95.838699 442,96.250774 442,96.662848 455.32809,97 471.61798,97 h 29.61799 l 3.58121,-3.144344 c 14.30123,-12.55665 26.05657,-5.983913 30.75321,17.194984 2.28264,11.26527 1.50205,37.00173 -1.56047,51.44936 -13.14058,61.99167 -47.84622,89.75645 -58.18723,46.55025 -0.9939,-4.15264 -1.8106,-9.23775 -1.81489,-11.30025 L 474,194 h -24.91714 -24.91713 l -1.01121,4.75 c -2.73026,12.82493 -4.37165,24.24876 -3.80721,26.49767 0.34503,1.37469 1.42053,3.46572 2.39001,4.64674 1.06661,1.29935 31.18198,15.1511 76.26268,35.07749 40.975,18.1116 74.77681,32.95222 75.11514,32.97914 0.33833,0.0269 1.76825,-0.85808 3.17761,-1.96668 z M 460.4807,62.609547 c -1.61066,-1.177743 -1.72571,-1.776389 -0.75209,-3.913265 1.3704,-3.007695 4.79074,-4.340073 6.81938,-2.656456 1.99673,1.657138 1.8187,3.593489 -0.54799,5.960174 -2.37229,2.372286 -3.01199,2.442934 -5.5193,0.609547 z m 10.60204,-1.454941 C 469.71757,58.603766 472.35563,55 475.58809,55 c 3.00758,0 4.05982,2.282582 2.56481,5.56377 -1.35181,2.966894 -5.60817,3.322588 -7.07016,0.590836 z m 11.58393,1.178727 c -2.70175,-2.701749 2.03654,-9.151925 5.69243,-7.74903 2.34901,0.901404 2.14332,6.076441 -0.29336,7.380513 -2.21637,1.186166 -4.43031,1.33728 -5.39907,0.368517 z"
         id="path5" />
      <path
         style="fill:#f9ca42"
         d="M 343.45804,444.88957 C 329.87599,437.14122 319.79244,429.56724 307.80834,418.1123 295.6262,406.46807 287.48241,396.77592 278.7255,383.5 c -6.15628,-9.33323 -14.76327,-25.71067 -19.02866,-36.20785 l -2.45957,-6.05303 5.39624,-6.77136 c 2.96792,-3.72424 5.2707,-6.89689 5.11727,-7.05032 -0.15343,-0.15343 -36.25814,4.86488 -80.2327,11.1518 -43.97455,6.28692 -81.76821,11.42908 -83.9859,11.42702 -6.547835,-0.006 -13.56086,-5.6811 -16.467261,-13.32551 C 84.049253,328.73895 0,11.90495 0,8.4688291 0,3.6902182 2.28425,0 5.2422166,0 6.4130614,0 49.250045,7.1863604 100.43551,15.96969 151.62098,24.753019 213.3,35.331627 237.5,39.477707 c 54.11001,9.270431 48.99124,8.136696 53.12536,11.766507 4.28751,3.764484 5.61997,6.304251 10.53259,20.075879 2.13719,5.991221 4.29787,11.663096 4.80151,12.604166 0.77764,1.453034 0.50459,1.650695 -1.81084,1.310861 -2.50888,-0.368224 -3.06882,-1.381269 -7.01324,-12.688205 C 292.8707,60.321902 290.13985,55.192944 286.77746,53.093097 285.80813,52.487737 241.69915,44.549371 188.75752,35.452283 135.81588,26.355195 72.956173,15.549429 49.069272,11.439468 3.1819078,3.5441259 4.0503954,3.595983 4.0153128,8.7493114 3.9945503,11.79913 89.548761,331.5075 91.667936,336.29926 93.867899,341.27369 99.300988,346 102.81934,346 c 2.34883,0 158.19067,-21.9537 166.68066,-23.48058 2.4907,-0.44794 6.38362,-4.78196 22.93119,-25.52948 10.96215,-13.74447 20.18715,-24.97184 20.5,-24.94973 0.31284,0.0221 2.59381,2.78527 5.06881,6.14033 5.14805,6.97859 21.27688,23.70714 28.11045,29.15568 l 4.61045,3.67601 11.38955,-1.61652 c 12.18898,-1.72998 15.52374,-3.09004 16.43,-6.70086 0.37435,-1.49153 -3.05987,-12.37918 -9.93193,-31.48762 -9.44425,-26.26064 -10.42913,-29.63657 -9.76078,-33.4575 l 0.74336,-4.24973 1.07391,3 c 0.59066,1.65 5.72266,15.825 11.40446,31.5 11.64243,32.11923 12.37857,36.00651 7.70388,40.68119 -2.33735,2.33736 -4.2648,2.95685 -13.5,4.33897 l -10.77335,1.61231 8.88047,5.83182 c 10.53343,6.91732 24.71712,14.27105 35.67995,18.49876 l 7.91559,3.05258 54.10997,-27.05863 c 62.20494,-31.10665 56.31811,-29.53673 62.48705,-16.66431 3.40524,7.10555 4.06852,10.17857 2.66166,12.33173 C 526.83061,311.24285 505.8,322.13553 480.5,334.83037 l -46,23.08153 -40.5,46.02437 c -22.275,25.31341 -40.74388,46.03323 -41.04196,46.04405 -0.29808,0.0108 -4.57308,-2.28001 -9.5,-5.09075 z M 385.5,407.41338 c 18.15,-20.60086 34.11511,-38.85477 35.47803,-40.56425 l 2.47803,-3.10814 -6.42862,3.24516 c -6.42751,3.24459 -6.43049,3.24503 -17.21719,2.54592 -17.71486,-1.14815 -17.11467,-0.2488 -8.33784,-12.49357 4.11855,-5.7459 8.45803,-10.96609 9.64328,-11.60042 2.11339,-1.13105 2.10049,-1.16701 -0.66818,-1.8619 -4.46322,-1.12019 -22.36831,-9.82437 -32.61704,-15.85606 -17.48453,-10.2902 -36.90197,-26.79769 -48.33047,-41.08755 -3.3,-4.12622 -6.30491,-7.53154 -6.67758,-7.56739 -0.37267,-0.0358 -11.9649,14.11935 -25.7605,31.45599 l -25.08292,31.52117 4.79571,10.72883 c 16.8485,37.69295 44.21875,68.47841 78.74358,88.56906 3.28994,1.91448 6.20671,3.49176 6.48171,3.50506 0.275,0.0133 15.35,-16.83105 33.5,-37.43191 z m -40.47391,13.11805 c -1.0758,-1.29625 -1.04773,-1.86985 0.16146,-3.30019 0.80496,-0.95218 7.9253,-9.15624 15.82296,-18.23124 7.89767,-9.075 14.51188,-16.69821 14.69825,-16.94048 0.18637,-0.24226 1.02424,0.24491 1.86192,1.08259 1.36409,1.36409 -0.0575,3.34111 -13.61909,18.94048 -19.42116,22.33938 -17.3623,20.33238 -18.9255,18.44884 z m -31.73833,-24.64367 c -0.81632,-0.81632 4.35665,-7.53428 19.44302,-25.25 26.17488,-30.7368 23.93031,-28.41281 25.69673,-26.60601 1.25376,1.28241 -1.3501,4.72751 -20.57193,27.21825 -12.10405,14.1625 -22.33322,25.75 -22.73147,25.75 -0.39826,0 -1.22462,-0.50051 -1.83635,-1.11224 z m -13.21691,-14.30239 c -1.50049,-1.80798 -2.60191,-0.28452 17.08401,-23.63023 12.53629,-14.86691 14.4656,-16.76325 15.74895,-15.47991 1.28334,1.28335 1.27776,1.68071 -0.0456,3.24364 -0.82946,0.97962 -7.50876,8.98113 -14.8429,17.78113 -17.72672,21.26974 -16.4062,19.93886 -17.94446,18.08537 z M 400.84648,360.62092 C 399.61173,358.07941 398.29289,356 397.91574,356 c -1.26073,0 -4.04368,5.09686 -3.71796,6.8093 0.2157,1.13402 1.63544,1.86601 4.3119,2.22314 2.19468,0.29284 4.12341,0.45976 4.28607,0.37092 0.16266,-0.0888 -0.71451,-2.24094 -1.94927,-4.78244 z m 94.72009,-91.94813 c -71.04485,-31.45132 -75.0796,-33.37511 -77.75,-37.07146 C 414.34403,226.79466 414.20562,222.70948 417,207.5 c 1.1,-5.98718 2,-11.53941 2,-12.3383 0,-1.2109 -1.68019,-1.35994 -10.10022,-0.89597 l -10.10022,0.55655 0.6535,-4.35786 c 0.54698,-3.64747 0.30467,-4.70669 -1.48644,-6.4978 -1.59547,-1.59547 -2.81757,-1.97085 -4.80328,-1.47537 C 389.98622,183.28402 387,185.78592 387,187.65499 387,188.39474 386.56156,189 386.02568,189 c -0.53588,0 -1.66088,1.32765 -2.5,2.95034 C 381.73377,195.4155 381.27303,220 383,220 c 0.55,0 1,0.47656 1,1.05902 0,0.58246 -0.402,0.81057 -0.89333,0.50691 -0.49133,-0.30366 -1.1749,0.56978 -1.51905,1.94098 -0.40904,1.62974 -1.32633,2.49309 -2.64887,2.49309 -1.95142,0 -2.02009,-0.57619 -1.93666,-16.25 0.0476,-8.9375 0.0666,-17.0375 0.0422,-18 -0.0278,-1.09894 -0.82816,-1.75 -2.15128,-1.75 -1.46204,0 -1.93079,-0.45915 -1.53138,-1.5 0.376,-0.97984 -0.0204,-1.48897 -1.14301,-1.4682 -2.17067,0.0402 -5.21862,2.31065 -5.21862,3.88746 0,0.65933 -0.45,0.92066 -1,0.58074 -0.56481,-0.34907 -1,0.46994 -1,1.88197 0,1.375 -0.45,2.77811 -1,3.11803 -0.55,0.33992 -1,1.94758 -1,3.57259 0,2.97037 -1.64043,6.79589 -3.5,8.1621 -0.61931,0.45499 -0.52413,0.74051 0.25,0.75 0.91515,0.0112 1.25,2.67834 1.25,9.95629 0,10.12231 -0.78607,12.31138 -3.58635,9.98736 -1.23275,-1.02309 -1.44682,-3.84117 -1.2062,-15.87834 0.25278,-12.64498 0.0515,-15.00261 -1.4805,-17.34225 -3.58565,-5.47589 -13.59425,-2.56458 -13.69368,3.98323 -0.0183,1.20504 -0.51667,2.48974 -1.10749,2.85489 -0.62851,0.38844 -0.84996,2.2673 -0.53372,4.5282 0.37568,2.68592 0.12252,4.10239 -0.83022,4.64511 -1.37111,0.78104 -1.81834,4.04314 -3.14897,22.96856 -0.4732,6.73031 -1.04015,9.33899 -2.11967,9.75324 -3.12116,1.19771 -3.48576,-0.57018 -2.84768,-13.80794 0.34818,-7.22317 0.60483,-13.80804 0.57035,-14.63304 -0.32143,-7.69102 -1.24859,-8.95802 -6.57474,-8.98469 -5.35419,-0.0268 -6.42136,1.61797 -7.4605,11.49843 -0.51981,4.94244 -0.95309,9.57532 -0.96286,10.29528 -0.0106,0.77946 -0.52344,1.00521 -1.26777,0.55804 -0.89133,-0.5355 -0.86663,-0.27807 0.0861,0.89718 0.73485,0.90648 1.02257,2.15543 0.63938,2.77545 C 314.49082,234.63288 302.60371,240 300.05974,240 c -1.16423,0 -4.79111,1.35 -8.05974,3 -8.05668,4.067 -12.94362,4.04415 -16.41111,-0.0767 -1.42389,-1.69219 -2.58889,-3.94219 -2.58889,-5 0,-2.28209 -0.8184,-2.3752 -3.44113,-0.39147 -3.19456,2.41624 -9.93101,1.86739 -13.45289,-1.09608 -3.59334,-3.0236 -5.42061,-8.47799 -4.04887,-12.08593 1.38296,-3.63747 1.26095,-3.70948 -2.42514,-1.43135 -5.27747,3.26165 -10.14078,2.77275 -14.35681,-1.44328 -3.28829,-3.28829 -3.49276,-3.85878 -3.04673,-8.50067 0.34002,-3.5387 0.15946,-4.72664 -0.62516,-4.11305 -2.32447,1.81779 -6.66823,2.13826 -10.01707,0.73902 -4.82154,-2.01457 -6.87141,-5.54648 -6.43124,-11.08098 0.25552,-3.21275 -0.0141,-4.51948 -0.93255,-4.51948 -0.7106,0 0.3108,-1.40728 2.26978,-3.12729 2.60579,-2.28791 3.39557,-3.651 2.9425,-5.07849 -0.49062,-1.54579 -0.20335,-1.88296 1.38257,-1.62272 1.87931,0.30839 6.71572,-3.76565 24.83652,-20.9215 2.46898,-2.3375 4.89108,-4.25 5.38245,-4.25 0.49137,0 1.33009,-0.7875 1.86383,-1.75 0.53374,-0.9625 2.91207,-3.62668 5.28518,-5.9204 C 269.10597,140.77423 271.04106,139 271.6327,139 272.51055,139 276,134.88276 276,133.84699 276,133.38115 276.64468,133 277.43261,133 c 0.78794,0 1.68403,-0.79215 1.99133,-1.76034 0.30729,-0.96819 2.25011,-2.55037 4.31738,-3.51597 2.06728,-0.96559 5.55868,-2.76094 7.75868,-3.98966 3.51105,-1.96095 5.3446,-2.21959 15,-2.1159 11.99762,0.12885 19.5,1.08565 19.5,2.48691 0,0.49223 2.22344,0.89496 4.94098,0.89496 2.71754,0 5.18221,0.39031 5.47704,0.86736 0.63113,1.02118 7.03964,2.02378 17.8637,2.79474 7.94603,0.56597 12.34024,-0.39216 15.96828,-3.48178 0.9625,-0.81966 1.75,-1.17802 1.75,-0.79635 0,0.38167 0.94277,-0.18438 2.09504,-1.25789 1.32563,-1.235 1.87767,-2.63671 1.50315,-3.81671 -0.70375,-2.21732 -13.99255,-8.75575 -16.12903,-7.93591 -0.84576,0.32455 -1.46916,-0.01 -1.46916,-0.78821 0,-0.74359 -0.7875,-1.60173 -1.75,-1.90697 -0.9625,-0.30524 -2.875,-1.18661 -4.25,-1.9586 -4.93821,-2.77253 -11.5239,-5.72518 -12.76357,-5.72246 -1.41988,0.003 -4.99542,-1.889987 -6.95368,-3.681711 -0.71202,-0.65147 -2.25138,-1.488166 -3.4208,-1.859324 -1.67096,-0.530341 -1.83027,-0.862259 -0.74408,-1.550196 C 330.44775,92.43037 339.11095,92.932307 347,95 c 6.86574,1.799486 10.98276,1.967174 48.68261,1.982862 38.36245,0.01596 41.21875,-0.102701 41.7103,-1.732862 0.29022,-0.9625 2.35979,-11.791413 4.59904,-24.064252 2.23924,-12.272838 4.60353,-23.166402 5.25397,-24.20792 2.80818,-4.496619 4.39432,-4.701162 93.2476,-12.024908 l 85.99351,-7.08803 2.25649,2.623319 C 630.00035,31.949366 631,34.439653 631,36.109472 c 0,6.143039 -46.17545,254.397868 -48.06476,258.412368 -2.05267,4.36164 -6.3633,7.5236 -10.08953,7.40095 -1.29014,-0.0425 -36.06576,-15.00497 -77.27914,-33.25 z m 80.3199,28.38797 c 0.96524,-0.51658 2.49156,-2.65408 3.39181,-4.75 2.72602,-6.34656 48.21493,-256.313054 46.98847,-258.206748 -0.66807,-1.031524 -2.23948,-1.531761 -4.4028,-1.401576 -22.69011,1.365444 -166.05276,13.701729 -168.04209,14.459938 -1.47298,0.561407 -2.92806,1.672002 -3.23351,2.467989 C 449.89795,51.429521 442,93.720002 442,95.617681 442,96.762954 447.0728,97 471.5817,97 h 29.58171 l 4.16829,-3.367808 C 511.25196,88.848878 513.2501,88 518.58909,88 c 4.19551,0 5.138,0.438797 8.47329,3.94491 7.44575,7.82711 10.55067,22.08438 9.65929,44.35379 -1.5448,38.59415 -16.93122,78.22998 -35.11272,90.4513 -13.36318,8.98252 -24.56181,-1.92912 -27.19698,-26.5 L 473.74167,194 H 448.88989 424.0381 l -0.52056,2.25 c -1.72516,7.45661 -4.51195,23.72365 -4.51451,26.35212 -0.002,1.70616 1.00947,4.57124 2.24697,6.36684 1.9997,2.90155 10.53769,6.92099 76.75,36.13167 40.975,18.07682 74.86708,32.87423 75.31574,32.88315 0.44866,0.009 1.60549,-0.40644 2.57073,-0.92302 z M 460.52894,62.386082 C 458.5143,60.37144 458.59919,59.400813 461,57 c 2.41134,-2.411343 3.37011,-2.487035 5.42857,-0.428571 1.89815,1.898144 1.94592,2.581525 0.32143,4.597705 -1.92825,2.393178 -4.53492,2.903088 -6.22106,1.216948 z m 11.13773,-0.05275 C 470.58012,61.246786 470.90649,57.493508 472.2,56.2 c 2.61959,-2.619591 6.8,-0.891877 6.8,2.810359 0,2.608816 -5.53803,5.118279 -7.33333,3.322974 z m 11,0 c -2.92411,-2.924106 2.67574,-9.953898 5.83834,-7.329178 1.93964,1.60976 1.90594,4.442037 -0.0764,6.424416 -1.61733,1.617334 -4.58356,2.083105 -5.7619,0.904762 z M 145.61774,253.8877 C 129.82153,250.17937 110.31719,230.5686 97.989924,206 92.515434,195.08918 85.653004,174.13778 83.602311,162.07378 81.624096,150.43617 81.533003,128.84608 83.424794,120 89.015596,93.857207 104.68691,81.453518 123.90714,87.958625 c 6.92413,2.343477 16.28079,7.928277 15.47291,9.235459 C 139.1061,97.637338 132.42177,98 124.52597,98 h -14.356 l -4.10167,4.65975 c -2.98083,3.3864 -3.94258,5.23094 -3.51948,6.75 0.39927,1.43348 0.29583,1.67875 -0.32921,0.78058 -0.69969,-1.00544 -1.30528,-0.70852 -2.607064,1.27825 -0.932617,1.42335 -1.379818,3.1377 -0.993781,3.80967 0.386037,0.67196 0.331732,0.88624 -0.120677,0.47618 -1.002539,-0.9087 -3.711282,4.97215 -5.395732,11.71447 -1.611984,6.45227 -1.471782,21.6455 0.259259,28.09494 1.878805,6.99997 6.711165,17.50921 7.754575,16.86435 0.4735,-0.29264 0.64056,0.0538 0.37125,0.76987 -0.2693,0.71607 0.52335,2.44819 1.76146,3.84916 1.2381,1.40097 1.80885,1.85097 1.26833,1 -0.64468,-1.01496 -0.21467,-0.89189 1.25,0.35777 2.28745,1.95164 3.02279,3.2013 1.23277,2.09501 -2.06689,-1.27741 -0.89462,0.86018 1.75,3.19106 10.06028,8.86678 17.03042,10.26914 51.1524,10.29158 l 26.40241,0.0174 -0.64632,11.31624 c -2.00729,35.1452 -17.44785,53.87538 -40.04075,48.57146 z m 182.46121,-20.47103 c 0.048,-1.16495 0.28494,-1.4019 0.60416,-0.60417 0.28887,0.72187 0.25335,1.58437 -0.0789,1.91667 -0.33229,0.33229 -0.56864,-0.25834 -0.52522,-1.3125 z m 38.19008,-1.10966 c 0.97297,-0.25354 2.32297,-0.23687 3,0.0371 0.67703,0.27393 -0.11903,0.48137 -1.76903,0.46099 -1.65,-0.0204 -2.20394,-0.2445 -1.23097,-0.49804 z M 366,206.94098 c 0,-0.58246 0.45,-0.7809 1,-0.44098 0.55,0.33992 1,0.81648 1,1.05902 0,0.24254 -0.45,0.44098 -1,0.44098 -0.55,0 -1,-0.47656 -1,-1.05902 z m 17.07895,-0.52431 c 0.048,-1.16495 0.28494,-1.4019 0.60416,-0.60417 0.28887,0.72187 0.25335,1.58437 -0.0789,1.91667 -0.33229,0.33229 -0.56864,-0.25834 -0.52522,-1.3125 z M 120.8125,188.31689 c 0.72187,-0.28887 1.58437,-0.25335 1.91667,0.0789 0.33229,0.33229 -0.25834,0.56864 -1.3125,0.52522 -1.16495,-0.048 -1.4019,-0.28494 -0.60417,-0.60416 z m -17.73355,-13.90022 c 0.048,-1.16495 0.28494,-1.4019 0.60416,-0.60417 0.28887,0.72187 0.25335,1.58437 -0.0789,1.91667 -0.3323,0.33229 -0.56864,-0.25834 -0.52522,-1.3125 z M 98.5,166 c -0.339919,-0.55 -0.141476,-1 0.440983,-1 0.582459,0 1.059017,0.45 1.059017,1 0,0.55 -0.198442,1 -0.440983,1 -0.242541,0 -0.719098,-0.45 -1.059017,-1 z m -4.421053,-31.58333 c 0.04798,-1.16495 0.284941,-1.4019 0.604167,-0.60417 0.288871,0.72187 0.253344,1.58437 -0.07895,1.91667 -0.332292,0.33229 -0.568641,-0.25834 -0.52522,-1.3125 z M 276,131.11803 c 0,-0.55 0.45,-1.27811 1,-1.61803 0.55,-0.33992 1,-0.16803 1,0.38197 0,0.55 -0.45,1.27811 -1,1.61803 -0.55,0.33992 -1,0.16803 -1,-0.38197 z M 288.5,123 c -0.33992,-0.55 -0.14148,-1 0.44098,-1 0.58246,0 1.05902,0.45 1.05902,1 0,0.55 -0.19844,1 -0.44098,1 -0.24254,0 -0.7191,-0.45 -1.05902,-1 z m 79.5,-4 c 0,-0.55 0.45,-1 1,-1 0.55,0 1,0.45 1,1 0,0.55 -0.45,1 -1,1 -0.55,0 -1,-0.45 -1,-1 z M 52.025436,40.025436 c -3.634672,-3.634672 -4.082598,-11.208092 -0.701032,-11.852873 4.154189,-0.792101 9.469944,8.960453 6.701932,12.295705 -1.716368,2.068096 -3.631281,1.926787 -6.0009,-0.442832 z M 38.574409,38.485787 C 34.823283,34.438256 34.237194,27.89043 37.513495,26.633195 c 3.839856,-1.473491 9.646983,8.329915 7.410122,12.509528 -1.367429,2.555064 -3.585078,2.32561 -6.349208,-0.656936 z m -12.295107,7.82e-4 c -3.014328,-2.116057 -4.895273,-8.4671 -3.358224,-11.339102 1.532689,-2.863855 2.668867,-2.711369 6.214248,0.834013 2.528457,2.528457 2.934619,3.628751 2.673077,7.241373 -0.346883,4.791412 -1.979827,5.755305 -5.529101,3.263716 z"
         id="path4" />
      <path
         style="fill:#9fa9b1"
         d="M 343.45804,444.88957 C 329.87599,437.14122 319.79244,429.56724 307.80834,418.1123 295.6262,406.46807 287.48241,396.77592 278.7255,383.5 c -6.15628,-9.33323 -14.76327,-25.71067 -19.02866,-36.20785 l -2.45957,-6.05303 5.39624,-6.77136 c 2.96792,-3.72424 5.2707,-6.89689 5.11727,-7.05032 -0.15343,-0.15343 -36.25814,4.86488 -80.2327,11.1518 -43.97455,6.28692 -81.76821,11.42908 -83.9859,11.42702 -6.547835,-0.006 -13.56086,-5.6811 -16.467261,-13.32551 C 84.049253,328.73895 0,11.90495 0,8.4688291 0,3.6902182 2.28425,0 5.2422166,0 6.4130614,0 49.250045,7.1863604 100.43551,15.96969 151.62098,24.753019 213.3,35.331627 237.5,39.477707 c 54.11001,9.270431 48.99124,8.136696 53.12536,11.766507 4.28751,3.764484 5.61997,6.304251 10.53259,20.075879 2.13719,5.991221 4.29787,11.663096 4.80151,12.604166 0.77764,1.453034 0.50459,1.650695 -1.81084,1.310861 -2.50888,-0.368224 -3.06882,-1.381269 -7.01324,-12.688205 C 292.8707,60.321902 290.13985,55.192944 286.77746,53.093097 285.80813,52.487737 241.69915,44.549371 188.75752,35.452283 135.81588,26.355195 72.956173,15.549429 49.069272,11.439468 3.1819078,3.5441259 4.0503954,3.595983 4.0153128,8.7493114 3.9945503,11.79913 89.548761,331.5075 91.667936,336.29926 93.867899,341.27369 99.300988,346 102.81934,346 c 2.34883,0 158.19067,-21.9537 166.68066,-23.48058 2.4907,-0.44794 6.38362,-4.78196 22.93119,-25.52948 10.96215,-13.74447 20.18715,-24.97184 20.5,-24.94973 0.31284,0.0221 2.59381,2.78527 5.06881,6.14033 5.14805,6.97859 21.27688,23.70714 28.11045,29.15568 l 4.61045,3.67601 11.38955,-1.61652 c 12.18898,-1.72998 15.52374,-3.09004 16.43,-6.70086 0.37435,-1.49153 -3.05987,-12.37918 -9.93193,-31.48762 -9.44425,-26.26064 -10.42913,-29.63657 -9.76078,-33.4575 l 0.74336,-4.24973 1.07391,3 c 0.59066,1.65 5.72266,15.825 11.40446,31.5 11.64243,32.11923 12.37857,36.00651 7.70388,40.68119 -2.33735,2.33736 -4.2648,2.95685 -13.5,4.33897 l -10.77335,1.61231 8.88047,5.83182 c 10.53345,6.91733 24.71712,14.27105 35.68002,18.49879 l 7.91568,3.05261 51.84525,-25.92639 c 28.51488,-14.25951 51.86412,-25.40054 51.88719,-24.75784 0.0591,1.64687 9.30657,21.05637 10.33619,21.69464 0.46677,0.28935 -18.91449,10.41328 -43.06948,22.49761 l -43.91816,21.97152 -40.77858,46.23293 c -22.42822,25.42812 -41.02246,46.2417 -41.32054,46.25239 -0.29808,0.0107 -4.57308,-2.28024 -9.5,-5.09098 z M 385.5,407.41338 c 18.15,-20.60086 34.11511,-38.85477 35.47803,-40.56425 l 2.47803,-3.10814 -6.42862,3.24516 c -6.42751,3.24459 -6.43049,3.24503 -17.21719,2.54592 -17.71486,-1.14815 -17.11467,-0.2488 -8.33784,-12.49357 4.11855,-5.7459 8.45803,-10.96609 9.64328,-11.60042 2.11339,-1.13105 2.10049,-1.16701 -0.66818,-1.8619 -4.46322,-1.12019 -22.36831,-9.82437 -32.61704,-15.85606 -17.48453,-10.2902 -36.90197,-26.79769 -48.33047,-41.08755 -3.3,-4.12622 -6.30491,-7.53154 -6.67758,-7.56739 -0.37267,-0.0358 -11.9649,14.11935 -25.7605,31.45599 l -25.08292,31.52117 4.79571,10.72883 c 16.8485,37.69295 44.21875,68.47841 78.74358,88.56906 3.28994,1.91448 6.20671,3.49176 6.48171,3.50506 0.275,0.0133 15.35,-16.83105 33.5,-37.43191 z m -40.47391,13.11805 c -1.0758,-1.29625 -1.04773,-1.86985 0.16146,-3.30019 0.80496,-0.95218 7.9253,-9.15624 15.82296,-18.23124 7.89767,-9.075 14.51188,-16.69821 14.69825,-16.94048 0.18637,-0.24226 1.02424,0.24491 1.86192,1.08259 1.36409,1.36409 -0.0575,3.34111 -13.61909,18.94048 -19.42116,22.33938 -17.3623,20.33238 -18.9255,18.44884 z m -31.73833,-24.64367 c -0.81632,-0.81632 4.35665,-7.53428 19.44302,-25.25 26.17488,-30.7368 23.93031,-28.41281 25.69673,-26.60601 1.25376,1.28241 -1.3501,4.72751 -20.57193,27.21825 -12.10405,14.1625 -22.33322,25.75 -22.73147,25.75 -0.39826,0 -1.22462,-0.50051 -1.83635,-1.11224 z m -13.21691,-14.30239 c -1.50049,-1.80798 -2.60191,-0.28452 17.08401,-23.63023 12.53629,-14.86691 14.4656,-16.76325 15.74895,-15.47991 1.28334,1.28335 1.27776,1.68071 -0.0456,3.24364 -0.82946,0.97962 -7.50876,8.98113 -14.8429,17.78113 -17.72672,21.26974 -16.4062,19.93886 -17.94446,18.08537 z M 400.84648,360.62092 C 399.61173,358.07941 398.29289,356 397.91574,356 c -1.26073,0 -4.04368,5.09686 -3.71796,6.8093 0.2157,1.13402 1.63544,1.86601 4.3119,2.22314 2.19468,0.29284 4.12341,0.45976 4.28607,0.37092 0.16266,-0.0888 -0.71451,-2.24094 -1.94927,-4.78244 z m 94.72009,-91.94813 c -71.04485,-31.45132 -75.0796,-33.37511 -77.75,-37.07146 -3.50459,-4.85103 -3.59531,-8.4478 -0.63644,-25.23346 C 419.23851,194.69068 419.49087,194 421.69918,194 c 1.91312,0 2.24416,0.40961 1.81836,2.25 -1.72516,7.45661 -4.51195,23.72365 -4.51451,26.35212 -0.002,1.70616 1.00947,4.57147 2.24697,6.36734 2.00054,2.90322 10.53666,6.91868 76.99214,36.21777 53.13588,23.42671 75.33819,32.76335 76.80407,32.2981 1.13407,-0.35994 2.92598,-2.52888 3.98202,-4.81988 2.88583,-6.26057 48.59727,-256.463483 47.23852,-258.561438 -0.66807,-1.031524 -2.23948,-1.531761 -4.4028,-1.401576 -23.08854,1.389421 -166.06973,13.708682 -168.0987,14.483385 -3.34276,1.276337 -3.38246,1.41266 -8.31932,28.564179 -3.73975,20.567702 -3.93953,21.25 -6.22226,21.25 -1.78049,0 -2.22913,-0.428848 -1.83076,-1.75 0.29022,-0.9625 2.35979,-11.791413 4.59904,-24.064252 2.23924,-12.272838 4.60353,-23.166402 5.25397,-24.20792 2.80818,-4.496619 4.39432,-4.701162 93.2476,-12.024908 l 85.99351,-7.08803 2.25649,2.623319 C 630.00035,31.949366 631,34.439653 631,36.109472 c 0,6.143039 -46.17545,254.397868 -48.06476,258.412368 -2.05267,4.36164 -6.3633,7.5236 -10.08953,7.40095 -1.29014,-0.0425 -36.06576,-15.00497 -77.27914,-33.25 z M 145.61774,253.8877 C 129.82153,250.17937 110.31719,230.5686 97.989924,206 92.515434,195.08918 85.653004,174.13778 83.602311,162.07378 81.624096,150.43617 81.533003,128.84608 83.424794,120 89.015596,93.857207 104.68691,81.453518 123.90714,87.958625 c 6.92413,2.343477 16.28079,7.928277 15.47291,9.235459 C 139.1061,97.637338 132.42177,98 124.52597,98 h -14.356 l -4.10167,4.65975 c -2.98083,3.3864 -3.94258,5.23094 -3.51948,6.75 0.39927,1.43348 0.29583,1.67875 -0.32921,0.78058 -0.69969,-1.00544 -1.30528,-0.70852 -2.607064,1.27825 -0.932617,1.42335 -1.379818,3.1377 -0.993781,3.80967 0.386037,0.67196 0.331732,0.88624 -0.120677,0.47618 -1.002539,-0.9087 -3.711282,4.97215 -5.395732,11.71447 -1.611984,6.45227 -1.471782,21.6455 0.259259,28.09494 1.878805,6.99997 6.711165,17.50921 7.754575,16.86435 0.4735,-0.29264 0.64056,0.0538 0.37125,0.76987 -0.2693,0.71607 0.52335,2.44819 1.76146,3.84916 1.2381,1.40097 1.80885,1.85097 1.26833,1 -0.64468,-1.01496 -0.21467,-0.89189 1.25,0.35777 2.28745,1.95164 3.02279,3.2013 1.23277,2.09501 -2.06689,-1.27741 -0.89462,0.86018 1.75,3.19106 10.06028,8.86678 17.03042,10.26914 51.1524,10.29158 l 26.40241,0.0174 -0.64632,11.31624 c -2.00729,35.1452 -17.44785,53.87538 -40.04075,48.57146 z M 330.3785,243.54397 c -0.3073,-0.80082 -0.2723,-6.98832 0.0778,-13.75 0.35008,-6.76168 0.6051,-12.96897 0.5667,-13.79397 -0.36029,-7.7415 -1.25146,-8.958 -6.58186,-8.98469 -5.35419,-0.0268 -6.42136,1.61797 -7.4605,11.49843 -0.51981,4.94244 -0.95309,9.57532 -0.96286,10.29528 -0.0106,0.77946 -0.52344,1.00521 -1.26777,0.55804 -0.89133,-0.5355 -0.86663,-0.27807 0.0861,0.89718 1.89263,2.33468 0.80092,3.5055 -6.35845,6.81925 -8.19425,3.79275 -11.76371,3.74143 -4.11666,-0.0592 3.22354,-1.60211 6.09086,-3.1428 6.37181,-3.42375 C 311.51036,232.82297 301.00544,220 299.59086,220 c -1.13907,0 -7.80458,3.95379 -21.4718,12.73647 -4.23986,2.72457 -5.56198,3.17216 -6.23469,2.11068 -0.46956,-0.74093 -0.86064,-1.59562 -0.86906,-1.89931 -0.014,-0.50569 12.18919,-8.47898 21.23469,-13.87424 2.0625,-1.2302 3.75,-2.81433 3.75,-3.5203 0,-1.1801 -1.86408,-3.9146 -6.17153,-9.0533 -0.92206,-1.1 -2.50103,-3.03869 -3.50881,-4.3082 l -1.83233,-2.3082 -14.36097,10.5582 C 262.22783,216.24881 255.14319,221 254.3827,221 c -3.72604,0 -0.17732,-3.75619 12.3673,-13.09034 7.5625,-5.62708 13.92346,-10.36969 14.13546,-10.53915 1.17084,-0.93586 -10.9451,-16.25053 -12.88546,-16.28735 -0.825,-0.0156 -7.575,5.40136 -15,12.03781 -16.55122,14.79345 -17.84342,15.72764 -19.08834,13.79996 -0.67417,-1.04392 0.24284,-2.48224 3.45618,-5.42093 5.80807,-5.31165 23.26576,-20.56837 25.92094,-22.65297 l 2.10541,-1.65297 -2.63952,-3.84703 c -1.45174,-2.11587 -4.57794,-5.97173 -6.9471,-8.56858 L 251.5,160.0569 l -10,9.54162 C 224.43893,185.87754 215.31855,194 214.10057,194 c -0.64359,0 0.43264,-1.40728 2.39162,-3.12729 2.60579,-2.28791 3.39557,-3.651 2.9425,-5.07849 -0.49062,-1.54579 -0.20335,-1.88296 1.38257,-1.62272 1.87931,0.30839 6.71572,-3.76565 24.83652,-20.9215 2.46898,-2.3375 4.89108,-4.25 5.38245,-4.25 0.49137,0 1.33009,-0.7875 1.86383,-1.75 0.53374,-0.9625 2.91207,-3.62668 5.28518,-5.9204 C 269.10597,140.77423 271.04106,139 271.6327,139 272.51055,139 276,134.88276 276,133.84699 276,133.38115 276.64468,133 277.43261,133 c 0.78794,0 1.68403,-0.79215 1.99133,-1.76034 0.30729,-0.96819 2.25011,-2.55037 4.31738,-3.51597 2.06728,-0.96559 5.55868,-2.76094 7.75868,-3.98966 3.51105,-1.96095 5.3446,-2.21959 15,-2.1159 11.99762,0.12885 19.5,1.08565 19.5,2.48691 0,0.49223 2.22344,0.89496 4.94098,0.89496 2.71754,0 5.18221,0.39031 5.47704,0.86736 0.63113,1.02118 7.03964,2.02378 17.8637,2.79474 7.94603,0.56597 12.34024,-0.39216 15.96828,-3.48178 0.9625,-0.81966 1.75,-1.17802 1.75,-0.79635 0,0.38167 0.94277,-0.18438 2.09504,-1.25789 1.32563,-1.235 1.87767,-2.63671 1.50315,-3.81671 -0.70375,-2.21732 -13.99255,-8.75575 -16.12903,-7.93591 -0.84576,0.32455 -1.46916,-0.01 -1.46916,-0.78821 0,-0.74359 -0.7875,-1.60173 -1.75,-1.90697 -0.9625,-0.30524 -2.875,-1.18661 -4.25,-1.9586 -4.93821,-2.77253 -11.5239,-5.72518 -12.76357,-5.72246 -1.28885,0.003 -5.33199,-2.008134 -6.23643,-3.101861 -0.275,-0.332553 -1.85,-1.327036 -3.5,-2.209963 -2.04704,-1.095387 -2.4398,-1.618039 -1.23643,-1.645358 0.96996,-0.02202 2.54496,0.382678 3.5,0.899332 1.7918,0.969322 17.56885,8.4874 34.25165,16.32159 5.23337,2.45758 10.14828,5.23112 10.92203,6.16343 2.49544,3.00682 0.22584,6.73277 -5.95398,9.77448 -10.45918,5.148 -15.8482,4.90319 -48.98327,-2.22526 -14.51644,-3.12297 -17.44167,-3.37636 -22.81641,-1.97643 -10.36159,2.69883 -15.5073,6.2567 -30.97445,21.41647 -5.65998,5.54749 -10.72248,10.23635 -11.25,10.41968 -2.46016,0.85499 -0.0659,4.83701 11.29086,18.77797 6.7375,8.27064 19.43942,23.89154 28.22648,34.71312 8.78707,10.82157 16.2525,19.67558 16.58985,19.67558 0.33735,0 1.16068,-3.2625 1.82962,-7.25 2.12812,-12.68556 2.13941,-12.71693 5.13766,-14.26738 1.57689,-0.81544 4.03487,-1.48262 5.46218,-1.48262 3.05896,0 7.15466,3.7591 8.07022,7.40697 0.74327,2.96144 2.43399,2.51342 2.43399,-0.64499 0,-1.16599 0.41951,-3.50193 0.93224,-5.19098 0.51273,-1.68905 1.49545,-5.01591 2.18383,-7.39302 2.3319,-8.05259 9.75872,-10.67855 15.8072,-5.58909 2.57937,2.1704 3.07673,3.30196 3.07673,7 0,5.58439 1.30604,5.65555 2.9566,0.16111 0.7022,-2.3375 1.68304,-5.57994 2.17966,-7.20543 C 364.92523,187.689 366.72055,186 371.15576,186 375.0485,186 379,188.5958 379,191.15301 c 0,0.46584 0.675,0.84699 1.5,0.84699 0.825,0 1.5,-0.37976 1.5,-0.84391 C 382,189.38382 391.9817,180 393.86689,180 c 1.08881,0 3.36419,1.165 5.05638,2.58889 3.4512,2.90399 3.94637,6.35689 1.49302,10.41111 -1.45751,2.40858 -1.49083,2.32824 -0.91128,-2.19672 0.50584,-3.9494 0.26106,-5.03721 -1.53839,-6.83666 -1.59547,-1.59547 -2.81757,-1.97085 -4.80328,-1.47537 C 389.98622,183.28402 387,185.78592 387,187.65499 387,188.39474 386.56156,189 386.02568,189 c -0.53588,0 -1.66088,1.32765 -2.5,2.95034 C 381.73377,195.4155 381.27303,220 383,220 c 0.55,0 1,0.47656 1,1.05902 0,0.58246 -0.402,0.81057 -0.89333,0.50691 -0.49133,-0.30366 -1.1749,0.56978 -1.51905,1.94098 -0.40904,1.62974 -1.32633,2.49309 -2.64887,2.49309 -1.95142,0 -2.02009,-0.57619 -1.93666,-16.25 0.0476,-8.9375 0.0666,-17.0375 0.0422,-18 -0.0278,-1.09894 -0.82816,-1.75 -2.15128,-1.75 -1.46204,0 -1.93079,-0.45915 -1.53138,-1.5 0.376,-0.97984 -0.0204,-1.48897 -1.14301,-1.4682 -2.17067,0.0402 -5.21862,2.31065 -5.21862,3.88746 0,0.65933 -0.45,0.92066 -1,0.58074 -0.56481,-0.34907 -1,0.46994 -1,1.88197 0,1.375 -0.45,2.77811 -1,3.11803 -0.55,0.33992 -1,1.94758 -1,3.57259 0,2.97037 -1.64043,6.79589 -3.5,8.1621 -0.61931,0.45499 -0.52413,0.74051 0.25,0.75 0.91515,0.0112 1.25,2.67834 1.25,9.95629 0,10.12231 -0.78607,12.31138 -3.58635,9.98736 -1.23275,-1.02309 -1.44682,-3.84117 -1.2062,-15.87834 0.25278,-12.64498 0.0515,-15.00261 -1.4805,-17.34225 -3.58565,-5.47589 -13.59425,-2.56458 -13.69368,3.98323 -0.0183,1.20504 -0.51667,2.48974 -1.10749,2.85489 -0.62851,0.38844 -0.84996,2.2673 -0.53372,4.5282 0.37136,2.655 0.11937,4.10864 -0.80522,4.64511 -1.34581,0.78087 -2.07945,6.06092 -3.23478,23.28082 -0.51642,7.69723 -1.33243,9.93959 -3.63344,9.98469 -0.42977,0.008 -1.03282,-0.6399 -1.34012,-1.44072 z m -2.29955,-10.1273 c 0.048,-1.16495 0.28494,-1.4019 0.60416,-0.60417 0.28887,0.72187 0.25335,1.58437 -0.0789,1.91667 -0.33229,0.33229 -0.56864,-0.25834 -0.52522,-1.3125 z m 38.19008,-1.10966 c 0.97297,-0.25354 2.32297,-0.23687 3,0.0371 0.67703,0.27393 -0.11903,0.48137 -1.76903,0.46099 -1.65,-0.0204 -2.20394,-0.2445 -1.23097,-0.49804 z m 120.05985,-4.24808 c -5.82259,-3.55033 -10.43854,-14.23152 -11.85129,-27.42361 L 473.76701,194 h 9.38061 c 14.52143,0 22.16532,-3.46531 28.67579,-13 4.62949,-6.77996 7.81168,-13.69518 10.36885,-22.53255 2.08744,-7.214 2.28756,-9.76422 2.11614,-26.96745 -0.21648,-21.7246 -0.83667,-24.22845 -7.39094,-29.83865 -3.20148,-2.740356 -5.37113,-3.699061 -9.55409,-4.221688 -6.22806,-0.778144 -6.08033,-1.451551 1.40631,-6.410497 C 512.32538,88.673973 514.45167,88 518.32628,88 c 4.50151,0 5.34627,0.381466 8.7361,3.94491 7.44575,7.82711 10.55067,22.08438 9.65929,44.35379 -2.11973,52.95758 -30.19336,104.07685 -50.39279,91.76023 z M 366,206.94098 c 0,-0.58246 0.45,-0.7809 1,-0.44098 0.55,0.33992 1,0.81648 1,1.05902 0,0.24254 -0.45,0.44098 -1,0.44098 -0.55,0 -1,-0.47656 -1,-1.05902 z m 17.07895,-0.52431 c 0.048,-1.16495 0.28494,-1.4019 0.60416,-0.60417 0.28887,0.72187 0.25335,1.58437 -0.0789,1.91667 -0.33229,0.33229 -0.56864,-0.25834 -0.52522,-1.3125 z M 120.8125,188.31689 c 0.72187,-0.28887 1.58437,-0.25335 1.91667,0.0789 0.33229,0.33229 -0.25834,0.56864 -1.3125,0.52522 -1.16495,-0.048 -1.4019,-0.28494 -0.60417,-0.60416 z m -17.73355,-13.90022 c 0.048,-1.16495 0.28494,-1.4019 0.60416,-0.60417 0.28887,0.72187 0.25335,1.58437 -0.0789,1.91667 -0.3323,0.33229 -0.56864,-0.25834 -0.52522,-1.3125 z M 98.5,166 c -0.339919,-0.55 -0.141476,-1 0.440983,-1 0.582459,0 1.059017,0.45 1.059017,1 0,0.55 -0.198442,1 -0.440983,1 -0.242541,0 -0.719098,-0.45 -1.059017,-1 z m -4.421053,-31.58333 c 0.04798,-1.16495 0.284941,-1.4019 0.604167,-0.60417 0.288871,0.72187 0.253344,1.58437 -0.07895,1.91667 -0.332292,0.33229 -0.568641,-0.25834 -0.52522,-1.3125 z M 276,131.11803 c 0,-0.55 0.45,-1.27811 1,-1.61803 0.55,-0.33992 1,-0.16803 1,0.38197 0,0.55 -0.45,1.27811 -1,1.61803 -0.55,0.33992 -1,0.16803 -1,-0.38197 z M 288.5,123 c -0.33992,-0.55 -0.14148,-1 0.44098,-1 0.58246,0 1.05902,0.45 1.05902,1 0,0.55 -0.19844,1 -0.44098,1 -0.24254,0 -0.7191,-0.45 -1.05902,-1 z m 79.5,-4 c 0,-0.55 0.45,-1 1,-1 0.55,0 1,0.45 1,1 0,0.55 -0.45,1 -1,1 -0.55,0 -1,-0.45 -1,-1 z M 460.52894,62.386082 C 458.5143,60.37144 458.59919,59.400813 461,57 c 2.41134,-2.411343 3.37011,-2.487035 5.42857,-0.428571 1.89815,1.898144 1.94592,2.581525 0.32143,4.597705 -1.92825,2.393178 -4.53492,2.903088 -6.22106,1.216948 z m 11.13773,-0.05275 C 470.58012,61.246786 470.90649,57.493508 472.2,56.2 c 2.61959,-2.619591 6.8,-0.891877 6.8,2.810359 0,2.608816 -5.53803,5.118279 -7.33333,3.322974 z m 11,0 c -2.92411,-2.924106 2.67574,-9.953898 5.83834,-7.329178 1.93964,1.60976 1.90594,4.442037 -0.0764,6.424416 -1.61733,1.617334 -4.58356,2.083105 -5.7619,0.904762 z M 52.025436,40.025436 c -3.634672,-3.634672 -4.082598,-11.208092 -0.701032,-11.852873 4.154189,-0.792101 9.469944,8.960453 6.701932,12.295705 -1.716368,2.068096 -3.631281,1.926787 -6.0009,-0.442832 z M 38.574409,38.485787 C 34.823283,34.438256 34.237194,27.89043 37.513495,26.633195 c 3.839856,-1.473491 9.646983,8.329915 7.410122,12.509528 -1.367429,2.555064 -3.585078,2.32561 -6.349208,-0.656936 z m -12.295107,7.82e-4 c -3.014328,-2.116057 -4.895273,-8.4671 -3.358224,-11.339102 1.532689,-2.863855 2.668867,-2.711369 6.214248,0.834013 2.528457,2.528457 2.934619,3.628751 2.673077,7.241373 -0.346883,4.791412 -1.979827,5.755305 -5.529101,3.263716 z"
         id="path3" />
      <path
         style="fill:#13121b"
         d="m 345.36615,445.64811 c -16.9516,-9.13778 -35.74246,-24.30812 -49.4396,-39.91384 -14.11705,-16.08415 -29.58048,-41.54028 -36.42582,-59.96476 l -1.75754,-4.73048 5.67151,-7.01952 c 4.29042,-5.31018 5.23486,-7.01995 3.8784,-7.02132 -0.9862,-9.9e-4 -38.22849,5.20573 -82.76064,11.57049 -47.06671,6.72701 -82.2865,11.32484 -84.1177,10.98131 -3.509767,-0.65844 -9.594937,-6.06395 -11.947277,-10.61287 C 85.656252,333.5008 0.75225226,14.883112 0.6216618,9.2797131 0.52686669,5.212227 0.9615159,3.5974829 2.5899061,1.9675848 L 4.6798121,-0.12425655 101.08991,16.430023 C 154.11546,25.534877 217.75,36.445649 242.5,40.676183 l 45,7.691881 4.06946,4.145108 c 3.37213,3.434811 4.87151,6.416667 8.75,17.401311 2.5743,7.290911 4.68054,13.625669 4.68054,14.07724 0,0.451571 -0.8014,0.611468 -1.78088,0.355327 -1.25205,-0.327419 -3.06495,-4.146571 -6.10509,-12.861337 -2.86397,-8.20978 -5.3862,-13.617876 -7.46912,-16.0151 L 286.5,51.851139 147,27.901301 C 70.275,14.72889 6.825,4.0786264 6,4.2340482 5.0587261,4.4113749 4.3850304,5.8996731 4.1913437,8.2296505 3.8767256,12.014386 88.788913,331.75734 91.501815,337.00351 c 1.696774,3.2812 6.443199,8.0219 8.998185,8.98733 1.18508,0.44779 36.61884,-4.19732 86.96209,-11.40012 l 84.96208,-12.15583 20.20017,-25.22352 20.20017,-25.22351 6.45039,8.25607 c 6.29697,8.05971 24.25174,26.08935 29.22808,29.34998 2.31061,1.51397 3.35754,1.50941 14.21468,-0.0618 12.4561,-1.80263 14.68204,-2.52536 15.66469,-5.08611 1.22644,-3.19605 0.46669,-5.88852 -9.38235,-33.24973 -6.90896,-19.19351 -10,-29.13277 -10,-32.1551 0,-2.40597 0.21962,-4.15487 0.48805,-3.88644 0.72568,0.72568 21.61982,58.80618 22.53602,62.64452 1.04962,4.3973 -0.57017,9.85725 -3.49236,11.77194 -1.30298,0.85374 -6.79315,2.20854 -12.20038,3.01066 -5.40723,0.80212 -10.23633,1.58434 -10.73134,1.73828 -0.49501,0.15394 3.4427,3.09312 8.75046,6.53151 10.33311,6.69383 29.74831,16.49745 38.69293,19.53783 l 5.46822,1.8587 50.4942,-25.34719 c 27.77181,-13.94095 50.88792,-25.35928 51.36913,-25.37408 0.48122,-0.0148 3.21603,4.93739 6.07737,11.00484 l 5.20243,11.03173 -43.43355,21.96827 -43.43356,21.96827 -40.48274,45.75 c -22.26551,25.1625 -41.00523,45.73978 -41.64382,45.72729 -0.63858,-0.0125 -3.92129,-1.51062 -7.29491,-3.32918 z m 42.92869,-41.08997 C 407.93268,382.31511 424,363.85946 424,363.54557 c 0,-0.31389 -3.21481,1.04824 -7.14402,3.02696 l -7.14402,3.59767 -12.10505,-1.1675 c -6.65777,-0.64213 -12.26173,-1.32419 -12.45324,-1.5157 -0.68548,-0.68548 12.96546,-19.40696 15.49359,-21.24858 l 2.58046,-1.87974 -4.86386,-1.81587 c -8.38656,-3.13104 -29.65329,-14.27211 -38.33204,-20.08113 -14.98825,-10.03221 -32.59428,-26.09702 -44.07338,-40.21523 l -3.45844,-4.25356 -24,30.14734 c -13.2,16.58104 -24.60674,31.10878 -25.34831,32.28386 -1.20075,1.90269 -0.88393,3.17287 2.89495,11.60621 16.98139,37.89748 43.26026,68.09773 76.18509,87.55361 5.04106,2.97885 9.43386,5.41609 9.76176,5.41609 0.32791,0 16.66352,-18.19884 36.30135,-40.44186 z m -43.2372,15.47749 c -1.03455,-0.63939 2.56482,-5.33295 14.52814,-18.9446 C 374.05142,384.63227 377.5,381.4941 377.5,384.78924 c 0,0.9906 -27.06826,32.77764 -29.94456,35.16475 -0.63314,0.52546 -1.72209,0.56105 -2.4978,0.0816 z m -31.56396,-24.04586 c -0.37928,-0.61369 -0.0419,-1.87494 0.74977,-2.80278 0.79165,-0.92785 9.24046,-10.91199 18.77512,-22.18699 24.67198,-29.17528 23.65656,-28.09637 24.96234,-26.52301 0.86925,1.04739 -3.59673,6.8537 -20.52182,26.68086 -11.89807,13.93818 -22.00252,25.4784 -22.45433,25.64494 -0.45181,0.16653 -1.1318,-0.19933 -1.51108,-0.81302 z m -13.94536,-14.91158 c -0.95207,-1.54049 31.25801,-39.08974 32.96848,-38.43337 0.81576,0.31304 1.4832,0.74949 1.4832,0.9699 C 334,344.54851 301.80327,382 301.00049,382 c -0.48535,0 -1.13883,-0.41482 -1.45217,-0.92181 z M 402.83333,365.21664 C 402.65,364.7858 401.6,362.31248 400.5,359.72039 c -1.1,-2.59209 -2.225,-4.70901 -2.5,-4.70426 -0.275,0.005 -1.50512,1.56049 -2.7336,3.4572 -3.33364,5.14699 -1.97529,6.9503 5.56693,7.39049 1.28334,0.0749 2.18334,-0.21633 2,-0.64718 z M 497,268.99689 c -80.15793,-35.47454 -80.05021,-35.41717 -81.55409,-43.43351 -0.57613,-3.07108 2.26865,-23.41405 4.16915,-29.81338 0.59103,-1.99014 3.38992,-2.40473 3.37543,-0.5 -0.005,0.6875 -1.12317,7.24385 -2.48431,14.56966 -2.68299,14.44012 -2.37922,17.36872 2.22684,21.46862 C 425.29637,233.56994 571.14485,298 573.74643,298 c 2.01279,0 4.24263,-2.03602 6.02921,-5.50515 C 581.04584,290.02843 627,40.544862 627,36.115424 627,34.367418 626.42031,32.714781 625.71179,32.442898 623.75053,31.69029 455.82886,45.845269 453.22992,46.98228 450.14981,48.3298 449.80076,49.516609 445.57785,73 443.55032,84.275 441.66054,94.2875 441.37833,95.25 440.78673,97.267712 438,97.641924 438,95.703654 c 0,-2.640523 8.07342,-45.282356 8.97444,-47.400764 2.2992,-5.405736 0.53711,-5.160492 92.35207,-12.853402 94.10866,-7.885093 89.7772,-7.806774 91.12994,-1.647757 0.57299,2.608782 -43.60604,247.305209 -46.48924,257.492129 -1.40354,4.95899 -5.70381,9.58864 -9.46721,10.19236 -2.36769,0.37981 -18.70247,-6.46801 -77.5,-32.48933 z M 142.02359,252.33816 C 117.85412,243.88088 93.629488,207.59838 84.810916,166.64776 81.873657,153.00808 81.606187,126.84255 84.303405,117 88.182936,102.84301 94.818121,93.202826 103.613,88.945299 c 6.92067,-3.35024 17.81137,-2.552252 26.69254,1.955826 C 141.58456,96.626345 141.2576,97 124.96883,97 h -14.27605 l -3.85468,4.17536 c -9.710706,10.5186 -14.850298,22.66106 -15.587203,36.82533 -0.595291,11.44224 1.000239,18.74238 6.717737,30.73612 4.978896,10.44435 11.308126,17.28894 19.901466,21.52191 l 6.5801,3.24128 30.40349,0.30477 30.40349,0.30478 -0.48181,13.19522 c -0.3963,10.85322 -0.95876,14.59586 -3.16899,21.08662 -4.43663,13.029 -11.10294,21.24506 -19.92148,24.55272 -4.07934,1.53008 -14.47228,1.20978 -19.66131,-0.60595 z m 189.19177,-18.99631 c 0.24883,-9.45726 0.50914,-10.86114 2.06928,-11.15999 1.63775,-0.31371 1.76122,0.5486 1.5,10.47629 -0.24883,9.45726 -0.50914,10.86114 -2.06928,11.15999 -1.63775,0.31371 -1.76122,-0.5486 -1.5,-10.47629 z m -59.54869,0.99148 c -1.40093,-1.40092 -0.30413,-2.28869 12.29366,-9.95076 7.12818,-4.33541 12.97818,-8.19671 13,-8.58065 0.0343,-0.60294 -7.92438,-10.75137 -11.47412,-14.6312 -0.99159,-1.08378 -3.84921,0.62452 -15.47328,9.25 C 262.17153,216.23933 255.13578,221 254.37792,221 c -3.71407,0 -0.12719,-3.71782 13.06859,-13.54569 l 14.44651,-10.75938 -4.46905,-5.59747 c -2.45797,-3.0786 -5.56777,-6.93461 -6.91065,-8.56891 l -2.4416,-2.97144 -2.78586,2.54726 C 254.2812,192.16654 235.82197,208 235.0958,208 c -0.485,0 -1.1248,-0.63319 -1.42177,-1.40708 -0.35107,-0.91488 5.18497,-6.39049 15.82618,-15.65344 l 16.36613,-14.24637 -6.96689,-8.45346 c -5.68374,-6.89651 -6.74628,-8.71928 -5.76908,-9.89674 0.98195,-1.18317 1.42541,-1.20896 2.4606,-0.1431 4.62202,4.75898 59.40903,73.46985 59.40903,74.50756 0,3.04914 -3.28195,0.79035 -8.9754,-6.17727 l -6.10388,-7.46989 -12.96971,7.96989 c -13.08139,8.03852 -14.07451,8.51306 -15.28434,7.30323 z M 488.5,228.83302 C 480.90808,224.63408 476.50926,215.29454 474.56674,199.25 L 473.93111,194 h 9.49693 c 20.78996,0 30.63526,-8.8942 38.74274,-35 2.12224,-6.83353 2.32124,-9.242 2.23946,-27.10326 -0.0836,-18.26472 -0.24554,-19.92506 -2.37115,-24.31599 -2.77686,-5.73622 -8.25837,-9.625711 -14.56793,-10.336891 l -4.56545,-0.514591 2.29715,-2.461952 C 508.36334,90.88008 514.28648,88 518.09213,88 c 16.71342,0 23.59587,35.93192 14.7443,76.97706 -6.51433,30.20729 -20.15602,56.01674 -32.98757,62.41097 -5.68315,2.83203 -8.25008,3.15886 -11.34886,1.44499 z M 357,222.625 c 0,-3.50625 -0.27986,-7.77432 -0.62192,-9.4846 -0.47287,-2.36435 -0.22287,-3.26273 1.04313,-3.74854 0.91577,-0.35141 1.83539,-0.46859 2.0436,-0.26038 0.2082,0.2082 0.70045,4.76379 1.09388,10.12353 C 361.25675,228.76475 361.22243,229 359.13701,229 357.17781,229 357,228.46957 357,222.625 Z m 20.38123,1.9261 c -0.3409,-0.88838 -0.29435,-8.1258 0.10344,-16.08316 C 378.061,196.93894 378.49788,194 379.63534,194 c 2.21612,0 2.35655,1.49848 1.58557,16.91926 -0.50542,10.10904 -1.0944,14.54299 -1.97038,14.83316 -0.68721,0.22764 -1.5284,-0.31295 -1.8693,-1.20132 z M 460.30947,61.364077 C 459.40022,58.994612 461.34183,56.5 464.09529,56.5 c 2.72109,0 3.74779,2.77923 1.86484,5.048039 -1.61729,1.948716 -4.87295,1.842726 -5.65066,-0.183962 z m 11.02691,0.07014 c -0.74382,-1.938365 0.47908,-4.299397 3.03902,-5.867383 1.36418,-0.835572 2.05364,-0.646816 3.18058,0.870763 1.22095,1.644164 1.23259,2.249924 0.0768,4 -1.76265,2.669055 -5.4318,3.249821 -6.29644,0.99662 z m 11.70345,0.113774 c -1.70315,-2.052164 -0.34272,-5.433863 2.46998,-6.139807 4.59538,-1.15337 6.02503,2.056973 2.49019,5.591816 -2.38016,2.380157 -3.35063,2.487372 -4.96017,0.547988 z M 52.548178,39.7951 c -2.935055,-2.524629 -4.69404,-9.968884 -2.653509,-11.230002 3.347876,-2.069101 8.581828,4.423426 7.946853,9.857783 -0.444735,3.806222 -1.996099,4.208389 -5.293344,1.372219 z M 39.024876,38.178722 C 36.804843,35.958689 36,34.21782 36,31.63594 c 0,-1.934848 0.454027,-3.79851 1.008949,-4.141471 4.600697,-2.843387 10.761615,8.961278 6.515927,12.484886 -1.207989,1.002542 -2.022908,0.67646 -4.5,-1.800633 z m -13,-1 C 23.647642,34.801488 23,33.280955 23,30.076923 23,26.388517 23.239642,26 25.514698,26 c 4.712431,0 8.579225,10.017309 5.010178,12.979355 -1.207989,1.002542 -2.022908,0.67646 -4.5,-1.800633 z"
         id="path2" />
    </g>
  </g>
</svg>
