<?xml version="1.0" encoding="UTF-8" standalone="no"?>
<!-- Created with Inkscape (http://www.inkscape.org/) -->

<svg
   version="1.1"
   id="svg1"
   width="512"
   height="450"
   viewBox="0 0 512 450"
   sodipodi:docname="BUSINESS_37.svg"
   inkscape:version="1.3.2 (091e20e, 2023-11-25, custom)"
   xmlns:inkscape="http://www.inkscape.org/namespaces/inkscape"
   xmlns:sodipodi="http://sodipodi.sourceforge.net/DTD/sodipodi-0.dtd"
   xmlns="http://www.w3.org/2000/svg"
   xmlns:svg="http://www.w3.org/2000/svg">
  <defs
     id="defs1" />
  <sodipodi:namedview
     id="namedview1"
     pagecolor="#ffffff"
     bordercolor="#000000"
     borderopacity="0.25"
     inkscape:showpageshadow="2"
     inkscape:pageopacity="0.0"
     inkscape:pagecheckerboard="0"
     inkscape:deskcolor="#d1d1d1"
     showgrid="false"
     inkscape:zoom="1.5683594"
     inkscape:cx="256"
     inkscape:cy="224.75716"
     inkscape:window-width="1920"
     inkscape:window-height="1001"
     inkscape:window-x="-9"
     inkscape:window-y="-9"
     inkscape:window-maximized="1"
     inkscape:current-layer="g1" />
  <g
     inkscape:groupmode="layer"
     inkscape:label="Image"
     id="g1">
    <g
       id="g2"
       transform="translate(0,0.07694354)">
      <path
         style="fill:#fefefe"
         d="M 0,225 V 0 H 256 512 V 225 450 H 256 0 Z"
         id="path6" />
      <path
         style="fill:#9faec0"
         d="M 59.5,448.91449 C 41.86862,446.82111 27.753283,441.823 25.003195,436.6995 c -1.455378,-2.71142 -1.391852,-2.90338 1.997013,-6.03454 1.952706,-1.80422 6.052311,-4.03678 9.272666,-5.0497 L 42.045333,423.7996 41.772666,406.1498 41.5,388.5 23.416179,388 5.3323579,387.5 43.627882,339.51277 c 21.062539,-26.39298 38.650258,-48.08217 39.083821,-48.19819 0.433564,-0.11603 18.031457,21.47823 39.106437,47.98723 L 160.13627,387.5 142.06814,387.77256 124,388.04512 v 17.40648 17.40648 l 5.7199,1.66282 c 24.67254,7.1725 19.93533,17.33896 -10.75474,23.08061 C 108.7984,449.50356 71.413696,450.329 59.5,448.91449 Z m 175.6737,-0.0249 c -9.32303,-1.08279 -23.27064,-4.38251 -27.44848,-6.49375 -11.29177,-5.7062 -10.0777,-11.6076 3.39886,-16.5214 L 217,423.73202 v -63.90964 -63.90963 l -18.00119,0.29363 c -9.90066,0.16149 -18.00066,0.0612 -18,-0.22295 0.003,-1.3297 77.2213,-97.09857 77.81926,-96.51427 0.37506,0.3665 17.80197,22.12337 38.72646,48.3486 l 38.04454,47.68224 -3.54454,0.24464 c -1.94949,0.13455 -10.06953,0.35955 -18.04453,0.5 l -14.5,0.25536 -0.2574,63.08399 -0.2574,63.08399 6.2574,1.72983 c 3.44157,0.9514 8.16543,2.84246 10.49747,4.20234 13.49578,7.86981 -0.79113,16.96803 -31.95066,20.34687 -11.21434,1.21604 -37.92272,1.18452 -48.61571,-0.0574 z m 180.3263,0.454 c -20.71486,-2.463 -32.53367,-5.70439 -37.41058,-10.26011 C 376.39024,437.49626 375,435.64376 375,434.96687 c 0,-2.43889 6.74849,-7.52234 12.3161,-9.27738 L 393,423.8978 V 287.4489 C 393,171.71483 392.78926,151 391.61187,151 c -0.76348,0 -5.34192,1.14576 -10.17432,2.54614 -6.47858,1.87741 -12.22954,4.62612 -21.89678,10.46569 -35.54335,21.47022 -57.76207,25.97255 -91.54077,18.54952 -6.325,-1.38995 -21.85,-4.11984 -34.5,-6.06641 -12.65,-1.94658 -40.325,-6.21061 -61.5,-9.47563 -52.04091,-8.0243 -83.072963,-12.48409 -104,-14.94641 -9.625,-1.1325 -19.358758,-2.30671 -21.630574,-2.60936 -4.117226,-0.54849 -4.132859,-0.53809 -4.837726,3.21918 -2.751716,14.66791 -11.537096,34.224 -18.087128,40.26161 C 9.7006405,205.61304 0,187.08743 0,148.17151 0,108.4635 10.905048,66.154734 24.723684,52.25 c 5.6234,-5.658436 9.140035,-5.770012 14.200319,-0.45055 3.601968,3.786456 3.701481,3.818828 29.095164,9.464812 C 82.033625,64.380211 126.8,74.392847 167.5,83.514566 c 40.7,9.121719 76.34052,17.070264 79.20116,17.663434 l 5.20116,1.07849 6.79884,-6.971274 c 3.73936,-3.8342 10.36702,-9.59429 14.72813,-12.800201 C 283.86909,74.810586 287.64782,71.375844 319.5,40.60826 334.35,26.263918 349.94289,11.224295 354.15087,7.1868757 l 7.65087,-7.34076278 3.08971,1.59775358 c 1.69934,0.8787645 3.81289,2.7014538 4.69676,4.0504208 1.5457,2.3590242 1.36927,2.9786551 -4.62099,16.2291897 -3.42542,7.577088 -6.60865,14.25973 -7.07384,14.850317 C 356.66175,38.137429 358.95331,40 362.10871,40 c 2.84946,0 24.84214,9.429845 42.03485,18.023374 5.58607,2.792117 10.46685,4.716587 10.84617,4.276601 C 415.36906,61.859989 419.42368,56.775 424,51 428.57632,45.225 432.66437,40.106582 433.08455,39.625737 433.79001,38.81844 511,134.56737 511,136.24951 511,136.66228 502.9,137 493,137 h -18 v 142.92904 142.92904 l 5.7199,1.66282 c 7.80666,2.26946 12.93601,5.02431 14.88048,7.99196 1.48272,2.26292 1.48872,2.70222 0.0665,4.87284 -3.23415,4.93593 -17.8316,9.64576 -35.87744,11.57576 -8.98363,0.96079 -37.36334,1.20569 -44.28941,0.38218 z m -56,-322.96384 c 4.9559,-0.63083 5.07736,-0.73372 13.77062,-11.66472 l 8.77062,-11.02827 -9.7425,-5.806767 C 361.70032,91.563132 362.36546,91.647189 351.5,95.251606 c -13.85318,4.59554 -23.31849,12.654854 -25.48908,21.702874 -1.26313,5.26532 -0.51503,7.99865 2.75134,10.05257 1.74552,1.09759 20.13539,0.72231 30.73774,-0.62725 z"
         id="path5" />
      <path
         style="fill:#facb41"
         d="M 67,449.04114 C 28.014845,445.74012 12.140465,433.95766 36.350816,426.29236 L 42.011873,424.5 41.755936,406.5 41.5,388.5 23.416179,388 5.3323579,387.5 43.627882,339.51277 c 21.062539,-26.39298 38.650258,-48.08217 39.083821,-48.19819 0.433564,-0.11603 18.031457,21.47823 39.106437,47.98723 L 160.13627,387.5 142.06814,387.77256 124,388.04512 v 17.88954 17.88954 l 4.02444,0.67993 c 6.69152,1.13052 15.8744,6.24463 16.63185,9.26257 1.3927,5.54894 -9.69035,10.79213 -28.89919,13.67171 -12.36977,1.85435 -36.440763,2.6456 -48.7571,1.60273 z m 174.5,-0.14226 c -12.05833,-0.9903 -23.71893,-3.26057 -31.28306,-6.09067 C 204.68709,440.73923 200,437.14272 200,434.96853 c 0,-2.388 5.88279,-6.82938 11.31304,-8.54112 L 217,424.63476 v -64.36101 -64.361 l -18.00119,0.29363 c -9.90066,0.16149 -18.00066,0.0612 -18,-0.22295 0.003,-1.3297 77.2213,-97.09857 77.81926,-96.51427 0.37506,0.3665 17.80197,22.12337 38.72646,48.3486 l 38.04454,47.68224 -3.54454,0.24464 c -1.94949,0.13455 -10.06953,0.35955 -18.04453,0.5 L 299.5,296.5 v 63.34847 63.34847 l 7.92357,2.49818 C 314.99256,428.0815 321,432.18489 321,434.96853 c 0,2.16626 -4.67869,5.76755 -10.1549,7.81647 -15.64869,5.85492 -43.06526,8.27213 -69.3451,6.11388 z m 176.5,0.14386 c -25.05922,-2.12608 -42,-7.87981 -42,-14.2648 0,-2.9413 4.51658,-6.3919 11.02015,-8.41921 l 5.96275,-1.85873 0.009,-136.78138 c 0.007,-108.55844 0.26647,-136.85648 1.25855,-137.14533 10.78429,-3.1399 13.47177,-4.24904 15.43914,-6.37188 1.27097,-1.3714 2.30085,-3.21525 2.28862,-4.09743 -0.05,-3.60861 -5.87311,-8.28023 -14.86111,-11.92247 C 392.51506,126.3168 389.79221,126 378.36665,126 371.01499,126 365,125.75277 365,125.45061 c 0,-0.30216 4.6125,-6.2559 10.25,-13.23053 5.6375,-6.97462 11.375,-14.12933 12.75,-15.899349 1.375,-1.770019 4.6684,-5.986936 7.31866,-9.370926 2.65027,-3.383991 4.31987,-5.844436 3.71022,-5.467656 -0.62097,0.38378 -4.07029,-2.100347 -7.84325,-5.648547 C 382.643,67.799888 374.51087,60.915529 369.90198,57.815649 l -3.59802,-2.41998 -18.90198,3.722308 C 321.24416,64.269154 319,64.549121 319,62.661226 c 0,-1.679517 0.90874,-2.038299 9,-3.553315 3.025,-0.566404 12.82924,-2.422407 21.7872,-4.12445 8.95796,-1.702044 17.18491,-2.809702 18.28211,-2.461462 2.74446,0.871058 14.76965,10.566316 24.60458,19.837351 l 8.1739,7.705231 15.71512,-19.782291 C 425.20622,49.402031 432.63139,40.106582 433.06328,39.625737 433.7854,38.821756 511,134.55026 511,136.24951 511,136.66228 502.9,137 493,137 h -18 v 143.4121 143.4121 l 3.89444,0.65797 c 2.14194,0.36187 6.62677,1.95015 9.96629,3.52949 19.73437,9.33288 -3.69112,20.02087 -46.86073,21.38042 -7.975,0.25116 -18.775,0.094 -24,-0.34934 z M 10.621021,194.52458 C 4.0166308,188.40384 0.64104161,172.8701 0.61955574,148.5 0.6032129,129.96332 1.8529611,117.70543 5.564354,100 11.30734,72.602728 20.996708,52.232946 29.895176,48.849754 c 3.177998,-1.208272 7.445852,0.495583 9.643817,3.850101 l 1.636489,2.497598 -3.337741,-0.688073 c -1.835758,-0.378439 -4.323408,-0.914915 -5.528113,-1.192168 -1.875092,-0.431538 -2.686187,0.480939 -5.635006,6.339346 -4.801966,9.540047 -9.297325,22.712637 -11.285178,33.068558 -2.800854,14.591324 -2.06973,37.324674 1.652161,51.371764 l 0.953023,3.59689 11.640041,0.6238 c 6.402022,0.34309 11.808771,0.79254 12.014998,0.99876 0.600942,0.60095 -4.516502,17.51425 -7.722097,25.52177 -5.363459,13.39782 -12.681311,22.14777 -18.531547,22.15816 -1.157188,0.002 -3.305939,-1.1102 -4.775002,-2.47168 z M 317.15056,47.520387 c 0.43019,-2.155391 8.73615,-4.860725 21.34944,-6.953725 13.47787,-2.236466 18.86437,-2.386792 19.24609,-0.53712 0.25503,1.235822 -1.69178,1.76797 -10.13797,2.771154 -5.74949,0.682887 -13.97588,2.179734 -18.28087,3.326326 -12.69455,3.381073 -12.57058,3.366886 -12.17669,1.393365 z"
         id="path4" />
      <path
         style="fill:#facb3d"
         d="M 67,449.04114 C 47.808946,447.41616 32.192849,443.4087 27.360156,438.86862 22.647012,434.44085 25.070981,430.44906 34.770236,426.66568 41.451737,424.05944 42,424.30473 42,429.90026 v 4.90026 l 4.75,1.05766 c 14.787715,3.29273 17.8058,3.59002 36.25,3.57071 18.23515,-0.0191 21.86733,-0.37442 36.07743,-3.52931 l 4.57744,-1.01627 -0.46367,-5.59125 -0.46367,-5.59125 4.38623,0.67155 c 7.06368,1.08146 16.75685,6.26393 17.53813,9.37678 1.39743,5.56782 -9.6581,10.80552 -28.89479,13.68927 -12.36977,1.85435 -36.440763,2.6456 -48.7571,1.60273 z m 180,0.36583 c -26.01483,-2.2301 -43.02007,-6.83892 -46.03764,-12.47729 -2.14324,-4.0047 3.76771,-9.10475 13.28764,-11.46476 2.72471,-0.67547 2.75,-0.63567 2.75,4.32693 v 5.00867 l 4.75,1.05766 c 14.43389,3.21395 17.97007,3.57053 35.75,3.60499 17.9394,0.0348 25.74792,-0.72943 37.25,-3.64558 l 4.25,-1.07751 v -5.50088 -5.50088 l 3.34289,0.54247 c 5.89555,0.95672 14.91448,5.13859 16.91765,7.84433 1.57822,2.13174 1.73009,3.02387 0.80804,4.74674 -2.25737,4.21794 -15.67317,8.97235 -31.17967,11.04973 -8.5158,1.14084 -34.9666,2.07879 -41.88891,1.48538 z m 171,-0.36423 c -19.84346,-1.68356 -35.58083,-5.83875 -40.02323,-10.56747 -1.93857,-2.06351 -2.18757,-2.97317 -1.41471,-5.1683 0.99167,-2.81663 7.71555,-6.81249 13.3646,-7.9423 L 393,424.75 v 5.02526 5.02526 l 4.75,1.05766 c 14.67752,3.2682 17.85879,3.5826 36.25,3.5826 18.39121,0 21.57248,-0.3144 36.25,-3.5826 l 4.75,-1.05766 v -5.51155 -5.51155 l 3.75,0.67159 c 2.0625,0.36938 6.54606,1.96313 9.96347,3.54166 10.92591,5.04678 9.34815,10.76692 -4.26866,15.47593 -13.67325,4.72853 -45.22541,7.37643 -66.44481,5.57614 z M 245.5,437 c -1.77225,-0.76156 -1.68684,-0.86743 0.75,-0.92971 1.5125,-0.0387 2.75,0.37971 2.75,0.92971 0,1.17371 -0.76862,1.17371 -3.5,0 z M 58.75,436.31067 C 56.256886,435.65916 56.590646,434.83702 60.5,432 c 1.894718,-1.375 3.45733,-3.2875 3.472471,-4.25 0.0385,-2.44763 3.666774,-2.23753 4.317278,0.25 0.400613,1.53195 1.364016,2 4.116631,2 4.845257,0 4.567053,1.65974 -0.419416,2.5022 -2.425302,0.40975 -4.417444,1.43364 -5.035184,2.5879 -0.992224,1.85399 -4.041484,2.30777 -8.20178,1.22057 z M 100,435.96244 c 0,-0.44194 -1.34484,-1.09891 -2.988532,-1.45992 C 93.76509,433.78949 91.920935,432 94.432509,432 c 0.852799,0 2.112603,-0.9 2.799564,-2 C 98.793137,427.50034 100,427.43055 100,429.83994 c 0,1.2622 1.26544,2.25757 4.03003,3.16997 2.8479,0.93989 3.71797,1.64209 2.96619,2.39387 C 105.73588,436.66412 100,437.12215 100,435.96244 Z m 133.4584,-0.0298 c -0.3628,-0.58702 0.27074,-1.3106 1.40787,-1.60797 1.13712,-0.29736 2.33041,-1.36906 2.65176,-2.38154 0.69567,-2.19186 3.70272,-3.32528 6.48197,-2.44318 4.0763,1.29377 1.0675,5.5 -3.93426,5.5 -1.13616,0 -2.06574,0.45 -2.06574,1 0,1.33788 -3.7071,1.28294 -4.5416,-0.0673 z M 275,435.5 c -1.925,-0.74131 -4.51861,-1.38208 -5.76357,-1.42392 -1.24496,-0.0418 -3.26996,-0.63858 -4.5,-1.32608 -1.23004,-0.6875 -2.4025,-1.34107 -2.60548,-1.45238 -0.20297,-0.11131 0.43587,-1.00729 1.41965,-1.99107 1.277,-1.27701 1.90703,-1.43366 2.20238,-0.54762 0.49253,1.4776 6.86034,1.67575 7.74702,0.24107 1.02097,-1.65196 2.5,-1.12935 2.5,0.88337 0,1.1078 0.92655,2.13167 2.25,2.48634 3.75423,1.0061 5.75,0.70832 5.75,-0.85792 0,-0.81852 0.7875,-1.42222 1.75,-1.34156 0.9625,0.0807 2.9875,0.0754 4.5,-0.0118 2.42593,-0.13977 2.75,-0.55647 2.75,-3.536 0,-1.85765 0.65529,-3.92139 1.4562,-4.58609 1.77507,-1.47317 4.05548,-0.38131 2.72069,1.30268 -0.50612,0.63853 -0.86547,2.66174 -0.79856,4.49601 0.12785,3.50437 -1.53685,5.80306 -3.37833,4.66496 -0.59819,-0.3697 -1.64438,-0.21011 -2.32487,0.35465 -0.68049,0.56476 -2.56994,1.2685 -4.19878,1.56386 -1.62884,0.29537 -3.11486,0.99703 -3.30227,1.55926 -0.45673,1.37017 -3.89773,1.16905 -8.17408,-0.47777 z m 179.21057,-0.0408 C 453.11858,434.22342 453.32273,434 455.54391,434 c 1.58014,0 2.4654,0.47206 2.22692,1.1875 -0.59651,1.78953 -2.11649,1.90551 -3.56026,0.27168 z M 47.361626,433.5 c -0.316582,-0.825 -1.427459,-1.5 -2.468615,-1.5 -2.336382,0 -2.387197,-0.79645 -0.204682,-3.2081 1.634031,-1.80559 1.776885,-1.76182 4.441926,1.36072 1.514478,1.77446 2.528173,3.59104 2.252654,4.03684 -0.834367,1.35003 -3.40798,0.90878 -4.021283,-0.68946 z m 69.695834,-0.60736 c 0.84938,-1.58709 1.41149,-1.82369 2.27682,-0.95836 0.86533,0.86533 0.78074,1.38182 -0.34264,2.09205 -2.42527,1.53331 -3.13796,1.11558 -1.93418,-1.13369 z M 223,434.07332 c 0,-0.50967 -0.73001,-1.07217 -1.62225,-1.25 -1.47924,-0.29482 -1.60646,-6.27139 -1.44312,-67.79686 0.0985,-37.11045 0.37853,-67.67295 0.62225,-67.91667 0.24371,-0.24372 0.44312,27.72473 0.44312,62.15211 0,54.30688 0.19862,62.79386 1.5,64.09524 0.825,0.825 1.5,2.1078 1.5,2.85067 0,0.74287 0.9,1.99935 2,2.79219 1.1,0.79284 2,2.46718 2,3.72076 0,1.76452 -0.56457,2.27924 -2.5,2.27924 -1.375,0 -2.5,-0.417 -2.5,-0.92668 z m 191,-1.64287 c 0,-2.05885 0.42556,-2.50604 2.14115,-2.25 1.17764,0.17575 2.51314,1.33205 2.96778,2.56955 0.73977,2.01359 0.5148,2.25 -2.14115,2.25 C 414.44739,435 414,434.61264 414,432.43045 Z m -18.44575,0.65733 c -0.31008,-0.50171 0.10034,-0.81474 0.91204,-0.69561 2.14123,0.31427 3.15446,1.60783 1.25939,1.60783 -0.8842,0 -1.86135,-0.4105 -2.17143,-0.91222 z M 440.5,432.69119 c -1.1,-0.65515 -2.16607,-1.28226 -2.36905,-1.39357 -0.20297,-0.11131 0.43587,-1.00729 1.41965,-1.99107 1.277,-1.27701 1.90703,-1.43366 2.20238,-0.54762 0.2461,0.73832 2.20286,1.24107 4.83035,1.24107 2.42917,0 4.41667,0.36 4.41667,0.8 0,3.01539 -6.61274,4.20643 -10.5,1.89119 z m 23.18181,-1.30437 C 463.9745,430.62407 464.84083,430 465.60699,430 c 2.07843,0 1.68199,1.69117 -0.53217,2.27018 -1.35055,0.35318 -1.76634,0.0895 -1.39301,-0.88336 z m 5.92518,0.0314 c -1.19253,-3.10769 -0.62733,-10.15644 0.91718,-11.43827 0.83829,-0.69572 1.63988,-1.08832 1.7813,-0.87244 0.14143,0.21587 0.0922,3.43 -0.10949,7.1425 -0.35408,6.5188 -1.32612,8.45921 -2.58899,5.16821 z M 398.25,430.50417 c -0.6875,-0.78087 -1.25,-2.08719 -1.25,-2.90295 0,-0.81575 -0.45165,-1.76232 -1.00367,-2.10349 -0.55202,-0.34116 -0.72929,-1.71353 -0.39393,-3.0497 0.42887,-1.70877 0.13334,-2.61221 -0.99633,-3.0457 -1.46428,-0.5619 -1.59583,-12.19397 -1.49007,-131.75932 0.0638,-72.12865 0.31727,-130.379 0.56327,-129.44522 0.3244,1.23141 1.73472,1.78081 5.134,2 4.63203,0.29868 4.68673,0.34306 4.68673,3.80221 0,3.3226 -0.19007,3.51573 -3.75,3.81037 -3.64624,0.30177 -3.75,0.41937 -3.75,4.25 0,3.27296 0.33844,3.93963 2,3.93963 1.33333,0 2,0.66667 2,2 0,1.55556 -0.66667,2 -3,2 h -3 v 8 8 h 3 3 v 16 16 h -3 -3 v 8 8 h 3 3 v 16 16 h -3 -3 v 8 8 h 3 3 v 16 16 h -3 -3 v 8 8 h 3 3 v 16 16 h -3 -3 v 8 8 h 3 3 v 21 c 0,18 0.21429,21 1.5,21 0.825,0 1.5,0.45 1.5,1 0,1.48446 -3.31076,1.13887 -4.75,-0.49583 z m -279.5625,-8.15 c -1.11886,-1.11886 -0.78313,-2.5313 0.4243,-1.78507 0.6115,0.37792 1.53569,0.067 2.05376,-0.69098 0.72304,-1.05784 0.87136,-0.93257 0.6382,0.53901 -0.3238,2.04365 -1.98011,3.07319 -3.11626,1.93704 z M 48,414 c 0,-1.11111 -0.666667,-2 -1.5,-2 -1.166667,0 -1.5,-1.33333 -1.5,-6 0,-4.66667 0.333333,-6 1.5,-6 0.833333,0 1.5,-0.88889 1.5,-2 0,-1.33333 -0.666667,-2 -2,-2 -1.820812,0 -2,0.66667 -2,7.44098 0,4.09254 -0.45,7.7191 -1,8.05902 -0.645726,0.39908 -0.989227,-3.5656 -0.969591,-11.19098 0.02192,-8.51163 0.315019,-11.32037 1.04969,-10.05902 0.560605,0.9625 1.896921,1.75 2.969591,1.75 1.072671,0 1.95031,0.45 1.95031,1 0,0.55 0.9,1 2,1 1.878788,0 2,0.66667 2,11 0,10.33333 -0.121212,11 -2,11 -1.333333,0 -2,-0.66667 -2,-2 z m 73.19268,-17.19098 c -0.22177,-4.24832 -1.84084,-5.92528 -2.485,-2.57385 -0.23943,1.24566 -0.4966,0.32577 -0.5715,-2.04419 -0.0753,-2.38336 0.27254,-4.05641 0.77841,-3.74377 0.50302,0.31089 1.11642,-5e-5 1.3631,-0.69098 1.03168,-2.88967 1.79914,0.44978 1.46572,6.37783 -0.19693,3.50127 -0.44476,4.705 -0.55073,2.67496 z M 14.291588,387.2575 c 3.735374,-0.19293 9.585374,-0.19149 13,0.003 3.414627,0.19468 0.358412,0.35253 -6.791588,0.35078 -7.15,-0.002 -9.943785,-0.16103 -6.208412,-0.35396 z m 108.375082,0.0758 C 121.6018,386.26847 121.8971,378 123,378 c 0.55,0 1,2.25 1,5 0,5.06993 -0.14041,5.52626 -1.33333,4.33333 z m 5.34341,-1.15835 c -1.70313,-0.52012 -2.09812,-1.00254 -1.25,-1.5267 C 127.44204,384.22681 128,383.00852 128,381.94098 128,380.87344 128.45,380 129,380 c 0.55,0 1,0.9 1,2 0,1.80138 0.67034,2.00109 6.75,2.01101 3.7125,0.006 8.325,0.26168 10.25,0.56808 3.03134,0.48248 3.65023,0.22283 4.62196,-1.93905 0.82927,-1.84497 0.82927,-2.83406 0,-3.79155 -0.61708,-0.71248 -0.0936,-0.43576 1.16331,0.61495 1.30808,1.09349 2.0419,2.54456 1.71613,3.39351 -0.31303,0.81573 0.009,1.84974 0.71473,2.29779 0.78305,0.49686 -0.31406,0.82061 -2.81251,0.82995 -2.253,0.008 -8.103,0.22577 -13,0.48299 -4.89699,0.25723 -10.02408,0.12551 -11.39354,-0.2927 z M 32.666667,381.33333 C 32.3,380.96667 32,377.78367 32,374.26001 c 0,-5.56202 0.230715,-6.36267 1.75,-6.073 1.423699,0.27145 1.805134,1.59033 2.04569,7.07333 C 36.024019,380.46465 35.77723,382 34.712357,382 c -0.758463,0 -1.679024,-0.3 -2.04569,-0.66667 z m -18.32159,-1.87646 c -0.665248,-1.73361 0.03792,-2.74904 2.114727,-3.05385 1.542698,-0.22642 2.874175,2.24757 1.984423,3.68722 -0.895581,1.44908 -3.45159,1.05415 -4.09915,-0.63337 z M 143.2,376.8 c -1.59743,-1.59743 -1.51868,-2.8 0.18337,-2.8 0.76085,0 1.61872,0.9 1.90638,2 0.58901,2.25237 -0.29787,2.59188 -2.08975,0.8 z m 0.84839,-4.70958 c -0.75454,-1.40988 -0.69833,-1.86046 0.21482,-1.72188 3.25441,0.4939 5.21739,3.63146 2.27197,3.63146 -0.80565,0 -1.9247,-0.85931 -2.48679,-1.90958 z M 23,369 c 0,-0.55 0.675,-1 1.5,-1 0.825,0 1.5,0.45 1.5,1 0,0.55 -0.675,1 -1.5,1 -0.825,0 -1.5,-0.45 -1.5,-1 z m 115.24953,-0.25 c 0.22891,-0.6875 1.24709,-1.41103 2.26261,-1.60785 1.69631,-0.32876 1.7157,-0.22713 0.23857,1.25 -1.92137,1.92137 -3.07681,2.08668 -2.50118,0.35785 z M 135,365 c 0,-0.55 0.45,-1 1,-1 0.55,0 1,0.45 1,1 0,0.55 -0.45,1 -1,1 -0.55,0 -1,-0.45 -1,-1 z M 26.8125,363.31689 c 0.721875,-0.28887 1.584375,-0.25335 1.916667,0.0789 0.332291,0.33229 -0.258334,0.56864 -1.3125,0.52522 -1.164943,-0.048 -1.4019,-0.28494 -0.604167,-0.60416 z m 3.84055,-2.18427 c -1.604326,-0.63133 -1.653213,-0.8876 -0.372143,-1.95079 1.207398,-1.00205 1.570639,-0.85752 2.003331,0.79709 0.290687,1.1116 0.458152,1.98945 0.372142,1.95079 -0.08601,-0.0387 -0.987507,-0.39734 -2.00333,-0.79709 z M 42,358 c 0,-1.1 -0.460374,-2 -1.023053,-2 -0.562679,0 -0.308392,-1.09071 0.565083,-2.4238 1.454661,-2.2201 1.449446,-2.692 -0.06204,-5.6149 -1.748219,-3.38069 -1.353959,-4.3214 2.270015,-5.41629 1.665463,-0.50318 2.25,-0.27259 2.25,0.8876 C 46,344.29468 45.55,345 45,345 c -0.55,0 -1,0.675 -1,1.5 0,1.88132 3.369217,1.96497 4.899051,0.12164 C 50.264034,344.97693 48.73001,340 46.858084,340 c -0.655279,0 -0.944517,-0.2469 -0.642749,-0.54867 0.301767,-0.30177 1.726767,-0.25298 3.166666,0.10841 C 51.835407,340.17551 52,340.58722 52,346.10841 52,351.33333 51.773689,352 50,352 c -1.666667,0 -2,0.66667 -2,4 0,3.77778 -0.166667,4 -3,4 -2.333333,0 -3,-0.44444 -3,-2 z m 26,-12 c 0,-5.33333 -0.222222,-6 -2,-6 -1.666667,0 -2,-0.66667 -2,-4 0,-3.33333 -0.333333,-4 -2,-4 -1.666667,0 -2,0.66667 -2,4 0,2.2 -0.45,4 -1,4 -0.55,0 -1,-0.9 -1,-2 0,-1.1 -0.45,-2 -1,-2 -1.630132,0 -1.138192,-5.00466 0.669643,-6.8125 1.2142,-1.2142 1.782489,-1.33111 2.083333,-0.42857 C 60.455106,330.86532 64,330.23186 64,328 c 0,-1.33333 0.666667,-2 2,-2 1.333333,0 2,-0.66667 2,-2 0,-1.1 -0.45,-2 -1,-2 -0.55,0 -1,-0.45 -1,-1 0,-0.57143 3,-1 7,-1 6.333333,0 7,0.19048 7,2 0,1.33333 -0.666667,2 -2,2 -1.333333,0 -2,0.66667 -2,2 0,1.66667 -0.666667,2 -4,2 h -4 v 4 c 0,2.88889 0.416667,4 1.5,4 1.208333,0 1.5,1.55556 1.5,8 0,6.44444 -0.291667,8 -1.5,8 -1.166667,0 -1.5,-1.33333 -1.5,-6 z m 49.15789,4 c 0,-1.375 0.22698,-1.9375 0.50439,-1.25 0.27741,0.6875 0.27741,1.8125 0,2.5 -0.27741,0.6875 -0.50439,0.125 -0.50439,-1.25 z M 125,349.94098 c 0,-1.13246 0.45,-1.7809 1,-1.44098 0.55,0.33992 1,1.26648 1,2.05902 0,0.79254 -0.45,1.44098 -1,1.44098 -0.55,0 -1,-0.92656 -1,-2.05902 z m -88.447214,0.14443 c -0.321975,-0.52097 -0.159164,-1.21065 0.361804,-1.53262 0.520967,-0.32198 1.210648,-0.15917 1.532624,0.3618 0.321975,0.52097 0.159164,1.21065 -0.361804,1.53262 -0.520967,0.32198 -1.210648,0.15917 -1.532624,-0.3618 z M 121.15789,346 c 0,-1.375 0.22698,-1.9375 0.50439,-1.25 0.27741,0.6875 0.27741,1.8125 0,2.5 -0.27741,0.6875 -0.50439,0.125 -0.50439,-1.25 z m -4,-4 c 0,-1.375 0.22698,-1.9375 0.50439,-1.25 0.27741,0.6875 0.27741,1.8125 0,2.5 -0.27741,0.6875 -0.50439,0.125 -0.50439,-1.25 z m 3.65461,-0.68311 c 0.72187,-0.28887 1.58437,-0.25335 1.91667,0.0789 0.33229,0.33229 -0.25834,0.56864 -1.3125,0.52522 -1.16495,-0.048 -1.4019,-0.28494 -0.60417,-0.60416 z m -72.081287,-5.23673 c -0.434974,-1.66335 -0.304831,-2.05378 0.437237,-1.31171 0.581102,0.5811 0.859794,1.64682 0.619313,2.36826 -0.249648,0.74895 -0.702941,0.29565 -1.05655,-1.05655 z m 62.830717,1.02004 c -0.92633,-1.49882 -0.19706,-6.14512 0.90703,-5.77888 1.2448,0.41291 1.71676,6.67868 0.50306,6.67868 -0.46969,0 -1.10423,-0.40491 -1.41009,-0.8998 z M 102,328.5 c 0,-0.825 0.45,-1.5 1,-1.5 0.55,0 1,0.675 1,1.5 0,0.825 -0.45,1.5 -1,1.5 -0.55,0 -1,-0.675 -1,-1.5 z m 7,-0.5 c 0,-0.55 -0.87344,-1 -1.94098,-1 -2.22045,0 -3.56864,-1.567 -2.11901,-2.46293 0.53496,-0.33061 0.70702,-1.37421 0.38236,-2.3191 -0.32465,-0.94488 0.59501,-0.16804 2.04368,1.72631 2.49316,3.26018 3.25103,5.05572 2.13395,5.05572 -0.275,0 -0.5,-0.45 -0.5,-1 z M 62.726875,317.93643 c 0.275278,-1.05266 0.899345,-1.66744 1.386815,-1.36617 1.316302,0.81352 1.07402,2.14373 -0.500505,2.74793 -0.970945,0.37259 -1.236726,-0.0418 -0.88631,-1.38176 z M 102,319 c 0,-0.55 0.42344,-1 0.94098,-1 0.51754,0 1.2191,0.45 1.55902,1 0.33992,0.55 -0.0835,1 -0.94098,1 C 102.70156,320 102,319.55 102,319 Z m -30.75,-4.49583 c -1.469525,-1.66909 -1.571203,-3.44816 -0.310903,-5.43987 1.315828,-2.07946 4.318646,0.54826 3.516093,3.07688 C 73.967688,313.67717 74.397959,314 76.932612,314 78.619676,314 80,314.45 80,315 c 0,1.53007 -7.332139,1.11458 -8.75,-0.49583 z M 80,311 c 0,-0.55 0.50246,-1 1.116577,-1 0.651791,0 0.917644,-1.04065 0.638672,-2.5 -0.320466,-1.67641 -0.02944,-2.5 0.883423,-2.5 0.74873,0 1.361328,0.675 1.361328,1.5 0,2.5959 3.720034,1.74488 4.238966,-0.96974 0.259666,-1.35835 0.08713,-2.2318 -0.383423,-1.94098 C 87.384994,303.88009 87,303.64148 87,303.05902 c 0,-1.56741 2.568163,-1.28428 4,0.44098 0.860104,1.03636 0.897951,1.5 0.122445,1.5 C 90.5051,305 90,306.125 90,307.5 c 0,1.375 0.45,2.5 1,2.5 0.55,0 1,0.45 1,1 0,0.55556 -2.666667,1 -6,1 -3.333333,0 -6,-0.44444 -6,-1 z m -9,-4.71089 c 0,-0.57432 0.7875,-1.66182 1.75,-2.41667 1.618755,-1.26951 1.639977,-1.22245 0.282968,0.62756 -0.806868,1.1 -1.594368,2.1875 -1.75,2.41667 C 71.127335,307.14583 71,306.86343 71,306.28911 Z m 225,-4.84813 c 0,-0.85746 0.45734,-1.27636 1.01631,-0.9309 0.55897,0.34546 0.75742,1.04702 0.44098,1.55902 C 296.60006,303.45614 296,303.19751 296,301.44098 Z M 75.5,301 c -0.360575,-0.58342 0.656282,-1 2.440983,-1 C 79.623442,300 81,300.45 81,301 c 0,0.55 -1.098442,1 -2.440983,1 -1.342541,0 -2.719098,-0.45 -3.059017,-1 z m 5,-5 c -0.399154,-0.64585 -0.275735,-1.62426 0.274265,-2.17426 0.666666,-0.66667 1.241911,-0.60858 1.725735,0.17426 0.399154,0.64585 0.275735,1.62426 -0.274265,2.17426 C 81.559069,296.84093 80.983824,296.78284 80.5,296 Z M 332,295 c 0,-0.55 0.42344,-1 0.94098,-1 0.51754,0 1.2191,0.45 1.55902,1 0.33992,0.55 -0.0835,1 -0.94098,1 C 332.70156,296 332,295.55 332,295 Z m -33.20278,-1.18273 c 0.94115,-0.91431 31.20596,-1.51081 31.20418,-0.61502 -7.7e-4,0.38624 -7.18015,0.83624 -15.95418,1 -8.77403,0.16376 -15.63653,-0.009 -15.25,-0.38498 z M 191.69385,293.36052 C 189.97395,291.64062 193.05831,291 203.05902,291 212.11767,291 214,291.25807 214,292.5 c 0,1.24103 -1.87037,1.5 -10.83333,1.5 -5.95834,0 -11.1211,-0.28777 -11.47282,-0.63948 z m -3.23097,-3.42059 c -0.22865,-0.36995 0.44142,-1.44834 1.48904,-2.39642 2.10676,-1.90659 6.04808,-1.31067 6.04808,0.91447 0,1.37328 -6.78035,2.70643 -7.53712,1.48195 z M 202,285.2 c 0,-1.54 -0.5625,-3.39293 -1.25,-4.11761 -0.98224,-1.03537 -0.76803,-1.02668 1,0.0406 2.28574,1.37973 3.28496,6.87706 1.25,6.87706 -0.55,0 -1,-1.26 -1,-2.8 z m 6,-0.2 c 0,-2.33333 0.44444,-3 2,-3 1.55556,0 2,0.66667 2,3 0,2.33333 -0.44444,3 -2,3 -1.55556,0 -2,-0.66667 -2,-3 z m 111.98635,0.75 c -0.008,-1.2375 -0.30316,-3.375 -0.657,-4.75 -0.62381,-2.42411 -0.58311,-2.44693 1.34069,-0.75154 1.40763,1.24049 1.85604,2.62046 1.54349,4.75 -0.51235,3.49091 -2.20709,4.06278 -2.22718,0.75154 z M 194.5,280 c -0.33992,-0.55 -0.16803,-1 0.38197,-1 0.55,0 1.27811,0.45 1.61803,1 0.33992,0.55 0.16803,1 -0.38197,1 -0.55,0 -1.27811,-0.45 -1.61803,-1 z m 6,-5.04917 c -1.83714,-0.74428 -1.84879,-0.81598 -0.14301,-0.88054 1.22672,-0.0464 1.66163,-0.5794 1.28138,-1.57029 -0.31658,-0.825 -0.13972,-1.5 0.39301,-1.5 0.53274,0 0.96862,-0.69083 0.96862,-1.53518 0,-1.20792 0.41234,-1.31451 1.93426,-0.5 2.9655,1.58708 5.06574,1.23784 5.06574,-0.84238 0,-2.22882 -2.31552,-4.41729 -3.55904,-3.36376 -0.48126,0.40772 -0.26098,-0.0598 0.48953,-1.0389 1.30104,-1.69735 1.45078,-1.68766 3.21703,0.20819 1.01886,1.09362 1.85248,2.90722 1.85248,4.03022 0,1.12299 0.45,2.04181 1,2.04181 0.55,0 1,0.45 1,1 0,0.55 -0.9,1 -2,1 -1.1,0 -2,0.50248 -2,1.11663 0,0.66015 -0.90474,0.88004 -2.21312,0.53789 -1.22588,-0.32058 -2.89871,0.0202 -3.75,0.76391 -0.98843,0.86351 -2.2506,1.0535 -3.53688,0.5324 z M 312,270.3 c 0,-2.08724 0.27004,-2.42996 1.18988,-1.51012 C 314.92011,270.52011 315.05066,273 313.41152,273 312.54468,273 312,271.95811 312,270.3 Z M 303,259 c 0,-0.55 0.42344,-1 0.94098,-1 0.51754,0 1.2191,0.45 1.55902,1 0.33992,0.55 -0.0835,1 -0.94098,1 C 303.70156,260 303,259.55 303,259 Z m -88,-2.72634 c 0,-1.13283 0.68541,-2.3227 1.52314,-2.64417 1.28018,-0.49125 1.33833,-0.22917 0.36454,1.64302 C 215.22933,258.46084 215,258.58246 215,256.27366 Z m 85,-0.83581 c 0,-1.78679 1.40495,-1.85977 2.82658,-0.14681 0.81,0.97599 0.59585,1.32686 -0.87756,1.43785 C 300.85259,256.81148 300,256.24672 300,255.43785 Z m -2,-2.27118 C 298,252.525 297.292,252 296.42668,252 c -0.89445,0 -1.43382,-0.67004 -1.25,-1.55282 0.32096,-1.54149 2.30929,-2.13423 2.33863,-0.69718 0.008,0.4125 0.39099,1.34244 0.85014,2.06653 0.45915,0.72409 0.56476,1.58659 0.23469,1.91667 C 298.27006,254.06327 298,253.80833 298,253.16667 Z m -78.78943,-2.70471 C 218.50139,249.65788 218.31285,249 218.79159,249 c 0.47875,0 1.45331,-1.08908 2.16568,-2.42017 0.75862,-1.41748 1.87496,-2.1977 2.69451,-1.88321 1.04647,0.40157 1.11987,0.8736 0.29112,1.87218 -0.60947,0.73437 -0.81563,2.25682 -0.45813,3.38321 0.49428,1.55733 0.21459,2.03888 -1.16738,2.00995 -0.99957,-0.0209 -2.39763,-0.69592 -3.10682,-1.5 z M 279.2,232.8 c -0.66,-0.66 -1.2,-1.46236 -1.2,-1.78302 0,-0.45568 4.13137,-0.52539 5.82143,-0.0982 0.40406,0.10212 -2.54485,3.08124 -3.05,3.08124 -0.20429,0 -0.91143,-0.54 -1.57143,-1.2 z m -43.48579,-1.10237 C 234.94537,229.69407 237.71007,224 239.45173,224 c 2.02984,0 1.95304,0.59523 -0.37752,2.92579 -1.19614,1.19614 -1.72027,2.71167 -1.38337,4 0.58584,2.24024 -1.15265,2.9191 -1.97663,0.77184 z M 270.15789,222 c 0,-1.375 0.22698,-1.9375 0.50439,-1.25 0.27741,0.6875 0.27741,1.8125 0,2.5 -0.27741,0.6875 -0.50439,0.125 -0.50439,-1.25 z m -25.94963,-0.74725 c -0.98717,-0.34179 -1.0194,-0.77538 -0.13669,-1.83899 0.63527,-0.76545 1.57377,-1.13295 2.08554,-0.81666 0.51178,0.31629 1.58579,0.0312 2.38669,-0.63345 1.17317,-0.97364 1.4562,-0.89319 1.4562,0.41391 0,0.93226 -0.81534,1.62244 -1.91667,1.62244 -1.05416,0 -2.06666,0.3825 -2.25,0.85 -0.18333,0.4675 -0.91461,0.64874 -1.62507,0.40275 z m 21.39873,-2.83454 C 264.59503,215.7811 264.92144,214 266.41667,214 c 1.67271,0 2.43837,1.80385 1.80394,4.25 -0.56495,2.1783 -1.81149,2.25852 -2.61362,0.16821 z m 6.47196,-0.002 c 0.048,-1.16495 0.28494,-1.4019 0.60416,-0.60417 0.28887,0.72187 0.25335,1.58437 -0.0789,1.91667 -0.33229,0.33229 -0.56864,-0.25834 -0.52522,-1.3125 z m -20.95297,-5.76488 c -0.8525,-1.02719 -0.65856,-1.76483 0.81454,-3.09796 2.35135,-2.12795 4.05948,-1.28422 4.05948,2.00519 0,2.74665 -2.95212,3.40853 -4.87402,1.09277 z M 263.5,210 c 0.33992,-0.55 1.06803,-1 1.61803,-1 0.55,0 0.72189,0.45 0.38197,1 -0.33992,0.55 -1.06803,1 -1.61803,1 -0.55,0 -0.72189,-0.45 -0.38197,-1 z M 10.621021,194.52458 C 4.0166308,188.40384 0.64104161,172.8701 0.61955574,148.5 0.6032129,129.96332 1.8529611,117.70543 5.564354,100 11.30734,72.602728 20.996708,52.232946 29.895176,48.849754 c 3.177998,-1.208272 7.445852,0.495583 9.643817,3.850101 l 1.636489,2.497598 -3.337741,-0.688073 c -1.835758,-0.378439 -4.323408,-0.914915 -5.528113,-1.192168 -1.875092,-0.431538 -2.686187,0.480939 -5.635006,6.339346 -4.801966,9.540047 -9.297325,22.712637 -11.285178,33.068558 -2.800854,14.591324 -2.06973,37.324674 1.652161,51.371764 l 0.953023,3.59689 11.640041,0.6238 c 6.402022,0.34309 11.808771,0.79254 12.014998,0.99876 0.600942,0.60095 -4.516502,17.51425 -7.722097,25.52177 -5.363459,13.39782 -12.681311,22.14777 -18.531547,22.15816 -1.157188,0.002 -3.305939,-1.1102 -4.775002,-2.47168 z M 410,172 c 0,-2.2 0.45,-4 1,-4 0.55,0 1,0.45 1,1 0,0.55 0.9,1 2,1 1.55556,0 2,0.66667 2,3 0,2.66667 -0.33333,3 -3,3 -2.83333,0 -3,-0.22222 -3,-4 z m 61.34941,-4 c 0,-4.675 0.17226,-6.5875 0.3828,-4.25 0.21053,2.3375 0.21053,6.1625 0,8.5 -0.21054,2.3375 -0.3828,0.425 -0.3828,-4.25 z M 410,162.05902 C 410,160.92656 410.45,160 411,160 c 0.55,0 1,0.64844 1,1.44098 0,0.79254 -0.45,1.7191 -1,2.05902 -0.55,0.33992 -1,-0.30852 -1,-1.44098 z M 416,158 c 0,-1.62857 -0.66667,-2 -3.58971,-2 -2.49984,0 -4.15959,-0.68312 -5.46673,-2.25 -2.28018,-2.73327 -2.46851,-4.75 -0.44356,-4.75 0.94473,0 1.5,0.95259 1.5,2.57332 0,3.39137 3.17484,2.93165 3.9957,-0.57857 0.41686,-1.78259 1.35713,-2.58508 3.29385,-2.81117 1.49075,-0.17403 2.71045,0.16347 2.71045,0.75 0,0.58653 -0.9,1.06642 -2,1.06642 -1.1,0 -2,0.60526 -2,1.34501 0,1.60054 3.16847,4.65499 4.82874,4.65499 0.64419,0 1.17126,0.9 1.17126,2 0,1.33333 -0.66667,2 -2,2 -1.33333,0 -2,-0.66667 -2,-2 z m -18.85676,-3.89031 c -0.99791,-0.63231 -1.049,-1.0499 -0.19317,-1.57883 1.5873,-0.98101 6.27879,0.28983 5.53181,1.49846 -0.73825,1.19452 -3.51433,1.23631 -5.33864,0.0804 z M 471,142.05902 C 471,140.92656 471.45,140 472,140 c 0.55,0 1,0.64844 1,1.44098 0,0.79254 -0.45,1.7191 -1,2.05902 -0.55,0.33992 -1,-0.30852 -1,-1.44098 z m -58,-2.43183 c 0,-2.23584 -0.84477,-4.49777 -2.32058,-6.2135 l -2.32058,-2.69784 2.35966,-2.54612 2.35966,-2.54611 2.71092,2.77212 2.71092,2.77213 -2.25,1.53804 c -2.4093,1.64693 -3.05881,5.85782 -1.00893,6.54111 0.89237,0.29746 0.75189,0.90288 -0.5,2.15477 C 413.08631,143.05655 413,142.96858 413,139.62719 Z M 470,135.5 c 0,-1.68232 0.18368,-1.75048 2.41247,-0.89522 C 474.24315,135.30728 473.55659,137 471.44098,137 470.64844,137 470,136.325 470,135.5 Z m 20.5,-1.46323 c -9.74906,-0.30782 -16.17921,-0.87182 -15.07564,-1.32229 2.5056,-1.02279 32.69838,-0.72209 32.0548,0.31924 -0.27039,0.4375 0.0737,1.02337 0.76461,1.30192 0.69093,0.27856 0.80623,0.44604 0.25623,0.37218 -0.55,-0.0739 -8.65,-0.37583 -18,-0.67105 z M 503.15,130.05 c 0.42971,-1.28914 1.80131,-1.5207 1.925,-0.325 0.0412,0.39875 -0.465,0.905 -1.125,1.125 -0.66,0.22 -1.02,-0.14 -0.8,-0.8 z M 401.24377,127.33564 C 399.66819,126.70043 400.62573,125 402.55902,125 c 0.79254,0 1.44098,0.675 1.44098,1.5 0,1.54198 -0.57319,1.71576 -2.75623,0.83564 z m -5.75811,-3.07035 c 1.09211,-0.27649 2.7199,-1.34929 3.61729,-2.384 2.06475,-2.38067 2.89705,-2.38247 2.89705,-0.006 0,1.3 -0.95833,2.06667 -3.125,2.5 -3.61996,0.72399 -6.33524,0.6361 -3.38934,-0.10971 z M 391,123.08333 C 391,122.3898 387.91522,122 382.42668,122 c -7.6268,0 -8.53612,-0.19321 -8.23631,-1.75 0.18536,-0.9625 1.11836,-1.7125 2.07333,-1.66667 0.95496,0.0458 5.3676,0.15834 9.80585,0.25 7.67184,0.15846 8.0538,0.2737 7.75,2.33834 C 393.49501,123.37724 391,125.06886 391,123.08333 Z m 105,-1.14235 c 0,-0.58246 0.45,-0.7809 1,-0.44098 0.55,0.33992 1,0.81648 1,1.05902 0,0.24254 -0.45,0.44098 -1,0.44098 -0.55,0 -1,-0.47656 -1,-1.05902 z M 491,116 c 0,-1.1 0.63287,-2 1.40638,-2 0.91405,0 1.22329,0.70014 0.88337,2 -0.28766,1.1 -0.92053,2 -1.40638,2 C 491.39752,118 491,117.1 491,116 Z m -118,0.14217 c 0,-1.02776 3.02888,-2.44663 3.72877,-1.74673 0.24339,0.24339 -0.49602,0.94481 -1.64312,1.55872 C 373.93781,116.56846 373,116.653 373,116.14217 Z m 112.31452,-1.56893 c -0.65201,-0.74288 -0.95507,-2.23178 -0.67346,-3.30866 0.3802,-1.45388 1.13976,-1.83797 2.95026,-1.49187 3.33419,0.63737 3.69016,1.59672 1.52063,4.09821 -2.14408,2.47215 -2.23011,2.48806 -3.79743,0.70232 z M 378,113.10699 c 0,-1.04116 0.675,-2.15203 1.5,-2.46862 0.825,-0.31658 1.51368,-1.82722 1.53041,-3.35699 0.0259,-2.37245 0.18027,-2.52409 1.04969,-1.03138 0.5606,0.9625 1.67192,1.75 2.46959,1.75 2.05116,0 1.83492,0.61575 -1.40795,4.0091 C 379.86359,115.43936 378,115.83729 378,113.10699 Z m 15.75,1.18728 c 1.2375,-0.23836 3.2625,-0.23836 4.5,0 1.2375,0.23835 0.225,0.43337 -2.25,0.43337 -2.475,0 -3.4875,-0.19502 -2.25,-0.43337 z M 394,110 c 0,-1.1 -0.51974,-2 -1.15499,-2 -0.70432,0 -0.52896,-0.69175 0.44941,-1.77284 2.23411,-2.46866 0.73308,-4.84743 -2.1015,-3.33041 -1.13379,0.60679 -2.26356,1.10325 -2.5106,1.10325 -0.99517,0 -1.31741,-4.95497 -0.34336,-5.279654 1.30127,-0.433755 5.64262,1.508874 5.65324,2.529654 0.004,0.4125 1.3578,0.75 3.0078,0.75 2.33333,0 3,0.44444 3,2 0,1.33333 0.66667,2 2,2 1.55556,0 2,0.66667 2,3 0,2.33333 -0.44444,3 -2,3 -1.33333,0 -2,-0.66667 -2,-2 0,-1.33333 -0.66667,-2 -2,-2 -1.33333,0 -2,0.66667 -2,2 0,1.1 -0.45,2 -1,2 -0.55,0 -1,-0.9 -1,-2 z m 84.0698,-5.4159 c -0.93827,-1.13055 -0.76322,-1.54663 0.8686,-2.06455 2.42961,-0.77113 4.0616,0.0483 4.0616,2.03947 0,1.85283 -3.39895,1.87012 -4.9302,0.0251 z M 394,99 c 0,-0.55 -0.70156,-1 -1.55902,-1 -2.34655,0 -0.78342,-1.783189 4.38071,-4.997424 3.33642,-2.076641 4.8455,-2.550667 5.39062,-1.693288 C 403.33844,93.080468 403.15928,94 401.68806,94 c -0.72157,0 -2.31004,1.35 -3.52994,3 C 395.95661,99.977706 394,100.91881 394,99 Z m 77,-7.393011 c 0,-1.69554 2.70442,-2.894258 3.52699,-1.563315 C 474.85207,90.569653 474.83992,91.45 474.5,92 473.57595,93.495143 471,93.205892 471,91.606989 Z m -74,-2.889931 c 0,-0.290307 1.575,-2.412983 3.5,-4.717058 3.70176,-4.430719 4.18388,-4.260234 2.40259,0.84959 -0.60358,1.73142 -1.52329,2.88483 -2.04381,2.563133 -0.52051,-0.321696 -1.60168,-0.04106 -2.40258,0.623632 C 397.65529,88.701049 397,89.007365 397,88.717058 Z M 393.95931,78.436476 C 389.24719,73.545453 374.71004,61.076579 370.0735,57.949031 l -3.78176,-2.550969 -18.89587,3.721111 C 321.24459,64.269072 319,64.549058 319,62.661226 c 0,-1.679517 0.90874,-2.038299 9,-3.553315 3.025,-0.566404 12.82924,-2.422407 21.7872,-4.12445 8.95796,-1.702044 17.18491,-2.809702 18.28211,-2.461462 4.67952,1.48522 32.3333,25.770184 31.65663,27.800181 -0.71884,2.156525 -2.40276,1.60588 -5.76663,-1.885704 z M 456,81 c 0,-0.55 0.9,-1 2,-1 1.1,0 2,0.45 2,1 0,0.55 -0.9,1 -2,1 -1.1,0 -2,-0.45 -2,-1 z m -16,-4 c 0,-2.833333 0.22222,-3 4,-3 3.77778,0 4,0.166667 4,3 0,2.833333 -0.22222,3 -4,3 -3.77778,0 -4,-0.166667 -4,-3 z m -34,0.274419 c 0.825,-0.312227 1.86516,-1.186165 2.31146,-1.942085 1.04159,-1.764176 2.78204,-0.739576 2.03788,1.199691 -0.31133,0.811315 -1.7456,1.43266 -3.20633,1.389028 -1.57607,-0.04708 -2.03749,-0.308112 -1.14301,-0.646634 z m 54.01499,-1.246411 c -1.23454,-2.306754 0.14037,-2.750664 1.91112,-0.617036 0.75526,0.910026 0.81654,1.630043 0.17262,2.028009 -0.54911,0.339369 -1.48679,-0.295568 -2.08374,-1.410973 z M 417.25,65.292833 C 415.64278,61.832082 415.67508,61 417.41667,61 c 0.77916,0 1.61756,-0.5625 1.86309,-1.25 0.86443,-2.420393 1.39382,-0.201912 0.95451,4 -0.51485,4.924358 -1.23979,5.299145 -2.98427,1.542833 z m 5.33295,-8.158618 c -0.43077,-0.697003 -0.51316,-1.537338 -0.18309,-1.867413 0.89497,-0.894961 1.87077,0.421303 1.38739,1.871444 -0.33872,1.016175 -0.57427,1.015386 -1.2043,-0.004 z M 443,55 c 0,-0.55 -0.9,-1 -2,-1 -1.1,0 -2,-0.444959 -2,-0.988798 0,-0.54384 1.125,-0.895691 2.5,-0.781893 1.65392,0.136883 2.5,0.809956 2.5,1.988799 C 444,55.198149 443.775,56 443.5,56 443.225,56 443,55.55 443,55 Z m -18.40344,-2.843769 c -0.34605,-0.559919 -0.1419,-1.31919 0.45366,-1.687268 1.53748,-0.950218 2.52947,0.35135 1.24598,1.634836 -0.71818,0.71818 -1.27752,0.735435 -1.69964,0.05243 z m 4.07289,-1.575242 c -0.29949,-0.780456 0.24767,-2.332417 1.21591,-3.448802 1.73177,-1.996755 1.75924,-1.973707 1.68753,1.416067 -0.0729,3.445845 -1.8766,4.708643 -2.90344,2.032735 z M 317.15056,47.520387 c 0.43019,-2.155391 8.73615,-4.860725 21.34944,-6.953725 13.47787,-2.236466 18.86437,-2.386792 19.24609,-0.53712 0.25503,1.235822 -1.69178,1.76797 -10.13797,2.771154 -5.74949,0.682887 -13.97588,2.179734 -18.28087,3.326326 -12.69455,3.381073 -12.57058,3.366886 -12.17669,1.393365 z"
         id="path3" />
      <path
         style="fill:#0d0c18"
         d="M 67,449.04114 C 47.808946,447.41616 32.192849,443.4087 27.360156,438.86862 22.647012,434.44085 25.070981,430.44906 34.770236,426.66568 41.458446,424.05683 42,424.30154 42,429.93261 c 0,5.61989 -0.745106,5.14745 12,7.60869 17.902739,3.45725 45.105277,2.96058 63.19492,-1.15383 L 124,434.83969 v -5.53113 -5.53114 l 3.75,0.65513 c 2.0625,0.36033 6.56079,2.01277 9.99621,3.67209 8.01227,3.86997 9.20989,6.89896 4.33641,10.96753 -8.96936,7.48795 -46.123566,12.42104 -75.08262,9.96897 z m 180,0.36583 c -26.01483,-2.2301 -43.02007,-6.83892 -46.03764,-12.47729 -2.14324,-4.0047 3.76771,-9.10475 13.28764,-11.46476 2.72578,-0.67573 2.75,-0.63745 2.75,4.34652 v 5.02825 l 6.75,1.53223 c 18.09243,4.10694 46.11223,4.61414 63.75,1.15398 12.20807,-2.39497 11.5,-1.8886 11.5,-8.22413 v -5.56345 l 3.34289,0.54247 c 5.89555,0.95672 14.91448,5.13859 16.91765,7.84433 1.57822,2.13174 1.73009,3.02387 0.80804,4.74674 -2.25737,4.21794 -15.67317,8.97235 -31.17967,11.04973 -8.5158,1.14084 -34.9666,2.07879 -41.88891,1.48538 z m 171,-0.36423 c -19.84346,-1.68356 -35.58083,-5.83875 -40.02323,-10.56747 -1.93857,-2.06351 -2.18757,-2.97317 -1.41471,-5.1683 0.99167,-2.81663 7.71555,-6.81249 13.3646,-7.9423 L 393,424.75 v 5.05761 c 0,5.77921 -0.85153,5.24308 12.5,7.8701 17.11786,3.36808 52.78718,2.16156 67.75,-2.29165 1.39359,-0.41476 1.75,-1.64991 1.75,-6.06474 v -5.5439 l 3.75,0.67159 c 2.0625,0.36938 6.54606,1.96313 9.96347,3.54166 10.92591,5.04678 9.34815,10.76692 -4.26866,15.47593 -13.67325,4.72853 -45.22541,7.37643 -66.44481,5.57614 z M 10.621021,194.52458 C 4.0166308,188.40384 0.64104161,172.8701 0.61955574,148.5 0.6032129,129.96332 1.8529611,117.70543 5.564354,100 11.30734,72.602728 20.996708,52.232946 29.895176,48.849754 c 3.177998,-1.208272 7.445852,0.495583 9.643817,3.850101 l 1.636489,2.497598 -3.337741,-0.688073 c -1.835758,-0.378439 -4.323408,-0.914915 -5.528113,-1.192168 -1.875092,-0.431538 -2.686187,0.480939 -5.635006,6.339346 -4.801966,9.540047 -9.297325,22.712637 -11.285178,33.068558 -2.800854,14.591324 -2.06973,37.324674 1.652161,51.371764 l 0.953023,3.59689 11.640041,0.6238 c 6.402022,0.34309 11.808771,0.79254 12.014998,0.99876 0.600942,0.60095 -4.516502,17.51425 -7.722097,25.52177 -5.363459,13.39782 -12.681311,22.14777 -18.531547,22.15816 -1.157188,0.002 -3.305939,-1.1102 -4.775002,-2.47168 z M 393.95931,78.436476 C 389.24719,73.545453 374.71004,61.076579 370.0735,57.949031 l -3.78176,-2.550969 -18.89587,3.721111 C 321.24459,64.269072 319,64.549058 319,62.661226 c 0,-1.679517 0.90874,-2.038299 9,-3.553315 3.025,-0.566404 12.82924,-2.422407 21.7872,-4.12445 8.95796,-1.702044 17.18491,-2.809702 18.28211,-2.461462 4.67952,1.48522 32.3333,25.770184 31.65663,27.800181 -0.71884,2.156525 -2.40276,1.60588 -5.76663,-1.885704 z M 317.15056,47.520387 c 0.43019,-2.155391 8.73615,-4.860725 21.34944,-6.953725 13.47787,-2.236466 18.86437,-2.386792 19.24609,-0.53712 0.25503,1.235822 -1.69178,1.76797 -10.13797,2.771154 -5.74949,0.682887 -13.97588,2.179734 -18.28087,3.326326 -12.69455,3.381073 -12.57058,3.366886 -12.17669,1.393365 z"
         id="path2" />
    </g>
  </g>
</svg>
