<?xml version="1.0" encoding="UTF-8" standalone="no"?>
<!-- Created with Inkscape (http://www.inkscape.org/) -->

<svg
   version="1.1"
   id="svg1"
   width="554"
   height="450"
   viewBox="0 0 554 450"
   sodipodi:docname="BUSINESS_14.svg"
   inkscape:version="1.3.2 (091e20e, 2023-11-25, custom)"
   xmlns:inkscape="http://www.inkscape.org/namespaces/inkscape"
   xmlns:sodipodi="http://sodipodi.sourceforge.net/DTD/sodipodi-0.dtd"
   xmlns="http://www.w3.org/2000/svg"
   xmlns:svg="http://www.w3.org/2000/svg">
  <defs
     id="defs1" />
  <sodipodi:namedview
     id="namedview1"
     pagecolor="#ffffff"
     bordercolor="#000000"
     borderopacity="0.25"
     inkscape:showpageshadow="2"
     inkscape:pageopacity="0.0"
     inkscape:pagecheckerboard="0"
     inkscape:deskcolor="#d1d1d1"
     showgrid="false"
     inkscape:zoom="1.7488889"
     inkscape:cx="277.03304"
     inkscape:cy="225"
     inkscape:window-width="1920"
     inkscape:window-height="1001"
     inkscape:window-x="-9"
     inkscape:window-y="-9"
     inkscape:window-maximized="1"
     inkscape:current-layer="g1" />
  <g
     inkscape:groupmode="layer"
     inkscape:label="Image"
     id="g1">
    <g
       id="g2"
       transform="translate(0,0.15672501)">
      <path
         style="fill:#fefefe"
         d="M 0,225 V 0 H 277 554 V 225 450 H 277 0 Z"
         id="path6" />
      <path
         style="fill:#9faec0"
         d="m 381.79068,434.35202 -103.70933,-15.43423 -3.79067,2.4828 c -5.02083,3.28851 -12.28202,4.99745 -18.23715,4.29216 -2.65943,-0.31497 -13.6248,-4.15861 -24.36748,-8.54142 l -19.53216,-7.96874 -99.32695,-14.59381 C 5.4267664,378.8088 7.1096492,379.14955 2.8946422,372.32953 -0.35708712,367.06812 -0.36562233,362.91162 2.8333885,342.5 4.4711649,332.05 14.907138,265.45 26.024439,194.5 37.14174,123.55 46.929963,63.996489 47.776045,62.158863 c 0.898676,-1.951853 2.934433,-4.00689 4.895863,-4.942231 3.223193,-1.537034 6.01972,-1.20867 69.893802,8.206811 36.59495,5.394349 66.65274,9.643353 66.79508,9.442232 0.14235,-0.201121 2.15463,-3.611567 4.47174,-7.578769 C 208.89692,41.494678 237.38388,18.198107 266.76633,7.6418057 281.63222,2.300902 292.73119,0.63844376 314,0.56691044 c 17.99001,-0.0605057 20.31775,0.14227903 30.06037,2.61876276 25.62006,6.5123817 47.50048,18.5469278 64.94369,35.7199638 18.88908,18.596509 30.96128,39.419277 37.6497,64.940193 l 2.56784,9.79809 46.6392,6.77469 c 25.65156,3.72608 48.34722,7.20407 50.43481,7.72886 4.471,1.12397 7.69492,5.58876 7.70065,10.66459 0.002,1.82164 -9.01475,60.77164 -20.03734,131 C 522.93633,340.04043 512.58424,406.275 510.95428,417 c -2.00991,13.22503 -3.66011,20.88596 -5.12813,23.80701 -2.90381,5.77796 -8.76142,9.23086 -15.41401,9.08611 -2.70168,-0.0588 -51.58134,-7.05228 -108.62146,-15.5411 z m 115.17443,9.80635 c 1.88865,-1.01289 4.18896,-3.37539 5.11179,-5.25 2.07222,-4.20941 48.35957,-299.03318 47.49135,-302.49248 -0.32553,-1.29699 -1.3896,-2.78509 -2.3646,-3.3069 -0.975,-0.52181 -22.00719,-3.9225 -46.73819,-7.55709 C 475.73446,121.91731 454.375,118.72013 453,118.44706 l -2.5,-0.49649 v 18.77472 c 0,14.39309 -0.42459,20.74486 -1.81932,27.21659 -5.47674,25.41284 -17.77144,49.42159 -34.31287,67.00523 L 406.79223,239 h 3.58483 c 4.39709,0 4.83691,1.24435 4.41944,12.50336 L 414.5,259.5 l -8.55572,0.2861 c -8.29692,0.27744 -8.60867,0.37575 -10.30653,3.25 -2.18188,3.69362 -2.71799,3.68893 -4.84124,-0.0424 -1.57739,-2.7721 -2.12279,-2.9937 -7.36792,-2.9937 -4.44524,0 -7.54456,0.84658 -14.39957,3.93322 -18.20807,8.19865 -39.91279,12.54028 -59.57175,11.91622 l -11.21428,-0.35599 1.92125,2.44248 1.92125,2.44247 -9.50116,9.5608 -9.50116,9.5608 -1.78115,9.75 c -0.97964,5.3625 -2.10174,9.75 -2.49355,9.75 -0.39181,0 -2.13195,-2.06326 -3.86697,-4.58502 l -3.15457,-4.58502 -2.81802,2.69983 c -1.54992,1.48491 -2.65183,3.21067 -2.4487,3.83502 0.20313,0.62436 2.01156,8.32326 4.01873,17.10867 2.07835,9.09697 6.65504,24.37957 10.63119,35.5 3.83998,10.73959 7.2294,21.61435 7.53204,24.16615 0.68777,5.79902 -1.17474,13.80407 -4.27453,18.37186 -1.30205,1.91868 -2.26843,3.51412 -2.1475,3.54542 2.06536,0.53462 206.10797,30.73527 208.23546,30.82123 1.65858,0.067 4.56086,-0.70687 6.44951,-1.71977 z M 467.47293,419.9562 c -0.8763,-1.41789 0.59218,-3.00597 6.50797,-7.03798 2.75838,-1.88002 5.00411,-3.86822 4.99052,-4.41822 -0.0136,-0.55 -2.05712,-3.69185 -4.54118,-6.98189 -4.11796,-5.45408 -4.3656,-6.09221 -2.80658,-7.23219 1.50251,-1.09866 2.41736,-0.28644 7.54311,6.69691 C 482.37505,405.35379 485,409.16756 485,409.45787 485,410.27401 470.23567,421 469.11224,421 c -0.54681,0 -1.2845,-0.46971 -1.63931,-1.0438 z m -31.43346,-10.09175 c -2.86345,-3.92455 -5.38437,-7.63705 -5.60205,-8.25 -0.21768,-0.61295 3.25127,-3.74972 7.70878,-6.9706 6.26605,-4.52769 8.29949,-5.54851 8.96387,-4.5 1.40082,2.21077 1.15613,2.54168 -5.15056,6.96557 -3.66943,2.57397 -5.84024,4.759 -5.53034,5.56659 0.28058,0.73119 2.40491,3.83902 4.72073,6.9063 3.40834,4.51432 3.93807,5.74932 2.78034,6.48197 -2.26155,1.43117 -2.40557,1.31801 -7.89077,-6.19983 z M 344.18045,332.75 c 0.20974,-1.47682 1.00682,-2.25 2.31955,-2.25 1.87588,0 2.01743,-0.76026 2.28078,-12.25 L 349.06156,306 H 361.03078 373 v 12.5575 12.5575 l 4.25,-0.3075 4.25,-0.3075 0.2651,-29.25 0.26511,-29.25 H 394.0151 406 v 29.35805 29.35806 l 4.25,-0.10806 4.25,-0.10805 0.26989,-21.25 0.26989,-21.25 H 427.01989 439 v 21.35805 21.35806 l 4.25,-0.10806 4.25,-0.10805 0.26247,-36.25 0.26248,-36.25 H 460.01247 472 v 36.37644 36.37645 l 4.25,-0.0662 c 3.63357,-0.0566 4.29635,0.25143 4.56955,2.12356 L 481.1391,335 H 412.5 343.8609 Z m 24.60453,-12.5 0.28499,-10.25 H 361.03498 353 v 10.39147 10.39147 l 7.75,-0.14147 7.75,-0.14147 z m 32.98109,-17 0.26607,-27.25 H 394.01607 386 v 27.39147 27.39147 l 7.75,-0.14147 7.75,-0.14147 z m 33.00552,8 0.2716,-19.25 H 427.02159 419 v 19.39147 19.39147 l 7.75,-0.14147 L 434.5,330.5 Z M 468,297.07615 v -33.92386 l -8.00235,-0.32614 -8.00235,-0.32615 0.002,34.25 L 452,331 h 8 8 z M 517.16251,155.1216 c -0.73562,-0.46628 -1.18562,-1.92189 -1,-3.23469 0.26966,-1.9072 0.83993,-2.31701 2.83749,-2.03913 3.21582,0.44736 3.21523,0.4465 2.44026,3.53422 -0.67709,2.69775 -1.94968,3.21526 -4.27775,1.7396 z m -9.7695,-2.70339 C 507.72686,151.54823 508,150.14945 508,149.3098 c 0,-1.16578 0.64951,-1.3636 2.74795,-0.83692 3.42058,0.85851 3.28501,0.68507 2.59576,3.32079 -0.43269,1.6546 -1.32476,2.20633 -3.56733,2.20633 -2.31597,0 -2.85347,-0.35672 -2.38337,-1.58179 z M 488.38,149.54789 c -0.30647,-0.79867 -0.26579,-1.92367 0.0904,-2.5 0.3562,-0.57634 0.0586,-1.05478 -0.66138,-1.0632 -2.4048,-0.0281 -3.89235,-1.60397 -3.20498,-3.39521 0.42223,-1.10031 1.36503,-1.56932 2.53804,-1.26258 1.35624,0.35467 2.03548,-0.18618 2.48547,-1.97907 0.40857,-1.62787 1.11532,-2.27674 2.07762,-1.90747 0.80212,0.3078 1.6466,0.55964 1.87662,0.55964 0.23001,0 0.41821,1.125 0.41821,2.5 0,1.8628 0.52845,2.5 2.07332,2.5 2.83711,0 2.13699,3.39556 -0.78626,3.81336 -1.20587,0.17234 -2.4691,1.18484 -2.80717,2.25 -0.72094,2.27148 -3.29733,2.57596 -4.09989,0.48453 z m 30.37,-2.24344 c -1.01738,-0.26225 -1.75,-1.39723 -1.75,-2.71111 0,-2.97039 0.54756,-3.40249 3.57768,-2.82324 2.0286,0.38779 2.47032,0.98887 2.22649,3.02971 -0.32167,2.69247 -1.20603,3.23881 -4.05417,2.50464 z M 509,143 c 0,-3.11207 1.94297,-3.95595 4.85701,-2.10953 C 516.05508,142.28322 514.29152,146 511.43261,146 509.39638,146 509,145.51117 509,143 Z M 192.91667,401.59807 c -0.22917,-0.22105 -4.33721,-1.97895 -9.12898,-3.90644 -8.37557,-3.36906 -8.73661,-3.42792 -9.3413,-1.52271 -0.34595,1.08999 -0.35268,2.25812 -0.015,2.59585 0.33773,0.33772 4.09132,1.14998 8.34131,1.80501 9.12328,1.40613 10.70147,1.56611 10.14393,1.02829 z M 255,382.7381 C 255,381.47161 230.86281,366 228.88696,366 c -2.89235,0 0.92553,3.2224 12.14415,10.25 6.8045,4.2625 12.73117,7.75 13.17036,7.75 C 254.64066,384 255,383.43215 255,382.7381 Z M 57.998183,363.75 c 12.373603,-29.10896 15.16681,-33.29713 25.142637,-37.69915 3.779606,-1.66782 4.956284,-2.83627 6.340764,-6.29643 0.934969,-2.33672 2.039371,-4.47489 2.454225,-4.7515 0.414854,-0.27661 0.548529,-2.20112 0.297054,-4.27669 -0.416673,-3.43907 -0.938984,-4.00169 -5.888887,-6.34337 C 73.922561,298.50659 64.257588,285.7737 61.862352,272.13013 57.66706,248.2332 76.742558,225.07981 100.68191,225.01187 c 3.50302,-0.01 4.53043,-0.50133 6.32883,-3.02696 1.18082,-1.6583 3.38922,-3.6575 4.90757,-4.44266 2.66601,-1.37866 2.88326,-1.29012 6.33892,2.58329 3.55599,3.98589 3.59718,4.00111 6.61087,2.44267 4.06421,-2.10168 4.63844,-2.01309 7.59102,1.17113 2.92179,3.15102 4.05847,7.70155 2.78296,11.14115 -0.73795,1.98997 0.0734,3.83434 4.9459,11.24271 3.81572,5.80163 7.22061,9.74092 9.85918,11.40657 2.21679,1.3994 4.46305,3.68198 4.99168,5.07239 1.44802,3.80859 1.15455,15.38361 -0.53421,21.07029 -1.96732,6.6247 -8.19058,13.66029 -14.06876,15.90519 -4.92986,1.88273 -4.68114,0.97523 -2.85641,10.42236 0.3187,1.65 1.15541,3 1.85935,3 0.76425,0 1.63873,2.11516 2.17055,5.25 l 0.89064,5.25 7.16026,0.63983 c 7.56488,0.67598 15.25347,2.83453 21.78017,6.11473 2.16724,1.08921 15.32146,9.57633 29.23161,18.86026 23.33419,15.57374 25.33159,16.70599 25.81331,14.63253 1.71584,-7.38535 8.50433,-60.9344 8.80427,-69.44994 0.33269,-9.44522 0.64248,-10.77543 4.17308,-17.91912 2.84074,-5.74785 3.55931,-8.11985 2.81652,-9.29741 -0.54846,-0.86948 -1.23187,-1.58088 -1.5187,-1.58088 -0.28683,0 -9.23778,11.22006 -19.89101,24.93347 -10.65323,13.71341 -19.81951,25.0756 -20.36951,25.24932 -1.5501,0.4896 -30.01307,-22.15538 -29.89862,-23.78719 0.0558,-0.79502 8.71826,-12.54014 19.25,-26.10026 C 200.38312,252.23521 209,240.94413 209,240.70405 c 0,-0.24009 -13.97186,-5.51485 -31.04858,-11.72171 -17.07672,-6.20685 -30.68922,-11.63591 -30.25,-12.06457 0.43922,-0.42867 9.57358,-4.90456 20.29858,-9.94643 10.725,-5.04187 19.61833,-9.27884 19.76295,-9.41548 0.14462,-0.13663 -0.88438,-2.84275 -2.28667,-6.01358 -13.65793,-30.883 -13.87877,-75.82216 -0.52549,-106.933815 1.15471,-2.690344 1.97566,-5.010599 1.82434,-5.156122 -0.15132,-0.145523 -29.64491,-4.59377 -65.5413,-9.884994 -48.148524,-7.09722 -65.765476,-9.353188 -67.169916,-8.601555 -1.047058,0.560369 -2.36776,2.484807 -2.934893,4.276529 C 50.561888,67.034045 39.664791,135.12832 26.913249,216.56293 3.8936975,363.57168 3.7408858,364.6517 5.4504659,368.25437 c 2.7338735,5.76121 5.2723161,6.75527 24.9583031,9.77372 9.950177,1.52566 18.578485,2.81847 19.174018,2.87292 0.595533,0.0544 4.382461,-7.66351 8.415396,-17.15101 z M 100.31537,92.961281 c -5.223511,-2.028712 -5.122304,-9.218681 0.14839,-10.54154 3.42503,-0.85963 5.32501,0.02256 6.74079,3.129853 1.93158,4.23936 -2.57465,9.087367 -6.88918,7.411687 z m -17.743941,-3.53271 c -2.410492,-2.410491 -1.993304,-7.106042 0.793592,-8.932086 5.709312,-3.740886 11.868866,4.266912 6.806238,8.848527 -2.304694,2.08572 -5.561857,2.121533 -7.59983,0.08356 z M 69,88.237659 C 64.995012,86.988834 63.74006,81.450206 66.828741,78.654988 70.673607,75.175431 76,77.669256 76,82.948984 c 0,3.728441 -3.506799,6.377915 -7,5.288675 z M 269,346.92391 c 0,-0.59185 -1.66376,-8.29238 -3.69725,-17.11229 l -3.69725,-16.0362 11.14619,-10.43898 c 6.89552,-6.45801 10.94406,-10.96573 10.61616,-11.82023 -0.29152,-0.75969 0.63145,-5.1892 2.05105,-9.84335 2.84818,-9.3377 2.97711,-10.03564 1.70911,-9.25198 -0.47959,0.29641 -1.70499,3.75062 -2.72311,7.67602 -1.01812,3.92541 -2.45597,7.3692 -3.19523,7.65288 -2.9421,1.12899 -3.14139,-1.46827 -0.71267,-9.28777 1.36014,-4.37911 2.46606,-9.53701 2.45759,-11.46201 -0.0202,-4.59391 -1.33899,-2.32093 -2.87036,4.94722 -1.20028,5.6967 -5.19556,12.05278 -7.5761,12.05278 -2.64696,0 -2.71528,-2.17434 -0.15238,-4.84943 3.60516,-3.76298 7.4835,-21.93032 4.467,-20.92482 -0.64748,0.21583 -2.21497,3.27607 -3.48331,6.80054 -1.94947,5.41723 -3.42972,7.44955 -9.57275,13.14303 -7.07285,6.55525 -9.7212,7.77759 -12.7291,5.87507 -1.24221,-0.7857 -1.27986,-1.8088 -0.25,-6.79488 2.63803,-12.77209 0.94477,-13.88022 -5.19825,-3.4019 -4.83482,8.2469 -7.25446,17.07678 -6.16805,22.50882 0.48463,2.42319 -4.17407,40.25493 -5.955,48.35847 -0.47443,2.15871 -0.22644,2.22313 9.77347,2.53911 C 267.32848,348.01515 269,347.99373 269,346.92391 Z M 128.5,313.04233 c 5.91602,-0.69566 5.95801,-0.72268 3,-1.92982 -5.26943,-2.15043 -10.58637,-6.3777 -13.68341,-10.87909 -1.65516,-2.40569 -2.83627,-4.54707 -2.6247,-4.75864 0.21157,-0.21157 2.16745,0.2503 4.34639,1.02638 4.85872,1.73054 8.80846,1.83229 15.49134,0.39907 9.82664,-2.10744 15.77757,-10.06758 16.65702,-22.28092 0.60132,-8.35064 -0.53146,-11.95333 -4.33532,-13.78808 -2.49678,-1.20429 -4.42955,-3.39389 -10.94545,-12.39988 -1.88847,-2.61015 -2.34579,-2.77976 -4.65648,-1.72693 -1.61118,0.7341 -2.81216,2.30488 -3.23532,4.23153 -0.70827,3.22474 -3.16478,4.13786 -4.15934,1.54609 -0.92752,-2.41708 1.59852,-7.25603 4.86864,-9.32653 l 3.00475,-1.90248 -4.60307,-3.167 c -2.5317,-1.74185 -6.52052,-3.84715 -8.86407,-4.67845 -3.91156,-1.38751 -4.34299,-1.37229 -5.26098,0.18553 -0.55,0.93334 -2.50505,3.71636 -4.34456,6.18448 -2.61727,3.51166 -3.05219,4.67279 -2,5.33964 0.73951,0.46868 1.6705,0.85904 2.06888,0.86746 1.3633,0.0288 3.51099,5.51459 5.23561,13.37312 2.05425,9.36055 1.40228,10.75375 -3.86316,8.25513 -4.29619,-2.03867 -7.90027,-1.31385 -10.612586,2.1343 -5.804721,7.3795 2.789636,16.65528 11.240986,12.13225 2.08552,-1.11613 2.09122,-1.07436 1.46014,10.70139 -0.73697,13.75165 -1.82789,15.6423 -10.26813,17.79543 -3.058025,0.78011 -5.033186,1.86829 -5.228086,2.88032 -0.280625,1.45717 1.020792,1.56743 12.498836,1.05889 7.04664,-0.31221 15.51207,-0.88514 18.81207,-1.27319 z m 15,-34.21684 c -2.76335,-1.59523 -3.55901,-3.04946 -2.41962,-4.42234 1.17438,-1.41505 8.41962,1.91215 8.41962,3.86651 0,1.65668 -3.52705,1.98342 -6,0.55583 z m -35.03812,-3.88717 c -0.36089,-0.58393 -1.73745,-1.47279 -3.05902,-1.97525 -2.50305,-0.95166 -3.32885,-3.8753 -1.15286,-4.08155 3.97739,-0.377 7.75,2.19006 7.75,5.27347 0,1.98451 -2.45925,2.52898 -3.53812,0.78333 z m 26.54794,-18.42649 c -1.00286,-1.20837 -0.91924,-1.60936 0.44477,-2.13278 1.97026,-0.75606 4.07104,0.96145 3.09926,2.53382 -0.92279,1.49311 -2.08078,1.36207 -3.54403,-0.40104 z m 160.8215,22.38392 c -1.79486,-1.10928 -5.61716,1.11483 -6.25014,3.63682 -0.31496,1.25489 -0.8649,3.11093 -1.22209,4.12453 -0.36116,1.02484 1.40777,-0.13141 3.98496,-2.60474 2.99526,-2.87455 4.22868,-4.69839 3.48727,-5.15661 z M 403,249.5 c 0,-1.22807 -1.72222,-1.5 -9.5,-1.5 -7.77778,0 -9.5,0.27193 -9.5,1.5 0,1.22807 1.72222,1.5 9.5,1.5 7.77778,0 9.5,-0.27193 9.5,-1.5 z"
         id="path5" />
      <path
         style="fill:#faca41"
         d="m 382.75714,434.32027 -103.74286,-15.45263 -6.73611,3.31618 c -5.57112,2.74266 -7.86391,3.31191 -13.25714,3.2915 -5.83244,-0.0221 -8.66621,-0.8965 -26.83613,-8.28087 l -20.3151,-8.25619 -98.1849,-14.44735 C 59.683205,386.54486 13.861921,379.58049 11.859824,379.01454 7.273099,377.71795 1.326596,371.25783 0.45801899,366.62791 -0.40719145,362.01595 45.503471,67.991644 47.858169,63.064534 c 0.903007,-1.889506 2.870404,-4.333204 4.371993,-5.43044 l 2.730163,-1.994974 65.769835,9.693973 c 36.17341,5.331685 66.48511,9.687883 67.35932,9.68044 0.87422,-0.0074 2.14957,-1.251033 2.83412,-2.763533 2.46485,-5.446055 12.00238,-18.887594 18.19252,-25.639267 C 221.2093,33.420529 233,24.722383 233,28.991302 c 0,0.545216 1.26479,2.232716 2.81064,3.75 1.54585,1.517284 3.68335,4.1631 4.75,5.879592 5.02574,8.087622 11.77956,17.295675 13.04082,17.779668 0.7692,0.295167 1.39854,1.187647 1.39854,1.983287 0,0.795641 1.35,2.720802 3,4.278138 1.65,1.557335 3,3.170479 3,3.584766 0,0.414286 0.7875,1.620993 1.75,2.681571 0.9625,1.060579 2.2,2.523318 2.75,3.250533 6.74054,8.912396 9.5,12.904337 9.5,13.743052 0,0.554248 0.80531,1.438713 1.78958,1.965479 0.98427,0.526765 2.44676,2.230098 3.24997,3.785183 0.80321,1.555086 2.6979,4.020473 4.21042,5.478639 1.51251,1.458165 2.75003,3.07592 2.75003,3.59501 0,0.51909 0.9,1.75829 2,2.75378 1.1,0.99549 2,2.20922 2,2.69719 0,0.96497 0.44313,1.5683 4.97658,6.77567 1.66288,1.91007 3.02342,3.84698 3.02342,4.30423 0,0.45726 1.34792,2.26947 2.99537,4.02714 1.64746,1.75768 2.99746,3.75827 3,4.44577 0.003,0.6875 0.43841,1.25 0.96858,1.25 0.53017,0 2.14544,1.6875 3.58948,3.75 l 2.62554,3.75 -0.58232,-31.5 c -0.32027,-17.325 -0.87297,-47.657447 -1.22822,-67.405438 l -0.64591,-35.90543721 11.38874,0.58817856 C 363.91613,2.4879869 403.33573,25.209353 427.95241,61.860282 c 8.27403,12.318919 19.9865,40.397058 20.0629,48.096488 0.008,0.84878 0.34732,2.06501 0.7531,2.70275 0.42819,0.67295 20.98604,4.14493 48.98996,8.27384 26.5387,3.91288 49.30043,7.59194 50.58163,8.17569 2.88491,1.31446 5.66,5.85333 5.66,9.25738 0,2.28551 -45.17201,292.04718 -46.60564,298.95785 -0.77168,3.7198 -6.04114,9.63019 -10.09662,11.32468 -1.77843,0.74307 -4.93546,1.29994 -7.01562,1.23748 -2.08017,-0.0625 -50.46641,-7.06723 -107.52498,-15.56617 z m 115.00577,9.68284 c 1.79461,-1.09418 3.92083,-3.455 4.72494,-5.24627 C 503.8379,435.74943 550,144.19977 550,138.68058 c 0,-1.35246 -0.7875,-3.39776 -1.75,-4.54511 -1.55033,-1.84808 -7.20035,-2.88761 -49.51849,-9.11078 C 472.45884,121.16111 450.85444,118 450.72172,118 c -0.13271,0 -0.26071,8.4375 -0.28443,18.75 -0.0353,15.35277 -0.42795,20.47126 -2.16695,28.25 -5.79166,25.9067 -17.30661,48.30555 -33.90253,65.94711 C 407.01517,238.76302 406.87769,239 409.69612,239 414.16774,239 415,240.5877 415,249.11821 415,260.26636 415.23452,260 405.41869,260 c -8.32847,0 -8.3747,0.0143 -9.95528,3.07076 -1.27297,2.46166 -1.86546,2.84046 -2.98696,1.9097 -0.76945,-0.63859 -1.67175,-2.02043 -2.00511,-3.07077 C 389.95935,260.29657 388.88775,260 383.57104,260 c -5.22621,0 -7.71752,0.66452 -14.68262,3.91633 -17.27668,8.06603 -39.68227,12.56002 -59.48592,11.93137 -10.23133,-0.32479 -11.13707,-0.21189 -9.83578,1.22603 0.7883,0.87106 1.43328,2.27166 1.43328,3.11244 0,0.84078 -4.02518,5.40898 -8.94485,10.15156 l -8.94486,8.62286 -1.6991,8.76971 c -0.93451,4.82333 -1.99325,9.33852 -2.35275,10.03374 -0.4275,0.8267 -1.79044,-0.34875 -3.93937,-3.39745 l -3.28571,-4.66148 -2.87478,2.89744 -2.87477,2.89745 4.39955,18.5 c 2.74025,11.52269 6.92445,25.28874 11.09419,36.5 5.99676,16.12363 6.70082,18.78182 6.75403,25.5 0.0497,6.26902 -0.3852,8.36057 -2.64949,12.74321 -1.48989,2.88376 -2.71898,5.5804 -2.73131,5.99253 -0.0242,0.80933 200.92984,30.96732 207.54922,31.14775 2.40047,0.0654 5.30478,-0.6865 7.26291,-1.88038 z m -30.09624,-23.66978 c -1.35434,-1.35433 -0.52512,-2.33329 5.79884,-6.84597 l 6.46551,-4.61369 -4.47692,-6.1526 c -4.36801,-6.00293 -4.93294,-7.72812 -2.76704,-8.45009 0.86598,-0.28866 9.07952,9.84881 11.66874,14.40199 0.40812,0.7177 -2.29704,3.33759 -6.9697,6.75 -7.79459,5.69233 -8.55387,6.07592 -9.71943,4.91036 z m -32.03072,-11.40064 c -3.20906,-4.43703 -5.67745,-8.1675 -5.4853,-8.28994 0.19214,-0.12244 3.89099,-2.84361 8.21966,-6.04703 6.10434,-4.5175 8.06427,-5.51827 8.73469,-4.46007 1.33896,2.11345 1.2664,2.20871 -5.105,6.70195 -3.3,2.32722 -6,4.69999 -6,5.27281 0,0.57283 2.00073,3.6416 4.44606,6.81949 3.34179,4.3429 4.16141,6.06263 3.3,6.92404 -0.63033,0.63033 -1.40017,1.14606 -1.71076,1.14606 -0.31058,0 -3.19029,-3.63029 -6.39935,-8.06731 z M 344,333 c 0,-1.46667 0.66667,-2 2.5,-2 H 349 V 318.5 306 h 12 12 v 12.5 12.5 h 4.5 4.5 V 301.5 272 h 12 12 v 29.5 29.5 h 4.5 4.5 V 309.5 288 h 12 12 v 21.5 21.5 h 4.5 4.5 v -36.53174 -36.53173 l 11.75,0.28173 11.75,0.28174 0.26247,36.25 0.26248,36.25 h 4.48752 c 3.82086,0 4.48753,0.29712 4.48753,2 0,1.98054 -0.66667,2 -68.5,2 -67.83333,0 -68.5,-0.0195 -68.5,-2 z m 25,-12.5 V 310 h -8 -8 v 10.5 10.5 h 8 8 z m 33,-17 V 276 h -8 -8 v 27.5 27.5 h 8 8 z m 33,8 V 292 h -8 -8 v 19.5 19.5 h 8 8 z m 33,-15 V 262 h -8 -8 v 34.5 34.5 h 8 8 z M 518.25,155.18045 C 514.88097,154.70197 515.05431,150 518.44098,150 c 2.87123,0 3.45863,0.77538 2.65149,3.5 -0.40899,1.38065 -1.28924,1.90104 -2.84247,1.68045 z M 508,150.89301 c 0,-2.42232 0.34857,-2.97323 1.58179,-2.5 0.86998,0.33385 1.99498,0.60699 2.5,0.60699 0.50501,0 0.91821,1.125 0.91821,2.5 0,2 -0.5,2.5 -2.5,2.5 -2.13024,0 -2.5,-0.45953 -2.5,-3.10699 z m -18.78387,-0.73827 c -0.70613,-0.44805 -1.01108,-1.52551 -0.67768,-2.39435 0.4007,-1.04419 -0.0963,-1.80267 -1.46613,-2.23744 C 485.88591,145.1464 485,144.01023 485,142.86522 c 0,-1.56752 0.44765,-1.85792 2.07017,-1.34295 1.5674,0.49748 2.20289,0.14954 2.61663,-1.43261 0.32449,-1.24084 1.35886,-2.08966 2.54646,-2.08966 1.54259,0 1.87378,0.48269 1.44808,2.11054 -0.39862,1.52434 -0.0144,2.25111 1.38337,2.61663 1.09993,0.28764 1.93529,1.36939 1.93529,2.50609 0,1.50906 -0.49197,1.87135 -2.00417,1.4759 -1.505,-0.39356 -2.15467,0.0755 -2.60841,1.88337 -0.64836,2.58328 -1.16274,2.83667 -3.17129,1.56221 z M 517,144.5 c 0,-2.11111 0.46667,-2.5 3,-2.5 1.65,0 3,0.4132 3,0.91821 C 523,145.36776 521.55762,147 519.39301,147 517.50713,147 517,146.47019 517,144.5 Z m -7.81642,-1.25 c 0.25934,-2.25393 0.75625,-2.70101 2.75465,-2.47844 3.0767,0.34267 3.09888,0.37054 2.40548,3.02211 -0.39689,1.51768 -1.34161,2.20633 -3.02676,2.20633 -2.08254,0 -2.40236,-0.41225 -2.13337,-2.75 z M 190,400.0449 c -2.475,-1.01532 -6.87728,-2.79003 -9.78283,-3.94382 l -5.28284,-2.09778 -0.8506,2.24835 c -0.46784,1.23659 -0.67937,2.43454 -0.47007,2.66212 0.53929,0.58637 14.28959,2.82024 17.88634,2.9058 2.7446,0.0653 2.61691,-0.0858 -1.5,-1.77467 z m 65.765,-17.24989 c -0.4701,-1.41032 -24.67219,-16.70831 -26.515,-16.75997 -3.59859,-0.10088 0.0444,3.25032 11.02144,10.13862 11.58631,7.27064 16.39501,9.3257 15.49356,6.62135 z M 60.185554,359.24076 c 10.039191,-23.69721 13.102275,-28.15252 22.726376,-33.05597 4.43741,-2.26084 5.656031,-3.46242 6.767522,-6.67288 0.745575,-2.15354 1.830426,-4.209 2.41078,-4.56768 0.645344,-0.39884 0.786154,-2.08623 0.36253,-4.34434 -0.613154,-3.26839 -1.370998,-4.03462 -6.602293,-6.67537 -26.372908,-13.313 -32.54897,-47.25004 -12.242187,-67.26997 6.25334,-6.16501 13.601069,-9.64137 23.310498,-11.02866 7.13856,-1.01996 8.24496,-1.48768 11.53664,-4.87702 2.00247,-2.06188 4.40669,-3.74889 5.34272,-3.74891 0.93602,-3e-5 3.10882,1.67575 4.82843,3.72394 l 3.12656,3.72399 3.58752,-1.93201 3.58751,-1.932 2.45551,2.30684 c 3.70617,3.48176 5.04657,7.43633 3.76583,11.11027 -0.97971,2.81041 -0.65342,3.6981 3.96274,10.7808 5.94483,9.12131 8.57209,12.11543 11.68613,13.31795 5.7083,2.20432 6.92063,17.87946 2.21921,28.69376 -2.55578,5.87887 -8.38195,11.51159 -13.73392,13.2779 -3.33501,1.10065 -3.40837,1.23989 -2.78145,5.27953 0.97157,6.26055 1.50707,7.64907 2.94995,7.64907 0.84264,0 1.55863,1.93082 1.98681,5.35785 l 0.66942,5.35784 7.52868,0.63641 c 13.50571,1.14165 19.21078,3.90645 49.04047,23.7661 15.03552,10.01016 27.48315,18.01613 27.66142,17.79105 1.02713,-1.29692 9.0259,-63.5004 8.85499,-68.86205 -0.25256,-7.9233 1.9065,-16.72861 5.75336,-23.46399 2.60156,-4.55502 2.75412,-5.2863 1.46818,-7.03772 -1.79549,-2.44541 0.22897,-4.68021 -22.8323,25.20451 -10.29221,13.3375 -18.94937,24.25 -19.23814,24.25 -0.926,0 -30.34605,-23.11339 -30.31923,-23.81983 0.0215,-0.56581 16.4831,-22.03737 35.45335,-46.24323 l 4.3598,-5.56306 -31.40763,-11.3988 c -17.27419,-6.26934 -31.07546,-11.69358 -30.66948,-12.05387 0.40598,-0.36029 9.62564,-4.82884 20.48814,-9.9301 10.8625,-5.10127 19.75,-9.38016 19.75,-9.50864 0,-0.12849 -1.1415,-2.81475 -2.53667,-5.96947 -13.64445,-30.85252 -13.85997,-75.8065 -0.51254,-106.904535 1.15471,-2.690344 1.9397,-5.051304 1.74443,-5.246577 C 186.49995,79.166615 157.12614,74.68727 121.42009,69.407789 50.840041,58.971852 52.733395,59.09015 50.87363,65 49.860151,68.220573 3.9987807,360.86112 4.0037381,364.07591 c 0.00486,3.14918 3.264356,8.45044 6.1927509,10.07191 2.412701,1.33593 34.592688,6.74567 38.643108,6.49625 2.064973,-0.12716 3.396774,-2.6395 11.345957,-21.40331 z M 97.496485,90.634979 c -3.166479,-4.832657 2.198502,-10.474136 7.342645,-7.721071 2.89732,1.550594 3.61652,4.741741 1.72075,7.635055 -2.16628,3.306152 -6.923896,3.351304 -9.063395,0.08602 z M 82.654988,89.171259 C 80.7191,87.032128 80.484149,82.915851 82.2,81.2 83.899024,79.500976 88.568913,79.71177 90.428571,81.571429 92.568786,83.711643 92.402281,86.597719 90,89 c -2.491152,2.491152 -5.188619,2.554047 -7.345012,0.171259 z M 66.571429,86.428571 C 63.238042,83.095185 66.14458,77 71.067519,77 74.93529,77 77.600976,83.999024 74.8,86.8 73.100976,88.499024 68.431087,88.28823 66.571429,86.428571 Z M 265.7596,331.07511 l -3.922,-16.92489 11.02171,-10.64835 c 6.06194,-5.85659 10.81572,-11.18516 10.56395,-11.84125 -0.25177,-0.6561 0.675,-4.97744 2.05949,-9.60299 2.72442,-9.10222 3.04825,-11.01396 1.6105,-9.50763 -0.49871,0.5225 -1.86776,4.2125 -3.04234,8.2 -1.38665,4.70744 -2.6468,7.25 -3.59326,7.25 -1.92461,0 -1.83954,-1.96047 0.45286,-10.43621 1.05078,-3.88509 2.21218,-8.83659 2.58088,-11.00336 1.15567,-6.7916 -2.04917,-2.48557 -3.45019,4.63568 C 278.80087,277.50058 274.91261,284 272.38131,284 c -2.03306,0 -1.68028,-3.41946 0.56215,-5.44883 C 274.966,276.72079 278,265.54791 278,259.93015 c 0,-4.79598 -2.42534,-2.15646 -4.95772,5.39553 -1.82147,5.43197 -2.99585,6.99254 -9.76756,12.97971 -6.46534,5.71629 -8.10313,6.70351 -10.23389,6.16872 -3.52223,-0.88402 -3.52122,-0.88104 -2.21163,-6.55453 C 252.24549,271.78391 252.35004,266 251.04466,266 c -1.44714,0 -9.01482,13.25048 -10.62686,18.60686 -0.78073,2.59419 -1.35727,7.9064 -1.28118,11.80492 0.11411,5.84714 -3.70722,37.70297 -5.73355,47.79664 l -0.54372,2.70842 8.32033,0.33804 c 4.57617,0.18591 12.86118,0.42962 18.41112,0.54157 L 269.6816,348 Z M 130.5,313.01384 l 4,-0.72694 -3.8175,-1.68507 c -4.58458,-2.02367 -12.27644,-8.91592 -14.28496,-12.79996 -1.70019,-3.28781 -1.75477,-3.26786 3.23034,-1.18065 5.24337,2.19534 15.91392,1.3263 21.37051,-1.74047 4.42995,-2.48977 8.17066,-7.43318 9.99924,-13.21418 1.37193,-4.33734 0.97769,-18.83929 -0.52596,-19.34665 -3.81387,-1.28686 -8.12438,-5.23463 -11.2765,-10.32755 -2.68692,-4.34131 -4.29362,-5.97335 -5.88847,-5.98136 -2.39699,-0.012 -5.3067,3.39378 -5.3067,6.2115 0,2.1633 -2.55951,2.36777 -3.36496,0.26881 -0.90879,-2.36829 0.92524,-6.00223 4.40292,-8.72392 l 3.18689,-2.49412 -3.39087,-2.58634 c -3.8939,-2.97002 -11.5669,-6.63267 -13.96266,-6.66498 -0.89577,-0.0121 -2.16597,1.27517 -2.82266,2.86056 -0.65669,1.58539 -2.51128,4.14458 -4.12132,5.68709 -3.17668,3.04345 -3.67808,4.43039 -1.60165,4.43039 2.85476,0 5.58716,4.73695 7.70101,13.35065 2.47216,10.07377 1.9595,11.72781 -2.86214,9.23445 -4.43532,-2.29359 -6.9367,-1.96681 -10.24148,1.33798 -7.190743,7.19074 -0.14612,16.82159 9.95852,13.6145 l 2.37197,-0.75284 -0.69227,10.85763 c -0.84071,13.18584 -1.93099,15.1498 -9.65024,17.38337 -3.538467,1.02385 -5.516446,2.16371 -5.736377,3.30572 -0.311594,1.61798 0.728364,1.69519 14.494817,1.07617 8.15678,-0.36677 16.6305,-0.99398 18.8305,-1.39379 z m 12.12007,-35.09805 c -3.33775,-2.62548 -2.14452,-4.98734 1.60972,-3.18626 1.24862,0.59901 3.09513,1.35516 4.10337,1.68032 1.00823,0.32516 1.64799,1.15347 1.42167,1.84068 -0.69655,2.11505 -4.23117,1.94922 -7.13476,-0.33474 z m -35.88978,-4.75772 c -2.54919,-1.7032 -3.44122,-2.84714 -2.75514,-3.53322 1.32853,-1.32853 5.95376,0.29533 7.39879,2.59763 1.94331,3.09617 -0.63297,3.61524 -4.64365,0.93559 z m 28.93638,-15.82474 C 135.3,256.96667 135,256.06667 135,255.33333 c 0,-1.77014 2.6394,-1.71543 3.32411,0.0689 0.80797,2.10555 -1.09798,3.49056 -2.65744,1.9311 z m 160.19185,23.82592 c 1.25645,-1.14923 1.26411,-1.46845 0.0537,-2.23469 -0.7767,-0.49166 -1.74968,-0.90083 -2.16218,-0.90925 -1.28665,-0.0263 -4.75,3.91313 -4.75,5.4029 0,0.78002 -0.29442,2.24252 -0.65427,3.25 -0.6203,1.73666 0.44612,0.95468 7.51279,-5.50896 z M 403,249.5 c 0,-1.22741 -1.71566,-1.5 -9.44098,-1.5 -8.65829,0 -11.5369,0.68879 -9.86517,2.36052 C 384.04557,250.71223 388.53333,251 393.66667,251 401.2963,251 403,250.72619 403,249.5 Z M 309.232,121 c 0,-1.925 0.2058,-2.7125 0.45733,-1.75 0.25152,0.9625 0.25152,2.5375 0,3.5 -0.25153,0.9625 -0.45733,0.175 -0.45733,-1.75 z"
         id="path4" />
      <path
         style="fill:#9ea4ab"
         d="m 382.75714,434.32027 -103.74286,-15.45263 -6.73611,3.31618 c -5.57112,2.74266 -7.86391,3.31191 -13.25714,3.2915 -5.83244,-0.0221 -8.66621,-0.8965 -26.83613,-8.28087 l -20.3151,-8.25619 -98.1849,-14.44735 C 59.683205,386.54486 13.861921,379.58049 11.859824,379.01454 7.273099,377.71795 1.326596,371.25783 0.45801899,366.62791 -0.40719145,362.01595 45.503471,67.991644 47.858169,63.064534 c 0.903007,-1.889506 2.868148,-4.33152 4.36698,-5.426697 l 2.725148,-1.99123 67.024853,9.879532 c 36.86367,5.433743 67.01796,10.125757 67.00954,10.426697 -0.0936,3.346409 -1.62471,3.198714 -67.33903,-6.495943 C 60.734985,60.470905 55.825572,59.88427 53.621335,61.328542 52.314703,62.18468 50.99416,63.923496 50.686795,65.192578 49.617329,69.608316 4.0000254,361.66827 4.0037381,364.07591 c 0.00562,3.64234 3.5687019,8.76469 7.2394169,10.40752 4.077286,1.82478 38.802918,6.90754 39.751613,5.81841 0.384145,-0.44101 4.639172,-10.14739 9.455616,-21.56972 9.77026,-23.17045 12.868323,-27.65962 22.461546,-32.54733 4.43741,-2.26084 5.656031,-3.46242 6.767522,-6.67288 0.745575,-2.15354 1.830426,-4.209 2.41078,-4.56768 0.645344,-0.39884 0.786154,-2.08623 0.36253,-4.34434 -0.613154,-3.26839 -1.370998,-4.03462 -6.602293,-6.67537 -26.372908,-13.313 -32.54897,-47.25004 -12.242187,-67.26997 6.25334,-6.16501 13.601069,-9.64137 23.310498,-11.02866 7.13856,-1.01996 8.24496,-1.48768 11.53664,-4.87702 2.00247,-2.06188 4.40669,-3.74889 5.34272,-3.74891 0.93602,-3e-5 3.10882,1.67575 4.82843,3.72394 l 3.12656,3.72399 3.58752,-1.93201 3.58751,-1.932 2.45551,2.30684 c 3.70617,3.48176 5.04657,7.43633 3.76583,11.11027 -0.97971,2.81041 -0.65342,3.6981 3.96274,10.7808 5.94483,9.12131 8.57209,12.11543 11.68613,13.31795 5.7083,2.20432 6.92063,17.87946 2.21921,28.69376 -2.55578,5.87887 -8.38195,11.51159 -13.73392,13.2779 -3.33501,1.10065 -3.40837,1.23989 -2.78145,5.27953 0.97157,6.26055 1.50707,7.64907 2.94995,7.64907 0.84264,0 1.55863,1.93082 1.98681,5.35785 l 0.66942,5.35784 7.52868,0.63641 c 13.50571,1.14165 19.21078,3.90645 49.04047,23.7661 15.03552,10.01016 27.48315,18.01613 27.66142,17.79105 1.02713,-1.29692 9.0259,-63.5004 8.85499,-68.86205 -0.25256,-7.9233 1.9065,-16.72861 5.75336,-23.46399 2.60156,-4.55502 2.75412,-5.2863 1.46818,-7.03772 -1.79549,-2.44541 0.22897,-4.68021 -22.8323,25.20451 -10.29221,13.3375 -18.94937,24.25 -19.23814,24.25 -0.926,0 -30.34605,-23.11339 -30.31923,-23.81983 0.0215,-0.56581 16.4831,-22.03737 35.45335,-46.24323 l 4.3598,-5.56306 -31.40763,-11.3988 c -17.27419,-6.26934 -31.07546,-11.70096 -30.66948,-12.07027 0.40598,-0.36932 7.71314,-3.93677 16.23814,-7.92768 13.79025,-6.45579 25.68318,-12.0595 63,-29.68434 5.775,-2.72755 12.3,-5.77667 14.5,-6.77582 2.2,-0.99916 11.81437,-5.57422 21.36527,-10.16681 C 272.41617,157.75757 280.35963,154 280.5174,154 c 0.15778,0 6.48594,-2.96657 14.06259,-6.59237 18.13064,-8.67642 18.43078,-8.78475 18.37646,-6.63288 -0.024,0.94889 -0.46903,3.75025 -0.98906,6.22525 -0.52002,2.475 -1.62345,8.325 -2.45206,13 -0.8286,4.675 -1.92846,10.3 -2.44411,12.5 -0.51566,2.2 -1.41266,6.7 -1.99332,10 -0.58067,3.3 -1.96572,10.725 -3.0779,16.5 -1.11218,5.775 -2.50395,13.2 -3.09282,16.5 -0.58887,3.3 -1.4877,8.025 -1.99741,10.5 -1.27278,6.18025 -4.70487,24.21722 -5.99386,31.5 -0.58407,3.3 -1.25089,6.96558 -1.48181,8.14574 -0.25165,1.28605 0.17826,2.37527 1.07302,2.71862 0.82108,0.31508 1.49288,1.71199 1.49288,3.10426 0,1.8037 0.53616,2.53138 1.86514,2.53138 2.59296,0 7.13486,3.77492 7.13486,5.93001 0,0.98167 -4.02518,5.66514 -8.94485,10.40772 l -8.94486,8.62286 -1.6991,8.76971 c -0.93451,4.82333 -1.99325,9.33852 -2.35275,10.03374 -0.4275,0.8267 -1.79044,-0.34875 -3.93937,-3.39745 l -3.28571,-4.66148 -2.87478,2.89744 -2.87477,2.89745 4.39955,18.5 c 2.74025,11.52269 6.92445,25.28874 11.09419,36.5 5.96162,16.02913 6.7044,18.82119 6.7839,25.5 0.0788,6.61867 -0.28204,8.18233 -3.07053,13.30654 -2.07946,3.82127 -2.75484,5.93333 -1.97536,6.17737 2.22192,0.69565 206.17538,30.51642 208.68444,30.51251 3.70894,-0.006 8.82627,-3.53818 10.48785,-7.23958 C 503.8379,435.74943 550,144.19977 550,138.68058 c 0,-1.35246 -0.7875,-3.39776 -1.75,-4.54511 -1.55033,-1.84808 -7.20035,-2.88761 -49.51849,-9.11078 C 472.45884,121.16111 450.84721,118 450.70568,118 c -0.14154,0 -0.24707,8.2125 -0.23451,18.25 0.0223,17.83905 -1.0083,26.44838 -4.65594,38.89329 l -1.06786,3.6433 -6.12369,-1.81606 C 431.21751,174.77414 410.18843,168.29896 396.5,164 c -5.5,-1.72732 -15.85,-4.94371 -23,-7.14753 -7.15,-2.20382 -15.925,-4.9093 -19.5,-6.01218 -3.575,-1.10287 -7.85,-2.37125 -9.5,-2.81862 -3.07974,-0.83501 -8.53884,-2.5463 -21.27105,-6.66792 C 319.22987,140.05919 315.38484,139 314.68443,139 c -0.7004,0 -3.04738,-2.3625 -5.2155,-5.25 -2.16812,-2.8875 -4.19477,-5.475 -4.50366,-5.75 -0.3089,-0.275 -1.65276,-2.075 -2.98637,-4 -1.33361,-1.925 -2.78385,-3.95 -3.22275,-4.5 -2.70012,-3.38357 -20.36793,-26.900197 -31.17855,-41.5 -2.2399,-3.025 -4.31423,-5.725 -4.60962,-6 -0.29539,-0.275 -4.03599,-5.225 -8.31244,-11 -4.27645,-5.775 -8.31732,-11.175 -8.9797,-12 C 245.01346,48.175 243.35933,45.925 242,44 240.64067,42.075 238.97852,39.825 238.30633,39 231.15459,30.222462 229.88045,28 232,28 c 0.55,0 1,0.446086 1,0.991302 0,0.545216 1.26479,2.232716 2.81064,3.75 1.54585,1.517284 3.68335,4.1631 4.75,5.879592 5.02574,8.087622 11.77956,17.295675 13.04082,17.779668 0.7692,0.295167 1.39854,1.187647 1.39854,1.983287 0,0.795641 1.35,2.720802 3,4.278138 1.65,1.557335 3,3.170479 3,3.584766 0,0.414286 0.7875,1.620993 1.75,2.681571 0.9625,1.060579 2.2,2.523318 2.75,3.250533 6.74054,8.912396 9.5,12.904337 9.5,13.743052 0,0.554248 0.80531,1.438713 1.78958,1.965479 0.98427,0.526765 2.44676,2.230098 3.24997,3.785183 0.80321,1.555086 2.6979,4.020473 4.21042,5.478639 1.51251,1.458165 2.75003,3.07592 2.75003,3.59501 0,0.51909 0.9,1.75829 2,2.75378 1.1,0.99549 2,2.20922 2,2.69719 0,0.96497 0.44313,1.5683 4.97658,6.77567 1.66288,1.91007 3.02342,3.84698 3.02342,4.30423 0,0.45726 1.34792,2.26947 2.99537,4.02714 1.64746,1.75768 2.99746,3.75827 3,4.44577 0.003,0.6875 0.43841,1.25 0.96858,1.25 0.53017,0 2.14544,1.6875 3.58948,3.75 l 2.62554,3.75 -0.58232,-31.5 c -0.32027,-17.325 -0.87297,-47.657447 -1.22822,-67.405438 l -0.64591,-35.90543721 11.38874,0.58817856 C 363.91613,2.4879869 403.33573,25.209353 427.95241,61.860282 c 8.27403,12.318919 19.9865,40.397058 20.0629,48.096488 0.008,0.84878 0.34732,2.06501 0.7531,2.70275 0.42819,0.67295 20.98604,4.14493 48.98996,8.27384 26.5387,3.91288 49.30043,7.59194 50.58163,8.17569 2.88491,1.31446 5.66,5.85333 5.66,9.25738 0,2.28551 -45.17201,292.04718 -46.60564,298.95785 -0.77168,3.7198 -6.04114,9.63019 -10.09662,11.32468 -1.77843,0.74307 -4.93546,1.29994 -7.01562,1.23748 -2.08017,-0.0625 -50.46641,-7.06723 -107.52498,-15.56617 z M 190,400.0449 c -2.475,-1.01532 -6.87728,-2.79003 -9.78283,-3.94382 l -5.28284,-2.09778 -0.8506,2.24835 c -0.46784,1.23659 -0.67937,2.43454 -0.47007,2.66212 0.53929,0.58637 14.28959,2.82024 17.88634,2.9058 2.7446,0.0653 2.61691,-0.0858 -1.5,-1.77467 z m 65.765,-17.24989 c -0.4701,-1.41032 -24.67219,-16.70831 -26.515,-16.75997 -3.59859,-0.10088 0.0444,3.25032 11.02144,10.13862 11.58631,7.27064 16.39501,9.3257 15.49356,6.62135 z m 9.9946,-51.7199 -3.922,-16.92489 11.02171,-10.64835 c 6.06194,-5.85659 10.81572,-11.18516 10.56395,-11.84125 -0.25177,-0.6561 0.675,-4.97744 2.05949,-9.60299 2.72442,-9.10222 3.04825,-11.01396 1.6105,-9.50763 -0.49871,0.5225 -1.86776,4.2125 -3.04234,8.2 -1.38665,4.70744 -2.6468,7.25 -3.59326,7.25 -1.92461,0 -1.83954,-1.96047 0.45286,-10.43621 1.05078,-3.88509 2.21218,-8.83659 2.58088,-11.00336 1.15567,-6.7916 -2.04917,-2.48557 -3.45019,4.63568 C 278.80087,277.50058 274.91261,284 272.38131,284 c -2.03306,0 -1.68028,-3.41946 0.56215,-5.44883 C 274.966,276.72079 278,265.54791 278,259.93015 c 0,-4.79598 -2.42534,-2.15646 -4.95772,5.39553 -1.82147,5.43197 -2.99585,6.99254 -9.76756,12.97971 -6.46534,5.71629 -8.10313,6.70351 -10.23389,6.16872 -3.52223,-0.88402 -3.52122,-0.88104 -2.21163,-6.55453 C 252.24549,271.78391 252.35004,266 251.04466,266 c -1.44714,0 -9.01482,13.25048 -10.62686,18.60686 -0.78073,2.59419 -1.35727,7.9064 -1.28118,11.80492 0.11411,5.84714 -3.70722,37.70297 -5.73355,47.79664 l -0.54372,2.70842 8.32033,0.33804 c 4.57617,0.18591 12.86118,0.42962 18.41112,0.54157 L 269.6816,348 Z M 130.5,313.01384 l 4,-0.72694 -3.8175,-1.68507 c -4.58458,-2.02367 -12.27644,-8.91592 -14.28496,-12.79996 -1.70019,-3.28781 -1.75477,-3.26786 3.23034,-1.18065 5.24337,2.19534 15.91392,1.3263 21.37051,-1.74047 4.42995,-2.48977 8.17066,-7.43318 9.99924,-13.21418 1.37193,-4.33734 0.97769,-18.83929 -0.52596,-19.34665 -3.81387,-1.28686 -8.12438,-5.23463 -11.2765,-10.32755 -2.68692,-4.34131 -4.29362,-5.97335 -5.88847,-5.98136 -2.39699,-0.012 -5.3067,3.39378 -5.3067,6.2115 0,2.1633 -2.55951,2.36777 -3.36496,0.26881 -0.90879,-2.36829 0.92524,-6.00223 4.40292,-8.72392 l 3.18689,-2.49412 -3.39087,-2.58634 c -3.8939,-2.97002 -11.5669,-6.63267 -13.96266,-6.66498 -0.89577,-0.0121 -2.16597,1.27517 -2.82266,2.86056 -0.65669,1.58539 -2.51128,4.14458 -4.12132,5.68709 -3.17668,3.04345 -3.67808,4.43039 -1.60165,4.43039 2.85476,0 5.58716,4.73695 7.70101,13.35065 2.47216,10.07377 1.9595,11.72781 -2.86214,9.23445 -4.43532,-2.29359 -6.9367,-1.96681 -10.24148,1.33798 -7.190743,7.19074 -0.14612,16.82159 9.95852,13.6145 l 2.37197,-0.75284 -0.69227,10.85763 c -0.84071,13.18584 -1.93099,15.1498 -9.65024,17.38337 -3.538467,1.02385 -5.516446,2.16371 -5.736377,3.30572 -0.311594,1.61798 0.728364,1.69519 14.494817,1.07617 8.15678,-0.36677 16.6305,-0.99398 18.8305,-1.39379 z m 12.12007,-35.09805 c -3.33775,-2.62548 -2.14452,-4.98734 1.60972,-3.18626 1.24862,0.59901 3.09513,1.35516 4.10337,1.68032 1.00823,0.32516 1.64799,1.15347 1.42167,1.84068 -0.69655,2.11505 -4.23117,1.94922 -7.13476,-0.33474 z m -35.88978,-4.75772 c -2.54919,-1.7032 -3.44122,-2.84714 -2.75514,-3.53322 1.32853,-1.32853 5.95376,0.29533 7.39879,2.59763 1.94331,3.09617 -0.63297,3.61524 -4.64365,0.93559 z m 28.93638,-15.82474 C 135.3,256.96667 135,256.06667 135,255.33333 c 0,-1.77014 2.6394,-1.71543 3.32411,0.0689 0.80797,2.10555 -1.09798,3.49056 -2.65744,1.9311 z m 160.19185,23.82592 c 1.25645,-1.14923 1.26411,-1.46845 0.0537,-2.23469 -0.7767,-0.49166 -1.74968,-0.90083 -2.16218,-0.90925 -1.28665,-0.0263 -4.75,3.91313 -4.75,5.4029 0,0.78002 -0.29442,2.24252 -0.65427,3.25 -0.6203,1.73666 0.44612,0.95468 7.51279,-5.50896 z m 171.80815,139.17408 c -1.35434,-1.35433 -0.52512,-2.33329 5.79884,-6.84597 l 6.46551,-4.61369 -4.47692,-6.1526 c -4.36801,-6.00293 -4.93294,-7.72812 -2.76704,-8.45009 0.86598,-0.28866 9.07952,9.84881 11.66874,14.40199 0.40812,0.7177 -2.29704,3.33759 -6.9697,6.75 -7.79459,5.69233 -8.55387,6.07592 -9.71943,4.91036 z m -32.03072,-11.40064 c -3.20906,-4.43703 -5.67745,-8.1675 -5.4853,-8.28994 0.19214,-0.12244 3.89099,-2.84361 8.21966,-6.04703 6.10434,-4.5175 8.06427,-5.51827 8.73469,-4.46007 1.33896,2.11345 1.2664,2.20871 -5.105,6.70195 -3.3,2.32722 -6,4.69999 -6,5.27281 0,0.57283 2.00073,3.6416 4.44606,6.81949 3.34179,4.3429 4.16141,6.06263 3.3,6.92404 -0.63033,0.63033 -1.40017,1.14606 -1.71076,1.14606 -0.31058,0 -3.19029,-3.63029 -6.39935,-8.06731 z M 344,333 c 0,-1.46667 0.66667,-2 2.5,-2 H 349 V 318.5 306 h 12 12 v 12.5 12.5 h 4.5 4.5 V 301.5 272 h 12 12 v 29.5 29.5 h 4.5 4.5 V 309.5 288 h 12 12 v 21.5 21.5 h 4.5 4.5 v -36.53174 -36.53173 l 11.75,0.28173 11.75,0.28174 0.26247,36.25 0.26248,36.25 h 4.48752 c 3.82086,0 4.48753,0.29712 4.48753,2 0,1.98054 -0.66667,2 -68.5,2 -67.83333,0 -68.5,-0.0195 -68.5,-2 z m 25,-12.5 V 310 h -8 -8 v 10.5 10.5 h 8 8 z m 33,-17 V 276 h -8 -8 v 27.5 27.5 h 8 8 z m 33,8 V 292 h -8 -8 v 19.5 19.5 h 8 8 z m 33,-15 V 262 h -8 -8 v 34.5 34.5 h 8 8 z m -76.79452,-33.46468 c -1.65132,-2.87727 -1.95218,-2.9731 -10.20349,-3.25 L 372.5,259.5 l -0.28973,-9.41643 c -0.21104,-6.85917 0.0605,-9.63865 1,-10.23469 2.1491,-1.36347 39.1956,-1.04301 40.58973,0.35112 1.25091,1.25091 1.70857,15.3111 0.59301,18.21821 -0.48657,1.268 -2.2669,1.58179 -8.97432,1.58179 -8.28562,0 -8.38248,0.0293 -9.91869,3 -0.85325,1.65 -1.78573,3 -2.07219,3 -0.28646,0 -1.2865,-1.33411 -2.22233,-2.96468 z M 403,249.5 c 0,-1.22741 -1.71566,-1.5 -9.44098,-1.5 -8.65829,0 -11.5369,0.68879 -9.86517,2.36052 C 384.04557,250.71223 388.53333,251 393.66667,251 401.2963,251 403,250.72619 403,249.5 Z M 518.25,155.18045 C 514.88097,154.70197 515.05431,150 518.44098,150 c 2.87123,0 3.45863,0.77538 2.65149,3.5 -0.40899,1.38065 -1.28924,1.90104 -2.84247,1.68045 z M 508,150.89301 c 0,-2.42232 0.34857,-2.97323 1.58179,-2.5 0.86998,0.33385 1.99498,0.60699 2.5,0.60699 0.50501,0 0.91821,1.125 0.91821,2.5 0,2 -0.5,2.5 -2.5,2.5 -2.13024,0 -2.5,-0.45953 -2.5,-3.10699 z m -18.78387,-0.73827 c -0.70613,-0.44805 -1.01108,-1.52551 -0.67768,-2.39435 0.4007,-1.04419 -0.0963,-1.80267 -1.46613,-2.23744 C 485.88591,145.1464 485,144.01023 485,142.86522 c 0,-1.56752 0.44765,-1.85792 2.07017,-1.34295 1.5674,0.49748 2.20289,0.14954 2.61663,-1.43261 0.32449,-1.24084 1.35886,-2.08966 2.54646,-2.08966 1.54259,0 1.87378,0.48269 1.44808,2.11054 -0.39862,1.52434 -0.0144,2.25111 1.38337,2.61663 1.09993,0.28764 1.93529,1.36939 1.93529,2.50609 0,1.50906 -0.49197,1.87135 -2.00417,1.4759 -1.505,-0.39356 -2.15467,0.0755 -2.60841,1.88337 -0.64836,2.58328 -1.16274,2.83667 -3.17129,1.56221 z M 517,144.5 c 0,-2.11111 0.46667,-2.5 3,-2.5 1.65,0 3,0.4132 3,0.91821 C 523,145.36776 521.55762,147 519.39301,147 517.50713,147 517,146.47019 517,144.5 Z m -7.81642,-1.25 c 0.25934,-2.25393 0.75625,-2.70101 2.75465,-2.47844 3.0767,0.34267 3.09888,0.37054 2.40548,3.02211 -0.39689,1.51768 -1.34161,2.20633 -3.02676,2.20633 -2.08254,0 -2.40236,-0.41225 -2.13337,-2.75 z M 309.232,121 c 0,-1.925 0.2058,-2.7125 0.45733,-1.75 0.25152,0.9625 0.25152,2.5375 0,3.5 -0.25153,0.9625 -0.45733,0.175 -0.45733,-1.75 z M 97.496485,90.634979 c -3.166479,-4.832657 2.198502,-10.474136 7.342645,-7.721071 2.89732,1.550594 3.61652,4.741741 1.72075,7.635055 -2.16628,3.306152 -6.923896,3.351304 -9.063395,0.08602 z M 82.654988,89.171259 C 80.7191,87.032128 80.484149,82.915851 82.2,81.2 83.899024,79.500976 88.568913,79.71177 90.428571,81.571429 92.568786,83.711643 92.402281,86.597719 90,89 c -2.491152,2.491152 -5.188619,2.554047 -7.345012,0.171259 z M 66.571429,86.428571 C 63.238042,83.095185 66.14458,77 71.067519,77 c 3.867771,0 6.533457,6.999024 3.732481,9.8 -1.699024,1.699024 -6.368913,1.48823 -8.228571,-0.371429 z"
         id="path3" />
      <path
         style="fill:#0a0a18"
         d="M 384,434.06997 C 279.43408,418.47371 278.47624,418.35081 275.81607,420.18824 c -4.42422,3.05591 -10.70212,4.81194 -17.1918,4.80881 -5.35288,-0.003 -8.64338,-1.0268 -26.12427,-8.1316 l -20,-8.12865 -100.25493,-14.84527 C 52.843382,385.09561 10.805653,378.43374 9.0833692,377.54311 5.336109,375.60533 2.283799,371.68737 1.0553552,367.23831 0.25476784,364.33882 4.2675769,337.02284 23.514542,214.35419 38.023112,121.88525 47.554895,63.827631 48.540656,61.92138 c 3.411554,-6.597218 1.106885,-6.722189 73.687574,3.995724 36.15052,5.338309 65.93855,9.916347 66.19562,10.173417 0.25707,0.25707 0.15437,0.968393 -0.22822,1.580718 C 187.70333,78.459136 168.93904,76.038364 124,69.389392 89.075,64.222051 58.969704,60.108025 57.099342,60.247113 54.813882,60.417069 53.101119,61.31984 51.876488,63 50.454296,64.951207 44.999437,97.75052 27.027146,212.41565 14.362216,293.21926 4,361.24724 4,363.58893 c 0,4.33935 3.0066184,9.27388 6.929956,11.37358 1.777496,0.95129 34.265457,6.05485 38.288342,6.01475 1.952727,-0.0195 2.92011,-1.5694 6.709564,-10.75 14.254647,-34.53434 17.094754,-39.05919 27.508758,-43.82687 4.514388,-2.06676 5.414755,-2.96096 6.445526,-6.40136 C 90.541121,317.79956 91.512219,316 92.040142,316 c 1.550317,0 1.100271,-7.71673 -0.546062,-9.36306 -0.828256,-0.82826 -2.515756,-1.81976 -3.75,-2.20333 -4.896371,-1.52168 -13.25496,-8.12197 -17.37742,-13.72194 -19.006052,-25.81789 -3.673401,-62.38504 27.039225,-64.4864 6.571875,-0.44964 7.302335,-0.73396 9.922495,-3.86208 4.9132,-5.86572 6.33168,-6.10103 10.75297,-1.78375 3.51433,3.43165 4.08976,3.66363 6.43607,2.59458 4.21813,-1.92191 6.37037,-1.39952 8.55295,2.07598 1.53819,2.44939 1.93927,4.43028 1.62813,8.04119 -0.38486,4.46661 -0.0128,5.39835 5.49169,13.75383 4.3287,6.57067 6.93589,9.48881 9.76901,10.93417 3.38255,1.72564 4.00021,2.60429 4.95265,7.04538 0.59848,2.79063 1.08815,6.30718 1.08815,7.81455 0,4.7588 -2.87461,14.01428 -5.65976,18.22292 -2.70029,4.08042 -9.5905,8.93796 -12.6781,8.93796 -1.82861,0 -1.99091,1.32221 -1.02622,8.36043 0.38476,2.80714 1.14807,4.63957 1.93262,4.63957 1.37352,0 1.88062,1.26348 2.87163,7.155 0.61467,3.65417 0.61624,3.65516 6.83732,4.33347 8.28955,0.90383 17.19857,3.20359 22.10296,5.70562 2.20022,1.12247 15.27722,9.55429 29.05998,18.73737 13.78276,9.18309 25.55408,16.98976 26.15847,17.34816 1.39482,0.82713 9.42422,-54.70986 10.33172,-71.46144 0.59095,-10.90835 0.87898,-12.16154 4.35013,-18.92703 3.50511,-6.8317 3.62839,-7.38088 2.15989,-9.62209 -1.5442,-2.35675 -1.72699,-2.15848 -21.59769,23.42704 -11.02217,14.19214 -20.43563,25.69482 -20.91881,25.56151 -0.71957,-0.19854 -26.54649,-19.85167 -29.20782,-22.22585 -0.43102,-0.38452 8.23755,-12.34571 19.2635,-26.58042 19.34537,-24.97523 19.96795,-25.92055 17.78368,-27.00249 -1.24492,-0.61665 -15.19507,-5.79084 -31.00032,-11.4982 -15.80525,-5.70735 -28.40525,-10.69333 -28,-11.07994 0.40525,-0.38662 9.28682,-4.72926 19.73682,-9.65032 10.45,-4.92106 43.975,-20.76271 74.5,-35.20367 61.67038,-29.17541 70,-33.05154 70,-32.57398 0,0.42445 -18.0657,95.74857 -21.57503,113.84116 -2.47468,12.75843 -2.55274,13.91743 -1.04928,15.57874 0.89337,0.98716 1.62431,2.77191 1.62431,3.9661 0,1.64934 0.60094,2.17126 2.5,2.17126 2.46975,0 6.5,3.0847 6.5,4.97502 0,0.53626 -4.20666,5.14876 -9.34813,10.25 l -9.34814,9.27498 -1.77689,9.85161 -1.7769,9.85161 -2.99331,-4.60161 c -1.64632,-2.53089 -3.27756,-4.58543 -3.62497,-4.56565 -0.34741,0.0198 -1.9505,1.11405 -3.56242,2.4317 l -2.93077,2.39574 3.82509,16.8183 c 2.41422,10.61494 6.44468,24.0108 10.9272,36.3183 6.72314,18.45949 7.10229,19.95578 7.10567,28.04178 0.003,7.38971 -0.37076,9.2633 -2.77184,13.89126 -1.52647,2.94221 -2.65147,5.46648 -2.5,5.60947 0.68903,0.65048 205.75073,30.48354 209.44868,30.4713 4.23427,-0.014 9.21406,-3.06626 11.26989,-6.9076 0.96425,-1.80173 47.16107,-294.41091 47.34465,-299.87958 0.23344,-6.9537 0.58829,-6.85181 -49.98137,-14.35129 -25.19354,-3.73621 -47.03533,-6.8116 -48.53731,-6.83422 -2.6212,-0.0395 -2.71288,0.12955 -2.28303,4.20888 1.32658,12.58928 1.39111,16.25789 0.47053,26.74841 C 448.83485,161.78164 445.39007,178 443.79668,178 442.91257,178 398.26396,164.42598 355,151.00413 c -6.875,-2.13285 -19.025,-5.88263 -27,-8.33286 l -14.5,-4.45496 -0.62593,-8.85815 c -0.34427,-4.87199 -0.96518,-36.041186 -1.37982,-69.264885 l -0.75388,-60.40672502 9.87981,0.69166078 C 355.58415,2.8259485 385.02066,16.103863 409.56832,40.5 c 19.21018,19.091605 32.11801,42.168117 37.4764,67 0.7121,3.3 1.37794,6.1221 1.47966,6.27133 0.10172,0.14923 22.54156,3.58166 49.86633,7.62763 38.48471,5.69842 50.11551,7.74919 51.60769,9.09959 5.07029,4.58855 7.20782,-10.94548 -37.54339,272.83843 -3.02148,19.16034 -6.11385,36.0364 -6.87193,37.50236 -0.75808,1.46596 -2.2946,3.49461 -3.4145,4.5081 -2.1747,1.96808 -8.68933,4.59959 -11.16858,4.51144 -0.825,-0.0293 -48.975,-7.13435 -107,-15.78891 z M 197,402.65528 c 0,-0.59617 -21.99543,-8.99318 -22.4269,-8.56172 -0.22579,0.2258 -0.70435,1.58118 -1.06345,3.01196 l -0.65291,2.60143 10.32163,1.52018 C 194.66233,402.9185 197,403.16005 197,402.65528 Z m 58.7649,-19.73815 c 0.25674,-1.37343 -25.0156,-17.71061 -26.55622,-17.16713 -0.38977,0.1375 -0.70868,0.94872 -0.70868,1.8027 0,1.61587 24.19187,17.45279 26,17.0206 0.55,-0.13147 1.11921,-0.87674 1.2649,-1.65617 z M 269.97982,348.25 c -0.0111,-0.4125 -1.77298,-8.175 -3.91529,-17.25 l -3.89512,-16.5 10.95727,-10.87407 c 6.0265,-5.98074 10.79011,-11.37556 10.5858,-11.9885 -0.20432,-0.61294 0.90219,-5.35671 2.45891,-10.54171 1.55671,-5.185 2.70446,-9.55321 2.55054,-9.70712 -1.03633,-1.03633 -2.79943,2.12525 -4.64042,8.32114 -1.17822,3.96536 -2.54747,7.4602 -3.04277,7.76632 -2.04274,1.26248 -2.08557,-1.96324 -0.1123,-8.45979 2.96094,-9.74824 3.79788,-16.42438 1.98319,-15.81948 -0.79038,0.26346 -2.13765,3.64407 -3.09639,7.76953 -1.1758,5.05948 -2.54251,8.18544 -4.44864,10.17501 -3.73488,3.89837 -5.39018,2.09971 -2.12288,-2.30674 2.20461,-2.97324 3.33221,-7.01315 5.18726,-18.58459 0.28656,-1.7875 0.34407,-3.25 0.12781,-3.25 -2.17768,0 -3.78717,2.1823 -5.57765,7.56268 -1.86706,5.61052 -3.01447,7.18414 -9.4157,12.91321 -5.69439,5.09646 -7.97599,6.52411 -10.42649,6.52411 -3.59844,0 -3.67881,-0.39279 -1.63695,-8 1.81416,-6.75887 1.82219,-7.17712 0.18096,-9.42164 -1.19746,-1.63762 -1.70848,-1.14838 -5.54392,5.30764 -5.78518,9.7379 -7.13773,14.09722 -7.1329,22.98973 0.002,4.19335 -1.40101,17.43349 -3.11841,29.42253 -1.71739,11.98905 -2.86293,22.05788 -2.54563,22.37518 0.48875,0.48874 6.57108,0.88393 33.4099,2.17074 1.7875,0.0857 3.24092,-0.18168 3.22982,-0.59418 z M 119.75,314.34079 c 14.77171,-0.67576 17.57414,-1.73699 10.93073,-4.13928 -4.31128,-1.55897 -11.30573,-7.57565 -13.30801,-11.44765 -1.4691,-2.84092 -1.4587,-3.00083 0.15497,-2.38161 6.08931,2.33669 10.59999,2.79759 15.68372,1.60256 9.48466,-2.22956 13.25457,-5.17388 16.62893,-12.98727 3.80267,-8.80518 3.57244,-21.14303 -0.43831,-23.48754 -3.92546,-2.29466 -8.42537,-6.86411 -10.8735,-11.04153 -1.8934,-3.23085 -3.24692,-4.45847 -4.9157,-4.45847 -2.52001,0 -5.20493,2.47199 -5.75959,5.30282 -0.51752,2.64125 -2.30073,2.56765 -2.68037,-0.11064 -0.43641,-3.07879 2.26159,-7.01213 5.33978,-7.78471 1.36804,-0.34336 2.48735,-0.94922 2.48735,-1.34636 0,-1.09017 -8.44825,-6.93263 -12.43089,-8.59668 -4.93752,-2.06303 -7.08238,-1.82811 -8.33107,0.91248 -0.59565,1.3073 -2.58036,4.08231 -4.41046,6.16669 -2.13225,2.42849 -2.8833,3.93783 -2.0909,4.20196 3.70126,1.23375 5.53799,4.26286 7.74684,12.77597 2.57818,9.93655 2.07775,12.68543 -1.81322,9.96009 -2.48736,-1.74221 -6.97255,-1.92541 -9.8207,-0.40113 -1.1104,0.59427 -2.668917,2.63616 -3.463362,4.53754 -1.279242,3.06166 -1.261535,3.8425 0.15482,6.82725 2.041692,4.30255 6.529412,6.34405 10.582622,4.81414 L 112,282.17373 v 9.96279 c 0,13.29404 -1.00222,15.20359 -9.25514,17.63403 -4.109972,1.21036 -6.349645,2.41578 -6.564856,3.53328 -0.382116,1.98417 1.272914,2.05698 23.569996,1.03696 z m 24.47783,-35.38015 c -2.31074,-0.92808 -3.95469,-3.56711 -2.88713,-4.63468 0.99508,-0.99508 7.6593,2.6775 7.6593,4.22096 0,1.63374 -1.42662,1.75742 -4.77217,0.41372 z M 108,273.5 C 107.31531,272.675 106.13521,272 105.37756,272 104.6199,272 104,271.325 104,270.5 c 0,-0.825 0.81515,-1.5 1.81144,-1.5 1.94511,0 6.18856,3.45517 6.18856,5.03896 0,1.48668 -2.61082,1.1349 -4,-0.53896 z m 27.45888,-17.56653 c -0.36253,-0.58659 -0.41903,-1.30665 -0.12555,-1.60014 0.71632,-0.71631 2.66667,0.54583 2.66667,1.72569 0,1.27797 -1.72641,1.19267 -2.54112,-0.12555 z m 161.10952,23.17721 c -1.03221,-1.67016 -4.0605,-1.33608 -5.79513,0.63932 -1.40744,1.60279 -1.95646,2.99464 -3.45149,8.75 -0.34352,1.32245 1.25101,0.25893 4.70677,-3.13932 2.94012,-2.8912 4.92602,-5.62518 4.53985,-6.25 z m 171.63962,140.63996 c -0.80286,-0.96738 0.47872,-2.35428 5.32475,-5.76233 3.51015,-2.46857 6.40125,-4.73577 6.42466,-5.03823 0.0234,-0.30245 -1.99916,-3.35585 -4.49461,-6.78533 C 471.43485,396.62914 470.59161,394 472.84414,394 c 0.81142,0 11.05705,14.0429 11.16464,15.30252 0.0377,0.44139 -2.76135,2.86496 -6.22012,5.38571 -3.45876,2.52075 -6.79145,4.97767 -7.40598,5.45981 -0.67463,0.52929 -1.53625,0.37184 -2.17466,-0.3974 z m -32.13749,-10.84362 c -2.84637,-3.90114 -5.03916,-7.46693 -4.87287,-7.92399 C 431.56401,399.97608 445.16326,390 446.16957,390 c 2.73694,0 0.98789,2.62311 -4.37813,6.56603 -3.46029,2.5426 -6.43852,4.76497 -6.61827,4.93861 -0.17976,0.17363 1.73274,3.14616 4.25,6.60561 4.89263,6.72392 5.36544,7.88975 3.1997,7.88975 -0.75742,0 -3.70597,-3.19184 -6.55234,-7.09298 z M 344,332.5 c 0,-0.93333 0.94444,-1.5 2.5,-1.5 H 349 V 318.5 306 h 11.5 11.5 v 12.5 12.5 h 5 5 V 301.5 272 h 11.5 11.5 v 29.5 29.5 h 5 5 V 309.5 288 h 11.48011 11.48011 l 0.26989,21.25 0.26989,21.25 4.75,0.30479 4.75,0.30479 V 295.05479 259 h 12 12 v 36 36 h 4.5 c 3.33333,0 4.5,0.38889 4.5,1.5 0,1.31873 -8.27778,1.5 -68.5,1.5 -60.22222,0 -68.5,-0.18127 -68.5,-1.5 z m 25,-12.54044 v -11.04044 l -8.25,0.29044 -8.25,0.29044 -0.28383,10.75 -0.28383,10.75 H 360.46617 369 Z M 402,303.5 V 276 h -8.5 -8.5 v 27.5 27.5 h 8.5 8.5 z m 33,7.45956 v -20.04044 l -8.25,0.29044 -8.25,0.29044 -0.27114,19.75 -0.27114,19.75 H 426.47886 435 Z m 33,-14.5 v -34.54044 l -8.25,0.29044 -8.25,0.29044 -0.26397,32.99239 c -0.14519,18.14582 -0.0468,33.55832 0.21861,34.25 0.3322,0.8657 2.98544,1.25761 8.51398,1.25761 H 468 Z m -76.41777,-33.30055 c -1.57472,-3.04516 -1.69598,-3.0847 -10.33782,-3.37016 L 372.5,259.5 l -0.29038,-8.84889 c -0.18867,-5.74963 0.12439,-9.34864 0.89385,-10.27578 0.95379,-1.14925 4.8153,-1.40813 19.84566,-1.33047 10.26379,0.053 19.21694,0.43974 19.89588,0.85935 0.87306,0.53958 1.14963,3.51963 0.94472,10.17936 L 413.5,259.5 l -8.28968,0.29108 c -8.05903,0.28299 -8.34179,0.37676 -10.16218,3.37017 l -1.8725,3.07907 z m 11.6822,-11.75678 c 0.32877,-0.32877 0.35563,-1.22877 0.0597,-2 C 402.91266,248.33001 400.45775,248 392.89301,248 383.66667,248 383,248.13478 383,250 c 0,1.86441 0.66667,2 9.83333,2 5.40834,0 10.10233,-0.26899 10.4311,-0.59777 z M 516.18045,152.75 c 0.20974,-1.47682 1.00682,-2.25 2.31955,-2.25 1.31273,0 2.10981,0.77318 2.31955,2.25 0.26213,1.84568 -0.15469,2.25 -2.31955,2.25 -2.16486,0 -2.58168,-0.40432 -2.31955,-2.25 z m -7.47921,0.6179 C 508.31556,152.98222 508,151.84167 508,150.83333 508,149.53121 508.74453,149 510.56955,149 c 2.08969,0 2.50988,0.41827 2.25,2.23978 -0.31628,2.21686 -2.76448,3.48195 -4.11831,2.12812 z M 489,147.5 c 0,-1.83333 -0.53333,-2.5 -2,-2.5 -1.11111,0 -2,-0.66667 -2,-1.5 0,-0.93333 0.94444,-1.5 2.5,-1.5 1.83333,0 2.5,-0.53333 2.5,-2 0,-1.11111 0.66667,-2 1.5,-2 0.93333,0 1.5,0.94444 1.5,2.5 0,1.83333 0.53333,2.5 2,2.5 1.11111,0 2,0.66667 2,1.5 0,0.93333 -0.94444,1.5 -2.5,1.5 -1.83333,0 -2.5,0.53333 -2.5,2 0,1.11111 -0.66667,2 -1.5,2 -0.93333,0 -1.5,-0.94444 -1.5,-2.5 z m 28.77543,-1.0579 c -1.1755,-1.1755 0.54616,-4.4421 2.3412,-4.4421 1.34226,0 1.88337,0.71827 1.88337,2.5 0,1.75758 -0.54444,2.5 -1.83333,2.5 -1.00834,0 -2.08439,-0.25106 -2.39124,-0.5579 z m -7.5593,-1.28736 C 508.43071,144.02186 509.80599,141 512.10699,141 c 1.35254,0 1.89301,0.71376 1.89301,2.5 0,2.52502 -1.42807,3.14954 -3.78387,1.65474 z M 98.571429,91.428571 C 96.190642,89.047785 96.625527,85.29147 99.5,83.408043 c 2.31587,-1.517417 2.68413,-1.517417 5,0 C 109.09981,86.421955 107.13652,93 101.63717,93 100.8153,93 99.435714,92.292857 98.571429,91.428571 Z M 84.279917,89.907893 c -3.070582,-1.135949 -4.01442,-5.438795 -1.743451,-7.948188 2.384263,-2.634581 6.070771,-2.488771 7.906375,0.312715 2.90441,4.43269 -1.171217,9.482135 -6.162924,7.635473 z M 66.381202,85.459036 c -3.020346,-4.609631 1.062974,-9.318566 6.376176,-7.353084 3.038381,1.12397 3.965905,5.437348 1.706156,7.934343 -2.482449,2.743074 -6.073355,2.484826 -8.082332,-0.581259 z"
         id="path2" />
    </g>
  </g>
</svg>
