<?xml version="1.0" encoding="UTF-8" standalone="no"?>
<!-- Created with Inkscape (http://www.inkscape.org/) -->

<svg
   version="1.1"
   id="svg1"
   width="550"
   height="450"
   viewBox="0 0 550 450"
   sodipodi:docname="HR_07.svg"
   inkscape:version="1.3.2 (091e20e, 2023-11-25, custom)"
   xmlns:inkscape="http://www.inkscape.org/namespaces/inkscape"
   xmlns:sodipodi="http://sodipodi.sourceforge.net/DTD/sodipodi-0.dtd"
   xmlns="http://www.w3.org/2000/svg"
   xmlns:svg="http://www.w3.org/2000/svg">
  <defs
     id="defs1" />
  <sodipodi:namedview
     id="namedview1"
     pagecolor="#ffffff"
     bordercolor="#000000"
     borderopacity="0.25"
     inkscape:showpageshadow="2"
     inkscape:pageopacity="0.0"
     inkscape:pagecheckerboard="0"
     inkscape:deskcolor="#d1d1d1"
     showgrid="false"
     inkscape:zoom="1.7488889"
     inkscape:cx="274.74587"
     inkscape:cy="225"
     inkscape:window-width="1920"
     inkscape:window-height="1001"
     inkscape:window-x="-9"
     inkscape:window-y="-9"
     inkscape:window-maximized="1"
     inkscape:current-layer="g1" />
  <g
     inkscape:groupmode="layer"
     inkscape:label="Image"
     id="g1">
    <g
       id="g2">
      <path
         style="fill:#fefefe"
         d="M 0,225 V 0 H 275 550 V 225 450 H 275 0 Z"
         id="path5" />
      <path
         style="fill:#cdcac7"
         d="m 482,448.55977 c -34.46133,-6.12899 -63.22067,-21.9112 -68.65127,-37.67363 -3.47801,-10.09499 4.91356,-18.69057 21.40127,-21.92157 L 441,387.73979 V 308.5009 229.262 l -9.25,0.0654 c -14.91013,0.10541 -21.92732,-3.91647 -31.87238,-18.26756 l -6.12762,-8.8424 -4.43946,3.12922 -4.43945,3.12921 -14.43554,0.37327 -14.43555,0.37328 -0.01,2.13879 c -0.005,1.17634 -1.09333,4.46603 -2.41768,7.31043 l -2.40792,5.17163 5.82195,5.06377 c 11.55273,10.04826 20.91389,25.64818 25.08874,41.80919 2.40195,9.29804 3.51167,28.3907 2.13688,36.76492 l -0.98192,5.98113 4.36419,4.85403 c 9.81418,10.91572 16.60232,26.28546 18.60214,42.11898 2.89833,22.94757 -6.27141,47.33375 -23.90174,63.56472 -8.64159,7.95568 -16.02827,12.48467 -26.27786,16.11171 -27.90203,9.87374 -57.01196,3.28302 -79.20479,-17.93259 l -4.68778,-4.48136 -56.64803,13.77712 -56.64804,13.77712 -7.21888,-0.46328 c -9.21434,-0.59134 -16.84677,-4.00839 -23.94221,-10.71895 -2.93008,-2.77116 -6.48396,-7.40801 -7.89751,-10.30412 -1.45409,-2.97915 -5.95951,-19.22162 -10.3757,-37.40535 l -7.8056,-32.13971 -5.544236,4.75086 c -8.118556,6.9568 -23.924105,17.70934 -40.510815,27.55957 l -14.577368,8.65696 0.771974,5.15601 c 0.424586,2.83581 0.770587,10.55601 0.768891,17.15601 -0.0025,9.55487 -0.361145,12.65618 -1.76035,15.22036 -2.608805,4.78087 -5.008717,5.71886 -9.355102,3.65637 C 21.514184,431.6944 8.3951785,404.83354 2.3815117,377 -0.19877756,365.05744 -0.2659772,340.90162 2.2681886,336.26449 c 1.9214382,-3.51594 5.5567501,-5.02147 8.3502194,-3.45816 1.325522,0.7418 3.28961,0.23411 7.911296,-2.04495 l 6.148016,-3.03172 1.796346,-5.28476 c 0.98799,-2.90662 4.323003,-9.74746 7.41114,-15.20186 C 36.973343,301.78863 46.025,281.96549 54,263.1916 l 14.5,-34.13433 2.55887,-0.0286 c 5.237164,-0.0586 5.876985,1.43823 6.170732,14.43615 L 77.5,255.42956 l 13,-0.26118 c 21.23166,-0.42656 41.64358,1.82787 43.48197,4.80244 0.44573,0.72121 18.36152,-3.36593 51.51803,-11.75284 l 8,-2.02359 -33.0399,-0.0972 c -35.85341,-0.10547 -40.62889,-0.66344 -49.33471,-5.76437 -9.95484,-5.83276 -18.774127,-16.78161 -21.227149,-26.3528 -0.701987,-2.73901 -1.753768,-5.00299 -2.337291,-5.03106 -0.583522,-0.0281 -7.008173,-0.007 -14.277001,0.0477 C 58.440444,209.10754 53.525511,208.15452 48.909494,204.2704 42.735974,199.07572 43,203.54472 43,104.24401 V 13.42378 L 45.25,9.0056444 C 46.84872,5.8663735 48.775723,3.9235639 51.907284,2.2937547 L 56.314567,0 H 219.59218 c 112.70729,0 164.14951,0.32871627 166.09272,1.0613339 4.18672,1.5784543 9.20229,6.8735059 10.3193,10.8943091 0.58634,2.110604 0.9869,24.073595 0.99022,54.294357 L 397,117 h 5.95681 c 3.75558,0 10.86909,-1.34719 19.25,-3.64565 15.45204,-4.23771 22.24231,-4.57631 29.28641,-1.46037 2.9845,1.32018 6.85913,2.10967 10.3839,2.11579 9.60727,0.0167 16.97872,4.79072 27.37051,17.72619 l 2.59963,3.23596 0.53849,-2.73596 c 0.29618,-1.50478 0.81834,-4.7848 1.16037,-7.28893 l 0.62188,-4.55298 -9.99629,-8.2523 c -5.73442,-4.73397 -10.6732,-9.67878 -11.584,-11.59815 -2.10962,-4.445712 -1.97271,-10.098776 0.36956,-15.258312 2.09927,-4.624254 5.54692,-6.294768 9.36647,-4.538393 2.53307,1.164803 27.37784,20.843345 33.00868,26.144835 7.60919,7.16414 8.11521,10.8673 4.72859,34.60494 l -1.99689,13.99666 3.08459,9.50334 c 2.47125,7.61369 3.18251,11.78999 3.57707,21.00333 0.27087,6.325 0.0542,13.86598 -0.48154,16.75773 l -0.97402,5.25774 13.36489,7.20393 L 550,222.42333 v 4.32046 c 0,2.37624 -0.60797,5.77552 -1.35104,7.55395 -1.38671,3.31887 -7.84952,9.70226 -9.82297,9.70226 -0.60743,0 -5.52556,-2.3412 -10.9292,-5.20267 -5.40363,-2.86147 -10.10178,-4.92568 -10.44033,-4.58712 -0.33856,0.33855 1.65264,39.81048 4.42487,87.71539 l 5.04042,87.09983 6.41708,6.23729 c 8.21098,7.98092 10.7516,13.89871 8.59083,20.01031 -1.77782,5.02842 -6.66661,9.05532 -14.46304,11.91324 -5.05165,1.85177 -8.42018,2.22705 -21.96662,2.44727 -10.08011,0.16387 -18.77495,-0.23342 -23.5,-1.07377 z M 344.79216,438.41852 c 14.02838,-2.8783 31.76249,-13.01799 39.20644,-22.41675 l 3.0821,-3.89147 -4.84853,-3.80515 C 355.16421,387.06209 332.73669,370.54766 330.92603,370.52606 L 328.74185,370.5 318.49962,336 c -8.98571,-30.26751 -10.47272,-34.46497 -12.12093,-34.21443 -3.29346,0.50061 -15.73826,7.14173 -19.78843,10.56 l -3.90974,3.29976 7.15974,29.47366 c 7.92543,32.62569 8.59644,38.8433 5.22672,48.43078 -2.4788,7.05262 -8.01055,14.56751 -13.76384,18.69817 l -4.52954,3.25206 6.52873,6.06565 c 16.1701,15.02317 39.39016,21.38723 61.48983,16.85287 z m 159.74774,-7.94014 c 3.27806,-0.83689 8.82596,-2.91635 12.32867,-4.62103 l 6.36857,-3.09942 -0.62624,-7.62896 C 522.26647,410.93304 520.40762,379.825 518.48012,346 c -1.92749,-33.825 -4.11955,-72.3 -4.87125,-85.5 -0.7517,-13.2 -1.3087,-25.33337 -1.23779,-26.96303 L 512.5,230.57393 475,210.37449 l -37.5,-20.19944 -0.5393,2.16247 c -0.39667,1.59056 -1.43679,2.24896 -3.93282,2.48947 -8.05714,0.77638 -9.88296,-0.29164 -22.04211,-12.89351 L 399.47154,170 h -5.28543 c -5.76776,0 -10.56151,1.92994 -11.61539,4.6763 -0.85538,2.22909 20.70442,34.53621 27.92928,41.85172 6.61715,6.70017 13.07173,8.82558 25.28887,8.32728 L 444.5,224.5 445.22215,294 c 0.39718,38.225 0.84718,81.82082 1,96.8796 l 0.27785,27.37961 10.5,5.3898 c 5.775,2.96439 12.975,6.02646 16,6.80459 7.43582,1.91274 24.09361,1.92583 31.5399,0.0248 z M 196.14118,386.37076 C 217.78853,381.07468 239.55,375.7699 244.5,374.58237 l 9,-2.15915 -0.35326,-2.45008 c -0.86122,-5.97313 -4.54692,-13.25068 -9.05451,-17.87845 -5.72832,-5.88105 -10.602,-8.50412 -18.79592,-10.11618 -5.22306,-1.02757 -7.33815,-0.95469 -13.97541,0.48153 -19.03155,4.1182 -38.89326,9.68534 -42.87127,12.01661 -11.48423,6.73021 -17.80644,21.06813 -15.39524,34.91431 0.7193,4.13047 1.63415,6.60904 2.43944,6.60904 0.70869,0 18.99999,-4.33316 40.64735,-9.62924 z m 145.83076,-56.72204 c 5.58736,-15.86821 10.01691,-28.96432 9.84345,-29.10247 -0.17347,-0.13815 -2.34039,-0.73895 -4.81539,-1.33511 -8.57584,-2.06569 -16.74138,-2.45443 -25.48496,-1.21327 l -8.68787,1.23324 0.54502,2.13444 c 3.2211,12.61492 17.28468,58.33493 17.78436,57.81613 0.36111,-0.37492 5.22803,-13.66476 10.81539,-29.53296 z m -143.95092,-4.04393 c 13.52549,-8.95075 12.43851,-30.13841 -1.94787,-37.96846 C 181.04112,279.45487 163,290.13585 163,307.2168 c 0,6.85128 4.21531,14.9125 9.66521,18.4834 6.94182,4.54846 18.40362,4.50533 25.35581,-0.0954 z M 88.857314,320.97888 c 2.642226,-1.19894 4.164505,-2.47964 3.867468,-3.2537 -1.720041,-4.48236 -2.877726,-13.98779 -2.335465,-19.17586 l 0.626303,-5.99215 -4.519774,4.7847 c -2.485875,2.63159 -5.367893,6.44716 -6.404482,8.47904 -4.044474,7.92783 -2.564871,17.22641 2.730065,17.15713 0.923214,-0.0121 3.639362,-0.9117 6.035885,-1.99916 z M 286.83293,306.52456 c 16.33931,-11.73863 41.22134,-16.73499 60.48612,-12.14574 8.25229,1.96585 20.16257,7.34272 26.75337,12.07774 l 4.84827,3.48313 0.67759,-3.61188 c 1.06282,-5.66531 -0.32274,-28.19492 -2.1419,-34.82781 -4.13253,-15.06779 -11.50305,-27.57254 -22.08793,-37.47418 l -6.62852,-6.20066 -5.11997,4.96256 c -7.19123,6.97015 -13.61192,10.37284 -23.83927,12.63382 l -2.71931,0.60116 -0.28069,11.96181 L 316.5,269.94633 303.83903,257.97316 291.17806,246 h -16.93419 -16.9342 l 3.98736,4.19158 c 5.97703,6.28317 9.00154,14.09099 14.74265,38.05842 2.86548,11.9625 5.37775,21.75 5.58283,21.75 0.20507,0 2.54976,-1.56395 5.21042,-3.47544 z M 519.92971,191.19741 c 0.0729,-11.71976 -1.64264,-22.02898 -4.94953,-29.74366 l -1.75865,-4.10275 2.41169,-18.4255 2.41169,-18.4255 -1.58842,-4.20616 c -1.34313,-3.55662 -4.196,-6.29764 -18.4743,-17.749997 C 488.69495,91.094729 480.38849,85 479.5234,85 c -3.30981,0 -4.82106,10.70232 -2.06657,14.63491 0.80126,1.14396 5.97626,5.81441 11.5,10.37878 5.52375,4.56437 10.04317,8.96234 10.04317,9.77326 0,0.81091 -0.70149,5.88671 -1.55886,11.27955 l -1.55887,9.80516 1.59973,3.09354 c 1.76942,3.42166 1.32428,5.0348 -1.38933,5.0348 -1.1354,0 -2.33517,-1.37041 -3.28303,-3.75 -2.52638,-6.34242 -15.96093,-21.63081 -21.15218,-24.07098 -5.98827,-2.81482 -13.3057,-4.06888 -12.14443,-2.08132 0.45063,0.77127 4.85183,7.85395 9.78044,15.73929 7.61015,12.17556 8.75348,14.54457 7.58382,15.71384 -0.75751,0.75726 -1.85349,1.05562 -2.4355,0.66301 -0.58202,-0.39261 -5.75702,-8.26626 -11.5,-17.49699 L 452.5,116.9337 447.15336,115.3678 C 441.49022,113.7092 436.93072,113.9837 429,116.46072 l -4.5,1.40549 9.12756,0.0669 c 6.03397,0.0442 9.46434,0.49056 10.12125,1.3169 0.54653,0.6875 4.24451,8.60962 8.21772,17.60472 7.00997,15.87011 7.75865,19.40501 3.78711,17.88098 -0.75944,-0.29142 -4.44687,-7.48785 -8.1943,-15.99206 l -6.8135,-15.4622 -9.02654,-0.64072 c -11.1945,-0.79461 -40.32594,-0.66749 -47.70888,0.20818 -6.49732,0.77062 -7.34591,2.4105 -3.56969,6.8983 3.85371,4.57986 7.72689,5.90067 24.05927,8.20456 22.51637,3.17622 20.085,2.01144 22.10764,10.59099 0.9614,4.07807 2.00549,7.80402 2.32018,8.2799 0.3147,0.47588 14.29718,8.22437 31.07218,17.21888 16.775,8.99451 36.8,19.7683 44.5,23.94177 11.40797,6.18321 14.12585,7.30378 14.67971,6.05241 0.37385,-0.84464 0.71135,-6.62188 0.75,-12.8383 z m -431.664387,5.76207 c 0.439971,-6.41903 1.268407,-9.55094 4.108007,-15.53033 C 100.49539,164.32641 116.29156,155 137.13649,155 140.91142,155 144,154.82185 144,154.60412 144,154.38638 138.375,133.91814 131.5,109.11915 124.625,84.320155 119,63.636297 119,63.155022 c 0,-0.481275 20.02268,6.59946 44.49485,15.734966 24.47216,9.135507 44.49716,16.883677 44.5,17.218156 0.003,0.334479 -6.63235,3.669051 -14.74485,7.410156 -8.1125,3.74111 -14.92703,6.94448 -15.1434,7.11859 -0.21636,0.17411 2.70864,3.73491 6.5,7.91288 3.79137,4.17797 8.8703,9.84117 11.28652,12.58488 l 4.39312,4.98858 -7.32829,6.68839 c -4.03055,3.67861 -7.62729,6.68838 -7.99275,6.68838 -0.36546,0 -5.50797,-5.2875 -11.4278,-11.75 -5.91982,-6.4625 -11.07068,-11.75 -11.44633,-11.75 -0.37566,0 -3.56337,5.0625 -7.08379,11.25 -3.52043,6.1875 -7.25669,12.7125 -8.30281,14.5 l -1.90202,3.25 h 48.01473 48.01474 l -3.33268,-12.75 c -7.98466,-30.54736 -18.5037,-54.306588 -34.02055,-76.841781 l -6.26025,-9.09178 11.64078,-1.654948 c 14.70249,-2.090226 27.13978,-5.27517 43.64078,-11.17554 7.15,-2.556672 13.9414,-4.87579 15.09199,-5.153595 1.62572,-0.392521 4.30522,1.687288 12.02187,9.331272 20.36749,20.175705 35.22806,44.47205 45.87071,74.996492 2.67019,7.65842 3.16304,10.099 2.2231,11.00867 -0.66422,0.64284 -8.40767,5.24742 -17.20767,10.23241 -8.8,4.98499 -16.675,9.49507 -17.5,10.0224 -1.00444,0.64203 2.64284,0.97821 11.0399,1.01759 13.53898,0.0635 20.86336,1.45212 28.7269,5.44632 C 347.05302,167.64404 357,183.52985 357,199.08909 V 205 h 12.03212 c 12.33111,0 17.10147,-1.04256 19.83119,-4.33409 0.74982,-0.90414 1.81922,-1.36212 2.37645,-1.01773 1.25641,0.7765 0.92591,0.23795 -6.98976,-11.3902 -8.75343,-12.85881 -8.43312,-17.16603 1.6135,-21.69643 l 4.21714,-1.90166 -12.81714,-6.78154 -12.81714,-6.78153 -11.86757,-12.61831 c -15.28025,-16.24688 -15.19408,-16.42213 6.18309,-12.57493 l 15.26188,2.74664 -0.56728,-1.78734 c -0.63798,-2.01008 1.06491,-5.74459 3.45686,-7.58108 0.90056,-0.69142 4.72171,-1.23195 8.83666,-1.25 L 393,118 V 73 28 H 220 47 v 83.54966 c 0,93.71941 -0.459144,87.97678 7.316317,91.50696 3.48923,1.58416 6.608327,1.9031 18.79079,1.92142 L 87.714214,205 Z M 76.534646,78.648992 74.774648,77.36205 l 2.133,-4.181025 c 2.24597,-4.402464 2.715572,-4.705199 5.028476,-3.241664 1.228599,0.77742 1.167379,1.504704 -0.423659,5.032997 -2.246045,4.980837 -2.717748,5.329239 -4.977819,3.676634 z m 15.561906,-3.69099 c -1.817535,-3.233867 -2.029804,-4.333502 -1.061696,-5.5 1.761709,-2.122731 2.219758,-1.872243 4.782917,2.615576 1.835915,3.214492 2.07033,4.356323 1.127555,5.492298 -1.772922,2.136241 -2.359855,1.820564 -4.848776,-2.607874 z M 66,62 c 0,-1.1 0.5625,-2.004953 1.25,-2.011006 0.6875,-0.0061 2.9375,-0.289932 5,-0.630842 L 76,58.738315 V 61.369158 64 h -5 c -4.333333,0 -5,-0.266667 -5,-2 z M 95.401188,61.603095 C 94.396888,58.985933 95.9641,58 101.12857,58 h 5.01053 l -0.31955,2.25 c -0.27281,1.920897 -1.01582,2.294642 -5.07975,2.555208 -3.523528,0.225916 -4.910467,-0.08638 -5.338612,-1.202113 z M 75.824212,49.79878 73.148425,45.611954 74.824212,44.33579 c 1.426926,-1.086649 2.010202,-0.872205 3.927671,1.444022 3.015152,3.642188 3.77106,6.27414 2.105129,7.329721 -2.028981,1.28562 -2.143358,1.210379 -5.0328,-3.310753 z m 13.471817,2.554282 c -1.44073,-0.585212 2.463171,-9.362379 4.153237,-9.337749 3.190452,0.0465 3.558701,1.667179 1.316821,5.795398 -2.205116,4.060519 -2.971901,4.557082 -5.470058,3.542351 z M 431.44316,188.75 c -0.38039,-1.2375 -0.74821,-2.28603 -0.81739,-2.33006 -0.0692,-0.044 -4.11565,-2.21217 -8.99217,-4.81807 l -8.8664,-4.73802 4.80713,5.56808 c 2.64391,3.06244 4.83379,5.57485 4.8664,5.58313 0.0326,0.008 1.85927,0.66353 4.05927,1.4561 5.38148,1.93875 5.7445,1.88579 4.94316,-0.72116 z M 294.36281,147.6645 c 24.73962,-13.81401 28.61596,-16.16611 28.62657,-17.37007 0.0202,-2.29719 -8.74345,-23.84116 -13.78371,-33.884829 -7.93147,-15.804922 -18.29173,-30.440634 -30.22909,-42.70397 -8.77687,-9.016542 -11.06444,-10.866959 -12.60018,-10.19229 -7.6608,3.365488 -34.87251,11.733955 -43.8764,13.493392 -6.05,1.18222 -12.24574,2.451841 -13.76831,2.82138 L 205.96337,60.5 l 4.64254,6.903781 c 13.46696,20.026306 28.25549,55.938719 33.50877,81.372559 L 245.40015,155 h 17.91273 17.91273 z M 239.76045,99.191962 c -0.39424,-1.507594 1.4558,-2.52377 11.13337,-6.11522 6.3834,-2.368949 16.54582,-6.514282 22.58316,-9.21185 10.84452,-4.845484 13.97866,-5.381279 13.34693,-2.281713 -0.35146,1.724415 -19.09456,10.409109 -34.62352,16.042957 -10.71923,3.888894 -11.79697,4.024554 -12.43994,1.565826 z m -7.18897,-13.866295 c -0.35038,-0.913056 -0.28479,-1.963689 0.14574,-2.334739 0.43053,-0.37105 6.85778,-2.752405 14.28278,-5.2919 7.425,-2.539494 17.1,-6.194804 21.5,-8.12291 l 8,-3.505647 1.21797,1.612087 c 0.66988,0.886647 1.01798,1.93566 0.77356,2.331139 -0.98125,1.587703 -34.06434,14.260473 -42.63727,16.332586 -1.94617,0.470398 -2.81419,0.200534 -3.28278,-1.020616 z m -6.39103,-12.406579 c 0.25877,-1.685135 2.88717,-3.017509 13.81955,-7.005345 13.42791,-4.898138 16,-5.30289 16,-2.517814 0,1.422674 -7.78058,4.831248 -21.71845,9.514579 -7.73189,2.598027 -8.49887,2.598839 -8.1011,0.0086 z m 195.84673,76.181852 c -0.60735,-2.25552 -1.42442,-4.10434 -1.81572,-4.10849 -0.70833,-0.008 -10.998,-1.53215 -16.71146,-2.47615 -1.82531,-0.30159 1.29971,1.82451 7.9809,5.42978 6.0395,3.25899 11.13158,5.77478 11.31573,5.59062 0.18415,-0.18415 -0.1621,-2.18024 -0.76945,-4.43576 z m -51.1353,-10.18523 3.11199,-5.58428 -11.25193,-1.98837 c -6.18857,-1.09361 -11.45295,-1.82967 -11.69863,-1.63569 -0.24568,0.19397 3.11281,3.93318 7.46331,8.30935 4.3505,4.37616 8.21449,7.62515 8.58664,7.21997 0.37215,-0.40518 2.07703,-3.24962 3.78862,-6.32098 z M 98.657449,16.228696 C 99.164083,14.210107 98.720797,13.15659 96.595657,11.328622 93.35842,8.5440678 91.814567,8.4124798 89.806987,10.75 c -2.813996,3.276468 -2.90722,5.240676 -0.369189,7.778707 2.125027,2.125027 2.790229,2.287763 5.495952,1.344543 2.010975,-0.701029 3.302081,-1.964694 3.723699,-3.644554 z m -32.097574,1.320267 c 1.889519,-2.883771 1.294038,-5.534592 -1.657341,-7.377759 -2.910004,-1.817327 -7.530408,0.101814 -8.158764,3.388842 -1.120854,5.863374 6.546422,8.979084 9.816105,3.988917 z M 81.8,18.8 C 84.600976,15.999024 81.93529,9 78.067519,9 75.475761,9 72,11.934378 72,14.122445 72,17.921171 73.886998,20 77.335184,20 79.130833,20 81.14,19.46 81.8,18.8 Z"
         id="path4" />
      <path
         style="fill:#62deab"
         d="m 483.5,448.48275 c -24.82078,-4.01421 -47.96357,-13.74218 -60.96829,-25.62776 -16.2452,-14.8472 -11.39418,-28.54112 11.78546,-33.26913 l 6.18283,-1.26113 0.25596,-79.54873 0.25596,-79.54872 -10.25596,-0.41976 C 415.43687,228.18053 409.60618,224.56976 398.77059,209 382.81288,186.07022 378,178.38852 378,175.84866 c 0,-3.71658 3.59998,-7.42944 8.85865,-9.13642 l 4.35865,-1.41482 -3.35865,-2.00834 c -1.84726,-1.10458 -7.69844,-4.32642 -13.00263,-7.15964 -8.46957,-4.52399 -11.05732,-6.61723 -21.25,-17.18924 C 347.22271,132.31933 342,126.24924 342,125.45112 c 0,-1.93953 1.30901,-1.86162 17.55161,1.04463 7.67162,1.37266 14.06089,2.49766 14.19839,2.5 0.1375,0.002 0.25,-1.50101 0.25,-3.34076 0,-6.1768 2.03475,-6.96784 20.26466,-7.87819 13.8012,-0.6892 17.98284,-1.31255 28.78887,-4.29156 14.39089,-3.96727 19.62253,-4.2701 27.72802,-1.605 3.14515,1.03414 8.53256,2.11661 11.97202,2.4055 8.63358,0.72516 15.23984,4.62227 22.56569,13.31178 3.2006,3.79636 6.16305,7.02746 6.58323,7.18022 0.42019,0.15276 1.18887,-3.07351 1.70819,-7.16949 l 0.94422,-7.44724 -5.76537,-4.66688 c -12.36456,-10.00872 -15.72412,-13.5375 -16.84251,-17.690866 -2.31059,-8.580891 2.91344,-18.808054 8.84651,-17.318948 1.30906,0.328551 10.25948,6.926895 19.88984,14.662986 23.45573,18.842048 22.89478,17.533508 19.202,44.792718 l -2.11463,15.6097 2.6969,8.47514 c 3.8642,12.14342 5.18562,24.81552 3.72503,35.72212 -0.6447,4.81416 -0.83929,8.87607 -0.43243,9.02645 0.40687,0.15039 6.36476,3.30895 13.23976,7.01902 l 12.5,6.74557 -0.0361,5.10857 c -0.0424,6.00107 -3.65578,12.36703 -8.41719,14.82925 l -2.96181,1.53162 -10.07807,-5.50373 C 522.46389,235.47668 517.71979,233 517.46438,233 c -0.99263,0 -0.19943,17.36527 4.37073,95.68793 l 4.73736,81.18793 2.96376,2.27948 c 14.07437,10.82482 16.5168,23.47318 5.93312,30.72522 -9.08118,6.22253 -32.51446,8.74859 -51.96935,5.60219 z m 24.63886,-18.82972 C 519.51709,425.83349 523,423.48617 523,419.63733 523,416.8848 519.48603,355.23315 514.44259,269.5 c -0.84123,-14.3 -1.4317,-28.90138 -1.31216,-32.44752 l 0.21735,-6.44752 -29.92389,-16.07934 c -16.45814,-8.84364 -33.87817,-18.23747 -38.71119,-20.87518 l -8.7873,-4.79584 0.63479,2.52918 c 0.53495,2.13143 0.22525,2.63197 -1.96928,3.18276 -3.46614,0.86994 -9.3904,-0.30152 -13.09091,-2.5886 -1.65,-1.01977 -6.57352,-5.92153 -10.94117,-10.89281 -10.21838,-11.63062 -13.96988,-13.52606 -21.65961,-10.94353 -4.21283,1.41485 -6.89922,3.66383 -6.89922,5.77586 0,1.43334 23.85044,36.95797 27.749,41.33144 0.85744,0.9619 4.26157,3.0994 7.56472,4.75 L 423.31944,225 H 434.15972 445 v 96.32444 96.32443 l 9.25,5.02584 c 5.0875,2.7642 10.6,5.54978 12.25,6.19017 12.18478,4.7291 28.95345,5.0465 41.63886,0.78815 z m 12.45076,-233.28416 c 0.82091,-9.84346 -0.75306,-21.65059 -4.29001,-32.18141 l -2.56552,-7.6385 2.35483,-18.84177 2.35482,-18.84177 -1.97187,-3.65368 c -2.93371,-5.43588 -35.21569,-31.631011 -37.77206,-30.650042 -0.82314,0.315871 -2.01112,2.617554 -2.63995,5.11485 -1.82119,7.232612 -0.38047,9.842277 10.27266,18.607532 5.1141,4.20781 10.03361,8.46301 10.93225,9.45599 l 1.63388,1.80542 -1.56268,9.87724 c -1.21296,7.66684 -1.31352,10.70885 -0.44932,13.59328 1.47988,4.93938 1.40618,5.98399 -0.42219,5.98399 -0.84681,0 -2.37343,-1.90623 -3.40364,-4.25 -3.09015,-7.03017 -15.73666,-20.83255 -21.99013,-24 C 466.20047,118.28319 459,117.0134 459,118.62136 c 0,0.34174 4.05,7.08581 9,14.98681 4.95,7.90101 9,15.0464 9,15.87865 0,4.35431 -3.91572,-0.14049 -13.2738,-15.23682 -7.44492,-12.01005 -11.20727,-17.15181 -13.29536,-18.16992 -4.76317,-2.32241 -11.69759,-2.48207 -19.62365,-0.45181 L 423.5,117.5 l 9.9109,0.5 9.9109,0.5 7.36358,16.5 c 4.04997,9.075 7.24006,17.13771 7.0891,17.91713 -0.80126,4.13688 -3.17487,0.67006 -9.85333,-14.3915 l -7.3402,-16.55393 -30.43193,0.26415 -30.43194,0.26415 -1.09666,1.73928 c -0.83504,1.32435 -0.7058,2.39788 0.54176,4.5 3.0828,5.19449 8.18476,7.04727 26.90485,9.77047 9.5532,1.3897 17.69431,2.85602 18.09137,3.25849 0.39706,0.40247 1.53635,4.10206 2.53176,8.22131 l 1.80984,7.48955 44.99467,24.21578 c 24.74707,13.31868 45.31489,23.89556 45.70628,23.50417 0.39138,-0.39138 1.01628,-4.36496 1.38867,-8.83018 z M 432,189.04215 c 0,-1.95468 -0.91397,-2.58867 -14.41419,-9.99848 l -5.91419,-3.2461 3.07137,3.85122 c 6.10238,7.65182 10.86655,11.11974 15.50701,11.28782 1.09236,0.0396 1.75,-0.67236 1.75,-1.89446 z M 422.53347,150.25 c -0.379,-2.0625 -1.12279,-4.1962 -1.65284,-4.74156 -0.88921,-0.91486 -14.77108,-3.3872 -19.38063,-3.45166 -1.82205,-0.0255 18.86481,11.76446 20.86129,11.88934 0.47371,0.0296 0.55119,-1.63362 0.17218,-3.69612 z m -52.07833,-9.86976 c 2.00127,-3.64087 3.46491,-6.79352 3.25253,-7.0059 C 373.3207,132.98736 352.3844,129 350.73949,129 c -0.4811,0 2.86027,4.05 7.42527,9 4.565,4.95 8.37913,9 8.47585,9 0.0967,0 1.81326,-2.97889 3.81453,-6.61976 z M 146.35505,443.96051 c -10.54196,-2.08643 -21.85819,-11.01701 -26.57591,-20.97327 -1.43831,-3.03541 -6.06645,-19.84977 -10.35786,-37.63082 l -7.75777,-32.14357 4.47703,-5.35643 c 2.46237,-2.94603 6.80161,-8.54599 9.64276,-12.44435 3.23352,-4.43675 7.5089,-8.73823 11.43019,-11.5 C 134.09317,319.06671 142,311.80003 142,310.32271 c 0,-0.51725 -0.63872,-1.81396 -1.41939,-2.88158 -1.22947,-1.6814 -2.66786,-1.94113 -10.75,-1.94113 H 120.5 l -13.75,6.69552 c -7.5625,3.68253 -13.750077,6.60753 -13.750171,6.5 -9.5e-5,-0.10754 -0.676354,-3.72919 -1.5028,-8.04812 -2.643602,-13.81523 1.515215,-27.90854 10.678481,-36.18699 2.46712,-2.2289 3.41307,-3.6731 2.60089,-3.97084 C 97.35836,267.77015 91.263032,266 89.317039,266 c -1.321514,0 -8.318437,3.9813 -15.817039,9 -13.633373,9.12462 -16.528806,10.39964 -16.463983,7.25 0.02335,-1.13444 5.317702,-5.21025 15.051646,-11.58735 l 15.015629,-9.83735 5.198354,1.21964 c 2.859095,0.67081 8.117834,2.30522 11.686094,3.63202 l 6.48773,2.41238 3.51227,-1.5314 c 1.93174,-0.84227 20.61226,-5.63207 41.51226,-10.64399 20.9,-5.01192 38.31547,-9.40539 38.70104,-9.76327 0.38557,-0.35787 -13.56443,-0.51386 -31,-0.34663 -40.13531,0.38495 -45.53143,-0.52816 -57.78222,-9.77759 C 96.075525,228.9722 88,213.34829 88,202.32585 c 0,-21.0952 14.05213,-39.95445 33.71543,-45.24922 2.86984,-0.77277 22.23888,-1.12885 61.73325,-1.13491 C 222.96533,155.93567 241,155.60392 241,154.88306 241,153.45977 237.34334,139.10381 234.7893,130.5 227.88531,107.24247 214.37606,79.252854 201.91046,62.378788 199.75971,59.467424 198,56.903327 198,56.680795 c 0,-0.222533 3.0375,-0.711053 6.75,-1.0856 16.788,-1.693708 41.75607,-8.515447 62.3832,-17.044244 1.17392,-0.485389 4.23467,1.80035 10.88415,8.128199 C 293.54627,61.456925 305.46784,78.21881 315.58519,99.5 320.46288,109.7599 328,129.71352 328,132.3667 c 0,0.64523 -8.55,6.04634 -19,12.00247 -10.45,5.95613 -19,10.98087 -19,11.16609 0,0.18523 6.49973,0.34142 14.44385,0.34709 7.94411,0.006 16.37026,0.52905 18.72477,1.16305 16.27767,4.38312 29.4824,18.32853 32.89027,34.73512 1.59917,7.69893 0.62198,17.67646 -2.49404,25.46528 l -2.56551,6.41277 9.28723,9.42071 c 7.46173,7.56898 10.22695,11.24677 14.06808,18.71075 8.15701,15.85047 11.71353,35.10019 9.71772,52.59731 l -1.01374,8.88733 5.90507,7.34042 c 14.73131,18.31208 20.43865,42.2379 15.43076,64.6875 -6.18219,27.71377 -28.04243,49.75652 -56.36351,56.83409 -7.05472,1.76301 -10.47822,2.03685 -20.5,1.63978 -19.57323,-0.77552 -33.97488,-6.75557 -47.97522,-19.92093 l -7.06587,-6.64448 -56.99157,13.89448 c -31.34536,7.64196 -58.79308,13.84517 -60.99493,13.7849 -2.20185,-0.0603 -5.86859,-0.47872 -8.14831,-0.92992 z m 206.33493,-7.22542 c 11.52089,-3.9992 20.10234,-9.34936 28.31004,-17.65008 8.67253,-8.7708 13.95106,-17.2863 17.71909,-28.58501 2.37582,-7.12407 2.67039,-9.53288 2.69043,-22 l 0.0225,-14 -2.77378,-8 c -2.87825,-8.30131 -8.53437,-18.54591 -13.454,-24.36846 l -2.8461,-3.36847 -3.0209,8.36847 -3.0209,8.36846 5.84182,3.3412 c 3.21301,1.83765 5.83754,3.63765 5.83231,4 -0.014,0.96913 -31.02262,18.46 -31.63719,17.84542 -0.4437,-0.44369 7.36371,-30.61728 8.14816,-31.49051 0.15014,-0.16713 1.78624,0.61868 3.63577,1.74626 1.84953,1.12759 3.68574,2.05184 4.08047,2.05389 0.39474,0.002 1.93553,-3.90229 3.424,-8.67632 l 2.7063,-8.68006 -3.73346,-3.22732 c -3.52958,-3.05108 -17.47553,-10.99201 -18.01121,-10.25572 -0.13731,0.18874 -3.73638,10.24316 -7.99794,22.34316 -17.48572,49.6479 -16.845,48.14263 -19.17201,45.04099 -0.58664,-0.78193 -5.52218,-16.52353 -10.96787,-34.98134 C 312.70193,315.0244 308.07094,301 307.38378,301 c -2.07129,0 -18.76245,8.87795 -22.07468,11.74142 l -3.1909,2.75858 7.47294,30 c 8.36957,33.59952 8.79342,38.41426 4.39533,49.92985 -2.20418,5.77125 -10.60948,15.77122 -15.39096,18.31097 -2.77702,1.47506 -1.59368,3.39186 5.92021,9.58966 8.07422,6.65999 18.46328,12.0171 28.48428,14.68791 10.77237,2.87105 29.46311,2.26672 39.68998,-1.2833 z M 205.5,384.43944 c 26.4,-6.41778 48.16359,-11.8182 48.36354,-12.00094 0.19994,-0.18273 -0.59046,-3.47306 -1.75645,-7.31184 -3.96482,-13.0533 -16.0409,-22.79915 -29.57566,-23.86865 -4.84505,-0.38286 -9.86707,0.43897 -25.53143,4.1781 -24.47213,5.84157 -27.01582,6.81171 -33.57261,12.80425 -9.23749,8.44254 -13.06715,20.54397 -10.46624,33.07248 0.96071,4.62771 1.52913,5.67467 2.86849,5.28334 0.9187,-0.26842 23.27036,-5.73895 49.67036,-12.15674 z M 341.89961,330.96069 C 347.45482,315.26407 352,301.89772 352,301.25769 c 0,-1.82957 -6.62333,-3.32129 -17.5,-3.94139 -10.61797,-0.60534 -21.49874,0.91511 -21.50163,3.0046 -0.004,2.63466 17.54259,60.53437 18.14729,59.88305 0.35945,-0.38717 5.19873,-13.54664 10.75395,-29.24326 z m 33.45243,14.60955 4.85204,-2.77414 -2.85204,-1.73706 -2.85204,-1.73705 -1.07054,1.589 c -3.31977,4.92754 -5.64762,9.445 -4.38584,8.51121 0.80101,-0.5928 3.6398,-2.32618 6.30842,-3.85196 z m -7.84131,-3.17877 c 2.34594,-4.00303 2.5123,-4.79701 1.26622,-6.04309 -1.24608,-1.24608 -1.59681,-0.87051 -2.66951,2.85853 -0.67923,2.3612 -1.46159,5.08059 -1.73859,6.04309 -0.86974,3.02219 0.34123,1.92042 3.14188,-2.85853 z M 192.38398,328.77768 c 5.39004,-1.60067 13.09429,-9.23577 14.52735,-14.39696 6.20952,-22.36377 -18.61088,-39.45726 -35.85763,-24.69469 C 165.30588,294.60595 163,299.56317 163,307 c 0,15.7461 14.21592,26.2821 29.38398,21.77768 z M 296.5,301.23057 c 10.04089,-5.0221 19.04031,-7.36195 30.59722,-7.95527 16.69287,-0.85699 30.67941,2.96297 45.18396,12.34051 3.72965,2.4113 6.93027,4.38419 7.11248,4.38419 0.18222,0 0.63739,-3.77233 1.01149,-8.38295 1.68984,-20.82633 -4.66752,-43.26625 -16.8021,-59.30729 C 359.67047,237.11117 350.24646,228 348.80195,228 c -0.23127,0 -2.80109,2.29459 -5.71072,5.0991 -5.7246,5.51778 -15.19663,10.512 -22.19956,11.70493 l -4.39167,0.74811 -0.28224,11.78241 -0.28224,11.78241 -12.08548,-11.51575 -12.08549,-11.51575 -17.75633,-0.29273 -17.75633,-0.29273 4.7253,5.16783 c 2.59892,2.84231 5.67091,7.17952 6.82666,9.63825 1.15574,2.45874 4.62988,14.84683 7.72031,27.5291 l 5.61897,23.05866 4.67844,-3.33114 c 2.57314,-1.83212 7.37843,-4.68158 10.67843,-6.33213 z m -11,-148.37299 c 10.27532,-5.37422 37.40466,-20.89429 37.88656,-21.67403 C 324.08106,130.05982 316.64361,110.84788 310.92745,99 301.86369,80.213563 285.16084,57.303698 273.19817,47.25 270.41683,44.9125 267.85305,43 267.50087,43 c -0.35217,0 -6.26809,2.039992 -13.14648,4.533317 -13.42468,4.866266 -32.4057,9.842835 -41.96154,11.001748 -3.24107,0.39307 -6.18006,0.878957 -6.53109,1.079749 -0.35103,0.200791 1.79959,4.070517 4.77917,8.59939 13.46975,20.473691 24.48984,46.714346 31.90765,75.977446 1.42594,5.62528 2.8124,10.58341 3.08103,11.01807 0.26863,0.43465 7.99937,0.78931 17.17941,0.78814 L 279.5,155.99571 Z M 240.66667,100.33333 C 239.60015,99.266815 239.8971,97 241.10334,97 c 1.51374,0 26.60843,-9.990912 36.30785,-14.455194 6.14509,-2.828354 8.09503,-3.351411 8.73469,-2.343015 1.33056,2.097568 1.04869,2.500293 -2.89588,4.137527 -2.0625,0.856063 -8.025,3.432866 -13.25,5.726228 C 262.21743,93.481481 242.70134,101 241.61705,101 c -0.15604,0 -0.58372,-0.3 -0.95038,-0.66667 z M 232.6963,84.650955 c -0.45606,-1.188478 1.81463,-2.309301 10.42983,-5.1482 6.05705,-1.995933 15.36905,-5.451734 20.69334,-7.67956 10.50489,-4.395527 13.24302,-4.999543 13.91394,-3.069337 0.52146,1.500207 -8.19846,5.553314 -25.17545,11.701802 -14.93385,5.408537 -19.06153,6.280408 -19.86166,4.195295 z M 226.33575,73.43258 c -0.32055,-0.83536 -0.41473,-1.683164 -0.20929,-1.884009 0.20545,-0.200846 5.99854,-2.40221 12.87354,-4.891921 6.875,-2.489711 13.22943,-4.806837 14.12096,-5.149169 0.98283,-0.377393 1.85504,-0.0124 2.21559,0.927163 0.77085,2.008799 -1.95381,3.391543 -16.70676,8.478578 -9.87266,3.404237 -11.8027,3.799751 -12.29404,2.519358 z M 26.363332,431.57982 C 17.389828,422.31518 8.1374464,400.7906 2.8586311,376.89887 -0.15460472,363.26108 -0.47147722,342.2772 2.2603504,337.27964 c 2.2123954,-4.04731 4.8720108,-5.53615 7.8931766,-4.41855 l 2.302476,0.85174 -3.1082494,1.60734 c -2.7333342,1.41346 -3.1913862,2.27274 -3.7974954,7.12387 -0.9367919,7.49783 1.0703644,23.43859 4.099234,32.55596 2.6808518,8.06978 9.0660848,20.71661 12.8095228,25.37101 l 2.309094,2.87101 7.63217,-3.99927 c 4.197694,-2.19959 7.831913,-3.67607 8.076042,-3.28106 1.179097,1.90781 2.677254,20.31319 2.134777,26.22645 -0.691531,7.53802 -1.692214,10.75012 -4.098777,13.15668 -3.105095,3.1051 -6.519721,2.04689 -12.148989,-3.765 z M 52,274.01307 c -1.248552,-0.796 -0.913288,-1.53782 2,-4.42527 4.504948,-4.465 20.942251,-14.74557 22.956149,-14.35773 3.408433,0.65641 1.115179,3.29284 -7.257525,8.34361 -4.840757,2.92014 -10.368915,6.68567 -12.284796,8.36784 -3.987563,3.50112 -3.477577,3.30598 -5.413828,2.07155 z m 79.79719,-165.15595 c -6.91514,-24.946417 -12.46037,-45.482685 -12.32272,-45.636153 0.33077,-0.368796 86.81423,31.833218 87.74671,32.672389 0.39666,0.356957 -6.12834,3.753862 -14.5,7.548674 -8.37165,3.79482 -15.3941,7.0332 -15.60544,7.19641 -0.21134,0.16321 4.85977,5.88622 11.26915,12.71779 l 11.65341,12.42104 -7.14088,6.61136 C 188.96993,146.02489 185.4117,149 184.99023,149 c -0.42147,0 -5.65419,-5.39571 -11.62827,-11.99046 C 167.38788,130.41479 162.275,125.01636 162,125.01302 c -0.275,-0.003 -3.76034,5.75341 -7.7452,12.79277 -3.98486,7.03936 -7.83907,13.61099 -8.56491,14.60364 -1.14737,1.56912 -2.96159,-4.11828 -13.8927,-43.55231 z M 76.296029,78.353062 c -0.867813,-0.352498 -0.602771,-1.726493 0.949266,-4.921052 2.288037,-4.709471 2.504531,-4.876868 4.594233,-3.552349 1.085012,0.687715 0.938647,1.634828 -0.770324,4.984687 -2.104487,4.125137 -2.498102,4.41283 -4.773175,3.488714 z m 15.919133,-3.904563 c -2.257136,-3.483983 -2.223016,-5.460201 0.09385,-5.43612 1.569451,0.01631 5.930425,6.791179 5.166804,8.026743 -1.132312,1.83212 -2.987086,0.918732 -5.260659,-2.590623 z M 66,62 c 0,-1.733333 0.666667,-2 5,-2 4.333333,0 5,0.266667 5,2 0,1.733333 -0.666667,2 -5,2 -4.333333,0 -5,-0.266667 -5,-2 z m 30.212746,-1.5 c 0.238437,-1.660113 1.049672,-2 4.773554,-2 3.37387,0 4.5651,0.409101 4.80404,1.649842 0.25506,1.324437 -0.68645,1.718906 -4.77356,2 L 95.925493,62.5 Z M 76.401849,50.031049 C 74.39745,47.002197 73.97503,45.62497 74.798005,44.801995 c 1.375348,-1.375348 2.971928,-0.199502 5.441397,4.007472 1.497361,2.550895 1.540701,3.128142 0.311462,4.148319 -1.163404,0.96554 -1.932037,0.423342 -4.149015,-2.926737 z m 13.758623,2.08929 c -1.085012,-0.687715 -0.938647,-1.634828 0.770324,-4.984687 2.136266,-4.187428 3.4029,-5.022771 4.62289,-3.048786 0.681386,1.102506 -2.356928,8.925948 -3.45556,8.897821 -0.328969,-0.0084 -1.200914,-0.397379 -1.937654,-0.864348 z"
         id="path3" />
      <path
         style="fill:#09090e"
         d="m 486,448.49273 c -41.15487,-5.63684 -76.87819,-27.90463 -72.53398,-45.21336 1.58,-6.29522 11.58832,-12.40649 22.78398,-13.91233 l 4.75,-0.63889 v -79.74777 -79.74777 l -9.78333,-0.39295 c -11.12179,-0.44671 -18.21946,-3.13241 -23.90905,-9.04701 -3.59937,-3.74171 -25.71726,-35.63567 -28.06588,-40.47095 -1.30378,-2.68419 -1.34258,-3.66403 -0.24961,-6.30271 1.26941,-3.06463 7.1669,-7.01899 10.46803,-7.01899 3.40768,0 0.92514,-1.81032 -11.59132,-8.45268 l -13.10122,-6.95267 -11.13381,-11.8361 c -10.87297,-11.55881 -13.1439,-14.76293 -10.45713,-14.7543 0.72782,0.002 7.60009,1.12734 15.27171,2.5 16.4,2.93441 16.66348,2.95086 15.91238,0.99351 -0.92141,-2.40115 0.48831,-6.34662 2.68834,-7.52404 1.11402,-0.59621 9.32121,-1.49647 18.23819,-2.00058 13.19737,-0.74611 18.16555,-1.47834 26.7127,-3.93705 15.01524,-4.31935 20.12436,-4.71421 27.71845,-2.14219 3.42015,1.15835 7.96114,2.1061 10.09107,2.1061 5.27424,0 12.62137,2.3336 17.08407,5.42626 2.03448,1.40989 6.36905,5.80897 9.63237,9.77573 l 5.93332,7.21228 0.63899,-3.95713 c 0.35145,-2.17643 0.91882,-5.80956 1.26083,-8.07363 l 0.62184,-4.1165 -9.98451,-8.17164 c -5.49148,-4.4944 -10.73177,-9.61668 -11.64509,-11.38284 -2.14716,-4.152149 -2.01683,-10.686804 0.30804,-15.445242 1.55662,-3.186018 2.39562,-3.813768 5.43762,-4.068532 l 3.59701,-0.301244 16.40299,13.127124 c 9.02165,7.219914 17.42099,14.330474 18.66519,15.801244 4.3546,5.14753 4.64415,8.96439 2.15422,28.39703 l -2.27875,17.78445 2.17385,6.74632 c 4.38716,13.61504 5.63933,26.30564 3.92175,39.74632 l -0.76674,6 13.05131,7 c 14.43234,7.74071 15.07356,8.5303 12.98508,15.98961 C 547.61553,236.44485 541.75208,243 538.7071,243 c -1.07776,0 -6.2065,-2.29625 -11.39721,-5.10279 -5.1907,-2.80653 -9.7464,-4.79376 -10.12377,-4.41605 -0.90279,0.9036 -0.97563,-0.63665 4.44437,93.97228 l 4.69498,81.95344 5.90289,5.46503 c 6.92789,6.414 9.77164,11.43692 9.77164,17.25967 0,3.65869 -0.56597,4.75355 -4.31346,8.34427 -8.73251,8.36722 -27.67621,11.3055 -51.68654,8.01688 z m 18.42079,-17.47247 c 4.2574,-1.08886 10.06688,-3.22636 12.90997,-4.75 L 522.5,423.5 522.79223,419 c 0.16072,-2.475 -2.00852,-44.1 -4.82053,-92.5 -2.81201,-48.4 -4.88634,-89.8 -4.60962,-92 l 0.50314,-4 -27.12251,-14.5 c -14.91738,-7.975 -32.50619,-17.37617 -39.08624,-20.89149 -10.32747,-5.51733 -11.88667,-6.09681 -11.4003,-4.23691 1.22983,4.70287 -7.39728,5.19262 -14.43942,0.8197 -1.94087,-1.20522 -7.04402,-6.15623 -11.34033,-11.00225 -4.29631,-4.84603 -9.06374,-9.45853 -10.59429,-10.25 -3.78955,-1.95966 -8.54921,-1.7732 -13.63213,0.53402 -3.27934,1.48855 -4.25,2.47594 -4.25,4.32325 0,2.23966 22.24329,36.05734 27.32839,41.54884 1.19439,1.28984 4.19661,3.53984 6.67161,5 4.0085,2.36487 5.81067,2.70945 16.5,3.15484 l 12,0.5 0.5,96.36254 0.5,96.36253 10.09151,5.39238 c 17.25825,9.22193 32.61408,11.54996 48.82928,7.40281 z M 520.5569,199.3133 c 1.16181,-10.84884 -0.17618,-23.30905 -3.61732,-33.6866 l -3.07517,-9.27392 2.06779,-15.33094 c 2.52092,-18.69045 2.56769,-22.63163 0.3178,-26.77869 C 514.39616,110.82611 481.71446,84 479.40538,84 c -3.03682,0 -5.31381,9.392634 -3.39815,14.01745 0.71389,1.723489 5.75934,6.73053 11.94342,11.85249 l 10.70736,8.86837 -1.49502,10.72728 c -1.20783,8.66654 -1.259,11.37999 -0.26639,14.12501 2.17325,6.01 -0.94086,7.63256 -3.39159,1.76714 -2.2695,-5.43166 -14.37815,-20.02789 -19.39876,-23.38398 -4.60923,-3.08111 -9.0868,-4.36201 -13.3024,-3.80542 l -2.51202,0.33166 9.35408,14.96067 c 5.14475,8.22837 9.35409,15.54087 9.35409,16.25 0,3.97123 -3.7515,-0.5334 -13.06564,-15.68864 L 453.5,117.04406 l -4.24671,-1.65663 c -4.91672,-1.918 -14.87792,-1.50132 -22.25329,0.93086 l -4.5,1.48397 9.5,0.11418 c 5.225,0.0628 9.96914,0.44479 10.54254,0.84887 1.83545,1.29346 15.57624,33.48276 14.96874,35.0659 -1.01718,2.65071 -2.86208,-0.40354 -10.01581,-16.58121 L 440.75195,122 419.12597,121.89653 c -37.62086,-0.17999 -40.4864,-0.006 -41.4566,2.5227 -0.76247,1.98695 3.91904,8.31657 7.53354,10.1857 1.73005,0.89464 11.26797,2.81202 21.19537,4.26085 l 18.04982,2.63422 1.92838,8.08708 1.92838,8.08708 44.59757,24.07548 c 24.52866,13.24151 45.12425,24.11483 45.76798,24.16292 0.72122,0.0539 1.44522,-2.4788 1.88649,-6.59926 z M 431.81955,188.758 c -0.23833,-1.67216 -2.72553,-3.56582 -9.78575,-7.45047 -5.20641,-2.86465 -9.67928,-4.99538 -9.93971,-4.73495 -0.67932,0.67931 8.8451,10.30562 12.40591,12.53863 4.29766,2.69509 7.73041,2.52944 7.31955,-0.35321 z m -8.46278,-36.508 c -0.37474,-1.5125 -0.9751,-3.86344 -1.33413,-5.22431 l -0.65279,-2.47432 -10.68493,-1.56833 c -5.8767,-0.86259 -10.68102,-1.32415 -10.67625,-1.02569 0.009,0.56485 21.91012,12.74291 23.26038,12.93388 0.42298,0.0598 0.46245,-1.12873 0.0877,-2.64123 z m -52.24994,-12.46163 c 2.20075,-4.35966 2.72945,-6.27152 1.87956,-6.79678 -1.44393,-0.8924 -21.98175,-4.32956 -22.5392,-3.77211 -0.75718,0.75718 15.72949,17.78936 16.66184,17.21314 0.51465,-0.31807 2.31366,-3.30799 3.9978,-6.64425 z M 147.65049,443.97968 c -10.96862,-1.90523 -22.2,-10.21036 -27.22905,-20.13472 -1.41631,-2.79494 -5.91205,-18.91276 -10.45569,-37.48497 l -7.97103,-32.58173 1.75264,-2.23229 c 0.96395,-1.22775 4.95692,-6.46536 8.87327,-11.63913 7.89874,-10.43477 10.14321,-12.67908 18.87937,-18.87802 6.85883,-4.86683 10.48785,-8.7589 10.49503,-11.25577 0.009,-3.22146 -4.5781,-5.10172 -12.31737,-5.04861 -6.31532,0.0433 -8.39586,0.59719 -17.31728,4.60998 -5.57679,2.5084 -11.65179,5.48263 -13.499997,6.60941 -1.848211,1.12678 -3.890979,2.05038 -4.539485,2.05243 -1.84978,0.006 -3.597888,-10.67115 -3.104769,-18.96317 0.542436,-9.12133 4.099591,-17.11654 10.583551,-23.78805 2.37973,-2.44855 4.18582,-4.56932 4.01355,-4.71282 -0.45972,-0.38291 -12.916205,-4.25603 -15.682801,-4.87628 -1.812787,-0.40641 -5.557365,1.60231 -15.936237,8.54873 C 59.690929,283.91149 57,285.22962 57,282.62707 57,280.079 84.86601,262 88.793474,262 c 1.750436,0 7.428608,1.36011 12.618156,3.02248 l 9.43555,3.02247 3.82641,-1.50372 c 2.10453,-0.82704 17.10141,-4.68817 33.32641,-8.58028 16.225,-3.89212 40.075,-9.71578 53,-12.94148 12.925,-3.2257 25.58383,-6.16773 28.13073,-6.53785 10.08603,-1.4657 24.37471,4.00357 31.96096,12.23368 5.85619,6.35322 8.22951,12.33904 13.39531,33.7847 2.51718,10.45 5.0278,20.68043 5.57916,22.7343 l 1.00247,3.73429 5.85604,-3.99729 c 7.1937,-4.91038 16.6024,-9.24538 25.13318,-11.57995 9.84587,-2.69447 28.18836,-2.51025 38.24133,0.38407 8.62949,2.48449 17.95913,6.88159 24.44916,11.523 2.33659,1.67103 4.58659,2.70003 5,2.28668 0.41341,-0.41336 0.73352,-6.90161 0.71135,-14.41833 -0.0313,-10.61491 -0.5274,-15.6116 -2.22158,-22.37603 -5.95868,-23.79162 -18.96628,-40.51579 -39.25014,-50.46481 -6.70305,-3.28778 -9.86274,-5.3837 -9.91349,-6.57593 -0.10365,-2.43537 1.45597,-2.20709 8.86381,1.29737 18.22847,8.62344 32.77626,24.21704 39.95182,42.8239 5.04183,13.07389 6.43605,22.45546 5.88086,39.57175 l -0.48839,15.05698 4.40319,4.90762 c 21.86061,24.36501 24.32929,63.1323 5.79806,91.05078 -25.43199,38.31491 -80.32252,44.78416 -113.90242,13.42424 l -7.33724,-6.85217 -54.87208,13.37624 C 187.19244,437.76364 160.25,444.01674 157.5,444.30249 c -2.75,0.28575 -7.18228,0.14049 -9.84951,-0.32281 z M 345.5,438.80241 c 24.6952,-5.26994 44.88725,-23.37075 53.21765,-47.70604 2.02458,-5.91432 2.70247,-10.17853 3.06146,-19.25776 0.5482,-13.86487 -1.14054,-23.00242 -6.18022,-33.4403 -3.33998,-6.91756 -11.93702,-19.4065 -13.34682,-19.38895 -0.41364,0.005 -1.7899,3.26765 -3.05835,7.25 -1.26846,3.98235 -2.51386,7.71435 -2.76757,8.29334 -0.2537,0.57898 2.24662,2.57582 5.55628,4.43742 3.30967,1.8616 6.00482,3.63789 5.98924,3.9473 -0.035,0.69575 -31.19027,18.17731 -31.62335,17.74423 -0.34812,-0.34812 7.655,-29.93272 8.28074,-30.61087 0.21783,-0.23608 2.03526,0.35245 4.03873,1.30784 2.94149,1.4027 3.80616,1.48533 4.49197,0.42923 C 374.37224,329.94075 378,318.1224 378,316.03956 c 0,-3.14533 -20.76108,-15.95673 -21.75821,-13.42672 -0.1923,0.48794 -5.628,15.73391 -12.07932,33.87994 -8.23908,23.17455 -12.20681,33.08466 -13.33301,33.30155 -1.19885,0.23087 -2.11678,-1.40711 -3.63854,-6.49278 C 326.07156,359.5607 321.45668,344.0125 316.93562,328.75 310.16367,305.88879 308.40193,301 306.93553,301 c -2.63991,0 -16.8682,7.56457 -21.20701,11.27486 l -3.77147,3.22514 7.2265,29 c 8.71031,34.95453 9.17906,40.85407 4.10722,51.69233 -3.41962,7.30756 -8.66663,13.64077 -14.06584,16.97767 l -3.5818,2.21368 6.42778,5.91191 c 17.15102,15.77455 40.86954,22.32101 63.42909,17.50682 z M 204.17639,384.98727 c 27.05032,-6.60701 49.38444,-12.21477 49.63137,-12.4617 0.24693,-0.24693 -0.0805,-2.55167 -0.72764,-5.12166 -3.83099,-15.21425 -16.10042,-25.39598 -31.58012,-26.20663 -5.87336,-0.30758 -10.27752,0.45786 -27.36377,4.75579 -11.20008,2.8173 -22.13125,6.02406 -24.29149,7.12614 -9.45588,4.82403 -16.85851,16.2612 -17.67122,27.30229 -0.3829,5.20187 1.26255,16.6185 2.39518,16.6185 0.2339,0 22.55736,-5.40573 49.60769,-12.01273 z m 137.99812,-54.23454 c 5.87098,-16.63037 10.57716,-30.33439 10.45818,-30.45337 -0.11898,-0.11898 -2.87955,-0.91001 -6.13461,-1.75784 -10.43381,-2.71767 -35.40206,-1.39929 -34.20772,1.80624 0.23612,0.63373 4.39425,14.53974 9.24029,30.90224 4.84604,16.3625 9.07162,29.7477 9.39017,29.74489 0.31855,-0.003 5.38271,-13.61178 11.25369,-30.24216 z m 37.81362,12.02295 c 0.007,-0.39838 -1.28179,-1.3933 -2.86294,-2.21094 l -2.8748,-1.48662 -3.1252,5.02739 C 369.40634,346.87057 368,349.34563 368,349.60565 c 0,0.26001 2.69466,-1.00739 5.98813,-2.81645 3.29348,-1.80906 5.99348,-3.61514 6,-4.01352 z m -12.28445,-0.057 3.20367,-5.21867 -1.63067,-1.23967 c -0.89687,-0.68181 -1.80263,-1.06772 -2.01279,-0.85756 -0.83467,0.83468 -4.03755,12.59518 -3.42222,12.5659 0.36208,-0.0172 2.09998,-2.37973 3.86201,-5.25 z m -175.3829,-13.79079 c 4.88123,-1.35544 11.47089,-7.28408 13.81356,-12.42788 2.37316,-5.21077 2.36393,-13.8063 -0.0205,-19.05581 C 202.55481,289.60854 193.46733,284 184.33032,284 c -5.54351,0 -13.65489,4.31683 -17.21971,9.16423 -13.26389,18.03609 3.485,41.79638 25.21017,35.76365 z M 26.589463,431.72879 C 17.456764,422.0711 7.8460915,399.46278 2.8994568,376 -0.16008505,361.48804 -0.34983603,343.19967 2.5,337.5 4.1994356,334.10113 5.0259876,333.45978 8,333.23237 l 3.5,-0.26763 -1.8918102,1.48156 c -1.0404956,0.81487 -2.3904956,1.64983 -3,1.85549 -2.0578514,0.69433 -1.1380674,25.08033 1.2898784,34.19821 2.4133958,9.06324 9.6703338,24.26868 14.0791448,29.5 l 2.949706,3.5 7.526436,-3.92677 c 4.139539,-2.15973 7.711217,-3.73473 7.937062,-3.5 0.225844,0.23472 0.931353,5.38908 1.567798,11.45412 1.872715,17.84618 -0.839486,28.52143 -7.444681,29.30235 -2.280058,0.26956 -3.725296,-0.66077 -7.924071,-5.10091 z M 52,272.56695 c 0,-0.78818 1.983182,-3.05812 4.407071,-5.04431 5.506517,-4.51218 19.620948,-12.62336 20.750926,-11.92499 1.913673,1.18271 0.571029,3.04891 -3.887987,5.40407 -2.601495,1.37405 -8.028838,4.86078 -12.060763,7.74828 C 53.483534,274.28284 52,274.89772 52,272.56695 Z M 139,210 v -2 h 83.5 83.5 v 2 2 H 222.5 139 Z m 0.19032,-18.75 0.33697,-1.75 83.23635,-0.25574 L 306,188.98851 V 190.99426 193 H 222.42668 138.85335 Z M 244.48495,172.65998 C 237.9709,131.62869 224.52116,95.371403 205.31963,67.079647 L 198.13925,56.5 l 7.18038,-0.728548 c 15.31895,-1.554319 42.89382,-8.932153 57.54804,-15.397345 l 5.36766,-2.368124 6.06103,5.247008 c 19.21768,16.63668 36.49474,42.902224 48.28597,73.406999 6.274,16.23131 6.31013,15.86961 -2.08233,20.8464 -21.08001,12.50058 -49.49015,27.52675 -67.9543,35.94114 l -7.40032,3.37243 z m 26.06299,-12.06926 c 16.64488,-8.2694 51.33465,-27.24076 53.35921,-29.18141 C 324.66958,130.67848 316.78958,110.5354 311.42419,99.5 301.76405,79.631278 288.14551,60.724744 274.46344,48.187613 l -6.43138,-5.893191 -12.26603,4.472244 C 241.84698,51.841608 220.39312,57.5168 211.19232,58.557751 207.78655,58.943071 205,59.449899 205,59.684036 c 0,0.234136 1.73129,2.988512 3.84732,6.120833 15.00387,22.210004 26.40919,49.512751 34.12694,81.695131 2.11035,8.8 4.12486,17.6875 4.47668,19.75 0.35183,2.0625 0.97837,3.75 1.39231,3.75 0.41395,0 10.18106,-4.68417 21.70469,-10.40928 z M 240.55088,99.271988 c -0.73162,-1.906575 -1.81635,-1.303469 9.44912,-5.253722 5.225,-1.832154 14.9,-5.755923 21.5,-8.719486 14.1369,-6.347819 13.7829,-6.243445 14.23536,-4.197151 0.26202,1.184986 -2.3239,2.79293 -9.94061,6.181149 -12.18581,5.420742 -18.91836,8.127964 -27.97033,11.247144 -5.87195,2.023388 -6.74757,2.112718 -7.27354,0.742066 z M 233,84.582464 c 0,-0.905703 3.52046,-2.583264 9.75,-4.64605 5.3625,-1.775683 15.13487,-5.405417 21.71639,-8.066076 7.84468,-3.17131 12.30518,-4.498766 12.95,-3.85395 0.62061,0.620611 0.63301,1.316307 0.0336,1.885103 C 275.21547,72.021919 237.82615,86 234.38884,86 233.62498,86 233,85.362109 233,84.582464 Z M 226.56511,73.30909 c -0.3367,-0.87744 -0.48909,-1.666641 -0.33865,-1.753778 0.5934,-0.343691 26.33264,-9.662022 27.21415,-9.852289 0.51734,-0.111663 1.10281,0.532446 1.30106,1.431353 0.23269,1.055121 -0.63231,1.999879 -2.44061,2.665647 -23.30266,8.579381 -25.12157,9.110092 -25.73595,7.509067 z m -94.63345,35.4391 c -6.91259,-24.886507 -12.51997,-45.340812 -12.46084,-45.454017 0.20508,-0.392657 86.03323,31.841864 86.81095,32.603638 0.42998,0.421156 -5.98252,3.850511 -14.25,7.620789 C 183.7643,107.28888 177,110.56166 177,110.79145 c 0,0.22978 4.95,5.8036 11,12.38626 6.05,6.58265 11,12.32006 11,12.74979 0,0.73132 -13.40063,13.0725 -14.19474,13.0725 -0.20073,0 -5.25082,-5.4 -11.22244,-12 -5.97162,-6.6 -11.1993,-12 -11.61706,-12 -0.41777,0 -4.45236,6.525 -8.96576,14.5 -4.5134,7.975 -8.27229,14.49918 -8.35309,14.49819 -0.0808,-0.001 -5.80267,-20.3635 -12.71525,-45.25 z M 76.542445,78.068678 C 75.752078,76.789837 79.097989,70 80.518546,70 c 2.259476,0 2.366078,1.305832 0.418285,5.123822 -1.962287,3.846401 -3.288092,4.734876 -4.394386,2.944856 z M 92.116998,73.99438 c -1.994049,-3.547931 -2.067292,-4.076224 -0.641013,-4.623538 0.885649,-0.339856 1.737718,-0.449827 1.893487,-0.244381 0.155768,0.205447 1.266976,2.010739 2.469349,4.011762 1.926203,3.205639 1.996576,3.710963 0.591869,4.25 C 95.553844,77.7247 94.731093,78 94.602354,78 c -0.12874,0 -1.24715,-1.802529 -2.485356,-4.00562 z M 66.695579,62.649074 C 65.87399,60.508049 66.841426,60 71.739991,60 c 3.656607,0 4.350156,0.297865 4.074706,1.75 -0.439868,2.318927 -8.277737,3.091679 -9.119118,0.899074 z M 96,60.5 c 0,-0.884843 0.922735,-1.5056 2.25,-1.513655 1.2375,-0.0075 3.2625,-0.284994 4.5,-0.616631 C 104.56458,57.883426 105,58.17635 105,59.883369 105,61.725302 104.41599,62 100.5,62 97.166667,62 96,61.611111 96,60.5 Z M 76.25,49.501646 c -2.665527,-4.115096 -2.667467,-4.127471 -0.761679,-4.858791 1.608608,-0.61728 6.830376,6.032466 5.908436,7.524195 -1.050368,1.699532 -2.959986,0.710579 -5.146757,-2.665404 z m 13.910472,2.618693 C 88.22585,50.894114 92.361894,42.817905 94.503607,43.639758 95.326623,43.955579 96,44.40876 96,44.646827 c 0,0.585134 -3.980537,8.357181 -4.270324,8.33786 -0.126322,-0.0084 -0.832464,-0.397379 -1.569204,-0.864348 z"
         id="path2" />
    </g>
  </g>
</svg>
