<?xml version="1.0" encoding="UTF-8" standalone="no"?>
<!-- Created with Inkscape (http://www.inkscape.org/) -->

<svg
   version="1.1"
   id="svg1"
   width="614"
   height="450"
   viewBox="0 0 614 450"
   sodipodi:docname="HR_09.svg"
   inkscape:version="1.3.2 (091e20e, 2023-11-25, custom)"
   xmlns:inkscape="http://www.inkscape.org/namespaces/inkscape"
   xmlns:sodipodi="http://sodipodi.sourceforge.net/DTD/sodipodi-0.dtd"
   xmlns="http://www.w3.org/2000/svg"
   xmlns:svg="http://www.w3.org/2000/svg">
  <defs
     id="defs1" />
  <sodipodi:namedview
     id="namedview1"
     pagecolor="#ffffff"
     bordercolor="#000000"
     borderopacity="0.25"
     inkscape:showpageshadow="2"
     inkscape:pageopacity="0.0"
     inkscape:pagecheckerboard="0"
     inkscape:deskcolor="#d1d1d1"
     showgrid="false"
     inkscape:zoom="1.6302932"
     inkscape:cx="307"
     inkscape:cy="224.80619"
     inkscape:window-width="1920"
     inkscape:window-height="1001"
     inkscape:window-x="-9"
     inkscape:window-y="-9"
     inkscape:window-maximized="1"
     inkscape:current-layer="g1" />
  <g
     inkscape:groupmode="layer"
     inkscape:label="Image"
     id="g1">
    <g
       id="g2"
       transform="translate(0.05754852)">
      <path
         style="fill:#fefefe"
         d="M 0,225 V 0 H 307 614 V 225 450 H 307 0 Z"
         id="path5" />
      <path
         style="fill:#cdc9c6"
         d="m 508.65681,398.39344 c -16.96376,-28.34721 -30.56124,-51.82235 -30.21661,-52.16697 0.63131,-0.63131 119.69155,9.63485 120.4868,10.38917 0.23485,0.22276 -0.3257,0.96288 -1.24567,1.64469 -4.03764,2.99243 -31.56118,26.29119 -31.61816,26.76486 -0.0347,0.28886 8.05707,5.62814 17.98181,11.86507 9.92473,6.23693 17.91223,11.6385 17.75,12.00349 C 600.43703,411.94874 588.48739,430 587.82298,430 c -0.46999,0 -8.75562,-4.95 -18.4125,-11 -9.65689,-6.05 -17.69592,-11 -17.86452,-11 -0.1686,0 -2.66428,9.45 -5.54596,21 -2.88168,11.55 -5.52305,20.98511 -5.86971,20.96691 -0.34666,-0.0182 -14.50973,-23.22626 -31.47348,-51.57347 z M 70.929349,435.63263 c -9.947756,-2.6822 -18.422068,-9.85515 -23.033684,-19.49651 -3.294607,-6.88792 -3.751054,-18.88281 -0.99639,-26.18397 4.012814,-10.63585 11.437081,-17.85835 22.336518,-21.72949 L 74,366.53056 v -9.76528 C 74,351.39438 74.273138,347 74.606974,347 c 0.333835,0 5.103024,4.275 10.598197,9.5 l 9.991223,9.5 H 116.0982 137 v -55.01357 c 0,-42.22846 -0.2905,-55.49974 -1.25,-57.10555 -1.03215,-1.72739 -0.98858,-2.263 0.25,-3.07328 1.30594,-0.85435 1.46528,-7.37391 1.23159,-50.39445 L 136.96318,151 H 73.046688 C 35.636557,151 8.1062681,150.6107 6.6611278,150.06126 5.3031385,149.54495 3.2488436,148.1101 2.0960282,146.8727 0.11102379,144.74205 0,143.54996 0,124.3672 0,104.39755 0.03407459,104.07191 2.4130724,101.30576 L 4.8261449,98.5 71.163072,98.230458 137.5,97.960916 137.20985,77.980458 136.9197,58 236.70985,57.785993 C 291.59443,57.668289 338.75,57.685546 341.5,57.824342 l 5,0.252355 25.80329,25.711651 C 395.226,106.62965 398.06414,109.807 397.72648,112.25 c -0.20905,1.5125 -0.12053,2.74989 0.19671,2.74975 0.31725,-1.4e-4 0.44818,34.23235 0.29098,76.07221 l -0.28584,76.07248 7.80756,-5.94339 c 10.52845,-8.01463 21.86819,-15.35724 33.01837,-21.37976 5.92382,-3.19963 9.00815,-5.41646 8.5704,-6.15989 -0.37613,-0.63877 -1.70725,-2.80701 -2.95805,-4.81832 l -2.27418,-3.65692 10.20378,-0.56091 C 479.07635,223.15312 483,223.04324 483,223.76541 c 0,0.9514 -23.50999,22.10933 -25.353,22.81656 -0.77381,0.29694 -2.44871,-1.19504 -4.03862,-3.59756 l -2.7165,-4.10491 -9.69594,5.17684 c -11.31717,6.04245 -25.68948,15.48922 -35.94594,23.62691 l -7.25,5.75229 v 63.79267 63.79267 l -90.90441,-0.26044 -90.90442,-0.26044 -0.62405,4.70496 c -1.9207,14.48081 -11.16611,25.70131 -24.63007,29.89176 -5.70976,1.77708 -9.73956,1.8988 -60.77614,1.83579 -39.985546,-0.0494 -55.888039,-0.39837 -59.231561,-1.29988 z m 122.219821,-6.2818 c 9.34757,-4.32109 16.29766,-13.88861 17.50817,-24.10182 l 0.56287,-4.74901 -36.28573,0.27485 c -28.55514,0.2163 -36.45809,0.003 -37.09479,-1 -0.44499,-0.70117 -0.81596,-7.46235 -0.82438,-15.02485 L 137,371 H 115.41125 93.822493 L 86.661247,364.45795 79.5,357.91589 l -0.294476,6.48878 c -0.232225,5.11711 -0.655009,6.58314 -2,6.93514 -0.938038,0.24549 -3.774985,0.98389 -6.304327,1.6409 -7.095201,1.84299 -13.824235,7.52318 -17.636522,14.88753 C 50.525921,393.1588 50,395.25963 50,400.90923 c 0,3.70397 0.708796,8.81469 1.575102,11.35716 2.777549,8.15166 11.247932,15.95418 20.424898,18.81446 1.375,0.42856 28.15,0.69819 59.5,0.59918 56.01752,-0.17693 57.08014,-0.21707 61.64917,-2.3292 z M 463,235.88995 l 4.5,-4.02478 -4,1.67613 c -2.2,0.92187 -4.7875,1.90469 -5.75,2.18404 -1.76173,0.51133 -2.32017,2.37116 -1.08333,3.60799 1.07502,1.07503 1.60139,0.78885 6.33333,-3.44338 z M 458,230.5 c 2.43309,-1.39088 2.37287,-1.43008 -2.25,-1.46456 -4.41967,-0.033 -5.69597,0.68526 -4.08333,2.29789 1.05519,1.0552 3.62005,0.71772 6.33333,-0.83333 z M 137.21211,124.49907 137.5,102.99814 72.45,102.99907 C 23.189943,102.99977 7.1087174,103.29128 6.2,104.2 5.3497822,105.05022 5,111.01118 5,124.65031 c 0,17.27866 0.1792376,19.35471 1.75,20.26959 1.137859,0.66274 24.211069,1.02992 65.962114,1.04969 L 136.92423,146 Z m -120.182858,7.03618 c -0.976133,-1.17617 -0.803238,-2.04392 0.877556,-4.40437 C 19.058063,125.51409 20,123.97331 20,123.70692 c 0,-0.26639 -1.602939,-0.78505 -3.562087,-1.15259 -2.939972,-0.55154 -3.507581,-1.05126 -3.25,-2.86129 0.327902,-2.30418 2.313504,-2.69718 6.562087,-1.29882 2.085927,0.68655 2.25,0.44396 2.25,-3.32683 C 22,111.39551 22.243097,111 24.5,111 c 2.260854,0 2.5,0.39287 2.5,4.10699 0,3.34627 0.295046,3.99377 1.592901,3.49573 4.751652,-1.82338 6.136586,-1.74517 6.691782,0.37791 0.423218,1.61839 -0.03954,2.35587 -1.929049,3.07426 C 31.988426,122.5747 30.449096,123 29.9349,123 c -1.485134,0 -1.087901,2.17345 0.773062,4.2298 1.266776,1.39977 1.442055,2.30882 0.678557,3.51922 -1.684356,2.67026 -2.837845,2.44982 -4.830265,-0.92308 l -1.886276,-3.19321 -2.657815,3.18364 c -3.029615,3.62899 -3.315745,3.72769 -4.982911,1.71888 z m 29.936047,-0.0771 c -1.061185,-1.27865 -0.9114,-2.03982 0.877555,-4.45951 C 49.029284,125.39395 50,123.88784 50,123.65178 c 0,-0.23606 -1.602939,-0.72991 -3.562087,-1.09745 -2.939972,-0.55154 -3.507581,-1.05126 -3.25,-2.86129 0.327902,-2.30418 2.313504,-2.69718 6.562087,-1.29882 2.090087,0.68792 2.25,0.44653 2.25,-3.39638 0,-3.71818 0.227758,-4.1046 2.25,-3.81739 1.796066,0.25508 2.311586,1.05883 2.555259,3.9839 0.300791,3.61071 0.351923,3.65096 3.493398,2.75 C 64.771117,116.63166 65,116.70499 65,119.42054 c 0,1.87641 -0.674404,2.56867 -3,3.07946 -3.426536,0.75259 -3.652048,1.57522 -1.38171,5.04019 1.303409,1.98925 1.376872,2.76071 0.377555,3.96482 -1.744935,2.10251 -2.324583,1.90136 -4.336774,-1.50501 -0.974679,-1.65 -2.099679,-3 -2.5,-3 -0.400321,0 -1.525321,1.35 -2.5,3 -2.00508,3.39433 -2.865163,3.66153 -4.693772,1.45819 z m 32,0 c -1.061728,-1.27931 -0.905906,-2.04725 0.915208,-4.51044 l 2.194798,-2.96862 -2.602752,-0.98957 C 78.041039,122.4453 76.417798,122 75.865349,122 c -0.552448,0 -0.860653,-1.0125 -0.6849,-2.25 0.335763,-2.36415 2.284175,-2.76625 6.569551,-1.35578 2.085927,0.68655 2.25,0.44396 2.25,-3.32683 C 84,111.66667 84.327811,111 86,111 c 1.565452,0 2.02573,0.70614 2.118421,3.25 0.06513,1.7875 0.06201,3.59686 -0.0069,4.02079 -0.06894,0.42394 1.017193,0.48403 2.413637,0.13355 4.829693,-1.21218 5.964632,-0.96953 6.293939,1.34566 0.176019,1.2375 -0.131968,2.25 -0.684416,2.25 -0.552449,0 -2.17569,0.4453 -3.607204,0.98956 l -2.602752,0.98957 2.194798,2.96862 c 1.821114,2.46319 1.976936,3.23113 0.915208,4.51044 -1.7643,2.12585 -2.243727,1.97168 -4.534701,-1.45819 -1.1,-1.64684 -2.225,-2.99425 -2.5,-2.99425 -0.275,0 -1.4,1.34741 -2.5,2.99425 -2.290974,3.42987 -2.770401,3.58404 -4.534701,1.45819 z m 30.607081,0.23323 c -1.89355,-1.39917 -1.88914,-1.47327 0.25,-4.19274 2.8511,-3.62459 2.75563,-4.21282 -0.81091,-4.99616 -3.48154,-0.76467 -4.26217,-1.68564 -3.37918,-3.98667 0.62102,-1.61836 2.39016,-1.59567 6.77481,0.0869 1.29785,0.49804 1.5929,-0.14946 1.5929,-3.49573 0,-3.71412 0.23915,-4.10699 2.5,-4.10699 2.26085,0 2.5,0.39287 2.5,4.10699 0,3.34627 0.29505,3.99377 1.5929,3.49573 4.38465,-1.68254 6.15379,-1.70523 6.77481,-0.0869 0.88299,2.30103 0.10236,3.222 -3.37918,3.98667 -3.55263,0.78029 -3.65838,1.37619 -0.87266,4.91765 2.05432,2.61165 2.06159,2.73082 0.25,4.09691 -1.67572,1.26362 -2.12575,1.09567 -4.416,-1.64802 l -2.55013,-3.05503 -2.44987,3.15087 c -2.22402,2.86039 -2.62758,3.01956 -4.37749,1.72652 z M 469.13883,382.25 c -2.25134,-8.99802 -2.25143,-8.98729 0.0771,-9.59621 1.20821,-0.31596 2.29465,-0.47655 2.41432,-0.35688 0.65637,0.65637 3.00567,12.73385 2.56307,13.17645 -0.28966,0.28965 -1.3343,0.52664 -2.32143,0.52664 -1.24051,0 -2.08455,-1.1581 -2.73305,-3.75 z m -41.48382,-10.07871 c -1.53361,-1.69463 -1.46229,-1.97083 1.10266,-4.27037 6.75933,-6.05989 7.10997,-6.25565 8.75688,-4.88885 1.96111,1.62759 1.91349,1.71669 -3.61721,6.76763 -4.39753,4.01606 -4.67574,4.12265 -6.24233,2.39159 z m -4.64983,-41.06354 c -3.32028,-1.02493 -5.61772,-2.33433 -5.80537,-3.30873 -0.53044,-2.75437 1.78653,-3.11981 7.94946,-1.25382 4.27103,1.29316 5.78187,2.19186 5.39215,3.20746 -0.29778,0.776 -0.54142,1.82411 -0.54142,2.32913 0,1.1421 -0.25412,1.10672 -6.99482,-0.97404 z m 62.95254,-13.65869 c -1.0978,-1.32277 -0.56412,-2.19106 3.62756,-5.90188 4.59683,-4.06952 5.03223,-4.24633 6.73158,-2.73357 1.73008,1.54013 1.58679,1.82018 -3,5.86346 -5.48055,4.83114 -5.6098,4.87982 -7.35914,2.77199 z m -35.03469,-14.31981 c -0.63688,-3.06785 -1.37825,-6.15196 -1.64749,-6.85358 C 448.95698,295.4455 449.68299,295 451.35447,295 c 2.12653,0 2.7376,0.6452 3.55158,3.75 2.42505,9.24989 2.43418,8.95181 -0.29002,9.47257 -2.36999,0.45305 -2.61041,0.12146 -3.693,-5.09332 z M 56.658947,307.25 c -0.252498,-0.4125 -0.772794,-3.27257 -1.156213,-6.35571 -0.596818,-4.79913 -0.446715,-5.70181 1.043198,-6.27354 2.270528,-0.87129 2.552348,-0.50565 3.537542,4.58961 C 61.439925,306.2257 61.233125,308 59.059017,308 c -1.067541,0 -2.147572,-0.3375 -2.40007,-0.75 z M 15.2,291.8 c -1.792247,-1.79225 -1.622681,-2.06669 3.860548,-6.24825 4.626748,-3.5284 5.196922,-3.72285 6.651428,-2.26835 1.454506,1.45451 1.305913,1.83201 -1.733427,4.40374 C 16.977235,293.6113 17.000429,293.60043 15.2,291.8 Z M 49,277.65682 C 32.79345,271.9197 25.784685,262.48804 32.636364,255.63636 c 2.961869,-2.96187 6.81977,-3.40603 10.033362,-1.15514 2.017879,1.41338 2.146188,1.31358 2.801375,-2.17887 C 46.405528,247.32143 51.792319,242 55.9,242 c 7.108255,0 9.273411,6.69035 6.7961,21 -2.336713,13.49752 -3.471131,17.00395 -5.493104,16.97891 C 56.266348,279.96731 52.575,278.92237 49,277.65682 Z m 38.25,0.22119 c -5.304942,-2.0389 -5.716477,-2.49882 -4.671847,-5.22108 0.499132,-1.30071 1.368864,-1.20938 6.363398,0.66822 3.181885,1.19617 5.846717,2.51235 5.921848,2.92485 0.781815,4.2925 -0.157907,4.49345 -7.613399,1.62801 z M 509.75498,263.14622 C 500.54522,258.9408 493.01461,255.05 493.02029,254.5 c 0.0412,-3.98589 1.82161,-3.6029 18.83796,4.05222 9.42796,4.24134 17.14175,8.06538 17.14175,8.49787 0,1.45051 -1.20728,3.95099 -1.85699,3.84613 -0.35365,-0.0571 -8.17827,-3.54458 -17.38803,-7.75 z M 81.476082,257.92464 c -0.362282,-1.14145 -0.381892,-2.35216 -0.04358,-2.69048 0.969672,-0.96967 3.881809,2.44826 3.126804,3.66988 -1.056455,1.70938 -2.361404,1.29486 -3.083225,-0.9794 z m 433.232468,-4.90349 c -8.13529,-3.72389 -15.0037,-6.98297 -15.26312,-7.24239 -0.25943,-0.25942 0.19378,-2.06437 1.00713,-4.01099 1.42407,-3.40826 1.35976,-3.75642 -1.73687,-9.40354 C 495.7001,226.86491 495.5,225.87774 495.5,216.5 c 0,-12.06617 1.78163,-16.74545 9.47173,-24.8766 7.4173,-7.84269 14.97991,-11.05945 26.02827,-11.07112 7.09729,-0.007 9.43654,0.42648 14.17515,2.62978 7.9279,3.68621 14.21523,9.8342 18.07492,17.67433 2.93854,5.96902 3.24993,7.46591 3.24993,15.62258 0,7.67404 -0.39202,9.84227 -2.62539,14.52103 -1.44396,3.025 -4.22225,7.33157 -6.17398,9.57016 -4.16535,4.77756 -13.54702,10.06183 -19.57506,11.02575 -3.76273,0.60169 -4.43,1.12446 -5.79743,4.54202 -0.84992,2.12414 -1.83394,3.81524 -2.18672,3.758 -0.35278,-0.0572 -7.29757,-3.15089 -15.43287,-6.87478 z m 14.46583,-2.50453 c 0.79458,-1.7439 2.2026,-2.66229 4.72856,-3.08421 C 552.0518,244.40095 562.83861,231.64647 561.75477,214.5 560.68001,197.49716 548.00788,185.55928 531,185.52725 c -17.5186,-0.033 -29.98766,11.94528 -30.83566,29.62196 -0.31896,6.64881 -0.01,8.44521 2.3644,13.73549 1.50225,3.34745 3.33599,6.58807 4.07498,7.20138 1.12021,0.92969 1.09195,1.60174 -0.16993,4.04196 l -1.51354,2.92686 8.28988,3.75973 c 4.55943,2.06786 9.41487,4.27505 10.78987,4.90487 3.57606,1.63803 3.91598,1.55901 5.17438,-1.20288 z m -12.97493,-3.37219 c -1.00932,-0.64022 -0.36591,-2.93215 2.87314,-10.23469 7.72073,-17.40665 7.27307,-15.66476 4.41112,-17.16428 -2.24419,-1.17585 -2.36744,-1.52221 -1.13929,-3.20181 1.33358,-1.82378 1.58704,-1.79188 8.01635,1.00904 6.61046,2.87982 7.38265,3.72579 5.75109,6.30056 -0.68155,1.07555 -1.31159,1.11022 -3.07033,0.16897 -1.21705,-0.65134 -2.32459,-1.0353 -2.4612,-0.85324 -0.13661,0.18206 -2.68557,5.84077 -5.66436,12.57492 -2.97878,6.73414 -5.86597,12.23975 -6.41597,12.23468 -0.55,-0.005 -1.58525,-0.38043 -2.30055,-0.83415 z M 513,209.00979 c -3.89285,-2.49035 6.76316,-12.40185 14.5963,-13.5765 2.68456,-0.40258 6.18804,-0.21526 8.40667,0.44946 3.09262,0.92657 3.70578,1.51499 3.27905,3.1468 -0.46421,1.77514 -1.07592,1.93402 -5.29262,1.37466 -6.45797,-0.85668 -11.25288,0.91741 -15.31924,5.66803 -3.72886,4.35634 -3.57608,4.27718 -5.67016,2.93755 z M 86.654231,254.78578 c -0.911417,-3.48527 3.516149,-5.39012 4.793206,-2.06216 0.414477,1.08011 0.0097,2.20015 -1.084141,3 -2.420691,1.77005 -3.042019,1.61295 -3.709065,-0.93784 z m 7.918888,-3.45583 c -0.648347,-1.68957 0.882243,-3.28653 3.176881,-3.31464 0.6875,-0.008 1.25,0.39789 1.25,0.9029 0,0.50502 0.273145,1.63002 0.606989,2.5 0.453741,1.18244 -0.02418,1.58179 -1.893011,1.58179 -1.412869,0 -2.778679,-0.72623 -3.140859,-1.67005 z M 128.75,252.25074 c -1.82632,-0.41472 -2.41785,-3.71996 -0.84024,-4.69497 1.56367,-0.9664 4.09024,0.57304 4.09024,2.4922 0,2.16428 -0.85814,2.74591 -3.25,2.20277 z m -116.703896,-2.1683 c -4.7794242,-1.9378 -5.5056201,-2.8049 -4.1470938,-4.95175 0.7265146,-1.1481 1.6528073,-1.10532 5.7337438,0.26477 6.483707,2.17677 7.554054,2.95415 6.794127,4.93449 -0.804446,2.09635 -2.740883,2.03916 -8.380777,-0.24751 z m 90.427536,-0.1655 c -0.4371,-1.37718 -0.19321,-2.47993 0.66935,-3.02647 2.25355,-1.42792 3.59292,-1.00837 4.20072,1.31586 0.6665,2.54873 0.79083,2.3504 -2.01306,3.21123 -1.67069,0.51292 -2.32742,0.16798 -2.85701,-1.50062 z M 111,250.15134 c 0,-0.54327 -0.27314,-1.69957 -0.60699,-2.56955 -0.47499,-1.2378 0.0838,-1.58179 2.56955,-1.58179 2.72221,0 3.13084,0.32181 2.85699,2.25 C 115.50284,250.47998 111,252.25637 111,250.15134 Z M 119,248.5 c 0,-2 0.5,-2.5 2.5,-2.5 2,0 2.5,0.5 2.5,2.5 0,2 -0.5,2.5 -2.5,2.5 -2,0 -2.5,-0.5 -2.5,-2.5 z m -42.45453,-8.2421 c -0.485331,-1.26476 0.512883,-2.76362 3.643011,-5.47016 4.827204,-4.17396 6.291177,-4.58611 7.266049,-2.04564 0.485331,1.26476 -0.512883,2.76362 -3.643011,5.47016 -4.827204,4.17396 -6.291177,4.58611 -7.266049,2.04564 z M 43.597291,229.15612 C 43.266952,228.62056 41,217.41382 41,216.31634 41,216.14235 42.089245,216 43.420545,216 c 2.509955,0 2.602706,0.20459 4.130485,9.11108 0.530739,3.09404 0.321007,3.68912 -1.464805,4.15612 -1.146328,0.29977 -2.266348,0.24979 -2.488934,-0.11108 z M 464,164.74185 V 142 H 449 434 V 71 0 h 90 90 v 71 71 H 561.75798 509.51596 L 486.75798,164.74185 464,187.48369 Z"
         id="path4" />
      <path
         style="fill:#62deac"
         d="m 508.78265,397.78821 c -16.88082,-28.16649 -30.54693,-51.35727 -30.36913,-51.53507 0.1778,-0.1778 25.64356,1.94251 56.59057,4.7118 30.94702,2.76928 57.78124,5.03506 59.6316,5.03506 1.85037,0 3.36384,0.3375 3.36326,0.75 -5.8e-4,0.4125 -7.46568,7.01039 -16.58911,14.66197 l -16.58807,13.91197 5.33912,3.28646 c 22.79408,14.03077 30.3273,19.18466 30.20801,20.66699 -0.0966,1.20016 -9.3193,17.01476 -12.01919,20.60982 -0.15994,0.21297 -8.5756,-4.79166 -18.70148,-11.12138 l -18.41068,-11.5086 -5.34156,20.87139 C 542.95814,439.60788 540.31157,449 540.01474,449 c -0.29683,0 -14.35127,-23.04531 -31.23209,-51.21179 z M 70,435.06487 C 64.299336,433.32453 59.010353,429.79175 54.159646,424.4843 37.501777,406.25794 45.371107,376.70061 69.005388,368.72347 L 73.5,367.20643 l 0.287068,-9.67419 c 0.161178,-5.43171 0.696921,-9.53343 1.221659,-9.35322 0.514025,0.17654 5.413608,4.48348 10.887964,9.57098 l 9.953372,9.25 45.324967,0.006 c 26.39436,0.003 46.79252,0.41329 48.83869,0.98176 10.07666,2.79951 20.29448,12.46257 23.57296,22.29311 2.24382,6.7281 1.9518,17.20531 -0.67525,24.22672 -2.91977,7.80379 -11.5691,16.47275 -19.33414,19.37803 -5.52545,2.06733 -6.94767,2.11287 -63.3648,2.02885 C 98.470619,435.86677 71.375,435.48464 70,435.06487 Z m 121.57186,-4.74077 c 6.70223,-2.2792 15.47304,-11.05001 17.75224,-17.75224 5.13791,-15.10851 -1.63908,-31.63146 -15.83992,-38.61929 L 188.5,371.5 141.21386,371.21281 93.927725,370.92562 86.597697,363.96281 C 82.566182,360.13326 78.982444,357 78.633835,357 78.285226,357 78,360.09992 78,363.88871 v 6.88871 l -3.694772,0.69314 c -9.23942,1.73333 -18.400456,9.07699 -22.491277,18.02944 -3.217434,7.04111 -3.12287,18.02468 0.214878,24.95781 3.097226,6.43352 8.843153,12.1086 15.30689,15.11814 l 5.164281,2.40451 57.07186,0.01 c 50.78235,0.009 57.61496,-0.17492 62,-1.66613 z m 277.511,-49.37332 C 467.60548,374.06197 467.70672,373 469.84087,373 c 1.41488,0 2.12491,1.26924 3.06834,5.48491 1.2723,5.68526 0.93498,7.51509 -1.38536,7.51509 -0.82187,0 -1.78569,-1.99368 -2.44099,-5.04922 z m -41.65078,-9.06068 c -0.38167,-0.61756 1.3388,-3.13466 3.87847,-5.67433 3.95957,-3.95957 4.77791,-4.38725 6.17545,-3.22739 1.44327,1.19781 1.16775,1.78872 -2.64569,5.67433 -4.32933,4.41127 -6.17864,5.21692 -7.40823,3.22739 z M 421.75,330.40009 c -4.90214,-1.50739 -5.315,-1.9603 -3.8681,-4.24324 1.30806,-2.06387 12.1181,1.52735 12.1181,4.02577 0,2.17001 -1.75016,2.21615 -8.25,0.21747 z M 182,326 c 0,-1.82222 0.66667,-2 7.5,-2 6.83333,0 7.5,0.17778 7.5,2 0,1.82222 -0.66667,2 -7.5,2 -6.83333,0 -7.5,-0.17778 -7.5,-2 z m 30,0 c 0,-1.98122 0.66667,-2 71,-2 70.33333,0 71,0.0188 71,2 0,1.98122 -0.66667,2 -71,2 -70.33333,0 -71,-0.0188 -71,-2 z m 274.19398,-8.20602 c -0.94135,-0.94135 -0.2812,-2.14833 3.00821,-5.5 4.27909,-4.36008 6.13879,-5.16932 7.35546,-3.2007 0.60513,0.97911 -7.11414,9.90672 -8.56586,9.90672 -0.32548,0 -1.1345,-0.54271 -1.79781,-1.20602 z M 56.613654,305.25 C 54.657656,295.38492 54.667985,295 56.888709,295 58.049919,295 59,295.16358 59,295.36351 c 0,0.19993 0.454163,2.7583 1.00925,5.68527 0.774729,4.08512 0.716636,5.50752 -0.25,6.12117 -2.047017,1.29953 -2.57062,0.97994 -3.145596,-1.91995 z M 451.17175,302.92371 C 449.58873,296.06569 449.68416,295 451.88129,295 c 1.39154,0 2.1725,1.15656 3,4.44282 1.61752,6.42378 1.44062,8.55718 -0.70954,8.55718 -1.37702,0 -2.11746,-1.2529 -3,-5.07629 z M 182,296 c 0,-1.82222 0.66667,-2 7.5,-2 6.83333,0 7.5,0.17778 7.5,2 0,1.82222 -0.66667,2 -7.5,2 -6.83333,0 -7.5,-0.17778 -7.5,-2 z m 30,0 c 0,-1.98122 0.66667,-2 71,-2 70.33333,0 71,0.0188 71,2 0,1.98122 -0.66667,2 -71,2 -70.33333,0 -71,-0.0188 -71,-2 z m 161.95992,-2.54829 c -1.11747,-1.34647 -0.18997,-2.69304 6.62027,-9.61151 16.15162,-16.40829 38.20978,-32.88039 58.6601,-43.80486 l 9.74028,-5.20322 -3.08667,-4.48634 c -1.69768,-2.46748 -2.93081,-4.64093 -2.74029,-4.82989 0.19051,-0.18896 9.33394,-0.67474 20.31873,-1.07951 l 19.97235,-0.73596 -12.81505,11.39979 c -7.04827,6.26989 -13.11602,11.51402 -13.48389,11.65364 -0.36787,0.13962 -1.78239,-1.54788 -3.14337,-3.75 C 452.6414,240.80173 451.06124,239 450.49092,239 c -1.58849,0 -21.50598,11.27442 -29.77527,16.85448 -11.50624,7.76433 -21.96166,16.40299 -34.18985,28.24892 -9.84986,9.54195 -11.42973,10.71729 -12.56588,9.34831 z M 464.5,235.01094 l 4,-4.14738 -6.5,2.74929 c -3.575,1.51211 -6.64368,2.84899 -6.81929,2.97084 -0.17561,0.12186 0.25043,1.13382 0.94676,2.24881 1.54914,2.48057 2.88041,1.87292 8.37253,-3.82156 z m -7,-4.01094 4,-1.85167 -5.78518,-0.0742 c -5.48474,-0.0703 -5.7296,0.0297 -4.71482,1.92584 1.27074,2.37441 1.37079,2.37441 6.5,0 z M 15.54547,291.2579 c -0.485331,-1.26476 0.512883,-2.76362 3.643011,-5.47016 4.857096,-4.1998 5.617662,-4.4565 6.487556,-2.18959 0.415432,1.0826 -0.804414,2.8431 -3.781385,5.45736 -5.04668,4.4318 -5.441166,4.56864 -6.349182,2.20239 z m 34.260544,-13.66281 c -11.38188,-4.01739 -18.221991,-9.42497 -19.405236,-15.3412 -0.531316,-2.65658 -0.139357,-3.66916 2.405312,-6.21383 3.434296,-3.43429 5.026451,-3.69514 9.24357,-1.51438 2.134236,1.10366 2.95034,1.19099 2.95034,0.31572 0,-0.66547 0.964255,-3.20184 2.142789,-5.63636 3.545115,-7.32323 11.740398,-9.02886 14.911583,-3.10345 2.456702,4.59039 -1.413796,33.93662 -4.468107,33.87732 -0.597446,-0.0116 -4.098559,-1.08432 -7.780251,-2.38382 z M 87.75,277.68 c -6.045799,-2.17414 -6.240562,-2.35718 -4.847845,-4.55592 0.729044,-1.15098 1.666598,-1.08309 5.734687,0.41528 5.998967,2.20955 6.799603,2.87313 5.716783,4.73815 C 93.616477,279.54715 92.715411,279.46562 87.75,277.68 Z M 516,265.45059 c -5.225,-2.40418 -12.53385,-5.7118 -16.24189,-7.35027 -5.08741,-2.24797 -6.59492,-3.36202 -6.14301,-4.53967 0.32938,-0.85836 1.05026,-1.56065 1.60195,-1.56065 0.82203,0 32.65462,13.7437 33.55649,14.488 0.70071,0.57828 -1.11895,3.50176 -2.13053,3.42292 -0.62865,-0.049 -5.41801,-2.05615 -10.64301,-4.46033 z m -333.33333,2.88274 C 182.3,267.96667 182,266.84167 182,265.83333 182,264.21852 182.89394,264 189.5,264 c 7.33333,0 7.5,0.0556 7.5,2.5 0,2.42276 -0.21111,2.5 -6.83333,2.5 -3.75834,0 -7.13334,-0.3 -7.5,-0.66667 z M 212,266.50671 V 264 h 71.06955 71.06955 l -0.31955,2.25 -0.31955,2.25 -70.75,0.25671 -70.75,0.25671 z M 156.01531,266.25 c 0.0352,-1.72545 1.84572,-3.45392 2.92144,-2.78909 0.87922,0.54339 0.87664,1.05902 -0.0106,2.12812 -1.25453,1.51161 -2.93596,1.89343 -2.9108,0.66097 z M 150,262.02085 c -1.31569,-0.83197 -1.29113,-1.15744 0.19981,-2.64878 1.41183,-1.4122 1.96454,-1.48056 3.26233,-0.40349 1.19071,0.9882 1.29249,1.62214 0.42775,2.6641 -1.33338,1.60661 -1.87721,1.66088 -3.88989,0.38817 z m -68.41655,-4.66398 c -0.34679,-0.90372 -0.424874,-1.84878 -0.17352,-2.10013 C 82.204665,254.462 84,256.05785 84,257.55902 c 0,1.96152 -1.638879,1.82443 -2.41655,-0.20215 z m 62.08661,0.39114 c -1.4641,-1.07058 -1.53407,-1.55172 -0.44273,-3.04422 1.15839,-1.5842 1.5076,-1.61602 3.28444,-0.29935 1.79511,1.33022 1.83812,1.6259 0.44274,3.04422 -1.27451,1.29545 -1.85041,1.34794 -3.28445,0.29935 z m 370.16978,-5.52751 -14.66016,-6.62908 1.50812,-3.76917 c 1.40455,-3.51032 1.37012,-3.99419 -0.50139,-7.04571 -8.48571,-13.83606 -5.58834,-34.09112 6.38398,-44.62959 8.03244,-7.07043 12.44287,-8.6301 24.42961,-8.63908 11.18237,-0.008 14.65772,1.09419 22.66566,7.19078 8.29112,6.31218 14.17138,20.52236 12.91517,31.21071 -1.80621,15.36803 -14.2211,28.86892 -29.11633,31.66328 -2.80891,0.52695 -3.97598,1.43209 -5.22577,4.05292 -0.88503,1.85594 -2.08831,3.3406 -2.67394,3.29923 -0.58564,-0.0414 -7.66186,-3.05829 -15.72495,-6.70429 z m 15.59042,-1.08565 c 1.14976,-2.22337 2.4203,-3.01524 5.67226,-3.53525 7.42114,-1.18669 13.68328,-4.58481 18.83339,-10.21986 9.02239,-9.87193 10.92792,-23.12017 5.04441,-35.07129 -9.03299,-18.3486 -33.00763,-23.09513 -48.93973,-9.68915 -7.12121,5.9921 -11.77665,17.76431 -10.58543,26.7674 0.72985,5.51615 3.65984,12.97791 6.19676,15.78117 1.30132,1.43794 1.37622,2.31266 0.43033,5.02604 -0.62986,1.80681 -0.79353,3.42625 -0.36372,3.59875 0.42981,0.17251 5.50647,2.49802 11.28147,5.16781 5.775,2.66979 10.60094,4.89587 10.72432,4.94685 0.12338,0.051 0.89105,-1.19664 1.70594,-2.77247 z M 517.25,247.29167 c -1.9936,-0.73099 -1.54725,-2.39428 3.73474,-13.91721 2.7416,-5.98095 4.9916,-11.40664 5,-12.05707 C 525.99313,220.66695 525.1,219.84913 524,219.5 c -2.05964,-0.65371 -2.69754,-2.95086 -1.09453,-3.94157 0.498,-0.30779 3.86711,0.76919 7.48691,2.39329 5.03416,2.25867 6.43717,3.32889 5.96774,4.55219 -0.44264,1.15353 -1.37363,1.4324 -3.34007,1.00049 -2.64861,-0.58173 -2.87564,-0.26236 -7.96051,11.1984 -5.69369,12.83299 -5.9624,13.26615 -7.80954,12.58887 z m -4.67409,-39.16885 c -1.05739,-1.71089 3.99129,-7.53883 8.57353,-9.89687 6.88226,-3.54163 18.36928,-3.14478 17.64171,0.60949 -0.26509,1.36787 -1.32963,1.60451 -5.97256,1.32763 -6.65492,-0.39685 -11.91035,1.68946 -15.0903,5.99057 -2.10413,2.84598 -4.13159,3.62086 -5.15238,1.96918 z M 87,254.10699 c 0,-2.64298 2.744764,-3.45242 3.966432,-1.16971 0.755742,1.41211 0.618676,2.00795 -0.566533,2.46276 C 87.801743,256.39704 87,256.09213 87,254.10699 Z m 49.21613,0.0478 c -1.22696,-0.77853 -0.70168,-4.1714 0.64086,-4.13943 1.76189,0.042 3.36456,1.96495 2.82011,3.38377 -0.68276,1.77924 -1.54954,1.96849 -3.46097,0.75566 z M 94.644227,251.5153 c -0.3278,-0.85423 0.20792,-1.90094 1.261529,-2.46481 C 98.028189,247.91455 99,248.57919 99,251.16667 c 0,2.22995 -3.525556,2.51209 -4.355773,0.34858 z m -82.278709,-1.71704 c -4.1530942,-1.58998 -5.0387004,-2.33196 -4.6333684,-3.88195 0.6088512,-2.32825 -0.047754,-2.35161 6.7222654,0.23913 3.812798,1.45908 5.537598,2.64377 5.338984,3.66713 -0.423906,2.18419 -1.669835,2.18011 -7.427881,-0.0243 z M 127.77014,251.4368 C 126.6027,250.26936 128.19417,248 130.18031,248 c 1.32948,0 1.8579,0.56307 1.63153,1.73852 -0.34109,1.77113 -2.89551,2.84448 -4.0417,1.69828 z M 102.71025,249 c -0.41601,-1.59081 -0.0307,-2 1.88337,-2 1.73971,0 2.40638,0.55408 2.40638,2 0,1.29205 -0.66667,2 -1.88337,2 -1.04236,0 -2.11691,-0.89308 -2.40638,-2 z m 17.39403,1.08467 c -1.89078,-1.19596 -0.57256,-4.3215 1.6427,-3.89488 0.96416,0.18568 1.75302,1.19394 1.75302,2.24057 0,2.21874 -1.41416,2.90768 -3.39572,1.65431 z M 111,248 c 0,-1.33333 0.66667,-2 2,-2 1.33333,0 2,0.66667 2,2 0,1.33333 -0.66667,2 -2,2 -1.33333,0 -2,-0.66667 -2,-2 z m -33.996452,-7.49573 c -0.989691,-1.1925 -0.613631,-1.96536 2.059024,-4.23162 6.048816,-5.12904 6.595669,-5.38937 7.93388,-3.77692 0.989691,1.1925 0.613631,1.96536 -2.059024,4.23162 -6.048816,5.12904 -6.595669,5.38937 -7.93388,3.77692 z M 43.693167,228.30537 C 43.421848,227.86242 42.878041,224.9125 42.484707,221.75 41.818401,216.39274 41.909115,216 43.81282,216 c 1.737495,0 2.150777,0.86048 2.761682,5.75 0.395129,3.1625 0.676279,5.975 0.624778,6.25 -0.16655,0.88933 -2.9974,1.13589 -3.506113,0.30537 z m 134.544443,-23.3381 c 0.43911,-7.70131 0.9421,-9.72351 3.41237,-13.71908 1.59353,-2.57748 4.83643,-6.05025 7.20643,-7.71726 l 4.30909,-3.03093 20.6186,-0.30896 c 23.88045,-0.35784 26.59043,0.237 33.06109,7.25684 4.74889,5.15194 6.14171,9.52392 6.14923,19.30212 L 253,214 h -37.63871 -37.6387 z M 286,207 c 0,-1.95556 0.66667,-2 30,-2 29.33333,0 30,0.0444 30,2 0,1.95556 -0.66667,2 -30,2 -29.33333,0 -30,-0.0444 -30,-2 z m 178.48917,-23.03412 c -0.40129,-1.26435 -0.56302,-11.11141 -0.35939,-21.88235 L 464.5,142.5 449.75,142.22327 435,141.94653 V 70.973267 0 h 89.5 89.5 v 71 71 h -52.24184 -52.24185 l -22.14876,22.13235 c -20.12761,20.1127 -22.21534,21.92258 -22.87838,19.83353 z M 286,177 c 0,-1.96444 0.66667,-2 37.5,-2 36.83333,0 37.5,0.0356 37.5,2 0,1.96444 -0.66667,2 -37.5,2 -36.83333,0 -37.5,-0.0356 -37.5,-2 z m -77.99286,-15.59298 c -11.11051,-4.81814 -15.72484,-18.38752 -9.73084,-28.61552 8.25913,-14.09313 29.11913,-13.13966 35.83089,1.63776 7.33019,16.13906 -9.93702,33.98695 -26.10005,26.97776 z M 3.3057637,147.58856 0.5,145.17712 0.19245148,125.16874 -0.11509704,105.16037 2.8603318,101.83018 5.8357606,98.5 H 82.895044 159.95433 l 2.77283,2.77273 2.77284,2.77272 v 20.56386 20.56386 l -2.80576,2.41341 L 159.88847,150 H 83 6.1115274 Z M 159.06574,144.96482 c 1.81,-0.96869 1.93426,-2.27778 1.93426,-20.37756 0,-16.70095 -0.22378,-19.5281 -1.63871,-20.70238 -1.33858,-1.11093 -14.79733,-1.429 -73.484362,-1.73667 -39.515105,-0.20716 -73.413218,-0.0826 -75.32914,0.27685 C 4.1729217,103.62099 4,104.18678 4,123.84892 c 0,14.40691 0.2900597,18.12019 1.556704,19.92857 L 7.1134079,146 H 82.122445 c 49.793285,0 75.659275,-0.348 76.943295,-1.03518 z M 17.379425,130.54638 c -0.306794,-0.79949 0.157329,-2.47462 1.031384,-3.72251 2.198399,-3.13865 2.056678,-3.51448 -1.805958,-4.78927 -2.697386,-0.89021 -3.28693,-1.53433 -2.868579,-3.13411 0.329075,-1.25838 1.074713,-1.80326 1.98805,-1.45278 5.484907,2.10475 6.130897,1.895 6.459835,-2.09751 0.222453,-2.70004 0.833292,-3.93163 2.065843,-4.16521 1.44144,-0.27316 1.75,0.40861 1.75,3.86669 0,4.55195 -0.42052,4.38756 7.0625,2.76082 2.948896,-0.64106 1.508961,3.49772 -1.5625,4.49107 -4.047612,1.30905 -4.004344,1.1794 -1.545857,4.63203 2.149448,3.01862 2.041936,5.08057 -0.26316,5.04712 -0.655041,-0.01 -2.150426,-1.39098 -3.323077,-3.06995 l -2.132095,-3.05268 -2.186,3.06996 c -2.394214,3.36236 -3.812075,3.85306 -4.670386,1.61633 z m 29.720652,0.53663 c -1.155098,-0.73135 -1.023935,-1.36435 0.75,-3.61954 2.869194,-3.64759 2.749495,-4.11049 -1.418625,-5.48609 -2.497832,-0.82436 -3.39796,-1.62228 -3,-2.65934 C 43.744153,118.50315 44,117.65937 44,117.44296 c 0,-0.2164 1.154295,0.0454 2.5651,0.58179 4.391688,1.66972 5.293351,1.22623 5.624535,-2.76643 0.216905,-2.61495 0.837342,-3.84155 2.060365,-4.07333 1.434529,-0.27185 1.75,0.40266 1.75,3.74169 0,4.37638 0.816323,4.85405 5.349822,3.13042 1.918362,-0.72936 2.613261,-0.59569 3.068344,0.59024 0.83185,2.16777 0.001,3.10168 -3.429634,3.85518 -3.564763,0.78295 -3.578653,0.85999 -0.846813,4.69651 1.765023,2.47874 1.896937,3.16277 0.75,3.88905 -2.127217,1.34704 -2.543517,1.15167 -4.656271,-2.1852 l -1.960955,-3.09711 -2.205341,3.09711 c -2.376077,3.3369 -2.828543,3.53541 -4.969075,2.18013 z m 32,0 c -1.155098,-0.73135 -1.023935,-1.36435 0.75,-3.61954 2.869194,-3.64759 2.749495,-4.11049 -1.418625,-5.48609 -2.497832,-0.82436 -3.39796,-1.62228 -3,-2.65934 C 75.744153,118.50315 76,117.65937 76,117.44296 c 0,-0.2164 1.154295,0.0454 2.5651,0.58179 C 83.172573,119.77651 84,119.31601 84,115 c 0,-3.33333 0.333333,-4 2,-4 1.666667,0 2,0.66667 2,4 0,4.29822 0.833169,4.77433 5.349822,3.0571 1.918362,-0.72936 2.613261,-0.59569 3.068344,0.59024 0.83185,2.16777 0.001,3.10168 -3.429634,3.85518 -3.525137,0.77425 -3.651647,1.38475 -0.988532,4.77035 2.427976,3.08667 2.447468,3.34144 0.318174,4.15853 -1.128951,0.43322 -2.44389,-0.27126 -4,-2.14301 L 86,126.5 l -2.287565,2.75 c -2.539104,3.05239 -2.629642,3.08837 -4.612358,1.83301 z m 30.341173,-0.17808 c -0.37224,-0.60228 0.31583,-2.43766 1.52903,-4.07861 2.50117,-3.38301 2.55373,-3.22133 -1.47028,-4.52275 -1.95238,-0.63142 -3,-1.63955 -3,-2.8869 0,-1.98049 0.2298,-2.02456 4.7028,-0.90191 2.50688,0.62919 2.68431,0.44086 2.98136,-3.16456 0.22245,-2.70004 0.83329,-3.93163 2.06584,-4.16521 1.44144,-0.27316 1.75,0.40861 1.75,3.86669 0,4.55195 -0.42052,4.38756 7.0625,2.76082 2.9489,-0.64106 1.50896,3.49772 -1.5625,4.49107 -4.03009,1.30338 -3.97804,1.13083 -1.39492,4.62469 1.84345,2.4934 2.03646,3.32402 1.00581,4.32861 -1.0224,0.99655 -1.81785,0.59984 -4.01019,-1.99996 l -2.73481,-3.24308 -2.21288,2.99308 c -2.34622,3.17344 -3.60911,3.68216 -4.71176,1.89802 z M 337.41021,118.79551 C 336.89708,118.06517 336.62176,104.52153 336.77911,87.75 337.0497,58.907529 337.11834,58 339.02911,58 340.94419,58 341,58.806966 341,86.5 V 115 h 28.5 c 27.83333,0 28.5,0.0468 28.5,2 0,1.95308 -0.66667,2 -28.41821,2 -15.63002,0 -29.05792,0.24548 -29.83979,0.54551 -0.78186,0.30003 -1.83117,-0.0375 -2.33179,-0.75 z"
         id="path3" />
      <path
         style="fill:#181c1e"
         d="m 508.85428,397.7199 c -16.85515,-28.17094 -30.56083,-51.31422 -30.45706,-51.42951 0.33098,-0.36772 118.58329,10.35605 119.00086,10.79166 0.22035,0.22987 -7.01118,6.64834 -16.07007,14.26326 -9.0589,7.61492 -16.32611,13.97652 -16.14936,14.13688 0.17674,0.16037 7.97135,5.10043 17.32135,10.97792 9.35,5.87749 17.39699,11.07288 17.88219,11.54531 0.76264,0.74255 -8.58741,17.15534 -11.79235,20.69992 -0.82955,0.91747 -5.38824,-1.51473 -19.08724,-10.1836 -11.79252,-7.46243 -18.2103,-10.98088 -18.61489,-10.20534 -0.33962,0.65098 -2.8041,10.0711 -5.47663,20.9336 -2.67253,10.8625 -5.09582,19.73646 -5.38511,19.7199 -0.28928,-0.0165 -14.31655,-23.07905 -31.17169,-51.25 z M 69.324175,434.57624 C 55.540716,430.21449 45.780928,417.04131 45.619274,402.58077 45.437708,386.33891 55.097719,373.00226 70.286039,368.52571 L 74.5,367.2837 l 0.286715,-9.68352 0.286714,-9.68352 10.043637,9.29167 10.043636,9.29167 47.169648,0.5 47.16965,0.5 5.58906,2.74481 c 7.17873,3.5255 13.4686,9.80378 16.78611,16.75519 2.23127,4.67534 2.62483,6.84944 2.62483,14.5 0,7.64547 -0.39853,9.85003 -2.64796,14.64796 -3.2262,6.88132 -9.01809,12.85344 -16.06789,16.56789 L 190.5,435.5 132,435.69883 c -46.155494,0.15688 -59.381171,-0.08 -62.675825,-1.12259 z m 123.762305,-4.69606 c 14.94989,-7.01084 21.76418,-22.92386 16.52366,-38.58675 C 207.53591,385.09395 200.56573,377.31104 194,373.86312 L 189.5,371.5 142.05058,371.21242 94.601152,370.92483 86.890393,363.96242 C 82.649476,360.13309 78.914217,357 78.589818,357 78.265418,357 78,360.15 78,364 c 0,6.28873 -0.199408,7 -1.962487,7 -4.252205,0 -13.136736,4.27483 -17.30592,8.32681 -17.397017,16.90796 -9.955119,45.74257 13.454659,52.13184 4.387804,1.19757 14.897745,1.41466 60.313748,1.24582 L 187.5,432.5 Z M 469.17175,380.92371 C 467.59916,374.11088 467.68634,373 469.79357,373 c 2.34037,0 4.97401,10.89407 2.94515,12.18264 -2.08035,1.32127 -2.35445,0.99399 -3.56697,-4.25893 z m -41.01132,-9.23041 c -0.85329,-1.02815 -0.10766,-2.3101 3.27404,-5.62899 4.08261,-4.00677 6.56553,-4.64679 6.56553,-1.69238 0,1.15627 -3.2085,4.51041 -7.11732,7.44041 -1.27933,0.95896 -1.84824,0.93409 -2.72225,-0.11904 z m -6.1957,-41.5208 c -3.44328,-1.2698 -4.44552,-2.11154 -4.16254,-3.49593 0.25252,-1.23529 0.90897,-1.61662 2.03527,-1.18226 0.9144,0.35263 3.57504,1.15401 5.91254,1.78083 2.99558,0.80329 4.25,1.66877 4.25,2.93226 0,2.19857 -2.00241,2.18987 -8.03527,-0.0349 z M 182,326 c 0,-1.82222 0.66667,-2 7.5,-2 6.83333,0 7.5,0.17778 7.5,2 0,1.82222 -0.66667,2 -7.5,2 -6.83333,0 -7.5,-0.17778 -7.5,-2 z m 30,0 c 0,-1.98122 0.66667,-2 71,-2 70.33333,0 71,0.0188 71,2 0,1.98122 -0.66667,2 -71,2 -70.33333,0 -71,-0.0188 -71,-2 z m 274.54392,-8.74613 c -0.47998,-1.25083 0.49637,-2.83416 3.44199,-5.5818 3.41388,-3.18444 4.36663,-3.62438 5.61158,-2.59116 1.29301,1.0731 0.91325,1.84191 -2.75718,5.5818 -4.75648,4.84651 -5.33895,5.08621 -6.29639,2.59116 z M 56.538789,303.13134 c -0.35899,-2.54724 -0.882402,-5.41884 -1.163137,-6.38134 -0.364356,-1.24919 0.05605,-1.75 1.469062,-1.75 1.558467,0 2.120069,0.90394 2.640439,4.25 0.363521,2.3375 0.865694,4.98172 1.11594,5.87604 0.28203,1.0079 -0.279555,1.81812 -1.4773,2.13134 -1.644696,0.43009 -2.029441,-0.18401 -2.585004,-4.12604 z M 451.2309,302.36492 C 450.00101,296.50136 450.23931,295 452.39989,295 c 1.4282,0 4.11536,10.35729 3.10943,11.98491 -1.50683,2.43812 -3.17604,0.63565 -4.27842,-4.61999 z M 182.18728,296.25 c 0.27493,-1.44079 1.61306,-1.80191 7.57332,-2.04381 6.7203,-0.27274 7.2394,-0.14726 7.2394,1.75 0,1.8785 -0.61255,2.04381 -7.57332,2.04381 -6.67324,0 -7.53364,-0.20799 -7.2394,-1.75 z M 212,295.99329 c 0,-1.99245 0.50257,-2.00488 70.73638,-1.75 66.45568,0.24118 70.75676,0.36261 71.07332,2.00671 0.31835,1.65341 -3.5858,1.75 -70.73638,1.75 C 212.58748,298 212,297.98341 212,295.99329 Z m 162,-3.02706 c -1.21732,-0.8141 0.57387,-3.02556 9.50458,-11.73469 17.0384,-16.61565 35.19542,-29.9853 55.99616,-41.23194 l 9.43844,-5.10322 -2.92754,-4.69819 -2.92755,-4.69819 17.20796,-0.76132 c 9.46437,-0.41873 18.28658,-0.64373 19.60491,-0.5 2.0486,0.22334 0.55006,1.91172 -10.31087,11.61711 -6.98931,6.24569 -12.8273,11.19569 -12.97331,11 -0.14601,-0.19568 -1.28031,-2.04329 -2.52068,-4.10579 -1.24037,-2.0625 -2.78102,-3.74136 -3.42366,-3.73081 -2.04937,0.0337 -19.16614,9.52888 -28.83014,15.993 -12.8159,8.57239 -25.64075,19.13813 -36.31745,29.92012 -4.93853,4.98723 -9.21353,9.0608 -9.5,9.05238 -0.28647,-0.008 -1.19585,-0.46673 -2.02085,-1.01846 z M 463.96515,235.75 c 2.88814,-2.6125 4.98222,-4.75 4.65352,-4.75 -1.1117,0 -13.61867,5.20906 -13.61867,5.67208 0,1.24876 2.23433,4.4105 2.9247,4.13869 0.43412,-0.17093 3.15232,-2.44827 6.04045,-5.06077 z m -5.50916,-4.83356 c 2.59063,-1.14595 4.55572,-2.23806 4.36687,-2.42691 -0.18884,-0.18885 -3.13444,-0.0903 -6.54577,0.21906 -5.66748,0.51391 -6.11636,0.72322 -5.20457,2.42691 1.25123,2.33795 1.62823,2.32676 7.38347,-0.21906 z M 15.447855,290.91563 c -0.631713,-1.02214 3.959379,-5.70591 7.802145,-7.95964 1.713439,-1.00492 1.837364,-0.89225 2.15,1.95461 0.109287,0.99517 -7.179038,7.0894 -8.478488,7.0894 -0.441913,0 -1.105058,-0.48797 -1.473657,-1.08437 z m 33.777039,-13.83776 c -12.28942,-4.25543 -18.621909,-9.81909 -18.44044,-16.20156 0.165236,-5.81159 5.344945,-8.95597 10.509202,-6.3797 3.294526,1.64352 4.659191,0.85463 4.691031,-2.71181 0.0084,-0.94337 1.411929,-3.30587 3.118905,-5.25 2.540797,-2.89381 3.799871,-3.5348 6.943296,-3.5348 5.327248,0 6.959284,2.58351 6.93147,10.97251 -0.02144,6.46764 -3.27041,23.71954 -4.744616,25.19375 -0.421239,0.42124 -4.475221,-0.51854 -9.008848,-2.08839 z M 88.25,277.67061 C 84.46677,276.28621 83,275.22569 83,273.87473 83,272.84363 83.184957,272 83.411016,272 c 1.232997,0 11.586583,4.37341 11.573671,4.88878 -0.05871,2.3434 -1.887244,2.55567 -6.734687,0.78183 z M 510.5,262.85366 c -8.8,-3.90157 -16.31876,-7.381 -16.70836,-7.73207 -0.3896,-0.35107 -0.30516,-1.2907 0.18764,-2.08807 0.75158,-1.21608 2.15527,-0.90044 8.70836,1.95819 21.18128,9.23981 26.28515,11.91561 25.6894,13.46812 -0.32506,0.8471 -0.88037,1.52834 -1.23403,1.51388 -0.35365,-0.0145 -7.84301,-3.21848 -16.64301,-7.12005 z m -328.32332,3.56427 c 0.25353,-1.24059 1.83081,-1.61833 7.30733,-1.75 5.93522,-0.14271 7.03496,0.0949 7.32332,1.58207 0.29931,1.54368 -0.56221,1.75 -7.30733,1.75 -6.44291,0 -7.59575,-0.24905 -7.32332,-1.58207 z m 29.8235,-0.16793 c 1.7e-4,-1.65191 3.96209,-1.73961 70.68188,-1.56464 63.27051,0.16593 70.70577,0.34942 70.91133,1.75 0.2065,1.40697 -6.91626,1.56464 -70.68187,1.56464 -66.86818,0 -70.91151,-0.0998 -70.91134,-1.75 z M 156,266.12244 c 0,-1.30341 2.58284,-3.20627 3.33333,-2.45577 C 160.08383,264.41716 158.18097,267 156.87756,267 156.3949,267 156,266.6051 156,266.12244 Z m -5.66417,-4.68966 c -0.91001,-2.37144 1.22281,-4.04396 3.13412,-2.45772 1.18442,0.98298 1.28444,1.61596 0.41994,2.65762 -1.49748,1.80435 -2.81336,1.73034 -3.55406,-0.1999 z m -68.685167,-3.90075 c -0.309823,-0.80739 -0.132968,-1.73395 0.393011,-2.05902 C 82.569653,255.14793 83,255.09672 83,255.3592 c 0,0.26247 0.273145,1.18903 0.606989,2.05901 C 83.940833,258.2882 83.763978,259 83.213978,259 c -0.55,0 -1.253492,-0.66059 -1.563315,-1.46797 z m 61.997267,0.1998 c -1.63169,-1.19312 -1.66297,-1.47446 -0.29059,-2.61343 0.97505,-0.80922 2.10975,-0.95638 3.10022,-0.40209 1.29309,0.72365 1.34316,1.17396 0.29059,2.61344 -1.08718,1.48681 -1.53698,1.54515 -3.10022,0.40208 z m 371.45275,-5.23322 c -7.91962,-3.55515 -14.61769,-6.68229 -14.8846,-6.9492 -0.26691,-0.2669 0.0856,-1.86345 0.78328,-3.54788 1.14617,-2.76708 0.96979,-3.71095 -1.82789,-9.78206 -4.06812,-8.828 -4.87402,-15.92855 -2.7492,-24.22251 3.0939,-12.07667 10.78032,-20.66569 22.42519,-25.05852 7.9892,-3.01379 19.60805,-2.41804 27.42444,1.40616 18.1364,8.87331 25.17658,29.87037 16.19365,48.29691 -4.37192,8.96804 -15.30477,17.01391 -25.67203,18.89295 -3.08494,0.55914 -3.89448,1.24143 -4.82755,4.06867 -0.61659,1.86828 -1.42368,3.38844 -1.79352,3.37813 -0.36985,-0.0103 -7.15214,-2.9275 -15.07177,-6.48265 z m 14.45628,-1.16289 c 0.8067,-2.2791 1.86031,-2.85111 7.28771,-3.95651 24.51473,-4.99293 33.90362,-33.65118 17.24174,-52.62801 -1.76625,-2.01165 -5.95512,-5.02861 -9.30861,-6.70437 -12.2539,-6.12335 -28.0268,-3.18259 -37.14047,6.9246 -5.91606,6.56099 -8.09229,12.19916 -8.11664,21.02857 -0.0215,7.80511 1.14542,11.85982 5.21262,18.11189 2.03489,3.12802 2.18838,3.96587 1.14574,6.25423 -0.66216,1.45328 -0.97536,2.87091 -0.69599,3.15028 0.57941,0.5794 22.02341,10.36286 22.8739,10.43582 0.30633,0.0263 0.98133,-1.15115 1.5,-2.6165 z m -12.54797,-4.33016 c -1.1814,-0.73015 -0.58473,-2.78417 3.39743,-11.69563 6.09007,-13.62862 6.39254,-14.92157 3.69134,-15.7789 -2.26982,-0.72042 -2.50638,-1.33899 -1.2619,-3.29968 1.20047,-1.89135 14.32836,4.17711 13.53107,6.25483 -0.36447,0.9498 -1.66277,1.40617 -3.56644,1.25365 -2.90984,-0.23314 -3.13918,0.0877 -8.22104,11.50095 -2.87522,6.45743 -5.43236,11.94547 -5.68253,12.19563 -0.25016,0.25016 -1.09973,0.0563 -1.88793,-0.43085 z m -4.40356,-38.83497 c -0.78652,-1.27262 3.41025,-6.64266 7.24472,-9.27008 2.56348,-1.75653 5.10239,-2.43108 10.04047,-2.66762 7.03353,-0.33692 9.53032,0.5066 8.60867,2.90837 -0.43913,1.14436 -1.88908,1.38583 -6.37353,1.06146 -6.74377,-0.4878 -10.88105,1.1947 -14.29609,5.81379 -2.17192,2.93769 -4.21843,3.78151 -5.22424,2.15408 z M 87.666667,255.33333 C 86.321493,253.98816 87.052944,252 88.893011,252 c 2.376845,0 3.503705,2.63379 1.462059,3.41724 -1.888807,0.7248 -1.879399,0.7251 -2.688403,-0.0839 z m 48.549463,-1.17859 c -1.22696,-0.77853 -0.70168,-4.1714 0.64086,-4.13943 1.76189,0.042 3.36456,1.96495 2.82011,3.38377 -0.68276,1.77924 -1.54954,1.96849 -3.46097,0.75566 z M 95,251.07332 C 95,249.64223 95.642225,249 97.073324,249 c 1.431099,0 1.969616,0.53852 1.738517,1.73852 C 98.309829,253.34525 95,253.63597 95,251.07332 Z m -81.496973,-1.2611 c -5.9231795,-2.3385 -5.9045411,-2.32351 -5.1928143,-4.17824 0.472385,-1.23101 1.4053261,-1.13988 6.1235383,0.59819 4.998889,1.84145 6.895001,3.84981 4.816249,5.10134 -0.4125,0.24835 -2.998638,-0.43623 -5.746973,-1.52129 z M 128,250.07332 C 128,248.64223 128.64223,248 130.07332,248 c 2.56265,0 2.27193,3.30983 -0.3348,3.81184 -1.2,0.2311 -1.73852,-0.30742 -1.73852,-1.73852 z M 103,249 c 0,-1.33333 0.66667,-2 2,-2 1.33333,0 2,0.66667 2,2 0,1.33333 -0.66667,2 -2,2 -1.33333,0 -2,-0.66667 -2,-2 z m 17.75,1.22174 c -1.92831,-0.40592 -2.12972,-1.07503 -0.90474,-3.00561 0.77853,-1.22696 4.1714,-0.70168 4.13943,0.64086 -0.0368,1.54505 -1.62233,2.70417 -3.23469,2.36475 z M 111,248 c 0,-1.33333 0.66667,-2 2,-2 1.33333,0 2,0.66667 2,2 0,1.33333 -0.66667,2 -2,2 -1.33333,0 -2,-0.66667 -2,-2 z m -33.908805,-7.39012 c -0.91062,-1.09723 -0.141407,-2.21885 3.764315,-5.48891 4.039518,-3.38207 5.111479,-3.86567 6.053295,-2.73085 0.91062,1.09723 0.141407,2.21885 -3.764315,5.48891 -4.039518,3.38207 -5.111479,3.86567 -6.053295,2.73085 z M 43.640438,227.25 c -1.622994,-5.74555 -1.718898,-10.00591 -0.238034,-10.57418 2.010755,-0.77159 2.266417,-0.23166 3.112889,6.57418 0.600909,4.83145 0.467889,5.75 -0.832682,5.75 -0.85131,0 -1.770287,-0.7875 -2.042173,-1.75 z M 179,205.62212 c 0,-9.38633 1.29676,-13.42286 5.91501,-18.41214 5.8945,-6.36807 9.30034,-7.16606 30.58499,-7.16606 16.98733,0 19.47669,0.21611 23.5,2.04011 9.57665,4.34164 13.15193,10.3428 13.80144,23.16597 l 0.4432,8.75 H 216.12232 179 Z M 287,207 c 0,-1.9548 0.66667,-2 29.5,-2 28.83333,0 29.5,0.0452 29.5,2 0,1.9548 -0.66667,2 -29.5,2 -28.83333,0 -29.5,-0.0452 -29.5,-2 z m 0,-30 c 0,-1.96396 0.66667,-2 37,-2 36.33333,0 37,0.036 37,2 0,1.96396 -0.66667,2 -37,2 -36.33333,0 -37,-0.036 -37,-2 z m -75.76441,-14.97901 c -15.52292,-3.68188 -20.37926,-23.04989 -8.57717,-34.20737 10.58847,-10.01016 28.43328,-4.2021 32.43422,10.55657 2.56022,9.44413 -4.49262,20.98228 -14.34162,23.46229 -5.11222,1.28727 -4.90072,1.28308 -9.51543,0.18851 z M 5.2055702,148.9524 C 1.0052061,147.26667 0,142.54486 0,124.5 0,106.8548 0.92860272,102.17895 4.8496004,100.08049 6.245349,99.333509 30.484438,99 83.378495,99 h 76.509975 l 2.80577,2.41172 2.80576,2.41172 0.33628,17.82863 c 0.21306,11.29623 -0.0758,19.20404 -0.7884,21.58246 -2.12545,7.09411 1.81708,6.77285 -82.24822,6.70208 -43.390196,-0.0365 -76.2719622,-0.4536 -77.5940898,-0.98421 z M 160.4433,143.77749 c 2.18091,-3.11369 2.29725,-36.38229 0.13755,-39.33636 -1.38006,-1.88767 -3.50013,-1.94852 -76.981505,-2.20962 -74.6412143,-0.26522 -75.5869695,-0.24389 -77.580854,1.75 C 4.139877,105.86012 4,107.27706 4,124.42857 c 0,15.41991 0.2565522,18.68513 1.5714286,20 C 6.9723845,145.82953 15.373633,146 83.014725,146 H 158.88659 Z M 17.441245,130.90493 c -0.372234,-0.60228 0.276208,-2.38406 1.440983,-3.95951 2.699337,-3.65104 2.697609,-3.65916 -0.949798,-4.46026 -2.950273,-0.64799 -4.854974,-2.89595 -3.555116,-4.19581 0.343415,-0.34341 2.199008,-0.14113 4.123539,0.44953 L 22,119.8128 v -3.9064 C 22,112.66667 22.34132,112 24,112 c 1.672189,0 2,0.66667 2,4.06739 0,3.77079 0.164073,4.01338 2.25,3.32683 3.423048,-1.12665 6.00294,-1.02221 6.450577,0.26114 0.221647,0.63544 -1.195309,1.68284 -3.148791,2.32755 -4.150579,1.36981 -4.269541,1.83489 -1.401863,5.48056 1.77737,2.25956 1.907335,2.89053 0.75,3.64122 -1.006286,0.65271 -2.182814,-0.008 -4.184181,-2.34833 -2.932769,-3.43005 -2.971881,-3.41995 -5.784413,1.49364 -1.142909,1.9967 -2.503076,2.25194 -3.490084,0.65493 z m 29.931663,-0.37553 c -0.310377,-0.80883 0.411037,-2.71057 1.603141,-4.22608 l 2.167463,-2.75548 -4.015579,-1.33853 c -2.785153,-0.92838 -3.846803,-1.77835 -3.464767,-2.77392 0.645365,-1.68179 2.226916,-1.80788 5.771734,-0.46014 2.486842,0.94549 2.5651,0.85397 2.5651,-3 C 52,112.66667 52.335409,112 54,112 c 1.65868,0 2,0.66667 2,3.9064 v 3.9064 l 3.573371,-1.0967 c 2.893246,-0.88796 3.746149,-0.82256 4.48114,0.3436 0.684053,1.08535 0.111471,1.77225 -2.323372,2.78724 -4.404423,1.83604 -4.384674,1.77783 -1.79264,5.28375 1.858778,2.51413 2.035819,3.27118 0.928965,3.97238 C 58.871439,132.36757 58.691479,132.28092 56.5,129 c -1.1,-1.64684 -2.240477,-2.99554 -2.534392,-2.99712 -0.293916,-0.002 -1.331858,1.34712 -2.306537,2.99712 -1.939042,3.28254 -3.411767,3.80804 -4.286163,1.5294 z m 32,0 c -0.310377,-0.80883 0.411037,-2.71057 1.603141,-4.22608 l 2.167463,-2.75548 -4.015579,-1.33853 c -2.785153,-0.92838 -3.846803,-1.77835 -3.464767,-2.77392 0.645365,-1.68179 2.226916,-1.80788 5.771734,-0.46014 2.486842,0.94549 2.5651,0.85397 2.5651,-3 C 84,112.66667 84.335409,112 86,112 c 1.664591,0 2,0.66667 2,3.97525 0,3.85397 0.07826,3.94549 2.5651,3 3.563413,-1.35481 5.126824,-1.22047 5.785947,0.49718 0.402084,1.04781 -0.565786,1.81123 -3.356239,2.64727 l -3.921265,1.17484 2.056597,2.88822 c 1.902302,2.67154 1.98423,5.82111 0.151245,5.81436 C 90.851623,131.99554 89.6,130.64684 88.5,129 c -1.1,-1.64684 -2.225,-2.99425 -2.5,-2.99425 -0.275,0 -1.4,1.34741 -2.5,2.99425 -2.222647,3.32758 -3.285871,3.72159 -4.127092,1.5294 z m 30.122872,0.46378 c -0.34224,-0.55376 0.30621,-2.31072 1.44099,-3.90437 1.13477,-1.59366 2.06323,-3.13069 2.06323,-3.41563 0,-0.28494 -1.575,-1.03787 -3.5,-1.67318 -1.9945,-0.65825 -3.5,-1.82073 -3.5,-2.70255 0,-1.51304 0.56765,-1.52187 7.0625,-0.10995 1.01112,0.21981 1.52956,-0.7998 1.74787,-3.4375 0.44782,-5.41089 3.18963,-5.13806 3.18963,0.31739 0,3.77079 0.16407,4.01338 2.25,3.32683 3.42305,-1.12665 6.00294,-1.02221 6.45058,0.26114 0.22164,0.63544 -1.19531,1.68284 -3.14879,2.32755 -1.95349,0.64471 -3.55179,1.40533 -3.55179,1.69027 0,0.28494 0.95533,1.85972 2.12296,3.49949 1.63385,2.29454 1.84999,3.25165 0.93815,4.15437 -0.90877,0.89968 -1.83093,0.38412 -3.9581,-2.21293 l -2.7733,-3.38589 -2.23295,3.13589 c -2.32644,3.26718 -3.54818,3.83253 -4.60098,2.12907 z M 457,105 V 90 h 7.5 7.5 v 15 15 h -7.5 -7.5 z m 30,-7.5 V 75 h 7.5 7.5 V 97.5 120 H 494.5 487 Z M 517,75.04381 V 30 h 7.5103 7.51029 l -0.26029,44.75 -0.2603,44.75 -7.25,0.29381 -7.25,0.29381 z m 30,11.582059 V 53.164118 l 7.12968,-0.332059 c 4.18461,-0.194895 7.2885,0.08437 7.51417,0.676065 0.21147,0.554468 0.26562,15.629468 0.12032,33.5 L 561.5,119.5 l -7.25,0.29381 -7.25,0.29381 z M 576.99028,119.75 c -0.005,-0.1375 -0.11785,-21.962502 -0.25,-48.500005 L 576.5,22.999989 l 7.25,6e-6 L 591,23 V 71.5 120 h -7 c -3.85,0 -7.00437,-0.1125 -7.00972,-0.25 z M 337,88.5 c 0,-29.833333 0.0437,-30.5 2,-30.5 1.95322,0 2,0.666667 2,28.5 V 115 h 28.5 c 27.83333,0 28.5,0.0468 28.5,2 0,1.95628 -0.66667,2 -30.5,2 H 337 Z"
         id="path2" />
    </g>
  </g>
</svg>
