<?xml version="1.0" encoding="UTF-8" standalone="no"?>
<!-- Created with Inkscape (http://www.inkscape.org/) -->

<svg
   version="1.1"
   id="svg1"
   width="578"
   height="450"
   viewBox="0 0 578 450"
   sodipodi:docname="BUSINESS_07.svg"
   inkscape:version="1.3.2 (091e20e, 2023-11-25, custom)"
   xmlns:inkscape="http://www.inkscape.org/namespaces/inkscape"
   xmlns:sodipodi="http://sodipodi.sourceforge.net/DTD/sodipodi-0.dtd"
   xmlns="http://www.w3.org/2000/svg"
   xmlns:svg="http://www.w3.org/2000/svg">
  <defs
     id="defs1" />
  <sodipodi:namedview
     id="namedview1"
     pagecolor="#ffffff"
     bordercolor="#000000"
     borderopacity="0.25"
     inkscape:showpageshadow="2"
     inkscape:pageopacity="0.0"
     inkscape:pagecheckerboard="0"
     inkscape:deskcolor="#d1d1d1"
     showgrid="false"
     inkscape:zoom="1.7318339"
     inkscape:cx="289"
     inkscape:cy="224.90609"
     inkscape:window-width="1920"
     inkscape:window-height="1001"
     inkscape:window-x="-9"
     inkscape:window-y="-9"
     inkscape:window-maximized="1"
     inkscape:current-layer="g1" />
  <g
     inkscape:groupmode="layer"
     inkscape:label="Image"
     id="g1">
    <g
       id="g2"
       transform="translate(0,0.07399662)">
      <path
         style="fill:#fefefe"
         d="M 0,225 V 0 H 289 578 V 225 450 H 289 0 Z"
         id="path5" />
      <path
         style="fill:#cdcac7"
         d="m 343,448.16551 c -3.025,-1.00844 -7.96234,-3.0914 -10.97187,-4.6288 -10.91353,-5.57509 -15.23831,-11.34966 -47.95935,-64.03671 -16.73717,-26.95 -30.90095,-49.77634 -31.47506,-50.72519 -0.8008,-1.32353 -0.62862,-2.0288 0.73953,-3.02922 1.65749,-1.21199 0.88972,-3.2144 -10.87771,-28.36997 l -12.66107,-27.06595 -17.90271,-14.7054 C 191.97905,239.24784 190,236.71479 190,227.58425 c 0,-4.19707 -0.58441,-6.3566 -2.47356,-9.14042 -3.43869,-5.0672 -4.06661,-9.49619 -2.16888,-15.29816 1.49763,-4.57872 1.47675,-5.04777 -0.38732,-8.70404 -2.85384,-5.59764 -2.52606,-11.99038 1.08029,-21.06883 l 3.05053,-7.67927 -7.55053,-17.3685 C 175.58903,134.61178 174,129.93997 174,126.12615 174,117.66623 180.78621,111 189.39841,111 c 2.16129,0 27.81831,2.03026 57.0156,4.51169 57.9949,4.92889 59.07196,5.12433 63.07605,11.44566 1.2342,1.94846 9.16634,19.41634 17.62697,38.81751 l 15.38297,35.27486 3.76313,1.01722 c 6.05605,1.63702 9.96432,6.00934 21.66718,24.2398 10.55803,16.44707 11.60474,17.70767 24.11745,29.04584 7.19423,6.51892 13.18882,11.69392 13.32131,11.5 0.1325,-0.19392 5.82618,-9.35258 12.65263,-20.35258 6.82645,-11 14.10104,-21.83604 16.16576,-24.08009 l 3.75403,-4.08009 -5.47075,-20.81515 C 429.46183,186.07634 427,176.66238 427,176.60476 c 0,-0.0576 -3.9375,-0.10937 -8.75,-0.11501 -7.6589,-0.009 -9.4676,-0.37242 -14.50479,-2.91461 -10.86605,-5.48393 -20.67799,-18.54097 -24.25612,-32.27833 -2.05194,-7.87795 -1.88187,-10.02829 1.00475,-12.70352 3.2562,-3.01775 6.10774,-9.76647 6.9321,-16.40617 0.56866,-4.5802 0.27482,-6.09717 -2.13071,-11 -2.15133,-4.384722 -2.87301,-7.475305 -3.15132,-13.495501 -0.32931,-7.123176 -0.0845,-8.369966 2.78955,-14.208026 1.82432,-3.705712 4.9219,-7.940725 7.35854,-10.060601 5.2641,-4.579764 14.6505,-9.143414 20.63979,-10.035032 3.03118,-0.451247 5.97951,-1.833773 8.76271,-4.108998 10.08925,-8.247792 25.01399,-10.213465 37.3055,-4.913345 1.08863,0.469417 2.2985,-0.883705 4.4116,-4.933901 C 475.55387,16.15841 504.43403,9.0997756 528.5,23.52338 c 12.85149,7.702358 21.36609,19.809447 23.75996,33.784773 3.10819,18.145469 -7.25517,38.739951 -23.81599,47.328087 -4.51698,2.34242 -5.41764,3.22786 -4.94737,4.86376 0.31621,1.1 0.8395,5.15 1.16287,9 1.11058,13.22273 -4.09922,26.06861 -14.41181,35.53541 C 505.16532,158.70091 495.7602,164 492.56193,164 491.70287,164 491,164.62164 491,165.38142 c 0,0.75978 2.25,8.68814 5,17.61858 2.75,8.93044 5,16.35128 5,16.49077 0,0.13949 1.6875,0.52645 3.75,0.85992 10.33624,1.67118 24.02965,11.27548 29.53809,20.71746 2.07865,3.563 41.93141,105.46923 43.38243,110.93185 0.96692,3.6401 -89.44769,78.37313 -98.58537,81.48665 -11.2938,3.84819 -20.32815,1.16831 -31.25512,-9.27125 C 443.52351,400.10098 440,396.42055 440,396.03667 c 0,-0.38387 9.90131,-13.93275 22.0029,-30.10861 12.1016,-16.17586 21.87785,-29.78582 21.725,-30.24435 -0.15284,-0.45854 -0.63906,-0.82617 -1.08049,-0.81696 -1.17477,0.0245 -45.58493,59.42533 -45.06158,60.27213 0.60059,0.97177 -44.79817,42.25549 -51.12496,46.49088 -8.28943,5.54925 -15.54332,7.67401 -27.46087,8.04363 -8.17604,0.25358 -11.71731,-0.0802 -16,-1.50788 z m 7.51271,-90.78246 C 354.63072,351.06729 358,345.16702 358,344.27133 c 0,-0.89568 4.725,-9.20144 10.5,-18.45724 5.775,-9.2558 10.5,-17.01867 10.5,-17.25083 0,-0.23216 -2.32415,-4.07356 -5.16477,-8.53645 -3.66773,-5.76236 -5.60108,-7.9469 -6.67007,-7.53669 -3.43967,1.31992 -10.88566,2.46457 -33.04669,5.08018 l -23.38153,2.75966 6.88153,6.60815 c 3.78484,3.63448 14.01123,13.41051 22.72531,21.72452 l 15.84377,15.11637 -8.13395,12.14099 c -4.47367,6.67755 -7.85977,12.58461 -7.52467,13.12681 1.01991,1.65026 2.20711,0.26328 9.98378,-11.66375 z m -74.41613,-51.02426 c 9.36155,-8.05266 16.65705,-14.9552 16.21221,-15.33897 -0.44483,-0.38376 -7.78379,-6.24787 -16.30879,-13.03135 -8.525,-6.78348 -16.04641,-12.81845 -16.71424,-13.41104 -0.72637,-0.64452 -1.85148,-7.90794 -2.80022,-18.07743 -2.19263,-23.50264 -3.93393,-29.31462 -14.44067,-48.19908 -4.8056,-8.63744 -9.48163,-16.17384 -10.39117,-16.74756 -2.27219,-1.43326 -4.91337,0.36965 -5.97759,4.0804 -0.68337,2.38274 0.11319,5.3119 4.29483,15.7934 3.66818,9.19448 4.82623,13.17567 4.05647,13.94543 -1.43185,1.43185 -2.38015,0.79727 -19.92885,-13.33596 L 199.5,190.27936 195.86985,180.38968 192.2397,170.5 l -1.73042,4 c -3.84103,8.87882 -3.74508,16.2873 0.26919,20.78365 1.45774,1.63281 1.44946,2.18253 -0.098,6.5 -2.42292,6.76018 -2.13278,10.29192 1.22648,14.92925 2.48075,3.42457 2.88865,4.87615 2.78193,9.90003 -0.0874,4.1146 0.4248,6.7903 1.70123,8.88707 1.00446,1.65 9.78775,9.58099 19.51843,17.62442 l 17.69215,14.62441 12.44964,26.58744 c 6.8473,14.62309 12.57914,26.60461 12.73743,26.62559 0.15828,0.021 7.94724,-6.5504 17.30879,-14.60307 z m 116.7734,-19.4932 C 397.89149,278.81666 402,271.76551 402,271.19637 c 0,-0.56915 -6.0821,-6.54693 -13.51577,-13.28398 -13.05515,-11.83172 -13.89518,-12.84135 -24.649,-29.62541 -9.79199,-15.28288 -15.25538,-22.20016 -16.52853,-20.92702 -0.21338,0.21339 0.56603,2.00488 1.73202,3.9811 1.166,1.97621 1.83273,4.05793 1.48162,4.62603 -1.38674,2.24379 -3.51498,0.78573 -6.52034,-4.46709 -2.18286,-3.81525 -3.76605,-5.5 -5.16841,-5.5 -1.93672,0 -1.91052,0.18959 0.62375,4.51401 1.45496,2.4827 2.37116,4.9577 2.036,5.5 -1.37258,2.22088 -3.54112,0.66567 -6.99134,-5.01401 -2.91857,-4.80448 -4.15143,-6 -6.18741,-6 -2.39257,0 -2.45847,0.13277 -1.11681,2.25 5.69593,8.98855 5.87732,9.44444 4.28394,10.76683 -1.90534,1.58129 -1.40818,2.13088 -9.88089,-10.92293 -7.63219,-11.75884 -21.0114,-26.5333 -23.24976,-25.67436 -0.78934,0.3029 -1.34907,2.02416 -1.34907,4.14863 0,3.03498 2.29788,6.96302 14,23.93183 18.43898,26.73769 18.43074,28.78799 -0.0644,16 -5.96593,-4.125 -11.71891,-7.5 -12.7844,-7.5 -4.46698,0 -3.06522,3.13522 5.7178,12.78858 17.16753,18.86872 21.05424,21.53617 38.6448,26.52193 l 11.98618,3.3973 4,6.10928 c 2.2,3.3601 8.275,13.07421 13.5,21.58691 7.16028,11.66569 9.77584,15.18434 10.61998,14.28681 0.61598,-0.65495 5.22848,-7.7763 10.25,-15.82522 z m 53.18574,-75.48543 c 4.81035,-3.65893 18.37632,-9.89008 24.94428,-11.45747 3.025,-0.72189 9.86524,-1.33732 15.20052,-1.36761 9.19019,-0.0522 9.67381,-0.1603 9.19265,-2.05508 -0.27934,-1.1 -2.43573,-8.3 -4.79198,-16 l -4.2841,-14 -5.61795,-0.70897 C 470.16291,164.4614 462.2253,158.22553 457.57639,147.62557 454.82718,141.35709 454.39469,139 455.99373,139 c 0.54655,0 2.34655,-1.86752 4,-4.15004 2.43609,-3.36293 3.00627,-5.14921 3.00627,-9.41821 0,-8.29593 -0.24935,-8.56181 -7.36322,-7.85151 -12.1558,1.21373 -27.91314,-4.80397 -37.38734,-14.27817 C 412.56888,97.621516 408.7795,89.326774 408.06093,81 L 407.5,74.5 403.36639,80 c -4.08748,5.438613 -6.52691,9.661798 -8.34863,14.453279 -0.87257,2.29503 -0.7755,2.405114 1.3935,1.580458 C 401.95544,93.925844 412,99.752667 412,105.07673 c 0,2.55328 -3.66196,2.56371 -4.47161,0.0127 -1.07817,-3.39702 -5.28095,-5.353654 -9.98441,-4.64833 l -4.23124,0.63452 -1.10111,8.94304 c -1.15055,9.34456 -3.85631,16.90974 -7.39527,20.67679 -1.68467,1.79324 -1.98817,3.08788 -1.57767,6.72984 0.71717,6.36264 6.61821,18.14545 12.15704,24.27432 10.21635,11.30469 23.29971,13.769 37.68921,7.09893 4.38128,-2.03089 9.62825,-5.47374 12.42265,-8.15125 2.66075,-2.54944 5.0133,-4.45977 5.2279,-4.24517 0.21459,0.2146 -0.10715,3.24941 -0.71499,6.74402 -1.39843,8.03984 -5.79265,17.19105 -10.92348,22.74874 l -3.98547,4.31704 3.16162,11.89403 c 1.73889,6.54171 3.42636,11.89402 3.74994,11.89402 0.32358,0 2.13826,-1.17893 4.03261,-2.61984 z m -51.62419,-57.49094 c -0.37757,-0.61093 0.45348,-2.07343 1.84678,-3.25 1.39331,-1.17657 3.04151,-3.15172 3.66267,-4.38922 1.55901,-3.10592 4.05902,-2.90456 4.05902,0.32692 0,1.51485 -1.20475,3.78167 -2.92308,5.5 -3.04581,3.04581 -5.4738,3.70796 -6.64539,1.8123 z m 1.08124,-35.86855 c -0.8588,-1.38958 1.28441,-5.02067 2.9634,-5.02067 1.94448,0 2.77224,1.64198 2.02099,4.00895 -0.65517,2.06424 -3.92385,2.72771 -4.98439,1.01172 z M 527.5,100.11257 C 534.20734,96.26434 541.55977,88.207198 544.74043,81.219671 546.9355,76.397367 547.38251,73.85264 547.58963,65 l 0.24565,-10.5 -0.81559,8 c -0.44857,4.4 -1.54946,10.005789 -2.44642,12.457308 -3.5813,9.788207 -12.03785,19.688246 -20.50918,24.009994 -2.2741,1.160158 -3.86728,2.542128 -3.54039,3.071038 0.86688,1.40264 1.46066,1.23873 6.9763,-1.92577 z m -433,290.61686 c -2.635454,-1.47431 -4.779765,-3.77137 -6.285785,-6.73355 -2.261398,-4.44791 -2.282736,-4.84263 -2,-36.99588 0.280789,-31.93183 0.326001,-32.56468 2.586192,-36.19959 1.265223,-2.03478 3.965223,-4.73478 6,-6 3.644978,-2.26645 4.194131,-2.30413 37.199593,-2.55223 18.425,-0.1385 34.19618,-0.251 35.04707,-0.25 0.85088,0.001 6.70088,-6.75761 13,-15.01915 L 191.5,271.95807 l 0.27539,14.89986 0.2754,14.89986 8.72561,0.41718 c 10.61154,0.50734 15.7871,2.96545 19.35571,9.19292 2.31062,4.03218 2.37583,4.80927 2.69612,32.13211 0.18052,15.4 0.0385,30.33979 -0.31565,33.19954 -0.7426,5.99667 -3.62037,10.78259 -8.43426,14.02666 L 210.70423,393 154.60212,392.98355 98.5,392.9671 Z M 68.905925,279.99119 C 45.643268,277.32925 21.590961,266.10036 10.7109,252.82268 -9.3323686,228.36251 0.28488737,198.73246 33.659569,182.11954 56.236946,170.8812 86.169231,168.1519 112.12079,174.96526 l 6.9959,1.83672 28.10127,-11.40804 c 15.4557,-6.27442 28.24695,-11.26236 28.42499,-11.08432 0.17805,0.17804 -6.16296,8.04932 -14.09112,17.49171 -7.92816,9.4424 -14.67182,17.58379 -14.9859,18.09199 -0.31408,0.50819 1.7926,3.3455 4.68151,6.30514 10.32043,10.5731 15.12999,24.12282 12.788,36.02694 -4.37906,22.25835 -26.19829,39.47422 -58.53544,46.1858 -9.158878,1.90093 -27.04188,2.67305 -36.594075,1.57999 z M 124,132.15977 98.5,117.51944 77,116.96631 C 51.461222,116.30927 47.657956,115.28108 38.127133,106.45722 27.698588,96.802224 23.222207,84.619003 24.257292,68.708121 25.4436,50.472704 35.236215,36.908516 51.70117,30.694382 c 5.598573,-2.11299 7.343168,-2.19925 50.51818,-2.497824 28.30217,-0.195721 46.80267,0.07587 50.39418,0.739797 13.27244,2.453542 24.8764,11.151911 30.66955,22.989986 C 186.43942,58.376212 186.5,58.763632 186.5,72.5 c 0,13.669718 -0.0753,14.159025 -3.19313,20.740752 -4.14897,8.758538 -11.34933,15.948288 -20.04882,20.019268 -5.51571,2.58111 -8.29832,3.22157 -15.49075,3.56545 -4.82201,0.23054 -8.7673,0.73207 -8.7673,1.1145 0,0.38244 2.69863,6.96489 5.99696,14.62768 3.29832,7.66279 5.99832,14.04485 6,14.18235 0.01,0.78525 -3.84285,-1.29675 -26.99696,-14.59023 z M 83.25,78.226732 C 84.335838,77.273238 85,75.258306 85,72.917593 85,64.117589 72.667083,62.221675 70.540475,70.694759 68.618784,78.351383 77.269712,83.478132 83.25,78.226732 Z m 28.60418,0.419933 c 4.26938,-3.356012 3.16631,-10.567109 -1.93997,-12.682199 -6.30701,-2.612451 -12.636976,3.670122 -9.75458,9.681558 2.27359,4.741748 7.70627,6.135689 11.69455,3.000641 z m 27.46156,1.189992 c 6.90333,-3.676732 5.73034,-12.895977 -1.83152,-14.395098 -8.8842,-1.761271 -12.04324,11.701907 -3.48422,14.849006 2.31836,0.852445 2.96696,0.797062 5.31574,-0.453908 z M 257.77673,83.359176 257.5,68.718351 253.28604,67.475318 C 243.62383,64.62516 236.03466,58.234387 231.34623,49 c -2.43272,-4.791522 -2.79589,-6.659328 -2.81932,-14.5 -0.0235,-7.8601 0.327,-9.720681 2.76733,-14.690087 C 234.89148,12.484608 243.21755,4.810599 250.54085,2.070599 255.78981,0.10671364 258.08112,0 295,0 c 46.22551,0 46.15917,-0.01227964 56.66827,10.488164 5.35506,5.350651 6.45977,7.122891 8.37935,13.442697 5.13966,16.921211 -2.03808,33.505089 -17.87933,41.309454 L 335.5518,68.5 311.94916,68.813926 288.34651,69.127852 273.93619,83.563926 C 266.01051,91.503767 259.19458,98 258.78967,98 c -0.40491,0 -0.86073,-6.588371 -1.01294,-14.640824 z M 310.6362,64 h 24.04436 l 6.11965,-3.058028 C 351.37491,55.657734 356.97403,46.512648 356.98944,34.5 357.00523,22.192729 350.34071,11.829494 339.05081,6.6056563 334.66669,4.5771266 333.05318,4.5 295,4.5 h -39.5 l -5.71444,2.8061504 c -6.83647,3.3571366 -13.03973,10.0567336 -15.21046,16.4274586 -6.20217,18.202387 5.03545,37.521678 23.34535,40.134435 l 4.57955,0.653486 0.27971,11.505441 0.27972,11.50544 11.7662,-11.766205 L 286.59184,64 Z M 259,40 c 0,-1.964912 0.66667,-2 38,-2 37.33333,0 38,0.03509 38,2 0,1.964912 -0.66667,2 -38,2 -37.33333,0 -38,-0.03509 -38,-2 z m 0,-11.487975 V 26 h 38.06955 38.06955 L 334.81955,28.25 334.5,30.5 296.75,30.762025 259,31.02405 Z"
         id="path4" />
      <path
         style="fill:#62deab"
         d="m 349,449.30962 c -10.84367,-1.81315 -25.61878,-10.21067 -31.53718,-17.92435 -1.62955,-2.12386 -17.00064,-26.35874 -34.15797,-53.85529 -29.06095,-46.57344 -31.08579,-50.11455 -29.59678,-51.7599 1.48323,-1.63894 0.70485,-3.68745 -10.80485,-28.43575 L 230.5,270.66475 214.02886,257.08238 c -9.05913,-7.47031 -17.67779,-14.87216 -19.15257,-16.44857 -3.24891,-3.47277 -5.3403,-10.38704 -4.57265,-15.11748 0.31057,-1.91383 0.13787,-3.74346 -0.38377,-4.06586 -0.52165,-0.32239 -1.84202,-2.33771 -2.93416,-4.47848 -2.29538,-4.49932 -2.57877,-12.27375 -0.57896,-15.88293 1.16034,-2.09412 1.08549,-2.83533 -0.56957,-5.64045 -3.45358,-5.85339 -3.43511,-11.95052 0.0628,-20.72464 1.705,-4.27682 3.10001,-8.24628 3.10001,-8.82102 0,-0.57474 -3.375,-8.92966 -7.5,-18.56649 -7.7745,-18.16279 -8.66458,-22.18372 -6.03592,-27.267 1.91962,-3.71214 6.78441,-7.74549 10.26391,-8.50972 2.38467,-0.52376 100.85912,7.30535 113.11951,8.99345 8.16157,1.12375 9.44926,3.19046 27.07016,43.44681 8.78718,20.075 16.56295,36.79166 17.27951,37.14813 0.71656,0.35648 3.19063,1.42618 5.49794,2.37713 5.54452,2.28514 6.29301,3.19069 18.81393,22.76203 10.22718,15.98601 11.35699,17.34636 23.66999,28.5 7.1116,6.44199 13.28273,11.83842 13.71364,11.99206 0.4309,0.15365 6.09648,-8.32258 12.59018,-18.83607 6.4937,-10.51349 13.81457,-21.58027 16.26861,-24.59286 l 4.46188,-5.47742 -5.45027,-20.6865 -5.45027,-20.6865 -8.53332,-0.0724 c -9.45084,-0.0802 -15.68207,-2.37395 -23.05714,-8.48736 -8.30404,-6.88347 -16.65528,-23.28879 -16.70125,-32.80819 -0.0166,-3.43653 0.61297,-5.09015 2.95227,-7.75446 3.0606,-3.48583 5.77894,-11.21361 6.11276,-17.37756 0.11249,-2.07713 -0.92353,-5.8614 -2.54843,-9.30862 -3.53715,-7.504066 -4.29491,-15.574807 -2.15382,-22.93991 3.07771,-10.586926 15.74148,-21.105408 28.71517,-23.8507 3.21183,-0.679639 7.33872,-2.556116 10.18176,-4.629595 9.68334,-7.062249 22.02707,-9.204875 33.31027,-5.781999 2.69991,0.819046 4.99504,1.494046 5.10029,1.5 0.10525,0.006 1.62732,-2.683325 3.38239,-5.976175 9.28555,-17.421476 30.07386,-26.511642 49.22306,-21.523911 12.24595,3.189666 23.48319,10.489633 30.20683,19.623052 16.39188,22.266791 8.54192,55.568773 -15.92757,67.569738 -3.00798,1.47525 -5.28903,2.97354 -5.06901,3.32954 0.22002,0.356 0.86282,3.54421 1.42845,7.0849 1.20493,7.54255 0.004,16.99041 -3.03083,23.85208 -4.7916,10.83221 -15.94653,21.07162 -26.27938,24.12254 -3.82164,1.1284 -4.47499,1.67613 -4.04076,3.38755 0.28489,1.12283 2.65841,8.95911 5.27448,17.41395 l 4.75649,15.37243 7.96293,2.67175 c 12.27202,4.11755 21.53419,11.50335 26.40916,21.05907 1.14082,2.23619 11.10718,27.56897 22.14748,56.29506 11.04029,28.72609 20.25397,52.52796 20.47483,52.89305 0.8275,1.36785 -31.02372,28.96399 -62.23648,53.92216 -27.98516,22.37732 -33.07973,26.0635 -37.99771,27.49319 -10.80588,3.14136 -19.39847,0.22549 -30.48247,-10.34412 l -7.30331,-6.96438 22.20287,-29.62884 c 12.21158,-16.29587 22.31634,-30.13801 22.45503,-30.76033 0.13869,-0.62231 -0.28322,-1.32869 -0.93757,-1.56972 -1.26577,-0.46626 -46.30284,58.7665 -46.32087,60.92121 -0.01,1.18615 -5.22251,6.07284 -36.90475,34.59741 -13.75757,12.3864 -21.90373,17.16962 -32.51831,19.09392 -5.81509,1.0542 -13.59977,1.21577 -18.56634,0.38532 z m 1.90396,-91.78399 c 4.53517,-6.86091 7.996,-12.87848 7.69075,-13.37238 -0.30525,-0.4939 4.39414,-8.85451 10.44308,-18.57912 9.42487,-15.15196 10.79789,-17.8813 9.59862,-19.08057 -0.7697,-0.7697 -3.31812,-4.50876 -5.66315,-8.30902 l -4.2637,-6.90956 -3.60478,1.34226 c -1.98263,0.73824 -14.80426,2.68835 -28.49251,4.33357 -13.68825,1.64522 -25.06626,3.16985 -25.28446,3.38805 -0.21821,0.21821 9.51877,9.97108 21.63772,21.67305 C 345.08449,333.71387 355,343.68213 355,344.16358 c 0,0.48145 -3.375,5.9261 -7.5,12.09921 -4.125,6.17311 -7.5,11.78935 -7.5,12.48053 0,3.59168 3.48394,0.007 10.90396,-11.21769 z M 276,306.87364 c 9.075,-7.76673 16.62765,-14.44855 16.78367,-14.84848 0.15601,-0.39993 -7.41784,-6.92712 -16.83078,-14.50485 -9.41293,-7.57774 -17.27487,-14.28229 -17.47096,-14.89901 -0.19609,-0.61671 -1.05719,-8.90934 -1.91354,-18.42805 -1.14753,-12.75512 -2.23394,-19.33005 -4.13089,-25 -2.8664,-8.5676 -18.71757,-37.70301 -20.98597,-38.57348 -2.18638,-0.83899 -4.0518,0.2075 -5.31608,2.98229 -1.77588,3.89764 -1.43751,5.66927 3.36455,17.61593 4.73605,11.78243 5.10701,13.28882 3.5148,14.27286 -0.54185,0.33489 -8.16677,-5.15106 -16.94425,-12.19098 L 200.1115,190.5 196.14511,180 c -3.58714,-9.49603 -4.05919,-10.26096 -4.9369,-8 -0.53378,1.375 -1.69899,4.24246 -2.58936,6.37212 -2.25614,5.39645 -2.00162,10.41641 0.77423,15.27052 l 2.369,4.14264 -1.84881,5.47635 c -2.12524,6.2952 -1.56927,9.70068 2.44235,14.96019 2.066,2.70866 2.41878,4.04126 1.96517,7.42315 -1.12094,8.35723 0.2883,10.21173 20.44095,26.89956 l 18.54445,15.35612 12.47748,26.54968 c 6.86262,14.60232 12.75623,26.54854 13.09691,26.54715 0.34068,-10e-4 8.04442,-6.35711 17.11942,-14.12384 z m 116.877,-19.46199 c 8.68639,-13.884 10.15266,-16.79422 9,-17.86294 -0.75735,-0.70219 -7.002,-6.37229 -13.877,-12.60023 -11.87467,-10.75704 -13.07904,-12.21901 -24.0747,-29.22374 -7.46532,-11.5451 -12.70202,-18.614 -14.75,-19.91068 -3.71137,-2.34988 -3.8764,-2.0123 -1.17904,2.41177 2.16652,3.55342 2.6232,6.77417 0.96053,6.77417 -0.57377,0 -2.71127,-2.69505 -4.75,-5.98899 -2.81561,-4.54912 -4.27058,-5.99164 -6.05181,-6 l -2.34502,-0.011 2.59502,4.42807 c 2.65244,4.52604 3.32325,7.57193 1.6676,7.57193 -1.17994,0 -4.00941,-3.59459 -6.54998,-8.32116 C 331.87481,205.61323 331.00926,205 328.33008,205 h -3.21511 l 3.44251,5.2272 c 3.73687,5.67415 4.26646,7.7728 1.96142,7.7728 -0.8146,0 -4.44349,-4.56504 -8.06419,-10.14453 -7.29792,-11.24607 -21.02314,-26.83536 -23.63732,-26.8476 -2.04999,-0.01 -3.21996,3.25204 -2.37464,6.62003 0.34283,1.36596 6.69079,11.21577 14.10657,21.88848 7.41579,10.6727 13.7316,20.0521 14.03514,20.84311 1.48052,3.85818 -2.69464,2.23605 -13.72453,-5.33222 -7.03746,-4.82883 -12.56317,-7.97139 -13.43095,-7.63839 -4.5424,1.74308 -2.02715,5.5701 15.21088,23.14377 10.3036,10.50422 16.44698,13.95391 31.73541,17.8204 5.43139,1.37361 10.19228,2.86861 10.57975,3.32222 0.38748,0.4536 6.44508,10.16223 13.46134,21.57473 7.01627,11.4125 13.05538,20.74952 13.42024,20.74894 0.36487,-5.8e-4 5.33305,-7.46486 11.0404,-16.58729 z m 53.11955,-75.40892 c 5.08684,-4.02885 17.03463,-9.57477 25.00345,-11.60609 3.62124,-0.92309 10.59669,-1.67954 15.75,-1.70802 5.8763,-0.0325 9.24361,-0.44092 9.23247,-1.11987 -0.01,-0.58781 -2.16931,-8.04375 -4.79926,-16.56875 l -4.78174,-15.5 -5.95073,-0.52722 c -10.97975,-0.97277 -17.26677,-5.91869 -22.58176,-17.7648 l -2.89611,-6.45488 3.93638,-4.27048 c 4.29731,-4.66202 5.86001,-10.4683 4.30157,-15.98262 l -0.84785,-3 -11.12517,-0.53751 c -10.65409,-0.51476 -11.48594,-0.72045 -19.64532,-4.85763 C 417.50055,104.95959 409.7637,94.600085 408.33895,80.9688 l -0.66469,-6.359394 -3.60715,4.064747 c -3.58391,4.038563 -8.26078,11.901859 -9.47539,15.931116 -0.59837,1.985018 -0.3483,2.077757 4.37809,1.62361 4.7951,-0.460748 5.19072,-0.303644 9.11336,3.618996 2.25536,2.255365 3.9095,4.674735 3.67588,5.376385 -0.59445,1.78531 -3.75905,2.22592 -3.75905,0.52338 0,-0.76946 -1.05301,-2.38827 -2.34003,-3.59736 -1.84093,-1.72946 -3.40868,-2.160516 -7.35045,-2.021 l -5.01042,0.17734 -1.21918,8.09669 c -1.92487,12.78329 -3.0496,16.20128 -6.75617,20.53156 -3.46817,4.05178 -3.46825,4.05211 -2.32251,9.5711 2.6568,12.79772 12.60025,26.65865 22.68679,31.62482 3.87104,1.90593 6.37629,2.36332 12.81197,2.3391 6.83702,-0.0257 8.97443,-0.48598 14.70302,-3.16598 3.68666,-1.72473 8.97416,-5.26026 11.75,-7.85673 L 450,156.72632 l -0.0119,2.88684 c -0.0326,7.94048 -4.84087,19.10203 -11.20148,26.00247 l -4.07127,4.4168 3.28889,12.48379 c 1.80892,6.86608 3.4957,12.48378 3.74844,12.48378 0.25273,0 2.16247,-1.34877 4.24387,-2.99727 z m -51.45911,-57.94215 c -0.31932,-0.51668 1.42228,-3.00022 3.87024,-5.51898 4.69441,-4.83019 6.6979,-4.62493 4.58751,0.47001 -1.7565,4.24057 -7.01666,7.3807 -8.45775,5.04897 z M 396,116.46862 c 0,-2.83775 2.75168,-4.48844 4.03115,-2.41822 C 401.08204,115.75077 399.39733,119 397.46482,119 396.56417,119 396,118.02505 396,116.46862 Z M 536.5,93.456685 c 9.46349,-9.56238 13.77501,-22.968921 11.5772,-35.998982 -0.6503,-3.855399 -1.65115,-7.673091 -2.22411,-8.48376 -0.89138,-1.261179 -0.96918,-1.24396 -0.53897,0.119286 2.72386,8.6313 0.93098,22.98064 -4.01567,32.139477 -3.43598,6.36181 -11.68596,14.671188 -17.18131,17.305018 -3.87454,1.856996 -4.93231,3.313776 -3.4688,4.777286 1.20542,1.20542 10.81976,-4.773847 15.85166,-9.858325 z M 112,355.98915 c 0,-1.98685 0.5042,-2.00774 42.23649,-1.75 39.31066,0.24278 42.25982,0.38208 42.57332,2.01085 0.31654,1.64454 -2.22881,1.75 -42.23649,1.75 C 112.59008,358 112,357.97213 112,355.98915 Z M 112,336 c 0,-1.96863 0.66667,-2 42.5,-2 41.83333,0 42.5,0.0314 42.5,2 0,1.96863 -0.66667,2 -42.5,2 -41.83333,0 -42.5,-0.0314 -42.5,-2 z M 66,279.33944 C 23.341679,272.71551 -4.4276619,246.58501 1.4898516,218.63643 5.7116206,198.6969 25.927107,182.01421 54.625466,174.78663 62.236902,172.86971 66.204239,172.54793 82.5,172.5258 c 16.743108,-0.0227 20.04292,0.25004 27.77999,2.29643 l 8.78,2.32224 27.56708,-11.14182 c 15.1619,-6.128 27.70714,-10.99801 27.87831,-10.82224 0.17117,0.17578 -6.36747,8.24288 -14.53031,17.92691 l -14.84153,17.60732 4.55253,4.39268 c 10.14048,9.78442 14.73067,20.39984 14.16675,32.76249 -1.09762,24.06261 -25.85876,44.52542 -61.23381,50.60412 -8.057721,1.3846 -29.944551,1.90191 -36.61901,0.86551 z M 123.09381,131.41317 97.687614,117 H 79.553906 C 60.375563,117 53.873704,116.01686 45.794868,111.89535 39.762925,108.81808 31.815332,100.3947 28.438572,93.5 25.597516,87.69911 25.5,87.01812 25.5,72.978973 25.5,58.632215 25.53881,58.379116 28.733628,51.889514 32.680803,43.871664 40.726334,35.954813 48.747356,32.195887 L 54.5,29.5 h 51.05186 51.05187 l 7.63281,3.772343 c 15.13702,7.481121 22.724,20.575677 22.75159,39.267558 0.0203,13.767504 -3.1926,22.598959 -11.39202,31.313589 -7.87519,8.37001 -16.02774,12.05343 -28.77574,13.00121 l -8.67964,0.6453 5.92964,13.8412 c 3.2613,7.61266 5.92963,14.02516 5.92963,14.25 0,0.97239 -2.81703,-0.51202 -26.90619,-14.17803 z M 81.385358,79.87028 C 88.709814,76.533035 86.016233,65 77.912352,65 c -7.119415,0 -10.532499,8.470762 -5.457807,13.545455 2.690479,2.690478 5.136999,3.053403 8.930813,1.324825 z M 112.54545,78.545455 C 114.09269,76.998217 115,74.948373 115,73 115,71.051627 114.09269,69.001783 112.54545,67.454545 110.99822,65.907308 108.94837,65 107,65 c -1.94837,0 -3.99822,0.907308 -5.54545,2.454545 C 99.907308,69.001783 99,71.051627 99,73 c 0,1.948373 0.907308,3.998217 2.45455,5.545455 C 103.00178,80.092692 105.05163,81 107,81 c 1.94837,0 3.99822,-0.907308 5.54545,-2.454545 z m 29,0 C 146.48763,73.603276 143.31367,65 136.54819,65 c -11.10762,0 -10.86544,15.604667 0.24726,15.93232 1.2625,0.03722 3.4,-1.036865 4.75,-2.386865 z M 259,82.973716 V 68.473302 l -5.25,-1.245228 c -9.44886,-2.24114 -19.38451,-10.905941 -22.82147,-19.902413 -6.74866,-17.665106 0.7503,-36.125048 17.95146,-44.1904957 L 254.5,0.5 h 40.5 40.5 l 6,2.8073756 C 353.84546,9.0837664 361.28494,20.860216 361.20517,34.5 361.13821,45.949799 356.31921,55.559139 347.45,61.928526 339.2025,67.85143 336.73336,68.313107 311,68.743911 L 287.5,69.137327 273.25,83.305728 259,97.47413 Z m 51.5,-18.1737 c 22.04277,-0.275549 24.37696,-0.474317 28.6224,-2.437344 11.4083,-5.275021 18.29468,-15.734067 18.30661,-27.804119 0.009,-9.475564 -2.90364,-15.963763 -10.13416,-22.572054 -8.75693,-8.0033433 -9.61617,-8.1261232 -54.45495,-7.7813237 -37.59123,0.2890676 -38.43026,0.3393428 -42.96718,2.574625 -6.12733,3.0188488 -11.29927,8.1752567 -14.57655,14.5327707 -3.6303,7.042307 -3.82682,17.774011 -0.46306,25.28625 4.15518,9.27968 13.38975,16.187063 23.91689,17.889621 l 4.25,0.687354 v 11.64647 11.64647 L 274.75,76.784384 286.5,65.100031 Z M 259,40 c 0,-1.964444 0.66667,-2 37.5,-2 36.83333,0 37.5,0.03556 37.5,2 0,1.964444 -0.66667,2 -37.5,2 C 259.66667,42 259,41.96444 259,40 Z m 0.19014,-11.75 c 0.31247,-1.62365 3.02525,-1.768929 37.57332,-2.012171 C 333.49527,25.979211 334,26.002932 334,27.987829 334,29.968355 333.40909,30 296.42668,30 261.18092,30 258.87421,29.891592 259.19014,28.25 Z"
         id="path3" />
      <path
         style="fill:#080713"
         d="m 349,449.04546 c -5.75439,-1.06686 -13.81417,-4.15319 -19.2449,-7.36944 -8.89875,-5.27014 -13.58936,-11.76153 -45.81095,-63.39843 -27.64826,-44.3079 -31.51074,-50.97874 -30.31476,-52.35633 0.75384,-0.86831 1.37061,-1.93412 1.37061,-2.36848 0,-0.43435 -5.65998,-12.77392 -12.57773,-27.42126 L 229.84454,269.5 l -16.01309,-13 c -8.8072,-7.15 -17.30329,-14.45659 -18.88019,-16.23687 -3.33417,-3.76418 -5.3423,-10.20623 -4.44914,-14.27276 0.46639,-2.12348 -0.0617,-3.8788 -2.08808,-6.9409 -3.30892,-5.00011 -4.2176,-12.10896 -2.17976,-17.05278 1.32,-3.20237 1.2686,-3.83063 -0.61076,-7.4641 -2.99509,-5.79055 -2.64819,-12.47795 1.10488,-21.29952 l 3.09166,-7.26693 -7.89694,-18.23307 c -4.34331,-10.02819 -7.90283,-19.44128 -7.91003,-20.91797 -0.031,-6.34653 4.89985,-13.14483 10.69437,-14.74477 2.34773,-0.64824 19.8254,0.49179 59.63079,3.8896 59.93487,5.11608 60.59716,5.22689 64.39871,10.77498 1.04205,1.5208 9.00488,19.03181 17.69517,38.91336 15.18955,34.75049 15.91726,36.17161 18.8195,36.75206 6.62382,1.32476 9.43456,4.33705 21.37781,22.91069 11.23219,17.46786 12.19792,18.6426 24.35871,29.63081 6.96455,6.293 13.14192,11.60153 13.72749,11.79672 0.58556,0.19518 6.49159,-8.36491 13.12451,-19.02244 6.63292,-10.65753 13.88235,-21.5828 16.10985,-24.27839 2.2275,-2.69558 4.03481,-5.58431 4.01624,-6.41939 -0.0186,-0.83508 -2.42187,-10.47172 -5.34066,-21.41476 l -5.3069,-19.89642 -8.40934,0.17635 c -7.41155,0.15542 -9.12359,-0.1652 -14.42899,-2.70218 -10.43033,-4.98765 -18.27816,-14.4305 -23.15181,-27.85724 -3.30559,-9.10681 -3.12042,-14.19123 0.64834,-17.80193 3.35894,-3.21807 4.8606,-7.05326 5.97389,-15.25718 0.6922,-5.10086 0.46647,-6.27823 -2.34013,-12.20521 -6.1123,-12.908004 -3.35003,-26.789144 7.19551,-36.159335 5.57298,-4.951845 12.63521,-8.441444 20.19385,-9.978215 3.14435,-0.639288 6.57075,-2.116284 8,-3.448508 8.12445,-7.572911 23.08314,-10.522538 34.21446,-6.746571 l 5.71445,1.938458 2.72717,-5.582794 c 8.97822,-18.379345 33.10314,-28.37217 52.21503,-21.628076 14.54764,5.133488 25.20491,13.508274 30.83333,24.229694 4.27187,8.137364 5.65909,15.007346 5.03862,24.952819 -0.96602,15.484044 -10.22261,29.671338 -24.07492,36.898898 -4.1337,2.15678 -5.50331,3.37233 -5.02964,4.46387 0.35801,0.825 0.85668,5.55 1.10816,10.5 0.71975,14.16694 -3.57137,24.5531 -14.18717,34.3384 -4.32591,3.98749 -15.44681,10.159 -18.30949,10.16081 -1.81205,0.001 -1.6305,0.84598 4.08331,19.00079 l 5.19299,16.5 6.48685,2.08996 c 12.30709,3.96514 19.8887,9.25212 25.50901,17.78852 C 535.48579,223.8798 577,329.53377 577,332.57492 c 0,3.3605 -88.26138,76.35423 -96.75414,80.01739 -4.99597,2.1549 -15.60757,2.10578 -20.72127,-0.0959 -2.18647,-0.94138 -7.44344,-5.08651 -11.68215,-9.21139 l -7.70675,-7.49979 22.4703,-29.92638 c 12.35867,-16.45951 22.20158,-30.36119 21.87314,-30.89261 -0.32844,-0.53143 -1.13311,-0.9477 -1.78815,-0.92505 -1.43578,0.0496 -45.65986,59.04829 -45.76401,61.05303 -0.0819,1.57597 -45.22172,42.54574 -51.37036,46.6247 -8.94098,5.93138 -25.82753,9.31573 -36.55661,7.32655 z m 1.5094,-90.78406 c 4.2999,-6.45623 7.92082,-12.67517 8.04647,-13.81986 0.12566,-1.14469 5.0018,-9.73165 10.83587,-19.08212 l 10.6074,-17.00086 -5.47406,-8.32044 c -3.01073,-4.57624 -5.672,-8.51837 -5.91393,-8.7603 -0.24192,-0.24192 -1.4796,0.11659 -2.7504,0.7967 -1.2708,0.68011 -14.17808,2.71031 -28.68284,4.51155 -14.50476,1.80124 -26.53,3.43269 -26.72276,3.62545 -0.19275,0.19275 9.75098,9.96011 22.09719,21.70523 12.34622,11.74513 22.44613,21.63118 22.44425,21.96901 -0.002,0.33783 -3.37687,5.765 -7.5,12.06036 -4.12312,6.29537 -7.49659,12.03287 -7.49659,12.75 0,3.59761 3.43566,0.18636 10.5094,-10.43472 z M 277.71564,305.57784 293.93128,291.79532 276.1575,277.4355 258.38371,263.07567 257.08112,246.78783 C 255.6035,228.31146 253.55216,219.01874 248.92864,209.85647 245.08149,202.23272 234.23151,183.00723 232.78446,181.25 229.98305,177.84809 225,181.82104 225,187.4565 c 0,1.65632 2.107,8.31419 4.68223,14.79526 3.24149,8.15784 4.36223,12.10378 3.64226,12.82375 -0.71997,0.71997 -6.0507,-3.05488 -17.32413,-12.26776 L 199.71622,189.5 l -3.3827,-9.44126 c -1.86049,-5.19269 -3.57757,-9.63613 -3.81575,-9.8743 -0.23817,-0.23818 -1.57711,2.15388 -2.97541,5.31569 -3.19465,7.22367 -3.24806,12.71142 -0.17955,18.44835 l 2.36281,4.41755 -1.96346,4.43874 c -2.33797,5.28537 -1.8624,8.93427 1.90678,14.62987 2.14079,3.23496 2.64445,5.21242 2.72827,10.71161 0.12519,8.2141 -0.15547,7.88484 22.46404,26.35375 l 15.92154,13 12.81165,27.22124 c 11.21508,23.82897 13.00442,27.06035 14.3586,25.93018 0.85083,-0.71008 8.844,-7.49319 17.7626,-15.07358 z m 114.53453,-16.54689 c 5.36259,-8.72753 9.98878,-16.49006 10.28042,-17.25006 0.33342,-0.86888 -4.61605,-6.05119 -13.3336,-13.96087 -13.52156,-12.26849 -14.14352,-13.01687 -25.1923,-30.31268 -7.33085,-11.47575 -12.40187,-18.38641 -14.37027,-19.58347 -1.67299,-1.0174 -3.22647,-1.66516 -3.45218,-1.43945 -0.2257,0.22571 0.58472,2.02047 1.80094,3.98837 2.06987,3.34912 2.14815,7.34444 0.11932,6.09056 -0.50139,-0.30988 -2.30841,-3.0384 -4.01561,-6.06338 C 341.6238,206.13561 340.46848,205 338.49145,205 c -3.08113,0 -3.07944,0.1083 0.0798,5.11292 1.41421,2.24025 2.31739,4.73483 2.00707,5.54351 -0.81154,2.11484 -2.0875,0.97676 -5.72711,-5.10826 -2.55202,-4.2667 -3.84707,-5.47103 -6.28293,-5.84281 -1.68757,-0.25757 -3.2135,-0.33896 -3.39095,-0.18086 -0.17746,0.1581 1.32951,2.77578 3.34882,5.81707 3.32069,5.00133 3.84109,7.65843 1.49993,7.65843 -0.47072,0 -3.81574,-4.6125 -7.43338,-10.25 -3.61764,-5.6375 -10.34234,-14.29539 -14.94377,-19.23976 -7.3939,-7.94494 -8.55701,-8.83144 -10.0076,-7.62755 -2.34082,1.9427 -2.02819,7.26825 0.65911,11.22776 1.26525,1.86425 7.84905,11.40825 14.63066,21.20889 8.5842,12.4057 12.01231,18.13722 11.28385,18.86568 -0.72845,0.72845 -4.74185,-1.47839 -13.21035,-7.26396 -9.80634,-6.69957 -12.48775,-8.10644 -13.83432,-7.2585 -0.91867,0.57849 -1.81146,1.7685 -1.98397,2.64446 -0.46642,2.36828 21.26378,25.36347 28.23525,29.87893 5.61755,3.63852 15.00354,7.13881 26.08098,9.7263 l 5.00257,1.16852 13.49694,21.95961 c 7.42331,12.07779 13.72216,21.93694 13.99743,21.90922 0.27527,-0.0277 4.88806,-7.19111 10.25066,-15.91865 z M 331.5,283.87976 c 15.95,-2.30993 29.17293,-4.33827 29.38429,-4.50744 0.4698,-0.37601 -7.8214,-14.21542 -8.92514,-14.89757 -0.43365,-0.26801 -5.19311,-1.63171 -10.57658,-3.03046 -15.4488,-4.01393 -20.05293,-6.91289 -34.71967,-21.86095 -14.70955,-14.9917 -16.37496,-17.45005 -14.64725,-21.62113 2.20016,-5.31166 7.64808,-5.54404 14.28187,-0.60919 1.76136,1.31027 4.53508,3.22936 6.1638,4.26464 3.60441,2.29111 3.99192,2.97363 -8.72076,-15.35991 -5.43165,-7.83324 -10.28523,-15.67009 -10.78572,-17.41523 C 291.21435,182.77381 294.19662,177 299.07169,177 c 2.19268,0 4.54528,1.90587 11.41811,9.25 4.76103,5.0875 9.39554,10.4875 10.29891,12 1.53656,2.57262 2.08446,2.75 8.49429,2.75 6.07332,0 6.78781,-0.19882 6.28874,-1.75 -0.30966,-0.9625 -7.47679,-17.03825 -15.92695,-35.72388 -10.52835,-23.28108 -16.11628,-34.51148 -17.75436,-35.68195 -2.01436,-1.43934 -10.09924,-2.19266 -51.39043,-4.78839 -26.95,-1.69419 -51.1375,-3.07481 -53.75,-3.06806 -5.6937,0.0147 -8.75,2.47917 -8.75,7.05555 0,1.75352 6.59966,17.96406 15.5724,38.25 13.19111,29.82301 16.13477,35.70144 19.25,38.44185 2.02268,1.77932 3.97341,3.24182 4.33496,3.25 0.36155,0.008 -0.93539,-3.98522 -2.88209,-8.87424 -3.975,-9.98295 -3.95093,-14.05128 0.11104,-18.7736 2.7985,-3.25346 7.8068,-3.60974 10.59835,-0.75395 2.26839,2.32059 13.06278,21.23834 17.64094,30.91667 4.64245,9.81425 6.07595,16.23257 7.89082,35.33002 0.8713,9.16849 1.89904,16.9537 2.28388,17.30046 0.38483,0.34677 8.10149,6.5676 17.14812,13.82407 14.74153,11.82446 16.76508,13.13815 19.5,12.65933 1.67837,-0.29384 16.10158,-2.42419 32.05158,-4.73412 z m 115.24769,-72.26007 c 11.56038,-8.22286 21.93154,-11.64712 37.81103,-12.4841 L 496.61744,198.5 491.57638,181.75 486.53533,165 h -5.07132 c -6.30926,0 -14.30448,-3.76993 -18.31576,-8.63631 -1.56673,-1.90072 -4.0059,-6.37276 -5.42038,-9.93786 l -2.57177,-6.482 2.37284,-1.55475 C 460.48785,136.45033 464,129.36445 464,125.3335 c 0,-1.66928 -0.45472,-4.3397 -1.01049,-5.93428 l -1.01049,-2.89922 -8.24612,0.34262 c -6.48461,0.26943 -9.6332,-0.12318 -14.73951,-1.83795 -17.80535,-5.97927 -27.79353,-16.871846 -30.34823,-33.096193 -0.5983,-3.799662 -1.32572,-6.891442 -1.61649,-6.870621 -1.95474,0.139972 -12.94997,17.568097 -13.00705,20.616987 -0.0143,0.763714 1.27801,0.980528 3.81563,0.64016 5.73077,-0.768657 12.4658,3.326838 13.3225,8.101257 0.52205,2.90944 -1.98322,3.08528 -3.28396,0.23048 -1.56239,-3.42908 -6.62377,-5.704173 -11.08091,-4.980879 l -3.54993,0.576069 -1.16742,7.63904 c -1.76869,11.57342 -3.87873,17.84301 -7.32674,21.77009 -3.0741,3.5012 -3.10591,3.64427 -1.99154,8.95707 2.66324,12.69704 12.20277,26.18997 22.27864,31.5114 3.66012,1.93304 5.98985,2.36055 12.96211,2.37854 7.75069,0.02 9.16116,-0.298 16,-3.60729 4.125,-1.99607 9.4125,-5.50027 11.75,-7.78712 3.92456,-3.83953 4.25,-3.97972 4.25,-1.83088 0,7.82501 -5.15891,19.59671 -11.81884,26.96846 l -3.58848,3.97202 2.37077,9.15337 C 440.66293,213.63004 441.06387,215 441.54469,215 c 0.24787,0 2.58922,-1.52114 5.203,-3.38031 z M 395,153.5567 c 0,-0.79381 0.82859,-2.03131 1.8413,-2.75 1.01272,-0.71868 2.37855,-2.3192 3.03518,-3.5567 1.37354,-2.58858 4.12352,-3.02207 4.12352,-0.65 0,1.80187 -6.20538,8.4 -7.9,8.4 -0.605,0 -1.1,-0.64948 -1.1,-1.4433 z m 1.38865,-35.98628 c -0.63547,-1.656 1.15014,-4.57042 2.80022,-4.57042 1.38756,0 0.52769,5.27465 -0.93834,5.75604 -0.68721,0.22565 -1.52506,-0.30788 -1.86188,-1.18562 z M 531.21347,98.484109 c 6.2312,-4.561584 12.10995,-12.139077 14.92055,-19.232024 2.99484,-7.557904 3.23412,-21.223917 0.50893,-29.066868 -2.11158,-6.077031 -3.12544,-6.516524 -1.50645,-0.653022 0.59526,2.155856 0.90398,7.980553 0.68605,12.943771 -0.33088,7.53541 -0.91829,10.138936 -3.56085,15.782561 -3.6775,7.853896 -11.39691,16.474281 -17.78906,19.865309 -4.16645,2.210294 -5.30432,3.711154 -3.88763,5.127844 0.97516,0.97516 5.64562,-1.11985 10.62846,-4.767571 z M 112,356.5 c 0,-1.3098 5.38889,-1.5 42.5,-1.5 37.11111,0 42.5,0.1902 42.5,1.5 0,1.3098 -5.38889,1.5 -42.5,1.5 -37.11111,0 -42.5,-0.1902 -42.5,-1.5 z m 0,-20.51085 c 0,-1.98685 0.5042,-2.00774 42.23649,-1.75 39.31066,0.24278 42.25982,0.38208 42.57332,2.01085 0.31654,1.64454 -2.22881,1.75 -42.23649,1.75 C 112.59008,338 112,337.97213 112,335.98915 Z M 72,231.36323 c -1.375,-0.20042 -6.1,-1.05587 -10.5,-1.90101 -6.232552,-1.19712 -10.20931,-1.34136 -18,-0.6529 -10.602006,0.93689 -11.5,0.83928 -11.5,-1.25006 0,-0.93556 2.438347,-1.52582 8.330718,-2.01665 l 8.330718,-0.69395 -0.08072,-4.07301 c -0.07149,-3.60718 0.242207,-4.18272 2.742719,-5.03215 4.051267,-1.37622 11.461045,1.54963 12.290117,4.85291 0.33538,1.33626 0.08584,3.06087 -0.554536,3.83248 -1.592939,1.91937 -0.04189,2.31369 13.940982,3.54416 12.875278,1.13301 19.787096,0.72348 34.800762,-2.06197 11.72985,-2.17621 18.1621,-2.31367 23.19924,-0.49578 3.74346,1.351 4.93164,4.32294 1.5,3.75188 -8.34206,-1.38819 -15.93096,-1.17019 -25.80076,0.74117 -10.02731,1.94186 -30.164536,2.69891 -38.699242,1.45488 z m -12.587161,-9.43846 c 0.527341,-0.4913 -0.23919,-1.28845 -1.815099,-1.88761 -5.150882,-1.95836 -7.658893,-0.8672 -4.932141,2.14582 1.641744,1.81411 4.646295,1.69913 6.74724,-0.25821 z M 123.772,131.47855 98.043996,117 H 81.205658 c -9.261087,0 -19.508486,-0.49252 -22.771999,-1.09448 -13.12383,-2.42074 -24.17331,-10.88887 -29.807258,-22.843772 -2.764424,-5.865943 -3.131988,-7.751366 -3.466298,-17.780376 -0.309038,-9.270902 -0.01207,-12.395977 1.710463,-18 3.77,-12.265135 13.719084,-22.290911 26.057322,-26.258185 6.38059,-2.051634 8.014176,-2.105558 55.097162,-1.818754 l 48.5216,0.295567 6.75631,3.327249 C 178.5217,40.32196 187,54.516034 187,72.5 c 0,26.545888 -18.01486,44.45777 -44.75,44.49421 -2.3375,0.003 -4.25,0.1356 -4.25,0.29426 0,0.15865 2.29024,5.67115 5.08941,12.25 5.8564,13.76416 6.94852,16.46986 6.63584,16.44008 -0.12389,-0.0118 -11.80285,-6.5368 -25.95325,-14.5 z M 83.545455,78.545455 c 7.296634,-7.296635 -3.708028,-18.43861 -11.231004,-11.371141 -3.357955,3.154635 -3.199018,8.984725 0.320408,11.753106 3.566328,2.805274 7.874168,2.654462 10.910596,-0.381965 z m 28.999995,0 c 7.44901,-7.449009 -3.55092,-18.586199 -11.231,-11.371141 C 96.309536,71.876188 100.06153,81 107,81 c 1.94837,0 3.99822,-0.907308 5.54545,-2.454545 z m 29.0557,0.121194 C 147.17415,73.872964 143.47159,65 135.89827,65 c -7.08749,0 -10.49941,8.489773 -5.44372,13.545455 3.14605,3.146055 7.57402,3.1942 11.1466,0.121194 z M 259,82.848787 V 68.222582 l -3.69477,-0.693144 C 246.35022,65.849469 236.51159,58.049788 231.93192,49 228.75456,42.721296 228.04656,29.820338 230.51744,23.225929 234.644,12.212782 243.17618,4.4914951 254.46999,1.5498324 263.12472,-0.70443888 326.78916,-0.71773634 335.5399,1.5328995 350.4948,5.3792052 359.94651,16.980293 360.7696,32.5 c 0.34334,6.47383 0.014,9.087707 -1.72641,13.701632 -2.68174,7.109465 -9.6943,15.047089 -16.43559,18.603683 -5.08899,2.684865 -5.19688,2.695772 -29.6076,2.993001 L 288.5,68.096633 273.75,82.785813 259,97.474993 Z M 275,76.5 286.46738,65 h 22.65147 c 28.10532,0 30.55057,-0.586315 39.43623,-9.455883 4.81074,-4.802022 6.42984,-7.249006 7.87864,-11.907184 C 360.90057,29.275149 354.45212,14.085739 340.79149,6.791491 336.51608,4.5085871 336.34448,4.5 295,4.5 c -41.15621,0 -41.53498,0.01869 -45.7222,2.2561394 -6.62199,3.5384756 -10.96276,7.9023806 -13.98771,14.0622576 -3.77652,7.690323 -3.98589,19.253899 -0.47757,26.376475 4.41797,8.969351 13.61221,15.889972 23.13286,17.412385 L 262,65.255616 V 76.627808 C 262,82.882514 262.34484,88 262.76631,88 263.18778,88 268.69294,82.825 275,76.5 Z M 260,40 c 0,-1.963964 0.66667,-2 37,-2 36.33333,0 37,0.03604 37,2 0,1.963964 -0.66667,2 -37,2 -36.33333,0 -37,-0.03604 -37,-2 z m 0,-11.5 c 0,-1.306306 4.77778,-1.5 37,-1.5 32.22222,0 37,0.193694 37,1.5 0,1.306306 -4.77778,1.5 -37,1.5 -32.22222,0 -37,-0.193694 -37,-1.5 z"
         id="path2" />
    </g>
  </g>
</svg>
