<?xml version="1.0" encoding="UTF-8" standalone="no"?>
<!-- Created with Inkscape (http://www.inkscape.org/) -->

<svg
   version="1.1"
   id="svg1"
   width="615"
   height="450"
   viewBox="0 0 615 450"
   sodipodi:docname="HR_08.svg"
   inkscape:version="1.3.2 (091e20e, 2023-11-25, custom)"
   xmlns:inkscape="http://www.inkscape.org/namespaces/inkscape"
   xmlns:sodipodi="http://sodipodi.sourceforge.net/DTD/sodipodi-0.dtd"
   xmlns="http://www.w3.org/2000/svg"
   xmlns:svg="http://www.w3.org/2000/svg">
  <defs
     id="defs1" />
  <sodipodi:namedview
     id="namedview1"
     pagecolor="#ffffff"
     bordercolor="#000000"
     borderopacity="0.25"
     inkscape:showpageshadow="2"
     inkscape:pageopacity="0.0"
     inkscape:pagecheckerboard="0"
     inkscape:deskcolor="#d1d1d1"
     showgrid="false"
     inkscape:zoom="1.6276423"
     inkscape:cx="307.5"
     inkscape:cy="225.17233"
     inkscape:window-width="1920"
     inkscape:window-height="1001"
     inkscape:window-x="-9"
     inkscape:window-y="-9"
     inkscape:window-maximized="1"
     inkscape:current-layer="g1" />
  <g
     inkscape:groupmode="layer"
     inkscape:label="Image"
     id="g1">
    <g
       id="g8">
      <path
         style="fill:#fefefe"
         d="M 0,225 V 0 H 307.5 615 V 225 450 H 307.5 0 Z"
         id="path11" />
      <path
         style="fill:#ccc9c6"
         d="m 426.5,449.20032 c -1.1,-0.21594 -17.3,-4.11773 -36,-8.67064 -18.7,-4.55291 -42.775,-10.38985 -53.5,-12.97099 -25.08251,-6.03648 -60.15491,-14.50425 -85.47186,-20.63607 l -19.97185,-4.83723 -81.83678,12.45731 C 104.70928,421.39421 65.86619,427 63.401528,427 55.241669,427 48.135855,421.74553 45.976141,414.1146 44.612008,409.29471 -0.00414098,96.700708 0.0147418,92.095382 c 0.008108,-1.97746 0.57060799,-4.677003 1.25,-5.998983 C 4.0441789,80.68809 5.4856186,80.313302 49,73.68478 L 90.5,67.363107 90.767171,42.181554 91.034342,17 H 150.01717 209 v 16 c 0,9.472397 0.38875,16 0.95287,16 C 210.76239,49 249.10536,43.179584 424,16.507903 436.375,14.620698 465.74859,10.134381 489.27465,6.5383105 512.80071,2.9422397 533.18556,0 534.57431,0 c 3.85015,0 8.21077,2.683707 10.00813,6.1594149 0.88896,1.7190586 2.13407,6.7585141 2.76692,11.1987901 l 1.15064,8.073229 8.71542,0.24794 c 45.23369,1.286828 72.63195,51.77827 49.13599,90.551276 -7.39751,12.20736 -22.36563,23.47791 -35.6092,26.81268 -3.45388,0.86969 -4.74221,1.68228 -4.74221,2.99102 0,0.98831 5.87586,42.67239 13.05748,92.63129 7.7096,53.63184 12.87601,92.6056 12.61441,95.15906 -0.50322,4.91196 -4.50438,10.57412 -9.56899,13.54134 -2.35516,1.37983 -20.0199,4.42881 -67.79569,11.70172 -35.53585,5.40962 -64.93291,10.1949 -65.3268,10.63396 -0.64018,0.7136 -5.3699,19.82978 -15.6351,63.19269 -1.87416,7.91692 -3.73105,14.91283 -4.12643,15.54646 -0.39539,0.63364 -1.61888,0.97539 -2.71888,0.75945 z m -285,-38.25923 c 40.7,-6.11471 74.675,-11.3694 75.5,-11.67709 0.88004,-0.32822 -0.15322,-0.89574 -2.5,-1.37313 -13.22506,-2.69029 -31.95288,-7.74951 -32.27612,-8.71922 -0.20882,-0.62648 1.2837,-7.91807 3.31671,-16.20352 2.03302,-8.28546 3.53058,-15.1553 3.32791,-15.2663 -0.20268,-0.11101 -1.75409,-0.92426 -3.44759,-1.80723 -5.04835,-2.63215 -130.734992,-94.84146 -133.084561,-97.63675 -4.433385,-5.27442 -3.728054,-10.17587 2.687031,-18.67259 5.457021,-7.22777 10.302323,-9.05055 15.90314,-5.98268 2.009251,1.10057 28.835251,20.46285 59.61333,43.02728 30.77808,22.56443 58.29527,42.70116 61.14931,44.74829 l 5.18917,3.72205 1.06738,-3.8001 c 0.58706,-2.09006 2.89392,-11.4501 5.12636,-20.8001 2.23244,-9.35 7.87809,-32.75 12.5459,-52 4.6678,-19.25 10.23255,-42.2 12.3661,-51 2.13356,-8.8 4.8436,-20.05 6.02233,-25 1.17873,-4.95 4.3759,-18.225 7.10484,-29.5 2.72894,-11.275 7.23976,-29.95 10.02405,-41.5 7.6068,-31.555146 8.65017,-35.618797 9.31642,-36.28504 0.33636,-0.33636 5.65982,0.60077 11.82992,2.08251 6.17011,1.48174 26.29337,6.343464 44.71837,10.80383 18.425,4.460366 44.51815,10.769873 57.98477,14.021126 13.46663,3.251254 25.00477,5.711831 25.64031,5.46795 0.63554,-0.243881 2.05699,0.396417 3.15878,1.422884 1.10178,1.02647 2.24732,1.62223 2.54563,1.32391 0.50012,-0.500115 39.2322,8.29504 48.01135,10.90226 4.30645,1.27893 3.90896,0.73381 20.60759,28.26057 5.67202,9.35 12.70073,20.82895 15.61936,25.50878 4.84883,7.77476 5.25653,8.8821 4.72616,12.83635 -0.31925,2.38017 -1.16258,4.55096 -1.87406,4.82398 -0.71148,0.27303 -1.0858,1.03794 -0.83181,1.69982 0.25398,0.66188 -9.19778,41.22629 -21.00393,90.14313 -11.80614,48.91684 -21.36766,89.03777 -21.24781,89.15762 0.11985,0.11985 28.55571,-4.07568 63.19079,-9.32341 40.34961,-6.11356 64.19734,-10.15311 66.38124,-11.24428 C 583.74029,341.1874 587,335.95072 587,331.70939 587,330.1574 581.15,288.09242 574,238.23166 566.85,188.3709 561,146.99619 561,146.28787 561,145.3728 559.16475,145 554.65996,145 c -8.58065,0 -20.5731,-3.22006 -28.49802,-7.65193 -13.25277,-7.41137 -24.819,-22.32152 -28.65563,-36.94027 C 495.5088,92.796677 495.49927,78.162155 497.48684,70.5 500.69141,58.146222 507.79783,47.108209 518,38.638023 c 5.23235,-4.344074 16.86112,-10.192705 22.20445,-11.167621 3.33631,-0.608724 3.65869,-0.938975 3.24402,-3.323148 -0.25324,-1.45599 -0.89243,-5.519893 -1.42041,-9.030896 C 540.90538,7.6507707 538.94006,5 534.52764,5 532.78833,5 521.04557,6.5856691 508.43263,8.5237092 483.01568,12.429146 359.11421,31.307019 272.5,44.470869 c -30.8,4.681064 -57.68463,8.779167 -59.74362,9.106897 l -3.74361,0.595872 -0.25639,74.163182 L 208.5,202.5 h -6.24955 -6.24956 l -4.4e-4,8.85699 c -3.7e-4,7.35222 -0.24838,8.76185 -1.45978,8.29699 -0.80264,-0.308 -6.87442,-4.18787 -13.49284,-8.62194 L 169.01432,202.9701 130.25716,202.73505 91.5,202.5 91.242767,137.27645 c -0.257232,-65.223557 -0.257232,-65.223557 -3,-64.711553 C 86.734245,72.8465 68.288838,75.688644 47.252973,78.880773 4.954091,85.299501 5,85.285068 5,92.164282 5,95.644303 49.256407,407.50721 50.483322,412.67293 c 1.36863,5.76238 8.682553,10.68803 14.516678,9.77644 1.375,-0.21485 35.8,-5.39358 76.5,-11.50828 z M 26,108 c -2.79084,-2.79084 -2.53157,-6.43671 0.634859,-8.92742 C 28.084031,97.932661 29.904486,97 30.680313,97 32.595294,97 37,101.53038 37,103.5 37,105.76571 32.469607,110 30.045455,110 28.920455,110 27.1,109.1 26,108 Z m 16.698887,-2.78023 c -2.127992,-2.35141 -2.163236,-5.11181 -0.102823,-8.053458 2.170989,-3.099522 7.000933,-2.615296 9.664634,0.968927 1.747859,2.351881 1.811489,2.943271 0.591769,5.500001 -1.738939,3.64509 -7.478242,4.54074 -10.15358,1.58453 z M 60,103 c -2.798765,-2.79877 -2.531505,-6.436758 0.657128,-8.944937 6.085326,-4.786718 13.038678,3.203636 7.812884,8.978077 C 66.184011,105.55914 62.544903,105.5449 60,103 Z m 345.11011,-7.367321 c -1.4595,-1.758592 0.89308,-3.952421 3.26314,-3.042943 1.93641,0.743071 2.04877,1.588249 0.42675,3.210264 -1.54657,1.546573 -2.29567,1.512605 -3.68989,-0.167321 z m 5.81107,-5.22765 c -1.01316,-1.220786 -0.94424,-1.81054 0.36453,-3.119315 1.33135,-1.331341 1.88532,-1.388657 3.1641,-0.327367 2.01645,1.6735 1.95489,2.307822 -0.36453,3.756323 -1.53976,0.961597 -2.15939,0.90096 -3.1641,-0.309641 z m 5.64906,-5.08257 c -0.36338,-0.94696 0.0213,-2.342546 0.88324,-3.204506 1.36928,-1.369285 1.67202,-1.328587 2.93169,0.394116 1.22311,1.672711 1.19206,2.082896 -0.24022,3.172702 -2.2077,1.679815 -2.81467,1.618295 -3.57471,-0.362312 z m 5.98232,-5.046078 c -0.41767,-1.088434 -7.9e-4,-2.20668 1.13125,-3.034441 1.51521,-1.107954 1.98531,-1.047352 3.03748,0.391573 0.91577,1.252393 0.9526,2.054505 0.13932,3.034442 -1.53173,1.845625 -3.51886,1.665007 -4.30805,-0.391574 z m 6.80418,-3.789116 C 428.77158,74.96237 430.55294,72 432.05506,72 c 1.5449,0 2.20712,4.219181 0.80195,5.109533 -1.96473,1.244911 -2.84373,1.088645 -3.50027,-0.622268 z m 7.20784,-3.179561 c -0.89382,-2.329274 -0.68073,-3.049154 1.10547,-3.734585 1.6542,-0.634777 3.28506,0.870915 3.31464,3.06025 0.024,1.776866 -3.77464,2.356391 -4.42011,0.674335 z m 6.99332,-2.083133 c -1.14643,-1.146439 -0.50174,-4.032144 1.03234,-4.620827 2.10146,-0.806403 3.40976,0.09092 3.40976,2.338642 0,1.750264 -3.28586,3.438419 -4.4421,2.282185 z m 7.04584,-3.814813 C 449.79734,65.308303 450.69466,64 452.94239,64 c 1.75026,0 3.43841,3.285862 2.28218,4.442095 -1.14644,1.14644 -4.03214,0.501746 -4.62083,-1.032337 z M 458,65.106989 c 0,-1.967153 2.50608,-3.530279 4.09024,-2.551216 C 462.59061,62.865016 463,63.991476 463,65.059017 463,66.462732 462.308,67 460.5,67 458.71376,67 458,66.459534 458,65.106989 Z M 466,63.5 c 0,-2.164862 0.40432,-2.581679 2.25,-2.319551 1.47682,0.209741 2.25,1.006825 2.25,2.319551 0,1.312726 -0.77318,2.10981 -2.25,2.319551 C 466.40432,66.081679 466,65.664862 466,63.5 Z m 23.63948,1.806147 C 488.40327,64.069938 489.01675,61 490.5,61 c 0.825,0 1.5,0.873442 1.5,1.940983 0,2.087228 -1.31793,3.407752 -2.36052,2.365164 z M 473.3229,63.399075 c -0.62175,-1.620236 1.13594,-3.355695 3.4271,-3.383762 0.6875,-0.0084 1.25,1.109687 1.25,2.484687 0,1.846208 -0.53124,2.5 -2.03138,2.5 -1.11727,0 -2.30784,-0.720416 -2.64572,-1.600925 z M 481.18045,62.75 c 0.20536,-1.445957 1.12359,-2.364192 2.56955,-2.569551 1.83248,-0.260254 2.25,0.157265 2.25,2.25 C 486,64.523184 485.52318,65 483.43045,65 c -2.09274,0 -2.51025,-0.417519 -2.25,-2.25 z M 190.89172,344.34975 c 1.62253,-2.44957 3.25021,-6.23036 3.61707,-8.40176 0.36685,-2.17139 1.18995,-3.96296 1.82911,-3.98126 0.63915,-0.0183 0.0491,-0.95929 -1.31117,-2.09109 -2.47328,-2.05782 -2.47328,-2.05782 -4.82331,0.67425 -2.14243,2.49073 -2.48969,2.59241 -3.93103,1.15107 -1.44134,-1.44134 -1.42318,-1.82188 0.20558,-4.30768 1.72329,-2.63007 1.7199,-2.7765 -0.0957,-4.13325 -4.41517,-3.29935 -5.16008,-3.35797 -7.3467,-0.57814 -1.90974,2.42785 -2.25093,2.53134 -3.6693,1.11296 -1.41838,-1.41838 -1.3996,-1.81436 0.20194,-4.25862 1.7467,-2.6658 1.7343,-2.72052 -1.15125,-5.07957 -1.60433,-1.3116 -3.20621,-2.40092 -3.55973,-2.4207 -0.35352,-0.0198 -3.60142,3.90154 -7.21755,8.71404 l -6.57478,8.75 3.21754,2.7231 c 3.96271,3.35375 4.06814,3.35886 5.71755,0.2769 1.4135,-2.64115 2.61352,-3.03073 4.89172,-1.58808 1.14655,0.72604 1.01257,1.41376 -0.76059,3.90392 -2.1523,3.02263 -2.1523,3.02263 1.10828,5.61062 3.26059,2.588 3.26059,2.588 5.46262,0.0808 2.39139,-2.72282 3.07654,-2.93344 5.18969,-1.59531 1.14655,0.72604 1.01257,1.41376 -0.76059,3.90392 -2.1523,3.02263 -2.1523,3.02263 1.07352,5.54722 3.71826,2.90997 4.27017,2.655 8.68707,-4.01331 z M 159.5,318.53907 c 3.3,-4.62335 6,-8.8712 6,-9.43967 0,-0.7806 -59.9763,-45.39811 -83.122519,-61.83644 -3.122518,-2.2176 -3.122518,-2.2176 -9.718519,6.74221 l -6.596,8.9598 3.218519,2.54239 c 5.828839,4.60433 83.207239,61.34859 83.718519,61.39369 0.275,0.0242 3.2,-3.73864 6.5,-8.36198 z M 68.93999,251.09574 c 3.333005,-4.62234 6.05444,-8.67234 6.047631,-9 C 74.961211,240.82467 67.900932,237 65.580974,237 62.086038,237 54,247.15864 54,251.54939 c 0,1.74947 6.871661,8.67508 8.149971,8.21395 0.401505,-0.14484 3.457013,-4.04526 6.790019,-8.6676 z"
         id="path10" />
      <path
         style="fill:#63deab"
         d="m 57,425.87927 c -3.21843,-1.27959 -7.779553,-5.61533 -9.625704,-9.15005 -0.856004,-1.63895 -10.869177,-68.63139 -24.512623,-164 C 1.4042066,102.74006 -0.10955078,91.224438 1.1481009,87.547289 2.0047581,85.042576 3.5989916,82.967504 5.5,81.882807 7.4879602,80.748497 22.162537,78.111367 49,74.065537 71.275,70.707512 90.0625,67.758151 90.75,67.511403 91.70476,67.168733 92,61.150555 92,42.031385 V 17 h 58.47582 58.47582 L 209.22582,33.293559 209.5,49.587118 368.5,25.24798 C 455.95,11.861454 530.07685,0.81685208 533.22634,0.7044207 c 5.2037,-0.18576337 6.01051,0.079339 8.83981,2.9046174 2.70349,2.6996419 3.31825,4.3621421 4.66866,12.6253679 l 1.55519,9.516329 10.105,0.480336 c 8.22692,0.391061 11.59186,1.064124 18.105,3.621402 23.13721,9.084441 37.79636,30.218651 37.90473,54.647527 0.0482,10.856705 -1.47501,17.65643 -6.08497,27.16465 -6.8304,14.08793 -19.83124,25.19802 -35.09168,29.98821 -8.27192,2.59652 -8.27192,2.59652 -7.72024,5.72183 0.30343,1.71892 6.36127,43.87251 13.46187,93.67465 9.84304,69.03703 12.71056,91.43444 12.06993,94.2749 -1.10036,4.87885 -5.07711,9.99113 -9.3487,12.01813 -2.0169,0.95708 -29.85807,5.64885 -67.80644,11.42669 -52.09142,7.93118 -64.45014,9.53705 -64.72828,8.41068 -0.18908,-0.7657 0.0359,-1.74452 0.5,-2.17516 0.46408,-0.43064 29.39527,-5.11839 64.29154,-10.41723 44.06592,-6.6912 64.34822,-10.16167 66.39547,-11.3608 4.83034,-2.82926 6.8943,-6.41478 6.83259,-11.86958 -0.0302,-2.67133 -5.93214,-45.79322 -13.11538,-95.82641 C 566.8772,185.49737 561,144.44612 561,144.30556 c 0,-0.14056 -1.2776,-4e-5 -2.83912,0.31226 -3.80542,0.76109 -17.4399,-1.37614 -23.68468,-3.71261 C 512.90722,132.83522 497.62963,112.045 496.25097,88.88712 494.6099,61.321228 511.73873,36.661119 538.25,28.421777 c 3.1625,-0.982862 5.7466,-2.267341 5.74245,-2.854399 -0.0198,-2.79084 -2.1583,-14.359435 -3.08485,-16.6876585 C 538.73888,3.4301858 539.46696,3.3837529 476.76961,12.970119 444.72133,17.870273 372.375,28.887438 316,37.452708 259.625,46.017978 212.4875,53.253666 211.25,53.532015 209,54.038104 209,54.038104 209,128.01905 V 202 h -7 -7 v 9.01768 9.01767 L 181.52641,211.01768 168.05282,202 H 130.02641 92 V 137 C 92,86.377721 91.729063,72 90.775124,72 85.850023,72 9.0496865,84.456091 7.37282,85.52685 6.202871,86.273919 4.971796,87.976238 4.6370978,89.309782 4.3023996,90.643325 14.363704,164.06492 26.995552,252.46887 46.105981,386.21316 50.304175,413.7561 51.997037,416.49521 c 2.185961,3.53696 7.348105,6.52919 11.154092,6.46546 1.291879,-0.0216 37.162411,-5.3562 79.712301,-11.85458 67.50728,-10.30998 77.95412,-11.68437 82,-10.78791 4.63391,1.02675 4.63485,1.02783 1.63657,1.87455 -4.51788,1.27586 -160.540134,24.81536 -164,24.74313 -1.65,-0.0344 -4.125,-0.50991 -5.5,-1.05659 z m 328,-59.3818 c -9.625,-2.33484 -26.275,-6.37866 -37,-8.98627 -10.725,-2.6076 -32.775,-7.95855 -49,-11.89099 -26.35873,-6.38854 -29.5,-7.36127 -29.5,-9.13505 0,-1.09184 0.45,-1.93692 1,-1.87796 0.55,0.059 30.63895,7.24374 66.86434,15.96617 42.37162,10.20234 66.04925,16.34086 66.38278,17.21001 1.14884,2.99385 -1.99286,2.77835 -18.74712,-1.28591 z m -162.68064,-0.0268 c -2.30805,-1.81929 -7.32566,-3.47322 -18.28932,-6.02861 -8.30977,-1.93682 -16.24031,-3.95175 -17.62342,-4.4776 -3.64284,-1.38501 -131.986793,-95.61532 -134.387817,-98.66772 -3.416857,-4.34384 -2.68861,-9.16689 2.435046,-16.12689 C 59.555608,234.23964 61.398985,233 66.60266,233 c 2.883356,0 5.233694,1.09662 10.315741,4.81313 3.61988,2.64721 31.781599,23.25327 62.581599,45.79123 30.8,22.53796 57.88456,42.30955 60.18791,43.93687 3.1998,2.26066 6.32527,6.53921 13.24659,18.13362 4.98227,8.34617 10.42918,16.24743 12.10424,17.55836 2.09937,1.64301 2.84389,2.90907 2.39642,4.07515 -0.85116,2.2181 -1.34085,2.13792 -5.1158,-0.83765 z M 213.86776,355.75 c -3.83389,-7.17299 -11.04934,-18.74089 -11.65645,-18.68778 -0.39122,0.0342 -3.2604,3.58762 -6.37596,7.89645 l -5.66465,7.83423 9.66465,2.17015 c 5.31556,1.19359 10.11465,2.32966 10.66465,2.52461 0.55,0.19494 1.80333,0.38997 2.78518,0.43339 1.54461,0.0683 1.62312,-0.22427 0.58258,-2.17105 z M 192.93999,342.09574 C 196.273,337.4734 199,333.36431 199,332.96443 c 0,-0.39988 -1.54457,-1.90516 -3.43239,-3.34506 -3.43239,-2.61801 -3.43239,-2.61801 -5.6289,0.4667 -1.98653,2.78983 -2.34508,2.93613 -3.75076,1.53045 -1.40569,-1.40568 -1.39336,-1.73206 0.12889,-3.41413 2.39447,-2.64586 2.13122,-3.62326 -1.77924,-6.60591 -3.46239,-2.6409 -3.46239,-2.6409 -5.11501,-0.11869 -0.90893,1.38722 -2.2493,2.52221 -2.97858,2.52221 -2.3891,0 -2.6119,-1.97111 -0.52298,-4.62674 2.25316,-2.86442 2.65149,-2.20079 -4.54279,-7.56836 -0.73466,-0.54812 -3.23665,2.07394 -7.25041,7.59837 -3.37076,4.63942 -6.3537,9.03412 -6.62876,9.76602 -0.28519,0.75883 1.03473,2.37394 3.07132,3.7582 3.57143,2.42749 3.57143,2.42749 5.83501,-0.41131 1.32317,-1.65941 2.74779,-2.53954 3.42909,-2.11847 1.61183,0.99617 1.45785,3.11478 -0.33449,4.60229 -2.36848,1.96566 -1.78057,3.66348 2.09874,6.06103 3.59874,2.22414 3.59874,2.22414 5.83449,-0.57975 1.30523,-1.63692 2.72083,-2.5041 3.40126,-2.08357 1.61183,0.99617 1.45785,3.11478 -0.33449,4.60229 -0.825,0.68469 -1.5,1.8206 -1.5,2.52424 0,1.31336 5.95181,5.62439 7.18999,5.20787 0.37949,-0.12766 3.41699,-4.01403 6.75,-8.63637 z m -32.5242,-24.20244 c 3.68727,-5.00869 6.56465,-9.22062 6.39417,-9.35986 -4.60799,-3.7634 -87.012447,-63.51701 -87.543384,-63.47998 C 78.215212,245.12678 66.5,261.55611 66.5,262.95721 66.5,264.00933 151.63755,327 153.05958,327 c 0.35864,0 3.66893,-4.09802 7.35621,-9.1067 z M 69.360308,251.25 l 6.574784,-8.75 -3.217546,-2.7231 c -3.183738,-2.69449 -7.902531,-3.5816 -10.448572,-1.9643 -0.677065,0.43009 -2.814565,3.00926 -4.75,5.73149 -3.350752,4.71291 -4.357699,8.73182 -2.753661,10.99038 C 55.806351,256.0003 61.120939,260 62.02762,260 c 0.416847,0 3.716556,-3.9375 7.332688,-8.75 z M 397,339.41861 c -5.225,-1.31457 -32.89469,-8.03306 -61.4882,-14.92997 C 270.48829,308.80462 276,310.33529 276,307.96146 276,306.88266 276.28208,306 276.62685,306 c 0.53344,0 53.8372,12.82495 117.12315,28.17998 14.47003,3.51085 17.25,4.47823 17.25,6.00269 0,2.35876 -2.02762,2.2481 -14,-0.76406 z m -149.75,-6.12223 c -4.97681,-1.17036 -6.25,-1.85953 -6.25,-3.38307 0,-1.17167 0.67833,-1.89689 1.75,-1.87094 3.12331,0.0756 12.07627,2.43644 12.16435,3.20763 0.26153,2.29001 -0.003,3.73619 -0.66435,3.63308 -0.4125,-0.0643 -3.5625,-0.77832 -7,-1.5867 z M 378,304.91368 C 357.925,300.02711 328.3375,292.83475 312.25,288.93067 286.56287,282.69696 283,281.59893 283,279.91617 283,278.86227 283.58475,278 284.29944,278 c 0.71469,0 27.37719,6.31107 59.25,14.02461 31.87281,7.71353 61.47683,14.8773 65.78672,15.91949 4.30988,1.04218 8.07797,2.1367 8.37353,2.43226 0.91322,0.91321 -0.57357,3.62941 -1.92831,3.52282 -0.70476,-0.0555 -17.70638,-4.09893 -37.78138,-8.9855 z m -121.5,0.56124 c -0.55,-0.20195 -2.86891,-0.84703 -5.15312,-1.43351 -3.4584,-0.88795 -4.06496,-1.40349 -3.62604,-3.08191 0.33739,-1.29017 1.1123,-1.83874 2.15312,-1.52422 0.89432,0.27025 3.8358,0.97597 6.53661,1.56826 6.05038,1.32686 6.64748,1.68162 5.93877,3.52849 -0.51882,1.35201 -3.44883,1.82432 -5.84934,0.94289 z m 3.25,-29.18196 c -5.96973,-1.56618 -6.30916,-1.86135 -4.82903,-4.19933 0.90694,-1.43258 0.84883,-1.44003 12.32903,1.58068 0.9625,0.25326 1.75,1.33014 1.75,2.39308 0,2.28289 -1.28847,2.31431 -9.25,0.22557 z m 135.25256,-27.20263 c -20.86514,-5.08855 -27.57172,-7.09168 -27.80537,-8.30494 -0.16936,-0.8794 0.0637,-1.82861 0.51795,-2.10934 1.06524,-0.65835 56.38696,12.74061 56.32878,13.64287 C 424.01976,252.69351 424,253.675 424,254.5 c 0,1.85313 3.33146,2.47464 -28.99744,-5.40967 z M 298.5,231.19728 c -19.25,-4.64978 -35.14583,-8.57968 -35.32407,-8.73311 -0.17824,-0.15344 0.64142,-3.85713 1.82147,-8.23043 3.21284,-11.90696 9.42126,-18.15771 19.66109,-19.79512 6.14829,-0.98315 37.06797,6.84801 43.0447,10.90212 7.94116,5.38661 10.6361,13.7615 8.34151,25.92236 -0.66155,3.50609 -1.50474,6.82777 -1.87376,7.38152 -0.42315,0.63498 -13.5969,-2.11543 -35.67094,-7.44734 z m 143.41667,-0.58631 C 441.6875,230.39701 428,226.99472 411.5,223.05034 371.07122,213.38569 374,214.25174 374,211.96146 374,210.88266 374.40012,210 374.88915,210 c 0.8826,0 66.102,15.59939 69.25813,16.56539 1.06477,0.32589 1.46556,1.19912 1.13337,2.4694 -0.46054,1.76111 -2.26192,2.60514 -3.36398,1.57618 z M 306.44076,180.53235 c -11.65892,-5.80989 -14.70324,-20.46912 -6.25024,-30.09656 8.05283,-9.17167 19.89243,-9.616 28.44106,-1.06737 8.54271,8.54271 8.10387,20.3886 -1.05316,28.42858 -6.35348,5.57843 -13.56073,6.51109 -21.13766,2.73535 z m 157.61598,-4.64976 c -15.64379,-3.81468 -28.58261,-7.07513 -28.75293,-7.24545 -0.5363,-0.53629 13.89701,-58.63791 14.56253,-58.62183 0.34851,0.008 1.23282,0.39514 1.96512,0.85936 1.32504,0.83999 0.0456,6.98718 -9.38572,45.09321 -1.28882,5.20734 -2.25386,9.53803 -2.14452,9.62377 0.10933,0.0857 10.77378,2.7036 23.69878,5.81748 33.07419,7.96819 30.8948,7.27714 30.28649,9.60333 -0.28586,1.09315 -0.80477,1.94667 -1.15312,1.89672 -0.34835,-0.0499 -13.43284,-3.21192 -29.07663,-7.02659 z M 381,132.5 c 0,-1.68305 0.18315,-1.75069 2.41821,-0.89301 C 385.65261,132.46441 385.38425,134 383,134 c -1.11111,0 -2,-0.66667 -2,-1.5 z m 2.38,-4.95211 c -0.58277,-1.51869 0.24253,-3.55887 1.42902,-3.53258 1.7965,0.0398 3.19503,1.81057 2.61786,3.31464 -0.78853,2.05488 -3.29028,2.18961 -4.04688,0.21794 z m 3.83613,-6.3941 c -1.74337,-1.10491 -0.38343,-4.33266 1.6597,-3.93919 1.75802,0.33857 2.2615,3.91665 0.62417,4.43581 -0.55,0.17439 -1.57774,-0.0491 -2.28387,-0.49662 z m 4.49278,-6.37737 c -1.48957,-1.0892 -1.56955,-1.57875 -0.49335,-3.01953 1.86042,-2.49068 4.50133,-0.67856 3.21437,2.20562 -0.81166,1.819 -1.19121,1.93253 -2.72102,0.81391 z M 28.241874,108.89782 C 24.699977,107.58124 23.350766,103.6398 25.381202,100.54096 28.405972,95.924583 36,97.955132 36,103.3803 c 0,4.32371 -3.765443,7.00166 -7.758126,5.51752 z m 366.868236,-1.26514 c -1.4595,-1.75859 0.89308,-3.95242 3.26314,-3.04294 1.93641,0.74307 2.04877,1.58824 0.42675,3.21026 -1.54657,1.54657 -2.29567,1.5126 -3.68989,-0.16732 z M 43,105 c -1.1,-1.1 -2,-2.61431 -2,-3.36514 C 41,99.493974 44.962418,95 46.850074,95 49.923454,95 53,97.952377 53,100.90172 53,106.37055 46.87908,108.87908 43,105 Z m 17.454545,-2.45455 C 57.594325,99.685234 57.421009,98.271639 59.556704,95.222506 62.590063,90.89178 70,93.450547 70,98.828741 70,101.34175 66.712719,105 64.454545,105 c -0.85,0 -2.65,-1.10455 -4,-2.45455 z m 339.655565,-0.91277 c -0.86313,-1.04001 -0.77275,-1.667779 0.37756,-2.622446 2.11834,-1.758064 5.11849,0.554466 3.40222,2.622446 C 403.26576,102.38471 402.41531,103 402,103 c -0.41531,0 -1.26576,-0.61529 -1.88989,-1.36732 z m 5,-6.000001 c -0.86313,-1.040007 -0.77275,-1.667778 0.37756,-2.622445 2.11834,-1.758064 5.11849,0.554466 3.40222,2.622445 C 408.26576,96.384705 407.41531,97 407,97 c -0.41531,0 -1.26576,-0.615295 -1.88989,-1.367321 z m 5.93154,-5.082491 c -1.04872,-1.263633 -1.04872,-1.836743 0,-3.100376 1.16211,-1.400252 1.43648,-1.400252 2.83673,0 1.40025,1.400251 1.40025,1.700125 0,3.100376 -1.40025,1.400252 -1.67462,1.400252 -2.83673,0 z m 5.39904,-5.646149 c -0.37254,-0.602779 -0.0229,-1.750364 0.77689,-2.550189 1.2723,-1.272302 1.61062,-1.265778 2.70441,0.05216 0.68761,0.828511 0.95989,1.976095 0.60508,2.550188 -0.8452,1.367568 -3.22773,1.337158 -4.08638,-0.05216 z m 6.44673,-4.539695 c -1.02092,-1.230122 -0.98749,-1.688287 0.17688,-2.424303 1.86201,-1.177004 3.35908,-0.669131 3.73479,1.266998 0.41864,2.157354 -2.39166,2.988807 -3.91167,1.157305 z m 6.6857,-4.034394 c -0.57027,-1.486099 0.81502,-3.272847 2.56989,-3.314637 1.34254,-0.03197 1.86782,3.360901 0.64086,4.139425 -1.88241,1.194417 -2.49644,1.036682 -3.21075,-0.824788 z m 6.74978,-3.930875 c -0.89693,-2.337361 1.88223,-3.756054 3.39507,-1.733095 0.66988,0.895765 0.98082,2.012369 0.69098,2.481342 -0.87921,1.422592 -3.43244,0.955039 -4.08605,-0.748247 z m 7.08334,-2.550779 c -0.39148,-0.633437 0.12407,-1.762901 1.14568,-2.50992 1.5832,-1.157661 1.9829,-1.134091 2.7069,0.159624 1.57298,2.810758 -2.16038,5.088326 -3.85258,2.350296 z m 7.32657,-2.762045 c -0.34286,-1.31108 0.11205,-2.073924 1.44454,-2.422377 2.36118,-0.617462 3.74514,2.138391 1.71837,3.421738 -2.05357,1.300312 -2.60729,1.125359 -3.16291,-0.999361 z m 7.87418,-1.668038 C 457.73059,63.13436 457.80205,63 459.89301,63 c 1.89949,0 3.49073,2.282925 2.37142,3.402234 -1.12037,1.120371 -3.04903,0.601471 -3.65744,-0.984021 z M 466,64.073324 C 466,62.932996 466.1882,62 466.41821,62 c 0.23002,0 1.16962,-0.28834 2.088,-0.640756 1.31662,-0.505235 1.5983,-0.137269 1.33179,1.739784 C 469.40417,66.154481 466,67.018649 466,64.073324 Z M 474,63 c 0,-1.333333 0.66667,-2 2,-2 1.33333,0 2,0.666667 2,2 0,1.333333 -0.66667,2 -2,2 -1.33333,0 -2,-0.666667 -2,-2 z m 8,0.07332 C 482,61.642225 482.64223,61 484.07332,61 c 2.56265,0 2.27193,3.309829 -0.3348,3.811841 C 482.53852,65.04294 482,64.504423 482,63.073324 Z m 7.1545,0.37471 c 0.19002,-0.980266 0.95098,-1.983917 1.691,-2.230336 0.86063,-0.286576 1.221,0.194252 1,1.334268 -0.19002,0.980266 -0.95098,1.983917 -1.691,2.230336 -0.86063,0.286576 -1.221,-0.194252 -1,-1.334268 z"
         id="path9" />
      <path
         style="fill:#24292e"
         d="m 57.00714,425.40702 c -4.166042,-1.80663 -7.699337,-4.95047 -9.541239,-8.48956 -0.739239,-1.4204 -11.763668,-75.5135 -24.49873,-164.65132 C -0.080524,90.946042 -0.1793993,90.180314 1.5634447,86.507543 2.6136953,84.294304 4.5520475,82.267671 6.4071886,81.443193 9.9026533,79.889709 90.796458,67.463124 91.677621,68.344288 94.146327,70.812993 89.386139,71.897441 49.853889,77.872412 10.914788,83.757734 8.3686152,84.268365 6.25,86.617118 5.0125,87.989043 4,89.881137 4,90.821771 c 0,0.940635 10.300828,73.802269 22.890728,161.914749 17.783456,124.46042 23.305561,160.91098 24.75,163.3709 2.208963,3.76192 7.644144,6.90753 11.84367,6.85451 1.658581,-0.0209 37.665602,-5.33036 80.015602,-11.79872 64.6897,-9.88042 77.67923,-11.60607 81.24853,-10.79379 2.33669,0.53178 4.08808,1.1273 3.89199,1.3234 -0.49836,0.49835 -163.672085,25.31608 -166.134461,25.26804 -1.103333,-0.0215 -3.577846,-0.72076 -5.498919,-1.55384 z M 378,364.57166 c -19.23275,-4.77145 -42.13768,-10.32236 -92.5,-22.41698 -11.16651,-2.68166 -16,-4.26308 -16,-5.23486 0,-0.76584 0.675,-1.50948 1.5,-1.65254 0.825,-0.14306 30.975,6.87482 67,15.59529 51.78917,12.53646 65.56768,16.19891 65.82332,17.49642 0.48887,2.48123 -2.06696,2.10638 -25.82332,-3.78733 z m -155.79617,1.71762 c -2.42294,-1.92356 -6.97385,-3.47384 -17.17834,-5.85184 -7.63519,-1.77927 -15.49829,-3.7684 -17.47355,-4.4203 -2.90651,-0.95923 -70.68254,-49.81866 -123.848157,-89.28157 -11.5876,-8.60105 -14.240866,-12.03849 -13.381196,-17.33602 0.588041,-3.62367 7.580257,-13.742 10.620855,-15.36928 4.566197,-2.44376 8.562101,-1.2406 17.705647,5.33114 12.643358,9.08716 119.253731,87.17632 122.870011,89.99891 1.66051,1.29606 7.01455,9.17019 11.89786,17.49807 4.88332,8.32789 9.14973,15.15658 9.4809,15.17488 1.79728,0.0993 5.03673,3.97362 4.49747,5.3789 -0.79967,2.08389 -1.28419,1.97909 -5.1915,-1.12289 z m -7.30805,-9.48402 c -1.20635,-2.25409 -11.92062,-20.08553 -12.36685,-20.58179 -0.13676,-0.15209 -2.96633,3.44791 -6.28793,8 -3.32159,4.55209 -5.86845,8.45524 -5.65967,8.67366 0.31906,0.33379 22.31612,5.67332 24.70385,5.99657 0.43185,0.0585 0.25662,-0.88134 -0.3894,-2.08844 z m -21.53936,-14.9793 6.53304,-9.17403 -3.69473,-2.80707 c -3.69473,-2.80707 -3.69473,-2.80707 -5.89676,-0.32597 -3.81283,4.29604 -6.69117,2.52199 -3.17034,-1.95402 1.15521,-1.4686 1.93658,-2.79423 1.73637,-2.94584 -8.01547,-6.06976 -7.49279,-5.90641 -9.74345,-3.04516 -2.49766,3.17526 -5.90621,2.76267 -4.1583,-0.50334 0.57668,-1.07753 1.49609,-2.23576 2.04313,-2.57385 1.74989,-1.08149 1.08783,-2.16923 -2.94452,-4.83771 l -3.93915,-2.6068 -6.56085,8.93874 C 159.95239,324.90722 157,329.31086 157,329.77677 c 0,1.02346 5.52878,5.22323 6.8761,5.22323 0.5264,0 1.78212,-1.11636 2.79049,-2.4808 1.26523,-1.71199 2.25924,-2.21227 3.20747,-1.61431 1.1379,0.71756 1.05507,1.40649 -0.48188,4.00834 -1.85593,3.14186 -1.85593,3.14186 1.12594,5.57835 3.78179,3.0901 4.88204,3.09435 7.14847,0.0276 1.33732,-1.80955 2.23279,-2.2293 3.3094,-1.55131 1.25993,0.79342 1.15234,1.36726 -0.73502,3.92004 -2.21101,2.99056 -2.21101,2.99056 1.02401,5.54023 1.77926,1.40231 3.75778,2.55465 4.39671,2.56075 0.63893,0.006 4.10155,-4.11723 7.69473,-9.16295 z m -32.81398,-23.88297 c 3.75851,-5.04791 6.34826,-9.41203 5.85055,-9.85905 C 165.90185,307.64282 150.2,296.11221 131.5,282.46038 112.8,268.80854 93.561096,254.75809 88.746879,251.23714 c -4.814217,-3.52095 -9.174712,-6.25219 -9.68999,-6.06943 -1.500266,0.53212 -13.13411,17.10063 -12.771442,18.18863 0.433767,1.3013 84.874293,63.44136 86.364003,63.55555 0.6322,0.0485 4.18404,-3.98754 7.89299,-8.9689 z M 74.801726,241.26208 c -2.436537,-2.93819 -7.693825,-5.32727 -10.289388,-4.67582 -3.456699,0.86758 -10.517613,10.36622 -10.497025,14.12104 0.01922,3.505 0.773377,4.68569 4.971182,7.78274 3.362934,2.48109 3.362934,2.48109 10.102364,-6.75447 4.905705,-6.72267 6.460114,-9.57239 5.712867,-10.47349 z M 449.01531,367.25 c 0.008,-0.4125 0.34592,-1.23277 0.75,-1.82282 0.40408,-0.59006 28.40969,-5.24371 62.23469,-10.34146 33.825,-5.09775 63.09643,-9.6703 65.04763,-10.16123 4.01172,-1.00936 8.29834,-5.0304 9.91031,-9.2963 0.88432,-2.34024 -1.32987,-19.83218 -11.96212,-94.5 -7.17602,-50.3955 -13.29648,-92.86569 -13.60102,-94.37819 -0.46227,-2.29588 -0.21032,-2.75 1.52574,-2.75 1.14371,0 2.07946,0.12625 2.07946,0.28056 0,0.15431 5.85,41.20306 13,91.21944 7.15,50.01638 12.9926,93.20263 12.98355,95.96944 -0.0215,6.56384 -3.24736,12.31848 -8.51377,15.18761 -3.17464,1.72953 -16.62526,4.08362 -67.15252,11.75284 -34.75051,5.27456 -63.88801,9.59011 -64.75,9.59011 -0.86199,0 -1.56037,-0.3375 -1.55195,-0.75 z M 344,326.41914 c -34.925,-8.47533 -64.5424,-15.65289 -65.81644,-15.95014 -2.55897,-0.59704 -2.69021,-4.06569 -0.14525,-3.83854 3.57456,0.31904 131.55333,31.61924 132.32456,32.36307 1.07545,1.03724 -0.0687,3.03609 -1.67189,2.92088 C 408.03594,341.86734 378.925,334.89447 344,326.41914 Z m -96.25,6.73157 c -5.38882,-1.27309 -6.75,-1.97566 -6.75,-3.48398 0,-1.63412 0.50652,-1.79998 3.75,-1.22794 7.27135,1.28243 10.25,2.63045 10.25,4.63876 0,1.05735 -0.1125,1.86516 -0.25,1.79514 -0.1375,-0.07 -3.2875,-0.84491 -7,-1.72198 z M 383.5,305.97488 C 365.9,301.6569 336.0875,294.41314 317.25,289.87764 287.85379,282.79993 283,281.37398 283,279.81564 283,278.81704 283.21009,278 283.46686,278 c 0.47077,0 33.93902,7.99349 69.03314,16.48774 10.45,2.52934 29.35,7.10048 42,10.15809 12.65,3.05761 23.12309,5.67373 23.27354,5.8136 0.48933,0.45494 -0.96874,3.54311 -1.63053,3.45346 C 415.78936,313.86497 401.1,310.29287 383.5,305.97488 Z m -126,-0.49996 c -0.55,-0.20195 -2.9125,-0.85877 -5.25,-1.4596 -3.01496,-0.77496 -4.25,-1.61381 -4.25,-2.88663 0,-1.6979 0.37583,-1.71354 7,-0.29127 5.56873,1.19565 7,1.8771 7,3.33277 0,1.70718 -1.90205,2.25866 -4.5,1.30473 z m 3.25,-29.18734 c -4.59293,-1.20068 -5.75,-1.90739 -5.75,-3.512 0,-1.60475 0.4526,-1.88109 2.25,-1.37376 1.2375,0.3493 4.41229,1.11939 7.05509,1.71131 3.50222,0.78441 4.72237,1.50259 4.5,2.64868 -0.42293,2.1798 -1.46721,2.24796 -8.05509,0.52577 z m 132.93474,-27.7648 c -14.19839,-3.47598 -26.05214,-6.55685 -26.34166,-6.84637 -0.28953,-0.28952 -0.14766,-1.15429 0.31526,-1.92172 1.22123,-2.02457 55.68354,11.17147 56.16498,13.60859 0.48802,2.4704 -1.73225,2.11381 -30.13858,-4.8405 z M 298,230.89981 c -17.875,-4.35962 -33.02497,-8.11702 -33.66659,-8.3498 -1.80501,-0.65484 2.03824,-14.19511 5.37783,-18.94676 3.62209,-5.1536 10.67613,-8.82697 16.99966,-8.85252 5.08568,-0.0206 34.06124,6.62157 38.30988,8.78185 9.16864,4.66189 14.2315,17.05059 11.0619,27.0682 -0.50453,1.59457 -1.18811,4.13672 -1.51906,5.64922 -0.38585,1.76342 -1.22271,2.71885 -2.33267,2.66319 C 331.27893,238.86544 315.875,235.25942 298,230.89981 Z m 130.5,-3.94841 c -8.25,-2.06431 -23.8875,-5.88779 -34.75,-8.49663 -18.35749,-4.40891 -22.03508,-5.92448 -18.97104,-7.81816 0.61469,-0.3799 61.30548,13.76873 68.47104,15.96242 1.75668,0.53779 2.40283,2.92487 1,3.6943 -0.4125,0.22625 -7.5,-1.27762 -15.75,-3.34193 z m -116,-44.59691 c -1.1,-0.2378 -3.02385,-0.65126 -4.27521,-0.9188 -4.24074,-0.90668 -10.1009,-7.27943 -11.72597,-12.75163 -2.30263,-7.7538 -0.56182,-14.45494 5.1619,-19.87044 8.15489,-7.71575 21.40562,-6.51911 28.78599,2.59959 2.82206,3.48674 3.05329,4.36422 3.05329,11.58679 0,7.22257 -0.23123,8.10005 -3.05329,11.58679 -4.48908,5.54642 -12.39439,8.96799 -17.94671,7.7677 z m 151.32164,-6.79863 c -14.1231,-3.4578 -26.32166,-6.53376 -27.10793,-6.83548 -1.16656,-0.44765 -0.12891,-5.89979 5.64003,-29.63448 3.88828,-15.99724 7.31185,-29.07901 7.60793,-29.07059 3.17114,0.0902 2.90508,2.2655 -3.47837,28.43897 -3.59775,14.75154 -6.4158,26.9463 -6.26233,27.09946 0.15347,0.15316 10.62903,2.80437 23.27903,5.89157 30.95956,7.5556 30.5,7.41859 30.5,9.09323 0,2.21998 -2.33278,1.83482 -30.17836,-4.98268 z M 114,171 c 0,-1.96296 0.66667,-2 36,-2 35.33333,0 36,0.037 36,2 0,1.96296 -0.66667,2 -36,2 -35.33333,0 -36,-0.037 -36,-2 z m 0.66667,-16.66667 C 114.3,153.96667 114,153.06667 114,152.33333 114,151.24691 120.66667,151 150,151 c 35.33333,0 36,0.037 36,2 0,1.96226 -0.66667,2 -35.33333,2 -19.43334,0 -35.63334,-0.3 -36,-0.66667 z m 0,-18 C 114.3,135.96667 114,135.06667 114,134.33333 114,133.24691 120.66667,133 150,133 c 29.87879,0 36,0.2338 36,1.375 0,0.75625 -1.40625,1.65625 -3.125,2 -4.20603,0.84121 -67.36404,0.80262 -68.20833,-0.0417 z M 381,132.59362 c 0,-0.91405 0.70014,-1.22329 2,-0.88337 1.1,0.28766 2,0.92053 2,1.40638 0,0.48585 -0.9,0.88337 -2,0.88337 -1.1,0 -2,-0.63287 -2,-1.40638 z m 3.21613,-4.43888 c -1.22696,-0.77853 -0.70168,-4.1714 0.64086,-4.13943 1.75487,0.0418 3.14016,1.82854 2.56989,3.31464 -0.71431,1.86147 -1.32834,2.01921 -3.21075,0.82479 z m 3.1197,-7.72196 c -0.78813,-2.05384 0.79372,-3.58878 2.56825,-2.49206 C 391.41535,118.87474 390.7193,122 389,122 c -0.58452,0 -1.3334,-0.70525 -1.66417,-1.56722 z m 3.91424,-6.25706 c -0.99499,-0.63179 -0.98426,-1.15698 0.0526,-2.57499 1.16715,-1.59618 1.43594,-1.62059 2.58601,-0.23483 2.04677,2.4662 0.0944,4.54521 -2.63863,2.80982 z m 142.82822,-11.65487 c -6.4837,-6.46661 -7.2524,-7.606135 -6.08213,-9.016227 1.19529,-1.440234 1.9976,-0.961922 7.44862,4.440643 3.35996,3.330104 6.40466,6.054734 6.76598,6.054734 0.36133,0 9.54709,-9.011058 20.41281,-20.024573 17.77812,-18.019931 19.90983,-19.870597 21.29393,-18.486498 1.3841,1.384099 -0.61117,3.689068 -19.93099,23.024573 -11.80799,11.817578 -21.69799,21.469168 -21.97779,21.447988 -0.2798,-0.0212 -3.84849,-3.36947 -7.93043,-7.44064 z M 26.2,107.8 c -0.66,-0.66 -1.2,-2.595 -1.2,-4.3 0,-3.796556 1.562526,-5.5 5.045012,-5.5 4.992904,0 7.791864,6.02027 4.383559,9.42857 C 32.568913,109.28823 27.899024,109.49902 26.2,107.8 Z M 128,106.9425 c 0,-1.80159 0.52752,-2.01925 4.24137,-1.75 3.09392,0.22431 4.33118,0.78094 4.57333,2.0575 0.27693,1.45995 -0.42604,1.75 -4.24138,1.75 C 128.62407,109 128,108.71924 128,106.9425 Z m 18,0.17968 c 0,-1.56173 0.71317,-1.85631 4.23675,-1.75 3.17708,0.0958 4.32093,0.56552 4.57332,1.87782 0.28092,1.46063 -0.41965,1.75 -4.23675,1.75 C 146.76585,109 146,108.68554 146,107.12218 Z m 18,-0.17968 c 0,-1.80159 0.52752,-2.01925 4.24137,-1.75 3.09392,0.22431 4.33118,0.78094 4.57333,2.0575 0.27693,1.45995 -0.42604,1.75 -4.24138,1.75 C 164.62407,109 164,108.71924 164,106.9425 Z m 232.07074,1.10122 C 394.65209,107.16695 395.25939,104 396.84617,104 c 0.49992,0 1.41959,0.61529 2.04372,1.36732 1.46688,1.76748 -0.80301,3.92244 -2.81915,2.6764 z M 44.399704,106.23469 C 42.099409,104.69874 40.888238,101.07735 41.987735,99.022918 43.070084,97.00053 46.027191,95 47.934259,95 49.882767,95 53,98.96492 53,101.4433 c 0,3.81408 -5.486343,6.87063 -8.600296,4.79139 z m 17.915668,-2.30836 c -5.148179,-1.91709 -4.93734,-9.230154 0.304035,-10.545655 4.757477,-1.194051 8.452182,2.697714 6.842192,7.207125 -1.118398,3.13252 -4.037404,4.4962 -7.146227,3.33853 z m 337.794738,-2.29365 c -0.8645,-1.04166 -0.76448,-1.674637 0.41994,-2.65762 1.9218,-1.594953 3.81959,-0.04977 2.89574,2.35772 -0.77694,2.02469 -1.80691,2.11785 -3.31568,0.2999 z m 5.22572,-6.199897 c -0.83346,-2.171962 1.28244,-4.214515 2.79695,-2.7 C 409.41282,94.012816 408.61983,97 407,97 c -0.58452,0 -1.3334,-0.705248 -1.66417,-1.567217 z m 5.67399,-5.92095 c -1.00286,-1.208373 -0.91924,-1.609362 0.44477,-2.132782 1.97026,-0.75606 4.07104,0.961444 3.09926,2.533817 -0.92279,1.493111 -2.08078,1.362076 -3.54403,-0.401035 z m 5.61403,-5.049687 c -0.34197,-0.891165 0.0618,-1.78803 0.96023,-2.132783 1.86736,-0.716573 3.91072,1.061016 2.96977,2.583505 -0.98128,1.587744 -3.24751,1.327836 -3.93,-0.450722 z M 114,80 c 0,-1.962963 0.66667,-2 36,-2 35.33333,0 36,0.03704 36,2 0,1.962963 -0.66667,2 -36,2 -35.33333,0 -36,-0.03704 -36,-2 z m 309.06078,0.573238 c -0.7981,-0.96166 -0.6967,-1.630512 0.38308,-2.526649 C 425.09418,76.676947 427,77.430155 427,79.452028 c 0,1.91056 -2.65658,2.666695 -3.93922,1.12121 z m 6.8862,-4.137122 c -1.09724,-1.322098 -1.07756,-1.740926 0.11732,-2.497019 1.99052,-1.259548 2.63569,-1.163285 3.26927,0.48779 0.8847,2.3055 -1.81259,3.905778 -3.38659,2.009229 z m 6.67687,-3.97397 c -0.34487,-0.898723 0.0682,-1.790482 0.99393,-2.145717 1.95108,-0.748698 3.7879,1.805776 2.07943,2.891865 -1.76663,1.123064 -2.41663,0.965256 -3.07336,-0.746148 z m 7,-3 c -0.75702,-1.972762 2.28568,-3.226566 3.41109,-1.405609 0.4582,0.741384 0.61123,1.706957 0.34006,2.145717 -0.82906,1.341454 -3.12631,0.888204 -3.75115,-0.740108 z m 7.69258,-2.07993 c -0.62635,-1.632247 1.46814,-3.633395 2.88582,-2.757216 1.34146,0.829064 0.88821,3.12631 -0.7401,3.751152 -0.89873,0.344873 -1.79049,-0.06821 -2.14572,-0.993936 z m 7.30678,-1.921739 C 457.72216,63.112375 457.78839,63 460.07332,63 c 1.39797,0 1.96801,0.54305 1.75,1.667134 -0.44275,2.28292 -2.43864,2.777722 -3.20011,0.793343 z m 7.97456,-0.196045 C 465.28086,63.947525 466.11742,62 468,62 c 1.1,0 2,0.626855 2,1.393011 0,1.50843 -2.42909,2.844566 -3.40223,1.871421 z M 474,63 c 0,-1.333333 0.66667,-2 2,-2 1.33333,0 2,0.666667 2,2 0,1.333333 -0.66667,2 -2,2 -1.33333,0 -2,-0.666667 -2,-2 z m 8,0 c 0,-1.367185 0.66667,-2 2.10699,-2 1.51045,0 1.93514,0.447838 1.5,1.581787 -0.33385,0.869984 -0.60699,1.769984 -0.60699,2 C 485,64.811804 484.325,65 483.5,65 482.66667,65 482,64.111111 482,63 Z m 8.15789,0 c 0,-1.375 0.22698,-1.9375 0.50439,-1.25 0.27741,0.6875 0.27741,1.8125 0,2.5 -0.27741,0.6875 -0.50439,0.125 -0.50439,-1.25 z M 114,62 c 0,-1.962963 0.66667,-2 36,-2 35.33333,0 36,0.03704 36,2 0,1.962963 -0.66667,2 -36,2 -35.33333,0 -36,-0.03704 -36,-2 z m 95,-10.074568 c 0,-1.140879 0.88989,-2.087129 2.25,-2.392508 1.2375,-0.277848 40.95,-6.381989 88.25,-13.564757 C 346.8,28.7854 419.36395,17.743351 460.75322,11.430282 532.21641,0.53006489 536.1596,0.03117432 539.04745,1.5245356 c 4.42732,2.2894553 6.49527,6.4451359 7.80068,15.6759284 0.91563,6.474621 0.89567,8.344248 -0.0958,8.973745 -2.21961,1.409305 -2.43057,0.95957 -3.65482,-7.79181 C 541.8443,9.4238263 540.112,5.4877107 536.98588,4.4955199 535.58795,4.051834 219.03517,51.51677 210.75,53.41237 209.56006,53.684622 209,53.208751 209,51.925432 Z M 114,44 c 0,-1.962963 0.66667,-2 36,-2 35.33333,0 36,0.03704 36,2 0,1.962963 -0.66667,2 -36,2 -35.33333,0 -36,-0.03704 -36,-2 z"
         id="path8" />
    </g>
  </g>
</svg>
