<?xml version="1.0" encoding="UTF-8" standalone="no"?>
<!-- Created with Inkscape (http://www.inkscape.org/) -->

<svg
   version="1.1"
   id="svg1"
   width="534"
   height="450"
   viewBox="0 0 534 450"
   sodipodi:docname="HR_06.svg"
   inkscape:version="1.3.2 (091e20e, 2023-11-25, custom)"
   xmlns:inkscape="http://www.inkscape.org/namespaces/inkscape"
   xmlns:sodipodi="http://sodipodi.sourceforge.net/DTD/sodipodi-0.dtd"
   xmlns="http://www.w3.org/2000/svg"
   xmlns:svg="http://www.w3.org/2000/svg">
  <defs
     id="defs1" />
  <sodipodi:namedview
     id="namedview1"
     pagecolor="#ffffff"
     bordercolor="#000000"
     borderopacity="0.25"
     inkscape:showpageshadow="2"
     inkscape:pageopacity="0.0"
     inkscape:pagecheckerboard="0"
     inkscape:deskcolor="#d1d1d1"
     showgrid="false"
     inkscape:zoom="1.7488889"
     inkscape:cx="266.74079"
     inkscape:cy="225"
     inkscape:window-width="1920"
     inkscape:window-height="1001"
     inkscape:window-x="-9"
     inkscape:window-y="-9"
     inkscape:window-maximized="1"
     inkscape:current-layer="g1" />
  <g
     inkscape:groupmode="layer"
     inkscape:label="Image"
     id="g1">
    <g
       id="g2"
       transform="translate(0,0.10130058)">
      <path
         style="fill:#fefefe"
         d="M 0,225 V 0 H 267 534 V 225 450 H 267 0 Z"
         id="path5" />
      <path
         style="fill:#cdcac7"
         d="M 44,448.52836 C 21.0319,445.53122 4.0238764,440.17892 0.70831851,434.90478 0.15676337,434.0274 -0.00495399,432.15587 0.3489466,430.74582 1.6187581,425.68649 13.853829,421.73603 34.137112,419.83631 l 12.880997,-1.20643 5.990946,-7.29937 C 56.304075,407.31586 59,403.79914 59,403.51557 59,403.23201 57.792076,403 56.315724,403 c -1.476351,0 -4.54351,-0.90004 -6.815909,-2.00009 -6.845197,-3.3137 -7.874859,-6.30755 -11.602379,-33.73511 l -3.293665,-24.2352 -2.051885,1.33236 c -6.556344,4.25725 -6.122844,4.20266 -9.984619,1.25714 -4.506534,-3.4373 -6.50095,-6.43558 -7.217327,-10.8501 l -0.558647,-3.44254 8.104353,-5.19872 c 4.457395,-2.8593 8.11395,-5.74526 8.125678,-6.41324 0.01173,-0.66797 -6.149076,-45.57665 -13.690676,-99.79706 l -13.7119987,-98.58256 1.3502089,-3.2597 c 0.7984369,-1.92759 2.6131491,-3.83311 4.4406754,-4.66286 1.6997564,-0.77175 24.4214704,-4.54874 50.4926974,-8.39331 26.071227,-3.84458 47.549219,-7.137127 47.728869,-7.31678 0.17966,-0.179653 -8.638477,-2.056412 -19.595849,-4.170576 -10.957372,-2.114163 -20.459144,-4.175601 -21.11505,-4.580972 -0.88586,-0.547492 0.932951,-11.758727 7.07228,-43.593861 4.545658,-23.571252 8.334484,-42.9468667 8.419611,-43.0569225 0.08513,-0.1100558 28.039728,5.1922248 62.121338,11.7828455 34.08162,6.590621 80.61729,15.581385 103.41261,19.979475 22.79532,4.39809 41.66114,8.211626 41.92404,8.474524 0.40283,0.402832 -2.93139,20.405765 -4.508,27.044754 l -0.49431,2.081497 14.31611,-2.146245 L 313.5,67.370505 313.1642,65.435252 C 312.97952,64.370864 312.77445,60.125 312.70851,56 c -0.10018,-6.266865 0.34724,-8.527197 2.72123,-13.747476 3.05683,-6.721813 8.83123,-12.817983 15.22085,-16.069027 C 332.76776,25.106275 355.875,18.728722 382,12.011156 l 47.5,-12.21375717 6.71129,0.46501088 C 448.1146,1.0871645 459.4134,8.8357324 464.007,19.32433 465.01283,21.620948 471.32347,44.875 478.03065,71 l 12.19487,47.5 -0.61458,5.9141 c -0.97903,9.42121 -6.28838,18.74442 -13.58491,23.85511 l -1.98733,1.39198 1.66371,12.03856 1.6637,12.03855 4.06695,-1.84719 c 7.54288,-3.42594 18.48506,-1.95403 23.06077,3.10207 0.92161,1.01837 1.92096,3.68042 2.22077,5.91566 l 0.54511,4.06408 2.62014,-0.70905 c 7.60505,-2.05804 17.70531,0.8507 22.02562,6.34309 2.30102,2.92527 2.75307,8.29403 0.97768,11.61137 -0.61426,1.14777 -10.94533,12.63159 -22.95793,25.51961 -19.11615,20.50926 -21.7831,23.76522 -21.37635,26.09742 1.7285,9.91072 9.45113,67.97449 9.45113,71.05971 0,4.18501 -2.89848,9.23526 -7.07524,12.32776 -2.0325,1.50487 -12.45202,3.37308 -49.43909,8.86437 -25.77512,3.82671 -47.00373,7.09753 -47.1747,7.2685 -0.33065,0.33065 16.56215,61.85075 17.14312,62.43172 0.18837,0.18838 3.20077,1.0062 6.6942,1.81739 3.49344,0.81119 8.224,2.37764 10.51235,3.48099 13.60584,6.5602 0.0818,13.05139 -36.66064,17.59616 -21.08226,2.60773 -90.99452,2.60255 -111.98927,-0.008 -24.38032,-3.03186 -36.10212,-6.01315 -40.01387,-10.17701 -2.71741,-2.89256 -1.84363,-4.53982 3.93624,-7.42068 9.96895,-4.96881 48.23659,-10.06621 75.62503,-10.07355 l 9.05814,-0.002 -5.78204,-22.64057 c -3.18011,-12.45231 -6.01617,-22.8747 -6.30234,-23.16087 -0.28617,-0.28617 -29.88541,3.83817 -65.7761,9.16519 C 214.86511,379.69078 172.45,385.96771 156.5,388.31249 l -29,4.26323 -4.0857,17.46214 -4.0857,17.46214 3.5857,1.86537 c 13.66863,7.11074 9.95337,13.61772 -10.4143,18.23982 -9.80814,2.2258 -53.95779,2.8208 -68.5,0.92317 z m 48.5,-6.95022 c 4.95,-0.77424 11.475,-2.27463 14.5,-3.3342 l 5.5,-1.9265 4.2209,-17.90872 c 2.32149,-9.8498 6.55934,-29.15872 9.41744,-42.90872 7.31083,-35.17159 7.06841,-41.49337 -2.17907,-56.8259 L 120,312.10955 v -15.08689 c 0,-16.899 -0.75596,-19.95664 -6.03153,-24.39573 -2.50198,-2.10528 -3.47163,-2.45789 -3.99654,-1.45331 -0.38118,0.72951 -2.61822,11.45138 -4.97118,23.82638 -4.76871,25.08015 -5.300298,27 -7.475999,27 -1.898071,0 -1.920018,-3.09161 -0.08873,-12.5 0.749379,-3.85 1.251702,-7.11864 1.116274,-7.26364 -0.135428,-0.145 -5.602596,3.18279 -12.149262,7.39508 -6.546666,4.21229 -14.657051,9.40703 -18.023079,11.54386 l -6.12005,3.88514 10.875671,27.21978 c 5.981618,14.97088 10.696585,27.69284 10.477703,28.27103 -0.218882,0.57818 -9.671411,12.42073 -21.005621,26.31676 C 51.273444,420.76405 42,432.53766 42,433.03158 c 0,1.36238 2.606071,2.43166 13,5.33398 16.627333,4.64288 24.205147,5.29207 37.5,3.21258 z M 392,427.9597 c 3.575,-0.56386 8.78789,-1.67634 11.5842,-2.47218 l 5.0842,-1.44699 -6.29933,-22.77027 C 398.90444,388.74662 393.99849,371.075 391.46694,362 c -2.53154,-9.075 -9.63903,-34.725 -15.79443,-57 l -11.19164,-40.5 -8.9829,-0.29247 c -9.52355,-0.31007 -11.64174,-1.12444 -9.53314,-3.66515 C 347.07995,259.19874 352.49301,259 387.97518,259 h 40.73029 l 7.88582,-16.75 c 4.3372,-9.2125 12.50347,-26.1028 18.14726,-37.534 C 460.38235,193.2848 465,183.33298 465,182.60086 c 0,-2.6157 -3.99686,-6.37769 -7.46763,-7.02881 -4.60944,-0.86474 -10.68947,0.84782 -14.55365,4.09931 -1.93795,1.63067 -6.14079,8.50664 -11.13901,18.2237 -4.41474,8.58272 -10.48061,20.22633 -13.47972,25.87469 L 412.90707,234.0395 391.70354,233.76975 370.5,233.5 369.88963,228 c -1.20116,-10.82362 -6.15576,-17.61528 -16.37862,-22.45146 -5.63229,-2.6645 -6.71828,-4.77317 -2.75945,-5.35803 2.77533,-0.41002 9.39555,3.04416 14.26372,7.44226 4.4718,4.04001 8.61462,11.87311 9.58194,18.11723 l 0.6584,4.25 h 17.37948 17.37948 l 4.19694,-8.46244 c 2.30831,-4.65434 3.99253,-8.64494 3.74271,-8.86801 -0.24983,-0.22307 -13.93273,-4.29097 -30.40646,-9.03979 -16.47372,-4.74882 -30.40444,-9.08643 -30.95714,-9.63913 -1.63974,-1.63974 0.98023,-3.47325 17.96516,-12.57234 8.76931,-4.69786 15.04421,-8.31919 13.94421,-8.0474 -1.1,0.27178 -4.80813,1.25759 -8.24028,2.19068 -13.35285,3.6302 -26.88739,0.53112 -35.51263,-8.13153 l -3.75291,-3.76919 -5.23366,2.41957 c -7.20738,3.33205 -19.38408,12.65452 -24.57922,18.81782 -11.05274,13.11251 -17.38376,27.86975 -19.05541,44.41706 -1.27193,12.59052 -0.17474,19.5771 8.19526,52.1847 4.09418,15.95 12.21756,47.675 18.05197,70.5 5.8344,22.825 12.33462,48.23126 14.44492,56.45835 l 3.83692,14.95834 3.19789,1.30488 c 9.2195,3.76194 37.63764,5.5266 52.14715,3.23813 z M 60.919866,398.36603 c 2.444085,-0.48882 4.878487,-2.7212 10.632315,-9.75 4.104347,-5.01382 7.285152,-9.56603 7.068455,-10.11603 -5.776651,-14.66177 -20.022899,-50.10546 -20.254641,-50.39216 -0.314861,-0.38954 -15.451128,9.11131 -18.414302,11.55842 -1.389309,1.14735 -1.178551,3.87446 2.05233,26.5562 2.021186,14.18932 4.228224,26.25924 5.031331,27.51549 1.526655,2.38807 6.408052,5.2017 9.089646,5.23928 0.89375,0.0125 3.05144,-0.26252 4.794866,-0.6112 z M 184.23541,379.99692 c 29.84552,-4.4017 63.26459,-9.36135 74.26459,-11.02145 11,-1.6601 28.36898,-4.24622 38.59773,-5.74692 l 18.59774,-2.72855 -14.00205,-54 -14.00206,-54 -0.0336,-15.5 -0.0336,-15.5 3.16419,-9.5 c 7.31686,-21.96776 22.68973,-39.94209 42.40117,-49.57646 4.75134,-2.32232 5.53699,-3.06598 4.76433,-4.5097 -0.50888,-0.95085 -5.22862,-18.53295 -10.48831,-39.07133 -5.25969,-20.53838 -10.20531,-39.624517 -10.99026,-42.413636 l -1.42719,-5.071126 -15.19437,2.324766 c -8.35691,1.278622 -15.35743,2.487822 -15.55672,2.687112 -0.19929,0.199289 -2.59367,11.968671 -5.32085,26.154184 -2.72717,14.18551 -5.16867,26.00201 -5.42555,26.25889 -0.25688,0.25688 -12.52336,-1.86663 -27.25885,-4.71891 -14.73548,-2.85228 -48.6883,-9.41235 -75.4507,-14.57793 l -48.6589,-9.39196 -53.841096,7.97078 c -29.612601,4.38393 -54.868898,8.20022 -56.125103,8.48064 -1.256204,0.28042 -2.7420924,1.51524 -3.3019733,2.74405 -0.7691714,1.68814 2.2983943,26.0606 12.5512633,99.72241 7.463076,53.61852 13.675325,97.8298 13.804998,98.24729 0.243583,0.78423 24.39185,-14.41118 26.307024,-16.55382 0.592516,-0.66289 3.449216,-6.89032 6.348223,-13.83874 l 5.270921,-12.6335 26.924073,-18.18553 c 14.80824,-10.00205 27.66545,-18.04198 28.57157,-17.86651 2.29191,0.44382 6.30791,8.42885 6.30791,12.54206 0,1.87465 -0.47359,4.29336 -1.05242,5.37492 -0.92816,1.73428 -0.78056,1.90453 1.25,1.44193 4.80782,-1.09531 16.07445,-2.60118 16.47379,-2.20185 0.22937,0.22938 -2.20595,4.63465 -5.41183,9.78951 l -5.82887,9.37246 0.0948,5.5 c 0.0521,3.025 0.66939,6.85 1.37172,8.5 1.68406,3.95643 0.88243,10.59644 -1.72061,14.25207 -1.299,1.82428 -1.73529,3.28918 -1.15302,3.87145 1.53612,1.53612 -0.92468,8.58218 -4.19249,12.00443 l -2.98678,3.12796 2.07787,6.72738 c 2.96042,9.58471 2.65366,18.0413 -1.41531,39.01671 -3.55889,18.34599 -3.87636,20.5 -3.0214,20.5 0.26697,0 24.90447,-3.60139 54.75,-8.00308 z M 161.43926,238.70231 c -0.29106,-0.7585 -0.39647,-4.93932 -0.23423,-9.2907 L 161.5,221.5 h 8.5 8.5 v 9 9 l -8.26577,0.2907 c -6.30691,0.2218 -8.39118,-0.0361 -8.79497,-1.08839 z M 174.71429,230.5 V 226 H 169.85714 165 v 4.5 4.5 h 4.85714 4.85715 z m -47.4138,-9.8494 c -8.90973,-6.13283 -16.22223,-11.49395 -16.25,-11.9136 -0.0397,-0.59986 3.59825,-2.59033 9.71411,-5.31498 0.14553,-0.0648 -0.88517,-2.17502 -2.29043,-4.68931 C 107.59896,179.27483 103.94513,152.10586 109.36513,131 c 3.32682,-12.9549 6.13343,-19.24815 8.38108,-18.79285 2.27782,0.46142 2.04367,2.68353 -1.1728,11.12997 -8.21781,21.57993 -6.83707,45.59011 3.93418,68.41288 2.40106,5.0875 4.63703,9.25 4.96882,9.25 0.3318,0 2.42895,-0.93139 4.66033,-2.06976 2.23139,-1.13837 4.17926,-1.92587 4.32859,-1.75 0.56555,0.66602 9.65961,34.02741 9.35458,34.31711 -0.17595,0.16711 -7.60969,-4.71392 -16.51942,-10.84675 z M 126.3813,212 c -2.75841,-4.16825 -3.16603,-4.40357 -5.84613,-3.37512 -1.25231,0.48055 -0.52059,1.39165 3.16822,3.9449 2.63813,1.82601 4.91549,3.34482 5.0608,3.37512 0.1453,0.0303 -0.927,-1.7449 -2.38289,-3.9449 z m 6.95808,-2.31206 c -1.51549,-5.32734 -3.35584,-7.08836 -4.86157,-4.65204 -0.60562,0.97992 5.38754,11.43208 6.12956,10.69006 0.19255,-0.19255 -0.37804,-2.90966 -1.26799,-6.03802 z M 185,230 v -2 h 14 14 v 2 2 h -14 -14 z m -22,-24 v -7 h 6.05902 c 4.55878,0 5.88342,0.3095 5.34982,1.25 -0.39006,0.6875 0.90373,-0.27203 2.87507,-2.13228 2.2351,-2.10915 4.1737,-3.1561 5.15018,-2.78139 2.45417,0.94176 1.86105,2.98528 -1.93409,6.66367 -2.79204,2.70615 -3.5,4.16175 -3.5,7.19617 V 213 h -7 -7 z m 22,-0.51085 v -2.51086 l 42.25,0.26086 42.25,0.26085 0.31955,2.25 0.31955,2.25 H 227.56955 185 Z M 163.20307,181.30419 163.5,174.5 l 5.84155,-0.30264 c 4.57205,-0.23686 5.68035,-0.0195 5.09982,1 -0.40795,0.71645 0.905,-0.25215 2.91765,-2.15244 l 3.65938,-3.45509 1.69935,1.69935 1.69935,1.69935 -3.70855,3.7979 C 177.83766,179.72648 177,181.38759 177,184.14059 v 3.55626 l -7.04693,0.20577 -7.04692,0.20576 z M 185.18045,180.75 185.5,178.5 h 47.5 47.5 l 0.31955,2.25 0.31955,2.25 H 233 184.8609 Z M 25.500367,134.6409 c -1.764017,-2.69223 -1.139786,-5.22833 1.655055,-6.72408 4.549237,-2.43468 9.185223,2.38815 6.392597,6.65024 -2.07748,3.17063 -5.995004,3.20658 -8.047652,0.0738 z m 14.592201,-1.02936 c -2.13093,-2.56762 -0.943182,-6.95214 2.17902,-8.04377 2.298914,-0.80378 3.143209,-0.59742 4.950634,1.21001 1.80726,1.80726 2.013769,2.65193 1.210357,4.95063 -0.732381,2.09547 -1.7169,2.84503 -4.035809,3.07266 -1.817513,0.1784 -3.571132,-0.30624 -4.304202,-1.18953 z m 14.152512,-1.76646 c -1.807738,-1.80774 -1.525788,-5.28107 0.583661,-7.19009 2.432537,-2.20142 4.470081,-2.08726 6.698664,0.37529 2.718134,3.00351 1.005067,7.36415 -3.05038,7.7648 -1.642776,0.16229 -3.547151,-0.26521 -4.231945,-0.95 z M 442.92019,341.5811 c 46.32267,-6.87553 47.0099,-7.05555 49.96451,-13.08823 1.23312,-2.51777 0.85013,-6.70592 -3.49865,-38.25908 l -4.88335,-35.43182 -4.15585,4.59028 -4.15585,4.59028 -53.43231,0.25874 -53.43231,0.25873 11.33188,41 c 6.23253,22.55 11.56385,41.61169 11.84737,42.35931 0.35774,0.94333 1.50683,1.1768 3.75493,0.76291 1.78169,-0.32802 22.77852,-3.49653 46.65963,-7.04112 z m -14.72317,-23.55553 c -3.46664,-2.68723 -6.34378,-5.19068 -6.39365,-5.56322 -0.0499,-0.37255 2.22075,-3.76609 5.04584,-7.54121 3.52368,-4.70862 5.60976,-6.68225 6.64366,-6.2855 2.02596,0.77743 1.86548,2.3623 -0.54319,5.36436 -1.10321,1.375 -2.8881,3.68729 -3.96641,5.13843 l -1.96056,2.63842 5.54659,4.18772 c 5.29117,3.99487 6.43265,6.29334 3.34783,6.74115 -0.77942,0.11314 -4.25347,-1.99292 -7.72011,-4.68015 z m 30.8651,1.03398 c -1.18916,-0.75244 -0.9297,-1.62376 1.5,-5.03717 1.61583,-2.27004 3.53049,-4.96641 4.2548,-5.99194 l 1.31691,-1.8646 -5.50683,-4.15771 c -3.5187,-2.65664 -5.30939,-4.67224 -4.95993,-5.58291 0.86435,-2.25246 2.13934,-1.75805 9.4583,3.66772 4.54192,3.36707 6.61662,5.51463 6.12231,6.33734 -1.72477,2.87063 -9.78782,13.51253 -10.24768,13.52526 -0.275,0.008 -1.14705,-0.39559 -1.93788,-0.89599 z m -327.2424,-3.34232 c 0.58553,-0.70552 1.55224,-2.56536 2.14824,-4.13296 l 1.08364,-2.85019 -4.5752,0.51569 c -2.51636,0.28363 -4.82181,0.76231 -5.12323,1.06373 -0.82081,0.8208 2.8987,6.6865 4.23999,6.6865 0.63907,0 1.64102,-0.57725 2.22656,-1.28277 z m -0.41829,-12.1116 C 135.74328,301.79149 138,298.45581 138,293.85223 v -3.70276 l -5.75,1.57943 c -3.1625,0.86869 -6.0295,1.84756 -6.3711,2.17527 -0.34161,0.32771 -0.88291,2.95833 -1.20289,5.84583 l -0.58178,5.25 h 1.985 c 1.09176,0 3.48674,-0.62746 5.3222,-1.39437 z m -45.718242,-17.7567 c 8.699247,-5.58308 16.550102,-10.77877 17.446352,-11.54597 0.89625,-0.7672 1.90994,-3.1484 2.25265,-5.29155 0.3427,-2.14315 0.96058,-4.10522 1.37307,-4.36015 0.41249,-0.25493 2.50453,0.13967 4.64899,0.8769 l 3.89901,1.34042 5.79,-3.93191 c 3.1845,-2.16256 6.49127,-4.93312 7.34837,-6.1568 1.84667,-2.63649 1.98053,-8.39304 0.26683,-11.47553 l -1.22066,-2.19566 -21.00993,14.19566 c -11.555459,7.80761 -22.970529,15.56879 -25.366821,17.24705 -3.7187,2.60443 -4.917743,4.39881 -8.185741,12.25 C 70.819443,291.86063 69.269693,296 69.481419,296 c 0.211727,0 7.502523,-4.56798 16.201769,-10.15107 z m 46.006012,1.06541 c 2.59282,-0.96953 4.56184,-4.26329 4.12359,-6.8979 l -0.31279,-1.8804 -5.25,3.17299 c -3.91957,2.36891 -5.25,3.76253 -5.25,5.49937 0,2.43378 0.44498,2.44082 6.6892,0.10594 z M 465.6675,249.69858 C 468.46752,244.63936 475.8286,231.5 482.02545,220.5 c 6.19685,-11 11.88622,-21.47202 12.64303,-23.27115 0.75682,-1.79913 2.71602,-5.4489 4.35378,-8.1106 4.89929,-7.96237 3.70401,-12.03778 -4.15094,-14.1529 -4.66585,-1.25638 -9.04515,-0.55457 -13.53142,2.16852 -4.63653,2.81429 -27.702,40.25959 -37.91662,61.55517 -4.54271,9.47071 -8.51678,18.02755 -8.83127,19.01521 l -0.5718,1.79575 13.27817,-0.30142 13.27818,-0.30143 z m 18.01259,-0.48484 c 4.85095,-5.27779 16.8519,-18.17248 26.66878,-28.65486 9.81688,-10.48239 18.28116,-20.17112 18.80952,-21.53054 1.42354,-3.66261 -0.31612,-6.44219 -5.64718,-9.02291 -8.6599,-4.19219 -19.24594,-0.44133 -23.97418,8.49457 -1.16408,2.2 -8.93363,16.15 -17.26567,31 -8.33204,14.85 -15.40807,27.67875 -15.72451,28.50834 -0.47069,1.23395 0.23314,1.44404 3.86898,1.15487 l 4.44435,-0.35348 z m -54.15418,-56.43269 c 9.4394,-18.01558 12.38465,-20.85763 22.36294,-21.57939 10.24822,-0.74129 15.87493,2.40815 17.0332,9.53402 l 0.60616,3.72913 2.07183,-3.5115 2.07183,-3.51149 -1.77608,-12.47091 c -0.97685,-6.859 -1.80302,-12.55915 -1.83594,-12.66701 -0.0329,-0.10785 -2.19735,0.42563 -4.80985,1.18553 -2.6125,0.7599 -17.575,4.64112 -33.25,8.62494 -22.71728,5.77363 -29.11312,7.76501 -31.52174,9.81447 -1.66195,1.41414 -10.09945,6.35135 -18.75,10.97159 C 373.07772,187.52066 366,191.59563 366,191.9559 c 0,0.68191 51.34663,15.87046 54.02591,15.98109 0.97736,0.0404 4.3925,-5.40802 9.5,-15.15594 z M 103.84615,40 c 1.81585,-1.815848 4.04045,-3 5.63594,-3 1.50908,0 2.37076,-0.429069 2.01564,-1.00367 -1.41026,-2.281854 -8.46018,1.196468 -10.62554,5.242481 -1.369369,2.558693 -0.43385,2.168998 2.97396,-1.238811 z"
         id="path4" />
      <path
         style="fill:#63dfac"
         d="M 55.5,449.3376 C 37.185327,447.84404 15.499298,443.32163 7.6562984,439.36025 3.2464019,437.13288 0,433.96887 0,431.89827 c 0,-4.68755 12.404605,-9.40443 29,-11.02732 19.888625,-1.94495 17.760665,-1.10063 24.75,-9.82015 3.4375,-4.28845 6.25,-8.0013 6.25,-8.25079 0,-0.24949 -1.2375,-0.28378 -2.75,-0.0762 -3.928817,0.53923 -11.329206,-3.57056 -13.622589,-7.56528 -1.354781,-2.35982 -2.922363,-10.43272 -5.335975,-27.47976 -1.879697,-13.27607 -3.571721,-24.2924 -3.760054,-24.48073 -0.188332,-0.18833 -2.126479,0.7838 -4.306993,2.1603 l -3.96457,2.50272 -3.522981,-2.39393 C 19.400147,343.1998 15,336.06347 15,332.91924 c 0,-0.79712 3.820842,-3.85578 8.490759,-6.797 7.079676,-4.45896 8.411817,-5.70289 8.015745,-7.48497 C 31.245245,317.46177 29.213171,303.225 26.990782,287 22.718566,255.80982 16.032917,207.67347 8.5450872,154.19191 c -4.0037119,-28.59638 -4.3700965,-32.6748 -3.1891382,-35.5 2.5160581,-6.01916 -3.0522654,-4.8665 86.203731,-17.84445 20.19148,-2.935865 27.31053,-3.2031 24.85754,-0.933101 C 115.91275,100.38119 92.1,104.23465 63.5,108.4776 26.502648,113.96633 10.995103,116.64182 9.75,117.75101 8.7875,118.60844 8,120.59738 8,122.17087 c 0,1.57349 2.933266,23.89125 6.518369,49.59501 3.585102,25.70377 8.768897,62.93412 11.519544,82.73412 7.538684,54.26576 8.772936,62.64418 9.306992,63.17824 0.269437,0.26944 6.421984,-3.31502 13.672325,-7.96546 l 13.182439,-8.45535 5.440426,-12.87872 c 2.992235,-7.08329 6.209809,-13.6034 7.150166,-14.48913 0.940356,-0.88573 13.336942,-9.43487 27.547969,-18.99809 l 25.83823,-17.38766 2.37752,2.76403 c 3.30499,3.84228 4.8685,10.08146 3.50589,13.99024 -0.58789,1.68642 -0.89895,3.23616 -0.69124,3.44386 0.2077,0.2077 4.25973,-0.23726 9.0045,-0.9888 4.74478,-0.75154 8.62687,-1.11771 8.62687,-0.81369 0,0.30401 -2.44463,4.61349 -5.43252,9.57664 -5.90383,9.80679 -7.31126,16.45093 -4.55941,21.52389 2.1074,3.88492 1.74177,11.49451 -0.71173,14.81305 -1.35745,1.83605 -1.91391,3.73667 -1.59004,5.43087 0.72915,3.8143 -1.42363,9.34044 -4.71884,12.11318 l -2.87904,2.42255 2.03942,5.36017 c 3.62214,9.51999 3.50346,17.10393 -0.60027,38.36018 -2.01748,10.45 -3.92729,20.06227 -4.24402,21.36061 -0.47902,1.96353 -0.25862,2.26527 1.31028,1.79383 1.03739,-0.31172 17.41117,-2.84879 36.38617,-5.63792 18.975,-2.78914 46.425,-6.84914 61,-9.02221 14.575,-2.17308 40.43534,-6.00863 57.46743,-8.52345 17.03209,-2.51481 31.10633,-4.71129 31.2761,-4.88106 0.16977,-0.16977 -5.79094,-24.10942 -13.24602,-53.19923 C 295.04242,278.30075 288.45946,251.125 287.8687,247 c -3.64282,-25.43608 8.14868,-56.0534 28.05055,-72.8349 5.60472,-4.72597 15.00649,-10.8183 19.76,-12.80444 2.70364,-1.12966 3.32688,-1.84623 2.74906,-3.16075 C 338.01733,157.26496 332.73241,137.375 326.68404,114 320.63566,90.625 315.60936,71.389444 315.51448,71.25432 c -0.0949,-0.135125 -6.97354,0.753289 -15.28591,1.974251 -8.31237,1.220963 -15.44681,1.886519 -15.85432,1.479014 -1.71534,-1.715338 2.13923,-2.945113 15.42589,-4.92153 l 14.08073,-2.094537 -0.5788,-8.201748 c -0.70883,-10.044231 1.17648,-16.962596 6.53848,-23.993652 6.28707,-8.24408 9.69057,-9.526305 60.41454,-22.7604 52.63716,-13.73325435 56.58905,-14.3008472 66.79054,-9.5928219 7.17848,3.3128946 11.92142,7.5422809 15.18215,13.5382519 1.63638,3.009044 6.05394,18.151529 11.76232,40.318852 5.02795,19.525 10.27491,39.775 11.65991,45 1.385,5.225 2.88756,11.75 3.33903,14.5 1.715,10.44662 -2.65476,22.39508 -10.81825,29.58087 l -4.39661,3.87005 1.59552,11.67382 c 0.87754,6.4206 1.75881,11.8371 1.95838,12.03667 0.19956,0.19957 2.53419,-0.59764 5.18805,-1.77157 5.65003,-2.49927 13.48349,-2.18457 18.43547,0.74064 3.72479,2.20029 6.45433,7.61601 5.58474,11.08076 -0.54805,2.18358 -0.38419,2.42599 1.16286,1.7204 0.99044,-0.45173 4.5008,-0.98708 7.8008,-1.18966 4.85674,-0.29816 6.85744,0.0845 10.5,2.00836 5.66319,2.99105 8.5834,7.89515 7.62015,12.79699 -0.68285,3.47488 -1.6144,4.54784 -34.98442,40.29476 l -10.86428,11.63812 4.57431,32.7599 c 6.46103,46.27208 6.15024,42.03557 3.4653,47.23701 -1.27109,2.46242 -3.66106,5.23347 -5.31106,6.1579 -1.67704,0.93958 -10.49675,2.81229 -20,4.24664 -42.74201,6.45118 -71.22716,10.63671 -73.75,10.83663 -1.5125,0.11986 -2.75,0.80666 -2.75,1.52623 0,1.40046 16.75895,62.41813 17.22333,62.70843 0.15217,0.0951 3.6728,0.94897 7.82363,1.89742 C 427.98233,420.39208 433,423.14297 433,426 c 0,9.0749 -52.31969,16.04268 -110,14.64948 -49.82472,-1.20346 -83.5,-7.07201 -83.5,-14.55144 0,-6.71372 24.72294,-11.898 67.64598,-14.18503 11.74471,-0.62579 21.45357,-1.22427 21.57525,-1.32996 0.27479,-0.2387 -11.44048,-45.63623 -11.89311,-46.08669 -0.18047,-0.17959 -33.17812,4.56599 -73.32812,10.54574 -40.15,5.97976 -82.675,12.30383 -94.5,14.05349 -11.825,1.74966 -21.61113,3.26755 -21.74695,3.37309 -0.22294,0.17323 -8.25305,34.39417 -8.25305,35.171 0,0.17964 2.26703,1.47542 5.03785,2.8795 2.90426,1.4717 5.53553,3.64515 6.21297,5.13197 l 1.17511,2.57909 -3.05991,2.73403 c -3.76189,3.36125 -15.0755,6.52224 -28.576606,7.98421 -8.861573,0.95958 -34.5288,1.18509 -44.289414,0.38912 z m 38.434634,-7.39673 c 5.192366,-0.84246 17.856256,-4.4374 18.782206,-5.33177 0.11926,-0.11519 2.89875,-11.88687 6.17664,-26.15927 7.63951,-33.26357 13.10976,-61.66398 13.09465,-67.98481 -0.0208,-8.71614 -3.84383,-19.45572 -9.63242,-27.05941 L 120,312.31122 v -15.75448 c 0,-12.47838 -0.3383,-16.46739 -1.62685,-19.18281 C 116.71314,273.87571 112.63073,270 110.60595,270 c -0.67452,0 -3.06729,10.10161 -5.98096,25.25 -2.67115,13.8875 -5.254518,25.6775 -5.740814,26.2 -0.554598,0.59589 -1.311839,0.52234 -2.031487,-0.19731 -0.863082,-0.86308 -0.739022,-3.20418 0.500776,-9.45 0.906449,-4.56648 1.647739,-8.84419 1.647312,-9.50603 -6.74e-4,-1.04351 -32.420573,18.99097 -35.719684,22.07364 -0.947325,0.88518 1.113644,6.99525 9.25,27.42311 5.757899,14.4563 10.461737,27.05422 10.452974,27.99538 -0.0088,0.94117 -9.233763,12.94615 -20.5,26.67775 C 51.21783,420.19814 42,431.95554 42,432.5941 c 0,0.63856 0.5625,1.61586 1.25,2.17178 1.383744,1.11891 21.516162,6.89499 26.25,7.53124 6.167323,0.82892 18.212437,0.6533 24.434634,-0.35625 z M 387,428.98983 c 6.46628,-0.8177 20.92667,-3.80574 21.79016,-4.50264 0.15959,-0.12879 -9.62791,-36.06792 -21.75,-79.86471 C 374.91807,300.82568 365,264.78564 365,264.5335 c 0,-0.25215 -4.15736,-0.58783 -9.23857,-0.74597 -7.86843,-0.24489 -9.28822,-0.54707 -9.57333,-2.03753 L 345.85335,260 h 41.41579 41.41578 l 8.33832,-17.75 c 4.58608,-9.7625 12.75697,-26.6757 18.15754,-37.58488 11.49722,-23.22445 11.86679,-25.0378 5.7477,-28.20211 -6.08779,-3.14811 -16.68209,-0.49159 -20.61997,5.17046 -1.09649,1.57659 -5.84479,10.29153 -10.55176,19.36653 -4.70697,9.075 -10.51532,20.20929 -12.90744,24.74287 l -4.34931,8.24286 -20.61232,0.007 -20.61232,0.007 -0.65414,-5.56573 C 369.38637,217.92762 364.05875,210.4937 354.25,205.59062 349.27354,203.10304 347.21058,200 350.53324,200 c 2.75813,0 11.32108,4.92099 15.04783,8.64774 3.90179,3.90179 8.39311,12.4583 8.40916,16.02047 0.0241,5.35851 -0.0689,5.33179 18.56439,5.33179 h 17.34064 l 4.66358,-8.55545 c 2.56497,-4.70551 4.50104,-8.70482 4.30237,-8.88736 -0.19866,-0.18255 -14.08621,-4.29064 -30.86121,-9.12908 -16.775,-4.83844 -30.8291,-9.27663 -31.23134,-9.86264 -1.01036,-1.47197 0.42642,-2.40627 18.90817,-12.29553 8.93081,-4.77873 16.09971,-8.82673 15.93087,-8.99557 -0.16883,-0.16883 -4.75443,0.87677 -10.19023,2.32356 -8.05529,2.14401 -11.07955,2.50797 -16.35125,1.96787 -7.56526,-0.77508 -16.6082,-5.14118 -20.99393,-10.13625 l -2.85727,-3.25425 -5.27442,2.44368 c -19.581,9.07201 -35.82215,28.76807 -42.12151,51.08184 -1.72926,6.12542 -2.20524,10.48176 -2.21794,20.29918 l -0.0162,12.5 10.74654,41.6664 c 5.91059,22.91651 16.01647,62.24917 22.4575,87.4059 l 11.71097,45.73951 4.82358,1.39581 c 12.95293,3.74822 31.46941,5.07877 45.67642,3.28221 z M 64.130361,397.75 C 66.495381,395.79559 79,380.30918 79,379.33462 c 0,-0.47976 -4.622603,-12.41817 -10.272452,-26.5298 l -10.272452,-25.6575 -9.786513,6.31864 c -5.382582,3.47525 -9.977252,6.50938 -10.210378,6.7425 -0.657831,0.65783 6.397172,50.00467 7.512071,52.54384 2.251828,5.12851 14.067067,8.38009 18.160085,4.9977 z M 439.51997,342.53054 c 24.73901,-3.64967 46.23278,-7.123 47.76392,-7.71851 4.20099,-1.63391 6.7162,-5.45299 6.71555,-10.19689 -3.1e-4,-2.26333 -2.02332,-18.51514 -4.49557,-36.11514 -2.47226,-17.6 -4.49701,-32.43308 -4.49944,-32.96241 -0.002,-0.52932 -2.15739,1.15818 -4.78878,3.75 L 475.4313,264 H 422.21565 C 392.94704,264 369,264.18702 369,264.41561 c 0,0.87566 23.21996,84.12394 23.66692,84.8507 0.2592,0.42147 0.78667,0.57139 1.17214,0.33315 0.38548,-0.23823 20.94189,-3.41925 45.68091,-7.06892 z m -10.09518,-24.10868 c -3.25863,-2.51798 -6.30842,-4.94911 -6.7773,-5.40251 -0.63131,-0.61048 5.48925,-9.82324 9.82817,-14.79352 0.13164,-0.15079 0.74762,0.33828 1.36885,1.08681 0.87781,1.0577 0.24106,2.55176 -2.8575,6.70477 -2.19286,2.93909 -3.97731,5.60003 -3.96544,5.9132 0.0119,0.31316 2.45218,2.31045 5.42294,4.4384 3.36923,2.41338 5.20201,4.38858 4.87145,5.25 -0.78879,2.05554 -1.4292,1.79607 -7.89117,-3.19715 z m 29.75338,0.29283 c -0.79598,-0.9591 -0.0684,-2.54536 2.86693,-6.25 2.1635,-2.73058 3.92872,-5.41469 3.92271,-5.96469 -0.006,-0.55 -2.46987,-2.76157 -5.47522,-4.91459 -4.25385,-3.04745 -5.2208,-4.20797 -4.36513,-5.23899 0.60454,-0.72842 1.61067,-1.02491 2.23585,-0.65887 C 460.92764,297.18895 471,305.15854 471,305.68613 471,306.31068 460.98471,320 460.52779,320 c -0.1556,0 -0.76292,-0.57839 -1.34962,-1.28531 z M 135,310.59121 c 0,-2.14416 -2.83794,-2.72005 -7.10467,-1.4417 -2.14243,0.64188 -3.89533,1.35086 -3.89533,1.5755 0,0.22464 1.2171,2.00414 2.70468,3.95445 l 2.70467,3.54601 2.79533,-3.12851 C 133.7421,313.37628 135,311.34869 135,310.59121 Z m -2.26938,-7.12312 c 3.80904,-1.59152 6.78637,-7.27209 5.82309,-11.11012 -0.70531,-2.81018 -0.49567,-2.79615 -8.05371,-0.53872 l -6,1.79207 -0.30086,6.31552 -0.30087,6.31551 2.74549,-0.68908 c 1.51002,-0.37899 4.24911,-1.31732 6.08686,-2.08518 z m -45.470776,-18.33252 17.603026,-11.36444 0.66823,-3.95519 c 0.7771,-4.59966 2.34805,-5.52285 6.48324,-3.81 l 2.97841,1.2337 6.41937,-4.18239 c 7.98761,-5.20413 10.39683,-9.41387 8.6755,-15.15913 -0.62851,-2.09779 -1.56238,-4.07351 -2.07527,-4.39049 -0.51289,-0.31698 -12.26484,7.08271 -26.11544,16.44375 l -25.182916,17.02007 -4.279921,10.07192 c -2.353957,5.53955 -3.941821,9.93347 -3.528588,9.76427 0.413233,-0.1692 8.672695,-5.42164 18.354359,-11.67207 z m 45.949136,1.75259 c 1.95719,-1.04746 3.92478,-6.92814 2.75529,-8.23493 -0.41679,-0.46572 -3.27926,0.76619 -6.36104,2.73758 -3.92018,2.50771 -5.60323,4.22225 -5.60323,5.70806 0,1.91061 0.37445,2.05346 3.73159,1.42366 2.05238,-0.38503 4.5172,-1.12049 5.47739,-1.63437 z M 476.77197,230.71649 C 485.72156,214.64742 494.5363,198.575 496.36027,195 c 1.82398,-3.575 4.15779,-7.9154 5.18623,-9.64533 1.57527,-2.64973 1.67918,-3.56394 0.65947,-5.80197 -2.75548,-6.04761 -14.93967,-7.2814 -21.6163,-2.1889 -2.22634,1.69812 -8.27969,10.34219 -16.6793,23.81774 -11.86689,19.03812 -16.54383,27.82018 -27.46309,51.56846 l -3.33349,7.25 13.6931,-0.0335 L 460.5,259.933 Z m 25.43562,-1.00114 c 29.85458,-31.99463 30.45375,-32.8737 25.54241,-37.47442 -6.65034,-6.22975 -18.53738,-5.56718 -24.86449,1.38591 -2.12832,2.33888 -10.64726,17.20998 -37.62598,65.68184 -0.24755,0.44478 1.71119,0.66978 4.35277,0.5 L 474.41518,259.5 Z m -73.99143,-34.12247 c 7.42007,-14.88837 11.32375,-20.02418 17.27526,-22.7279 C 455.97604,168.10192 469,173.36612 469,182.36699 v 3.09728 l 2.5842,-3.80299 2.58419,-3.80299 -1.73685,-12.67914 c -0.95527,-6.97353 -1.84422,-12.81771 -1.97545,-12.98707 -0.13122,-0.16935 -15.47503,3.61019 -34.09734,8.39898 -28.45904,7.31833 -34.33718,9.13745 -36.85875,11.40674 -1.65,1.48491 -7.5,5.07667 -13,7.98168 -5.5,2.90501 -12.87157,6.8698 -16.38126,8.81065 l -6.38126,3.52881 28.38126,8.27209 c 15.60969,4.54965 28.61398,8.30289 28.89842,8.34053 0.28444,0.0376 3.52399,-5.96476 7.199,-13.33868 z m -266.78105,42.0986 c -0.29335,-0.76445 -0.39876,-4.49526 -0.23424,-8.29069 L 161.5,222.5 h 8.5 8.5 v 8 8 l -8.26577,0.2907 c -6.33653,0.22285 -8.39025,-0.0337 -8.79912,-1.09922 z M 174.80479,230.75 175.10958,226 H 170.05479 165 v 4.33333 c 0,2.38334 0.32117,4.65451 0.71372,5.04706 0.39255,0.39254 2.53005,0.58004 4.75,0.41666 L 174.5,235.5 Z M 185,230 v -2 h 14 14 v 2 2 h -14 -14 z m -58.31729,-10.24413 -15.81729,-11.15188 4.81729,-2.42393 c 2.64951,-1.33316 4.95925,-2.54852 5.13277,-2.7008 0.17351,-0.15229 -1.00778,-2.90991 -2.62509,-6.12807 -13.03972,-25.94669 -14.5673,-52.20895 -4.57193,-78.60119 2.60686,-6.88327 2.96556,-7.30138 5.10025,-5.94501 0.91892,0.58388 0.61446,2.27033 -1.23764,6.85569 -4.92981,12.20497 -5.95838,17.95602 -5.96269,33.33932 -0.005,16.87386 1.67689,24.31561 8.98557,39.76448 l 4.38292,9.26449 4.53463,-2.20309 c 2.49404,-1.2117 4.69119,-2.00572 4.88256,-1.76449 0.80525,1.0151 9.33861,32.93456 8.79349,32.89249 -0.32865,-0.0254 -7.71533,-5.06447 -16.41484,-11.19801 z m 8.37069,-5.34371 c -0.52558,-1.60169 -1.43983,-4.80564 -2.03167,-7.11989 l -1.07605,-4.20773 -2.22284,0.86163 c -2.75415,1.06758 -2.59582,1.76979 1.93905,8.5998 3.93177,5.92168 4.8965,6.45253 3.39151,1.86619 z m -8.29571,-2.39419 c -1.79173,-2.74012 -3.50918,-4.99012 -3.81656,-5 -0.30738,-0.01 -1.34584,0.55748 -2.3077,1.26081 l -1.74883,1.27877 5.3077,3.71243 c 2.91923,2.04184 5.42366,3.71639 5.56539,3.72123 0.14172,0.005 -1.20828,-2.23312 -3,-4.97324 z m 40.66114,-4.50562 c -2.2676,-2.10154 -2.48294,-2.73017 -1.38743,-4.05019 l 1.29679,-1.56254 1.55231,1.55231 1.55231,1.55231 5.23221,-5.16721 c 4.53889,-4.48251 5.44503,-4.99058 6.83833,-3.83425 1.42895,1.18592 0.91383,2.03146 -4.66973,7.66509 -3.45171,3.48267 -6.60316,6.33213 -7.00321,6.33213 -0.40005,0 -1.93526,-1.11944 -3.41158,-2.48765 z m 18.24784,-0.17902 C 185.3,206.96667 185,206.06667 185,205.33333 185,204.24339 192.66667,204 227,204 h 42 v 2 2 h -41.33333 c -22.73334,0 -41.63334,-0.3 -42,-0.66667 z m -18.00002,-24.15939 c -2.42287,-2.52893 -2.56411,-3.01415 -1.20552,-4.14168 1.09773,-0.91104 1.9049,-0.97337 2.81574,-0.21744 0.95429,0.79199 2.69474,-0.184 6.88935,-3.86334 4.41445,-3.87218 5.84222,-4.64624 6.68871,-3.62628 0.82057,0.98873 -0.52959,2.89026 -5.68384,8.00502 l -6.76005,6.70825 z m 18.00002,-0.84061 C 185.3,181.96667 185,181.06667 185,180.33333 185,179.24074 193.66667,179 233,179 h 48 v 2 2 h -47.33333 c -26.03334,0 -47.63334,-0.3 -48,-0.66667 z M 26.2,135.8 c -1.542501,-1.5425 -1.542501,-5.0575 0,-6.6 2.804997,-2.805 7.8,-0.69173 7.8,3.3 0,2.68046 -1.819541,4.5 -4.5,4.5 -1.155,0 -2.64,-0.54 -3.3,-1.2 z m 13.582662,-3.37766 c -1.65458,-3.63141 0.01897,-5.92234 4.326324,-5.92234 2.973867,0 3.430657,0.34573 3.713272,2.81047 0.649283,5.66253 -5.749033,8.13911 -8.039596,3.11187 z m 14.788767,-0.99377 C 51.564925,128.42207 53.60588,124 58,124 c 4.030101,0 5.756821,3.196 3.548019,6.56706 -1.827672,2.78938 -4.694687,3.14342 -6.97659,0.86151 z M 221.5,90.037658 C 205.55,86.873447 180.2375,81.912587 165.25,79.013524 141.16953,74.35559 138,73.524851 138,71.871251 138,70.842063 138.63084,70 139.40186,70 c 1.16701,0 27.3491,4.990443 104.35584,19.890765 5.09174,0.985219 9.53483,2.068434 9.87354,2.407143 0.97424,0.974237 -0.43409,3.713063 -1.84986,3.597476 C 251.07662,95.837846 237.45,93.201869 221.5,90.037658 Z m 30,-10.026623 C 249.85,79.566311 224.3125,74.566853 194.75,68.901129 L 141,58.599811 V 56.69487 c 0,-1.607303 0.58592,-1.841043 3.75,-1.495979 6.62616,0.722626 110.72107,21.035128 111.53278,21.763887 0.85668,0.769129 -0.10299,4.092452 -1.13977,3.947034 C 254.78936,80.860208 253.15,80.455759 251.5,80.011035 Z M 103.00991,70.618134 c -5.382754,-1.1348 -6.933961,-2.690002 -5.258657,-5.272202 0.559065,-0.861704 2.712077,-0.763369 8.498747,0.388165 L 114,67.27633 v 2.361835 c 0,2.732724 -1.8807,2.900424 -10.99009,0.979969 z M 211.5,56.479592 c -23.65,-4.621201 -48.4,-9.436042 -55,-10.699646 l -12,-2.297461 -0.3245,-2.278992 c -0.27421,-1.925843 0.0357,-2.197909 2,-1.755734 2.18813,0.492561 20.25217,3.984912 86.1058,16.646978 22.61051,4.347456 27.72735,5.626779 27.49145,6.873469 -0.15942,0.842487 -1.411,1.617693 -2.7813,1.722682 C 255.62115,64.795876 235.15,61.100793 211.5,56.479592 Z m -107.28796,6.242071 c -4.0331,-0.774587 -5.222018,-1.40484 -5.010075,-2.655882 0.152837,-0.90216 -0.730272,-2.921956 -1.962465,-4.488435 -8.358967,-10.626705 -2.693647,-25.690745 10.60696,-28.203824 7.78773,-1.471451 16.99654,4.615998 19.16497,12.668933 1.93206,7.175108 -2.15475,15.911817 -9.13055,19.519142 C 116.2964,60.380967 115,61.714804 115,62.52568 c 0,1.692859 -2.73532,1.742551 -10.78796,0.195983 z M 104.3,40.5 c 1.925,-1.925 4.445,-3.5 5.6,-3.5 1.155,0 2.1,-0.45 2.1,-1 0,-2.808241 -9.1093,0.467187 -10.97036,3.944609 C 99.990378,41.886496 99.662233,44 100.4,44 c 0.22,0 1.975,-1.575 3.9,-3.5 z"
         id="path3" />
      <path
         style="fill:#0f0f19"
         d="M 58,449.36767 C 38.44285,447.91619 15.238665,443.20305 7.0285522,439.01457 1.7243237,436.30855 -0.54796601,432.8924 1.0144521,429.973 3.4380668,425.44443 18.617867,421.31936 36.647795,420.28974 l 10.147796,-0.57951 15.852204,-19.41694 c 8.718713,-10.67932 15.986475,-20.00584 16.150583,-20.72558 0.227109,-0.99607 -19.172693,-51.22691 -20.194687,-52.289 -0.117114,-0.12171 -7.163355,4.26099 -15.658313,9.73933 -8.494958,5.47834 -16.006582,9.96542 -16.692497,9.97129 -0.685916,0.006 -3.039497,-1.60864 -5.230182,-3.58779 -4.461416,-4.03062 -6.831128,-10.04275 -4.755898,-12.06606 0.67826,-0.66128 11.344083,-7.69804 23.70183,-15.63724 l 22.468631,-14.4349 5.59654,-13.34394 5.59654,-13.34393 27.343118,-18.45811 27.34311,-18.4581 2.33761,2.92037 c 2.77125,3.46211 3.79553,8.03089 3.04872,13.59877 l -0.54345,4.05172 3.67027,-0.5671 c 12.21497,-1.88735 14.48428,-1.98084 13.6395,-0.56188 -0.45805,0.76937 -2.93946,4.78324 -5.51425,8.91969 -3.95045,6.34649 -4.75156,8.49026 -5.13051,13.72924 -0.25452,3.51864 -0.0316,6.34753 0.51441,6.52955 0.52991,0.17664 1.17478,2.86923 1.43305,5.98354 0.37241,4.49079 0.0463,6.3797 -1.57595,9.12927 -1.12504,1.90679 -1.80966,4.36882 -1.52139,5.47117 0.79923,3.05626 -1.66102,9.32131 -4.81879,12.27112 l -2.82571,2.6396 1.96814,5.72051 c 3.58796,10.42859 3.51376,16.07403 -0.48641,37.00517 -1.99711,10.45 -5.85427,28.72956 -8.57146,40.62124 -2.71719,11.89168 -4.9219,22.01668 -4.89936,22.5 0.0225,0.48332 2.27584,1.927 5.00733,3.20819 5.79209,2.71675 7.55157,5.18114 5.90104,8.26518 -1.69531,3.16772 -10.34724,6.63612 -20.94936,8.39822 -9.316364,1.54839 -40.133903,2.6813 -51,1.87484 z m 46.69045,-9.76771 c 5.31323,-1.71866 8.37423,-3.25543 8.71362,-4.37465 1.42231,-4.69052 12.86041,-56.69325 15.53929,-70.64856 1.68115,-8.75779 3.05664,-18.7302 3.05664,-22.16091 0,-8.20404 -2.82685,-16.97578 -8.0585,-25.00562 l -4.24517,-6.51575 0.60268,-13.33333 c 0.72395,-16.01618 -0.0834,-19.69066 -5.45174,-24.81114 -2.16232,-2.0625 -4.26663,-3.75 -4.67625,-3.75 -0.40962,0 -2.94694,11.46743 -5.63848,25.48317 -2.69153,14.01574 -5.243703,26.04948 -5.671481,26.74164 -0.578115,0.93541 -1.067823,0.96843 -1.907641,0.12861 -0.839817,-0.83982 -0.628461,-3.59729 0.823333,-10.74164 C 98.851009,305.3253 99.505925,301 99.23212,301 c -0.405946,0 -35.70904,22.4932 -37.164646,23.67928 -0.237889,0.19384 4.374611,12.38627 10.25,27.09428 C 78.192863,366.48157 83,379.09494 83,379.80326 83,380.51159 73.775,392.35443 62.5,406.1207 51.225,419.88697 42,432.00337 42,433.04603 c 0,1.52515 1.919261,2.49202 9.81776,4.9459 14.561975,4.52405 17.458905,4.94329 31.68224,4.58492 10.738287,-0.27056 14.424958,-0.78848 21.19045,-2.97689 z m 26.23814,-122.56174 c 2.42052,-1.29543 4.68626,-6.82337 3.34603,-8.1636 -1.03914,-1.03914 -6.87182,-0.35963 -9.18512,1.07006 -0.98755,0.61034 -0.74375,1.62024 1.06486,4.41107 2.66474,4.11188 2.39087,3.958 4.77423,2.68247 z m 2.14424,-13.59272 c 1.41506,-0.7225 3.14301,-2.00065 3.8399,-2.84034 1.70358,-2.0527 2.59807,-9.17143 1.25659,-10.00051 -0.58258,-0.36006 -4.00901,0.0863 -7.61428,0.99192 L 124,293.24315 v 6.45788 6.45788 l 3.25,-0.69989 c 1.7875,-0.38494 4.40777,-1.29103 5.82283,-2.01352 z M 86.730357,285.63135 104.5,274.26271 l 1.0073,-4.05532 c 1.32662,-5.34091 1.72057,-5.61732 5.99521,-4.20656 l 3.63652,1.20016 6.7676,-4.50016 c 7.53072,-5.00758 9.71825,-8.55641 8.68132,-14.08368 -1.32961,-7.08747 -1.79225,-6.92894 -24.79218,8.49576 -11.712672,7.855 -23.143247,15.5838 -25.401274,17.17511 -3.483958,2.45526 -4.723626,4.39349 -8.188394,12.80263 C 69.960513,292.54079 68.31165,297 68.541963,297 c 0.230312,0 8.41509,-5.11589 18.188394,-11.36865 z m 46.382493,1.29877 c 2.07613,-1.0989 4.29217,-6.43228 3.51459,-8.45863 C 135.66637,275.96699 124,284.26829 124,287.45665 v 2.38214 l 3.75,-1.02749 c 2.0625,-0.56512 4.47578,-1.41165 5.36285,-1.88118 z M 305.5,440.04396 c -29.4762,-1.68751 -51.59416,-5.10919 -61.07076,-9.44773 -6.98577,-3.19818 -7.1784,-5.6525 -0.70402,-8.96957 8.51528,-4.36268 33.95216,-8.12449 64.61967,-9.55648 10.91469,-0.50964 20.04807,-1.12981 20.29641,-1.37814 0.24833,-0.24833 -2.48554,-11.86813 -6.07527,-25.82178 C 318.9763,370.91662 312.00888,343.75 307.08288,324.5 c -4.926,-19.25 -11.27235,-44 -14.103,-55 l -5.14664,-20 -0.0678,-11.5 c -0.13662,-23.18468 7.27045,-41.87349 23.13202,-58.36453 6.97771,-7.25463 14.2149,-12.64528 22.81926,-16.99704 6.11271,-3.09157 5.90912,-3.05576 6.6339,-1.16702 0.40536,1.05635 -1.75062,2.66984 -7.64302,5.71985 -6.22236,3.22082 -10.40905,6.43267 -17.30883,13.27859 C 304.80733,190.97867 299.51549,199.3598 294.85929,213 l -3.2429,9.5 -0.0434,14 -0.0434,14 10.24317,39.5 c 5.63375,21.725 14.98742,58.175 20.78593,81 5.79852,22.825 11.31549,44.18255 12.25994,47.46122 l 1.71718,5.96122 4.48206,1.31288 c 16.68918,4.88859 41.30844,5.43112 58.73206,1.29426 5.0875,-1.20792 9.25,-2.63209 9.25,-3.16482 0,-0.53274 -2.67056,-10.50775 -5.93457,-22.16669 C 399.80141,390.03913 390.55045,356.65 382.50773,327.5 374.46501,298.35 367.20844,272.15403 366.38202,269.28673 l -1.50258,-5.21327 -9.17829,-0.28673 c -7.78836,-0.24331 -9.22867,-0.55007 -9.51092,-2.0257 l -0.33263,-1.73897 41.5826,-0.26103 41.58259,-0.26103 12.83328,-27 c 7.0583,-14.85 15.15318,-31.60432 17.9886,-37.23183 5.53928,-10.99386 6.26301,-14.95576 3.23295,-17.69793 -2.28897,-2.07148 -8.573,-3.07509 -13.48484,-2.15362 -6.11513,1.1472 -9.24539,4.93709 -17.74011,21.47844 C 427.44506,205.47778 421.28759,217.225 418.16942,223 L 412.5,233.5 h -20.48764 -20.48765 l -0.71117,-4.97172 c -0.39115,-2.73445 -1.43287,-6.86144 -2.31493,-9.1711 -1.91762,-5.02121 -8.95301,-11.78595 -15.07294,-14.49308 C 350.99155,203.78737 349,202.50403 349,202.01222 c 0,-4.08731 11.06171,1.03807 17.36059,8.04394 C 370.88697,215.09059 374,222.06773 374,227.17814 V 230 h 18.27714 18.27715 l 4.27324,-8.61628 c 2.35028,-4.73896 4.0886,-8.80092 3.86293,-9.02659 -0.22566,-0.22566 -14.08476,-4.36225 -30.79799,-9.19241 -20.51905,-5.93005 -30.4758,-9.25018 -30.65901,-10.22341 -0.30998,-1.64663 35.47716,-21.28569 40.94962,-22.4721 l 3.31692,-0.7191 -1.74519,1.94837 c -0.95985,1.0716 -9.3865,5.96532 -18.72589,10.87494 -9.33939,4.90962 -16.99156,9.17511 -17.00482,9.47886 -0.0386,0.88467 57.13124,17.12472 57.83694,16.42955 0.35143,-0.34619 4.01396,-7.21394 8.13896,-15.26167 8.24161,-16.07911 11.06354,-19.21305 19.25,-21.37851 3.82261,-1.01115 5.67739,-1.0086 9.5,0.0131 6.0701,1.62236 8.98396,4.39514 9.99584,9.51192 l 0.80573,4.07427 2.75079,-4.69388 c 6.43443,-10.97951 22.60865,-13.98986 30.85566,-5.74286 2.21695,2.21696 2.84198,3.76213 2.84198,7.0259 0,3.59537 0.24617,4.08149 1.75,3.45584 3.45584,-1.43778 11.08657,-1.69495 14.71919,-0.49608 8.4203,2.77895 13.40264,10.6115 10.37118,16.30414 -1.05813,1.987 -31.8649,35.63759 -53.93553,58.91439 L 475.30967,264 h -53.26324 -53.26325 l 0.67452,2.75 c 1.11943,4.56396 39.54222,143.51009 40.60759,146.84692 0.87686,2.74641 1.6365,3.23732 6.71174,4.33746 8.64338,1.87358 16.22297,5.56237 16.22297,7.89529 0,5.29537 -16.58656,9.789 -46.82477,12.68579 -18.81658,1.8026 -61.6967,2.61503 -80.67523,1.5285 z M 477.19218,230.242 c 9.1807,-16.3581 17.01406,-30.642 17.40747,-31.742 0.39341,-1.1 2.49395,-5.03454 4.66788,-8.74342 4.6007,-7.84916 4.48749,-10.71581 -0.54437,-13.78386 -6.12494,-3.73453 -15.61755,-2.07075 -20.84837,3.65412 -5.74644,6.28919 -27.32446,42.88023 -35.9171,60.90661 C 437.03096,250.86916 433,259.47738 433,259.66282 c 0,0.18545 6.1875,0.33358 13.75,0.32918 l 13.75,-0.008 z M 495,237.86739 c 35.40346,-38.12478 35,-37.65541 35,-40.71846 0,-4.98209 -6.55273,-9.3797 -13.97639,-9.3797 -5.7563,0 -9.67962,1.94433 -13.95612,6.91641 C 499.47274,197.70243 465,258.08294 465,259.61096 c 0,0.21397 2.1375,0.37625 4.75,0.36061 l 4.75,-0.0284 z m -333.56489,-0.17591 c -0.29335,-0.76445 -0.39876,-4.49526 -0.23424,-8.29069 L 161.5,222.5 h 8.5 8.5 v 8 8 l -8.26577,0.2907 c -6.33653,0.22285 -8.39025,-0.0337 -8.79912,-1.09922 z M 175,230.5 V 225 h -5 -5 v 5.5 5.5 h 5 5 z m 11,-0.5 v -2 h 13.5 13.5 v 2 2 H 199.5 186 Z M 126.68909,219.56402 110.87819,208.5 l 5.0609,-2.31614 c 2.7835,-1.27388 5.06091,-2.74761 5.06091,-3.27497 0,-0.52735 -1.52181,-3.98508 -3.3818,-7.68385 -7.4148,-14.74506 -11.35134,-33.17888 -10.27919,-48.13481 0.98938,-13.80138 7.11,-34.09023 10.28413,-34.09023 1.86758,0 1.76908,0.71984 -1.1652,8.51552 -5.89272,15.65552 -7.26667,35.19529 -3.56816,50.74513 1.94626,8.18274 7.58461,22.76203 10.55783,27.29973 l 1.55203,2.3687 4.53884,-1.94557 c 3.37665,-1.44741 4.65036,-1.63037 4.97437,-0.71455 1.34637,3.80559 8.59694,30.93799 8.31885,31.13003 -0.18244,0.12598 -7.44661,-4.74975 -16.14261,-10.83497 z m 7.33944,-9.46823 C 132.86626,206.19311 131.57037,203 131.14878,203 c -0.42158,0 -1.55771,0.57853 -2.52471,1.28562 l -1.75819,1.28562 4.1834,6.2647 c 2.30088,3.44559 4.38795,6.06017 4.63794,5.81018 0.24999,-0.25 -0.49642,-3.64764 -1.65869,-7.55033 z m -5.57894,4.08816 c -3.61805,-6.12486 -5.04871,-7.44596 -7.29236,-6.73385 -3.13406,0.99471 -2.71272,1.95089 2.59277,5.88409 5.81973,4.31444 6.85702,4.50199 4.69959,0.84976 z m 39.53797,-6.69719 c -1.77263,-1.88688 -2.07586,-2.79846 -1.2167,-3.65762 0.85917,-0.85917 1.54159,-0.81472 2.73814,0.17833 1.377,1.14281 2.30639,0.61895 6.83317,-3.8516 4.12448,-4.07324 5.49915,-4.91455 6.46011,-3.95359 0.96095,0.96095 -0.10555,2.55887 -5.0119,7.50922 -3.42793,3.45867 -6.50466,6.2885 -6.83718,6.2885 -0.33251,0 -1.66705,-1.13096 -2.96564,-2.51324 z M 186,205.5 c 0,-1.30924 5.27778,-1.5 41.5,-1.5 36.22222,0 41.5,0.19076 41.5,1.5 0,1.30924 -5.27778,1.5 -41.5,1.5 -36.22222,0 -41.5,-0.19076 -41.5,-1.5 z m -18.01244,-23.01324 c -1.77263,-1.88688 -2.07586,-2.79846 -1.2167,-3.65762 0.85917,-0.85917 1.54159,-0.81472 2.73814,0.17833 1.377,1.14281 2.30639,0.61895 6.83317,-3.8516 4.12448,-4.07324 5.49915,-4.91455 6.46011,-3.95359 0.96095,0.96095 -0.10555,2.55887 -5.0119,7.50922 -3.42793,3.45867 -6.50466,6.2885 -6.83718,6.2885 -0.33251,0 -1.66705,-1.13096 -2.96564,-2.51324 z M 186,181.00979 V 179 h 47.57332 47.57333 l -0.33687,1.75 -0.33687,1.75 -47.23645,0.25979 L 186,183.01958 Z m 181.41574,-46.14612 c -0.38626,-0.62498 -0.91897,-4.16479 -1.18381,-7.86624 -0.62675,-8.75969 1.67528,-15.85658 7.02657,-21.66205 6.05092,-6.564471 8.77284,-7.805662 28.2415,-12.878095 20.24081,-5.273612 27.371,-5.610075 35.11257,-1.656911 6.10588,3.117915 12.74678,11.033266 14.83989,17.687776 0.97289,3.0931 1.6066,5.77394 1.40822,5.95743 C 452.41195,114.86063 370.13232,136 368.96557,136 c -0.46614,0 -1.16357,-0.51135 -1.54983,-1.13633 z M 195.25,84.569036 C 145.50192,74.962484 138,73.283611 138,71.756917 c 0,-2.158676 -0.67744,-2.175406 12,0.296343 5.775,1.125965 31.37559,6.062692 56.8902,10.970506 25.51461,4.907813 46.49562,9.047708 46.62447,9.199765 0.12885,0.152058 -0.0467,0.979423 -0.3902,1.838588 -0.5415,1.354561 -8.23128,0.09321 -57.87447,-9.493083 z m 1.25435,-15.457183 C 150.75039,60.202482 141.45363,58.116986 141.18102,56.701453 141.0008,55.765654 141.42867,55 142.13183,55 c 1.1679,0 25.56919,4.625821 87.36817,16.562628 12.65,2.443416 23.99662,4.67099 25.2147,4.950166 2.8398,0.650858 1.93377,3.523265 -1.07169,3.397607 -1.17865,-0.04928 -26.89105,-4.908626 -57.13866,-10.798548 z m 191.18063,8.927021 C 376.85418,74.573483 371.15408,61.741775 375.89586,51.5 379.39875,43.934125 385.42109,40 393.5,40 c 5.71877,0 9.25555,1.409425 13.32817,5.311334 8.97,8.594033 7.85715,22.867475 -2.3346,29.943558 -4.40521,3.05852 -12.01255,4.318512 -16.80859,2.783982 z M 105.5,70.903836 c -2.2,-0.492393 -4.97086,-1.120313 -6.157471,-1.395377 -1.578944,-0.36601 -2.016933,-1.037536 -1.633369,-2.504288 0.61061,-2.334975 1.030145,-2.375786 8.87406,-0.863221 6.79202,1.309725 7.72841,1.883371 6.84257,4.191833 -0.70082,1.826315 -1.92367,1.914421 -7.92579,0.571053 z M 236,60.959195 C 225.275,58.842882 201.2,54.163449 182.5,50.560454 163.8,46.957459 147.4875,43.773831 146.25,43.485725 143.57072,42.861954 143.21239,40 145.81356,40 c 0.99746,0 18.20996,3.174339 38.25,7.054086 20.04004,3.879747 44.76144,8.624362 54.93644,10.54359 21.84863,4.12113 21.12505,3.912875 20.37615,5.86447 C 258.61497,65.445754 258.8815,65.474292 236,60.959195 Z M 105,62.594107 C 100.65388,61.660517 99.563672,61.045846 99.803497,59.664259 99.97042,58.702643 98.969756,56.564336 97.579798,54.912465 91.820566,48.068007 92.213181,38.853486 98.533333,32.533333 109.31358,21.753086 126.99252,29.186819 126.99252,44.5 c 0,5.629083 -2.28291,10.220844 -6.53453,13.143268 -1.48566,1.021203 -3.79194,2.869232 -5.12506,4.106732 -2.69588,2.502527 -2.63549,2.497594 -10.33293,0.844107 z m -1.22245,-21.507098 c 1.18452,-1.602145 3.51914,-3.2129 5.18806,-3.579455 C 112.90787,36.641688 112.88002,35 108.92308,35 105.56292,35 100,39.627778 100,42.423077 c 0,2.389506 1.38538,1.899516 3.77755,-1.336068 z"
         id="path2" />
    </g>
  </g>
</svg>
