<?xml version="1.0" encoding="UTF-8" standalone="no"?>
<!-- Created with Inkscape (http://www.inkscape.org/) -->

<svg
   version="1.1"
   id="svg1"
   width="679"
   height="450"
   viewBox="0 0 679 450"
   sodipodi:docname="HR_03.svg"
   inkscape:version="1.3.2 (091e20e, 2023-11-25, custom)"
   xmlns:inkscape="http://www.inkscape.org/namespaces/inkscape"
   xmlns:sodipodi="http://sodipodi.sourceforge.net/DTD/sodipodi-0.dtd"
   xmlns="http://www.w3.org/2000/svg"
   xmlns:svg="http://www.w3.org/2000/svg">
  <defs
     id="defs1" />
  <sodipodi:namedview
     id="namedview1"
     pagecolor="#ffffff"
     bordercolor="#000000"
     borderopacity="0.25"
     inkscape:showpageshadow="2"
     inkscape:pageopacity="0.0"
     inkscape:pagecheckerboard="0"
     inkscape:deskcolor="#d1d1d1"
     showgrid="false"
     inkscape:zoom="1.4742268"
     inkscape:cx="339.5"
     inkscape:cy="224.86364"
     inkscape:window-width="1920"
     inkscape:window-height="1001"
     inkscape:window-x="-9"
     inkscape:window-y="-9"
     inkscape:window-maximized="1"
     inkscape:current-layer="g1" />
  <g
     inkscape:groupmode="layer"
     inkscape:label="Image"
     id="g1">
    <g
       id="g2">
      <path
         style="fill:#fefefe"
         d="M 0,225 V 0 H 339.5 679 V 225 450 H 339.5 0 Z"
         id="path5" />
      <path
         style="fill:#ccc8c6"
         d="M 232.75,443.70572 C 222.18505,438.95168 219,437.08493 219,435.64687 c 0,-1.02938 4.05,-16.46947 9,-34.31131 4.95,-17.84185 9,-32.86629 9,-33.38764 C 237,367.35851 206.4216,367 156.14922,367 98.365975,367 74.328614,366.67529 71.899223,365.8619 67.199156,364.28825 62.289186,360.4599 60.47731,356.95612 59.640987,355.33885 51.787826,319.24961 43.02584,276.75782 34.263854,234.26602 20.998591,170.0277 13.547478,134.00599 6.0963652,97.984289 0,67.257336 0,65.723874 0,59.060568 4.8518619,51.958357 11.5,48.890043 15.262204,47.153674 19.572258,47.041085 84,46.996177 l 68.5,-0.04775 3.38806,-4.994322 C 162.43239,32.307154 175.47025,21.811775 190,14.494266 c 6.93091,-3.490562 23.56193,-9.5955345 35.5,-13.0314644 6.54738,-1.88441958 22.53763,-1.86448531 29.83869,0.037198 3.16739,0.825 7.06457,1.5 8.66041,1.5 1.59584,0 3.26138,0.5630685 3.70121,1.2512632 0.43983,0.6881948 4.17718,3.2888586 8.30522,5.7792532 l 7.50553,4.52799 4.99447,-1.873462 c 15.85162,-5.9460557 34.62301,-2.7912283 46.33157,7.786746 5.09855,4.606242 9.81041,13.858779 10.70537,21.021868 l 0.68115,5.451723 66.21202,0.277309 66.21202,0.27731 4.21521,2.790022 c 5.83632,3.863029 7.57156,7.219965 10.09885,19.536851 1.2045,5.87022 2.41119,11.460627 2.68153,12.423127 0.46302,1.648512 5.26499,1.75 82.80201,1.75 89.47852,0 85.55414,-0.237165 92.47787,5.58877 1.74051,1.464546 4.15734,4.518706 5.37072,6.787021 L 678.5,100.5 l 0.27005,93.93159 c 0.24196,84.15819 0.10246,94.43617 -1.34067,98.78104 -2.14942,6.47129 -5.78948,10.58042 -11.88851,13.4205 l -5.04087,2.34733 -58.75,0.01 c -46.31904,0.008 -58.75357,0.27426 -58.76689,1.25977 -0.009,0.6875 1.65933,9.61274 3.70806,19.83386 3.42562,17.09045 3.61904,18.93874 2.40697,23 -1.61193,5.40103 -7.60877,11.40855 -12.83785,12.86072 -2.48063,0.68889 -33.54749,1.04616 -91.29001,1.04984 l -87.52971,0.006 -8.87674,32.25 c -4.88221,17.7375 -8.91884,32.64715 -8.97029,33.13255 -0.0514,0.48541 5.98146,3.66514 13.40646,7.06609 10.74062,4.91963 13.56532,6.62992 13.81955,8.36745 L 367.1391,450 306.81955,449.94649 246.5,449.89298 Z M 139.44857,333.9686 C 143.97311,318.17594 144.45846,317 146.45203,317 c 2.60125,0 2.3357,2.88748 -1.52793,16.61382 -2.14974,7.6374 -3.9121,14.22368 -3.91636,14.63618 -0.004,0.4125 54.21726,0.75 120.49226,0.75 66.275,0 120.5,-0.35325 120.5,-0.785 0,-1.01477 -13.35181,-50.99995 -15.54967,-58.21334 -6.22817,-20.4408 -21.29845,-38.15736 -40.88275,-48.06159 -10.10696,-5.11132 -12.55812,-5.52665 -12.57696,-2.13105 -0.0167,3.00416 -5.6205,11.55195 -11.10325,16.93635 -10.87631,10.68119 -26.61756,16.39912 -45.38737,16.48672 -12.71846,0.0594 -20.24192,-1.17866 -32.86674,-5.40836 -19.78888,-6.62989 -37.13217,-16.58574 -47.88776,-27.4898 -8.89514,-9.01793 -11.15447,-13.06559 -14.45668,-25.89967 l -0.78882,-3.06574 -9.60034,1.22912 c -18.78164,2.4046 -30.64695,8.18169 -43.95736,21.40236 -12.066201,11.98485 -14.736875,17.63473 -25.525535,54 -4.81355,16.225 -9.287506,30.175 -9.942126,31 -0.937738,1.18181 -0.552648,4.52594 1.815363,15.76465 l 3.00558,14.26466 29.494898,-0.26466 29.4949,-0.26465 z M 532,348.15243 c 0,-0.76726 -6.26222,-31.52434 -7.51024,-36.88677 l -0.52,-2.23433 -52.23488,0.023 c -31.24536,0.0138 -53.55509,-0.37041 -55.52036,-0.95603 -8.3343,-2.48348 -14.28069,-8.96915 -16.24025,-17.71308 -0.57918,-2.58444 -0.9932,-12.61589 -0.92003,-22.29209 L 399.18728,250.5 390.73879,243 c -6.97762,-6.19426 -27.0484,-23.81483 -38.55038,-33.84421 l -2.68841,-2.3442 15.5,0.61089 c 8.525,0.336 19.775,0.88464 25,1.21921 l 9.5,0.60832 V 155.375 c 0,-47.23741 0.19694,-54.30621 1.59846,-57.375 2.47015,-5.408656 6.45577,-9.57021 11.3844,-11.88694 C 416.74607,84.109113 418.52789,84 446.9891,84 c 23.34164,0 30.01107,-0.277785 30.01168,-1.25 4.2e-4,-0.6875 -0.73616,-4.9625 -1.63685,-9.5 L 473.72631,65 406.11315,65.03842 338.5,65.07684 l -4.81464,4.244164 -4.81465,4.244165 1.70128,6.119152 c 1.25714,4.521693 2.31825,6.400267 4.06464,7.195976 2.69809,1.229329 3.09619,3.610215 0.81693,4.88575 -1.27289,0.712345 -1.37435,1.631317 -0.57361,5.195181 0.53506,2.381363 1.37045,4.601782 1.85643,4.934262 8.54311,5.84475 14.43851,13.83911 16.75001,22.71358 1.88836,7.24989 1.89829,12.35623 0.0376,19.34803 l -1.45225,5.45711 6.3164,6.54289 C 366.02712,163.86998 369,169.3337 369,175.46016 c 0,3.92442 -0.51584,5.05568 -3.80524,8.34508 -2.3714,2.3714 -6.23366,4.70508 -10.25,6.19331 -3.54462,1.31343 -7.79476,3.19939 -9.44476,4.19102 -5.685,3.4166 -16.96318,1.55053 -19.52166,-3.23004 -1.01936,-1.90469 -0.82701,-2.5654 1.39317,-4.78558 3.66388,-3.66388 13.93779,-4.36904 19.1187,-1.31223 3.44689,2.03372 3.66574,2.04361 7.95297,0.35957 13.13038,-5.15766 13.5366,-13.21595 1.28473,-25.4852 l -5.77209,-5.78027 -5.40176,5.53281 c -4.66808,4.78134 -13.87299,10.45373 -17.05406,10.5093 -0.55,0.01 -2.0228,1.80855 -3.27288,3.99764 -1.25008,2.1891 -5.02075,6.91766 -8.37926,10.50792 -8.35324,8.92963 -19.52418,14.58358 -30.16287,15.26633 l -7.37664,0.47341 -1.75499,7.44424 c -0.96524,4.09433 -1.59712,7.59835 -1.40417,7.7867 0.19295,0.18835 11.82581,4.91428 25.85081,10.50207 14.025,5.58779 28.60616,11.98993 32.40258,14.22699 16.39982,9.66367 32.38626,29.69106 37.75364,47.29677 C 373.59657,295.50466 387,346.3246 387,347.57268 387,348.79598 397.36298,349 459.5,349 c 39.875,0 72.5,-0.38141 72.5,-0.84757 z M 77.483313,283.17265 c 4.642624,-15.46518 9.285795,-29.76493 10.318158,-31.77721 l 1.877023,-3.6587 -5.12645,-10.11837 c -7.402243,-14.61023 -9.798967,-24.07404 -10.336377,-40.81467 -0.497742,-15.50491 0.49214,-22.84845 4.778713,-35.45135 3.731724,-10.97159 9.451802,-20.95386 17.736515,-30.9525 5.178235,-6.2495 5.652665,-7.06421 2.270982,-3.89985 -15.590329,14.58843 -24.244694,28.74432 -29.749994,48.66188 -1.358024,4.91318 -1.738017,10.04765 -1.690206,22.83812 0.05602,14.98522 0.309606,17.30857 2.762274,25.30747 1.485328,4.8441 3.820074,11.01664 5.188323,13.71675 3.062858,6.04426 3.228789,8.97578 0.50805,8.97578 -2.286895,0 -4.462707,-3.84345 -8.421635,-14.87636 -17.319675,-48.26718 4.277875,-100.9229 50.490171,-123.09711 4.64509,-2.22887 11.36286,-4.87386 14.92838,-5.87774 l 6.48276,-1.82525 0.66083,-10.57377 c 0.58771,-9.403687 2.17399,-19.852776 3.56363,-23.474101 C 144.11814,65.249749 131.85897,65 81.106989,65 44.448881,65 18,65.376621 18,65.898617 c 0,0.494239 2.271835,11.856739 5.048523,25.25 C 25.825211,104.54188 31.427156,131.7 35.49729,151.5 c 4.070134,19.8 12.859124,62.325 19.53109,94.5 6.671965,32.175 12.381134,60.20139 12.687041,62.28086 0.305907,2.07947 0.729572,3.60748 0.941476,3.39558 0.211904,-0.21191 4.183791,-13.03861 8.826416,-28.50379 z M 274.24415,266.06544 c 10.03192,-2.56574 16.25969,-5.84534 23.27472,-12.25668 5.67363,-5.18538 12.39555,-16.40834 10.71389,-17.88797 -0.88322,-0.7771 -33.14392,-14.64566 -35.12711,-15.10079 -0.85349,-0.19588 -1.73734,0.94064 -2.27859,2.93 -0.48633,1.7875 -1.37359,3.25 -1.97167,3.25 -2.27784,0 -11.06619,-7.42789 -15.20017,-12.84713 C 251.28351,211.04379 242.4901,198.4875 234.1143,186.25 225.7385,174.0125 218.743,164 218.56874,164 c -1.9284,0 -9.68135,5.65929 -10.05142,7.33706 -0.2624,1.18962 -1.60006,9.53936 -2.97259,18.55499 -1.37253,9.01563 -2.71476,16.61131 -2.98274,16.8793 -0.26798,0.26798 -8.26656,0.84565 -17.77462,1.28372 -9.50805,0.43807 -17.39987,0.82989 -17.53737,0.87071 -0.1375,0.0408 -0.2456,2.21172 -0.24023,4.82422 0.0391,19.03384 30.46104,42.38221 67.99023,52.18154 10.43205,2.72393 28.87122,2.78684 39.24415,0.1339 z M 551.297,253.1209 c 18.037,-2.68351 32.9811,-5.06566 33.20911,-5.29367 0.22801,-0.22802 0.17558,-1.32845 -0.11651,-2.44542 -0.43904,-1.67888 -1.42869,-2.062 -5.71034,-2.2106 -25.04783,-0.86935 -25.90455,-1.59491 -32.10227,-27.1878 -2.45477,-10.13678 -4.32624,-18.5675 -4.1588,-18.73494 0.16744,-0.16743 1.52114,0.15816 3.00822,0.72355 4.23012,1.60829 8.76207,1.21041 12.55591,-1.10234 4.3707,-2.66441 5.71363,-4.40405 7.04,-9.11968 4.01484,-14.2739 -14.05091,-24.65474 -24.58104,-14.12461 -3.5248,3.52479 -6.00256,3.85127 -8.24124,1.08588 -1.20427,-1.48761 0.32487,-28.71205 1.87802,-33.43576 0.58311,-1.77347 2.90744,-4.7589 5.16516,-6.6343 l 4.10496,-3.4098 -3.28845,-1.70052 c -4.33458,-2.2415 -11.52346,-8.92712 -14.12453,-13.13573 -2.05878,-3.33118 -2.10968,-3.3491 -5.49556,-1.93439 -8.03282,3.35633 -21.65856,15.19432 -25.06006,21.77209 L 493.94864,139 l 3.77568,0.004 c 6.94881,0.007 14.67815,7.15843 14.04628,12.99626 -0.40781,3.7677 -3.92209,3.3543 -4.94192,-0.58133 -1.14121,-4.40409 -4.16499,-6.69209 -9.79942,-7.41492 l -4.90819,-0.62966 -3.64078,9.56296 c -4.58219,12.03568 -8.70674,18.54954 -13.76895,21.74517 l -3.96526,2.50316 0.49368,10.15731 c 0.92247,18.97972 9.51036,34.28014 23.26024,41.44107 4.1664,2.16986 6.6672,2.67166 15,3.00987 11.64634,0.4727 19.37642,-1.54341 28.25,-7.36799 6.38975,-4.19419 6.75072,-3.10327 2.1754,6.57436 -4.26539,9.02207 -9.91606,16.00221 -16.94682,20.934 -5.35806,3.75847 -7.34657,6.066 -5.22735,6.066 0.41317,0 15.50877,-2.1956 33.54577,-4.8791 z m -71.55394,-47.71118 c -1.52989,-1.52988 -0.65406,-3.49284 2.00694,-4.49809 1.5125,-0.57138 3.96064,-2.19369 5.4403,-3.60515 2.722,-2.59651 5.8097,-2.6146 5.8097,-0.034 0,3.70493 -10.96118,10.43304 -13.25694,8.13727 z m 61.77509,-20.38035 c -1.72279,-2.78753 6.13473,-11.367 9.91303,-10.82384 3.12547,0.44931 3.19167,3.60716 0.10026,4.78252 -1.43775,0.54663 -3.38299,2.34509 -4.32276,3.99659 -1.67648,2.94613 -4.50524,3.96257 -5.69053,2.04473 z M 491.25,165.33772 C 488.47521,164.21807 491.41721,158 494.72175,158 c 1.91253,0 2.35788,3.22952 0.77788,5.6409 -1.57388,2.40206 -2.04032,2.5883 -4.24963,1.69682 z m -193.10848,25.94694 c 22.54327,-10.65522 35.34156,-39.39597 33.49695,-75.22318 C 331.28276,109.15266 330.42293,100.575 329.72774,97 l -1.264,-6.5 h -6.17949 c -3.39872,0 -6.63433,-0.453762 -7.19023,-1.008359 -1.91572,-1.911215 0.66732,-3.730687 6.19178,-4.361436 L 326.80549,84.5 l -2.73296,-8 c -4.98588,-14.594833 -8.41499,-19.990976 -10.52954,-16.569567 -1.1252,1.820617 -21.20432,8.963609 -31.04299,11.043303 -5.89293,1.245647 -15.88913,2.362868 -24.33903,2.720241 -11.93657,0.504836 -14.41839,0.874483 -14.81276,2.206233 -3.16026,10.672071 -10.23499,22.957898 -16.45727,28.57935 l -4.03383,3.64432 2.42716,3.18806 c 4.72333,6.20406 6.87483,11.75251 7.43638,19.17741 0.67957,8.98545 -0.84912,15.68098 -5.24805,22.98614 l -3.34829,5.56038 6.1265,7.61568 c 7.37143,9.16322 16.60622,16.97462 25.74528,21.77705 9.94085,5.22377 15.95468,6.62626 26.64543,6.21398 7.63392,-0.2944 10.19015,-0.84818 15.5,-3.35792 z m -15.68109,-27.84293 c -3.61328,-0.91745 -5.98459,-2.41295 -9.16725,-5.78144 -4.93262,-5.22065 -5.87008,-9.65587 -2.04318,-9.66659 2.81516,-0.008 31.45075,2.97063 34.5,3.58849 4.15025,0.84096 2.67628,4.01405 -3.64968,7.85687 -7.3806,4.48347 -13.13081,5.65539 -19.63989,4.00267 z m 12.44139,-5.55735 c 1.76015,-0.61359 2.93706,-1.37884 2.61535,-1.70054 -0.32171,-0.32171 -5.27318,-1.06886 -11.00328,-1.66034 -10.19181,-1.05203 -10.38134,-1.03423 -8.71612,0.81857 0.93623,1.04169 2.60223,2.26235 3.70223,2.71257 2.927,1.198 9.72456,1.11164 13.40182,-0.17026 z m -0.57892,-27.4853 c -0.69915,-1.82195 1.21346,-3.36118 4.20459,-3.38377 1.11513,-0.008 3.02921,-0.71694 4.25352,-1.57448 1.70271,-1.19262 2.00397,-1.97409 1.28146,-3.32411 -1.82452,-3.40915 -8.15794,-26.153234 -7.55459,-27.129472 C 296.84347,94.444262 297.93218,94 298.92724,94 c 1.36614,0 2.23738,1.530616 3.55758,6.25 0.9616,3.4375 3.03415,10.19212 4.60566,15.01026 2.33488,7.15858 2.6539,9.20667 1.74485,11.20181 -2.1028,4.61514 -13.10668,7.60033 -14.51243,3.93701 z m -31.66791,-12.22782 c -2.10115,-2.32174 -2.15617,-9.01071 -0.0983,-11.94875 1.99791,-2.85241 6.00685,-2.90655 7.50812,-0.1014 2.6565,4.96372 0.13019,13.87889 -3.93289,13.87889 -1.00207,0 -2.5667,-0.82293 -3.47694,-1.82874 z m 46.38019,-7.10552 C 306.54484,106.41249 309.47745,97 313.41759,97 c 4.24277,0 6.28694,8.74961 3.15936,13.52291 -1.97417,3.01295 -6.06232,3.3072 -7.54177,0.54283 z m -58.05951,-7.59506 c -4.12305,-4.967969 20.00475,-16.227445 26.88411,-12.545726 2.02706,1.084855 2.99989,3.988975 1.39022,4.150137 -0.4125,0.0413 -3.225,0.190303 -6.25,0.331119 -5.81106,0.270509 -11.60153,2.704732 -16.76083,7.04599 -3.5558,2.99201 -3.61596,3.00365 -5.2635,1.01848 z"
         id="path4" />
      <path
         style="fill:#64ddac"
         d="m 234,443.89527 c -7.425,-3.3374 -13.89576,-6.4474 -14.37946,-6.9111 -0.66469,-0.63721 10.14419,-42.19948 18.00537,-69.23417 0.48172,-1.65664 -3.89263,-1.75 -81.99342,-1.75 -55.745092,0 -83.415286,-0.34421 -85.31739,-1.06133 -3.577944,-1.34894 -8.86592,-6.42056 -10.238867,-9.81996 C 59.234937,353.03568 39.085376,256.31748 1.8372159,75.570537 0.0996416,67.138946 -0.02539016,65.027029 1.0083747,61.570537 2.7068982,55.891362 5.5156407,52.287749 10.044377,49.977361 13.794664,48.064107 16.157067,48 82.912121,48 h 68.991799 l 2.94197,-4.25 C 158.59529,38.333578 169.03491,28.054856 175.5,23.414206 182.64809,18.283299 198.73183,10.372217 206.69382,8.070956 210.43722,6.9889966 216.65,4.9033506 220.5,3.4361872 c 9.36378,-3.56836247 22.02059,-4.30995239 32.5,-1.9042447 4.125,0.9469567 8.75391,1.7771611 10.28647,1.8448985 1.53257,0.067737 3.10757,0.5819951 3.5,1.1427948 0.39244,0.5607997 4.33422,3.1009598 8.7595,5.6448002 l 8.04597,4.625165 6.95403,-2.368984 c 15.62926,-5.3243182 33.2178,-1.791647 44.28822,8.89532 5.91842,5.71343 9.31676,12.695403 9.93638,20.414577 L 345.27382,48 h 66.41275 c 56.03705,0 66.85049,0.226365 69.21465,1.448917 3.22852,1.669533 8.67587,7.570212 9.44903,10.235377 C 491.37675,63.22276 495,80.987968 495,82.482555 495,83.719182 493.43946,84 486.56739,84 477.10063,84 477.94543,84.759473 476,74.5 c -0.62576,-3.3 -1.36207,-6.7875 -1.63626,-7.75 -0.46866,-1.645184 -4.58231,-1.747622 -68.68113,-1.710295 L 337.5,65.079411 332.95696,69.289705 328.41391,73.5 l 1.91753,6.376174 c 1.2831,4.266536 2.51519,6.532463 3.72387,6.848542 2.46251,0.64396 3.21129,3.026708 1.28918,4.102376 -1.26914,0.710244 -1.43527,1.877444 -0.86125,6.051042 0.57841,4.205526 1.20652,5.431146 3.36398,6.564036 4.12894,2.16813 9.67441,8.51829 12.71305,14.55783 3.36707,6.69234 4.41823,18.25268 2.41787,26.59112 l -1.29097,5.38137 4.55821,4.0123 c 5.94072,5.22923 11.5246,13.72458 12.32951,18.75816 1.20073,7.50895 -4.91748,14.65658 -14.83058,17.3259 -2.0759,0.55898 -5.32174,1.92931 -7.21298,3.04517 -7.1516,4.21955 -19.48394,1.85454 -20.3426,-3.90115 -0.79061,-5.29956 13.54313,-7.93084 20.50094,-3.76341 2.90638,1.7408 3.57249,1.78707 7.5,0.52096 9.22856,-2.97501 12.93964,-9.95211 9.1704,-17.24102 C 361.72658,165.57059 351.2744,154 350.0544,154 c -0.35263,0 -3.37809,2.66159 -6.72323,5.91464 -4.19773,4.08218 -7.70168,6.48327 -11.30966,7.75 -4.63344,1.62676 -5.80678,2.67155 -10.3235,9.19248 C 311.80367,191.14188 296.42452,200 281.51817,200 c -3.69779,0 -3.58782,-0.18185 -5.6136,9.2834 -0.74601,3.48565 -0.87361,6.11195 -0.32117,6.61038 0.50413,0.45484 12.12614,5.25769 25.82668,10.673 32.07794,12.67921 41.9707,18.65427 52.91425,31.95929 11.86804,14.429 14.24372,20.14841 24.88805,59.91732 L 387.39098,349 h 72.6678 72.6678 l -3.88253,-18.75 c -2.13539,-10.3125 -4.08474,-19.3125 -4.3319,-20 C 524.16257,309.27761 514.95016,309 483.03138,309 460.46412,309 442,308.76559 442,308.4791 c 0,-0.2865 4.10679,-5.65165 9.1262,-11.92255 8.50271,-10.62268 9.59943,-11.61323 16.05284,-14.49878 9.68948,-4.33252 22.98698,-8.04367 31.7573,-8.86303 l 7.43634,-0.69474 -0.25144,-6.11198 -0.25144,-6.11198 3.20406,-0.64081 3.20406,-0.64081 -0.63027,-5.24721 c -0.34665,-2.88597 -0.63418,-7.77221 -0.63896,-10.85832 L 511,237.27778 505.05862,236.73903 C 484.1851,234.84629 467.56908,213.96385 466.2773,188 c -0.56601,-11.37634 0.24772,-13.86148 5.77569,-17.63892 4.79599,-3.27724 8.10896,-9.0385 13.43362,-23.36108 1.94248,-5.225 4.34455,-10.84128 5.33792,-12.48062 1.79018,-2.95429 1.78098,-3.02109 -1.04192,-7.56219 -1.96098,-3.15456 -2.87629,-5.98778 -2.93869,-9.09632 -0.10223,-5.09346 2.77179,-12.38939 6.01503,-15.26959 1.98772,-1.76523 2.56986,-1.80784 7.743,-0.56682 6.94843,1.6669 7.85627,1.16182 12.31908,-6.853783 1.88157,-3.379457 4.21848,-6.397567 5.19313,-6.70691 2.2441,-0.712249 8.07151,2.24405 14.60773,7.410636 4.88955,3.864963 5.23004,3.975031 8.93073,2.886979 5.32832,-1.566592 23.70098,-1.512494 30.34738,0.08936 3.025,0.729056 9.74428,3.393988 14.93174,5.922068 7.67149,3.73866 10.94743,6.10174 17.55316,12.66185 6.70756,6.66124 8.92709,9.7192 12.7493,17.56534 6.23851,12.80628 8.21147,22.28417 7.47928,35.9296 -0.66953,12.47764 -3.77335,23.33956 -9.43789,33.02813 -4.59479,7.85887 -15.38991,19.5 -22.84289,24.63306 -3.02557,2.08379 -5.30186,4.30778 -5.05842,4.94219 0.24345,0.63441 0.75597,3.66135 1.13894,6.72653 0.56217,4.49943 2.16913,8.02268 8.34154,18.28875 l 7.64524,12.7157 6.51257,2.18541 c 13.25569,4.44819 26.07781,15.66814 31.93815,27.94736 C 644.62782,304.91079 646,308.0591 646,308.39297 646,308.72684 622.59143,309 593.98095,309 H 541.9619 l 0.53341,2.25 c 3.80642,16.056 7.25694,36.91464 6.5933,39.85709 -1.42572,6.32146 -5.90289,11.75094 -11.40371,13.82929 C 535.77301,365.65874 506.38841,366 446.09986,366 h -88.76995 l -9.30703,33.5246 c -5.11886,18.43852 -9.13059,33.69403 -8.91495,33.90112 0.21564,0.20708 6.46707,3.09926 13.89207,6.42704 10.33007,4.6298 13.57503,6.5315 13.81955,8.09888 0.31909,2.04538 0.23264,2.04833 -59.5,2.02999 L 247.5,449.96327 Z M 140,333.5 c 3.57732,-12.7572 4.6697,-15.5 6.17322,-15.5 2.55421,0 2.36293,1.60616 -2.02452,17 l -3.84769,13.5 60.27208,0.25772 c 33.14964,0.14174 87.68941,0.14174 121.1995,0 L 382.70001,348.5 375.47932,321.39735 c -3.97139,-14.90645 -8.01684,-29.53145 -8.98989,-32.5 -4.88869,-14.91413 -15.34026,-29.74289 -27.55511,-39.09534 -7.10495,-5.44 -23.59477,-14.1299 -25.07579,-13.21458 -0.38756,0.23953 -0.99523,1.75846 -1.35037,3.37541 -0.97,4.41638 -7.61194,14.11301 -12.59662,18.38991 -6.45648,5.53973 -19.11272,11.43805 -28.24951,13.16543 -20.8982,3.95095 -41.55485,0.25478 -67.17617,-12.02009 -24.4347,-11.70637 -40.34545,-28.07348 -42.15659,-43.36576 l -0.62059,-5.23985 -5.60434,0.62827 c -25.82177,2.8947 -43.27875,11.93269 -55.90256,28.94238 -7.123308,9.59817 -10.548258,18.13176 -19.657528,48.9786 -4.700672,15.91796 -9.041235,29.24739 -9.645695,29.62097 -0.770981,0.47649 -0.298871,4.52338 1.581707,13.55826 1.474398,7.08347 2.899826,13.66654 3.167618,14.62904 0.449766,1.61656 2.756157,1.75 30.246278,1.75 h 29.75939 z M 77.230785,285.24066 c 4.33333,-14.70736 8.983064,-29.16613 10.332742,-32.1306 l 2.453959,-5.38994 -5.474442,-11.11006 c -6.789899,-13.7797 -9.484946,-23.85587 -10.24558,-38.30589 -1.443767,-27.42771 8.219,-53.39577 26.885666,-72.25348 3.47428,-3.50984 5.41687,-5.88983 4.31687,-5.28887 -4.55485,2.48844 -16.481273,14.57243 -21.388743,21.67134 -20.092157,29.06433 -23.279414,63.15649 -8.8677,94.85241 2.443493,5.37401 2.828313,7.03819 1.849893,8 -1.822611,1.79165 -4.3769,-1.80445 -8.053575,-11.33839 -5.368248,-13.92033 -6.448803,-20.01864 -6.458051,-36.44718 -0.0069,-12.19832 0.407086,-16.65803 2.216275,-23.87699 5.449893,-21.74598 19.161765,-42.2493 37.195401,-55.61819 8.26365,-6.1261 22.9889,-13.32157 32.02657,-15.64972 L 141,100.55702 141.0174,90.028512 c 0.01,-5.790682 0.67809,-13.647471 1.48565,-17.459533 0.80755,-3.812061 1.32136,-7.077943 1.14179,-7.257514 -0.17957,-0.179572 -28.67463,-0.210612 -63.32234,-0.06898 L 17.326616,65.5 l 21.301565,103 c 11.715861,56.65 23.199014,112.33086 25.518118,123.73524 2.319104,11.40438 4.439112,20.51268 4.711129,20.24067 0.272016,-0.27202 4.040027,-12.52788 8.373357,-27.23525 z M 274.5,266.52333 c 14.21501,-3.69389 27.14676,-13.27004 32.00095,-23.69718 1.36373,-2.92938 2.47367,-5.77615 2.46653,-6.32615 -0.0111,-0.85484 -35.31035,-16.56843 -37.10619,-16.51795 -0.35129,0.01 -0.93418,1.59295 -1.29531,3.51795 -0.36113,1.925 -1.0187,3.5 -1.46125,3.5 -1.51618,0 -8.60405,-5.68402 -12.60473,-10.10818 -2.2,-2.43288 -11.61253,-15.52006 -20.91673,-29.08262 l -16.91673,-24.65921 -5.08327,2.89929 -5.08327,2.89929 -2.82461,18.27571 c -1.55354,10.05165 -3.12854,18.57926 -3.5,18.95025 -0.37147,0.37099 -8.55039,1.04599 -18.17539,1.5 l -17.5,0.82547 0.13848,5.26192 c 0.38242,14.53122 15.60504,30.3387 40.73136,42.2963 19.97725,9.50716 34.99995,13.16872 51.13016,12.46224 5.5,-0.24089 12.7,-1.1396 16,-1.99713 z M 584.79165,246 c -0.28495,-2.4426 -0.56715,-2.52466 -12.29165,-3.57405 -12.7788,-1.14375 -17.09008,-2.6252 -19.83607,-6.8161 C 551.19085,233.36164 543,201.77921 543,198.34749 c 0,-1.09192 0.44465,-1.17989 1.93426,-0.38267 3.43329,1.83744 10.48962,1.22247 14.16786,-1.23475 11.82604,-7.90032 7.45478,-25.89854 -6.67689,-27.49139 -5.38273,-0.60671 -9.64463,1.04492 -13.00673,5.04055 l -2.541,3.01981 -2.68875,-2.04011 c -1.56481,-1.18731 -2.56791,-2.81737 -2.39967,-3.89952 0.15899,-1.02267 0.65785,-8.19062 1.10858,-15.92876 0.88669,-15.22275 1.59236,-17.31205 7.06942,-20.93065 1.66494,-1.1 3.02846,-2.298 3.03004,-2.66222 0.002,-0.36422 -2.92212,-2.74946 -6.49712,-5.30053 -3.575,-2.55107 -6.5169,-4.95307 -6.53755,-5.33778 -0.0207,-0.38471 -1.53319,-2.44665 -3.36121,-4.58209 l -3.32366,-3.88261 -6.18313,3.29557 c -3.40072,1.81257 -8.25315,5.11768 -10.78318,7.3447 C 501.63879,127.48792 494,136.53731 494,137.95975 c 0,0.42908 1.9839,1.00376 4.40866,1.27707 5.6751,0.63966 9.76225,3.59818 12.08414,8.7472 1.68352,3.73339 1.70818,4.24357 0.27443,5.67732 C 508.7983,155.63027 507,154.61983 507,151.54458 c 0,-1.42797 -1.38881,-3.55679 -3.56951,-5.47147 -2.9763,-2.61322 -4.26346,-3.08552 -7.74512,-2.84191 l -4.17561,0.29216 -3.7518,9.98832 c -4.25325,11.32333 -7.77922,16.91411 -12.79512,20.28794 -4.30906,2.89839 -5.21674,5.85716 -4.44331,14.4839 1.13872,12.70107 6.32348,25.33624 13.66465,33.30046 11.52654,12.50483 31.44989,14.68711 49.74988,5.44931 3.25613,-1.64369 6.20458,-3.4486 6.55211,-4.01091 1.39277,-2.25355 2.32039,-0.8347 1.44648,2.21246 -2.96023,10.32173 -11.59755,21.77484 -20.94491,27.77302 -4.70343,3.01819 -5.60765,4.0389 -4.53138,5.11517 0.251,0.251 15.79475,-1.8115 34.54166,-4.58333 L 585.08331,248.5 Z M 480.66667,205.33333 c -1.53437,-1.53436 -0.452,-3.39619 2.75284,-4.73525 1.88073,-0.78582 3.92156,-2.36686 4.53518,-3.51342 1.28661,-2.40405 3.57862,-2.74321 4.38244,-0.64848 0.78024,2.03325 -3.07198,6.55509 -6.97291,8.185 -3.81248,1.59296 -3.81619,1.59352 -4.69755,0.71215 z M 542,183.68984 c 0,-2.56251 5.02654,-8.2461 8.17718,-9.24607 1.11328,-0.35335 2.48924,-0.17735 3.05769,0.3911 0.71139,0.71139 -0.58756,2.61254 -4.16732,6.09933 C 543.27453,186.57678 542,187.07372 542,183.68984 Z m -51.40888,-19.54241 c -0.89014,-1.44027 0.38876,-4.06629 2.54137,-5.21833 2.12161,-1.13546 3.30922,0.52449 2.69187,3.76249 -0.37285,1.95558 -4.25664,3.03602 -5.23324,1.45584 z m -201.31073,30.38108 c 18.3345,-3.88509 31.90775,-18.74446 39.34935,-43.07785 2.5581,-8.36479 2.74162,-10.19431 2.80377,-27.95066 0.0416,-11.8978 -0.43453,-21.71005 -1.27386,-26.25 L 328.8193,90 h -6.98298 c -6.0441,0 -6.93879,-0.22942 -6.65436,-1.706337 0.35092,-1.822181 6.93105,-3.737769 10.06804,-2.930979 0.97328,0.250315 1.75,-0.104648 1.75,-0.799753 0,-1.99676 -3.76798,-12.400041 -7.14406,-19.724536 l -3.1069,-6.740503 -5.95919,3.008193 c -14.57494,7.357403 -34.26628,11.838469 -54.73595,12.456 l -12.44611,0.375476 -2.57637,7.28122 c -3.00846,8.502351 -8.0896,16.495167 -14.42627,22.693039 l -4.51061,4.41182 2.61017,3.08818 c 5.15086,6.09415 7.51324,13.24845 7.52378,22.7852 0.009,7.70831 -0.34216,9.41358 -3.08457,15 -1.7018,3.46664 -3.63235,7.03782 -4.29012,7.93596 -0.9874,1.34824 -0.57227,2.48164 2.38076,6.5 11.74355,15.98014 30.42879,28.65206 46.11213,31.27226 7.4155,1.23889 8.42147,1.21511 15.9337,-0.37673 z m -9.82176,-32.35266 c -6.24773,-2.92377 -12.10789,-10.92659 -9.73714,-13.29734 0.89428,-0.89428 35.50395,2.52475 37.39636,3.69433 2.09937,1.29747 0.45274,3.2628 -5.79658,6.9185 -8.18925,4.79051 -15.45573,5.68276 -21.86264,2.68451 z m 14.52113,-3.78443 C 296.19089,157.5067 298,156.43985 298,156.02063 c 0,-0.41921 -3.2625,-1.05932 -7.25,-1.42246 -3.9875,-0.36314 -9.27386,-0.93908 -11.74748,-1.27987 -4.25408,-0.58608 -4.41643,-0.5217 -3,1.18952 1.84995,2.23496 8.72235,5.44062 11.72724,5.47022 1.22637,0.0121 4.03887,-0.7019 6.25,-1.58662 z m 0.68635,-27.81913 C 294.05539,128.98076 297.22029,127 300.37397,127 c 0.68407,0 2.0224,-0.56935 2.97405,-1.26521 1.61605,-1.18168 1.49411,-1.99047 -1.84685,-12.25 -1.96742,-6.04164 -3.85251,-12.94328 -4.18908,-15.336988 -0.53928,-3.835323 -0.39686,-4.310371 1.19915,-4 1.35692,0.263876 2.80224,3.486883 5.76341,12.852198 4.86452,15.38505 5.18961,19.54956 1.72535,22.10223 -3.65037,2.6898 -10.52373,3.58131 -11.33389,1.47006 z M 263,118 c -2.62857,-2.62857 -2.59443,-7.97459 0.0726,-11.36514 2.5316,-3.21841 4.32402,-3.33443 6.37072,-0.41235 2.1692,3.09697 1.94133,8.01879 -0.51588,11.14263 -2.48653,3.16111 -3.31268,3.2496 -5.92742,0.63486 z m 46.39535,-7.51937 c -1.1292,-1.72338 -1.46772,-3.64724 -1.07144,-6.08923 0.73123,-4.506016 2.28385,-6.3914 5.26335,-6.3914 4.24308,0 5.78667,6.44244 2.88706,12.04966 -1.88656,3.64821 -4.85264,3.82878 -7.07897,0.43097 z M 251,102.16952 c 0,-2.0119 6.88689,-7.38866 12.43089,-9.705091 4.61991,-1.930322 15.16052,-1.97157 15.89322,-0.06219 0.81809,2.131902 -0.19844,2.595783 -5.74078,2.619728 -5.63428,0.02434 -11.45151,2.291133 -16.22769,6.323423 -3.65782,3.0881 -6.35564,3.43793 -6.35564,0.82413 z"
         id="path3" />
      <path
         style="fill:#090917"
         d="m 233.77714,443.67339 c -12.29642,-5.53169 -13.72568,-6.43365 -13.75,-8.67721 -0.0149,-1.3771 4.01976,-17.1271 8.96596,-35 4.94621,-17.8729 8.99621,-32.83368 9,-33.24618 0.004,-0.4125 -37.13603,-0.75 -82.53294,-0.75 -80.438821,0 -82.639166,-0.0507 -86.442066,-1.99077 C 60.629714,359.7298 61.130362,361.35 46.859606,292.29979 0.66070047,68.762638 0.15608857,66.241794 0.92544242,62.830579 2.3367532,56.57301 6.8370753,51.13336 12.3151,49.063618 14.203994,48.349944 37.626955,48 83.506653,48 h 68.376457 l 4.43437,-5.75 C 168.47937,26.479837 183.80693,16.237094 207.654,7.944033 214.1693,5.6782724 221.525,3.1178555 224,2.2542177 c 6.02392,-2.10201347 25.73256,-2.13813167 32,-0.058644 l 4.5,1.4930644 -4.5,1.2491372 C 222.95038,14.111888 202.25619,41.791827 194.21669,87.577305 L 192.5,97.353944 187.38351,98.50371 c -10.44165,2.34642 -20.27315,10.67277 -25.17538,21.32114 -2.16247,4.6972 -2.61453,7.13988 -2.62333,14.17515 -0.009,7.43585 0.37925,9.3327 3.10353,15.15125 1.7128,3.65819 5.00305,8.54013 7.31167,10.84875 8.2655,8.2655 23.50702,12.88828 33.44377,10.14356 2.16908,-0.59914 4.11057,-0.92255 4.31443,-0.71869 0.20386,0.20386 -0.90113,8.62916 -2.45554,18.72289 l -2.82619,18.35224 -11.48824,0.61844 c -6.31852,0.34014 -14.58823,0.67764 -18.37712,0.75 L 165.72222,208 l 0.53665,5.91819 c 1.35469,14.9398 15.18091,29.47613 39.65888,41.69574 10.28447,5.1341 27.11842,10.88466 36.08225,12.32588 22.28495,3.58301 44.43934,-2.19008 57.04421,-14.86485 C 304.10361,247.9875 309,239.94855 309,236.72943 309,235.58628 274.6586,220 272.13988,220 c -0.53953,0 -1.27635,1.34484 -1.63736,2.98853 -0.36102,1.6437 -1.03024,3.21958 -1.48716,3.50198 -0.90224,0.55761 -9.21078,-5.75796 -12.63823,-9.60671 -1.8305,-2.0555 -20.12012,-28.27805 -33.13434,-47.50601 l -4.14375,-6.12221 2.2745,-2.13678 2.27451,-2.13678 3.13285,4.36241 c 5.30063,7.38101 17.02864,18.39598 24.55513,23.06223 35.28612,21.87661 69.26388,3.90437 79.22745,-41.90666 2.28987,-10.52847 2.32923,-34.75357 0.0746,-45.896518 -0.87878,-4.343085 -1.83724,-8.135983 -2.12992,-8.428661 -0.29267,-0.292678 -3.48492,-0.450785 -7.09388,-0.351349 -5.76567,0.15886 -6.52129,-0.03177 -6.22829,-1.571339 0.26407,-1.387564 1.54894,-1.815164 6.1751,-2.055061 l 5.84164,-0.302928 -0.65566,-3.494987 c -0.73444,-3.914916 -8.04977,-22.301868 -9.41675,-23.668851 -0.508,-0.507998 -3.79162,0.582699 -7.75566,2.576145 C 294.43034,68.821683 275.15941,73 255.4425,73 h -12.20507 l -1.19583,4.75 c -1.81605,7.213561 -7.61731,17.464571 -13.54777,23.93933 l -5.32219,5.81067 -2.83582,-1.70273 c -7.84986,-4.71336 -12.94327,-6.986252 -17.87539,-7.976765 -4.75746,-0.955434 -5.377,-1.352842 -4.99734,-3.205575 0.23836,-1.163212 0.93554,-5.26493 1.54929,-9.11493 2.89811,-18.179755 11.06877,-38.592143 20.41425,-51 C 228.62102,22.292745 244.6552,11.798026 258.5,8.9256312 c 3.3,-0.6846544 6.65833,-1.5820261 7.46296,-1.9941594 1.48496,-0.7606013 9.00271,2.5372533 14.29622,6.2714032 2.74258,1.934678 2.79655,1.933443 8.97712,-0.205471 26.30953,-9.1049608 53.32802,5.078057 55.5098,29.139182 L 345.27778,48 l 66.11111,0.0016 c 60.96466,0.0014 66.37803,0.137663 69.54001,1.75 6.27143,3.197898 8.72886,7.585711 11.5251,20.578448 1.4003,6.506502 2.546,12.244002 2.546,12.75 C 495,83.586001 491.2069,84 486.5709,84 h -8.4291 l -1.16609,-5.75 c -0.64134,-3.1625 -1.48085,-7.325 -1.86558,-9.25 l -0.6995,-3.5 -68.45532,-0.209548 -68.45531,-0.209547 -4.7051,4.224142 -4.7051,4.224142 2.02594,6.637299 c 1.4292,4.682299 2.59416,6.785893 3.9551,7.141785 C 336.34538,87.903081 336.68942,91 334.48095,91 c -1.06018,0 -1.36456,0.679672 -1.00762,2.25 1.91009,8.40327 2.4874,12.39475 3.0735,21.25 1.82315,27.54552 -6.0411,53.59239 -20.9057,69.24094 -8.70737,9.1666 -17.27648,13.66872 -29.58462,15.54343 l -8.4435,1.28606 -1.67647,7.66257 -1.67648,7.66257 25.61997,10.19699 C 313.97101,231.70091 328.2,237.84891 331.5,239.75479 348.12213,249.35471 361.63839,264.83303 368.39012,282 370.34004,286.95785 387,346.57955 387,348.59993 387,348.81997 419.88032,349 460.06739,349 c 69.11736,0 73.03957,-0.0946 72.55277,-1.75 -0.28304,-0.9625 -2.19197,-9.95763 -4.24206,-19.98917 l -3.72744,-18.23917 -41.30775,-0.26083 -41.30775,-0.26083 8.73242,-11.1574 c 8.27914,-10.57824 9.12173,-11.3374 16.23242,-14.62507 12.71763,-5.88006 21.00595,-8.23942 32.79324,-9.33493 L 507,272.7128 v -6.3564 c 0,-6.11349 0.0955,-6.3564 2.5,-6.3564 2.40093,0 2.49966,-0.24768 2.49131,-6.25 -0.005,-3.4375 -0.28163,-8.52107 -0.61523,-11.29681 l -0.60653,-5.04682 -6.63478,-1.06107 c -9.14359,-1.46229 -15.64422,-4.77266 -22.23823,-11.32455 -9.28641,-9.2271 -15.96291,-26.37726 -15.85144,-40.71816 0.0565,-7.26763 1.50904,-10.58149 5.9311,-13.53131 4.81929,-3.21481 7.15186,-7.03787 11.89747,-19.4999 2.25599,-5.92426 5.24192,-12.92631 6.6354,-15.56012 l 2.53361,-4.78875 -2.67218,-3.50341 c -3.92988,-5.15234 -4.30788,-11.69183 -1.08299,-18.73593 3.30015,-7.20847 5.27952,-8.25367 11.93551,-6.30253 6.54042,1.91727 7.97322,1.15457 11.69999,-6.228124 1.60258,-3.174699 3.51301,-6.267341 4.24539,-6.872537 1.7942,-1.48262 7.68481,0.575282 12.45983,4.352881 8.66971,6.85875 7.80107,6.50437 13.03866,5.319377 7.42079,-1.678947 22.90192,-1.42685 30.20552,0.491871 19.62756,5.156332 35.87129,18.297132 44.50478,36.003352 16.88496,34.62896 3.7499,76.43781 -30.22856,96.2174 -0.19325,0.1125 0.192,3.42592 0.8561,7.36317 1.00981,5.98682 2.43755,9.24552 8.72209,19.90735 l 7.51463,12.74872 6.74809,2.17337 c 13.69121,4.40955 25.41724,14.64428 31.67031,27.64253 l 3.36749,7 -52.01367,0.25892 C 565.40615,308.90133 542,309.36371 542,309.78645 c 0,0.42274 1.575,8.29866 3.5,17.50205 1.925,9.20339 3.4993,18.641 3.49845,20.97247 -0.002,5.45887 -2.5167,10.31217 -7.34098,14.16793 l -3.84253,3.0711 -90.34503,0.26558 c -84.73485,0.2491 -90.37713,0.37329 -90.86205,2 C 353.49975,378.19209 339,431.43204 339,432.41782 c 0,0.71772 6.3,4.14562 14,7.61757 10.5839,4.7723 14,6.75818 14,8.13862 0,1.74847 -2.53664,1.82274 -59.75,1.74938 l -59.75,-0.0766 z M 137.34138,343.75 c 0.81582,-2.8875 2.72118,-9.6798 4.23414,-15.094 2.48824,-8.90433 4.3685,-12.04531 6.14632,-10.2675 0.49493,0.49493 -5.27881,23.12125 -7.49241,29.3615 -0.35316,0.99558 24.32165,1.25 121.23097,1.25 115.40964,0 121.64789,-0.0901 121.16001,-1.75 -0.2829,-0.9625 -3.94532,-14.575 -8.13872,-30.25 -8.37779,-31.31635 -10.94357,-38.36365 -17.48272,-48.01897 -8.58014,-12.66892 -21.56974,-23.82274 -34.22962,-29.39206 C 314.48484,235.94445 313,235.62104 313,237.46113 c 0,3.39832 -6.47087,14.17178 -11.40441,18.98738 -6.09375,5.94808 -14.20815,10.47006 -24.59559,13.7066 -10.48159,3.26587 -31.59887,3.30253 -43.55572,0.0756 -39.04991,-10.53883 -68.20084,-32.83814 -71.05507,-54.35432 -0.73858,-5.56775 -0.24204,-5.41001 -12.06685,-3.83349 -22.5767,3.00999 -40.70719,13.9984 -53.187514,32.23553 -5.190251,7.58437 -7.373316,13.44696 -16.667812,44.76125 -4.80932,16.20317 -9.217308,29.76469 -9.795528,30.1367 -0.708408,0.45577 -0.156285,5.02211 1.692761,14 1.50924,7.32799 2.930572,13.88612 3.158518,14.57362 0.319277,0.96296 7.294235,1.25 30.374875,1.25 h 29.96042 z M 77.505896,285.15628 c 4.62182,-15.44095 9.364635,-30.30912 10.539588,-33.04037 l 2.136279,-4.96592 -3.63028,-6.49155 c -15.304327,-27.36669 -16.320799,-62.38802 -2.606076,-89.7892 5.284884,-10.55888 9.168431,-16.05576 17.489683,-24.75541 9.86463,-10.3132 4.12945,-6.7984 -6.991727,4.28487 -29.176588,29.07716 -36.510556,70.87572 -18.949201,107.99738 2.018112,4.26593 2.439786,6.06997 1.612224,6.89753 C 75.369011,247.03099 73.58101,244.55315 69.678543,235 64.124239,221.40319 62.504266,212.58724 62.603985,196.5 62.708737,179.60062 65.328192,168.19801 72.443618,153.66759 84.232863,129.59276 109.68758,108.48806 134.25,102.42347 l 6.75,-1.66662 v -9.290455 c 0,-7.627712 1.37087,-18.573124 3.16011,-25.231203 0.27144,-1.010107 -12.42994,-1.262496 -63.073445,-1.253331 -34.877334,0.0063 -63.539754,0.137894 -63.694266,0.292406 -0.154511,0.154512 8.644084,43.468513 19.552434,96.253333 10.90835,52.78482 22.449627,108.66854 25.647282,124.18605 3.197655,15.51751 5.970643,28.05693 6.162195,27.86537 0.191552,-0.19155 4.129766,-12.98178 8.751586,-28.42274 z M 539,255.54266 c 9.075,-1.35342 22.65292,-3.37919 30.17316,-4.50171 C 576.6934,249.91843 583.3309,249 583.92316,249 584.51542,249 585,247.39468 585,245.43261 c 0,-2.95909 -0.3021,-3.4715 -1.77172,-3.00506 -0.97444,0.30927 -6.62476,0.18356 -12.55626,-0.27937 -16.666,-1.30071 -18.06831,-2.87811 -23.63939,-26.5909 -2.18929,-9.3185 -3.85444,-17.0688 -3.70035,-17.2229 0.1541,-0.15409 1.96505,0.18505 4.02435,0.75364 4.42926,1.22298 9.86027,-0.17065 13.48838,-3.46119 7.70246,-6.9858 6.67115,-19.19369 -2.08587,-24.69111 -2.55788,-1.60577 -4.50034,-1.96633 -9.02767,-1.67571 -5.07195,0.32558 -6.22954,0.82045 -9.58616,4.0981 -3.73026,3.6425 -3.86597,3.68678 -5.92984,1.93485 -2.05015,-1.74029 -2.08861,-2.24959 -1.30918,-17.33712 0.44166,-8.54929 1.31538,-16.50152 1.9416,-17.67162 0.62622,-1.1701 2.82913,-3.54986 4.89535,-5.28835 l 3.75676,-3.16088 -2.95733,-2.16749 c -5.25683,-3.85285 -12.60739,-10.96848 -14.31258,-13.85514 -0.91372,-1.5468 -2.35178,-2.80814 -3.1957,-2.80298 -4.85114,0.0297 -21.26679,13.1077 -27.1062,21.59499 -1.6105,2.34079 -2.92819,4.43446 -2.92819,4.65261 0,0.21815 1.35627,0.19758 3.01394,-0.0457 6.31282,-0.92654 14.98606,5.88222 14.98606,11.7645 0,5.49937 -2.41188,4.73486 -4.5,-1.4264 -1.20152,-3.54522 -5.61033,-6.27818 -10.80873,-6.70017 l -3.80874,-0.30918 -4.3194,10.74664 c -5.12932,12.76172 -8.50058,18.15386 -13.01566,20.81782 -3.681,2.17185 -4.52197,4.2006 -4.51645,10.89551 0.0134,16.28313 9.36557,35.15485 21.10012,42.578 12.56423,7.948 33.81757,6.76135 46.75502,-2.6105 2.25309,-1.63212 4.32358,-2.9675 4.60111,-2.9675 0.96181,0 -3.39828,10.25619 -6.68487,15.72474 -3.62755,6.03586 -11.47724,13.66755 -16.5524,16.09269 -1.94526,0.92953 -3.25,2.29975 -3.25,3.4131 0,1.54341 0.55332,1.76755 3.25,1.3165 1.7875,-0.29899 10.675,-1.65095 19.75,-3.00437 z m -58.37298,-50.24898 c -1.37405,-1.37404 -0.49877,-3.28776 1.7634,-3.85553 1.31473,-0.32998 3.63359,-1.89755 5.15303,-3.4835 4.05418,-4.23166 6.49175,-1.60718 2.70655,2.91409 -1.94511,2.32336 -8.64414,5.40378 -9.62298,4.42494 z m 61.86745,-20.30263 c -1.54325,-2.49703 3.9276,-9.4698 7.96928,-10.15711 3.01585,-0.51285 3.00694,2.5762 -0.0121,4.19193 -1.44226,0.77187 -3.27045,2.65682 -4.06265,4.18877 -1.49771,2.89625 -2.82756,3.50283 -3.89454,1.77641 z M 491.18358,162.25 C 491.56706,158.91723 496,157.51866 496,160.73045 496,162.92622 494.17059,165 492.23358,165 c -0.90069,0 -1.25857,-0.93732 -1.05,-2.75 z M 281.5,162.85276 c -6.7135,-2.47945 -14.4524,-11.36622 -11.96781,-13.74293 1.11891,-1.07033 36.47476,2.54979 37.83068,3.87352 1.34092,1.3091 0.07,2.60892 -6.38542,6.53035 -6.60111,4.00996 -14.15467,5.30488 -19.47745,3.33906 z m 13.47976,-4.46134 C 297.19089,157.5067 299,156.43983 299,156.02059 c 0,-0.41924 -2.7,-1.04538 -6,-1.39142 -3.3,-0.34605 -8.8125,-0.91763 -12.25,-1.27019 l -6.25,-0.64102 2,2.27765 c 4.2955,4.89182 11.45351,6.20716 18.47976,3.39581 z m 0.72204,-27.02295 c -1.59984,-1.59985 -0.49676,-3.18435 2.62447,-3.7699 7.19306,-1.34943 7.29233,-1.81949 3.15714,-14.94923 C 297.41607,99.735061 296.67186,94.5 298.90331,94.5 c 0.91968,0 2.36467,3.383236 4.19281,9.8168 1.53422,5.39925 3.54391,11.79223 4.46598,14.20663 2.06844,5.41613 1.30262,8.98355 -2.32659,10.83794 -3.57556,1.82699 -8.6463,2.89451 -9.53371,2.0071 z m -33.71559,-15.40176 c -1.57178,-3.79462 -0.34555,-8.65218 2.69351,-10.67005 1.96328,-1.30357 2.38559,-1.23135 4.36308,0.74614 1.75412,1.75412 2.08478,2.96936 1.66319,6.11252 C 270.0659,116.92759 268.4893,119 265.49888,119 c -1.56963,0 -2.63859,-0.92309 -3.51267,-3.03329 z m 48.14217,-4.31202 c -2.07769,-2.50347 -2.39312,-7.24207 -0.7,-10.51619 1.92068,-3.714181 4.79235,-4.089157 7.01492,-0.91599 2.14806,3.06678 1.94745,7.01102 -0.51588,10.14263 -2.29592,2.91879 -4.11177,3.32259 -5.79904,1.28955 z M 251,102.68709 c 0,-2.1874 5.16696,-6.421697 11.20726,-9.184295 6.88843,-3.150498 16.02937,-3.289645 16.6067,-0.252795 0.28271,1.487083 -0.46708,1.7533 -4.99064,1.771962 -5.73024,0.02364 -11.70695,2.262024 -17.17406,6.431988 C 252.96527,104.26387 251,104.69286 251,102.68709 Z"
         id="path2" />
    </g>
  </g>
</svg>
