<?xml version="1.0" encoding="UTF-8" standalone="no"?>
<!-- Created with Inkscape (http://www.inkscape.org/) -->

<svg
   version="1.1"
   id="svg1"
   width="471"
   height="450"
   viewBox="0 0 471 450"
   sodipodi:docname="HR_15.svg"
   inkscape:version="1.3.2 (091e20e, 2023-11-25, custom)"
   xmlns:inkscape="http://www.inkscape.org/namespaces/inkscape"
   xmlns:sodipodi="http://sodipodi.sourceforge.net/DTD/sodipodi-0.dtd"
   xmlns="http://www.w3.org/2000/svg"
   xmlns:svg="http://www.w3.org/2000/svg">
  <defs
     id="defs1" />
  <sodipodi:namedview
     id="namedview1"
     pagecolor="#ffffff"
     bordercolor="#000000"
     borderopacity="0.25"
     inkscape:showpageshadow="2"
     inkscape:pageopacity="0.0"
     inkscape:pagecheckerboard="0"
     inkscape:deskcolor="#d1d1d1"
     showgrid="false"
     inkscape:zoom="1.7488889"
     inkscape:cx="235.29225"
     inkscape:cy="225"
     inkscape:window-width="1920"
     inkscape:window-height="1001"
     inkscape:window-x="-9"
     inkscape:window-y="-9"
     inkscape:window-maximized="1"
     inkscape:current-layer="g1" />
  <g
     inkscape:groupmode="layer"
     inkscape:label="Image"
     id="g1">
    <g
       id="g2">
      <path
         style="fill:#fcfcfc"
         d="M 0,225 V 0 H 235.5 471 V 225 450 H 235.5 0 Z"
         id="path4" />
      <path
         style="fill:#62deab"
         d="m 180.5,446.37828 c -7.7,-1.88193 -18.93552,-3.8632 -24.96783,-4.40282 -10.69464,-0.9567 -29.68686,-4.91751 -33.58619,-7.00437 -1.36472,-0.73038 -1.94598,-0.72167 -1.94598,0.0291 0,0.58884 -1.27849,3.30917 -2.8411,6.04518 l -2.84109,4.97458 -10.41455,-6.26 C 83.766419,427.6561 61.233996,408.00231 46.855076,390 -2.8831725,327.72807 -14.00675,239.04767 18.818173,166.48165 27.018055,148.35418 35.366705,134.83141 48.132264,119 57.993056,106.77098 76.724351,88.631101 87.430586,80.942465 90.268501,78.904429 92.125775,76.703837 92.519012,74.91344 92.85961,73.362704 93.983688,71.01916 95.016963,69.705565 96.869872,67.349972 96.85896,67.2293 94.221451,60.908605 91.889069,55.319136 91.551018,53.157909 91.576667,44 91.610676,31.856893 93.488444,25.786648 99.766774,17.523897 113.0755,0.00862419 137.54939,-5.1100413 156.87595,5.5796271 c 3.01862,1.6696182 5.96534,2.423403 9.5,2.4301418 9.69325,0.01848 19.88097,6.7954651 23.9109,15.9058031 2.38026,5.380968 2.6014,15.045182 0.46117,20.154282 -1.19405,2.850409 -1.26091,4.143599 -0.33176,6.416752 1.13586,2.778852 1.33002,2.841701 8.1237,2.629499 9.46953,-0.295783 27.84901,1.532559 39.96004,3.975118 25.11677,5.065563 53.23263,17.374739 73.1217,32.012807 3.38317,2.489966 6.13467,3.740699 8.10589,3.684652 1.6413,-0.04667 3.48585,0.225194 4.09898,0.604134 0.66393,0.410329 1.36309,-0.300307 1.72872,-1.757088 1.30383,-5.19486 8.02351,-8.925237 10.62767,-5.899864 0.83519,0.970275 7.97179,13.239136 15.85913,27.264136 7.88733,14.025 17.08719,29.37846 20.44414,34.11881 l 6.10353,8.61881 5.80517,-2.93543 c 3.19284,-1.61449 6.00256,-2.73804 6.24381,-2.49678 1.31995,1.31994 11.6331,26.77485 14.68121,36.23611 7.24185,22.47859 9.89864,41.22085 9.58644,67.62735 l -0.22072,18.66886 2.70497,3.21467 c 3.03801,3.61047 6.02543,9.19598 6.92504,12.9476 0.58612,2.44424 0.80675,2.50001 9.8919,2.50065 7.9945,5.6e-4 10.09357,0.37603 15.02821,2.68817 14.85794,6.96173 22.6548,21.73756 21.5351,40.81118 -0.80968,13.79252 -8.74568,25.24669 -21.76803,31.41819 -5.85,2.77241 -7.46033,3.08181 -16.03975,3.08181 -8.59897,0 -10.13616,-0.29702 -15.63023,-3.02014 l -6.09334,-3.02014 -4.568,4.13568 c -5.69447,5.15554 -12.37661,8.35272 -19.04096,9.11048 -4.76498,0.54179 -5.73642,1.1641 -13.63237,8.73293 -15.2312,14.60016 -26.82001,21.01089 -54.35826,30.07003 -25.11427,8.26173 -45.43792,12.08777 -69.45445,13.07517 -8.86442,0.36445 -14.96816,1.10144 -17.32656,2.09208 -3.44927,1.44885 -3.61423,1.72951 -3.13155,5.32809 0.41439,3.08952 0.13523,3.99898 -1.49538,4.87165 -2.62466,1.40468 -30.28894,9.14775 -32.23201,9.02155 -0.825,-0.0536 -7.8,-1.63718 -15.5,-3.5191 z m 30.25488,-4.91993 c 16.70396,-4.64175 15.99821,-4.37488 14.31728,-5.41375 -0.80224,-0.49581 -3.38555,-0.26588 -6.22198,0.55379 -2.6676,0.77089 -7.07212,2.04402 -9.78783,2.8292 -3.84925,1.1129 -5.15922,1.16061 -5.9428,0.21646 -1.78763,-2.15397 0.24904,-3.47068 9.4011,-6.07782 C 222.31139,430.77716 231,427.1393 231,425.82906 c 0,-1.51723 -3.79523,-0.85838 -11.18631,1.94195 -5.72986,2.17093 -8.34135,2.64834 -12.05915,2.20454 -8.74814,-1.04429 -9.24364,-5.56527 -0.51807,-4.72685 5.1395,0.49384 8.9745,-0.59372 21.01353,-5.9592 9.84024,-4.38554 6.14887,-6.45521 -5.98682,-3.3567 l -7.8978,2.01649 -7.43269,-2.04001 c -4.08798,-1.122 -9.71853,-2.67588 -12.51234,-3.45305 -3.73189,-1.03814 -5.39017,-2.09458 -6.25,-3.9817 -2.06093,-4.52325 -1.48546,-5.20534 6.68824,-7.92744 8.55882,-2.85034 13.90465,-6.93324 10.69201,-8.16605 -0.96194,-0.36913 -6.35719,-0.41019 -11.98943,-0.0912 -11.90495,0.67417 -19.40015,2.97005 -26.61286,8.15187 L 161.99537,404 h -12.89073 -12.89073 l -1.35696,3.25383 c -0.74632,1.78961 -3.7657,7.66836 -6.70974,13.06388 -2.94403,5.39553 -5.098,10.06484 -4.78659,10.37625 1.37663,1.37662 21.19965,5.40426 33.57924,6.82263 7.45808,0.85449 18.73514,2.84824 25.06014,4.43056 6.325,1.58232 12.5147,2.91653 13.75488,2.9649 1.24019,0.0484 7.99019,-1.50579 15,-3.4537 z m 128.50054,-65.83471 c 4.74753,-1.42879 13.2706,-6.94608 14.11019,-9.13403 0.26477,-0.68997 -0.64286,-3.4449 -2.01695,-6.12205 -3.60726,-7.02807 -2.9958,-14.19477 1.88128,-22.04984 l 3.61211,-5.81772 5.99833,0.33736 c 5.63905,0.31716 6.22067,0.13361 9.71051,-3.06459 l 3.71218,-3.40196 -3.52766,-4.93541 c -5.26438,-7.36518 -6.87922,-12.02339 -7.46558,-21.53549 -0.72163,-11.70636 1.18314,-17.34517 8.36322,-24.75819 2.95182,-3.04759 5.36695,-5.67622 5.36695,-5.8414 0,-0.57043 -15.5069,-0.27116 -17.80198,0.34356 l -2.30197,0.61657 2.30197,2.45034 c 1.67992,1.78818 2.30198,3.63495 2.30198,6.83406 0,5.05159 -2.60514,8.75001 -4.69286,6.66229 -0.93889,-0.93889 -0.94047,-1.47381 -0.007,-2.40714 2.00297,-2.00297 1.42609,-7.24193 -1.05,-9.5357 l -2.25,-2.08432 -8.5,3.9095 c -6.83348,3.14299 -9.53246,3.87592 -13.76599,3.73823 -4.57883,-0.14891 -5.66421,0.21001 -8.31771,2.75052 -1.67845,1.60697 -4.61928,6.09241 -6.53519,9.96763 -4.09178,8.27625 -5.26504,16.22542 -3.38556,22.93825 2.45345,8.76286 12.13705,16.75554 24.10908,19.89922 l 5.39537,1.41674 -6,2.84997 c -5.30127,2.51807 -7.10633,2.84804 -15.5,2.83349 l -9.5,-0.0165 -6.78015,7.73859 -6.78014,7.73859 2.43763,3.86146 c 3.55504,5.63155 10.8439,11.64444 16.3339,13.47455 5.98994,1.99676 14.57372,2.14024 20.54418,0.34339 z M 320.44113,299.519 c -1.63806,-1.24976 -1.71535,-1.6292 -0.49501,-2.43022 0.91842,-0.60285 2.11869,-0.58928 3.28928,0.0372 1.01373,0.54254 2.82689,0.84864 4.02923,0.68022 1.44045,-0.20176 2.30475,0.29068 2.53404,1.4438 0.28353,1.42591 -0.37099,1.75 -3.53422,1.75 -2.1352,0 -4.7557,-0.66645 -5.82332,-1.481 z m 24.7336,-17.18779 C 345.59864,280.13002 349.5,279.83127 349.5,282 c 0,0.825 -1.05253,1.64904 -2.33896,1.83121 -1.81382,0.25684 -2.25979,-0.0799 -1.98631,-1.5 z m -232.08752,73.02667 11.26195,-12.64211 -4.29852,-4.00961 -4.29851,-4.00961 -0.21188,-9.09828 c -0.14844,-6.37409 -0.8194,-10.6394 -2.2409,-14.24538 -2.76545,-7.01527 -11.29716,-20.51885 -12.67806,-20.0662 -1.82799,0.5992 -1.862821,5.24086 -0.0988,13.1697 0.91102,4.09485 1.39666,7.86545 1.0792,8.3791 -0.31745,0.51366 -1.986291,1.14073 -3.708524,1.3935 -2.563045,0.37618 -3.971771,-0.26466 -7.76224,-3.53107 C 76.556386,299.00016 75.368443,297.61717 73.138127,290.91507 70.87213,284.10575 68.541919,280 66.943296,280 c -1.393094,0 -1.14246,3.40742 1.022359,13.89918 1.501111,7.27511 2.64787,10.2808 5.074504,13.30042 3.036934,3.77906 3.369198,6.81934 0.741226,6.78237 -0.704762,-0.01 -2.801083,-1.84777 -4.658493,-4.08414 -2.517891,-3.0316 -3.818967,-6.04833 -5.113816,-11.85712 C 62.161234,289.75117 61.449671,288 59.929165,288 c -1.394671,0 -0.196876,7.0053 3.227361,18.87521 2.010353,6.96877 2.662236,10.70603 1.985477,11.38279 -2.110741,2.11074 -3.838999,-0.34113 -6.199508,-8.7952 -2.397926,-8.58809 -4.231855,-12.50677 -5.336259,-11.40237 -0.306508,0.30651 1.026632,5.7058 2.962532,11.99843 1.935901,6.29263 3.315853,12.23309 3.06656,13.20103 -0.321676,1.24898 3.511989,5.55053 13.205706,14.81742 C 80.353466,345.25896 89.65,354.90389 93.5,359.5105 c 3.85,4.60661 7.29818,8.40127 7.66263,8.43258 0.36445,0.0313 5.73051,-5.63203 11.92458,-12.5852 z M 447.5,363.01321 c 3.3,-1.53424 7.575,-4.22068 9.5,-5.96986 3.8061,-3.45847 2.37849,-3.09435 -2.64544,0.67473 -1.72999,1.29789 -5.77999,3.29268 -9,4.43287 -7.78905,2.75808 -18.76231,2.16739 -26.24281,-1.41264 -5.81644,-2.78365 -7.97232,-1.85166 -2.91125,1.25854 8.93768,5.4925 20.84042,5.879 31.2995,1.01636 z m -181.78438,1.46442 c 5.93141,-0.8373 14.96515,-2.5947 20.07498,-3.90533 10.34977,-2.65463 7.80813,-0.55929 25.52844,-21.04583 l 8.62683,-9.97353 -2.35877,-2.52647 c -2.95574,-3.16588 -5.03952,-7.27039 -6.55975,-12.92105 -2.52272,-9.37688 3.5987,-26.92109 12.06047,-34.5658 3.48659,-3.14992 4.3712,-3.4636 9.39485,-3.33143 4.23654,0.11147 6.94572,-0.52316 11.47528,-2.68809 7.98034,-3.81425 8.51914,-5.32011 8.41569,-23.5201 -0.12476,-21.95013 -3.94328,-39.89389 -12.97673,-60.97952 -4.1709,-9.73561 -4.36627,-10.56972 -2.75213,-11.75 0.95561,-0.69877 2.11303,-1.27048 2.57203,-1.27048 0.459,0 0.16411,-1.29649 -0.65532,-2.88109 -1.17617,-2.27447 -2.39369,-3.01662 -5.78253,-3.52481 -5.38941,-0.80819 -13.66822,-4.60841 -19.72449,-9.05412 C 307.64172,156.56666 296,143.52122 296,141.42914 296,140.64311 296.9,139.1 298,138 c 2.96777,-2.96777 8.87075,-2.59883 16,1 3.26863,1.65 6.1849,3 6.4806,3 0.2957,0 -1.71227,-4.48345 -4.46215,-9.96323 -4.80788,-9.58083 -5.28702,-10.15705 -12.48403,-15.01355 -5.75277,-3.88192 -7.6923,-5.79907 -8.3835,-8.28677 -1.07858,-3.88188 0.44997,-6.93403 3.87791,-7.74326 1.86754,-0.44086 0.52489,-1.375093 -7.00277,-4.872591 -15.59856,-7.247403 -31.78398,-11.983735 -48.45778,-14.180179 -10.29983,-1.356799 -43.69603,-0.794032 -47.58831,0.801922 -1.99438,0.817754 -2.75468,2.151954 -3.64492,6.396198 -2.82815,13.48328 -12.48572,26.34882 -24.05378,32.04376 -5.74754,2.8295 -7.51603,3.21596 -14.65868,3.20329 -6.77103,-0.012 -9.1748,-0.4895 -14.44615,-2.86958 -3.47796,-1.57034 -8.1717,-4.31764 -10.43053,-6.10512 l -4.10696,-3.24996 -6.06948,4.66036 c -8.67482,6.66084 -21.295835,19.65951 -28.811683,29.67381 -20.485296,27.29508 -31.682578,58.4622 -33.413488,93.0049 -0.789513,15.75583 2.173019,43.5 4.644945,43.5 0.452934,0 0.599041,-0.8584 0.324682,-1.90755 -0.531003,-2.03056 2.764177,-6.09521 4.936074,-6.08871 0.6875,0.002 2.666779,0.86763 4.398397,1.92351 2.522688,1.53824 3.715122,3.53424 6,10.0433 2.704141,7.70345 3.283823,8.51196 11.209851,15.63491 4.597036,4.13126 8.516192,7.35343 8.709235,7.16039 0.193044,-0.19304 -0.349462,-3.03183 -1.205569,-6.30842 C 92.689973,293.23107 95.092248,286 101.16154,286 c 2.44511,0 3.51518,1.03341 7.5072,7.25 9.05177,14.09591 13.16412,26.84283 11.6567,36.13195 -0.47078,2.9011 -0.0742,3.67955 3.28549,6.44887 l 3.82089,3.14951 5.58322,-6.16528 5.58323,-6.16528 5.95086,4.85429 c 20.19114,16.4705 45.21314,28.04325 70.10985,32.426 13.6572,2.40418 36.19242,2.64587 51.05664,0.54757 z M 139.53309,290.19976 c -0.86186,-0.86186 -0.59876,-9.18987 0.51177,-16.19976 3.30497,-20.86154 21.0936,-38.65017 41.95514,-41.95514 8.50442,-1.3473 54.64081,-1.34254 64.67764,0.007 10.04998,1.35099 20.06823,6.01737 27.47598,12.79799 10.84023,9.92252 15.62687,20.45714 16.56742,36.46227 l 0.5766,9.8118 -75.61573,-0.19537 c -41.58865,-0.10746 -75.85562,-0.43526 -76.14882,-0.72846 z m 67.39626,-84.50517 C 191.67364,201.37441 182,188.69793 182,173.02679 c 0,-13.66474 6.55941,-24.22429 18.78459,-30.24004 5.89965,-2.90309 7.61526,-3.28266 14.69736,-3.25169 6.4886,0.0284 9.0954,0.53347 13.66601,2.64796 6.86589,3.17635 12.84512,8.96416 16.56308,16.03283 2.47327,4.70223 2.77935,6.33034 2.77935,14.78415 0,8.45381 -0.30608,10.08192 -2.77935,14.78415 -7.57592,14.4035 -24.1447,22.05541 -38.78169,17.91044 z M 53.358939,315.41958 C 51.34909,309.37296 49.38893,307 46.404029,307 c -4.259756,0 -3.678298,2.16484 2.168384,8.07318 3.197273,3.23098 5.950143,5.7376 6.117489,5.57025 0.167347,-0.16735 -0.431587,-2.51808 -1.330963,-5.22385 z M 359.65816,165.43373 c 9.6495,-5.07797 14.13765,-7.95557 13.64725,-8.75 -0.40188,-0.65105 -3.45773,-5.23373 -6.79076,-10.18373 -3.33304,-4.95 -9.62906,-15.36318 -13.99117,-23.14041 -4.95158,-8.82821 -8.40064,-13.96022 -9.18097,-13.66078 -0.68743,0.26379 -5.20822,-1.96403 -10.04619,-4.95071 C 320.64565,96.938318 320,96.629817 320,98.394905 c 0,0.805899 4.05,3.802665 9,6.659475 4.95,2.85682 9,5.8274 9,6.6013 0,3.03596 -3.26607,2.31862 -11.20964,-2.46202 -12.05751,-7.25651 -19.43643,-10.040854 -18.22188,-6.8758 0.27814,0.72483 4.08876,3.0648 8.46805,5.19995 7.87466,3.83934 12.96347,8.92707 12.96347,12.96075 0,2.76975 -3.46095,1.56511 -5.93366,-2.06531 -1.61494,-2.37103 -4.79775,-4.76362 -9.46083,-7.11191 -7.70954,-3.88247 -14.67875,-6.56143 -15.34252,-5.89766 -1.17607,1.17606 2.49822,5.04611 8.22426,8.66243 6.08229,3.84131 6.71316,4.62259 12.48474,15.46123 6.03548,11.33424 6.06825,11.44059 4.6044,14.94407 -0.81088,1.94072 -1.8681,3.52859 -2.34937,3.52859 -0.48126,0 -4.35344,-1.8 -8.60483,-4 -13.97475,-7.23161 -15.90786,-4.85485 -4.99543,6.14187 8.76778,8.8355 16.05374,13.10441 25.5569,14.97405 5.32618,1.04786 6.16593,1.54932 7.58787,4.53117 0.87939,1.8441 2.0286,3.35291 2.55379,3.35291 0.52519,0 7.42497,-3.40482 15.33284,-7.56627 z M 166.64258,116.93397 c 12.70853,-6.14425 21.0447,-20.359887 22.9047,-39.059274 l 0.65901,-6.625303 -3.25678,-1.624697 C 185.15828,68.731113 182.41186,68 180.84636,68 178.67579,68 178,67.529677 178,66.019052 c 0,-2.527588 4.30972,-3.718079 8.17636,-2.258587 4.02211,1.518177 3.56063,-0.393082 -0.7022,-2.908211 -6.21153,-3.664893 -7.13251,-9.193654 -1.15276,-6.920156 l 2.64709,1.006419 -1.90004,-5.000481 C 179.03246,34.052584 164.1776,20.992721 150.27145,19.345744 l -4.88289,-0.578307 -1.26195,6.848817 c -1.88709,10.241638 -7.04116,19.17249 -15.76791,27.32232 C 120.60958,60.17539 119.6366,62.456169 123,65.5 c 2.13739,1.934309 2.58687,4.019261 1.06876,4.957506 -0.51219,0.316547 -2.59998,-0.556896 -4.63955,-1.940983 -7.71357,-5.234573 -17.81622,-2.417202 -21.542993,6.007798 -2.677704,6.053393 -1.74613,10.811604 3.062573,15.642735 4.59955,4.621011 9.52987,5.733923 15.32217,3.458645 4.85172,-1.905812 6.97126,-0.844454 4.90879,2.458078 -1.0738,1.719429 -0.95508,2.54367 0.7679,5.331521 2.63297,4.26024 10.78487,11.87423 15.14515,14.1458 9.71329,5.06031 20.85241,5.57783 29.54978,1.37287 z M 162.25,88.504611 c -1.2375,-0.88991 -2.25,-2.281625 -2.25,-3.0927 0,-2.025672 2.7117,-2.896065 4.47178,-1.435335 0.88006,0.730387 2.63719,0.938764 4.48809,0.532239 2.31872,-0.509276 3.192,-0.276613 3.67374,0.978766 0.84802,2.209909 -0.6078,3.477619 -4.71992,4.110041 -2.25814,0.34729 -4.17533,-0.0227 -5.66369,-1.093011 z m 8.22529,-8.544596 c -0.39115,-0.632896 -0.13077,-2.235234 0.57862,-3.56075 1.03897,-1.941336 1.05178,-3.701849 0.0659,-9.052572 -1.26072,-6.842208 -0.64534,-9.146084 2.15586,-8.071161 0.86485,0.331873 1.92247,3.536589 2.73524,8.288082 1.13732,6.648852 1.11929,8.113779 -0.12723,10.33461 -1.59306,2.838239 -4.29248,3.86732 -5.40836,2.061791 z M 151.25,71.289386 c -2.10947,-0.769625 -1.39922,-2.986035 1.82673,-5.700492 3.46565,-2.916156 5.66672,-3.228188 8.44439,-1.197107 1.55888,1.13988 1.67732,1.664183 0.65437,2.896766 -0.70713,0.852033 -2.12162,1.276788 -3.26029,0.979021 -1.21032,-0.316506 -2.88815,0.271261 -4.21323,1.475954 -1.21108,1.101051 -2.76447,1.796687 -3.45197,1.545858 z m -6.94386,-11.933994 c -0.85087,-2.217322 1.78942,-3.995695 7.86757,-5.299226 C 158.31638,52.7388 162,53.527261 162,56.159435 c 0,4.130975 -16.21141,7.059165 -17.69386,3.195957 z m -29.91861,53.228498 c 7.72427,-2.32467 8.00186,-2.9586 3.78302,-8.63932 C 114.72535,99.305586 114.22373,99.001081 110,98.984628 102.10502,98.953875 95.413276,93.796482 92.581791,85.560241 l -1.314666,-3.82411 -5.133563,4.948097 c -6.283411,6.056403 -6.793605,9.724073 -2.229179,16.025082 6.748034,9.31539 19.074027,13.30822 30.483147,9.87458 z M 337.31678,96.303964 c -3.92282,-6.828682 -5.04994,-7.674096 -6.71403,-5.035961 -1.70713,2.706357 0.27231,6.414043 5.1013,9.555267 2.60123,1.69208 4.90768,2.89834 5.12543,2.68058 0.21776,-0.21776 -1.36295,-3.45771 -3.5127,-7.199886 z"
         id="path3" />
      <path
         style="fill:#090916"
         d="m 180,446.05812 c -9.075,-2.08083 -21.5442,-4.30333 -27.70934,-4.93888 -11.69498,-1.20561 -28.6669,-5.09548 -30.58023,-7.00881 -0.72829,-0.72829 -0.77178,-1.44908 -0.12637,-2.09449 0.6454,-0.6454 3.38128,-0.31199 7.95,0.96885 9.03074,2.53176 23.4831,5.01039 29.34693,5.03309 2.54046,0.01 12.10755,1.75602 21.2602,3.88041 l 16.6412,3.86253 14.3588,-3.99228 c 7.89735,-2.19574 14.55381,-4.17443 14.79214,-4.39707 0.23834,-0.22264 -0.0916,-0.92977 -0.73327,-1.57141 -0.8888,-0.8888 -3.30112,-0.52764 -10.1304,1.51667 -10.55623,3.15996 -12.33642,3.30695 -11.88862,0.9817 0.23254,-1.20746 3.08512,-2.49985 9.82333,-4.45057 C 222.86094,430.99438 232,427.1879 232,425.93605 c 0,-2.05811 -4.10079,-1.65691 -11.25183,1.10082 -6.84152,2.63837 -8.75722,2.98097 -13.41467,2.39906 -4.27578,-0.53422 -5.36646,-1.02582 -5.11932,-2.30739 0.25062,-1.29964 1.62392,-1.63702 6.79993,-1.67052 5.33001,-0.0345 8.07643,-0.74736 15.41071,-4 13.50064,-5.98733 12.60571,-9.16251 -1.66391,-5.90341 -8.65655,1.9771 -8.95478,1.93999 -29.00931,-3.61032 -3.9111,-1.08244 -7.81754,-6.27835 -6.04951,-8.04638 0.47976,-0.47976 4.19407,-2.0021 8.25402,-3.38298 C 203.67093,397.89095 207,395.69401 207,393.22677 c 0,-1.22939 -2.03779,-1.39736 -12.75,-1.05096 -11.29304,0.36519 -13.43563,0.72703 -18.75,3.16654 -3.3,1.51483 -7.73367,4.14081 -9.85261,5.83552 l -3.8526,3.08129 -12.60175,-0.71793 c -8.1148,-0.4623 -12.97407,-1.16603 -13.6474,-1.97644 C 134.05832,399.77467 114.15036,387 112.84798,387 111.54393,387 98.003613,373.70101 97.991465,372.40827 97.970273,370.15307 79.59593,350.56143 59.26381,331.11492 l -22.23619,-21.26765 1.439032,-2.78278 c 1.562584,-3.02171 6.581581,-5.64369 9.015388,-4.70976 C 48.648523,302.80236 49,302.1804 49,299.66862 49,296.0755 50.492446,294 53.07617,294 c 2.386588,0 3.024508,-9.44338 1.283487,-19 -2.116483,-11.61757 -2.811103,-33.98775 -1.428351,-46 3.046819,-26.46835 10.504822,-48.47904 24.057314,-71 7.101159,-11.80041 12.693731,-18.84952 24.3962,-30.75 L 111.46427,117 h -5.05064 c -8.034652,0 -14.601673,-2.46446 -20.358042,-7.63993 -6.101806,-5.48605 -8.305147,-9.360801 -8.234483,-14.481001 0.0716,-5.18811 1.366732,-7.20109 7.718626,-11.996816 4.164631,-3.144328 6.196405,-5.638752 8.465441,-10.393091 l 2.985606,-6.255774 -1.926755,-4.366694 C 91.824133,54.523978 90.622014,45.004016 91.955589,37.25 c 1.638968,-9.529715 5.070113,-16.377025 11.677671,-23.304364 13.6188,-14.27788144 33.31487,-17.6609955 51.29302,-8.8103923 4.49626,2.2135018 8.10024,3.2311059 12,3.3882739 6.46228,0.2604427 11.23996,2.0487844 15.84333,5.9303414 7.84898,6.618253 11.14283,18.403014 7.90794,28.293109 -1.50088,4.588678 -1.47625,5.221749 0.43985,11.306933 1.11636,3.545355 2.28908,10.630863 2.60605,15.745575 0.44324,7.152413 0.88272,9.181893 1.90347,8.790193 0.72995,-0.280106 6.93186,-0.991928 13.78203,-1.581828 28.48773,-2.45321 61.3295,3.807067 86.6336,16.514038 6.74363,3.38645 8.93081,4.072535 10.38628,3.258013 1.27752,-0.714936 2.93789,-0.695996 5.4066,0.06167 1.95957,0.601411 3.58575,0.995591 3.61372,0.875955 0.84768,-3.625919 5.69801,-5.970362 7.86619,-3.802184 C 325.07472,95.674719 326,95.171252 326,92.454545 326,89.226808 330.16123,85 333.33889,85 c 2.13547,0 4.22268,3.179774 17.23051,26.25 13.67466,24.25289 26.63775,44.77527 28.25519,44.73188 0.37147,-0.01 3.07562,-1.34126 6.00921,-2.95845 l 5.3338,-2.94034 3.78636,8.20845 c 8.55221,18.54039 15.06787,39.3881 18.66103,59.70846 1.21265,6.85791 1.71931,15.95931 1.82174,32.72537 l 0.14189,23.22537 2.65174,2.77463 c 2.79478,2.9243 6.7105,10.67689 6.74768,13.35946 0.0185,1.33619 1.47319,1.57294 9.27196,1.50903 8.02524,-0.0658 10.00711,0.27787 14.96807,2.59523 18.99773,8.87422 27.55202,31.43362 19.77037,52.13854 -2.62896,6.99498 -11.15343,16.17917 -18.11103,19.51267 -10.68477,5.11924 -23.43116,4.95322 -34.08193,-0.44394 l -4.77117,-2.41773 -4.10142,3.98029 c -5.08744,4.93719 -12.8668,8.69944 -19.92395,9.63561 -4.95676,0.65754 -5.91695,1.25452 -12.32576,7.66333 -13.39772,13.39771 -24.34677,19.95018 -47.14131,28.21177 -25.4003,9.206 -52.43909,14.6377 -79.53187,15.97678 -15.46183,0.76422 -19.33018,2.27666 -18.40715,7.19682 0.81173,4.32691 -0.97631,5.33421 -17.59285,9.911 -7.425,2.04511 -13.95,3.84637 -14.5,4.0028 -0.55,0.15644 -8.425,-1.41807 -17.5,-3.49891 z m 157.28946,-69.5453 c 6.18417,-1.61077 11.86898,-4.82276 15.51615,-8.76682 l 2.30561,-2.49329 -2.4176,-3.56253 c -4.72156,-6.95762 -4.28405,-14.81879 1.34132,-24.1006 3.19657,-5.27432 3.25599,-5.31309 6.57973,-4.29301 4.58904,1.40842 10.52012,-0.47962 13.81771,-4.39857 l 2.57976,-3.06588 -3.49807,-4.08671 c -5.43584,-6.35057 -7.80799,-13.63778 -7.89241,-24.24541 -0.0886,-11.13231 1.99101,-16.32382 9.37493,-23.40345 l 5.10525,-4.89487 -4.91706,-0.67627 c -2.70438,-0.37194 -7.53494,-0.19232 -10.73458,0.39916 -3.19963,0.59149 -6.02124,1.07543 -6.27022,1.07543 -0.24899,0 0.73366,1.18636 2.18366,2.63636 1.919,1.91901 2.63636,3.66541 2.63636,6.41822 0,4.75438 -0.82241,6.94542 -2.60699,6.94542 -1.66902,0 -1.68006,-0.11481 -0.34785,-3.61877 1.25277,-3.29504 -0.10076,-7.31035 -3.09448,-9.17996 -1.70099,-1.06228 -3.11617,-0.71075 -9.72075,2.41469 -5.99201,2.83555 -9.06329,3.68339 -13.66045,3.77101 -5.30327,0.10107 -6.26726,0.45748 -9.11421,3.36965 -1.75102,1.79115 -4.68126,6.06615 -6.51164,9.5 -2.78029,5.21592 -3.39759,7.56912 -3.75101,14.29926 -0.37561,7.15253 -0.13461,8.62509 2.14918,13.13193 3.83461,7.56723 12.15633,13.51203 22.1582,15.82916 l 5,1.15835 -4.3424,2.22981 c -5.62595,2.88889 -13.81378,4.18678 -20.1219,3.1896 l -5.01314,-0.79247 -5.77038,6.59887 c -9.30386,10.63968 -8.82144,9.45179 -5.87816,14.47411 4.24952,7.25126 12.33648,12.87532 20.96973,14.58334 6.20352,1.22733 7.70678,1.17928 13.94571,-0.44576 z m -15.78789,-76.88701 c -1.09913,-0.80426 -1.77413,-1.6832 -1.5,-1.9532 1.00935,-0.99412 10.07303,0.60373 9.70995,1.71179 -0.56325,1.71897 -5.97325,1.87805 -8.20995,0.24141 z M 345,282.60699 c 0,-0.76616 0.60331,-1.62452 1.34068,-1.90748 1.83032,-0.70236 4.07477,0.81925 3.22842,2.18869 -0.98556,1.59466 -4.5691,1.37411 -4.5691,-0.28121 z m -232.39019,73.84605 c 5.9896,-6.90083 11.03181,-12.9507 11.2049,-13.44414 0.17309,-0.49345 -1.45538,-2.49635 -3.61882,-4.45089 l -3.93354,-3.55371 -0.51202,-10.25215 C 115.42838,318.3058 114.59932,313.01512 113.517,310.5 110.95318,304.54216 102.00878,290 100.90813,290 c -0.5267,0 -1.425359,1.23022 -1.997025,2.73381 -0.801657,2.10852 -0.561897,4.63765 1.048243,11.05748 1.148202,4.57802 1.825512,8.7478 1.505132,9.26619 C 101.1441,313.57587 99.389751,314 97.565932,314 c -2.748197,0 -4.929561,-1.44483 -12.738647,-8.43746 -8.500398,-7.61167 -9.600743,-9.00635 -11.242636,-14.25 C 71.13826,283.49959 69.247997,280 67.47432,280 c -1.964352,0 -1.9116,4.27044 0.185293,15 1.249403,6.39305 2.365038,9.31422 4.500777,11.7848 3.078107,3.56068 3.68135,6.2152 1.412414,6.2152 -3.08822,0 -7.396681,-7.10059 -9.038084,-14.89527 -1.771475,-8.41238 -2.539172,-10.27288 -4.509957,-10.92981 -1.977959,-0.65932 -0.810252,8.33525 2.527759,19.47074 2.760043,9.2074 2.789444,14.25393 0.06573,11.28188 C 61.898706,317.14239 60.289391,312.9 59.041995,308.5 c -2.190782,-7.72765 -4.304642,-11.57069 -5.633507,-10.24182 -0.351521,0.35152 0.946426,5.83421 2.884327,12.18376 1.937902,6.34955 3.32056,12.33515 3.072575,13.30135 -0.319675,1.2455 3.375885,5.37231 12.699458,14.18138 7.232687,6.83357 16.767815,16.62107 21.189173,21.75 4.421357,5.12893 8.134849,9.32533 8.252209,9.32533 0.11736,0 5.11397,-5.64613 11.10358,-12.54696 z M 271,364.05899 c 16.87715,-2.93059 24.7129,-5.42429 27.27364,-8.67974 1.17875,-1.49853 6.56241,-7.80095 11.9637,-14.00538 l 9.82052,-11.28077 -3.35756,-4.39863 c -7.08003,-9.27534 -7.55558,-21.63254 -1.30974,-34.03366 6.04317,-11.99874 10.51064,-15.91022 17.13471,-15.00229 3.52515,0.48317 5.54319,0.03 10.78072,-2.42094 5.81634,-2.72179 6.6164,-3.4675 8.2171,-7.65886 1.53571,-4.02122 1.69163,-6.74975 1.16346,-20.3611 -0.87962,-22.6686 -6.06836,-44.14509 -14.88544,-61.61161 -1.67299,-3.31418 -2.60146,-6.17256 -2.06326,-6.35196 0.53819,-0.1794 1.75062,-0.89074 2.69429,-1.58077 1.43797,-1.05147 1.52601,-1.67102 0.5438,-3.82674 -0.92668,-2.03385 -2.35479,-2.83311 -6.82394,-3.81914 -9.91905,-2.18843 -16.00697,-5.80026 -25.88674,-15.35804 -10.10219,-9.77294 -11.50662,-12.98605 -7.04275,-16.11266 3.44104,-2.4102 7.54151,-1.8703 14.9625,1.97006 3.84024,1.98733 6.81499,3.01782 6.81499,2.36079 0,-0.64128 -2.30218,-5.51344 -5.11596,-10.82701 -4.59352,-8.67445 -5.71976,-10.05199 -11.02856,-13.48937 C 297.81263,113.01102 295,109.70521 295,105.98759 c 0,-3.43769 2.23454,-5.36707 5.49425,-4.74394 1.37816,0.26345 2.50575,0.2851 2.50575,0.0481 0,-0.23699 -4.6125,-2.59915 -10.25,-5.249236 -24.70842,-11.614979 -51.1486,-16.951355 -77.25,-15.591235 -7.15,0.372579 -14.99021,0.985961 -17.42268,1.363069 L 193.65463,82.5 l -1.32946,5.861534 c -3.16548,13.956406 -11.55385,25.773956 -22.51258,31.715776 -6.01091,3.25912 -6.7905,3.42095 -16.31259,3.38618 -11.25579,-0.0411 -15.34965,-1.39611 -23.84792,-7.89335 l -4.84792,-3.70642 -3.95949,2.74393 C 114.78156,118.80938 99.965704,133.0921 93.78443,140.69413 76.391038,162.08538 64.822,186.35588 58.841665,214 c -4.059213,18.76373 -2.714437,67.21117 1.908335,68.75045 0.766775,0.25531 1.25,-0.50513 1.25,-1.96712 0,-4.90004 4.771076,-6.32444 9.286621,-2.77251 1.642395,1.2919 3.506485,4.77773 5.213936,9.75 2.527843,7.36132 3.070174,8.09986 11.107838,15.12653 4.647633,4.06304 8.705331,7.13226 9.017108,6.82048 0.311776,-0.31178 -0.137985,-3.66586 -0.999469,-7.45352 -1.891051,-8.31431 -0.876984,-13.72722 2.893542,-15.44518 3.585044,-1.63346 6.459924,0.77397 11.795024,9.87719 7.59324,12.95624 8.93635,16.78329 9.46988,26.98344 0.46688,8.92585 0.58244,9.29237 3.94498,12.51272 l 3.46401,3.31752 5.65326,-6.1756 5.65327,-6.17559 5,4.07249 c 23.6843,19.29084 52.06116,31.346 82,34.83553 10.49122,1.22281 32.5237,0.2554 45.5,-1.99784 z M 140,282.1815 c 0,-22.84116 15.39341,-42.94012 37.36839,-48.79137 7.67865,-2.04459 67.00741,-1.9642 74.93831,0.10154 C 275.09425,239.42707 290,258.45354 290,281.60534 V 290 h -75 -75 z m 61.5,-78.97197 c -6.91627,-3.35213 -13.68826,-10.20641 -16.82934,-17.03386 -3.05007,-6.62962 -3.04094,-19.74091 0.0184,-26.3929 3.24663,-7.05925 10.33781,-14.07292 17.46005,-17.26919 5.49956,-2.46806 6.98834,-2.7036 14.73431,-2.3311 10.35415,0.49792 16.87593,3.5315 23.54926,10.95385 4.63722,5.1577 8.56734,15.11366 8.56734,21.70317 0,8.71884 -4.74611,19.09636 -11.40924,24.94666 -6.63155,5.82258 -11.2023,7.54717 -21.09076,7.95773 -8.29743,0.3445 -9.46838,0.14666 -15,-2.53436 z m 245.67471,160.56803 c 5.78267,-2.6474 13.11835,-8.58811 15.04115,-12.1809 0.61102,-1.1417 -1.23435,0.0328 -4.10082,2.61 -10.25293,9.21827 -25.05467,11.79609 -37.82912,6.5882 C 414.40147,358.39588 413,358.27011 413,360.14099 c 0,1.01757 5.26807,3.7871 10.5,5.52007 6.12257,2.02797 17.02562,1.16055 23.67471,-1.8835 z M 53.490779,314.61628 c -2.18367,-7.51156 -5.911302,-10.22292 -9.972242,-7.25349 -1.742246,1.27396 -1.445101,1.7568 4.55887,7.40786 3.532426,3.3248 6.561725,5.90991 6.731775,5.7447 0.17005,-0.16521 -0.423231,-2.81979 -1.318403,-5.89907 z M 373.97751,157.65226 c 0.0124,-0.46625 -2.39815,-4.29125 -5.35672,-8.5 -2.95857,-4.20874 -9.50422,-14.93524 -14.5459,-23.83665 -6.53551,-11.53889 -9.65907,-16.14731 -10.8821,-16.05518 -0.94348,0.0711 -6.34223,-2.71405 -11.99721,-6.18917 -5.65498,-3.47511 -10.54298,-6.057189 -10.86222,-5.73795 -1.39573,1.395722 1.02807,3.68851 8.57909,8.11536 7.39896,4.33772 9.45611,6.58748 7.26292,7.94294 -0.45354,0.28031 -4.61604,-1.78829 -9.25,-4.59689 -8.49927,-5.15133 -17.75008,-9.303344 -18.67264,-8.38079 -1.41814,1.41815 1.46361,3.92392 8.69288,7.55872 5.98726,3.01034 8.69762,5.04222 10.63888,7.97567 2.40126,3.62854 2.56997,6.05168 0.42135,6.05168 -0.48187,0 -2.14282,-1.77393 -3.69099,-3.94208 -2.1258,-2.97709 -4.89556,-4.92382 -11.31485,-7.95265 -10.33005,-4.87406 -14,-5.89766 -14,-3.90481 0,2.20824 1.9982,4.20296 8.65921,8.64414 5.61292,3.74238 6.66365,5.04704 11.84656,14.70955 4.7791,8.90968 5.58702,11.1377 5.05913,13.95161 -0.34552,1.84177 -1.17647,3.54289 -1.84656,3.78027 -0.67009,0.23737 -4.40673,-1.30488 -8.30365,-3.42722 C 307.21464,139.93751 301,138.77746 301,141.35477 c 0,0.74513 3.4875,4.93579 7.75,9.31258 8.63378,8.86529 15.34112,12.76689 25.15373,14.6317 3.35295,0.6372 6.09795,1.39309 6.10001,1.67975 0.002,0.28666 0.90092,1.99271 1.99748,3.79122 l 1.99374,3.27003 14.98003,-7.77003 c 8.23901,-4.27351 14.99015,-8.1515 15.00252,-8.61776 z M 166.5,117.14547 c 13.36943,-6.35706 21.87269,-20.613825 23.19868,-38.89547 0.50705,-6.990748 0.36545,-8.25 -0.9277,-8.25 -0.83935,0 -2.11848,-0.713791 -2.84252,-1.586203 -0.87789,-1.057789 -2.23829,-1.401832 -4.08367,-1.032754 -3.44413,0.688824 -4.81334,-1.194303 -2.24757,-3.091157 1.85181,-1.369027 4.07776,-1.314196 7.65278,0.188507 3.36667,1.415127 1.74516,-1.929243 -2.28795,-4.718889 -4.92451,-3.406221 -5.40605,-6.298303 -0.89857,-5.396807 2.81111,0.562222 3.00832,0.428353 2.39382,-1.625 -2.0252,-6.767255 -7.53808,-15.81346 -13.09094,-21.481233 C 166.15295,23.893787 158.19348,19.804865 149.883,19.19265 l -5.617,-0.413791 -0.44945,5.419751 c -0.83589,10.079802 -9.84616,25.178967 -18.76142,31.439907 -5.42634,3.81077 -6.21368,6.862556 -2.52858,9.800956 1.63187,1.301204 2.49614,2.714789 2.07574,3.395016 -0.99476,1.609557 -3.11413,1.458634 -4.59633,-0.327312 -0.68142,-0.821053 -2.98652,-1.963397 -5.12245,-2.538544 -10.67947,-2.875684 -20.798362,7.036617 -18.387699,18.012296 0.961467,4.377528 6.644829,9.767228 11.200659,10.621906 2.09396,0.392829 5.63556,0.18825 8.08572,-0.467067 5.20987,-1.393427 7.01017,-0.668803 4.6948,1.889658 -1.55523,1.718513 -1.40338,2.15788 2.56013,7.407514 11.39264,15.08944 28.93041,20.6226 43.46288,13.71253 z m -2.1569,-28.214252 c -2.65458,-0.981995 -3.69443,-2.573275 -2.94972,-4.513959 0.49886,-1.300021 0.87874,-1.285065 3.02155,0.118959 1.91937,1.257619 2.90376,1.363593 4.53868,0.48861 C 171.30503,83.766386 173,84.409034 173,86.559017 173,87.351558 172.88453,88 172.7434,88 c -0.14113,0 -1.60778,0.387513 -3.25923,0.861141 -1.65144,0.473627 -3.96492,0.505162 -5.14107,0.07008 z m 7.10075,-9.216958 c -0.32882,-0.856888 -0.16579,-2.380642 0.36229,-3.386119 0.61737,-1.175491 0.59888,-4.039122 -0.0518,-8.021323 -1.19921,-7.33934 -0.50715,-10.488185 1.79841,-8.182633 0.92713,0.927138 1.70525,4.445922 2.08472,9.427541 0.55092,7.232265 0.41623,8.118182 -1.49516,9.834393 -1.83761,1.649961 -2.17548,1.691047 -2.69847,0.328141 z m -20.93867,-9.705878 c -0.33707,-0.54539 0.54387,-2.148342 1.95764,-3.562116 3.0456,-3.045593 8.78971,-3.166138 9.35231,-0.196266 0.25502,1.3462 -0.34938,1.75 -2.61936,1.75 -1.62298,0 -3.51108,0.675 -4.19577,1.5 -1.42543,1.717544 -3.5958,1.963021 -4.49482,0.508382 z m -5.44088,-9.88167 c -3.5784,-2.428348 5.01908,-6.571727 12.3584,-5.955872 4.71873,0.395956 5.59839,2.114009 2.21684,4.329684 -2.95739,1.937761 -12.54052,3.00697 -14.57524,1.626188 z M 115.5,112.67392 c 7.05453,-2.76049 7.08051,-2.82599 3.3591,-8.47063 -3.13423,-4.754 -3.63925,-5.098705 -7.544,-5.149186 -8.26798,-0.106891 -14.03648,-4.126918 -17.731857,-12.357195 l -2.156577,-4.80309 -4.629865,3.535164 c -8.087647,6.175378 -8.385123,12.183728 -0.987263,19.940547 5.480129,5.74604 12.28362,8.62528 20.190462,8.54462 3.575,-0.0365 7.85,-0.59457 9.5,-1.24023 z M 337.94204,96.82737 c -2.3301,-4.030053 -4.38441,-7.503995 -4.56513,-7.719871 -0.18072,-0.215875 -1.01445,0.176725 -1.85274,0.872445 -1.58973,1.31936 -2.02687,5.714478 -0.75886,7.629786 0.91233,1.378047 10.55353,7.40476 11.05058,6.90771 0.19949,-0.19948 -1.54375,-3.66002 -3.87385,-7.69007 z"
         id="path2" />
    </g>
  </g>
</svg>
