<?xml version="1.0" encoding="UTF-8" standalone="no"?>
<!-- Created with Inkscape (http://www.inkscape.org/) -->

<svg
   version="1.1"
   id="svg1"
   width="450"
   height="450"
   viewBox="0 0 450 450"
   sodipodi:docname="HR_14.svg"
   inkscape:version="1.3.2 (091e20e, 2023-11-25, custom)"
   xmlns:inkscape="http://www.inkscape.org/namespaces/inkscape"
   xmlns:sodipodi="http://sodipodi.sourceforge.net/DTD/sodipodi-0.dtd"
   xmlns="http://www.w3.org/2000/svg"
   xmlns:svg="http://www.w3.org/2000/svg">
  <defs
     id="defs1" />
  <sodipodi:namedview
     id="namedview1"
     pagecolor="#ffffff"
     bordercolor="#000000"
     borderopacity="0.25"
     inkscape:showpageshadow="2"
     inkscape:pageopacity="0.0"
     inkscape:pagecheckerboard="0"
     inkscape:deskcolor="#d1d1d1"
     showgrid="false"
     inkscape:zoom="1.7488889"
     inkscape:cx="225"
     inkscape:cy="225"
     inkscape:window-width="1920"
     inkscape:window-height="1001"
     inkscape:window-x="-9"
     inkscape:window-y="-9"
     inkscape:window-maximized="1"
     inkscape:current-layer="g1" />
  <g
     inkscape:groupmode="layer"
     inkscape:label="Image"
     id="g1">
    <g
       id="g2"
       transform="translate(0,0.13593585)">
      <path
         style="fill:#fefefe"
         d="M 0,225 V 0 H 225 450 V 225 450 H 225 0 Z"
         id="path5" />
      <path
         style="fill:#cdc9c6"
         d="m 208.5,449.41086 c -8.10752,-0.80966 -28.17757,-3.48192 -34,-4.52697 -16.2426,-2.91536 -43.18745,-13.0971 -60.82374,-22.98366 C 90.520654,408.91964 60.063892,381.89344 46.736068,362.5 33.381578,343.06775 29.182375,336.19747 23.510001,324.5 12.394438,301.57769 6.3865236,282.35697 2.3477634,256.79707 -0.09143077,241.36027 -0.11898722,207.02556 2.2953243,191.45907 11.729046,130.63431 39.525627,84.197726 90,44.940841 117.28417,23.72034 150.45071,9.0190566 185,2.8314746 199.63224,0.21092288 232.01117,-0.76213489 248.20342,0.93207346 336.39114,10.159232 411.52782,70.888507 438.82238,155 c 8.85482,27.28718 11.88806,49.40604 10.76499,78.5 -0.38215,9.9 -0.83569,23.625 -1.00787,30.5 -0.51563,20.58898 -5.43722,40.87028 -14.12039,58.1885 -8.4202,16.79373 -20.57892,33.02404 -42.39161,56.58729 -30.2133,32.63803 -53.72238,49.02325 -77.0675,53.71403 -3.575,0.71834 -10.25602,2.6927 -14.84672,4.38747 -10.55428,3.89639 -29.69873,8.67942 -42.65328,10.65645 -9.7268,1.48444 -40.95352,2.68069 -49,1.87712 z M 285,426.03441 c 0,-0.53107 -2.50404,-4.80712 -5.56453,-9.50233 -13.22991,-20.29648 -23.07981,-47.61005 -26.92489,-74.66217 -0.81067,-5.70345 -1.48218,-10.93241 -1.49226,-11.61991 -0.0101,-0.6875 -0.58082,-1.22692 -1.26832,-1.1987 -1.7372,0.0713 -24.03853,31.67282 -23.25095,32.94716 0.35153,0.56879 1.01345,0.80283 1.47094,0.52009 0.45748,-0.28274 5.24636,-6.6961 10.64195,-14.25191 l 9.81015,-13.73783 1.80372,10.98559 c 3.43951,20.94849 9.31109,39.54456 17.95847,56.8768 4.93406,9.88949 10.68263,19.56237 13.58493,22.8588 1.69112,1.92077 3.23079,2.29459 3.23079,0.78441 z m -105.08157,-8.84343 c -0.0449,-0.93004 -3.83,-4.95109 -8.41141,-8.93568 l -8.32986,-7.2447 -2.48683,7.39645 c -1.80622,5.37211 -2.18626,7.69702 -1.38859,8.49469 0.60405,0.60405 4.27076,1.12989 8.14826,1.16855 3.8775,0.0387 7.95,0.43234 9.05,0.87486 2.46942,0.99343 3.52484,0.45184 3.41843,-1.75417 z M 126.7232,387.41831 c -0.12276,-0.59493 -3.67716,-4.08421 -7.89866,-7.75396 l -7.67546,-6.67227 -4.55083,5.98395 c -2.70167,3.55246 -4.31552,6.59718 -3.97172,7.49311 0.31851,0.83003 2.22035,1.96789 4.22629,2.52857 2.00595,0.56068 5.89718,2.27461 8.64718,3.80874 l 5,2.78932 3.2232,-3.54789 c 1.77277,-1.95133 3.12277,-4.03464 3,-4.62957 z m 279.62877,-31.7216 c 21.67238,-26.38033 31.071,-45.50244 35.73082,-72.69671 2.91323,-17.00134 2.75105,-23.69731 -0.72883,-30.09099 -2.93825,-5.39853 -7.67226,-9.27952 -13.28135,-10.88819 -2.88236,-0.82665 -4.56761,-0.31182 -14.41823,4.4046 -21.35524,10.22477 -33.26937,13.15701 -36.38468,8.95478 -1.31608,-1.77525 -1.2462,-3.60719 0.35263,-9.24405 0.60129,-2.11992 0.42318,-2.29386 -1.72592,-1.68553 -5.13786,1.45432 -16.81846,7.69533 -21.74721,11.61966 -2.84782,2.26746 -8.93887,9.14175 -13.53568,15.27619 -8.3843,11.18885 -20.62266,29.31378 -20.60304,30.51297 0.008,0.51485 20.71695,13.49413 46.15406,28.92753 l 3.76935,2.28696 3.16236,-6.28696 C 381.98336,309.11889 401.08763,279 403.40731,279 c 3.11306,0 2.4176,2.17968 -3.7267,11.68006 -8.80974,13.62173 -18.85686,30.72598 -23.65974,40.27842 -2.22375,4.42284 -4.3331,8.04152 -4.68743,8.04152 -0.35433,0 -13.91675,-8.16941 -30.13871,-18.15424 l -29.49448,-18.15425 -2.74792,3.3669 -2.74793,3.3669 3.6478,4.13213 c 2.00629,2.27267 18.0478,19.76063 35.6478,38.86214 l 32,34.73002 10.2375,-10.62809 c 5.63063,-5.84545 14.00714,-15.21661 18.61447,-20.8248 z M 217.52724,295.75 c 13.75254,-20.52428 19.08035,-26.07117 26.67364,-27.77047 4.83136,-1.08121 6.28797,-1.01191 11.19906,0.53282 5.8565,1.84209 8.46745,1.32629 5.23839,-1.03486 -2.74419,-2.0066 -10.80225,-3.48329 -15.24947,-2.79456 -8.03984,1.24512 -12.57856,4.78811 -21.54339,16.81707 C 218.4217,288.77758 204,310.48054 204,311.36508 c 0,0.34921 0.59371,0.63492 1.31937,0.63492 0.72565,0 6.21919,-7.3125 12.20787,-16.25 z m 86.14152,2.55093 c -4.78472,-6.80164 -17.13905,-21.66615 -18.31577,-22.03723 -0.63086,-0.19894 -2.05285,0.91042 -3.15998,2.46525 l -2.01297,2.82695 11.15998,12.15067 c 10.95774,11.93048 11.1948,12.11665 13.08127,10.27298 1.89329,-1.85032 1.88232,-1.93311 -0.75253,-5.67862 z m 33.45756,-30.02946 c 2.68052,-3.4257 4.87368,-6.41866 4.87368,-6.65104 0,-0.23238 -7.9875,3.81353 -17.75,8.9909 -24.16671,12.8164 -24.78327,13.17073 -24.50931,14.08523 0.76708,2.56052 9.55039,13.12897 10.58226,12.73301 0.67894,-0.26054 2.10957,0.16621 3.17919,0.94833 1.82767,1.33643 2.45059,0.66051 10.34762,-11.22793 4.62159,-6.95748 10.59604,-15.45281 13.27656,-18.8785 z m -59.54886,6.89013 c -2.13533,-0.41672 -3.00352,0.34001 -2.08857,1.82043 0.49468,0.8004 1.1313,0.74862 2.25586,-0.18347 1.41152,-1.16994 1.39495,-1.33208 -0.16729,-1.63696 z M 390.0685,251.40649 c 2.98732,-0.87643 11.00869,-4.25149 17.82527,-7.50013 l 12.39376,-5.90661 -0.67625,-8.24988 c -1.54292,-18.8226 -1.2916,-18.02654 -7.1307,-22.58693 l -5.27752,-4.1218 -1.5448,2.35767 c -2.40054,3.66369 -10.46843,11.18402 -14.09162,13.13524 -3.10694,1.67319 -3.35488,2.24028 -4.96839,11.36351 -0.93404,5.28134 -2.56106,12.07744 -3.61561,15.10244 -1.05454,3.025 -1.93204,6.0625 -1.94999,6.75 -0.0437,1.67144 2.49711,1.57485 9.03585,-0.34351 z m -10.77053,-32.42087 c 8.37133,-3.2335 11.57883,-5.0875 16.48919,-9.53113 7.79827,-7.05703 11.69078,-14.52188 10.95878,-21.01617 -1.37062,-12.16009 -10.71418,-10.54439 -12.2973,2.12647 -0.37531,3.0039 -1.06658,5.69908 -1.53615,5.98929 -1.1185,0.69128 -6.48352,-2.1166 -11.04191,-5.77899 -3.64286,-2.92682 -8.10854,-10.10087 -9.20137,-14.78188 -0.56177,-2.40629 -0.9076,-2.51155 -8.62722,-2.62572 -5.97386,-0.0884 -8.04199,0.21381 -8.04199,1.17499 0,0.71167 -0.25191,1.95041 -0.5598,2.75276 -0.47101,1.22744 0.0518,1.29557 3.29627,0.42958 2.96478,-0.79135 4.53878,-0.70203 6.8098,0.38644 3.4841,1.66989 4.24266,5.64258 0.95373,4.99486 -1.1,-0.21663 -3.9125,-0.38574 -6.25,-0.3758 -2.43097,0.0103 -4.29381,-0.46308 -4.35236,-1.10612 -0.2245,-2.46561 -1.81661,6.33168 -2.46596,13.6258 l -0.68993,7.75 h 3.19184 c 3.34399,0 4.20565,1.34575 10.40465,16.25 0.85784,2.0625 1.78629,3.75 2.06322,3.75 0.27694,0 5.18036,-1.80647 10.89651,-4.01438 z M 358.08183,191.5986 c -1.59261,-1.91898 -1.07452,-4.57396 1.16817,-5.9863 2.56521,-1.61545 5.25,0.42841 5.25,3.99669 0,2.3651 -0.47035,2.94568 -2.5856,3.19157 -1.42207,0.1653 -3.14673,-0.37558 -3.83257,-1.20196 z"
         id="path4" />
      <path
         style="fill:#62ddab"
         d="M 165.68595,442.45852 C 137.58911,435.0308 114.32673,423.79828 91.853755,406.80776 72.375705,392.08152 47.647373,366.99761 49.558886,363.90472 c 1.254871,-2.03042 13.239595,-0.30611 25.473083,3.66495 10.414761,3.3807 12.432393,3.71418 21.968031,3.63093 5.775,-0.0504 10.68224,-0.11618 10.90499,-0.14613 0.22274,-0.03 -0.38863,-0.9314 -1.3586,-2.00321 -1.71013,-1.88967 -0.57384,-3.77014 37.4947,-62.05057 C 168.51096,269.53892 184.65558,245.777 186.89968,243.9207 190.61136,240.85043 198.36262,238 203,238 c 1.45035,0 5.04852,0.71614 7.99593,1.59143 4.63595,1.37673 6.95393,3.1528 17.1815,13.16471 6.50241,6.36531 11.82257,11.84683 11.82257,12.18117 0,0.33433 -1.5862,1.46211 -3.52488,2.50616 -4.65132,2.5049 -11.17321,10.60641 -22.59978,28.07351 -5.15644,7.88233 -9.64407,14.36559 -9.97253,14.40726 -0.32845,0.0417 -1.00345,-0.83465 -1.5,-1.94737 -0.77091,-1.72756 -5.5582,4.48143 -32.76857,42.5 C 152.10808,374.96459 137.5077,395 137.18896,395 c -0.31874,0 -1.77746,-1.1477 -3.2416,-2.55044 l -2.66208,-2.55043 -4.93223,5.80043 C 122.18932,400.59623 119,405.73498 119,407.54705 119,407.79617 123.51452,408 129.03226,408 c 8.66397,0 11.08488,-0.39893 17.75,-2.92491 4.24476,-1.6087 8.61774,-3.07579 9.71774,-3.26021 3.27521,-0.54911 3.0016,-4.21502 -0.53682,-7.19241 l -3.14112,-2.64308 17.78357,-27.23969 C 202.85831,315.33717 205.10011,312 206.03436,312 c 0.50938,0 4.60696,-5.5125 9.10573,-12.25 12.98549,-19.44747 19.46641,-27.3811 24.26506,-29.70409 5.12774,-2.48229 13.43354,-2.69781 17.75941,-0.46081 2.21607,1.14597 3.36783,1.28251 4.15748,0.49286 C 263.55581,267.84419 256.10352,264 249.53943,264 h -3.16213 l -3.18243,-16.75 C 239.96329,230.24134 238.99653,228 234.89178,228 c -0.94929,0 -3.72862,-0.85844 -6.1763,-1.90763 -4.12529,-1.76831 -6.85812,-5.2193 -37.41715,-47.25 C 111.64985,69.294335 93.793094,44.622552 93.409467,43.594258 92.950559,42.364174 104.01288,34.778886 117.41121,27.136584 172.15314,-4.0877934 242.9978,-8.5431056 306,15.276523 c 54.89417,20.754174 101.9398,66.11158 125.295,120.798817 15.57335,36.46568 19.52539,63.153 17.53713,118.42466 -1.90139,52.85679 -14.13322,78.81525 -59.81271,126.93491 -24.95337,26.28635 -43.63839,40.42815 -63.0769,47.73991 -7.81865,2.94097 -9.36623,3.17719 -20.94252,3.19669 -19.60523,0.033 -33.51233,-4.81651 -44.08971,-15.37443 -7.77409,-7.75978 -32.76012,-51.86895 -31.22301,-55.11964 1.4368,-3.03858 17.78584,-25.79385 18.56272,-25.83638 0.4125,-0.0226 0.75,1.3649 0.75,3.0833 0,5.41282 4.82487,27.22582 8.52072,38.52174 6.62634,20.2526 23.34596,51.10976 26.94497,49.72869 0.84387,-0.32382 1.53431,-0.75014 1.53431,-0.94737 0,-0.19723 -2.51417,-4.21567 -5.58704,-8.92987 -14.00674,-21.48824 -25.42564,-53.77278 -27.94107,-78.99755 -0.81834,-8.2063 -1.35051,-10.5 -2.43613,-10.5 -1.39612,0 -23.07123,30.63687 -24.02301,33.95553 -1.00383,3.50017 -39.95573,58.19775 -40.98949,57.55885 -1.30969,-0.80944 -2.81504,4.00628 -3.46,11.06877 -1.05543,11.55719 -1.65345,15.42047 -2.37453,15.33988 -0.3788,-0.0423 -6.45505,-1.60136 -13.50278,-3.46451 z m 14.6078,-24.47382 c 0.41319,-1.58004 -1.27063,-3.546 -7.79613,-9.10245 -4.57774,-3.89793 -8.68866,-7.07479 -9.13539,-7.0597 -0.44673,0.0151 -1.89083,3.26324 -3.20911,7.2181 -2.8154,8.44618 -2.54947,8.85835 5.84688,9.06235 3.025,0.0735 6.85,0.47715 8.5,0.897 4.7448,1.20735 5.23498,1.12145 5.79375,-1.0153 z m -55.93052,-26.3831 3.60416,-4.3984 -7.99374,-6.8516 c -4.39656,-3.76838 -8.32672,-6.94994 -8.73369,-7.07012 -0.40698,-0.12019 -2.72935,2.52011 -5.16083,5.86734 -5.32081,7.32474 -5.03101,8.18545 3.83709,11.39651 3.49851,1.26678 7.06999,3.01231 7.93664,3.87895 2.21391,2.21391 2.47659,2.10002 6.51037,-2.82268 z M 391.37436,373.25 c 35.38286,-38.93295 46.38911,-59.18589 51.76263,-95.25 1.10631,-7.425 1.74116,-15.22879 1.41076,-17.34177 -1.33994,-8.56912 -7.88139,-16.47948 -15.52027,-18.76814 -3.86593,-1.15827 -4.4196,-1.00431 -15.87072,4.41299 -22.02656,10.42035 -32.65894,12.91252 -35.64513,8.35502 -1.37341,-2.09609 -1.37583,-2.79156 -0.0231,-6.62573 0.83128,-2.3561 1.51142,-4.42801 1.51142,-4.60424 0,-0.83251 -11.77146,3.86647 -16.58485,6.62042 -10.99913,6.29306 -18.89974,15.26488 -36.20238,41.11088 -5.31883,7.94506 -6.82744,10.90924 -5.92437,11.64045 2.25453,1.82548 48.81838,30.20012 49.55954,30.20012 0.40448,0 1.99251,-2.5875 3.52894,-5.75 7.62361,-15.69197 28.01306,-48.25 30.21653,-48.25 2.38946,0 1.57406,2.86312 -2.54128,8.92324 -5.9933,8.82552 -17.48846,28.0912 -23.68817,39.70093 C 374.31653,333.33088 371.37127,338 370.81894,338 c -0.77258,0 -45.5719,-27.06434 -57.50595,-34.74072 -2.04845,-1.31763 -2.35606,-1.15132 -4.85506,2.62493 l -2.66805,4.03169 35.65184,38.54205 C 361.05024,369.65608 377.4951,387 377.98586,387 c 0.49076,0 6.51559,-6.1875 13.3885,-13.75 z m -86.19718,-69.73953 c 1.22101,-2.67982 0.53114,-3.75388 -14.00487,-21.80442 l -5.47113,-6.79394 -2.85059,2.73104 C 281.28276,279.14522 280,280.74213 280,281.19184 280,282.35148 302.0668,306 303.14888,306 c 0.4917,0 1.40443,-1.12029 2.0283,-2.48953 z M 324.03748,287.5 c 4.01494,-6.05 9.94421,-14.4875 13.17615,-18.75 3.23194,-4.2625 5.59511,-7.75 5.2515,-7.75 -1.35231,0 -43.4345,22.5488 -43.44932,23.28135 -0.032,1.58284 9.51937,13.63168 10.53457,13.28909 0.57771,-0.19496 2.15271,0.24094 3.5,0.96867 1.34729,0.72772 2.72807,1.01663 3.06841,0.64201 0.34033,-0.37462 3.90374,-5.63112 7.91869,-11.68112 z m -8.45832,-17.21608 18.3952,-9.71608 -3.23718,-1.20131 c -4.47745,-1.66156 -31.56562,-10.4166 -35.23718,-11.38884 -1.65,-0.43692 -6.75679,-2.14293 -11.34843,-3.79112 l -8.34843,-2.99672 0.53429,2.65508 c 0.29386,1.46029 1.5538,8.16757 2.79988,14.90507 2.20656,11.93084 2.33308,12.25 4.85593,12.25 1.74909,0 4.02465,1.46145 7.00676,4.5 2.42903,2.475 4.81412,4.5 5.30019,4.5 0.48608,0 9.16162,-4.37224 19.27897,-9.71608 z m -36.80833,5.90358 C 279.01137,275.46589 278.10511,275 276.46089,275 c -2.31788,0 -2.52335,0.21982 -1.43325,1.5333 1.39251,1.67788 3.12189,1.51812 3.74319,-0.3458 z m 113.51072,-25.25214 c 3.42015,-1.13556 11.33147,-4.50825 17.58071,-7.49486 l 11.36225,-5.43021 -0.55639,-3.25515 C 420.3621,232.96481 419.83905,227.9 419.50579,223.5 c -0.87974,-11.61513 -1.00916,-11.93444 -6.66121,-16.43467 l -5.16116,-4.10938 -4.76205,5.34291 c -2.61913,2.9386 -7.0504,6.88601 -9.84726,8.77202 -2.79687,1.88602 -5.2671,4.32912 -5.48941,5.42912 -0.2223,1.1 -1.16086,5.825 -2.08567,10.5 -0.92482,4.675 -2.54044,10.9594 -3.59026,13.96534 -1.04982,3.00594 -1.90877,5.59344 -1.90877,5.75 0,0.98374 7.02337,-0.0342 12.28155,-1.77998 z m -0.48747,-37.59869 c 5.44265,-4.14005 11.11736,-10.52228 13.22267,-14.87127 4.47551,-9.24517 0.39202,-21.89527 -5.96894,-18.49099 -2.30949,1.23601 -5.04781,8.04182 -5.04781,12.54583 0,4.09819 -1.29839,4.39791 -6.78984,1.56739 C 380.55452,190.65704 373,180.51 373,175.00091 c 0,-1.96866 -0.46348,-2.06347 -8.75,-1.78984 L 355.5,173.5 354.3134,184 c -0.65263,5.775 -1.42399,12.35757 -1.71414,14.62793 l -0.52754,4.12792 3.82425,0.61153 c 3.45751,0.55287 3.99802,1.06805 5.63616,5.37207 0.99655,2.6183 2.83616,7.0831 4.08802,9.92177 l 2.27611,5.16123 10.30187,-3.99004 c 5.66603,-2.19452 11.78421,-5.1176 13.59595,-6.49574 z m -33.82829,-22.40059 c -0.8199,-1.53199 -0.79741,-2.43404 0.0873,-3.5 1.79701,-2.16527 5.69798,-1.79588 6.46218,0.61191 1.36881,4.31273 -4.42068,6.86571 -6.54944,2.88809 z m 2.72193,-8.67366 c -3.87007,-0.30326 -4.74945,-0.7085 -4.49138,-2.06975 0.39055,-2.06 7.65374,-2.87846 10.76545,-1.21312 2.49351,1.33449 2.70021,4.08864 0.28821,3.8402 -0.9625,-0.0991 -3.91553,-0.34994 -6.56228,-0.55733 z"
         id="path3" />
      <path
         style="fill:#030406"
         d="M 164.96477,442.02151 C 128.72301,432.29333 96.072481,413.55004 68.922389,386.88762 54.147885,372.37849 48.210038,365.1319 50.06372,363.87237 c 2.455413,-1.66839 12.115814,-0.10216 25.412576,4.1201 11.963622,3.79894 13.356536,4.02745 22.19944,3.64175 10.084934,-0.43988 11.853784,-1.04264 9.058294,-3.08675 -1.60804,-1.17583 1.72878,-6.63106 38.00157,-62.1272 36.77011,-56.25702 40.13192,-61.06527 44.64505,-63.85392 3.89818,-2.40868 6.274,-3.09447 11.80249,-3.40686 11.1443,-0.62971 14.37989,1.09049 27.59849,14.67267 l 11.28164,11.59195 -3.50271,1.79699 c -4.62953,2.37509 -10.9537,10.11914 -23.00428,28.16911 -8.49366,12.72224 -10.03304,14.55327 -10.70594,12.73427 C 202.4181,306.95601 201.86166,306 201.6138,306 c -0.24786,0 -14.505,19.6875 -31.68254,43.75 -17.17755,24.0625 -31.61129,44.17453 -32.07499,44.69341 -0.50645,0.56671 -2.03238,-0.19601 -3.82163,-1.91022 l -2.97854,-2.85362 -3.96674,4.41021 c -2.18171,2.42562 -5.14742,6.54772 -6.59046,9.16022 l -2.62372,4.75 11.31241,-0.0344 c 10.13638,-0.0308 12.0921,-0.34234 18.81241,-2.99633 4.125,-1.62904 8.23502,-2.96355 9.13337,-2.96558 3.27783,-0.007 2.92266,-4.01558 -0.63241,-7.13697 l -3.35976,-2.94991 15.86963,-24.2084 c 8.7283,-13.31461 20.28403,-31.06137 25.6794,-39.43724 5.39537,-8.37586 10.29098,-15.23836 10.87914,-15.25 0.58815,-0.0116 5.82873,-7.10865 11.64572,-15.77115 12.58622,-18.74301 17.82156,-24.90743 23.2462,-27.37153 4.91939,-2.23459 11.3824,-2.38845 16.17706,-0.38511 C 260.38863,271.06033 262,270.77668 262,268.54956 262,266.71849 254.81758,264 249.97976,264 c -3.1304,0 -3.97594,-0.37349 -3.96187,-1.75 0.01,-0.9625 -1.64089,-10.3406 -3.66829,-20.84023 -2.02741,-10.49963 -3.39958,-19.83713 -3.04928,-20.75 0.81783,-2.13124 3.33114,-2.08737 18.19968,0.31766 13.28191,2.14839 14.89572,3.13558 16.09233,9.84393 0.36091,2.02325 2.28777,12.00364 4.28193,22.17864 l 3.62574,18.5 3.21873,0.31103 c 2.34566,0.22666 4.28491,1.52227 7.1494,4.7765 l 3.93067,4.46548 32.3506,-17.16805 c 17.79283,-9.44242 33.93317,-17.99509 35.86741,-19.00592 1.93425,-1.01084 6.40514,-2.87184 9.9353,-4.13557 5.44682,-1.94984 6.54234,-2.74774 7.23655,-5.27058 C 382.22811,231.69543 383.8012,222 383.37464,222 c -0.17742,0 -3.72101,1.35 -7.87464,3 -4.15363,1.65 -8.15879,3 -8.90035,3 -0.77254,0 -3.18379,-4.48376 -5.64663,-10.5 L 356.65468,207 h -3.85872 c -2.17148,0 -4.06274,-0.54657 -4.3253,-1.25 -0.25662,-0.6875 0.38839,-8.45 1.43334,-17.25 l 1.89991,-16 -5.74932,-6.00449 C 338.9562,159.08207 337,155.41027 337,149.5 c 0,-5.71099 2.13699,-10.00236 5.96727,-11.98307 4.20022,-2.17202 6.9993,-1.89604 13.37212,1.31848 l 5.62123,2.83541 2.26969,-2.4344 c 5.38469,-5.77544 21.30645,-10.85421 31.40278,-10.01694 4.83756,0.40117 6.1326,0.95386 8.5349,3.6425 1.5576,1.74327 2.83201,4.06247 2.83201,5.1538 0,1.6991 0.68254,1.98562 4.75,1.99399 9.26251,0.019 20.75036,7.49661 23.80492,15.49487 2.35773,6.17361 1.31864,11.66513 -3.60013,19.02651 -4.44776,6.65648 -8.70901,18.82395 -9.6094,27.43847 -0.52331,5.00676 0.94539,26.73626 2.2146,32.76515 0.29772,1.41418 1.47466,2.47606 3.20524,2.8919 7.07597,1.70026 14.67952,7.46513 17.79673,13.49314 3.66037,7.07839 3.33173,20.36759 -1.00694,40.71782 -6.55012,30.72286 -23.96247,57.52092 -62.5365,96.24526 -19.03709,19.11128 -32.77611,29.82079 -47.32328,36.8883 -12.57931,6.11146 -17.34792,7.22563 -30.69524,7.17189 -18.36647,-0.074 -32.83389,-5.30025 -42.75303,-15.44435 -8.11144,-8.29542 -33.30335,-52.12043 -31.58172,-54.94103 3.80249,-6.22976 17.8391,-24.62374 18.33088,-24.02132 0.34286,0.41999 1.42724,5.71362 2.40974,11.76362 3.23148,19.89867 11.87814,44.7196 21.25005,61 5.50992,9.57154 11.15527,17.5 12.46063,17.5 2.57043,0 1.42932,-3.3677 -3.74454,-11.05111 -13.71927,-20.37369 -24.18115,-49.98666 -27.715,-78.44889 -0.92635,-7.46101 -1.60712,-10 -2.68126,-10 -1.81033,0 -23.87798,30.32666 -23.93425,32.89185 -0.0497,2.26381 -40.09353,58.52481 -41.48018,58.279 -1.37402,-0.24357 -3.43679,6.11408 -3.51357,10.82915 -0.0358,2.2 -0.3489,6.3625 -0.69573,9.25 -0.75815,6.31191 -0.48513,6.2716 -15.38725,2.27151 z M 180,419.58179 c 0,-0.23002 0.25632,-1.08617 0.5696,-1.90256 0.38026,-0.99095 -2.31896,-4.00968 -8.12055,-9.08178 C 167.66947,404.41885 163.45173,401 163.07629,401 c -1.08454,0 -5.29557,13.9862 -4.68785,15.56988 0.36524,0.95179 2.14801,1.4494 5.33018,1.48775 2.62976,0.0317 6.58138,0.42995 8.78138,0.885 4.74399,0.98126 7.5,1.21613 7.5,0.63916 z M 123.11292,393.25 c 5.54112,-6.12684 5.71055,-5.41419 -3.14182,-13.21479 -4.46465,-3.93418 -8.51253,-7.01405 -8.9953,-6.84414 -0.48277,0.16991 -2.9021,3.00893 -5.37629,6.30893 -4.19886,5.60031 -4.38532,6.10515 -2.79902,7.57854 0.93473,0.8682 4.74343,2.83407 8.46378,4.36859 3.72035,1.53452 7.00941,3.18668 7.30902,3.67145 0.89568,1.44925 1.92047,1.02744 4.53963,-1.86858 z M 396.33119,368.16544 C 427.62086,333.28873 440.30371,307.99289 444.04533,273 c 1.47955,-13.83724 0.61544,-18.15196 -4.84914,-24.21297 -3.81405,-4.23035 -10.05971,-7.72658 -13.87148,-7.76507 -1.19642,-0.0121 -6.14642,1.95403 -11,4.36913 -18.65629,9.28319 -30.28432,12.8596 -34.92937,10.74318 -2.28171,-1.03962 -2.54061,-1.64161 -2.11148,-4.90959 0.269,-2.04857 0.83107,-4.78841 1.24903,-6.08853 0.68613,-2.13433 0.52723,-2.29849 -1.63648,-1.69069 -1.31803,0.37025 -6.12345,2.47548 -10.67872,4.67831 -10.38623,5.02253 -18.84116,12.78054 -28.65978,26.29742 -8.50515,11.70867 -18.92507,27.56398 -18.41182,28.01603 0.19465,0.17145 11.70066,7.2982 25.56891,15.83722 l 25.215,15.5255 5.53425,-10.36357 c 7.30942,-13.6878 23.26185,-39.70735 27.2028,-44.3697 0.20146,-0.23834 0.86764,0.068 1.48041,0.68079 0.81884,0.81884 -1.12539,4.64427 -7.33558,14.43334 -9.52873,15.02005 -15.86061,25.94424 -21.19623,36.5692 -2.00244,3.9875 -4.0643,7.25 -4.58193,7.25 -0.51762,0 -14.12447,-8.1151 -30.23743,-18.03355 L 311.5,301.9329 l -2.75,3.24577 c -1.5125,1.78518 -2.73169,3.71278 -2.70931,4.28356 0.0224,0.57077 2.83487,4.05186 6.25,7.73574 3.41512,3.68388 19.48431,21.0954 35.70931,38.69227 l 29.5,31.9943 4.33119,-4.19227 c 2.38216,-2.30575 8.90716,-9.29282 14.5,-15.52683 z M 306.2138,300.64917 c -6.7629,-8.99795 -18.41297,-23.56958 -19.69386,-24.63262 -1.45069,-1.20397 -1.9577,-1.00962 -4.05306,1.55367 -1.31723,1.61138 -2.41114,3.32212 -2.43092,3.80166 -0.0198,0.47953 5.02654,6.38793 11.21404,13.12978 l 11.25,12.2579 2.28876,-2.48061 c 1.43567,-1.556 1.96683,-2.90894 1.42504,-3.62978 z M 324.07612,287.75 c 4.53069,-6.7375 10.93238,-15.79678 14.22597,-20.13174 3.2936,-4.33496 5.57462,-7.70996 5.06892,-7.5 -1.87882,0.78006 -37.02525,19.25651 -41.08152,21.59652 l -4.21052,2.42898 5.18462,6.92812 c 3.68803,4.92824 5.82455,6.92812 7.4015,6.92812 1.21928,0 2.49499,0.45 2.83491,1 0.33992,0.55 1.00514,1 1.47827,1 0.47314,0 4.56717,-5.5125 9.09785,-12.25 z m -45.17338,-11.1328 c 0.92623,-1.11604 0.56402,-1.46846 -1.87756,-1.82681 -3.23676,-0.47506 -3.7475,0.0873 -1.82518,2.00961 1.54955,1.54955 2.29557,1.51272 3.70274,-0.1828 z m 113.44019,-25.47753 c 8.20947,-2.88539 26.48819,-11.23126 27.64136,-12.62074 0.7143,-0.86068 0.67308,-5.17807 -0.1331,-13.94082 l -1.16787,-12.69401 -5.45972,-4.66439 -5.45972,-4.66438 -4.03638,4.78201 c -2.22001,2.63011 -6.78697,6.7448 -10.14881,9.14376 l -6.11243,4.36174 -1.26777,8.05705 c -0.69727,4.43138 -2.37718,11.45564 -3.73313,15.60948 C 381.10941,248.6632 380,252.27289 380,252.5309 c 0,1.14973 7.52743,0.30129 12.34293,-1.39123 z m -15.17871,-30.68539 c 14.7797,-5.61332 23.17855,-12.24833 28.32664,-22.37775 2.39551,-4.71344 2.28048,-12.56644 -0.2334,-15.9335 -4.25296,-5.69638 -9.92718,-1.62934 -11.09992,7.95597 -0.81193,6.63627 -2.08498,7.04669 -8.55812,2.75905 -5.78888,-3.83439 -10.32128,-9.78941 -11.87653,-15.60431 L 372.58519,173 h -8.65548 -8.65549 l -1.16172,10.75 c -0.63894,5.9125 -1.42364,12.64188 -1.74378,14.95418 -0.55322,3.99582 -0.4405,4.23536 2.27461,4.83352 1.57117,0.34614 3.35216,0.77692 3.95776,0.95729 0.60559,0.18038 2.85559,4.6365 5,9.90251 2.1444,5.26601 3.97281,9.58085 4.06313,9.58853 0.0903,0.008 4.36532,-1.58161 9.5,-3.53175 z M 359.16251,192.1216 c -2.05357,-1.30167 -1.0262,-5.56964 1.425,-5.91986 3.00268,-0.42901 4.85118,2.11005 3.4467,4.73434 -1.17481,2.19514 -2.69517,2.56512 -4.8717,1.18552 z M 364,182.00122 c -0.825,-0.53249 -2.9625,-0.70052 -4.75,-0.3734 -2.48994,0.45567 -3.25,0.24296 -3.25,-0.90954 0,-1.75688 2.07231,-2.71828 5.85928,-2.71828 2.83164,0 7.14072,2.44803 7.14072,4.0567 0,1.22249 -3.07283,1.18838 -5,-0.0555 z M 159.09037,134.09377 C 123.14875,84.645347 93.705863,43.807847 93.661723,43.343772 93.513995,41.790599 110.35739,31.12414 124,24.131378 152.67415,9.4339326 178.98979,2.442982 213.25,0.42144255 L 225,-0.27187169 V 111.86406 C 225,173.53883 224.87372,224 224.71938,224 c -0.15434,0 -29.6874,-40.4578 -65.62901,-89.90623 z"
         id="path2" />
    </g>
  </g>
</svg>
