<?xml version="1.0" encoding="UTF-8" standalone="no"?>
<!-- Created with Inkscape (http://www.inkscape.org/) -->

<svg
   version="1.1"
   id="svg1"
   width="552"
   height="450"
   viewBox="0 0 552 450"
   sodipodi:docname="HR_12.svg"
   inkscape:version="1.3.2 (091e20e, 2023-11-25, custom)"
   xmlns:inkscape="http://www.inkscape.org/namespaces/inkscape"
   xmlns:sodipodi="http://sodipodi.sourceforge.net/DTD/sodipodi-0.dtd"
   xmlns="http://www.w3.org/2000/svg"
   xmlns:svg="http://www.w3.org/2000/svg">
  <defs
     id="defs1" />
  <sodipodi:namedview
     id="namedview1"
     pagecolor="#ffffff"
     bordercolor="#000000"
     borderopacity="0.25"
     inkscape:showpageshadow="2"
     inkscape:pageopacity="0.0"
     inkscape:pagecheckerboard="0"
     inkscape:deskcolor="#d1d1d1"
     showgrid="false"
     inkscape:zoom="1.7488889"
     inkscape:cx="275.88945"
     inkscape:cy="225"
     inkscape:window-width="1920"
     inkscape:window-height="1001"
     inkscape:window-x="-9"
     inkscape:window-y="-9"
     inkscape:window-maximized="1"
     inkscape:current-layer="g1" />
  <g
     inkscape:groupmode="layer"
     inkscape:label="Image"
     id="g1">
    <g
       id="g2"
       transform="translate(0.05796225)">
      <path
         style="fill:#fefefe"
         d="M 0,225 V 0 H 276 552 V 225 450 H 276 0 Z"
         id="path5" />
      <path
         style="fill:#cdc9c6"
         d="M 29.5,448.30736 C 18.714836,442.5101 9.8796462,429.23731 4.6659141,411 -0.19834411,393.98513 -1.5818887,364.75625 1.5856569,345.92622 5.8131078,320.79539 16.783208,300.55296 29.399385,294.6033 c 4.626078,-2.18161 12.043228,-2.49103 16.404913,-0.68436 2.986233,1.23694 4.003168,0.89277 22.31382,-7.55169 l 19.184993,-8.84769 22.153709,-26.50978 c 12.18453,-14.58038 27.92175,-33.37692 34.97159,-41.77009 l 12.81789,-15.26032 44.06459,0.26032 44.06458,0.26031 1.18531,5 c 0.65192,2.75 2.2113,9.95 3.46529,16 1.25399,6.05 2.6041,11.37048 3.00025,11.82329 0.39614,0.45281 32.58028,-21.73847 71.52031,-49.31396 38.94003,-27.57548 71.95955,-50.72927 73.37671,-51.45285 6.3492,-3.24181 8.30286,-2.99343 27.34014,3.4759 10.03008,3.40847 19.7525,7.33424 21.60536,8.72395 6.95382,5.21559 8.79414,15.33562 4.17115,22.93751 -1.15771,1.90371 -11.28184,9.82751 -25.85779,20.23799 -23.12358,16.51539 -23.99254,17.25786 -25.03282,21.38922 -1.99087,7.90646 -6.16537,12.11698 -22.6295,22.82471 l -15.34959,9.98287 -10.039,24.18569 C 346.60983,273.61644 341.0822,286.8625 339.84767,289.75 l -2.24461,5.25 -8.55153,0.0153 c -4.70334,0.008 -9.1565,0.39873 -9.89591,0.86735 -1.07843,0.68348 -0.73223,2.24676 1.75,7.9023 1.70191,3.87765 3.09438,7.51837 3.09438,8.0905 0,1.25507 -2.4493,2.65462 -30,17.14228 -11.825,6.21823 -21.725,11.57056 -22,11.89406 -0.275,0.32351 -2.699,1.62473 -5.38667,2.8916 -4.64054,2.18739 -32.30388,18.12291 -61.51913,35.43821 l -13.40579,7.94535 -42.72752,-6.73944 -42.72752,-6.73944 -15.524878,10.79092 -15.524882,10.79093 -0.663558,4.60503 c -1.104872,7.66772 -7.371215,25.19751 -11.497785,32.1645 -4.336336,7.32115 -11.390274,14.3607 -16.550535,16.5168 -4.505889,1.88268 -13.22599,1.74452 -16.971732,-0.2689 z M 208.8706,307.5 c 12.23762,-8.65016 14.28031,-10.48411 15.13285,-13.58647 C 225.87855,287.09011 236.58294,273 239.89166,273 c 0.40601,0 1.60898,2.05227 2.67327,4.5606 L 244.5,282.1212 263,269.00831 c 10.175,-7.21208 21.06559,-15.67686 24.20131,-18.8106 3.52863,-3.5264 6.60435,-5.73523 8.07096,-5.79616 1.4185,-0.0589 27.62859,-18.08759 65.29869,-44.91581 34.61097,-24.64955 66.16095,-47.10525 70.11105,-49.90155 3.95011,-2.79631 6.87511,-5.35181 6.5,-5.67891 -0.64259,-0.56035 -32.38246,-12.52662 -34.81596,-13.12599 -0.62367,-0.15361 -3.99867,1.78885 -7.5,4.31657 -3.50133,2.52772 -36.5315,26.00295 -73.40038,52.16716 l -67.03432,47.57131 0.37737,3.95713 c 0.37441,3.92603 0.33988,3.9699 -4.39381,5.58283 -2.62415,0.89414 -6.38653,1.62571 -8.36084,1.62571 -2.95409,0 -6.15379,1.83031 -18.07186,10.33759 -7.96522,5.68567 -25.59655,18.22843 -39.18074,27.8728 l -24.69853,17.53521 10.57112,12.61211 10.57112,12.61211 6.73907,-4.73491 C 191.69075,319.63071 201.0896,313 208.8706,307.5 Z m 19.85824,-64.48019 c -2.91514,-1.93597 -7.88219,-6.92628 -9.74865,-9.79429 l -1.48019,-2.27448 -8.65004,1.90369 c -4.75753,1.04703 -9.15572,2.21621 -9.77377,2.59818 -1.66765,1.03067 -13.25633,18.52976 -12.35198,18.65169 0.42668,0.0575 6.46403,0.0208 13.41632,-0.0816 8.26804,-0.12182 12.87452,0.19238 13.317,0.90833 0.4286,0.69348 3.7589,-1.01719 9.08832,-4.66836 8.23931,-5.64473 8.36612,-5.79329 6.18299,-7.24312 z m 276.21648,63.58785 c -7.35499,-2.82996 -11.66393,-5.57873 -15.82986,-10.09823 -9.09881,-9.87104 -12.0865,-22.66155 -8.24652,-35.30387 9.60351,-31.61746 52.74292,-35.08358 67.35049,-5.41141 2.97253,6.03807 3.28057,7.51087 3.28057,15.68482 0,7.82564 -0.38086,9.84556 -2.87417,15.2434 -3.39569,7.35145 -10.9997,15.01471 -18.20935,18.35125 -6.09442,2.82042 -19.95788,3.65537 -25.47116,1.53404 z M 472.75,231.8859 c -7.0125,-4.43207 -12.75,-8.45386 -12.75,-8.93731 0,-0.48345 1.35715,-2.42471 3.0159,-4.31392 l 3.0159,-3.43492 -7.63181,-8.11266 C 451.89857,200.17605 438.8093,189.23117 433.47651,186.24679 431.81783,185.31855 432.41828,182 434.24492,182 c 2.36066,0 17.20961,11.83919 25.67235,20.46879 l 9.09822,9.2776 3.05391,-3.47821 c 1.67965,-1.91301 3.26231,-3.2698 3.51703,-3.01508 0.56159,0.56158 11.41357,32.85333 11.41357,33.96282 0,1.49301 -1.55831,0.69143 -14.25,-7.33002 z m 1.62987,-5.1359 c -0.40599,-0.6875 -1.85457,-2.7369 -3.21907,-4.55423 -2.2772,-3.03292 -2.61146,-3.17197 -4.07085,-1.69339 -1.40345,1.4219 -1.414,1.71683 -0.0899,2.51435 0.825,0.49692 2.85,1.78855 4.5,2.87028 3.64825,2.39178 3.81157,2.44072 2.87987,0.86299 z m 0.29888,-10.26394 c -1.03072,-2.97716 -1.4796,-3.44741 -1.99892,-2.09409 -0.39359,1.02566 0.0497,2.70733 1.07523,4.07869 2.31243,3.09234 2.52399,2.63778 0.92369,-1.9846 z m -213.67738,-8.66651 c 0.002,-5.59257 2.71559,-19.12375 5.49493,-27.40328 3.41462,-10.17197 10.45294,-23.74154 17.17134,-33.10559 2.9328,-4.08771 5.33236,-7.56069 5.33236,-7.71772 0,-0.15703 -7.9875,1.65898 -17.75,4.03558 -10.71076,2.60745 -20.12946,4.32721 -23.75,4.33651 -10.38851,0.0267 -20.41994,-6.31096 -24.59442,-15.53823 C 220.25078,126.55865 202,50.830079 202,45.682596 202,35.957967 208.66932,25.237735 217.26126,21.151718 219.59257,20.043033 239.275,14.795591 261,9.4907356 294.62983,1.278933 301.39604,-0.08841837 306.52941,0.28991213 313.6855,0.81731725 319.16376,3.4227285 324.13982,8.6652656 330.32534,15.182034 329.44996,12.35186 344.03866,73 c 2.31526,9.625 4.34407,17.652855 4.50846,17.839678 0.1644,0.186823 4.5276,-1.676543 9.696,-4.140813 14.0772,-6.711942 27.61244,-11.510908 43.75614,-15.513892 7.97541,-1.977578 14.59674,-3.636703 14.71407,-3.686946 0.11733,-0.05024 -0.42365,-2.207852 -1.20217,-4.794688 -1.06565,-3.540873 -1.11837,-4.696263 -0.21333,-4.674709 0.66119,0.01575 9.07717,1.96978 18.70217,4.342297 l 17.5,4.313667 -14.4876,7.157703 C 429.04421,77.779034 422.17999,81 421.75856,81 c -0.42143,0 -1.30025,-1.996603 -1.95293,-4.436895 -1.39814,-5.22752 -0.0762,-5.230089 -20.59113,0.04002 -14.22871,3.655224 -27.99854,8.757554 -40.77735,15.109802 l -7.93715,3.945498 -0.24755,4.420785 c -0.51722,9.2364 -1.43869,12.85908 -4.4131,17.34961 -5.28883,7.98468 -9.80489,10.26076 -30.64956,15.44733 l -18.58316,4.62385 -6.76237,8.9851 c -14.13155,18.77646 -22.76485,40.44587 -24.10972,60.5149 -0.18635,2.78084 -0.69686,3.56566 -2.48454,3.81955 -1.94585,0.27636 -2.24982,-0.12917 -2.24863,-3 z M 432.74057,71.095492 c 1.26863,-0.731455 0.22518,-0.84718 -3.74057,-0.414852 -6.4542,0.703607 -6.2178,0.588203 -5.4269,2.649272 0.55328,1.441821 0.98631,1.463191 4.01412,0.198093 1.86666,-0.779942 4.18567,-1.874572 5.15335,-2.432513 z M 427,66 c 1.33333,-0.861666 1.33333,-0.972593 0,-0.998342 -0.825,-0.01593 -2.5125,-0.300307 -3.75,-0.631944 C 421.59587,63.926423 421,64.194869 421,65.383369 421,67.20004 424.57461,67.56741 427,66 Z M 293,178 c 0,-3.90476 -0.0833,-4 -3.5,-4 -2.83333,0 -3.5,-0.38095 -3.5,-2 0,-1.61236 0.66667,-2 3.43963,-2 3.25285,0 3.45649,-0.20364 3.75,-3.75 0.24931,-3.01222 0.75304,-3.81287 2.56037,-4.06955 2.01709,-0.28647 2.25,0.10171 2.25,3.75 V 170 h 4 c 3.33333,0 4,0.33333 4,2 0,1.66667 -0.66667,2 -4,2 h -4 v 4 c 0,3.6 -0.25,4 -2.5,4 -2.25,0 -2.5,-0.4 -2.5,-4 z m -57.02503,-4.5831 C 221.9009,159.13923 202.40874,144.62294 183.85316,134.60051 l -8.64684,-4.67042 -2.27681,3.78496 c -1.25225,2.08172 -2.413,3.96178 -2.57945,4.1779 -0.34686,0.45039 -11.1221,-8.86829 -19.3058,-16.69612 L 145.5,115.89366 164,116.54821 c 10.175,0.36 18.67835,0.82478 18.89634,1.03284 0.21798,0.20806 -0.86074,2.27787 -2.39717,4.59957 -1.53643,2.3217 -2.34799,4.36977 -1.80347,4.55128 3.99517,1.33172 25.8482,14.80123 34.83379,21.47043 14.60727,10.84166 33.88665,29.59133 32.3416,31.453 C 245.2573,180.3949 244.46145,181 244.10253,181 c -0.35892,0 -4.01632,-3.4124 -8.12756,-7.5831 z m -65.6451,-43.83414 c 0.29911,-0.77948 0.01,-1.63862 -0.64301,-1.90919 C 169.03409,127.403 166.7,126.45299 164.5,125.56244 l -4,-1.61917 4,3.51349 c 4.48117,3.93613 5.05496,4.14538 5.82987,2.126 z m 4.4206,-7.33276 c 0.29134,-0.87502 -0.88374,-1.23937 -3.91714,-1.21456 -4.26873,0.0349 -4.29606,0.0569 -1.83333,1.47777 2.8659,1.65344 5.14706,1.54903 5.75047,-0.26321 z M 152,158 c 0,-1.33333 -0.66667,-2 -2,-2 -1.33333,0 -2,-0.66667 -2,-2 0,-1.33333 0.66667,-2 2,-2 1.33333,0 2,-0.66667 2,-2 0,-1.36314 0.66667,-2 2.09362,-2 1.25262,0 2.30371,0.8034 2.61663,2 0.28766,1.1 1.14553,2 1.90638,2 0.76085,0 1.38337,0.9 1.38337,2 0,1.1 -0.62252,2 -1.38337,2 -0.76085,0 -1.61872,0.9 -1.90638,2 -0.31292,1.1966 -1.36401,2 -2.61663,2 C 152.66667,160 152,159.36314 152,158 Z M 88.093745,155.90275 C 66.961793,152.26258 49.842889,130.02694 52.430309,109.57974 54.513711,93.115556 63.472313,80.417551 77.702771,73.758316 89.713067,68.13802 106.1833,68.920839 117.6801,75.658412 130.44372,83.138391 139,98.144656 139,113.04989 c 0,26.88141 -24.39753,47.41924 -50.906255,42.85286 z M 483.89247,127.55054 c -11.98821,-3.30602 -23.55445,-13.32975 -29.13056,-25.24564 -6.1196,-13.07727 -4.81815,-30.719037 3.17894,-43.092083 23.82903,-36.868144 80.41986,-22.416093 83.78108,21.395839 1.59162,20.746134 -11.75578,40.254314 -31.81289,46.496784 -7.04646,2.19311 -18.94011,2.39659 -26.01657,0.4451 z m 20.30831,-3.66513 c 13.07357,-2.74977 23.53354,-10.87977 29.08994,-22.61015 C 536.29797,94.926514 536.5,93.807532 536.5,83.5 c 0,-9.857233 -0.28007,-11.59763 -2.69589,-16.752644 -1.48273,-3.163954 -5.04248,-8.233821 -7.91054,-11.266371 -23.24045,-24.57335 -64.40207,-11.749652 -70.15875,21.857609 -4.72173,27.565266 21.04721,52.313816 48.46596,46.546816 z m -16.94976,-20.70555 c -12.23695,-5.323922 -22.24945,-9.950813 -22.25,-10.281977 -0.003,-1.616078 4.92822,-7.60748 7.92066,-9.624086 5.23217,-3.525957 11.1551,-3.064559 22.20987,1.730157 5.07736,2.202175 10.26908,4.683756 11.53715,5.514625 3.07592,2.015422 6.3313,8.592896 6.3313,12.792361 0,3.67498 -1.79337,9.73232 -2.84783,9.61892 -0.35869,-0.0386 -10.66421,-4.42607 -22.90115,-9.75 z M 501,79.337929 c -6.1557,-1.986943 -9,-5.688176 -9,-11.711544 0,-7.252967 8.15889,-12.460066 15.05056,-9.605443 6.30166,2.610232 8.74807,9.60021 5.53475,15.81408 -1.9269,3.726219 -8.06179,6.640231 -11.58531,5.502907 z m -66,21.278701 c 0,-0.760851 -0.9,-1.618723 -2,-1.906379 C 430.35994,98.019861 430.26041,94 432.88337,94 c 1.04236,0 2.11691,-0.893085 2.40638,-2 0.28766,-1.1 1.24014,-2 2.11663,-2 0.92695,0 1.59362,0.83667 1.59362,2 0,1.333333 0.66667,2 2,2 1.46667,0 2,0.666667 2,2.5 0,1.833333 -0.53333,2.5 -2,2.5 -1.11111,0 -2,0.666667 -2,1.5 0,0.83333 -0.88889,1.5 -2,1.5 -1.1,0 -2,-0.62252 -2,-1.38337 z M 471,27.5 c 0,-3.416667 -0.0952,-3.5 -4,-3.5 -3.6,0 -4,-0.25 -4,-2.5 0,-2.25 0.4,-2.5 4,-2.5 h 4 v -4 c 0,-3.333333 0.33333,-4 2,-4 1.66667,0 2,0.666667 2,4 v 4 h 4 c 3.6,0 4,0.25 4,2.5 0,2.25 -0.4,2.5 -4,2.5 -3.90476,0 -4,0.08333 -4,3.5 0,2.833333 -0.38095,3.5 -2,3.5 -1.61905,0 -2,-0.666667 -2,-3.5 z"
         id="path4" />
      <path
         style="fill:#63deab"
         d="M 29.479723,447.64267 C 5.0743675,436.27782 -7.2114365,380.56901 4.503146,334.38876 c 4.6851653,-18.46947 14.779731,-34.44274 24.84632,-39.31589 4.935694,-2.38933 12.892047,-2.69895 16.599145,-0.64596 2.388863,1.32296 2.242458,1.44997 -6,5.20528 -16.831085,7.66834 -16.036635,7.03953 -20.67442,16.36386 -6.808995,13.68958 -8.999069,28.69118 -6.161439,42.20473 2.664955,12.69122 11.84176,27.79731 23.658483,38.9446 C 43.069236,403.0866 52.010245,410 53.395937,410 c 0.294573,0 5.07564,-3.20035 10.624595,-7.1119 5.548954,-3.91154 10.276896,-6.924 10.506538,-6.69436 0.692642,0.69264 -3.238389,15.99365 -5.980886,23.27979 -7.092669,18.84349 -18.537976,30.45966 -30.046184,30.49474 -2.2,0.007 -6.259124,-1.03982 -9.020277,-2.3256 z M 181.80956,343.65052 c -2.57975,-0.7211 -6.30228,-2.39997 -8.2723,-3.73081 -4.32822,-2.92391 -20.6974,-21.90013 -21.83479,-25.31231 -0.20092,-0.60274 -2.62052,0.93175 -5.3769,3.40998 -5.07289,4.56096 -14.95862,11.45383 -23.49811,16.38415 -4.3455,2.50891 -4.74159,2.57433 -5.65915,0.93474 -0.84342,-1.50711 0.27018,-2.5193 7.67254,-6.97389 4.76253,-2.866 12.47035,-8.28248 17.12849,-12.03664 6.96415,-5.61266 8.62764,-7.50029 9.36011,-10.62129 0.99849,-4.25451 4.89941,-8.66129 11.84392,-13.37983 5.17374,-3.51536 12.70692,-15.33685 18.84626,-29.57462 3.07525,-7.13182 4.9862,-9.16761 6.42309,-6.84268 0.6554,1.06046 -5.21085,15.13451 -9.01126,21.61942 -1.44183,2.46029 -2.3348,4.47326 -1.98439,4.47326 0.35041,0 12.67456,-8.50549 27.38699,-18.9011 22.54743,-15.9317 27.17531,-18.81977 29.4579,-18.38342 1.48942,0.28472 2.70804,0.84462 2.70804,1.24421 0,0.3996 -16.5375,12.47064 -36.75,26.82454 -20.2125,14.3539 -37.62465,26.74469 -38.69367,27.53509 -1.85266,1.36979 -1.48835,1.97672 7.78012,12.96143 5.34808,6.3384 10.3646,12.05618 11.14781,12.70619 1.15309,0.95698 5.09522,-1.4335 20.71988,-12.56435 10.61272,-7.5604 19.74586,-14.08302 20.29586,-14.49473 0.65316,-0.48892 1.05836,4.23707 1.16826,13.62588 l 0.16826,14.37442 -9.93757,7.09502 c -5.46566,3.90225 -11.42835,7.7179 -13.25042,8.47921 -5.08001,2.12256 -12.61745,2.60768 -17.83897,1.14813 z M 267.65593,341.25 c -1.5965,-2.59117 -15.80528,-38.21013 -16.05615,-40.25 -0.1691,-1.375 -1.72323,-5.80962 -3.45362,-9.85471 C 246.41577,287.1002 245,283.43355 245,282.99717 245,282.24841 282.53094,255 283.56225,255 c 0.26612,0 -0.18439,1.01987 -1.00113,2.26637 -3.07454,4.69234 -4.83509,11.54654 -5.4383,21.17244 l -0.62282,9.93881 -10.16941,7.31925 -10.1694,7.31925 7.4194,18.11447 c 4.08068,9.96296 7.41941,18.73433 7.41941,19.49194 0,1.44348 -2.54685,1.92137 -3.34407,0.62747 z M 315.08,294.7309 c -0.47079,-1.227 -3.38139,-8.51489 -6.46799,-16.19533 C 305.5254,270.85514 303,264.03251 303,263.37419 c 0,-0.65833 -1.54118,-4.7977 -3.42485,-9.1986 -3.17203,-7.41098 -3.30121,-8.1076 -1.75,-9.43708 1.29197,-1.10729 97.05651,-69.38806 133.92485,-95.48932 3.4375,-2.43361 6.25,-4.7276 6.25,-5.09776 0,-0.80585 -33.8467,-13.55231 -36,-13.55738 -0.825,-0.002 -24,15.98913 -51.5,35.53573 -94.48111,67.15579 -95.74114,68.02908 -96.73018,67.04004 -0.52656,-0.52656 -0.80268,-1.74007 -0.6136,-2.6967 0.28369,-1.43529 56.73754,-42.02924 131.73033,-94.72258 18.79896,-13.209 18.23864,-13.14368 41.8276,-4.87658 9.46778,3.31812 18.27016,6.72488 19.56084,7.57056 5.79911,3.79973 8.60141,15.04842 5.32002,21.35514 -2.45458,4.71764 -1.21257,3.77445 -69.09501,52.47144 l -17,12.19533 -8.5,0.65062 c -17.61942,1.34867 -25.82233,6.77756 -37.62839,24.90342 -4.47062,6.86374 -8.87452,13.28343 -9.78644,14.26597 -1.55422,1.67457 -1.31135,2.64745 3.87839,15.53598 3.04504,7.56224 5.53644,14.2477 5.53644,14.85657 0,2.26927 -3.0537,2.30971 -3.92,0.0519 z m 192.67,-6.84445 C 497.9875,282.99289 490,278.41666 490,277.71704 c 0,-2.1038 2.93738,-5.6333 6.01104,-7.22275 4.93666,-2.55285 10.2961,-1.86618 18.76116,2.40374 8.70857,4.39275 11.84028,7.26398 13.23776,12.13669 0.94615,3.29904 -0.16615,10.34139 -1.78713,11.31497 -0.39756,0.23878 -8.71033,-3.56968 -18.47283,-8.46324 z m 7.70455,-22.341 c -3.47172,-3.47172 -3.3891,-9.33817 0.18181,-12.90909 8.12465,-8.12464 20.725,4.2866 12.91139,12.71762 -3.35103,3.61582 -9.5778,3.70688 -13.0932,0.19147 z M 474,232.36478 c -6.325,-4.0955 -12.12957,-7.82093 -12.89905,-8.27874 -1.11445,-0.66304 -0.73079,-1.66393 1.88601,-4.92018 l 3.28505,-4.08782 -5.24183,-5.78902 c -6.73318,-7.43605 -15.63808,-15.26914 -23.18373,-20.39329 -4.92534,-3.34474 -5.75467,-4.3014 -4.76384,-5.49527 1.04048,-1.2537 1.54587,-1.22083 3.80853,0.24767 8.23534,5.34486 14.62884,10.68292 22.92004,19.13637 l 9.31117,9.4934 2.84128,-3.38895 c 1.5627,-1.86392 3.06345,-3.16395 3.33499,-2.88895 0.92229,0.93403 11.50509,34.00055 10.85133,33.90557 -0.35747,-0.0519 -5.82495,-3.4453 -12.14995,-7.54079 z m -1.07234,-8.56867 c -1.82239,-2.36286 -3.44077,-4.47274 -3.59639,-4.68861 -0.4124,-0.57209 -3.33127,1.99552 -3.33127,2.93039 0,0.88448 9.28665,6.88356 9.87055,6.37627 0.20381,-0.17706 -1.12049,-2.25518 -2.94289,-4.61805 z m 2.49589,-6.69556 c -1.32136,-3.30243 -1.93677,-3.9195 -3.01581,-3.02398 -1.11543,0.92572 -0.89253,1.73235 1.25774,4.55149 3.29125,4.31506 3.88826,3.79634 1.75807,-1.52751 z m -213.79372,-6.89049 c -0.80984,-1.31034 1.3046,-16.20694 3.4364,-24.21006 2.65035,-9.94982 12.37929,-29.67092 19.23974,-39 3.03346,-4.125 5.20058,-7.61833 4.81583,-7.76296 -0.38476,-0.14463 -8.9166,1.76787 -18.95967,4.25 C 260.11907,145.96917 249.97923,148 247.62915,148 c -10.03596,0 -20.6009,-6.80748 -24.38491,-15.71232 -1.63893,-3.85687 -18.31229,-70.529045 -20.76103,-83.01765 -0.92542,-4.719653 1.17628,-13.341541 4.54829,-18.658648 4.66261,-7.352174 9.79957,-9.916579 29.31778,-14.635642 9.4329,-2.280661 28.17046,-6.8519481 41.63903,-10.1584162 20.14567,-4.94566435 25.35703,-5.89651937 29.3871,-5.3619117 C 317.124,1.7486087 325.46256,7.868591 329.24879,16.509104 330.66491,19.740833 348,88.770285 348,91.17766 c 0,0.377201 4.3875,-1.365324 9.75,-3.872276 15.27867,-7.142734 26.50251,-11.151893 43.21429,-15.436166 8.50536,-2.180454 15.66496,-4.165131 15.91022,-4.410393 0.24526,-0.245262 -0.10736,-2.292642 -0.7836,-4.549734 -0.67624,-2.257092 -1.08584,-4.247105 -0.91022,-4.42225 0.47716,-0.475865 34.7965,7.932195 34.74833,8.513159 -0.0334,0.402284 -24.93391,12.722284 -27.87239,13.790373 -0.43938,0.159705 -1.31334,-1.752795 -1.94215,-4.25 C 419.30263,73.316209 418.46338,72 417.21942,72 413.9764,72 388.57585,78.799803 380,81.963751 c -4.675,1.72478 -13.45931,5.512302 -19.52068,8.416714 l -11.02068,5.280749 0.36499,4.589076 c 0.82936,10.42791 -5.82983,22.17689 -15.08489,26.61466 C 332.40743,127.9828 323.3,130.5553 314.5,132.58161 l -16,3.68419 -4.41491,4.6171 c -14.24459,14.89696 -26.28216,41.56753 -28.6003,63.3671 -0.48644,4.5745 -1.14466,6.75 -2.04227,6.75 -0.72847,0 -1.54418,-0.35547 -1.81269,-0.78994 z M 430.12176,72.557606 c 5.02517,-2.282056 5.17309,-2.446176 2.25324,-2.5 C 426.56295,69.950467 423,71.116226 423,73.125 c 0,2.420168 0.65857,2.367699 7.12176,-0.567394 z M 430,66.19748 c 0,-0.441386 -2.25,-1.263427 -5,-1.826758 -2.75,-0.563331 -5,-0.914001 -5,-0.779267 C 420,65.940915 421.74217,67 425.60699,67 428.02314,67 430,66.638866 430,66.19748 Z M 294,178 v -4 h -4 c -3.33333,0 -4,-0.33333 -4,-2 0,-1.66667 0.66667,-2 4,-2 h 4 v -4.07332 c 0,-3.33903 0.31547,-4.01354 1.75,-3.74169 1.22302,0.23178 1.84346,1.45838 2.06037,4.07333 0.29337,3.53688 0.49863,3.74168 3.75,3.74168 2.77296,0 3.43963,0.38764 3.43963,2 0,1.61905 -0.66667,2 -3.5,2 -3.41667,0 -3.5,0.0952 -3.5,4 0,3.33333 -0.33333,4 -2,4 -1.66667,0 -2,-0.66667 -2,-4 z m -58.6894,-5.5419 c -14.47653,-14.54934 -32.39242,-27.95035 -50.72061,-37.93877 l -8.91001,-4.85574 -2.33502,2.9182 c -1.28427,1.60502 -2.33726,3.25571 -2.33999,3.66821 -0.0134,2.02048 -3.0263,-0.0824 -13.52529,-9.44005 -6.28811,-5.60453 -11.31236,-10.3106 -11.16502,-10.45794 0.54534,-0.54535 34.59649,1.2258 35.20168,1.83099 0.34542,0.34542 -0.47738,2.37913 -1.82844,4.51934 l -2.45647,3.8913 7.63429,3.91615 c 16.86475,8.65109 41.45518,26.95937 55.60078,41.39636 5.1567,5.26293 5.76746,6.27218 4.5,7.43598 -1.25524,1.15259 -2.64623,0.1609 -9.6559,-6.88403 z m -64.88481,-42.12532 c 0.82122,-2.14006 0.14012,-2.7527 -5.92579,-5.33015 l -5,-2.12454 4.45821,4.56095 c 4.93304,5.04674 5.5376,5.31723 6.46758,2.89374 z M 175,123 c 1.00948,-1.88623 0.76972,-1.99578 -4.21482,-1.92584 l -5.28518,0.0742 4,1.85167 c 2.2,1.01842 4.09667,1.88505 4.21482,1.92584 C 173.83297,124.96663 174.4113,124.1 175,123 Z m -22.70917,35.00413 C 152.00258,156.90186 151.14422,156 150.38337,156 149.62252,156 149,155.1 149,154 c 0,-1.1 0.62252,-2 1.38337,-2 0.76085,0 1.61872,-0.9 1.90638,-2 0.28766,-1.1 1.24014,-2 2.11663,-2 0.92695,0 1.59362,0.83667 1.59362,2 0,1.33333 0.66667,2 2,2 1.33333,0 2,0.66667 2,2 0,1.33333 -0.66667,2 -2,2 -1.1,0 -2,0.62686 -2,1.39301 0,2.35519 -3.11872,2.86902 -3.70917,0.61112 z M 77.934843,138.32863 C 75.808029,132.73468 78.405648,124.18588 83.4341,120.2305 86.854568,117.53996 104.5735,112 109.75842,112 c 2.44826,0 5.22638,0.86298 7.3199,2.2738 3.90094,2.62884 8.12252,8.44481 7.70467,10.61454 -0.19184,0.99614 -7.83867,3.87415 -23.10004,8.69409 l -22.813263,7.20502 z M 485.26455,127.45841 c -24.43863,-6.58162 -38.97138,-30.967466 -32.73164,-54.923448 5.85175,-22.466404 28.48608,-37.56366 50.50253,-33.685539 28.19582,4.966597 45.08919,33.066914 35.92459,59.756728 -7.52705,21.920799 -31.53416,34.820569 -53.69548,28.852259 z m 27.97608,-6.19024 c 17.17919,-8.03911 26.94045,-25.890002 23.96758,-43.830675 -3.7999,-22.931699 -25.01121,-38.450591 -47.32462,-34.624264 -36.37295,6.237267 -47.4175,52.087597 -17.89115,74.273269 11.46084,8.61151 28.1634,10.30478 41.24819,4.18167 z M 487.5,102.85781 c -11.55,-5.002444 -21.21928,-9.298683 -21.48729,-9.547199 -1.16869,-1.083701 4.07867,-8.007603 7.61209,-10.044161 5.85568,-3.375037 10.20026,-2.907721 22.02109,2.368657 11.42139,5.098081 15.65369,8.817788 16.76341,14.733133 0.78873,4.20425 -0.93993,11.64233 -2.69784,11.60834 -0.6663,-0.0129 -10.66146,-4.11633 -22.21146,-9.11877 z m 8.61073,-26.418091 c -6.02269,-5.067762 -4.86884,-14.428496 2.19152,-17.778854 11.31139,-5.36761 21.15153,9.730853 11.58702,17.778854 C 507.77867,78.215673 505.66818,79 503,79 c -2.66818,0 -4.77867,-0.784327 -6.88927,-2.560281 z M 85.110071,106.60449 c -5.761837,-3.19354 -6.85833,-11.616295 -2.1921,-16.838713 7.569752,-8.472024 21.638219,-0.04115 18.053959,10.819273 -2.15678,6.53511 -9.739625,9.41274 -15.861859,6.01944 z M 435,100 c 0,-1.111111 -0.66667,-2 -1.5,-2 -0.85872,0 -1.5,-0.900777 -1.5,-2.106989 0,-1.462036 0.45915,-1.930795 1.5,-1.531385 1.02029,0.391522 1.5,-0.05397 1.5,-1.393011 0,-2.661942 3.59859,-2.611622 4.29726,0.06009 0.29178,1.115788 1.10504,1.903288 1.80724,1.75 0.70219,-0.153287 1.44894,0.508796 1.65943,1.471296 0.26835,1.227023 -0.23688,1.75 -1.69061,1.75 C 439.66667,98 439,98.64309 439,100 c 0,1.33333 -0.66667,2 -2,2 -1.33333,0 -2,-0.66667 -2,-2 z m 36,-73 v -4 h -4.07332 c -3.34471,0 -4.01134,-0.31303 -3.72677,-1.75 0.25579,-1.291688 1.32274,-1.75 4.07398,-1.75 3.64069,0 3.72741,-0.08725 3.72677,-3.75 -5.4e-4,-3.044656 0.36417,-3.75 1.93897,-3.75 1.51454,0 2.00766,0.811766 2.25,3.703914 0.29268,3.492793 0.50882,3.706541 3.79198,3.75 2.49587,0.03304 3.57835,0.541559 3.82332,1.796086 0.28044,1.436178 -0.38874,1.75 -3.73161,1.75 H 475 v 4 c 0,3.333333 -0.33333,4 -2,4 -1.66667,0 -2,-0.666667 -2,-4 z"
         id="path3" />
      <path
         style="fill:#151619"
         d="M 31.747969,448.57325 C 23.41026,445.59781 17.384808,438.93666 10.876704,425.5 -6.5450998,389.53087 -2.1080339,328.0227 19.707509,303.08426 c 7.526606,-8.60404 17.814656,-12.12014 25.65951,-8.76952 2.830282,1.20884 2.712145,1.2969 -9.219247,6.87168 -10.989695,5.13478 -12.356504,6.07326 -15.06479,10.34378 -5.466746,8.62017 -8.255215,18.64299 -8.820511,31.70427 -0.461108,10.65399 -0.269255,12.49553 2.083618,20 1.425318,4.54604 4.293033,11.19053 6.372699,14.76553 4.294903,7.38305 23.684304,27.4474 29.407271,30.43095 l 3.626058,1.89036 10.235854,-7.21541 c 5.62972,-3.96847 10.357572,-7.07827 10.506337,-6.91065 0.148766,0.16761 -0.740242,4.48173 -1.975572,9.58693 -4.152065,17.15908 -10.465262,29.38806 -19.248137,37.28462 -7.281041,6.54628 -13.878763,8.23427 -21.52263,5.50645 z M 177.5,341.60753 c -2.75,-1.30511 -6.84769,-4.33821 -9.10598,-6.74023 -5.41092,-5.75528 -14.88348,-17.1326 -16.15293,-19.40098 -0.90334,-1.61418 -1.77084,-1.16666 -8.45323,4.36082 C 136.04982,326.22783 120.67363,336 118.34039,336 c -3.51128,0 -0.53301,-3.15054 7.4393,-7.86959 8.74358,-5.17559 22.84962,-16.27571 24.31094,-19.13041 0.42232,-0.825 1.71173,-3.525 2.86535,-6 1.48839,-3.19321 3.90146,-5.80811 8.30952,-9.00452 3.41661,-2.47749 7.70885,-6.75249 9.53831,-9.5 4.07825,-6.12479 11.47815,-20.64044 13.15272,-25.80038 0.86769,-2.67368 1.72665,-3.70347 2.88914,-3.46375 2.39577,0.49405 1.73418,2.76002 -4.67692,16.01865 -3.12489,6.4625 -5.58435,11.75 -5.46546,11.75 0.11888,0 12.33223,-8.55 27.14077,-19 14.80854,-10.45 27.76417,-18.99311 28.79028,-18.98469 5.7806,0.0474 2.50752,2.80881 -34.17657,28.83335 C 177.306,288.85421 160,301.46356 160,301.86943 c 0,1.15484 20.1704,24.60079 21.40156,24.87705 0.60414,0.13556 9.87344,-6.03465 20.59844,-13.71158 10.725,-7.67694 19.725,-13.97247 20,-13.99009 0.275,-0.0176 0.5,6.23311 0.5,13.89052 v 13.92255 l -9.24756,6.61886 c -12.24306,8.76287 -16.20417,10.47643 -24.25244,10.49153 -4.78787,0.009 -7.81702,-0.61285 -11.5,-2.36074 z M 267.0867,339.75 c -0.47508,-1.2375 -4.06395,-10.07492 -7.97525,-19.63872 C 255.20015,310.54749 252,302.016 252,301.15242 c 0,-0.86357 -1.62128,-5.34487 -3.60284,-9.95843 -1.98157,-4.61357 -3.21907,-8.74081 -2.75,-9.17166 C 247.11118,280.67757 282.03421,256 282.47324,256 c 0.22886,0 -0.77987,2.5875 -2.24162,5.75 -2.18886,4.7356 -2.72827,7.55586 -3.05759,15.98634 l -0.39986,10.23633 -10.13708,7.17704 c -5.5754,3.94737 -10.30223,7.30616 -10.50406,7.46397 -0.20184,0.15782 3.09367,8.62385 7.32336,18.81342 4.22968,10.18956 7.40576,18.98692 7.05796,19.54969 -1.04339,1.68824 -2.51007,1.1633 -3.42765,-1.22679 z m 47.04554,-48 c -0.98817,-2.3375 -3.93662,-9.875 -6.5521,-16.75 -2.61548,-6.875 -6.08216,-15.875 -7.70373,-20 -1.62158,-4.125 -3.04464,-7.87547 -3.16237,-8.33438 -0.11772,-0.45891 31.8286,-23.63391 70.99182,-51.5 C 406.86908,167.29953 438.92612,144.275 438.94373,144 c 0.0274,-0.42819 -33.09773,-12.95714 -36.47936,-13.79762 -0.65861,-0.1637 -34.19217,23.1259 -74.51902,51.75467 -71.25853,50.58773 -74.86719,52.92132 -74.93004,48.45453 -0.008,-0.59864 5.72219,-5.15837 12.73469,-10.13275 80.68526,-57.23481 130.83014,-92.52747 133.2266,-93.76673 4.8189,-2.49195 9.06527,-1.79605 27.16996,4.45262 17.74628,6.12498 20.73073,7.65094 24.29165,12.4204 2.92308,3.91515 2.91807,14.30065 -0.009,18.29155 -1.13883,1.55283 -20.92159,16.42049 -43.96169,33.03925 -33.32085,24.03423 -42.35044,30.10063 -44.13637,29.65239 -4.01183,-1.0069 -16.27764,1.73912 -23.1511,5.18297 -8.26054,4.13885 -13.04059,9.0974 -21.1586,21.94872 -3.47428,5.5 -7.23203,11.01585 -8.35056,12.25745 l -2.03369,2.25745 5.64641,14.1445 c 3.10553,7.77948 5.41057,14.52613 5.1223,14.99255 -1.12035,1.81277 -2.55062,0.67429 -4.27385,-3.40195 z M 507.5,287.33442 c -9.35,-4.70782 -17.18818,-8.73468 -17.41817,-8.94856 -0.95372,-0.88689 2.51824,-5.5936 5.47348,-7.42004 4.98911,-3.08345 9.41667,-2.5022 19.49462,2.55926 9.9151,4.97966 12.94996,8.37643 12.93268,14.47492 -0.0134,4.7442 -0.97916,8.01106 -2.34924,7.94706 -0.62335,-0.0291 -8.78337,-3.90481 -18.13337,-8.61264 z m 8.18709,-22.13914 c -3.70462,-3.86679 -3.61708,-8.41914 0.23599,-12.2722 C 517.91807,250.92808 519.8475,250 522,250 c 4.30191,0 9,4.69809 9,9 0,2.1525 -0.92808,4.08193 -2.92308,6.07692 -3.94243,3.94243 -8.68275,3.98772 -12.38983,0.11836 z M 474,232.01804 c -6.875,-4.38256 -12.95,-8.14699 -13.5,-8.36539 -0.55,-0.21839 0.4625,-1.93851 2.25,-3.82247 1.7875,-1.88397 3.25,-3.94537 3.25,-4.5809 0,-2.00385 -18.1934,-19.66215 -25.5,-24.75 -3.85,-2.6809 -7.16809,-4.99556 -7.37354,-5.14369 -0.20544,-0.14813 -0.0959,-0.99274 0.24335,-1.87691 0.96229,-2.50769 14.14507,7.14311 25.95152,18.99849 l 9.93599,9.97718 2.85061,-3.41457 c 1.56784,-1.87801 3.02228,-3.21774 3.2321,-2.97718 0.43105,0.49423 11.60325,33.94116 11.33375,33.93058 -0.0956,-0.004 -5.79878,-3.59257 -12.67378,-7.97514 z m -1.09279,-8.52472 -4.27311,-5.65969 -1.74426,2.31241 c -1.73559,2.30092 -1.71605,2.33042 3.93295,5.93787 3.12247,1.994 5.83028,3.50027 6.01737,3.34728 0.18709,-0.153 -1.58274,-2.82504 -3.93295,-5.93787 z m 3.69322,-2.94922 c -1.55261,-6.18607 -2.57235,-7.81229 -4.1025,-6.54238 -1.2685,1.05276 -1.09568,1.74688 1.26658,5.08733 3.20886,4.53763 3.66883,4.77363 2.83592,1.45505 z M 262.30628,202.25 c 2.22619,-28.62537 22.79614,-62.95998 52.28543,-87.2729 C 339.47511,94.461566 376.44893,76.671913 407,70.515599 c 11.66635,-2.350874 11.10806,-2.090333 10.13524,-4.729922 -0.46331,-1.257122 -1.12285,-3.447463 -1.46564,-4.867423 l -0.62325,-2.581747 16.9724,4.081747 c 9.33481,2.24496 16.97438,4.35006 16.97682,4.677999 C 449.00025,67.725605 423.40156,80 422.08435,80 c -0.42228,0 -1.30707,-1.8 -1.9662,-4 -1.44376,-4.818812 -1.61724,-4.836462 -15.37638,-1.564414 C 345.60942,88.497793 293.67363,127.38492 273.77163,172.5 c -3.82884,8.67945 -7.51396,22.11411 -8.32579,30.35289 -0.53378,5.41698 -1.07197,7.14711 -2.22327,7.14711 -1.27985,0 -1.42411,-1.22016 -0.91629,-7.75 z M 435.85119,69.549649 c -0.36401,-0.331056 -13.04625,1.286528 -13.41155,1.710606 -0.11359,0.13186 0.18083,1.263872 0.65425,2.515582 l 0.86078,2.275837 6.12385,-3.091313 c 3.36813,-1.700222 5.96583,-3.235042 5.77267,-3.410712 z M 427.58179,67 C 429.4618,67 431,66.638866 431,66.19748 c 0,-0.683608 -10.11068,-3.322153 -10.71034,-2.795034 -0.11568,0.101692 0.056,1.203194 0.38142,2.447782 0.37953,1.451324 1.11192,2.063283 2.04213,1.70633 C 423.51091,67.250451 425.70177,67 427.58179,67 Z M 294,178 v -4 h -4.07332 c -3.33903,0 -4.01354,-0.31547 -3.74169,-1.75 0.23178,-1.22302 1.45838,-1.84346 4.07333,-2.06037 3.53688,-0.29337 3.74168,-0.49863 3.74168,-3.75 0,-4.94145 2.77734,-4.6712 3.18963,0.31037 0.3045,3.67908 0.38129,3.74382 4.06037,3.42338 3.23431,-0.2817 3.75,-0.041 3.75,1.75 0,1.75606 -0.61747,2.07662 -4,2.07662 h -4 v 4 c 0,2.88889 -0.41667,4 -1.5,4 -1.08333,0 -1.5,-1.11111 -1.5,-4 z m -56.03416,-3.59401 C 229.67812,165.92394 213.61938,152.69441 203,145.60039 193.25577,139.091 177.12856,130 175.32528,130 c -0.55569,0 -1.86008,1.57787 -2.89865,3.50639 -1.03857,1.92851 -2.33989,3.35586 -2.89182,3.17188 -1.24166,-0.41389 -22.35106,-18.96526 -22.45766,-19.73625 -0.0828,-0.59905 13.21773,-0.26539 26.7191,0.67028 l 8.29625,0.57494 -2.43486,4.12296 -2.43486,4.12295 10.63861,5.89096 C 193.71263,135.56413 202.1,140.71839 206.5,143.77801 228.09055,158.7914 250.13927,180 244.15682,180 c -0.39883,0 -3.18477,-2.5173 -6.19098,-5.59401 z m -67.1822,-44.43116 c 1.15872,-1.8554 0.90645,-2.17857 -3.00945,-3.85521 -8.93894,-3.8273 -9.61681,-3.63131 -4.27419,1.23579 2.75,2.50523 5.22925,4.57513 5.50945,4.59978 0.2802,0.0246 1.07859,-0.86652 1.77419,-1.98036 z m 4.23642,-6.499 c 0.69572,-0.83829 1.08832,-1.68047 0.87244,-1.87152 -0.73726,-0.65248 -10.89251,-1.31241 -10.8874,-0.70752 0.005,0.53867 6.5461,3.76589 8.12246,4.00716 0.34515,0.0528 1.19678,-0.58982 1.8925,-1.42812 z M 152,157.5 c 0,-0.825 -0.675,-1.5 -1.5,-1.5 -0.83333,0 -1.5,-0.88889 -1.5,-2 0,-1.11111 0.66667,-2 1.5,-2 0.825,0 1.5,-0.675 1.5,-1.5 0,-0.83333 0.88889,-1.5 2,-1.5 1.1,0 2,0.62252 2,1.38337 0,0.76085 0.9,1.61872 2,1.90638 1.1,0.28766 2,1.05727 2,1.71025 0,0.65298 -0.9,1.42259 -2,1.71025 -1.1,0.28766 -2,1.14553 -2,1.90638 0,0.76085 -0.9,1.38337 -2,1.38337 -1.11111,0 -2,-0.66667 -2,-1.5 z M 78.238052,138.25 c -1.206537,-3.01989 -0.623768,-9.6146 1.152706,-13.04422 0.938486,-1.81182 3.146992,-4.18327 4.907791,-5.26987 C 88.314216,117.45779 105.46893,112 109.24236,112 c 3.80863,0 8.7853,2.22761 11.44103,5.12112 2.32836,2.53683 4.69982,7.82901 3.87696,8.65187 C 123.99702,126.33632 80.937995,140 79.726081,140 79.292213,140 78.6226,139.2125 78.238052,138.25 Z M 485,127.25001 C 467.5193,122.50793 454.74563,108.38839 451.7878,90.538468 447.8167,66.5736 465.60324,42.488033 489.70596,39.19178 c 22.13002,-3.026469 41.91851,9.156544 49.35981,30.388945 1.69536,4.837418 2.01121,7.74696 1.72811,15.919275 -0.30168,8.708815 -0.75162,10.862461 -3.48467,16.67961 -9.36337,19.92944 -31.73514,30.65163 -52.30921,25.0704 z m 27.28458,-5.14785 c 8.28949,-3.25547 16.7862,-11.44306 21.25186,-20.47871 13.00174,-26.307235 -4.94903,-57.332937 -34.33697,-59.347231 -17.28932,-1.185037 -32.69337,7.825163 -40.50467,23.692162 -3.00726,6.108608 -3.1948,7.13653 -3.1948,17.510592 0,10.319708 0.20319,11.449972 3.19313,17.761777 5.10121,10.76873 14.05595,18.54232 25.80687,22.40288 6.18726,2.03272 20.73926,1.22538 27.78458,-1.54147 z M 487.28763,102.68205 C 463.4801,92.376648 463.81653,92.724343 470.9678,85.815814 c 6.78622,-6.555858 12.28465,-6.172244 28.99856,2.023171 7.95134,3.898824 10.71531,6.739046 11.90983,12.238405 0.90186,4.15202 -0.53523,11.94877 -2.18504,11.85466 -0.65513,-0.0374 -10.73672,-4.19987 -22.40352,-9.25 z m 10.06546,-25.608394 c -3.57121,-2.177594 -5.78833,-7.491325 -4.78826,-11.475918 1.76164,-7.01895 11.52378,-9.91839 17.22953,-5.11732 5.50217,4.629776 4.61012,13.707695 -1.66592,16.953164 -4.00248,2.069765 -6.95229,1.971233 -10.77535,-0.359926 z M 247.25914,112.31895 c -1.4357,-3.57243 -0.75932,-14.696515 1.12823,-18.555409 2.07071,-4.233337 6.85303,-9.275647 10.71754,-11.300184 C 263.65451,80.079917 289.68148,74 295.33494,74 c 7.61419,0 15.10563,4.00036 19.38153,10.349558 2.86046,4.247435 5.18812,11.079189 4.13397,12.133336 -0.2143,0.214301 -15.45582,4.029796 -33.87004,8.478886 -18.41422,4.44909 -34.27012,8.33379 -35.23533,8.63268 -1.11386,0.34493 -2.02195,-0.12101 -2.48593,-1.27551 z M 83.4,104.6 C 79.548575,100.74857 78.988059,96.857559 81.566418,91.871562 86.507999,82.315598 101.03689,86.442159 100.97776,97.384859 100.92482,107.18315 90.331421,111.53142 83.4,104.6 Z M 435.28975,100 c -0.28766,-1.1 -1.14553,-2 -1.90638,-2 C 432.62252,98 432,97.325 432,96.5 c 0,-0.825 0.675,-1.5 1.5,-1.5 0.83333,0 1.5,-0.888889 1.5,-2 0,-1.333333 0.66667,-2 2,-2 1.33333,0 2,0.666667 2,2 0,1.111111 0.66667,2 1.5,2 0.825,0 1.5,0.675 1.5,1.5 0,0.825 -0.675,1.5 -1.5,1.5 -0.83333,0 -1.5,0.888889 -1.5,2 0,1.16333 -0.66667,2 -1.59362,2 -0.87649,0 -1.82897,-0.9 -2.11663,-2 z M 262.96996,63.75 C 256.98783,60.72792 254,56.082093 254,49.802457 c 0,-14.791337 16.06223,-22.065112 26.96796,-12.212434 5.14172,4.645235 6.92938,11.326567 4.55257,17.015088 -2.05646,4.921794 -5.15516,8.283917 -9.23841,10.023768 -4.56698,1.945962 -8.19453,1.706469 -13.31216,-0.878879 z M 471,27 c 0,-3.904762 -0.0833,-4 -3.5,-4 -2.44444,0 -3.5,-0.452381 -3.5,-1.5 0,-1.047619 1.05556,-1.5 3.5,-1.5 3.41667,0 3.5,-0.09524 3.5,-4 0,-3.333333 0.33333,-4 2,-4 1.66667,0 2,0.666667 2,4 v 4 h 4 c 2.88889,0 4,0.416667 4,1.5 0,1.083333 -1.11111,1.5 -4,1.5 h -4 v 4 c 0,3.333333 -0.33333,4 -2,4 -1.66667,0 -2,-0.666667 -2,-4 z"
         id="path2" />
    </g>
  </g>
</svg>
