<?xml version="1.0" encoding="UTF-8" standalone="no"?>
<!-- Created with Inkscape (http://www.inkscape.org/) -->

<svg
   version="1.1"
   id="svg1"
   width="613"
   height="450"
   viewBox="0 0 613 450"
   sodipodi:docname="HR_11.svg"
   inkscape:version="1.3.2 (091e20e, 2023-11-25, custom)"
   xmlns:inkscape="http://www.inkscape.org/namespaces/inkscape"
   xmlns:sodipodi="http://sodipodi.sourceforge.net/DTD/sodipodi-0.dtd"
   xmlns="http://www.w3.org/2000/svg"
   xmlns:svg="http://www.w3.org/2000/svg">
  <defs
     id="defs1" />
  <sodipodi:namedview
     id="namedview1"
     pagecolor="#ffffff"
     bordercolor="#000000"
     borderopacity="0.25"
     inkscape:showpageshadow="2"
     inkscape:pageopacity="0.0"
     inkscape:pagecheckerboard="0"
     inkscape:deskcolor="#d1d1d1"
     showgrid="false"
     inkscape:zoom="1.6329527"
     inkscape:cx="306.5"
     inkscape:cy="225.05245"
     inkscape:window-width="1920"
     inkscape:window-height="1001"
     inkscape:window-x="-9"
     inkscape:window-y="-9"
     inkscape:window-maximized="1"
     inkscape:current-layer="g1" />
  <g
     inkscape:groupmode="layer"
     inkscape:label="Image"
     id="g1">
    <g
       id="g4"
       transform="translate(-0.01818031)">
      <path
         style="fill:#fefefe"
         d="M 0,225 V 0 H 306.5 613 V 225 450 H 306.5 0 Z"
         id="path7" />
      <path
         style="fill:#cdc9c6"
         d="M 258.5,448.53195 C 226.96977,441.65282 202.21357,417.88032 193.90117,386.5 c -2.97424,-11.22817 -2.97164,-29.79035 0.006,-41 2.33508,-8.79138 7.85895,-21.19318 11.65829,-26.17438 1.33913,-1.7557 2.4352,-3.3347 2.43571,-3.5089 5e-4,-0.1742 -7.312,-0.15921 -16.25,0.0333 -9.10844,0.19619 -20.07496,-0.16911 -24.95156,-0.83114 -15.31728,-2.07942 -13.18722,-3.08627 -71.07183,33.59455 C 60.086003,371.19906 42.851871,381.55695 39.082986,382.65738 25.595938,386.59528 10.480276,379.37492 3.1644189,365.5 0.91560164,361.235 0.52775999,359.25051 0.52602778,352 c -0.001677,-7.01772 0.4106662,-9.27814 2.36454482,-12.96219 2.3307937,-4.39472 23.9899734,-31.28056 50.3056044,-62.44505 l 13.432244,-15.90724 -6.862134,-9.09276 C 51.965628,241.2564 40.471678,218.81838 36.657575,206.48088 24.193199,166.16231 27.439749,125.31333 46.113806,87.5 67.515964,44.162505 107.83427,13.270464 156.62189,2.8282808 166.07811,0.80433231 170.17958,0.50736974 188,0.55638187 c 17.19816,0.0473007 22.13445,0.4093917 30.64776,2.24810063 42.81336,9.2468485 78.49811,33.6276325 102.0864,69.7481655 l 5.23416,8.015021 6.3411,-6.033835 C 340.08347,67.136489 348.95364,61.815989 359.5,58.224412 L 367.5,55.5 h 94 c 88.21487,0 94.39898,0.113101 100.48291,1.837731 24.85021,7.044369 44.04163,26.98626 49.42685,51.359679 2.31603,10.48229 2.13124,29.86738 -0.37824,39.67935 -5.65915,22.12704 -21.31781,39.47843 -43.25837,47.93464 L 559.5,199.5 l -65.56615,0.29019 -65.56616,0.2902 -25.38819,25.4598 C 389.01599,239.54309 377.45826,251 377.29565,251 377.13304,251 377,239.525 377,225.5 V 200 h -3.34004 c -5.21577,0 -17.84152,-3.55806 -24.43316,-6.88551 -6.26664,-3.16339 -7.21731,-3.12372 -7.24153,0.30218 -0.0238,3.36305 -7.56439,24.82067 -11.95592,34.02184 -2.22621,4.66437 -6.89561,12.74017 -10.37644,17.94623 l -6.32878,9.46556 13.60088,13.57485 L 340.52589,282 h 56.10883 c 55.92317,0 56.14012,0.008 65.56501,2.39876 24.39706,6.18882 45.7706,23.821 55.86668,46.08743 14.43347,31.83234 8.45989,68.10989 -15.34104,93.16607 -12.10862,12.74723 -27.39795,21.36529 -43.93321,24.76362 -6.72772,1.38268 -19.57082,1.57401 -101,1.50462 -72.91444,-0.0621 -94.60273,-0.36544 -99.29216,-1.38855 z M 459,389.5 c 0,-1.32286 -11.27778,-1.5 -95.5,-1.5 -84.22222,0 -95.5,0.17714 -95.5,1.5 0,1.32286 11.27778,1.5 95.5,1.5 84.22222,0 95.5,-0.17714 95.5,-1.5 z M 39.683152,377.61179 c 3.096743,-1.09259 82.432988,-50.61623 102.116978,-63.74393 2.36507,-1.57732 5.51507,-2.87226 7,-2.87763 4.06151,-0.0147 12.43015,-4.28718 16.63648,-8.49351 2.57435,-2.57435 6.65339,-9.78749 13.14783,-23.24987 C 183.763,268.51216 188,259.34015 188,258.86462 188,258.38908 187.04502,258 185.87781,258 c -1.30305,0 -5.28573,3.08786 -10.31827,8 -4.50784,4.4 -8.95286,8 -9.87781,8 C 164.22279,274 164,272.72729 164,264.39301 c 0,-8.55717 -0.1822,-9.53707 -1.66732,-8.96718 -0.91702,0.3519 -4.22226,0.90686 -7.34499,1.23324 -4.65853,0.48692 -5.95266,1.04664 -7.20963,3.11824 -1.39792,2.3039 -1.36466,2.90301 0.38016,6.84747 2.60973,5.89973 3.4839,16.2646 1.58372,18.778 -2.30586,3.05 -3.44144,1.153 -3.96861,-6.6296 -0.31904,-4.71006 -1.29205,-8.89546 -2.76105,-11.8766 l -2.26839,-4.60343 2.72637,-4.6522 c 2.85703,-4.87515 3.43529,-5.15725 12.38562,-6.04223 5.15598,-0.5098 8.14412,-1.87513 8.14412,-3.72116 0,-0.48266 -2.5875,-0.91092 -5.75,-0.95168 -9.19849,-0.11858 -14.75,-1.2198 -14.75,-2.92588 0,-1.21567 2.27463,-1.61713 12,-2.11792 14.02042,-0.72195 21.13089,-2.32388 22.61379,-5.09469 0.57654,-1.07728 0.84112,-2.16582 0.58795,-2.41898 -0.25316,-0.25317 -7.883,0.6302 -16.9552,1.96303 l -16.4949,2.42334 -3.63091,3.87261 c -1.997,2.12994 -5.09112,6.78637 -6.87582,10.34762 -3.11467,6.21514 -3.25886,7.03098 -3.59256,20.3274 l -0.34764,13.85238 -4.15236,1.76502 c -14.35047,6.09989 -86.870452,32.21047 -88.124917,31.72909 -2.088029,-0.80125 -1.917621,-2.36971 0.391742,-3.60564 1.765239,-0.94473 69.779925,-26.4352 81.830825,-30.66847 l 5.25,-1.84423 v -8.56632 -8.56631 l -7.25,-4.08714 C 105.22833,255.68804 83.859086,247.65967 82.129063,249.5524 81.652683,250.07358 72.519701,260.85 61.833547,273.5 27.901963,313.66736 8.8196162,337.36629 6.7766322,341.87683 c -3.0218398,6.67166 -2.2471011,17.21968 1.7350941,23.6232 7.0350597,11.31262 19.5994897,16.19458 31.1714257,12.11176 z M 459,350.5 c 0,-1.32286 -11.27778,-1.5 -95.5,-1.5 -84.22222,0 -95.5,0.17714 -95.5,1.5 0,1.32286 11.27778,1.5 95.5,1.5 84.22222,0 95.5,-0.17714 95.5,-1.5 z m 32,-154.77547 c 71.8419,-0.39386 69.26342,-0.16179 83.5,-7.51517 C 584.57571,183.00512 596.53212,170.879 601.32855,161 606.76904,149.79447 608,143.64731 608,127.68425 608,112.17113 606.72104,105.48766 601.83462,95.465919 595.55572,82.588246 585.52128,72.607784 572.60169,66.390239 558.79472,59.745636 561.52906,59.894326 459,60.212736 L 366.5,60.5 l -6.86247,2.427614 c -9.38091,3.318519 -17.51013,8.437097 -24.71835,15.563965 -6.8832,6.805519 -6.82594,6.14955 -1.57204,18.008421 4.26218,9.6204 8.15635,22.78022 10.35697,35 1.76476,9.79943 2.32607,35.40342 1.02369,46.69484 l -0.7722,6.69483 4.35211,2.55051 c 6.49501,3.80633 14.92201,6.41428 24.83355,7.68539 L 382,196.26166 v 22.11083 22.11084 l 22.25,-22.2026 22.25,-22.2026 z M 361.49111,155.98561 c -0.34481,-0.55791 -0.10774,-3.51533 0.52683,-6.57204 0.89384,-4.3056 2.09189,-6.53318 5.31791,-9.88784 5.58474,-5.80742 9.55594,-6.75133 26.71156,-6.34906 13.47262,0.31591 13.88844,0.39248 18.12082,3.33671 C 417.41208,140.16123 421,146.7419 421,152.71189 V 157 h -29.44098 c -18.82707,0 -29.667,-0.3657 -30.06791,-1.01439 z M 432.00558,154.25 c 0.0176,-8.66236 6.72159,-17.97053 14.49772,-20.1293 2.19818,-0.61025 9.88842,-1.11206 17.08942,-1.11512 11.78236,-0.005 13.5338,0.22729 17.5,2.32119 6.19474,3.27044 10.11997,9.19289 10.69593,16.13818 L 492.24766,157 H 462.12383 432 Z M 503,153.48276 c 0,-7.49969 5.17584,-15.19592 12.5,-18.5869 3.26211,-1.51031 6.50027,-1.85599 17.55366,-1.8739 12.61069,-0.0204 13.91618,0.1587 18.7645,2.57471 6.52243,3.25027 10.55199,9.44029 10.63003,16.32937 L 562.5,156.5 532.75,156.76488 503,157.02976 Z M 384.30433,122.10341 c -4.55286,-2.8607 -6.471,-6.29959 -6.471,-11.60142 0,-11.502684 13.18531,-17.405855 22.10798,-9.89792 5.91973,4.98112 5.97631,14.22649 0.12139,19.83586 -3.98235,3.81533 -11.1324,4.5701 -15.75837,1.66348 z m 72.11411,0.92774 c -3.16441,-1.28014 -7.26174,-6.67893 -7.98178,-10.5171 -0.77129,-4.11134 1.79693,-9.96124 5.58679,-12.725622 8.70507,-6.349606 20.98774,-0.072 20.95807,10.711572 -0.0143,5.18159 -1.70247,8.39533 -5.89397,11.21998 -3.47868,2.34428 -8.76336,2.89121 -12.66911,1.31117 z M 525.5,122.01249 c -3.65891,-2.40797 -6.50129,-7.43833 -6.49626,-11.49689 0.005,-3.98096 3.19211,-9.05473 7.23712,-11.521002 11.53738,-7.034426 24.91954,7.029802 17.79962,18.706852 -3.74729,6.14577 -12.61834,8.20847 -18.54048,4.31104 z m -356,108.49943 c 6.6,-0.85767 12.99951,-1.77903 14.22114,-2.04747 2.14321,-0.47094 4.9551,-4.12155 3.94932,-5.12732 -0.93248,-0.93248 -30.17559,2.95858 -32.38528,4.30916 -1.21814,0.74454 -2.72804,2.31268 -3.35531,3.48476 -1.08002,2.01802 -0.96255,2.09947 2.21481,1.53566 1.84543,-0.32747 8.75532,-1.29712 15.35532,-2.15479 z m 11.15287,-13.22846 c 4.46402,-5.59763 6.49378,-9.63373 5.69186,-11.3181 -0.72429,-1.52129 -2.05666,-0.6265 -9.34473,6.27572 l -8.5,8.04999 5.36529,-0.61207 c 3.37747,-0.38531 5.89224,-1.27284 6.78758,-2.39554 z m 36.64521,-19.95567 c -2.08894,-1.78899 -4.09906,-3.26959 -4.46691,-3.29024 -0.36786,-0.0207 -3.37367,-3.39985 -6.67958,-7.50933 -5.98141,-7.43533 -14.03148,-22.05759 -16.28575,-29.58168 C 189.21551,154.77594 188.07965,153 187.34171,153 186.60377,153 186,153.14901 186,153.33113 c 0,0.18213 -1.11975,5.91963 -2.48833,12.75 C 180.57694,180.72792 180.63601,180 182.38204,180 c 0.76013,0 8.97263,6.50984 18.25,14.46631 l 16.86796,14.46632 1.79808,-4.17608 1.79808,-4.17607 z m 34.22172,-21.56426 c 12.85926,-6.56801 21.96623,-23.21885 24.07264,-44.01353 l 0.68375,-6.75 h -3.18776 C 269.20124,125 264,122.45768 264,120.55765 c 0,-2.04967 1.94009,-2.34879 5.94518,-0.9166 6.24111,2.23176 6.36829,2.11046 5.57306,-5.31531 -0.39311,-3.67085 -0.93484,-7.2478 -1.20383,-7.94878 -0.2736,-0.713 -2.54329,-1.40722 -5.15174,-1.57574 C 265.26707,104.54956 264.5,104.17097 264.5,102.5 c 0,-1.63804 0.76917,-2.05565 4.25,-2.3075 2.3375,-0.16912 4.25,-0.652803 4.25,-1.074845 0,-0.737527 -4.06899,-12.851859 -5.46781,-16.278936 -0.61356,-1.503224 -1.17063,-1.436351 -5.85513,0.702872 -10.78784,4.926369 -29.98034,8.15987 -41.92706,7.063758 -5.67975,-0.521117 -6.75,-0.3751 -6.75,0.920913 0,2.031139 -4.6354,11.122998 -7.76396,15.228188 -1.36411,1.78994 -4.70368,4.88662 -7.42126,6.88151 l -4.94106,3.62707 -5.05169,-1.63151 c -6.44878,-2.08273 -9.36321,-2.03012 -14.32203,0.25852 -7.12207,3.28705 -10.5143,8.60181 -10.48355,16.42506 0.0462,11.74318 12.08903,20.19358 23.05278,16.17599 2.43692,-0.89299 5.13531,-1.84959 5.9964,-2.12577 1.09159,-0.35011 2.71855,1.36571 5.37337,5.66686 7.14873,11.58186 18.1182,21.08218 29.03305,25.14464 7.18797,2.67533 18.26666,2.05023 25.04775,-1.41329 z M 237.45042,156.5934 c -5.59001,-2.43485 -10.47029,-10.22702 -7.53963,-12.03826 1.41942,-0.87726 27.50121,3.5706 28.30305,4.82666 0.93313,1.46173 -0.63703,2.89599 -6.61278,6.0404 -5.40566,2.84443 -9.52621,3.18548 -14.15064,1.1712 z m 10.38412,-4.46998 c 0.85645,-0.54289 -0.88289,-1.09683 -4.85511,-1.54624 -6.67703,-0.75542 -8.71175,-0.19694 -4.87461,1.33795 3.02076,1.20833 7.98446,1.31459 9.72972,0.20829 z m 0.57602,-18.4959 c -0.84499,-2.202 0.12788,-3.28521 3.56863,-3.97336 1.66145,-0.33229 3.02081,-1.24066 3.02081,-2.0186 0,-0.77795 -1.09923,-5.6267 -2.44274,-10.775 -1.8942,-7.25855 -2.1749,-9.63314 -1.25,-10.5744 0.65601,-0.66761 1.69304,-0.89261 2.30451,-0.5 1.14805,0.73713 6.38823,19.79309 6.38823,23.23085 0,3.65863 -10.37143,7.78459 -11.58944,4.61051 z m -21.72244,-7.23192 c -4.63897,-2.51479 -2.77891,-3.88689 5.39625,-3.98064 4.0786,-0.0468 8.65313,-0.43673 10.16563,-0.86658 2.34471,-0.66635 2.75,-0.48639 2.75,1.2211 0,4.43591 -12.31838,6.8752 -18.31188,3.62612 z m -9.02145,-14.06227 c -1.59653,-1.59652 -0.35426,-3.5755 3.9632,-6.31356 5.32693,-3.37824 12.39162,-4.78664 15.92798,-3.17537 4.08056,1.85923 1.97411,3.87674 -4.53959,4.3479 -4.25375,0.30769 -6.91966,1.16037 -9.74115,3.11566 -4.17775,2.89518 -4.59133,3.04449 -5.61044,2.02537 z"
         id="path6" />
      <path
         style="fill:#62deab"
         d="m 262.65975,448.96935 c -17.99002,-3.08259 -32.80257,-10.70981 -45.89823,-23.63374 -10.6479,-10.50828 -17.81793,-22.58216 -21.99393,-37.03643 -3.275,-11.33567 -3.25555,-33.32683 0.0396,-44.74259 9.25578,-32.06611 35.4175,-55.25326 68.33226,-60.56293 L 270.5,281.80629 270.28648,246.65314 270.07295,211.5 266.24032,208 c -11.59468,-10.58838 -18.22085,-15.6168 -25.75117,-19.54188 -3.4759,-1.81176 -6.02042,-3.62816 -5.65449,-4.03644 0.36594,-0.40828 0.18092,-0.46688 -0.41115,-0.13023 -0.59206,0.33666 -3.89686,6.72423 -7.344,14.1946 -4.88142,10.57865 -6.01484,13.88695 -5.12496,14.95919 1.63861,1.9744 -0.57205,3.09726 -2.73828,1.39085 -0.93287,-0.73485 -9.30384,-7.81678 -18.60215,-15.73762 -18.96996,-16.15971 -22.43361,-18.01728 -35.11412,-18.83188 -12.89407,-0.82832 -25.7318,3.43463 -34.6874,11.51845 -3.70877,3.34774 -41.208117,47.19653 -49.801427,58.23387 -1.918854,2.4646 -13.168854,15.96682 -25,30.00494 -32.400743,38.44475 -46.2705743,55.58657 -48.7556576,60.25747 -6.89882919,12.96687 -0.767496,29.9356 13.2725106,36.73225 5.838683,2.82645 14.565024,2.92355 20.654649,0.22982 2.528886,-1.11864 20.059828,-11.8429 38.957649,-23.83169 60.629976,-38.46367 67.121486,-42.41095 69.784326,-42.43366 3.79446,-0.0324 10.29297,-3.27641 14.89873,-7.43744 3.16905,-2.86304 6.23714,-8.1251 14.11299,-24.20504 C 184.47137,268.03488 189,258.61137 189,258.39443 c 0,-0.21694 -1.2375,-0.37408 -2.75,-0.34921 -2.0289,0.0334 -4.96593,2.13111 -11.20071,8 -4.64789,4.37513 -9.10083,7.95478 -9.89541,7.95478 -1.19943,0 -1.35173,-1.68725 -0.89709,-9.93807 0.54301,-9.85447 0.52952,-9.9313 -1.60459,-9.13392 -1.18371,0.44228 -4.75151,1.12326 -7.92844,1.5133 -4.61091,0.56609 -6.10497,1.21086 -7.40564,3.19594 -1.51558,2.31306 -1.50311,2.7444 0.17845,6.17476 1.10921,2.26276 1.99072,6.87623 2.28104,11.93799 0.45277,7.89401 0.38148,8.25 -1.65221,8.25 -1.95632,0 -2.12618,-0.53698 -2.13517,-6.75 -0.007,-5.02015 -0.62771,-8.07719 -2.421,-11.92879 l -2.41123,-5.17878 2.81811,-4.4437 c 2.75349,-4.3418 2.96862,-4.45982 9.38202,-5.14663 6.51531,-0.69773 12.32036,-3.64526 11.09238,-5.63217 C 164.13781,246.41397 159.40852,246 153.94098,246 144.87489,246 144,245.83439 144,244.11824 c 0,-1.71908 1.1022,-1.92286 12.75,-2.3573 7.09972,-0.2648 14.4794,-1.09273 16.65243,-1.86824 3.94075,-1.40638 6.62854,-4.19507 5.31209,-5.51152 -0.39311,-0.3931 -8.23624,0.37281 -17.42917,1.70204 l -16.71443,2.41678 -4.7913,5.95765 c -7.26278,9.03075 -8.99254,14.54365 -9.39177,29.93229 -0.18392,7.08947 -0.45893,12.98068 -0.61113,13.09157 -0.15219,0.11089 -9.72672,3.70689 -21.27672,7.99111 -11.55,4.28422 -31.782649,11.79215 -44.961443,16.68429 -22.465874,8.33962 -27.276371,9.55653 -26.309359,6.6555 0.217532,-0.6526 20.392453,-8.64856 44.833158,-17.7688 L 126.5,284.46135 l 0.0671,-11.98068 c 0.0998,-17.82011 1.95357,-21.83247 18.81803,-40.73067 7.41884,-8.3135 9.15159,-9.75 11.76071,-9.75 2.53473,0 5.24906,-2.05973 15.81371,-12 7.01457,-6.6 13.44925,-12 14.29928,-12 1.79257,0 3.74117,4.90492 3.74117,9.41709 0,1.71525 -1.14122,4.7981 -2.53605,6.85078 L 185.9279,218 h 4.03605 c 3.52374,0 4.03396,0.2856 4.0196,2.25 -0.0271,3.71042 -4.24652,10.13472 -7.71724,11.75 -2.2437,1.04422 -3.2296,2.19748 -3.24467,3.79545 -0.0311,3.3031 -4.15967,6.95871 -9.32897,8.26035 l -4.46731,1.12488 -0.44854,10.15966 c -0.24669,5.58781 -0.29927,10.34529 -0.11684,10.57216 0.18243,0.22688 3.21962,-2.36062 6.7493,-5.75 5.8755,-5.64194 6.7889,-6.1625 10.81304,-6.1625 2.41748,0 5.24926,0.62434 6.29284,1.38743 1.81098,1.32422 1.42102,2.37619 -8.55887,23.08866 -6.02705,12.5087 -12.00012,23.47823 -14.10088,25.89627 -4.19977,4.83407 -11.57827,9.15109 -17.35541,10.15431 -5.11411,0.88809 -2.5236,-0.65258 -58.013303,34.5027 -26.068556,16.51563 -49.329972,30.90554 -51.692036,31.97756 -2.923965,1.32705 -6.5288,1.9559 -11.294661,1.97032 -12.374272,0.0374 -23.5967632,-7.30634 -28.8133241,-18.85485 -2.96988477,-6.57477 -2.88235693,-17.91671 0.1872528,-24.26437 2.2121264,-4.57448 23.1991373,-30.71794 50.3396383,-62.70796 l 13.871368,-16.34993 -2.63497,-3.45463 C 48.309648,236.18447 38.310414,215.04156 32.75967,190.33788 29.718886,176.80482 29.486038,141.17362 32.352294,128 36.980436,106.72857 45.11644,87.222068 56.614723,69.829552 65.280273,56.721878 84.684964,37.046055 97.588337,28.283432 152.29282,-8.8661377 221.61886,-9.094883 276.81813,27.692053 289.48239,36.13201 309.80455,56.733512 318.55241,70 c 3.80801,5.775 7.03464,10.680596 7.17028,10.901325 0.13565,0.220729 2.5148,-1.902904 5.28701,-4.719185 6.14605,-6.243768 12.04174,-10.378889 20.26074,-14.210509 13.4351,-6.263312 9.18156,-6.047681 113.34983,-5.746215 L 559.5,56.5 l 7.3346,2.679214 c 10.58128,3.865172 17.63705,8.362076 25.63183,16.336119 8.21986,8.198549 13.53762,16.830313 17.24045,27.984667 2.40202,7.2358 2.66075,9.48064 2.70846,23.5 0.0602,17.68686 -1.13953,23.70229 -7.17989,36 -2.75655,5.61213 -5.82991,9.66495 -12.20964,16.10076 -9.26259,9.34401 -16.92818,14.19422 -28.52581,18.04898 -6.99538,2.32508 -7.0426,2.32682 -71.54818,2.62914 l -64.54817,0.30252 -24.94433,24.9593 C 389.73995,238.76832 378.17413,250 377.7575,250 377.34088,250 377,238.83163 377,225.18141 v -24.8186 l -9.12729,-1.61782 c -6.04345,-1.0712 -11.91839,-2.95707 -17.38814,-5.58165 l -8.26086,-3.96383 -0.65913,4.15024 c -0.99267,6.25036 -7.0988,23.86159 -11.61373,33.49621 -2.20168,4.69825 -6.97343,13.00414 -10.6039,18.45754 l -6.60086,9.91525 13.36306,13.39063 13.36306,13.39062 55.0139,0.0131 c 64.42884,0.0154 66.66094,0.25128 84.01389,8.87881 17.45627,8.67891 29.27086,20.37606 37.98561,37.60805 6.55831,12.96798 8.69678,22.18893 8.69678,37.5 0,14.76005 -2.04444,23.93694 -8.1368,36.52373 -8.2606,17.06637 -21.40474,30.18411 -38.54559,38.46815 -18.67104,9.02356 -10.54792,8.42456 -117,8.62758 -51.7,0.0986 -96.17811,-0.19395 -98.84025,-0.65011 z M 460,389.5 c 0,-1.32295 -11.37037,-1.5 -96.33333,-1.5 -84.96297,0 -96.33334,0.17705 -96.33334,1.5 0,1.32295 11.37037,1.5 96.33334,1.5 C 448.62963,391 460,390.82295 460,389.5 Z m -0.19037,-39.25 c -0.31818,-1.65216 -5.69831,-1.75 -96.228,-1.75 -90.56022,0 -95.90525,0.0973 -96.14782,1.75 -0.2431,1.65635 4.90649,1.75 96.228,1.75 91.35204,0 96.46691,-0.0931 96.14782,-1.75 z M 492,195.78018 557.5,195.5 l 7.3346,-2.67921 c 20.1116,-7.34645 34.63177,-22.00496 40.71833,-41.10628 3.5004,-10.98522 4.37575,-27.59616 2.09285,-39.71451 C 603.07246,87.723358 584.23942,67.539351 560.5399,61.515032 551.41784,59.196243 372.69762,59.24622 363.7296,61.570072 351.58068,64.718173 337.88853,73.256311 330.76214,82.12789 l -2.91422,3.627885 2.96177,5.872115 c 10.72654,21.26688 16.4771,52.71343 14.26722,78.0193 -0.58342,6.68095 -1.31531,12.81051 -1.62642,13.62123 -1.30587,3.40306 17.86208,11.18903 30.41885,12.35605 L 381,196.2872 v 22.59825 22.59824 l 22.75,-22.71166 22.75,-22.71166 z M 362.20413,151.552 c 0.54965,-6.6281 4.0922,-12.2262 9.74866,-15.40531 3.26177,-1.83322 6.09086,-2.30674 16.73626,-2.80122 8.46246,-0.39309 14.25801,-0.199 17.07408,0.5718 7.95145,2.17644 15.16056,11.02439 15.21491,18.67371 l 0.022,3.09097 -21.16124,0.65903 C 388.20008,156.70344 374.86936,157 370.21493,157 h -8.46259 z M 433,152.19578 c 0,-6.4284 4.26926,-13.26196 10.19839,-16.32398 3.85853,-1.99268 5.84667,-2.22925 19.30161,-2.29665 16.75374,-0.0839 18.69147,0.46208 24.297,6.84643 3.01267,3.43124 5.18614,8.93845 5.19742,13.1694 0.005,2.0349 -0.56189,2.10864 -21.15566,2.75 C 459.20008,156.70344 445.92508,157 441.33876,157 H 433 Z m 70.5912,3.95179 c -0.90264,-1.46051 0.28582,-7.86016 2.16304,-11.64757 4.04473,-8.16051 8.71473,-10.32702 24.03606,-11.15084 15.61699,-0.83972 21.01503,0.40354 26.77917,6.16768 3.38384,3.38384 4.47633,5.3868 5.42152,9.93978 0.65106,3.1361 1.03192,5.84693 0.84637,6.02408 -0.18555,0.17715 -13.43699,0.65021 -29.44765,1.05125 -21.01911,0.5265 -29.30158,0.41966 -29.79851,-0.38438 z M 385.12149,122.29009 c -10.43361,-5.13996 -8.73947,-21.09266 2.57166,-24.215811 3.50012,-0.966428 8.62291,0.0245 11.35274,2.196001 7.50188,5.96756 6.23183,17.9974 -2.32896,22.05976 -4.40468,2.09015 -7.29172,2.08021 -11.59544,-0.0399 z m 71.1482,0.22732 c -9.07118,-3.94349 -9.73107,-18.64186 -1.03872,-23.136847 6.7156,-3.472775 13.90504,-1.485514 17.81303,4.923767 3.73678,6.1285 1.37544,14.39255 -5.10566,17.8684 -4.03501,2.164 -7.26426,2.25939 -11.66865,0.34468 z m 70.80139,-0.26896 c -4.71562,-2.40456 -7.18073,-6.1103 -7.24675,-10.89387 -0.11047,-8.00434 5.01486,-13.487508 12.71611,-13.603932 7.10676,-0.107436 12.19592,4.538582 13.10213,11.961252 0.56301,4.61161 -2.10796,9.38187 -6.88343,12.2935 -4.01741,2.44945 -7.23002,2.51625 -11.68806,0.24305 z M 186.75,226.39382 c 1.2375,-1.37794 2.25,-2.93883 2.25,-3.46864 0,-0.5298 -1.0125,-0.74411 -2.25,-0.47624 -1.2375,0.26787 -8.55,1.2096 -16.25,2.09272 -13.33815,1.52976 -14.15364,1.75329 -17.25,4.72817 -1.7875,1.71738 -3.25,3.39741 -3.25,3.7334 0,0.33599 7.7625,-0.44998 17.25,-1.74659 15.6101,-2.13336 17.4639,-2.59565 19.5,-4.86282 z m -6.82921,-7.7703 c 4.1251,-3.262 9.04403,-14.62629 6.32921,-14.62246 -0.4125,5.8e-4 -4.8,3.76748 -9.75,8.3709 l -9,8.36984 5.5,-0.49738 c 3.025,-0.27356 6.13936,-1.00297 6.92079,-1.6209 z m 39.77395,-19.62055 c -11.20613,-7.64372 -22.62771,-23.78901 -29.18339,-41.25297 -1.90158,-5.06571 -4.14647,-6.19195 -4.98314,-2.5 -2.14644,9.47157 -4.52711,21.42428 -4.52189,22.70318 0.003,0.85075 1.24098,2.27754 2.75,3.17065 1.50903,0.8931 9.68975,7.56937 18.1794,14.83616 l 15.43572,13.21233 2.25902,-4.33616 2.25902,-4.33616 z m 30.13476,-22.09273 c 2.38123,-1.02746 6.05439,-3.23425 8.16258,-4.90397 8.75815,-6.93658 16.5309,-23.96608 17.65936,-38.69029 l 0.59902,-7.81598 -5.31363,-1.24582 c -2.92249,-0.6852 -5.66011,-1.80643 -6.08359,-2.49164 -1.31714,-2.13119 0.8017,-3.07848 4.22022,-1.88678 6.90681,2.40773 7.29617,2.02524 6.5787,-6.46248 -0.35272,-4.17269 -0.89531,-7.99769 -1.20575,-8.5 C 274.13596,104.41098 271.91008,104 269.5,104 c -2.41008,0 -4.64613,-0.42742 -4.96899,-0.94983 -0.77853,-1.25968 2.68675,-3.05017 5.90325,-3.05017 1.80079,0 2.54704,-0.521745 2.50302,-1.75 -0.10977,-3.062639 -5.47842,-16.759184 -6.47747,-16.525388 -0.5279,0.123537 -4.78481,1.563449 -9.45981,3.199804 -10.95027,3.832841 -18.85301,5.058686 -32.67245,5.06803 L 213.1551,90 l -1.19191,3.75 c -1.74791,5.499281 -6.45753,12.52917 -11.52013,17.19572 -6.29072,5.79858 -8.45109,6.61861 -12.25479,4.65164 -6.77913,-3.50563 -17.68579,-0.92051 -22.0653,5.22995 -1.12501,1.57992 -2.46529,4.7411 -2.97841,7.02483 C 159.80694,142.7068 175.07913,154.84235 188.5,148 c 2.15759,-1.1 4.01528,-2 4.1282,-2 0.11292,0 2.65794,3.50017 5.6556,7.77814 15.10754,21.56007 34.75479,30.37714 51.5457,23.1321 z M 235.29855,155.04048 C 232.32434,153.22701 229,148.48169 229,146.04966 c 0,-1.45995 5.69568,-1.19811 17.99645,0.82732 12.47092,2.05345 13.58495,3.40019 6.15689,7.44305 -6.08717,3.31305 -13.1363,3.59749 -17.85479,0.72045 z m 12.20145,-2.41706 3,-1.28638 -5.5,-0.72443 c -3.025,-0.39844 -6.57962,-0.9899 -7.89915,-1.31436 -3.39646,-0.83517 -1.76888,1.50405 2.2692,3.26136 3.84056,1.67135 4.37122,1.67552 8.12995,0.0638 z M 248.5,133 c -1.04652,-1.69331 0.47795,-3 3.5,-3 1.58508,0 3.13548,-0.4102 3.44534,-0.91156 0.30986,-0.50135 -0.56245,-5.11385 -1.93846,-10.25 -2.97538,-11.10601 -3.10947,-13.1027 -0.85033,-12.66176 1.19605,0.23344 2.44923,3.36372 4.50801,11.26041 1.5683,6.01541 2.6142,11.68462 2.32422,12.59825 -0.98261,3.09593 -9.48926,5.39094 -10.98878,2.96466 z m -20.25,-6.49087 c -3.79859,-1.65102 -4.65518,-5.1518 -1,-4.08684 5.65161,1.64663 8.56224,1.683 12.22463,0.15276 2.53506,-1.05922 4.21928,-1.28114 4.86004,-0.64038 1.48125,1.48125 -0.98169,3.87292 -5.19291,5.04264 -4.78833,1.33001 -6.97038,1.23622 -10.89176,-0.46818 z m -10.78894,-14.57214 c -1.86067,-3.01062 8.54874,-9.13807 15.70734,-9.24606 5.32782,-0.0804 6.37015,0.46326 5.45596,2.84558 -0.46481,1.21128 -1.36347,1.46007 -3.54404,0.98113 -3.12384,-0.68611 -12.03253,2.51492 -14.17128,5.09196 -1.37959,1.66231 -2.55404,1.77382 -3.44798,0.32739 z M 101.12756,129.25 c 1.24387,-1.58606 1.2085,-1.62143 -0.37756,-0.37756 -0.9625,0.75485 -1.75,1.54235 -1.75,1.75 0,0.82304 0.821186,0.29331 2.12756,-1.37244 z"
         id="path5" />
      <path
         style="fill:#080816"
         d="m 265,449.02356 c -31.62545,-4.35739 -57.92994,-25.72301 -68.07607,-55.29427 -10.47151,-30.51957 -3.68598,-62.18267 18.28217,-85.30941 12.14543,-12.78598 28.58365,-21.84161 44.39328,-24.45577 3.79534,-0.62756 7.91312,-1.3348 9.15062,-1.57162 L 271,281.9619 v -34.22552 -34.22551 l 34.25,34.20262 34.25,34.20262 57.5,0.33767 c 55.85348,0.328 57.72908,0.40145 65.5,2.56484 28.27309,7.8711 49.1726,27.52358 58.68284,55.18138 3.15029,9.1617 3.26751,10.06978 3.29189,25.5 0.0222,14.0311 -0.26335,16.92292 -2.32017,23.5 -9.22363,29.49436 -30.23764,49.89328 -60.06117,58.30318 -7.48876,2.11175 -8.86107,2.14357 -99.59339,2.30972 -50.6,0.0926 -94.475,-0.17255 -97.5,-0.58934 z M 460,390 c 0,-1.98618 -0.66667,-2 -96.5,-2 -79.75,0 -96.5,0.23143 -96.5,1.33333 0,0.73334 0.3,1.63334 0.66667,2 C 268.03333,391.7 311.45833,392 364.16667,392 459.33333,392 460,391.98609 460,390 Z m 0,-40 c 0,-1.98618 -0.66667,-2 -96.5,-2 -95.83333,0 -96.5,0.0138 -96.5,2 0,1.98618 0.66667,2 96.5,2 95.83333,0 96.5,-0.0138 96.5,-2 z M 21.702676,381.55768 C 4.4946014,375.41941 -4.253872,355.76048 3.2089806,340 6.189271,333.70605 39.049463,293.51585 94.702438,228.0974 98.166097,224.02597 101,220.35869 101,219.94789 c 0,-0.4108 -1.636316,-3.15463 -3.636258,-6.0974 C 79.046433,186.8979 81.857139,151.13946 104.2408,126.35895 l 5.2592,-5.82236 -4.23685,3.30532 C 94.433182,132.29076 84.390452,148.62515 81.49534,162.5 c -2.843399,13.62702 -1.377785,29.51488 3.862595,41.87212 2.036685,4.80267 2.049447,5.62788 0.08704,5.62788 -2.100179,0 -5.935838,-8.92688 -7.880105,-18.33968 -6.545016,-31.68645 9.158316,-64.03435 38.32176,-78.94047 4.98236,-2.5466 11.72081,-5.18 14.97433,-5.852 l 5.9155,-1.22183 0.68663,-7.073011 c 1.5726,-16.199269 5.89135,-27.151103 14.49793,-36.765041 8.18733,-9.145609 24.74117,-18.897092 36.17099,-21.307494 1.8524,-0.390646 5.9627,-1.570274 9.13402,-2.621397 6.75911,-2.240285 17.98193,-2.602491 25.23397,-0.814403 5.35072,1.319292 12.68931,4.70869 18.45189,8.522188 3.43975,2.276317 3.69311,2.300944 8.04982,0.782453 9.46905,-3.300349 23.33738,-0.400547 31.23116,6.530289 10.79233,9.475786 10.2582,26.986163 -1.10164,36.115176 l -3.89249,3.128096 1.37323,4.56291 c 0.75528,2.5096 2.14708,5.128754 3.09288,5.820344 1.41556,1.03508 1.49496,1.52819 0.44901,2.78847 -0.9034,1.08854 -1.07192,3.28744 -0.58308,7.60822 0.70748,6.25333 1.16383,6.94257 3.22922,4.87718 0.93333,-0.93333 1.47778,-0.91506 2.45,0.0823 1.00545,1.03139 0.6424,1.80416 -1.85573,3.95 -2.81112,2.4147 -3.1647,3.37917 -3.72751,10.16775 -1.35396,16.33129 -7.38571,30.88888 -16.5918,40.04421 -7.00739,6.96874 -13.50738,10.11515 -22.46178,10.87296 l -6.88683,0.58283 -6.35734,13.84916 c -4.71291,10.26684 -6.19301,14.5039 -5.72204,16.38038 0.40273,1.60461 0.24411,2.39197 -0.43329,2.15084 -0.58773,-0.20921 -9.37047,-7.44431 -19.51721,-16.07801 C 179.36969,180.80489 176.6843,179.52962 160.5,180.2385 c -12.16399,0.53279 -19.09956,2.9527 -27.54382,9.61041 C 128.03748,193.72696 82,246.66302 82,248.44072 c 0,0.29399 -8.879856,11.00259 -19.733013,23.7969 -30.490429,35.94382 -53.205366,63.87059 -55.4233693,68.13998 -7.9026812,15.21173 1.9804462,34.75411 19.5664563,38.68969 9.831506,2.20019 11.327832,1.44204 67.974756,-34.44118 35.48011,-22.47501 52.89358,-32.95061 55.42462,-33.34236 5.33911,-0.82638 12.13554,-4.53588 16.39306,-8.94735 4.68872,-4.85828 23.50631,-43.28029 21.73357,-44.37591 -2.25355,-1.39277 -5.18862,0.40436 -13.48266,8.25536 -4.92635,4.6632 -8.86084,7.65038 -9.53099,7.23621 -0.80875,-0.49983 -0.93331,-3.47929 -0.42751,-10.22574 0.67633,-9.02091 0.61649,-9.48064 -1.14057,-8.76288 -1.01989,0.41663 -3.87935,0.95924 -6.35435,1.20579 -7.5226,0.74938 -8.61082,1.1812 -9.85425,3.91024 -0.99533,2.18451 -0.84556,3.66826 0.88852,8.80195 2.43276,7.20215 2.44816,17.11858 0.0266,17.11858 -1.08907,0 -1.47599,-1.58119 -1.5906,-6.5 -0.098,-4.20609 -0.91352,-8.22118 -2.31085,-11.37712 -2.67938,-6.05151 -2.68682,-5.82713 0.35314,-10.64275 2.19076,-3.47039 2.99121,-3.98319 6.25,-4.00399 7.91412,-0.0505 14.23746,-2.77407 14.23746,-6.13229 0,-0.42563 -4.6125,-0.90213 -10.25,-1.05887 -8.31779,-0.23126 -10.25,-0.56774 -10.25,-1.78498 0,-1.23166 1.78895,-1.5045 10,-1.52514 15.70873,-0.0395 25.43643,-3.13399 24.33765,-7.74213 -0.28469,-1.19398 -2.92547,-1.04932 -16.83765,0.9223 l -16.5,2.33838 -4.40718,4.75329 c -2.42395,2.61432 -5.75741,7.6268 -7.40769,11.13885 -2.72698,5.80344 -3.0545,7.62567 -3.59282,19.9891 l -0.59231,13.60354 -45,16.728 c -24.75,9.2004 -45.3375,16.74281 -45.75,16.7609 -0.4125,0.0181 -0.75,-0.65808 -0.75,-1.50263 0,-1.9474 0.49592,-2.15092 48.676012,-19.97615 l 40.176008,-14.86395 0.32399,-13.06218 c 0.30374,-12.24582 0.52136,-13.47877 3.48194,-19.72775 1.84989,-3.9046 6.35314,-10.32492 10.8718,-15.5 C 152.25646,224.04946 154.57985,222 157.78006,222 c 2.13842,0 5.57292,-2.66366 15.4727,-12 6.9983,-6.6 13.20234,-12 13.78674,-12 1.33231,0 3.9605,6.15298 3.9605,9.2721 0,1.28499 -1.32095,4.41925 -2.93543,6.96504 l -2.93544,4.6287 4.18544,-0.18292 c 4.05929,-0.17741 4.17885,-0.0934 3.96718,2.78607 -0.26636,3.62349 -2.90487,7.36346 -7.0768,10.03101 -1.72035,1.1 -3.14524,2.58485 -3.16643,3.29966 -0.0212,0.71481 -0.6923,2.56393 -1.49136,4.10915 -1.4154,2.73707 -4.19576,4.30615 -9.79716,5.52896 -2.32928,0.50849 -2.75,1.1098 -2.75,3.9304 0,1.83154 -0.2899,6.88547 -0.64422,11.23095 l -0.64422,7.90088 6.50017,-6.1948 c 3.5751,-3.40713 7.69296,-6.49416 9.1508,-6.86005 3.04694,-0.76474 9.29544,0.19242 10.13612,1.55266 0.31284,0.50619 -4.39779,11.13478 -10.46807,23.61909 -11.82887,24.32761 -14.50857,28.03725 -23.2064,32.12572 -2.45688,1.15486 -6.23491,2.419 -8.39562,2.80919 -2.69939,0.48746 -19.91359,10.83339 -55.018344,33.06664 -28.099381,17.79647 -53.018458,33.03769 -55.375727,33.86938 -5.256468,1.85459 -14.237478,1.88704 -19.331813,0.0699 z M 169.86317,231.02831 c 11.92881,-1.5716 14.76772,-2.27237 16.75,-4.13463 3.67309,-3.45068 3.14426,-5.18858 -1.36317,-4.47979 -2.0625,0.32432 -9.6,1.28963 -16.75,2.14512 -7.15,0.85549 -13.22849,1.86718 -13.50775,2.24821 -0.27926,0.38103 -1.85426,2.19282 -3.5,4.0262 l -2.99225,3.33341 3.5,-0.62309 c 1.925,-0.34271 9.96343,-1.47465 17.86317,-2.51543 z m 10.05355,-12.41137 C 183.30948,215.9421 187,209.55077 187,206.34996 187,204.50748 186.65312,203 186.22915,203 c -0.42397,0 -4.81147,4.07336 -9.75,9.05192 l -8.97915,9.05192 5.5,-0.68498 c 3.025,-0.37674 6.13753,-1.1876 6.91672,-1.80192 z m 40.11565,-13.86694 1.93458,-4.25 -2.23347,-1.76194 c -7.93039,-6.25609 -10.32188,-8.60179 -14.85007,-14.56577 -4.92584,-6.48771 -12.41325,-20.82888 -14.84181,-28.4276 -0.98398,-3.07874 -1.50121,-3.58738 -2.8709,-2.82325 -1.16363,0.64918 -2.45564,4.74747 -4.25695,13.50315 l -2.58625,12.57109 3.08625,1.92584 c 1.69744,1.05922 9.83625,7.78423 18.08625,14.94448 8.25,7.16025 15.3595,13.04459 15.79889,13.07632 0.43939,0.0317 1.66946,-1.85482 2.73348,-4.19232 z m 31.58211,-28.73174 c 3.80538,-1.87338 7.90345,-4.93582 10.39932,-7.77128 7.50472,-8.52581 13.53748,-24.3999 14.13514,-37.19396 l 0.25445,-5.44697 -4.57883,-1.16807 C 266.14593,122.98934 265,122.29862 265,120.32435 c 0,-1.16224 0.57113,-1.37462 2.25,-0.83671 1.2375,0.39649 3.77531,0.95554 5.63957,1.24233 l 3.38958,0.52143 -0.47883,-7.46109 c -0.26335,-4.1036 -0.80271,-7.98517 -1.19859,-8.6257 C 274.20586,104.52407 271.88352,104 269.44098,104 266.16011,104 265,103.60816 265,102.5 c 0,-1.07959 1.10455,-1.5 3.94098,-1.5 2.16754,0 4.14769,-0.3375 4.40032,-0.75 0.54657,-0.892443 -4.77235,-17.081052 -6.02309,-18.331785 -0.49026,-0.490269 -3.65925,0.259857 -7.28536,1.724507 -9.8639,3.984205 -23.02241,6.32921 -35.59884,6.344141 L 213.36803,90 l -2.30678,5.565504 c -2.91914,7.042966 -8.72083,14.416176 -14.43939,18.350656 -4.38519,3.01709 -4.49197,3.03606 -8.2501,1.46581 -8.7424,-3.65281 -19.87247,0.009 -24.07158,7.91972 -2.75609,5.19217 -2.31905,13.5603 0.9676,18.52677 5.08513,7.68415 15.46037,10.39152 23.70462,6.18562 l 3.89273,-1.98592 4.53969,6.82867 c 11.7242,17.63572 28.01146,27.86137 42.5123,26.69056 3.29546,-0.26608 7.87683,-1.64829 11.69736,-3.52913 z m -15.51725,-20.82645 c -3.45776,-1.85442 -8.12977,-8.4926 -6.86636,-9.75601 0.80028,-0.80028 26.18147,2.58281 28.05148,3.73901 1.57564,0.9742 -0.33164,2.86856 -5.76754,5.7285 -4.89531,2.57552 -10.9422,2.68867 -15.41758,0.2885 z m 11.58767,-2.31776 2.8151,-1.12595 -2.5,-0.71627 c -4.71529,-1.35097 -13,-2.11008 -13,-1.19118 0,1.1266 5.89451,4.10563 8.1849,4.13658 0.9267,0.0125 2.9517,-0.48391 4.5,-1.10318 z m 0.91422,-19.71366 C 247.89003,132.01305 250.93225,130 253.37524,130 c 2.70224,0 2.72053,-1.75973 0.12476,-12 -1.40748,-5.55248 -2.29421,-10.52395 -1.97051,-11.04771 1.21558,-1.96685 2.42756,-0.81901 3.482,3.29771 0.59871,2.3375 2.0395,7.53906 3.20174,11.55903 2.10351,7.27565 2.10415,7.31803 0.14019,9.282 -2.27788,2.27787 -8.77372,3.65595 -9.7543,2.06936 z m -22.15799,-7.59307 c -2.68673,-1.98298 -0.63129,-4.27464 2.38577,-2.65996 2.89259,1.54807 7.76722,1.35389 11.25213,-0.44823 2.90708,-1.50331 4.92097,-1.26831 4.92097,0.57421 0,3.39191 -14.68064,5.39637 -18.55887,2.53398 z M 217.24579,110.75 c 0.22685,-0.6875 2.32387,-2.59702 4.66005,-4.24337 3.60369,-2.53961 5.18341,-2.99438 10.42088,-3 4.81716,-0.005 6.17328,0.32211 6.17328,1.48983 0,1.11596 -0.93918,1.41555 -3.69357,1.17825 -3.73641,-0.32191 -11.9274,2.59396 -13.2364,4.71197 -0.95568,1.54633 -4.83907,1.42358 -4.32424,-0.13668 z M 378,225.30392 v -25.18137 l -4.75,-0.6414 c -17.18638,-2.3207 -30.3921,-8.55863 -41.25,-19.48506 -8.48671,-8.54028 -12.96049,-15.52234 -16.76305,-26.16149 -2.28223,-6.3854 -2.67506,-9.30475 -3.03546,-22.55824 -0.49835,-18.32638 0.96059,-26.33584 7.02437,-38.563237 5.7748,-11.644654 17.85651,-23.5936 29.8385,-29.510606 14.96044,-7.387832 11.45067,-7.165696 113.52568,-7.185153 86.77755,-0.01654 91.44764,0.0741 98.64352,1.914493 19.47549,4.980992 35.50324,17.880464 44.19383,35.568143 5.46819,11.12922 6.87696,18.0529 6.91804,34 0.0423,16.44045 -1.31085,22.8291 -7.51671,35.4876 -7.7218,15.75066 -24.24972,29.2642 -42.32872,34.60875 -5.41003,1.59933 -12.29305,1.80854 -70,2.12769 l -64,0.35396 -25.25,25.20365 -25.25,25.20364 z m 26.95987,-6.76376 22.4432,-22.45984 65.54847,-0.30535 c 64.64333,-0.30114 65.62821,-0.33559 71.32376,-2.495 11.02106,-4.17854 18.13435,-8.67032 25.81915,-16.30387 8.80782,-8.74907 14.9901,-19.92865 17.4062,-31.4761 1.94973,-9.31851 1.90499,-26.77029 -0.0918,-35.80259 C 602.28352,86.513175 584.50474,68.012693 560.92004,61.321439 554.91915,59.618918 548.46085,59.5 462,59.5 h -92.5 l -7.5,2.340878 c -10.46614,3.266661 -17.98231,7.49164 -25.36951,14.260667 -7.71115,7.065863 -13.90822,16.341284 -17.43231,26.091665 -2.36031,6.53047 -2.6797,9.03706 -3.00618,23.59222 -0.32524,14.50041 -0.1266,17.07621 1.81224,23.5 5.33382,17.67205 17.40978,32.29933 33.34165,40.38583 6.24572,3.17012 18.6302,6.32874 24.81407,6.32874 H 381 v 22.5 c 0,12.375 0.34125,22.5 0.75833,22.5 0.41709,0 10.85778,-10.10693 23.20154,-22.45984 z m -42.93791,-65.15932 c 0.0417,-7.36002 5.73146,-15.83805 12.29314,-18.31722 4.20917,-1.59033 31.01566,-1.37009 34.98264,0.28742 6.24879,2.61092 11.67872,11.15223 11.69668,18.39896 L 421,156 l -25.75,0.011 c -14.1625,0.006 -27.4375,0.28993 -29.5,0.63084 l -3.75,0.61983 z m 71.16845,-1.66338 c 0.53263,-6.42285 3.28255,-11.13245 8.64614,-14.80764 3.38162,-2.31712 4.17976,-2.40982 20.74736,-2.40982 h 17.23045 l 3.77243,3.05329 c 4.38092,3.54577 6.94531,8.2024 7.81806,14.19671 l 0.61879,4.25 -25.76182,0.011 c -14.169,0.006 -27.51075,0.2999 -29.64834,0.65299 l -3.88652,0.64199 z m 71.00041,-0.005 c 0.59875,-7.22017 4.15588,-12.73372 10.05892,-15.59133 3.85732,-1.8673 6.14502,-2.12115 19.11564,-2.12115 15.19471,0 18.15685,0.62752 22.99103,4.87059 C 559.36662,141.51272 562,147.6205 562,151.96016 V 156 h -25.875 c -14.23125,0 -27.34266,0.29353 -29.13646,0.65229 l -3.26146,0.65229 z M 386.5,122.58836 C 373.29684,116.72017 376.72288,98 391,98 c 13.71369,0 17.91282,17.99106 5.59131,23.9558 -4.89746,2.37082 -6.02174,2.44129 -10.09131,0.63256 z m 69.9922,-0.44046 c -8.55342,-3.9125 -10.03801,-14.5103 -2.94346,-21.01197 3.43969,-3.152245 4.02395,-3.336098 9.22969,-2.904398 4.65315,0.385876 6.00968,0.966904 8.33595,3.570448 3.80436,4.25782 4.58928,9.11018 2.23875,13.84 -3.49315,7.02908 -10.12387,9.58759 -16.86093,6.50592 z m 73.04948,1.13208 c -10.79705,-2.79457 -13.0497,-18.00439 -3.50185,-23.644439 3.42595,-2.023754 9.14818,-2.106799 12.86133,-0.186653 8.19961,4.240182 8.68404,16.969362 0.83491,21.939022 -2.68134,1.69769 -7.4942,2.59095 -10.19439,1.89207 z"
         id="path4" />
    </g>
  </g>
</svg>
