<?xml version="1.0" encoding="UTF-8" standalone="no"?>
<!-- Created with Inkscape (http://www.inkscape.org/) -->

<svg
   version="1.1"
   id="svg1"
   width="593"
   height="450"
   viewBox="0 0 593 450"
   sodipodi:docname="VIDEO_03.svg"
   inkscape:version="1.3.2 (091e20e, 2023-11-25, custom)"
   xmlns:inkscape="http://www.inkscape.org/namespaces/inkscape"
   xmlns:sodipodi="http://sodipodi.sourceforge.net/DTD/sodipodi-0.dtd"
   xmlns="http://www.w3.org/2000/svg"
   xmlns:svg="http://www.w3.org/2000/svg">
  <defs
     id="defs1" />
  <sodipodi:namedview
     id="namedview1"
     pagecolor="#ffffff"
     bordercolor="#000000"
     borderopacity="0.25"
     inkscape:showpageshadow="2"
     inkscape:pageopacity="0.0"
     inkscape:pagecheckerboard="0"
     inkscape:deskcolor="#d1d1d1"
     showgrid="false"
     inkscape:zoom="1.3541315"
     inkscape:cx="296.5"
     inkscape:cy="224.86737"
     inkscape:window-width="1920"
     inkscape:window-height="1001"
     inkscape:window-x="-9"
     inkscape:window-y="-9"
     inkscape:window-maximized="1"
     inkscape:current-layer="g1" />
  <g
     inkscape:groupmode="layer"
     inkscape:label="Image"
     id="g1">
    <g
       id="g2">
      <path
         style="fill:#fefefe"
         d="M 0,225 V 0 H 296.5 593 V 225 450 H 296.5 0 Z"
         id="path5" />
      <path
         style="fill:#9f9fa3"
         d="m 475.5,445.57615 c -11.55,-2.42925 -23.7,-5.08829 -27,-5.90897 -3.3,-0.82069 -31.07893,-7.55978 -61.73094,-14.97574 l -55.73095,-13.48358 -5.10963,1.49784 c -6.71385,1.96811 -19.07133,1.38385 -24.26669,-1.14733 l -3.8382,-1.86997 -2.43704,2.9058 c -2.6722,3.18621 -8.36222,12.46163 -8.37717,13.6558 -0.005,0.4125 16.75312,0.75988 37.24062,0.77196 41.64938,0.0246 42.78229,0.1925 48.02391,7.11919 2.75442,3.63991 5.18663,11.21631 4.32311,13.46661 -0.45709,1.19115 -25.15201,1.36068 -166.81676,1.14518 L 43.5,448.5 21.827097,368 C 7.5844405,315.09828 0.12776163,285.72642 0.07709654,282.32673 -0.01350866,276.247 2.9833641,271.78904 8.2827259,270.12055 c 1.7695011,-0.55712 38.4214201,-6.73589 81.4487111,-13.7306 85.310743,-13.86849 81.388573,-13.51051 89.266723,-8.14745 8.20034,5.5824 8.25019,5.71469 23.17042,61.48914 7.61671,28.4726 14.03112,52.26711 14.25424,52.8767 0.25238,0.68951 3.42747,-0.3316 8.40218,-2.70213 4.39806,-2.09575 12.64915,-5.36057 18.33574,-7.25514 16.18437,-5.39205 25.66257,-6.9812 57.83926,-9.69753 6.875,-0.58038 14.3615,-1.27728 16.63666,-1.54866 l 4.13666,-0.49343 0.58408,-7.20573 c 0.32125,-3.96314 0.84976,-18.00572 1.17448,-31.20572 0.74205,-30.16486 1.88042,-42.21285 5.0322,-53.25858 3.07741,-10.78505 10.06014,-25.55946 16.04179,-33.94198 2.47735,-3.47171 4.2447,-6.73221 3.92743,-7.24556 -0.31727,-0.51335 0.33269,-5.10073 1.44436,-10.19419 1.11166,-5.09346 1.65896,-9.62307 1.21621,-10.06582 -0.44274,-0.44274 -2.94383,-0.0762 -5.55799,0.81453 -3.51227,1.19675 -7.28286,1.51631 -14.44444,1.22418 -8.34172,-0.34027 -10.64504,-0.8426 -16.53861,-3.60689 -3.76595,-1.76635 -8.49095,-4.50149 -10.5,-6.07808 -2.95241,-2.31687 -4.96062,-2.96835 -10.47318,-3.39756 -4.76405,-0.37093 -8.64049,-1.43318 -12.85741,-3.52328 l -6.03706,-2.99225 -3.0245,6.46319 c -3.46019,7.39426 -4.53001,13.99627 -2.79374,17.24052 1.52622,2.85177 6.81222,5.06177 12.10702,5.06177 3.27581,0 4.56861,-0.54717 6.20352,-2.62563 2.49279,-3.16907 9.08542,-6.32228 13.28139,-6.35241 8.13475,-0.0584 8.40885,6.52612 0.45433,10.91408 -4.03042,2.22331 -5.42142,2.42893 -14.94426,2.20914 C 269.72615,202.76797 264,199.11658 264,189.07249 c 0,-4.1443 3.63087,-15.0533 6.43426,-19.33181 1.46447,-2.23506 1.44439,-2.54052 -0.26883,-4.09097 -1.01831,-0.92155 -3.15961,-4.25724 -4.75845,-7.41263 -2.60363,-5.1384 -2.90669,-6.72842 -2.90422,-15.23708 0.002,-8.04813 0.36401,-10.18773 2.36652,-14 1.30006,-2.475 2.95547,-5.17635 3.67868,-6.003 1.58222,-1.80849 0.0118,-11.08993 -1.81418,-10.7218 -1.43981,0.29029 -2.24707,-3.33994 -0.92447,-4.15735 0.58329,-0.36049 1.14994,-7.39118 1.34839,-16.730316 L 267.5,75.279015 263.37747,74.177439 c -5.21458,-1.393381 -11.95765,-6.504025 -15.80596,-11.979493 -2.38144,-3.388383 -3.0627,-5.548118 -3.39469,-10.761974 -0.53422,-8.389794 1.56032,-14.015218 7.38833,-19.843223 8.91903,-8.91903 20.95362,-12.113467 33.93485,-9.007597 1.1,0.263184 0.425,-0.382452 -1.5,-1.434747 -8.03137,-4.390322 -18.36122,-3.561261 -30.33834,2.434917 -3.76108,1.882936 -7.24858,3.169972 -7.75,2.860082 C 240.21662,22.925675 259.65579,14 273.01643,14 c 5.87303,0 7.78864,0.495382 13.57153,3.509627 6.2729,3.269658 6.85634,3.398266 8.53297,1.880931 0.98983,-0.895783 1.70505,-2.100826 1.58938,-2.677874 -0.11567,-0.577047 0.70664,-1.535966 1.82736,-2.130931 1.12072,-0.594964 4.60377,-2.790359 7.74013,-4.8786552 10.25695,-6.8294475 19.28352,-9.67316001 30.7621,-9.69122892 17.16286,-0.02701678 30.51031,6.64017072 50.37456,25.16259612 10.15275,9.466936 16.24003,21.710759 18.66294,37.538257 l 1.23193,8.047459 5.35684,2.220287 c 6.91302,2.865287 13.7692,9.580156 17.15273,16.799194 3.59141,7.662561 3.81642,20.209298 0.49206,27.437568 -3.28499,7.14267 -10.33361,14.07619 -17.57665,17.28964 -3.42887,1.52126 -6.39065,2.89839 -6.58174,3.06029 -0.76247,0.64602 3.36535,6.43284 4.58864,6.43284 0.72049,0 5.31917,2.0402 10.21927,4.53378 6.43003,3.27213 8.99696,5.11833 9.2244,6.63441 0.27205,1.81352 5.85058,4.00895 40.81512,16.06277 22.275,7.67918 41.01053,14.48119 41.63451,15.11559 2.28894,2.32716 73.79469,143.33491 76.01736,149.90456 3.59723,10.63249 4.66285,18.90605 4.0777,31.65964 -1.49167,32.51178 -19.39226,59.87498 -48.22957,73.72464 -12.855,6.17386 -18.83732,7.55896 -34.5,7.98788 -12.85204,0.35195 -14.50793,0.15771 -34.5,-4.04712 z m 51.00688,-2.11996 c 14.27523,-3.71822 25.47514,-9.80002 35.783,-19.43096 C 579.89599,407.57531 588.36909,387.65643 588.24881,363 588.1731,347.48072 585.90719,339.22393 576.72274,321 554.00497,275.923 510.56809,191.32681 509.61465,190.30258 509.00159,189.644 497.25,185.21945 483.5,180.47024 c -13.75,-4.74922 -31.46345,-10.87193 -39.36323,-13.60602 -7.89978,-2.7341 -14.48334,-4.83455 -14.63013,-4.66766 -0.14679,0.16689 -1.246,16.95344 -2.44268,37.30344 -2.35981,40.12955 -2.5037,41.50722 -4.33301,41.48515 -0.67702,-0.008 -7.75187,-3.79975 -15.72188,-8.42574 -7.97002,-4.62598 -14.56706,-8.3318 -14.66009,-8.23514 -0.093,0.0966 3.39898,13.45073 7.76003,29.67573 4.36106,16.225 11.78385,43.9 16.49511,61.5 4.71125,17.6 8.86516,32.30842 9.2309,32.68537 0.70599,0.72765 40.36954,4.73152 41.08692,4.14756 0.23206,-0.18891 -1.685,-16.2036 -4.26014,-35.5882 -5.02031,-37.79092 -5.22166,-40.79084 -3.60903,-53.77096 2.75167,-22.14834 10.30209,-40.4912 24.16952,-58.71707 6.08684,-7.99989 6.85441,-8.60753 8.6304,-6.83213 1.13684,1.13646 0.2255,2.85186 -5.71127,10.75021 -15.20017,20.22247 -23.14131,43.28468 -23.14149,67.20621 -5e-5,7.9271 8.44499,76.39726 9.56033,77.5126 0.21809,0.21809 10.07958,1.36458 21.91442,2.54776 21.08765,2.10822 25.3213,3.16267 22.80422,5.67975 -0.82814,0.82814 -9.4121,0.30077 -32.84857,-2.0181 -17.4501,-1.72656 -31.90628,-2.96038 -32.12485,-2.74182 -0.83536,0.83536 -3.41584,77.92347 -2.63157,78.61427 0.72294,0.63678 41.80537,9.21949 49.82609,10.40939 5.23694,0.77692 20.91916,-0.343 27.00688,-1.92865 z M 444.07478,432.75 c 0.21508,-0.71908 2.83698,-65.21966 2.87757,-70.79029 l 0.0476,-6.5403 -30.75,-2.77773 c -16.9125,-1.52775 -38.625,-3.6883 -48.25,-4.80122 -21.8817,-2.53015 -54.99695,-2.10643 -82.15797,1.05124 -21.77609,2.53163 -30.08992,4.21773 -43.0637,8.7336 -7.95302,2.76827 -22.85595,9.35683 -24.56181,10.85874 -0.25432,0.22391 3.16063,13.79204 4.40701,17.50975 0.36274,1.08199 1.79843,0.11712 5.20787,-3.5 C 236.64069,373.1479 253.47364,360 256.62966,360 c 0.636,0 1.39999,0.63488 1.69775,1.41084 0.35904,0.93563 -2.95294,3.97478 -9.83292,9.02292 -9.63505,7.06965 -23.48456,20.63909 -23.50214,23.02687 -0.0153,2.07396 5.32537,21.53926 5.90852,21.53508 0.32952,-0.002 2.31662,-3.34987 4.41578,-7.43891 2.09916,-4.08905 6.03229,-10.36142 8.74029,-13.9386 C 249.8572,385.95623 262.76698,373 264.60122,373 c 3.40244,0 1.94109,2.83698 -5.31813,10.32425 -4.35969,4.49666 -9.7747,10.65075 -12.03334,13.67575 -5.24482,7.02438 -12.39598,21.89374 -12.59582,26.1904 L 234.5,426.5 l 9.25,0.28753 c 7.02409,0.21833 9.25117,-0.0223 9.25488,-1 0.007,-1.85932 6.68184,-14.59207 10.11008,-19.28588 C 267.32241,400.74098 279.1295,389 280.71516,389 c 3.34065,0 2.22104,3.25593 -3.16698,9.20989 C 271.04726,405.39364 264,418.60885 264,423.6158 V 427 l 8.75,-0.0131 8.75,-0.0131 2.84904,-5.93395 c 1.56698,-3.26367 5.16698,-8.47163 8,-11.57323 l 5.15096,-5.63929 4.92662,2.77059 c 4.22849,2.37798 5.99981,2.76056 12.5,2.69983 4.16536,-0.0389 9.36305,-0.72602 11.55044,-1.5269 2.71567,-0.9943 5.0944,-1.1994 7.5,-0.64667 1.93761,0.44521 26.69794,6.42306 55.02294,13.28413 46.67088,11.30492 54.83752,13.13499 55.07478,12.34178 z M 259,425.5 c 0,-0.825 -0.17686,-1.5 -0.39301,-1.5 -0.21616,0 -0.65203,0.675 -0.96862,1.5 -0.31658,0.825 -0.13972,1.5 0.39301,1.5 C 258.56412,427 259,426.325 259,425.5 Z M 108.04805,377.7466 c 5.37769,-3.62402 7.40107,-8.07886 7.36686,-16.21948 -0.0496,-11.81358 -6.69238,-22.17839 -15.782737,-24.62617 -7.793515,-2.09857 -14.138245,1.61335 -17.098372,10.00325 -2.089142,5.92126 -1.926318,10.97168 0.568714,17.64025 4.894108,13.08067 16.226242,19.07808 24.945535,13.20215 z M 97,375.91712 c -8.62515,-3.55977 -14.556663,-16.4224 -11.982121,-25.98352 4.463548,-16.57635 23.353311,-11.3283 26.863991,7.4635 2.27606,12.18311 -5.82099,22.25962 -14.88187,18.52002 z M 420,346.862 c 0,-0.6259 -6.77796,-26.3884 -15.06214,-57.25 -8.28418,-30.8616 -15.52204,-57.87566 -16.08412,-60.03125 l -1.02198,-3.91926 -6.85341,14.16926 C 376.48413,249.12243 373.58493,254 372.5562,254 c -1.04302,0 -4.88104,-6.69864 -11.45253,-19.98853 l -9.88379,-19.98853 -2.69111,3.52823 c -4.25041,5.57257 -11.16316,19.24332 -13.95375,27.5951 -3.95329,11.8316 -5.39796,24.73327 -6.53416,58.35373 -0.5762,17.05 -1.04612,32.39867 -1.04425,34.10816 l 0.003,3.10816 15.75,0.64903 c 8.6625,0.35697 27.45,1.94411 41.75,3.52697 29.64465,3.28137 35.5,3.60624 35.5,1.96968 z M 379.93284,231.5 c 3.80757,-7.975 7.47009,-14.5 8.13895,-14.5 0.66886,0 8.10004,4.00122 16.51374,8.89159 l 15.29765,8.89159 0.5545,-5.14159 c 1.40266,-13.00595 4.53119,-73.06614 3.83928,-73.70458 -0.42733,-0.3943 -3.34505,-2.14843 -6.48383,-3.89807 l -5.70686,-3.18117 -1.42204,3.32111 C 409.88211,154.0055 404.95426,165.625 399.71345,178 c -13.22593,31.23005 -13.5685,32 -14.23755,32 -0.32734,0 -7.16113,-3.15 -15.1862,-7 -8.02507,-3.85 -14.71633,-7 -14.86947,-7 -0.15314,0 -0.78243,2.42776 -1.39844,5.39502 l -1.12,5.39501 9.7872,19.60499 c 5.38296,10.78274 9.9073,19.60498 10.0541,19.60498 0.1468,0 3.38219,-6.525 7.18975,-14.5 z m 15.47234,-55.13785 11.67185,-27.63785 -3.24592,-5.35575 c -3.30009,-5.44512 -3.7652,-5.70614 -11.75691,-6.59787 -2.37754,-0.26529 -2.56796,0.30641 -9.56921,28.72932 -3.92887,15.95 -7.71122,30.05104 -8.40522,31.33565 -0.69399,1.2846 -1.11285,2.41928 -0.93079,2.52151 1.70209,0.95569 9.47004,4.53276 9.94769,4.58081 0.33916,0.0341 5.869,-12.375 12.28851,-27.57582 z m -45.85296,5.76021 c 7.91984,-3.70614 16.32291,-11.42357 22.10192,-20.29854 4.54126,-6.97412 10.14336,-19.80112 11.02749,-25.24938 0.46073,-2.83914 0.0861,-3.46236 -3.51267,-5.84393 -4.71932,-3.1231 -9.68543,-9.95515 -11.84656,-16.29773 -1.51476,-4.44557 -1.4581,-17.180573 0.0976,-21.93278 0.55725,-1.702268 -0.4715,-2.574995 -6.91061,-5.862499 -7.13532,-3.642955 -16.30448,-11.285226 -19.75686,-16.466864 l -1.552,-2.329362 -9.39359,3.51831 c -15.16653,5.680532 -27.8805,7.838532 -43.95675,7.460981 L 272.20036,78.5 l -0.60018,4.389571 c -0.77005,5.631926 -0.74959,15.950797 0.0374,18.888469 0.48555,1.81237 1.04491,2.12631 2.73634,1.53575 3.39054,-1.18378 8.90049,-0.92747 9.36583,0.43568 0.23459,0.68721 -0.1734,1.42512 -0.90663,1.63979 -0.73324,0.21467 -3.41368,1.13037 -5.95654,2.03488 l -4.62337,1.64456 1.40493,7.71565 c 6.18861,33.98687 26.00185,61.11331 49.44645,67.69746 8.18414,2.29843 18.45129,1.38247 26.44759,-2.35945 z M 317.38,159.54789 c -0.84916,-2.21289 0.22677,-3.22239 4.10522,-3.85178 1.94358,-0.3154 4.93159,-1.56878 6.64002,-2.78529 3.69593,-2.63174 7.84518,-11.00931 7.8803,-15.91082 0.0321,-4.4769 1.29111,-6.48388 3.5288,-5.62519 1.47432,0.56574 1.63836,1.49867 1.08757,6.18502 -1.27012,10.80679 -7.84225,19.69157 -16.48035,22.27961 -5.03695,1.50911 -6.08797,1.46379 -6.76156,-0.29155 z m -15.10008,-24.56798 c -2.69708,-1.08526 -2.94898,-2.17026 -4.17437,-17.97991 -0.7594,-9.79756 -0.69483,-12.78109 0.29869,-13.80019 2.49358,-2.55776 3.64685,1.24485 4.38089,14.44499 L 303.5,130.5 l 5.25,0.30226 c 4.3026,0.24771 5.25,0.63119 5.25,2.125 0,2.70806 -7.03097,3.93946 -11.72008,2.05265 z m -24.25598,-10.6766 c -2.94812,-3.74793 -2.49178,-9.66611 0.7811,-10.13007 2.89584,-0.41052 5.11704,1.3992 6.87283,5.5996 2.73336,6.53909 -3.27599,10.09612 -7.65393,4.53047 z m 49.27509,-9.80641 c -4.67551,-3.27486 -5.05621,-12.52215 -0.51385,-12.48159 5.04224,0.045 9.42941,9.3701 6.01482,12.78469 -1.58626,1.58626 -2.90746,1.51346 -5.50097,-0.3031 z M 314.6832,96.296424 C 313.05069,93.654961 320.50515,90 327.52506,90 c 9.19001,0 17.43286,3.442076 14.72573,6.149211 -0.7526,0.752596 -2.97039,0.586455 -7.57005,-0.567095 -5.19607,-1.303126 -7.37872,-1.411395 -10.84317,-0.537871 -2.38566,0.601519 -5.29732,1.330017 -6.47035,1.618883 -1.17303,0.288866 -2.38084,0.123849 -2.68402,-0.366704 z M 111.32124,224.1618 98.142475,213 H 62.206096 c -34.841671,0 -36.016643,-0.0631 -38.571237,-2.07258 L 21,208.85484 V 180.92742 C 21,154.33333 21.09549,152.90451 23,151 c 1.953158,-1.95316 3.333333,-2 58.928571,-2 62.773699,0 59.359139,-0.35403 60.589429,6.28215 0.32811,1.76982 0.45828,14.62077 0.28928,28.55768 -0.30624,25.25409 -0.31527,25.34628 -2.66806,27.25 C 138.36904,212.52212 136.18819,213 131.42197,213 H 125.0655 L 124.78275,224.1618 124.5,235.3236 Z M 56.25,192.3515 C 60.066816,191.91825 61,191.43784 61,189.90616 61,188.26233 60.243081,188 55.5,188 H 50 V 177 166 H 47.5 45 v 12.92668 c 0,11.50255 0.192795,12.96771 1.75,13.29914 3.080686,0.6557 4.647938,0.67643 9.5,0.12568 z M 70.779025,179.156 71.05805,166 H 68.529025 66 v 12.83333 c 0,7.05834 0.255679,13.08902 0.568177,13.40151 0.312497,0.3125 1.324997,0.4577 2.25,0.32267 1.461542,-0.21335 1.718369,-1.96864 1.960848,-13.40151 z m 23.686083,-0.0513 C 96.409299,173.27006 98,167.93459 98,167.24812 98,166.56166 96.928036,166 95.617857,166 c -2.124689,0 -2.670578,0.94567 -5.050951,8.75 -1.467844,4.8125 -2.903044,9.425 -3.189332,10.25 -0.286288,0.825 -1.970485,-3 -3.742659,-8.5 -2.956327,-9.17505 -3.445399,-10.0261 -5.928526,-10.31642 -1.488514,-0.17403 -2.675737,0.051 -2.638273,0.5 0.03746,0.44903 1.949963,6.20283 4.25,12.78622 3.603885,10.31539 4.527421,12.0576 6.681884,12.60512 3.421351,0.86947 4.304341,-0.48345 8.465108,-12.97021 z M 116.81955,190.25 c 0.29139,-2.05169 -0.0832,-2.25 -4.25,-2.25 C 108.01387,188 108,187.9894 108,184.5 c 0,-3.48148 0.0238,-3.5 4.5,-3.5 3.83333,0 4.5,-0.2963 4.5,-2 0,-1.7037 -0.66667,-2 -4.5,-2 -4.33333,0 -4.5,-0.11111 -4.5,-3 0,-2.87706 0.17963,-3 4.38337,-3 3.4988,0 4.48586,-0.39192 4.89124,-1.9421 0.27932,-1.06815 0.25681,-2.19315 -0.05,-2.5 C 116.91772,166.25106 113.36667,166 109.33333,166 H 102 v 12.91667 c 0,9.3861 0.34167,13.06045 1.25,13.44271 0.6875,0.28933 3.95,0.43933 7.25,0.33334 5.39188,-0.17319 6.03239,-0.42077 6.31955,-2.44272 z"
         id="path4" />
      <path
         style="fill:#fa6b53"
         d="m 498,449.39827 c -15.89823,-2.96712 -52.99163,-10.68649 -54.6478,-11.37255 -1.18129,-0.48934 -26.74287,-6.79565 -56.8035,-14.01403 l -54.65569,-13.12431 -7.55621,1.6811 c -8.79448,1.95658 -16.48678,1.41598 -22.33982,-1.57002 l -3.85499,-1.96667 -3.82099,4.34869 c -2.10155,2.39179 -4.81986,6.32213 -6.0407,8.73411 l -2.2197,4.38541 38.2197,0.5 c 41.28078,0.54005 41.15041,0.52272 46.42197,6.16863 2.71242,2.90504 5.29773,8.90855 5.29773,12.30219 v 2.53506 L 209.87389,447.75294 43.747773,447.5 21.837235,366 C 5.4320447,304.97809 0.04138897,283.52972 0.38315767,280.63842 0.84319283,276.74661 4.7473363,271.51832 7.9260678,270.53723 12.344331,269.17357 163.67535,245.00136 167.74407,245.00938 c 6.05018,0.0119 13.80539,4.28462 17.50734,9.64555 2.02352,2.93032 5.99776,16.3159 16.70543,56.26527 7.72763,28.83111 14.20453,52.57451 14.39312,52.7631 0.18859,0.18859 3.77385,-1.22065 7.96724,-3.13164 10.25953,-4.67542 23.46569,-9.2846 33.1828,-11.58138 8.54076,-2.01874 37.12586,-5.45801 54.62264,-6.57203 l 10.62265,-0.67635 0.68542,-22.61095 c 1.31428,-43.35575 2.31398,-56.86973 4.98509,-67.3883 2.87903,-11.33738 9.56446,-26.05459 16.04997,-35.3322 2.58698,-3.7007 4.54932,-7.6467 4.56936,-9.18836 0.0427,-3.28433 2.37898,-14.44509 3.35405,-16.02278 0.38682,-0.62589 0.24291,-1.99823 -0.31979,-3.04965 -0.97503,-1.82186 -1.22386,-1.83609 -5.29624,-0.30286 -2.86728,1.07951 -7.39866,1.59643 -13.77315,1.57116 -10.98824,-0.0436 -17.18773,-2.00442 -26.95203,-8.52476 -5.17143,-3.45335 -6.84879,-4.03597 -12.3927,-4.30451 -5.62053,-0.27226 -11.22095,-2.15468 -18.75949,-6.30548 -1.23505,-0.68003 -6.11391,12.42987 -6.60076,17.73679 -0.45647,4.97563 -0.25493,5.73236 2.1139,7.93718 1.97934,1.8423 4.02953,2.53925 8.39944,2.85534 5.5134,0.3988 5.9432,0.25592 9.28621,-3.08709 6.02707,-6.02707 15.26171,-7.291 18.26838,-2.50037 0.84424,1.34514 0.54947,2.26231 -1.39641,4.34501 -4.58077,4.90284 -6.98139,5.53295 -19.72027,5.17613 -13.30077,-0.37255 -17.15648,-1.7181 -19.85024,-6.92726 -2.35825,-4.56036 -1.28628,-12.39189 2.90392,-21.21526 l 3.42292,-7.2077 -1.96644,-2.42845 c -9.06709,-11.19738 -10.1588,-27.61415 -2.6262,-39.49182 2.55283,-4.0254 2.86973,-5.27315 2.30157,-9.06194 C 269.03379,113.73962 268.24734,112 267.44547,112 c -2.01159,0 -2.76785,-1.90663 -1.40675,-3.54665 0.81579,-0.98297 1.27662,-6.6674 1.41233,-17.421396 l 0.20144,-15.962357 -4.54001,-1.546938 C 253.22354,70.15316 246.76124,63.152929 244.78037,53.664585 242.47654,42.629223 249.39609,30.795743 261.5,25.071508 c 5.86412,-2.773288 17.02127,-3.849927 22.94544,-2.214183 5.83661,1.611565 5.58025,0.52749 -0.5501,-2.326226 C 274.99199,16.38654 261.51944,17.8592 251.38197,24.085075 247.67465,26.361906 246,26.516391 246,24.581559 c 0,-3.109593 13.71013,-9.059898 23.53577,-10.214709 6.15682,-0.723613 14.37546,1.405069 19.90025,5.154296 3.59679,2.440848 3.84946,2.478319 5.2063,0.7721 0.78433,-0.986285 1.84953,-2.805746 2.36712,-4.043246 0.51758,-1.2375 1.56761,-2.25 2.33339,-2.25 0.76579,0 4.26442,-1.925272 7.77475,-4.2783815 12.00818,-8.0495482 27.25119,-11.2108508 40.49271,-8.3979297 9.97363,2.1187175 19.19155,7.091115 31.40534,16.9408902 11.01708,8.884697 17.13436,16.302715 21.40079,25.951317 2.22867,5.040162 5.22387,16.993012 5.80937,23.183242 0.28672,3.031389 0.47981,3.192437 7.81436,6.517722 2.49708,1.132108 6.43692,3.936375 8.75519,6.231703 17.38647,17.214383 10.98879,46.624197 -11.96289,54.992797 -5.73424,2.09081 -5.7532,2.11122 -4.39707,4.73368 0.9133,1.76613 4.44933,4.19718 10.73353,7.37938 5.15434,2.61007 9.89504,4.74558 10.53489,4.74558 0.63984,0 1.30575,1.22806 1.47978,2.72902 0.30764,2.65333 1.46749,3.12668 41.81642,17.06577 l 41.5,14.33675 36.68125,71.70838 c 20.17469,39.43961 37.80789,75.07251 39.1849,79.18423 11.93309,35.63203 -1.80995,76.77744 -32.69285,97.87943 -6.67436,4.56054 -19.89325,10.54262 -27.6733,12.52331 -6.43761,1.63892 -25.18164,2.87064 -30,1.97138 z m 30.5,-5.78506 c 8.78305,-2.37872 23.08214,-9.76282 30.29647,-15.64521 26.40745,-21.53202 36.82218,-58.27781 25.74674,-90.84096 -1.25828,-3.69949 -11.50581,-24.704 -22.77229,-46.67669 C 550.50444,268.47766 534.40696,237 525.99875,220.5 517.59054,204 510.37627,190.12267 509.96704,189.6615 c -0.83357,-0.9394 -80.28038,-28.60819 -80.79501,-28.13833 -0.25754,0.23513 -5.04993,72.12756 -5.14799,77.22683 -0.0469,2.4377 -3.26864,1.15588 -17.15554,-6.82558 -7.72787,-4.44157 -14.29247,-7.83378 -14.58801,-7.53824 -0.83998,0.83997 32.47146,123.84248 33.7535,124.63482 0.62762,0.3879 5.26422,1.00357 10.30357,1.36817 5.03934,0.36459 14.00141,1.17471 19.91572,1.80026 5.9143,0.62554 10.97847,0.91215 11.25371,0.63691 0.27525,-0.27524 -1.52623,-15.38599 -4.00327,-33.57943 -5.20444,-38.22563 -5.6438,-49.83825 -2.47413,-65.39212 3.82521,-18.77061 9.9678,-32.33384 21.78596,-48.10479 6.04489,-8.06669 9.18445,-10.62879 9.18445,-7.49512 0,0.69019 -2.46374,4.52989 -5.47497,8.53267 -18.40404,24.46418 -26.56252,51.92905 -23.59979,79.44676 1.42487,13.23413 8.78507,66.82047 9.233,67.22142 0.32517,0.29106 41.19101,4.54427 43.66243,4.54427 1.29165,0 1.63436,2.63088 0.42933,3.29581 -0.4125,0.22762 -14.925,-1.01994 -32.25,-2.77234 -17.325,-1.75241 -31.78585,-2.92458 -32.13523,-2.60483 -0.84778,0.77588 -3.69643,78.37582 -2.9116,79.31443 0.33714,0.40319 11.39809,2.98921 24.5799,5.74672 22.799,4.76932 24.57606,4.99523 36.46693,4.63602 7.19921,-0.21749 15.04438,-1.06672 18.5,-2.0026 z M 445.02715,428.75 c 0.0149,-2.8875 0.65546,-20.54696 1.42341,-39.24325 0.76795,-18.69629 1.29202,-34.09751 1.1646,-34.22492 -0.12742,-0.12742 -15.05545,-1.60895 -33.17341,-3.29228 C 396.32379,350.30621 373.175,347.99307 363,346.84924 c -14.72745,-1.65561 -21.96667,-1.96321 -35.5,-1.50846 -19.26296,0.64728 -53.04092,3.91104 -65,6.28054 -11.18054,2.21526 -27.35511,7.76831 -37.00352,12.70407 l -8.16054,4.17461 2.48772,9.25 c 1.36826,5.0875 2.91143,9.25 3.42928,9.25 0.51784,0 3.01761,-2.30909 5.55503,-5.13131 4.70806,-5.2365 20.37178,-17.87604 25.33163,-20.44088 1.74238,-0.90102 2.97208,-1.05612 3.36267,-0.42414 0.90802,1.46921 -0.0858,2.62038 -5.30329,6.14297 -8.47731,5.72346 -17.75168,13.68393 -23.08077,19.81092 l -5.23742,6.02159 2.61583,9.76043 C 230.08879,416.14301 230.04141,416 230.89001,416 c 0.41538,0 2.47538,-3.434 4.57778,-7.6311 C 242.05807,395.21244 259.9309,374 264.42576,374 c 2.85625,0 1.66253,1.89613 -6.17576,9.80977 C 245.30359,396.88063 234,415.58885 234,423.94519 V 427 h 9.27714 9.27715 l 4.09948,-8.25 c 2.25472,-4.5375 6.20097,-11.03965 8.76945,-14.44922 C 270.0903,398.10539 279.4243,389 281.10815,389 c 2.19872,0 0.45894,3.57053 -4.70696,9.66006 -6.26724,7.38777 -13.6211,21.51995 -13.18597,25.33994 0.27782,2.4389 0.50755,2.50698 9.39994,2.78574 l 9.11517,0.28574 2.74179,-5.60402 c 1.50799,-3.08221 5.09059,-8.12745 7.96135,-11.21164 l 5.21955,-5.60762 5.36984,2.6759 c 6.29286,3.13586 13.05479,3.49071 22.41325,1.17618 L 331.5,407.00057 387,420.42882 c 30.525,7.38554 56.0625,13.46041 56.75,13.49972 0.84714,0.0484 1.25875,-1.62055 1.27715,-5.17854 z m -185.05895,-4.5 c -0.0305,-2.63406 -0.0937,-2.66816 -1.5,-0.80887 -1.87079,2.4734 -1.86109,3.55887 0.0318,3.55887 0.97741,0 1.48892,-0.95809 1.4682,-2.75 z M 109.36653,377.72459 c 3.94565,-2.78971 6.58612,-9.07502 6.60593,-15.72459 0.0221,-7.42877 -1.4261,-12.12819 -5.30466,-17.21333 C 106.00331,338.67112 101.61128,336 96.220151,336 86.761748,336 81,343.25171 81,355.156 c 0,18.00514 16.38419,31.04051 28.36653,22.56859 z m -14.636929,-3.56455 c -8.349396,-5.50553 -11.948616,-17.5737 -8.10565,-27.17822 3.327975,-8.31743 12.319249,-9.18152 19.009079,-1.82683 7.74788,8.51789 8.21062,24.44131 0.85042,29.26389 -3.21124,2.10409 -8.341695,1.99111 -11.753849,-0.25884 z M 420.55217,346.25 c -1.419,-5.87113 -30.70487,-114.93931 -31.71979,-118.13272 l -1.07509,-3.38272 -7.12864,14.38272 c -3.92076,7.9105 -7.57376,14.32376 -8.11778,14.2517 -0.54401,-0.072 -5.38205,-8.95955 -10.75118,-19.75 C 356.39055,222.82854 351.61187,214 351.14039,214 c -2.38339,0 -12.94303,19.1439 -16.78439,30.42893 -4.39957,12.92492 -5.4324,22.05539 -6.77029,59.85077 -0.70517,19.92117 -1.09887,36.5578 -0.8749,36.9703 0.22397,0.4125 6.11817,0.7499 13.09821,0.74978 6.98004,-1.2e-4 23.04098,1.11476 35.69098,2.47751 24.98944,2.69203 39.66081,4.17682 43.35841,4.38801 2.0853,0.1191 2.28144,-0.18375 1.69376,-2.6153 z M 379.8994,232.64085 c 3.75967,-7.89753 7.24623,-14.61282 7.74791,-14.92287 0.50167,-0.31006 7.9931,3.51972 16.6476,8.51062 8.65451,4.9909 15.89816,8.89369 16.09702,8.67288 0.19885,-0.22081 1.32316,-16.60148 2.49847,-36.40148 1.17532,-19.8 2.32657,-37.45681 2.55835,-39.23736 0.39948,-3.06894 0.0946,-3.42012 -5.85977,-6.75 C 416.13433,150.58069 412.88558,149 412.36953,149 c -0.51605,0 -6.54781,13.3185 -13.4039,29.59667 -6.8561,16.27816 -12.98728,29.81063 -13.62486,30.07215 -0.63757,0.26152 -7.74754,-2.68523 -15.79993,-6.54833 -9.53596,-4.57485 -14.77964,-6.60485 -15.0392,-5.82216 -0.21918,0.66092 -0.79191,3.22667 -1.27275,5.70167 -0.85159,4.38342 -0.61359,5.0246 9.18711,24.75 5.53374,11.1375 10.19326,20.25 10.35448,20.25 0.16123,0 3.36924,-6.46162 7.12892,-14.35915 z m 16.49199,-57.26938 C 402.22613,161.55078 407,149.70591 407,149.04954 c 0,-1.50343 -4.68471,-9.56064 -6.29529,-10.82725 -0.66259,-0.52108 -3.52794,-1.20841 -6.36744,-1.5274 l -5.16272,-0.57999 -6.94916,28.3125 c -3.82203,15.57187 -7.64982,29.71701 -8.50618,31.43365 -1.74445,3.49682 -1.83044,3.38727 5.28079,6.72692 l 4.5,2.11334 1.14139,-2.10066 c 0.62777,-1.15536 5.91527,-13.40849 11.75,-27.22918 z m -46.06611,6.89555 c 13.15577,-6.23047 24.29293,-20.40986 30.79229,-39.20352 2.65747,-7.68438 2.99594,-9.5181 1.82292,-9.87592 -0.79227,-0.24167 -3.96538,-3.00181 -7.05135,-6.13364 -9.01989,-9.15392 -12.29621,-21.98012 -8.42055,-32.964907 1.46651,-4.156551 1.46475,-4.163868 -1.25,-5.188569 C 358.97954,86.168038 354.03569,82.952766 347.92025,77 c -3.6727,-3.575 -7.09527,-7.30119 -7.60572,-8.280423 -0.87326,-1.675239 -1.25792,-1.634553 -6.51114,0.688668 C 319.84674,75.580538 298.89249,79.39723 282,78.843923 L 271.5,78.5 271.22097,91.75 c -0.15346,7.2875 -0.15346,13.24322 0,13.23494 0.15347,-0.008 2.07903,-0.66353 4.27903,-1.4561 5.43526,-1.95813 7.72373,-1.92136 7.32332,0.11764 -0.19478,0.99191 -2.23097,2.20223 -5.12173,3.04438 -2.63913,0.76884 -5.03769,2.02142 -5.33013,2.78351 -0.75674,1.97204 2.4064,16.76088 5.35266,25.02563 5.9802,16.77548 16.87439,33.16128 27.3469,41.1321 10.78146,8.20596 17.19959,10.40789 29.42898,10.09649 7.79616,-0.19851 9.91295,-0.66153 15.82528,-3.46157 z m -33.15529,-23.277 c 0.23829,-0.71486 2.37792,-1.87394 4.75473,-2.57573 7.8311,-2.31225 12.64584,-8.5649 14.5646,-18.91429 1.27746,-6.89032 2.85946,-7.83767 3.33984,-2 0.6543,7.95117 -3.85768,16.98192 -10.73795,21.49205 -4.06793,2.66659 -12.62197,4.10023 -11.92122,1.99797 z m -16.4984,-26.19175 c -0.96717,-1.546 -1.64802,-6.79893 -2.08007,-16.04827 -0.55764,-11.93795 -0.44126,-13.75 0.8831,-13.75 0.83896,0 1.57328,0.5625 1.63181,1.25 0.0585,0.6875 0.62104,7.1 1.25,14.25 l 1.14357,13 h 5 c 3.77778,0 5,0.36667 5,1.5 0,1.12284 -1.43205,1.575 -5.69532,1.79827 -5.02854,0.26335 -5.86364,0.0292 -7.13309,-2 z m -21.48189,-8.09634 c -4.59811,-4.89447 -3.35877,-11.84253 1.81924,-10.19909 2.80568,0.89049 5.44417,6.55568 4.6069,9.89164 -0.82029,3.26828 -3.5231,3.39759 -6.42614,0.30745 z m 46.8342,-12.39868 c -1.35779,-1.72615 -2.01377,-3.79566 -1.82258,-5.75 0.25877,-2.64528 0.69205,-3.05325 3.24263,-3.05325 2.26897,0 3.38176,0.74963 4.85349,3.26959 3.9757,6.80733 -1.48374,11.62291 -6.27354,5.53366 z M 315.66667,96.333333 c -1.25053,-1.250529 -0.66868,-2.280946 2.08333,-3.689405 4.90113,-2.508369 10.68417,-2.904528 17.3755,-1.190287 7.14744,1.831087 7.32272,1.935938 6.55984,3.923963 -0.49026,1.277591 -1.16242,1.283079 -5.28247,0.04313 -6.0808,-1.830052 -11.55211,-1.803043 -16.05711,0.07927 -4.17555,1.744657 -3.82942,1.683011 -4.67909,0.833333 z M 111.41731,224.05448 98.334617,213.07222 61.578081,212.78611 24.821545,212.5 22.867032,210.0852 c -1.851829,-2.28794 -1.939081,-3.88147 -1.660773,-30.33179 0.276687,-26.29616 0.406442,-27.99934 2.234871,-29.3352 C 25.062716,149.23346 34.708474,149 82.036142,149 c 53.615368,0 56.742648,0.0981 58.308868,1.82874 1.45863,1.61177 1.65499,5.21591 1.65499,30.37756 0,24.3988 -0.22229,28.73329 -1.52917,29.81791 -0.84104,0.698 -4.55354,1.37259 -8.25,1.49909 l -6.72083,0.23 -0.5,11.14172 -0.5,11.14172 z M 61,190.5 c 0,-2.33333 -0.333333,-2.5 -5,-2.5 h -5 v -11 -11 h -3 -3 v 13.5 13.5 h 8 c 7.866667,0 8,-0.0417 8,-2.5 z M 71.779025,179.25 72.05805,166 H 69.029025 66 v 12.83333 c 0,7.05834 0.318982,13.15232 0.708849,13.54219 0.389867,0.38986 1.627367,0.57736 2.75,0.41666 1.921015,-0.27498 2.057574,-1.07203 2.320176,-13.54218 z m 17.96799,12.5 c 0.545548,-0.6875 2.685261,-6.2 4.754918,-12.25 2.069658,-6.05 3.989228,-11.59555 4.265711,-12.32344 0.366701,-0.96541 -0.374597,-1.23594 -2.740143,-1 -3.463936,0.34549 -3.647508,0.68211 -7.129406,13.07344 -0.734099,2.6125 -1.601833,4.75 -1.928299,4.75 -0.326465,0 -1.887874,-4.05 -3.469796,-9 -2.722062,-8.51762 -3.026935,-9 -5.688111,-9 C 76.26535,166 75,166.19389 75,166.43086 c 0,0.76807 8.02004,24.79255 8.577617,25.69473 0.809757,1.31021 5.035833,1.05293 6.169398,-0.37559 z m 28.072535,-1.5 c 0.29533,-2.07947 -0.0647,-2.25 -4.75,-2.25 C 108.14505,188 108,187.91723 108,185.10699 108,181.95905 109.42019,181 114.08179,181 116.52788,181 117,180.59554 117,178.5 c 0,-2.2963 -0.36667,-2.5 -4.5,-2.5 -4.10644,0 -4.5,-0.21385 -4.5,-2.44521 0,-2.20765 0.46148,-2.47482 4.75,-2.75 4.05349,-0.2601 4.79686,-0.63471 5.06955,-2.55479 0.30874,-2.17385 0.0464,-2.25 -7.75,-2.25 H 102 v 12.83333 c 0,7.05834 0.31784,13.15118 0.70631,13.53965 0.38847,0.38847 3.87597,0.57597 7.75,0.41667 6.44016,-0.26483 7.07107,-0.48244 7.36324,-2.53965 z"
         id="path3" />
      <path
         style="fill:#0a0916"
         d="m 498,449.39827 c -15.89823,-2.96712 -52.99163,-10.68649 -54.6478,-11.37255 -1.18129,-0.48934 -26.74287,-6.79565 -56.8035,-14.01403 l -54.65569,-13.12431 -7.55621,1.6811 c -8.79448,1.95658 -16.48678,1.41598 -22.33982,-1.57002 l -3.85499,-1.96667 -3.82099,4.34869 c -2.10155,2.39179 -4.81986,6.32213 -6.0407,8.73411 l -2.2197,4.38541 38.2197,0.5 c 41.28078,0.54005 41.15041,0.52272 46.42197,6.16863 2.71242,2.90504 5.29773,8.90855 5.29773,12.30219 v 2.53506 L 209.87389,447.75294 43.747773,447.5 21.837235,366 C 5.4320447,304.97809 0.04138897,283.52972 0.38315767,280.63842 0.84319283,276.74661 4.7473363,271.51832 7.9260678,270.53723 12.344331,269.17357 163.67535,245.00136 167.74407,245.00938 c 6.05018,0.0119 13.80539,4.28462 17.50734,9.64555 2.02352,2.93032 5.99776,16.3159 16.70543,56.26527 7.72763,28.83111 14.20453,52.57451 14.39312,52.7631 0.18859,0.18859 3.77385,-1.22065 7.96724,-3.13164 10.25953,-4.67542 23.46569,-9.2846 33.1828,-11.58138 8.54076,-2.01874 37.12586,-5.45801 54.62264,-6.57203 l 10.62265,-0.67635 0.68542,-22.61095 c 1.31428,-43.35575 2.31398,-56.86973 4.98509,-67.3883 2.87903,-11.33738 9.56446,-26.05459 16.04997,-35.3322 2.58698,-3.7007 4.54932,-7.6467 4.56936,-9.18836 0.0427,-3.28433 2.37898,-14.44509 3.35405,-16.02278 0.38682,-0.62589 0.24291,-1.99823 -0.31979,-3.04965 -0.96299,-1.79937 -1.27414,-1.82351 -5.29624,-0.41103 -15.33289,5.38463 -33.58216,0.52188 -48.15504,-12.83151 C 285.56253,162.92404 274.08986,141.13329 270.30446,121.10925 269.24226,115.4904 268.11029,112 267.35023,112 c -1.92818,0 -2.64537,-1.93945 -1.31151,-3.54665 0.81579,-0.98297 1.27662,-6.6674 1.41233,-17.421396 l 0.20144,-15.962357 -4.54001,-1.546938 C 253.22354,70.15316 246.76124,63.152929 244.78037,53.664585 242.47654,42.629223 249.39609,30.795743 261.5,25.071508 c 5.86412,-2.773288 17.02127,-3.849927 22.94544,-2.214183 5.83661,1.611565 5.58025,0.52749 -0.5501,-2.326226 C 274.99199,16.38654 261.51944,17.8592 251.38197,24.085075 247.67465,26.361906 246,26.516391 246,24.581559 c 0,-3.109593 13.71013,-9.059898 23.53577,-10.214709 6.14367,-0.722067 14.37297,1.40338 19.86576,5.130889 l 3.74576,2.541938 1.83779,-2.269838 c 1.76675,-2.182098 2.43071,-2.269468 17.17636,-2.260247 14.37054,0.009 15.77209,0.182546 22.20796,2.750128 19.1448,7.63779 35.20824,23.076884 49.09724,47.188956 2.67713,4.647643 2.74085,5.012629 1.04746,6 -5.06015,2.950435 -10.16846,7.530682 -13.00363,11.659384 l -3.16434,4.608059 -3.92307,-1.522735 c -8.20501,-3.184773 -20.49968,-13.147185 -24.04646,-19.48492 -0.93061,-1.662916 -1.32588,-1.620836 -6.57321,0.699781 C 319.84674,75.580538 298.89249,79.39723 282,78.843923 L 271.5,78.5 271.22097,91.75 c -0.15346,7.2875 -0.15346,13.24322 0,13.23494 0.15347,-0.008 2.07903,-0.66353 4.27903,-1.4561 5.43526,-1.95813 7.72373,-1.92136 7.32332,0.11764 -0.19478,0.99191 -2.23097,2.20223 -5.12173,3.04438 -2.63913,0.76884 -5.03769,2.02142 -5.33013,2.78351 -0.75674,1.97204 2.4064,16.76088 5.35266,25.02563 8.19658,22.99278 22.25604,40.45496 38.81456,48.20858 5.33789,2.4995 7.05939,2.79142 16.46132,2.79142 9.7604,0 10.98076,-0.2277 17.32528,-3.23269 13.10596,-6.20743 24.2956,-20.41602 30.72716,-39.01731 1.75906,-5.0875 3.50586,-9.25 3.88179,-9.25 0.37593,0 1.46325,0.57016 2.41627,1.26703 1.61572,1.18144 1.26607,3.16608 -5.17629,29.38105 -3.79998,15.46272 -7.60722,29.51355 -8.46054,31.22407 -1.74383,3.49558 -1.84815,3.3662 5.47276,6.78708 l 4.68644,2.18986 10.71092,-25.17455 c 14.09434,-33.12679 13.37927,-30.38818 9.5567,-36.60064 -3.70328,-6.01859 -3.7139,-6.0739 -1.16617,-6.0739 1.14316,0 2.57396,1.15957 3.39869,2.75442 0.98734,1.90932 4.29972,4.21046 10.7959,7.5 5.15434,2.61007 9.89504,4.74558 10.53489,4.74558 0.63984,0 1.30575,1.22806 1.47978,2.72902 0.30764,2.65333 1.46749,3.12668 41.81642,17.06577 l 41.5,14.33675 36.68125,71.70838 c 20.17469,39.43961 37.80789,75.07251 39.1849,79.18423 11.93309,35.63203 -1.80995,76.77744 -32.69285,97.87943 -6.67436,4.56054 -19.89325,10.54262 -27.6733,12.52331 -6.43761,1.63892 -25.18164,2.87064 -30,1.97138 z m 30.5,-5.78506 c 8.78305,-2.37872 23.08214,-9.76282 30.29647,-15.64521 26.40745,-21.53202 36.82218,-58.27781 25.74674,-90.84096 -1.25828,-3.69949 -11.50581,-24.704 -22.77229,-46.67669 C 550.50444,268.47766 534.40696,237 525.99875,220.5 517.59054,204 510.37627,190.12267 509.96704,189.6615 c -0.83357,-0.9394 -80.28038,-28.60819 -80.79501,-28.13833 -0.25754,0.23513 -5.04993,72.12756 -5.14799,77.22683 -0.0469,2.4377 -3.26864,1.15588 -17.15554,-6.82558 -7.72787,-4.44157 -14.29247,-7.83378 -14.58801,-7.53824 -0.83998,0.83997 32.47146,123.84248 33.7535,124.63482 0.62762,0.3879 5.26422,1.00357 10.30357,1.36817 5.03934,0.36459 14.00141,1.17471 19.91572,1.80026 5.9143,0.62554 10.97847,0.91215 11.25371,0.63691 0.27525,-0.27524 -1.52623,-15.38599 -4.00327,-33.57943 -5.20444,-38.22563 -5.6438,-49.83825 -2.47413,-65.39212 3.82521,-18.77061 9.9678,-32.33384 21.78596,-48.10479 6.04489,-8.06669 9.18445,-10.62879 9.18445,-7.49512 0,0.69019 -2.46374,4.52989 -5.47497,8.53267 -18.40404,24.46418 -26.56252,51.92905 -23.59979,79.44676 1.42487,13.23413 8.78507,66.82047 9.233,67.22142 0.32517,0.29106 41.19101,4.54427 43.66243,4.54427 1.29165,0 1.63436,2.63088 0.42933,3.29581 -0.4125,0.22762 -14.925,-1.01994 -32.25,-2.77234 -17.325,-1.75241 -31.78585,-2.92458 -32.13523,-2.60483 -0.84778,0.77588 -3.69643,78.37582 -2.9116,79.31443 0.33714,0.40319 11.39809,2.98921 24.5799,5.74672 22.799,4.76932 24.57606,4.99523 36.46693,4.63602 7.19921,-0.21749 15.04438,-1.06672 18.5,-2.0026 z M 445.02715,428.75 c 0.0149,-2.8875 0.65546,-20.54696 1.42341,-39.24325 0.76795,-18.69629 1.29202,-34.09751 1.1646,-34.22492 -0.12742,-0.12742 -15.05545,-1.60895 -33.17341,-3.29228 C 396.32379,350.30621 373.175,347.99307 363,346.84924 c -14.72745,-1.65561 -21.96667,-1.96321 -35.5,-1.50846 -19.26296,0.64728 -53.04092,3.91104 -65,6.28054 -11.18054,2.21526 -27.35511,7.76831 -37.00352,12.70407 l -8.16054,4.17461 2.48772,9.25 c 1.36826,5.0875 2.91143,9.25 3.42928,9.25 0.51784,0 3.01761,-2.30909 5.55503,-5.13131 4.70806,-5.2365 20.37178,-17.87604 25.33163,-20.44088 1.74238,-0.90102 2.97208,-1.05612 3.36267,-0.42414 0.90802,1.46921 -0.0858,2.62038 -5.30329,6.14297 -8.47731,5.72346 -17.75168,13.68393 -23.08077,19.81092 l -5.23742,6.02159 2.61583,9.76043 C 230.08879,416.14301 230.04141,416 230.89001,416 c 0.41538,0 2.47538,-3.434 4.57778,-7.6311 C 242.05807,395.21244 259.9309,374 264.42576,374 c 2.85625,0 1.66253,1.89613 -6.17576,9.80977 C 245.30359,396.88063 234,415.58885 234,423.94519 V 427 h 9.27714 9.27715 l 4.09948,-8.25 c 2.25472,-4.5375 6.20097,-11.03965 8.76945,-14.44922 C 270.0903,398.10539 279.4243,389 281.10815,389 c 2.19872,0 0.45894,3.57053 -4.70696,9.66006 -6.26724,7.38777 -13.6211,21.51995 -13.18597,25.33994 0.27782,2.4389 0.50755,2.50698 9.39994,2.78574 l 9.11517,0.28574 2.74179,-5.60402 c 1.50799,-3.08221 5.09059,-8.12745 7.96135,-11.21164 l 5.21955,-5.60762 5.36984,2.6759 c 6.29286,3.13586 13.05479,3.49071 22.41325,1.17618 L 331.5,407.00057 387,420.42882 c 30.525,7.38554 56.0625,13.46041 56.75,13.49972 0.84714,0.0484 1.25875,-1.62055 1.27715,-5.17854 z m -185.05895,-4.5 c -0.0305,-2.63406 -0.0937,-2.66816 -1.5,-0.80887 -1.87079,2.4734 -1.86109,3.55887 0.0318,3.55887 0.97741,0 1.48892,-0.95809 1.4682,-2.75 z M 109.36653,377.72459 c 3.94565,-2.78971 6.58612,-9.07502 6.60593,-15.72459 0.0221,-7.42877 -1.4261,-12.12819 -5.30466,-17.21333 C 106.00331,338.67112 101.61128,336 96.220151,336 86.761748,336 81,343.25171 81,355.156 c 0,18.00514 16.38419,31.04051 28.36653,22.56859 z m -14.636929,-3.56455 c -8.349396,-5.50553 -11.948616,-17.5737 -8.10565,-27.17822 3.327975,-8.31743 12.319249,-9.18152 19.009079,-1.82683 7.74788,8.51789 8.21062,24.44131 0.85042,29.26389 -3.21124,2.10409 -8.341695,1.99111 -11.753849,-0.25884 z M 420.55217,346.25 c -1.419,-5.87113 -30.70487,-114.93931 -31.71979,-118.13272 l -1.07509,-3.38272 -7.12864,14.38272 c -3.92076,7.9105 -7.57376,14.32376 -8.11778,14.2517 -0.54401,-0.072 -5.38205,-8.95955 -10.75118,-19.75 C 356.39055,222.82854 351.61187,214 351.14039,214 c -2.38339,0 -12.94303,19.1439 -16.78439,30.42893 -4.39957,12.92492 -5.4324,22.05539 -6.77029,59.85077 -0.70517,19.92117 -1.09887,36.5578 -0.8749,36.9703 0.22397,0.4125 6.11817,0.7499 13.09821,0.74978 6.98004,-1.2e-4 23.04098,1.11476 35.69098,2.47751 24.98944,2.69203 39.66081,4.17682 43.35841,4.38801 2.0853,0.1191 2.28144,-0.18375 1.69376,-2.6153 z M 379.8994,232.64085 c 3.75967,-7.89753 7.24623,-14.61282 7.74791,-14.92287 0.50167,-0.31006 7.9931,3.51972 16.6476,8.51062 8.65451,4.9909 15.89816,8.89369 16.09702,8.67288 0.19885,-0.22081 1.32316,-16.60148 2.49847,-36.40148 1.17532,-19.8 2.32657,-37.45681 2.55835,-39.23736 0.39948,-3.06894 0.0946,-3.42012 -5.85977,-6.75 C 416.13433,150.58069 412.88558,149 412.36953,149 c -0.51605,0 -6.54781,13.3185 -13.4039,29.59667 -6.8561,16.27816 -12.98728,29.81063 -13.62486,30.07215 -0.63757,0.26152 -7.74754,-2.68523 -15.79993,-6.54833 -9.53596,-4.57485 -14.77964,-6.60485 -15.0392,-5.82216 -0.21918,0.66092 -0.79191,3.22667 -1.27275,5.70167 -0.85159,4.38342 -0.61359,5.0246 9.18711,24.75 5.53374,11.1375 10.19326,20.25 10.35448,20.25 0.16123,0 3.36924,-6.46162 7.12892,-14.35915 z m -62.72941,-73.65083 c 0.23829,-0.71486 2.37792,-1.87394 4.75473,-2.57573 7.8311,-2.31225 12.64584,-8.5649 14.5646,-18.91429 1.27746,-6.89032 2.85946,-7.83767 3.33984,-2 0.6543,7.95117 -3.85768,16.98192 -10.73795,21.49205 -4.06793,2.66659 -12.62197,4.10023 -11.92122,1.99797 z m -16.4984,-26.19175 c -0.96717,-1.546 -1.64802,-6.79893 -2.08007,-16.04827 -0.55764,-11.93795 -0.44126,-13.75 0.8831,-13.75 0.83896,0 1.57328,0.5625 1.63181,1.25 0.0585,0.6875 0.62104,7.1 1.25,14.25 l 1.14357,13 h 5 c 3.77778,0 5,0.36667 5,1.5 0,1.12284 -1.43205,1.575 -5.69532,1.79827 -5.02854,0.26335 -5.86364,0.0292 -7.13309,-2 z m -21.48189,-8.09634 c -4.59811,-4.89447 -3.35877,-11.84253 1.81924,-10.19909 2.80568,0.89049 5.44417,6.55568 4.6069,9.89164 -0.82029,3.26828 -3.5231,3.39759 -6.42614,0.30745 z m 46.8342,-12.39868 c -1.35779,-1.72615 -2.01377,-3.79566 -1.82258,-5.75 0.25877,-2.64528 0.69205,-3.05325 3.24263,-3.05325 2.26897,0 3.38176,0.74963 4.85349,3.26959 3.9757,6.80733 -1.48374,11.62291 -6.27354,5.53366 z M 315.66667,96.333333 c -1.25053,-1.250529 -0.66868,-2.280946 2.08333,-3.689405 4.90113,-2.508369 10.68417,-2.904528 17.3755,-1.190287 7.14744,1.831087 7.32272,1.935938 6.55984,3.923963 -0.49026,1.277591 -1.16242,1.283079 -5.28247,0.04313 -6.0808,-1.830052 -11.55211,-1.803043 -16.05711,0.07927 -4.17555,1.744657 -3.82942,1.683011 -4.67909,0.833333 z M 385.793,63.610111 C 371.92836,39.751578 354.01901,23.113446 334.76197,16.201281 328.41033,13.921413 325.89603,13.588723 314.70472,13.547328 L 301.90944,13.5 l 2.79528,-2.283364 c 4.84266,-3.9557938 15.21512,-8.3641599 23.5382,-10.0038963 16.85059,-3.319747 31.85386,1.7101116 50.77271,17.0215883 11.0165,8.915917 17.15894,16.375577 21.39378,25.981568 2.66007,6.033917 5.59246,18.096636 5.58669,22.981509 l -0.004,3.302595 -8.03368,0.110111 -8.03369,0.110112 z"
         id="path2" />
    </g>
  </g>
</svg>
