<?xml version="1.0" encoding="UTF-8" standalone="no"?>
<!-- Created with Inkscape (http://www.inkscape.org/) -->

<svg
   version="1.1"
   id="svg1"
   width="502"
   height="450"
   viewBox="0 0 502 450"
   sodipodi:docname="VIDEO_04.svg"
   inkscape:version="1.3.2 (091e20e, 2023-11-25, custom)"
   xmlns:inkscape="http://www.inkscape.org/namespaces/inkscape"
   xmlns:sodipodi="http://sodipodi.sourceforge.net/DTD/sodipodi-0.dtd"
   xmlns="http://www.w3.org/2000/svg"
   xmlns:svg="http://www.w3.org/2000/svg">
  <defs
     id="defs1" />
  <sodipodi:namedview
     id="namedview1"
     pagecolor="#ffffff"
     bordercolor="#000000"
     borderopacity="0.25"
     inkscape:showpageshadow="2"
     inkscape:pageopacity="0.0"
     inkscape:pagecheckerboard="0"
     inkscape:deskcolor="#d1d1d1"
     showgrid="false"
     inkscape:zoom="1.5996016"
     inkscape:cx="251"
     inkscape:cy="224.74346"
     inkscape:window-width="1920"
     inkscape:window-height="1001"
     inkscape:window-x="-9"
     inkscape:window-y="-9"
     inkscape:window-maximized="1"
     inkscape:current-layer="g1" />
  <g
     inkscape:groupmode="layer"
     inkscape:label="Image"
     id="g1">
    <g
       id="g2"
       transform="translate(0.0671109,0.00641908)">
      <path
         style="fill:#fdfdfd"
         d="M 0,225 V 0 H 251 502 V 225 450 H 251 0 Z"
         id="path5" />
      <path
         style="fill:#f76a53"
         d="M 124,449.35133 C 108.48697,447.28489 90.744345,441.96193 82,436.75091 62.181861,424.94069 57.79492,409.08856 70.553243,395.38825 72.998959,392.76196 75,390.44164 75,390.23198 c 0,-0.20966 -6.178691,-13.28512 -13.730424,-29.05659 -11.680151,-24.39348 -16.831809,-33.69822 -34.5,-62.31265 L 6,265.22548 V 204.86521 144.50495 L 2.9325623,135.29758 -0.13487542,126.09021 10.932562,109.8747 C 17.019653,100.95617 22,92.676643 22,91.475744 22,90.274845 19.331622,72.818373 16.07027,52.683584 9.6111445,12.806515 9.588784,12.019018 14.741738,5.8950802 19.734401,-0.03836294 19.374516,-0.00155408 72.217881,0.01645042 120.30743,0.03283523 120.51595,0.04180904 124.5,2.2664504 127.22844,3.789979 129.18432,5.9305008 130.65269,9 c 1.64937,3.447842 6.53462,31.820323 20.89384,121.34694 l 18.74114,116.84694 -2.14384,5.17239 C 166.75165,255.72515 166,259.67735 166,263.63855 c 0,3.97954 -2.60728,17.61691 -7.50064,39.23215 l -7.50064,33.13225 15.25064,21.14241 c 12.35257,17.12475 15.91574,21.40901 18.75064,22.54532 15.77254,6.32207 27.00109,14.54867 30.92713,22.65879 2.58544,5.3408 2.6629,12.77218 0.1892,18.15053 -5.34567,11.6226 -23.99791,22.32013 -47.14489,27.03878 -7.38081,1.50462 -38.0143,2.73929 -44.97144,1.81255 z m 35.58004,-21.98837 c 3.34403,-0.8364 9.19403,-3.19963 13,-5.25162 5.62919,-3.03499 7.50641,-4.70433 10.06401,-8.94958 3.95856,-6.57065 4.76858,-10.85718 3.3463,-17.70827 -0.96977,-4.67133 -3.73084,-9.02114 -20.05746,-31.59867 C 155.5198,349.45492 147,337.06407 147,336.31961 c 0,-1.53372 2.65335,-13.83148 9.95534,-46.14103 C 159.7299,277.90181 162,266.04116 162,263.8216 c 0,-3.50321 -0.23086,-3.92253 -1.75,-3.17859 -0.9625,0.47135 -24.025,0.97248 -51.25,1.11364 -48.630139,0.25213 -49.559737,0.22004 -52.899352,-1.82613 l -3.399353,-2.08278 7.205197,-7.2536 c 6.841657,-6.88763 7.66909,-7.39808 16.399352,-10.11687 11.934151,-3.71655 15.400508,-5.4842 19.889442,-10.14254 6.291474,-6.52889 10.588844,-19.27734 6.054714,-17.96173 -0.9625,0.27928 -11.425,1.91318 -23.25,3.6309 l -21.5,3.12313 -21.88418,14.52839 c -16.618225,11.03245 -22.088837,14.2055 -22.734687,13.18649 -0.467779,-0.73805 -0.857398,-1.61514 -0.86582,-1.94909 -0.0084,-0.33395 6.397187,-4.82053 14.234687,-9.97018 10.130373,-6.65618 17.294927,-12.32853 24.782557,-19.62093 l 10.532558,-10.25794 20.738809,-2.48454 c 21.992066,-2.63469 27.631456,-4.23289 33.037656,-9.36284 4.61075,-4.37515 9.96032,-16.1872 7.33861,-16.20391 -0.6491,-0.004 -16.48019,1.17506 -35.18019,2.62044 l -34,2.62797 -17.5,15.03825 c -9.625,8.27104 -19.4125,16.86054 -21.75,19.08777 L 10,220.41642 v 21.5869 21.58691 l 20.63576,33.45488 c 18.964254,30.74503 22.144665,36.60612 39.2641,72.35877 l 18.628339,38.90388 13.339161,7.79895 C 120.85682,427.2092 131.2657,430.33845 146,429.3744 c 4.125,-0.26989 10.23602,-1.17504 13.58004,-2.01144 z M 25.454307,200.98974 38.847034,189.5 39.173517,176.50575 39.5,163.5115 l 20,-6.57568 c 11,-3.61662 21.077429,-7.15729 22.394287,-7.86815 3.687228,-1.99043 11.130329,-9.16241 13.661907,-13.16426 C 98.158609,131.78958 101.31662,122 100.04128,122 99.573268,122 85.085023,125.64736 67.845176,130.10525 50.605329,134.56313 30.65,139.68559 23.5,141.48849 l -13,3.27799 -0.263231,34.2045 c -0.180322,23.43125 0.0656,34.0949 0.78079,33.8565 0.574212,-0.1914 7.070749,-5.51839 14.436748,-11.83774 z m 9.278303,-66.44828 c 0.127935,-0.0953 -0.267632,-1.49864 -0.879038,-3.11843 -1.004867,-2.6622 -0.596244,-3.95262 4.254035,-13.43406 5.306808,-10.37388 5.365828,-10.58772 5.379037,-19.48897 0.01201,-8.094625 -0.281237,-9.531741 -2.915083,-14.285847 -2.32598,-4.198405 -3.17247,-5.021313 -4.114625,-4 C 33.682256,83.221957 5,126.19923 5,127.34898 c 0,0.69447 0.916328,3.97607 2.0362845,7.29245 l 2.0362845,6.02976 12.713715,-2.97819 c 6.992544,-1.63801 12.81839,-3.05621 12.946326,-3.15154 z M 320.22251,424.4433 C 318.00021,422.88674 318,422.88333 318,389.01472 c 0,-29.45927 0.20471,-34.07658 1.57143,-35.44329 C 320.91871,352.22415 324.81937,352 346.91783,352 H 372.6928 L 384.5964,341.87266 396.5,331.74532 396.78498,341.87266 397.06997,352 H 402.88 c 9.55751,0 9.12,-1.78802 9.12,37.27204 0,33.60271 -7.8e-4,33.6151 -2.22251,35.17126 C 407.85048,425.79303 401.89712,426 365,426 c -36.89712,0 -42.85048,-0.20697 -44.77749,-1.5567 z M 365.19027,396.75 c 7.02141,-3.9875 12.76422,-7.475 12.76178,-7.75 -0.005,-0.5519 -25.38509,-15 -26.34969,-15 -0.3313,0 -0.60236,6.75 -0.60236,15 0,8.25 0.32041,15 0.71203,15 0.39161,0 6.45682,-3.2625 13.47824,-7.25 z m 87.33137,-24.9579 c -1.22721,-0.71155 -5.8783,-1.05013 -12.25,-0.89174 L 430,371.15568 V 355.07784 339 h 9.5 c 6.56731,0 9.5,0.35988 9.5,1.16578 0,0.64118 1.77324,-1.36559 3.94052,-4.4595 2.80026,-3.9975 4.03008,-6.86682 4.25,-9.91578 0.27118,-3.75945 0.62568,-4.32733 2.86414,-4.58807 1.48738,-0.17326 3.71494,0.6151 5.33192,1.88701 2.56088,2.01439 2.75139,2.6415 2.44533,8.0494 l -0.33191,5.8648 9.22695,-0.002 c 8.72381,-0.002 9.3157,0.13363 10.8546,2.4823 1.55756,2.37714 1.42287,3.04631 -3.1274,15.5377 -6.28871,17.26378 -7.10841,17.98918 -20.28088,17.94777 -5.40093,-0.017 -10.54704,-0.53703 -11.65163,-1.17749 z m 22.35171,-5.13949 C 476.20895,365.0433 484,344.30463 484,342.35874 484,341.29252 481.52417,341 472.5,341 c -6.325,0 -11.5,-0.17004 -11.5,-0.37788 0,-0.20783 0.70011,-2.05347 1.55579,-4.10141 1.74933,-4.18672 1.58659,-9.65581 -0.30579,-10.27703 -0.82447,-0.27065 -1.25,0.67526 -1.25,2.77863 0,1.99294 -0.99447,4.36828 -2.65154,6.33333 -1.45834,1.7294 -3.26438,4.60686 -4.01342,6.39436 -0.74903,1.7875 -2.03084,3.25 -2.84846,3.25 -1.21511,0 -1.48658,1.80386 -1.48658,9.87803 0,9.11217 0.17445,9.99971 2.25,11.44755 3.00176,2.09392 20.94173,2.35325 22.62335,0.32703 z M 287.75566,326.24521 C 282.28204,322.8514 282,320.97731 282,288 c 0,-25.87788 0.23387,-30.69058 1.63484,-33.64292 2.10792,-4.44211 6.4932,-6.73737 11.57101,-6.0563 4.93473,0.66189 16.89157,8.28178 16.126,10.27683 -0.7838,2.04254 -2.35537,1.77045 -6.65694,-1.15255 -6.5968,-4.48264 -10.52823,-5.72846 -13.80026,-4.37314 -4.6053,1.90758 -5.0354,5.32834 -4.68807,37.28597 l 0.31342,28.83789 2.81031,2.41603 c 2.09874,1.80428 3.49135,2.25569 5.5,1.78283 3.56538,-0.83934 50.83813,-28.08091 53.28279,-30.70494 2.45537,-2.63554 2.43986,-7.13674 -0.0331,-9.60973 -1.06702,-1.06702 -4.90511,-3.6454 -8.52909,-5.72973 -3.97205,-2.28452 -6.4782,-4.36059 -6.30996,-5.2271 0.50308,-2.59112 2.17586,-2.15666 10.20705,2.65099 11.94512,7.15062 14.50691,14.18842 7.6438,20.99911 -2.32982,2.31203 -41.59543,25.55474 -51.77211,30.64575 -4.09593,2.04904 -8.07676,1.99601 -11.544,-0.15378 z m 142.16071,-19.70068 c -21.6706,-5.52123 -38.07503,-21.63248 -43.58891,-42.80988 -2.04522,-7.85516 -1.99681,-22.50012 0.0966,-29.23465 0.85484,-2.75 1.55913,-5.5625 1.56509,-6.25 0.009,-0.99027 -17.62901,-1.25 -84.88384,-1.25 -81.85922,0 -85.12449,-0.071 -91.32213,-1.98524 -29.2926,-9.04756 -43.81835,-42.52808 -30.50779,-70.31761 7.12169,-14.86852 19.39076,-24.46631 35.9472,-28.12058 l 2.72262,-0.60093 0.27738,-13.92483 L 220.5,98.125984 235.46273,112.06299 250.42546,126 h 88.60577 c 78.57234,0 89.22081,0.18248 94.03727,1.61152 17.13655,5.08441 30.32804,18.26987 35.33612,35.31998 2.03808,6.93867 2.05148,20.16963 0.0273,26.98563 -0.86242,2.90408 -1.42492,5.39181 -1.25,5.52831 0.17492,0.13649 2.79303,1.5546 5.81803,3.15136 3.025,1.59676 8.43349,5.85727 12.01888,9.46779 18.03329,18.15976 22.14123,45.61423 10.21969,68.30096 -6.95592,13.23713 -18.2696,22.96105 -32.99702,28.36039 -8.48145,3.10945 -23.86228,3.97477 -32.32518,1.81859 z m 31.15494,-5.93455 c 18.08391,-6.28896 31.50075,-21.68849 35.57204,-40.82875 5.87364,-27.61351 -11.86023,-55.90011 -39.68869,-63.30589 -7.12443,-1.89596 -20.02045,-1.86969 -27.41311,0.0559 -14.66027,3.81852 -28.45422,15.10583 -34.79105,28.46881 -8.09357,17.06759 -7.78023,33.63594 0.95034,50.25025 12.10961,23.04463 40.43267,34.03224 65.37047,25.35973 z M 432,291.63296 c -2.475,-0.72384 -6.50493,-2.34367 -8.95541,-3.59963 -5.09297,-2.61033 -14.68958,-11.42294 -17.32175,-15.90663 -1.72141,-2.93228 -1.716,-3.05999 0.17237,-4.07062 1.65329,-0.88481 2.26415,-0.53429 4.02002,2.30676 8.0247,12.98423 24.91346,20.48849 39.89711,17.72764 24.41604,-4.49883 38.83376,-29.00196 30.67362,-52.13027 -1.36026,-3.85539 -1.36427,-4.51047 -0.0358,-5.83895 1.32849,-1.32849 1.74922,-0.94242 3.75016,3.44119 3.23478,7.08665 3.25182,23.45805 0.0327,31.43755 -4.49773,11.14899 -14.34662,20.95324 -25.23306,25.1187 -6.85795,2.62404 -20.57493,3.39334 -27,1.51426 z m -9.54545,-46.08751 C 421.10455,244.19545 420,242.375 420,241.5 c 0,-2.05875 4.44125,-6.5 6.5,-6.5 2.05875,0 6.5,4.44125 6.5,6.5 0,2.05875 -4.44125,6.5 -6.5,6.5 -0.875,0 -2.69545,-1.10455 -4.04545,-2.45455 z m 19.76796,-10.10215 c -4.62814,-3.24167 -1.76126,-11.4433 4,-11.4433 2.57856,0 5.77749,3.59897 5.77749,6.5 0,2.90103 -3.19893,6.5 -5.77749,6.5 -0.97763,0 -2.77763,-0.70052 -4,-1.5567 z M 394,217.36553 c 7.33541,-11.75557 21.89569,-22.06117 36,-25.48037 7.09144,-1.71913 22.17756,-1.5058 28.19234,0.39866 l 4.69234,1.48574 1.14088,-3.13478 c 0.62748,-1.72413 1.38407,-6.73478 1.68132,-11.13478 0.96354,-14.26268 -3.63226,-26.20587 -13.90111,-36.12514 C 448.88759,140.55604 444.475,137.09194 442,135.67686 431.92245,129.91505 433.49364,130 337.0018,130 H 248.42381 L 236.2119,118.41684 224,106.83367 v 11.38309 11.38309 l -6.25,1.28462 c -19.08294,3.9223 -33.65085,19.22843 -36.8308,38.69718 -3.73096,22.84217 11.34359,45.8685 34.0808,52.05832 3.3794,0.91998 25.79136,1.23868 90,1.27982 l 85.5,0.0548 z M 233,187 c 0,-1.98519 0.66667,-2 90,-2 89.33333,0 90,0.0148 90,2 0,1.98519 -0.66667,2 -90,2 -89.33333,0 -90,-0.0148 -90,-2 z m 0,-21 c 0,-1.98519 0.66667,-2 90,-2 89.33333,0 90,0.0148 90,2 0,1.98519 -0.66667,2 -90,2 -89.33333,0 -90,-0.0148 -90,-2 z m 68.82099,131.97483 c -3.67496,-3.67495 -3.30626,-7.03836 1.23048,-11.22483 2.42045,-2.23357 3.91608,-2.75 7.96431,-2.75 H 316 v -12 c 0,-6.6 0.28041,-12 0.62313,-12 1.77767,0 12.37687,6.64734 12.37687,7.76221 0,2.10481 -2.72922,2.54086 -5.17613,0.82698 C 322.57599,267.71514 321.20512,267 320.77749,267 320.34987,267 320,272.97487 320,280.27749 c 0,14.53547 -0.59079,16.4253 -6.01104,19.22822 -4.66456,2.41213 -8.73737,1.89972 -12.16797,-1.53088 z m 9.55311,-1.92696 C 316.98505,293.91459 316.78365,288 311.10006,288 c -5.33988,0 -8.94027,4.75979 -5.90006,7.8 1.44875,1.44875 2.8659,1.50564 6.1741,0.24787 z M 165.6758,107.25 c 1.95911,-4.2625 5.94885,-13.0375 8.86609,-19.5 L 179.84597,76 h -7.28813 c -5.859,0 -7.80479,-0.40641 -9.92298,-2.07258 L 160,71.85484 V 38.5 5.1451603 l 2.63486,-2.0725802 C 165.24367,1.0204924 165.96411,1 235.5,1 c 69.53589,0 70.25633,0.020492 72.86514,2.0725801 L 311,5.1451603 V 38.5 71.85484 l -2.63486,2.07258 C 305.78472,75.957181 304.76276,76 258.89857,76 h -46.83172 l -24.42764,19.5 c -13.4352,10.725 -24.67464,19.5 -24.97653,19.5 -0.30189,0 1.05401,-3.4875 3.01312,-7.75 z"
         id="path4" />
      <path
         style="fill:#616263"
         d="M 124,449.35133 C 108.48697,447.28489 90.744345,441.96193 82,436.75091 62.181861,424.94069 57.79492,409.08856 70.553243,395.38825 72.998959,392.76196 75,390.44164 75,390.23198 c 0,-0.20966 -6.178691,-13.28512 -13.730424,-29.05659 -11.680151,-24.39348 -16.831809,-33.69822 -34.5,-62.31265 L 6,265.22548 V 204.86521 144.50495 L 2.9325623,135.29758 -0.13487542,126.09021 10.932562,109.8747 C 17.019653,100.95617 22,92.676643 22,91.475744 22,90.274845 19.331622,72.818373 16.07027,52.683584 9.6111445,12.806515 9.588784,12.019018 14.741738,5.8950802 19.734401,-0.03836294 19.374516,-0.00155408 72.217881,0.01645042 120.30743,0.03283523 120.51595,0.04180904 124.5,2.2664504 127.22844,3.789979 129.18432,5.9305008 130.65269,9 c 1.64937,3.447842 6.53462,31.820323 20.89384,121.34694 l 18.74114,116.84694 -2.14384,5.17239 C 166.75165,255.72515 166,259.67735 166,263.63855 c 0,3.97954 -2.60728,17.61691 -7.50064,39.23215 l -7.50064,33.13225 15.25064,21.14241 c 12.35257,17.12475 15.91574,21.40901 18.75064,22.54532 15.77254,6.32207 27.00109,14.54867 30.92713,22.65879 2.58544,5.3408 2.6629,12.77218 0.1892,18.15053 -5.34567,11.6226 -23.99791,22.32013 -47.14489,27.03878 -7.38081,1.50462 -38.0143,2.73929 -44.97144,1.81255 z m 35.58004,-21.98837 c 3.34403,-0.8364 9.19403,-3.19963 13,-5.25162 5.62919,-3.03499 7.50641,-4.70433 10.06401,-8.94958 3.95856,-6.57065 4.76858,-10.85718 3.3463,-17.70827 -0.96977,-4.67133 -3.73084,-9.02114 -20.05746,-31.59867 C 155.5198,349.45492 147,337.06407 147,336.31961 c 0,-1.53372 2.65335,-13.83148 9.95534,-46.14103 C 159.7299,277.90181 162,266.04116 162,263.8216 c 0,-3.50321 -0.23086,-3.92253 -1.75,-3.17859 -0.9625,0.47135 -24.025,0.97248 -51.25,1.11364 -48.630139,0.25213 -49.559737,0.22004 -52.899352,-1.82613 l -3.399353,-2.08278 7.205197,-7.2536 c 6.841657,-6.88763 7.66909,-7.39808 16.399352,-10.11687 11.934151,-3.71655 15.400508,-5.4842 19.889442,-10.14254 6.291474,-6.52889 10.588844,-19.27734 6.054714,-17.96173 -0.9625,0.27928 -11.425,1.91318 -23.25,3.6309 l -21.5,3.12313 -21.88418,14.52839 c -16.618225,11.03245 -22.088837,14.2055 -22.734687,13.18649 -0.467779,-0.73805 -0.857398,-1.61514 -0.86582,-1.94909 -0.0084,-0.33395 6.397187,-4.82053 14.234687,-9.97018 10.130373,-6.65618 17.294927,-12.32853 24.782557,-19.62093 l 10.532558,-10.25794 20.738809,-2.48454 c 21.992066,-2.63469 27.631456,-4.23289 33.037656,-9.36284 4.61075,-4.37515 9.96032,-16.1872 7.33861,-16.20391 -0.6491,-0.004 -16.48019,1.17506 -35.18019,2.62044 l -34,2.62797 -17.5,15.03825 c -9.625,8.27104 -19.4125,16.86054 -21.75,19.08777 L 10,220.41642 v 21.5869 21.58691 l 20.63576,33.45488 c 18.964254,30.74503 22.144665,36.60612 39.2641,72.35877 l 18.628339,38.90388 13.339161,7.79895 C 120.85682,427.2092 131.2657,430.33845 146,429.3744 c 4.125,-0.26989 10.23602,-1.17504 13.58004,-2.01144 z M 25.454307,200.98974 38.847034,189.5 39.173517,176.50575 39.5,163.5115 l 20,-6.57568 c 11,-3.61662 21.077429,-7.15729 22.394287,-7.86815 3.687228,-1.99043 11.130329,-9.16241 13.661907,-13.16426 C 98.158609,131.78958 101.31662,122 100.04128,122 99.573268,122 85.085023,125.64736 67.845176,130.10525 50.605329,134.56313 30.65,139.68559 23.5,141.48849 l -13,3.27799 -0.263231,34.2045 c -0.180322,23.43125 0.0656,34.0949 0.78079,33.8565 0.574212,-0.1914 7.070749,-5.51839 14.436748,-11.83774 z m 9.278303,-66.44828 c 0.127935,-0.0953 -0.267632,-1.49864 -0.879038,-3.11843 -1.004867,-2.6622 -0.596244,-3.95262 4.254035,-13.43406 5.306808,-10.37388 5.365828,-10.58772 5.379037,-19.48897 0.01201,-8.094625 -0.281237,-9.531741 -2.915083,-14.285847 -2.32598,-4.198405 -3.17247,-5.021313 -4.114625,-4 C 33.682256,83.221957 5,126.19923 5,127.34898 c 0,0.69447 0.916328,3.97607 2.0362845,7.29245 l 2.0362845,6.02976 12.713715,-2.97819 c 6.992544,-1.63801 12.81839,-3.05621 12.946326,-3.15154 z M 320.22251,424.4433 C 318.00021,422.88674 318,422.88333 318,389.01472 c 0,-29.45927 0.20471,-34.07658 1.57143,-35.44329 C 320.91871,352.22415 324.81937,352 346.91783,352 H 372.6928 L 384.5964,341.87266 396.5,331.74532 396.78498,341.87266 397.06997,352 H 402.88 c 9.55751,0 9.12,-1.78802 9.12,37.27204 0,33.60271 -7.8e-4,33.6151 -2.22251,35.17126 C 407.85048,425.79303 401.89712,426 365,426 c -36.89712,0 -42.85048,-0.20697 -44.77749,-1.5567 z M 365.19027,396.75 c 7.02141,-3.9875 12.76422,-7.475 12.76178,-7.75 -0.005,-0.5519 -25.38509,-15 -26.34969,-15 -0.3313,0 -0.60236,6.75 -0.60236,15 0,8.25 0.32041,15 0.71203,15 0.39161,0 6.45682,-3.2625 13.47824,-7.25 z m 87.33137,-24.9579 c -1.22721,-0.71155 -5.8783,-1.05013 -12.25,-0.89174 L 430,371.15568 V 355.07784 339 h 9.5 c 6.56731,0 9.5,0.35988 9.5,1.16578 0,0.64118 1.77324,-1.36559 3.94052,-4.4595 2.80026,-3.9975 4.03008,-6.86682 4.25,-9.91578 0.27118,-3.75945 0.62568,-4.32733 2.86414,-4.58807 1.48738,-0.17326 3.71494,0.6151 5.33192,1.88701 2.56088,2.01439 2.75139,2.6415 2.44533,8.0494 l -0.33191,5.8648 9.22695,-0.002 c 8.72381,-0.002 9.3157,0.13363 10.8546,2.4823 1.55756,2.37714 1.42287,3.04631 -3.1274,15.5377 -6.28871,17.26378 -7.10841,17.98918 -20.28088,17.94777 -5.40093,-0.017 -10.54704,-0.53703 -11.65163,-1.17749 z m 22.35171,-5.13949 C 476.20895,365.0433 484,344.30463 484,342.35874 484,341.29252 481.52417,341 472.5,341 c -6.325,0 -11.5,-0.17004 -11.5,-0.37788 0,-0.20783 0.70011,-2.05347 1.55579,-4.10141 1.74933,-4.18672 1.58659,-9.65581 -0.30579,-10.27703 -0.82447,-0.27065 -1.25,0.67526 -1.25,2.77863 0,1.99294 -0.99447,4.36828 -2.65154,6.33333 -1.45834,1.7294 -3.26438,4.60686 -4.01342,6.39436 -0.74903,1.7875 -2.03084,3.25 -2.84846,3.25 -1.21511,0 -1.48658,1.80386 -1.48658,9.87803 0,9.11217 0.17445,9.99971 2.25,11.44755 3.00176,2.09392 20.94173,2.35325 22.62335,0.32703 z M 287.75566,326.24521 C 282.28204,322.8514 282,320.97731 282,288 c 0,-25.87788 0.23387,-30.69058 1.63484,-33.64292 2.10792,-4.44211 6.4932,-6.73737 11.57101,-6.0563 4.93473,0.66189 16.89157,8.28178 16.126,10.27683 -0.7838,2.04254 -2.35537,1.77045 -6.65694,-1.15255 -6.5968,-4.48264 -10.52823,-5.72846 -13.80026,-4.37314 -4.6053,1.90758 -5.0354,5.32834 -4.68807,37.28597 l 0.31342,28.83789 2.81031,2.41603 c 2.09874,1.80428 3.49135,2.25569 5.5,1.78283 3.56538,-0.83934 50.83813,-28.08091 53.28279,-30.70494 2.45537,-2.63554 2.43986,-7.13674 -0.0331,-9.60973 -1.06702,-1.06702 -4.90511,-3.6454 -8.52909,-5.72973 -3.97205,-2.28452 -6.4782,-4.36059 -6.30996,-5.2271 0.50308,-2.59112 2.17586,-2.15666 10.20705,2.65099 11.94512,7.15062 14.50691,14.18842 7.6438,20.99911 -2.32982,2.31203 -41.59543,25.55474 -51.77211,30.64575 -4.09593,2.04904 -8.07676,1.99601 -11.544,-0.15378 z m 142.16071,-19.70068 c -21.6706,-5.52123 -38.07503,-21.63248 -43.58891,-42.80988 -2.04522,-7.85516 -1.99681,-22.50012 0.0966,-29.23465 0.85484,-2.75 1.55913,-5.5625 1.56509,-6.25 0.009,-0.99027 -17.62901,-1.25 -84.88384,-1.25 -81.85922,0 -85.12449,-0.071 -91.32213,-1.98524 -23.61662,-7.29443 -39.04997,-32.1396 -34.95928,-56.27873 3.63275,-21.43682 18.95451,-37.42638 40.39869,-42.15946 l 2.72262,-0.60093 0.27738,-13.92483 L 220.5,98.125984 235.46273,112.06299 250.42546,126 h 88.60577 c 78.57234,0 89.22081,0.18248 94.03727,1.61152 17.13655,5.08441 30.32804,18.26987 35.33612,35.31998 2.03808,6.93867 2.05148,20.16963 0.0273,26.98563 -0.86242,2.90408 -1.42492,5.39181 -1.25,5.52831 0.17492,0.13649 2.79303,1.5546 5.81803,3.15136 3.025,1.59676 8.43349,5.85727 12.01888,9.46779 18.03329,18.15976 22.14123,45.61423 10.21969,68.30096 -6.95592,13.23713 -18.2696,22.96105 -32.99702,28.36039 -8.48145,3.10945 -23.86228,3.97477 -32.32518,1.81859 z m 31.15494,-5.93455 c 18.08391,-6.28896 31.50075,-21.68849 35.57204,-40.82875 5.87364,-27.61351 -11.86023,-55.90011 -39.68869,-63.30589 -7.12443,-1.89596 -20.02045,-1.86969 -27.41311,0.0559 -14.66027,3.81852 -28.45422,15.10583 -34.79105,28.46881 -8.09357,17.06759 -7.78023,33.63594 0.95034,50.25025 12.10961,23.04463 40.43267,34.03224 65.37047,25.35973 z M 432,291.63296 c -2.475,-0.72384 -6.50493,-2.34367 -8.95541,-3.59963 -5.09297,-2.61033 -14.68958,-11.42294 -17.32175,-15.90663 -1.72141,-2.93228 -1.716,-3.05999 0.17237,-4.07062 1.65329,-0.88481 2.26415,-0.53429 4.02002,2.30676 8.0247,12.98423 24.91346,20.48849 39.89711,17.72764 24.41604,-4.49883 38.83376,-29.00196 30.67362,-52.13027 -1.36026,-3.85539 -1.36427,-4.51047 -0.0358,-5.83895 1.32849,-1.32849 1.74922,-0.94242 3.75016,3.44119 3.23478,7.08665 3.25182,23.45805 0.0327,31.43755 -4.49773,11.14899 -14.34662,20.95324 -25.23306,25.1187 -6.85795,2.62404 -20.57493,3.39334 -27,1.51426 z m -9.54545,-46.08751 C 421.10455,244.19545 420,242.375 420,241.5 c 0,-2.05875 4.44125,-6.5 6.5,-6.5 2.05875,0 6.5,4.44125 6.5,6.5 0,2.05875 -4.44125,6.5 -6.5,6.5 -0.875,0 -2.69545,-1.10455 -4.04545,-2.45455 z m 19.76796,-10.10215 c -4.62814,-3.24167 -1.76126,-11.4433 4,-11.4433 2.57856,0 5.77749,3.59897 5.77749,6.5 0,2.90103 -3.19893,6.5 -5.77749,6.5 -0.97763,0 -2.77763,-0.70052 -4,-1.5567 z M 394,217.36553 c 7.33541,-11.75557 21.89569,-22.06117 36,-25.48037 7.09144,-1.71913 22.17756,-1.5058 28.19234,0.39866 l 4.69234,1.48574 1.14088,-3.13478 c 0.62748,-1.72413 1.38407,-6.73478 1.68132,-11.13478 0.96354,-14.26268 -3.63226,-26.20587 -13.90111,-36.12514 C 448.88759,140.55604 444.475,137.09194 442,135.67686 431.92245,129.91505 433.49364,130 337.0018,130 H 248.42381 L 236.2119,118.41684 224,106.83367 v 11.38309 11.38309 l -6.25,1.28462 c -19.08294,3.9223 -33.65085,19.22843 -36.8308,38.69718 -3.73096,22.84217 11.34359,45.8685 34.0808,52.05832 3.3794,0.91998 25.79136,1.23868 90,1.27982 l 85.5,0.0548 z M 233,187 c 0,-1.98519 0.66667,-2 90,-2 89.33333,0 90,0.0148 90,2 0,1.98519 -0.66667,2 -90,2 -89.33333,0 -90,-0.0148 -90,-2 z m 0,-21 c 0,-1.98519 0.66667,-2 90,-2 89.33333,0 90,0.0148 90,2 0,1.98519 -0.66667,2 -90,2 -89.33333,0 -90,-0.0148 -90,-2 z m 68.82099,131.97483 c -3.67496,-3.67495 -3.30626,-7.03836 1.23048,-11.22483 2.42045,-2.23357 3.91608,-2.75 7.96431,-2.75 H 316 v -12 c 0,-6.6 0.28041,-12 0.62313,-12 1.77767,0 12.37687,6.64734 12.37687,7.76221 0,2.10481 -2.72922,2.54086 -5.17613,0.82698 C 322.57599,267.71514 321.20512,267 320.77749,267 320.34987,267 320,272.97487 320,280.27749 c 0,14.53547 -0.59079,16.4253 -6.01104,19.22822 -4.66456,2.41213 -8.73737,1.89972 -12.16797,-1.53088 z m 9.55311,-1.92696 C 316.98505,293.91459 316.78365,288 311.10006,288 c -5.33988,0 -8.94027,4.75979 -5.90006,7.8 1.44875,1.44875 2.8659,1.50564 6.1741,0.24787 z M 278.75,54.837719 C 276.60815,54.055447 276,53.188331 276,50.916667 c 0,-3.258215 0.13578,-3.311708 4.92183,-1.939085 8.82052,2.529691 10.91102,-2.680334 2.82506,-7.04071 -5.93113,-3.198377 -7.6746,-5.461034 -7.71509,-10.012558 -0.0389,-4.374401 2.93063,-7.478716 8.05897,-8.424755 C 287.41635,22.886081 296,24.403075 296,25.604286 c 0,0.472961 -1.93464,4.481848 -2.49677,5.173692 -0.12422,0.152888 -1.5082,-0.209568 -3.07551,-0.805458 -7.48923,-2.847399 -10.29146,2.549454 -3.17772,6.120007 6.48194,3.253438 8.75,5.754144 8.75,9.647528 0,4.679292 -1.57027,7.182446 -5.54837,8.844603 -3.87281,1.618162 -7.73529,1.701692 -11.70163,0.253061 z M 176,39.5 V 24 h 4.30464 4.30463 L 190.55464,34.478103 196.5,44.956207 196.78383,34.478103 197.06766,24 H 200.53383 204 V 39.5 55 l -4.75,-0.0297 -4.75,-0.0297 -6,-10.618843 -6,-10.618844 -0.28383,10.648543 L 181.93234,55 H 178.96617 176 Z m 35,0 V 24 h 9.06642 9.06642 l -0.31642,2.75 c -0.29513,2.564932 -0.66973,2.770341 -5.56642,3.05226 -5.07762,0.292335 -5.25,0.399044 -5.25,3.25 0,2.870621 0.13081,2.94774 5,2.94774 4.88889,0 5,0.06667 5,3 0,2.933333 -0.11111,3 -5,3 h -5 v 3.5 3.5 h 5.5 c 5.44444,0 5.5,0.0303 5.5,3 v 3 h -9 -9 z m 24.63677,1.073874 C 233.63655,32.583608 232,25.585741 232,25.023059 232,24.460376 233.49004,24 235.3112,24 h 3.3112 l 2.3629,10.645508 c 2.64574,11.919749 2.59591,11.939003 6.19026,-2.392101 l 2.09623,-8.357934 3.56553,0.302263 3.56553,0.302264 2.62688,10.5 c 2.81561,11.254348 2.73035,11.262115 5.48899,-0.5 0.90296,-3.85 1.86097,-7.7875 2.1289,-8.75 0.34534,-1.240542 1.50607,-1.75 3.98716,-1.75 2.85922,0 3.40745,0.320386 2.99452,1.75 -0.27801,0.9625 -1.69586,6.475 -3.15079,12.25 -4.49668,17.848569 -4.07152,17 -8.51752,17 -4.26268,0 -3.73865,0.914375 -7.02051,-12.25 -0.58274,-2.3375 -1.32577,-5.15 -1.65119,-6.25 -0.39319,-1.329092 -1.47705,1.354542 -3.23104,8 l -2.63936,10 -4.07268,0.300815 -4.07267,0.300815 z"
         id="path3" />
      <path
         style="fill:#181718"
         d="M 127,448.99274 C 102.01692,446.55265 81.323206,438.58353 71.061499,427.45089 65.933806,421.888 64,417.51982 64,411.5 c 0,-6.11577 1.985829,-10.50145 7.353331,-16.23974 l 4.47307,-4.78208 -14.187089,-29.53237 C 49.571821,335.82567 44.430377,326.52855 27.226112,298.71741 L 7,266.02138 V 206.22239 146.4234 L 3.6349197,136.4617 0.26983946,126.5 11.681378,109.69754 23.092916,92.89509 16.905106,54.391019 C 11.348217,19.812898 10.842869,15.467822 11.948866,11.776333 13.51202,6.5589916 17.559994,2.493293 22.578803,1.0998506 c 5.218375,-1.44885041 92.444777,-1.49873866 97.640147,-0.055844 4.58147,1.2724003 9.15265,5.0032423 10.64213,8.6857459 1.42549,3.5243105 38.1402,231.5272875 38.13518,236.8243075 -0.002,2.22435 -0.9069,5.42741 -2.07382,7.3415 -1.66156,2.72546 -1.94187,4.32772 -1.42042,8.11914 0.52633,3.82686 -0.79975,11.14985 -6.98524,38.57458 -4.1992,18.61805 -7.43317,34.62243 -7.18661,35.56528 0.24656,0.94286 7.22734,11.0813 15.51283,22.52986 14.84601,20.51362 15.14138,20.84234 20.36077,22.66032 12.26228,4.27111 24.31315,13.08433 28.41391,20.78009 2.87857,5.40213 2.49396,14.32102 -0.86425,20.04121 -6.89439,11.74355 -25.52806,21.35385 -48.81001,25.17373 -12.2821,2.01513 -28.28209,2.69426 -38.94342,1.65297 z m 31.23356,-20.9246 c 22.39923,-5.72875 32.57305,-18.63078 27.64953,-35.064 -0.61429,-2.05035 -9.6267,-15.52433 -20.02755,-29.94218 l -18.91066,-26.21427 7.52756,-33.32377 C 158.6137,285.19096 162,267.8571 162,264.99167 v -5.20849 l -2.75,0.85841 C 157.7375,261.11372 134.675,261.5 108,261.5 c -44.790631,0 -48.751787,-0.13747 -51.792118,-1.79746 l -3.292118,-1.79746 6.860629,-6.88789 c 6.631319,-6.65767 7.229479,-7.00714 17.896023,-10.4554 12.013255,-3.88362 17.734437,-7.37983 22.228636,-13.58389 2.802838,-3.86921 5.924428,-13.48575 4.756638,-14.65354 -0.31223,-0.31223 -11.050442,0.94023 -23.862691,2.78326 L 57.5,218.45857 36.734928,232.26645 C 14.144485,247.28813 13,247.93867 13,245.75761 c 0,-0.80101 6.4125,-5.78923 14.25,-11.08494 8.543656,-5.77285 18.420432,-13.57354 24.664487,-19.48004 l 10.414488,-9.85148 20.085512,-2.22963 c 17.728333,-1.96798 20.825523,-2.58535 26.391143,-5.26063 4.58819,-2.20545 7.22714,-4.30021 9.68893,-7.69094 3.02114,-4.16114 6.40639,-12.67028 5.39343,-13.5569 -0.21339,-0.18678 -16.16848,0.8786 -35.455744,2.36751 L 53.364492,181.67767 31.682246,200.44589 10,219.21412 v 22.68237 22.68238 l 9.291105,14.96057 C 50.248824,329.38765 50.73711,330.26259 69.495913,369.5 l 18.645303,39 12.179394,7.20407 c 6.69866,3.96224 14.34712,8.15917 16.99656,9.32651 11.56024,5.09341 28.08227,6.31998 40.91639,3.03756 z M 25.537571,201.45025 39.940989,188.9005 40.220495,176.25205 40.5,163.6036 l 19,-6.13355 c 10.45,-3.37346 20.489382,-6.90973 22.309737,-7.85838 4.82215,-2.51298 10.616163,-8.04105 14.059816,-13.41445 2.904106,-4.53151 6.039847,-13.62115 5.042937,-14.61806 -0.26682,-0.26682 -14.418781,3.1367 -31.448807,7.56337 C 52.433658,133.5692 32.0875,138.79854 24.25,140.76328 L 10,144.33554 v 34.83223 C 10,198.3255 10.255184,214 10.567077,214 c 0.311892,0 7.048614,-5.64739 14.970494,-12.54975 z m -3.262699,-63.33118 c 6.47618,-1.55952 12.061779,-3.12239 12.412441,-3.47305 0.350662,-0.35066 0.127693,-1.75662 -0.495487,-3.12435 -0.994446,-2.18257 -0.436638,-3.91297 4.559782,-14.14506 5.307882,-10.86993 5.692836,-12.14234 5.692836,-18.816769 0,-5.946441 -0.503246,-8.159378 -2.972222,-13.06982 C 39.8375,82.238791 38.05,79.44882 37.5,79.290085 36.95,79.131351 29.196831,89.757817 20.270735,102.90445 l -16.2292656,23.90298 1.990089,5.84629 c 2.8715213,8.43566 2.8328654,8.3484 3.6870568,8.32355 0.4297618,-0.0125 6.0800778,-1.29869 12.5562568,-2.8582 z M 319.57143,423.42857 C 318.20734,422.06448 318,417.56978 318,389.36283 c 0,-20.48681 0.38253,-33.20907 1.03518,-34.42857 0.98241,-1.83564 2.37175,-1.93575 27.25,-1.96353 L 372.5,352.94146 384,343 c 6.325,-5.4678 11.8375,-9.95463 12.25,-9.97073 C 396.6625,333.01317 397,337.5 397,343 v 10 h 6.52475 c 6.08376,0 6.59067,0.17337 7.5,2.5651 0.55805,1.46777 0.97525,15.91746 0.97525,33.77749 0,26.63119 -0.22849,31.53861 -1.5567,33.4349 L 408.88659,425 h -43.87187 c -38.55018,0 -44.06248,-0.19062 -45.44329,-1.57143 z M 365.81808,397 c 7.22612,-4.125 13.14518,-7.725 13.15347,-8 0.008,-0.275 -3.01942,-2.18228 -6.72824,-4.2384 -3.70882,-2.05612 -10.00581,-5.57798 -13.99331,-7.82637 L 351,372.84726 v 16.1597 c 0,8.88784 0.37793,16.00971 0.83985,15.82637 C 352.30176,404.65 358.59197,401.125 365.81808,397 Z m 85.79529,-26.15656 c -1.08848,-0.63219 -6.07057,-1.01802 -11.77636,-0.91202 l -9.88972,0.18373 0.27635,-15.30758 L 430.5,339.5 l 8.34692,-0.29201 c 4.64808,-0.16261 8.88951,0.15831 9.57135,0.72418 C 450.36234,341.54561 458,330.08058 458,325.54886 458,322.16417 458.16084,322 461.47695,322 c 4.91699,0 6.99582,3.36037 6.20574,10.03138 L 467.09423,337 l 7.70288,0.0136 c 9.86465,0.0175 12.08023,0.64944 12.83615,3.66127 0.81889,3.26273 -7.87576,27.20139 -10.74182,29.57508 -1.72618,1.42963 -4.06071,1.74443 -12.75222,1.71959 -5.85157,-0.0167 -11.48821,-0.52349 -12.52585,-1.12615 z m 22.72429,-3.10108 c 1.42385,-1.04114 10.65206,-23.54251 10.65993,-25.99236 10e-4,-0.4125 -5.35888,-0.75 -11.91156,-0.75 h -11.91397 l 2.10948,-4.99299 c 1.6142,-3.82072 1.88749,-5.6211 1.16397,-7.66829 C 463.04169,324.36665 461,324.17942 461,328.02276 c 0,2.02012 -1.07664,4.5488 -2.93666,6.89727 -1.61516,2.03931 -3.4874,4.91656 -4.16052,6.3939 C 453.2297,342.79127 452.0762,344 451.33948,344 450.30135,344 450,346.47474 450,355 c 0,7.15556 0.37446,11 1.07143,11 0.58928,0 1.74643,0.675 2.57143,1.5 1.93671,1.93671 18.11847,2.12622 20.6948,0.24236 z M 286.64187,324.73278 c -4.30925,-4.30925 -4.80255,-8.69369 -4.45971,-39.63811 0.28559,-25.7769 0.5033,-28.97054 2.14562,-31.47474 2.47124,-3.76812 7.34441,-5.70878 11.80759,-4.70217 3.9055,0.88084 14.86463,7.52416 14.86463,9.0108 0,2.23792 -2.03436,1.7401 -8.07636,-1.9763 -7.77574,-4.78281 -11.84147,-5.14347 -14.85106,-1.3174 C 286.07733,257.1714 286,258.42309 286,288.18031 v 30.9106 l 2.57347,2.57347 c 2.06261,2.06261 3.23329,2.46639 5.89739,2.03406 4.26443,-0.69202 50.14458,-26.99177 53.77914,-30.82766 1.5125,-1.59628 2.75,-3.73455 2.75,-4.7517 0,-2.97108 -3.62882,-6.76423 -9.777,-10.21974 -7.58238,-4.26159 -8.20079,-4.79363 -7.54828,-6.49405 0.74041,-1.9295 12.47388,4.37533 17.07528,9.17517 4.33127,4.51808 4.52224,10.00737 0.5,14.37225 -1.5125,1.64135 -13.775,9.36361 -27.25,17.16058 -20.95331,12.12411 -25.24953,14.24478 -29.67763,14.64934 -4.53356,0.41419 -5.48896,0.16169 -7.6805,-2.02985 z m 148.32855,-17.76546 c -27.6521,-4.20227 -48.04643,-26.56986 -49.66224,-54.46732 -0.48067,-8.29886 0.74545,-17.31396 3.23018,-23.75 0.64008,-1.65794 -3.68327,-1.75091 -82.18137,-1.76736 -86.7457,-0.0182 -91.09967,-0.21262 -99.26029,-4.43263 -1.69166,-0.87479 -3.41796,-1.6372 -3.83622,-1.69424 -1.9671,-0.26824 -9.47121,-6.29629 -13.71775,-11.01947 -13.83649,-15.3895 -16.57595,-38.02341 -6.91064,-57.09698 5.72783,-11.30332 19.55743,-21.97166 32.29323,-24.91144 l 5.02179,-1.15917 0.27644,-13.96835 0.27645,-13.968346 14.5,13.596876 14.5,13.59687 90,0.29633 90,0.29634 5.92009,2.24545 c 8.58829,3.25746 13.84014,6.59709 19.63953,12.48868 5.95689,6.05159 9.09248,11.07632 12.06089,19.32735 2.69396,7.48818 3.01937,23.57769 0.6121,30.26497 l -1.56405,4.34488 3.01509,1.65512 c 21.70111,11.91271 34.40307,34.09292 32.32077,56.43864 -3.17968,34.12189 -33.62278,58.68529 -66.534,53.6838 z m 26.81418,-5.96963 c 14.24931,-4.99872 28.24049,-18.99497 33.20106,-33.21309 2.73905,-7.85073 3.71371,-22.10103 2.05726,-30.07878 -2.0657,-9.9488 -8.14771,-20.61907 -15.94596,-27.97554 -22.20015,-20.9425 -55.12867,-20.58746 -76.5414,0.82528 -12.33966,12.33965 -18.24571,30.11584 -15.59707,46.94444 3.29541,20.93802 20.40548,39.85657 40.67559,44.97489 8.35859,2.11059 23.96756,1.39341 32.15052,-1.4772 z m -24.17277,-9.16047 c -11.47826,-1.1643 -23.25609,-8.09947 -29.72654,-17.50395 -2.40645,-3.49766 -2.834,-4.77435 -1.89991,-5.67329 0.92287,-0.88815 1.59308,-0.57623 2.85997,1.33104 5.48531,8.25797 13.6798,14.49131 23.02174,17.51204 8.44955,2.73217 20.11707,1.76389 28.50536,-2.36565 13.7924,-6.78998 21.71579,-18.84052 22.43445,-34.12011 0.30981,-6.58707 -0.0378,-9.81088 -1.53377,-14.22531 -1.59989,-4.72103 -1.69473,-5.79996 -0.54847,-6.23983 0.89848,-0.34478 1.92094,0.74873 2.90723,3.10925 6.49304,15.54004 2.20031,34.51734 -10.56146,46.69 -9.85867,9.40358 -20.85877,12.96675 -35.4586,11.48581 z m -15.0404,-46.40865 C 418.97568,241.83282 421.73776,236 427.03624,236 430.09285,236 432,238.25259 432,241.86283 432,244.55315 429.38033,247 426.5,247 c -1.29643,0 -3.06429,-0.70714 -3.92857,-1.57143 z m 19.08356,-11.25731 c -2.19655,-2.42716 -2.09391,-5.46407 0.25658,-7.59123 4.8357,-4.37625 12.19346,1.55835 8.64548,6.97325 -1.94845,2.97371 -6.48514,3.28864 -8.90206,0.61798 z M 393.5,218.88722 c 6.37192,-10.77512 18.53427,-20.61493 30.77722,-24.89997 8.5652,-2.99783 22.99531,-3.71337 32.03483,-1.58851 3.74663,0.88069 6.9379,1.60126 7.09172,1.60126 0.15381,0 0.7776,-1.6875 1.3862,-3.75 5.00874,-16.97431 -0.0942,-35.83551 -12.90417,-47.69524 -3.33149,-3.08437 -8.32219,-6.75568 -11.09045,-8.15847 -10.50173,-5.32162 -11.25705,-5.36016 -105.42867,-5.37893 L 248.23335,129 236.45498,118 c -6.4781,-6.05 -12.15561,-11 -12.61667,-11 C 223.37724,107 223,112.175 223,118.5 V 130 h -2.95451 c -4.6297,0 -15.33231,4.30614 -20.94766,8.42819 -6.72875,4.93935 -11.28869,10.63663 -15.30993,19.12856 -3.1488,6.64951 -3.2879,7.45093 -3.2879,18.94325 0,11.80391 0.0613,12.12835 3.75025,19.85431 4.31086,9.02844 12.18894,17.45032 20.54085,21.95873 10.19599,5.50385 10.54213,5.52287 101.7089,5.58762 l 84,0.0597 z M 234,186.5 c 0,-1.32216 10.61111,-1.5 89.5,-1.5 78.88889,0 89.5,0.17784 89.5,1.5 0,1.32216 -10.61111,1.5 -89.5,1.5 -78.88889,0 -89.5,-0.17784 -89.5,-1.5 z m 0,-20 c 0,-1.32216 10.61111,-1.5 89.5,-1.5 78.88889,0 89.5,0.17784 89.5,1.5 0,1.32216 -10.61111,1.5 -89.5,1.5 -78.88889,0 -89.5,-0.17784 -89.5,-1.5 z m 70.39966,133.07206 c -5.14944,-2.24168 -5.97255,-7.72644 -1.78758,-11.91141 2.81192,-2.81192 7.93386,-4.25693 11.30098,-3.18824 2.04092,0.64776 2.08694,0.38313 2.08694,-12.00048 v -12.66285 l 5.75,3.20551 c 7.10635,3.96165 7.35822,4.19227 6.35377,5.8175 -0.6465,1.04606 -1.50813,0.89156 -4.20836,-0.75462 -1.86747,-1.1385 -3.73291,-2.07168 -4.14541,-2.07373 -0.4125,-0.002 -0.75,6.44282 -0.75,14.32195 0,13.56509 -0.11946,14.43759 -2.25,16.43338 -2.05431,1.92439 -6.89161,4.29743 -8.5651,4.20179 -0.37669,-0.0215 -2.08005,-0.64649 -3.78524,-1.3888 z m 9.41178,-4.61102 c 2.96518,-2.76249 2.81015,-5.77421 -0.35927,-6.97923 -5.34861,-2.03353 -12.56502,3.76743 -9.41234,7.56618 1.76075,2.12158 7.21608,1.7939 9.77161,-0.58695 z M 176,39.442502 V 23.885004 l 4.20437,0.307498 c 4.18829,0.306322 4.22627,0.345291 9.93043,10.187929 3.14933,5.434237 6.17443,10.328799 6.72244,10.876805 0.66183,0.661833 0.80671,-2.739552 0.43151,-10.130431 L 196.72388,24 H 199.86194 203 v 15.557498 15.557498 l -4.12355,-0.307498 c -4.1121,-0.306644 -4.14063,-0.337187 -10.27103,-10.995195 -3.38111,-5.878233 -6.3651,-10.905318 -6.63108,-11.171301 -0.26599,-0.265983 -0.32046,4.655981 -0.12105,10.937696 L 182.21585,55 H 179.10793 176 Z M 211,39.5 V 24 h 9 c 8.93333,0 9,0.01852 9,2.5 0,2.363636 -0.3,2.5 -5.5,2.5 H 218 v 3.5 3.5 h 5 c 4.66667,0 5,0.166667 5,2.5 0,2.333333 -0.33333,2.5 -5,2.5 h -5 v 4.5 c 0,2.475 0.3375,4.446711 0.75,4.381579 0.4125,-0.06513 2.8875,-0.06513 5.5,0 4.36842,0.108908 4.75,0.319252 4.75,2.618421 0,2.481481 -0.0667,2.5 -9,2.5 h -9 z m 28.6688,14.75 C 239.20103,53.46905 232,25.614568 232,24.586131 232,24.263759 233.33266,24 234.96146,24 c 3.28613,0 3.19755,-0.201268 6.82136,15.5 l 1.84637,8 2.89142,-11.75 2.89142,-11.75 h 3.25544 c 3.62548,0 3.36919,-0.555433 7.15203,15.5 1.23079,5.223842 2.08046,7.305961 2.44848,6 0.30997,-1.1 1.59006,-6.3875 2.84463,-11.75 2.21601,-9.472042 2.36096,-9.75 5.08422,-9.75 1.54174,0 2.80317,0.460376 2.80317,1.023059 0,0.562682 -1.63082,7.537682 -3.62405,15.5 L 265.75191,55 h -3.69463 -3.69463 L 255.5181,43.895542 252.67356,32.791083 250.7856,40.145542 C 246.62608,56.348692 247.28571,55 243.52047,55 c -1.87134,0 -3.60459,-0.3375 -3.85167,-0.75 z M 277.25,54.33772 C 276.5625,54.060307 276,52.472688 276,50.809678 c 0,-2.438281 0.33004,-2.897006 1.70479,-2.369467 0.93763,0.359804 3.59238,0.912912 5.89945,1.22913 3.54411,0.485775 4.36503,0.256592 5.29323,-1.477753 1.32609,-2.47783 -0.14614,-4.25748 -5.98717,-7.237352 -5.26155,-2.68424 -7.31258,-5.996383 -6.47569,-10.457391 1.10614,-5.896194 7.4599,-8.361457 15.88031,-6.161569 2.17138,0.567287 2.74292,1.241721 2.5,2.95007 -0.28608,2.011816 -0.78839,2.183998 -5.4844,1.879939 -4.31312,-0.279267 -5.34314,-0.01022 -6.21782,1.624134 -1.24849,2.33282 0.17972,3.867747 6.60386,7.097335 7.03902,3.538697 8.37409,9.176446 3.36036,14.190169 -2.58866,2.588667 -3.58969,2.914045 -8.75,2.84413 -3.2048,-0.04342 -6.38942,-0.305921 -7.07692,-0.583334 z"
         id="path2" />
    </g>
  </g>
</svg>
