<?xml version="1.0" encoding="UTF-8" standalone="no"?>
<!-- Created with Inkscape (http://www.inkscape.org/) -->

<svg
   version="1.1"
   id="svg1"
   width="547"
   height="450"
   viewBox="0 0 547 450"
   sodipodi:docname="VIDEO_02.svg"
   inkscape:version="1.3.2 (091e20e, 2023-11-25, custom)"
   xmlns:inkscape="http://www.inkscape.org/namespaces/inkscape"
   xmlns:sodipodi="http://sodipodi.sourceforge.net/DTD/sodipodi-0.dtd"
   xmlns="http://www.w3.org/2000/svg"
   xmlns:svg="http://www.w3.org/2000/svg">
  <defs
     id="defs1" />
  <sodipodi:namedview
     id="namedview1"
     pagecolor="#ffffff"
     bordercolor="#000000"
     borderopacity="0.25"
     inkscape:showpageshadow="2"
     inkscape:pageopacity="0.0"
     inkscape:pagecheckerboard="0"
     inkscape:deskcolor="#d1d1d1"
     showgrid="false"
     inkscape:zoom="1.4680073"
     inkscape:cx="273.5"
     inkscape:cy="225.13512"
     inkscape:window-width="1920"
     inkscape:window-height="1001"
     inkscape:window-x="-9"
     inkscape:window-y="-9"
     inkscape:window-maximized="1"
     inkscape:current-layer="g1" />
  <g
     inkscape:groupmode="layer"
     inkscape:label="Image"
     id="g1">
    <g
       id="g2"
       transform="translate(-0.06191921)">
      <path
         style="fill:#fefefe"
         d="M 0,225 V 0 H 273.5 547 V 225 450 H 273.5 0 Z"
         id="path6" />
      <path
         style="fill:#afafb0"
         d="m 480,448.57348 c -46.77766,-8.25581 -80.47213,-33.78618 -66.50201,-50.38872 3.03534,-3.6073 12.87048,-8.08576 19.47488,-8.86795 L 438,388.72142 v -79.32309 -79.32308 l -6.30826,0.58908 c -10.23055,0.95534 -21.10688,-3.06511 -27.86673,-10.30098 -1.47124,-1.57484 -8.33374,-11.14551 -15.25,-21.26814 -15.93609,-23.32407 -16.30381,-25.73271 -4.7203,-30.9188 l 4.31874,-1.93356 -12.45114,-6.60529 c -11.84831,-6.2855 -13.04288,-7.21747 -24.67306,-19.24938 -10.55925,-10.92397 -12.0287,-12.8373 -10.80159,-14.06441 1.22711,-1.22711 3.33381,-1.07366 15.48585,1.12795 7.73604,1.40155 14.44824,2.54725 14.91601,2.546 0.46776,-10e-4 0.90009,-1.3848 0.96073,-3.07454 0.0606,-1.68974 0.84001,-3.80202 1.73194,-4.69395 1.85899,-1.85898 11.03233,-3.10104 23.47043,-3.17788 6.35763,-0.0393 12.00202,-1.00688 24,-4.11428 16.60113,-4.29959 20.52798,-4.47972 28.17752,-1.29259 1.91958,0.79978 6.32583,1.61332 9.79167,1.80787 9.3819,0.52664 15.89465,4.11116 23.41111,12.88513 3.37478,3.93939 6.44739,7.291 6.82803,7.44802 0.65031,0.26828 1.95572,-7.88661 1.96663,-12.2855 0.003,-1.2557 -2.31798,-3.86075 -6.23696,-7 C 473.14039,107.19979 470.06091,103.93992 468.93474,99.757661 466.72592,91.554727 471.35746,82 477.54255,82 c 1.43405,0 8.89222,5.347952 20.20934,14.491298 17.79243,14.374882 19.72282,16.516042 21.64544,24.008702 0.28226,1.1 -0.53864,9.875 -1.82423,19.5 l -2.33742,17.5 3.12884,9 c 3.03449,8.72859 3.12895,9.51895 3.13216,26.20851 l 0.003,17.20852 12.5,6.79148 c 13.60769,7.39332 14.03825,7.94363 12.52516,16.00909 -0.69364,3.69742 -6.49977,10.82218 -9.62848,11.81519 -1.28775,0.40872 -5.20521,-1.12232 -11.56114,-4.51837 -5.31846,-2.84173 -9.99519,-4.75477 -10.46798,-4.28198 -0.47279,0.47279 1.3756,39.40899 4.13728,87.15135 l 4.99188,86.29676 6.34204,6.15973 c 10.9794,10.66375 12.29511,19.6802 3.8869,26.6366 -6.43845,5.32676 -14.61101,7.29135 -31.72566,7.62652 -9.33287,0.18277 -17.83356,-0.20634 -22.5,-1.02992 z m 21,-17.78829 c 6.97249,-1.63999 19,-7.44194 19,-9.16541 0,-0.8307 -2.02834,-36.52248 -4.50741,-79.31507 -2.47908,-42.79259 -4.84327,-83.73662 -5.25377,-90.98673 -0.4105,-7.2501 -0.47116,-14.52758 -0.13481,-16.17215 l 0.61155,-2.99014 -33.10778,-17.74351 c -18.20928,-9.75893 -35.43404,-19.04146 -38.27724,-20.62784 -4.67707,-2.60961 -5.12052,-2.69724 -4.65576,-0.91996 0.87012,3.32734 -2.96489,4.61275 -9.43931,3.16383 -5.79657,-1.29721 -7.62345,-2.80262 -20.89143,-17.21525 -4.74534,-5.15473 -7.00163,-6.8457 -9.84646,-7.37939 -6.66819,-1.25096 -15.21723,2.70649 -14.20537,6.57583 0.24612,0.94118 6.46856,10.40278 13.82764,21.02577 17.26093,24.9165 20.67315,27.30993 38.32939,26.88529 4.55973,-0.10966 8.79901,0.11493 9.4206,0.49909 0.8274,0.51137 1.13023,26.1988 1.13042,95.88947 l 2.6e-4,95.19098 9.24974,5.14023 c 17.48128,9.71463 31.86147,12.11724 48.74974,8.14496 z m 16.3237,-238.74128 c -0.006,-11.70253 -1.64289,-20.84349 -5.28907,-29.54391 -1.59632,-3.80908 -1.56296,-4.83529 0.69889,-21.5 1.30637,-9.625 2.09856,-18.99879 1.76041,-20.83064 -0.33815,-1.83185 -2.05011,-4.86032 -3.80437,-6.72994 C 505.53455,107.94543 478.77067,87 476.90549,87 475.071,87 473,91.612825 473,95.698883 c 0,4.323847 2.74057,7.685977 12.87997,15.801117 11.27967,9.02777 10.84454,7.92924 8.71424,22 -1.17829,7.78271 -1.16558,9.38416 0.094,11.84026 0.80109,1.56214 1.2131,3.47464 0.91557,4.25 -0.9524,2.48191 -3.67167,1.51332 -4.79456,-1.7078 -1.25837,-3.60976 -13.60639,-19.3086 -17.81844,-22.65374 C 468.46897,121.63761 457,118.32488 457,120.60991 c 0,0.33545 4.05,7.03599 9,14.89009 4.95,7.8541 9,15.00464 9,15.89009 0,0.88545 -0.79235,1.60991 -1.76077,1.60991 -1.19905,0 -5.10704,-5.4055 -12.25,-16.94412 -8.00884,-12.93736 -11.19864,-17.25293 -13.48923,-18.25 -3.97135,-1.7287 -14.87722,-1.60909 -20.5,0.22483 l -4.5,1.46771 9.46721,0.50079 9.46721,0.50079 7.28279,16.43846 c 7.55957,17.0632 8.01063,18.49368 6.18683,19.62085 -1.58633,0.9804 -3.15021,-1.15445 -6.63637,-9.05931 -1.69791,-3.85 -4.30248,-9.7 -5.78795,-13 -1.48546,-3.3 -3.08995,-7.0125 -3.56553,-8.25 L 438.0495,124 h -29.09049 c -34.14048,0 -35.68947,0.35668 -30.88017,7.11072 3.36891,4.7312 7.43247,6.08786 26.39248,8.81141 l 17.97132,2.58152 1.94196,8.13069 1.94197,8.13069 44.58671,24.00269 c 37.72253,20.30745 44.72759,23.75771 45.50174,22.4114 0.50327,-0.87522 0.91217,-6.78606 0.90868,-13.13521 z M 429,190.0818 c 0,-1.38782 -2.38149,-3.18508 -8.61289,-6.5 -4.73708,-2.51999 -8.88267,-4.5818 -9.2124,-4.5818 -0.32974,0 1.63356,2.3 4.36288,5.11112 C 422.34393,191.12143 429,194.07344 429,190.0818 Z m -9.30212,-39.14066 -1.2785,-4.41581 -8.45969,-1.23124 c -4.65283,-0.67718 -8.83912,-1.1189 -9.30287,-0.9816 -0.46375,0.1373 3.81125,2.77302 9.5,5.85716 5.68875,3.08414 10.45036,5.51297 10.58137,5.39741 0.131,-0.11556 -0.33714,-2.19722 -1.04031,-4.62592 z M 368.92336,140.75 c 1.77288,-3.1625 3.04163,-5.75 2.81945,-5.75 -0.22219,0 -5.29771,-0.8825 -11.27894,-1.96112 -5.98123,-1.07861 -10.97908,-1.857 -11.10633,-1.72976 -0.12724,0.12725 3.1784,3.96161 7.34588,8.52079 4.16748,4.55919 7.89657,7.92508 8.28687,7.47976 0.3903,-0.44532 2.16018,-3.39717 3.93307,-6.55967 z M 31.292006,436.48073 C 24.844835,433.7699 15.479137,418.63252 9.0302555,400.5 3.4539867,384.82104 0.91272387,371.9393 0.35009171,356.5 -0.13221484,343.26493 -0.03278145,342.25413 2.169955,338 4.4464797,333.60336 4.6148482,333.498 9.5,333.41307 c 6.265424,-0.10893 14.527718,-3.76639 15.277346,-6.76281 0.295866,-1.18265 4.22664,-9.35026 8.735052,-18.15026 4.508412,-8.8 14.198646,-30.0625 21.533854,-47.25 14.377561,-33.6888 14.265401,-33.52172 19.868846,-29.59691 2.318885,1.62421 2.34826,1.85128 1.681728,13 -0.535302,8.95371 -0.406141,11.34573 0.612396,11.3413 15.647852,-0.068 42.899898,1.05631 47.997238,1.98021 8.05712,1.46035 9.73441,2.94051 7.38878,6.52039 -0.90274,1.37776 -1.17206,2.50501 -0.5985,2.50501 0.57357,0 18.24644,-4.31338 39.27306,-9.58529 43.48407,-10.90258 46.6624,-11.24744 53.40014,-5.79413 2.03536,1.64736 4.52488,4.09916 5.53228,5.44845 1.00739,1.34929 4.22317,11.89694 7.14617,23.43922 l 5.31455,20.98595 2.49665,-3.9971 c 1.37316,-2.19841 7.81055,-12.8846 14.30531,-23.7471 6.49476,-10.8625 12.08834,-19.75 12.43018,-19.75 0.72163,0 25.15946,97.2788 24.58271,97.85554 -0.21199,0.212 -10.92778,-5.96877 -23.81286,-13.73504 C 259.77985,330.35422 249.0109,324 248.73393,324 c -0.27697,0 1.68316,8.6625 4.35584,19.25 5.51643,21.85267 5.88717,26.41406 2.66023,32.73014 -4.60144,9.0064 -4.20273,8.85579 -61.16106,23.10339 C 166.18871,406.18759 140.91558,412 138.42642,412 c -6.88117,0 -14.70855,-4.81261 -17.89073,-11 -0.70716,-1.375 -4.09826,-13.87082 -7.53578,-27.76849 l -6.25004,-25.26848 -6.62493,6.84244 c -8.63867,8.92228 -25.483225,20.7367 -49.443938,34.67894 l -9.818998,5.71347 0.818998,6.65106 c 0.450449,3.65808 0.806129,11.15106 0.7904,16.65106 -0.04301,15.03881 -3.801009,21.08311 -11.179396,17.98073 z m 153.645124,-96.39692 12.17766,-15.41619 -2.8074,-1.21269 c -1.54406,-0.66698 -10.14082,-4.41719 -19.10391,-8.33381 C 166.24039,311.2045 158.76585,308 158.59339,308 c -0.17246,0 2.43597,11.2195 5.79652,24.93223 4.57988,18.68819 6.39302,24.63615 7.23982,23.75 0.62135,-0.65023 6.60968,-8.11951 13.3074,-16.59842 z M 86.782119,322.44748 c 2.044834,-0.85389 5.585063,-2.6463 7.867175,-3.98314 l 4.149294,-2.43061 -2.37925,-9.26687 C 95.11075,301.67009 94.031068,296.2625 94.020044,294.75 94.00902,293.2375 93.621328,292 93.158507,292 c -1.651844,0 -13.238232,12.94656 -14.684817,16.40873 -2.415855,5.78195 -1.541767,12.51046 1.926014,14.82596 1.556561,1.03934 2.197664,0.96027 6.382415,-0.78721 z M 327,434.96545 c -13.4212,-2.38395 -23.05662,-8.47528 -46.52619,-29.41299 -4.96441,-4.42885 -10.56661,-9.21755 -12.44935,-10.64156 l -3.42316,-2.5891 2.35625,-1.9109 c 1.29593,-1.05099 5.9473,-5.0609 10.33637,-8.9109 24.82766,-21.7783 32.51464,-27.12884 44.04204,-30.65559 10.69444,-3.27191 20.25741,-2.36695 30.90971,2.92504 4.53988,2.25539 10.70703,5.93658 13.70478,8.18043 8.92809,6.68279 34.04955,29.2419 34.04955,30.57656 0,0.6799 -1.59876,2.45562 -3.55281,3.94604 -1.95404,1.49042 -7.91654,6.61262 -13.25,11.38267 -19.19489,17.16721 -30.22666,24.19683 -41.83104,26.65541 -7.5453,1.5986 -7.86945,1.60887 -14.36615,0.45489 z m 15.46504,-5.49836 c 10.52583,-2.74163 19.01143,-8.38206 37.82896,-25.14516 6.06411,-5.40206 11.65816,-10.28741 12.43121,-10.85632 1.11261,-0.81881 -1.02495,-3.2156 -10.25616,-11.5 -26.92392,-24.16244 -39.82204,-30.65862 -55.2722,-27.83804 -11.80246,2.15465 -22.36697,8.95496 -43.90154,28.25913 l -11.02901,9.8867 6.93083,6.1133 c 34.60048,30.51919 45.28018,35.7656 63.26791,31.08039 z M 327.5,415.11536 c -12.80196,-3.3318 -20.4893,-15.65456 -17.51091,-28.06988 1.68151,-7.00933 5.81987,-12.27306 12.11567,-15.41039 6.09201,-3.03578 13.86472,-3.51033 19.42736,-1.18612 3.49048,1.45842 4.69292,3.55103 2.04046,3.55103 -0.78508,0 -2.36008,1.18569 -3.5,2.63486 -2.89347,3.67845 -2.80674,10.4001 0.17898,13.87121 2.93941,3.41727 9.60229,4.47494 13.22734,2.09972 2.51852,-1.65021 2.52108,-1.64855 2.49914,1.62116 -0.0469,6.99159 -6.12267,15.71568 -13.32525,19.13352 -4.24777,2.0157 -11.10101,2.80939 -15.15279,1.75489 z m 32.08488,-72.87673 c -0.95806,-4.61083 -4.58448,-27.6503 -4.58468,-29.12752 -1.6e-4,-1.09133 1.28527,-1.27233 5.9998,-0.84483 l 6,0.54406 v -13.77418 c 0,-25.3992 -5.85244,-47.6642 -17.16094,-65.28696 l -3.08958,-4.81469 -5.84352,5.57378 c -6.02907,5.75076 -12.8955,9.49946 -21.15596,11.55001 l -4.75,1.17913 v 11.38128 C 315,264.87842 314.73554,270 314.41232,270 c -0.32322,0 -6.04358,-5.175 -12.7119,-11.5 L 289.57619,247 H 207.9696 c -72.13558,0 -82.23696,-0.18703 -87.0381,-1.61152 C 102.99866,240.06781 90.886192,226.56684 88.035357,208.72133 85.411585,192.29717 93.290269,174.16588 107.29,164.41045 l 2.78999,-1.94415 -12.574124,-45.36569 C 90.590098,92.149483 85.093313,71.573354 85.290788,71.375879 c 0.519255,-0.519256 87.127752,31.973081 87.716012,32.907831 0.424,0.67375 -10.51395,6.09847 -25.86092,12.82584 l -4.35412,1.90864 11.10412,11.8705 C 160.00315,137.41747 165,143.22352 165,143.79101 c 0,0.56749 -2.99008,3.77167 -6.64462,7.1204 L 151.71075,157 h 22.47796 22.47796 l 0.0506,-4.25 c 0.0287,-2.41241 1.23694,-6.84425 2.79434,-10.25 1.50904,-3.3 2.84083,-7.125 2.95952,-8.5 0.40272,-4.66515 0.52784,-5 1.86834,-5 1.80022,0 4.12515,-5.09481 2.72096,-5.96265 -0.64882,-0.40099 1.02714,-5.15524 4.44237,-12.60175 l 5.48426,-11.95783 -4.00095,-8.024693 C 205.98224,76.40541 204.24358,61.187448 207.97544,46.596011 210.90827,35.128774 215.27905,27.656056 224.46348,18.406416 236.94074,5.8405627 250.78913,-0.01493888 267.9601,0.01478109 292.29089,0.05689346 313.129,12.923116 323.83996,34.517089 328.15118,43.208768 330,51.457258 330,62 c 0,30.42935 -20.11832,54.58608 -51.13705,61.40196 -2.21187,0.48602 -3.27277,2.07232 -6.58005,9.83874 -2.16866,5.09262 -4.37853,10.6093 -4.91082,12.2593 -0.59402,1.84131 -1.56212,2.901 -2.50656,2.74368 -0.8463,-0.14097 -2.06226,0.89271 -2.70213,2.29706 -1.49701,3.28559 -1.47474,3.45926 0.4436,3.45926 0.98403,0 1.39387,0.55539 1.05722,1.43268 -0.46781,1.21909 3.81067,1.47998 28.69875,1.75 l 29.24852,0.31732 7.5331,3.72497 c 9.91325,4.90192 16.7063,11.671 21.55233,21.47628 3.74055,7.56849 3.80309,7.88498 3.80309,19.24689 0,10.38691 -0.26532,12.11768 -2.63096,17.16269 l -2.63097,5.61083 3.00954,4.38917 c 5.26041,7.67191 12.56306,24.06478 15.11956,33.94017 3.25949,12.5909 4.95304,27.76806 4.46219,39.98888 l -0.39773,9.9023 4.53419,0.59246 c 2.4938,0.32586 5.11774,0.67637 5.83098,0.77891 0.74538,0.10717 -2.29844,5.15013 -7.15826,11.85973 -4.65029,6.42031 -8.73266,12.49531 -9.07194,13.5 -0.33929,1.0047 -1.69594,2.60911 -3.01478,3.56535 -2.35796,1.70968 -2.40738,1.69303 -2.96694,-1 z M 363.86683,328.25 c 0.51915,-2.0625 1.23189,-5.4375 1.58385,-7.5 0.62725,-3.6756 0.5774,-3.75 -2.51236,-3.75 -2.32516,0 -3.00806,0.37587 -2.6026,1.43248 0.30233,0.78786 0.8586,4.16286 1.23615,7.5 0.37755,3.33713 0.83599,6.06752 1.01875,6.06752 0.18276,0 0.75705,-1.6875 1.27621,-3.75 z m 8.56537,-6.75 2.66958,-3.5 h -2.44148 c -2.04578,0 -2.50771,0.56728 -2.85009,3.5 -0.22474,1.925 -0.32738,3.5 -0.2281,3.5 0.0993,0 1.38182,-1.575 2.85009,-3.5 z M 135.33151,157.06026 149.16302,156.5 l -10.70436,-11.74809 -10.70436,-11.7481 -7.49498,13.22337 c -4.12224,7.27285 -7.71325,13.79217 -7.98002,14.48737 -0.31026,0.80852 1.26367,0.4788 4.36783,-0.91502 3.94277,-1.77036 7.44682,-2.28408 18.68438,-2.73927 z m 133.52305,-27.83489 4.17374,-9.77463 6.73585,-1.27689 C 301.56602,114.04094 319.8092,95.821257 324.4956,73.5 c 1.8531,-8.826242 1.8531,-14.173758 0,-23 C 318.05789,19.837302 287.88802,-0.52672132 257.67545,5.3978092 236.71356,9.5083288 220.85432,23.270232 213.83141,43.443619 c -2.30718,6.627373 -2.80703,9.74853 -2.81803,17.596282 -0.0164,11.666023 1.77793,18.954293 7.14718,29.031287 l 4.07643,7.650647 -4.24499,9.679255 c -2.33474,5.32359 -4.07557,9.84456 -3.86849,10.0466 1.40071,1.36668 12.37229,5.44954 12.96717,4.82548 0.80382,-0.84325 14.22134,-30.304452 19.18467,-42.124296 2.04852,-4.878435 2.77365,-7.772384 2.15575,-8.603493 -0.51211,-0.688802 -2.61214,-3.455795 -4.66674,-6.148874 -7.35267,-9.63755 -9.80957,-21.529995 -5.80484,-28.097958 5.26439,-8.633892 17.51255,-8.133084 23.04588,0.942311 2.84878,4.672361 2.4873,8.783995 -1.89832,21.592719 l -3.88055,11.33358 3.13674,1.915196 c 3.31781,2.025756 9.55644,4.356597 10.08343,3.76731 C 268.61869,76.657349 269.98689,74.025 271.48716,71 278.13333,57.599309 287.50245,53.302448 294.6,60.4 c 3.99208,3.992081 4.23046,6.575621 1.11438,12.077448 -3.00356,5.303169 -11.11541,9.527061 -19.24974,10.023462 l -5.87616,0.358596 -2.37683,5.320247 c -5.81981,13.027007 -18.21053,43.082907 -18.1997,44.146637 0.0112,1.0969 11.17752,6.55436 13.57846,6.63637 0.59973,0.0205 2.96859,-4.36134 5.26415,-9.73739 z m -18.39147,-11.07332 c 2.55814,-6.24137 7.10046,-16.96376 10.09404,-23.827532 C 263.55071,87.46075 266,81.654828 266,81.42247 266,81.190111 265.50285,81 264.89523,81 c -0.60763,0 -3.3799,-1.142729 -6.1606,-2.539398 -2.78071,-1.396669 -5.35268,-2.184169 -5.71549,-1.75 -0.3628,0.434169 -3.07421,6.414398 -6.02535,13.289398 -2.95113,6.875 -7.74128,17.58524 -10.64476,23.80053 l -5.27906,11.30054 4.71502,2.04817 c 7.78031,3.37971 8.68681,3.66955 9.37097,2.99628 0.36079,-0.35504 2.74899,-5.7521 5.30713,-11.99347 z M 282.45308,76.891347 C 289.86672,74.833086 295.37077,66.770768 291.8,63.2 c -1.82993,-1.829925 -7.23588,-1.431578 -9.99185,0.736266 -1.35386,1.064947 -3.91593,4.664947 -5.6935,8 L 272.88272,78 l 2.80864,-0.0056 c 1.54475,-0.0031 4.58752,-0.499451 6.76172,-1.103076 z M 254.82435,57.75 c 1.6441,-5.0875 3.23752,-10.352127 3.54093,-11.699171 C 259.37425,41.571268 253.52561,35 248.52967,35 c -2.54901,0 -7.45064,5.061823 -8.06312,8.326637 -0.35949,1.916225 0.0771,5.211069 1.08527,8.18972 C 243.31287,56.719592 249.59583,67 251.01477,67 c 0.45117,0 2.16548,-4.1625 3.80958,-9.25 z M 374.39553,83.291781 C 375.42807,74.506484 375.9886,73 378.22491,73 c 1.88159,0 1.96306,0.420414 1.29333,6.674264 C 378.61689,88.09097 378.2501,89 375.75533,89 c -1.88211,0 -1.98161,-0.417658 -1.3598,-5.708219 z m 23.34545,-8.899494 c -5.57092,-4.419412 -6.85527,-6.585585 -4.69593,-7.920127 0.95775,-0.591922 11.23984,6.561756 12.60413,8.769214 0.32311,0.522802 -0.0323,1.570353 -0.78987,2.327892 -1.1698,1.16979 -2.24246,0.69105 -7.11833,-3.176979 z m -46.39503,-4.93314 c -0.85237,-2.221235 0.80704,-3.43175 8.08377,-5.897019 4.90451,-1.661586 5.84974,-1.732872 6.62984,-0.5 1.47652,2.333492 1.22672,2.565908 -5.30956,4.940033 -3.4375,1.248578 -6.80871,2.480563 -7.49157,2.737744 -0.68286,0.257182 -1.54348,-0.319159 -1.91248,-1.280758 z M 394.6959,51.945112 c -0.38612,-1.476505 0.0736,-2.292207 1.63337,-2.898041 1.1939,-0.463734 4.50813,-1.772575 7.36495,-2.908534 l 5.19422,-2.065381 0.64709,2.038782 c 0.8009,2.523417 1.22092,2.179479 -6.45794,5.288094 -7.72559,3.127531 -7.70669,3.126302 -8.38169,0.54508 z m -31.71544,-5.226713 c -1.38574,-1.22012 -3.82893,-3.246635 -5.42931,-4.503369 -2.66462,-2.09245 -2.77527,-2.41948 -1.31331,-3.881439 1.46196,-1.461959 2.10898,-1.193818 7.67932,3.182495 4.80095,3.77184 5.84631,5.063985 4.96041,6.131439 -1.55586,1.874687 -2.96481,1.652697 -5.89711,-0.929126 z m 19.15884,-4.611142 c -1.02046,-0.646554 -1.18991,-2.205478 -0.67766,-6.234688 C 382.45371,28.069137 382.90479,27 385.20507,27 c 1.93029,0 2.02492,0.386025 1.3994,5.708219 -1.19132,10.136275 -1.67954,11.163971 -4.46517,9.399038 z"
         id="path5" />
      <path
         style="fill:#f76952"
         d="m 484.5,448.93538 c -23.02128,-3.11008 -46.91209,-12.21024 -61.47521,-23.41631 -7.82316,-6.01978 -11.25773,-11.28284 -11.82471,-18.11996 -0.45047,-5.432 -0.40243,-5.54806 4.07054,-9.83391 4.72354,-4.52596 10.57153,-7.05009 18.97938,-8.19195 l 4.75,-0.6451 V 309.36408 230 h -8.98927 c -10.03985,0 -16.27647,-1.8127 -22.45784,-6.52746 -3.09254,-2.35879 -26.68333,-35.06649 -30.40606,-42.1568 -2.8611,-5.44925 -0.28702,-10.17282 7.10747,-13.04262 l 4.75431,-1.84515 -13.35315,-7.1976 c -12.90085,-6.95381 -13.73438,-7.60496 -24.6077,-19.22335 -6.64507,-7.10041 -11.04018,-12.5844 -10.73113,-13.38975 0.42908,-1.11819 3.33118,-0.87152 16.10339,1.3687 L 372,130.71868 v -3.28676 c 0,-6.00195 2.68958,-7.04661 20.20446,-7.84765 12.94277,-0.59193 17.23337,-1.22904 27.89349,-4.1419 14.57033,-3.98132 21.55297,-4.32705 29.14132,-1.44287 2.8934,1.09972 7.28573,2.01947 9.76073,2.04389 9.32888,0.092 16.23396,4.11544 24.71148,14.39871 l 5.72306,6.94209 0.66463,-3.44209 c 0.36554,-1.89316 0.94203,-5.3167 1.28108,-7.60788 l 0.61645,-4.16577 -9.24835,-7.6483 c -5.08659,-4.20657 -10.26085,-9.06927 -11.49835,-10.80601 -2.54176,-3.56716 -2.92329,-9.916489 -0.94356,-15.702409 1.4471,-4.229247 5.79731,-6.741122 9.08242,-5.244322 3.13269,1.427346 33.97307,26.605951 36.45776,29.764731 3.45325,4.39009 3.65799,8.7754 1.2871,27.56763 l -2.22045,17.59976 2.50525,7.463 c 3.56526,10.62075 4.93629,20.81334 4.21526,31.33747 -0.33913,4.95 -0.86184,9.9 -1.16158,11 -0.46559,1.70865 1.39051,3.04187 12.74141,9.15201 11.77076,6.33616 13.32504,7.47483 13.62519,9.98193 0.74472,6.2204 -3.36621,14.03608 -8.88345,16.88915 -2.76743,1.43109 -3.2117,1.2941 -12.66171,-3.90417 -5.65673,-3.11166 -10.18581,-5.02293 -10.72206,-4.52469 -0.56912,0.52878 1.00372,34.44374 4.06421,87.63616 l 4.99262,86.77355 6.1096,5.82757 C 536.59237,421.86946 539,426.0716 539,431.49684 c 0,7.22645 -5.08635,12.15328 -16.18571,15.67808 -7.41251,2.35397 -27.19328,3.26285 -38.31429,1.76046 z m 14.75886,-17.40237 c 3.71737,-0.78774 9.79237,-2.91743 13.5,-4.73263 6.50956,-3.187 6.75125,-3.4378 7.03554,-7.30038 0.16192,-2.2 -2.00216,-43.375 -4.80906,-91.5 -2.8069,-48.125 -4.96437,-89.46547 -4.79439,-91.86771 l 0.30905,-4.3677 -37,-19.96791 c -20.35,-10.98235 -37.5625,-20.20252 -38.25,-20.48928 -0.81367,-0.33939 -1.25,0.38862 -1.25,2.08561 0,2.41743 -0.32247,2.60699 -4.4349,2.60699 -2.4392,0 -5.7017,-0.4523 -7.25,-1.00512 -1.54831,-0.55281 -7.5751,-6.02186 -13.39288,-12.15344 l -10.57778,-11.14833 -5.42222,-0.40193 c -6.48295,-0.48057 -12.24512,1.96425 -12.73447,5.40309 -0.21096,1.4825 3.643,7.96995 11.88129,20 19.03735,27.7995 19.93249,28.48161 38.43096,29.28474 l 12,0.52099 0.5,95.91536 0.5,95.91536 10.10601,5.34324 c 16.55043,8.75053 30.28688,11.11523 45.65285,7.85905 z m 18.10522,-229.17258 c 1.66786,-12.1684 0.0137,-26.53012 -4.4357,-38.51214 l -2.09871,-5.65171 2.0894,-15.84829 c 2.53609,-19.23637 2.57078,-21.97382 0.33093,-26.11504 -1.97046,-3.64316 -34.85359,-30.529545 -36.62507,-29.945926 -3.07698,1.013724 -4.80086,10.64692 -2.63086,14.701586 0.54673,1.02159 5.72173,5.78103 11.5,10.57655 5.77826,4.79551 10.50593,9.16389 10.50593,9.7075 0,0.54361 -0.7126,5.4706 -1.58356,10.94887 -1.2647,7.95491 -1.34245,10.54259 -0.38612,12.85137 1.31492,3.17449 0.62794,6.45166 -1.12529,5.3681 -0.61,-0.377 -1.73598,-2.18579 -2.50216,-4.01953 -0.76619,-1.83374 -4.81996,-7.45145 -9.00839,-12.4838 -8.42653,-10.12439 -15.12793,-14.35261 -21.79242,-13.74983 l -3.44796,0.31186 9.4217,15 c 5.18193,8.25 9.27226,15.45 9.08962,16 -0.99181,2.98663 -4.10227,-0.63715 -13.69642,-15.95675 -7.97404,-12.73269 -11.34802,-17.26768 -13.54422,-18.2049 -4.32313,-1.84488 -14.09894,-1.57204 -20.92478,0.58402 l -6,1.8952 10.12361,0.0912 10.12361,0.0912 7.62375,17.09975 c 4.19307,9.40487 7.37339,17.50487 7.06738,18 -1.58641,2.56687 -3.64582,-0.48724 -10.01332,-14.84975 l -6.98263,-15.75 -21.4712,-0.54762 c -11.80916,-0.30119 -25.7462,-0.30119 -30.9712,0 -9.03522,0.52083 -9.51633,0.66298 -9.83369,2.90554 -0.36647,2.58948 3.56564,7.41136 7.83369,9.60634 1.375,0.70713 9.7,2.26705 18.5,3.46648 8.8,1.19943 16.95476,2.56974 18.12169,3.04512 1.63348,0.66545 2.39952,2.33676 3.32906,7.26315 0.66406,3.51934 1.5999,7.03393 2.07966,7.81019 0.87792,1.4205 87.50493,48.65636 89.58367,48.84806 0.61274,0.0565 1.40024,-1.98507 1.75,-4.53683 z M 430,191 c 0,-2.27346 -9.60647,-8.64395 -19.43054,-12.88528 -2.0302,-0.8765 8.12455,10.29782 10.93054,12.028 3.20726,1.9776 8.5,2.51141 8.5,0.85728 z m -10.03819,-40.23738 -1.12824,-4.48066 -10.4293,-1.45349 c -5.73611,-0.79942 -10.08616,-1.12652 -9.66678,-0.72689 1.24898,1.19017 21.67071,11.82355 22.02571,11.46856 0.17977,-0.17977 -0.18085,-2.34316 -0.80139,-4.80752 z m -51.17128,-9.29202 c 2.27856,-4.62069 2.85288,-6.64547 1.96463,-6.92643 -2.27336,-0.71909 -19.21331,-3.54828 -21.23308,-3.5462 -1.46353,0.001 0.22115,2.21259 6.47792,8.50203 4.65071,4.675 8.7067,8.5 9.01329,8.5 0.3066,0 2.00635,-2.93823 3.77724,-6.5294 z M 30.076919,435.35506 C 25.468473,432.10105 22.005793,427.46121 17.124973,418 3.0846087,390.78351 -4.0599834,351.46538 2.5164793,337.60652 c 1.8269745,-3.85007 5.1508998,-5.45167 8.0024007,-3.85589 1.416195,0.79254 1.214152,1.11731 -1.3578706,2.18268 -2.7754526,1.14963 -3.0741043,1.75325 -3.6658038,7.40914 -1.8147992,17.34717 5.9243784,43.39156 17.0176144,57.2688 l 2.30922,2.88875 7.173113,-3.86587 c 4.10011,-2.2097 7.54805,-3.49093 8.048304,-2.99067 1.496509,1.49651 2.839131,20.73987 1.94824,27.92349 -1.310021,10.56324 -6.09605,14.8967 -11.914778,10.78811 z M 320,432.78223 c -11.29083,-3.96435 -20.81755,-10.64099 -39.5,-27.68292 -4.95,-4.51534 -10.2375,-8.95689 -11.75,-9.87012 -3.62912,-2.1912 -3.47062,-3.44217 0.85403,-6.74074 1.98222,-1.51191 8.39472,-7.03449 14.25,-12.2724 18.49969,-16.54911 28.13858,-22.71841 40.40501,-25.86093 16.16597,-4.14152 32.26995,2.7263 55.90262,23.84066 5.86392,5.23905 12.72642,11.21746 15.25,13.28535 2.52359,2.06789 4.58834,4.06549 4.58834,4.43912 0,1.09422 -28.66009,26.16977 -35.36803,30.94453 -3.37258,2.40062 -9.47981,5.97861 -13.57163,7.95109 -6.42102,3.09528 -8.61172,3.63165 -16,3.91745 -6.93769,0.26837 -9.79244,-0.10147 -15.06034,-1.95109 z m 29.43885,-5.60682 c 3.76644,-1.76253 9.59602,-5.16735 12.95461,-7.56626 6.91534,-4.93936 31.10654,-26.28424 31.10654,-27.44656 0,-0.99273 -22.64058,-21.10226 -30.1665,-26.79411 -12.07389,-9.13148 -24.11412,-13.25104 -34.81951,-11.91349 -8.53741,1.06667 -21.2629,7.97864 -32.69897,17.76074 -21.24255,18.1703 -23.64148,20.30814 -23.48134,20.92578 0.0915,0.35283 5.34132,5.24001 11.66632,10.86041 26.00111,23.10457 35.39204,28.2472 50.54539,27.6795 6.56636,-0.246 9.30431,-0.89053 14.89346,-3.50601 z m -27.57466,-14.96885 c -14.11432,-7.35013 -16.18654,-26.92709 -3.95816,-37.39413 6.78721,-5.8096 16.56834,-7.2872 24.45413,-3.69419 l 2.61485,1.19141 -3.7375,3.23081 c -3.3275,2.8764 -3.73751,3.74602 -3.73751,7.92721 0,4.0699 0.44928,5.09782 3.36797,7.70567 2.85555,2.55143 3.99664,2.9452 7.5,2.58807 2.27262,-0.23167 4.98323,-0.79535 6.02358,-1.25262 1.73249,-0.76149 1.83059,-0.50641 1.16651,3.03339 -3.03412,16.17327 -19.24288,24.18983 -33.69387,16.66438 z m -189.17921,-1.22342 c -4.31344,-1.29471 -9.50145,-5.69422 -11.54587,-9.79107 -1.01334,-2.03064 -4.65261,-15.01115 -8.08727,-28.84558 l -6.24484,-25.15351 6.03568,-8.34649 c 4.54116,-6.27978 8.45641,-10.2036 15.81191,-15.84649 5.37693,-4.125 10.4668,-8.76479 11.31082,-10.31063 1.45878,-2.67179 1.4124,-2.91095 -0.93877,-4.84117 -2.14992,-1.76498 -3.58842,-1.98356 -11,-1.67138 -7.74145,0.32606 -9.43886,0.79586 -18.43277,5.10169 -5.44837,2.60841 -10.098652,4.55004 -10.333952,4.31474 -1.090856,-1.09085 -5.222041,-19.57293 -5.239874,-23.44212 -0.01102,-2.39188 0.701212,-5.86881 1.582748,-7.7265 C 97.518682,280.38719 104.31973,274 106.70288,274 c 3.16345,0 -0.0785,-1.8239 -7.879197,-4.43275 C 94.601709,268.15526 90.11731,267 88.858353,267 c -1.258957,0 -8.476714,4.10405 -16.03946,9.12012 C 60.081583,284.56827 56,286.24231 56,283.0183 c 0,-0.57445 6.798156,-5.54993 15.107013,-11.05662 17.366062,-11.50934 15.411899,-11.1929 32.392987,-5.24536 5.5,1.92634 10.9,3.6957 12,3.93189 1.1,0.2362 22.925,-4.7957 48.5,-11.18199 36.05016,-9.00204 47.56193,-11.51629 51.22542,-11.18799 5.55266,0.49759 11.98572,4.37626 14.72256,8.87663 1.02845,1.69115 4.22197,12.50206 7.0967,24.02424 2.87474,11.52218 5.5785,20.583 6.00836,20.13516 0.42986,-0.44784 7.10076,-11.36053 14.82421,-24.25042 8.07591,-13.47812 14.25969,-22.82594 14.55346,-22 C 273.4416,257.90597 296.75067,352 296.44383,352 c -0.17279,0 -11.14334,-6.50747 -24.379,-14.46104 -13.23566,-7.95357 -24.07548,-14.14107 -24.0885,-13.75 -0.013,0.39107 2.33475,10.25693 5.21728,21.92412 4.94449,20.01316 5.17012,21.47789 3.98885,25.89453 -1.54172,5.76432 -4.21125,9.62903 -8.46874,12.2603 -3.57097,2.20698 -105.88729,28.18797 -110.44913,28.04614 -1.52052,-0.0473 -4.03135,-0.46618 -5.57961,-0.93091 z m 51.68071,-69.59528 c 7.07613,-9.0694 12.66723,-16.68828 12.42466,-16.93084 -0.84906,-0.84906 -38.29407,-17.1644 -38.67014,-16.84915 -0.59604,0.49966 12.04512,50.3995 12.75038,50.33097 0.34617,-0.0336 6.41897,-7.48158 13.4951,-16.55098 z m 173.69649,-10.48192 c -1.23013,-7.92326 -2.47833,-15.44712 -2.77379,-16.71967 -0.52841,-2.2759 -0.43869,-2.30259 5.48762,-1.6321 l 6.02481,0.68163 0.67808,-8.3679 c 1.80344,-22.2555 -5.40289,-52.60986 -16.60441,-69.94079 l -3.96379,-6.13276 -5.28803,5.00119 C 335.59546,239.49583 327.784,243.82318 320.5,245.49698 l -5,1.14896 -0.5,11.74794 -0.5,11.74794 L 302.19932,258.57091 289.89864,247 209.19932,246.9852 c -88.53476,-0.0162 -88.23475,0.002 -98.7168,-5.99522 C 103.30666,236.88439 95.489511,228.25543 91.701451,220.25853 88.674314,213.86799 88.5,212.87102 88.5,201.94814 c 0,-11.3158 0.07599,-11.70561 3.718409,-19.07555 4.224382,-8.54746 11.253951,-16.17902 18.571191,-20.16156 C 118.38763,158.57566 126.11842,157 138.81003,157 h 11.38983 l -10.84993,-11.90835 c -5.96746,-6.5496 -11.09447,-11.9496 -11.39335,-12 -0.29889,-0.0504 -4.31902,6.52295 -8.93364,14.60745 -4.7702,8.35708 -8.59944,14.07388 -8.87515,13.25 -3.94995,-11.80321 -24.544017,-88.94327 -23.74086,-88.92712 2.228486,0.04481 86.08646,31.79497 85.91507,32.52902 -0.0979,0.4193 -6.6229,3.69767 -14.5,7.28526 -7.8771,3.5876 -14.49903,6.65662 -14.7154,6.82005 -0.21636,0.16343 2.70864,3.71549 6.5,7.89346 3.79137,4.17797 8.88335,9.85631 11.31551,12.61854 l 4.42211,5.02223 -6.92211,6.35845 -6.92211,6.35845 22.75,0.0463 L 197,157 v -3.90678 c 0,-2.15058 1.29239,-6.78727 2.875,-10.31462 1.58125,-3.52431 2.875,-7.68439 2.875,-9.24463 0,-1.76105 0.84193,-3.47186 2.22021,-4.5115 1.50824,-1.13767 2.30851,-2.93302 2.49556,-5.59859 0.15143,-2.15813 2.4085,-8.68483 5.0157,-14.50377 l 4.74036,-10.579891 -4.05075,-8.42011 C 200.99055,64.601002 205.2475,37.721205 224.48435,18.484351 243.58766,-0.61895597 271.56412,-5.2407197 295.8709,6.6911589 c 10.59617,5.2015241 22.23642,16.8417671 27.43794,27.4379451 8.91344,18.157829 8.88452,37.642851 -0.0829,55.870896 -7.45395,15.15159 -24.94917,28.79896 -41.22952,32.16161 l -5.87599,1.21367 -3.93664,9.06236 c -2.16515,4.9843 -4.22982,10.31578 -4.58814,11.84773 -0.38595,1.65008 -1.62421,3.15519 -3.038,3.69272 -2.61607,0.99462 -4.55773,5.18855 -2.69034,5.81101 0.62299,0.20766 1.1327,1.01507 1.1327,1.79423 0,1.18512 4.15991,1.41667 25.45078,1.41667 14.87524,0 27.65276,0.46314 30.75,1.11459 27.99276,5.88772 43.73765,36.7641 31.7509,62.26481 l -2.01963,4.29659 5.44107,8.66662 c 11.7774,18.75922 18.79158,48.6569 16.97121,72.3392 L 370.70495,314 h 5.64752 c 3.10614,0 5.64753,0.35311 5.64753,0.78468 0,0.43157 -3.61629,5.71907 -8.0362,11.75 -4.41992,6.03093 -8.2937,11.97782 -8.60841,13.21532 -0.31471,1.2375 -1.03631,2.25 -1.60356,2.25 -0.56724,0 -1.57623,0.74518 -2.2422,1.65594 -0.99618,1.36236 -1.60739,-0.89811 -3.44745,-12.75 z m 6.79687,-5.32272 c 1.56756,-8.12911 1.53168,-8.29887 -1.85905,-8.79653 -1.65,-0.24217 -3,-0.0866 -3,0.34565 0,3.54211 2.4197,15.82842 2.99077,15.18594 0.40003,-0.45005 1.24076,-3.48083 1.86828,-6.73506 z m 7.45436,-3.48063 c 2.46451,-3.72413 2.49269,-3.92003 0.63388,-4.40612 -1.06991,-0.27979 -2.11164,-0.21346 -2.31496,0.14741 -0.6177,1.09639 -1.75206,8.15612 -1.31053,8.15612 0.22684,0 1.57306,-1.75384 2.99161,-3.89741 z M 268.90714,129.98596 c 3.67368,-8.44436 4.76695,-10.09926 6.97471,-10.55772 9.07118,-1.88369 12.26554,-2.88505 17.67919,-5.54203 C 313.36415,104.16699 326,83.955911 326,62 326,42.687469 316.4677,24.808222 300.46472,14.104774 282.85903,2.3293698 261.3265,0.90386375 242.06461,10.238544 c -9.53606,4.621362 -20.9368,16.179032 -25.55786,25.909671 -8.85734,18.651039 -8.14524,38.450835 1.98794,55.27444 l 3.56733,5.922656 -4.42612,10.077349 -4.42612,10.07734 5.09236,2.28045 c 9.28218,4.15674 8.67147,4.44739 13.64766,-6.49529 2.4474,-5.38184 7.47514,-16.729226 11.17278,-25.216419 l 6.72297,-15.431258 -3.48298,-4.068742 C 244.44693,66.330934 241.44418,61.584462 239.68979,58.021027 237.11965,52.80066 236.5,50.309904 236.5,45.199265 c 0,-6.164431 0.11842,-6.453253 4.21128,-10.271028 C 244.08339,31.782768 245.68108,31 248.72914,31 c 4.88284,0 10.43284,3.714224 12.70508,8.502621 2.13966,4.509004 1.57151,8.511485 -3.05156,21.497379 -1.86013,5.225 -3.3822,9.797249 -3.38236,10.160552 -4.2e-4,0.925551 10.05732,5.83996 11.94604,5.837072 0.87529,-0.0013 2.86355,-2.511094 4.55366,-5.747997 3.88217,-7.435165 9.41948,-12.956295 13.82274,-13.782351 7.14486,-1.340383 13.46209,5.175533 11.58866,11.95312 -1.10293,3.990091 -7.68311,9.895024 -12.7023,11.39881 C 282.04147,81.468642 278.19182,82 275.6543,82 c -4.32526,0 -4.73299,0.234407 -6.52281,3.75 -1.87679,3.686409 -14.49977,33.14004 -18.2382,42.5558 l -1.90809,4.8058 7.2574,3.37901 c 3.99157,1.85846 7.49378,3.40835 7.78269,3.4442 0.28891,0.0359 2.48574,-4.44113 4.88185,-9.94885 z M 247.51355,126.25 c 0.9819,-2.6125 5.59263,-13.66291 10.24607,-24.55646 4.65344,-10.893547 8.29871,-19.939265 8.10059,-20.101591 -0.99909,-0.818605 -12.00191,-5.48005 -12.63115,-5.351303 -0.40098,0.08204 -2.34712,3.998962 -4.32474,8.704263 -1.97763,4.7053 -6.85647,15.676251 -10.84187,24.379891 -3.9854,8.70364 -7.09234,15.92992 -6.90432,16.05839 1.33206,0.91019 12.56323,5.58232 13.45601,5.59767 0.61278,0.0105 1.91752,-2.11836 2.89941,-4.73086 z m 38.08789,-50.299107 c 7.00488,-3.391004 9.59352,-8.846843 5.93394,-12.506423 -3.13914,-3.13914 -5.61634,-3.088673 -9.51745,0.193898 -2.80616,2.361227 -8.98459,11.696636 -9.00855,13.611632 -0.0194,1.551745 8.52368,0.670365 12.59206,-1.299107 z M 255.44991,57.018487 C 257.40246,50.978655 259,45.083655 259,43.918487 259,42.753319 257.47,40.27 255.6,38.4 c -4.52002,-4.52002 -8.66168,-4.615987 -12.69879,-0.294245 -3.86009,4.132241 -3.87651,9.333855 -0.0549,17.394245 2.44105,5.148561 7.55324,12.5 8.6925,12.5 0.19856,0 1.95856,-4.941681 3.9111,-10.981513 z M 51.302838,274.3468 c -0.822543,-2.14351 5.688012,-7.79359 15.442917,-13.40188 7.90786,-4.54638 10.513647,-5.24496 10.985042,-2.94492 0.191934,0.93649 -1.672051,2.58507 -4.961685,4.38831 -2.898012,1.58857 -8.517387,5.30107 -12.487502,8.25 C 56.311496,273.58724 52.809872,276 52.500225,276 c -0.309647,0 -0.848471,-0.74394 -1.197387,-1.6532 z M 375.29901,88.205963 c -0.91682,-0.582782 -0.94739,-2.472035 -0.12919,-7.984688 C 376.06326,74.201641 376.55432,73 378.12081,73 c 2.21042,0 2.21634,0.07322 0.73264,9.057371 -1.16475,7.05282 -1.42465,7.502401 -3.55444,6.148592 z M 397.5,73.868586 c -2.75,-2.233024 -5.17663,-4.23109 -5.3925,-4.440148 -0.21588,-0.209059 0.16098,-1.047016 0.83747,-1.862128 1.05575,-1.272104 2.05855,-0.818992 7.07976,3.198962 4.42758,3.542934 5.59216,4.991421 4.79009,5.957857 -1.4816,1.785222 -1.71125,1.695604 -7.31482,-2.854543 z M 351.62904,69.475683 C 351.28307,68.574091 351,67.696083 351,67.524553 351,67.066475 363.84881,62 365.01052,62 365.55473,62 366,62.837548 366,63.861217 c 0,1.319357 -1.52845,2.455605 -5.25,3.902853 -2.8875,1.1229 -5.97943,2.336214 -6.87096,2.696254 -1.02229,0.41285 -1.85328,0.0492 -2.25,-0.984641 z m 43.68777,-17.092474 c -0.7647,-1.992777 0.0682,-2.630597 7.02849,-5.382107 4.86922,-1.924886 5.98941,-2.077557 6.70836,-0.914283 1.13979,1.844231 0.56376,2.287632 -6.85407,5.27591 -5.39365,2.172837 -6.38422,2.319705 -6.88278,1.02048 z m -34.6001,-7.998067 c -4.60264,-3.660916 -5.55091,-4.879994 -4.64499,-5.971554 1.37886,-1.661424 2.75431,-0.985537 8.85079,4.349203 2.70017,2.362786 4.13762,4.330898 3.69099,5.05357 -1.10099,1.781436 -1.6349,1.549448 -7.89679,-3.431219 z M 381.3619,38.75 c 0.32147,-1.7875 0.87906,-5.1625 1.2391,-7.5 0.51622,-3.351514 1.07394,-4.25 2.6381,-4.25 1.68295,0 1.90087,0.492434 1.43826,3.25 -0.29987,1.7875 -0.83951,5.1625 -1.19919,7.5 -0.52075,3.384243 -1.06615,4.25 -2.67736,4.25 -1.73603,0 -1.94038,-0.461567 -1.43891,-3.25 z"
         id="path4" />
      <path
         style="fill:#5d5d61"
         d="m 484.5,448.93538 c -23.02128,-3.11008 -46.91209,-12.21024 -61.47521,-23.41631 -7.82316,-6.01978 -11.25773,-11.28284 -11.82471,-18.11996 -0.45047,-5.432 -0.40243,-5.54806 4.07054,-9.83391 4.72354,-4.52596 10.57153,-7.05009 18.97938,-8.19195 l 4.75,-0.6451 V 309.36408 230 h -8.98927 c -10.03985,0 -16.27647,-1.8127 -22.45784,-6.52746 -3.09254,-2.35879 -26.68333,-35.06649 -30.40606,-42.1568 -2.8611,-5.44925 -0.28702,-10.17282 7.10747,-13.04262 l 4.75431,-1.84515 -13.35315,-7.1976 c -12.90085,-6.95381 -13.73438,-7.60496 -24.6077,-19.22335 -6.64507,-7.10041 -11.04018,-12.5844 -10.73113,-13.38975 0.42908,-1.11819 3.33118,-0.87152 16.10339,1.3687 L 372,130.71868 v -3.28676 c 0,-6.00195 2.68958,-7.04661 20.20446,-7.84765 12.94277,-0.59193 17.23337,-1.22904 27.89349,-4.1419 14.57033,-3.98132 21.55297,-4.32705 29.14132,-1.44287 2.8934,1.09972 7.28573,2.01947 9.76073,2.04389 9.32888,0.092 16.23396,4.11544 24.71148,14.39871 l 5.72306,6.94209 0.66463,-3.44209 c 0.36554,-1.89316 0.94203,-5.3167 1.28108,-7.60788 l 0.61645,-4.16577 -9.24835,-7.6483 c -5.08659,-4.20657 -10.26085,-9.06927 -11.49835,-10.80601 -2.54176,-3.56716 -2.92329,-9.916489 -0.94356,-15.702409 1.4471,-4.229247 5.79731,-6.741122 9.08242,-5.244322 3.13269,1.427346 33.97307,26.605951 36.45776,29.764731 3.45325,4.39009 3.65799,8.7754 1.2871,27.56763 l -2.22045,17.59976 2.50525,7.463 c 3.56526,10.62075 4.93629,20.81334 4.21526,31.33747 -0.33913,4.95 -0.86184,9.9 -1.16158,11 -0.46559,1.70865 1.39051,3.04187 12.74141,9.15201 11.77076,6.33616 13.32504,7.47483 13.62519,9.98193 0.74472,6.2204 -3.36621,14.03608 -8.88345,16.88915 -2.76743,1.43109 -3.2117,1.2941 -12.66171,-3.90417 -5.65673,-3.11166 -10.18581,-5.02293 -10.72206,-4.52469 -0.56912,0.52878 1.00372,34.44374 4.06421,87.63616 l 4.99262,86.77355 6.1096,5.82757 C 536.59237,421.86946 539,426.0716 539,431.49684 c 0,7.22645 -5.08635,12.15328 -16.18571,15.67808 -7.41251,2.35397 -27.19328,3.26285 -38.31429,1.76046 z m 14.75886,-17.40237 c 3.71737,-0.78774 9.79237,-2.91743 13.5,-4.73263 6.50956,-3.187 6.75125,-3.4378 7.03554,-7.30038 0.16192,-2.2 -2.00216,-43.375 -4.80906,-91.5 -2.8069,-48.125 -4.96437,-89.46547 -4.79439,-91.86771 l 0.30905,-4.3677 -37,-19.96791 c -20.35,-10.98235 -37.5625,-20.20252 -38.25,-20.48928 -0.81367,-0.33939 -1.25,0.38862 -1.25,2.08561 0,2.41743 -0.32247,2.60699 -4.4349,2.60699 -2.4392,0 -5.7017,-0.4523 -7.25,-1.00512 -1.54831,-0.55281 -7.5751,-6.02186 -13.39288,-12.15344 l -10.57778,-11.14833 -5.42222,-0.40193 c -6.48295,-0.48057 -12.24512,1.96425 -12.73447,5.40309 -0.21096,1.4825 3.643,7.96995 11.88129,20 19.03735,27.7995 19.93249,28.48161 38.43096,29.28474 l 12,0.52099 0.5,95.91536 0.5,95.91536 10.10601,5.34324 c 16.55043,8.75053 30.28688,11.11523 45.65285,7.85905 z m 18.10522,-229.17258 c 1.66786,-12.1684 0.0137,-26.53012 -4.4357,-38.51214 l -2.09871,-5.65171 2.0894,-15.84829 c 2.53609,-19.23637 2.57078,-21.97382 0.33093,-26.11504 -1.97046,-3.64316 -34.85359,-30.529545 -36.62507,-29.945926 -3.07698,1.013724 -4.80086,10.64692 -2.63086,14.701586 0.54673,1.02159 5.72173,5.78103 11.5,10.57655 5.77826,4.79551 10.50593,9.16389 10.50593,9.7075 0,0.54361 -0.7126,5.4706 -1.58356,10.94887 -1.2647,7.95491 -1.34245,10.54259 -0.38612,12.85137 1.31492,3.17449 0.62794,6.45166 -1.12529,5.3681 -0.61,-0.377 -1.73598,-2.18579 -2.50216,-4.01953 -0.76619,-1.83374 -4.81996,-7.45145 -9.00839,-12.4838 -8.42653,-10.12439 -15.12793,-14.35261 -21.79242,-13.74983 l -3.44796,0.31186 9.4217,15 c 5.18193,8.25 9.27226,15.45 9.08962,16 -0.99181,2.98663 -4.10227,-0.63715 -13.69642,-15.95675 -7.97404,-12.73269 -11.34802,-17.26768 -13.54422,-18.2049 -4.32313,-1.84488 -14.09894,-1.57204 -20.92478,0.58402 l -6,1.8952 10.12361,0.0912 10.12361,0.0912 7.62375,17.09975 c 4.19307,9.40487 7.37339,17.50487 7.06738,18 -1.58641,2.56687 -3.64582,-0.48724 -10.01332,-14.84975 l -6.98263,-15.75 -21.4712,-0.54762 c -11.80916,-0.30119 -25.7462,-0.30119 -30.9712,0 -9.03522,0.52083 -9.51633,0.66298 -9.83369,2.90554 -0.36647,2.58948 3.56564,7.41136 7.83369,9.60634 1.375,0.70713 9.7,2.26705 18.5,3.46648 8.8,1.19943 16.95476,2.56974 18.12169,3.04512 1.63348,0.66545 2.39952,2.33676 3.32906,7.26315 0.66406,3.51934 1.5999,7.03393 2.07966,7.81019 0.87792,1.4205 87.50493,48.65636 89.58367,48.84806 0.61274,0.0565 1.40024,-1.98507 1.75,-4.53683 z M 430,191 c 0,-2.27346 -9.60647,-8.64395 -19.43054,-12.88528 -2.0302,-0.8765 8.12455,10.29782 10.93054,12.028 3.20726,1.9776 8.5,2.51141 8.5,0.85728 z m -10.03819,-40.23738 -1.12824,-4.48066 -10.4293,-1.45349 c -5.73611,-0.79942 -10.08616,-1.12652 -9.66678,-0.72689 1.24898,1.19017 21.67071,11.82355 22.02571,11.46856 0.17977,-0.17977 -0.18085,-2.34316 -0.80139,-4.80752 z m -51.17128,-9.29202 c 2.27856,-4.62069 2.85288,-6.64547 1.96463,-6.92643 -2.27336,-0.71909 -19.21331,-3.54828 -21.23308,-3.5462 -1.46353,0.001 0.22115,2.21259 6.47792,8.50203 4.65071,4.675 8.7067,8.5 9.01329,8.5 0.3066,0 2.00635,-2.93823 3.77724,-6.5294 z M 30.076919,435.35506 C 25.468473,432.10105 22.005793,427.46121 17.124973,418 3.0846087,390.78351 -4.0599834,351.46538 2.5164793,337.60652 c 1.8269745,-3.85007 5.1508998,-5.45167 8.0024007,-3.85589 1.416195,0.79254 1.214152,1.11731 -1.3578706,2.18268 -2.7754526,1.14963 -3.0741043,1.75325 -3.6658038,7.40914 -1.8147992,17.34717 5.9243784,43.39156 17.0176144,57.2688 l 2.30922,2.88875 7.173113,-3.86587 c 4.10011,-2.2097 7.54805,-3.49093 8.048304,-2.99067 1.496509,1.49651 2.839131,20.73987 1.94824,27.92349 -1.310021,10.56324 -6.09605,14.8967 -11.914778,10.78811 z M 320,432.78223 c -11.29083,-3.96435 -20.81755,-10.64099 -39.5,-27.68292 -4.95,-4.51534 -10.2375,-8.95689 -11.75,-9.87012 -3.62912,-2.1912 -3.47062,-3.44217 0.85403,-6.74074 1.98222,-1.51191 8.39472,-7.03449 14.25,-12.2724 18.49969,-16.54911 28.13858,-22.71841 40.40501,-25.86093 16.16597,-4.14152 32.26995,2.7263 55.90262,23.84066 5.86392,5.23905 12.72642,11.21746 15.25,13.28535 2.52359,2.06789 4.58834,4.06549 4.58834,4.43912 0,1.09422 -28.66009,26.16977 -35.36803,30.94453 -3.37258,2.40062 -9.47981,5.97861 -13.57163,7.95109 -6.42102,3.09528 -8.61172,3.63165 -16,3.91745 -6.93769,0.26837 -9.79244,-0.10147 -15.06034,-1.95109 z m 29.43885,-5.60682 c 3.76644,-1.76253 9.59602,-5.16735 12.95461,-7.56626 6.91534,-4.93936 31.10654,-26.28424 31.10654,-27.44656 0,-0.99273 -22.64058,-21.10226 -30.1665,-26.79411 -12.07389,-9.13148 -24.11412,-13.25104 -34.81951,-11.91349 -8.53741,1.06667 -21.2629,7.97864 -32.69897,17.76074 -21.24255,18.1703 -23.64148,20.30814 -23.48134,20.92578 0.0915,0.35283 5.34132,5.24001 11.66632,10.86041 26.00111,23.10457 35.39204,28.2472 50.54539,27.6795 6.56636,-0.246 9.30431,-0.89053 14.89346,-3.50601 z m -27.57466,-14.96885 c -14.11432,-7.35013 -16.18654,-26.92709 -3.95816,-37.39413 6.78721,-5.8096 16.56834,-7.2872 24.45413,-3.69419 l 2.61485,1.19141 -3.7375,3.23081 c -3.3275,2.8764 -3.73751,3.74602 -3.73751,7.92721 0,4.0699 0.44928,5.09782 3.36797,7.70567 2.85555,2.55143 3.99664,2.9452 7.5,2.58807 2.27262,-0.23167 4.98323,-0.79535 6.02358,-1.25262 1.73249,-0.76149 1.83059,-0.50641 1.16651,3.03339 -3.03412,16.17327 -19.24288,24.18983 -33.69387,16.66438 z m -189.17921,-1.22342 c -4.31344,-1.29471 -9.50145,-5.69422 -11.54587,-9.79107 -1.01334,-2.03064 -4.65261,-15.01115 -8.08727,-28.84558 l -6.24484,-25.15351 6.03568,-8.34649 c 4.54116,-6.27978 8.45641,-10.2036 15.81191,-15.84649 5.37693,-4.125 10.4668,-8.76479 11.31082,-10.31063 1.45878,-2.67179 1.4124,-2.91095 -0.93877,-4.84117 -2.14992,-1.76498 -3.58842,-1.98356 -11,-1.67138 -7.74145,0.32606 -9.43886,0.79586 -18.43277,5.10169 -5.44837,2.60841 -10.098652,4.55004 -10.333952,4.31474 -1.090856,-1.09085 -5.222041,-19.57293 -5.239874,-23.44212 -0.01102,-2.39188 0.701212,-5.86881 1.582748,-7.7265 C 97.518682,280.38719 104.31973,274 106.70288,274 c 3.16345,0 -0.0785,-1.8239 -7.879197,-4.43275 C 94.601709,268.15526 90.11731,267 88.858353,267 c -1.258957,0 -8.476714,4.10405 -16.03946,9.12012 C 60.081583,284.56827 56,286.24231 56,283.0183 c 0,-0.57445 6.798156,-5.54993 15.107013,-11.05662 17.366062,-11.50934 15.411899,-11.1929 32.392987,-5.24536 5.5,1.92634 10.9,3.6957 12,3.93189 1.1,0.2362 22.925,-4.7957 48.5,-11.18199 36.05016,-9.00204 47.56193,-11.51629 51.22542,-11.18799 5.55266,0.49759 11.98572,4.37626 14.72256,8.87663 1.02845,1.69115 4.22197,12.50206 7.0967,24.02424 2.87474,11.52218 5.5785,20.583 6.00836,20.13516 0.42986,-0.44784 7.10076,-11.36053 14.82421,-24.25042 8.07591,-13.47812 14.25969,-22.82594 14.55346,-22 C 273.4416,257.90597 296.75067,352 296.44383,352 c -0.17279,0 -11.14334,-6.50747 -24.379,-14.46104 -13.23566,-7.95357 -24.07548,-14.14107 -24.0885,-13.75 -0.013,0.39107 2.33475,10.25693 5.21728,21.92412 4.94449,20.01316 5.17012,21.47789 3.98885,25.89453 -1.54172,5.76432 -4.21125,9.62903 -8.46874,12.2603 -3.57097,2.20698 -105.88729,28.18797 -110.44913,28.04614 -1.52052,-0.0473 -4.03135,-0.46618 -5.57961,-0.93091 z m 51.68071,-69.59528 c 7.07613,-9.0694 12.66723,-16.68828 12.42466,-16.93084 -0.84906,-0.84906 -38.29407,-17.1644 -38.67014,-16.84915 -0.59604,0.49966 12.04512,50.3995 12.75038,50.33097 0.34617,-0.0336 6.41897,-7.48158 13.4951,-16.55098 z m 173.69649,-10.48192 c -1.23013,-7.92326 -2.47833,-15.44712 -2.77379,-16.71967 -0.52841,-2.2759 -0.43869,-2.30259 5.48762,-1.6321 l 6.02481,0.68163 0.67808,-8.3679 c 1.81033,-22.34051 -5.40066,-52.6056 -16.69923,-70.08796 -5.41392,-8.37701 -16.93132,-20.12525 -24.02967,-24.5113 -5.53888,-3.42246 -6.92293,-5.4257 -4.6985,-6.80047 1.69575,-1.04803 11.62437,5.5231 18.60527,12.31366 7.95179,7.73497 17.3609,22.06695 21.47986,32.71817 6.86873,17.76184 10.50204,40.34293 9.2054,57.21171 L 370.70495,314 h 5.64752 c 3.10614,0 5.64753,0.35311 5.64753,0.78468 0,0.43157 -3.61629,5.71907 -8.0362,11.75 -4.41992,6.03093 -8.2937,11.97782 -8.60841,13.21532 -0.31471,1.2375 -1.03631,2.25 -1.60356,2.25 -0.56724,0 -1.57623,0.74518 -2.2422,1.65594 -0.99618,1.36236 -1.60739,-0.89811 -3.44745,-12.75 z m 6.79687,-5.32272 c 1.56756,-8.12911 1.53168,-8.29887 -1.85905,-8.79653 -1.65,-0.24217 -3,-0.0866 -3,0.34565 0,3.54211 2.4197,15.82842 2.99077,15.18594 0.40003,-0.45005 1.24076,-3.48083 1.86828,-6.73506 z m 7.45436,-3.48063 c 2.46451,-3.72413 2.49269,-3.92003 0.63388,-4.40612 -1.06991,-0.27979 -2.11164,-0.21346 -2.31496,0.14741 -0.6177,1.09639 -1.75206,8.15612 -1.31053,8.15612 0.22684,0 1.57306,-1.75384 2.99161,-3.89741 z M 51.302838,274.3468 c -0.822543,-2.14351 5.688012,-7.79359 15.442917,-13.40188 7.90786,-4.54638 10.513647,-5.24496 10.985042,-2.94492 0.191934,0.93649 -1.672051,2.58507 -4.961685,4.38831 -2.898012,1.58857 -8.517387,5.30107 -12.487502,8.25 C 56.311496,273.58724 52.809872,276 52.500225,276 c -0.309647,0 -0.848471,-0.74394 -1.197387,-1.6532 z M 138.38,212.54789 c -0.30647,-0.79867 -0.26579,-1.92367 0.0904,-2.5 C 138.91341,209.33108 165.16542,209 221.55902,209 H 304 v 2.5 2.5 h -82.53138 c -71.22911,0 -82.6077,-0.19886 -83.08862,-1.45211 z m 0.72428,-18.45892 c -0.76764,-0.48792 -1.11926,-1.60754 -0.78138,-2.48805 C 138.87932,190.1509 146.72325,190 221.53817,190 h 82.60093 l -0.31955,2.25 -0.31955,2.25 -81.5,0.23805 c -46.1705,0.13485 -82.10503,-0.14651 -82.89572,-0.64908 z M 228,173.94138 c -6.325,-2.77215 -14.75532,-6.40702 -18.73404,-8.0775 -12.63274,-5.30389 -14.88492,-10.84028 -9.39096,-23.08528 1.58125,-3.52431 2.875,-7.68439 2.875,-9.24463 0,-1.76105 0.84193,-3.47186 2.22021,-4.5115 1.50824,-1.13767 2.30851,-2.93302 2.49556,-5.59859 0.15143,-2.15813 2.4085,-8.68483 5.0157,-14.50377 l 4.74036,-10.579891 -4.05075,-8.42011 C 200.99055,64.601002 205.2475,37.721205 224.48435,18.484351 243.58766,-0.61895597 271.56412,-5.2407197 295.8709,6.6911589 c 10.59617,5.2015241 22.23642,16.8417671 27.43794,27.4379451 8.91344,18.157829 8.88452,37.642851 -0.0829,55.870896 -7.45395,15.15159 -24.94917,28.79896 -41.22952,32.16161 l -5.87599,1.21367 -3.93664,9.06236 c -2.16515,4.9843 -4.22982,10.31578 -4.58814,11.84773 -0.38595,1.65008 -1.62421,3.15519 -3.038,3.69272 -2.78337,1.05823 -4.38832,4.89049 -2.52931,6.03942 1.97739,1.22209 0.32815,5.98249 -2.07263,5.98249 -1.52546,0 -2.82219,1.79057 -5.41151,7.47247 -3.60631,7.91353 -7.54124,11.5255 -12.54419,11.51462 -1.375,-0.003 -7.675,-2.27356 -14,-5.04571 z m 40.90714,-43.95542 c 3.67368,-8.44436 4.76695,-10.09926 6.97471,-10.55772 9.07118,-1.88369 12.26554,-2.88505 17.67919,-5.54203 C 313.36415,104.16699 326,83.955911 326,62 326,42.687469 316.4677,24.808222 300.46472,14.104774 282.85903,2.3293698 261.3265,0.90386375 242.06461,10.238544 c -9.53606,4.621362 -20.9368,16.179032 -25.55786,25.909671 -8.85734,18.651039 -8.14524,38.450835 1.98794,55.27444 l 3.56733,5.922656 -4.42612,10.077349 -4.42612,10.07734 5.09236,2.28045 c 9.28218,4.15674 8.67147,4.44739 13.64766,-6.49529 2.4474,-5.38184 7.47514,-16.729226 11.17278,-25.216419 l 6.72297,-15.431258 -3.48298,-4.068742 C 244.44693,66.330934 241.44418,61.584462 239.68979,58.021027 237.11965,52.80066 236.5,50.309904 236.5,45.199265 c 0,-6.164431 0.11842,-6.453253 4.21128,-10.271028 C 244.08339,31.782768 245.68108,31 248.72914,31 c 4.88284,0 10.43284,3.714224 12.70508,8.502621 2.13966,4.509004 1.57151,8.511485 -3.05156,21.497379 -1.86013,5.225 -3.3822,9.797249 -3.38236,10.160552 -4.2e-4,0.925551 10.05732,5.83996 11.94604,5.837072 0.87529,-0.0013 2.86355,-2.511094 4.55366,-5.747997 3.88217,-7.435165 9.41948,-12.956295 13.82274,-13.782351 7.14486,-1.340383 13.46209,5.175533 11.58866,11.95312 -1.10293,3.990091 -7.68311,9.895024 -12.7023,11.39881 C 282.04147,81.468642 278.19182,82 275.6543,82 c -4.32526,0 -4.73299,0.234407 -6.52281,3.75 -1.87679,3.686409 -14.49977,33.14004 -18.2382,42.5558 l -1.90809,4.8058 7.2574,3.37901 c 3.99157,1.85846 7.49378,3.40835 7.78269,3.4442 0.28891,0.0359 2.48574,-4.44113 4.88185,-9.94885 z M 247.51355,126.25 c 0.9819,-2.6125 5.59263,-13.66291 10.24607,-24.55646 4.65344,-10.893547 8.29871,-19.939265 8.10059,-20.101591 -0.99909,-0.818605 -12.00191,-5.48005 -12.63115,-5.351303 -0.40098,0.08204 -2.34712,3.998962 -4.32474,8.704263 -1.97763,4.7053 -6.85647,15.676251 -10.84187,24.379891 -3.9854,8.70364 -7.09234,15.92992 -6.90432,16.05839 1.33206,0.91019 12.56323,5.58232 13.45601,5.59767 0.61278,0.0105 1.91752,-2.11836 2.89941,-4.73086 z m 38.08789,-50.299107 c 7.00488,-3.391004 9.59352,-8.846843 5.93394,-12.506423 -3.13914,-3.13914 -5.61634,-3.088673 -9.51745,0.193898 -2.80616,2.361227 -8.98459,11.696636 -9.00855,13.611632 -0.0194,1.551745 8.52368,0.670365 12.59206,-1.299107 z M 255.44991,57.018487 C 257.40246,50.978655 259,45.083655 259,43.918487 259,42.753319 257.47,40.27 255.6,38.4 c -4.52002,-4.52002 -8.66168,-4.615987 -12.69879,-0.294245 -3.86009,4.132241 -3.87651,9.333855 -0.0549,17.394245 2.44105,5.148561 7.55324,12.5 8.6925,12.5 0.19856,0 1.95856,-4.941681 3.9111,-10.981513 z M 97.830514,117 C 90.798928,91.705443 85.798129,72.009625 86.410525,72.02198 c 2.24386,0.04527 85.720215,31.66394 85.731985,32.47304 0.007,0.46436 -6.53741,3.80544 -14.54258,7.42463 -8.00517,3.61919 -14.55465,6.80535 -14.55438,7.08035 2.6e-4,0.275 4.93637,5.9 10.96913,12.5 6.03276,6.6 10.97241,12.24578 10.97699,12.54617 0.005,0.3004 -3.19855,3.41737 -7.11807,6.9266 l -7.12639,6.38042 -5.62361,-5.94535 c -3.09298,-3.26995 -8.27578,-8.78382 -11.51733,-12.25305 -4.36586,-4.6725 -6.11468,-5.96383 -6.74601,-4.98124 -0.46875,0.72955 -4.25621,7.28895 -8.41658,14.57645 -4.16037,7.2875 -7.68567,13.25 -7.83401,13.25 -0.14833,0 -5.89895,-20.25 -12.779156,-45 z M 375.29901,88.205963 c -0.91682,-0.582782 -0.94739,-2.472035 -0.12919,-7.984688 C 376.06326,74.201641 376.55432,73 378.12081,73 c 2.21042,0 2.21634,0.07322 0.73264,9.057371 -1.16475,7.05282 -1.42465,7.502401 -3.55444,6.148592 z M 397.5,73.868586 c -2.75,-2.233024 -5.17663,-4.23109 -5.3925,-4.440148 -0.21588,-0.209059 0.16098,-1.047016 0.83747,-1.862128 1.05575,-1.272104 2.05855,-0.818992 7.07976,3.198962 4.42758,3.542934 5.59216,4.991421 4.79009,5.957857 -1.4816,1.785222 -1.71125,1.695604 -7.31482,-2.854543 z M 351.62904,69.475683 C 351.28307,68.574091 351,67.696083 351,67.524553 351,67.066475 363.84881,62 365.01052,62 365.55473,62 366,62.837548 366,63.861217 c 0,1.319357 -1.52845,2.455605 -5.25,3.902853 -2.8875,1.1229 -5.97943,2.336214 -6.87096,2.696254 -1.02229,0.41285 -1.85328,0.0492 -2.25,-0.984641 z m 43.68777,-17.092474 c -0.7647,-1.992777 0.0682,-2.630597 7.02849,-5.382107 4.86922,-1.924886 5.98941,-2.077557 6.70836,-0.914283 1.13979,1.844231 0.56376,2.287632 -6.85407,5.27591 -5.39365,2.172837 -6.38422,2.319705 -6.88278,1.02048 z m -34.6001,-7.998067 c -4.60264,-3.660916 -5.55091,-4.879994 -4.64499,-5.971554 1.37886,-1.661424 2.75431,-0.985537 8.85079,4.349203 2.70017,2.362786 4.13762,4.330898 3.69099,5.05357 -1.10099,1.781436 -1.6349,1.549448 -7.89679,-3.431219 z M 381.3619,38.75 c 0.32147,-1.7875 0.87906,-5.1625 1.2391,-7.5 0.51622,-3.351514 1.07394,-4.25 2.6381,-4.25 1.68295,0 1.90087,0.492434 1.43826,3.25 -0.29987,1.7875 -0.83951,5.1625 -1.19919,7.5 -0.52075,3.384243 -1.06615,4.25 -2.67736,4.25 -1.73603,0 -1.94038,-0.461567 -1.43891,-3.25 z"
         id="path3" />
      <path
         style="fill:#030207"
         d="M 489,448.95969 C 460.62177,446.1265 429.99729,433.70132 417.61681,419.99761 405.41033,406.4865 410.79074,394.72127 431.1797,390.33989 L 439,388.6594 v -79.21339 -79.2134 l -9.75,-0.42229 c -10.92605,-0.47324 -16.3817,-2.35302 -22.55172,-7.77037 -2.03506,-1.78681 -9.63811,-11.86427 -16.89567,-22.39435 -16.42528,-23.83164 -16.81445,-26.09121 -5.36568,-31.15393 l 4.93693,-2.18314 -8.93693,-4.82469 C 363.92379,152.56904 362.53608,151.53756 351.25,139.78916 345.0625,133.3482 340,127.6107 340,127.03916 c 0,-1.47857 1.84085,-1.32039 17,1.46084 16.87089,3.09528 16.07204,3.11019 15.39253,-0.28737 -0.37482,-1.8741 0.0429,-3.52121 1.275,-5.02714 1.69391,-2.07043 3.07861,-2.31419 18.31328,-3.22386 13.56543,-0.81 18.80676,-1.60122 29.62961,-4.47285 15.09821,-4.00601 18.28407,-4.20182 26.17113,-1.60854 3.14515,1.03414 8.44661,2.10882 11.78102,2.38818 9.23342,0.77359 15.22102,4.32106 23.19029,13.73951 6.62919,7.83469 6.75538,7.92321 7.47245,5.242 0.40116,-1.49999 0.99282,-5.20736 1.31479,-8.23859 l 0.58542,-5.51134 -8.16501,-6.48443 c -10.31586,-8.1926 -13.6866,-12.03858 -14.54057,-16.59065 -0.75906,-4.046141 0.92913,-10.971169 3.33369,-13.67492 3.36504,-3.783743 6.37581,-2.335209 23.42778,11.271492 8.97523,7.161818 17.53398,14.623228 19.01945,16.580908 3.85134,5.07562 4.10311,9.74847 1.53003,28.3976 l -2.27655,16.5 2.72278,8 c 2.46788,7.25107 5.26678,25.7961 4.34924,28.8174 -0.19753,0.65043 -0.62314,4.4261 -0.94581,8.39038 l -0.58667,7.20778 11.68095,6.22011 c 14.51602,7.72978 15.61694,8.75019 14.72968,13.65249 -0.3695,2.04151 -1.2705,4.89574 -2.00224,6.34272 -1.58102,3.12641 -6.97782,7.86912 -8.95437,7.86912 -0.76926,0 -5.70748,-2.30226 -10.97381,-5.11613 -5.26634,-2.81388 -9.88992,-4.80115 -10.27462,-4.41617 -0.92855,0.92922 -0.93549,0.77995 4.37162,94.0323 l 4.60981,81 5.8207,5.25073 c 6.2274,5.61762 9.9984,11.99807 9.9984,16.91711 0,4.09217 -3.69985,9.3197 -8.50305,12.01398 -8.31758,4.66561 -25.60553,6.86442 -41.49695,5.27787 z m 19.5,-19.83231 c 4.4,-1.73155 8.98736,-3.93108 10.19413,-4.88783 L 520.88827,422.5 515.55155,330 c -2.93519,-50.875 -5.13555,-93.85 -4.88969,-95.5 l 0.44703,-3 -38.30445,-20.49988 c -21.06744,-11.27493 -38.51667,-20.38377 -38.77606,-20.24186 -0.25939,0.14191 -0.48439,1.26685 -0.5,2.49988 -0.0253,1.99838 -0.52392,2.23631 -4.59111,2.19075 -7.27446,-0.0815 -10.51677,-2.09644 -19.07318,-11.85318 C 401.88476,174.49699 395.75492,170 391.33182,170 c -1.29449,0 -4.37371,0.94956 -6.84272,2.11013 -3.67994,1.72977 -4.4891,2.594 -4.4891,4.7946 0,2.97023 21.97837,35.99087 27.91061,41.93334 C 413.84821,224.7859 419.01369,226.5 431,226.5 h 10.5 l 0.5,95.95349 0.5,95.95349 12.0804,6.15734 c 6.64422,3.38654 14.29422,6.64539 17,7.24188 2.70578,0.59649 10.3196,0.94614 16.9196,0.777 10.68711,-0.27389 12.87526,-0.65198 20,-3.45582 z m 9.07088,-225.7515 c 0.38139,-2.54327 0.45974,-9.85577 0.17412,-16.25 -0.41684,-9.33187 -1.10211,-13.33375 -3.47285,-20.28125 -1.62445,-4.76046 -2.79866,-9.93546 -2.60937,-11.5 0.18929,-1.56455 1.24887,-9.52327 2.35462,-17.68606 2.26499,-16.72046 1.8452,-20.51629 -2.75145,-24.87902 -8.30957,-7.88672 -32.97798,-26.769275 -34.67068,-26.538845 -2.50988,0.341674 -4.89878,7.147796 -4.07889,11.621023 0.69534,3.793712 1.47603,4.639322 14.11254,15.286112 l 9.0771,7.64784 -1.41381,9.35216 c -1.33106,8.80482 -1.27526,12.24529 0.2855,17.60216 1.06198,3.64495 -2.13025,2.76498 -3.62765,-1 -2.4435,-6.14379 -16.39856,-21.85407 -21.97353,-24.73728 C 464.65619,119.77837 456,118.3159 456,119.82032 c 0,0.57608 3.89313,7.2516 8.6514,14.8345 9.13432,14.55668 10.45744,17.34923 8.21523,17.33886 -0.75165,-0.003 -5.81936,-7.24976 -11.26158,-16.10285 -6.60413,-10.74321 -10.91678,-16.71794 -12.96743,-17.96501 -6.00267,-3.65044 -11.97583,-3.56078 -25.13762,0.37734 -3.83438,1.14728 -3.56634,1.21754 6.47334,1.69684 l 10.47334,0.5 7.69315,17 c 4.71696,10.42334 7.33859,17.36752 6.77666,17.95 -1.45901,1.51236 -2.31815,0.047 -9.45437,-16.12565 l -6.69629,-15.17565 -7.2865,-0.6828 c -4.00757,-0.37554 -17.66385,-0.5215 -30.34729,-0.32435 -20.38643,0.31688 -23.265,0.56265 -24.8215,2.11924 -1.63942,1.63952 -1.64878,1.94943 -0.13579,4.5 0.89369,1.50656 3.35747,3.97311 5.47507,5.48121 3.34262,2.38053 6.13647,3.07263 21.19303,5.25 9.53857,1.3794 17.7127,2.508 18.16472,2.508 0.45202,0 1.61526,3.36542 2.58497,7.47871 0.96971,4.11329 2.02059,7.87673 2.33528,8.36319 0.3147,0.48647 20.14718,11.35899 44.07218,24.16115 23.925,12.80217 43.9275,23.66373 44.45,24.13681 1.79137,1.62193 2.42844,0.85359 3.12088,-3.76398 z M 430,190.56425 c 0,-2.05561 -1.5856,-3.30519 -10.15989,-8.00677 -5.58795,-3.06406 -10.36877,-5.36216 -10.62405,-5.10688 -0.99133,0.99134 12.28296,13.62622 15.2084,14.47583 4.85371,1.40961 5.57554,1.23326 5.57554,-1.36218 z m -8.33438,-34.99324 c -0.30159,-0.78594 -0.85591,-3.06844 -1.23182,-5.07221 -0.45501,-2.42537 -1.39387,-3.90153 -2.80864,-4.41593 -2.80063,-1.0183 -19.72702,-3.31434 -20.28917,-2.75219 -0.4416,0.4416 22.43104,13.35143 24.021,13.55799 0.47134,0.0612 0.61023,-0.53171 0.30863,-1.31766 z M 366,148.09607 c 0,-0.49717 1.54577,-3.63868 3.43504,-6.98114 1.88927,-3.34246 3.10515,-6.28107 2.70196,-6.53026 -0.40319,-0.24918 -4.98645,-1.16903 -10.18503,-2.04409 -5.19859,-0.87507 -10.77048,-1.85823 -12.382,-2.1848 -2.62995,-0.53296 -2.02056,0.39137 5.95012,9.02522 C 363.91094,148.46998 366,150.20724 366,148.09607 Z M 30.286484,435.03315 C 16.750417,426.7798 0.97121319,383.2009 0.7646733,353.5 0.66122086,338.62331 3.6507061,331.85324 9.4011041,333.94172 c 1.6515079,0.59981 1.4873949,0.86182 -1.25,1.99569 L 5,337.24264 v 10.42084 c 0,18.02408 4.7670101,34.59562 14.036514,48.79508 2.707709,4.14779 5.12264,7.54144 5.366513,7.54144 0.243872,0 3.798003,-1.80945 7.898067,-4.02099 7.43254,-4.00907 7.456581,-4.01426 8.100865,-1.75 0.355412,1.24904 0.915984,7.67099 1.245716,14.27099 0.651399,13.03858 -0.36189,19.21422 -3.700422,22.55275 -2.437718,2.43771 -3.635621,2.43465 -7.660769,-0.0196 z m 292.988026,-1.51243 c -11.54391,-3.24124 -22.67546,-10.63347 -41.3038,-27.429 -5.24111,-4.72545 -11.09111,-9.83346 -13,-11.35115 L 265.5,391.98115 268,390.24214 c 1.375,-0.95645 6.55,-5.34433 11.5,-9.75085 15.82128,-14.08418 18.80446,-16.5401 25.48894,-20.98394 20.75195,-13.79587 38.07857,-13.13469 59.51106,2.27094 3.85,2.76737 12.85,10.24489 20,16.61671 7.15,6.37181 13.3375,11.58959 13.75,11.59506 0.4125,0.005 0.75,0.82919 0.75,1.8305 0,1.01511 -2.76511,4.10773 -6.25,6.99029 -3.4375,2.84335 -10.075,8.57707 -14.75,12.74159 -10.76881,9.59295 -23.23316,17.96966 -30.69736,20.6303 -7.49835,2.6728 -17.32518,3.22 -24.02813,1.33798 z m 23.35373,-4.65459 c 8.96591,-3.35457 19.19889,-10.60861 34.37233,-24.36613 3.03302,-2.75 7.49495,-6.67917 9.91539,-8.7315 l 4.4008,-3.73149 -2.77287,-2.18115 c -1.52508,-1.19962 -7.53045,-6.42023 -13.34527,-11.60134 -13.02582,-11.60624 -20.85558,-17.2516 -29.80516,-21.48993 -6.28262,-2.97531 -7.73527,-3.26411 -16.39346,-3.25919 -8.39834,0.005 -10.24214,0.34731 -15.89971,2.95375 -8.36327,3.85296 -16.17301,9.6237 -32.54885,24.05085 l -13.41622,11.81973 3.80417,3.08513 c 2.0923,1.69683 7.89625,6.78707 12.89767,11.31164 16.02771,14.49961 28.09729,22.15857 38.16294,24.21696 5.82402,1.19099 14.1279,0.35476 20.62824,-2.07733 z M 325,413.74619 c -4.8956,-1.63526 -12.28601,-9.33922 -13.77768,-14.36221 -4.0101,-13.50352 3.63338,-26.60562 17.1008,-29.31342 5.14853,-1.03518 10.45952,-0.41084 14.1703,1.66582 1.7282,0.96715 1.71083,1.08394 -0.32317,2.1725 -1.18225,0.63273 -2.82921,2.46472 -3.6599,4.0711 -4.9159,9.50631 3.97898,19.76719 13.63735,15.73167 l 3.55155,-1.48393 -0.85847,4.59515 c -1.85169,9.9116 -10.16733,17.07187 -20.59039,17.72957 -3.16271,0.19957 -7.32539,-0.16324 -9.25039,-0.80625 z m -190.56936,-2.68531 c -4.73596,-1.13315 -9.23356,-4.16853 -11.91293,-8.0399 -1.71923,-2.4841 -4.3272,-11.1765 -8.85597,-29.51713 l -6.41911,-25.99615 2.77265,-4.02991 c 6.72343,-9.77217 11.67386,-14.97046 20.38018,-21.40058 5.12306,-3.78368 9.60488,-7.63572 9.9596,-8.5601 2.33371,-6.08156 -2.16557,-8.98481 -12.86046,-8.29846 -5.97451,0.38342 -8.85976,1.2792 -17.6592,5.4826 l -10.517919,5.0243 -2.821934,-11.74408 C 93.889168,293.13446 93.776252,291.8708 95.017304,287.4382 96.516909,282.08213 102.35068,275.45206 106.47456,274.41703 107.86355,274.06841 109,273.45734 109,273.0591 c 0,-0.65717 -19.444378,-7.12686 -21.27641,-7.07927 -0.427026,0.0111 -6.815849,4.06228 -14.197385,9.00263 -14.282937,9.55936 -15.526208,10.19686 -16.218362,8.31607 -0.25095,-0.68191 5.846055,-5.39098 14.099002,-10.88949 14.168134,-9.43949 14.655686,-9.67232 19.005637,-9.07609 2.455463,0.33656 9.205792,2.36073 15.000728,4.49816 l 10.53626,3.88623 46.27526,-11.48977 c 46.40117,-11.52102 53.8452,-12.81763 58.82724,-10.24655 3.4421,1.77636 7.88018,6.04747 9.49529,9.13806 0.75278,1.4405 3.66824,11.78363 6.47879,22.98474 2.81055,11.20111 5.2386,20.49416 5.39566,20.65122 0.15706,0.15706 6.76393,-10.53314 14.68193,-23.756 10.9569,-18.29777 14.57617,-23.6184 15.14896,-22.27031 1.07274,2.52472 23.66087,93.69113 23.30248,94.04953 -0.16342,0.16342 -10.42318,-5.78709 -22.79947,-13.22336 -12.37629,-7.43626 -23.19131,-13.78486 -24.03339,-14.108 -1.2157,-0.46651 -0.70835,2.67102 2.46315,15.23279 6.59033,26.10309 6.85282,27.73724 5.37221,33.44514 -1.34982,5.20366 -5.13846,10.05103 -9.73131,12.45069 -2.72467,1.42357 -105.96473,27.50875 -108.13563,27.32212 -0.65485,-0.0563 -2.57185,-0.43284 -4.26,-0.83676 z m 50.51462,-70.01595 c 9.64566,-12.14085 12.71605,-16.65497 11.71089,-17.21748 C 194.82096,322.80042 158.21676,307 157.67269,307 c -0.2363,0 2.50357,11.7271 6.08861,26.06023 3.58504,14.33312 6.87656,25.69562 7.31449,25.25 0.43793,-0.44563 6.67919,-8.21501 13.86947,-17.2653 z M 358.16542,329.6616 c -1.19613,-7.78888 -2.17329,-14.8366 -2.17146,-15.6616 0.003,-1.18814 1.11823,-1.43045 5.36595,-1.16549 6.5112,0.40615 6.60651,0.20183 6.62644,-14.20617 0.0508,-36.74345 -14.6429,-70.09869 -38.15337,-86.60945 -3.83805,-2.69536 -7.42134,-5.04834 -7.96286,-5.22885 -0.54152,-0.18051 -0.68508,-1.10866 -0.31903,-2.06258 0.60571,-1.57845 1.11621,-1.48909 5.67836,0.99394 10.5345,5.7336 24.06501,20.90498 31.01707,34.7786 8.25189,16.46756 11.73224,31.90683 12.45457,55.25 0.55922,18.07227 0.58656,18.25 2.80682,18.25 1.23315,0 3.61495,0.27457 5.29288,0.61016 l 3.0508,0.61016 -8.4258,11.58444 C 368.79161,333.1762 365,338.92488 365,339.57959 c 0,0.65472 -1.04846,1.87737 -2.32991,2.717 l -2.3299,1.52662 z m 7.15755,-4.65792 c 0.83474,-4.12298 1.40825,-7.60579 1.27446,-7.73959 -0.1338,-0.13379 -1.67295,-0.52919 -3.42035,-0.87867 C 360.2143,315.79286 360,315.93839 360,318.54309 c 0,4.87158 2.20208,15.65677 3.01972,14.78982 0.43205,-0.4581 1.46851,-4.20626 2.30325,-8.32923 z M 372.25,322.9487 c 1.5125,-2.18647 2.75,-4.41939 2.75,-4.96205 0,-1.13652 -4.97773,-1.37008 -5.04355,-0.23665 -0.024,0.4125 -0.41353,2.6625 -0.86573,5 -0.45219,2.3375 -0.5451,4.23292 -0.20645,4.21205 0.33865,-0.0209 1.85323,-1.82688 3.36573,-4.01335 z M 51.540386,274.06535 c -1.291937,-2.0904 23.324206,-18.88511 25.609713,-17.47258 1.793574,1.10849 0.581668,2.26187 -7.683851,7.31278 -4.693564,2.86815 -10.04047,6.53774 -11.882015,8.15464 -3.488019,3.06252 -5.066668,3.58626 -6.043847,2.00516 z M 139,211.5 c 0,-1.32121 9.83333,-1.5 82.5,-1.5 72.66667,0 82.5,0.17879 82.5,1.5 0,1.32121 -9.83333,1.5 -82.5,1.5 -72.66667,0 -82.5,-0.17879 -82.5,-1.5 z m 0,-19 c 0,-1.32319 9.75397,-1.47158 82.75,-1.25893 l 82.75,0.24107 -80.5,0.51486 -80.5,0.51486 80.5,0.5001 80.5,0.50011 -82.75,0.24396 C 148.75268,193.97125 139,193.82321 139,192.5 Z m 80.5,-22.58512 c -9.9,-4.37864 -18.77313,-8.88286 -19.71807,-10.00938 -3.3786,-4.02781 -3.32536,-8.49138 0.19687,-16.50614 1.7836,-4.05856 3.01662,-7.96891 2.74004,-8.68966 -0.58499,-1.52446 1.76458,-6.36149 2.86187,-5.8917 0.40851,0.1749 1.31209,-1.03606 2.00795,-2.69102 0.75151,-1.78732 0.87709,-3.1384 0.3093,-3.32766 -0.52574,-0.17525 1.48583,-5.80167 4.47015,-12.50316 l 5.42605,-12.184537 -4.23572,-8.439769 C 208.60157,79.795186 207,72.849097 207,61.227563 207,27.952514 233.58202,1.1229752 267,0.6688808 c 11.6244,-0.15795614 17.98376,1.2971681 28.9268,6.618917 11.65361,5.6673062 21.1181,15.1317912 26.7854,26.7853982 5.13162,10.552078 6.71228,17.128495 6.71228,27.926804 0,28.776813 -18.46239,52.30198 -46.8601,59.71015 l -6.93563,1.80931 -4.13782,9.49027 c -2.2758,5.21965 -4.15124,9.71527 -4.16764,9.99027 -0.15189,2.54681 -1.73467,5.05612 -2.90575,4.60673 -0.8677,-0.33297 -2.00335,0.62541 -2.98073,2.51547 -1.39014,2.68823 -1.40206,3.19235 -0.0997,4.21559 1.95544,1.53633 0.43357,5.89518 -1.76386,5.05195 -1.11398,-0.42748 -2.50334,1.58716 -5.36261,7.77605 -6.3578,13.76142 -9.28741,13.99345 -34.71064,2.74909 z m 49.82103,-40.09645 4.17897,-9.68157 6.42726,-1.21511 c 8.46135,-1.59966 20.19122,-7.57663 27.2604,-13.89057 C 332.74754,82.201979 332.6141,41.917546 306.90151,18.648989 296.23889,8.9998694 283.02424,4 268.18425,4 c -22.48704,0 -42.55649,12.393477 -52.02632,32.12778 -5.03371,10.489812 -6.59503,18.368146 -5.8772,29.656112 0.63355,9.962509 3.30264,18.562014 8.14487,26.241771 l 3.32643,5.27571 -4.42093,9.971067 c -2.43152,5.48408 -4.26225,10.12975 -4.06829,10.3237 0.19395,0.19395 3.25166,1.68453 6.79491,3.3124 5.68925,2.61379 6.58076,2.78021 7.62701,1.42374 1.27154,-1.64857 15.34686,-32.465761 19.88434,-43.535769 l 2.74769,-6.703489 -3.77017,-4.173133 c -5.51776,-6.107505 -9.97211,-16.220599 -9.97379,-22.644394 -0.002,-6.235056 2.25775,-9.882203 7.83941,-12.654518 3.17447,-1.576707 4.37745,-1.700966 7.47699,-0.772319 4.39009,1.315303 8.81789,5.643215 10.00375,9.778085 0.99061,3.454037 -1.23727,13.338343 -5.21017,23.115713 l -2.53119,6.229297 2.85813,2.035171 c 2.63483,1.876159 11.04812,5.354922 11.49683,4.753753 0.10701,-0.143372 1.67891,-3.081431 3.49311,-6.529019 C 276.65288,62.388984 281.75011,58 287.36652,58 c 8.63114,0 12.25926,7.671547 7.17009,15.160937 -3.20483,4.71633 -9.98819,7.945076 -18.0519,8.592354 l -6.38679,0.51267 -4.65382,10.617019 C 258.93914,107.72309 249,131.86776 249,132.82981 c 0,1.02785 13.06928,7.05588 14.82103,6.836 0.72657,-0.0912 3.20157,-4.52252 5.5,-9.84738 z M 250.95887,118.75 c 2.95941,-7.2875 7.76871,-18.62312 10.68734,-25.19026 2.91863,-6.567142 5.20472,-11.993006 5.0802,-12.057475 -4.93943,-2.557251 -13.92903,-6.604116 -14.10403,-6.349238 -0.13102,0.190835 -1.529,3.496973 -3.10661,7.346973 -1.57761,3.85 -6.38904,14.753306 -10.69207,24.22957 -4.30304,9.47626 -7.8237,17.62445 -7.8237,18.10709 0,0.70744 12.03475,6.7781 14.03907,7.08169 0.29648,0.0449 2.9604,-5.88085 5.9198,-13.16835 z M 286,76.09417 c 3.52331,-1.779918 8,-7.231441 8,-9.742053 0,-2.296418 -3.8577,-5.352374 -6.75,-5.34715 -1.5125,0.0027 -3.9733,1.015232 -5.46844,2.25 -3.29103,2.717906 -9.95683,13.65242 -9.13414,14.983556 0.82178,1.329672 9.11088,-0.0015 13.35258,-2.144353 z M 255.63684,57.935365 c 4.2472,-12.334131 4.27329,-15.401139 0.16699,-19.637758 -4.15731,-4.289263 -8.92558,-4.513209 -12.99911,-0.610516 -5.12355,4.908673 -3.41518,15.066004 4.35338,25.883527 1.76661,2.45997 3.66601,4.321346 4.22087,4.136392 0.55486,-0.184954 2.4709,-4.582194 4.25787,-9.771645 z M 98.201372,116.91106 C 91.46931,92.597952 86.095845,72.570822 86.260338,72.406328 c 0.239799,-0.239798 78.457232,28.605802 85.019532,31.354132 1.31684,0.5515 -2.1301,2.5355 -13.25,7.62647 C 149.76344,115.17151 143,118.67475 143,119.17191 c 0,0.49716 4.94743,6.24711 10.99429,12.77766 l 10.99428,11.87374 -7.16873,6.63715 -7.16873,6.63715 -7.57231,-8.29881 c -4.16478,-4.56434 -9.37377,-10.22531 -11.57556,-12.57994 l -4.00324,-4.28115 -7.2452,12.83346 c -3.98486,7.05839 -7.82303,13.62367 -8.52926,14.5895 -1.09979,1.50404 -3.04058,-4.5877 -13.524168,-42.44961 z M 375.40172,81 c 0.7453,-5.392294 1.34009,-7 2.58971,-7 1.43201,0 1.5111,0.820681 0.67464,7 -0.73641,5.440184 -1.31348,7 -2.58971,7 -1.45861,0 -1.53401,-0.782354 -0.67464,-7 z m 22.16971,-7.571429 c -3.92709,-3.198983 -5.40751,-4.992493 -4.70272,-5.697284 1.13634,-1.136336 3.26009,0.04881 9.13129,5.095648 2.56545,2.205245 3.20665,3.310532 2.40137,4.13945 -0.81082,0.83462 -2.60007,-0.09219 -6.82994,-3.537814 z M 352,68.724551 c 0,-0.869315 2.19163,-2.360841 5.25,-3.572924 6.87084,-2.723025 7.91063,-2.89535 8.45828,-1.401788 0.27348,0.74586 -1.42728,2.058084 -4.21779,3.254237 C 354.39195,70.046868 352,70.480489 352,68.724551 Z m 43.48402,-16.750405 c -0.89159,-1.442623 -1.02206,-1.353985 6.43839,-4.374178 C 409.49604,44.533952 409,44.608554 409,46.535537 c 0,0.85441 -1.8852,2.342701 -4.25,3.35521 -6.70913,2.872566 -8.5258,3.281035 -9.26598,2.083399 z m -31.50356,-5.255747 c -1.38574,-1.22012 -3.75146,-3.185698 -5.25716,-4.367952 -1.75664,-1.379298 -2.51942,-2.71817 -2.12869,-3.736396 0.4935,-1.286047 1.72698,-0.708451 6.50717,3.047077 4.65316,3.655727 5.6613,4.919421 4.77579,5.986397 -1.34798,1.624213 -0.86689,1.738911 -3.89711,-0.929126 z M 382.45535,34.75 c 0.78857,-8.009717 0.86917,-8.223182 2.82191,-7.473846 C 387.29104,28.048912 385.35127,42 383.23005,42 c -1.24672,0 -1.37254,-1.177495 -0.7747,-7.25 z"
         id="path2" />
    </g>
  </g>
</svg>
